<?xml version="1.0" encoding="UTF-8" standalone="no"?>
<!DOCTYPE svg PUBLIC "-//W3C//DTD SVG 1.1//EN"
 "http://www.w3.org/Graphics/SVG/1.1/DTD/svg11.dtd">
<!-- Generated by graphviz version 2.40.1 (0)
 -->
<!-- Title: partseditor/obsolete/pcbxml.cpp Pages: 1 -->
<svg width="541pt" height="207pt"
 viewBox="0.00 0.00 540.50 207.00" xmlns="http://www.w3.org/2000/svg" xmlns:xlink="http://www.w3.org/1999/xlink">
<g id="graph0" class="graph" transform="scale(1 1) rotate(0) translate(4 203)">
<title>partseditor/obsolete/pcbxml.cpp</title>
<polygon fill="#ffffff" stroke="transparent" points="-4,4 -4,-203 536.5,-203 536.5,4 -4,4"/>
<!-- Node0 -->
<g id="node1" class="node">
<title>Node0</title>
<g id="a_node1"><a xlink:title=" ">
<polygon fill="#bfbfbf" stroke="#000000" points="234.5,-168.5 234.5,-198.5 349.5,-198.5 349.5,-168.5 234.5,-168.5"/>
<text text-anchor="start" x="242.5" y="-186.5" font-family="Helvetica,sans-Serif" font-size="10.00" fill="#000000">partseditor/obsolete</text>
<text text-anchor="middle" x="292" y="-175.5" font-family="Helvetica,sans-Serif" font-size="10.00" fill="#000000">/pcbxml.cpp</text>
</a>
</g>
</g>
<!-- Node1 -->
<g id="node2" class="node">
<title>Node1</title>
<g id="a_node2"><a xlink:href="../../d7/d17/pcbxml_8h.html" target="_top" xlink:title=" ">
<polygon fill="#ffffff" stroke="#000000" points="121,-112.5 121,-131.5 183,-131.5 183,-112.5 121,-112.5"/>
<text text-anchor="middle" x="152" y="-119.5" font-family="Helvetica,sans-Serif" font-size="10.00" fill="#000000">pcbxml.h</text>
</a>
</g>
</g>
<!-- Node0&#45;&gt;Node1 -->
<g id="edge1" class="edge">
<title>Node0&#45;&gt;Node1</title>
<path fill="none" stroke="#191970" d="M257.7521,-168.4554C234.9051,-158.419 205.1121,-145.3314 182.9733,-135.6061"/>
<polygon fill="#191970" stroke="#191970" points="184.2583,-132.3478 173.695,-131.5303 181.4429,-138.7567 184.2583,-132.3478"/>
</g>
<!-- Node7 -->
<g id="node8" class="node">
<title>Node7</title>
<g id="a_node8"><a xlink:title=" ">
<polygon fill="#ffffff" stroke="#bfbfbf" points="201,-112.5 201,-131.5 245,-131.5 245,-112.5 201,-112.5"/>
<text text-anchor="middle" x="223" y="-119.5" font-family="Helvetica,sans-Serif" font-size="10.00" fill="#000000">QSize</text>
</a>
</g>
</g>
<!-- Node0&#45;&gt;Node7 -->
<g id="edge7" class="edge">
<title>Node0&#45;&gt;Node7</title>
<path fill="none" stroke="#191970" d="M274.9438,-168.2977C264.8671,-159.3163 252.096,-147.9334 241.7389,-138.702"/>
<polygon fill="#191970" stroke="#191970" points="243.8417,-135.8879 234.0478,-131.8469 239.1841,-141.1135 243.8417,-135.8879"/>
</g>
<!-- Node8 -->
<g id="node9" class="node">
<title>Node8</title>
<g id="a_node9"><a xlink:title=" ">
<polygon fill="#ffffff" stroke="#bfbfbf" points="263,-112.5 263,-131.5 321,-131.5 321,-112.5 263,-112.5"/>
<text text-anchor="middle" x="292" y="-119.5" font-family="Helvetica,sans-Serif" font-size="10.00" fill="#000000">QPainter</text>
</a>
</g>
</g>
<!-- Node0&#45;&gt;Node8 -->
<g id="edge8" class="edge">
<title>Node0&#45;&gt;Node8</title>
<path fill="none" stroke="#191970" d="M292,-168.2977C292,-160.3834 292,-150.6043 292,-142.0759"/>
<polygon fill="#191970" stroke="#191970" points="295.5001,-141.8469 292,-131.8469 288.5001,-141.847 295.5001,-141.8469"/>
</g>
<!-- Node9 -->
<g id="node10" class="node">
<title>Node9</title>
<g id="a_node10"><a xlink:title=" ">
<polygon fill="#ffffff" stroke="#bfbfbf" points="339,-112.5 339,-131.5 419,-131.5 419,-112.5 339,-112.5"/>
<text text-anchor="middle" x="379" y="-119.5" font-family="Helvetica,sans-Serif" font-size="10.00" fill="#000000">QTextStream</text>
</a>
</g>
</g>
<!-- Node0&#45;&gt;Node9 -->
<g id="edge9" class="edge">
<title>Node0&#45;&gt;Node9</title>
<path fill="none" stroke="#191970" d="M313.5056,-168.2977C326.7968,-158.9022 343.8057,-146.8787 357.1588,-137.4395"/>
<polygon fill="#191970" stroke="#191970" points="359.1846,-140.2937 365.33,-131.6633 355.1439,-134.5776 359.1846,-140.2937"/>
</g>
<!-- Node10 -->
<g id="node11" class="node">
<title>Node10</title>
<g id="a_node11"><a xlink:title=" ">
<polygon fill="#ffffff" stroke="#bfbfbf" points="437.5,-112.5 437.5,-131.5 532.5,-131.5 532.5,-112.5 437.5,-112.5"/>
<text text-anchor="middle" x="485" y="-119.5" font-family="Helvetica,sans-Serif" font-size="10.00" fill="#000000">../debugdialog.h</text>
</a>
</g>
</g>
<!-- Node0&#45;&gt;Node10 -->
<g id="edge10" class="edge">
<title>Node0&#45;&gt;Node10</title>
<path fill="none" stroke="#191970" d="M339.2131,-168.4554C371.8394,-158.059 414.7404,-144.3884 445.5441,-134.5727"/>
<polygon fill="#191970" stroke="#191970" points="446.6265,-137.9013 455.0919,-131.5303 444.5012,-131.2317 446.6265,-137.9013"/>
</g>
<!-- Node2 -->
<g id="node3" class="node">
<title>Node2</title>
<g id="a_node3"><a xlink:title=" ">
<polygon fill="#ffffff" stroke="#bfbfbf" points="0,-56.5 0,-75.5 88,-75.5 88,-56.5 0,-56.5"/>
<text text-anchor="middle" x="44" y="-63.5" font-family="Helvetica,sans-Serif" font-size="10.00" fill="#000000">QDomElement</text>
</a>
</g>
</g>
<!-- Node1&#45;&gt;Node2 -->
<g id="edge2" class="edge">
<title>Node1&#45;&gt;Node2</title>
<path fill="none" stroke="#191970" d="M133.1878,-112.2455C116.1527,-103.4125 90.8425,-90.2887 71.5319,-80.2758"/>
<polygon fill="#191970" stroke="#191970" points="73.0853,-77.1388 62.5966,-75.6427 69.863,-83.353 73.0853,-77.1388"/>
</g>
<!-- Node3 -->
<g id="node4" class="node">
<title>Node3</title>
<g id="a_node4"><a xlink:title=" ">
<polygon fill="#ffffff" stroke="#bfbfbf" points="106.5,-56.5 106.5,-75.5 197.5,-75.5 197.5,-56.5 106.5,-56.5"/>
<text text-anchor="middle" x="152" y="-63.5" font-family="Helvetica,sans-Serif" font-size="10.00" fill="#000000">QSvgGenerator</text>
</a>
</g>
</g>
<!-- Node1&#45;&gt;Node3 -->
<g id="edge3" class="edge">
<title>Node1&#45;&gt;Node3</title>
<path fill="none" stroke="#191970" d="M152,-112.2455C152,-104.9382 152,-94.6944 152,-85.7046"/>
<polygon fill="#191970" stroke="#191970" points="155.5001,-85.6426 152,-75.6427 148.5001,-85.6427 155.5001,-85.6426"/>
</g>
<!-- Node4 -->
<g id="node5" class="node">
<title>Node4</title>
<g id="a_node5"><a xlink:href="../../df/d7b/svgdomdocument_8h.html" target="_top" xlink:title=" ">
<polygon fill="#ffffff" stroke="#000000" points="215.5,-56.5 215.5,-75.5 328.5,-75.5 328.5,-56.5 215.5,-56.5"/>
<text text-anchor="middle" x="272" y="-63.5" font-family="Helvetica,sans-Serif" font-size="10.00" fill="#000000">svgdomdocument.h</text>
</a>
</g>
</g>
<!-- Node1&#45;&gt;Node4 -->
<g id="edge4" class="edge">
<title>Node1&#45;&gt;Node4</title>
<path fill="none" stroke="#191970" d="M172.6287,-112.3733C191.8919,-103.3838 220.8486,-89.8706 242.5419,-79.7471"/>
<polygon fill="#191970" stroke="#191970" points="244.0587,-82.9017 251.6405,-75.5011 241.0985,-76.5584 244.0587,-82.9017"/>
</g>
<!-- Node5 -->
<g id="node6" class="node">
<title>Node5</title>
<g id="a_node6"><a xlink:title=" ">
<polygon fill="#ffffff" stroke="#bfbfbf" points="216.5,-.5 216.5,-19.5 263.5,-19.5 263.5,-.5 216.5,-.5"/>
<text text-anchor="middle" x="240" y="-7.5" font-family="Helvetica,sans-Serif" font-size="10.00" fill="#000000">QtXml</text>
</a>
</g>
</g>
<!-- Node4&#45;&gt;Node5 -->
<g id="edge5" class="edge">
<title>Node4&#45;&gt;Node5</title>
<path fill="none" stroke="#191970" d="M266.426,-56.2455C262.0669,-48.617 255.8789,-37.7881 250.5867,-28.5267"/>
<polygon fill="#191970" stroke="#191970" points="253.5104,-26.5886 245.5101,-19.6427 247.4327,-30.0616 253.5104,-26.5886"/>
</g>
<!-- Node6 -->
<g id="node7" class="node">
<title>Node6</title>
<g id="a_node7"><a xlink:title=" ">
<polygon fill="#ffffff" stroke="#bfbfbf" points="282,-.5 282,-19.5 326,-19.5 326,-.5 282,-.5"/>
<text text-anchor="middle" x="304" y="-7.5" font-family="Helvetica,sans-Serif" font-size="10.00" fill="#000000">QtGui</text>
</a>
</g>
</g>
<!-- Node4&#45;&gt;Node6 -->
<g id="edge6" class="edge">
<title>Node4&#45;&gt;Node6</title>
<path fill="none" stroke="#191970" d="M277.574,-56.2455C281.9331,-48.617 288.1211,-37.7881 293.4133,-28.5267"/>
<polygon fill="#191970" stroke="#191970" points="296.5673,-30.0616 298.4899,-19.6427 290.4896,-26.5886 296.5673,-30.0616"/>
</g>
</g>
</svg>
