<?xml version="1.0" encoding="UTF-8" standalone="no"?>
<!DOCTYPE svg PUBLIC "-//W3C//DTD SVG 1.1//EN"
 "http://www.w3.org/Graphics/SVG/1.1/DTD/svg11.dtd">
<!-- Generated by graphviz version 2.40.1 (0)
 -->
<!-- Title: MessageThing Pages: 1 -->
<svg width="289pt" height="171pt"
 viewBox="0.00 0.00 289.00 171.00" xmlns="http://www.w3.org/2000/svg" xmlns:xlink="http://www.w3.org/1999/xlink">
<g id="graph0" class="graph" transform="scale(1 1) rotate(0) translate(4 167)">
<title>MessageThing</title>
<polygon fill="#ffffff" stroke="transparent" points="-4,4 -4,-167 285,-167 285,4 -4,4"/>
<!-- Node1 -->
<g id="node1" class="node">
<title>Node1</title>
<g id="a_node1"><a xlink:title=" ">
<polygon fill="#bfbfbf" stroke="#000000" points="90.5,-.5 90.5,-57.5 177.5,-57.5 177.5,-.5 90.5,-.5"/>
<text text-anchor="middle" x="134" y="-45.5" font-family="Helvetica,sans-Serif" font-size="10.00" fill="#000000">MessageThing</text>
<polyline fill="none" stroke="#000000" points="90.5,-38.5 177.5,-38.5 "/>
<text text-anchor="middle" x="134" y="-26.5" font-family="Helvetica,sans-Serif" font-size="10.00" fill="#000000"> </text>
<polyline fill="none" stroke="#000000" points="90.5,-19.5 177.5,-19.5 "/>
<text text-anchor="middle" x="134" y="-7.5" font-family="Helvetica,sans-Serif" font-size="10.00" fill="#000000"> </text>
</a>
</g>
</g>
<!-- Node2 -->
<g id="node2" class="node">
<title>Node2</title>
<g id="a_node2"><a xlink:title=" ">
<polygon fill="#ffffff" stroke="#bfbfbf" points="0,-105.5 0,-162.5 50,-162.5 50,-105.5 0,-105.5"/>
<text text-anchor="middle" x="25" y="-150.5" font-family="Helvetica,sans-Serif" font-size="10.00" fill="#000000">QColor</text>
<polyline fill="none" stroke="#bfbfbf" points="0,-143.5 50,-143.5 "/>
<text text-anchor="middle" x="25" y="-131.5" font-family="Helvetica,sans-Serif" font-size="10.00" fill="#000000"> </text>
<polyline fill="none" stroke="#bfbfbf" points="0,-124.5 50,-124.5 "/>
<text text-anchor="middle" x="25" y="-112.5" font-family="Helvetica,sans-Serif" font-size="10.00" fill="#000000"> </text>
</a>
</g>
</g>
<!-- Node2&#45;&gt;Node1 -->
<g id="edge1" class="edge">
<title>Node2&#45;&gt;Node1</title>
<path fill="none" stroke="#404040" d="M34.7908,-105.3671C39.2279,-95.272 45.2477,-84.3652 53,-76 60.6289,-67.7681 70.0332,-60.5582 79.7007,-54.4177"/>
<polygon fill="none" stroke="#404040" points="79.9017,-54.2985 83.0216,-47.7972 90.2227,-48.1766 87.1029,-54.6779 79.9017,-54.2985"/>
<text text-anchor="middle" x="71" y="-79" font-family="Helvetica,sans-Serif" font-size="10.00" fill="#000000"> +color</text>
</g>
<!-- Node3 -->
<g id="node3" class="node">
<title>Node3</title>
<g id="a_node3"><a xlink:title=" ">
<polygon fill="#ffffff" stroke="#bfbfbf" points="68.5,-105.5 68.5,-162.5 121.5,-162.5 121.5,-105.5 68.5,-105.5"/>
<text text-anchor="middle" x="95" y="-150.5" font-family="Helvetica,sans-Serif" font-size="10.00" fill="#000000">QString</text>
<polyline fill="none" stroke="#bfbfbf" points="68.5,-143.5 121.5,-143.5 "/>
<text text-anchor="middle" x="95" y="-131.5" font-family="Helvetica,sans-Serif" font-size="10.00" fill="#000000"> </text>
<polyline fill="none" stroke="#bfbfbf" points="68.5,-124.5 121.5,-124.5 "/>
<text text-anchor="middle" x="95" y="-112.5" font-family="Helvetica,sans-Serif" font-size="10.00" fill="#000000"> </text>
</a>
</g>
</g>
<!-- Node3&#45;&gt;Node1 -->
<g id="edge2" class="edge">
<title>Node3&#45;&gt;Node1</title>
<path fill="none" stroke="#404040" d="M91.8167,-105.2961C91.7117,-95.732 92.6634,-85.1813 96,-76 96.9828,-73.2956 98.1911,-70.6314 99.5652,-68.0296"/>
<polygon fill="none" stroke="#404040" points="99.6344,-67.9188 99.4233,-60.7108 105.9957,-57.7436 106.2068,-64.9517 99.6344,-67.9188"/>
<text text-anchor="middle" x="124" y="-79" font-family="Helvetica,sans-Serif" font-size="10.00" fill="#000000"> +message</text>
</g>
<!-- Node4 -->
<g id="node4" class="node">
<title>Node4</title>
<g id="a_node4"><a xlink:title=" ">
<polygon fill="#ffffff" stroke="#bfbfbf" points="159.5,-105.5 159.5,-162.5 188.5,-162.5 188.5,-105.5 159.5,-105.5"/>
<text text-anchor="middle" x="174" y="-150.5" font-family="Helvetica,sans-Serif" font-size="10.00" fill="#000000">int</text>
<polyline fill="none" stroke="#bfbfbf" points="159.5,-143.5 188.5,-143.5 "/>
<text text-anchor="middle" x="174" y="-131.5" font-family="Helvetica,sans-Serif" font-size="10.00" fill="#000000"> </text>
<polyline fill="none" stroke="#bfbfbf" points="159.5,-124.5 188.5,-124.5 "/>
<text text-anchor="middle" x="174" y="-112.5" font-family="Helvetica,sans-Serif" font-size="10.00" fill="#000000"> </text>
</a>
</g>
</g>
<!-- Node4&#45;&gt;Node1 -->
<g id="edge3" class="edge">
<title>Node4&#45;&gt;Node1</title>
<path fill="none" stroke="#404040" d="M163.1639,-105.3774C159.6128,-96.0121 155.6438,-85.5601 152,-76 151.1598,-73.7955 150.2966,-71.5332 149.4246,-69.2499"/>
<polygon fill="none" stroke="#404040" points="149.3428,-69.0358 143.4637,-64.8602 145.0569,-57.8273 150.9361,-62.0029 149.3428,-69.0358"/>
<text text-anchor="middle" x="185.5" y="-79" font-family="Helvetica,sans-Serif" font-size="10.00" fill="#000000"> +alignment</text>
</g>
<!-- Node5 -->
<g id="node5" class="node">
<title>Node5</title>
<g id="a_node5"><a xlink:title=" ">
<polygon fill="#ffffff" stroke="#bfbfbf" points="235,-105.5 235,-162.5 281,-162.5 281,-105.5 235,-105.5"/>
<text text-anchor="middle" x="258" y="-150.5" font-family="Helvetica,sans-Serif" font-size="10.00" fill="#000000">QRect</text>
<polyline fill="none" stroke="#bfbfbf" points="235,-143.5 281,-143.5 "/>
<text text-anchor="middle" x="258" y="-131.5" font-family="Helvetica,sans-Serif" font-size="10.00" fill="#000000"> </text>
<polyline fill="none" stroke="#bfbfbf" points="235,-124.5 281,-124.5 "/>
<text text-anchor="middle" x="258" y="-112.5" font-family="Helvetica,sans-Serif" font-size="10.00" fill="#000000"> </text>
</a>
</g>
</g>
<!-- Node5&#45;&gt;Node1 -->
<g id="edge4" class="edge">
<title>Node5&#45;&gt;Node1</title>
<path fill="none" stroke="#404040" d="M243.0852,-105.3279C236.8873,-95.2285 229.0221,-84.3291 220,-76 210.7154,-67.4286 199.5802,-59.8749 188.4494,-53.4698"/>
<polygon fill="none" stroke="#404040" points="188.3753,-53.4295 181.1926,-54.0692 177.8395,-47.685 185.0222,-47.0453 188.3753,-53.4295"/>
<text text-anchor="middle" x="244.5" y="-79" font-family="Helvetica,sans-Serif" font-size="10.00" fill="#000000"> +rect</text>
</g>
</g>
</svg>
