<?xml version="1.0" encoding="UTF-8" standalone="no"?>
<!DOCTYPE svg PUBLIC "-//W3C//DTD SVG 1.1//EN"
 "http://www.w3.org/Graphics/SVG/1.1/DTD/svg11.dtd">
<!-- Generated by graphviz version 2.40.1 (0)
 -->
<!-- Title: dialogs/pinlabeldialog.h Pages: 1 -->
<svg width="296pt" height="84pt"
 viewBox="0.00 0.00 295.50 84.00" xmlns="http://www.w3.org/2000/svg" xmlns:xlink="http://www.w3.org/1999/xlink">
<g id="graph0" class="graph" transform="scale(1 1) rotate(0) translate(4 80)">
<title>dialogs/pinlabeldialog.h</title>
<polygon fill="#ffffff" stroke="transparent" points="-4,4 -4,-80 291.5,-80 291.5,4 -4,4"/>
<!-- Node10 -->
<g id="node1" class="node">
<title>Node10</title>
<g id="a_node1"><a xlink:title=" ">
<polygon fill="#bfbfbf" stroke="#000000" points="81.5,-56.5 81.5,-75.5 214.5,-75.5 214.5,-56.5 81.5,-56.5"/>
<text text-anchor="middle" x="148" y="-63.5" font-family="Helvetica,sans-Serif" font-size="10.00" fill="#000000">dialogs/pinlabeldialog.h</text>
</a>
</g>
</g>
<!-- Node11 -->
<g id="node2" class="node">
<title>Node11</title>
<g id="a_node2"><a xlink:href="../../d6/d23/pinlabeldialog_8cpp.html" target="_top" xlink:title=" ">
<polygon fill="#ffffff" stroke="#000000" points="0,-.5 0,-19.5 144,-19.5 144,-.5 0,-.5"/>
<text text-anchor="middle" x="72" y="-7.5" font-family="Helvetica,sans-Serif" font-size="10.00" fill="#000000">dialogs/pinlabeldialog.cpp</text>
</a>
</g>
</g>
<!-- Node10&#45;&gt;Node11 -->
<g id="edge1" class="edge">
<title>Node10&#45;&gt;Node11</title>
<path fill="none" stroke="#191970" d="M126.5703,-50.2097C113.2223,-40.3743 96.4821,-28.0394 85.0865,-19.6427"/>
<polygon fill="#191970" stroke="#191970" points="124.635,-53.1312 134.7618,-56.2455 128.7874,-47.4958 124.635,-53.1312"/>
</g>
<!-- Node12 -->
<g id="node3" class="node">
<title>Node12</title>
<g id="a_node3"><a xlink:href="../../d0/d9d/paletteitem_8cpp.html" target="_top" xlink:title=" ">
<polygon fill="#ffffff" stroke="#000000" points="162.5,-.5 162.5,-19.5 287.5,-19.5 287.5,-.5 162.5,-.5"/>
<text text-anchor="middle" x="225" y="-7.5" font-family="Helvetica,sans-Serif" font-size="10.00" fill="#000000">items/paletteitem.cpp</text>
</a>
</g>
</g>
<!-- Node10&#45;&gt;Node12 -->
<g id="edge2" class="edge">
<title>Node10&#45;&gt;Node12</title>
<path fill="none" stroke="#191970" d="M169.7116,-50.2097C183.2353,-40.3743 200.1958,-28.0394 211.7413,-19.6427"/>
<polygon fill="#191970" stroke="#191970" points="167.4411,-47.5332 161.4124,-56.2455 171.5584,-53.1944 167.4411,-47.5332"/>
</g>
</g>
</svg>
