<?xml version="1.0" encoding="UTF-8" standalone="no"?>
<!DOCTYPE svg PUBLIC "-//W3C//DTD SVG 1.1//EN"
 "http://www.w3.org/Graphics/SVG/1.1/DTD/svg11.dtd">
<!-- Generated by graphviz version 2.40.1 (0)
 -->
<!-- Title: MysteryPart::makeBreadboardSipSvg Pages: 1 -->
<svg width="368pt" height="264pt"
 viewBox="0.00 0.00 368.00 263.50" xmlns="http://www.w3.org/2000/svg" xmlns:xlink="http://www.w3.org/1999/xlink">
<g id="graph0" class="graph" transform="scale(1 1) rotate(0) translate(4 259.5)">
<title>MysteryPart::makeBreadboardSipSvg</title>
<polygon fill="#ffffff" stroke="transparent" points="-4,4 -4,-259.5 364,-259.5 364,4 -4,4"/>
<!-- Node520 -->
<g id="node1" class="node">
<title>Node520</title>
<g id="a_node1"><a xlink:title=" ">
<polygon fill="#bfbfbf" stroke="#000000" points="0,-115.5 0,-145.5 164,-145.5 164,-115.5 0,-115.5"/>
<text text-anchor="start" x="8" y="-133.5" font-family="Helvetica,sans-Serif" font-size="10.00" fill="#000000">MysteryPart::makeBreadboard</text>
<text text-anchor="middle" x="82" y="-122.5" font-family="Helvetica,sans-Serif" font-size="10.00" fill="#000000">SipSvg</text>
</a>
</g>
</g>
<!-- Node521 -->
<g id="node2" class="node">
<title>Node521</title>
<g id="a_node2"><a xlink:href="../../de/db8/classTextUtils.html#ab87ac0d5f3754fc92075353504161537" target="_top" xlink:title=" ">
<polygon fill="#ffffff" stroke="#000000" points="204,-236 204,-255 356,-255 356,-236 204,-236"/>
<text text-anchor="middle" x="280" y="-243" font-family="Helvetica,sans-Serif" font-size="10.00" fill="#000000">TextUtils::getViewBoxCoord</text>
</a>
</g>
</g>
<!-- Node520&#45;&gt;Node521 -->
<g id="edge1" class="edge">
<title>Node520&#45;&gt;Node521</title>
<path fill="none" stroke="#191970" d="M96.0967,-145.6568C116.8031,-166.9894 157.6005,-205.5952 200,-226.5 204.8814,-228.9067 210.0831,-231.018 215.4016,-232.8685"/>
<polygon fill="#191970" stroke="#191970" points="214.4668,-236.2437 225.0568,-235.925 216.5795,-229.5701 214.4668,-236.2437"/>
</g>
<!-- Node522 -->
<g id="node3" class="node">
<title>Node522</title>
<g id="a_node3"><a xlink:href="../../de/db8/classTextUtils.html#a31919c349d6462cbcb8742f08d6e7c9c" target="_top" xlink:title=" ">
<polygon fill="#ffffff" stroke="#000000" points="213,-186.5 213,-216.5 347,-216.5 347,-186.5 213,-186.5"/>
<text text-anchor="start" x="221" y="-204.5" font-family="Helvetica,sans-Serif" font-size="10.00" fill="#000000">TextUtils::incMultiplyPin</text>
<text text-anchor="middle" x="280" y="-193.5" font-family="Helvetica,sans-Serif" font-size="10.00" fill="#000000">Function</text>
</a>
</g>
</g>
<!-- Node520&#45;&gt;Node522 -->
<g id="edge2" class="edge">
<title>Node520&#45;&gt;Node522</title>
<path fill="none" stroke="#191970" d="M117.324,-145.5099C140.6106,-155.171 171.888,-167.7057 200,-177.5 205.6142,-179.456 211.4821,-181.4011 217.3784,-183.2885"/>
<polygon fill="#191970" stroke="#191970" points="216.6993,-186.7438 227.2886,-186.4024 218.7976,-180.0657 216.6993,-186.7438"/>
</g>
<!-- Node523 -->
<g id="node4" class="node">
<title>Node523</title>
<g id="a_node4"><a xlink:href="../../de/db8/classTextUtils.html#ad908775b15b7557b17705ed20e7d8a35" target="_top" xlink:title=" ">
<polygon fill="#ffffff" stroke="#000000" points="200,-137.5 200,-167.5 360,-167.5 360,-137.5 200,-137.5"/>
<text text-anchor="start" x="208" y="-155.5" font-family="Helvetica,sans-Serif" font-size="10.00" fill="#000000">TextUtils::incrementTemplate</text>
<text text-anchor="middle" x="280" y="-144.5" font-family="Helvetica,sans-Serif" font-size="10.00" fill="#000000">String</text>
</a>
</g>
</g>
<!-- Node520&#45;&gt;Node523 -->
<g id="edge3" class="edge">
<title>Node520&#45;&gt;Node523</title>
<path fill="none" stroke="#191970" d="M164.2497,-139.6389C172.7265,-140.5807 181.372,-141.5413 189.9279,-142.492"/>
<polygon fill="#191970" stroke="#191970" points="189.5897,-145.9759 199.9151,-143.6017 190.3628,-139.0187 189.5897,-145.9759"/>
</g>
<!-- Node524 -->
<g id="node5" class="node">
<title>Node524</title>
<g id="a_node5"><a xlink:href="../../de/db8/classTextUtils.html#ac237cced8514f5457a974d9ca6d611be" target="_top" xlink:title=" ">
<polygon fill="#ffffff" stroke="#000000" points="201,-99 201,-118 359,-118 359,-99 201,-99"/>
<text text-anchor="middle" x="280" y="-106" font-family="Helvetica,sans-Serif" font-size="10.00" fill="#000000">TextUtils::noCopyPinFunction</text>
</a>
</g>
</g>
<!-- Node520&#45;&gt;Node524 -->
<g id="edge4" class="edge">
<title>Node520&#45;&gt;Node524</title>
<path fill="none" stroke="#191970" d="M164.2497,-121.3611C173.0502,-120.3833 182.0326,-119.3853 190.9078,-118.3991"/>
<polygon fill="#191970" stroke="#191970" points="191.3148,-121.8755 200.8671,-117.2925 190.5417,-114.9184 191.3148,-121.8755"/>
</g>
<!-- Node525 -->
<g id="node6" class="node">
<title>Node525</title>
<g id="a_node6"><a xlink:href="../../de/db8/classTextUtils.html#a58843cfaf8e44ba98f07f4a412f7b388" target="_top" xlink:title=" ">
<polygon fill="#ffffff" stroke="#000000" points="206,-49.5 206,-79.5 354,-79.5 354,-49.5 206,-49.5"/>
<text text-anchor="start" x="214" y="-67.5" font-family="Helvetica,sans-Serif" font-size="10.00" fill="#000000">TextUtils::standardCopyPin</text>
<text text-anchor="middle" x="280" y="-56.5" font-family="Helvetica,sans-Serif" font-size="10.00" fill="#000000">Function</text>
</a>
</g>
</g>
<!-- Node520&#45;&gt;Node525 -->
<g id="edge5" class="edge">
<title>Node520&#45;&gt;Node525</title>
<path fill="none" stroke="#191970" d="M124.217,-115.4697C146.6668,-107.5687 174.7702,-97.823 200,-89.5 206.8403,-87.2435 214.0263,-84.9249 221.1687,-82.6526"/>
<polygon fill="#191970" stroke="#191970" points="222.3652,-85.9452 230.8446,-79.5929 220.2547,-79.2709 222.3652,-85.9452"/>
</g>
<!-- Node526 -->
<g id="node7" class="node">
<title>Node526</title>
<g id="a_node7"><a xlink:href="../../de/db8/classTextUtils.html#a99d956c2a8102e284cd548761a50fee9" target="_top" xlink:title=" ">
<polygon fill="#ffffff" stroke="#000000" points="206,-.5 206,-30.5 354,-30.5 354,-.5 206,-.5"/>
<text text-anchor="start" x="214" y="-18.5" font-family="Helvetica,sans-Serif" font-size="10.00" fill="#000000">TextUtils::standardMultiply</text>
<text text-anchor="middle" x="280" y="-7.5" font-family="Helvetica,sans-Serif" font-size="10.00" fill="#000000">PinFunction</text>
</a>
</g>
</g>
<!-- Node520&#45;&gt;Node526 -->
<g id="edge6" class="edge">
<title>Node520&#45;&gt;Node526</title>
<path fill="none" stroke="#191970" d="M97.9356,-115.3913C119.5141,-95.6627 159.9495,-61.2102 200,-40.5 204.2977,-38.2776 208.8286,-36.2108 213.4595,-34.2967"/>
<polygon fill="#191970" stroke="#191970" points="214.9998,-37.4536 223.0632,-30.581 212.4739,-30.9252 214.9998,-37.4536"/>
</g>
</g>
</svg>
