<?xml version="1.0" encoding="UTF-8" standalone="no"?>
<!DOCTYPE svg PUBLIC "-//W3C//DTD SVG 1.1//EN"
 "http://www.w3.org/Graphics/SVG/1.1/DTD/svg11.dtd">
<!-- Generated by graphviz version 2.40.1 (0)
 -->
<!-- Title: MysteryPart::makeBreadboardSvg Pages: 1 -->
<!--zoomable 390 -->
<svg id="main" version="1.1" xmlns="http://www.w3.org/2000/svg" xmlns:xlink="http://www.w3.org/1999/xlink" xml:space="preserve" onload="init(evt)">
<style type="text/css"><![CDATA[
.edge:hover path { stroke: red; }
.edge:hover polygon { stroke: red; fill: red; }
]]></style>
<script type="text/javascript"><![CDATA[
var edges = document.getElementsByTagName('g');
if (edges && edges.length) {
  for (var i=0;i<edges.length;i++) {
    if (edges[i].id.substr(0,4)=='edge') {
      edges[i].setAttribute('class','edge');
    }
  }
}
]]></script>
        <defs>
                <circle id="rim" cx="0" cy="0" r="7"/>
                <circle id="rim2" cx="0" cy="0" r="3.5"/>
                <g id="zoomPlus">
                        <use xlink:href="#rim" fill="#404040">
                                <set attributeName="fill" to="#808080" begin="zoomplus.mouseover" end="zoomplus.mouseout"/>
                        </use>
                        <path d="M-4,0h8M0,-4v8" fill="none" stroke="white" stroke-width="1.5" pointer-events="none"/>
                </g>
                <g id="zoomMin">
                        <use xlink:href="#rim" fill="#404040">
                                <set attributeName="fill" to="#808080" begin="zoomminus.mouseover" end="zoomminus.mouseout"/>
                        </use>
                        <path d="M-4,0h8" fill="none" stroke="white" stroke-width="1.5" pointer-events="none"/>
                </g>
                <g id="dirArrow">
                        <path fill="none" stroke="white" stroke-width="1.5" d="M0,-3.0v7 M-2.5,-0.5L0,-3.0L2.5,-0.5"/>
                </g>
               <g id="resetDef">
                       <use xlink:href="#rim2" fill="#404040">
                               <set attributeName="fill" to="#808080" begin="reset.mouseover" end="reset.mouseout"/>
                       </use>
               </g>
        </defs>

<script type="text/javascript">
var viewWidth = 756;
var viewHeight = 390;
var sectionId = 'dynsection-30';
</script>
<script xlink:href="../../svgpan.js"/>
<svg id="graph" class="graph">
<g id="viewport">
<title>MysteryPart::makeBreadboardSvg</title>
<polygon fill="#ffffff" stroke="transparent" points="-4,4 -4,-385.5 752,-385.5 752,4 -4,4"/>
<!-- Node531 -->
<g id="node1" class="node">
<title>Node531</title>
<g id="a_node1"><a xlink:title=" ">
<polygon fill="#bfbfbf" stroke="#000000" points="0,-167 0,-186 182,-186 182,-167 0,-167"/>
<text text-anchor="middle" x="91" y="-174" font-family="Helvetica,sans-Serif" font-size="10.00" fill="#000000">MysteryPart::makeBreadboardSvg</text>
</a>
</g>
</g>
<!-- Node532 -->
<g id="node2" class="node">
<title>Node532</title>
<g id="a_node2"><a xlink:href="../../d8/d73/classMysteryPart.html#a599763b9b93902ca53fa5e19fb1a5c17" target="_top" xlink:title=" ">
<polygon fill="#ffffff" stroke="#000000" points="218,-186.5 218,-216.5 382,-216.5 382,-186.5 218,-186.5"/>
<text text-anchor="start" x="226" y="-204.5" font-family="Helvetica,sans-Serif" font-size="10.00" fill="#000000">MysteryPart::makeBreadboard</text>
<text text-anchor="middle" x="300" y="-193.5" font-family="Helvetica,sans-Serif" font-size="10.00" fill="#000000">DipSvg</text>
</a>
</g>
</g>
<!-- Node531&#45;&gt;Node532 -->
<g id="edge1" class="edge">
<title>Node531&#45;&gt;Node532</title>
<path fill="none" stroke="#191970" d="M170.6102,-186.0227C182.6867,-187.4673 195.2341,-188.9682 207.555,-190.442"/>
<polygon fill="#191970" stroke="#191970" points="207.491,-193.9592 217.8359,-191.6718 208.3224,-187.0087 207.491,-193.9592"/>
</g>
<!-- Node543 -->
<g id="node13" class="node">
<title>Node543</title>
<g id="a_node13"><a xlink:href="../../d8/d73/classMysteryPart.html#a677abb98f3f382e79ab0e302f9594724" target="_top" xlink:title=" ">
<polygon fill="#ffffff" stroke="#000000" points="218,-137.5 218,-167.5 382,-167.5 382,-137.5 218,-137.5"/>
<text text-anchor="start" x="226" y="-155.5" font-family="Helvetica,sans-Serif" font-size="10.00" fill="#000000">MysteryPart::makeBreadboard</text>
<text text-anchor="middle" x="300" y="-144.5" font-family="Helvetica,sans-Serif" font-size="10.00" fill="#000000">SipSvg</text>
</a>
</g>
</g>
<!-- Node531&#45;&gt;Node543 -->
<g id="edge12" class="edge">
<title>Node531&#45;&gt;Node543</title>
<path fill="none" stroke="#191970" d="M173.9025,-166.9801C184.9841,-165.7076 196.4045,-164.3961 207.6354,-163.1065"/>
<polygon fill="#191970" stroke="#191970" points="208.3456,-166.548 217.881,-161.9299 207.547,-159.5937 208.3456,-166.548"/>
</g>
<!-- Node533 -->
<g id="node3" class="node">
<title>Node533</title>
<g id="a_node3"><a xlink:href="../../de/db8/classTextUtils.html#a53e674684a7ceb29e742cae16c5e246b" target="_top" xlink:title=" ">
<polygon fill="#ffffff" stroke="#000000" points="426,-362 426,-381 570,-381 570,-362 426,-362"/>
<text text-anchor="middle" x="498" y="-369" font-family="Helvetica,sans-Serif" font-size="10.00" fill="#000000">TextUtils::convertToInches</text>
</a>
</g>
</g>
<!-- Node532&#45;&gt;Node533 -->
<g id="edge2" class="edge">
<title>Node532&#45;&gt;Node533</title>
<path fill="none" stroke="#191970" d="M307.362,-216.6939C323.1013,-247.4832 363.1109,-317.2929 418,-352.5 421.1917,-354.5472 424.5824,-356.3742 428.0963,-358.0045"/>
<polygon fill="#191970" stroke="#191970" points="427.0519,-361.3579 437.634,-361.8772 429.6854,-354.8722 427.0519,-361.3579"/>
</g>
<!-- Node535 -->
<g id="node5" class="node">
<title>Node535</title>
<g id="a_node5"><a xlink:href="../../de/db8/classTextUtils.html#ac37cb850c5950edf646167d4de31382f" target="_top" xlink:title=" ">
<polygon fill="#ffffff" stroke="#000000" points="419,-324 419,-343 577,-343 577,-324 419,-324"/>
<text text-anchor="middle" x="498" y="-331" font-family="Helvetica,sans-Serif" font-size="10.00" fill="#000000">TextUtils::getPinsAndSpacing</text>
</a>
</g>
</g>
<!-- Node532&#45;&gt;Node535 -->
<g id="edge4" class="edge">
<title>Node532&#45;&gt;Node535</title>
<path fill="none" stroke="#191970" d="M311.6256,-216.7628C330.9707,-241.0597 372.1977,-288.3502 418,-313.5 423.0647,-316.281 428.5208,-318.6822 434.1191,-320.7543"/>
<polygon fill="#191970" stroke="#191970" points="433.0369,-324.0829 443.6308,-323.9396 435.2598,-317.4452 433.0369,-324.0829"/>
</g>
<!-- Node536 -->
<g id="node6" class="node">
<title>Node536</title>
<g id="a_node6"><a xlink:href="../../de/db8/classTextUtils.html#ab87ac0d5f3754fc92075353504161537" target="_top" xlink:title=" ">
<polygon fill="#ffffff" stroke="#000000" points="422,-99 422,-118 574,-118 574,-99 422,-99"/>
<text text-anchor="middle" x="498" y="-106" font-family="Helvetica,sans-Serif" font-size="10.00" fill="#000000">TextUtils::getViewBoxCoord</text>
</a>
</g>
</g>
<!-- Node532&#45;&gt;Node536 -->
<g id="edge5" class="edge">
<title>Node532&#45;&gt;Node536</title>
<path fill="none" stroke="#191970" d="M364.1534,-186.4381C370.4588,-183.6561 376.5357,-180.3725 382,-176.5 404.048,-160.8745 395.4727,-142.4262 418,-127.5 421.0977,-125.4475 424.3927,-123.6159 427.8127,-121.9816"/>
<polygon fill="#191970" stroke="#191970" points="429.2291,-125.1831 437.1081,-118.0999 426.5317,-118.7237 429.2291,-125.1831"/>
</g>
<!-- Node537 -->
<g id="node7" class="node">
<title>Node537</title>
<g id="a_node7"><a xlink:href="../../de/db8/classTextUtils.html#a31919c349d6462cbcb8742f08d6e7c9c" target="_top" xlink:title=" ">
<polygon fill="#ffffff" stroke="#000000" points="431,-49.5 431,-79.5 565,-79.5 565,-49.5 431,-49.5"/>
<text text-anchor="start" x="439" y="-67.5" font-family="Helvetica,sans-Serif" font-size="10.00" fill="#000000">TextUtils::incMultiplyPin</text>
<text text-anchor="middle" x="498" y="-56.5" font-family="Helvetica,sans-Serif" font-size="10.00" fill="#000000">Function</text>
</a>
</g>
</g>
<!-- Node532&#45;&gt;Node537 -->
<g id="edge6" class="edge">
<title>Node532&#45;&gt;Node537</title>
<path fill="none" stroke="#191970" d="M367.6074,-186.4744C372.8116,-183.6949 377.7027,-180.4018 382,-176.5 412.9813,-148.3705 387.1168,-117.7372 418,-89.5 419.7015,-87.9443 421.4988,-86.4854 423.3735,-85.1173"/>
<polygon fill="#191970" stroke="#191970" points="425.4238,-87.9628 432.0324,-79.6816 421.702,-82.0341 425.4238,-87.9628"/>
</g>
<!-- Node538 -->
<g id="node8" class="node">
<title>Node538</title>
<g id="a_node8"><a xlink:href="../../de/db8/classTextUtils.html#ad908775b15b7557b17705ed20e7d8a35" target="_top" xlink:title=" ">
<polygon fill="#ffffff" stroke="#000000" points="418,-.5 418,-30.5 578,-30.5 578,-.5 418,-.5"/>
<text text-anchor="start" x="426" y="-18.5" font-family="Helvetica,sans-Serif" font-size="10.00" fill="#000000">TextUtils::incrementTemplate</text>
<text text-anchor="middle" x="498" y="-7.5" font-family="Helvetica,sans-Serif" font-size="10.00" fill="#000000">String</text>
</a>
</g>
</g>
<!-- Node532&#45;&gt;Node538 -->
<g id="edge7" class="edge">
<title>Node532&#45;&gt;Node538</title>
<path fill="none" stroke="#191970" d="M369.3625,-186.4C373.9948,-183.6317 378.2859,-180.3617 382,-176.5 425.641,-131.1247 374.2577,-84.7777 418,-39.5 418.9351,-38.5321 419.9075,-37.6028 420.9134,-36.7107"/>
<polygon fill="#191970" stroke="#191970" points="423.2547,-39.3323 429.2138,-30.5722 419.0925,-33.7042 423.2547,-39.3323"/>
</g>
<!-- Node539 -->
<g id="node9" class="node">
<title>Node539</title>
<g id="a_node9"><a xlink:href="../../de/db8/classTextUtils.html#affbc293e98807a9ff25096a219bd6fd0" target="_top" xlink:title=" ">
<polygon fill="#ffffff" stroke="#000000" points="429.5,-274.5 429.5,-304.5 566.5,-304.5 566.5,-274.5 429.5,-274.5"/>
<text text-anchor="start" x="437.5" y="-292.5" font-family="Helvetica,sans-Serif" font-size="10.00" fill="#000000">TextUtils::negIncCopyPin</text>
<text text-anchor="middle" x="498" y="-281.5" font-family="Helvetica,sans-Serif" font-size="10.00" fill="#000000">Function</text>
</a>
</g>
</g>
<!-- Node532&#45;&gt;Node539 -->
<g id="edge8" class="edge">
<title>Node532&#45;&gt;Node539</title>
<path fill="none" stroke="#191970" d="M325.1051,-216.6874C348.5443,-230.432 384.7989,-250.5941 418,-264.5 423.5028,-266.8048 429.2951,-269.0126 435.1428,-271.0953"/>
<polygon fill="#191970" stroke="#191970" points="434.4006,-274.541 444.9953,-274.4774 436.6734,-267.9202 434.4006,-274.541"/>
</g>
<!-- Node540 -->
<g id="node10" class="node">
<title>Node540</title>
<g id="a_node10"><a xlink:href="../../de/db8/classTextUtils.html#ac237cced8514f5457a974d9ca6d611be" target="_top" xlink:title=" ">
<polygon fill="#ffffff" stroke="#000000" points="419,-236 419,-255 577,-255 577,-236 419,-236"/>
<text text-anchor="middle" x="498" y="-243" font-family="Helvetica,sans-Serif" font-size="10.00" fill="#000000">TextUtils::noCopyPinFunction</text>
</a>
</g>
</g>
<!-- Node532&#45;&gt;Node540 -->
<g id="edge9" class="edge">
<title>Node532&#45;&gt;Node540</title>
<path fill="none" stroke="#191970" d="M367.5866,-216.5192C392.9753,-222.1612 421.4389,-228.4864 445.2813,-233.7847"/>
<polygon fill="#191970" stroke="#191970" points="444.673,-237.2349 455.1941,-235.9876 446.1915,-230.4015 444.673,-237.2349"/>
</g>
<!-- Node541 -->
<g id="node11" class="node">
<title>Node541</title>
<g id="a_node11"><a xlink:href="../../de/db8/classTextUtils.html#a58843cfaf8e44ba98f07f4a412f7b388" target="_top" xlink:title=" ">
<polygon fill="#ffffff" stroke="#000000" points="424,-186.5 424,-216.5 572,-216.5 572,-186.5 424,-186.5"/>
<text text-anchor="start" x="432" y="-204.5" font-family="Helvetica,sans-Serif" font-size="10.00" fill="#000000">TextUtils::standardCopyPin</text>
<text text-anchor="middle" x="498" y="-193.5" font-family="Helvetica,sans-Serif" font-size="10.00" fill="#000000">Function</text>
</a>
</g>
</g>
<!-- Node532&#45;&gt;Node541 -->
<g id="edge10" class="edge">
<title>Node532&#45;&gt;Node541</title>
<path fill="none" stroke="#191970" d="M382.2497,-201.5C392.6091,-201.5 403.2206,-201.5 413.6124,-201.5"/>
<polygon fill="#191970" stroke="#191970" points="413.9135,-205.0001 423.9135,-201.5 413.9135,-198.0001 413.9135,-205.0001"/>
</g>
<!-- Node542 -->
<g id="node12" class="node">
<title>Node542</title>
<g id="a_node12"><a xlink:href="../../de/db8/classTextUtils.html#a99d956c2a8102e284cd548761a50fee9" target="_top" xlink:title=" ">
<polygon fill="#ffffff" stroke="#000000" points="424,-137.5 424,-167.5 572,-167.5 572,-137.5 424,-137.5"/>
<text text-anchor="start" x="432" y="-155.5" font-family="Helvetica,sans-Serif" font-size="10.00" fill="#000000">TextUtils::standardMultiply</text>
<text text-anchor="middle" x="498" y="-144.5" font-family="Helvetica,sans-Serif" font-size="10.00" fill="#000000">PinFunction</text>
</a>
</g>
</g>
<!-- Node532&#45;&gt;Node542 -->
<g id="edge11" class="edge">
<title>Node532&#45;&gt;Node542</title>
<path fill="none" stroke="#191970" d="M360.7521,-186.4654C381.8482,-181.2446 405.6824,-175.3463 427.4983,-169.9474"/>
<polygon fill="#191970" stroke="#191970" points="428.4964,-173.306 437.3628,-167.5062 426.8148,-166.511 428.4964,-173.306"/>
</g>
<!-- Node534 -->
<g id="node4" class="node">
<title>Node534</title>
<g id="a_node4"><a xlink:href="../../de/db8/classTextUtils.html#a081f65f326bccb69ddec2919b692c479" target="_top" xlink:title=" ">
<polygon fill="#ffffff" stroke="#000000" points="614,-362 614,-381 748,-381 748,-362 614,-362"/>
<text text-anchor="middle" x="681" y="-369" font-family="Helvetica,sans-Serif" font-size="10.00" fill="#000000">TextUtils::chopNotDigits</text>
</a>
</g>
</g>
<!-- Node533&#45;&gt;Node534 -->
<g id="edge3" class="edge">
<title>Node533&#45;&gt;Node534</title>
<path fill="none" stroke="#191970" d="M570.0638,-371.5C581.091,-371.5 592.513,-371.5 603.6486,-371.5"/>
<polygon fill="#191970" stroke="#191970" points="603.7751,-375.0001 613.7751,-371.5 603.775,-368.0001 603.7751,-375.0001"/>
</g>
<!-- Node543&#45;&gt;Node536 -->
<g id="edge13" class="edge">
<title>Node543&#45;&gt;Node536</title>
<path fill="none" stroke="#191970" d="M367.5866,-137.4808C392.9753,-131.8388 421.4389,-125.5136 445.2813,-120.2153"/>
<polygon fill="#191970" stroke="#191970" points="446.1915,-123.5985 455.1941,-118.0124 444.673,-116.7651 446.1915,-123.5985"/>
</g>
<!-- Node543&#45;&gt;Node537 -->
<g id="edge14" class="edge">
<title>Node543&#45;&gt;Node537</title>
<path fill="none" stroke="#191970" d="M325.1051,-137.3126C348.5443,-123.568 384.7989,-103.4059 418,-89.5 423.5028,-87.1952 429.2951,-84.9874 435.1428,-82.9047"/>
<polygon fill="#191970" stroke="#191970" points="436.6734,-86.0798 444.9953,-79.5226 434.4006,-79.459 436.6734,-86.0798"/>
</g>
<!-- Node543&#45;&gt;Node538 -->
<g id="edge15" class="edge">
<title>Node543&#45;&gt;Node538</title>
<path fill="none" stroke="#191970" d="M311.7326,-137.342C331.2278,-113.1666 372.6613,-65.9192 418,-39.5 421.0362,-37.7308 424.2145,-36.0814 427.4808,-34.5452"/>
<polygon fill="#191970" stroke="#191970" points="429.0677,-37.6728 436.8737,-30.5092 426.3042,-31.2413 429.0677,-37.6728"/>
</g>
<!-- Node543&#45;&gt;Node540 -->
<g id="edge16" class="edge">
<title>Node543&#45;&gt;Node540</title>
<path fill="none" stroke="#191970" d="M366.24,-167.656C371.7968,-170.1705 377.14,-173.0964 382,-176.5 404.1351,-192.0019 395.5612,-210.4411 418,-225.5 421.7799,-228.0367 425.8549,-230.2518 430.0936,-232.186"/>
<polygon fill="#191970" stroke="#191970" points="428.9985,-235.5177 439.5829,-235.9876 431.6017,-229.0197 428.9985,-235.5177"/>
</g>
<!-- Node543&#45;&gt;Node541 -->
<g id="edge17" class="edge">
<title>Node543&#45;&gt;Node541</title>
<path fill="none" stroke="#191970" d="M360.7521,-167.5346C381.8482,-172.7554 405.6824,-178.6537 427.4983,-184.0526"/>
<polygon fill="#191970" stroke="#191970" points="426.8148,-187.489 437.3628,-186.4938 428.4964,-180.694 426.8148,-187.489"/>
</g>
<!-- Node543&#45;&gt;Node542 -->
<g id="edge18" class="edge">
<title>Node543&#45;&gt;Node542</title>
<path fill="none" stroke="#191970" d="M382.2497,-152.5C392.6091,-152.5 403.2206,-152.5 413.6124,-152.5"/>
<polygon fill="#191970" stroke="#191970" points="413.9135,-156.0001 423.9135,-152.5 413.9135,-149.0001 413.9135,-156.0001"/>
</g>
</g>
</svg>
        <g id="navigator" transform="translate(0 0)" fill="#404254">
                <rect fill="#f2f5e9" fill-opacity="0.5" stroke="#606060" stroke-width=".5" x="0" y="0" width="60" height="60"/>
                <use id="zoomplus" xlink:href="#zoomPlus" x="17" y="9" onmousedown="handleZoom(evt,'in')"/>
                <use id="zoomminus" xlink:href="#zoomMin" x="42" y="9" onmousedown="handleZoom(evt,'out')"/>
                <use id="reset" xlink:href="#resetDef" x="30" y="36" onmousedown="handleReset()"/>
                <g id="arrowUp" xlink:href="#dirArrow" transform="translate(30 24)" onmousedown="handlePan(0,-1)">
                  <use xlink:href="#rim" fill="#404040">
                        <set attributeName="fill" to="#808080" begin="arrowUp.mouseover" end="arrowUp.mouseout"/>
                  </use>
                  <path fill="none" stroke="white" stroke-width="1.5" d="M0,-3.0v7 M-2.5,-0.5L0,-3.0L2.5,-0.5"/>
                </g>
                <g id="arrowRight" xlink:href="#dirArrow" transform="rotate(90) translate(36 -43)" onmousedown="handlePan(1,0)">
                  <use xlink:href="#rim" fill="#404040">
                        <set attributeName="fill" to="#808080" begin="arrowRight.mouseover" end="arrowRight.mouseout"/>
                  </use>
                  <path fill="none" stroke="white" stroke-width="1.5" d="M0,-3.0v7 M-2.5,-0.5L0,-3.0L2.5,-0.5"/>
                </g>
                <g id="arrowDown" xlink:href="#dirArrow" transform="rotate(180) translate(-30 -48)" onmousedown="handlePan(0,1)">
                  <use xlink:href="#rim" fill="#404040">
                        <set attributeName="fill" to="#808080" begin="arrowDown.mouseover" end="arrowDown.mouseout"/>
                  </use>
                  <path fill="none" stroke="white" stroke-width="1.5" d="M0,-3.0v7 M-2.5,-0.5L0,-3.0L2.5,-0.5"/>
                </g>
                <g id="arrowLeft" xlink:href="#dirArrow" transform="rotate(270) translate(-36 17)" onmousedown="handlePan(-1,0)">
                  <use xlink:href="#rim" fill="#404040">
                        <set attributeName="fill" to="#808080" begin="arrowLeft.mouseover" end="arrowLeft.mouseout"/>
                  </use>
                  <path fill="none" stroke="white" stroke-width="1.5" d="M0,-3.0v7 M-2.5,-0.5L0,-3.0L2.5,-0.5"/>
                </g>
        </g>
        <svg viewBox="0 0 15 15" width="100%" height="30px" preserveAspectRatio="xMaxYMin meet">
         <g id="arrow_out" transform="scale(0.3 0.3)">
          <a xlink:href="classMysteryPart_aa9c9e5b20f33963093c3723060b0fdcd_cgraph_org.svg" target="_base">
           <rect id="button" ry="5" rx="5" y="6" x="6" height="38" width="38"
                fill="#f2f5e9" fill-opacity="0.5" stroke="#606060" stroke-width="1.0"/>
           <path id="arrow"
             d="M 11.500037,31.436501 C 11.940474,20.09759 22.043105,11.32322 32.158766,21.979434 L 37.068811,17.246167 C 37.068811,17.246167 37.088388,32 37.088388,32 L 22.160133,31.978069 C 22.160133,31.978069 26.997745,27.140456 26.997745,27.140456 C 18.528582,18.264221 13.291696,25.230495 11.500037,31.436501 z"
             style="fill:#404040;"/>
          </a>
         </g>
        </svg>
</svg>
