<?xml version="1.0" encoding="UTF-8" standalone="no"?>
<!DOCTYPE svg PUBLIC "-//W3C//DTD SVG 1.1//EN"
 "http://www.w3.org/Graphics/SVG/1.1/DTD/svg11.dtd">
<!-- Generated by graphviz version 2.40.1 (0)
 -->
<!-- Title: PathCommand Pages: 1 -->
<svg width="218pt" height="171pt"
 viewBox="0.00 0.00 217.50 171.00" xmlns="http://www.w3.org/2000/svg" xmlns:xlink="http://www.w3.org/1999/xlink">
<g id="graph0" class="graph" transform="scale(1 1) rotate(0) translate(4 167)">
<title>PathCommand</title>
<polygon fill="#ffffff" stroke="transparent" points="-4,4 -4,-167 213.5,-167 213.5,4 -4,4"/>
<!-- Node1 -->
<g id="node1" class="node">
<title>Node1</title>
<g id="a_node1"><a xlink:title=" ">
<polygon fill="#bfbfbf" stroke="#000000" points="49.5,-.5 49.5,-57.5 137.5,-57.5 137.5,-.5 49.5,-.5"/>
<text text-anchor="middle" x="93.5" y="-45.5" font-family="Helvetica,sans-Serif" font-size="10.00" fill="#000000">PathCommand</text>
<polyline fill="none" stroke="#000000" points="49.5,-38.5 137.5,-38.5 "/>
<text text-anchor="middle" x="93.5" y="-26.5" font-family="Helvetica,sans-Serif" font-size="10.00" fill="#000000"> </text>
<polyline fill="none" stroke="#000000" points="49.5,-19.5 137.5,-19.5 "/>
<text text-anchor="middle" x="93.5" y="-7.5" font-family="Helvetica,sans-Serif" font-size="10.00" fill="#000000"> </text>
</a>
</g>
</g>
<!-- Node2 -->
<g id="node2" class="node">
<title>Node2</title>
<g id="a_node2"><a xlink:title=" ">
<polygon fill="#ffffff" stroke="#bfbfbf" points="0,-105.5 0,-162.5 29,-162.5 29,-105.5 0,-105.5"/>
<text text-anchor="middle" x="14.5" y="-150.5" font-family="Helvetica,sans-Serif" font-size="10.00" fill="#000000">int</text>
<polyline fill="none" stroke="#bfbfbf" points="0,-143.5 29,-143.5 "/>
<text text-anchor="middle" x="14.5" y="-131.5" font-family="Helvetica,sans-Serif" font-size="10.00" fill="#000000"> </text>
<polyline fill="none" stroke="#bfbfbf" points="0,-124.5 29,-124.5 "/>
<text text-anchor="middle" x="14.5" y="-112.5" font-family="Helvetica,sans-Serif" font-size="10.00" fill="#000000"> </text>
</a>
</g>
</g>
<!-- Node2&#45;&gt;Node1 -->
<g id="edge1" class="edge">
<title>Node2&#45;&gt;Node1</title>
<path fill="none" stroke="#404040" d="M20.2914,-105.3016C23.1877,-95.4243 27.4175,-84.6762 33.5,-76 35.8891,-72.5921 38.5969,-69.3122 41.5089,-66.1802"/>
<polygon fill="none" stroke="#404040" points="41.5607,-66.1298 43.0719,-59.0788 50.1617,-57.7618 48.6506,-64.8128 41.5607,-66.1298"/>
<text text-anchor="middle" x="61.5" y="-79" font-family="Helvetica,sans-Serif" font-size="10.00" fill="#000000"> +argCount</text>
</g>
<!-- Node3 -->
<g id="node3" class="node">
<title>Node3</title>
<g id="a_node3"><a xlink:title=" ">
<polygon fill="#ffffff" stroke="#bfbfbf" points="74.5,-105.5 74.5,-162.5 112.5,-162.5 112.5,-105.5 74.5,-105.5"/>
<text text-anchor="middle" x="93.5" y="-150.5" font-family="Helvetica,sans-Serif" font-size="10.00" fill="#000000">bool</text>
<polyline fill="none" stroke="#bfbfbf" points="74.5,-143.5 112.5,-143.5 "/>
<text text-anchor="middle" x="93.5" y="-131.5" font-family="Helvetica,sans-Serif" font-size="10.00" fill="#000000"> </text>
<polyline fill="none" stroke="#bfbfbf" points="74.5,-124.5 112.5,-124.5 "/>
<text text-anchor="middle" x="93.5" y="-112.5" font-family="Helvetica,sans-Serif" font-size="10.00" fill="#000000"> </text>
</a>
</g>
</g>
<!-- Node3&#45;&gt;Node1 -->
<g id="edge2" class="edge">
<title>Node3&#45;&gt;Node1</title>
<path fill="none" stroke="#404040" d="M93.5,-105.3083C93.5,-94.4281 93.5,-81.817 93.5,-70.0192"/>
<polygon fill="none" stroke="#404040" points="93.5001,-69.657 89.5,-63.6571 93.5,-57.657 97.5,-63.657 93.5001,-69.657"/>
<text text-anchor="middle" x="118" y="-79" font-family="Helvetica,sans-Serif" font-size="10.00" fill="#000000"> +relative</text>
</g>
<!-- Node4 -->
<g id="node4" class="node">
<title>Node4</title>
<g id="a_node4"><a xlink:title=" ">
<polygon fill="#ffffff" stroke="#bfbfbf" points="142,-105.5 142,-162.5 189,-162.5 189,-105.5 142,-105.5"/>
<text text-anchor="middle" x="165.5" y="-150.5" font-family="Helvetica,sans-Serif" font-size="10.00" fill="#000000">QChar</text>
<polyline fill="none" stroke="#bfbfbf" points="142,-143.5 189,-143.5 "/>
<text text-anchor="middle" x="165.5" y="-131.5" font-family="Helvetica,sans-Serif" font-size="10.00" fill="#000000"> </text>
<polyline fill="none" stroke="#bfbfbf" points="142,-124.5 189,-124.5 "/>
<text text-anchor="middle" x="165.5" y="-112.5" font-family="Helvetica,sans-Serif" font-size="10.00" fill="#000000"> </text>
</a>
</g>
</g>
<!-- Node4&#45;&gt;Node1 -->
<g id="edge3" class="edge">
<title>Node4&#45;&gt;Node1</title>
<path fill="none" stroke="#404040" d="M157.5131,-105.3133C154.0597,-95.5446 149.4268,-84.8627 143.5,-76 141.4149,-72.882 139.0864,-69.8201 136.6059,-66.8476"/>
<polygon fill="none" stroke="#404040" points="136.3559,-66.5729 129.3589,-64.8285 128.2779,-57.6989 135.2749,-59.4432 136.3559,-66.5729"/>
<text text-anchor="middle" x="179" y="-79" font-family="Helvetica,sans-Serif" font-size="10.00" fill="#000000"> +command</text>
</g>
</g>
</svg>
