<?xml version="1.0" encoding="UTF-8" standalone="no"?>
<!DOCTYPE svg PUBLIC "-//W3C//DTD SVG 1.1//EN"
 "http://www.w3.org/Graphics/SVG/1.1/DTD/svg11.dtd">
<!-- Generated by graphviz version 2.40.1 (0)
 -->
<!-- Title: PcbXML Pages: 1 -->
<svg width="393pt" height="497pt"
 viewBox="0.00 0.00 392.50 497.00" xmlns="http://www.w3.org/2000/svg" xmlns:xlink="http://www.w3.org/1999/xlink">
<g id="graph0" class="graph" transform="scale(1 1) rotate(0) translate(4 493)">
<title>PcbXML</title>
<polygon fill="#ffffff" stroke="transparent" points="-4,4 -4,-493 388.5,-493 388.5,4 -4,4"/>
<!-- Node1 -->
<g id="node1" class="node">
<title>Node1</title>
<g id="a_node1"><a xlink:title=" ">
<polygon fill="#bfbfbf" stroke="#000000" points="134.5,-.5 134.5,-156.5 250.5,-156.5 250.5,-.5 134.5,-.5"/>
<text text-anchor="middle" x="192.5" y="-144.5" font-family="Helvetica,sans-Serif" font-size="10.00" fill="#000000">PcbXML</text>
<polyline fill="none" stroke="#000000" points="134.5,-137.5 250.5,-137.5 "/>
<text text-anchor="middle" x="192.5" y="-125.5" font-family="Helvetica,sans-Serif" font-size="10.00" fill="#000000"> </text>
<polyline fill="none" stroke="#000000" points="134.5,-118.5 250.5,-118.5 "/>
<text text-anchor="start" x="142.5" y="-106.5" font-family="Helvetica,sans-Serif" font-size="10.00" fill="#000000">+ PcbXML()</text>
<text text-anchor="start" x="142.5" y="-95.5" font-family="Helvetica,sans-Serif" font-size="10.00" fill="#000000">+ getSvgFile()</text>
<text text-anchor="start" x="142.5" y="-84.5" font-family="Helvetica,sans-Serif" font-size="10.00" fill="#000000">&#45; drawElementArc()</text>
<text text-anchor="start" x="142.5" y="-73.5" font-family="Helvetica,sans-Serif" font-size="10.00" fill="#000000">&#45; drawElementLine()</text>
<text text-anchor="start" x="142.5" y="-62.5" font-family="Helvetica,sans-Serif" font-size="10.00" fill="#000000">&#45; drawMark()</text>
<text text-anchor="start" x="142.5" y="-51.5" font-family="Helvetica,sans-Serif" font-size="10.00" fill="#000000">&#45; drawNode()</text>
<text text-anchor="start" x="142.5" y="-40.5" font-family="Helvetica,sans-Serif" font-size="10.00" fill="#000000">&#45; drawPad()</text>
<text text-anchor="start" x="142.5" y="-29.5" font-family="Helvetica,sans-Serif" font-size="10.00" fill="#000000">&#45; drawPin()</text>
<text text-anchor="start" x="142.5" y="-18.5" font-family="Helvetica,sans-Serif" font-size="10.00" fill="#000000">&#45; minMax()</text>
<text text-anchor="start" x="142.5" y="-7.5" font-family="Helvetica,sans-Serif" font-size="10.00" fill="#000000">&#45; shiftCoordinates()</text>
</a>
</g>
</g>
<!-- Node2 -->
<g id="node2" class="node">
<title>Node2</title>
<g id="a_node2"><a xlink:title=" ">
<polygon fill="#ffffff" stroke="#bfbfbf" points="0,-309 0,-366 53,-366 53,-309 0,-309"/>
<text text-anchor="middle" x="26.5" y="-354" font-family="Helvetica,sans-Serif" font-size="10.00" fill="#000000">QString</text>
<polyline fill="none" stroke="#bfbfbf" points="0,-347 53,-347 "/>
<text text-anchor="middle" x="26.5" y="-335" font-family="Helvetica,sans-Serif" font-size="10.00" fill="#000000"> </text>
<polyline fill="none" stroke="#bfbfbf" points="0,-328 53,-328 "/>
<text text-anchor="middle" x="26.5" y="-316" font-family="Helvetica,sans-Serif" font-size="10.00" fill="#000000"> </text>
</a>
</g>
</g>
<!-- Node2&#45;&gt;Node1 -->
<g id="edge1" class="edge">
<title>Node2&#45;&gt;Node1</title>
<path fill="none" stroke="#404040" d="M33.3872,-308.9379C42.4863,-274.962 60.7995,-217.5046 89.5,-175 99.5273,-160.1499 112.2302,-145.9098 125.2619,-133.1428"/>
<polygon fill="none" stroke="#404040" points="125.6072,-132.8148 127.2025,-125.7824 134.3076,-124.5502 132.7123,-131.5826 125.6072,-132.8148"/>
<text text-anchor="middle" x="116.5" y="-222" font-family="Helvetica,sans-Serif" font-size="10.00" fill="#000000"> &#45;m_units</text>
<text text-anchor="middle" x="116.5" y="-211" font-family="Helvetica,sans-Serif" font-size="10.00" fill="#000000">&#45;m_svgFile</text>
</g>
<!-- Node3 -->
<g id="node3" class="node">
<title>Node3</title>
<g id="a_node3"><a xlink:href="../../dd/d38/classSVGDomDocument.html" target="_top" xlink:title=" ">
<polygon fill="#ffffff" stroke="#000000" points="71,-281.5 71,-393.5 200,-393.5 200,-281.5 71,-281.5"/>
<text text-anchor="middle" x="135.5" y="-381.5" font-family="Helvetica,sans-Serif" font-size="10.00" fill="#000000">SVGDomDocument</text>
<polyline fill="none" stroke="#000000" points="71,-374.5 200,-374.5 "/>
<text text-anchor="middle" x="135.5" y="-362.5" font-family="Helvetica,sans-Serif" font-size="10.00" fill="#000000"> </text>
<polyline fill="none" stroke="#000000" points="71,-355.5 200,-355.5 "/>
<text text-anchor="start" x="79" y="-343.5" font-family="Helvetica,sans-Serif" font-size="10.00" fill="#000000">+ SVGDomDocument()</text>
<text text-anchor="start" x="79" y="-332.5" font-family="Helvetica,sans-Serif" font-size="10.00" fill="#000000">+ createGroup()</text>
<text text-anchor="start" x="79" y="-321.5" font-family="Helvetica,sans-Serif" font-size="10.00" fill="#000000">+ save()</text>
<text text-anchor="start" x="79" y="-310.5" font-family="Helvetica,sans-Serif" font-size="10.00" fill="#000000">+ setHeight()</text>
<text text-anchor="start" x="79" y="-299.5" font-family="Helvetica,sans-Serif" font-size="10.00" fill="#000000">+ setViewBox()</text>
<text text-anchor="start" x="79" y="-288.5" font-family="Helvetica,sans-Serif" font-size="10.00" fill="#000000">+ setWidth()</text>
</a>
</g>
</g>
<!-- Node3&#45;&gt;Node1 -->
<g id="edge2" class="edge">
<title>Node3&#45;&gt;Node1</title>
<path fill="none" stroke="#404040" d="M143.4898,-281.1327C148.3744,-249.7075 155.2645,-209.9709 163.5,-175 164.0044,-172.8582 164.5292,-170.6939 165.0713,-168.5146"/>
<polygon fill="none" stroke="#404040" points="165.1075,-168.3741 162.7394,-161.5629 168.1159,-156.7573 170.484,-163.5685 165.1075,-168.3741"/>
<text text-anchor="middle" x="183.5" y="-216.5" font-family="Helvetica,sans-Serif" font-size="10.00" fill="#000000"> &#45;m_svg</text>
</g>
<!-- Node4 -->
<g id="node4" class="node">
<title>Node4</title>
<g id="a_node4"><a xlink:title=" ">
<polygon fill="#ffffff" stroke="#bfbfbf" points="86.5,-431.5 86.5,-488.5 184.5,-488.5 184.5,-431.5 86.5,-431.5"/>
<text text-anchor="middle" x="135.5" y="-476.5" font-family="Helvetica,sans-Serif" font-size="10.00" fill="#000000">QDomDocument</text>
<polyline fill="none" stroke="#bfbfbf" points="86.5,-469.5 184.5,-469.5 "/>
<text text-anchor="middle" x="135.5" y="-457.5" font-family="Helvetica,sans-Serif" font-size="10.00" fill="#000000"> </text>
<polyline fill="none" stroke="#bfbfbf" points="86.5,-450.5 184.5,-450.5 "/>
<text text-anchor="middle" x="135.5" y="-438.5" font-family="Helvetica,sans-Serif" font-size="10.00" fill="#000000"> </text>
</a>
</g>
</g>
<!-- Node4&#45;&gt;Node3 -->
<g id="edge3" class="edge">
<title>Node4&#45;&gt;Node3</title>
<path fill="none" stroke="#191970" d="M135.5,-421.1358C135.5,-412.4939 135.5,-403.1625 135.5,-393.9752"/>
<polygon fill="none" stroke="#191970" points="132.0001,-421.2792 135.5,-431.2792 139.0001,-421.2792 132.0001,-421.2792"/>
</g>
<!-- Node5 -->
<g id="node5" class="node">
<title>Node5</title>
<g id="a_node5"><a xlink:title=" ">
<polygon fill="#ffffff" stroke="#bfbfbf" points="218,-309 218,-366 247,-366 247,-309 218,-309"/>
<text text-anchor="middle" x="232.5" y="-354" font-family="Helvetica,sans-Serif" font-size="10.00" fill="#000000">int</text>
<polyline fill="none" stroke="#bfbfbf" points="218,-347 247,-347 "/>
<text text-anchor="middle" x="232.5" y="-335" font-family="Helvetica,sans-Serif" font-size="10.00" fill="#000000"> </text>
<polyline fill="none" stroke="#bfbfbf" points="218,-328 247,-328 "/>
<text text-anchor="middle" x="232.5" y="-316" font-family="Helvetica,sans-Serif" font-size="10.00" fill="#000000"> </text>
</a>
</g>
</g>
<!-- Node5&#45;&gt;Node1 -->
<g id="edge4" class="edge">
<title>Node5&#45;&gt;Node1</title>
<path fill="none" stroke="#404040" d="M228.0665,-308.7929C222.8706,-275.1499 214.0066,-217.7552 206.4278,-168.6823"/>
<polygon fill="none" stroke="#404040" points="206.4137,-168.5908 201.5448,-163.2717 204.5821,-156.7314 209.451,-162.0506 206.4137,-168.5908"/>
<text text-anchor="middle" x="255" y="-255" font-family="Helvetica,sans-Serif" font-size="10.00" fill="#000000"> &#45;m_padCount</text>
<text text-anchor="middle" x="255" y="-244" font-family="Helvetica,sans-Serif" font-size="10.00" fill="#000000">&#45;m_minx</text>
<text text-anchor="middle" x="255" y="-233" font-family="Helvetica,sans-Serif" font-size="10.00" fill="#000000">&#45;m_miny</text>
<text text-anchor="middle" x="255" y="-222" font-family="Helvetica,sans-Serif" font-size="10.00" fill="#000000">&#45;m_markx</text>
<text text-anchor="middle" x="255" y="-211" font-family="Helvetica,sans-Serif" font-size="10.00" fill="#000000">&#45;m_pinCount</text>
<text text-anchor="middle" x="255" y="-200" font-family="Helvetica,sans-Serif" font-size="10.00" fill="#000000">&#45;m_marky</text>
<text text-anchor="middle" x="255" y="-189" font-family="Helvetica,sans-Serif" font-size="10.00" fill="#000000">&#45;m_maxx</text>
<text text-anchor="middle" x="255" y="-178" font-family="Helvetica,sans-Serif" font-size="10.00" fill="#000000">&#45;m_maxy</text>
</g>
<!-- Node6 -->
<g id="node6" class="node">
<title>Node6</title>
<g id="a_node6"><a xlink:title=" ">
<polygon fill="#ffffff" stroke="#bfbfbf" points="272.5,-309 272.5,-366 360.5,-366 360.5,-309 272.5,-309"/>
<text text-anchor="middle" x="316.5" y="-354" font-family="Helvetica,sans-Serif" font-size="10.00" fill="#000000">QDomElement</text>
<polyline fill="none" stroke="#bfbfbf" points="272.5,-347 360.5,-347 "/>
<text text-anchor="middle" x="316.5" y="-335" font-family="Helvetica,sans-Serif" font-size="10.00" fill="#000000"> </text>
<polyline fill="none" stroke="#bfbfbf" points="272.5,-328 360.5,-328 "/>
<text text-anchor="middle" x="316.5" y="-316" font-family="Helvetica,sans-Serif" font-size="10.00" fill="#000000"> </text>
</a>
</g>
</g>
<!-- Node6&#45;&gt;Node1 -->
<g id="edge5" class="edge">
<title>Node6&#45;&gt;Node1</title>
<path fill="none" stroke="#404040" d="M317.9577,-308.7947C318.4741,-274.9334 315.4962,-217.8356 293.5,-175 285.0486,-158.5417 272.6649,-143.3229 259.443,-130.0663"/>
<polygon fill="none" stroke="#404040" points="259.3251,-129.9532 252.2263,-128.6854 250.6663,-121.645 257.7651,-122.9128 259.3251,-129.9532"/>
<text text-anchor="middle" x="350" y="-244" font-family="Helvetica,sans-Serif" font-size="10.00" fill="#000000"> &#45;m_keepout</text>
<text text-anchor="middle" x="350" y="-233" font-family="Helvetica,sans-Serif" font-size="10.00" fill="#000000">&#45;m_copper</text>
<text text-anchor="middle" x="350" y="-222" font-family="Helvetica,sans-Serif" font-size="10.00" fill="#000000">&#45;m_silkscreen</text>
<text text-anchor="middle" x="350" y="-211" font-family="Helvetica,sans-Serif" font-size="10.00" fill="#000000">&#45;m_svgroot</text>
<text text-anchor="middle" x="350" y="-200" font-family="Helvetica,sans-Serif" font-size="10.00" fill="#000000">&#45;m_mask</text>
<text text-anchor="middle" x="350" y="-189" font-family="Helvetica,sans-Serif" font-size="10.00" fill="#000000">&#45;m_outline</text>
</g>
</g>
</svg>
