<?xml version="1.0" encoding="UTF-8" standalone="no"?>
<!DOCTYPE svg PUBLIC "-//W3C//DTD SVG 1.1//EN"
 "http://www.w3.org/Graphics/SVG/1.1/DTD/svg11.dtd">
<!-- Generated by graphviz version 2.40.1 (0)
 -->
<!-- Title: Pad::findCorner Pages: 1 -->
<svg width="466pt" height="85pt"
 viewBox="0.00 0.00 466.00 85.00" xmlns="http://www.w3.org/2000/svg" xmlns:xlink="http://www.w3.org/1999/xlink">
<g id="graph0" class="graph" transform="scale(1 1) rotate(0) translate(4 81)">
<title>Pad::findCorner</title>
<polygon fill="#ffffff" stroke="transparent" points="-4,4 -4,-81 462,-81 462,4 -4,4"/>
<!-- Node128 -->
<g id="node1" class="node">
<title>Node128</title>
<g id="a_node1"><a xlink:title=" ">
<polygon fill="#bfbfbf" stroke="#000000" points="0,-38.5 0,-57.5 90,-57.5 90,-38.5 0,-38.5"/>
<text text-anchor="middle" x="45" y="-45.5" font-family="Helvetica,sans-Serif" font-size="10.00" fill="#000000">Pad::findCorner</text>
</a>
</g>
</g>
<!-- Node129 -->
<g id="node2" class="node">
<title>Node129</title>
<g id="a_node2"><a xlink:href="../../d7/d5f/misc_8cpp.html#a70fcfe23ee555487a409eefca43d3d20" target="_top" xlink:title=" ">
<polygon fill="#ffffff" stroke="#000000" points="148,-57.5 148,-76.5 253,-76.5 253,-57.5 148,-57.5"/>
<text text-anchor="middle" x="200.5" y="-64.5" font-family="Helvetica,sans-Serif" font-size="10.00" fill="#000000">altOrMetaModifier</text>
</a>
</g>
</g>
<!-- Node128&#45;&gt;Node129 -->
<g id="edge1" class="edge">
<title>Node128&#45;&gt;Node129</title>
<path fill="none" stroke="#191970" d="M90.3951,-53.5467C105.1759,-55.3527 121.8555,-57.3907 137.6781,-59.324"/>
<polygon fill="#191970" stroke="#191970" points="137.5727,-62.8371 147.9234,-60.5759 138.4218,-55.8888 137.5727,-62.8371"/>
</g>
<!-- Node130 -->
<g id="node3" class="node">
<title>Node130</title>
<g id="a_node3"><a xlink:href="../../d7/dde/classResizableBoard.html#a39b8f2175f1f8cc6a2a588e3ec285a38" target="_top" xlink:title=" ">
<polygon fill="#ffffff" stroke="#000000" points="126,-19.5 126,-38.5 275,-38.5 275,-19.5 126,-19.5"/>
<text text-anchor="middle" x="200.5" y="-26.5" font-family="Helvetica,sans-Serif" font-size="10.00" fill="#000000">ResizableBoard::findCorner</text>
</a>
</g>
</g>
<!-- Node128&#45;&gt;Node130 -->
<g id="edge2" class="edge">
<title>Node128&#45;&gt;Node130</title>
<path fill="none" stroke="#191970" d="M90.3951,-42.4533C98.3846,-41.4771 106.929,-40.4331 115.5929,-39.3745"/>
<polygon fill="#191970" stroke="#191970" points="116.2907,-42.8154 125.7924,-38.1283 115.4416,-35.867 116.2907,-42.8154"/>
</g>
<!-- Node131 -->
<g id="node4" class="node">
<title>Node131</title>
<g id="a_node4"><a xlink:href="../../d4/d4f/classItemBase.html#a45decb22da6b671358bc8c782cff22ea" target="_top" xlink:title=" ">
<polygon fill="#ffffff" stroke="#000000" points="325,-38.5 325,-57.5 444,-57.5 444,-38.5 325,-38.5"/>
<text text-anchor="middle" x="384.5" y="-45.5" font-family="Helvetica,sans-Serif" font-size="10.00" fill="#000000">ItemBase::moveLock</text>
</a>
</g>
</g>
<!-- Node130&#45;&gt;Node131 -->
<g id="edge3" class="edge">
<title>Node130&#45;&gt;Node131</title>
<path fill="none" stroke="#191970" d="M275.0746,-36.7006C288.123,-38.048 301.6568,-39.4455 314.5736,-40.7793"/>
<polygon fill="#191970" stroke="#191970" points="314.4727,-44.2874 324.7793,-41.8332 315.1918,-37.3245 314.4727,-44.2874"/>
</g>
<!-- Node132 -->
<g id="node5" class="node">
<title>Node132</title>
<g id="a_node5"><a xlink:href="../../d7/dfe/classGraphicsUtils.html#a08388a69142404dd7821c9dfa44fa452" target="_top" xlink:title=" ">
<polygon fill="#ffffff" stroke="#000000" points="311,-.5 311,-19.5 458,-19.5 458,-.5 311,-.5"/>
<text text-anchor="middle" x="384.5" y="-7.5" font-family="Helvetica,sans-Serif" font-size="10.00" fill="#000000">GraphicsUtils::distanceSqd</text>
</a>
</g>
</g>
<!-- Node130&#45;&gt;Node132 -->
<g id="edge4" class="edge">
<title>Node130&#45;&gt;Node132</title>
<path fill="none" stroke="#191970" d="M275.0746,-21.2994C283.5234,-20.4269 292.1758,-19.5335 300.7324,-18.6499"/>
<polygon fill="#191970" stroke="#191970" points="301.1276,-22.1278 310.7152,-17.6191 300.4085,-15.1648 301.1276,-22.1278"/>
</g>
</g>
</svg>
