<?xml version="1.0" encoding="UTF-8" standalone="no"?>
<!DOCTYPE svg PUBLIC "-//W3C//DTD SVG 1.1//EN"
 "http://www.w3.org/Graphics/SVG/1.1/DTD/svg11.dtd">
<!-- Generated by graphviz version 2.40.1 (0)
 -->
<!-- Title: program/platform.h Pages: 1 -->
<!--zoomable 274 -->
<svg id="main" version="1.1" xmlns="http://www.w3.org/2000/svg" xmlns:xlink="http://www.w3.org/1999/xlink" xml:space="preserve" onload="init(evt)">
<style type="text/css"><![CDATA[
.edge:hover path { stroke: red; }
.edge:hover polygon { stroke: red; fill: red; }
]]></style>
<script type="text/javascript"><![CDATA[
var edges = document.getElementsByTagName('g');
if (edges && edges.length) {
  for (var i=0;i<edges.length;i++) {
    if (edges[i].id.substr(0,4)=='edge') {
      edges[i].setAttribute('class','edge');
    }
  }
}
]]></script>
        <defs>
                <circle id="rim" cx="0" cy="0" r="7"/>
                <circle id="rim2" cx="0" cy="0" r="3.5"/>
                <g id="zoomPlus">
                        <use xlink:href="#rim" fill="#404040">
                                <set attributeName="fill" to="#808080" begin="zoomplus.mouseover" end="zoomplus.mouseout"/>
                        </use>
                        <path d="M-4,0h8M0,-4v8" fill="none" stroke="white" stroke-width="1.5" pointer-events="none"/>
                </g>
                <g id="zoomMin">
                        <use xlink:href="#rim" fill="#404040">
                                <set attributeName="fill" to="#808080" begin="zoomminus.mouseover" end="zoomminus.mouseout"/>
                        </use>
                        <path d="M-4,0h8" fill="none" stroke="white" stroke-width="1.5" pointer-events="none"/>
                </g>
                <g id="dirArrow">
                        <path fill="none" stroke="white" stroke-width="1.5" d="M0,-3.0v7 M-2.5,-0.5L0,-3.0L2.5,-0.5"/>
                </g>
               <g id="resetDef">
                       <use xlink:href="#rim2" fill="#404040">
                               <set attributeName="fill" to="#808080" begin="reset.mouseover" end="reset.mouseout"/>
                       </use>
               </g>
        </defs>

<script type="text/javascript">
var viewWidth = 2258;
var viewHeight = 274;
var sectionId = 'dynsection-1';
</script>
<script xlink:href="../../svgpan.js"/>
<svg id="graph" class="graph">
<g id="viewport">
<title>program/platform.h</title>
<polygon fill="#ffffff" stroke="transparent" points="-4,4 -4,-270 2253.9001,-270 2253.9001,4 -4,4"/>
<!-- Node15 -->
<g id="node1" class="node">
<title>Node15</title>
<g id="a_node1"><a xlink:title=" ">
<polygon fill="#bfbfbf" stroke="#000000" points="1747.4001,-246.5 1747.4001,-265.5 1859.4001,-265.5 1859.4001,-246.5 1747.4001,-246.5"/>
<text text-anchor="middle" x="1803.4001" y="-253.5" font-family="Helvetica,sans-Serif" font-size="10.00" fill="#000000">program/platform.h</text>
</a>
</g>
</g>
<!-- Node16 -->
<g id="node2" class="node">
<title>Node16</title>
<g id="a_node2"><a xlink:href="../../da/d96/programwindow_8h.html" target="_top" xlink:title=" ">
<polygon fill="#ffffff" stroke="#000000" points="1500.4001,-190.5 1500.4001,-209.5 1648.4001,-209.5 1648.4001,-190.5 1500.4001,-190.5"/>
<text text-anchor="middle" x="1574.4001" y="-197.5" font-family="Helvetica,sans-Serif" font-size="10.00" fill="#000000">program/programwindow.h</text>
</a>
</g>
</g>
<!-- Node15&#45;&gt;Node16 -->
<g id="edge1" class="edge">
<title>Node15&#45;&gt;Node16</title>
<path fill="none" stroke="#191970" d="M1754.522,-244.0473C1712.3729,-233.7401 1652.3139,-219.0532 1613.3451,-209.5237"/>
<polygon fill="#191970" stroke="#191970" points="1753.7486,-247.4612 1764.2938,-246.4369 1755.4114,-240.6616 1753.7486,-247.4612"/>
</g>
<!-- Node38 -->
<g id="node24" class="node">
<title>Node38</title>
<g id="a_node24"><a xlink:href="../../dc/de1/prefsdialog_8h.html" target="_top" xlink:title=" ">
<polygon fill="#ffffff" stroke="#000000" points="19.9001,-134.5 19.9001,-153.5 138.9001,-153.5 138.9001,-134.5 19.9001,-134.5"/>
<text text-anchor="middle" x="79.4001" y="-141.5" font-family="Helvetica,sans-Serif" font-size="10.00" fill="#000000">dialogs/prefsdialog.h</text>
</a>
</g>
</g>
<!-- Node15&#45;&gt;Node38 -->
<g id="edge29" class="edge">
<title>Node15&#45;&gt;Node38</title>
<path fill="none" stroke="#191970" d="M1736.73,-251.6688C1459.8756,-233.6829 403.069,-165.0272 139.3158,-147.8924"/>
<polygon fill="#191970" stroke="#191970" points="1736.8138,-255.1815 1747.0197,-252.3372 1737.2676,-248.1962 1736.8138,-255.1815"/>
</g>
<!-- Node39 -->
<g id="node25" class="node">
<title>Node39</title>
<g id="a_node25"><a xlink:href="../../d7/d98/platform_8cpp.html" target="_top" xlink:title=" ">
<polygon fill="#ffffff" stroke="#000000" points="1850.9001,-190.5 1850.9001,-209.5 1973.9001,-209.5 1973.9001,-190.5 1850.9001,-190.5"/>
<text text-anchor="middle" x="1912.4001" y="-197.5" font-family="Helvetica,sans-Serif" font-size="10.00" fill="#000000">program/platform.cpp</text>
</a>
</g>
</g>
<!-- Node15&#45;&gt;Node39 -->
<g id="edge32" class="edge">
<title>Node15&#45;&gt;Node39</title>
<path fill="none" stroke="#191970" d="M1831.4343,-241.5971C1850.9747,-231.558 1876.5093,-218.4393 1893.6313,-209.6427"/>
<polygon fill="#191970" stroke="#191970" points="1829.6818,-238.5625 1822.3864,-246.2455 1832.8807,-244.7889 1829.6818,-238.5625"/>
</g>
<!-- Node40 -->
<g id="node26" class="node">
<title>Node40</title>
<g id="a_node26"><a xlink:href="../../d2/dc3/platformarduino_8h.html" target="_top" xlink:title=" ">
<polygon fill="#ffffff" stroke="#000000" points="1709.9001,-134.5 1709.9001,-153.5 1858.9001,-153.5 1858.9001,-134.5 1709.9001,-134.5"/>
<text text-anchor="middle" x="1784.4001" y="-141.5" font-family="Helvetica,sans-Serif" font-size="10.00" fill="#000000">program/platformarduino.h</text>
</a>
</g>
</g>
<!-- Node15&#45;&gt;Node40 -->
<g id="edge33" class="edge">
<title>Node15&#45;&gt;Node40</title>
<path fill="none" stroke="#191970" d="M1800.0531,-236.2702C1795.9355,-211.9985 1789.1115,-171.7725 1786.0159,-153.5249"/>
<polygon fill="#191970" stroke="#191970" points="1796.6568,-237.1772 1801.7801,-246.4509 1803.5582,-236.0064 1796.6568,-237.1772"/>
</g>
<!-- Node41 -->
<g id="node27" class="node">
<title>Node41</title>
<g id="a_node27"><a xlink:href="../../dd/d76/platformlaunchpad_8h.html" target="_top" xlink:title=" ">
<polygon fill="#ffffff" stroke="#000000" points="2037.4001,-190.5 2037.4001,-209.5 2199.4001,-209.5 2199.4001,-190.5 2037.4001,-190.5"/>
<text text-anchor="middle" x="2118.4001" y="-197.5" font-family="Helvetica,sans-Serif" font-size="10.00" fill="#000000">program/platformlaunchpad.h</text>
</a>
</g>
</g>
<!-- Node15&#45;&gt;Node41 -->
<g id="edge36" class="edge">
<title>Node15&#45;&gt;Node41</title>
<path fill="none" stroke="#191970" d="M1867.3585,-244.6296C1925.4645,-234.2997 2010.2082,-219.2341 2064.8294,-209.5237"/>
<polygon fill="#191970" stroke="#191970" points="1866.4256,-241.2405 1857.1926,-246.4369 1867.6509,-248.1324 1866.4256,-241.2405"/>
</g>
<!-- Node43 -->
<g id="node29" class="node">
<title>Node43</title>
<g id="a_node29"><a xlink:href="../../d9/d0c/platformpicaxe_8h.html" target="_top" xlink:title=" ">
<polygon fill="#ffffff" stroke="#000000" points="1915.9001,-134.5 1915.9001,-153.5 2058.9001,-153.5 2058.9001,-134.5 1915.9001,-134.5"/>
<text text-anchor="middle" x="1987.4001" y="-141.5" font-family="Helvetica,sans-Serif" font-size="10.00" fill="#000000">program/platformpicaxe.h</text>
</a>
</g>
</g>
<!-- Node15&#45;&gt;Node43 -->
<g id="edge38" class="edge">
<title>Node15&#45;&gt;Node43</title>
<path fill="none" stroke="#191970" d="M1810.3338,-236.754C1816.5829,-221.9876 1827.1479,-202.1369 1842.4001,-190 1865.8555,-171.3354 1897.0148,-160.1789 1924.4363,-153.5419"/>
<polygon fill="#191970" stroke="#191970" points="1806.9339,-235.8372 1806.541,-246.4247 1813.4506,-238.393 1806.9339,-235.8372"/>
</g>
<!-- Node17 -->
<g id="node3" class="node">
<title>Node17</title>
<g id="a_node3"><a xlink:href="../../d9/d53/mainwindow_8h.html" target="_top" xlink:title=" ">
<polygon fill="#ffffff" stroke="#000000" points="716.4001,-134.5 716.4001,-153.5 868.4001,-153.5 868.4001,-134.5 716.4001,-134.5"/>
<text text-anchor="middle" x="792.4001" y="-141.5" font-family="Helvetica,sans-Serif" font-size="10.00" fill="#000000">mainwindow/mainwindow.h</text>
</a>
</g>
</g>
<!-- Node16&#45;&gt;Node17 -->
<g id="edge2" class="edge">
<title>Node16&#45;&gt;Node17</title>
<path fill="none" stroke="#191970" d="M1489.8329,-193.944C1336.5806,-182.9694 1015.2609,-159.9593 868.4734,-149.4477"/>
<polygon fill="#191970" stroke="#191970" points="1489.9019,-197.4579 1500.1264,-194.6812 1490.402,-190.4757 1489.9019,-197.4579"/>
</g>
<!-- Node25 -->
<g id="node11" class="node">
<title>Node25</title>
<g id="a_node11"><a xlink:href="../../d2/de1/mainwindow__menu_8cpp.html" target="_top" xlink:title=" ">
<polygon fill="#ffffff" stroke="#000000" points="1248.4001,-.5 1248.4001,-30.5 1392.4001,-30.5 1392.4001,-.5 1248.4001,-.5"/>
<text text-anchor="start" x="1256.4001" y="-18.5" font-family="Helvetica,sans-Serif" font-size="10.00" fill="#000000">mainwindow/mainwindow</text>
<text text-anchor="middle" x="1320.4001" y="-7.5" font-family="Helvetica,sans-Serif" font-size="10.00" fill="#000000">_menu.cpp</text>
</a>
</g>
</g>
<!-- Node16&#45;&gt;Node25 -->
<g id="edge22" class="edge">
<title>Node16&#45;&gt;Node25</title>
<path fill="none" stroke="#191970" d="M1566.1302,-180.8839C1551.5363,-147.9538 1520.9143,-82.5561 1501.4001,-67 1484.2198,-53.3044 1435.1298,-39.7841 1392.4027,-30.0353"/>
<polygon fill="#191970" stroke="#191970" points="1563.0507,-182.5767 1570.2709,-190.3304 1569.4618,-179.7665 1563.0507,-182.5767"/>
</g>
<!-- Node29 -->
<g id="node15" class="node">
<title>Node29</title>
<g id="a_node15"><a xlink:href="../../d8/dfb/mainwindow__export_8cpp.html" target="_top" xlink:title=" ">
<polygon fill="#ffffff" stroke="#000000" points="1348.4001,-67.5 1348.4001,-97.5 1492.4001,-97.5 1492.4001,-67.5 1348.4001,-67.5"/>
<text text-anchor="start" x="1356.4001" y="-85.5" font-family="Helvetica,sans-Serif" font-size="10.00" fill="#000000">mainwindow/mainwindow</text>
<text text-anchor="middle" x="1420.4001" y="-74.5" font-family="Helvetica,sans-Serif" font-size="10.00" fill="#000000">_export.cpp</text>
</a>
</g>
</g>
<!-- Node16&#45;&gt;Node29 -->
<g id="edge21" class="edge">
<title>Node16&#45;&gt;Node29</title>
<path fill="none" stroke="#191970" d="M1550.6926,-184.7915C1537.4406,-176.0857 1520.7527,-164.7796 1506.4001,-154 1481.7145,-135.4598 1454.5179,-112.3683 1437.4521,-97.5312"/>
<polygon fill="#191970" stroke="#191970" points="1548.9579,-187.8386 1559.2472,-190.3648 1552.779,-181.9735 1548.9579,-187.8386"/>
</g>
<!-- Node33 -->
<g id="node19" class="node">
<title>Node33</title>
<g id="a_node19"><a xlink:href="../../de/d48/programtab_8h.html" target="_top" xlink:title=" ">
<polygon fill="#ffffff" stroke="#000000" points="1564.9001,-134.5 1564.9001,-153.5 1691.9001,-153.5 1691.9001,-134.5 1564.9001,-134.5"/>
<text text-anchor="middle" x="1628.4001" y="-141.5" font-family="Helvetica,sans-Serif" font-size="10.00" fill="#000000">program/programtab.h</text>
</a>
</g>
</g>
<!-- Node16&#45;&gt;Node33 -->
<g id="edge23" class="edge">
<title>Node16&#45;&gt;Node33</title>
<path fill="none" stroke="#191970" d="M1590.997,-182.7884C1600.2347,-173.2085 1611.3905,-161.6396 1619.1018,-153.6427"/>
<polygon fill="#191970" stroke="#191970" points="1588.2281,-180.6176 1583.8062,-190.2455 1593.267,-185.4766 1588.2281,-180.6176"/>
</g>
<!-- Node37 -->
<g id="node23" class="node">
<title>Node37</title>
<g id="a_node23"><a xlink:href="../../d3/d82/programwindow_8cpp.html" target="_top" xlink:title=" ">
<polygon fill="#ffffff" stroke="#000000" points="1882.9001,-73 1882.9001,-92 2041.9001,-92 2041.9001,-73 1882.9001,-73"/>
<text text-anchor="middle" x="1962.4001" y="-80" font-family="Helvetica,sans-Serif" font-size="10.00" fill="#000000">program/programwindow.cpp</text>
</a>
</g>
</g>
<!-- Node16&#45;&gt;Node37 -->
<g id="edge28" class="edge">
<title>Node16&#45;&gt;Node37</title>
<path fill="none" stroke="#191970" d="M1658.7706,-191.453C1731.9144,-183.1973 1831.6309,-169.6646 1868.4001,-154 1903.6747,-138.9721 1937.5723,-107.7477 1953.2826,-92.0076"/>
<polygon fill="#191970" stroke="#191970" points="1658.1861,-187.9964 1648.6353,-192.5826 1658.9615,-194.9533 1658.1861,-187.9964"/>
</g>
<!-- Node18 -->
<g id="node4" class="node">
<title>Node18</title>
<g id="a_node4"><a xlink:href="../../de/d0d/panelizer_8h.html" target="_top" xlink:title=" ">
<polygon fill="#ffffff" stroke="#000000" points="200.4001,-73 200.4001,-92 320.4001,-92 320.4001,-73 200.4001,-73"/>
<text text-anchor="middle" x="260.4001" y="-80" font-family="Helvetica,sans-Serif" font-size="10.00" fill="#000000">autoroute/panelizer.h</text>
</a>
</g>
</g>
<!-- Node17&#45;&gt;Node18 -->
<g id="edge3" class="edge">
<title>Node17&#45;&gt;Node18</title>
<path fill="none" stroke="#191970" d="M706.1812,-138.0902C613.8587,-131.1214 463.2387,-117.9055 334.4001,-98 323.8927,-96.3766 312.6261,-94.2288 302.1328,-92.0509"/>
<polygon fill="#191970" stroke="#191970" points="706.0808,-141.5924 716.3139,-138.8476 706.6027,-134.6119 706.0808,-141.5924"/>
</g>
<!-- Node20 -->
<g id="node6" class="node">
<title>Node20</title>
<g id="a_node6"><a xlink:href="../../d6/dbb/fapplication_8cpp.html" target="_top" xlink:title=" ">
<polygon fill="#ffffff" stroke="#000000" points="70.9001,-6 70.9001,-25 165.9001,-25 165.9001,-6 70.9001,-6"/>
<text text-anchor="middle" x="118.4001" y="-13" font-family="Helvetica,sans-Serif" font-size="10.00" fill="#000000">fapplication.cpp</text>
</a>
</g>
</g>
<!-- Node17&#45;&gt;Node20 -->
<g id="edge8" class="edge">
<title>Node17&#45;&gt;Node20</title>
<path fill="none" stroke="#191970" d="M705.9507,-140.968C550.6298,-134.9947 236.283,-120.3157 191.4001,-98 174.5319,-89.6132 140.3959,-45.2795 125.5573,-25.2899"/>
<polygon fill="#191970" stroke="#191970" points="706.2741,-144.4827 716.4,-141.3659 706.5405,-137.4878 706.2741,-144.4827"/>
</g>
<!-- Node22 -->
<g id="node8" class="node">
<title>Node22</title>
<g id="a_node8"><a xlink:href="../../d7/d07/prefsdialog_8cpp.html" target="_top" xlink:title=" ">
<polygon fill="#ffffff" stroke="#000000" points="14.4001,-73 14.4001,-92 144.4001,-92 144.4001,-73 14.4001,-73"/>
<text text-anchor="middle" x="79.4001" y="-80" font-family="Helvetica,sans-Serif" font-size="10.00" fill="#000000">dialogs/prefsdialog.cpp</text>
</a>
</g>
</g>
<!-- Node17&#45;&gt;Node22 -->
<g id="edge7" class="edge">
<title>Node17&#45;&gt;Node22</title>
<path fill="none" stroke="#191970" d="M705.9119,-141.0502C583.5495,-136.1225 353.0974,-124.0653 158.4001,-98 146.9019,-96.4607 134.5553,-94.2902 123.1191,-92.0596"/>
<polygon fill="#191970" stroke="#191970" points="705.8413,-144.5501 715.9722,-141.4491 706.1187,-137.5556 705.8413,-144.5501"/>
</g>
<!-- Node23 -->
<g id="node9" class="node">
<title>Node23</title>
<g id="a_node9"><a xlink:href="../../d8/dd9/mainwindow_8cpp.html" target="_top" xlink:title=" ">
<polygon fill="#ffffff" stroke="#000000" points="533.4001,-6 533.4001,-25 697.4001,-25 697.4001,-6 533.4001,-6"/>
<text text-anchor="middle" x="615.4001" y="-13" font-family="Helvetica,sans-Serif" font-size="10.00" fill="#000000">mainwindow/mainwindow.cpp</text>
</a>
</g>
</g>
<!-- Node17&#45;&gt;Node23 -->
<g id="edge9" class="edge">
<title>Node17&#45;&gt;Node23</title>
<path fill="none" stroke="#191970" d="M706.2655,-140.7295C588.602,-135.362 389.5886,-122.7197 367.4001,-98 358.1968,-87.7469 358.7044,-77.687 367.4001,-67 378.8659,-52.9086 478.8659,-35.5504 548.3235,-25.0145"/>
<polygon fill="#191970" stroke="#191970" points="706.1935,-144.2297 716.34,-141.1804 706.5065,-137.2367 706.1935,-144.2297"/>
</g>
<!-- Node24 -->
<g id="node10" class="node">
<title>Node24</title>
<g id="a_node10"><a xlink:href="../../d7/d55/pemainwindow_8h.html" target="_top" xlink:title=" ">
<polygon fill="#ffffff" stroke="#000000" points="804.9001,-73 804.9001,-92 959.9001,-92 959.9001,-73 804.9001,-73"/>
<text text-anchor="middle" x="882.4001" y="-80" font-family="Helvetica,sans-Serif" font-size="10.00" fill="#000000">partseditor/pemainwindow.h</text>
</a>
</g>
</g>
<!-- Node17&#45;&gt;Node24 -->
<g id="edge10" class="edge">
<title>Node17&#45;&gt;Node24</title>
<path fill="none" stroke="#191970" d="M815.129,-128.4685C831.9068,-117.0037 854.2075,-101.765 868.4363,-92.0419"/>
<polygon fill="#191970" stroke="#191970" points="812.7444,-125.8589 806.4626,-134.3906 816.6937,-131.6384 812.7444,-125.8589"/>
</g>
<!-- Node17&#45;&gt;Node25 -->
<g id="edge17" class="edge">
<title>Node17&#45;&gt;Node25</title>
<path fill="none" stroke="#191970" d="M878.5791,-141.653C1015.4442,-137.1268 1270.2923,-125.1345 1301.4001,-98 1320.5619,-81.2856 1322.5023,-49.4856 1321.7462,-30.6223"/>
<polygon fill="#191970" stroke="#191970" points="878.4122,-138.1565 868.5309,-141.9789 878.6392,-145.1528 878.4122,-138.1565"/>
</g>
<!-- Node28 -->
<g id="node14" class="node">
<title>Node28</title>
<g id="a_node14"><a xlink:href="../../dc/d06/mainwindow__dock_8cpp.html" target="_top" xlink:title=" ">
<polygon fill="#ffffff" stroke="#000000" points="978.4001,-67.5 978.4001,-97.5 1122.4001,-97.5 1122.4001,-67.5 978.4001,-67.5"/>
<text text-anchor="start" x="986.4001" y="-85.5" font-family="Helvetica,sans-Serif" font-size="10.00" fill="#000000">mainwindow/mainwindow</text>
<text text-anchor="middle" x="1050.4001" y="-74.5" font-family="Helvetica,sans-Serif" font-size="10.00" fill="#000000">_dock.cpp</text>
</a>
</g>
</g>
<!-- Node17&#45;&gt;Node28 -->
<g id="edge15" class="edge">
<title>Node17&#45;&gt;Node28</title>
<path fill="none" stroke="#191970" d="M842.2694,-132.1125C883.5764,-122.2661 942.5222,-108.2151 987.1443,-97.5784"/>
<polygon fill="#191970" stroke="#191970" points="841.3454,-128.7347 832.4295,-134.4581 842.9685,-135.5439 841.3454,-128.7347"/>
</g>
<!-- Node17&#45;&gt;Node29 -->
<g id="edge16" class="edge">
<title>Node17&#45;&gt;Node29</title>
<path fill="none" stroke="#191970" d="M878.6053,-139.1826C985.7607,-132.6201 1174.0973,-119.201 1334.4001,-98 1338.9121,-97.4033 1343.5477,-96.7335 1348.2159,-96.0161"/>
<polygon fill="#191970" stroke="#191970" points="878.2621,-135.6969 868.4925,-139.7963 878.6862,-142.684 878.2621,-135.6969"/>
</g>
<!-- Node30 -->
<g id="node16" class="node">
<title>Node30</title>
<g id="a_node16"><a xlink:href="../../d1/d8a/binmanager_8cpp.html" target="_top" xlink:title=" ">
<polygon fill="#ffffff" stroke="#000000" points="1140.4001,-67.5 1140.4001,-97.5 1292.4001,-97.5 1292.4001,-67.5 1140.4001,-67.5"/>
<text text-anchor="start" x="1148.4001" y="-85.5" font-family="Helvetica,sans-Serif" font-size="10.00" fill="#000000">partsbinpalette/binmanager</text>
<text text-anchor="middle" x="1216.4001" y="-74.5" font-family="Helvetica,sans-Serif" font-size="10.00" fill="#000000">/binmanager.cpp</text>
</a>
</g>
</g>
<!-- Node17&#45;&gt;Node30 -->
<g id="edge18" class="edge">
<title>Node17&#45;&gt;Node30</title>
<path fill="none" stroke="#191970" d="M878.9397,-133.3598C947.5351,-124.66 1045.7576,-111.6119 1131.4001,-98 1134.2148,-97.5526 1137.0799,-97.0863 1139.9725,-96.6063"/>
<polygon fill="#191970" stroke="#191970" points="878.0978,-129.9382 868.6157,-134.6647 878.9757,-136.883 878.0978,-129.9382"/>
</g>
<!-- Node31 -->
<g id="node17" class="node">
<title>Node31</title>
<g id="a_node17"><a xlink:href="../../d1/d73/partsbinpalettewidget_8cpp.html" target="_top" xlink:title=" ">
<polygon fill="#ffffff" stroke="#000000" points="376.9001,-73 376.9001,-92 597.9001,-92 597.9001,-73 376.9001,-73"/>
<text text-anchor="middle" x="487.4001" y="-80" font-family="Helvetica,sans-Serif" font-size="10.00" fill="#000000">partsbinpalette/partsbinpalettewidget.cpp</text>
</a>
</g>
</g>
<!-- Node17&#45;&gt;Node31 -->
<g id="edge19" class="edge">
<title>Node17&#45;&gt;Node31</title>
<path fill="none" stroke="#191970" d="M734.9828,-132.4224C677.0262,-120.7361 588.5841,-102.9027 534.5817,-92.0137"/>
<polygon fill="#191970" stroke="#191970" points="734.5839,-135.9124 745.0785,-134.4581 735.9676,-129.0505 734.5839,-135.9124"/>
</g>
<!-- Node32 -->
<g id="node18" class="node">
<title>Node32</title>
<g id="a_node18"><a xlink:href="../../d7/d51/autoclosemessagebox_8cpp.html" target="_top" xlink:title=" ">
<polygon fill="#ffffff" stroke="#000000" points="616.4001,-73 616.4001,-92 786.4001,-92 786.4001,-73 616.4001,-73"/>
<text text-anchor="middle" x="701.4001" y="-80" font-family="Helvetica,sans-Serif" font-size="10.00" fill="#000000">utils/autoclosemessagebox.cpp</text>
</a>
</g>
</g>
<!-- Node17&#45;&gt;Node32 -->
<g id="edge20" class="edge">
<title>Node17&#45;&gt;Node32</title>
<path fill="none" stroke="#191970" d="M769.8883,-128.786C752.8726,-117.2864 730.0392,-101.855 715.519,-92.0419"/>
<polygon fill="#191970" stroke="#191970" points="767.9362,-131.691 778.1813,-134.3906 771.8558,-125.8913 767.9362,-131.691"/>
</g>
<!-- Node19 -->
<g id="node5" class="node">
<title>Node19</title>
<g id="a_node5"><a xlink:href="../../da/d99/panelizer_8cpp.html" target="_top" xlink:title=" ">
<polygon fill="#ffffff" stroke="#000000" points="354.9001,-6 354.9001,-25 485.9001,-25 485.9001,-6 354.9001,-6"/>
<text text-anchor="middle" x="420.4001" y="-13" font-family="Helvetica,sans-Serif" font-size="10.00" fill="#000000">autoroute/panelizer.cpp</text>
</a>
</g>
</g>
<!-- Node18&#45;&gt;Node19 -->
<g id="edge4" class="edge">
<title>Node18&#45;&gt;Node19</title>
<path fill="none" stroke="#191970" d="M292.8494,-68.9118C323.9474,-55.8895 370.0922,-36.5664 397.5185,-25.0817"/>
<polygon fill="#191970" stroke="#191970" points="291.1962,-65.8096 283.3242,-72.9005 293.9,-72.2663 291.1962,-65.8096"/>
</g>
<!-- Node18&#45;&gt;Node20 -->
<g id="edge5" class="edge">
<title>Node18&#45;&gt;Node20</title>
<path fill="none" stroke="#191970" d="M230.8814,-68.5722C203.2939,-55.5555 162.8376,-36.467 138.7075,-25.0817"/>
<polygon fill="#191970" stroke="#191970" points="229.5175,-71.7987 240.0549,-72.9005 232.5046,-65.468 229.5175,-71.7987"/>
</g>
<!-- Node21 -->
<g id="node7" class="node">
<title>Node21</title>
<g id="a_node7"><a xlink:href="../../de/d4c/pcbsketchwidget_8cpp.html" target="_top" xlink:title=" ">
<polygon fill="#ffffff" stroke="#000000" points="183.9001,-6 183.9001,-25 336.9001,-25 336.9001,-6 183.9001,-6"/>
<text text-anchor="middle" x="260.4001" y="-13" font-family="Helvetica,sans-Serif" font-size="10.00" fill="#000000">sketch/pcbsketchwidget.cpp</text>
</a>
</g>
</g>
<!-- Node18&#45;&gt;Node21 -->
<g id="edge6" class="edge">
<title>Node18&#45;&gt;Node21</title>
<path fill="none" stroke="#191970" d="M260.4001,-62.6079C260.4001,-50.214 260.4001,-34.8263 260.4001,-25.0817"/>
<polygon fill="#191970" stroke="#191970" points="256.9002,-62.9005 260.4001,-72.9005 263.9002,-62.9006 256.9002,-62.9005"/>
</g>
<!-- Node24&#45;&gt;Node23 -->
<g id="edge11" class="edge">
<title>Node24&#45;&gt;Node23</title>
<path fill="none" stroke="#191970" d="M834.4937,-70.4785C782.7448,-57.4929 701.3262,-37.062 653.6724,-25.1039"/>
<polygon fill="#191970" stroke="#191970" points="833.8779,-73.9325 844.429,-72.9717 835.5816,-67.143 833.8779,-73.9325"/>
</g>
<!-- Node24&#45;&gt;Node25 -->
<g id="edge12" class="edge">
<title>Node24&#45;&gt;Node25</title>
<path fill="none" stroke="#191970" d="M944.4658,-71.2031C952.8402,-69.7488 961.3255,-68.3113 969.4001,-67 1065.7577,-51.3512 1177.3481,-35.3383 1248.3716,-25.4108"/>
<polygon fill="#191970" stroke="#191970" points="943.5862,-67.8038 934.3407,-72.9778 944.7948,-74.6987 943.5862,-67.8038"/>
</g>
<!-- Node26 -->
<g id="node12" class="node">
<title>Node26</title>
<g id="a_node12"><a xlink:href="../../d3/d01/pecommands_8cpp.html" target="_top" xlink:title=" ">
<polygon fill="#ffffff" stroke="#000000" points="744.9001,-6 744.9001,-25 903.9001,-25 903.9001,-6 744.9001,-6"/>
<text text-anchor="middle" x="824.4001" y="-13" font-family="Helvetica,sans-Serif" font-size="10.00" fill="#000000">partseditor/pecommands.cpp</text>
</a>
</g>
</g>
<!-- Node24&#45;&gt;Node26 -->
<g id="edge13" class="edge">
<title>Node24&#45;&gt;Node26</title>
<path fill="none" stroke="#191970" d="M867.4367,-65.2147C856.3789,-52.441 841.7329,-35.5224 832.6946,-25.0817"/>
<polygon fill="#191970" stroke="#191970" points="864.8988,-67.6307 874.0901,-72.9005 870.1913,-63.0491 864.8988,-67.6307"/>
</g>
<!-- Node27 -->
<g id="node13" class="node">
<title>Node27</title>
<g id="a_node13"><a xlink:href="../../d3/de2/pemainwindow_8cpp.html" target="_top" xlink:title=" ">
<polygon fill="#ffffff" stroke="#000000" points="921.9001,-6 921.9001,-25 1088.9001,-25 1088.9001,-6 921.9001,-6"/>
<text text-anchor="middle" x="1005.4001" y="-13" font-family="Helvetica,sans-Serif" font-size="10.00" fill="#000000">partseditor/pemainwindow.cpp</text>
</a>
</g>
</g>
<!-- Node24&#45;&gt;Node27 -->
<g id="edge14" class="edge">
<title>Node24&#45;&gt;Node27</title>
<path fill="none" stroke="#191970" d="M908.9139,-68.0575C932.781,-55.0567 967.1822,-36.3179 987.8099,-25.0817"/>
<polygon fill="#191970" stroke="#191970" points="907.1304,-65.0434 900.023,-72.9005 910.4789,-71.1906 907.1304,-65.0434"/>
</g>
<!-- Node34 -->
<g id="node20" class="node">
<title>Node34</title>
<g id="a_node20"><a xlink:href="../../df/d93/platformarduino_8cpp.html" target="_top" xlink:title=" ">
<polygon fill="#ffffff" stroke="#000000" points="1704.4001,-73 1704.4001,-92 1864.4001,-92 1864.4001,-73 1704.4001,-73"/>
<text text-anchor="middle" x="1784.4001" y="-80" font-family="Helvetica,sans-Serif" font-size="10.00" fill="#000000">program/platformarduino.cpp</text>
</a>
</g>
</g>
<!-- Node33&#45;&gt;Node34 -->
<g id="edge24" class="edge">
<title>Node33&#45;&gt;Node34</title>
<path fill="none" stroke="#191970" d="M1662.2693,-130.6477C1691.8089,-119.0023 1733.9343,-102.3952 1760.1962,-92.0419"/>
<polygon fill="#191970" stroke="#191970" points="1660.7946,-127.4669 1652.7751,-134.3906 1663.3619,-133.9791 1660.7946,-127.4669"/>
</g>
<!-- Node35 -->
<g id="node21" class="node">
<title>Node35</title>
<g id="a_node21"><a xlink:href="../../d6/da8/platformpicaxe_8cpp.html" target="_top" xlink:title=" ">
<polygon fill="#ffffff" stroke="#000000" points="2059.9001,-73 2059.9001,-92 2214.9001,-92 2214.9001,-73 2059.9001,-73"/>
<text text-anchor="middle" x="2137.4001" y="-80" font-family="Helvetica,sans-Serif" font-size="10.00" fill="#000000">program/platformpicaxe.cpp</text>
</a>
</g>
</g>
<!-- Node33&#45;&gt;Node35 -->
<g id="edge25" class="edge">
<title>Node33&#45;&gt;Node35</title>
<path fill="none" stroke="#191970" d="M1701.9289,-133.8531C1857.7792,-115.3925 1899.3062,-119.4741 2051.4001,-98 2063.2676,-96.3244 2076.0004,-94.2069 2087.9343,-92.0798"/>
<polygon fill="#191970" stroke="#191970" points="1701.5005,-130.3793 1691.9873,-135.0427 1702.3323,-137.3297 1701.5005,-130.3793"/>
</g>
<!-- Node36 -->
<g id="node22" class="node">
<title>Node36</title>
<g id="a_node22"><a xlink:href="../../d2/d07/programtab_8cpp.html" target="_top" xlink:title=" ">
<polygon fill="#ffffff" stroke="#000000" points="1548.4001,-73 1548.4001,-92 1686.4001,-92 1686.4001,-73 1548.4001,-73"/>
<text text-anchor="middle" x="1617.4001" y="-80" font-family="Helvetica,sans-Serif" font-size="10.00" fill="#000000">program/programtab.cpp</text>
</a>
</g>
</g>
<!-- Node33&#45;&gt;Node36 -->
<g id="edge26" class="edge">
<title>Node33&#45;&gt;Node36</title>
<path fill="none" stroke="#191970" d="M1624.8669,-124.2462C1622.9541,-113.5519 1620.6757,-100.814 1619.1431,-92.2449"/>
<polygon fill="#191970" stroke="#191970" points="1621.4752,-125.1631 1626.6813,-134.3906 1628.3659,-123.9306 1621.4752,-125.1631"/>
</g>
<!-- Node33&#45;&gt;Node37 -->
<g id="edge27" class="edge">
<title>Node33&#45;&gt;Node37</title>
<path fill="none" stroke="#191970" d="M1690.0979,-132.6395C1753.5394,-120.9579 1851.2279,-102.9703 1910.7323,-92.0137"/>
<polygon fill="#191970" stroke="#191970" points="1689.4219,-129.205 1680.2211,-134.4581 1690.6896,-136.0893 1689.4219,-129.205"/>
</g>
<!-- Node38&#45;&gt;Node20 -->
<g id="edge31" class="edge">
<title>Node38&#45;&gt;Node20</title>
<path fill="none" stroke="#191970" d="M41.8667,-130.028C27.8229,-122.7521 13.3579,-112.3168 5.4001,-98 -1.2936,-85.9575 -2.0532,-78.5877 5.4001,-67 19.8621,-44.5158 46.826,-31.7302 70.7875,-24.523"/>
<polygon fill="#191970" stroke="#191970" points="40.4289,-133.2199 50.962,-134.3621 43.4402,-126.9007 40.4289,-133.2199"/>
</g>
<!-- Node38&#45;&gt;Node22 -->
<g id="edge30" class="edge">
<title>Node38&#45;&gt;Node22</title>
<path fill="none" stroke="#191970" d="M79.4001,-124.2462C79.4001,-113.5519 79.4001,-100.814 79.4001,-92.2449"/>
<polygon fill="#191970" stroke="#191970" points="75.9002,-124.3906 79.4001,-134.3906 82.9002,-124.3907 75.9002,-124.3906"/>
</g>
<!-- Node40&#45;&gt;Node34 -->
<g id="edge34" class="edge">
<title>Node40&#45;&gt;Node34</title>
<path fill="none" stroke="#191970" d="M1784.4001,-124.2462C1784.4001,-113.5519 1784.4001,-100.814 1784.4001,-92.2449"/>
<polygon fill="#191970" stroke="#191970" points="1780.9002,-124.3906 1784.4001,-134.3906 1787.9002,-124.3907 1780.9002,-124.3906"/>
</g>
<!-- Node40&#45;&gt;Node37 -->
<g id="edge35" class="edge">
<title>Node40&#45;&gt;Node37</title>
<path fill="none" stroke="#191970" d="M1821.7342,-131.1009C1855.4942,-119.4366 1904.4265,-102.5302 1934.7829,-92.0419"/>
<polygon fill="#191970" stroke="#191970" points="1820.5213,-127.8168 1812.2126,-134.3906 1822.8073,-134.433 1820.5213,-127.8168"/>
</g>
<!-- Node42 -->
<g id="node28" class="node">
<title>Node42</title>
<g id="a_node28"><a xlink:href="../../db/d09/platformlaunchpad_8cpp.html" target="_top" xlink:title=" ">
<polygon fill="#ffffff" stroke="#000000" points="2076.9001,-134.5 2076.9001,-153.5 2249.9001,-153.5 2249.9001,-134.5 2076.9001,-134.5"/>
<text text-anchor="middle" x="2163.4001" y="-141.5" font-family="Helvetica,sans-Serif" font-size="10.00" fill="#000000">program/platformlaunchpad.cpp</text>
</a>
</g>
</g>
<!-- Node41&#45;&gt;Node42 -->
<g id="edge37" class="edge">
<title>Node41&#45;&gt;Node42</title>
<path fill="none" stroke="#191970" d="M2132.6946,-182.2112C2140.2997,-172.7472 2149.3539,-161.4797 2155.6515,-153.6427"/>
<polygon fill="#191970" stroke="#191970" points="2129.7741,-180.2581 2126.2385,-190.2455 2135.2307,-184.6428 2129.7741,-180.2581"/>
</g>
<!-- Node43&#45;&gt;Node35 -->
<g id="edge39" class="edge">
<title>Node43&#45;&gt;Node35</title>
<path fill="none" stroke="#191970" d="M2020.3378,-130.4955C2048.722,-118.858 2088.9851,-102.3501 2114.1272,-92.0419"/>
<polygon fill="#191970" stroke="#191970" points="2018.7623,-127.3586 2010.8376,-134.3906 2021.4179,-133.8354 2018.7623,-127.3586"/>
</g>
<!-- Node43&#45;&gt;Node37 -->
<g id="edge40" class="edge">
<title>Node43&#45;&gt;Node37</title>
<path fill="none" stroke="#191970" d="M1979.6435,-124.9189C1975.2416,-114.0901 1969.9181,-100.9944 1966.3614,-92.2449"/>
<polygon fill="#191970" stroke="#191970" points="1976.4856,-126.4448 1983.4938,-134.3906 1982.9703,-123.8087 1976.4856,-126.4448"/>
</g>
</g>
</svg>
        <g id="navigator" transform="translate(0 0)" fill="#404254">
                <rect fill="#f2f5e9" fill-opacity="0.5" stroke="#606060" stroke-width=".5" x="0" y="0" width="60" height="60"/>
                <use id="zoomplus" xlink:href="#zoomPlus" x="17" y="9" onmousedown="handleZoom(evt,'in')"/>
                <use id="zoomminus" xlink:href="#zoomMin" x="42" y="9" onmousedown="handleZoom(evt,'out')"/>
                <use id="reset" xlink:href="#resetDef" x="30" y="36" onmousedown="handleReset()"/>
                <g id="arrowUp" xlink:href="#dirArrow" transform="translate(30 24)" onmousedown="handlePan(0,-1)">
                  <use xlink:href="#rim" fill="#404040">
                        <set attributeName="fill" to="#808080" begin="arrowUp.mouseover" end="arrowUp.mouseout"/>
                  </use>
                  <path fill="none" stroke="white" stroke-width="1.5" d="M0,-3.0v7 M-2.5,-0.5L0,-3.0L2.5,-0.5"/>
                </g>
                <g id="arrowRight" xlink:href="#dirArrow" transform="rotate(90) translate(36 -43)" onmousedown="handlePan(1,0)">
                  <use xlink:href="#rim" fill="#404040">
                        <set attributeName="fill" to="#808080" begin="arrowRight.mouseover" end="arrowRight.mouseout"/>
                  </use>
                  <path fill="none" stroke="white" stroke-width="1.5" d="M0,-3.0v7 M-2.5,-0.5L0,-3.0L2.5,-0.5"/>
                </g>
                <g id="arrowDown" xlink:href="#dirArrow" transform="rotate(180) translate(-30 -48)" onmousedown="handlePan(0,1)">
                  <use xlink:href="#rim" fill="#404040">
                        <set attributeName="fill" to="#808080" begin="arrowDown.mouseover" end="arrowDown.mouseout"/>
                  </use>
                  <path fill="none" stroke="white" stroke-width="1.5" d="M0,-3.0v7 M-2.5,-0.5L0,-3.0L2.5,-0.5"/>
                </g>
                <g id="arrowLeft" xlink:href="#dirArrow" transform="rotate(270) translate(-36 17)" onmousedown="handlePan(-1,0)">
                  <use xlink:href="#rim" fill="#404040">
                        <set attributeName="fill" to="#808080" begin="arrowLeft.mouseover" end="arrowLeft.mouseout"/>
                  </use>
                  <path fill="none" stroke="white" stroke-width="1.5" d="M0,-3.0v7 M-2.5,-0.5L0,-3.0L2.5,-0.5"/>
                </g>
        </g>
        <svg viewBox="0 0 15 15" width="100%" height="30px" preserveAspectRatio="xMaxYMin meet">
         <g id="arrow_out" transform="scale(0.3 0.3)">
          <a xlink:href="platform_8h__dep__incl_org.svg" target="_base">
           <rect id="button" ry="5" rx="5" y="6" x="6" height="38" width="38"
                fill="#f2f5e9" fill-opacity="0.5" stroke="#606060" stroke-width="1.0"/>
           <path id="arrow"
             d="M 11.500037,31.436501 C 11.940474,20.09759 22.043105,11.32322 32.158766,21.979434 L 37.068811,17.246167 C 37.068811,17.246167 37.088388,32 37.088388,32 L 22.160133,31.978069 C 22.160133,31.978069 26.997745,27.140456 26.997745,27.140456 C 18.528582,18.264221 13.291696,25.230495 11.500037,31.436501 z"
             style="fill:#404040;"/>
          </a>
         </g>
        </svg>
</svg>
