<?xml version="1.0" encoding="UTF-8" standalone="no"?>
<!DOCTYPE svg PUBLIC "-//W3C//DTD SVG 1.1//EN"
 "http://www.w3.org/Graphics/SVG/1.1/DTD/svg11.dtd">
<!-- Generated by graphviz version 2.40.1 (0)
 -->
<!-- Title: LayerAttributes Pages: 1 -->
<!--zoomable 237 -->
<svg id="main" version="1.1" xmlns="http://www.w3.org/2000/svg" xmlns:xlink="http://www.w3.org/1999/xlink" xml:space="preserve" onload="init(evt)">
<style type="text/css"><![CDATA[
.edge:hover path { stroke: red; }
.edge:hover polygon { stroke: red; fill: red; }
]]></style>
<script type="text/javascript"><![CDATA[
var edges = document.getElementsByTagName('g');
if (edges && edges.length) {
  for (var i=0;i<edges.length;i++) {
    if (edges[i].id.substr(0,4)=='edge') {
      edges[i].setAttribute('class','edge');
    }
  }
}
]]></script>
        <defs>
                <circle id="rim" cx="0" cy="0" r="7"/>
                <circle id="rim2" cx="0" cy="0" r="3.5"/>
                <g id="zoomPlus">
                        <use xlink:href="#rim" fill="#404040">
                                <set attributeName="fill" to="#808080" begin="zoomplus.mouseover" end="zoomplus.mouseout"/>
                        </use>
                        <path d="M-4,0h8M0,-4v8" fill="none" stroke="white" stroke-width="1.5" pointer-events="none"/>
                </g>
                <g id="zoomMin">
                        <use xlink:href="#rim" fill="#404040">
                                <set attributeName="fill" to="#808080" begin="zoomminus.mouseover" end="zoomminus.mouseout"/>
                        </use>
                        <path d="M-4,0h8" fill="none" stroke="white" stroke-width="1.5" pointer-events="none"/>
                </g>
                <g id="dirArrow">
                        <path fill="none" stroke="white" stroke-width="1.5" d="M0,-3.0v7 M-2.5,-0.5L0,-3.0L2.5,-0.5"/>
                </g>
               <g id="resetDef">
                       <use xlink:href="#rim2" fill="#404040">
                               <set attributeName="fill" to="#808080" begin="reset.mouseover" end="reset.mouseout"/>
                       </use>
               </g>
        </defs>

<script type="text/javascript">
var viewWidth = 662;
var viewHeight = 237;
var sectionId = 'dynsection-0';
</script>
<script xlink:href="../../svgpan.js"/>
<svg id="graph" class="graph">
<g id="viewport">
<title>LayerAttributes</title>
<polygon fill="#ffffff" stroke="transparent" points="-4,4 -4,-233 657.5,-233 657.5,4 -4,4"/>
<!-- Node1 -->
<g id="node1" class="node">
<title>Node1</title>
<g id="a_node1"><a xlink:title=" ">
<polygon fill="#bfbfbf" stroke="#000000" points="216.5,-.5 216.5,-112.5 326.5,-112.5 326.5,-.5 216.5,-.5"/>
<text text-anchor="middle" x="271.5" y="-100.5" font-family="Helvetica,sans-Serif" font-size="10.00" fill="#000000">LayerAttributes</text>
<polyline fill="none" stroke="#000000" points="216.5,-93.5 326.5,-93.5 "/>
<text text-anchor="middle" x="271.5" y="-81.5" font-family="Helvetica,sans-Serif" font-size="10.00" fill="#000000"> </text>
<polyline fill="none" stroke="#000000" points="216.5,-74.5 326.5,-74.5 "/>
<text text-anchor="start" x="224.5" y="-62.5" font-family="Helvetica,sans-Serif" font-size="10.00" fill="#000000">+ LayerAttributes()</text>
<text text-anchor="start" x="224.5" y="-51.5" font-family="Helvetica,sans-Serif" font-size="10.00" fill="#000000">+ clearLoaded()</text>
<text text-anchor="start" x="224.5" y="-40.5" font-family="Helvetica,sans-Serif" font-size="10.00" fill="#000000">+ filename()</text>
<text text-anchor="start" x="224.5" y="-29.5" font-family="Helvetica,sans-Serif" font-size="10.00" fill="#000000">+ loaded()</text>
<text text-anchor="start" x="224.5" y="-18.5" font-family="Helvetica,sans-Serif" font-size="10.00" fill="#000000">+ setFilename()</text>
<text text-anchor="start" x="224.5" y="-7.5" font-family="Helvetica,sans-Serif" font-size="10.00" fill="#000000">+ setLoaded()</text>
</a>
</g>
</g>
<!-- Node2 -->
<g id="node2" class="node">
<title>Node2</title>
<g id="a_node2"><a xlink:title=" ">
<polygon fill="#ffffff" stroke="#bfbfbf" points="0,-171.5 0,-228.5 51,-228.5 51,-171.5 0,-171.5"/>
<text text-anchor="middle" x="25.5" y="-216.5" font-family="Helvetica,sans-Serif" font-size="10.00" fill="#000000">ViewID</text>
<polyline fill="none" stroke="#bfbfbf" points="0,-209.5 51,-209.5 "/>
<text text-anchor="middle" x="25.5" y="-197.5" font-family="Helvetica,sans-Serif" font-size="10.00" fill="#000000"> </text>
<polyline fill="none" stroke="#bfbfbf" points="0,-190.5 51,-190.5 "/>
<text text-anchor="middle" x="25.5" y="-178.5" font-family="Helvetica,sans-Serif" font-size="10.00" fill="#000000"> </text>
</a>
</g>
</g>
<!-- Node2&#45;&gt;Node1 -->
<g id="edge1" class="edge">
<title>Node2&#45;&gt;Node1</title>
<path fill="none" stroke="#404040" d="M33.0525,-171.2743C37.9881,-157.4609 45.7535,-141.6351 57.5,-131 98.1913,-94.1588 158.0991,-75.3459 204.1875,-65.8533"/>
<polygon fill="none" stroke="#404040" points="204.408,-65.8106 209.5365,-60.7412 216.1884,-63.5255 211.0599,-68.5948 204.408,-65.8106"/>
<text text-anchor="middle" x="80.5" y="-139.5" font-family="Helvetica,sans-Serif" font-size="10.00" fill="#000000"> +viewID</text>
</g>
<!-- Node3 -->
<g id="node3" class="node">
<title>Node3</title>
<g id="a_node3"><a xlink:title=" ">
<polygon fill="#ffffff" stroke="#bfbfbf" points="69,-171.5 69,-228.5 122,-228.5 122,-171.5 69,-171.5"/>
<text text-anchor="middle" x="95.5" y="-216.5" font-family="Helvetica,sans-Serif" font-size="10.00" fill="#000000">QString</text>
<polyline fill="none" stroke="#bfbfbf" points="69,-209.5 122,-209.5 "/>
<text text-anchor="middle" x="95.5" y="-197.5" font-family="Helvetica,sans-Serif" font-size="10.00" fill="#000000"> </text>
<polyline fill="none" stroke="#bfbfbf" points="69,-190.5 122,-190.5 "/>
<text text-anchor="middle" x="95.5" y="-178.5" font-family="Helvetica,sans-Serif" font-size="10.00" fill="#000000"> </text>
</a>
</g>
</g>
<!-- Node3&#45;&gt;Node1 -->
<g id="edge2" class="edge">
<title>Node3&#45;&gt;Node1</title>
<path fill="none" stroke="#404040" d="M101.1888,-171.2333C105.0539,-157.7403 111.3694,-142.2049 121.5,-131 143.7937,-106.3422 176.0905,-88.85 205.01,-77.0409"/>
<polygon fill="none" stroke="#404040" points="205.1356,-76.992 209.2739,-71.0865 216.3168,-72.6351 212.1785,-78.5406 205.1356,-76.992"/>
<text text-anchor="middle" x="156.5" y="-145" font-family="Helvetica,sans-Serif" font-size="10.00" fill="#000000"> #m_filename</text>
<text text-anchor="middle" x="156.5" y="-134" font-family="Helvetica,sans-Serif" font-size="10.00" fill="#000000">+error</text>
</g>
<!-- Node4 -->
<g id="node4" class="node">
<title>Node4</title>
<g id="a_node4"><a xlink:title=" ">
<polygon fill="#ffffff" stroke="#bfbfbf" points="142,-171.5 142,-228.5 215,-228.5 215,-171.5 142,-171.5"/>
<text text-anchor="middle" x="178.5" y="-216.5" font-family="Helvetica,sans-Serif" font-size="10.00" fill="#000000">QByteArray</text>
<polyline fill="none" stroke="#bfbfbf" points="142,-209.5 215,-209.5 "/>
<text text-anchor="middle" x="178.5" y="-197.5" font-family="Helvetica,sans-Serif" font-size="10.00" fill="#000000"> </text>
<polyline fill="none" stroke="#bfbfbf" points="142,-190.5 215,-190.5 "/>
<text text-anchor="middle" x="178.5" y="-178.5" font-family="Helvetica,sans-Serif" font-size="10.00" fill="#000000"> </text>
</a>
</g>
</g>
<!-- Node4&#45;&gt;Node1 -->
<g id="edge3" class="edge">
<title>Node4&#45;&gt;Node1</title>
<path fill="none" stroke="#404040" d="M188.1783,-171.4919C193.1064,-158.6602 199.7093,-143.5992 207.5,-131 209.2067,-128.24 211.0133,-125.4786 212.8955,-122.7313"/>
<polygon fill="none" stroke="#404040" points="212.9836,-122.609 213.2457,-115.4026 219.9986,-112.8729 219.7365,-120.0793 212.9836,-122.609"/>
<text text-anchor="middle" x="237.5" y="-139.5" font-family="Helvetica,sans-Serif" font-size="10.00" fill="#000000"> #m_loaded</text>
</g>
<!-- Node5 -->
<g id="node5" class="node">
<title>Node5</title>
<g id="a_node5"><a xlink:title=" ">
<polygon fill="#ffffff" stroke="#bfbfbf" points="233,-171.5 233,-228.5 310,-228.5 310,-171.5 233,-171.5"/>
<text text-anchor="middle" x="271.5" y="-216.5" font-family="Helvetica,sans-Serif" font-size="10.00" fill="#000000">Orientations</text>
<polyline fill="none" stroke="#bfbfbf" points="233,-209.5 310,-209.5 "/>
<text text-anchor="middle" x="271.5" y="-197.5" font-family="Helvetica,sans-Serif" font-size="10.00" fill="#000000"> </text>
<polyline fill="none" stroke="#bfbfbf" points="233,-190.5 310,-190.5 "/>
<text text-anchor="middle" x="271.5" y="-178.5" font-family="Helvetica,sans-Serif" font-size="10.00" fill="#000000"> </text>
</a>
</g>
</g>
<!-- Node5&#45;&gt;Node1 -->
<g id="edge4" class="edge">
<title>Node5&#45;&gt;Node1</title>
<path fill="none" stroke="#404040" d="M271.5,-171.3055C271.5,-157.9442 271.5,-141.4218 271.5,-125.1157"/>
<polygon fill="none" stroke="#404040" points="271.5001,-124.7445 267.5,-118.7445 271.5,-112.7445 275.5,-118.7444 271.5001,-124.7445"/>
<text text-anchor="middle" x="304" y="-139.5" font-family="Helvetica,sans-Serif" font-size="10.00" fill="#000000"> +orientation</text>
</g>
<!-- Node6 -->
<g id="node6" class="node">
<title>Node6</title>
<g id="a_node6"><a xlink:title=" ">
<polygon fill="#ffffff" stroke="#bfbfbf" points="328,-171.5 328,-228.5 447,-228.5 447,-171.5 328,-171.5"/>
<text text-anchor="middle" x="387.5" y="-216.5" font-family="Helvetica,sans-Serif" font-size="10.00" fill="#000000">ViewLayerPlacement</text>
<polyline fill="none" stroke="#bfbfbf" points="328,-209.5 447,-209.5 "/>
<text text-anchor="middle" x="387.5" y="-197.5" font-family="Helvetica,sans-Serif" font-size="10.00" fill="#000000"> </text>
<polyline fill="none" stroke="#bfbfbf" points="328,-190.5 447,-190.5 "/>
<text text-anchor="middle" x="387.5" y="-178.5" font-family="Helvetica,sans-Serif" font-size="10.00" fill="#000000"> </text>
</a>
</g>
</g>
<!-- Node6&#45;&gt;Node1 -->
<g id="edge5" class="edge">
<title>Node6&#45;&gt;Node1</title>
<path fill="none" stroke="#404040" d="M367.6775,-171.3335C358.7333,-158.7475 347.8671,-143.9249 337.5,-131 335.0674,-127.9672 332.5525,-124.892 329.9887,-121.8053"/>
<polygon fill="none" stroke="#404040" points="329.9155,-121.7184 322.9905,-119.7073 322.1835,-112.5415 329.1085,-114.5526 329.9155,-121.7184"/>
<text text-anchor="middle" x="409.5" y="-139.5" font-family="Helvetica,sans-Serif" font-size="10.00" fill="#000000"> +viewLayerPlacement</text>
</g>
<!-- Node7 -->
<g id="node7" class="node">
<title>Node7</title>
<g id="a_node7"><a xlink:title=" ">
<polygon fill="#ffffff" stroke="#bfbfbf" points="477.5,-171.5 477.5,-228.5 515.5,-228.5 515.5,-171.5 477.5,-171.5"/>
<text text-anchor="middle" x="496.5" y="-216.5" font-family="Helvetica,sans-Serif" font-size="10.00" fill="#000000">bool</text>
<polyline fill="none" stroke="#bfbfbf" points="477.5,-209.5 515.5,-209.5 "/>
<text text-anchor="middle" x="496.5" y="-197.5" font-family="Helvetica,sans-Serif" font-size="10.00" fill="#000000"> </text>
<polyline fill="none" stroke="#bfbfbf" points="477.5,-190.5 515.5,-190.5 "/>
<text text-anchor="middle" x="496.5" y="-178.5" font-family="Helvetica,sans-Serif" font-size="10.00" fill="#000000"> </text>
</a>
</g>
</g>
<!-- Node7&#45;&gt;Node1 -->
<g id="edge6" class="edge">
<title>Node7&#45;&gt;Node1</title>
<path fill="none" stroke="#404040" d="M491.4896,-171.4569C487.7665,-157.69 481.3739,-141.8507 470.5,-131 435.0543,-95.63 381.25,-76.8233 338.5209,-66.9592"/>
<polygon fill="none" stroke="#404040" points="338.5133,-66.9576 331.8003,-69.5914 326.7873,-64.4078 333.5002,-61.774 338.5133,-66.9576"/>
<text text-anchor="middle" x="522.5" y="-145" font-family="Helvetica,sans-Serif" font-size="10.00" fill="#000000"> +createShape</text>
<text text-anchor="middle" x="522.5" y="-134" font-family="Helvetica,sans-Serif" font-size="10.00" fill="#000000">+doConnectors</text>
</g>
<!-- Node8 -->
<g id="node8" class="node">
<title>Node8</title>
<g id="a_node8"><a xlink:title=" ">
<polygon fill="#ffffff" stroke="#bfbfbf" points="556.5,-171.5 556.5,-228.5 634.5,-228.5 634.5,-171.5 556.5,-171.5"/>
<text text-anchor="middle" x="595.5" y="-216.5" font-family="Helvetica,sans-Serif" font-size="10.00" fill="#000000">ViewLayerID</text>
<polyline fill="none" stroke="#bfbfbf" points="556.5,-209.5 634.5,-209.5 "/>
<text text-anchor="middle" x="595.5" y="-197.5" font-family="Helvetica,sans-Serif" font-size="10.00" fill="#000000"> </text>
<polyline fill="none" stroke="#bfbfbf" points="556.5,-190.5 634.5,-190.5 "/>
<text text-anchor="middle" x="595.5" y="-178.5" font-family="Helvetica,sans-Serif" font-size="10.00" fill="#000000"> </text>
</a>
</g>
</g>
<!-- Node8&#45;&gt;Node1 -->
<g id="edge7" class="edge">
<title>Node8&#45;&gt;Node1</title>
<path fill="none" stroke="#404040" d="M588.8798,-171.2006C584.2572,-157.1958 576.6663,-141.2219 564.5,-131 530.6208,-102.5353 414.2629,-79.2477 338.772,-66.6659"/>
<polygon fill="none" stroke="#404040" points="338.4074,-66.6062 331.8394,-69.583 326.5655,-64.6651 333.1335,-61.6884 338.4074,-66.6062"/>
<text text-anchor="middle" x="617" y="-139.5" font-family="Helvetica,sans-Serif" font-size="10.00" fill="#000000"> +viewLayerID</text>
</g>
</g>
</svg>
        <g id="navigator" transform="translate(0 0)" fill="#404254">
                <rect fill="#f2f5e9" fill-opacity="0.5" stroke="#606060" stroke-width=".5" x="0" y="0" width="60" height="60"/>
                <use id="zoomplus" xlink:href="#zoomPlus" x="17" y="9" onmousedown="handleZoom(evt,'in')"/>
                <use id="zoomminus" xlink:href="#zoomMin" x="42" y="9" onmousedown="handleZoom(evt,'out')"/>
                <use id="reset" xlink:href="#resetDef" x="30" y="36" onmousedown="handleReset()"/>
                <g id="arrowUp" xlink:href="#dirArrow" transform="translate(30 24)" onmousedown="handlePan(0,-1)">
                  <use xlink:href="#rim" fill="#404040">
                        <set attributeName="fill" to="#808080" begin="arrowUp.mouseover" end="arrowUp.mouseout"/>
                  </use>
                  <path fill="none" stroke="white" stroke-width="1.5" d="M0,-3.0v7 M-2.5,-0.5L0,-3.0L2.5,-0.5"/>
                </g>
                <g id="arrowRight" xlink:href="#dirArrow" transform="rotate(90) translate(36 -43)" onmousedown="handlePan(1,0)">
                  <use xlink:href="#rim" fill="#404040">
                        <set attributeName="fill" to="#808080" begin="arrowRight.mouseover" end="arrowRight.mouseout"/>
                  </use>
                  <path fill="none" stroke="white" stroke-width="1.5" d="M0,-3.0v7 M-2.5,-0.5L0,-3.0L2.5,-0.5"/>
                </g>
                <g id="arrowDown" xlink:href="#dirArrow" transform="rotate(180) translate(-30 -48)" onmousedown="handlePan(0,1)">
                  <use xlink:href="#rim" fill="#404040">
                        <set attributeName="fill" to="#808080" begin="arrowDown.mouseover" end="arrowDown.mouseout"/>
                  </use>
                  <path fill="none" stroke="white" stroke-width="1.5" d="M0,-3.0v7 M-2.5,-0.5L0,-3.0L2.5,-0.5"/>
                </g>
                <g id="arrowLeft" xlink:href="#dirArrow" transform="rotate(270) translate(-36 17)" onmousedown="handlePan(-1,0)">
                  <use xlink:href="#rim" fill="#404040">
                        <set attributeName="fill" to="#808080" begin="arrowLeft.mouseover" end="arrowLeft.mouseout"/>
                  </use>
                  <path fill="none" stroke="white" stroke-width="1.5" d="M0,-3.0v7 M-2.5,-0.5L0,-3.0L2.5,-0.5"/>
                </g>
        </g>
        <svg viewBox="0 0 15 15" width="100%" height="30px" preserveAspectRatio="xMaxYMin meet">
         <g id="arrow_out" transform="scale(0.3 0.3)">
          <a xlink:href="classLayerAttributes__coll__graph_org.svg" target="_base">
           <rect id="button" ry="5" rx="5" y="6" x="6" height="38" width="38"
                fill="#f2f5e9" fill-opacity="0.5" stroke="#606060" stroke-width="1.0"/>
           <path id="arrow"
             d="M 11.500037,31.436501 C 11.940474,20.09759 22.043105,11.32322 32.158766,21.979434 L 37.068811,17.246167 C 37.068811,17.246167 37.088388,32 37.088388,32 L 22.160133,31.978069 C 22.160133,31.978069 26.997745,27.140456 26.997745,27.140456 C 18.528582,18.264221 13.291696,25.230495 11.500037,31.436501 z"
             style="fill:#404040;"/>
          </a>
         </g>
        </svg>
</svg>
