<?xml version="1.0" encoding="UTF-8" standalone="no"?>
<!DOCTYPE svg PUBLIC "-//W3C//DTD SVG 1.1//EN"
 "http://www.w3.org/Graphics/SVG/1.1/DTD/svg11.dtd">
<!-- Generated by graphviz version 2.40.1 (0)
 -->
<!-- Title: PartsBinPaletteWidget::isTempPartsBin Pages: 1 -->
<svg width="515pt" height="39pt"
 viewBox="0.00 0.00 515.00 39.00" xmlns="http://www.w3.org/2000/svg" xmlns:xlink="http://www.w3.org/1999/xlink">
<g id="graph0" class="graph" transform="scale(1 1) rotate(0) translate(4 35)">
<title>PartsBinPaletteWidget::isTempPartsBin</title>
<polygon fill="#ffffff" stroke="transparent" points="-4,4 -4,-35 511,-35 511,4 -4,4"/>
<!-- Node1337 -->
<g id="node1" class="node">
<title>Node1337</title>
<g id="a_node1"><a xlink:title=" ">
<polygon fill="#bfbfbf" stroke="#000000" points="382,-.5 382,-30.5 507,-30.5 507,-.5 382,-.5"/>
<text text-anchor="start" x="390" y="-18.5" font-family="Helvetica,sans-Serif" font-size="10.00" fill="#000000">PartsBinPaletteWidget</text>
<text text-anchor="middle" x="444.5" y="-7.5" font-family="Helvetica,sans-Serif" font-size="10.00" fill="#000000">::isTempPartsBin</text>
</a>
</g>
</g>
<!-- Node1338 -->
<g id="node2" class="node">
<title>Node1338</title>
<g id="a_node2"><a xlink:href="../../d8/da3/classPartsBinView.html#a3f95950fa834e6003b03362f34650fe9" target="_top" xlink:title=" ">
<polygon fill="#ffffff" stroke="#000000" points="201,-.5 201,-30.5 346,-30.5 346,-.5 201,-.5"/>
<text text-anchor="start" x="209" y="-18.5" font-family="Helvetica,sans-Serif" font-size="10.00" fill="#000000">PartsBinView::mousePress</text>
<text text-anchor="middle" x="273.5" y="-7.5" font-family="Helvetica,sans-Serif" font-size="10.00" fill="#000000">OnItem</text>
</a>
</g>
</g>
<!-- Node1337&#45;&gt;Node1338 -->
<g id="edge1" class="edge">
<title>Node1337&#45;&gt;Node1338</title>
<path fill="none" stroke="#191970" d="M371.5832,-15.5C363.1227,-15.5 354.4942,-15.5 346.0388,-15.5"/>
<polygon fill="#191970" stroke="#191970" points="371.7969,-19.0001 381.7969,-15.5 371.7969,-12.0001 371.7969,-19.0001"/>
</g>
<!-- Node1339 -->
<g id="node3" class="node">
<title>Node1339</title>
<g id="a_node3"><a xlink:href="../../d8/dee/classPartsBinIconView.html#a4e2e63e3efdb5a5d372f968cff85124f" target="_top" xlink:title=" ">
<polygon fill="#ffffff" stroke="#000000" points="0,-.5 0,-30.5 165,-30.5 165,-.5 0,-.5"/>
<text text-anchor="start" x="8" y="-18.5" font-family="Helvetica,sans-Serif" font-size="10.00" fill="#000000">PartsBinIconView::mousePress</text>
<text text-anchor="middle" x="82.5" y="-7.5" font-family="Helvetica,sans-Serif" font-size="10.00" fill="#000000">Event</text>
</a>
</g>
</g>
<!-- Node1338&#45;&gt;Node1339 -->
<g id="edge2" class="edge">
<title>Node1338&#45;&gt;Node1339</title>
<path fill="none" stroke="#191970" d="M190.5886,-15.5C182.1929,-15.5 173.665,-15.5 165.2708,-15.5"/>
<polygon fill="#191970" stroke="#191970" points="190.7463,-19.0001 200.7462,-15.5 190.7462,-12.0001 190.7463,-19.0001"/>
</g>
</g>
</svg>
