<?xml version="1.0" encoding="UTF-8" standalone="no"?>
<!DOCTYPE svg PUBLIC "-//W3C//DTD SVG 1.1//EN"
 "http://www.w3.org/Graphics/SVG/1.1/DTD/svg11.dtd">
<!-- Generated by graphviz version 2.40.1 (0)
 -->
<!-- Title: PartsBinPaletteWidget::getAllParts Pages: 1 -->
<svg width="293pt" height="66pt"
 viewBox="0.00 0.00 293.00 66.00" xmlns="http://www.w3.org/2000/svg" xmlns:xlink="http://www.w3.org/1999/xlink">
<g id="graph0" class="graph" transform="scale(1 1) rotate(0) translate(4 62)">
<title>PartsBinPaletteWidget::getAllParts</title>
<polygon fill="#ffffff" stroke="transparent" points="-4,4 -4,-62 289,-62 289,4 -4,4"/>
<!-- Node1235 -->
<g id="node1" class="node">
<title>Node1235</title>
<g id="a_node1"><a xlink:title=" ">
<polygon fill="#bfbfbf" stroke="#000000" points="0,-14 0,-44 125,-44 125,-14 0,-14"/>
<text text-anchor="start" x="8" y="-32" font-family="Helvetica,sans-Serif" font-size="10.00" fill="#000000">PartsBinPaletteWidget</text>
<text text-anchor="middle" x="62.5" y="-21" font-family="Helvetica,sans-Serif" font-size="10.00" fill="#000000">::getAllParts</text>
</a>
</g>
</g>
<!-- Node1236 -->
<g id="node2" class="node">
<title>Node1236</title>
<g id="a_node2"><a xlink:href="../../d4/d72/classModelPart.html#abe5bae242a8f7fb957a792976d0cac32" target="_top" xlink:title=" ">
<polygon fill="#ffffff" stroke="#000000" points="161,-38.5 161,-57.5 285,-57.5 285,-38.5 161,-38.5"/>
<text text-anchor="middle" x="223" y="-45.5" font-family="Helvetica,sans-Serif" font-size="10.00" fill="#000000">ModelPart::getAllParts</text>
</a>
</g>
</g>
<!-- Node1235&#45;&gt;Node1236 -->
<g id="edge1" class="edge">
<title>Node1235&#45;&gt;Node1236</title>
<path fill="none" stroke="#191970" d="M125.0131,-36.4003C133.4904,-37.4038 142.2457,-38.4403 150.8744,-39.4618"/>
<polygon fill="#191970" stroke="#191970" points="150.5792,-42.9512 160.9214,-40.6511 151.4022,-35.9997 150.5792,-42.9512"/>
</g>
<!-- Node1237 -->
<g id="node3" class="node">
<title>Node1237</title>
<g id="a_node3"><a xlink:href="../../d0/d49/classModelBase.html#aa720e23b5ac99421022c412380c9ace3" target="_top" xlink:title=" ">
<polygon fill="#ffffff" stroke="#000000" points="175,-.5 175,-19.5 271,-19.5 271,-.5 175,-.5"/>
<text text-anchor="middle" x="223" y="-7.5" font-family="Helvetica,sans-Serif" font-size="10.00" fill="#000000">ModelBase::root</text>
</a>
</g>
</g>
<!-- Node1235&#45;&gt;Node1237 -->
<g id="edge2" class="edge">
<title>Node1235&#45;&gt;Node1237</title>
<path fill="none" stroke="#191970" d="M125.0131,-21.5997C138.0701,-20.054 151.7866,-18.4302 164.6844,-16.9034"/>
<polygon fill="#191970" stroke="#191970" points="165.3051,-20.3545 174.8243,-15.703 164.4822,-13.403 165.3051,-20.3545"/>
</g>
</g>
</svg>
