<?xml version="1.0" encoding="UTF-8" standalone="no"?>
<!DOCTYPE svg PUBLIC "-//W3C//DTD SVG 1.1//EN"
 "http://www.w3.org/Graphics/SVG/1.1/DTD/svg11.dtd">
<!-- Generated by graphviz version 2.40.1 (0)
 -->
<!-- Title: PartsBinPaletteWidget::readOnly Pages: 1 -->
<svg width="926pt" height="78pt"
 viewBox="0.00 0.00 926.00 77.50" xmlns="http://www.w3.org/2000/svg" xmlns:xlink="http://www.w3.org/1999/xlink">
<g id="graph0" class="graph" transform="scale(1 1) rotate(0) translate(4 73.5)">
<title>PartsBinPaletteWidget::readOnly</title>
<polygon fill="#ffffff" stroke="transparent" points="-4,4 -4,-73.5 922,-73.5 922,4 -4,4"/>
<!-- Node2046 -->
<g id="node1" class="node">
<title>Node2046</title>
<g id="a_node1"><a xlink:title=" ">
<polygon fill="#bfbfbf" stroke="#000000" points="793,-22.5 793,-52.5 918,-52.5 918,-22.5 793,-22.5"/>
<text text-anchor="start" x="801" y="-40.5" font-family="Helvetica,sans-Serif" font-size="10.00" fill="#000000">PartsBinPaletteWidget</text>
<text text-anchor="middle" x="855.5" y="-29.5" font-family="Helvetica,sans-Serif" font-size="10.00" fill="#000000">::readOnly</text>
</a>
</g>
</g>
<!-- Node2047 -->
<g id="node2" class="node">
<title>Node2047</title>
<g id="a_node2"><a xlink:href="../../d3/d50/classBinManager.html#a4cd6a567c4508e78dd9a828a97524e22" target="_top" xlink:title=" ">
<polygon fill="#ffffff" stroke="#000000" points="583,-50 583,-69 757,-69 757,-50 583,-50"/>
<text text-anchor="middle" x="670" y="-57" font-family="Helvetica,sans-Serif" font-size="10.00" fill="#000000">BinManager::openedBinsActions</text>
</a>
</g>
</g>
<!-- Node2046&#45;&gt;Node2047 -->
<g id="edge1" class="edge">
<title>Node2046&#45;&gt;Node2047</title>
<path fill="none" stroke="#191970" d="M782.8687,-46.114C772.2072,-47.3784 761.1731,-48.687 750.3673,-49.9686"/>
<polygon fill="#191970" stroke="#191970" points="783.4386,-49.571 792.9568,-44.9175 782.6141,-42.6197 783.4386,-49.571"/>
</g>
<!-- Node2048 -->
<g id="node3" class="node">
<title>Node2048</title>
<g id="a_node3"><a xlink:href="../../de/d4e/classPartsBinPaletteWidget.html#ae5752272e12c27586da5d6146b078e78" target="_top" xlink:title=" ">
<polygon fill="#ffffff" stroke="#000000" points="607.5,-.5 607.5,-30.5 732.5,-30.5 732.5,-.5 607.5,-.5"/>
<text text-anchor="start" x="615.5" y="-18.5" font-family="Helvetica,sans-Serif" font-size="10.00" fill="#000000">PartsBinPaletteWidget</text>
<text text-anchor="middle" x="670" y="-7.5" font-family="Helvetica,sans-Serif" font-size="10.00" fill="#000000">::setReadOnly</text>
</a>
</g>
</g>
<!-- Node2046&#45;&gt;Node2048 -->
<g id="edge2" class="edge">
<title>Node2046&#45;&gt;Node2048</title>
<path fill="none" stroke="#191970" d="M782.7672,-28.874C766.1837,-26.9072 748.7037,-24.8341 732.5872,-22.9227"/>
<polygon fill="#191970" stroke="#191970" points="782.6141,-32.3803 792.9568,-30.0825 783.4386,-25.429 782.6141,-32.3803"/>
</g>
<!-- Node2049 -->
<g id="node4" class="node">
<title>Node2049</title>
<g id="a_node4"><a xlink:href="../../d3/d50/classBinManager.html#a82f16115763739023e2d56a85bf9d5b5" target="_top" xlink:title=" ">
<polygon fill="#ffffff" stroke="#000000" points="421,-6 421,-25 547,-25 547,-6 421,-6"/>
<text text-anchor="middle" x="484" y="-13" font-family="Helvetica,sans-Serif" font-size="10.00" fill="#000000">BinManager::newBinIn</text>
</a>
</g>
</g>
<!-- Node2048&#45;&gt;Node2049 -->
<g id="edge3" class="edge">
<title>Node2048&#45;&gt;Node2049</title>
<path fill="none" stroke="#191970" d="M597.1272,-15.5C580.5908,-15.5 563.1627,-15.5 547.0725,-15.5"/>
<polygon fill="#191970" stroke="#191970" points="597.2882,-19.0001 607.2882,-15.5 597.2882,-12.0001 597.2882,-19.0001"/>
</g>
<!-- Node2050 -->
<g id="node5" class="node">
<title>Node2050</title>
<g id="a_node5"><a xlink:href="../../d3/d50/classBinManager.html#a5c081f39071fd8cfc7b0d76bc7e0bb84" target="_top" xlink:title=" ">
<polygon fill="#ffffff" stroke="#000000" points="197,-6 197,-25 385,-25 385,-6 197,-6"/>
<text text-anchor="middle" x="291" y="-13" font-family="Helvetica,sans-Serif" font-size="10.00" fill="#000000">BinManager::createCombinedMenu</text>
</a>
</g>
</g>
<!-- Node2049&#45;&gt;Node2050 -->
<g id="edge4" class="edge">
<title>Node2049&#45;&gt;Node2050</title>
<path fill="none" stroke="#191970" d="M410.7299,-15.5C402.3546,-15.5 393.731,-15.5 385.1325,-15.5"/>
<polygon fill="#191970" stroke="#191970" points="410.8046,-19.0001 420.8046,-15.5 410.8045,-12.0001 410.8046,-19.0001"/>
</g>
<!-- Node2051 -->
<g id="node6" class="node">
<title>Node2051</title>
<g id="a_node6"><a xlink:href="../../d3/d50/classBinManager.html#a2d5d445330cf9de93768d92ea7ce8d5a" target="_top" xlink:title=" ">
<polygon fill="#ffffff" stroke="#000000" points="0,-6 0,-25 161,-25 161,-6 0,-6"/>
<text text-anchor="middle" x="80.5" y="-13" font-family="Helvetica,sans-Serif" font-size="10.00" fill="#000000">BinManager::initStandardBins</text>
</a>
</g>
</g>
<!-- Node2050&#45;&gt;Node2051 -->
<g id="edge5" class="edge">
<title>Node2050&#45;&gt;Node2051</title>
<path fill="none" stroke="#191970" d="M186.7331,-15.5C178.1148,-15.5 169.4877,-15.5 161.0831,-15.5"/>
<polygon fill="#191970" stroke="#191970" points="186.8323,-19.0001 196.8323,-15.5 186.8323,-12.0001 186.8323,-19.0001"/>
</g>
</g>
</svg>
