<?xml version="1.0" encoding="UTF-8" standalone="no"?>
<!DOCTYPE svg PUBLIC "-//W3C//DTD SVG 1.1//EN"
 "http://www.w3.org/Graphics/SVG/1.1/DTD/svg11.dtd">
<!-- Generated by graphviz version 2.40.1 (0)
 -->
<!-- Title: PartsBinPaletteWidget::combinedMenu Pages: 1 -->
<svg width="1099pt" height="252pt"
 viewBox="0.00 0.00 1099.00 252.00" xmlns="http://www.w3.org/2000/svg" xmlns:xlink="http://www.w3.org/1999/xlink">
<g id="graph0" class="graph" transform="scale(1 1) rotate(0) translate(4 248)">
<title>PartsBinPaletteWidget::combinedMenu</title>
<polygon fill="#ffffff" stroke="transparent" points="-4,4 -4,-248 1095,-248 1095,4 -4,4"/>
<!-- Node935 -->
<g id="node1" class="node">
<title>Node935</title>
<g id="a_node1"><a xlink:title=" ">
<polygon fill="#bfbfbf" stroke="#000000" points="0,-101.5 0,-131.5 125,-131.5 125,-101.5 0,-101.5"/>
<text text-anchor="start" x="8" y="-119.5" font-family="Helvetica,sans-Serif" font-size="10.00" fill="#000000">PartsBinPaletteWidget</text>
<text text-anchor="middle" x="62.5" y="-108.5" font-family="Helvetica,sans-Serif" font-size="10.00" fill="#000000">::combinedMenu</text>
</a>
</g>
</g>
<!-- Node936 -->
<g id="node2" class="node">
<title>Node936</title>
<g id="a_node2"><a xlink:href="../../d3/d50/classBinManager.html#a1f545fdc472b4d9ce80c5be836c83d0b" target="_top" xlink:title=" ">
<polygon fill="#ffffff" stroke="#000000" points="161,-107 161,-126 317,-126 317,-107 161,-107"/>
<text text-anchor="middle" x="239" y="-114" font-family="Helvetica,sans-Serif" font-size="10.00" fill="#000000">BinManager::combinedMenu</text>
</a>
</g>
</g>
<!-- Node935&#45;&gt;Node936 -->
<g id="edge1" class="edge">
<title>Node935&#45;&gt;Node936</title>
<path fill="none" stroke="#191970" d="M125.2243,-116.5C133.4854,-116.5 142.0731,-116.5 150.6619,-116.5"/>
<polygon fill="#191970" stroke="#191970" points="150.7254,-120.0001 160.7254,-116.5 150.7254,-113.0001 150.7254,-120.0001"/>
</g>
<!-- Node937 -->
<g id="node3" class="node">
<title>Node937</title>
<g id="a_node3"><a xlink:href="../../d3/d50/classBinManager.html#a4ba7f8fa6704d39ef974f89689772b7e" target="_top" xlink:title=" ">
<polygon fill="#ffffff" stroke="#000000" points="353,-107 353,-126 560,-126 560,-107 353,-107"/>
<text text-anchor="middle" x="456.5" y="-114" font-family="Helvetica,sans-Serif" font-size="10.00" fill="#000000">BinManager::updateBinCombinedMenu</text>
</a>
</g>
</g>
<!-- Node936&#45;&gt;Node937 -->
<g id="edge2" class="edge">
<title>Node936&#45;&gt;Node937</title>
<path fill="none" stroke="#191970" d="M317.2152,-116.5C325.531,-116.5 334.106,-116.5 342.7232,-116.5"/>
<polygon fill="#191970" stroke="#191970" points="342.8454,-120.0001 352.8454,-116.5 342.8453,-113.0001 342.8454,-120.0001"/>
</g>
<!-- Node938 -->
<g id="node4" class="node">
<title>Node938</title>
<g id="a_node4"><a xlink:href="../../de/d4e/classPartsBinPaletteWidget.html#a364f715afb0f268936a6ba62689c601f" target="_top" xlink:title=" ">
<polygon fill="#ffffff" stroke="#000000" points="596,-213.5 596,-243.5 721,-243.5 721,-213.5 596,-213.5"/>
<text text-anchor="start" x="604" y="-231.5" font-family="Helvetica,sans-Serif" font-size="10.00" fill="#000000">PartsBinPaletteWidget</text>
<text text-anchor="middle" x="658.5" y="-220.5" font-family="Helvetica,sans-Serif" font-size="10.00" fill="#000000">::allowsChanges</text>
</a>
</g>
</g>
<!-- Node937&#45;&gt;Node938 -->
<g id="edge3" class="edge">
<title>Node937&#45;&gt;Node938</title>
<path fill="none" stroke="#191970" d="M469.8373,-126.1694C494.0792,-143.4535 547.3633,-180.1172 596,-204.5 599.4662,-206.2377 603.0904,-207.9301 606.7725,-209.5594"/>
<polygon fill="#191970" stroke="#191970" points="605.4147,-212.7853 615.9874,-213.4696 608.149,-206.3414 605.4147,-212.7853"/>
</g>
<!-- Node939 -->
<g id="node5" class="node">
<title>Node939</title>
<g id="a_node5"><a xlink:href="../../de/d4e/classPartsBinPaletteWidget.html#ae6e4818b35c9327748442ccbaa4df89a" target="_top" xlink:title=" ">
<polygon fill="#ffffff" stroke="#000000" points="596,-164.5 596,-194.5 721,-194.5 721,-164.5 596,-164.5"/>
<text text-anchor="start" x="604" y="-182.5" font-family="Helvetica,sans-Serif" font-size="10.00" fill="#000000">PartsBinPaletteWidget</text>
<text text-anchor="middle" x="658.5" y="-171.5" font-family="Helvetica,sans-Serif" font-size="10.00" fill="#000000">::canClose</text>
</a>
</g>
</g>
<!-- Node937&#45;&gt;Node939 -->
<g id="edge4" class="edge">
<title>Node937&#45;&gt;Node939</title>
<path fill="none" stroke="#191970" d="M487.1795,-126.0683C517.1687,-135.4214 563.5786,-149.8958 600.534,-161.4215"/>
<polygon fill="#191970" stroke="#191970" points="599.6076,-164.7988 610.1962,-164.435 601.6918,-158.1163 599.6076,-164.7988"/>
</g>
<!-- Node942 -->
<g id="node8" class="node">
<title>Node942</title>
<g id="a_node8"><a xlink:href="../../d4/d4f/classItemBase.html#a66e9c458a04c18dca99a361346c7c687" target="_top" xlink:title=" ">
<polygon fill="#ffffff" stroke="#000000" points="596.5,-126 596.5,-145 720.5,-145 720.5,-126 596.5,-126"/>
<text text-anchor="middle" x="658.5" y="-133" font-family="Helvetica,sans-Serif" font-size="10.00" fill="#000000">ItemBase::canEditPart</text>
</a>
</g>
</g>
<!-- Node937&#45;&gt;Node942 -->
<g id="edge7" class="edge">
<title>Node937&#45;&gt;Node942</title>
<path fill="none" stroke="#191970" d="M557.7959,-126.0278C567.483,-126.939 577.1665,-127.8498 586.4898,-128.7268"/>
<polygon fill="#191970" stroke="#191970" points="586.1646,-132.2115 596.4485,-129.6635 586.8202,-125.2423 586.1646,-132.2115"/>
</g>
<!-- Node943 -->
<g id="node9" class="node">
<title>Node943</title>
<g id="a_node9"><a xlink:href="../../d4/d72/classModelPart.html#ac5e790fbbf129651f0eba30abe1a4348" target="_top" xlink:title=" ">
<polygon fill="#ffffff" stroke="#000000" points="607.5,-88 607.5,-107 709.5,-107 709.5,-88 607.5,-88"/>
<text text-anchor="middle" x="658.5" y="-95" font-family="Helvetica,sans-Serif" font-size="10.00" fill="#000000">ModelPart::isCore</text>
</a>
</g>
</g>
<!-- Node937&#45;&gt;Node943 -->
<g id="edge8" class="edge">
<title>Node937&#45;&gt;Node943</title>
<path fill="none" stroke="#191970" d="M557.7959,-106.9722C571.2545,-105.7063 584.706,-104.441 597.1947,-103.2663"/>
<polygon fill="#191970" stroke="#191970" points="597.8094,-106.7241 607.4377,-102.3029 597.1538,-99.7548 597.8094,-106.7241"/>
</g>
<!-- Node944 -->
<g id="node10" class="node">
<title>Node944</title>
<g id="a_node10"><a xlink:href="../../d4/d4f/classItemBase.html#acc2f5bad42928e7178c28fa0771b1f60" target="_top" xlink:title=" ">
<polygon fill="#ffffff" stroke="#000000" points="599,-50 599,-69 718,-69 718,-50 599,-50"/>
<text text-anchor="middle" x="658.5" y="-57" font-family="Helvetica,sans-Serif" font-size="10.00" fill="#000000">ItemBase::modelPart</text>
</a>
</g>
</g>
<!-- Node937&#45;&gt;Node944 -->
<g id="edge9" class="edge">
<title>Node937&#45;&gt;Node944</title>
<path fill="none" stroke="#191970" d="M490.3103,-106.9595C524.3939,-97.3418 577.1603,-82.4523 614.4887,-71.919"/>
<polygon fill="#191970" stroke="#191970" points="615.9058,-75.1559 624.5794,-69.0716 614.0047,-68.419 615.9058,-75.1559"/>
</g>
<!-- Node945 -->
<g id="node11" class="node">
<title>Node945</title>
<g id="a_node11"><a xlink:href="../../de/d4e/classPartsBinPaletteWidget.html#a476aa53402fbf67958431af538968cc2" target="_top" xlink:title=" ">
<polygon fill="#ffffff" stroke="#000000" points="596,-.5 596,-30.5 721,-30.5 721,-.5 596,-.5"/>
<text text-anchor="start" x="604" y="-18.5" font-family="Helvetica,sans-Serif" font-size="10.00" fill="#000000">PartsBinPaletteWidget</text>
<text text-anchor="middle" x="658.5" y="-7.5" font-family="Helvetica,sans-Serif" font-size="10.00" fill="#000000">::selectedItemBase</text>
</a>
</g>
</g>
<!-- Node937&#45;&gt;Node945 -->
<g id="edge10" class="edge">
<title>Node937&#45;&gt;Node945</title>
<path fill="none" stroke="#191970" d="M472.4999,-106.9722C498.104,-91.9118 550.0798,-62.1001 596,-40.5 600.3325,-38.4621 604.8789,-36.4362 609.4599,-34.4706"/>
<polygon fill="#191970" stroke="#191970" points="610.9824,-37.6276 618.8541,-30.5363 608.2783,-31.171 610.9824,-37.6276"/>
</g>
<!-- Node940 -->
<g id="node6" class="node">
<title>Node940</title>
<g id="a_node6"><a xlink:href="../../d3/d50/classBinManager.html#a97fda7fe7dadb3e0c4643bf67dad8534" target="_top" xlink:title=" ">
<polygon fill="#ffffff" stroke="#000000" points="766,-170 766,-189 921,-189 921,-170 766,-170"/>
<text text-anchor="middle" x="843.5" y="-177" font-family="Helvetica,sans-Serif" font-size="10.00" fill="#000000">BinManager::isTempPartsBin</text>
</a>
</g>
</g>
<!-- Node939&#45;&gt;Node940 -->
<g id="edge5" class="edge">
<title>Node939&#45;&gt;Node940</title>
<path fill="none" stroke="#191970" d="M721.1326,-179.5C732.2398,-179.5 743.9907,-179.5 755.6431,-179.5"/>
<polygon fill="#191970" stroke="#191970" points="755.8391,-183.0001 765.8391,-179.5 755.839,-176.0001 755.8391,-183.0001"/>
</g>
<!-- Node941 -->
<g id="node7" class="node">
<title>Node941</title>
<g id="a_node7"><a xlink:href="../../de/d4e/classPartsBinPaletteWidget.html#a59fc3ee75b851d07c83fa1ad3f614645" target="_top" xlink:title=" ">
<polygon fill="#ffffff" stroke="#000000" points="966,-164.5 966,-194.5 1091,-194.5 1091,-164.5 966,-164.5"/>
<text text-anchor="start" x="974" y="-182.5" font-family="Helvetica,sans-Serif" font-size="10.00" fill="#000000">PartsBinPaletteWidget</text>
<text text-anchor="middle" x="1028.5" y="-171.5" font-family="Helvetica,sans-Serif" font-size="10.00" fill="#000000">::fileName</text>
</a>
</g>
</g>
<!-- Node940&#45;&gt;Node941 -->
<g id="edge6" class="edge">
<title>Node940&#45;&gt;Node941</title>
<path fill="none" stroke="#191970" d="M921.1525,-179.5C932.5842,-179.5 944.3264,-179.5 955.6562,-179.5"/>
<polygon fill="#191970" stroke="#191970" points="955.9244,-183.0001 965.9244,-179.5 955.9243,-176.0001 955.9244,-183.0001"/>
</g>
<!-- Node946 -->
<g id="node12" class="node">
<title>Node946</title>
<g id="a_node12"><a xlink:href="../../d8/da3/classPartsBinView.html#a471e093381370f96e3120c0ec7b5280b" target="_top" xlink:title=" ">
<polygon fill="#ffffff" stroke="#000000" points="757,-6 757,-25 930,-25 930,-6 757,-6"/>
<text text-anchor="middle" x="843.5" y="-13" font-family="Helvetica,sans-Serif" font-size="10.00" fill="#000000">PartsBinView::selectedItemBase</text>
</a>
</g>
</g>
<!-- Node945&#45;&gt;Node946 -->
<g id="edge11" class="edge">
<title>Node945&#45;&gt;Node946</title>
<path fill="none" stroke="#191970" d="M721.1326,-15.5C729.4202,-15.5 738.0662,-15.5 746.7622,-15.5"/>
<polygon fill="#191970" stroke="#191970" points="746.9752,-19.0001 756.9752,-15.5 746.9751,-12.0001 746.9752,-19.0001"/>
</g>
</g>
</svg>
