<?xml version="1.0" encoding="UTF-8" standalone="no"?>
<!DOCTYPE svg PUBLIC "-//W3C//DTD SVG 1.1//EN"
 "http://www.w3.org/Graphics/SVG/1.1/DTD/svg11.dtd">
<!-- Generated by graphviz version 2.40.1 (0)
 -->
<!-- Title: PartsBinPaletteWidget::undoStackCleanChanged Pages: 1 -->
<svg width="486pt" height="107pt"
 viewBox="0.00 0.00 486.00 107.00" xmlns="http://www.w3.org/2000/svg" xmlns:xlink="http://www.w3.org/1999/xlink">
<g id="graph0" class="graph" transform="scale(1 1) rotate(0) translate(4 103)">
<title>PartsBinPaletteWidget::undoStackCleanChanged</title>
<polygon fill="#ffffff" stroke="transparent" points="-4,4 -4,-103 482,-103 482,4 -4,4"/>
<!-- Node3483 -->
<g id="node1" class="node">
<title>Node3483</title>
<g id="a_node1"><a xlink:title=" ">
<polygon fill="#bfbfbf" stroke="#000000" points="0,-44.5 0,-74.5 144,-74.5 144,-44.5 0,-44.5"/>
<text text-anchor="start" x="8" y="-62.5" font-family="Helvetica,sans-Serif" font-size="10.00" fill="#000000">PartsBinPaletteWidget</text>
<text text-anchor="middle" x="72" y="-51.5" font-family="Helvetica,sans-Serif" font-size="10.00" fill="#000000">::undoStackCleanChanged</text>
</a>
</g>
</g>
<!-- Node3484 -->
<g id="node2" class="node">
<title>Node3484</title>
<g id="a_node2"><a xlink:href="../../de/d4e/classPartsBinPaletteWidget.html#a9f3ec4dd34ce797d74476d54109f6784" target="_top" xlink:title=" ">
<polygon fill="#ffffff" stroke="#000000" points="353,-68.5 353,-98.5 478,-98.5 478,-68.5 353,-68.5"/>
<text text-anchor="start" x="361" y="-86.5" font-family="Helvetica,sans-Serif" font-size="10.00" fill="#000000">PartsBinPaletteWidget</text>
<text text-anchor="middle" x="415.5" y="-75.5" font-family="Helvetica,sans-Serif" font-size="10.00" fill="#000000">::currentBinIsCore</text>
</a>
</g>
</g>
<!-- Node3483&#45;&gt;Node3484 -->
<g id="edge1" class="edge">
<title>Node3483&#45;&gt;Node3484</title>
<path fill="none" stroke="#191970" d="M125.9683,-74.5286C143.1014,-78.6139 162.2171,-82.4686 180,-84.5 234.3072,-90.7035 296.119,-90.155 342.7864,-88.2148"/>
<polygon fill="#191970" stroke="#191970" points="342.9717,-91.7102 352.8055,-87.7674 342.6593,-84.7171 342.9717,-91.7102"/>
</g>
<!-- Node3485 -->
<g id="node3" class="node">
<title>Node3485</title>
<g id="a_node3"><a xlink:href="../../d3/d50/classBinManager.html#a7767b67cc2e7ca7cf28963885606198a" target="_top" xlink:title=" ">
<polygon fill="#ffffff" stroke="#000000" points="180,-6 180,-25 317,-25 317,-6 180,-6"/>
<text text-anchor="middle" x="248.5" y="-13" font-family="Helvetica,sans-Serif" font-size="10.00" fill="#000000">BinManager::setDirtyTab</text>
</a>
</g>
</g>
<!-- Node3483&#45;&gt;Node3485 -->
<g id="edge2" class="edge">
<title>Node3483&#45;&gt;Node3485</title>
<path fill="none" stroke="#191970" d="M132.2476,-44.4808C154.4753,-38.9396 179.3471,-32.7393 200.3633,-27.5001"/>
<polygon fill="#191970" stroke="#191970" points="201.4858,-30.8274 210.3422,-25.0124 199.7926,-24.0353 201.4858,-30.8274"/>
</g>
<!-- Node3487 -->
<g id="node5" class="node">
<title>Node3487</title>
<g id="a_node5"><a xlink:href="../../de/d4e/classPartsBinPaletteWidget.html#a945b501cc950aa81922645d7d62b7b45" target="_top" xlink:title=" ">
<polygon fill="#ffffff" stroke="#000000" points="186,-44.5 186,-74.5 311,-74.5 311,-44.5 186,-44.5"/>
<text text-anchor="start" x="194" y="-62.5" font-family="Helvetica,sans-Serif" font-size="10.00" fill="#000000">PartsBinPaletteWidget</text>
<text text-anchor="middle" x="248.5" y="-51.5" font-family="Helvetica,sans-Serif" font-size="10.00" fill="#000000">::setFilename</text>
</a>
</g>
</g>
<!-- Node3483&#45;&gt;Node3487 -->
<g id="edge4" class="edge">
<title>Node3483&#45;&gt;Node3487</title>
<path fill="none" stroke="#191970" d="M144.0439,-59.5C154.41,-59.5 165.085,-59.5 175.4701,-59.5"/>
<polygon fill="#191970" stroke="#191970" points="175.7364,-63.0001 185.7364,-59.5 175.7364,-56.0001 175.7364,-63.0001"/>
</g>
<!-- Node3486 -->
<g id="node4" class="node">
<title>Node3486</title>
<g id="a_node4"><a xlink:href="../../de/d4e/classPartsBinPaletteWidget.html#a9b5aed3fb875f315430d294509e4aea4" target="_top" xlink:title=" ">
<polygon fill="#ffffff" stroke="#000000" points="353,-.5 353,-30.5 478,-30.5 478,-.5 353,-.5"/>
<text text-anchor="start" x="361" y="-18.5" font-family="Helvetica,sans-Serif" font-size="10.00" fill="#000000">PartsBinPaletteWidget</text>
<text text-anchor="middle" x="415.5" y="-7.5" font-family="Helvetica,sans-Serif" font-size="10.00" fill="#000000">::title</text>
</a>
</g>
</g>
<!-- Node3485&#45;&gt;Node3486 -->
<g id="edge3" class="edge">
<title>Node3485&#45;&gt;Node3486</title>
<path fill="none" stroke="#191970" d="M317.3895,-15.5C325.7572,-15.5 334.327,-15.5 342.7485,-15.5"/>
<polygon fill="#191970" stroke="#191970" points="342.9238,-19.0001 352.9238,-15.5 342.9238,-12.0001 342.9238,-19.0001"/>
</g>
<!-- Node3487&#45;&gt;Node3484 -->
<g id="edge5" class="edge">
<title>Node3487&#45;&gt;Node3484</title>
<path fill="none" stroke="#191970" d="M311.1598,-68.505C321.47,-69.9867 332.2331,-71.5335 342.7639,-73.0469"/>
<polygon fill="#191970" stroke="#191970" points="342.3706,-76.5263 352.7669,-74.4845 343.3665,-69.5975 342.3706,-76.5263"/>
</g>
</g>
</svg>
