<?xml version="1.0" encoding="UTF-8" standalone="no"?>
<!DOCTYPE svg PUBLIC "-//W3C//DTD SVG 1.1//EN"
 "http://www.w3.org/Graphics/SVG/1.1/DTD/svg11.dtd">
<!-- Generated by graphviz version 2.40.1 (0)
 -->
<!-- Title: Stripboard::collectConnected Pages: 1 -->
<svg width="654pt" height="47pt"
 viewBox="0.00 0.00 654.00 47.00" xmlns="http://www.w3.org/2000/svg" xmlns:xlink="http://www.w3.org/1999/xlink">
<g id="graph0" class="graph" transform="scale(1 1) rotate(0) translate(4 43)">
<title>Stripboard::collectConnected</title>
<polygon fill="#ffffff" stroke="transparent" points="-4,4 -4,-43 650,-43 650,4 -4,4"/>
<!-- Node185 -->
<g id="node1" class="node">
<title>Node185</title>
<g id="a_node1"><a xlink:title=" ">
<polygon fill="#bfbfbf" stroke="#000000" points="489,-19.5 489,-38.5 646,-38.5 646,-19.5 489,-19.5"/>
<text text-anchor="middle" x="567.5" y="-26.5" font-family="Helvetica,sans-Serif" font-size="10.00" fill="#000000">Stripboard::collectConnected</text>
</a>
</g>
</g>
<!-- Node186 -->
<g id="node2" class="node">
<title>Node186</title>
<g id="a_node2"><a xlink:href="../../d3/dee/classStripboard.html#a6e841512cf089ec1d97c192a3189047d" target="_top" xlink:title=" ">
<polygon fill="#ffffff" stroke="#000000" points="325,-19.5 325,-38.5 453,-38.5 453,-19.5 325,-19.5"/>
<text text-anchor="middle" x="389" y="-26.5" font-family="Helvetica,sans-Serif" font-size="10.00" fill="#000000">Stripboard::reinitBuses</text>
</a>
</g>
</g>
<!-- Node185&#45;&gt;Node186 -->
<g id="edge1" class="edge">
<title>Node185&#45;&gt;Node186</title>
<path fill="none" stroke="#191970" d="M478.8036,-29C470.1431,-29 461.4756,-29 453.1274,-29"/>
<polygon fill="#191970" stroke="#191970" points="478.9476,-32.5001 488.9475,-29 478.9475,-25.5001 478.9476,-32.5001"/>
</g>
<!-- Node187 -->
<g id="node3" class="node">
<title>Node187</title>
<g id="a_node3"><a xlink:href="../../d3/dee/classStripboard.html#ace87aeb220141dac7a286592aaf0dd74" target="_top" xlink:title=" ">
<polygon fill="#ffffff" stroke="#000000" points="0,-19.5 0,-38.5 143,-38.5 143,-19.5 0,-19.5"/>
<text text-anchor="middle" x="71.5" y="-26.5" font-family="Helvetica,sans-Serif" font-size="10.00" fill="#000000">Stripboard::addedToScene</text>
</a>
</g>
</g>
<!-- Node186&#45;&gt;Node187 -->
<g id="edge2" class="edge">
<title>Node186&#45;&gt;Node187</title>
<path fill="none" stroke="#191970" d="M314.6342,-29C262.8841,-29 194.2682,-29 143.1274,-29"/>
<polygon fill="#191970" stroke="#191970" points="314.7492,-32.5001 324.7491,-29 314.7491,-25.5001 314.7492,-32.5001"/>
</g>
<!-- Node188 -->
<g id="node4" class="node">
<title>Node188</title>
<g id="a_node4"><a xlink:href="../../d3/dee/classStripboard.html#a4e4311bc141e9ad6a14cd10c42093095" target="_top" xlink:title=" ">
<polygon fill="#ffffff" stroke="#000000" points="179,-.5 179,-19.5 289,-19.5 289,-.5 179,-.5"/>
<text text-anchor="middle" x="234" y="-7.5" font-family="Helvetica,sans-Serif" font-size="10.00" fill="#000000">Stripboard::setProp</text>
</a>
</g>
</g>
<!-- Node186&#45;&gt;Node188 -->
<g id="edge3" class="edge">
<title>Node186&#45;&gt;Node188</title>
<path fill="none" stroke="#191970" d="M314.5732,-19.8767C305.9797,-18.8233 297.3357,-17.7637 289.0649,-16.7499"/>
<polygon fill="#191970" stroke="#191970" points="314.261,-23.3646 324.6126,-21.1074 315.1128,-16.4166 314.261,-23.3646"/>
</g>
<!-- Node188&#45;&gt;Node187 -->
<g id="edge4" class="edge">
<title>Node188&#45;&gt;Node187</title>
<path fill="none" stroke="#191970" d="M168.8327,-17.6196C160.3905,-18.6067 151.7069,-19.622 143.1666,-20.6205"/>
<polygon fill="#191970" stroke="#191970" points="169.4591,-21.0703 178.9849,-16.4325 168.6461,-14.1176 169.4591,-21.0703"/>
</g>
</g>
</svg>
