<?xml version="1.0" encoding="UTF-8" standalone="no"?>
<!DOCTYPE svg PUBLIC "-//W3C//DTD SVG 1.1//EN"
 "http://www.w3.org/Graphics/SVG/1.1/DTD/svg11.dtd">
<!-- Generated by graphviz version 2.40.1 (0)
 -->
<!-- Title: Wire::isGrounded Pages: 1 -->
<svg width="474pt" height="110pt"
 viewBox="0.00 0.00 474.00 109.50" xmlns="http://www.w3.org/2000/svg" xmlns:xlink="http://www.w3.org/1999/xlink">
<g id="graph0" class="graph" transform="scale(1 1) rotate(0) translate(4 105.5)">
<title>Wire::isGrounded</title>
<polygon fill="#ffffff" stroke="transparent" points="-4,4 -4,-105.5 470,-105.5 470,4 -4,4"/>
<!-- Node2376 -->
<g id="node1" class="node">
<title>Node2376</title>
<g id="a_node1"><a xlink:title=" ">
<polygon fill="#bfbfbf" stroke="#000000" points="0,-44 0,-63 101,-63 101,-44 0,-44"/>
<text text-anchor="middle" x="50.5" y="-51" font-family="Helvetica,sans-Serif" font-size="10.00" fill="#000000">Wire::isGrounded</text>
</a>
</g>
</g>
<!-- Node2377 -->
<g id="node2" class="node">
<title>Node2377</title>
<g id="a_node2"><a xlink:href="../../d7/d64/classWire.html#a45f4d43eb8d9c12df32f8431b22ae04a" target="_top" xlink:title=" ">
<polygon fill="#ffffff" stroke="#000000" points="162.5,-82 162.5,-101 261.5,-101 261.5,-82 162.5,-82"/>
<text text-anchor="middle" x="212" y="-89" font-family="Helvetica,sans-Serif" font-size="10.00" fill="#000000">Wire::connector0</text>
</a>
</g>
</g>
<!-- Node2376&#45;&gt;Node2377 -->
<g id="edge1" class="edge">
<title>Node2376&#45;&gt;Node2377</title>
<path fill="none" stroke="#191970" d="M91.2533,-63.089C112.6609,-68.1261 139.0862,-74.3438 161.7525,-79.6771"/>
<polygon fill="#191970" stroke="#191970" points="161.0039,-83.0964 171.5398,-81.9799 162.6073,-76.2825 161.0039,-83.0964"/>
</g>
<!-- Node2378 -->
<g id="node3" class="node">
<title>Node2378</title>
<g id="a_node3"><a xlink:href="../../d7/d64/classWire.html#a866a8602d73cc8004d133cb8780048f3" target="_top" xlink:title=" ">
<polygon fill="#ffffff" stroke="#000000" points="162.5,-44 162.5,-63 261.5,-63 261.5,-44 162.5,-44"/>
<text text-anchor="middle" x="212" y="-51" font-family="Helvetica,sans-Serif" font-size="10.00" fill="#000000">Wire::connector1</text>
</a>
</g>
</g>
<!-- Node2376&#45;&gt;Node2378 -->
<g id="edge2" class="edge">
<title>Node2376&#45;&gt;Node2378</title>
<path fill="none" stroke="#191970" d="M101.1565,-53.5C117.3203,-53.5 135.3615,-53.5 152.1159,-53.5"/>
<polygon fill="#191970" stroke="#191970" points="152.3534,-57.0001 162.3534,-53.5 152.3534,-50.0001 152.3534,-57.0001"/>
</g>
<!-- Node2379 -->
<g id="node4" class="node">
<title>Node2379</title>
<g id="a_node4"><a xlink:href="../../dc/d3a/classConnectorItem.html#ab50c6e5f10f1e529470fb52984e4e4c8" target="_top" xlink:title=" ">
<polygon fill="#ffffff" stroke="#000000" points="137,-6 137,-25 287,-25 287,-6 137,-6"/>
<text text-anchor="middle" x="212" y="-13" font-family="Helvetica,sans-Serif" font-size="10.00" fill="#000000">ConnectorItem::isGrounded</text>
</a>
</g>
</g>
<!-- Node2376&#45;&gt;Node2379 -->
<g id="edge3" class="edge">
<title>Node2376&#45;&gt;Node2379</title>
<path fill="none" stroke="#191970" d="M91.2533,-43.911C112.6609,-38.8739 139.0862,-32.6562 161.7525,-27.3229"/>
<polygon fill="#191970" stroke="#191970" points="162.6073,-30.7175 171.5398,-25.0201 161.0039,-23.9036 162.6073,-30.7175"/>
</g>
<!-- Node2380 -->
<g id="node5" class="node">
<title>Node2380</title>
<g id="a_node5"><a xlink:href="../../dc/d3a/classConnectorItem.html#aca52a788abdcadfbe5d61e3c15e9d369" target="_top" xlink:title=" ">
<polygon fill="#ffffff" stroke="#000000" points="323,-.5 323,-30.5 466,-30.5 466,-.5 323,-.5"/>
<text text-anchor="start" x="331" y="-18.5" font-family="Helvetica,sans-Serif" font-size="10.00" fill="#000000">ConnectorItem::connector</text>
<text text-anchor="middle" x="394.5" y="-7.5" font-family="Helvetica,sans-Serif" font-size="10.00" fill="#000000">SharedName</text>
</a>
</g>
</g>
<!-- Node2379&#45;&gt;Node2380 -->
<g id="edge4" class="edge">
<title>Node2379&#45;&gt;Node2380</title>
<path fill="none" stroke="#191970" d="M287.0198,-15.5C295.4071,-15.5 303.9834,-15.5 312.4529,-15.5"/>
<polygon fill="#191970" stroke="#191970" points="312.7109,-19.0001 322.7109,-15.5 312.7109,-12.0001 312.7109,-19.0001"/>
</g>
</g>
</svg>
