<?xml version="1.0" encoding="UTF-8" standalone="no"?>
<!DOCTYPE svg PUBLIC "-//W3C//DTD SVG 1.1//EN"
 "http://www.w3.org/Graphics/SVG/1.1/DTD/svg11.dtd">
<!-- Generated by graphviz version 2.40.1 (0)
 -->
<!-- Title: Wire::setLineAnd Pages: 1 -->
<svg width="835pt" height="154pt"
 viewBox="0.00 0.00 835.00 153.50" xmlns="http://www.w3.org/2000/svg" xmlns:xlink="http://www.w3.org/1999/xlink">
<g id="graph0" class="graph" transform="scale(1 1) rotate(0) translate(4 149.5)">
<title>Wire::setLineAnd</title>
<polygon fill="#ffffff" stroke="transparent" points="-4,4 -4,-149.5 831,-149.5 831,4 -4,4"/>
<!-- Node4805 -->
<g id="node1" class="node">
<title>Node4805</title>
<g id="a_node1"><a xlink:title=" ">
<polygon fill="#bfbfbf" stroke="#000000" points="728,-69 728,-88 827,-88 827,-69 728,-69"/>
<text text-anchor="middle" x="777.5" y="-76" font-family="Helvetica,sans-Serif" font-size="10.00" fill="#000000">Wire::setLineAnd</text>
</a>
</g>
</g>
<!-- Node4806 -->
<g id="node2" class="node">
<title>Node4806</title>
<g id="a_node2"><a xlink:href="../../d1/d67/classMazeRouter.html#afe437e192363d4a4e22f713af6d18797" target="_top" xlink:title=" ">
<polygon fill="#ffffff" stroke="#000000" points="529.5,-126 529.5,-145 673.5,-145 673.5,-126 529.5,-126"/>
<text text-anchor="middle" x="601.5" y="-133" font-family="Helvetica,sans-Serif" font-size="10.00" fill="#000000">MazeRouter::reducePoints</text>
</a>
</g>
</g>
<!-- Node4805&#45;&gt;Node4806 -->
<g id="edge1" class="edge">
<title>Node4805&#45;&gt;Node4806</title>
<path fill="none" stroke="#191970" d="M749.8707,-92.5687C733.4048,-100.497 711.898,-110.0694 692,-116.5 680.5427,-120.2027 668.031,-123.3667 656.0661,-125.9897"/>
<polygon fill="#191970" stroke="#191970" points="751.4939,-95.671 758.9327,-88.1269 748.4129,-89.3855 751.4939,-95.671"/>
</g>
<!-- Node4810 -->
<g id="node6" class="node">
<title>Node4810</title>
<g id="a_node6"><a xlink:href="../../d8/d37/classSketchWidget.html#a3f8ccdf067680681d91ade864496bb77" target="_top" xlink:title=" ">
<polygon fill="#ffffff" stroke="#000000" points="528,-88 528,-107 675,-107 675,-88 528,-88"/>
<text text-anchor="middle" x="601.5" y="-95" font-family="Helvetica,sans-Serif" font-size="10.00" fill="#000000">SketchWidget::changeWire</text>
</a>
</g>
</g>
<!-- Node4805&#45;&gt;Node4810 -->
<g id="edge5" class="edge">
<title>Node4805&#45;&gt;Node4810</title>
<path fill="none" stroke="#191970" d="M717.3865,-84.9895C703.8308,-86.4529 689.2904,-88.0226 675.2474,-89.5386"/>
<polygon fill="#191970" stroke="#191970" points="717.9697,-88.447 727.5362,-83.8938 717.2183,-81.4874 717.9697,-88.447"/>
</g>
<!-- Node4813 -->
<g id="node9" class="node">
<title>Node4813</title>
<g id="a_node9"><a xlink:href="../../d8/d37/classSketchWidget.html#a8d8402ac51dfdac65ffec41a153a2c30" target="_top" xlink:title=" ">
<polygon fill="#ffffff" stroke="#000000" points="511,-50 511,-69 692,-69 692,-50 511,-50"/>
<text text-anchor="middle" x="601.5" y="-57" font-family="Helvetica,sans-Serif" font-size="10.00" fill="#000000">SketchWidget::wireConnectedSlot</text>
</a>
</g>
</g>
<!-- Node4805&#45;&gt;Node4813 -->
<g id="edge8" class="edge">
<title>Node4805&#45;&gt;Node4813</title>
<path fill="none" stroke="#191970" d="M717.5485,-72.028C708.5157,-71.0528 699.0426,-70.0302 689.5685,-69.0074"/>
<polygon fill="#191970" stroke="#191970" points="717.2183,-75.5126 727.5362,-73.1062 717.9697,-68.553 717.2183,-75.5126"/>
</g>
<!-- Node4814 -->
<g id="node10" class="node">
<title>Node4814</title>
<g id="a_node10"><a xlink:href="../../d8/d37/classSketchWidget.html#ac63c2d0455720f90fed24f44a7df9255" target="_top" xlink:title=" ">
<polygon fill="#ffffff" stroke="#000000" points="512,-.5 512,-30.5 691,-30.5 691,-.5 512,-.5"/>
<text text-anchor="start" x="520" y="-18.5" font-family="Helvetica,sans-Serif" font-size="10.00" fill="#000000">SketchWidget::checkForReversed</text>
<text text-anchor="middle" x="601.5" y="-7.5" font-family="Helvetica,sans-Serif" font-size="10.00" fill="#000000">Wires</text>
</a>
</g>
</g>
<!-- Node4805&#45;&gt;Node4814 -->
<g id="edge9" class="edge">
<title>Node4805&#45;&gt;Node4814</title>
<path fill="none" stroke="#191970" d="M749.0682,-64.5868C732.6368,-56.8707 711.4314,-47.4584 692,-40.5 682.0251,-36.928 671.2812,-33.5582 660.8019,-30.5182"/>
<polygon fill="#191970" stroke="#191970" points="747.6077,-67.7678 758.1416,-68.9025 750.6144,-61.4464 747.6077,-67.7678"/>
</g>
<!-- Node4807 -->
<g id="node3" class="node">
<title>Node4807</title>
<g id="a_node3"><a xlink:href="../../d1/d67/classMazeRouter.html#a8a3528662be91963efa08d15497a548b" target="_top" xlink:title=" ">
<polygon fill="#ffffff" stroke="#000000" points="319.5,-126 319.5,-145 474.5,-145 474.5,-126 319.5,-126"/>
<text text-anchor="middle" x="397" y="-133" font-family="Helvetica,sans-Serif" font-size="10.00" fill="#000000">MazeRouter::optimizeTraces</text>
</a>
</g>
</g>
<!-- Node4806&#45;&gt;Node4807 -->
<g id="edge2" class="edge">
<title>Node4806&#45;&gt;Node4807</title>
<path fill="none" stroke="#191970" d="M519.3157,-135.5C504.5919,-135.5 489.2902,-135.5 474.6977,-135.5"/>
<polygon fill="#191970" stroke="#191970" points="519.401,-139.0001 529.401,-135.5 519.4009,-132.0001 519.401,-139.0001"/>
</g>
<!-- Node4808 -->
<g id="node4" class="node">
<title>Node4808</title>
<g id="a_node4"><a xlink:href="../../d1/d67/classMazeRouter.html#ad3096b9a4a1a5d2f7ffd05578924d4db" target="_top" xlink:title=" ">
<polygon fill="#ffffff" stroke="#000000" points="140,-126 140,-145 283,-145 283,-126 140,-126"/>
<text text-anchor="middle" x="211.5" y="-133" font-family="Helvetica,sans-Serif" font-size="10.00" fill="#000000">MazeRouter::createTraces</text>
</a>
</g>
</g>
<!-- Node4807&#45;&gt;Node4808 -->
<g id="edge3" class="edge">
<title>Node4807&#45;&gt;Node4808</title>
<path fill="none" stroke="#191970" d="M309.206,-135.5C300.4782,-135.5 291.6918,-135.5 283.1569,-135.5"/>
<polygon fill="#191970" stroke="#191970" points="309.4062,-139.0001 319.4061,-135.5 309.4061,-132.0001 309.4062,-139.0001"/>
</g>
<!-- Node4809 -->
<g id="node5" class="node">
<title>Node4809</title>
<g id="a_node5"><a xlink:href="../../d1/d67/classMazeRouter.html#a0e1c56746b837fa3e83bd6b9e9fcd309" target="_top" xlink:title=" ">
<polygon fill="#ffffff" stroke="#000000" points="0,-126 0,-145 104,-145 104,-126 0,-126"/>
<text text-anchor="middle" x="52" y="-133" font-family="Helvetica,sans-Serif" font-size="10.00" fill="#000000">MazeRouter::start</text>
</a>
</g>
</g>
<!-- Node4808&#45;&gt;Node4809 -->
<g id="edge4" class="edge">
<title>Node4808&#45;&gt;Node4809</title>
<path fill="none" stroke="#191970" d="M129.6032,-135.5C121.01,-135.5 112.4501,-135.5 104.3229,-135.5"/>
<polygon fill="#191970" stroke="#191970" points="129.6822,-139.0001 139.6822,-135.5 129.6821,-132.0001 129.6822,-139.0001"/>
</g>
<!-- Node4811 -->
<g id="node7" class="node">
<title>Node4811</title>
<g id="a_node7"><a xlink:href="../../d9/df1/classChangeWireCommand.html#a78855f624273c66427ac434a32f61662" target="_top" xlink:title=" ">
<polygon fill="#ffffff" stroke="#000000" points="319,-88 319,-107 475,-107 475,-88 319,-88"/>
<text text-anchor="middle" x="397" y="-95" font-family="Helvetica,sans-Serif" font-size="10.00" fill="#000000">ChangeWireCommand::undo</text>
</a>
</g>
</g>
<!-- Node4810&#45;&gt;Node4811 -->
<g id="edge6" class="edge">
<title>Node4810&#45;&gt;Node4811</title>
<path fill="none" stroke="#191970" d="M517.7771,-97.5C503.6523,-97.5 489.0395,-97.5 475.066,-97.5"/>
<polygon fill="#191970" stroke="#191970" points="517.9598,-101.0001 527.9597,-97.5 517.9597,-94.0001 517.9598,-101.0001"/>
</g>
<!-- Node4812 -->
<g id="node8" class="node">
<title>Node4812</title>
<g id="a_node8"><a xlink:href="../../d9/df1/classChangeWireCommand.html#a655542f51bd844934e05653ac4eb5d43" target="_top" xlink:title=" ">
<polygon fill="#ffffff" stroke="#000000" points="320,-50 320,-69 474,-69 474,-50 320,-50"/>
<text text-anchor="middle" x="397" y="-57" font-family="Helvetica,sans-Serif" font-size="10.00" fill="#000000">ChangeWireCommand::redo</text>
</a>
</g>
</g>
<!-- Node4810&#45;&gt;Node4812 -->
<g id="edge7" class="edge">
<title>Node4810&#45;&gt;Node4812</title>
<path fill="none" stroke="#191970" d="M540.0525,-86.0819C510.7922,-80.6448 476.1994,-74.2168 448.3611,-69.0439"/>
<polygon fill="#191970" stroke="#191970" points="539.6888,-89.5741 550.16,-87.96 540.9677,-82.692 539.6888,-89.5741"/>
</g>
</g>
</svg>
