<?xml version="1.0" encoding="UTF-8" standalone="no"?>
<!DOCTYPE svg PUBLIC "-//W3C//DTD SVG 1.1//EN"
 "http://www.w3.org/Graphics/SVG/1.1/DTD/svg11.dtd">
<!-- Generated by graphviz version 2.40.1 (0)
 -->
<!-- Title: Wire::setConnectorDimensionsAux Pages: 1 -->
<svg width="1274pt" height="78pt"
 viewBox="0.00 0.00 1274.00 77.50" xmlns="http://www.w3.org/2000/svg" xmlns:xlink="http://www.w3.org/1999/xlink">
<g id="graph0" class="graph" transform="scale(1 1) rotate(0) translate(4 73.5)">
<title>Wire::setConnectorDimensionsAux</title>
<polygon fill="#ffffff" stroke="transparent" points="-4,4 -4,-73.5 1270,-73.5 1270,4 -4,4"/>
<!-- Node4529 -->
<g id="node1" class="node">
<title>Node4529</title>
<g id="a_node1"><a xlink:title=" ">
<polygon fill="#bfbfbf" stroke="#000000" points="1080,-28 1080,-47 1266,-47 1266,-28 1080,-28"/>
<text text-anchor="middle" x="1173" y="-35" font-family="Helvetica,sans-Serif" font-size="10.00" fill="#000000">Wire::setConnectorDimensionsAux</text>
</a>
</g>
</g>
<!-- Node4530 -->
<g id="node2" class="node">
<title>Node4530</title>
<g id="a_node2"><a xlink:href="../../d7/d64/classWire.html#a7c19faa418df669a5761e9b1caafb7da" target="_top" xlink:title=" ">
<polygon fill="#ffffff" stroke="#000000" points="877,-28 877,-47 1044,-47 1044,-28 877,-28"/>
<text text-anchor="middle" x="960.5" y="-35" font-family="Helvetica,sans-Serif" font-size="10.00" fill="#000000">Wire::setConnectorDimensions</text>
</a>
</g>
</g>
<!-- Node4529&#45;&gt;Node4530 -->
<g id="edge1" class="edge">
<title>Node4529&#45;&gt;Node4530</title>
<path fill="none" stroke="#191970" d="M1069.7821,-37.5C1061.2315,-37.5 1052.6547,-37.5 1044.2735,-37.5"/>
<polygon fill="#191970" stroke="#191970" points="1069.7944,-41.0001 1079.7944,-37.5 1069.7944,-34.0001 1069.7944,-41.0001"/>
</g>
<!-- Node4531 -->
<g id="node3" class="node">
<title>Node4531</title>
<g id="a_node3"><a xlink:href="../../df/dbf/classPCBSketchWidget.html#ac02539aa859dbd23ec7a17b75012cb9f" target="_top" xlink:title=" ">
<polygon fill="#ffffff" stroke="#000000" points="694,-22.5 694,-52.5 841,-52.5 841,-22.5 694,-22.5"/>
<text text-anchor="start" x="702" y="-40.5" font-family="Helvetica,sans-Serif" font-size="10.00" fill="#000000">PCBSketchWidget::getWire</text>
<text text-anchor="middle" x="767.5" y="-29.5" font-family="Helvetica,sans-Serif" font-size="10.00" fill="#000000">StrokeWidth</text>
</a>
</g>
</g>
<!-- Node4530&#45;&gt;Node4531 -->
<g id="edge2" class="edge">
<title>Node4530&#45;&gt;Node4531</title>
<path fill="none" stroke="#191970" d="M866.8656,-37.5C858.2321,-37.5 849.5681,-37.5 841.1501,-37.5"/>
<polygon fill="#191970" stroke="#191970" points="866.9699,-41.0001 876.9699,-37.5 866.9699,-34.0001 866.9699,-41.0001"/>
</g>
<!-- Node4532 -->
<g id="node4" class="node">
<title>Node4532</title>
<g id="a_node4"><a xlink:href="../../dc/d90/classAutorouter.html#a5467c1e491b4864cbf6febb89b921544" target="_top" xlink:title=" ">
<polygon fill="#ffffff" stroke="#000000" points="503.5,-50 503.5,-69 646.5,-69 646.5,-50 503.5,-50"/>
<text text-anchor="middle" x="575" y="-57" font-family="Helvetica,sans-Serif" font-size="10.00" fill="#000000">Autorouter::drawOneTrace</text>
</a>
</g>
</g>
<!-- Node4531&#45;&gt;Node4532 -->
<g id="edge3" class="edge">
<title>Node4531&#45;&gt;Node4532</title>
<path fill="none" stroke="#191970" d="M683.6295,-47.0852C671.3039,-48.4938 658.7029,-49.934 646.6532,-51.3111"/>
<polygon fill="#191970" stroke="#191970" points="684.3621,-50.5243 693.9,-45.9114 683.5673,-43.5696 684.3621,-50.5243"/>
</g>
<!-- Node4536 -->
<g id="node8" class="node">
<title>Node4536</title>
<g id="a_node8"><a xlink:href="../../df/dbf/classPCBSketchWidget.html#a7d28d2d73fbb1789d08d30d86f5f489e" target="_top" xlink:title=" ">
<polygon fill="#ffffff" stroke="#000000" points="492,-.5 492,-30.5 658,-30.5 658,-.5 492,-.5"/>
<text text-anchor="start" x="500" y="-18.5" font-family="Helvetica,sans-Serif" font-size="10.00" fill="#000000">PCBSketchWidget::createTemp</text>
<text text-anchor="middle" x="575" y="-7.5" font-family="Helvetica,sans-Serif" font-size="10.00" fill="#000000">WireForDragging</text>
</a>
</g>
</g>
<!-- Node4531&#45;&gt;Node4536 -->
<g id="edge7" class="edge">
<title>Node4531&#45;&gt;Node4536</title>
<path fill="none" stroke="#191970" d="M683.9536,-27.9518C675.4135,-26.9758 666.7376,-25.9843 658.2012,-25.0087"/>
<polygon fill="#191970" stroke="#191970" points="683.5673,-31.4304 693.9,-29.0886 684.3621,-24.4757 683.5673,-31.4304"/>
</g>
<!-- Node4533 -->
<g id="node5" class="node">
<title>Node4533</title>
<g id="a_node5"><a xlink:href="../../d1/d67/classMazeRouter.html#a1129f02e393730b42d04cdf7f9161006" target="_top" xlink:title=" ">
<polygon fill="#ffffff" stroke="#000000" points="319,-50 319,-69 456,-69 456,-50 319,-50"/>
<text text-anchor="middle" x="387.5" y="-57" font-family="Helvetica,sans-Serif" font-size="10.00" fill="#000000">MazeRouter::createTrace</text>
</a>
</g>
</g>
<!-- Node4532&#45;&gt;Node4533 -->
<g id="edge4" class="edge">
<title>Node4532&#45;&gt;Node4533</title>
<path fill="none" stroke="#191970" d="M493.0316,-59.5C480.693,-59.5 468.0779,-59.5 456.0593,-59.5"/>
<polygon fill="#191970" stroke="#191970" points="493.3117,-63.0001 503.3117,-59.5 493.3117,-56.0001 493.3117,-63.0001"/>
</g>
<!-- Node4534 -->
<g id="node6" class="node">
<title>Node4534</title>
<g id="a_node6"><a xlink:href="../../d1/d67/classMazeRouter.html#ad3096b9a4a1a5d2f7ffd05578924d4db" target="_top" xlink:title=" ">
<polygon fill="#ffffff" stroke="#000000" points="140,-50 140,-69 283,-69 283,-50 140,-50"/>
<text text-anchor="middle" x="211.5" y="-57" font-family="Helvetica,sans-Serif" font-size="10.00" fill="#000000">MazeRouter::createTraces</text>
</a>
</g>
</g>
<!-- Node4533&#45;&gt;Node4534 -->
<g id="edge5" class="edge">
<title>Node4533&#45;&gt;Node4534</title>
<path fill="none" stroke="#191970" d="M308.9184,-59.5C300.3084,-59.5 291.5767,-59.5 283.0582,-59.5"/>
<polygon fill="#191970" stroke="#191970" points="308.9499,-63.0001 318.9498,-59.5 308.9498,-56.0001 308.9499,-63.0001"/>
</g>
<!-- Node4535 -->
<g id="node7" class="node">
<title>Node4535</title>
<g id="a_node7"><a xlink:href="../../d1/d67/classMazeRouter.html#a0e1c56746b837fa3e83bd6b9e9fcd309" target="_top" xlink:title=" ">
<polygon fill="#ffffff" stroke="#000000" points="0,-50 0,-69 104,-69 104,-50 0,-50"/>
<text text-anchor="middle" x="52" y="-57" font-family="Helvetica,sans-Serif" font-size="10.00" fill="#000000">MazeRouter::start</text>
</a>
</g>
</g>
<!-- Node4534&#45;&gt;Node4535 -->
<g id="edge6" class="edge">
<title>Node4534&#45;&gt;Node4535</title>
<path fill="none" stroke="#191970" d="M129.6032,-59.5C121.01,-59.5 112.4501,-59.5 104.3229,-59.5"/>
<polygon fill="#191970" stroke="#191970" points="129.6822,-63.0001 139.6822,-59.5 129.6821,-56.0001 129.6822,-63.0001"/>
</g>
</g>
</svg>
