<?xml version="1.0" encoding="UTF-8" standalone="no"?>
<!DOCTYPE svg PUBLIC "-//W3C//DTD SVG 1.1//EN"
 "http://www.w3.org/Graphics/SVG/1.1/DTD/svg11.dtd">
<!-- Generated by graphviz version 2.40.1 (0)
 -->
<!-- Title: Wire::setPen Pages: 1 -->
<svg width="277pt" height="78pt"
 viewBox="0.00 0.00 277.00 77.50" xmlns="http://www.w3.org/2000/svg" xmlns:xlink="http://www.w3.org/1999/xlink">
<g id="graph0" class="graph" transform="scale(1 1) rotate(0) translate(4 73.5)">
<title>Wire::setPen</title>
<polygon fill="#ffffff" stroke="transparent" points="-4,4 -4,-73.5 273,-73.5 273,4 -4,4"/>
<!-- Node4949 -->
<g id="node1" class="node">
<title>Node4949</title>
<g id="a_node1"><a xlink:title=" ">
<polygon fill="#bfbfbf" stroke="#000000" points="0,-28 0,-47 78,-47 78,-28 0,-28"/>
<text text-anchor="middle" x="39" y="-35" font-family="Helvetica,sans-Serif" font-size="10.00" fill="#000000">Wire::setPen</text>
</a>
</g>
</g>
<!-- Node4950 -->
<g id="node2" class="node">
<title>Node4950</title>
<g id="a_node2"><a xlink:href="../../d7/d64/classWire.html#a7c94896def2db4e512c7635592f4044e" target="_top" xlink:title=" ">
<polygon fill="#ffffff" stroke="#000000" points="160,-50 160,-69 223,-69 223,-50 160,-50"/>
<text text-anchor="middle" x="191.5" y="-57" font-family="Helvetica,sans-Serif" font-size="10.00" fill="#000000">Wire::pen</text>
</a>
</g>
</g>
<!-- Node4949&#45;&gt;Node4950 -->
<g id="edge1" class="edge">
<title>Node4949&#45;&gt;Node4950</title>
<path fill="none" stroke="#191970" d="M78.2725,-43.1655C100.0616,-46.3089 127.1662,-50.2191 149.3929,-53.4255"/>
<polygon fill="#191970" stroke="#191970" points="149.1482,-56.9264 159.5455,-54.8902 150.1478,-49.9981 149.1482,-56.9264"/>
</g>
<!-- Node4951 -->
<g id="node3" class="node">
<title>Node4951</title>
<g id="a_node3"><a xlink:href="../../d4/d4f/classItemBase.html#ab1484692ebea9a39e103002ea06421ab" target="_top" xlink:title=" ">
<polygon fill="#ffffff" stroke="#000000" points="114,-.5 114,-30.5 269,-30.5 269,-.5 114,-.5"/>
<text text-anchor="start" x="122" y="-18.5" font-family="Helvetica,sans-Serif" font-size="10.00" fill="#000000">ItemBase::prepareGeometry</text>
<text text-anchor="middle" x="191.5" y="-7.5" font-family="Helvetica,sans-Serif" font-size="10.00" fill="#000000">Change</text>
</a>
</g>
</g>
<!-- Node4949&#45;&gt;Node4951 -->
<g id="edge2" class="edge">
<title>Node4949&#45;&gt;Node4951</title>
<path fill="none" stroke="#191970" d="M78.2725,-31.8345C86.2234,-30.6874 94.8821,-29.4383 103.7532,-28.1585"/>
<polygon fill="#191970" stroke="#191970" points="104.4352,-31.5965 113.833,-26.7044 103.4356,-24.6682 104.4352,-31.5965"/>
</g>
</g>
</svg>
