<?xml version="1.0" encoding="UTF-8" standalone="no"?>
<!DOCTYPE svg PUBLIC "-//W3C//DTD SVG 1.1//EN"
 "http://www.w3.org/Graphics/SVG/1.1/DTD/svg11.dtd">
<!-- Generated by graphviz version 2.40.1 (0)
 -->
<!-- Title: TextUtils::cleanSodipodi Pages: 1 -->
<svg width="321pt" height="66pt"
 viewBox="0.00 0.00 321.00 66.00" xmlns="http://www.w3.org/2000/svg" xmlns:xlink="http://www.w3.org/1999/xlink">
<g id="graph0" class="graph" transform="scale(1 1) rotate(0) translate(4 62)">
<title>TextUtils::cleanSodipodi</title>
<polygon fill="#ffffff" stroke="transparent" points="-4,4 -4,-62 317,-62 317,4 -4,4"/>
<!-- Node574 -->
<g id="node1" class="node">
<title>Node574</title>
<g id="a_node1"><a xlink:title=" ">
<polygon fill="#bfbfbf" stroke="#000000" points="0,-19.5 0,-38.5 134,-38.5 134,-19.5 0,-19.5"/>
<text text-anchor="middle" x="67" y="-26.5" font-family="Helvetica,sans-Serif" font-size="10.00" fill="#000000">TextUtils::cleanSodipodi</text>
</a>
</g>
</g>
<!-- Node575 -->
<g id="node2" class="node">
<title>Node575</title>
<g id="a_node2"><a xlink:href="../../dc/d19/textutils_8cpp.html#ac58f1d5d4da5efbedabefd640c66243d" target="_top" xlink:title=" ">
<polygon fill="#ffffff" stroke="#000000" points="170,-38.5 170,-57.5 313,-57.5 313,-38.5 170,-38.5"/>
<text text-anchor="middle" x="241.5" y="-45.5" font-family="Helvetica,sans-Serif" font-size="10.00" fill="#000000">SodipodiAttributeDetector</text>
</a>
</g>
</g>
<!-- Node574&#45;&gt;Node575 -->
<g id="edge1" class="edge">
<title>Node574&#45;&gt;Node575</title>
<path fill="none" stroke="#191970" d="M134.4663,-36.3459C142.8071,-37.2541 151.4027,-38.19 159.9257,-39.118"/>
<polygon fill="#191970" stroke="#191970" points="159.5579,-42.5985 169.878,-40.2016 160.3156,-35.6397 159.5579,-42.5985"/>
</g>
<!-- Node576 -->
<g id="node3" class="node">
<title>Node576</title>
<g id="a_node3"><a xlink:href="../../dc/d19/textutils_8cpp.html#a259d69e4c2978224b86a5edcdd2049fa" target="_top" xlink:title=" ">
<polygon fill="#ffffff" stroke="#000000" points="171,-.5 171,-19.5 312,-19.5 312,-.5 171,-.5"/>
<text text-anchor="middle" x="241.5" y="-7.5" font-family="Helvetica,sans-Serif" font-size="10.00" fill="#000000">SodipodiElementDetector</text>
</a>
</g>
</g>
<!-- Node574&#45;&gt;Node576 -->
<g id="edge2" class="edge">
<title>Node574&#45;&gt;Node576</title>
<path fill="none" stroke="#191970" d="M134.4663,-21.6541C143.0139,-20.7234 151.8291,-19.7636 160.5595,-18.813"/>
<polygon fill="#191970" stroke="#191970" points="161.1859,-22.2656 170.7482,-17.7036 160.4281,-15.3067 161.1859,-22.2656"/>
</g>
</g>
</svg>
