<?xml version="1.0" encoding="UTF-8" standalone="no"?>
<!DOCTYPE svg PUBLIC "-//W3C//DTD SVG 1.1//EN"
 "http://www.w3.org/Graphics/SVG/1.1/DTD/svg11.dtd">
<!-- Generated by graphviz version 2.40.1 (0)
 -->
<!-- Title: FMessageBox::question Pages: 1 -->
<svg width="1181pt" height="78pt"
 viewBox="0.00 0.00 1181.00 77.50" xmlns="http://www.w3.org/2000/svg" xmlns:xlink="http://www.w3.org/1999/xlink">
<g id="graph0" class="graph" transform="scale(1 1) rotate(0) translate(4 73.5)">
<title>FMessageBox::question</title>
<polygon fill="#ffffff" stroke="transparent" points="-4,4 -4,-73.5 1177,-73.5 1177,4 -4,4"/>
<!-- Node205 -->
<g id="node1" class="node">
<title>Node205</title>
<g id="a_node1"><a xlink:title=" ">
<polygon fill="#bfbfbf" stroke="#000000" points="1040,-28 1040,-47 1173,-47 1173,-28 1040,-28"/>
<text text-anchor="middle" x="1106.5" y="-35" font-family="Helvetica,sans-Serif" font-size="10.00" fill="#000000">FMessageBox::question</text>
</a>
</g>
</g>
<!-- Node206 -->
<g id="node2" class="node">
<title>Node206</title>
<g id="a_node2"><a xlink:href="../../d6/d1a/classMainWindow.html#ad73342111ba9848cf7f22303c50832f9" target="_top" xlink:title=" ">
<polygon fill="#ffffff" stroke="#000000" points="821,-28 821,-47 1004,-47 1004,-28 821,-28"/>
<text text-anchor="middle" x="912.5" y="-35" font-family="Helvetica,sans-Serif" font-size="10.00" fill="#000000">MainWindow::checkSwapObsolete</text>
</a>
</g>
</g>
<!-- Node205&#45;&gt;Node206 -->
<g id="edge1" class="edge">
<title>Node205&#45;&gt;Node206</title>
<path fill="none" stroke="#191970" d="M1029.616,-37.5C1021.2191,-37.5 1012.6117,-37.5 1004.0609,-37.5"/>
<polygon fill="#191970" stroke="#191970" points="1029.7362,-41.0001 1039.7362,-37.5 1029.7362,-34.0001 1029.7362,-41.0001"/>
</g>
<!-- Node207 -->
<g id="node3" class="node">
<title>Node207</title>
<g id="a_node3"><a xlink:href="../../d6/d1a/classMainWindow.html#ac72da0973cf23f8eaa17b166cd5ae052" target="_top" xlink:title=" ">
<polygon fill="#ffffff" stroke="#000000" points="633.5,-48 633.5,-67 766.5,-67 766.5,-48 633.5,-48"/>
<text text-anchor="middle" x="700" y="-55" font-family="Helvetica,sans-Serif" font-size="10.00" fill="#000000">MainWindow::mainLoad</text>
</a>
</g>
</g>
<!-- Node206&#45;&gt;Node207 -->
<g id="edge2" class="edge">
<title>Node206&#45;&gt;Node207</title>
<path fill="none" stroke="#191970" d="M810.556,-47.0947C795.6558,-48.4971 780.6425,-49.9101 766.6908,-51.2232"/>
<polygon fill="#191970" stroke="#191970" points="811.211,-50.5486 820.839,-46.1269 810.555,-43.5794 811.211,-50.5486"/>
</g>
<!-- Node212 -->
<g id="node8" class="node">
<title>Node212</title>
<g id="a_node8"><a xlink:href="../../d6/d1a/classMainWindow.html#a81c058b375512f8388239b29d00ee272" target="_top" xlink:title=" ">
<polygon fill="#ffffff" stroke="#000000" points="615,-9 615,-28 785,-28 785,-9 615,-9"/>
<text text-anchor="middle" x="700" y="-16" font-family="Helvetica,sans-Serif" font-size="10.00" fill="#000000">MainWindow::selectAllObsolete</text>
</a>
</g>
</g>
<!-- Node206&#45;&gt;Node212 -->
<g id="edge7" class="edge">
<title>Node206&#45;&gt;Node212</title>
<path fill="none" stroke="#191970" d="M810.8425,-28.4106C802.3002,-27.6468 793.7182,-26.8795 785.318,-26.1284"/>
<polygon fill="#191970" stroke="#191970" points="810.567,-31.8999 820.839,-29.3044 811.1905,-24.9277 810.567,-31.8999"/>
</g>
<!-- Node208 -->
<g id="node4" class="node">
<title>Node208</title>
<g id="a_node4"><a xlink:href="../../dc/dc7/classFApplication.html#ae4187b15f0ed04d7875c0d38d02f5a23" target="_top" xlink:title=" ">
<polygon fill="#ffffff" stroke="#000000" points="420,-50 420,-69 579,-69 579,-50 420,-50"/>
<text text-anchor="middle" x="499.5" y="-57" font-family="Helvetica,sans-Serif" font-size="10.00" fill="#000000">FApplication::recoverBackups</text>
</a>
</g>
</g>
<!-- Node207&#45;&gt;Node208 -->
<g id="edge3" class="edge">
<title>Node207&#45;&gt;Node208</title>
<path fill="none" stroke="#191970" d="M622.9364,-58.2687C608.6038,-58.4117 593.6024,-58.5613 579.1929,-58.7051"/>
<polygon fill="#191970" stroke="#191970" points="623.2718,-61.7656 633.2364,-58.166 623.202,-54.766 623.2718,-61.7656"/>
</g>
<!-- Node209 -->
<g id="node5" class="node">
<title>Node209</title>
<g id="a_node5"><a xlink:href="../../dc/dc7/classFApplication.html#aa295d721bc33fcc241d15251c00d0830" target="_top" xlink:title=" ">
<polygon fill="#ffffff" stroke="#000000" points="229,-50 229,-69 384,-69 384,-50 229,-50"/>
<text text-anchor="middle" x="306.5" y="-57" font-family="Helvetica,sans-Serif" font-size="10.00" fill="#000000">FApplication::loadSomething</text>
</a>
</g>
</g>
<!-- Node208&#45;&gt;Node209 -->
<g id="edge4" class="edge">
<title>Node208&#45;&gt;Node209</title>
<path fill="none" stroke="#191970" d="M409.831,-59.5C401.2237,-59.5 392.5436,-59.5 384.0664,-59.5"/>
<polygon fill="#191970" stroke="#191970" points="409.8853,-63.0001 419.8852,-59.5 409.8852,-56.0001 409.8853,-63.0001"/>
</g>
<!-- Node210 -->
<g id="node6" class="node">
<title>Node210</title>
<g id="a_node6"><a xlink:href="../../dc/dc7/classFApplication.html#a89349e60ea5512570b4fa2474507ab36" target="_top" xlink:title=" ">
<polygon fill="#ffffff" stroke="#000000" points="77,-50 77,-69 193,-69 193,-50 77,-50"/>
<text text-anchor="middle" x="135" y="-57" font-family="Helvetica,sans-Serif" font-size="10.00" fill="#000000">FApplication::startup</text>
</a>
</g>
</g>
<!-- Node209&#45;&gt;Node210 -->
<g id="edge5" class="edge">
<title>Node209&#45;&gt;Node210</title>
<path fill="none" stroke="#191970" d="M218.6546,-59.5C210.0236,-59.5 201.4209,-59.5 193.1967,-59.5"/>
<polygon fill="#191970" stroke="#191970" points="218.7786,-63.0001 228.7786,-59.5 218.7786,-56.0001 218.7786,-63.0001"/>
</g>
<!-- Node211 -->
<g id="node7" class="node">
<title>Node211</title>
<g id="a_node7"><a xlink:href="../../df/d0a/main_8cpp.html#a0ddf1224851353fc92bfbff6f499fa97" target="_top" xlink:title=" ">
<polygon fill="#ffffff" stroke="#000000" points="0,-50 0,-69 41,-69 41,-50 0,-50"/>
<text text-anchor="middle" x="20.5" y="-57" font-family="Helvetica,sans-Serif" font-size="10.00" fill="#000000">main</text>
</a>
</g>
</g>
<!-- Node210&#45;&gt;Node211 -->
<g id="edge6" class="edge">
<title>Node210&#45;&gt;Node211</title>
<path fill="none" stroke="#191970" d="M66.5926,-59.5C57.3396,-59.5 48.4911,-59.5 41.0653,-59.5"/>
<polygon fill="#191970" stroke="#191970" points="66.7437,-63.0001 76.7437,-59.5 66.7437,-56.0001 66.7437,-63.0001"/>
</g>
<!-- Node213 -->
<g id="node9" class="node">
<title>Node213</title>
<g id="a_node9"><a xlink:href="../../dc/dc7/classFApplication.html#a0455361ca72c560951029a37f55646c8" target="_top" xlink:title=" ">
<polygon fill="#ffffff" stroke="#000000" points="429.5,-.5 429.5,-30.5 569.5,-30.5 569.5,-.5 429.5,-.5"/>
<text text-anchor="start" x="437.5" y="-18.5" font-family="Helvetica,sans-Serif" font-size="10.00" fill="#000000">FApplication::runExample</text>
<text text-anchor="middle" x="499.5" y="-7.5" font-family="Helvetica,sans-Serif" font-size="10.00" fill="#000000">Service</text>
</a>
</g>
</g>
<!-- Node212&#45;&gt;Node213 -->
<g id="edge8" class="edge">
<title>Node212&#45;&gt;Node213</title>
<path fill="none" stroke="#191970" d="M604.9707,-17.0781C593.0213,-16.8993 580.9726,-16.719 569.5064,-16.5475"/>
<polygon fill="#191970" stroke="#191970" points="604.9187,-20.5776 614.9699,-17.2277 605.0235,-13.5784 604.9187,-20.5776"/>
</g>
</g>
</svg>
