<?xml version="1.0" encoding="UTF-8" standalone="no"?>
<!DOCTYPE svg PUBLIC "-//W3C//DTD SVG 1.1//EN"
 "http://www.w3.org/Graphics/SVG/1.1/DTD/svg11.dtd">
<!-- Generated by graphviz version 2.40.1 (0)
 -->
<!-- Title: PinLabelDialog::makeOnePinEntry Pages: 1 -->
<svg width="517pt" height="39pt"
 viewBox="0.00 0.00 517.00 39.00" xmlns="http://www.w3.org/2000/svg" xmlns:xlink="http://www.w3.org/1999/xlink">
<g id="graph0" class="graph" transform="scale(1 1) rotate(0) translate(4 35)">
<title>PinLabelDialog::makeOnePinEntry</title>
<polygon fill="#ffffff" stroke="transparent" points="-4,4 -4,-35 513,-35 513,4 -4,4"/>
<!-- Node62 -->
<g id="node1" class="node">
<title>Node62</title>
<g id="a_node1"><a xlink:title=" ">
<polygon fill="#bfbfbf" stroke="#000000" points="352,-.5 352,-30.5 509,-30.5 509,-.5 352,-.5"/>
<text text-anchor="start" x="360" y="-18.5" font-family="Helvetica,sans-Serif" font-size="10.00" fill="#000000">PinLabelDialog::makeOnePin</text>
<text text-anchor="middle" x="430.5" y="-7.5" font-family="Helvetica,sans-Serif" font-size="10.00" fill="#000000">Entry</text>
</a>
</g>
</g>
<!-- Node63 -->
<g id="node2" class="node">
<title>Node63</title>
<g id="a_node2"><a xlink:href="../../de/df3/classPinLabelDialog.html#ada195099e45a60773a0d7a3bb89c369b" target="_top" xlink:title=" ">
<polygon fill="#ffffff" stroke="#000000" points="173,-6 173,-25 316,-25 316,-6 173,-6"/>
<text text-anchor="middle" x="244.5" y="-13" font-family="Helvetica,sans-Serif" font-size="10.00" fill="#000000">PinLabelDialog::initLabels</text>
</a>
</g>
</g>
<!-- Node62&#45;&gt;Node63 -->
<g id="edge1" class="edge">
<title>Node62&#45;&gt;Node63</title>
<path fill="none" stroke="#191970" d="M341.7916,-15.5C333.1557,-15.5 324.4703,-15.5 316.0342,-15.5"/>
<polygon fill="#191970" stroke="#191970" points="341.8889,-19.0001 351.8889,-15.5 341.8888,-12.0001 341.8889,-19.0001"/>
</g>
<!-- Node64 -->
<g id="node3" class="node">
<title>Node64</title>
<g id="a_node3"><a xlink:href="../../de/df3/classPinLabelDialog.html#a368b6e79886e23212f62884bbadbb63f" target="_top" xlink:title=" ">
<polygon fill="#ffffff" stroke="#000000" points="0,-.5 0,-30.5 137,-30.5 137,-.5 0,-.5"/>
<text text-anchor="start" x="8" y="-18.5" font-family="Helvetica,sans-Serif" font-size="10.00" fill="#000000">PinLabelDialog::PinLabel</text>
<text text-anchor="middle" x="68.5" y="-7.5" font-family="Helvetica,sans-Serif" font-size="10.00" fill="#000000">Dialog</text>
</a>
</g>
</g>
<!-- Node63&#45;&gt;Node64 -->
<g id="edge2" class="edge">
<title>Node63&#45;&gt;Node64</title>
<path fill="none" stroke="#191970" d="M162.8799,-15.5C154.2835,-15.5 145.6055,-15.5 137.1762,-15.5"/>
<polygon fill="#191970" stroke="#191970" points="162.9141,-19.0001 172.9141,-15.5 162.914,-12.0001 162.9141,-19.0001"/>
</g>
</g>
</svg>
