<?xml version="1.0" encoding="UTF-8" standalone="no"?>
<!DOCTYPE svg PUBLIC "-//W3C//DTD SVG 1.1//EN"
 "http://www.w3.org/Graphics/SVG/1.1/DTD/svg11.dtd">
<!-- Generated by graphviz version 2.40.1 (0)
 -->
<!-- Title: ResizableBoard::getShapeForRenderer Pages: 1 -->
<svg width="772pt" height="154pt"
 viewBox="0.00 0.00 772.00 153.50" xmlns="http://www.w3.org/2000/svg" xmlns:xlink="http://www.w3.org/1999/xlink">
<g id="graph0" class="graph" transform="scale(1 1) rotate(0) translate(4 149.5)">
<title>ResizableBoard::getShapeForRenderer</title>
<polygon fill="#ffffff" stroke="transparent" points="-4,4 -4,-149.5 768,-149.5 768,4 -4,4"/>
<!-- Node223 -->
<g id="node1" class="node">
<title>Node223</title>
<g id="a_node1"><a xlink:title=" ">
<polygon fill="#bfbfbf" stroke="#000000" points="620,-71 620,-101 764,-101 764,-71 620,-71"/>
<text text-anchor="start" x="628" y="-89" font-family="Helvetica,sans-Serif" font-size="10.00" fill="#000000">ResizableBoard::getShape</text>
<text text-anchor="middle" x="692" y="-78" font-family="Helvetica,sans-Serif" font-size="10.00" fill="#000000">ForRenderer</text>
</a>
</g>
</g>
<!-- Node224 -->
<g id="node2" class="node">
<title>Node224</title>
<g id="a_node2"><a xlink:href="../../d7/d13/classBoardLogoItem.html#a503624608f5c249132e8172b5f5e46b4" target="_top" xlink:title=" ">
<polygon fill="#ffffff" stroke="#000000" points="420,-115 420,-145 578,-145 578,-115 420,-115"/>
<text text-anchor="start" x="428" y="-133" font-family="Helvetica,sans-Serif" font-size="10.00" fill="#000000">BoardLogoItem::getShapeFor</text>
<text text-anchor="middle" x="499" y="-122" font-family="Helvetica,sans-Serif" font-size="10.00" fill="#000000">Renderer</text>
</a>
</g>
</g>
<!-- Node223&#45;&gt;Node224 -->
<g id="edge1" class="edge">
<title>Node223&#45;&gt;Node224</title>
<path fill="none" stroke="#191970" d="M616.2544,-103.2684C599.2934,-107.1352 581.4346,-111.2066 564.9104,-114.9738"/>
<polygon fill="#191970" stroke="#191970" points="617.1483,-106.6545 626.1202,-101.0192 615.5923,-99.8296 617.1483,-106.6545"/>
</g>
<!-- Node225 -->
<g id="node3" class="node">
<title>Node225</title>
<g id="a_node3"><a xlink:href="../../d7/d13/classBoardLogoItem.html#af40bcefc808193da66688f2b260dc783" target="_top" xlink:title=" ">
<polygon fill="#ffffff" stroke="#000000" points="414,-76.5 414,-95.5 584,-95.5 584,-76.5 414,-76.5"/>
<text text-anchor="middle" x="499" y="-83.5" font-family="Helvetica,sans-Serif" font-size="10.00" fill="#000000">BoardLogoItem::reloadLayerKin</text>
</a>
</g>
</g>
<!-- Node223&#45;&gt;Node225 -->
<g id="edge2" class="edge">
<title>Node223&#45;&gt;Node225</title>
<path fill="none" stroke="#191970" d="M609.6295,-86C601.1678,-86 592.558,-86 584.0679,-86"/>
<polygon fill="#191970" stroke="#191970" points="609.8595,-89.5001 619.8595,-86 609.8594,-82.5001 609.8595,-89.5001"/>
</g>
<!-- Node228 -->
<g id="node6" class="node">
<title>Node228</title>
<g id="a_node6"><a xlink:href="../../d7/dde/classResizableBoard.html#a16e0f66437834c8b493cc57258b01ecf" target="_top" xlink:title=" ">
<polygon fill="#ffffff" stroke="#000000" points="414,-38.5 414,-57.5 584,-57.5 584,-38.5 414,-38.5"/>
<text text-anchor="middle" x="499" y="-45.5" font-family="Helvetica,sans-Serif" font-size="10.00" fill="#000000">ResizableBoard::loadTemplates</text>
</a>
</g>
</g>
<!-- Node223&#45;&gt;Node228 -->
<g id="edge5" class="edge">
<title>Node223&#45;&gt;Node228</title>
<path fill="none" stroke="#191970" d="M609.8291,-69.8213C588.5311,-65.6279 566.2806,-61.247 547.3528,-57.5202"/>
<polygon fill="#191970" stroke="#191970" points="609.3717,-73.2983 619.8595,-71.7962 610.724,-66.4302 609.3717,-73.2983"/>
</g>
<!-- Node226 -->
<g id="node4" class="node">
<title>Node226</title>
<g id="a_node4"><a xlink:href="../../d7/d13/classBoardLogoItem.html#afc7f6fd19104e37337ce6bad2ab31711" target="_top" xlink:title=" ">
<polygon fill="#ffffff" stroke="#000000" points="222,-114.5 222,-133.5 366,-133.5 366,-114.5 222,-114.5"/>
<text text-anchor="middle" x="294" y="-121.5" font-family="Helvetica,sans-Serif" font-size="10.00" fill="#000000">BoardLogoItem::resizeMM</text>
</a>
</g>
</g>
<!-- Node225&#45;&gt;Node226 -->
<g id="edge3" class="edge">
<title>Node225&#45;&gt;Node226</title>
<path fill="none" stroke="#191970" d="M437.4022,-97.4181C408.0704,-102.8552 373.393,-109.2832 345.4867,-114.4561"/>
<polygon fill="#191970" stroke="#191970" points="438.3399,-100.804 447.5345,-95.54 437.064,-93.9213 438.3399,-100.804"/>
</g>
<!-- Node227 -->
<g id="node5" class="node">
<title>Node227</title>
<g id="a_node5"><a xlink:href="../../d7/d13/classBoardLogoItem.html#a74c7a2f1d279fc22ca755dbbf07555b7" target="_top" xlink:title=" ">
<polygon fill="#ffffff" stroke="#000000" points="215,-76.5 215,-95.5 373,-95.5 373,-76.5 215,-76.5"/>
<text text-anchor="middle" x="294" y="-83.5" font-family="Helvetica,sans-Serif" font-size="10.00" fill="#000000">BoardLogoItem::reloadImage</text>
</a>
</g>
</g>
<!-- Node225&#45;&gt;Node227 -->
<g id="edge4" class="edge">
<title>Node225&#45;&gt;Node227</title>
<path fill="none" stroke="#191970" d="M403.7152,-86C393.5412,-86 383.272,-86 373.3111,-86"/>
<polygon fill="#191970" stroke="#191970" points="403.8425,-89.5001 413.8425,-86 403.8425,-82.5001 403.8425,-89.5001"/>
</g>
<!-- Node229 -->
<g id="node7" class="node">
<title>Node229</title>
<g id="a_node7"><a xlink:href="../../d7/dde/classResizableBoard.html#a00c3aec9332922ae0839b3edef124261" target="_top" xlink:title=" ">
<polygon fill="#ffffff" stroke="#000000" points="210,-38.5 210,-57.5 378,-57.5 378,-38.5 210,-38.5"/>
<text text-anchor="middle" x="294" y="-45.5" font-family="Helvetica,sans-Serif" font-size="10.00" fill="#000000">ResizableBoard::addedToScene</text>
</a>
</g>
</g>
<!-- Node228&#45;&gt;Node229 -->
<g id="edge6" class="edge">
<title>Node228&#45;&gt;Node229</title>
<path fill="none" stroke="#191970" d="M403.5719,-48C395.1128,-48 386.5892,-48 378.233,-48"/>
<polygon fill="#191970" stroke="#191970" points="403.8425,-51.5001 413.8425,-48 403.8425,-44.5001 403.8425,-51.5001"/>
</g>
<!-- Node232 -->
<g id="node10" class="node">
<title>Node232</title>
<g id="a_node10"><a xlink:href="../../d7/dde/classResizableBoard.html#ac4765a5101a941705b9d01db152f2e09" target="_top" xlink:title=" ">
<polygon fill="#ffffff" stroke="#000000" points="213,-.5 213,-19.5 375,-19.5 375,-.5 213,-.5"/>
<text text-anchor="middle" x="294" y="-7.5" font-family="Helvetica,sans-Serif" font-size="10.00" fill="#000000">ResizableBoard::loadLayerKin</text>
</a>
</g>
</g>
<!-- Node228&#45;&gt;Node232 -->
<g id="edge9" class="edge">
<title>Node228&#45;&gt;Node232</title>
<path fill="none" stroke="#191970" d="M437.4022,-36.5819C408.0704,-31.1448 373.393,-24.7168 345.4867,-19.5439"/>
<polygon fill="#191970" stroke="#191970" points="437.064,-40.0787 447.5345,-38.46 438.3399,-33.196 437.064,-40.0787"/>
</g>
<!-- Node230 -->
<g id="node8" class="node">
<title>Node230</title>
<g id="a_node8"><a xlink:href="../../de/d5e/classLogoItem.html#a572a7d1f7aa4f8dd0a7c96082e35d406" target="_top" xlink:title=" ">
<polygon fill="#ffffff" stroke="#000000" points="18,-57.5 18,-76.5 156,-76.5 156,-57.5 18,-57.5"/>
<text text-anchor="middle" x="87" y="-64.5" font-family="Helvetica,sans-Serif" font-size="10.00" fill="#000000">LogoItem::addedToScene</text>
</a>
</g>
</g>
<!-- Node229&#45;&gt;Node230 -->
<g id="edge7" class="edge">
<title>Node229&#45;&gt;Node230</title>
<path fill="none" stroke="#191970" d="M199.7255,-56.6532C185.0878,-57.9968 170.202,-59.3631 156.2518,-60.6436"/>
<polygon fill="#191970" stroke="#191970" points="200.167,-60.1275 209.8052,-55.728 199.5271,-53.1568 200.167,-60.1275"/>
</g>
<!-- Node231 -->
<g id="node9" class="node">
<title>Node231</title>
<g id="a_node9"><a xlink:href="../../df/d59/classSchematicFrame.html#a490eb1757b7d4acdaf488b3dd1b55c8d" target="_top" xlink:title=" ">
<polygon fill="#ffffff" stroke="#000000" points="0,-19.5 0,-38.5 174,-38.5 174,-19.5 0,-19.5"/>
<text text-anchor="middle" x="87" y="-26.5" font-family="Helvetica,sans-Serif" font-size="10.00" fill="#000000">SchematicFrame::addedToScene</text>
</a>
</g>
</g>
<!-- Node229&#45;&gt;Node231 -->
<g id="edge8" class="edge">
<title>Node229&#45;&gt;Node231</title>
<path fill="none" stroke="#191970" d="M199.8211,-39.3556C191.2707,-38.5707 182.6347,-37.7781 174.1492,-36.9992"/>
<polygon fill="#191970" stroke="#191970" points="199.5271,-42.8432 209.8052,-40.272 200.167,-35.8725 199.5271,-42.8432"/>
</g>
</g>
</svg>
