<?xml version="1.0" encoding="UTF-8" standalone="no"?>
<!DOCTYPE svg PUBLIC "-//W3C//DTD SVG 1.1//EN"
 "http://www.w3.org/Graphics/SVG/1.1/DTD/svg11.dtd">
<!-- Generated by graphviz version 2.40.1 (0)
 -->
<!-- Title: ResizableBoard::makeSilkscreenSvg Pages: 1 -->
<!--zoomable 104 -->
<svg id="main" version="1.1" xmlns="http://www.w3.org/2000/svg" xmlns:xlink="http://www.w3.org/1999/xlink" xml:space="preserve" onload="init(evt)">
<style type="text/css"><![CDATA[
.edge:hover path { stroke: red; }
.edge:hover polygon { stroke: red; fill: red; }
]]></style>
<script type="text/javascript"><![CDATA[
var edges = document.getElementsByTagName('g');
if (edges && edges.length) {
  for (var i=0;i<edges.length;i++) {
    if (edges[i].id.substr(0,4)=='edge') {
      edges[i].setAttribute('class','edge');
    }
  }
}
]]></script>
        <defs>
                <circle id="rim" cx="0" cy="0" r="7"/>
                <circle id="rim2" cx="0" cy="0" r="3.5"/>
                <g id="zoomPlus">
                        <use xlink:href="#rim" fill="#404040">
                                <set attributeName="fill" to="#808080" begin="zoomplus.mouseover" end="zoomplus.mouseout"/>
                        </use>
                        <path d="M-4,0h8M0,-4v8" fill="none" stroke="white" stroke-width="1.5" pointer-events="none"/>
                </g>
                <g id="zoomMin">
                        <use xlink:href="#rim" fill="#404040">
                                <set attributeName="fill" to="#808080" begin="zoomminus.mouseover" end="zoomminus.mouseout"/>
                        </use>
                        <path d="M-4,0h8" fill="none" stroke="white" stroke-width="1.5" pointer-events="none"/>
                </g>
                <g id="dirArrow">
                        <path fill="none" stroke="white" stroke-width="1.5" d="M0,-3.0v7 M-2.5,-0.5L0,-3.0L2.5,-0.5"/>
                </g>
               <g id="resetDef">
                       <use xlink:href="#rim2" fill="#404040">
                               <set attributeName="fill" to="#808080" begin="reset.mouseover" end="reset.mouseout"/>
                       </use>
               </g>
        </defs>

<script type="text/javascript">
var viewWidth = 549;
var viewHeight = 104;
var sectionId = 'dynsection-35';
</script>
<script xlink:href="../../svgpan.js"/>
<svg id="graph" class="graph">
<g id="viewport">
<title>ResizableBoard::makeSilkscreenSvg</title>
<polygon fill="#ffffff" stroke="transparent" points="-4,4 -4,-100 545,-100 545,4 -4,4"/>
<!-- Node658 -->
<g id="node1" class="node">
<title>Node658</title>
<g id="a_node1"><a xlink:title=" ">
<polygon fill="#bfbfbf" stroke="#000000" points="0,-38.5 0,-57.5 194,-57.5 194,-38.5 0,-38.5"/>
<text text-anchor="middle" x="97" y="-45.5" font-family="Helvetica,sans-Serif" font-size="10.00" fill="#000000">ResizableBoard::makeSilkscreenSvg</text>
</a>
</g>
</g>
<!-- Node659 -->
<g id="node2" class="node">
<title>Node659</title>
<g id="a_node2"><a xlink:href="../../d7/dde/classResizableBoard.html#a35864be320dc5df86d48d76c7b66b74f" target="_top" xlink:title=" ">
<polygon fill="#ffffff" stroke="#000000" points="230,-76.5 230,-95.5 373,-95.5 373,-76.5 230,-76.5"/>
<text text-anchor="middle" x="301.5" y="-83.5" font-family="Helvetica,sans-Serif" font-size="10.00" fill="#000000">ResizableBoard::makeSvg</text>
</a>
</g>
</g>
<!-- Node658&#45;&gt;Node659 -->
<g id="edge1" class="edge">
<title>Node658&#45;&gt;Node659</title>
<path fill="none" stroke="#191970" d="M148.34,-57.54C176.1748,-62.7122 210.7673,-69.1401 240.0303,-74.5778"/>
<polygon fill="#191970" stroke="#191970" points="239.6677,-78.0702 250.1389,-76.4561 240.9466,-71.188 239.6677,-78.0702"/>
</g>
<!-- Node661 -->
<g id="node4" class="node">
<title>Node661</title>
<g id="a_node4"><a xlink:href="../../d4/d4f/classItemBase.html#a97277bb1a43bcb78bcc5522290c63477" target="_top" xlink:title=" ">
<polygon fill="#ffffff" stroke="#000000" points="243.5,-38.5 243.5,-57.5 359.5,-57.5 359.5,-38.5 243.5,-38.5"/>
<text text-anchor="middle" x="301.5" y="-45.5" font-family="Helvetica,sans-Serif" font-size="10.00" fill="#000000">ItemBase::moduleID</text>
</a>
</g>
</g>
<!-- Node658&#45;&gt;Node661 -->
<g id="edge3" class="edge">
<title>Node658&#45;&gt;Node661</title>
<path fill="none" stroke="#191970" d="M194.1593,-48C207.2828,-48 220.5183,-48 232.9984,-48"/>
<polygon fill="#191970" stroke="#191970" points="233.2849,-51.5001 243.2849,-48 233.2848,-44.5001 233.2849,-51.5001"/>
</g>
<!-- Node662 -->
<g id="node5" class="node">
<title>Node662</title>
<g id="a_node5"><a xlink:href="../../d4/d4f/classItemBase.html#a8f16baa26ee92ac6cd8dda5c69d759d4" target="_top" xlink:title=" ">
<polygon fill="#ffffff" stroke="#000000" points="236.5,-.5 236.5,-19.5 366.5,-19.5 366.5,-.5 236.5,-.5"/>
<text text-anchor="middle" x="301.5" y="-7.5" font-family="Helvetica,sans-Serif" font-size="10.00" fill="#000000">ItemBase::viewLayerID</text>
</a>
</g>
</g>
<!-- Node658&#45;&gt;Node662 -->
<g id="edge4" class="edge">
<title>Node658&#45;&gt;Node662</title>
<path fill="none" stroke="#191970" d="M148.34,-38.46C176.1748,-33.2878 210.7673,-26.8599 240.0303,-21.4222"/>
<polygon fill="#191970" stroke="#191970" points="240.9466,-24.812 250.1389,-19.5439 239.6677,-17.9298 240.9466,-24.812"/>
</g>
<!-- Node660 -->
<g id="node3" class="node">
<title>Node660</title>
<g id="a_node3"><a xlink:href="../../de/db8/classTextUtils.html#ac67eb34d33dcad1e595c810218da025c" target="_top" xlink:title=" ">
<polygon fill="#ffffff" stroke="#000000" points="409,-76.5 409,-95.5 541,-95.5 541,-76.5 409,-76.5"/>
<text text-anchor="middle" x="475" y="-83.5" font-family="Helvetica,sans-Serif" font-size="10.00" fill="#000000">TextUtils::collectLeaves</text>
</a>
</g>
</g>
<!-- Node659&#45;&gt;Node660 -->
<g id="edge2" class="edge">
<title>Node659&#45;&gt;Node660</title>
<path fill="none" stroke="#191970" d="M373.0708,-86C381.4988,-86 390.1241,-86 398.615,-86"/>
<polygon fill="#191970" stroke="#191970" points="398.8832,-89.5001 408.8831,-86 398.8831,-82.5001 398.8832,-89.5001"/>
</g>
</g>
</svg>
        <g id="navigator" transform="translate(0 0)" fill="#404254">
                <rect fill="#f2f5e9" fill-opacity="0.5" stroke="#606060" stroke-width=".5" x="0" y="0" width="60" height="60"/>
                <use id="zoomplus" xlink:href="#zoomPlus" x="17" y="9" onmousedown="handleZoom(evt,'in')"/>
                <use id="zoomminus" xlink:href="#zoomMin" x="42" y="9" onmousedown="handleZoom(evt,'out')"/>
                <use id="reset" xlink:href="#resetDef" x="30" y="36" onmousedown="handleReset()"/>
                <g id="arrowUp" xlink:href="#dirArrow" transform="translate(30 24)" onmousedown="handlePan(0,-1)">
                  <use xlink:href="#rim" fill="#404040">
                        <set attributeName="fill" to="#808080" begin="arrowUp.mouseover" end="arrowUp.mouseout"/>
                  </use>
                  <path fill="none" stroke="white" stroke-width="1.5" d="M0,-3.0v7 M-2.5,-0.5L0,-3.0L2.5,-0.5"/>
                </g>
                <g id="arrowRight" xlink:href="#dirArrow" transform="rotate(90) translate(36 -43)" onmousedown="handlePan(1,0)">
                  <use xlink:href="#rim" fill="#404040">
                        <set attributeName="fill" to="#808080" begin="arrowRight.mouseover" end="arrowRight.mouseout"/>
                  </use>
                  <path fill="none" stroke="white" stroke-width="1.5" d="M0,-3.0v7 M-2.5,-0.5L0,-3.0L2.5,-0.5"/>
                </g>
                <g id="arrowDown" xlink:href="#dirArrow" transform="rotate(180) translate(-30 -48)" onmousedown="handlePan(0,1)">
                  <use xlink:href="#rim" fill="#404040">
                        <set attributeName="fill" to="#808080" begin="arrowDown.mouseover" end="arrowDown.mouseout"/>
                  </use>
                  <path fill="none" stroke="white" stroke-width="1.5" d="M0,-3.0v7 M-2.5,-0.5L0,-3.0L2.5,-0.5"/>
                </g>
                <g id="arrowLeft" xlink:href="#dirArrow" transform="rotate(270) translate(-36 17)" onmousedown="handlePan(-1,0)">
                  <use xlink:href="#rim" fill="#404040">
                        <set attributeName="fill" to="#808080" begin="arrowLeft.mouseover" end="arrowLeft.mouseout"/>
                  </use>
                  <path fill="none" stroke="white" stroke-width="1.5" d="M0,-3.0v7 M-2.5,-0.5L0,-3.0L2.5,-0.5"/>
                </g>
        </g>
        <svg viewBox="0 0 15 15" width="100%" height="30px" preserveAspectRatio="xMaxYMin meet">
         <g id="arrow_out" transform="scale(0.3 0.3)">
          <a xlink:href="classResizableBoard_a22add16af148fc78a7166a16e6eefcd3_cgraph_org.svg" target="_base">
           <rect id="button" ry="5" rx="5" y="6" x="6" height="38" width="38"
                fill="#f2f5e9" fill-opacity="0.5" stroke="#606060" stroke-width="1.0"/>
           <path id="arrow"
             d="M 11.500037,31.436501 C 11.940474,20.09759 22.043105,11.32322 32.158766,21.979434 L 37.068811,17.246167 C 37.068811,17.246167 37.088388,32 37.088388,32 L 22.160133,31.978069 C 22.160133,31.978069 26.997745,27.140456 26.997745,27.140456 C 18.528582,18.264221 13.291696,25.230495 11.500037,31.436501 z"
             style="fill:#404040;"/>
          </a>
         </g>
        </svg>
</svg>
