<?xml version="1.0" encoding="UTF-8" standalone="no"?>
<!DOCTYPE svg PUBLIC "-//W3C//DTD SVG 1.1//EN"
 "http://www.w3.org/Graphics/SVG/1.1/DTD/svg11.dtd">
<!-- Generated by graphviz version 2.40.1 (0)
 -->
<!-- Title: ResizableBoard::hoverLeaveEvent Pages: 1 -->
<!--zoomable 230 -->
<svg id="main" version="1.1" xmlns="http://www.w3.org/2000/svg" xmlns:xlink="http://www.w3.org/1999/xlink" xml:space="preserve" onload="init(evt)">
<style type="text/css"><![CDATA[
.edge:hover path { stroke: red; }
.edge:hover polygon { stroke: red; fill: red; }
]]></style>
<script type="text/javascript"><![CDATA[
var edges = document.getElementsByTagName('g');
if (edges && edges.length) {
  for (var i=0;i<edges.length;i++) {
    if (edges[i].id.substr(0,4)=='edge') {
      edges[i].setAttribute('class','edge');
    }
  }
}
]]></script>
        <defs>
                <circle id="rim" cx="0" cy="0" r="7"/>
                <circle id="rim2" cx="0" cy="0" r="3.5"/>
                <g id="zoomPlus">
                        <use xlink:href="#rim" fill="#404040">
                                <set attributeName="fill" to="#808080" begin="zoomplus.mouseover" end="zoomplus.mouseout"/>
                        </use>
                        <path d="M-4,0h8M0,-4v8" fill="none" stroke="white" stroke-width="1.5" pointer-events="none"/>
                </g>
                <g id="zoomMin">
                        <use xlink:href="#rim" fill="#404040">
                                <set attributeName="fill" to="#808080" begin="zoomminus.mouseover" end="zoomminus.mouseout"/>
                        </use>
                        <path d="M-4,0h8" fill="none" stroke="white" stroke-width="1.5" pointer-events="none"/>
                </g>
                <g id="dirArrow">
                        <path fill="none" stroke="white" stroke-width="1.5" d="M0,-3.0v7 M-2.5,-0.5L0,-3.0L2.5,-0.5"/>
                </g>
               <g id="resetDef">
                       <use xlink:href="#rim2" fill="#404040">
                               <set attributeName="fill" to="#808080" begin="reset.mouseover" end="reset.mouseout"/>
                       </use>
               </g>
        </defs>

<script type="text/javascript">
var viewWidth = 986;
var viewHeight = 230;
var sectionId = 'dynsection-19';
</script>
<script xlink:href="../../svgpan.js"/>
<svg id="graph" class="graph">
<g id="viewport">
<title>ResizableBoard::hoverLeaveEvent</title>
<polygon fill="#ffffff" stroke="transparent" points="-4,4 -4,-225.5 982,-225.5 982,4 -4,4"/>
<!-- Node276 -->
<g id="node1" class="node">
<title>Node276</title>
<g id="a_node1"><a xlink:title=" ">
<polygon fill="#bfbfbf" stroke="#000000" points="0,-71 0,-101 155,-101 155,-71 0,-71"/>
<text text-anchor="start" x="8" y="-89" font-family="Helvetica,sans-Serif" font-size="10.00" fill="#000000">ResizableBoard::hoverLeave</text>
<text text-anchor="middle" x="77.5" y="-78" font-family="Helvetica,sans-Serif" font-size="10.00" fill="#000000">Event</text>
</a>
</g>
</g>
<!-- Node277 -->
<g id="node2" class="node">
<title>Node277</title>
<g id="a_node2"><a xlink:href="../../d7/de7/classPaletteItemBase.html#ab4022482d711507eb94117cdc4ca60f1" target="_top" xlink:title=" ">
<polygon fill="#ffffff" stroke="#000000" points="191.5,-109 191.5,-139 351.5,-139 351.5,-109 191.5,-109"/>
<text text-anchor="start" x="199.5" y="-127" font-family="Helvetica,sans-Serif" font-size="10.00" fill="#000000">PaletteItemBase::hoverLeave</text>
<text text-anchor="middle" x="271.5" y="-116" font-family="Helvetica,sans-Serif" font-size="10.00" fill="#000000">Event</text>
</a>
</g>
</g>
<!-- Node276&#45;&gt;Node277 -->
<g id="edge1" class="edge">
<title>Node276&#45;&gt;Node277</title>
<path fill="none" stroke="#191970" d="M154.1739,-101.0186C164.1825,-102.979 174.4934,-104.9987 184.654,-106.9889"/>
<polygon fill="#191970" stroke="#191970" points="184.2614,-110.4785 194.7477,-108.966 185.607,-103.609 184.2614,-110.4785"/>
</g>
<!-- Node288 -->
<g id="node13" class="node">
<title>Node288</title>
<g id="a_node13"><a xlink:href="../../d7/dde/classResizableBoard.html#aec2ac48d7783912d4f1301a4749ebc05" target="_top" xlink:title=" ">
<polygon fill="#ffffff" stroke="#000000" points="191,-38.5 191,-57.5 352,-57.5 352,-38.5 191,-38.5"/>
<text text-anchor="middle" x="271.5" y="-45.5" font-family="Helvetica,sans-Serif" font-size="10.00" fill="#000000">ResizableBoard::setKinCursor</text>
</a>
</g>
</g>
<!-- Node276&#45;&gt;Node288 -->
<g id="edge13" class="edge">
<title>Node276&#45;&gt;Node288</title>
<path fill="none" stroke="#191970" d="M154.1739,-70.9814C173.7443,-67.148 194.4704,-63.0883 212.9689,-59.4648"/>
<polygon fill="#191970" stroke="#191970" points="213.8546,-62.858 222.9953,-57.5009 212.509,-55.9885 213.8546,-62.858"/>
</g>
<!-- Node278 -->
<g id="node3" class="node">
<title>Node278</title>
<g id="a_node3"><a xlink:href="../../d4/d4f/classItemBase.html#af04d5720eead42b15b100b923cd9a00d" target="_top" xlink:title=" ">
<polygon fill="#ffffff" stroke="#000000" points="388,-190.5 388,-209.5 551,-209.5 551,-190.5 388,-190.5"/>
<text text-anchor="middle" x="469.5" y="-197.5" font-family="Helvetica,sans-Serif" font-size="10.00" fill="#000000">ItemBase::hasRubberBandLeg</text>
</a>
</g>
</g>
<!-- Node277&#45;&gt;Node278 -->
<g id="edge2" class="edge">
<title>Node277&#45;&gt;Node278</title>
<path fill="none" stroke="#191970" d="M298.0533,-139.1457C321.1925,-151.8141 355.9691,-169.5962 388,-181 395.1376,-183.5412 402.7492,-185.8355 410.3455,-187.878"/>
<polygon fill="#191970" stroke="#191970" points="409.7263,-191.3322 420.2816,-190.4177 411.4599,-184.5503 409.7263,-191.3322"/>
</g>
<!-- Node279 -->
<g id="node4" class="node">
<title>Node279</title>
<g id="a_node4"><a xlink:href="../../d4/d4f/classItemBase.html#a438e841a429659f984dbbd383205e6f6" target="_top" xlink:title=" ">
<polygon fill="#ffffff" stroke="#000000" points="392.5,-152.5 392.5,-171.5 546.5,-171.5 546.5,-152.5 392.5,-152.5"/>
<text text-anchor="middle" x="469.5" y="-159.5" font-family="Helvetica,sans-Serif" font-size="10.00" fill="#000000">ItemBase::hoverLeaveEvent</text>
</a>
</g>
</g>
<!-- Node277&#45;&gt;Node279 -->
<g id="edge3" class="edge">
<title>Node277&#45;&gt;Node279</title>
<path fill="none" stroke="#191970" d="M349.7548,-139.0186C369.8212,-142.8697 391.078,-146.9493 410.0242,-150.5855"/>
<polygon fill="#191970" stroke="#191970" points="409.5147,-154.0515 419.9952,-152.4991 410.8341,-147.1769 409.5147,-154.0515"/>
</g>
<!-- Node285 -->
<g id="node10" class="node">
<title>Node285</title>
<g id="a_node10"><a xlink:href="../../de/dba/classCursorMaster.html#a828b685cd457a3b0f6c908094eb26f35" target="_top" xlink:title=" ">
<polygon fill="#ffffff" stroke="#000000" points="405,-114.5 405,-133.5 534,-133.5 534,-114.5 405,-114.5"/>
<text text-anchor="middle" x="469.5" y="-121.5" font-family="Helvetica,sans-Serif" font-size="10.00" fill="#000000">CursorMaster::instance</text>
</a>
</g>
</g>
<!-- Node277&#45;&gt;Node285 -->
<g id="edge9" class="edge">
<title>Node277&#45;&gt;Node285</title>
<path fill="none" stroke="#191970" d="M351.7487,-124C365.9817,-124 380.7514,-124 394.8223,-124"/>
<polygon fill="#191970" stroke="#191970" points="394.927,-127.5001 404.9269,-124 394.9269,-120.5001 394.927,-127.5001"/>
</g>
<!-- Node286 -->
<g id="node11" class="node">
<title>Node286</title>
<g id="a_node11"><a xlink:href="../../de/dba/classCursorMaster.html#a4592411b139069d6f90721f959956650" target="_top" xlink:title=" ">
<polygon fill="#ffffff" stroke="#000000" points="391,-76.5 391,-95.5 548,-95.5 548,-76.5 391,-76.5"/>
<text text-anchor="middle" x="469.5" y="-83.5" font-family="Helvetica,sans-Serif" font-size="10.00" fill="#000000">CursorMaster::removeCursor</text>
</a>
</g>
</g>
<!-- Node277&#45;&gt;Node286 -->
<g id="edge10" class="edge">
<title>Node277&#45;&gt;Node286</title>
<path fill="none" stroke="#191970" d="M349.7548,-108.9814C369.8212,-105.1303 391.078,-101.0507 410.0242,-97.4145"/>
<polygon fill="#191970" stroke="#191970" points="410.8341,-100.8231 419.9952,-95.5009 409.5147,-93.9485 410.8341,-100.8231"/>
</g>
<!-- Node280 -->
<g id="node5" class="node">
<title>Node280</title>
<g id="a_node5"><a xlink:href="../../d8/d86/classInfoGraphicsView.html#a606fdf5fe1049e99851ba1050a9516e6" target="_top" xlink:title=" ">
<polygon fill="#ffffff" stroke="#000000" points="609.5,-191 609.5,-221 751.5,-221 751.5,-191 609.5,-191"/>
<text text-anchor="start" x="617.5" y="-209" font-family="Helvetica,sans-Serif" font-size="10.00" fill="#000000">InfoGraphicsView::getInfo</text>
<text text-anchor="middle" x="680.5" y="-198" font-family="Helvetica,sans-Serif" font-size="10.00" fill="#000000">GraphicsView</text>
</a>
</g>
</g>
<!-- Node279&#45;&gt;Node280 -->
<g id="edge4" class="edge">
<title>Node279&#45;&gt;Node280</title>
<path fill="none" stroke="#191970" d="M515.2839,-171.5473C539.8955,-176.6796 570.9722,-183.1601 599.5147,-189.1121"/>
<polygon fill="#191970" stroke="#191970" points="598.9862,-192.5771 609.4901,-191.1922 600.4152,-185.7245 598.9862,-192.5771"/>
</g>
<!-- Node281 -->
<g id="node6" class="node">
<title>Node281</title>
<g id="a_node6"><a xlink:href="../../d8/d86/classInfoGraphicsView.html#a1dd92a9bf4edda18449f602dacba5105" target="_top" xlink:title=" ">
<polygon fill="#ffffff" stroke="#000000" points="587,-152.5 587,-171.5 774,-171.5 774,-152.5 587,-152.5"/>
<text text-anchor="middle" x="680.5" y="-159.5" font-family="Helvetica,sans-Serif" font-size="10.00" fill="#000000">InfoGraphicsView::hoverLeaveItem</text>
</a>
</g>
</g>
<!-- Node279&#45;&gt;Node281 -->
<g id="edge5" class="edge">
<title>Node279&#45;&gt;Node281</title>
<path fill="none" stroke="#191970" d="M546.5715,-162C556.3721,-162 566.5264,-162 576.6602,-162"/>
<polygon fill="#191970" stroke="#191970" points="576.7734,-165.5001 586.7734,-162 576.7733,-158.5001 576.7734,-165.5001"/>
</g>
<!-- Node284 -->
<g id="node9" class="node">
<title>Node284</title>
<g id="a_node9"><a xlink:href="../../d4/d4f/classItemBase.html#a0dc00dd5fae3c515c72daa4216f8eef4" target="_top" xlink:title=" ">
<polygon fill="#ffffff" stroke="#000000" points="614.5,-114.5 614.5,-133.5 746.5,-133.5 746.5,-114.5 614.5,-114.5"/>
<text text-anchor="middle" x="680.5" y="-121.5" font-family="Helvetica,sans-Serif" font-size="10.00" fill="#000000">ItemBase::hoverUpdate</text>
</a>
</g>
</g>
<!-- Node279&#45;&gt;Node284 -->
<g id="edge8" class="edge">
<title>Node279&#45;&gt;Node284</title>
<path fill="none" stroke="#191970" d="M522.4719,-152.46C551.3168,-147.2652 587.1952,-140.8037 617.4717,-135.3511"/>
<polygon fill="#191970" stroke="#191970" points="618.2851,-138.761 627.5063,-133.5439 617.0443,-131.8718 618.2851,-138.761"/>
</g>
<!-- Node282 -->
<g id="node7" class="node">
<title>Node282</title>
<g id="a_node7"><a xlink:href="../../db/d71/classHtmlInfoView.html#a13ad74fbef803eed7d55de1cfe3cebe4" target="_top" xlink:title=" ">
<polygon fill="#ffffff" stroke="#000000" points="810,-152.5 810,-171.5 978,-171.5 978,-152.5 810,-152.5"/>
<text text-anchor="middle" x="894" y="-159.5" font-family="Helvetica,sans-Serif" font-size="10.00" fill="#000000">HtmlInfoView::hoverLeaveItem</text>
</a>
</g>
</g>
<!-- Node281&#45;&gt;Node282 -->
<g id="edge6" class="edge">
<title>Node281&#45;&gt;Node282</title>
<path fill="none" stroke="#191970" d="M774.1442,-162C782.5875,-162 791.1419,-162 799.5917,-162"/>
<polygon fill="#191970" stroke="#191970" points="799.8323,-165.5001 809.8323,-162 799.8322,-158.5001 799.8323,-165.5001"/>
</g>
<!-- Node283 -->
<g id="node8" class="node">
<title>Node283</title>
<g id="a_node8"><a xlink:href="../../d4/d4f/classItemBase.html#abf6d16e250a353043cd4953ddc049bd0" target="_top" xlink:title=" ">
<polygon fill="#ffffff" stroke="#000000" points="826.5,-76.5 826.5,-95.5 961.5,-95.5 961.5,-76.5 826.5,-76.5"/>
<text text-anchor="middle" x="894" y="-83.5" font-family="Helvetica,sans-Serif" font-size="10.00" fill="#000000">ItemBase::layerKinChief</text>
</a>
</g>
</g>
<!-- Node281&#45;&gt;Node283 -->
<g id="edge7" class="edge">
<title>Node281&#45;&gt;Node283</title>
<path fill="none" stroke="#191970" d="M738.9347,-152.4041C750.6835,-149.8401 762.8436,-146.7214 774,-143 807.6518,-131.7748 844.184,-113.4623 867.9879,-100.631"/>
<polygon fill="#191970" stroke="#191970" points="869.9646,-103.5393 877.0611,-95.6723 866.6076,-97.3968 869.9646,-103.5393"/>
</g>
<!-- Node287 -->
<g id="node12" class="node">
<title>Node287</title>
<g id="a_node12"><a xlink:href="../../de/dba/classCursorMaster.html#a0f97a63c61fd8ccf6f6c30ad18c7fa76" target="_top" xlink:title=" ">
<polygon fill="#ffffff" stroke="#000000" points="605.5,-76.5 605.5,-95.5 755.5,-95.5 755.5,-76.5 605.5,-76.5"/>
<text text-anchor="middle" x="680.5" y="-83.5" font-family="Helvetica,sans-Serif" font-size="10.00" fill="#000000">CursorMaster::deleteCursor</text>
</a>
</g>
</g>
<!-- Node286&#45;&gt;Node287 -->
<g id="edge11" class="edge">
<title>Node286&#45;&gt;Node287</title>
<path fill="none" stroke="#191970" d="M548.0686,-79.4494C563.447,-79.2171 579.6435,-79.1878 595.2282,-79.3615"/>
<polygon fill="#191970" stroke="#191970" points="595.318,-82.863 605.3665,-79.5049 595.417,-75.8637 595.318,-82.863"/>
</g>
<!-- Node287&#45;&gt;Node286 -->
<g id="edge12" class="edge">
<title>Node287&#45;&gt;Node286</title>
<path fill="none" stroke="#191970" d="M605.3665,-92.4951C590.1185,-92.7578 573.9453,-92.8174 558.2771,-92.6741"/>
<polygon fill="#191970" stroke="#191970" points="558.1102,-89.1719 548.0686,-92.5506 558.0255,-96.1714 558.1102,-89.1719"/>
</g>
<!-- Node288&#45;&gt;Node283 -->
<g id="edge14" class="edge">
<title>Node288&#45;&gt;Node283</title>
<path fill="none" stroke="#191970" d="M352.2025,-48.0945C451.6375,-48.8914 625.6387,-52.502 774,-67 793.1293,-68.8693 813.8445,-71.8152 832.5929,-74.8343"/>
<polygon fill="#191970" stroke="#191970" points="832.0545,-78.2928 842.4903,-76.4635 833.1915,-71.3857 832.0545,-78.2928"/>
</g>
<!-- Node289 -->
<g id="node14" class="node">
<title>Node289</title>
<g id="a_node14"><a xlink:href="../../d4/d4f/classItemBase.html#acc32076e751f0e21ffb9050f275d3b87" target="_top" xlink:title=" ">
<polygon fill="#ffffff" stroke="#000000" points="414.5,-.5 414.5,-19.5 524.5,-19.5 524.5,-.5 414.5,-.5"/>
<text text-anchor="middle" x="469.5" y="-7.5" font-family="Helvetica,sans-Serif" font-size="10.00" fill="#000000">ItemBase::layerKin</text>
</a>
</g>
</g>
<!-- Node288&#45;&gt;Node289 -->
<g id="edge15" class="edge">
<title>Node288&#45;&gt;Node289</title>
<path fill="none" stroke="#191970" d="M321.2082,-38.46C348.0406,-33.3104 381.3588,-26.916 409.6126,-21.4935"/>
<polygon fill="#191970" stroke="#191970" points="410.6103,-24.866 419.7714,-19.5439 409.2909,-17.9915 410.6103,-24.866"/>
</g>
</g>
</svg>
        <g id="navigator" transform="translate(0 0)" fill="#404254">
                <rect fill="#f2f5e9" fill-opacity="0.5" stroke="#606060" stroke-width=".5" x="0" y="0" width="60" height="60"/>
                <use id="zoomplus" xlink:href="#zoomPlus" x="17" y="9" onmousedown="handleZoom(evt,'in')"/>
                <use id="zoomminus" xlink:href="#zoomMin" x="42" y="9" onmousedown="handleZoom(evt,'out')"/>
                <use id="reset" xlink:href="#resetDef" x="30" y="36" onmousedown="handleReset()"/>
                <g id="arrowUp" xlink:href="#dirArrow" transform="translate(30 24)" onmousedown="handlePan(0,-1)">
                  <use xlink:href="#rim" fill="#404040">
                        <set attributeName="fill" to="#808080" begin="arrowUp.mouseover" end="arrowUp.mouseout"/>
                  </use>
                  <path fill="none" stroke="white" stroke-width="1.5" d="M0,-3.0v7 M-2.5,-0.5L0,-3.0L2.5,-0.5"/>
                </g>
                <g id="arrowRight" xlink:href="#dirArrow" transform="rotate(90) translate(36 -43)" onmousedown="handlePan(1,0)">
                  <use xlink:href="#rim" fill="#404040">
                        <set attributeName="fill" to="#808080" begin="arrowRight.mouseover" end="arrowRight.mouseout"/>
                  </use>
                  <path fill="none" stroke="white" stroke-width="1.5" d="M0,-3.0v7 M-2.5,-0.5L0,-3.0L2.5,-0.5"/>
                </g>
                <g id="arrowDown" xlink:href="#dirArrow" transform="rotate(180) translate(-30 -48)" onmousedown="handlePan(0,1)">
                  <use xlink:href="#rim" fill="#404040">
                        <set attributeName="fill" to="#808080" begin="arrowDown.mouseover" end="arrowDown.mouseout"/>
                  </use>
                  <path fill="none" stroke="white" stroke-width="1.5" d="M0,-3.0v7 M-2.5,-0.5L0,-3.0L2.5,-0.5"/>
                </g>
                <g id="arrowLeft" xlink:href="#dirArrow" transform="rotate(270) translate(-36 17)" onmousedown="handlePan(-1,0)">
                  <use xlink:href="#rim" fill="#404040">
                        <set attributeName="fill" to="#808080" begin="arrowLeft.mouseover" end="arrowLeft.mouseout"/>
                  </use>
                  <path fill="none" stroke="white" stroke-width="1.5" d="M0,-3.0v7 M-2.5,-0.5L0,-3.0L2.5,-0.5"/>
                </g>
        </g>
        <svg viewBox="0 0 15 15" width="100%" height="30px" preserveAspectRatio="xMaxYMin meet">
         <g id="arrow_out" transform="scale(0.3 0.3)">
          <a xlink:href="classResizableBoard_aaf3b724572205df128b400ba698477f7_cgraph_org.svg" target="_base">
           <rect id="button" ry="5" rx="5" y="6" x="6" height="38" width="38"
                fill="#f2f5e9" fill-opacity="0.5" stroke="#606060" stroke-width="1.0"/>
           <path id="arrow"
             d="M 11.500037,31.436501 C 11.940474,20.09759 22.043105,11.32322 32.158766,21.979434 L 37.068811,17.246167 C 37.068811,17.246167 37.088388,32 37.088388,32 L 22.160133,31.978069 C 22.160133,31.978069 26.997745,27.140456 26.997745,27.140456 C 18.528582,18.264221 13.291696,25.230495 11.500037,31.436501 z"
             style="fill:#404040;"/>
          </a>
         </g>
        </svg>
</svg>
