<?xml version="1.0" encoding="UTF-8" standalone="no"?>
<!DOCTYPE svg PUBLIC "-//W3C//DTD SVG 1.1//EN"
 "http://www.w3.org/Graphics/SVG/1.1/DTD/svg11.dtd">
<!-- Generated by graphviz version 2.40.1 (0)
 -->
<!-- Title: ResizableBoard::getShapeForRenderer Pages: 1 -->
<svg width="722pt" height="204pt"
 viewBox="0.00 0.00 722.00 203.50" xmlns="http://www.w3.org/2000/svg" xmlns:xlink="http://www.w3.org/1999/xlink">
<g id="graph0" class="graph" transform="scale(1 1) rotate(0) translate(4 199.5)">
<title>ResizableBoard::getShapeForRenderer</title>
<polygon fill="#ffffff" stroke="transparent" points="-4,4 -4,-199.5 718,-199.5 718,4 -4,4"/>
<!-- Node212 -->
<g id="node1" class="node">
<title>Node212</title>
<g id="a_node1"><a xlink:title=" ">
<polygon fill="#bfbfbf" stroke="#000000" points="0,-82.5 0,-112.5 144,-112.5 144,-82.5 0,-82.5"/>
<text text-anchor="start" x="8" y="-100.5" font-family="Helvetica,sans-Serif" font-size="10.00" fill="#000000">ResizableBoard::getShape</text>
<text text-anchor="middle" x="72" y="-89.5" font-family="Helvetica,sans-Serif" font-size="10.00" fill="#000000">ForRenderer</text>
</a>
</g>
</g>
<!-- Node213 -->
<g id="node2" class="node">
<title>Node213</title>
<g id="a_node2"><a xlink:href="../../d1/d4b/classSvgFileSplitter.html#aa6cd470a216c5eb05a0f7e570a677a7e" target="_top" xlink:title=" ">
<polygon fill="#ffffff" stroke="#000000" points="184,-176 184,-195 349,-195 349,-176 184,-176"/>
<text text-anchor="middle" x="266.5" y="-183" font-family="Helvetica,sans-Serif" font-size="10.00" fill="#000000">SvgFileSplitter::domDocument</text>
</a>
</g>
</g>
<!-- Node212&#45;&gt;Node213 -->
<g id="edge1" class="edge">
<title>Node212&#45;&gt;Node213</title>
<path fill="none" stroke="#191970" d="M91.1358,-112.7117C111.8675,-128.4507 146.4886,-152.632 180,-166.5 186.2044,-169.0676 192.8093,-171.3121 199.4975,-173.269"/>
<polygon fill="#191970" stroke="#191970" points="198.7514,-176.6931 209.319,-175.9345 200.5849,-169.9374 198.7514,-176.6931"/>
</g>
<!-- Node214 -->
<g id="node3" class="node">
<title>Node214</title>
<g id="a_node3"><a xlink:href="../../d1/d4b/classSvgFileSplitter.html#ab794b4549b9e6e92d8c5fe803e1ee789" target="_top" xlink:title=" ">
<polygon fill="#ffffff" stroke="#000000" points="199.5,-126.5 199.5,-156.5 333.5,-156.5 333.5,-126.5 199.5,-126.5"/>
<text text-anchor="start" x="207.5" y="-144.5" font-family="Helvetica,sans-Serif" font-size="10.00" fill="#000000">SvgFileSplitter::element</text>
<text text-anchor="middle" x="266.5" y="-133.5" font-family="Helvetica,sans-Serif" font-size="10.00" fill="#000000">String</text>
</a>
</g>
</g>
<!-- Node212&#45;&gt;Node214 -->
<g id="edge2" class="edge">
<title>Node212&#45;&gt;Node214</title>
<path fill="none" stroke="#191970" d="M138.3919,-112.5192C155.0428,-116.286 173.0402,-120.3574 190.1341,-124.2244"/>
<polygon fill="#191970" stroke="#191970" points="189.5515,-127.681 200.0773,-126.4738 191.0961,-120.8535 189.5515,-127.681"/>
</g>
<!-- Node216 -->
<g id="node5" class="node">
<title>Node216</title>
<g id="a_node5"><a xlink:href="../../d1/d4b/classSvgFileSplitter.html#a04c3149e72e5ca81756b410bef02aa89" target="_top" xlink:title=" ">
<polygon fill="#ffffff" stroke="#000000" points="195,-88 195,-107 338,-107 338,-88 195,-88"/>
<text text-anchor="middle" x="266.5" y="-95" font-family="Helvetica,sans-Serif" font-size="10.00" fill="#000000">SvgFileSplitter::splitString</text>
</a>
</g>
</g>
<!-- Node212&#45;&gt;Node216 -->
<g id="edge4" class="edge">
<title>Node212&#45;&gt;Node216</title>
<path fill="none" stroke="#191970" d="M144.1482,-97.5C157.3293,-97.5 171.1708,-97.5 184.6107,-97.5"/>
<polygon fill="#191970" stroke="#191970" points="184.7925,-101.0001 194.7924,-97.5 184.7924,-94.0001 184.7925,-101.0001"/>
</g>
<!-- Node220 -->
<g id="node9" class="node">
<title>Node220</title>
<g id="a_node9"><a xlink:href="../../d4/d4f/classItemBase.html#a8f16baa26ee92ac6cd8dda5c69d759d4" target="_top" xlink:title=" ">
<polygon fill="#ffffff" stroke="#000000" points="201.5,-50 201.5,-69 331.5,-69 331.5,-50 201.5,-50"/>
<text text-anchor="middle" x="266.5" y="-57" font-family="Helvetica,sans-Serif" font-size="10.00" fill="#000000">ItemBase::viewLayerID</text>
</a>
</g>
</g>
<!-- Node212&#45;&gt;Node220 -->
<g id="edge9" class="edge">
<title>Node212&#45;&gt;Node220</title>
<path fill="none" stroke="#191970" d="M144.1482,-83.4042C165.1424,-79.3025 187.812,-74.8735 207.8659,-70.9555"/>
<polygon fill="#191970" stroke="#191970" points="208.6423,-74.3701 217.7856,-69.0175 207.3,-67.5 208.6423,-74.3701"/>
</g>
<!-- Node221 -->
<g id="node10" class="node">
<title>Node221</title>
<g id="a_node10"><a xlink:href="../../d5/d9d/classViewLayer.html#a57a288e6d73ae234b8a739f20964e026" target="_top" xlink:title=" ">
<polygon fill="#ffffff" stroke="#000000" points="180,-.5 180,-30.5 353,-30.5 353,-.5 180,-.5"/>
<text text-anchor="start" x="188" y="-18.5" font-family="Helvetica,sans-Serif" font-size="10.00" fill="#000000">ViewLayer::viewLayerXmlName</text>
<text text-anchor="middle" x="266.5" y="-7.5" font-family="Helvetica,sans-Serif" font-size="10.00" fill="#000000">FromID</text>
</a>
</g>
</g>
<!-- Node212&#45;&gt;Node221 -->
<g id="edge10" class="edge">
<title>Node212&#45;&gt;Node221</title>
<path fill="none" stroke="#191970" d="M97.0463,-82.3954C118.4982,-69.9231 150.5081,-52.3988 180,-40.5 185.8983,-38.1203 192.1067,-35.8655 198.3777,-33.756"/>
<polygon fill="#191970" stroke="#191970" points="199.8104,-36.9712 208.248,-30.5637 197.6562,-30.3109 199.8104,-36.9712"/>
</g>
<!-- Node215 -->
<g id="node4" class="node">
<title>Node215</title>
<g id="a_node4"><a xlink:href="../../de/db8/classTextUtils.html#a9c93bbc63a055b95d8f991efc2a58caa" target="_top" xlink:title=" ">
<polygon fill="#ffffff" stroke="#000000" points="389,-126.5 389,-156.5 535,-156.5 535,-126.5 389,-126.5"/>
<text text-anchor="start" x="397" y="-144.5" font-family="Helvetica,sans-Serif" font-size="10.00" fill="#000000">TextUtils::findElementWith</text>
<text text-anchor="middle" x="462" y="-133.5" font-family="Helvetica,sans-Serif" font-size="10.00" fill="#000000">Attribute</text>
</a>
</g>
</g>
<!-- Node214&#45;&gt;Node215 -->
<g id="edge3" class="edge">
<title>Node214&#45;&gt;Node215</title>
<path fill="none" stroke="#191970" d="M333.5065,-141.5C347.9657,-141.5 363.4241,-141.5 378.4272,-141.5"/>
<polygon fill="#191970" stroke="#191970" points="378.7235,-145.0001 388.7234,-141.5 378.7234,-138.0001 378.7235,-145.0001"/>
</g>
<!-- Node216&#45;&gt;Node215 -->
<g id="edge8" class="edge">
<title>Node216&#45;&gt;Node215</title>
<path fill="none" stroke="#191970" d="M308.9206,-107.0473C331.2264,-112.0676 359.2636,-118.3777 385.2283,-124.2215"/>
<polygon fill="#191970" stroke="#191970" points="384.5374,-127.6534 395.0618,-126.4346 386.0744,-120.8243 384.5374,-127.6534"/>
</g>
<!-- Node217 -->
<g id="node6" class="node">
<title>Node217</title>
<g id="a_node6"><a xlink:href="../../de/db8/classTextUtils.html#ac0c7a9b1491c032137630e8603fda02d" target="_top" xlink:title=" ">
<polygon fill="#ffffff" stroke="#000000" points="395,-88 395,-107 529,-107 529,-88 395,-88"/>
<text text-anchor="middle" x="462" y="-95" font-family="Helvetica,sans-Serif" font-size="10.00" fill="#000000">TextUtils::cleanSodipodi</text>
</a>
</g>
</g>
<!-- Node216&#45;&gt;Node217 -->
<g id="edge5" class="edge">
<title>Node216&#45;&gt;Node217</title>
<path fill="none" stroke="#191970" d="M338.1869,-97.5C353.2392,-97.5 369.1809,-97.5 384.4368,-97.5"/>
<polygon fill="#191970" stroke="#191970" points="384.8696,-101.0001 394.8696,-97.5 384.8696,-94.0001 384.8696,-101.0001"/>
</g>
<!-- Node218 -->
<g id="node7" class="node">
<title>Node218</title>
<g id="a_node7"><a xlink:href="../../dc/d19/textutils_8cpp.html#ac58f1d5d4da5efbedabefd640c66243d" target="_top" xlink:title=" ">
<polygon fill="#ffffff" stroke="#000000" points="571,-107 571,-126 714,-126 714,-107 571,-107"/>
<text text-anchor="middle" x="642.5" y="-114" font-family="Helvetica,sans-Serif" font-size="10.00" fill="#000000">SodipodiAttributeDetector</text>
</a>
</g>
</g>
<!-- Node217&#45;&gt;Node218 -->
<g id="edge6" class="edge">
<title>Node217&#45;&gt;Node218</title>
<path fill="none" stroke="#191970" d="M529.2115,-104.5749C539.5417,-105.6623 550.3034,-106.7951 560.9044,-107.911"/>
<polygon fill="#191970" stroke="#191970" points="560.6881,-111.4075 570.9996,-108.9736 561.421,-104.4459 560.6881,-111.4075"/>
</g>
<!-- Node219 -->
<g id="node8" class="node">
<title>Node219</title>
<g id="a_node8"><a xlink:href="../../dc/d19/textutils_8cpp.html#a259d69e4c2978224b86a5edcdd2049fa" target="_top" xlink:title=" ">
<polygon fill="#ffffff" stroke="#000000" points="572,-69 572,-88 713,-88 713,-69 572,-69"/>
<text text-anchor="middle" x="642.5" y="-76" font-family="Helvetica,sans-Serif" font-size="10.00" fill="#000000">SodipodiElementDetector</text>
</a>
</g>
</g>
<!-- Node217&#45;&gt;Node219 -->
<g id="edge7" class="edge">
<title>Node217&#45;&gt;Node219</title>
<path fill="none" stroke="#191970" d="M529.2115,-90.4251C539.8784,-89.3023 551.0054,-88.131 561.9405,-86.98"/>
<polygon fill="#191970" stroke="#191970" points="562.3316,-90.4582 571.9102,-85.9305 561.5987,-83.4967 562.3316,-90.4582"/>
</g>
<!-- Node222 -->
<g id="node11" class="node">
<title>Node222</title>
<g id="a_node11"><a xlink:href="../../d5/d9d/classViewLayer.html#acda6179880454250f27ee4ed167b6983" target="_top" xlink:title=" ">
<polygon fill="#ffffff" stroke="#000000" points="395,-6 395,-25 529,-25 529,-6 395,-6"/>
<text text-anchor="middle" x="462" y="-13" font-family="Helvetica,sans-Serif" font-size="10.00" fill="#000000">ViewLayer::viewLayerID</text>
</a>
</g>
</g>
<!-- Node221&#45;&gt;Node222 -->
<g id="edge11" class="edge">
<title>Node221&#45;&gt;Node222</title>
<path fill="none" stroke="#191970" d="M353.1029,-15.5C363.5972,-15.5 374.2651,-15.5 384.6144,-15.5"/>
<polygon fill="#191970" stroke="#191970" points="384.8392,-19.0001 394.8391,-15.5 384.8391,-12.0001 384.8392,-19.0001"/>
</g>
</g>
</svg>
