<?xml version="1.0" encoding="UTF-8" standalone="no"?>
<!DOCTYPE svg PUBLIC "-//W3C//DTD SVG 1.1//EN"
 "http://www.w3.org/Graphics/SVG/1.1/DTD/svg11.dtd">
<!-- Generated by graphviz version 2.40.1 (0)
 -->
<!-- Title: debugdialog.cpp Pages: 1 -->
<!--zoomable 196 -->
<svg id="main" version="1.1" xmlns="http://www.w3.org/2000/svg" xmlns:xlink="http://www.w3.org/1999/xlink" xml:space="preserve" onload="init(evt)">
<style type="text/css"><![CDATA[
.edge:hover path { stroke: red; }
.edge:hover polygon { stroke: red; fill: red; }
]]></style>
<script type="text/javascript"><![CDATA[
var edges = document.getElementsByTagName('g');
if (edges && edges.length) {
  for (var i=0;i<edges.length;i++) {
    if (edges[i].id.substr(0,4)=='edge') {
      edges[i].setAttribute('class','edge');
    }
  }
}
]]></script>
        <defs>
                <circle id="rim" cx="0" cy="0" r="7"/>
                <circle id="rim2" cx="0" cy="0" r="3.5"/>
                <g id="zoomPlus">
                        <use xlink:href="#rim" fill="#404040">
                                <set attributeName="fill" to="#808080" begin="zoomplus.mouseover" end="zoomplus.mouseout"/>
                        </use>
                        <path d="M-4,0h8M0,-4v8" fill="none" stroke="white" stroke-width="1.5" pointer-events="none"/>
                </g>
                <g id="zoomMin">
                        <use xlink:href="#rim" fill="#404040">
                                <set attributeName="fill" to="#808080" begin="zoomminus.mouseover" end="zoomminus.mouseout"/>
                        </use>
                        <path d="M-4,0h8" fill="none" stroke="white" stroke-width="1.5" pointer-events="none"/>
                </g>
                <g id="dirArrow">
                        <path fill="none" stroke="white" stroke-width="1.5" d="M0,-3.0v7 M-2.5,-0.5L0,-3.0L2.5,-0.5"/>
                </g>
               <g id="resetDef">
                       <use xlink:href="#rim2" fill="#404040">
                               <set attributeName="fill" to="#808080" begin="reset.mouseover" end="reset.mouseout"/>
                       </use>
               </g>
        </defs>

<script type="text/javascript">
var viewWidth = 1022;
var viewHeight = 196;
var sectionId = 'dynsection-0';
</script>
<script xlink:href="../../svgpan.js"/>
<svg id="graph" class="graph">
<g id="viewport">
<title>debugdialog.cpp</title>
<polygon fill="#ffffff" stroke="transparent" points="-4,4 -4,-192 1018,-192 1018,4 -4,4"/>
<!-- Node0 -->
<g id="node1" class="node">
<title>Node0</title>
<g id="a_node1"><a xlink:title=" ">
<polygon fill="#bfbfbf" stroke="#000000" points="597.5,-168.5 597.5,-187.5 694.5,-187.5 694.5,-168.5 597.5,-168.5"/>
<text text-anchor="middle" x="646" y="-175.5" font-family="Helvetica,sans-Serif" font-size="10.00" fill="#000000">debugdialog.cpp</text>
</a>
</g>
</g>
<!-- Node1 -->
<g id="node2" class="node">
<title>Node1</title>
<g id="a_node2"><a xlink:href="../../df/db5/debugdialog_8h.html" target="_top" xlink:title=" ">
<polygon fill="#ffffff" stroke="#000000" points="212,-112.5 212,-131.5 298,-131.5 298,-112.5 212,-112.5"/>
<text text-anchor="middle" x="255" y="-119.5" font-family="Helvetica,sans-Serif" font-size="10.00" fill="#000000">debugdialog.h</text>
</a>
</g>
</g>
<!-- Node0&#45;&gt;Node1 -->
<g id="edge1" class="edge">
<title>Node0&#45;&gt;Node1</title>
<path fill="none" stroke="#191970" d="M597.2702,-171.0208C523.6571,-160.4777 384.6186,-140.5643 308.3633,-129.6428"/>
<polygon fill="#191970" stroke="#191970" points="308.4286,-126.1165 298.0333,-128.1633 307.4361,-133.0458 308.4286,-126.1165"/>
</g>
<!-- Node3 -->
<g id="node4" class="node">
<title>Node3</title>
<g id="a_node4"><a xlink:title=" ">
<polygon fill="#ffffff" stroke="#bfbfbf" points="0,-56.5 0,-75.5 52,-75.5 52,-56.5 0,-56.5"/>
<text text-anchor="middle" x="26" y="-63.5" font-family="Helvetica,sans-Serif" font-size="10.00" fill="#000000">QEvent</text>
</a>
</g>
</g>
<!-- Node0&#45;&gt;Node3 -->
<g id="edge23" class="edge">
<title>Node0&#45;&gt;Node3</title>
<path fill="none" stroke="#191970" d="M597.4824,-176.9662C515.2675,-174.3291 343.7805,-164.9909 203,-132 149.671,-119.5027 90.5903,-95.2208 55.9606,-79.8498"/>
<polygon fill="#191970" stroke="#191970" points="57.0055,-76.4824 46.4493,-75.5783 54.1377,-82.868 57.0055,-76.4824"/>
</g>
<!-- Node5 -->
<g id="node6" class="node">
<title>Node5</title>
<g id="a_node6"><a xlink:title=" ">
<polygon fill="#ffffff" stroke="#bfbfbf" points="302.5,-56.5 302.5,-75.5 343.5,-75.5 343.5,-56.5 302.5,-56.5"/>
<text text-anchor="middle" x="323" y="-63.5" font-family="Helvetica,sans-Serif" font-size="10.00" fill="#000000">QFile</text>
</a>
</g>
</g>
<!-- Node0&#45;&gt;Node5 -->
<g id="edge25" class="edge">
<title>Node0&#45;&gt;Node5</title>
<path fill="none" stroke="#191970" d="M598.4035,-168.4472C561.4757,-160.4295 509.2903,-147.7658 465,-132 423.7618,-117.3206 378.2234,-94.9974 350.108,-80.4529"/>
<polygon fill="#191970" stroke="#191970" points="351.4098,-77.1842 340.9254,-75.658 348.1697,-83.3892 351.4098,-77.1842"/>
</g>
<!-- Node11 -->
<g id="node12" class="node">
<title>Node11</title>
<g id="a_node12"><a xlink:title=" ">
<polygon fill="#ffffff" stroke="#bfbfbf" points="612,-.5 612,-19.5 650,-19.5 650,-.5 612,-.5"/>
<text text-anchor="middle" x="631" y="-7.5" font-family="Helvetica,sans-Serif" font-size="10.00" fill="#000000">QDir</text>
</a>
</g>
</g>
<!-- Node0&#45;&gt;Node11 -->
<g id="edge27" class="edge">
<title>Node0&#45;&gt;Node11</title>
<path fill="none" stroke="#191970" d="M645.1506,-168.4862C642.7794,-141.9293 636.0505,-66.5651 632.8005,-30.1655"/>
<polygon fill="#191970" stroke="#191970" points="636.253,-29.477 631.8775,-19.8279 629.2808,-30.0996 636.253,-29.477"/>
</g>
<!-- Node17 -->
<g id="node18" class="node">
<title>Node17</title>
<g id="a_node18"><a xlink:href="../../d8/d3a/folderutils_8h.html" target="_top" xlink:title=" ">
<polygon fill="#ffffff" stroke="#000000" points="473.5,-112.5 473.5,-131.5 572.5,-131.5 572.5,-112.5 473.5,-112.5"/>
<text text-anchor="middle" x="523" y="-119.5" font-family="Helvetica,sans-Serif" font-size="10.00" fill="#000000">utils/folderutils.h</text>
</a>
</g>
</g>
<!-- Node0&#45;&gt;Node17 -->
<g id="edge17" class="edge">
<title>Node0&#45;&gt;Node17</title>
<path fill="none" stroke="#191970" d="M624.8555,-168.3733C605.1108,-159.3838 575.4302,-145.8706 553.1945,-135.7471"/>
<polygon fill="#191970" stroke="#191970" points="554.42,-132.4594 543.8685,-131.5011 551.5194,-138.8302 554.42,-132.4594"/>
</g>
<!-- Node19 -->
<g id="node20" class="node">
<title>Node19</title>
<g id="a_node20"><a xlink:title=" ">
<polygon fill="#ffffff" stroke="#bfbfbf" points="674.5,-112.5 674.5,-131.5 775.5,-131.5 775.5,-112.5 674.5,-112.5"/>
<text text-anchor="middle" x="725" y="-119.5" font-family="Helvetica,sans-Serif" font-size="10.00" fill="#000000">QCoreApplication</text>
</a>
</g>
</g>
<!-- Node0&#45;&gt;Node19 -->
<g id="edge24" class="edge">
<title>Node0&#45;&gt;Node19</title>
<path fill="none" stroke="#191970" d="M659.7607,-168.2455C671.6552,-159.814 689.065,-147.4729 702.9085,-137.6598"/>
<polygon fill="#191970" stroke="#191970" points="705.2628,-140.2811 711.3969,-131.6427 701.2146,-134.5704 705.2628,-140.2811"/>
</g>
<!-- Node20 -->
<g id="node21" class="node">
<title>Node20</title>
<g id="a_node21"><a xlink:title=" ">
<polygon fill="#ffffff" stroke="#bfbfbf" points="794,-112.5 794,-131.5 874,-131.5 874,-112.5 794,-112.5"/>
<text text-anchor="middle" x="834" y="-119.5" font-family="Helvetica,sans-Serif" font-size="10.00" fill="#000000">QTextStream</text>
</a>
</g>
</g>
<!-- Node0&#45;&gt;Node20 -->
<g id="edge26" class="edge">
<title>Node0&#45;&gt;Node20</title>
<path fill="none" stroke="#191970" d="M678.3184,-168.3733C709.8506,-158.9807 757.9621,-144.6496 792.3501,-134.4064"/>
<polygon fill="#191970" stroke="#191970" points="793.5187,-137.7103 802.1034,-131.5011 791.5203,-131.0016 793.5187,-137.7103"/>
</g>
<!-- Node21 -->
<g id="node22" class="node">
<title>Node21</title>
<g id="a_node22"><a xlink:title=" ">
<polygon fill="#ffffff" stroke="#bfbfbf" points="892.5,-112.5 892.5,-131.5 951.5,-131.5 951.5,-112.5 892.5,-112.5"/>
<text text-anchor="middle" x="922" y="-119.5" font-family="Helvetica,sans-Serif" font-size="10.00" fill="#000000">QtDebug</text>
</a>
</g>
</g>
<!-- Node0&#45;&gt;Node21 -->
<g id="edge28" class="edge">
<title>Node0&#45;&gt;Node21</title>
<path fill="none" stroke="#191970" d="M694.7433,-169.4122C740.6229,-161.1329 811.4681,-147.8465 882.249,-132.0687"/>
<polygon fill="#191970" stroke="#191970" points="883.2435,-135.4326 892.2334,-129.8261 881.7095,-128.6027 883.2435,-135.4326"/>
</g>
<!-- Node22 -->
<g id="node23" class="node">
<title>Node22</title>
<g id="a_node23"><a xlink:title=" ">
<polygon fill="#ffffff" stroke="#bfbfbf" points="970,-112.5 970,-131.5 1014,-131.5 1014,-112.5 970,-112.5"/>
<text text-anchor="middle" x="992" y="-119.5" font-family="Helvetica,sans-Serif" font-size="10.00" fill="#000000">QIcon</text>
</a>
</g>
</g>
<!-- Node0&#45;&gt;Node22 -->
<g id="edge29" class="edge">
<title>Node0&#45;&gt;Node22</title>
<path fill="none" stroke="#191970" d="M694.7675,-173.432C755.0716,-167.2207 860.9084,-154.4844 959.9085,-131.9451"/>
<polygon fill="#191970" stroke="#191970" points="960.8212,-135.3265 969.7739,-129.6608 959.2421,-128.5069 960.8212,-135.3265"/>
</g>
<!-- Node2 -->
<g id="node3" class="node">
<title>Node2</title>
<g id="a_node3"><a xlink:title=" ">
<polygon fill="#ffffff" stroke="#bfbfbf" points="70,-56.5 70,-75.5 126,-75.5 126,-56.5 70,-56.5"/>
<text text-anchor="middle" x="98" y="-63.5" font-family="Helvetica,sans-Serif" font-size="10.00" fill="#000000">QDialog</text>
</a>
</g>
</g>
<!-- Node1&#45;&gt;Node2 -->
<g id="edge2" class="edge">
<title>Node1&#45;&gt;Node2</title>
<path fill="none" stroke="#191970" d="M228.0107,-112.3733C202.1301,-103.1419 162.8752,-89.1402 134.2711,-78.9375"/>
<polygon fill="#191970" stroke="#191970" points="135.2317,-75.5642 124.6371,-75.5011 132.88,-82.1573 135.2317,-75.5642"/>
</g>
<!-- Node1&#45;&gt;Node3 -->
<g id="edge3" class="edge">
<title>Node1&#45;&gt;Node3</title>
<path fill="none" stroke="#191970" d="M212.0944,-112.4159C174.8458,-103.9635 119.2378,-91.0301 62.2408,-76.2476"/>
<polygon fill="#191970" stroke="#191970" points="62.8978,-72.8019 52.3381,-73.664 61.1306,-79.5752 62.8978,-72.8019"/>
</g>
<!-- Node4 -->
<g id="node5" class="node">
<title>Node4</title>
<g id="a_node5"><a xlink:title=" ">
<polygon fill="#ffffff" stroke="#bfbfbf" points="144.5,-56.5 144.5,-75.5 207.5,-75.5 207.5,-56.5 144.5,-56.5"/>
<text text-anchor="middle" x="176" y="-63.5" font-family="Helvetica,sans-Serif" font-size="10.00" fill="#000000">QTextEdit</text>
</a>
</g>
</g>
<!-- Node1&#45;&gt;Node4 -->
<g id="edge4" class="edge">
<title>Node1&#45;&gt;Node4</title>
<path fill="none" stroke="#191970" d="M241.2393,-112.2455C229.3448,-103.814 211.935,-91.4729 198.0915,-81.6598"/>
<polygon fill="#191970" stroke="#191970" points="199.7854,-78.5704 189.6031,-75.6427 195.7372,-84.2811 199.7854,-78.5704"/>
</g>
<!-- Node1&#45;&gt;Node5 -->
<g id="edge5" class="edge">
<title>Node1&#45;&gt;Node5</title>
<path fill="none" stroke="#191970" d="M266.8447,-112.2455C276.888,-103.9746 291.4995,-91.9416 303.3004,-82.2232"/>
<polygon fill="#191970" stroke="#191970" points="305.7967,-84.7015 311.291,-75.6427 301.3467,-79.298 305.7967,-84.7015"/>
</g>
<!-- Node6 -->
<g id="node7" class="node">
<title>Node6</title>
<g id="a_node7"><a xlink:title=" ">
<polygon fill="#ffffff" stroke="#bfbfbf" points="225.5,-56.5 225.5,-75.5 284.5,-75.5 284.5,-56.5 225.5,-56.5"/>
<text text-anchor="middle" x="255" y="-63.5" font-family="Helvetica,sans-Serif" font-size="10.00" fill="#000000">QPointer</text>
</a>
</g>
</g>
<!-- Node1&#45;&gt;Node6 -->
<g id="edge6" class="edge">
<title>Node1&#45;&gt;Node6</title>
<path fill="none" stroke="#191970" d="M255,-112.2455C255,-104.9382 255,-94.6944 255,-85.7046"/>
<polygon fill="#191970" stroke="#191970" points="258.5001,-85.6426 255,-75.6427 251.5001,-85.6427 258.5001,-85.6426"/>
</g>
<!-- Node7 -->
<g id="node8" class="node">
<title>Node7</title>
<g id="a_node8"><a xlink:href="../../d4/d08/misc_8h.html" target="_top" xlink:title=" ">
<polygon fill="#ffffff" stroke="#000000" points="361.5,-56.5 361.5,-75.5 434.5,-75.5 434.5,-56.5 361.5,-56.5"/>
<text text-anchor="middle" x="398" y="-63.5" font-family="Helvetica,sans-Serif" font-size="10.00" fill="#000000">utils/misc.h</text>
</a>
</g>
</g>
<!-- Node1&#45;&gt;Node7 -->
<g id="edge7" class="edge">
<title>Node1&#45;&gt;Node7</title>
<path fill="none" stroke="#191970" d="M279.5826,-112.3733C302.9496,-103.2226 338.2862,-89.3844 364.2784,-79.2057"/>
<polygon fill="#191970" stroke="#191970" points="365.703,-82.4066 373.7382,-75.5011 363.1505,-75.8886 365.703,-82.4066"/>
</g>
<!-- Node8 -->
<g id="node9" class="node">
<title>Node8</title>
<g id="a_node9"><a xlink:title=" ">
<polygon fill="#ffffff" stroke="#bfbfbf" points="379.5,-.5 379.5,-19.5 428.5,-19.5 428.5,-.5 379.5,-.5"/>
<text text-anchor="middle" x="404" y="-7.5" font-family="Helvetica,sans-Serif" font-size="10.00" fill="#000000">QHash</text>
</a>
</g>
</g>
<!-- Node7&#45;&gt;Node8 -->
<g id="edge8" class="edge">
<title>Node7&#45;&gt;Node8</title>
<path fill="none" stroke="#191970" d="M399.0451,-56.2455C399.828,-48.9382 400.9256,-38.6944 401.8888,-29.7046"/>
<polygon fill="#191970" stroke="#191970" points="405.3815,-29.9587 402.9669,-19.6427 398.4214,-29.2129 405.3815,-29.9587"/>
</g>
<!-- Node9 -->
<g id="node10" class="node">
<title>Node9</title>
<g id="a_node10"><a xlink:title=" ">
<polygon fill="#ffffff" stroke="#bfbfbf" points="7.5,-.5 7.5,-19.5 62.5,-19.5 62.5,-.5 7.5,-.5"/>
<text text-anchor="middle" x="35" y="-7.5" font-family="Helvetica,sans-Serif" font-size="10.00" fill="#000000">QVector</text>
</a>
</g>
</g>
<!-- Node7&#45;&gt;Node9 -->
<g id="edge9" class="edge">
<title>Node7&#45;&gt;Node9</title>
<path fill="none" stroke="#191970" d="M361.2176,-57.5393C358.4426,-56.989 355.6804,-56.4685 353,-56 232.12,-34.8711 197.2642,-43.987 72.7051,-19.8974"/>
<polygon fill="#191970" stroke="#191970" points="73.2718,-16.4419 62.7842,-17.9459 71.9206,-23.3103 73.2718,-16.4419"/>
</g>
<!-- Node10 -->
<g id="node11" class="node">
<title>Node10</title>
<g id="a_node11"><a xlink:title=" ">
<polygon fill="#ffffff" stroke="#bfbfbf" points="446.5,-.5 446.5,-19.5 499.5,-19.5 499.5,-.5 446.5,-.5"/>
<text text-anchor="middle" x="473" y="-7.5" font-family="Helvetica,sans-Serif" font-size="10.00" fill="#000000">QString</text>
</a>
</g>
</g>
<!-- Node7&#45;&gt;Node10 -->
<g id="edge10" class="edge">
<title>Node7&#45;&gt;Node10</title>
<path fill="none" stroke="#191970" d="M411.064,-56.2455C422.3562,-47.814 438.8845,-35.4729 452.0271,-25.6598"/>
<polygon fill="#191970" stroke="#191970" points="454.1669,-28.4301 460.0857,-19.6427 449.9789,-22.8211 454.1669,-28.4301"/>
</g>
<!-- Node7&#45;&gt;Node11 -->
<g id="edge11" class="edge">
<title>Node7&#45;&gt;Node11</title>
<path fill="none" stroke="#191970" d="M434.8363,-58.1659C474.9009,-49.4868 540.7504,-34.7595 597,-20 598.6775,-19.5598 600.3978,-19.0954 602.1312,-18.6173"/>
<polygon fill="#191970" stroke="#191970" points="603.3372,-21.913 611.9939,-15.8046 601.4174,-15.1813 603.3372,-21.913"/>
</g>
<!-- Node12 -->
<g id="node13" class="node">
<title>Node12</title>
<g id="a_node13"><a xlink:title=" ">
<polygon fill="#ffffff" stroke="#bfbfbf" points="81,-.5 81,-19.5 169,-19.5 169,-.5 81,-.5"/>
<text text-anchor="middle" x="125" y="-7.5" font-family="Helvetica,sans-Serif" font-size="10.00" fill="#000000">QDomElement</text>
</a>
</g>
</g>
<!-- Node7&#45;&gt;Node12 -->
<g id="edge12" class="edge">
<title>Node7&#45;&gt;Node12</title>
<path fill="none" stroke="#191970" d="M361.1758,-57.7553C358.4105,-57.155 355.6619,-56.5642 353,-56 293.6881,-43.4278 225.5208,-29.7796 179.2879,-20.6421"/>
<polygon fill="#191970" stroke="#191970" points="179.6763,-17.1513 169.1878,-18.6487 178.3208,-24.0188 179.6763,-17.1513"/>
</g>
<!-- Node13 -->
<g id="node14" class="node">
<title>Node13</title>
<g id="a_node14"><a xlink:title=" ">
<polygon fill="#ffffff" stroke="#bfbfbf" points="518,-.5 518,-19.5 588,-19.5 588,-.5 518,-.5"/>
<text text-anchor="middle" x="553" y="-7.5" font-family="Helvetica,sans-Serif" font-size="10.00" fill="#000000">QStringList</text>
</a>
</g>
</g>
<!-- Node7&#45;&gt;Node13 -->
<g id="edge13" class="edge">
<title>Node7&#45;&gt;Node13</title>
<path fill="none" stroke="#191970" d="M424.6454,-56.3733C450.1964,-47.1419 488.9512,-33.1402 517.1909,-22.9375"/>
<polygon fill="#191970" stroke="#191970" points="518.4865,-26.1909 526.7022,-19.5011 516.1079,-19.6074 518.4865,-26.1909"/>
</g>
<!-- Node14 -->
<g id="node15" class="node">
<title>Node14</title>
<g id="a_node15"><a xlink:title=" ">
<polygon fill="#ffffff" stroke="#bfbfbf" points="187,-.5 187,-19.5 229,-19.5 229,-.5 187,-.5"/>
<text text-anchor="middle" x="208" y="-7.5" font-family="Helvetica,sans-Serif" font-size="10.00" fill="#000000">QPair</text>
</a>
</g>
</g>
<!-- Node7&#45;&gt;Node14 -->
<g id="edge14" class="edge">
<title>Node7&#45;&gt;Node14</title>
<path fill="none" stroke="#191970" d="M363.2313,-56.4559C332.7679,-47.9934 287.0843,-35.0624 238.9299,-20.2078"/>
<polygon fill="#191970" stroke="#191970" points="239.8578,-16.8311 229.2698,-17.2119 237.7843,-23.517 239.8578,-16.8311"/>
</g>
<!-- Node15 -->
<g id="node16" class="node">
<title>Node15</title>
<g id="a_node16"><a xlink:title=" ">
<polygon fill="#ffffff" stroke="#bfbfbf" points="247.5,-.5 247.5,-19.5 288.5,-19.5 288.5,-.5 247.5,-.5"/>
<text text-anchor="middle" x="268" y="-7.5" font-family="Helvetica,sans-Serif" font-size="10.00" fill="#000000">QList</text>
</a>
</g>
</g>
<!-- Node7&#45;&gt;Node15 -->
<g id="edge15" class="edge">
<title>Node7&#45;&gt;Node15</title>
<path fill="none" stroke="#191970" d="M375.6522,-56.3733C354.2138,-47.1383 321.6925,-33.1291 298.0052,-22.9253"/>
<polygon fill="#191970" stroke="#191970" points="299.3385,-19.6888 288.7696,-18.9469 296.5691,-26.1177 299.3385,-19.6888"/>
</g>
<!-- Node16 -->
<g id="node17" class="node">
<title>Node16</title>
<g id="a_node17"><a xlink:title=" ">
<polygon fill="#ffffff" stroke="#bfbfbf" points="306.5,-.5 306.5,-19.5 361.5,-19.5 361.5,-.5 306.5,-.5"/>
<text text-anchor="middle" x="334" y="-7.5" font-family="Helvetica,sans-Serif" font-size="10.00" fill="#000000">QPointF</text>
</a>
</g>
</g>
<!-- Node7&#45;&gt;Node16 -->
<g id="edge16" class="edge">
<title>Node7&#45;&gt;Node16</title>
<path fill="none" stroke="#191970" d="M386.8521,-56.2455C377.4913,-48.0549 363.9142,-36.1749 352.8651,-26.5069"/>
<polygon fill="#191970" stroke="#191970" points="354.8508,-23.5937 345.0202,-19.6427 350.2412,-28.8618 354.8508,-23.5937"/>
</g>
<!-- Node17&#45;&gt;Node7 -->
<g id="edge22" class="edge">
<title>Node17&#45;&gt;Node7</title>
<path fill="none" stroke="#191970" d="M501.5117,-112.3733C481.356,-103.3435 451.012,-89.7494 428.382,-79.6111"/>
<polygon fill="#191970" stroke="#191970" points="429.7649,-76.3955 419.2079,-75.5011 426.9029,-82.7838 429.7649,-76.3955"/>
</g>
<!-- Node17&#45;&gt;Node10 -->
<g id="edge18" class="edge">
<title>Node17&#45;&gt;Node10</title>
<path fill="none" stroke="#191970" d="M518.737,-112.4509C510.4714,-93.936 492.1335,-52.8591 481.3566,-28.7187"/>
<polygon fill="#191970" stroke="#191970" points="484.5247,-27.2295 477.2522,-19.5249 478.1328,-30.0831 484.5247,-27.2295"/>
</g>
<!-- Node17&#45;&gt;Node11 -->
<g id="edge19" class="edge">
<title>Node17&#45;&gt;Node11</title>
<path fill="none" stroke="#191970" d="M555.5995,-112.4083C574.5822,-105.2484 597.5487,-93.6159 612,-76 622.7411,-62.9067 627.4121,-44.0263 629.4423,-29.8105"/>
<polygon fill="#191970" stroke="#191970" points="632.9499,-29.9335 630.5698,-19.6095 625.9923,-29.1645 632.9499,-29.9335"/>
</g>
<!-- Node17&#45;&gt;Node13 -->
<g id="edge20" class="edge">
<title>Node17&#45;&gt;Node13</title>
<path fill="none" stroke="#191970" d="M520.7673,-112.3324C518.1719,-99.2274 514.9625,-75.2514 521,-56 524.2496,-45.6383 530.7494,-35.5669 537.0471,-27.5026"/>
<polygon fill="#191970" stroke="#191970" points="539.9079,-29.5376 543.6382,-19.6212 534.5381,-25.047 539.9079,-29.5376"/>
</g>
<!-- Node18 -->
<g id="node19" class="node">
<title>Node18</title>
<g id="a_node19"><a xlink:title=" ">
<polygon fill="#ffffff" stroke="#bfbfbf" points="529.5,-56.5 529.5,-75.5 602.5,-75.5 602.5,-56.5 529.5,-56.5"/>
<text text-anchor="middle" x="566" y="-63.5" font-family="Helvetica,sans-Serif" font-size="10.00" fill="#000000">QFileDialog</text>
</a>
</g>
</g>
<!-- Node17&#45;&gt;Node18 -->
<g id="edge21" class="edge">
<title>Node17&#45;&gt;Node18</title>
<path fill="none" stroke="#191970" d="M530.49,-112.2455C536.5326,-104.3761 545.1903,-93.101 552.4441,-83.6542"/>
<polygon fill="#191970" stroke="#191970" points="555.2815,-85.7058 558.5958,-75.6427 549.7295,-81.4426 555.2815,-85.7058"/>
</g>
</g>
</svg>
        <g id="navigator" transform="translate(0 0)" fill="#404254">
                <rect fill="#f2f5e9" fill-opacity="0.5" stroke="#606060" stroke-width=".5" x="0" y="0" width="60" height="60"/>
                <use id="zoomplus" xlink:href="#zoomPlus" x="17" y="9" onmousedown="handleZoom(evt,'in')"/>
                <use id="zoomminus" xlink:href="#zoomMin" x="42" y="9" onmousedown="handleZoom(evt,'out')"/>
                <use id="reset" xlink:href="#resetDef" x="30" y="36" onmousedown="handleReset()"/>
                <g id="arrowUp" xlink:href="#dirArrow" transform="translate(30 24)" onmousedown="handlePan(0,-1)">
                  <use xlink:href="#rim" fill="#404040">
                        <set attributeName="fill" to="#808080" begin="arrowUp.mouseover" end="arrowUp.mouseout"/>
                  </use>
                  <path fill="none" stroke="white" stroke-width="1.5" d="M0,-3.0v7 M-2.5,-0.5L0,-3.0L2.5,-0.5"/>
                </g>
                <g id="arrowRight" xlink:href="#dirArrow" transform="rotate(90) translate(36 -43)" onmousedown="handlePan(1,0)">
                  <use xlink:href="#rim" fill="#404040">
                        <set attributeName="fill" to="#808080" begin="arrowRight.mouseover" end="arrowRight.mouseout"/>
                  </use>
                  <path fill="none" stroke="white" stroke-width="1.5" d="M0,-3.0v7 M-2.5,-0.5L0,-3.0L2.5,-0.5"/>
                </g>
                <g id="arrowDown" xlink:href="#dirArrow" transform="rotate(180) translate(-30 -48)" onmousedown="handlePan(0,1)">
                  <use xlink:href="#rim" fill="#404040">
                        <set attributeName="fill" to="#808080" begin="arrowDown.mouseover" end="arrowDown.mouseout"/>
                  </use>
                  <path fill="none" stroke="white" stroke-width="1.5" d="M0,-3.0v7 M-2.5,-0.5L0,-3.0L2.5,-0.5"/>
                </g>
                <g id="arrowLeft" xlink:href="#dirArrow" transform="rotate(270) translate(-36 17)" onmousedown="handlePan(-1,0)">
                  <use xlink:href="#rim" fill="#404040">
                        <set attributeName="fill" to="#808080" begin="arrowLeft.mouseover" end="arrowLeft.mouseout"/>
                  </use>
                  <path fill="none" stroke="white" stroke-width="1.5" d="M0,-3.0v7 M-2.5,-0.5L0,-3.0L2.5,-0.5"/>
                </g>
        </g>
        <svg viewBox="0 0 15 15" width="100%" height="30px" preserveAspectRatio="xMaxYMin meet">
         <g id="arrow_out" transform="scale(0.3 0.3)">
          <a xlink:href="debugdialog_8cpp__incl_org.svg" target="_base">
           <rect id="button" ry="5" rx="5" y="6" x="6" height="38" width="38"
                fill="#f2f5e9" fill-opacity="0.5" stroke="#606060" stroke-width="1.0"/>
           <path id="arrow"
             d="M 11.500037,31.436501 C 11.940474,20.09759 22.043105,11.32322 32.158766,21.979434 L 37.068811,17.246167 C 37.068811,17.246167 37.088388,32 37.088388,32 L 22.160133,31.978069 C 22.160133,31.978069 26.997745,27.140456 26.997745,27.140456 C 18.528582,18.264221 13.291696,25.230495 11.500037,31.436501 z"
             style="fill:#404040;"/>
          </a>
         </g>
        </svg>
</svg>
