<?xml version="1.0" encoding="UTF-8" standalone="no"?>
<!DOCTYPE svg PUBLIC "-//W3C//DTD SVG 1.1//EN"
 "http://www.w3.org/Graphics/SVG/1.1/DTD/svg11.dtd">
<!-- Generated by graphviz version 2.40.1 (0)
 -->
<!-- Title: TranslatorListModel::locale Pages: 1 -->
<svg width="1220pt" height="176pt"
 viewBox="0.00 0.00 1220.00 175.50" xmlns="http://www.w3.org/2000/svg" xmlns:xlink="http://www.w3.org/1999/xlink">
<g id="graph0" class="graph" transform="scale(1 1) rotate(0) translate(4 171.5)">
<title>TranslatorListModel::locale</title>
<polygon fill="#ffffff" stroke="transparent" points="-4,4 -4,-171.5 1216,-171.5 1216,4 -4,4"/>
<!-- Node20 -->
<g id="node1" class="node">
<title>Node20</title>
<g id="a_node1"><a xlink:title=" ">
<polygon fill="#bfbfbf" stroke="#000000" points="1100,-73.5 1100,-103.5 1212,-103.5 1212,-73.5 1100,-73.5"/>
<text text-anchor="start" x="1108" y="-91.5" font-family="Helvetica,sans-Serif" font-size="10.00" fill="#000000">TranslatorListModel</text>
<text text-anchor="middle" x="1156" y="-80.5" font-family="Helvetica,sans-Serif" font-size="10.00" fill="#000000">::locale</text>
</a>
</g>
</g>
<!-- Node21 -->
<g id="node2" class="node">
<title>Node21</title>
<g id="a_node2"><a xlink:href="../../d6/d65/classPrefsDialog.html#aa28e5688b5173f45d91aa5b223952cf4" target="_top" xlink:title=" ">
<polygon fill="#ffffff" stroke="#000000" points="903,-148 903,-167 1064,-167 1064,-148 903,-148"/>
<text text-anchor="middle" x="983.5" y="-155" font-family="Helvetica,sans-Serif" font-size="10.00" fill="#000000">PrefsDialog::changeLanguage</text>
</a>
</g>
</g>
<!-- Node20&#45;&gt;Node21 -->
<g id="edge1" class="edge">
<title>Node20&#45;&gt;Node21</title>
<path fill="none" stroke="#191970" d="M1123.2273,-109.0875C1106.1025,-119.1191 1084.4903,-130.6748 1064,-138.5 1054.2072,-142.2398 1043.4536,-145.3917 1033.0834,-147.9869"/>
<polygon fill="#191970" stroke="#191970" points="1125.4517,-111.8359 1132.2439,-103.7046 1121.8635,-105.8255 1125.4517,-111.8359"/>
</g>
<!-- Node27 -->
<g id="node8" class="node">
<title>Node27</title>
<g id="a_node8"><a xlink:href="../../da/d58/classTranslatorListModel.html#a128fa3178df36ab0a3826435e1251c90" target="_top" xlink:title=" ">
<polygon fill="#ffffff" stroke="#000000" points="924.5,-98.5 924.5,-128.5 1042.5,-128.5 1042.5,-98.5 924.5,-98.5"/>
<text text-anchor="start" x="932.5" y="-116.5" font-family="Helvetica,sans-Serif" font-size="10.00" fill="#000000">TranslatorListModel</text>
<text text-anchor="middle" x="983.5" y="-105.5" font-family="Helvetica,sans-Serif" font-size="10.00" fill="#000000">::TranslatorListModel</text>
</a>
</g>
</g>
<!-- Node20&#45;&gt;Node27 -->
<g id="edge7" class="edge">
<title>Node20&#45;&gt;Node27</title>
<path fill="none" stroke="#191970" d="M1089.9517,-98.0722C1074.4326,-100.3214 1057.9888,-102.7045 1042.7874,-104.9076"/>
<polygon fill="#191970" stroke="#191970" points="1090.5996,-101.515 1099.9942,-96.6168 1089.5956,-94.5873 1090.5996,-101.515"/>
</g>
<!-- Node28 -->
<g id="node9" class="node">
<title>Node28</title>
<g id="a_node9"><a xlink:href="../../da/d58/classTranslatorListModel.html#a0b5d053bab2b17a49d0646197fa651cf" target="_top" xlink:title=" ">
<polygon fill="#ffffff" stroke="#000000" points="927.5,-.5 927.5,-30.5 1039.5,-30.5 1039.5,-.5 927.5,-.5"/>
<text text-anchor="start" x="935.5" y="-18.5" font-family="Helvetica,sans-Serif" font-size="10.00" fill="#000000">TranslatorListModel</text>
<text text-anchor="middle" x="983.5" y="-7.5" font-family="Helvetica,sans-Serif" font-size="10.00" fill="#000000">::cleanup</text>
</a>
</g>
</g>
<!-- Node20&#45;&gt;Node28 -->
<g id="edge8" class="edge">
<title>Node20&#45;&gt;Node28</title>
<path fill="none" stroke="#191970" d="M1121.895,-68.2351C1104.8884,-58.6777 1083.7747,-47.6185 1064,-39.5 1056.1753,-36.2875 1047.764,-33.2988 1039.4337,-30.5973"/>
<polygon fill="#191970" stroke="#191970" points="1120.4653,-71.4489 1130.886,-73.362 1123.9329,-65.368 1120.4653,-71.4489"/>
</g>
<!-- Node30 -->
<g id="node11" class="node">
<title>Node30</title>
<g id="a_node11"><a xlink:href="../../da/d58/classTranslatorListModel.html#a0aba1993dc949eed0db6f28f598fe639" target="_top" xlink:title=" ">
<polygon fill="#ffffff" stroke="#000000" points="927.5,-49.5 927.5,-79.5 1039.5,-79.5 1039.5,-49.5 927.5,-49.5"/>
<text text-anchor="start" x="935.5" y="-67.5" font-family="Helvetica,sans-Serif" font-size="10.00" fill="#000000">TranslatorListModel</text>
<text text-anchor="middle" x="983.5" y="-56.5" font-family="Helvetica,sans-Serif" font-size="10.00" fill="#000000">::findIndex</text>
</a>
</g>
</g>
<!-- Node20&#45;&gt;Node30 -->
<g id="edge10" class="edge">
<title>Node20&#45;&gt;Node30</title>
<path fill="none" stroke="#191970" d="M1089.8182,-79.2921C1073.2191,-76.9827 1055.5699,-74.5271 1039.5198,-72.2941"/>
<polygon fill="#191970" stroke="#191970" points="1089.6073,-82.7964 1099.9942,-80.7079 1090.5719,-75.8632 1089.6073,-82.7964"/>
</g>
<!-- Node22 -->
<g id="node3" class="node">
<title>Node22</title>
<g id="a_node3"><a xlink:href="../../d6/d65/classPrefsDialog.html#a5e34deb9e3d3ccd86ba9204581a52e2f" target="_top" xlink:title=" ">
<polygon fill="#ffffff" stroke="#000000" points="685,-101 685,-120 867,-120 867,-101 685,-101"/>
<text text-anchor="middle" x="776" y="-108" font-family="Helvetica,sans-Serif" font-size="10.00" fill="#000000">PrefsDialog::createLanguageForm</text>
</a>
</g>
</g>
<!-- Node21&#45;&gt;Node22 -->
<g id="edge2" class="edge">
<title>Node21&#45;&gt;Node22</title>
<path fill="none" stroke="#191970" d="M931.4852,-145.7183C896.5199,-137.7985 851.0185,-127.4921 818.2839,-120.0776"/>
<polygon fill="#191970" stroke="#191970" points="930.9831,-149.1932 941.5093,-147.9888 932.5295,-142.3661 930.9831,-149.1932"/>
</g>
<!-- Node23 -->
<g id="node4" class="node">
<title>Node23</title>
<g id="a_node4"><a xlink:href="../../d6/d65/classPrefsDialog.html#ad6ab1a874f0ccd02a10e5895d98c040c" target="_top" xlink:title=" ">
<polygon fill="#ffffff" stroke="#000000" points="516,-101 516,-120 649,-120 649,-101 516,-101"/>
<text text-anchor="middle" x="582.5" y="-108" font-family="Helvetica,sans-Serif" font-size="10.00" fill="#000000">PrefsDialog::initGeneral</text>
</a>
</g>
</g>
<!-- Node22&#45;&gt;Node23 -->
<g id="edge3" class="edge">
<title>Node22&#45;&gt;Node23</title>
<path fill="none" stroke="#191970" d="M674.7319,-110.5C666.0612,-110.5 657.439,-110.5 649.1446,-110.5"/>
<polygon fill="#191970" stroke="#191970" points="674.9161,-114.0001 684.9161,-110.5 674.916,-107.0001 674.9161,-114.0001"/>
</g>
<!-- Node24 -->
<g id="node5" class="node">
<title>Node24</title>
<g id="a_node5"><a xlink:href="../../d6/d65/classPrefsDialog.html#a5958488b84b221f212fef1f642b3dec8" target="_top" xlink:title=" ">
<polygon fill="#ffffff" stroke="#000000" points="352,-101 352,-120 480,-120 480,-101 352,-101"/>
<text text-anchor="middle" x="416" y="-108" font-family="Helvetica,sans-Serif" font-size="10.00" fill="#000000">PrefsDialog::initLayout</text>
</a>
</g>
</g>
<!-- Node23&#45;&gt;Node24 -->
<g id="edge4" class="edge">
<title>Node23&#45;&gt;Node24</title>
<path fill="none" stroke="#191970" d="M505.7273,-110.5C497.1453,-110.5 488.4708,-110.5 480.0718,-110.5"/>
<polygon fill="#191970" stroke="#191970" points="505.7375,-114.0001 515.7374,-110.5 505.7374,-107.0001 505.7375,-114.0001"/>
</g>
<!-- Node25 -->
<g id="node6" class="node">
<title>Node25</title>
<g id="a_node6"><a xlink:href="../../dc/dc7/classFApplication.html#a94d95b7d62b2d23d316cdef716b126b9" target="_top" xlink:title=" ">
<polygon fill="#ffffff" stroke="#000000" points="176,-95.5 176,-125.5 316,-125.5 316,-95.5 176,-95.5"/>
<text text-anchor="start" x="184" y="-113.5" font-family="Helvetica,sans-Serif" font-size="10.00" fill="#000000">FApplication::preferences</text>
<text text-anchor="middle" x="246" y="-102.5" font-family="Helvetica,sans-Serif" font-size="10.00" fill="#000000">After</text>
</a>
</g>
</g>
<!-- Node24&#45;&gt;Node25 -->
<g id="edge5" class="edge">
<title>Node24&#45;&gt;Node25</title>
<path fill="none" stroke="#191970" d="M341.5037,-110.5C333.0436,-110.5 324.4425,-110.5 316.0426,-110.5"/>
<polygon fill="#191970" stroke="#191970" points="341.7303,-114.0001 351.7303,-110.5 341.7303,-107.0001 341.7303,-114.0001"/>
</g>
<!-- Node26 -->
<g id="node7" class="node">
<title>Node26</title>
<g id="a_node7"><a xlink:href="../../dc/dc7/classFApplication.html#abd250bca1fd30e3b4d8c3b8aabfb5311" target="_top" xlink:title=" ">
<polygon fill="#ffffff" stroke="#000000" points="0,-101 0,-120 140,-120 140,-101 0,-101"/>
<text text-anchor="middle" x="70" y="-108" font-family="Helvetica,sans-Serif" font-size="10.00" fill="#000000">FApplication::preferences</text>
</a>
</g>
</g>
<!-- Node25&#45;&gt;Node26 -->
<g id="edge6" class="edge">
<title>Node25&#45;&gt;Node26</title>
<path fill="none" stroke="#191970" d="M165.8994,-110.5C157.2942,-110.5 148.5876,-110.5 140.112,-110.5"/>
<polygon fill="#191970" stroke="#191970" points="165.9345,-114.0001 175.9344,-110.5 165.9344,-107.0001 165.9345,-114.0001"/>
</g>
<!-- Node29 -->
<g id="node10" class="node">
<title>Node29</title>
<g id="a_node10"><a xlink:href="../../dc/dc7/classFApplication.html#a548e14ef29aa665445df6b565912cdd6" target="_top" xlink:title=" ">
<polygon fill="#ffffff" stroke="#000000" points="701.5,-6 701.5,-25 850.5,-25 850.5,-6 701.5,-6"/>
<text text-anchor="middle" x="776" y="-13" font-family="Helvetica,sans-Serif" font-size="10.00" fill="#000000">FApplication::~FApplication</text>
</a>
</g>
</g>
<!-- Node28&#45;&gt;Node29 -->
<g id="edge9" class="edge">
<title>Node28&#45;&gt;Node29</title>
<path fill="none" stroke="#191970" d="M917.1414,-15.5C895.9186,-15.5 872.286,-15.5 850.5218,-15.5"/>
<polygon fill="#191970" stroke="#191970" points="917.3475,-19.0001 927.3475,-15.5 917.3475,-12.0001 917.3475,-19.0001"/>
</g>
<!-- Node30&#45;&gt;Node22 -->
<g id="edge11" class="edge">
<title>Node30&#45;&gt;Node22</title>
<path fill="none" stroke="#191970" d="M917.5465,-79.121C885.3293,-86.2631 847.4796,-94.6539 819.0296,-100.9609"/>
<polygon fill="#191970" stroke="#191970" points="918.3421,-82.5297 927.3475,-76.9483 916.827,-75.6956 918.3421,-82.5297"/>
</g>
</g>
</svg>
