<?xml version="1.0" encoding="UTF-8" standalone="no"?>
<!DOCTYPE svg PUBLIC "-//W3C//DTD SVG 1.1//EN"
 "http://www.w3.org/Graphics/SVG/1.1/DTD/svg11.dtd">
<!-- Generated by graphviz version 2.40.1 (0)
 -->
<!-- Title: tm_zip_s Pages: 1 -->
<svg width="93pt" height="226pt"
 viewBox="0.00 0.00 93.00 226.00" xmlns="http://www.w3.org/2000/svg" xmlns:xlink="http://www.w3.org/1999/xlink">
<g id="graph0" class="graph" transform="scale(1 1) rotate(0) translate(4 222)">
<title>tm_zip_s</title>
<polygon fill="#ffffff" stroke="transparent" points="-4,4 -4,-222 89,-222 89,4 -4,4"/>
<!-- Node1 -->
<g id="node1" class="node">
<title>Node1</title>
<g id="a_node1"><a xlink:title=" ">
<polygon fill="#bfbfbf" stroke="#000000" points="0,-.5 0,-57.5 60,-57.5 60,-.5 0,-.5"/>
<text text-anchor="middle" x="30" y="-45.5" font-family="Helvetica,sans-Serif" font-size="10.00" fill="#000000">tm_zip_s</text>
<polyline fill="none" stroke="#000000" points="0,-38.5 60,-38.5 "/>
<text text-anchor="middle" x="30" y="-26.5" font-family="Helvetica,sans-Serif" font-size="10.00" fill="#000000"> </text>
<polyline fill="none" stroke="#000000" points="0,-19.5 60,-19.5 "/>
<text text-anchor="middle" x="30" y="-7.5" font-family="Helvetica,sans-Serif" font-size="10.00" fill="#000000"> </text>
</a>
</g>
</g>
<!-- Node2 -->
<g id="node2" class="node">
<title>Node2</title>
<g id="a_node2"><a xlink:title=" ">
<polygon fill="#ffffff" stroke="#bfbfbf" points="12.5,-160.5 12.5,-217.5 47.5,-217.5 47.5,-160.5 12.5,-160.5"/>
<text text-anchor="middle" x="30" y="-205.5" font-family="Helvetica,sans-Serif" font-size="10.00" fill="#000000">uInt</text>
<polyline fill="none" stroke="#bfbfbf" points="12.5,-198.5 47.5,-198.5 "/>
<text text-anchor="middle" x="30" y="-186.5" font-family="Helvetica,sans-Serif" font-size="10.00" fill="#000000"> </text>
<polyline fill="none" stroke="#bfbfbf" points="12.5,-179.5 47.5,-179.5 "/>
<text text-anchor="middle" x="30" y="-167.5" font-family="Helvetica,sans-Serif" font-size="10.00" fill="#000000"> </text>
</a>
</g>
</g>
<!-- Node2&#45;&gt;Node1 -->
<g id="edge1" class="edge">
<title>Node2&#45;&gt;Node1</title>
<path fill="none" stroke="#404040" d="M30,-160.3952C30,-135.218 30,-98.2632 30,-69.9524"/>
<polygon fill="none" stroke="#404040" points="30.0001,-69.6264 26,-63.6265 30,-57.6264 34,-63.6264 30.0001,-69.6264"/>
<text text-anchor="middle" x="57.5" y="-134" font-family="Helvetica,sans-Serif" font-size="10.00" fill="#000000"> +tm_mon</text>
<text text-anchor="middle" x="57.5" y="-123" font-family="Helvetica,sans-Serif" font-size="10.00" fill="#000000">+tm_mday</text>
<text text-anchor="middle" x="57.5" y="-112" font-family="Helvetica,sans-Serif" font-size="10.00" fill="#000000">+tm_hour</text>
<text text-anchor="middle" x="57.5" y="-101" font-family="Helvetica,sans-Serif" font-size="10.00" fill="#000000">+tm_sec</text>
<text text-anchor="middle" x="57.5" y="-90" font-family="Helvetica,sans-Serif" font-size="10.00" fill="#000000">+tm_min</text>
<text text-anchor="middle" x="57.5" y="-79" font-family="Helvetica,sans-Serif" font-size="10.00" fill="#000000">+tm_year</text>
</g>
</g>
</svg>
