<?xml version="1.0" encoding="UTF-8" standalone="no"?>
<!DOCTYPE svg PUBLIC "-//W3C//DTD SVG 1.1//EN"
 "http://www.w3.org/Graphics/SVG/1.1/DTD/svg11.dtd">
<!-- Generated by graphviz version 2.40.1 (0)
 -->
<!-- Title: S2S::message Pages: 1 -->
<svg width="791pt" height="81pt"
 viewBox="0.00 0.00 791.00 81.04" xmlns="http://www.w3.org/2000/svg" xmlns:xlink="http://www.w3.org/1999/xlink">
<g id="graph0" class="graph" transform="scale(1 1) rotate(0) translate(4 77.0411)">
<title>S2S::message</title>
<polygon fill="#ffffff" stroke="transparent" points="-4,4 -4,-77.0411 787,-77.0411 787,4 -4,4"/>
<!-- Node30 -->
<g id="node1" class="node">
<title>Node30</title>
<g id="a_node1"><a xlink:title=" ">
<polygon fill="#bfbfbf" stroke="#000000" points="698,-38.5 698,-57.5 783,-57.5 783,-38.5 698,-38.5"/>
<text text-anchor="middle" x="740.5" y="-45.5" font-family="Helvetica,sans-Serif" font-size="10.00" fill="#000000">S2S::message</text>
</a>
</g>
</g>
<!-- Node31 -->
<g id="node2" class="node">
<title>Node31</title>
<g id="a_node2"><a xlink:href="../../d7/dea/classS2S.html#ac84c7f11b30cdfdd46fa0c7716701f53" target="_top" xlink:title=" ">
<polygon fill="#ffffff" stroke="#000000" points="406,-38.5 406,-57.5 480,-57.5 480,-38.5 406,-38.5"/>
<text text-anchor="middle" x="443" y="-45.5" font-family="Helvetica,sans-Serif" font-size="10.00" fill="#000000">S2S::onefzp</text>
</a>
</g>
</g>
<!-- Node30&#45;&gt;Node31 -->
<g id="edge1" class="edge">
<title>Node30&#45;&gt;Node31</title>
<path fill="none" stroke="#191970" d="M698.7208,-60.0562C686.9479,-62.9206 674.061,-65.5612 662,-67 597.568,-74.6865 580.3637,-75.2389 516,-67 501.4514,-65.1377 485.6601,-61.2682 472.4983,-57.5042"/>
<polygon fill="#191970" stroke="#191970" points="699.9047,-63.3665 708.7311,-57.5061 698.1766,-56.5832 699.9047,-63.3665"/>
</g>
<!-- Node34 -->
<g id="node5" class="node">
<title>Node34</title>
<g id="a_node5"><a xlink:href="../../d7/dea/classS2S.html#a0bd138123e60b00e69b8f1c47cd3dcc1" target="_top" xlink:title=" ">
<polygon fill="#ffffff" stroke="#000000" points="533.5,-38.5 533.5,-57.5 644.5,-57.5 644.5,-38.5 533.5,-38.5"/>
<text text-anchor="middle" x="589" y="-45.5" font-family="Helvetica,sans-Serif" font-size="10.00" fill="#000000">S2S::initConnectors</text>
</a>
</g>
</g>
<!-- Node30&#45;&gt;Node34 -->
<g id="edge4" class="edge">
<title>Node30&#45;&gt;Node34</title>
<path fill="none" stroke="#191970" d="M687.5259,-48C673.6322,-48 658.6114,-48 644.5855,-48"/>
<polygon fill="#191970" stroke="#191970" points="687.8957,-51.5001 697.8956,-48 687.8956,-44.5001 687.8957,-51.5001"/>
</g>
<!-- Node35 -->
<g id="node6" class="node">
<title>Node35</title>
<g id="a_node6"><a xlink:href="../../d7/dea/classS2S.html#ab756e9b53bc4770abccbd22753347b16" target="_top" xlink:title=" ">
<polygon fill="#ffffff" stroke="#000000" points="516,-.5 516,-19.5 662,-19.5 662,-.5 516,-.5"/>
<text text-anchor="middle" x="589" y="-7.5" font-family="Helvetica,sans-Serif" font-size="10.00" fill="#000000">S2S::ensureTerminalPoints</text>
</a>
</g>
</g>
<!-- Node30&#45;&gt;Node35 -->
<g id="edge6" class="edge">
<title>Node30&#45;&gt;Node35</title>
<path fill="none" stroke="#191970" d="M692.4984,-35.96C671.3332,-30.6512 646.8142,-24.5012 626.9549,-19.5201"/>
<polygon fill="#191970" stroke="#191970" points="691.7191,-39.3729 702.2702,-38.411 693.4221,-32.5832 691.7191,-39.3729"/>
</g>
<!-- Node32 -->
<g id="node3" class="node">
<title>Node32</title>
<g id="a_node3"><a xlink:href="../../d6/d9a/classPEMainWindow.html#af9134e4229feb3a80ec2ffee10861293" target="_top" xlink:title=" ">
<polygon fill="#ffffff" stroke="#000000" points="200,-38.5 200,-57.5 370,-57.5 370,-38.5 200,-38.5"/>
<text text-anchor="middle" x="285" y="-45.5" font-family="Helvetica,sans-Serif" font-size="10.00" fill="#000000">PEMainWindow::convertToTenth</text>
</a>
</g>
</g>
<!-- Node31&#45;&gt;Node32 -->
<g id="edge2" class="edge">
<title>Node31&#45;&gt;Node32</title>
<path fill="none" stroke="#191970" d="M395.9289,-48C387.7549,-48 379.0326,-48 370.2063,-48"/>
<polygon fill="#191970" stroke="#191970" points="395.9561,-51.5001 405.956,-48 395.956,-44.5001 395.9561,-51.5001"/>
</g>
<!-- Node33 -->
<g id="node4" class="node">
<title>Node33</title>
<g id="a_node4"><a xlink:href="../../d6/d9a/classPEMainWindow.html#a75b29809288068ade92be923ab97d0b1" target="_top" xlink:title=" ">
<polygon fill="#ffffff" stroke="#000000" points="0,-38.5 0,-57.5 164,-57.5 164,-38.5 0,-38.5"/>
<text text-anchor="middle" x="82" y="-45.5" font-family="Helvetica,sans-Serif" font-size="10.00" fill="#000000">PEMainWindow::createActions</text>
</a>
</g>
</g>
<!-- Node32&#45;&gt;Node33 -->
<g id="edge3" class="edge">
<title>Node32&#45;&gt;Node33</title>
<path fill="none" stroke="#191970" d="M189.7561,-48C181.171,-48 172.5259,-48 164.0678,-48"/>
<polygon fill="#191970" stroke="#191970" points="189.7921,-51.5001 199.7921,-48 189.792,-44.5001 189.7921,-51.5001"/>
</g>
<!-- Node34&#45;&gt;Node31 -->
<g id="edge5" class="edge">
<title>Node34&#45;&gt;Node31</title>
<path fill="none" stroke="#191970" d="M523.2914,-48C508.5733,-48 493.456,-48 480.3646,-48"/>
<polygon fill="#191970" stroke="#191970" points="523.3872,-51.5001 533.3872,-48 523.3871,-44.5001 523.3872,-51.5001"/>
</g>
<!-- Node35&#45;&gt;Node31 -->
<g id="edge7" class="edge">
<title>Node35&#45;&gt;Node31</title>
<path fill="none" stroke="#191970" d="M542.464,-22.1121C522.1304,-27.4044 498.6287,-33.5213 479.577,-38.4799"/>
<polygon fill="#191970" stroke="#191970" points="543.3621,-25.4951 552.158,-19.589 541.5988,-18.7207 543.3621,-25.4951"/>
</g>
</g>
</svg>
