<?xml version="1.0" encoding="UTF-8" standalone="no"?>
<!DOCTYPE svg PUBLIC "-//W3C//DTD SVG 1.1//EN"
 "http://www.w3.org/Graphics/SVG/1.1/DTD/svg11.dtd">
<!-- Generated by graphviz version 2.40.1 (0)
 -->
<!-- Title: S2S::ensureTerminalPoints Pages: 1 -->
<svg width="589pt" height="154pt"
 viewBox="0.00 0.00 589.00 153.50" xmlns="http://www.w3.org/2000/svg" xmlns:xlink="http://www.w3.org/1999/xlink">
<g id="graph0" class="graph" transform="scale(1 1) rotate(0) translate(4 149.5)">
<title>S2S::ensureTerminalPoints</title>
<polygon fill="#ffffff" stroke="transparent" points="-4,4 -4,-149.5 585,-149.5 585,4 -4,4"/>
<!-- Node2 -->
<g id="node1" class="node">
<title>Node2</title>
<g id="a_node1"><a xlink:title=" ">
<polygon fill="#bfbfbf" stroke="#000000" points="0,-57.5 0,-76.5 146,-76.5 146,-57.5 0,-57.5"/>
<text text-anchor="middle" x="73" y="-64.5" font-family="Helvetica,sans-Serif" font-size="10.00" fill="#000000">S2S::ensureTerminalPoints</text>
</a>
</g>
</g>
<!-- Node3 -->
<g id="node2" class="node">
<title>Node3</title>
<g id="a_node2"><a xlink:href="../../de/db8/classTextUtils.html#a9c93bbc63a055b95d8f991efc2a58caa" target="_top" xlink:title=" ">
<polygon fill="#ffffff" stroke="#000000" points="189.5,-115 189.5,-145 335.5,-145 335.5,-115 189.5,-115"/>
<text text-anchor="start" x="197.5" y="-133" font-family="Helvetica,sans-Serif" font-size="10.00" fill="#000000">TextUtils::findElementWith</text>
<text text-anchor="middle" x="262.5" y="-122" font-family="Helvetica,sans-Serif" font-size="10.00" fill="#000000">Attribute</text>
</a>
</g>
</g>
<!-- Node2&#45;&gt;Node3 -->
<g id="edge1" class="edge">
<title>Node2&#45;&gt;Node3</title>
<path fill="none" stroke="#191970" d="M99.7893,-76.6273C121.8003,-84.4679 153.8296,-95.7183 182,-105 188.8801,-107.2669 196.1092,-109.5918 203.2952,-111.8676"/>
<polygon fill="#191970" stroke="#191970" points="202.4412,-115.268 213.0307,-114.9304 204.542,-108.5906 202.4412,-115.268"/>
</g>
<!-- Node4 -->
<g id="node3" class="node">
<title>Node4</title>
<g id="a_node3"><a xlink:href="../../d7/dea/classS2S.html#a5ff031a5c0b4d717119b3a8d99b376df" target="_top" xlink:title=" ">
<polygon fill="#ffffff" stroke="#000000" points="220,-76.5 220,-95.5 305,-95.5 305,-76.5 220,-76.5"/>
<text text-anchor="middle" x="262.5" y="-83.5" font-family="Helvetica,sans-Serif" font-size="10.00" fill="#000000">S2S::message</text>
</a>
</g>
</g>
<!-- Node2&#45;&gt;Node4 -->
<g id="edge2" class="edge">
<title>Node2&#45;&gt;Node4</title>
<path fill="none" stroke="#191970" d="M146.2656,-74.3459C167.4628,-76.4712 190.1743,-78.7483 209.8468,-80.7208"/>
<polygon fill="#191970" stroke="#191970" points="209.5339,-84.2069 219.8332,-81.7221 210.2323,-77.2418 209.5339,-84.2069"/>
</g>
<!-- Node5 -->
<g id="node4" class="node">
<title>Node5</title>
<g id="a_node4"><a xlink:href="../../de/db8/classTextUtils.html#ab791cfa714e558bdb445a32a2fbcd568" target="_top" xlink:title=" ">
<polygon fill="#ffffff" stroke="#000000" points="182,-38.5 182,-57.5 343,-57.5 343,-38.5 182,-38.5"/>
<text text-anchor="middle" x="262.5" y="-45.5" font-family="Helvetica,sans-Serif" font-size="10.00" fill="#000000">TextUtils::removeXMLEntities</text>
</a>
</g>
</g>
<!-- Node2&#45;&gt;Node5 -->
<g id="edge3" class="edge">
<title>Node2&#45;&gt;Node5</title>
<path fill="none" stroke="#191970" d="M146.2656,-59.6541C154.6498,-58.8135 163.2709,-57.9491 171.8471,-57.0892"/>
<polygon fill="#191970" stroke="#191970" points="172.2764,-60.5638 181.8773,-56.0835 171.578,-53.5987 172.2764,-60.5638"/>
</g>
<!-- Node9 -->
<g id="node8" class="node">
<title>Node9</title>
<g id="a_node8"><a xlink:href="../../de/db8/classTextUtils.html#a0301b94dbede1f79d5518f7e21c65fb6" target="_top" xlink:title=" ">
<polygon fill="#ffffff" stroke="#000000" points="207,-.5 207,-19.5 318,-19.5 318,-.5 207,-.5"/>
<text text-anchor="middle" x="262.5" y="-7.5" font-family="Helvetica,sans-Serif" font-size="10.00" fill="#000000">TextUtils::writeUtf8</text>
</a>
</g>
</g>
<!-- Node2&#45;&gt;Node9 -->
<g id="edge7" class="edge">
<title>Node2&#45;&gt;Node9</title>
<path fill="none" stroke="#191970" d="M98.3064,-57.3396C120.2452,-49.1672 152.9476,-37.468 182,-29 190.5139,-26.5184 199.605,-24.1284 208.4991,-21.9302"/>
<polygon fill="#191970" stroke="#191970" points="209.5171,-25.285 218.416,-19.5352 207.8738,-18.4807 209.5171,-25.285"/>
</g>
<!-- Node6 -->
<g id="node5" class="node">
<title>Node6</title>
<g id="a_node5"><a xlink:href="../../de/db8/classTextUtils.html#a05480fc2ca26b2281f39584aa470369f" target="_top" xlink:title=" ">
<polygon fill="#ffffff" stroke="#000000" points="379,-57.5 379,-76.5 498,-76.5 498,-57.5 379,-57.5"/>
<text text-anchor="middle" x="438.5" y="-64.5" font-family="Helvetica,sans-Serif" font-size="10.00" fill="#000000">TextUtils::svgNSOnly</text>
</a>
</g>
</g>
<!-- Node5&#45;&gt;Node6 -->
<g id="edge4" class="edge">
<title>Node5&#45;&gt;Node6</title>
<path fill="none" stroke="#191970" d="M343.0314,-56.6937C351.5899,-57.6177 360.2433,-58.5518 368.6647,-59.461"/>
<polygon fill="#191970" stroke="#191970" points="368.4819,-62.9615 378.7998,-60.5551 369.2333,-56.0019 368.4819,-62.9615"/>
</g>
<!-- Node8 -->
<g id="node7" class="node">
<title>Node8</title>
<g id="a_node7"><a xlink:href="../../dc/d19/textutils_8cpp.html#acb19bcc142fce11f39732f13258615e9" target="_top" xlink:title=" ">
<polygon fill="#ffffff" stroke="#000000" points="409.5,-19.5 409.5,-38.5 467.5,-38.5 467.5,-19.5 409.5,-19.5"/>
<text text-anchor="middle" x="438.5" y="-26.5" font-family="Helvetica,sans-Serif" font-size="10.00" fill="#000000">HexExpr</text>
</a>
</g>
</g>
<!-- Node5&#45;&gt;Node8 -->
<g id="edge6" class="edge">
<title>Node5&#45;&gt;Node8</title>
<path fill="none" stroke="#191970" d="M343.0314,-39.3063C362.4848,-37.2062 382.4285,-35.0532 399.023,-33.2617"/>
<polygon fill="#191970" stroke="#191970" points="399.839,-36.6941 409.4056,-32.1409 399.0876,-29.7345 399.839,-36.6941"/>
</g>
<!-- Node7 -->
<g id="node6" class="node">
<title>Node7</title>
<g id="a_node6"><a xlink:href="../../dc/d19/textutils_8cpp.html#a7841ff5bb04e5990a6219e06987451bf" target="_top" xlink:title=" ">
<polygon fill="#ffffff" stroke="#000000" points="534,-57.5 534,-76.5 581,-76.5 581,-57.5 534,-57.5"/>
<text text-anchor="middle" x="557.5" y="-64.5" font-family="Helvetica,sans-Serif" font-size="10.00" fill="#000000">Xmlns</text>
</a>
</g>
</g>
<!-- Node6&#45;&gt;Node7 -->
<g id="edge5" class="edge">
<title>Node6&#45;&gt;Node7</title>
<path fill="none" stroke="#191970" d="M498.3486,-67C507.023,-67 515.6876,-67 523.6047,-67"/>
<polygon fill="#191970" stroke="#191970" points="523.8683,-70.5001 533.8683,-67 523.8683,-63.5001 523.8683,-70.5001"/>
</g>
</g>
</svg>
