<?xml version="1.0" encoding="UTF-8" standalone="no"?>
<!DOCTYPE svg PUBLIC "-//W3C//DTD SVG 1.1//EN"
 "http://www.w3.org/Graphics/SVG/1.1/DTD/svg11.dtd">
<!-- Generated by graphviz version 2.40.1 (0)
 -->
<!-- Title: AboutBox Pages: 1 -->
<svg width="582pt" height="420pt"
 viewBox="0.00 0.00 581.50 420.00" xmlns="http://www.w3.org/2000/svg" xmlns:xlink="http://www.w3.org/1999/xlink">
<g id="graph0" class="graph" transform="scale(1 1) rotate(0) translate(4 416)">
<title>AboutBox</title>
<polygon fill="#ffffff" stroke="transparent" points="-4,4 -4,-416 577.5,-416 577.5,4 -4,4"/>
<!-- Node2 -->
<g id="node1" class="node">
<title>Node2</title>
<g id="a_node1"><a xlink:title=" ">
<polygon fill="#bfbfbf" stroke="#000000" points="201,-.5 201,-156.5 334,-156.5 334,-.5 201,-.5"/>
<text text-anchor="middle" x="267.5" y="-144.5" font-family="Helvetica,sans-Serif" font-size="10.00" fill="#000000">AboutBox</text>
<polyline fill="none" stroke="#000000" points="201,-137.5 334,-137.5 "/>
<text text-anchor="middle" x="267.5" y="-125.5" font-family="Helvetica,sans-Serif" font-size="10.00" fill="#000000"> </text>
<polyline fill="none" stroke="#000000" points="201,-118.5 334,-118.5 "/>
<text text-anchor="start" x="209" y="-106.5" font-family="Helvetica,sans-Serif" font-size="10.00" fill="#000000">+ closeAbout()</text>
<text text-anchor="start" x="209" y="-95.5" font-family="Helvetica,sans-Serif" font-size="10.00" fill="#000000">+ hideAbout()</text>
<text text-anchor="start" x="209" y="-84.5" font-family="Helvetica,sans-Serif" font-size="10.00" fill="#000000">+ initBuildType()</text>
<text text-anchor="start" x="209" y="-73.5" font-family="Helvetica,sans-Serif" font-size="10.00" fill="#000000">+ showAbout()</text>
<text text-anchor="start" x="209" y="-62.5" font-family="Helvetica,sans-Serif" font-size="10.00" fill="#000000">+ scrollCredits()</text>
<text text-anchor="start" x="209" y="-51.5" font-family="Helvetica,sans-Serif" font-size="10.00" fill="#000000"># closeEvent()</text>
<text text-anchor="start" x="209" y="-40.5" font-family="Helvetica,sans-Serif" font-size="10.00" fill="#000000"># keyPressEvent()</text>
<text text-anchor="start" x="209" y="-29.5" font-family="Helvetica,sans-Serif" font-size="10.00" fill="#000000"># show()</text>
<text text-anchor="start" x="209" y="-18.5" font-family="Helvetica,sans-Serif" font-size="10.00" fill="#000000">&#45; AboutBox()</text>
<text text-anchor="start" x="209" y="-7.5" font-family="Helvetica,sans-Serif" font-size="10.00" fill="#000000">&#45; resetScrollAnimation()</text>
</a>
</g>
</g>
<!-- Node2&#45;&gt;Node2 -->
<g id="edge7" class="edge">
<title>Node2&#45;&gt;Node2</title>
<path fill="none" stroke="#404040" d="M334.0955,-96.1122C344.7245,-93.5348 352,-87.6641 352,-78.5 352,-73.0588 349.4351,-68.7787 345.1263,-65.6596"/>
<polygon fill="none" stroke="#404040" points="345.1092,-65.6523 338.0142,-66.9413 334.0955,-60.8878 341.1905,-59.5988 345.1092,-65.6523"/>
<text text-anchor="middle" x="381" y="-76" font-family="Helvetica,sans-Serif" font-size="10.00" fill="#000000"> #Singleton</text>
</g>
<!-- Node3 -->
<g id="node2" class="node">
<title>Node3</title>
<g id="a_node2"><a xlink:href="../../d8/ded/classQWidget.html" target="_top" xlink:title=" ">
<polygon fill="#ffffff" stroke="#000000" points="0,-232 0,-289 59,-289 59,-232 0,-232"/>
<text text-anchor="middle" x="29.5" y="-277" font-family="Helvetica,sans-Serif" font-size="10.00" fill="#000000">QWidget</text>
<polyline fill="none" stroke="#000000" points="0,-270 59,-270 "/>
<text text-anchor="middle" x="29.5" y="-258" font-family="Helvetica,sans-Serif" font-size="10.00" fill="#000000"> </text>
<polyline fill="none" stroke="#000000" points="0,-251 59,-251 "/>
<text text-anchor="middle" x="29.5" y="-239" font-family="Helvetica,sans-Serif" font-size="10.00" fill="#000000"> </text>
</a>
</g>
</g>
<!-- Node3&#45;&gt;Node2 -->
<g id="edge1" class="edge">
<title>Node3&#45;&gt;Node2</title>
<path fill="none" stroke="#191970" d="M51.3486,-223.1585C56.1957,-216.3779 61.6497,-209.6678 67.5,-204 106.8042,-165.9217 159.5045,-133.4287 200.9406,-111.0509"/>
<polygon fill="none" stroke="#191970" points="48.2642,-221.4708 45.5492,-231.7119 54.058,-225.3992 48.2642,-221.4708"/>
</g>
<!-- Node4 -->
<g id="node3" class="node">
<title>Node4</title>
<g id="a_node3"><a xlink:title=" ">
<polygon fill="#ffffff" stroke="#bfbfbf" points="77,-232 77,-289 130,-289 130,-232 77,-232"/>
<text text-anchor="middle" x="103.5" y="-277" font-family="Helvetica,sans-Serif" font-size="10.00" fill="#000000">QTimer</text>
<polyline fill="none" stroke="#bfbfbf" points="77,-270 130,-270 "/>
<text text-anchor="middle" x="103.5" y="-258" font-family="Helvetica,sans-Serif" font-size="10.00" fill="#000000"> </text>
<polyline fill="none" stroke="#bfbfbf" points="77,-251 130,-251 "/>
<text text-anchor="middle" x="103.5" y="-239" font-family="Helvetica,sans-Serif" font-size="10.00" fill="#000000"> </text>
</a>
</g>
</g>
<!-- Node4&#45;&gt;Node2 -->
<g id="edge2" class="edge">
<title>Node4&#45;&gt;Node2</title>
<path fill="none" stroke="#404040" d="M107.3439,-231.8187C110.8342,-214.1244 117.3784,-191.6992 129.5,-175 145.5096,-152.9444 168.159,-134.1555 190.4895,-119.1788"/>
<polygon fill="none" stroke="#404040" points="190.6284,-119.0889 193.4915,-112.4705 200.702,-112.5678 197.8389,-119.1862 190.6284,-119.0889"/>
<text text-anchor="middle" x="179.5" y="-178" font-family="Helvetica,sans-Serif" font-size="10.00" fill="#000000"> &#45;m_autoScrollTimer</text>
</g>
<!-- Node5 -->
<g id="node4" class="node">
<title>Node5</title>
<g id="a_node4"><a xlink:title=" ">
<polygon fill="#ffffff" stroke="#bfbfbf" points="183,-232 183,-289 236,-289 236,-232 183,-232"/>
<text text-anchor="middle" x="209.5" y="-277" font-family="Helvetica,sans-Serif" font-size="10.00" fill="#000000">QString</text>
<polyline fill="none" stroke="#bfbfbf" points="183,-270 236,-270 "/>
<text text-anchor="middle" x="209.5" y="-258" font-family="Helvetica,sans-Serif" font-size="10.00" fill="#000000"> </text>
<polyline fill="none" stroke="#bfbfbf" points="183,-251 236,-251 "/>
<text text-anchor="middle" x="209.5" y="-239" font-family="Helvetica,sans-Serif" font-size="10.00" fill="#000000"> </text>
</a>
</g>
</g>
<!-- Node5&#45;&gt;Node2 -->
<g id="edge3" class="edge">
<title>Node5&#45;&gt;Node2</title>
<path fill="none" stroke="#404040" d="M217.989,-231.9448C222.9853,-215.3013 229.4853,-193.9263 235.5,-175 236.2117,-172.7606 236.9358,-170.4932 237.6693,-168.2067"/>
<polygon fill="none" stroke="#404040" points="237.7114,-168.0761 235.7489,-161.1372 241.3992,-156.6567 243.3618,-163.5957 237.7114,-168.0761"/>
<text text-anchor="middle" x="265" y="-178" font-family="Helvetica,sans-Serif" font-size="10.00" fill="#000000"> #BuildType</text>
</g>
<!-- Node6 -->
<g id="node5" class="node">
<title>Node6</title>
<g id="a_node5"><a xlink:href="../../db/dcf/classExpandingLabel.html" target="_top" xlink:title=" ">
<polygon fill="#ffffff" stroke="#000000" points="254,-204.5 254,-316.5 389,-316.5 389,-204.5 254,-204.5"/>
<text text-anchor="middle" x="321.5" y="-304.5" font-family="Helvetica,sans-Serif" font-size="10.00" fill="#000000">ExpandingLabel</text>
<polyline fill="none" stroke="#000000" points="254,-297.5 389,-297.5 "/>
<text text-anchor="middle" x="321.5" y="-285.5" font-family="Helvetica,sans-Serif" font-size="10.00" fill="#000000"> </text>
<polyline fill="none" stroke="#000000" points="254,-278.5 389,-278.5 "/>
<text text-anchor="start" x="262" y="-266.5" font-family="Helvetica,sans-Serif" font-size="10.00" fill="#000000">+ ExpandingLabel()</text>
<text text-anchor="start" x="262" y="-255.5" font-family="Helvetica,sans-Serif" font-size="10.00" fill="#000000">+ setLabelText()</text>
<text text-anchor="start" x="262" y="-244.5" font-family="Helvetica,sans-Serif" font-size="10.00" fill="#000000">+ allTextVisible()</text>
<text text-anchor="start" x="262" y="-233.5" font-family="Helvetica,sans-Serif" font-size="10.00" fill="#000000"># mouseMoveEvent()</text>
<text text-anchor="start" x="262" y="-222.5" font-family="Helvetica,sans-Serif" font-size="10.00" fill="#000000"># mousePressEvent()</text>
<text text-anchor="start" x="262" y="-211.5" font-family="Helvetica,sans-Serif" font-size="10.00" fill="#000000"># mouseReleaseEvent()</text>
</a>
</g>
</g>
<!-- Node6&#45;&gt;Node2 -->
<g id="edge4" class="edge">
<title>Node6&#45;&gt;Node2</title>
<path fill="none" stroke="#404040" d="M304.8576,-204.4089C301.4759,-193.0114 297.8387,-180.7526 294.2085,-168.5176"/>
<polygon fill="none" stroke="#404040" points="294.1522,-168.3275 288.6107,-163.7132 290.7388,-156.8232 296.2802,-161.4375 294.1522,-168.3275"/>
<text text-anchor="middle" x="349.5" y="-178" font-family="Helvetica,sans-Serif" font-size="10.00" fill="#000000"> &#45;m_expandingLabel</text>
</g>
<!-- Node7 -->
<g id="node6" class="node">
<title>Node7</title>
<g id="a_node6"><a xlink:href="../../d5/d49/classQTextEdit.html" target="_top" xlink:title=" ">
<polygon fill="#ffffff" stroke="#000000" points="290,-354.5 290,-411.5 353,-411.5 353,-354.5 290,-354.5"/>
<text text-anchor="middle" x="321.5" y="-399.5" font-family="Helvetica,sans-Serif" font-size="10.00" fill="#000000">QTextEdit</text>
<polyline fill="none" stroke="#000000" points="290,-392.5 353,-392.5 "/>
<text text-anchor="middle" x="321.5" y="-380.5" font-family="Helvetica,sans-Serif" font-size="10.00" fill="#000000"> </text>
<polyline fill="none" stroke="#000000" points="290,-373.5 353,-373.5 "/>
<text text-anchor="middle" x="321.5" y="-361.5" font-family="Helvetica,sans-Serif" font-size="10.00" fill="#000000"> </text>
</a>
</g>
</g>
<!-- Node7&#45;&gt;Node6 -->
<g id="edge5" class="edge">
<title>Node7&#45;&gt;Node6</title>
<path fill="none" stroke="#191970" d="M321.5,-344.1358C321.5,-335.4939 321.5,-326.1625 321.5,-316.9752"/>
<polygon fill="none" stroke="#191970" points="318.0001,-344.2792 321.5,-354.2792 325.0001,-344.2792 318.0001,-344.2792"/>
</g>
<!-- Node8 -->
<g id="node7" class="node">
<title>Node8</title>
<g id="a_node7"><a xlink:title=" ">
<polygon fill="#ffffff" stroke="#bfbfbf" points="407,-232 407,-289 456,-289 456,-232 407,-232"/>
<text text-anchor="middle" x="431.5" y="-277" font-family="Helvetica,sans-Serif" font-size="10.00" fill="#000000">QTime</text>
<polyline fill="none" stroke="#bfbfbf" points="407,-270 456,-270 "/>
<text text-anchor="middle" x="431.5" y="-258" font-family="Helvetica,sans-Serif" font-size="10.00" fill="#000000"> </text>
<polyline fill="none" stroke="#bfbfbf" points="407,-251 456,-251 "/>
<text text-anchor="middle" x="431.5" y="-239" font-family="Helvetica,sans-Serif" font-size="10.00" fill="#000000"> </text>
</a>
</g>
</g>
<!-- Node8&#45;&gt;Node2 -->
<g id="edge6" class="edge">
<title>Node8&#45;&gt;Node2</title>
<path fill="none" stroke="#404040" d="M426.8549,-231.8355C422.9001,-214.1477 415.8239,-191.7235 403.5,-175 387.7835,-153.6729 365.9258,-135.2627 344.3254,-120.409"/>
<polygon fill="none" stroke="#404040" points="344.1034,-120.2615 336.8923,-120.2737 334.1075,-113.6219 341.3186,-113.6098 344.1034,-120.2615"/>
<text text-anchor="middle" x="444.5" y="-178" font-family="Helvetica,sans-Serif" font-size="10.00" fill="#000000"> &#45;m_startTime</text>
</g>
<!-- Node9 -->
<g id="node8" class="node">
<title>Node9</title>
<g id="a_node8"><a xlink:title=" ">
<polygon fill="#ffffff" stroke="#bfbfbf" points="505.5,-232 505.5,-289 543.5,-289 543.5,-232 505.5,-232"/>
<text text-anchor="middle" x="524.5" y="-277" font-family="Helvetica,sans-Serif" font-size="10.00" fill="#000000">bool</text>
<polyline fill="none" stroke="#bfbfbf" points="505.5,-270 543.5,-270 "/>
<text text-anchor="middle" x="524.5" y="-258" font-family="Helvetica,sans-Serif" font-size="10.00" fill="#000000"> </text>
<polyline fill="none" stroke="#bfbfbf" points="505.5,-251 543.5,-251 "/>
<text text-anchor="middle" x="524.5" y="-239" font-family="Helvetica,sans-Serif" font-size="10.00" fill="#000000"> </text>
</a>
</g>
</g>
<!-- Node9&#45;&gt;Node2 -->
<g id="edge8" class="edge">
<title>Node9&#45;&gt;Node2</title>
<path fill="none" stroke="#404040" d="M516.3533,-231.6425C509.9561,-213.4304 499.4253,-190.5013 483.5,-175 445.4599,-137.9728 390.7721,-113.7359 345.9432,-98.8127"/>
<polygon fill="none" stroke="#404040" points="345.9016,-98.7993 338.965,-100.77 334.478,-95.1249 341.4146,-93.1543 345.9016,-98.7993"/>
<text text-anchor="middle" x="532.5" y="-178" font-family="Helvetica,sans-Serif" font-size="10.00" fill="#000000"> &#45;m_restartAtTop</text>
</g>
</g>
</svg>
