<?xml version="1.0" encoding="UTF-8" standalone="no"?>
<!DOCTYPE svg PUBLIC "-//W3C//DTD SVG 1.1//EN"
 "http://www.w3.org/Graphics/SVG/1.1/DTD/svg11.dtd">
<!-- Generated by graphviz version 2.40.1 (0)
 -->
<!-- Title: sketch/welcomeview.cpp Pages: 1 -->
<!--zoomable 196 -->
<svg id="main" version="1.1" xmlns="http://www.w3.org/2000/svg" xmlns:xlink="http://www.w3.org/1999/xlink" xml:space="preserve" onload="init(evt)">
<style type="text/css"><![CDATA[
.edge:hover path { stroke: red; }
.edge:hover polygon { stroke: red; fill: red; }
]]></style>
<script type="text/javascript"><![CDATA[
var edges = document.getElementsByTagName('g');
if (edges && edges.length) {
  for (var i=0;i<edges.length;i++) {
    if (edges[i].id.substr(0,4)=='edge') {
      edges[i].setAttribute('class','edge');
    }
  }
}
]]></script>
        <defs>
                <circle id="rim" cx="0" cy="0" r="7"/>
                <circle id="rim2" cx="0" cy="0" r="3.5"/>
                <g id="zoomPlus">
                        <use xlink:href="#rim" fill="#404040">
                                <set attributeName="fill" to="#808080" begin="zoomplus.mouseover" end="zoomplus.mouseout"/>
                        </use>
                        <path d="M-4,0h8M0,-4v8" fill="none" stroke="white" stroke-width="1.5" pointer-events="none"/>
                </g>
                <g id="zoomMin">
                        <use xlink:href="#rim" fill="#404040">
                                <set attributeName="fill" to="#808080" begin="zoomminus.mouseover" end="zoomminus.mouseout"/>
                        </use>
                        <path d="M-4,0h8" fill="none" stroke="white" stroke-width="1.5" pointer-events="none"/>
                </g>
                <g id="dirArrow">
                        <path fill="none" stroke="white" stroke-width="1.5" d="M0,-3.0v7 M-2.5,-0.5L0,-3.0L2.5,-0.5"/>
                </g>
               <g id="resetDef">
                       <use xlink:href="#rim2" fill="#404040">
                               <set attributeName="fill" to="#808080" begin="reset.mouseover" end="reset.mouseout"/>
                       </use>
               </g>
        </defs>

<script type="text/javascript">
var viewWidth = 2810;
var viewHeight = 196;
var sectionId = 'dynsection-0';
</script>
<script xlink:href="../../svgpan.js"/>
<svg id="graph" class="graph">
<g id="viewport">
<title>sketch/welcomeview.cpp</title>
<polygon fill="#ffffff" stroke="transparent" points="-4,4 -4,-192 2806,-192 2806,4 -4,4"/>
<!-- Node0 -->
<g id="node1" class="node">
<title>Node0</title>
<g id="a_node1"><a xlink:title=" ">
<polygon fill="#bfbfbf" stroke="#000000" points="1722.5,-168.5 1722.5,-187.5 1860.5,-187.5 1860.5,-168.5 1722.5,-168.5"/>
<text text-anchor="middle" x="1791.5" y="-175.5" font-family="Helvetica,sans-Serif" font-size="10.00" fill="#000000">sketch/welcomeview.cpp</text>
</a>
</g>
</g>
<!-- Node1 -->
<g id="node2" class="node">
<title>Node1</title>
<g id="a_node2"><a xlink:href="../../df/dbe/welcomeview_8h.html" target="_top" xlink:title=" ">
<polygon fill="#ffffff" stroke="#000000" points="372.5,-112.5 372.5,-131.5 464.5,-131.5 464.5,-112.5 372.5,-112.5"/>
<text text-anchor="middle" x="418.5" y="-119.5" font-family="Helvetica,sans-Serif" font-size="10.00" fill="#000000">welcomeview.h</text>
</a>
</g>
</g>
<!-- Node0&#45;&gt;Node1 -->
<g id="edge1" class="edge">
<title>Node0&#45;&gt;Node1</title>
<path fill="none" stroke="#191970" d="M1722.4718,-175.1846C1483.4477,-165.4356 693.7738,-133.2275 475.0801,-124.3077"/>
<polygon fill="#191970" stroke="#191970" points="474.9341,-120.7989 464.7997,-123.8884 474.6488,-127.7931 474.9341,-120.7989"/>
</g>
<!-- Node7 -->
<g id="node8" class="node">
<title>Node7</title>
<g id="a_node8"><a xlink:title=" ">
<polygon fill="#ffffff" stroke="#bfbfbf" points="807.5,-56.5 807.5,-75.5 905.5,-75.5 905.5,-56.5 807.5,-56.5"/>
<text text-anchor="middle" x="856.5" y="-63.5" font-family="Helvetica,sans-Serif" font-size="10.00" fill="#000000">QDomDocument</text>
</a>
</g>
</g>
<!-- Node0&#45;&gt;Node7 -->
<g id="edge45" class="edge">
<title>Node0&#45;&gt;Node7</title>
<path fill="none" stroke="#191970" d="M1722.3288,-176.7722C1558.6573,-173.4013 1151.4079,-162.1617 1018.5,-132 968.8461,-120.7317 914.7472,-95.9152 883.3222,-80.1291"/>
<polygon fill="#191970" stroke="#191970" points="884.8265,-76.9674 874.3276,-75.5448 881.6478,-83.2041 884.8265,-76.9674"/>
</g>
<!-- Node12 -->
<g id="node13" class="node">
<title>Node12</title>
<g id="a_node13"><a xlink:href="../../df/db5/debugdialog_8h.html" target="_top" xlink:title=" ">
<polygon fill="#ffffff" stroke="#000000" points="1073,-112.5 1073,-131.5 1168,-131.5 1168,-112.5 1073,-112.5"/>
<text text-anchor="middle" x="1120.5" y="-119.5" font-family="Helvetica,sans-Serif" font-size="10.00" fill="#000000">../debugdialog.h</text>
</a>
</g>
</g>
<!-- Node0&#45;&gt;Node12 -->
<g id="edge12" class="edge">
<title>Node0&#45;&gt;Node12</title>
<path fill="none" stroke="#191970" d="M1722.218,-175.0456C1610.0962,-169.7715 1381.7737,-156.9902 1178.023,-131.9418"/>
<polygon fill="#191970" stroke="#191970" points="1178.3879,-128.4604 1168.0328,-130.7013 1177.5252,-135.407 1178.3879,-128.4604"/>
</g>
<!-- Node15 -->
<g id="node16" class="node">
<title>Node15</title>
<g id="a_node16"><a xlink:title=" ">
<polygon fill="#ffffff" stroke="#bfbfbf" points="924,-56.5 924,-75.5 987,-75.5 987,-56.5 924,-56.5"/>
<text text-anchor="middle" x="955.5" y="-63.5" font-family="Helvetica,sans-Serif" font-size="10.00" fill="#000000">QTextEdit</text>
</a>
</g>
</g>
<!-- Node0&#45;&gt;Node15 -->
<g id="edge35" class="edge">
<title>Node0&#45;&gt;Node15</title>
<path fill="none" stroke="#191970" d="M1722.252,-175.5009C1552.7187,-169.1147 1126.1576,-151.3315 1064.5,-132 1030.3296,-121.2866 995.7909,-97.7328 975.0121,-81.8608"/>
<polygon fill="#191970" stroke="#191970" points="977.0242,-78.9912 966.9905,-75.5887 972.7124,-84.5056 977.0242,-78.9912"/>
</g>
<!-- Node23 -->
<g id="node24" class="node">
<title>Node23</title>
<g id="a_node24"><a xlink:title=" ">
<polygon fill="#ffffff" stroke="#bfbfbf" points="1584.5,-.5 1584.5,-19.5 1672.5,-19.5 1672.5,-.5 1584.5,-.5"/>
<text text-anchor="middle" x="1628.5" y="-7.5" font-family="Helvetica,sans-Serif" font-size="10.00" fill="#000000">QDomElement</text>
</a>
</g>
</g>
<!-- Node0&#45;&gt;Node23 -->
<g id="edge47" class="edge">
<title>Node0&#45;&gt;Node23</title>
<path fill="none" stroke="#191970" d="M1722.1775,-175.6594C1605.5675,-171.0019 1380.4699,-158.6383 1356.5,-132 1323.2416,-95.0392 1493.1347,-44.8339 1579.9618,-22.0869"/>
<polygon fill="#191970" stroke="#191970" points="1581.0665,-25.4162 1589.8668,-19.5166 1579.3083,-18.6406 1581.0665,-25.4162"/>
</g>
<!-- Node27 -->
<g id="node28" class="node">
<title>Node27</title>
<g id="a_node28"><a xlink:href="../../df/d7b/tipsandtricks_8h.html" target="_top" xlink:title=" ">
<polygon fill="#ffffff" stroke="#000000" points="1186.5,-112.5 1186.5,-131.5 1308.5,-131.5 1308.5,-112.5 1186.5,-112.5"/>
<text text-anchor="middle" x="1247.5" y="-119.5" font-family="Helvetica,sans-Serif" font-size="10.00" fill="#000000">../help/tipsandtricks.h</text>
</a>
</g>
</g>
<!-- Node0&#45;&gt;Node27 -->
<g id="edge28" class="edge">
<title>Node0&#45;&gt;Node27</title>
<path fill="none" stroke="#191970" d="M1722.2844,-171.9698C1630.713,-163.8183 1464.3204,-148.4046 1322.5,-132 1321.3908,-131.8717 1320.2726,-131.7409 1319.1472,-131.6079"/>
<polygon fill="#191970" stroke="#191970" points="1319.2224,-128.0914 1308.8733,-130.3599 1318.3782,-135.0403 1319.2224,-128.0914"/>
</g>
<!-- Node28 -->
<g id="node29" class="node">
<title>Node28</title>
<g id="a_node29"><a xlink:title=" ">
<polygon fill="#ffffff" stroke="#bfbfbf" points="1365,-112.5 1365,-131.5 1442,-131.5 1442,-112.5 1365,-112.5"/>
<text text-anchor="middle" x="1403.5" y="-119.5" font-family="Helvetica,sans-Serif" font-size="10.00" fill="#000000">QGridLayout</text>
</a>
</g>
</g>
<!-- Node0&#45;&gt;Node28 -->
<g id="edge36" class="edge">
<title>Node0&#45;&gt;Node28</title>
<path fill="none" stroke="#191970" d="M1722.255,-170.0909C1655.6146,-162.1474 1551.8002,-148.905 1452.1656,-132.0136"/>
<polygon fill="#191970" stroke="#191970" points="1452.6746,-128.5499 1442.2277,-130.3141 1451.4946,-135.4498 1452.6746,-128.5499"/>
</g>
<!-- Node29 -->
<g id="node30" class="node">
<title>Node29</title>
<g id="a_node30"><a xlink:title=" ">
<polygon fill="#ffffff" stroke="#bfbfbf" points="1460,-112.5 1460,-131.5 1543,-131.5 1543,-112.5 1460,-112.5"/>
<text text-anchor="middle" x="1501.5" y="-119.5" font-family="Helvetica,sans-Serif" font-size="10.00" fill="#000000">QHBoxLayout</text>
</a>
</g>
</g>
<!-- Node0&#45;&gt;Node29 -->
<g id="edge37" class="edge">
<title>Node0&#45;&gt;Node29</title>
<path fill="none" stroke="#191970" d="M1741.5952,-168.4472C1695.4101,-159.5947 1624.55,-145.9828 1553.3,-132.1506"/>
<polygon fill="#191970" stroke="#191970" points="1553.7301,-128.6688 1543.2462,-130.1978 1552.3954,-135.5404 1553.7301,-128.6688"/>
</g>
<!-- Node30 -->
<g id="node31" class="node">
<title>Node30</title>
<g id="a_node31"><a xlink:title=" ">
<polygon fill="#ffffff" stroke="#bfbfbf" points="1561,-112.5 1561,-131.5 1644,-131.5 1644,-112.5 1561,-112.5"/>
<text text-anchor="middle" x="1602.5" y="-119.5" font-family="Helvetica,sans-Serif" font-size="10.00" fill="#000000">QVBoxLayout</text>
</a>
</g>
</g>
<!-- Node0&#45;&gt;Node30 -->
<g id="edge38" class="edge">
<title>Node0&#45;&gt;Node30</title>
<path fill="none" stroke="#191970" d="M1759.0097,-168.3733C1727.3098,-158.9807 1678.9424,-144.6496 1644.3714,-134.4064"/>
<polygon fill="#191970" stroke="#191970" points="1645.1486,-130.9863 1634.5663,-131.5011 1643.1599,-137.6979 1645.1486,-130.9863"/>
</g>
<!-- Node31 -->
<g id="node32" class="node">
<title>Node31</title>
<g id="a_node32"><a xlink:title=" ">
<polygon fill="#ffffff" stroke="#bfbfbf" points="1662.5,-112.5 1662.5,-131.5 1742.5,-131.5 1742.5,-112.5 1662.5,-112.5"/>
<text text-anchor="middle" x="1702.5" y="-119.5" font-family="Helvetica,sans-Serif" font-size="10.00" fill="#000000">QSpacerItem</text>
</a>
</g>
</g>
<!-- Node0&#45;&gt;Node31 -->
<g id="edge39" class="edge">
<title>Node0&#45;&gt;Node31</title>
<path fill="none" stroke="#191970" d="M1775.9974,-168.2455C1762.342,-159.6534 1742.2343,-147.0014 1726.5011,-137.1018"/>
<polygon fill="#191970" stroke="#191970" points="1728.1529,-134.006 1717.825,-131.6427 1724.4249,-139.9307 1728.1529,-134.006"/>
</g>
<!-- Node32 -->
<g id="node33" class="node">
<title>Node32</title>
<g id="a_node33"><a xlink:title=" ">
<polygon fill="#ffffff" stroke="#bfbfbf" points="1761,-112.5 1761,-131.5 1822,-131.5 1822,-112.5 1761,-112.5"/>
<text text-anchor="middle" x="1791.5" y="-119.5" font-family="Helvetica,sans-Serif" font-size="10.00" fill="#000000">QPixmap</text>
</a>
</g>
</g>
<!-- Node0&#45;&gt;Node32 -->
<g id="edge40" class="edge">
<title>Node0&#45;&gt;Node32</title>
<path fill="none" stroke="#191970" d="M1791.5,-168.2455C1791.5,-160.9382 1791.5,-150.6944 1791.5,-141.7046"/>
<polygon fill="#191970" stroke="#191970" points="1795.0001,-141.6426 1791.5,-131.6427 1788.0001,-141.6427 1795.0001,-141.6426"/>
</g>
<!-- Node33 -->
<g id="node34" class="node">
<title>Node33</title>
<g id="a_node34"><a xlink:title=" ">
<polygon fill="#ffffff" stroke="#bfbfbf" points="1840.5,-112.5 1840.5,-131.5 1904.5,-131.5 1904.5,-112.5 1840.5,-112.5"/>
<text text-anchor="middle" x="1872.5" y="-119.5" font-family="Helvetica,sans-Serif" font-size="10.00" fill="#000000">QSettings</text>
</a>
</g>
</g>
<!-- Node0&#45;&gt;Node33 -->
<g id="edge41" class="edge">
<title>Node0&#45;&gt;Node33</title>
<path fill="none" stroke="#191970" d="M1805.6091,-168.2455C1817.9209,-159.7337 1835.9958,-147.2375 1850.2538,-137.3801"/>
<polygon fill="#191970" stroke="#191970" points="1852.3174,-140.2085 1858.5526,-131.6427 1848.3366,-134.4506 1852.3174,-140.2085"/>
</g>
<!-- Node34 -->
<g id="node35" class="node">
<title>Node34</title>
<g id="a_node35"><a xlink:title=" ">
<polygon fill="#ffffff" stroke="#bfbfbf" points="1922.5,-112.5 1922.5,-131.5 1982.5,-131.5 1982.5,-112.5 1922.5,-112.5"/>
<text text-anchor="middle" x="1952.5" y="-119.5" font-family="Helvetica,sans-Serif" font-size="10.00" fill="#000000">QFileInfo</text>
</a>
</g>
</g>
<!-- Node0&#45;&gt;Node34 -->
<g id="edge42" class="edge">
<title>Node0&#45;&gt;Node34</title>
<path fill="none" stroke="#191970" d="M1819.1769,-168.3733C1845.8328,-159.1016 1886.3238,-145.0178 1915.6884,-134.804"/>
<polygon fill="#191970" stroke="#191970" points="1916.8891,-138.0921 1925.1843,-131.5011 1914.5895,-131.4807 1916.8891,-138.0921"/>
</g>
<!-- Node35 -->
<g id="node36" class="node">
<title>Node35</title>
<g id="a_node36"><a xlink:title=" ">
<polygon fill="#ffffff" stroke="#bfbfbf" points="2000.5,-112.5 2000.5,-131.5 2142.5,-131.5 2142.5,-112.5 2000.5,-112.5"/>
<text text-anchor="middle" x="2071.5" y="-119.5" font-family="Helvetica,sans-Serif" font-size="10.00" fill="#000000">QNetworkAccessManager</text>
</a>
</g>
</g>
<!-- Node0&#45;&gt;Node35 -->
<g id="edge43" class="edge">
<title>Node0&#45;&gt;Node35</title>
<path fill="none" stroke="#191970" d="M1839.3156,-168.4369C1887.6381,-158.7724 1962.3372,-143.8326 2013.8936,-133.5213"/>
<polygon fill="#191970" stroke="#191970" points="2014.7623,-136.9169 2023.8816,-131.5237 2013.3894,-130.0529 2014.7623,-136.9169"/>
</g>
<!-- Node36 -->
<g id="node37" class="node">
<title>Node36</title>
<g id="a_node37"><a xlink:title=" ">
<polygon fill="#ffffff" stroke="#bfbfbf" points="2160.5,-112.5 2160.5,-131.5 2266.5,-131.5 2266.5,-112.5 2160.5,-112.5"/>
<text text-anchor="middle" x="2213.5" y="-119.5" font-family="Helvetica,sans-Serif" font-size="10.00" fill="#000000">QDesktopServices</text>
</a>
</g>
</g>
<!-- Node0&#45;&gt;Node36 -->
<g id="edge44" class="edge">
<title>Node0&#45;&gt;Node36</title>
<path fill="none" stroke="#191970" d="M1860.6058,-169.8529C1930.9518,-161.4045 2043.4132,-147.4726 2150.4139,-132.1209"/>
<polygon fill="#191970" stroke="#191970" points="2151.0193,-135.5699 2160.4177,-130.6791 2150.0206,-128.6415 2151.0193,-135.5699"/>
</g>
<!-- Node37 -->
<g id="node38" class="node">
<title>Node37</title>
<g id="a_node38"><a xlink:title=" ">
<polygon fill="#ffffff" stroke="#bfbfbf" points="2284.5,-112.5 2284.5,-131.5 2374.5,-131.5 2374.5,-112.5 2284.5,-112.5"/>
<text text-anchor="middle" x="2329.5" y="-119.5" font-family="Helvetica,sans-Serif" font-size="10.00" fill="#000000">QDomNodeList</text>
</a>
</g>
</g>
<!-- Node0&#45;&gt;Node37 -->
<g id="edge46" class="edge">
<title>Node0&#45;&gt;Node37</title>
<path fill="none" stroke="#191970" d="M1860.6532,-173.3583C1952.7597,-166.7455 2120.9537,-153.1724 2274.3834,-132.0493"/>
<polygon fill="#191970" stroke="#191970" points="2275.0447,-135.4911 2284.4673,-130.647 2274.0805,-128.5578 2275.0447,-135.4911"/>
</g>
<!-- Node38 -->
<g id="node39" class="node">
<title>Node38</title>
<g id="a_node39"><a xlink:title=" ">
<polygon fill="#ffffff" stroke="#bfbfbf" points="2393,-112.5 2393,-131.5 2446,-131.5 2446,-112.5 2393,-112.5"/>
<text text-anchor="middle" x="2419.5" y="-119.5" font-family="Helvetica,sans-Serif" font-size="10.00" fill="#000000">QBuffer</text>
</a>
</g>
</g>
<!-- Node0&#45;&gt;Node38 -->
<g id="edge48" class="edge">
<title>Node0&#45;&gt;Node38</title>
<path fill="none" stroke="#191970" d="M1860.86,-176.9452C1970.0838,-174.332 2188.7986,-165.2469 2382.7991,-131.7762"/>
<polygon fill="#191970" stroke="#191970" points="2383.6489,-135.1807 2392.8953,-130.0081 2382.4414,-128.2856 2383.6489,-135.1807"/>
</g>
<!-- Node39 -->
<g id="node40" class="node">
<title>Node39</title>
<g id="a_node40"><a xlink:title=" ">
<polygon fill="#ffffff" stroke="#bfbfbf" points="2464.5,-112.5 2464.5,-131.5 2538.5,-131.5 2538.5,-112.5 2464.5,-112.5"/>
<text text-anchor="middle" x="2501.5" y="-119.5" font-family="Helvetica,sans-Serif" font-size="10.00" fill="#000000">QScrollArea</text>
</a>
</g>
</g>
<!-- Node0&#45;&gt;Node39 -->
<g id="edge49" class="edge">
<title>Node0&#45;&gt;Node39</title>
<path fill="none" stroke="#191970" d="M1860.6702,-176.5044C1979.9441,-173.2032 2232.0793,-163.0567 2454.2065,-131.9896"/>
<polygon fill="#191970" stroke="#191970" points="2455.016,-135.41 2464.4265,-130.5423 2454.0345,-128.4792 2455.016,-135.41"/>
</g>
<!-- Node40 -->
<g id="node41" class="node">
<title>Node40</title>
<g id="a_node41"><a xlink:title=" ">
<polygon fill="#ffffff" stroke="#bfbfbf" points="2557,-112.5 2557,-131.5 2638,-131.5 2638,-112.5 2557,-112.5"/>
<text text-anchor="middle" x="2597.5" y="-119.5" font-family="Helvetica,sans-Serif" font-size="10.00" fill="#000000">QStyleOption</text>
</a>
</g>
</g>
<!-- Node0&#45;&gt;Node40 -->
<g id="edge50" class="edge">
<title>Node0&#45;&gt;Node40</title>
<path fill="none" stroke="#191970" d="M1860.5952,-176.9489C1992.2473,-174.2586 2288.1924,-164.9096 2546.9548,-131.8844"/>
<polygon fill="#191970" stroke="#191970" points="2547.4481,-135.3498 2556.9178,-130.5986 2546.5521,-128.4074 2547.4481,-135.3498"/>
</g>
<!-- Node41 -->
<g id="node42" class="node">
<title>Node41</title>
<g id="a_node42"><a xlink:title=" ">
<polygon fill="#ffffff" stroke="#bfbfbf" points="2656,-112.5 2656,-131.5 2705,-131.5 2705,-112.5 2656,-112.5"/>
<text text-anchor="middle" x="2680.5" y="-119.5" font-family="Helvetica,sans-Serif" font-size="10.00" fill="#000000">QStyle</text>
</a>
</g>
</g>
<!-- Node0&#45;&gt;Node41 -->
<g id="edge51" class="edge">
<title>Node0&#45;&gt;Node41</title>
<path fill="none" stroke="#191970" d="M1860.7061,-176.426C2032.9691,-172.1709 2478.5698,-159.0092 2645.8877,-131.8662"/>
<polygon fill="#191970" stroke="#191970" points="2646.5157,-135.3098 2655.7888,-130.1852 2645.344,-128.4085 2646.5157,-135.3098"/>
</g>
<!-- Node42 -->
<g id="node43" class="node">
<title>Node42</title>
<g id="a_node43"><a xlink:title=" ">
<polygon fill="#ffffff" stroke="#bfbfbf" points="2723,-112.5 2723,-131.5 2802,-131.5 2802,-112.5 2723,-112.5"/>
<text text-anchor="middle" x="2762.5" y="-119.5" font-family="Helvetica,sans-Serif" font-size="10.00" fill="#000000">QApplication</text>
</a>
</g>
</g>
<!-- Node0&#45;&gt;Node42 -->
<g id="edge52" class="edge">
<title>Node0&#45;&gt;Node42</title>
<path fill="none" stroke="#191970" d="M1860.5555,-175.9532C2042.1099,-170.3532 2530.8068,-153.8112 2712.7803,-132.0159"/>
<polygon fill="#191970" stroke="#191970" points="2713.2764,-135.4813 2722.7681,-130.7742 2712.4127,-128.5348 2713.2764,-135.4813"/>
</g>
<!-- Node2 -->
<g id="node3" class="node">
<title>Node2</title>
<g id="a_node3"><a xlink:title=" ">
<polygon fill="#ffffff" stroke="#bfbfbf" points="0,-56.5 0,-75.5 55,-75.5 55,-56.5 0,-56.5"/>
<text text-anchor="middle" x="27.5" y="-63.5" font-family="Helvetica,sans-Serif" font-size="10.00" fill="#000000">QFrame</text>
</a>
</g>
</g>
<!-- Node1&#45;&gt;Node2 -->
<g id="edge2" class="edge">
<title>Node1&#45;&gt;Node2</title>
<path fill="none" stroke="#191970" d="M372.3532,-118.0059C306.3946,-111.8586 181.2513,-98.5704 65.3905,-75.9428"/>
<polygon fill="#191970" stroke="#191970" points="65.7749,-72.451 55.2853,-73.9405 64.4143,-79.3175 65.7749,-72.451"/>
</g>
<!-- Node3 -->
<g id="node4" class="node">
<title>Node3</title>
<g id="a_node4"><a xlink:title=" ">
<polygon fill="#ffffff" stroke="#bfbfbf" points="73.5,-56.5 73.5,-75.5 123.5,-75.5 123.5,-56.5 73.5,-56.5"/>
<text text-anchor="middle" x="98.5" y="-63.5" font-family="Helvetica,sans-Serif" font-size="10.00" fill="#000000">QLabel</text>
</a>
</g>
</g>
<!-- Node1&#45;&gt;Node3 -->
<g id="edge3" class="edge">
<title>Node1&#45;&gt;Node3</title>
<path fill="none" stroke="#191970" d="M372.0236,-115.6817C316.1069,-107.7832 219.5083,-93.1909 137.5,-76 136.2301,-75.7338 134.9393,-75.4536 133.6374,-75.1629"/>
<polygon fill="#191970" stroke="#191970" points="134.136,-71.6842 123.5985,-72.7846 132.5223,-78.4957 134.136,-71.6842"/>
</g>
<!-- Node4 -->
<g id="node5" class="node">
<title>Node4</title>
<g id="a_node5"><a xlink:title=" ">
<polygon fill="#ffffff" stroke="#bfbfbf" points="1036,-.5 1036,-19.5 1077,-19.5 1077,-.5 1036,-.5"/>
<text text-anchor="middle" x="1056.5" y="-7.5" font-family="Helvetica,sans-Serif" font-size="10.00" fill="#000000">QList</text>
</a>
</g>
</g>
<!-- Node1&#45;&gt;Node4 -->
<g id="edge4" class="edge">
<title>Node1&#45;&gt;Node4</title>
<path fill="none" stroke="#191970" d="M372.2992,-120.242C307.7572,-116.7048 195.6638,-106.2605 170.5,-76 164.8166,-69.1655 164.3797,-62.4463 170.5,-56 200.5667,-24.3318 872.8065,-12.6705 1025.7353,-10.4227"/>
<polygon fill="#191970" stroke="#191970" points="1025.8843,-13.921 1035.8327,-10.277 1025.7832,-6.9217 1025.8843,-13.921"/>
</g>
<!-- Node5 -->
<g id="node6" class="node">
<title>Node5</title>
<g id="a_node6"><a xlink:title=" ">
<polygon fill="#ffffff" stroke="#bfbfbf" points="180,-56.5 180,-75.5 239,-75.5 239,-56.5 180,-56.5"/>
<text text-anchor="middle" x="209.5" y="-63.5" font-family="Helvetica,sans-Serif" font-size="10.00" fill="#000000">QWidget</text>
</a>
</g>
</g>
<!-- Node1&#45;&gt;Node5 -->
<g id="edge5" class="edge">
<title>Node1&#45;&gt;Node5</title>
<path fill="none" stroke="#191970" d="M382.5716,-112.3733C345.395,-102.412 287.4878,-86.8963 249.0342,-76.5929"/>
<polygon fill="#191970" stroke="#191970" points="249.7852,-73.1707 239.22,-73.9633 247.9735,-79.9322 249.7852,-73.1707"/>
</g>
<!-- Node6 -->
<g id="node7" class="node">
<title>Node6</title>
<g id="a_node7"><a xlink:title=" ">
<polygon fill="#ffffff" stroke="#bfbfbf" points="257,-56.5 257,-75.5 350,-75.5 350,-56.5 257,-56.5"/>
<text text-anchor="middle" x="303.5" y="-63.5" font-family="Helvetica,sans-Serif" font-size="10.00" fill="#000000">QNetworkReply</text>
</a>
</g>
</g>
<!-- Node1&#45;&gt;Node6 -->
<g id="edge6" class="edge">
<title>Node1&#45;&gt;Node6</title>
<path fill="none" stroke="#191970" d="M398.7308,-112.3733C380.3531,-103.4241 352.7688,-89.9917 332.0107,-79.8835"/>
<polygon fill="#191970" stroke="#191970" points="333.5343,-76.7325 323.0112,-75.5011 330.4696,-83.026 333.5343,-76.7325"/>
</g>
<!-- Node1&#45;&gt;Node7 -->
<g id="edge7" class="edge">
<title>Node1&#45;&gt;Node7</title>
<path fill="none" stroke="#191970" d="M464.6827,-117.1045C534.2655,-109.5727 670.3734,-94.2356 797.0062,-76.0091"/>
<polygon fill="#191970" stroke="#191970" points="797.877,-79.4196 807.2719,-74.5221 796.8734,-72.4919 797.877,-79.4196"/>
</g>
<!-- Node8 -->
<g id="node9" class="node">
<title>Node8</title>
<g id="a_node9"><a xlink:title=" ">
<polygon fill="#ffffff" stroke="#bfbfbf" points="368,-56.5 368,-75.5 469,-75.5 469,-56.5 368,-56.5"/>
<text text-anchor="middle" x="418.5" y="-63.5" font-family="Helvetica,sans-Serif" font-size="10.00" fill="#000000">QDragEnterEvent</text>
</a>
</g>
</g>
<!-- Node1&#45;&gt;Node8 -->
<g id="edge8" class="edge">
<title>Node1&#45;&gt;Node8</title>
<path fill="none" stroke="#191970" d="M418.5,-112.2455C418.5,-104.9382 418.5,-94.6944 418.5,-85.7046"/>
<polygon fill="#191970" stroke="#191970" points="422.0001,-85.6426 418.5,-75.6427 415.0001,-85.6427 422.0001,-85.6426"/>
</g>
<!-- Node9 -->
<g id="node10" class="node">
<title>Node9</title>
<g id="a_node10"><a xlink:title=" ">
<polygon fill="#ffffff" stroke="#bfbfbf" points="487.5,-56.5 487.5,-75.5 563.5,-75.5 563.5,-56.5 487.5,-56.5"/>
<text text-anchor="middle" x="525.5" y="-63.5" font-family="Helvetica,sans-Serif" font-size="10.00" fill="#000000">QListWidget</text>
</a>
</g>
</g>
<!-- Node1&#45;&gt;Node9 -->
<g id="edge9" class="edge">
<title>Node1&#45;&gt;Node9</title>
<path fill="none" stroke="#191970" d="M437.138,-112.2455C453.9386,-103.4527 478.8634,-90.4079 497.9618,-80.4125"/>
<polygon fill="#191970" stroke="#191970" points="499.8386,-83.3807 507.0756,-75.6427 496.5927,-77.1787 499.8386,-83.3807"/>
</g>
<!-- Node10 -->
<g id="node11" class="node">
<title>Node10</title>
<g id="a_node11"><a xlink:title=" ">
<polygon fill="#ffffff" stroke="#bfbfbf" points="581.5,-56.5 581.5,-75.5 639.5,-75.5 639.5,-56.5 581.5,-56.5"/>
<text text-anchor="middle" x="610.5" y="-63.5" font-family="Helvetica,sans-Serif" font-size="10.00" fill="#000000">QPainter</text>
</a>
</g>
</g>
<!-- Node1&#45;&gt;Node10 -->
<g id="edge10" class="edge">
<title>Node1&#45;&gt;Node10</title>
<path fill="none" stroke="#191970" d="M451.506,-112.3733C484.7825,-102.6676 536.1387,-87.6887 571.428,-77.396"/>
<polygon fill="#191970" stroke="#191970" points="572.756,-80.6546 581.376,-74.4945 570.796,-73.9346 572.756,-80.6546"/>
</g>
<!-- Node11 -->
<g id="node12" class="node">
<title>Node11</title>
<g id="a_node12"><a xlink:title=" ">
<polygon fill="#ffffff" stroke="#bfbfbf" points="658,-56.5 658,-75.5 789,-75.5 789,-56.5 658,-56.5"/>
<text text-anchor="middle" x="723.5" y="-63.5" font-family="Helvetica,sans-Serif" font-size="10.00" fill="#000000">QAbstractItemDelegate</text>
</a>
</g>
</g>
<!-- Node1&#45;&gt;Node11 -->
<g id="edge11" class="edge">
<title>Node1&#45;&gt;Node11</title>
<path fill="none" stroke="#191970" d="M464.8229,-113.4948C517.3301,-103.8541 603.1758,-88.0923 661.4422,-77.3942"/>
<polygon fill="#191970" stroke="#191970" points="662.4225,-80.7728 671.626,-75.5244 661.1583,-73.8879 662.4225,-80.7728"/>
</g>
<!-- Node13 -->
<g id="node14" class="node">
<title>Node13</title>
<g id="a_node14"><a xlink:title=" ">
<polygon fill="#ffffff" stroke="#bfbfbf" points="1082.5,-56.5 1082.5,-75.5 1138.5,-75.5 1138.5,-56.5 1082.5,-56.5"/>
<text text-anchor="middle" x="1110.5" y="-63.5" font-family="Helvetica,sans-Serif" font-size="10.00" fill="#000000">QDialog</text>
</a>
</g>
</g>
<!-- Node12&#45;&gt;Node13 -->
<g id="edge13" class="edge">
<title>Node12&#45;&gt;Node13</title>
<path fill="none" stroke="#191970" d="M1118.7581,-112.2455C1117.4533,-104.9382 1115.624,-94.6944 1114.0187,-85.7046"/>
<polygon fill="#191970" stroke="#191970" points="1117.4254,-84.8717 1112.2219,-75.6427 1110.5344,-86.1022 1117.4254,-84.8717"/>
</g>
<!-- Node14 -->
<g id="node15" class="node">
<title>Node14</title>
<g id="a_node15"><a xlink:title=" ">
<polygon fill="#ffffff" stroke="#bfbfbf" points="1156.5,-56.5 1156.5,-75.5 1208.5,-75.5 1208.5,-56.5 1156.5,-56.5"/>
<text text-anchor="middle" x="1182.5" y="-63.5" font-family="Helvetica,sans-Serif" font-size="10.00" fill="#000000">QEvent</text>
</a>
</g>
</g>
<!-- Node12&#45;&gt;Node14 -->
<g id="edge14" class="edge">
<title>Node12&#45;&gt;Node14</title>
<path fill="none" stroke="#191970" d="M1131.2996,-112.2455C1140.3678,-104.0549 1153.5206,-92.1749 1164.2245,-82.5069"/>
<polygon fill="#191970" stroke="#191970" points="1166.7491,-84.9429 1171.8242,-75.6427 1162.0571,-79.7482 1166.7491,-84.9429"/>
</g>
<!-- Node12&#45;&gt;Node15 -->
<g id="edge15" class="edge">
<title>Node12&#45;&gt;Node15</title>
<path fill="none" stroke="#191970" d="M1092.1355,-112.3733C1064.8173,-103.1016 1023.3204,-89.0178 993.2262,-78.804"/>
<polygon fill="#191970" stroke="#191970" points="994.0887,-75.4008 983.4944,-75.5011 991.839,-82.0294 994.0887,-75.4008"/>
</g>
<!-- Node16 -->
<g id="node17" class="node">
<title>Node16</title>
<g id="a_node17"><a xlink:title=" ">
<polygon fill="#ffffff" stroke="#bfbfbf" points="1227,-56.5 1227,-75.5 1268,-75.5 1268,-56.5 1227,-56.5"/>
<text text-anchor="middle" x="1247.5" y="-63.5" font-family="Helvetica,sans-Serif" font-size="10.00" fill="#000000">QFile</text>
</a>
</g>
</g>
<!-- Node12&#45;&gt;Node16 -->
<g id="edge16" class="edge">
<title>Node12&#45;&gt;Node16</title>
<path fill="none" stroke="#191970" d="M1142.3321,-112.3733C1163.0585,-103.234 1194.3888,-89.4191 1217.4645,-79.244"/>
<polygon fill="#191970" stroke="#191970" points="1219.056,-82.3675 1226.7938,-75.1303 1216.2317,-75.9625 1219.056,-82.3675"/>
</g>
<!-- Node17 -->
<g id="node18" class="node">
<title>Node17</title>
<g id="a_node18"><a xlink:title=" ">
<polygon fill="#ffffff" stroke="#bfbfbf" points="1005,-56.5 1005,-75.5 1064,-75.5 1064,-56.5 1005,-56.5"/>
<text text-anchor="middle" x="1034.5" y="-63.5" font-family="Helvetica,sans-Serif" font-size="10.00" fill="#000000">QPointer</text>
</a>
</g>
</g>
<!-- Node12&#45;&gt;Node17 -->
<g id="edge17" class="edge">
<title>Node12&#45;&gt;Node17</title>
<path fill="none" stroke="#191970" d="M1105.5199,-112.2455C1092.3249,-103.6534 1072.8949,-91.0014 1057.6921,-81.1018"/>
<polygon fill="#191970" stroke="#191970" points="1059.5983,-78.1665 1049.3084,-75.6427 1055.7785,-84.0325 1059.5983,-78.1665"/>
</g>
<!-- Node18 -->
<g id="node19" class="node">
<title>Node18</title>
<g id="a_node19"><a xlink:href="../../d4/d08/misc_8h.html" target="_top" xlink:title=" ">
<polygon fill="#ffffff" stroke="#000000" points="1325,-56.5 1325,-75.5 1398,-75.5 1398,-56.5 1325,-56.5"/>
<text text-anchor="middle" x="1361.5" y="-63.5" font-family="Helvetica,sans-Serif" font-size="10.00" fill="#000000">utils/misc.h</text>
</a>
</g>
</g>
<!-- Node12&#45;&gt;Node18 -->
<g id="edge18" class="edge">
<title>Node12&#45;&gt;Node18</title>
<path fill="none" stroke="#191970" d="M1161.6555,-112.4369C1204.1861,-102.5543 1270.4558,-87.1555 1314.891,-76.8303"/>
<polygon fill="#191970" stroke="#191970" points="1315.9075,-80.1874 1324.8558,-74.5148 1314.3231,-73.3691 1315.9075,-80.1874"/>
</g>
<!-- Node18&#45;&gt;Node4 -->
<g id="edge26" class="edge">
<title>Node18&#45;&gt;Node4</title>
<path fill="none" stroke="#191970" d="M1324.7571,-58.6395C1319.9657,-57.7255 1315.119,-56.8238 1310.5,-56 1214.3353,-38.8498 1186.1757,-43.6873 1086.8655,-19.7403"/>
<polygon fill="#191970" stroke="#191970" points="1087.5736,-16.3103 1077.0281,-17.3313 1085.9086,-23.1094 1087.5736,-16.3103"/>
</g>
<!-- Node19 -->
<g id="node20" class="node">
<title>Node19</title>
<g id="a_node20"><a xlink:title=" ">
<polygon fill="#ffffff" stroke="#bfbfbf" points="1095,-.5 1095,-19.5 1144,-19.5 1144,-.5 1095,-.5"/>
<text text-anchor="middle" x="1119.5" y="-7.5" font-family="Helvetica,sans-Serif" font-size="10.00" fill="#000000">QHash</text>
</a>
</g>
</g>
<!-- Node18&#45;&gt;Node19 -->
<g id="edge19" class="edge">
<title>Node18&#45;&gt;Node19</title>
<path fill="none" stroke="#191970" d="M1324.8739,-58.6907C1285.2193,-50.6031 1219.9082,-36.7794 1154.4127,-20.1054"/>
<polygon fill="#191970" stroke="#191970" points="1154.8844,-16.613 1144.3281,-17.5154 1153.1431,-23.393 1154.8844,-16.613"/>
</g>
<!-- Node20 -->
<g id="node21" class="node">
<title>Node20</title>
<g id="a_node21"><a xlink:title=" ">
<polygon fill="#ffffff" stroke="#bfbfbf" points="1162,-.5 1162,-19.5 1217,-19.5 1217,-.5 1162,-.5"/>
<text text-anchor="middle" x="1189.5" y="-7.5" font-family="Helvetica,sans-Serif" font-size="10.00" fill="#000000">QVector</text>
</a>
</g>
</g>
<!-- Node18&#45;&gt;Node20 -->
<g id="edge20" class="edge">
<title>Node18&#45;&gt;Node20</title>
<path fill="none" stroke="#191970" d="M1331.9321,-56.3733C1302.8978,-46.9202 1258.4993,-32.4649 1226.9992,-22.209"/>
<polygon fill="#191970" stroke="#191970" points="1227.8532,-18.8063 1217.2609,-19.0384 1225.6861,-25.4624 1227.8532,-18.8063"/>
</g>
<!-- Node21 -->
<g id="node22" class="node">
<title>Node21</title>
<g id="a_node22"><a xlink:title=" ">
<polygon fill="#ffffff" stroke="#bfbfbf" points="1235,-.5 1235,-19.5 1288,-19.5 1288,-.5 1235,-.5"/>
<text text-anchor="middle" x="1261.5" y="-7.5" font-family="Helvetica,sans-Serif" font-size="10.00" fill="#000000">QString</text>
</a>
</g>
</g>
<!-- Node18&#45;&gt;Node21 -->
<g id="edge21" class="edge">
<title>Node18&#45;&gt;Node21</title>
<path fill="none" stroke="#191970" d="M1344.0813,-56.2455C1328.4515,-47.4928 1305.2981,-34.527 1287.4815,-24.5496"/>
<polygon fill="#191970" stroke="#191970" points="1289.1543,-21.475 1278.7191,-19.6427 1285.734,-27.5825 1289.1543,-21.475"/>
</g>
<!-- Node22 -->
<g id="node23" class="node">
<title>Node22</title>
<g id="a_node23"><a xlink:title=" ">
<polygon fill="#ffffff" stroke="#bfbfbf" points="1306.5,-.5 1306.5,-19.5 1344.5,-19.5 1344.5,-.5 1306.5,-.5"/>
<text text-anchor="middle" x="1325.5" y="-7.5" font-family="Helvetica,sans-Serif" font-size="10.00" fill="#000000">QDir</text>
</a>
</g>
</g>
<!-- Node18&#45;&gt;Node22 -->
<g id="edge22" class="edge">
<title>Node18&#45;&gt;Node22</title>
<path fill="none" stroke="#191970" d="M1355.2293,-56.2455C1350.2736,-48.5367 1343.217,-37.5598 1337.2224,-28.2348"/>
<polygon fill="#191970" stroke="#191970" points="1340.0506,-26.1618 1331.6989,-19.6427 1334.1624,-29.9471 1340.0506,-26.1618"/>
</g>
<!-- Node18&#45;&gt;Node23 -->
<g id="edge23" class="edge">
<title>Node18&#45;&gt;Node23</title>
<path fill="none" stroke="#191970" d="M1398.0654,-58.3309C1443.6846,-48.7628 1522.0684,-32.3227 1574.5812,-21.3088"/>
<polygon fill="#191970" stroke="#191970" points="1575.3278,-24.7285 1584.3963,-19.2502 1573.8908,-17.8775 1575.3278,-24.7285"/>
</g>
<!-- Node24 -->
<g id="node25" class="node">
<title>Node24</title>
<g id="a_node25"><a xlink:title=" ">
<polygon fill="#ffffff" stroke="#bfbfbf" points="1362.5,-.5 1362.5,-19.5 1432.5,-19.5 1432.5,-.5 1362.5,-.5"/>
<text text-anchor="middle" x="1397.5" y="-7.5" font-family="Helvetica,sans-Serif" font-size="10.00" fill="#000000">QStringList</text>
</a>
</g>
</g>
<!-- Node18&#45;&gt;Node24 -->
<g id="edge24" class="edge">
<title>Node18&#45;&gt;Node24</title>
<path fill="none" stroke="#191970" d="M1367.7707,-56.2455C1372.7264,-48.5367 1379.783,-37.5598 1385.7776,-28.2348"/>
<polygon fill="#191970" stroke="#191970" points="1388.8376,-29.9471 1391.3011,-19.6427 1382.9494,-26.1618 1388.8376,-29.9471"/>
</g>
<!-- Node25 -->
<g id="node26" class="node">
<title>Node25</title>
<g id="a_node26"><a xlink:title=" ">
<polygon fill="#ffffff" stroke="#bfbfbf" points="1450.5,-.5 1450.5,-19.5 1492.5,-19.5 1492.5,-.5 1450.5,-.5"/>
<text text-anchor="middle" x="1471.5" y="-7.5" font-family="Helvetica,sans-Serif" font-size="10.00" fill="#000000">QPair</text>
</a>
</g>
</g>
<!-- Node18&#45;&gt;Node25 -->
<g id="edge25" class="edge">
<title>Node18&#45;&gt;Node25</title>
<path fill="none" stroke="#191970" d="M1380.6605,-56.2455C1398.0111,-47.4125 1423.7901,-34.2887 1443.4583,-24.2758"/>
<polygon fill="#191970" stroke="#191970" points="1445.2353,-27.2986 1452.559,-19.6427 1442.0595,-21.0605 1445.2353,-27.2986"/>
</g>
<!-- Node26 -->
<g id="node27" class="node">
<title>Node26</title>
<g id="a_node27"><a xlink:title=" ">
<polygon fill="#ffffff" stroke="#bfbfbf" points="1511,-.5 1511,-19.5 1566,-19.5 1566,-.5 1511,-.5"/>
<text text-anchor="middle" x="1538.5" y="-7.5" font-family="Helvetica,sans-Serif" font-size="10.00" fill="#000000">QPointF</text>
</a>
</g>
</g>
<!-- Node18&#45;&gt;Node26 -->
<g id="edge27" class="edge">
<title>Node18&#45;&gt;Node26</title>
<path fill="none" stroke="#191970" d="M1391.9274,-56.3733C1422.2038,-46.7943 1468.7152,-32.0788 1501.1992,-21.8014"/>
<polygon fill="#191970" stroke="#191970" points="1502.3182,-25.1184 1510.7966,-18.7649 1500.2066,-18.4445 1502.3182,-25.1184"/>
</g>
<!-- Node27&#45;&gt;Node4 -->
<g id="edge33" class="edge">
<title>Node27&#45;&gt;Node4</title>
<path fill="none" stroke="#191970" d="M1258.1405,-112.1558C1271.7102,-98.4181 1291.7998,-73.2468 1277.5,-56 1224.3561,8.0963 1173.8913,-38.0904 1086.9772,-19.6161"/>
<polygon fill="#191970" stroke="#191970" points="1087.5852,-16.1632 1077.0469,-17.2566 1085.9669,-22.9736 1087.5852,-16.1632"/>
</g>
<!-- Node27&#45;&gt;Node13 -->
<g id="edge29" class="edge">
<title>Node27&#45;&gt;Node13</title>
<path fill="none" stroke="#191970" d="M1223.9489,-112.3733C1201.6609,-103.2629 1168.0063,-89.5062 1143.1363,-79.3404"/>
<polygon fill="#191970" stroke="#191970" points="1144.3247,-76.0451 1133.7438,-75.5011 1141.6761,-82.5247 1144.3247,-76.0451"/>
</g>
<!-- Node27&#45;&gt;Node14 -->
<g id="edge30" class="edge">
<title>Node27&#45;&gt;Node14</title>
<path fill="none" stroke="#191970" d="M1236.1779,-112.2455C1226.5777,-103.9746 1212.6108,-91.9416 1201.3305,-82.2232"/>
<polygon fill="#191970" stroke="#191970" points="1203.553,-79.5182 1193.6924,-75.6427 1198.984,-84.8214 1203.553,-79.5182"/>
</g>
<!-- Node27&#45;&gt;Node15 -->
<g id="edge31" class="edge">
<title>Node27&#45;&gt;Node15</title>
<path fill="none" stroke="#191970" d="M1190.2429,-112.4798C1141.5381,-104.1606 1069.5088,-91.339 997.4134,-76.1005"/>
<polygon fill="#191970" stroke="#191970" points="997.7521,-72.5943 987.2424,-73.9345 996.294,-79.4407 997.7521,-72.5943"/>
</g>
<!-- Node27&#45;&gt;Node16 -->
<g id="edge32" class="edge">
<title>Node27&#45;&gt;Node16</title>
<path fill="none" stroke="#191970" d="M1247.5,-112.2455C1247.5,-104.9382 1247.5,-94.6944 1247.5,-85.7046"/>
<polygon fill="#191970" stroke="#191970" points="1251.0001,-85.6426 1247.5,-75.6427 1244.0001,-85.6427 1251.0001,-85.6426"/>
</g>
<!-- Node27&#45;&gt;Node18 -->
<g id="edge34" class="edge">
<title>Node27&#45;&gt;Node18</title>
<path fill="none" stroke="#191970" d="M1267.0973,-112.3733C1285.2331,-103.4644 1312.4135,-90.1127 1332.9587,-80.0203"/>
<polygon fill="#191970" stroke="#191970" points="1334.7261,-83.0517 1342.1584,-75.5011 1331.6397,-76.7688 1334.7261,-83.0517"/>
</g>
</g>
</svg>
        <g id="navigator" transform="translate(0 0)" fill="#404254">
                <rect fill="#f2f5e9" fill-opacity="0.5" stroke="#606060" stroke-width=".5" x="0" y="0" width="60" height="60"/>
                <use id="zoomplus" xlink:href="#zoomPlus" x="17" y="9" onmousedown="handleZoom(evt,'in')"/>
                <use id="zoomminus" xlink:href="#zoomMin" x="42" y="9" onmousedown="handleZoom(evt,'out')"/>
                <use id="reset" xlink:href="#resetDef" x="30" y="36" onmousedown="handleReset()"/>
                <g id="arrowUp" xlink:href="#dirArrow" transform="translate(30 24)" onmousedown="handlePan(0,-1)">
                  <use xlink:href="#rim" fill="#404040">
                        <set attributeName="fill" to="#808080" begin="arrowUp.mouseover" end="arrowUp.mouseout"/>
                  </use>
                  <path fill="none" stroke="white" stroke-width="1.5" d="M0,-3.0v7 M-2.5,-0.5L0,-3.0L2.5,-0.5"/>
                </g>
                <g id="arrowRight" xlink:href="#dirArrow" transform="rotate(90) translate(36 -43)" onmousedown="handlePan(1,0)">
                  <use xlink:href="#rim" fill="#404040">
                        <set attributeName="fill" to="#808080" begin="arrowRight.mouseover" end="arrowRight.mouseout"/>
                  </use>
                  <path fill="none" stroke="white" stroke-width="1.5" d="M0,-3.0v7 M-2.5,-0.5L0,-3.0L2.5,-0.5"/>
                </g>
                <g id="arrowDown" xlink:href="#dirArrow" transform="rotate(180) translate(-30 -48)" onmousedown="handlePan(0,1)">
                  <use xlink:href="#rim" fill="#404040">
                        <set attributeName="fill" to="#808080" begin="arrowDown.mouseover" end="arrowDown.mouseout"/>
                  </use>
                  <path fill="none" stroke="white" stroke-width="1.5" d="M0,-3.0v7 M-2.5,-0.5L0,-3.0L2.5,-0.5"/>
                </g>
                <g id="arrowLeft" xlink:href="#dirArrow" transform="rotate(270) translate(-36 17)" onmousedown="handlePan(-1,0)">
                  <use xlink:href="#rim" fill="#404040">
                        <set attributeName="fill" to="#808080" begin="arrowLeft.mouseover" end="arrowLeft.mouseout"/>
                  </use>
                  <path fill="none" stroke="white" stroke-width="1.5" d="M0,-3.0v7 M-2.5,-0.5L0,-3.0L2.5,-0.5"/>
                </g>
        </g>
        <svg viewBox="0 0 15 15" width="100%" height="30px" preserveAspectRatio="xMaxYMin meet">
         <g id="arrow_out" transform="scale(0.3 0.3)">
          <a xlink:href="welcomeview_8cpp__incl_org.svg" target="_base">
           <rect id="button" ry="5" rx="5" y="6" x="6" height="38" width="38"
                fill="#f2f5e9" fill-opacity="0.5" stroke="#606060" stroke-width="1.0"/>
           <path id="arrow"
             d="M 11.500037,31.436501 C 11.940474,20.09759 22.043105,11.32322 32.158766,21.979434 L 37.068811,17.246167 C 37.068811,17.246167 37.088388,32 37.088388,32 L 22.160133,31.978069 C 22.160133,31.978069 26.997745,27.140456 26.997745,27.140456 C 18.528582,18.264221 13.291696,25.230495 11.500037,31.436501 z"
             style="fill:#404040;"/>
          </a>
         </g>
        </svg>
</svg>
