<?xml version="1.0" encoding="UTF-8" standalone="no"?>
<!DOCTYPE svg PUBLIC "-//W3C//DTD SVG 1.1//EN"
 "http://www.w3.org/Graphics/SVG/1.1/DTD/svg11.dtd">
<!-- Generated by graphviz version 2.40.1 (0)
 -->
<!-- Title: BinManager::saveBinAs Pages: 1 -->
<svg width="1731pt" height="627pt"
 viewBox="0.00 0.00 1731.00 626.50" xmlns="http://www.w3.org/2000/svg" xmlns:xlink="http://www.w3.org/1999/xlink">
<g id="graph0" class="graph" transform="scale(1 1) rotate(0) translate(4 622.5)">
<title>BinManager::saveBinAs</title>
<polygon fill="#ffffff" stroke="transparent" points="-4,4 -4,-622.5 1727,-622.5 1727,4 -4,4"/>
<!-- Node11383 -->
<g id="node1" class="node">
<title>Node11383</title>
<g id="a_node1"><a xlink:title=" ">
<polygon fill="#bfbfbf" stroke="#000000" points="0,-497 0,-516 132,-516 132,-497 0,-497"/>
<text text-anchor="middle" x="66" y="-504" font-family="Helvetica,sans-Serif" font-size="10.00" fill="#000000">BinManager::saveBinAs</text>
</a>
</g>
</g>
<!-- Node11384 -->
<g id="node2" class="node">
<title>Node11384</title>
<g id="a_node2"><a xlink:href="../../d3/d50/classBinManager.html#a7b1883430ad85a0cfea0c65fd6bfc269" target="_top" xlink:title=" ">
<polygon fill="#ffffff" stroke="#000000" points="168,-519 168,-538 299,-538 299,-519 168,-519"/>
<text text-anchor="middle" x="233.5" y="-526" font-family="Helvetica,sans-Serif" font-size="10.00" fill="#000000">BinManager::currentBin</text>
</a>
</g>
</g>
<!-- Node11383&#45;&gt;Node11384 -->
<g id="edge1" class="edge">
<title>Node11383&#45;&gt;Node11384</title>
<path fill="none" stroke="#191970" d="M132.2004,-515.195C140.6132,-516.2999 149.2734,-517.4374 157.8204,-518.56"/>
<polygon fill="#191970" stroke="#191970" points="157.4096,-522.036 167.7803,-519.8682 158.3213,-515.0956 157.4096,-522.036"/>
</g>
<!-- Node11385 -->
<g id="node3" class="node">
<title>Node11385</title>
<g id="a_node3"><a xlink:href="../../de/d4e/classPartsBinPaletteWidget.html#a43207cd1e88066565d24c5d1369a0541" target="_top" xlink:title=" ">
<polygon fill="#ffffff" stroke="#000000" points="171,-469.5 171,-499.5 296,-499.5 296,-469.5 171,-469.5"/>
<text text-anchor="start" x="179" y="-487.5" font-family="Helvetica,sans-Serif" font-size="10.00" fill="#000000">PartsBinPaletteWidget</text>
<text text-anchor="middle" x="233.5" y="-476.5" font-family="Helvetica,sans-Serif" font-size="10.00" fill="#000000">::saveAs</text>
</a>
</g>
</g>
<!-- Node11383&#45;&gt;Node11385 -->
<g id="edge2" class="edge">
<title>Node11383&#45;&gt;Node11385</title>
<path fill="none" stroke="#191970" d="M132.2004,-497.805C141.5348,-496.579 151.1737,-495.313 160.6247,-494.0717"/>
<polygon fill="#191970" stroke="#191970" points="161.324,-497.51 170.783,-492.7375 160.4123,-490.5696 161.324,-497.51"/>
</g>
<!-- Node11386 -->
<g id="node4" class="node">
<title>Node11386</title>
<g id="a_node4"><a xlink:href="../../de/d4e/classPartsBinPaletteWidget.html#a59fc3ee75b851d07c83fa1ad3f614645" target="_top" xlink:title=" ">
<polygon fill="#ffffff" stroke="#000000" points="348.5,-573.5 348.5,-603.5 473.5,-603.5 473.5,-573.5 348.5,-573.5"/>
<text text-anchor="start" x="356.5" y="-591.5" font-family="Helvetica,sans-Serif" font-size="10.00" fill="#000000">PartsBinPaletteWidget</text>
<text text-anchor="middle" x="411" y="-580.5" font-family="Helvetica,sans-Serif" font-size="10.00" fill="#000000">::fileName</text>
</a>
</g>
</g>
<!-- Node11385&#45;&gt;Node11386 -->
<g id="edge3" class="edge">
<title>Node11385&#45;&gt;Node11386</title>
<path fill="none" stroke="#191970" d="M282.3981,-499.519C288.2726,-502.3567 293.9648,-505.6651 299,-509.5 320.4985,-525.8734 313.5948,-542.0049 335,-558.5 340.0878,-562.4207 345.7535,-565.8931 351.6336,-568.9529"/>
<polygon fill="#191970" stroke="#191970" points="350.4658,-572.2739 360.9977,-573.427 353.4836,-565.9578 350.4658,-572.2739"/>
</g>
<!-- Node11387 -->
<g id="node5" class="node">
<title>Node11387</title>
<g id="a_node5"><a xlink:href="../../de/d4e/classPartsBinPaletteWidget.html#a9b5aed3fb875f315430d294509e4aea4" target="_top" xlink:title=" ">
<polygon fill="#ffffff" stroke="#000000" points="533,-409.5 533,-439.5 658,-439.5 658,-409.5 533,-409.5"/>
<text text-anchor="start" x="541" y="-427.5" font-family="Helvetica,sans-Serif" font-size="10.00" fill="#000000">PartsBinPaletteWidget</text>
<text text-anchor="middle" x="595.5" y="-416.5" font-family="Helvetica,sans-Serif" font-size="10.00" fill="#000000">::title</text>
</a>
</g>
</g>
<!-- Node11385&#45;&gt;Node11387 -->
<g id="edge4" class="edge">
<title>Node11385&#45;&gt;Node11387</title>
<path fill="none" stroke="#191970" d="M289.9007,-469.462C304.5201,-465.8799 320.2902,-462.2913 335,-459.5 397.94,-447.5567 470.191,-438.1868 522.6119,-432.1597"/>
<polygon fill="#191970" stroke="#191970" points="523.2823,-435.6061 532.823,-430.999 522.4917,-428.6509 523.2823,-435.6061"/>
</g>
<!-- Node11388 -->
<g id="node6" class="node">
<title>Node11388</title>
<g id="a_node6"><a xlink:href="../../d4/d08/misc_8h.html#ad72485ea9c87de2533a6eb0e699ecfb4" target="_top" xlink:title=" ">
<polygon fill="#ffffff" stroke="#000000" points="916.5,-599 916.5,-618 1032.5,-618 1032.5,-599 916.5,-599"/>
<text text-anchor="middle" x="974.5" y="-606" font-family="Helvetica,sans-Serif" font-size="10.00" fill="#000000">FritzingBinExtension</text>
</a>
</g>
</g>
<!-- Node11385&#45;&gt;Node11388 -->
<g id="edge5" class="edge">
<title>Node11385&#45;&gt;Node11388</title>
<path fill="none" stroke="#191970" d="M290.7387,-499.5308C305.1317,-503.0528 320.5859,-506.615 335,-509.5 541.6508,-550.862 788.8258,-584.7644 906.1747,-599.9303"/>
<polygon fill="#191970" stroke="#191970" points="906.0753,-603.4463 916.4404,-601.2519 906.9692,-596.5036 906.0753,-603.4463"/>
</g>
<!-- Node11389 -->
<g id="node7" class="node">
<title>Node11389</title>
<g id="a_node7"><a xlink:href="../../d3/d1c/classFritzingWindow.html#a46da018c6bcb10814e9e2a848dab0dd4" target="_top" xlink:title=" ">
<polygon fill="#ffffff" stroke="#000000" points="335,-469.5 335,-499.5 487,-499.5 487,-469.5 335,-469.5"/>
<text text-anchor="start" x="343" y="-487.5" font-family="Helvetica,sans-Serif" font-size="10.00" fill="#000000">FritzingWindow::alreadyHas</text>
<text text-anchor="middle" x="411" y="-476.5" font-family="Helvetica,sans-Serif" font-size="10.00" fill="#000000">Extension</text>
</a>
</g>
</g>
<!-- Node11385&#45;&gt;Node11389 -->
<g id="edge6" class="edge">
<title>Node11385&#45;&gt;Node11389</title>
<path fill="none" stroke="#191970" d="M296.0799,-484.5C305.4138,-484.5 315.1718,-484.5 324.8876,-484.5"/>
<polygon fill="#191970" stroke="#191970" points="324.9778,-488.0001 334.9777,-484.5 324.9777,-481.0001 324.9778,-488.0001"/>
</g>
<!-- Node11398 -->
<g id="node16" class="node">
<title>Node11398</title>
<g id="a_node16"><a xlink:href="../../de/d4e/classPartsBinPaletteWidget.html#ad3bd22e49bec5a12554f466f41081b79" target="_top" xlink:title=" ">
<polygon fill="#ffffff" stroke="#000000" points="348.5,-245.5 348.5,-275.5 473.5,-275.5 473.5,-245.5 348.5,-245.5"/>
<text text-anchor="start" x="356.5" y="-263.5" font-family="Helvetica,sans-Serif" font-size="10.00" fill="#000000">PartsBinPaletteWidget</text>
<text text-anchor="middle" x="411" y="-252.5" font-family="Helvetica,sans-Serif" font-size="10.00" fill="#000000">::saveAsAux</text>
</a>
</g>
</g>
<!-- Node11385&#45;&gt;Node11398 -->
<g id="edge16" class="edge">
<title>Node11385&#45;&gt;Node11398</title>
<path fill="none" stroke="#191970" d="M245.4219,-469.4549C275.7897,-431.1316 356.221,-329.6295 392.6318,-283.6801"/>
<polygon fill="#191970" stroke="#191970" points="395.4288,-285.7859 398.8963,-275.7746 389.9424,-281.4385 395.4288,-285.7859"/>
</g>
<!-- Node11390 -->
<g id="node8" class="node">
<title>Node11390</title>
<g id="a_node8"><a xlink:href="../../d3/d1c/classFritzingWindow.html#aa47767f58c66caeff225b25a5454c390" target="_top" xlink:title=" ">
<polygon fill="#ffffff" stroke="#000000" points="525,-459 525,-478 666,-478 666,-459 525,-459"/>
<text text-anchor="middle" x="595.5" y="-466" font-family="Helvetica,sans-Serif" font-size="10.00" fill="#000000">FritzingWindow::fileName</text>
</a>
</g>
</g>
<!-- Node11389&#45;&gt;Node11390 -->
<g id="edge7" class="edge">
<title>Node11389&#45;&gt;Node11390</title>
<path fill="none" stroke="#191970" d="M487.1084,-477.8998C496.1956,-477.1118 505.4985,-476.305 514.6494,-475.5114"/>
<polygon fill="#191970" stroke="#191970" points="515.2368,-478.9737 524.897,-474.6228 514.6319,-471.9999 515.2368,-478.9737"/>
</g>
<!-- Node11391 -->
<g id="node9" class="node">
<title>Node11391</title>
<g id="a_node9"><a xlink:href="../../d7/d5f/misc_8cpp.html#acfc58c1b63c0597456d226225dad023c" target="_top" xlink:title=" ">
<polygon fill="#ffffff" stroke="#000000" points="543.5,-497 543.5,-516 647.5,-516 647.5,-497 543.5,-497"/>
<text text-anchor="middle" x="595.5" y="-504" font-family="Helvetica,sans-Serif" font-size="10.00" fill="#000000">fritzingExtensions</text>
</a>
</g>
</g>
<!-- Node11389&#45;&gt;Node11391 -->
<g id="edge8" class="edge">
<title>Node11389&#45;&gt;Node11391</title>
<path fill="none" stroke="#191970" d="M487.1084,-493.5753C502.5128,-495.4121 518.5369,-497.3228 533.39,-499.0939"/>
<polygon fill="#191970" stroke="#191970" points="533.1196,-502.5864 543.4637,-500.2951 533.9485,-495.6356 533.1196,-502.5864"/>
</g>
<!-- Node11392 -->
<g id="node10" class="node">
<title>Node11392</title>
<g id="a_node10"><a xlink:href="../../d7/d5f/misc_8cpp.html#a8b9d9444c5bd4f7781707e79227affd0" target="_top" xlink:title=" ">
<polygon fill="#ffffff" stroke="#000000" points="719.5,-497 719.5,-516 843.5,-516 843.5,-497 719.5,-497"/>
<text text-anchor="middle" x="781.5" y="-504" font-family="Helvetica,sans-Serif" font-size="10.00" fill="#000000">initializeExtensionList</text>
</a>
</g>
</g>
<!-- Node11391&#45;&gt;Node11392 -->
<g id="edge9" class="edge">
<title>Node11391&#45;&gt;Node11392</title>
<path fill="none" stroke="#191970" d="M647.8063,-506.5C666.8337,-506.5 688.692,-506.5 709.1469,-506.5"/>
<polygon fill="#191970" stroke="#191970" points="709.3738,-510.0001 719.3738,-506.5 709.3738,-503.0001 709.3738,-510.0001"/>
</g>
<!-- Node11392&#45;&gt;Node11388 -->
<g id="edge10" class="edge">
<title>Node11392&#45;&gt;Node11388</title>
<path fill="none" stroke="#191970" d="M831.2518,-516.0738C841.0996,-519.5166 850.8874,-524.1826 859,-530.5 883.2365,-549.3732 870.1565,-571.4333 895,-589.5 898.6493,-592.1538 902.6185,-594.4416 906.7719,-596.4131"/>
<polygon fill="#191970" stroke="#191970" points="905.5258,-599.685 916.1059,-600.2438 908.1835,-593.2091 905.5258,-599.685"/>
</g>
<!-- Node11393 -->
<g id="node11" class="node">
<title>Node11393</title>
<g id="a_node11"><a xlink:href="../../d4/d08/misc_8h.html#aa8a502117c973eea5594ca069587b0e8" target="_top" xlink:title=" ">
<polygon fill="#ffffff" stroke="#000000" points="896.5,-523 896.5,-542 1052.5,-542 1052.5,-523 896.5,-523"/>
<text text-anchor="middle" x="974.5" y="-530" font-family="Helvetica,sans-Serif" font-size="10.00" fill="#000000">FritzingBundledBinExtension</text>
</a>
</g>
</g>
<!-- Node11392&#45;&gt;Node11393 -->
<g id="edge11" class="edge">
<title>Node11392&#45;&gt;Node11393</title>
<path fill="none" stroke="#191970" d="M843.6288,-514.8697C859.5072,-517.0087 876.8139,-519.3402 893.4871,-521.5863"/>
<polygon fill="#191970" stroke="#191970" points="893.3905,-525.1049 903.7683,-522.9714 894.3251,-518.1675 893.3905,-525.1049"/>
</g>
<!-- Node11394 -->
<g id="node12" class="node">
<title>Node11394</title>
<g id="a_node12"><a xlink:href="../../d4/d08/misc_8h.html#a6d45f03f87be52b2975812e690f9ae68" target="_top" xlink:title=" ">
<polygon fill="#ffffff" stroke="#000000" points="895,-485 895,-504 1054,-504 1054,-485 895,-485"/>
<text text-anchor="middle" x="974.5" y="-492" font-family="Helvetica,sans-Serif" font-size="10.00" fill="#000000">FritzingBundledPartExtension</text>
</a>
</g>
</g>
<!-- Node11392&#45;&gt;Node11394 -->
<g id="edge12" class="edge">
<title>Node11392&#45;&gt;Node11394</title>
<path fill="none" stroke="#191970" d="M843.6288,-502.6371C856.7524,-501.8211 870.8515,-500.9445 884.7623,-500.0795"/>
<polygon fill="#191970" stroke="#191970" points="885.0782,-503.5668 894.8417,-499.4528 884.6437,-496.5803 885.0782,-503.5668"/>
</g>
<!-- Node11395 -->
<g id="node13" class="node">
<title>Node11395</title>
<g id="a_node13"><a xlink:href="../../d4/d08/misc_8h.html#abb7ae10a2ca56c950bda6dacee791688" target="_top" xlink:title=" ">
<polygon fill="#ffffff" stroke="#000000" points="907.5,-447 907.5,-466 1041.5,-466 1041.5,-447 907.5,-447"/>
<text text-anchor="middle" x="974.5" y="-454" font-family="Helvetica,sans-Serif" font-size="10.00" fill="#000000">FritzingBundleExtension</text>
</a>
</g>
</g>
<!-- Node11392&#45;&gt;Node11395 -->
<g id="edge13" class="edge">
<title>Node11392&#45;&gt;Node11395</title>
<path fill="none" stroke="#191970" d="M815.1965,-496.9925C837.7369,-490.7078 868.0876,-482.3893 895,-475.5 904.2849,-473.1231 914.2041,-470.678 923.7767,-468.366"/>
<polygon fill="#191970" stroke="#191970" points="924.6778,-471.7492 933.5857,-466.0133 923.0451,-464.9422 924.6778,-471.7492"/>
</g>
<!-- Node11396 -->
<g id="node14" class="node">
<title>Node11396</title>
<g id="a_node14"><a xlink:href="../../d4/d08/misc_8h.html#af94921b1392f8ec18b3d575c2c762b94" target="_top" xlink:title=" ">
<polygon fill="#ffffff" stroke="#000000" points="915,-409 915,-428 1034,-428 1034,-409 915,-409"/>
<text text-anchor="middle" x="974.5" y="-416" font-family="Helvetica,sans-Serif" font-size="10.00" fill="#000000">FritzingPartExtension</text>
</a>
</g>
</g>
<!-- Node11392&#45;&gt;Node11396 -->
<g id="edge14" class="edge">
<title>Node11392&#45;&gt;Node11396</title>
<path fill="none" stroke="#191970" d="M794.4041,-496.7856C814.7448,-481.9184 855.975,-453.5602 895,-437.5 901.1719,-434.96 907.7593,-432.7121 914.4012,-430.7345"/>
<polygon fill="#191970" stroke="#191970" points="915.4333,-434.0804 924.1293,-428.0282 913.5571,-427.3365 915.4333,-434.0804"/>
</g>
<!-- Node11397 -->
<g id="node15" class="node">
<title>Node11397</title>
<g id="a_node15"><a xlink:href="../../d4/d08/misc_8h.html#a74b4dc3fdcea5d103f2659a5f0088b0b" target="_top" xlink:title=" ">
<polygon fill="#ffffff" stroke="#000000" points="908,-561 908,-580 1041,-580 1041,-561 908,-561"/>
<text text-anchor="middle" x="974.5" y="-568" font-family="Helvetica,sans-Serif" font-size="10.00" fill="#000000">FritzingSketchExtension</text>
</a>
</g>
</g>
<!-- Node11392&#45;&gt;Node11397 -->
<g id="edge15" class="edge">
<title>Node11392&#45;&gt;Node11397</title>
<path fill="none" stroke="#191970" d="M818.3977,-516.0598C831.4596,-519.9293 846.1058,-524.8314 859,-530.5 875.957,-537.9547 877.8073,-544.6064 895,-551.5 901.2832,-554.0193 907.9852,-556.2595 914.7318,-558.237"/>
<polygon fill="#191970" stroke="#191970" points="914.0348,-561.6751 924.6047,-560.9483 915.8886,-554.925 914.0348,-561.6751"/>
</g>
<!-- Node11398&#45;&gt;Node11387 -->
<g id="edge19" class="edge">
<title>Node11398&#45;&gt;Node11387</title>
<path fill="none" stroke="#191970" d="M419.3702,-275.8063C435.6538,-304.2127 474.3076,-365.3005 523,-399.5 525.7238,-401.4131 528.607,-403.191 531.5926,-404.8418"/>
<polygon fill="#191970" stroke="#191970" points="530.2867,-408.1012 540.799,-409.4211 533.4042,-401.8338 530.2867,-408.1012"/>
</g>
<!-- Node11399 -->
<g id="node17" class="node">
<title>Node11399</title>
<g id="a_node17"><a xlink:href="../../de/d4e/classPartsBinPaletteWidget.html#a945b501cc950aa81922645d7d62b7b45" target="_top" xlink:title=" ">
<polygon fill="#ffffff" stroke="#000000" points="533,-196.5 533,-226.5 658,-226.5 658,-196.5 533,-196.5"/>
<text text-anchor="start" x="541" y="-214.5" font-family="Helvetica,sans-Serif" font-size="10.00" fill="#000000">PartsBinPaletteWidget</text>
<text text-anchor="middle" x="595.5" y="-203.5" font-family="Helvetica,sans-Serif" font-size="10.00" fill="#000000">::setFilename</text>
</a>
</g>
</g>
<!-- Node11398&#45;&gt;Node11399 -->
<g id="edge17" class="edge">
<title>Node11398&#45;&gt;Node11399</title>
<path fill="none" stroke="#191970" d="M467.6099,-245.4654C487.0906,-240.2917 509.0768,-234.4525 529.2554,-229.0934"/>
<polygon fill="#191970" stroke="#191970" points="530.2306,-232.4558 538.9971,-226.5062 528.4337,-225.6904 530.2306,-232.4558"/>
</g>
<!-- Node11401 -->
<g id="node19" class="node">
<title>Node11401</title>
<g id="a_node19"><a xlink:href="../../de/d4e/classPartsBinPaletteWidget.html#a252f93694b926a52d37986954c709275" target="_top" xlink:title=" ">
<polygon fill="#ffffff" stroke="#000000" points="533,-147.5 533,-177.5 658,-177.5 658,-147.5 533,-147.5"/>
<text text-anchor="start" x="541" y="-165.5" font-family="Helvetica,sans-Serif" font-size="10.00" fill="#000000">PartsBinPaletteWidget</text>
<text text-anchor="middle" x="595.5" y="-154.5" font-family="Helvetica,sans-Serif" font-size="10.00" fill="#000000">::root</text>
</a>
</g>
</g>
<!-- Node11398&#45;&gt;Node11401 -->
<g id="edge20" class="edge">
<title>Node11398&#45;&gt;Node11401</title>
<path fill="none" stroke="#191970" d="M430.2807,-245.4598C451.8774,-229.176 488.4042,-203.2875 523,-186.5 526.7574,-184.6767 530.6879,-182.9388 534.6919,-181.2927"/>
<polygon fill="#191970" stroke="#191970" points="536.0721,-184.5114 544.1211,-177.622 533.5326,-177.9882 536.0721,-184.5114"/>
</g>
<!-- Node11403 -->
<g id="node21" class="node">
<title>Node11403</title>
<g id="a_node21"><a xlink:href="../../d0/d49/classModelBase.html#a894fab9d2c291110e0ce3fb802698664" target="_top" xlink:title=" ">
<polygon fill="#ffffff" stroke="#000000" points="523,-98.5 523,-128.5 668,-128.5 668,-98.5 523,-98.5"/>
<text text-anchor="start" x="531" y="-116.5" font-family="Helvetica,sans-Serif" font-size="10.00" fill="#000000">ModelBase::rootModelPart</text>
<text text-anchor="middle" x="595.5" y="-105.5" font-family="Helvetica,sans-Serif" font-size="10.00" fill="#000000">Shared</text>
</a>
</g>
</g>
<!-- Node11398&#45;&gt;Node11403 -->
<g id="edge22" class="edge">
<title>Node11398&#45;&gt;Node11403</title>
<path fill="none" stroke="#191970" d="M420.8701,-245.3341C438.4061,-219.5438 477.463,-167.07 523,-137.5 525.4498,-135.9092 528.0149,-134.4144 530.6574,-133.011"/>
<polygon fill="#191970" stroke="#191970" points="532.3822,-136.0655 539.8842,-128.5842 529.3541,-129.7543 532.3822,-136.0655"/>
</g>
<!-- Node11404 -->
<g id="node22" class="node">
<title>Node11404</title>
<g id="a_node22"><a xlink:href="../../db/d45/classPaletteModel.html#a3d42609a97adee665638b9642c213f01" target="_top" xlink:title=" ">
<polygon fill="#ffffff" stroke="#000000" points="526.5,-49.5 526.5,-79.5 664.5,-79.5 664.5,-49.5 526.5,-49.5"/>
<text text-anchor="start" x="534.5" y="-67.5" font-family="Helvetica,sans-Serif" font-size="10.00" fill="#000000">PaletteModel::setOrderer</text>
<text text-anchor="middle" x="595.5" y="-56.5" font-family="Helvetica,sans-Serif" font-size="10.00" fill="#000000">Children</text>
</a>
</g>
</g>
<!-- Node11398&#45;&gt;Node11404 -->
<g id="edge23" class="edge">
<title>Node11398&#45;&gt;Node11404</title>
<path fill="none" stroke="#191970" d="M416.7304,-245.4055C430.1281,-212.1121 466.6938,-131.8974 523,-88.5 524.7918,-87.119 526.6668,-85.8155 528.606,-84.5852"/>
<polygon fill="#191970" stroke="#191970" points="530.4311,-87.5749 537.4602,-79.6476 527.0218,-81.4612 530.4311,-87.5749"/>
</g>
<!-- Node11405 -->
<g id="node23" class="node">
<title>Node11405</title>
<g id="a_node23"><a xlink:href="../../d8/dee/classPartsBinIconView.html#a024fe8b5acbdb5b1694df9ee3ede4d0f" target="_top" xlink:title=" ">
<polygon fill="#ffffff" stroke="#000000" points="524,-.5 524,-30.5 667,-30.5 667,-.5 524,-.5"/>
<text text-anchor="start" x="532" y="-18.5" font-family="Helvetica,sans-Serif" font-size="10.00" fill="#000000">PartsBinIconView::ordered</text>
<text text-anchor="middle" x="595.5" y="-7.5" font-family="Helvetica,sans-Serif" font-size="10.00" fill="#000000">Children</text>
</a>
</g>
</g>
<!-- Node11398&#45;&gt;Node11405 -->
<g id="edge24" class="edge">
<title>Node11398&#45;&gt;Node11405</title>
<path fill="none" stroke="#191970" d="M414.3922,-245.4066C424.0913,-205.7066 455.6805,-97.4459 523,-39.5 524.5073,-38.2026 526.0869,-36.9748 527.7251,-35.813"/>
<polygon fill="#191970" stroke="#191970" points="529.6416,-38.7435 536.3415,-30.5361 525.9857,-32.774 529.6416,-38.7435"/>
</g>
<!-- Node11407 -->
<g id="node25" class="node">
<title>Node11407</title>
<g id="a_node25"><a xlink:href="../../d0/d49/classModelBase.html#a5a6101c2ca741297eaa4f9ed2660ed17" target="_top" xlink:title=" ">
<polygon fill="#ffffff" stroke="#000000" points="545.5,-371 545.5,-390 645.5,-390 645.5,-371 545.5,-371"/>
<text text-anchor="middle" x="595.5" y="-378" font-family="Helvetica,sans-Serif" font-size="10.00" fill="#000000">ModelBase::save</text>
</a>
</g>
</g>
<!-- Node11398&#45;&gt;Node11407 -->
<g id="edge26" class="edge">
<title>Node11398&#45;&gt;Node11407</title>
<path fill="none" stroke="#191970" d="M424.8021,-275.5618C444.6654,-296.4264 483.3083,-334.0811 523,-356.5 530.7167,-360.8586 539.3464,-364.5773 547.8864,-367.6931"/>
<polygon fill="#191970" stroke="#191970" points="546.842,-371.0349 557.4366,-370.9568 549.1057,-364.411 546.842,-371.0349"/>
</g>
<!-- Node11409 -->
<g id="node27" class="node">
<title>Node11409</title>
<g id="a_node27"><a xlink:href="../../da/d3a/classDebugDialog.html#ad26216d18945d7d7188420707b76f241" target="_top" xlink:title=" ">
<polygon fill="#ffffff" stroke="#000000" points="1607,-311 1607,-330 1723,-330 1723,-311 1607,-311"/>
<text text-anchor="middle" x="1665" y="-318" font-family="Helvetica,sans-Serif" font-size="10.00" fill="#000000">DebugDialog::debug</text>
</a>
</g>
</g>
<!-- Node11398&#45;&gt;Node11409 -->
<g id="edge43" class="edge">
<title>Node11398&#45;&gt;Node11409</title>
<path fill="none" stroke="#191970" d="M431.2163,-275.5239C452.7383,-290.6088 488.3976,-313.0656 523,-323.5 633.2932,-356.7591 666.3012,-342.5 781.5,-342.5 781.5,-342.5 781.5,-342.5 1333,-342.5 1424.483,-342.5 1529.8359,-334.0804 1596.8867,-327.6586"/>
<polygon fill="#191970" stroke="#191970" points="1597.2877,-331.1362 1606.903,-326.6868 1596.6117,-324.1689 1597.2877,-331.1362"/>
</g>
<!-- Node11410 -->
<g id="node28" class="node">
<title>Node11410</title>
<g id="a_node28"><a xlink:href="../../d6/d6c/structBinLocation.html#a33ccd55ec91315d9a71baad33500a0f0" target="_top" xlink:title=" ">
<polygon fill="#ffffff" stroke="#000000" points="526,-295 526,-314 665,-314 665,-295 526,-295"/>
<text text-anchor="middle" x="595.5" y="-302" font-family="Helvetica,sans-Serif" font-size="10.00" fill="#000000">BinLocation::findLocation</text>
</a>
</g>
</g>
<!-- Node11398&#45;&gt;Node11410 -->
<g id="edge29" class="edge">
<title>Node11398&#45;&gt;Node11410</title>
<path fill="none" stroke="#191970" d="M473.7207,-275.4578C497.1841,-281.0534 523.4965,-287.3284 545.6432,-292.61"/>
<polygon fill="#191970" stroke="#191970" points="544.9613,-296.0455 555.5004,-294.9608 546.5852,-289.2364 544.9613,-296.0455"/>
</g>
<!-- Node11419 -->
<g id="node37" class="node">
<title>Node11419</title>
<g id="a_node37"><a xlink:href="../../de/d4e/classPartsBinPaletteWidget.html#a413ee955b4adc6eb014dc38a102a6831" target="_top" xlink:title=" ">
<polygon fill="#ffffff" stroke="#000000" points="533,-245.5 533,-275.5 658,-275.5 658,-245.5 533,-245.5"/>
<text text-anchor="start" x="541" y="-263.5" font-family="Helvetica,sans-Serif" font-size="10.00" fill="#000000">PartsBinPaletteWidget</text>
<text text-anchor="middle" x="595.5" y="-252.5" font-family="Helvetica,sans-Serif" font-size="10.00" fill="#000000">::hasAlienParts</text>
</a>
</g>
</g>
<!-- Node11398&#45;&gt;Node11419 -->
<g id="edge42" class="edge">
<title>Node11398&#45;&gt;Node11419</title>
<path fill="none" stroke="#191970" d="M473.7207,-260.5C489.5523,-260.5 506.681,-260.5 522.9519,-260.5"/>
<polygon fill="#191970" stroke="#191970" points="522.9528,-264.0001 532.9528,-260.5 522.9527,-257.0001 522.9528,-264.0001"/>
</g>
<!-- Node11400 -->
<g id="node18" class="node">
<title>Node11400</title>
<g id="a_node18"><a xlink:href="../../de/d4e/classPartsBinPaletteWidget.html#a9f3ec4dd34ce797d74476d54109f6784" target="_top" xlink:title=" ">
<polygon fill="#ffffff" stroke="#000000" points="719,-193.5 719,-223.5 844,-223.5 844,-193.5 719,-193.5"/>
<text text-anchor="start" x="727" y="-211.5" font-family="Helvetica,sans-Serif" font-size="10.00" fill="#000000">PartsBinPaletteWidget</text>
<text text-anchor="middle" x="781.5" y="-200.5" font-family="Helvetica,sans-Serif" font-size="10.00" fill="#000000">::currentBinIsCore</text>
</a>
</g>
</g>
<!-- Node11399&#45;&gt;Node11400 -->
<g id="edge18" class="edge">
<title>Node11399&#45;&gt;Node11400</title>
<path fill="none" stroke="#191970" d="M658.2118,-210.4885C674.3693,-210.2279 691.896,-209.9452 708.5259,-209.677"/>
<polygon fill="#191970" stroke="#191970" points="708.8019,-213.1731 718.7441,-209.5122 708.689,-206.174 708.8019,-213.1731"/>
</g>
<!-- Node11402 -->
<g id="node20" class="node">
<title>Node11402</title>
<g id="a_node20"><a xlink:href="../../d0/d49/classModelBase.html#aa720e23b5ac99421022c412380c9ace3" target="_top" xlink:title=" ">
<polygon fill="#ffffff" stroke="#000000" points="733.5,-153 733.5,-172 829.5,-172 829.5,-153 733.5,-153"/>
<text text-anchor="middle" x="781.5" y="-160" font-family="Helvetica,sans-Serif" font-size="10.00" fill="#000000">ModelBase::root</text>
</a>
</g>
</g>
<!-- Node11401&#45;&gt;Node11402 -->
<g id="edge21" class="edge">
<title>Node11401&#45;&gt;Node11402</title>
<path fill="none" stroke="#191970" d="M658.2118,-162.5C679.2334,-162.5 702.5728,-162.5 723.2392,-162.5"/>
<polygon fill="#191970" stroke="#191970" points="723.4611,-166.0001 733.4611,-162.5 723.461,-159.0001 723.4611,-166.0001"/>
</g>
<!-- Node11406 -->
<g id="node24" class="node">
<title>Node11406</title>
<g id="a_node24"><a xlink:href="../../d6/d17/classSvgIconWidget.html#a3e17155cc070e211179f21c5bf4a1a64" target="_top" xlink:title=" ">
<polygon fill="#ffffff" stroke="#000000" points="709,-6 709,-25 854,-25 854,-6 709,-6"/>
<text text-anchor="middle" x="781.5" y="-13" font-family="Helvetica,sans-Serif" font-size="10.00" fill="#000000">SvgIconWidget::modelPart</text>
</a>
</g>
</g>
<!-- Node11405&#45;&gt;Node11406 -->
<g id="edge25" class="edge">
<title>Node11405&#45;&gt;Node11406</title>
<path fill="none" stroke="#191970" d="M667.1464,-15.5C677.5385,-15.5 688.3066,-15.5 698.8928,-15.5"/>
<polygon fill="#191970" stroke="#191970" points="698.9686,-19.0001 708.9685,-15.5 698.9685,-12.0001 698.9686,-19.0001"/>
</g>
<!-- Node11408 -->
<g id="node26" class="node">
<title>Node11408</title>
<g id="a_node26"><a xlink:href="../../d2/d94/classFMessageBox.html#a64304e91e7816907a25c81f8ffc3284a" target="_top" xlink:title=" ">
<polygon fill="#ffffff" stroke="#000000" points="1092,-371 1092,-390 1222,-390 1222,-371 1092,-371"/>
<text text-anchor="middle" x="1157" y="-378" font-family="Helvetica,sans-Serif" font-size="10.00" fill="#000000">FMessageBox::warning</text>
</a>
</g>
</g>
<!-- Node11407&#45;&gt;Node11408 -->
<g id="edge27" class="edge">
<title>Node11407&#45;&gt;Node11408</title>
<path fill="none" stroke="#191970" d="M645.8235,-380.5C744.7237,-380.5 964.9125,-380.5 1081.3879,-380.5"/>
<polygon fill="#191970" stroke="#191970" points="1081.6444,-384.0001 1091.6443,-380.5 1081.6443,-377.0001 1081.6444,-384.0001"/>
</g>
<!-- Node11408&#45;&gt;Node11409 -->
<g id="edge28" class="edge">
<title>Node11408&#45;&gt;Node11409</title>
<path fill="none" stroke="#191970" d="M1222.0076,-382.8463C1304.2427,-384.4251 1449.7593,-382.5732 1571,-356.5 1593.5919,-351.6416 1617.925,-342.197 1636.1728,-334.2004"/>
<polygon fill="#191970" stroke="#191970" points="1637.6898,-337.3559 1645.3763,-330.0642 1634.8203,-330.971 1637.6898,-337.3559"/>
</g>
<!-- Node11411 -->
<g id="node29" class="node">
<title>Node11411</title>
<g id="a_node29"><a xlink:href="../../dd/d63/classFolderUtils.html#a1d31fd7428720ce7c1480a9cf6dc15de" target="_top" xlink:title=" ">
<polygon fill="#ffffff" stroke="#000000" points="714.5,-242.5 714.5,-272.5 848.5,-272.5 848.5,-242.5 714.5,-242.5"/>
<text text-anchor="start" x="722.5" y="-260.5" font-family="Helvetica,sans-Serif" font-size="10.00" fill="#000000">FolderUtils::getAppParts</text>
<text text-anchor="middle" x="781.5" y="-249.5" font-family="Helvetica,sans-Serif" font-size="10.00" fill="#000000">SubFolderPath</text>
</a>
</g>
</g>
<!-- Node11410&#45;&gt;Node11411 -->
<g id="edge30" class="edge">
<title>Node11410&#45;&gt;Node11411</title>
<path fill="none" stroke="#191970" d="M633.1399,-294.9888C655.8298,-289.2554 685.4322,-281.7752 712.2208,-275.006"/>
<polygon fill="#191970" stroke="#191970" points="713.1072,-278.3921 721.945,-272.5488 711.3923,-271.6055 713.1072,-278.3921"/>
</g>
<!-- Node11417 -->
<g id="node35" class="node">
<title>Node11417</title>
<g id="a_node35"><a xlink:href="../../dd/d63/classFolderUtils.html#a3e0e661c4c3e02261f367c7d00829f41" target="_top" xlink:title=" ">
<polygon fill="#ffffff" stroke="#000000" points="704,-293 704,-312 859,-312 859,-293 704,-293"/>
<text text-anchor="middle" x="781.5" y="-300" font-family="Helvetica,sans-Serif" font-size="10.00" fill="#000000">FolderUtils::getUserBinsPath</text>
</a>
</g>
</g>
<!-- Node11410&#45;&gt;Node11417 -->
<g id="edge40" class="edge">
<title>Node11410&#45;&gt;Node11417</title>
<path fill="none" stroke="#191970" d="M665.024,-303.7524C674.4437,-303.6511 684.2071,-303.5462 693.8923,-303.442"/>
<polygon fill="#191970" stroke="#191970" points="693.9776,-306.9414 703.9393,-303.334 693.9022,-299.9418 693.9776,-306.9414"/>
</g>
<!-- Node11412 -->
<g id="node30" class="node">
<title>Node11412</title>
<g id="a_node30"><a xlink:href="../../dd/d63/classFolderUtils.html#a1cfc928bc5e4767ee32d0e12fe3e14a8" target="_top" xlink:title=" ">
<polygon fill="#ffffff" stroke="#000000" points="1442.5,-207 1442.5,-226 1570.5,-226 1570.5,-207 1442.5,-207"/>
<text text-anchor="middle" x="1506.5" y="-214" font-family="Helvetica,sans-Serif" font-size="10.00" fill="#000000">FolderUtils::FolderUtils</text>
</a>
</g>
</g>
<!-- Node11411&#45;&gt;Node11412 -->
<g id="edge31" class="edge">
<title>Node11411&#45;&gt;Node11412</title>
<path fill="none" stroke="#191970" d="M828.5081,-242.4556C853.6359,-234.6908 882.0109,-226.4408 895,-224.5 1086.8836,-195.8287 1316.4037,-204.0128 1432.061,-211.0456"/>
<polygon fill="#191970" stroke="#191970" points="1432.0194,-214.5498 1442.2177,-211.6782 1432.4546,-207.5633 1432.0194,-214.5498"/>
</g>
<!-- Node11413 -->
<g id="node31" class="node">
<title>Node11413</title>
<g id="a_node31"><a xlink:href="../../dd/d63/classFolderUtils.html#affe62da0f029c1f69d5fbc0fd1fc0c74" target="_top" xlink:title=" ">
<polygon fill="#ffffff" stroke="#000000" points="907.5,-234.5 907.5,-264.5 1041.5,-264.5 1041.5,-234.5 907.5,-234.5"/>
<text text-anchor="start" x="915.5" y="-252.5" font-family="Helvetica,sans-Serif" font-size="10.00" fill="#000000">FolderUtils::getAppParts</text>
<text text-anchor="middle" x="974.5" y="-241.5" font-family="Helvetica,sans-Serif" font-size="10.00" fill="#000000">SubFolder</text>
</a>
</g>
</g>
<!-- Node11411&#45;&gt;Node11413 -->
<g id="edge32" class="edge">
<title>Node11411&#45;&gt;Node11413</title>
<path fill="none" stroke="#191970" d="M848.7311,-254.7132C864.2589,-254.0696 880.9035,-253.3796 896.8355,-252.7193"/>
<polygon fill="#191970" stroke="#191970" points="897.3368,-256.2016 907.1832,-252.2903 897.0468,-249.2076 897.3368,-256.2016"/>
</g>
<!-- Node11413&#45;&gt;Node11412 -->
<g id="edge33" class="edge">
<title>Node11413&#45;&gt;Node11412</title>
<path fill="none" stroke="#191970" d="M1041.6086,-245.3372C1141.4965,-239.1412 1328.6277,-227.5334 1432.4121,-221.0957"/>
<polygon fill="#191970" stroke="#191970" points="1432.7324,-224.5826 1442.4965,-220.4701 1432.299,-217.5961 1432.7324,-224.5826"/>
</g>
<!-- Node11414 -->
<g id="node32" class="node">
<title>Node11414</title>
<g id="a_node32"><a xlink:href="../../dd/d63/classFolderUtils.html#a362640e33643f9f8049352fd7d947ea8" target="_top" xlink:title=" ">
<polygon fill="#ffffff" stroke="#000000" points="1090,-259.5 1090,-289.5 1224,-289.5 1224,-259.5 1090,-259.5"/>
<text text-anchor="start" x="1098" y="-277.5" font-family="Helvetica,sans-Serif" font-size="10.00" fill="#000000">FolderUtils::getAppParts</text>
<text text-anchor="middle" x="1157" y="-266.5" font-family="Helvetica,sans-Serif" font-size="10.00" fill="#000000">SubFolder2</text>
</a>
</g>
</g>
<!-- Node11413&#45;&gt;Node11414 -->
<g id="edge34" class="edge">
<title>Node11413&#45;&gt;Node11414</title>
<path fill="none" stroke="#191970" d="M1041.6788,-258.7026C1054.1091,-260.4054 1067.1813,-262.1961 1079.8793,-263.9355"/>
<polygon fill="#191970" stroke="#191970" points="1079.5808,-267.4272 1089.9633,-265.3169 1080.5309,-260.492 1079.5808,-267.4272"/>
</g>
<!-- Node11415 -->
<g id="node33" class="node">
<title>Node11415</title>
<g id="a_node33"><a xlink:href="../../dd/d63/classFolderUtils.html#ab9ac929b2f8ae09fb703d6e4fcc952e0" target="_top" xlink:title=" ">
<polygon fill="#ffffff" stroke="#000000" points="1260,-259.5 1260,-289.5 1406,-289.5 1406,-259.5 1260,-259.5"/>
<text text-anchor="start" x="1268" y="-277.5" font-family="Helvetica,sans-Serif" font-size="10.00" fill="#000000">FolderUtils::getApplication</text>
<text text-anchor="middle" x="1333" y="-266.5" font-family="Helvetica,sans-Serif" font-size="10.00" fill="#000000">SubFolder</text>
</a>
</g>
</g>
<!-- Node11414&#45;&gt;Node11415 -->
<g id="edge35" class="edge">
<title>Node11414&#45;&gt;Node11415</title>
<path fill="none" stroke="#191970" d="M1224.0401,-274.5C1232.4886,-274.5 1241.2107,-274.5 1249.8698,-274.5"/>
<polygon fill="#191970" stroke="#191970" points="1249.9856,-278.0001 1259.9856,-274.5 1249.9856,-271.0001 1249.9856,-278.0001"/>
</g>
<!-- Node11415&#45;&gt;Node11409 -->
<g id="edge39" class="edge">
<title>Node11415&#45;&gt;Node11409</title>
<path fill="none" stroke="#191970" d="M1406.1273,-265.4305C1453.7278,-261.6594 1516.811,-260.7077 1571,-273.5 1597.1286,-279.6681 1624.2752,-294.2726 1642.6376,-305.5779"/>
<polygon fill="#191970" stroke="#191970" points="1640.8248,-308.5727 1651.1452,-310.9688 1644.5716,-302.6598 1640.8248,-308.5727"/>
</g>
<!-- Node11415&#45;&gt;Node11412 -->
<g id="edge36" class="edge">
<title>Node11415&#45;&gt;Node11412</title>
<path fill="none" stroke="#191970" d="M1378.1322,-259.4126C1406.0878,-250.0672 1441.6003,-238.1956 1468.1835,-229.309"/>
<polygon fill="#191970" stroke="#191970" points="1469.5257,-232.5507 1477.9001,-226.0608 1467.3063,-225.9119 1469.5257,-232.5507"/>
</g>
<!-- Node11416 -->
<g id="node34" class="node">
<title>Node11416</title>
<g id="a_node34"><a xlink:href="../../dd/d63/classFolderUtils.html#ae36aca73d9a99c08603ca1f2b908dea0" target="_top" xlink:title=" ">
<polygon fill="#ffffff" stroke="#000000" points="1442,-283.5 1442,-313.5 1571,-313.5 1571,-283.5 1442,-283.5"/>
<text text-anchor="start" x="1450" y="-301.5" font-family="Helvetica,sans-Serif" font-size="10.00" fill="#000000">FolderUtils::application</text>
<text text-anchor="middle" x="1506.5" y="-290.5" font-family="Helvetica,sans-Serif" font-size="10.00" fill="#000000">DirPath</text>
</a>
</g>
</g>
<!-- Node11415&#45;&gt;Node11416 -->
<g id="edge37" class="edge">
<title>Node11415&#45;&gt;Node11416</title>
<path fill="none" stroke="#191970" d="M1406.0768,-284.6086C1414.5969,-285.7872 1423.2975,-286.9907 1431.8387,-288.1722"/>
<polygon fill="#191970" stroke="#191970" points="1431.3864,-291.6429 1441.7717,-289.5462 1432.3456,-284.7089 1431.3864,-291.6429"/>
</g>
<!-- Node11416&#45;&gt;Node11409 -->
<g id="edge38" class="edge">
<title>Node11416&#45;&gt;Node11409</title>
<path fill="none" stroke="#191970" d="M1571.4253,-307.5117C1579.7521,-308.6675 1588.2972,-309.8536 1596.6761,-311.0166"/>
<polygon fill="#191970" stroke="#191970" points="1596.402,-314.512 1606.7883,-312.4201 1597.3645,-307.5785 1596.402,-314.512"/>
</g>
<!-- Node11418 -->
<g id="node36" class="node">
<title>Node11418</title>
<g id="a_node36"><a xlink:href="../../dd/d63/classFolderUtils.html#a9e306412034df4031e73cf34f8348439" target="_top" xlink:title=" ">
<polygon fill="#ffffff" stroke="#000000" points="907.5,-283.5 907.5,-313.5 1041.5,-313.5 1041.5,-283.5 907.5,-283.5"/>
<text text-anchor="start" x="915.5" y="-301.5" font-family="Helvetica,sans-Serif" font-size="10.00" fill="#000000">FolderUtils::getTopLevel</text>
<text text-anchor="middle" x="974.5" y="-290.5" font-family="Helvetica,sans-Serif" font-size="10.00" fill="#000000">DocumentsPath</text>
</a>
</g>
</g>
<!-- Node11417&#45;&gt;Node11418 -->
<g id="edge41" class="edge">
<title>Node11417&#45;&gt;Node11418</title>
<path fill="none" stroke="#191970" d="M859.1662,-300.8903C871.6047,-300.6325 884.4776,-300.3657 896.9142,-300.108"/>
<polygon fill="#191970" stroke="#191970" points="897.314,-303.6006 907.2393,-299.894 897.1689,-296.6021 897.314,-303.6006"/>
</g>
</g>
</svg>
