<?xml version="1.0" encoding="UTF-8" standalone="no"?>
<!DOCTYPE svg PUBLIC "-//W3C//DTD SVG 1.1//EN"
 "http://www.w3.org/Graphics/SVG/1.1/DTD/svg11.dtd">
<!-- Generated by graphviz version 2.40.1 (0)
 -->
<!-- Title: BinManager::removeSelected Pages: 1 -->
<svg width="1495pt" height="546pt"
 viewBox="0.00 0.00 1495.00 545.50" xmlns="http://www.w3.org/2000/svg" xmlns:xlink="http://www.w3.org/1999/xlink">
<g id="graph0" class="graph" transform="scale(1 1) rotate(0) translate(4 541.5)">
<title>BinManager::removeSelected</title>
<polygon fill="#ffffff" stroke="transparent" points="-4,4 -4,-541.5 1491,-541.5 1491,4 -4,4"/>
<!-- Node11280 -->
<g id="node1" class="node">
<title>Node11280</title>
<g id="a_node1"><a xlink:title=" ">
<polygon fill="#bfbfbf" stroke="#000000" points="0,-301 0,-320 161,-320 161,-301 0,-301"/>
<text text-anchor="middle" x="80.5" y="-308" font-family="Helvetica,sans-Serif" font-size="10.00" fill="#000000">BinManager::removeSelected</text>
</a>
</g>
</g>
<!-- Node11281 -->
<g id="node2" class="node">
<title>Node11281</title>
<g id="a_node2"><a xlink:href="../../d6/d1a/classMainWindow.html#ae2912a786c16b88c48e4987582ed4e65" target="_top" xlink:title=" ">
<polygon fill="#ffffff" stroke="#000000" points="198.5,-518 198.5,-537 338.5,-537 338.5,-518 198.5,-518"/>
<text text-anchor="middle" x="268.5" y="-525" font-family="Helvetica,sans-Serif" font-size="10.00" fill="#000000">MainWindow::anyUsePart</text>
</a>
</g>
</g>
<!-- Node11280&#45;&gt;Node11281 -->
<g id="edge1" class="edge">
<title>Node11280&#45;&gt;Node11281</title>
<path fill="none" stroke="#191970" d="M83.252,-320.1195C92.9514,-352.2349 128.7018,-456.6497 197,-508.5 199.4776,-510.3809 202.1263,-512.076 204.8916,-513.6035"/>
<polygon fill="#191970" stroke="#191970" points="203.5167,-516.8249 214.0533,-517.9346 206.5084,-510.4964 203.5167,-516.8249"/>
</g>
<!-- Node11284 -->
<g id="node5" class="node">
<title>Node11284</title>
<g id="a_node5"><a xlink:href="../../d3/d50/classBinManager.html#a7b1883430ad85a0cfea0c65fd6bfc269" target="_top" xlink:title=" ">
<polygon fill="#ffffff" stroke="#000000" points="203,-480 203,-499 334,-499 334,-480 203,-480"/>
<text text-anchor="middle" x="268.5" y="-487" font-family="Helvetica,sans-Serif" font-size="10.00" fill="#000000">BinManager::currentBin</text>
</a>
</g>
</g>
<!-- Node11280&#45;&gt;Node11284 -->
<g id="edge4" class="edge">
<title>Node11280&#45;&gt;Node11284</title>
<path fill="none" stroke="#191970" d="M85.0693,-320.0923C98.401,-347.073 139.9461,-424.3317 197,-465.5 202.913,-469.7666 209.6368,-473.3127 216.5389,-476.2498"/>
<polygon fill="#191970" stroke="#191970" points="215.4119,-479.5662 226.0019,-479.8879 217.9239,-473.0324 215.4119,-479.5662"/>
</g>
<!-- Node11285 -->
<g id="node6" class="node">
<title>Node11285</title>
<g id="a_node6"><a xlink:href="../../d4/d72/classModelPart.html#affa1c5cf5ca90387b030ec2f8311823f" target="_top" xlink:title=" ">
<polygon fill="#ffffff" stroke="#000000" points="1052.5,-404 1052.5,-423 1171.5,-423 1171.5,-404 1052.5,-404"/>
<text text-anchor="middle" x="1112" y="-411" font-family="Helvetica,sans-Serif" font-size="10.00" fill="#000000">ModelPart::moduleID</text>
</a>
</g>
</g>
<!-- Node11280&#45;&gt;Node11285 -->
<g id="edge5" class="edge">
<title>Node11280&#45;&gt;Node11285</title>
<path fill="none" stroke="#191970" d="M93.8473,-320.0548C114.8624,-334.7083 157.3622,-362.7854 197,-379.5 310.2485,-427.2551 341.0944,-451.5 464,-451.5 464,-451.5 464,-451.5 684.5,-451.5 820.0965,-451.5 854.1904,-447.0874 989,-432.5 1008.0288,-430.4409 1028.6155,-427.532 1047.4037,-424.6078"/>
<polygon fill="#191970" stroke="#191970" points="1048.0104,-428.0555 1057.34,-423.0346 1046.9156,-421.1416 1048.0104,-428.0555"/>
</g>
<!-- Node11286 -->
<g id="node7" class="node">
<title>Node11286</title>
<g id="a_node7"><a xlink:href="../../d4/d72/classModelPart.html#a4c4b99accea7970f828880cfb85a4ce3" target="_top" xlink:title=" ">
<polygon fill="#ffffff" stroke="#000000" points="222,-301 222,-320 315,-320 315,-301 222,-301"/>
<text text-anchor="middle" x="268.5" y="-308" font-family="Helvetica,sans-Serif" font-size="10.00" fill="#000000">ModelPart::path</text>
</a>
</g>
</g>
<!-- Node11280&#45;&gt;Node11286 -->
<g id="edge6" class="edge">
<title>Node11280&#45;&gt;Node11286</title>
<path fill="none" stroke="#191970" d="M161.0471,-310.5C178.0517,-310.5 195.6561,-310.5 211.572,-310.5"/>
<polygon fill="#191970" stroke="#191970" points="211.7639,-314.0001 221.7639,-310.5 211.7638,-307.0001 211.7639,-314.0001"/>
</g>
<!-- Node11287 -->
<g id="node8" class="node">
<title>Node11287</title>
<g id="a_node8"><a xlink:href="../../d0/dbb/classWaitPushUndoStack.html#a279fdca551f05e81111de92ea5b2145c" target="_top" xlink:title=" ">
<polygon fill="#ffffff" stroke="#000000" points="197,-263 197,-282 340,-282 340,-263 197,-263"/>
<text text-anchor="middle" x="268.5" y="-270" font-family="Helvetica,sans-Serif" font-size="10.00" fill="#000000">WaitPushUndoStack::push</text>
</a>
</g>
</g>
<!-- Node11280&#45;&gt;Node11287 -->
<g id="edge7" class="edge">
<title>Node11280&#45;&gt;Node11287</title>
<path fill="none" stroke="#191970" d="M127.9403,-300.911C153.3077,-295.7835 184.7274,-289.4328 211.4232,-284.0368"/>
<polygon fill="#191970" stroke="#191970" points="212.2925,-287.432 221.4008,-282.0201 210.9056,-280.5707 212.2925,-287.432"/>
</g>
<!-- Node11295 -->
<g id="node16" class="node">
<title>Node11295</title>
<g id="a_node16"><a xlink:href="../../de/d4e/classPartsBinPaletteWidget.html#aec9e93a8099b8c01b808efd42c608526" target="_top" xlink:title=" ">
<polygon fill="#ffffff" stroke="#000000" points="206,-339.5 206,-369.5 331,-369.5 331,-339.5 206,-339.5"/>
<text text-anchor="start" x="214" y="-357.5" font-family="Helvetica,sans-Serif" font-size="10.00" fill="#000000">PartsBinPaletteWidget</text>
<text text-anchor="middle" x="268.5" y="-346.5" font-family="Helvetica,sans-Serif" font-size="10.00" fill="#000000">::removePart</text>
</a>
</g>
</g>
<!-- Node11280&#45;&gt;Node11295 -->
<g id="edge15" class="edge">
<title>Node11280&#45;&gt;Node11295</title>
<path fill="none" stroke="#191970" d="M121.2932,-320.0473C143.1255,-325.157 170.6674,-331.603 196.0063,-337.5334"/>
<polygon fill="#191970" stroke="#191970" points="195.4275,-340.9924 205.962,-339.8634 197.0227,-334.1766 195.4275,-340.9924"/>
</g>
<!-- Node11313 -->
<g id="node34" class="node">
<title>Node11313</title>
<g id="a_node34"><a xlink:href="../../de/d4e/classPartsBinPaletteWidget.html#aaec5e2042a08eefa9297cf352cf88363" target="_top" xlink:title=" ">
<polygon fill="#ffffff" stroke="#000000" points="206,-213.5 206,-243.5 331,-243.5 331,-213.5 206,-213.5"/>
<text text-anchor="start" x="214" y="-231.5" font-family="Helvetica,sans-Serif" font-size="10.00" fill="#000000">PartsBinPaletteWidget</text>
<text text-anchor="middle" x="268.5" y="-220.5" font-family="Helvetica,sans-Serif" font-size="10.00" fill="#000000">::selectedModelPart</text>
</a>
</g>
</g>
<!-- Node11280&#45;&gt;Node11313 -->
<g id="edge35" class="edge">
<title>Node11280&#45;&gt;Node11313</title>
<path fill="none" stroke="#191970" d="M98.3551,-300.9382C120.9581,-289.0272 161.2637,-268.428 197,-253.5 202.1569,-251.3458 207.5722,-249.2178 213.018,-247.1668"/>
<polygon fill="#191970" stroke="#191970" points="214.626,-250.3047 222.804,-243.5688 212.2104,-243.7347 214.626,-250.3047"/>
</g>
<!-- Node11315 -->
<g id="node36" class="node">
<title>Node11315</title>
<g id="a_node36"><a xlink:href="../../de/d4e/classPartsBinPaletteWidget.html#a7504bdb7d9a1a4b8ca2df59bf643a041" target="_top" xlink:title=" ">
<polygon fill="#ffffff" stroke="#000000" points="206,-164.5 206,-194.5 331,-194.5 331,-164.5 206,-164.5"/>
<text text-anchor="start" x="214" y="-182.5" font-family="Helvetica,sans-Serif" font-size="10.00" fill="#000000">PartsBinPaletteWidget</text>
<text text-anchor="middle" x="268.5" y="-171.5" font-family="Helvetica,sans-Serif" font-size="10.00" fill="#000000">::setDirty</text>
</a>
</g>
</g>
<!-- Node11280&#45;&gt;Node11315 -->
<g id="edge37" class="edge">
<title>Node11280&#45;&gt;Node11315</title>
<path fill="none" stroke="#191970" d="M88.5676,-300.9097C106.2325,-280.4665 150.4863,-232.2114 197,-204.5 200.5586,-202.3799 204.324,-200.403 208.1914,-198.5662"/>
<polygon fill="#191970" stroke="#191970" points="209.6096,-201.7661 217.3513,-194.5331 206.7887,-195.3596 209.6096,-201.7661"/>
</g>
<!-- Node11318 -->
<g id="node39" class="node">
<title>Node11318</title>
<g id="a_node39"><a xlink:href="../../d4/d72/classModelPart.html#a29e10c6f50f41dbb0022f6e885b282e9" target="_top" xlink:title=" ">
<polygon fill="#ffffff" stroke="#000000" points="223,-126 223,-145 314,-145 314,-126 223,-126"/>
<text text-anchor="middle" x="268.5" y="-133" font-family="Helvetica,sans-Serif" font-size="10.00" fill="#000000">ModelPart::title</text>
</a>
</g>
</g>
<!-- Node11280&#45;&gt;Node11318 -->
<g id="edge40" class="edge">
<title>Node11280&#45;&gt;Node11318</title>
<path fill="none" stroke="#191970" d="M84.9648,-300.759C98.0217,-273.3869 138.913,-195.1974 197,-155.5 201.9086,-152.1454 207.3695,-149.3504 213.0243,-147.0222"/>
<polygon fill="#191970" stroke="#191970" points="214.4526,-150.2274 222.6608,-143.5284 212.0666,-143.6465 214.4526,-150.2274"/>
</g>
<!-- Node11282 -->
<g id="node3" class="node">
<title>Node11282</title>
<g id="a_node3"><a xlink:href="../../d6/d1a/classMainWindow.html#ac343e777a695bf05656abc639ffa2a31" target="_top" xlink:title=" ">
<polygon fill="#ffffff" stroke="#000000" points="401,-518 401,-537 527,-537 527,-518 401,-518"/>
<text text-anchor="middle" x="464" y="-525" font-family="Helvetica,sans-Serif" font-size="10.00" fill="#000000">MainWindow::usesPart</text>
</a>
</g>
</g>
<!-- Node11281&#45;&gt;Node11282 -->
<g id="edge2" class="edge">
<title>Node11281&#45;&gt;Node11282</title>
<path fill="none" stroke="#191970" d="M338.5278,-527.5C355.404,-527.5 373.4821,-527.5 390.5115,-527.5"/>
<polygon fill="#191970" stroke="#191970" points="390.9591,-531.0001 400.959,-527.5 390.959,-524.0001 390.9591,-531.0001"/>
</g>
<!-- Node11283 -->
<g id="node4" class="node">
<title>Node11283</title>
<g id="a_node4"><a xlink:href="../../d4/d4f/classItemBase.html#a97277bb1a43bcb78bcc5522290c63477" target="_top" xlink:title=" ">
<polygon fill="#ffffff" stroke="#000000" points="626.5,-518 626.5,-537 742.5,-537 742.5,-518 626.5,-518"/>
<text text-anchor="middle" x="684.5" y="-525" font-family="Helvetica,sans-Serif" font-size="10.00" fill="#000000">ItemBase::moduleID</text>
</a>
</g>
</g>
<!-- Node11282&#45;&gt;Node11283 -->
<g id="edge3" class="edge">
<title>Node11282&#45;&gt;Node11283</title>
<path fill="none" stroke="#191970" d="M527.1865,-527.5C554.9551,-527.5 587.6274,-527.5 615.9803,-527.5"/>
<polygon fill="#191970" stroke="#191970" points="616.2135,-531.0001 626.2135,-527.5 616.2135,-524.0001 616.2135,-531.0001"/>
</g>
<!-- Node11288 -->
<g id="node9" class="node">
<title>Node11288</title>
<g id="a_node9"><a xlink:href="../../d0/dbb/classWaitPushUndoStack.html#a2b0322812e333fec2b4d0d12b12e634c" target="_top" xlink:title=" ">
<polygon fill="#ffffff" stroke="#000000" points="404,-139.5 404,-169.5 524,-169.5 524,-139.5 404,-139.5"/>
<text text-anchor="start" x="412" y="-157.5" font-family="Helvetica,sans-Serif" font-size="10.00" fill="#000000">WaitPushUndoStack::</text>
<text text-anchor="middle" x="464" y="-146.5" font-family="Helvetica,sans-Serif" font-size="10.00" fill="#000000">writeUndo</text>
</a>
</g>
</g>
<!-- Node11287&#45;&gt;Node11288 -->
<g id="edge8" class="edge">
<title>Node11287&#45;&gt;Node11288</title>
<path fill="none" stroke="#191970" d="M315.6831,-262.941C324.0104,-260.425 332.4297,-257.3145 340,-253.5 379.7841,-233.4537 418.7876,-199.2273 442.1204,-176.736"/>
<polygon fill="#191970" stroke="#191970" points="444.7155,-179.0934 449.411,-169.5959 439.8176,-174.0923 444.7155,-179.0934"/>
</g>
<!-- Node11289 -->
<g id="node10" class="node">
<title>Node11289</title>
<g id="a_node10"><a xlink:href="../../d8/d6e/classBaseCommand.html#a2d7619b36325bfec9111724045c24b8e" target="_top" xlink:title=" ">
<polygon fill="#ffffff" stroke="#000000" points="598,-88 598,-107 771,-107 771,-88 598,-88"/>
<text text-anchor="middle" x="684.5" y="-95" font-family="Helvetica,sans-Serif" font-size="10.00" fill="#000000">BaseCommand::getDebugString</text>
</a>
</g>
</g>
<!-- Node11288&#45;&gt;Node11289 -->
<g id="edge9" class="edge">
<title>Node11288&#45;&gt;Node11289</title>
<path fill="none" stroke="#191970" d="M519.1009,-139.4845C530.0434,-136.3232 541.418,-132.9092 552,-129.5 568.1917,-124.2835 571.6072,-121.0452 588,-116.5 597.8508,-113.7687 608.3717,-111.2758 618.7105,-109.0591"/>
<polygon fill="#191970" stroke="#191970" points="619.4591,-112.4785 628.5395,-107.0198 618.0369,-105.6244 619.4591,-112.4785"/>
</g>
<!-- Node11292 -->
<g id="node13" class="node">
<title>Node11292</title>
<g id="a_node13"><a xlink:href="../../d8/d6e/classBaseCommand.html#af34b4e2829ad3b7b718499916fd87cbb" target="_top" xlink:title=" ">
<polygon fill="#ffffff" stroke="#000000" points="622.5,-50 622.5,-69 746.5,-69 746.5,-50 622.5,-50"/>
<text text-anchor="middle" x="684.5" y="-57" font-family="Helvetica,sans-Serif" font-size="10.00" fill="#000000">BaseCommand::index</text>
</a>
</g>
</g>
<!-- Node11288&#45;&gt;Node11292 -->
<g id="edge12" class="edge">
<title>Node11288&#45;&gt;Node11292</title>
<path fill="none" stroke="#191970" d="M524.2545,-143.3233C534.0595,-139.8777 543.7064,-135.3768 552,-129.5 574.6378,-113.4592 564.7208,-93.5949 588,-78.5 595.4427,-73.674 603.8385,-70.0242 612.4942,-67.272"/>
<polygon fill="#191970" stroke="#191970" points="613.645,-70.5848 622.3401,-64.5313 611.7678,-63.8412 613.645,-70.5848"/>
</g>
<!-- Node11293 -->
<g id="node14" class="node">
<title>Node11293</title>
<g id="a_node14"><a xlink:href="../../d8/d6e/classBaseCommand.html#ad7114bcb3cf27232facaf0cbcd7e3b58" target="_top" xlink:title=" ">
<polygon fill="#ffffff" stroke="#000000" points="588,-164 588,-183 781,-183 781,-164 588,-164"/>
<text text-anchor="middle" x="684.5" y="-171" font-family="Helvetica,sans-Serif" font-size="10.00" fill="#000000">BaseCommand::subCommandCount</text>
</a>
</g>
</g>
<!-- Node11288&#45;&gt;Node11293 -->
<g id="edge13" class="edge">
<title>Node11288&#45;&gt;Node11293</title>
<path fill="none" stroke="#191970" d="M524.2526,-159.6918C540.8211,-161.1195 559.301,-162.7119 577.6549,-164.2934"/>
<polygon fill="#191970" stroke="#191970" points="577.562,-167.7983 587.8256,-165.1698 578.163,-160.8241 577.562,-167.7983"/>
</g>
<!-- Node11294 -->
<g id="node15" class="node">
<title>Node11294</title>
<g id="a_node15"><a xlink:href="../../d8/d6e/classBaseCommand.html#a2717e1d5a234ba427175907b2dc58c23" target="_top" xlink:title=" ">
<polygon fill="#ffffff" stroke="#000000" points="602.5,-126 602.5,-145 766.5,-145 766.5,-126 602.5,-126"/>
<text text-anchor="middle" x="684.5" y="-133" font-family="Helvetica,sans-Serif" font-size="10.00" fill="#000000">BaseCommand::subCommand</text>
</a>
</g>
</g>
<!-- Node11288&#45;&gt;Node11294 -->
<g id="edge14" class="edge">
<title>Node11288&#45;&gt;Node11294</title>
<path fill="none" stroke="#191970" d="M524.2526,-149.3082C545.2457,-147.4992 569.3072,-145.4259 592.2931,-143.4453"/>
<polygon fill="#191970" stroke="#191970" points="592.751,-146.9189 602.4135,-142.5732 592.1499,-139.9447 592.751,-146.9189"/>
</g>
<!-- Node11290 -->
<g id="node11" class="node">
<title>Node11290</title>
<g id="a_node11"><a xlink:href="../../d8/d6e/classBaseCommand.html#aca69868889f793ce1399fd0c752cfa05" target="_top" xlink:title=" ">
<polygon fill="#ffffff" stroke="#000000" points="817,-88 817,-107 989,-107 989,-88 817,-88"/>
<text text-anchor="middle" x="903" y="-95" font-family="Helvetica,sans-Serif" font-size="10.00" fill="#000000">BaseCommand::getParamString</text>
</a>
</g>
</g>
<!-- Node11289&#45;&gt;Node11290 -->
<g id="edge10" class="edge">
<title>Node11289&#45;&gt;Node11290</title>
<path fill="none" stroke="#191970" d="M771.1708,-97.5C782.7822,-97.5 794.7493,-97.5 806.5162,-97.5"/>
<polygon fill="#191970" stroke="#191970" points="806.7913,-101.0001 816.7913,-97.5 806.7913,-94.0001 806.7913,-101.0001"/>
</g>
<!-- Node11291 -->
<g id="node12" class="node">
<title>Node11291</title>
<g id="a_node12"><a xlink:href="../../d8/d37/classSketchWidget.html#a4319a31c3a619e166f0e7dac865e2ea3" target="_top" xlink:title=" ">
<polygon fill="#ffffff" stroke="#000000" points="1041,-88 1041,-107 1183,-107 1183,-88 1041,-88"/>
<text text-anchor="middle" x="1112" y="-95" font-family="Helvetica,sans-Serif" font-size="10.00" fill="#000000">SketchWidget::viewName</text>
</a>
</g>
</g>
<!-- Node11290&#45;&gt;Node11291 -->
<g id="edge11" class="edge">
<title>Node11290&#45;&gt;Node11291</title>
<path fill="none" stroke="#191970" d="M989.2149,-97.5C1002.9244,-97.5 1017.0671,-97.5 1030.6594,-97.5"/>
<polygon fill="#191970" stroke="#191970" points="1030.93,-101.0001 1040.93,-97.5 1030.93,-94.0001 1030.93,-101.0001"/>
</g>
<!-- Node11296 -->
<g id="node17" class="node">
<title>Node11296</title>
<g id="a_node17"><a xlink:href="../../d8/dee/classPartsBinIconView.html#a9484c13d29b4ea9f8c54401d7839fcfb" target="_top" xlink:title=" ">
<polygon fill="#ffffff" stroke="#000000" points="383,-259 383,-278 545,-278 545,-259 383,-259"/>
<text text-anchor="middle" x="464" y="-266" font-family="Helvetica,sans-Serif" font-size="10.00" fill="#000000">PartsBinIconView::removePart</text>
</a>
</g>
</g>
<!-- Node11295&#45;&gt;Node11296 -->
<g id="edge16" class="edge">
<title>Node11295&#45;&gt;Node11296</title>
<path fill="none" stroke="#191970" d="M314.202,-339.4455C322.8418,-336.3393 331.7526,-332.9556 340,-329.5 374.1858,-315.1765 412.2704,-295.9252 437.0979,-282.9103"/>
<polygon fill="#191970" stroke="#191970" points="439.0338,-285.8462 446.244,-278.0832 435.7664,-279.6555 439.0338,-285.8462"/>
</g>
<!-- Node11304 -->
<g id="node25" class="node">
<title>Node11304</title>
<g id="a_node25"><a xlink:href="../../d0/dcf/classPartsBinListView.html#a22206b8a0ba0d196eabcfa91bdfa5dd4" target="_top" xlink:title=" ">
<polygon fill="#ffffff" stroke="#000000" points="384.5,-365 384.5,-384 543.5,-384 543.5,-365 384.5,-365"/>
<text text-anchor="middle" x="464" y="-372" font-family="Helvetica,sans-Serif" font-size="10.00" fill="#000000">PartsBinListView::removePart</text>
</a>
</g>
</g>
<!-- Node11295&#45;&gt;Node11304 -->
<g id="edge24" class="edge">
<title>Node11295&#45;&gt;Node11304</title>
<path fill="none" stroke="#191970" d="M331.1641,-360.9107C344.8665,-362.3124 359.6295,-363.8227 374.1579,-365.309"/>
<polygon fill="#191970" stroke="#191970" points="373.8584,-368.7965 384.1627,-366.3325 374.5708,-361.8329 373.8584,-368.7965"/>
</g>
<!-- Node11310 -->
<g id="node31" class="node">
<title>Node11310</title>
<g id="a_node31"><a xlink:href="../../db/d45/classPaletteModel.html#a38f2f423f35fbf4f4eaec2cb3102da38" target="_top" xlink:title=" ">
<polygon fill="#ffffff" stroke="#000000" points="831.5,-404 831.5,-423 974.5,-423 974.5,-404 831.5,-404"/>
<text text-anchor="middle" x="903" y="-411" font-family="Helvetica,sans-Serif" font-size="10.00" fill="#000000">PaletteModel::removePart</text>
</a>
</g>
</g>
<!-- Node11295&#45;&gt;Node11310 -->
<g id="edge31" class="edge">
<title>Node11295&#45;&gt;Node11310</title>
<path fill="none" stroke="#191970" d="M301.628,-369.5487C322.5027,-378.2622 350.2799,-388.474 376,-393.5 531.2298,-423.8335 716.9316,-422.3361 821.2971,-418.1543"/>
<polygon fill="#191970" stroke="#191970" points="821.6038,-421.6446 831.4484,-417.7286 821.3105,-414.6507 821.6038,-421.6446"/>
</g>
<!-- Node11311 -->
<g id="node32" class="node">
<title>Node11311</title>
<g id="a_node32"><a xlink:href="../../dd/d63/classFolderUtils.html#ab9ed75a3706e46f388802b915640ac61" target="_top" xlink:title=" ">
<polygon fill="#ffffff" stroke="#000000" points="385,-324 385,-343 543,-343 543,-324 385,-324"/>
<text text-anchor="middle" x="464" y="-331" font-family="Helvetica,sans-Serif" font-size="10.00" fill="#000000">FolderUtils::getUserPartsPath</text>
</a>
</g>
</g>
<!-- Node11295&#45;&gt;Node11311 -->
<g id="edge33" class="edge">
<title>Node11295&#45;&gt;Node11311</title>
<path fill="none" stroke="#191970" d="M331.1641,-347.7688C345.048,-346.2775 360.0207,-344.6691 374.7351,-343.0886"/>
<polygon fill="#191970" stroke="#191970" points="375.2951,-346.5486 384.8641,-342.0005 374.5475,-339.5887 375.2951,-346.5486"/>
</g>
<!-- Node11297 -->
<g id="node18" class="node">
<title>Node11297</title>
<g id="a_node18"><a xlink:href="../../d6/d17/classSvgIconWidget.html#a3533431ff40f1cc937a520218daa9f38" target="_top" xlink:title=" ">
<polygon fill="#ffffff" stroke="#000000" points="613,-278 613,-297 756,-297 756,-278 613,-278"/>
<text text-anchor="middle" x="684.5" y="-285" font-family="Helvetica,sans-Serif" font-size="10.00" fill="#000000">SvgIconWidget::moduleID</text>
</a>
</g>
</g>
<!-- Node11296&#45;&gt;Node11297 -->
<g id="edge17" class="edge">
<title>Node11296&#45;&gt;Node11297</title>
<path fill="none" stroke="#191970" d="M545.1667,-275.494C564.0068,-277.1174 584.0672,-278.8459 602.9249,-280.4709"/>
<polygon fill="#191970" stroke="#191970" points="602.6981,-283.9642 612.9617,-281.3357 603.2992,-276.99 602.6981,-283.9642"/>
</g>
<!-- Node11298 -->
<g id="node19" class="node">
<title>Node11298</title>
<g id="a_node19"><a xlink:href="../../d8/dee/classPartsBinIconView.html#a9360380adf8df21ad0ffa974f2e09d54" target="_top" xlink:title=" ">
<polygon fill="#ffffff" stroke="#000000" points="603,-240 603,-259 766,-259 766,-240 603,-240"/>
<text text-anchor="middle" x="684.5" y="-247" font-family="Helvetica,sans-Serif" font-size="10.00" fill="#000000">PartsBinIconView::setSelected</text>
</a>
</g>
</g>
<!-- Node11296&#45;&gt;Node11298 -->
<g id="edge18" class="edge">
<title>Node11296&#45;&gt;Node11298</title>
<path fill="none" stroke="#191970" d="M545.1667,-261.506C560.5786,-260.178 576.8071,-258.7797 592.5258,-257.4252"/>
<polygon fill="#191970" stroke="#191970" points="593.1053,-260.8883 602.7678,-256.5427 592.5043,-253.9142 593.1053,-260.8883"/>
</g>
<!-- Node11299 -->
<g id="node20" class="node">
<title>Node11299</title>
<g id="a_node20"><a xlink:href="../../d8/dee/classPartsBinIconView.html#a818cc13f88ad2d3c2b07596a9afc070e" target="_top" xlink:title=" ">
<polygon fill="#ffffff" stroke="#000000" points="604.5,-202 604.5,-221 764.5,-221 764.5,-202 604.5,-202"/>
<text text-anchor="middle" x="684.5" y="-209" font-family="Helvetica,sans-Serif" font-size="10.00" fill="#000000">PartsBinIconView::updateSize</text>
</a>
</g>
</g>
<!-- Node11296&#45;&gt;Node11299 -->
<g id="edge19" class="edge">
<title>Node11296&#45;&gt;Node11299</title>
<path fill="none" stroke="#191970" d="M492.3315,-258.9058C517.3143,-250.6652 554.8051,-238.8307 588,-230.5 598.5877,-227.8429 609.9054,-225.328 620.9282,-223.0499"/>
<polygon fill="#191970" stroke="#191970" points="621.8302,-226.4385 630.9389,-221.0272 620.4437,-219.5772 621.8302,-226.4385"/>
</g>
<!-- Node11300 -->
<g id="node21" class="node">
<title>Node11300</title>
<g id="a_node21"><a xlink:href="../../d8/dee/classPartsBinIconView.html#a52cb4d6ad8545cf34df3c8de06afcd0c" target="_top" xlink:title=" ">
<polygon fill="#ffffff" stroke="#000000" points="833,-196.5 833,-226.5 973,-226.5 973,-196.5 833,-196.5"/>
<text text-anchor="start" x="841" y="-214.5" font-family="Helvetica,sans-Serif" font-size="10.00" fill="#000000">PartsBinIconView::update</text>
<text text-anchor="middle" x="903" y="-203.5" font-family="Helvetica,sans-Serif" font-size="10.00" fill="#000000">SizeAux</text>
</a>
</g>
</g>
<!-- Node11299&#45;&gt;Node11300 -->
<g id="edge20" class="edge">
<title>Node11299&#45;&gt;Node11300</title>
<path fill="none" stroke="#191970" d="M764.6206,-211.5C783.6171,-211.5 803.8811,-211.5 822.8776,-211.5"/>
<polygon fill="#191970" stroke="#191970" points="822.9825,-215.0001 832.9825,-211.5 822.9824,-208.0001 822.9825,-215.0001"/>
</g>
<!-- Node11301 -->
<g id="node22" class="node">
<title>Node11301</title>
<g id="a_node22"><a xlink:href="../../d4/d68/classGraphicsFlowLayout.html#a638700c37415a199eb80aaa32f1741a4" target="_top" xlink:title=" ">
<polygon fill="#ffffff" stroke="#000000" points="1054,-196.5 1054,-226.5 1170,-226.5 1170,-196.5 1054,-196.5"/>
<text text-anchor="start" x="1062" y="-214.5" font-family="Helvetica,sans-Serif" font-size="10.00" fill="#000000">GraphicsFlowLayout</text>
<text text-anchor="middle" x="1112" y="-203.5" font-family="Helvetica,sans-Serif" font-size="10.00" fill="#000000">::heightForWidth</text>
</a>
</g>
</g>
<!-- Node11300&#45;&gt;Node11301 -->
<g id="edge21" class="edge">
<title>Node11300&#45;&gt;Node11301</title>
<path fill="none" stroke="#191970" d="M973.1754,-211.5C995.9025,-211.5 1021.0662,-211.5 1043.6582,-211.5"/>
<polygon fill="#191970" stroke="#191970" points="1043.8394,-215.0001 1053.8393,-211.5 1043.8393,-208.0001 1043.8394,-215.0001"/>
</g>
<!-- Node11302 -->
<g id="node23" class="node">
<title>Node11302</title>
<g id="a_node23"><a xlink:href="../../d4/d68/classGraphicsFlowLayout.html#a6ea0fadc3f302b08fd5a22d64d427076" target="_top" xlink:title=" ">
<polygon fill="#ffffff" stroke="#000000" points="1263,-196.5 1263,-226.5 1379,-226.5 1379,-196.5 1263,-196.5"/>
<text text-anchor="start" x="1271" y="-214.5" font-family="Helvetica,sans-Serif" font-size="10.00" fill="#000000">GraphicsFlowLayout</text>
<text text-anchor="middle" x="1321" y="-203.5" font-family="Helvetica,sans-Serif" font-size="10.00" fill="#000000">::doLayout</text>
</a>
</g>
</g>
<!-- Node11301&#45;&gt;Node11302 -->
<g id="edge22" class="edge">
<title>Node11301&#45;&gt;Node11302</title>
<path fill="none" stroke="#191970" d="M1170.2182,-211.5C1195.8154,-211.5 1226.0555,-211.5 1252.7093,-211.5"/>
<polygon fill="#191970" stroke="#191970" points="1252.732,-215.0001 1262.7319,-211.5 1252.7319,-208.0001 1252.732,-215.0001"/>
</g>
<!-- Node11303 -->
<g id="node24" class="node">
<title>Node11303</title>
<g id="a_node24"><a xlink:href="../../d4/d08/misc_8h.html#ae7cc352fa1dc81e57ff53ebbc762f27d" target="_top" xlink:title=" ">
<polygon fill="#ffffff" stroke="#000000" points="1443,-202 1443,-221 1487,-221 1487,-202 1443,-202"/>
<text text-anchor="middle" x="1465" y="-209" font-family="Helvetica,sans-Serif" font-size="10.00" fill="#000000">qMax</text>
</a>
</g>
</g>
<!-- Node11302&#45;&gt;Node11303 -->
<g id="edge23" class="edge">
<title>Node11302&#45;&gt;Node11303</title>
<path fill="none" stroke="#191970" d="M1379.1552,-211.5C1397.4206,-211.5 1416.9214,-211.5 1432.713,-211.5"/>
<polygon fill="#191970" stroke="#191970" points="1432.9924,-215.0001 1442.9924,-211.5 1432.9923,-208.0001 1432.9924,-215.0001"/>
</g>
<!-- Node11305 -->
<g id="node26" class="node">
<title>Node11305</title>
<g id="a_node26"><a xlink:href="../../d0/dcf/classPartsBinListView.html#a5b9a95799e385d456ee0bfb1f3439570" target="_top" xlink:title=" ">
<polygon fill="#ffffff" stroke="#000000" points="613.5,-366 613.5,-385 755.5,-385 755.5,-366 613.5,-366"/>
<text text-anchor="middle" x="684.5" y="-373" font-family="Helvetica,sans-Serif" font-size="10.00" fill="#000000">PartsBinListView::position</text>
</a>
</g>
</g>
<!-- Node11304&#45;&gt;Node11305 -->
<g id="edge25" class="edge">
<title>Node11304&#45;&gt;Node11305</title>
<path fill="none" stroke="#191970" d="M543.6056,-374.861C563.0394,-374.9492 583.8531,-375.0436 603.3576,-375.132"/>
<polygon fill="#191970" stroke="#191970" points="603.4078,-378.6322 613.4237,-375.1777 603.4397,-371.6322 603.4078,-378.6322"/>
</g>
<!-- Node11306 -->
<g id="node27" class="node">
<title>Node11306</title>
<g id="a_node27"><a xlink:href="../../d0/dcf/classPartsBinListView.html#a8d1ea45318ddf0e6aa29e48e25ab417c" target="_top" xlink:title=" ">
<polygon fill="#ffffff" stroke="#000000" points="817,-366 817,-385 989,-385 989,-366 817,-366"/>
<text text-anchor="middle" x="903" y="-373" font-family="Helvetica,sans-Serif" font-size="10.00" fill="#000000">PartsBinListView::itemModuleID</text>
</a>
</g>
</g>
<!-- Node11305&#45;&gt;Node11306 -->
<g id="edge26" class="edge">
<title>Node11305&#45;&gt;Node11306</title>
<path fill="none" stroke="#191970" d="M755.7427,-375.5C772.0871,-375.5 789.7281,-375.5 806.9269,-375.5"/>
<polygon fill="#191970" stroke="#191970" points="806.9892,-379.0001 816.9891,-375.5 806.9891,-372.0001 806.9892,-379.0001"/>
</g>
<!-- Node11306&#45;&gt;Node11285 -->
<g id="edge30" class="edge">
<title>Node11306&#45;&gt;Node11285</title>
<path fill="none" stroke="#191970" d="M955.4698,-385.04C984.0413,-390.2348 1019.5796,-396.6963 1049.5691,-402.1489"/>
<polygon fill="#191970" stroke="#191970" points="1049.0438,-405.6107 1059.5087,-403.9561 1050.2961,-398.7236 1049.0438,-405.6107"/>
</g>
<!-- Node11307 -->
<g id="node28" class="node">
<title>Node11307</title>
<g id="a_node28"><a xlink:href="../../d0/dcf/classPartsBinListView.html#a5b33270bc01e971d1c625621ffe55a9d" target="_top" xlink:title=" ">
<polygon fill="#ffffff" stroke="#000000" points="1025,-366 1025,-385 1199,-385 1199,-366 1025,-366"/>
<text text-anchor="middle" x="1112" y="-373" font-family="Helvetica,sans-Serif" font-size="10.00" fill="#000000">PartsBinListView::itemModelPart</text>
</a>
</g>
</g>
<!-- Node11306&#45;&gt;Node11307 -->
<g id="edge27" class="edge">
<title>Node11306&#45;&gt;Node11307</title>
<path fill="none" stroke="#191970" d="M989.2149,-375.5C997.701,-375.5 1006.353,-375.5 1014.9378,-375.5"/>
<polygon fill="#191970" stroke="#191970" points="1014.9707,-379.0001 1024.9707,-375.5 1014.9707,-372.0001 1014.9707,-379.0001"/>
</g>
<!-- Node11308 -->
<g id="node29" class="node">
<title>Node11308</title>
<g id="a_node29"><a xlink:href="../../d0/dcf/classPartsBinListView.html#a8bd96fe3b0c62240f9ecaeadc6b4ec4b" target="_top" xlink:title=" ">
<polygon fill="#ffffff" stroke="#000000" points="1235,-385 1235,-404 1407,-404 1407,-385 1235,-385"/>
<text text-anchor="middle" x="1321" y="-392" font-family="Helvetica,sans-Serif" font-size="10.00" fill="#000000">PartsBinListView::itemItemBase</text>
</a>
</g>
</g>
<!-- Node11307&#45;&gt;Node11308 -->
<g id="edge28" class="edge">
<title>Node11307&#45;&gt;Node11308</title>
<path fill="none" stroke="#191970" d="M1199.1214,-383.4201C1207.5744,-384.1886 1216.1834,-384.9712 1224.7189,-385.7472"/>
<polygon fill="#191970" stroke="#191970" points="1224.4154,-389.2339 1234.6913,-386.6538 1225.0493,-382.2627 1224.4154,-389.2339"/>
</g>
<!-- Node11309 -->
<g id="node30" class="node">
<title>Node11309</title>
<g id="a_node30"><a xlink:href="../../d4/d4f/classItemBase.html#acc2f5bad42928e7178c28fa0771b1f60" target="_top" xlink:title=" ">
<polygon fill="#ffffff" stroke="#000000" points="1261.5,-347 1261.5,-366 1380.5,-366 1380.5,-347 1261.5,-347"/>
<text text-anchor="middle" x="1321" y="-354" font-family="Helvetica,sans-Serif" font-size="10.00" fill="#000000">ItemBase::modelPart</text>
</a>
</g>
</g>
<!-- Node11307&#45;&gt;Node11309 -->
<g id="edge29" class="edge">
<title>Node11307&#45;&gt;Node11309</title>
<path fill="none" stroke="#191970" d="M1199.1214,-367.5799C1216.4666,-366.003 1234.4691,-364.3664 1251.1444,-362.8505"/>
<polygon fill="#191970" stroke="#191970" points="1251.6959,-366.3149 1261.3379,-361.9238 1251.0621,-359.3436 1251.6959,-366.3149"/>
</g>
<!-- Node11310&#45;&gt;Node11285 -->
<g id="edge32" class="edge">
<title>Node11310&#45;&gt;Node11285</title>
<path fill="none" stroke="#191970" d="M974.6335,-413.5C996.4639,-413.5 1020.4247,-413.5 1042.1364,-413.5"/>
<polygon fill="#191970" stroke="#191970" points="1042.2653,-417.0001 1052.2653,-413.5 1042.2652,-410.0001 1042.2653,-417.0001"/>
</g>
<!-- Node11312 -->
<g id="node33" class="node">
<title>Node11312</title>
<g id="a_node33"><a xlink:href="../../dd/d63/classFolderUtils.html#a9e306412034df4031e73cf34f8348439" target="_top" xlink:title=" ">
<polygon fill="#ffffff" stroke="#000000" points="617.5,-316.5 617.5,-346.5 751.5,-346.5 751.5,-316.5 617.5,-316.5"/>
<text text-anchor="start" x="625.5" y="-334.5" font-family="Helvetica,sans-Serif" font-size="10.00" fill="#000000">FolderUtils::getTopLevel</text>
<text text-anchor="middle" x="684.5" y="-323.5" font-family="Helvetica,sans-Serif" font-size="10.00" fill="#000000">DocumentsPath</text>
</a>
</g>
</g>
<!-- Node11311&#45;&gt;Node11312 -->
<g id="edge34" class="edge">
<title>Node11311&#45;&gt;Node11312</title>
<path fill="none" stroke="#191970" d="M543.294,-332.7808C564.0905,-332.5921 586.4862,-332.389 607.178,-332.2013"/>
<polygon fill="#191970" stroke="#191970" points="607.2167,-335.7012 617.1845,-332.1106 607.1531,-328.7015 607.2167,-335.7012"/>
</g>
<!-- Node11314 -->
<g id="node35" class="node">
<title>Node11314</title>
<g id="a_node35"><a xlink:href="../../d8/da3/classPartsBinView.html#a53d927ee5939f2e8f74f569ea0887b76" target="_top" xlink:title=" ">
<polygon fill="#ffffff" stroke="#000000" points="376,-101 376,-120 552,-120 552,-101 376,-101"/>
<text text-anchor="middle" x="464" y="-108" font-family="Helvetica,sans-Serif" font-size="10.00" fill="#000000">PartsBinView::selectedModelPart</text>
</a>
</g>
</g>
<!-- Node11313&#45;&gt;Node11314 -->
<g id="edge36" class="edge">
<title>Node11313&#45;&gt;Node11314</title>
<path fill="none" stroke="#191970" d="M326.9059,-213.4584C331.6151,-210.92 336.0656,-207.9572 340,-204.5 367.4743,-180.3578 347.3493,-153.2335 376,-130.5 378.7845,-128.2906 381.7666,-126.3157 384.8894,-124.5512"/>
<polygon fill="#191970" stroke="#191970" points="386.5519,-127.6347 394.0154,-120.115 383.4915,-121.3391 386.5519,-127.6347"/>
</g>
<!-- Node11316 -->
<g id="node37" class="node">
<title>Node11316</title>
<g id="a_node37"><a xlink:href="../../d3/d50/classBinManager.html#a7767b67cc2e7ca7cf28963885606198a" target="_top" xlink:title=" ">
<polygon fill="#ffffff" stroke="#000000" points="395.5,-25 395.5,-44 532.5,-44 532.5,-25 395.5,-25"/>
<text text-anchor="middle" x="464" y="-32" font-family="Helvetica,sans-Serif" font-size="10.00" fill="#000000">BinManager::setDirtyTab</text>
</a>
</g>
</g>
<!-- Node11315&#45;&gt;Node11316 -->
<g id="edge38" class="edge">
<title>Node11315&#45;&gt;Node11316</title>
<path fill="none" stroke="#191970" d="M324.5171,-164.4422C330.0628,-161.6549 335.3502,-158.3691 340,-154.5 364.7895,-133.8728 353.8395,-114.9289 376,-91.5 392.7997,-73.7387 416.1938,-58.9248 434.6387,-48.8545"/>
<polygon fill="#191970" stroke="#191970" points="436.3034,-51.9334 443.508,-44.1652 433.0316,-45.7451 436.3034,-51.9334"/>
</g>
<!-- Node11317 -->
<g id="node38" class="node">
<title>Node11317</title>
<g id="a_node38"><a xlink:href="../../de/d4e/classPartsBinPaletteWidget.html#a9b5aed3fb875f315430d294509e4aea4" target="_top" xlink:title=" ">
<polygon fill="#ffffff" stroke="#000000" points="622,-.5 622,-30.5 747,-30.5 747,-.5 622,-.5"/>
<text text-anchor="start" x="630" y="-18.5" font-family="Helvetica,sans-Serif" font-size="10.00" fill="#000000">PartsBinPaletteWidget</text>
<text text-anchor="middle" x="684.5" y="-7.5" font-family="Helvetica,sans-Serif" font-size="10.00" fill="#000000">::title</text>
</a>
</g>
</g>
<!-- Node11316&#45;&gt;Node11317 -->
<g id="edge39" class="edge">
<title>Node11316&#45;&gt;Node11317</title>
<path fill="none" stroke="#191970" d="M532.5589,-28.5924C557.7821,-26.419 586.4197,-23.9514 611.9804,-21.7489"/>
<polygon fill="#191970" stroke="#191970" points="612.319,-25.2327 621.9816,-20.8871 611.718,-18.2586 612.319,-25.2327"/>
</g>
</g>
</svg>
