<?xml version="1.0" encoding="UTF-8" standalone="no"?>
<!DOCTYPE svg PUBLIC "-//W3C//DTD SVG 1.1//EN"
 "http://www.w3.org/Graphics/SVG/1.1/DTD/svg11.dtd">
<!-- Generated by graphviz version 2.40.1 (0)
 -->
<!-- Title: BinManager::registerBin Pages: 1 -->
<!--zoomable 348 -->
<svg id="main" version="1.1" xmlns="http://www.w3.org/2000/svg" xmlns:xlink="http://www.w3.org/1999/xlink" xml:space="preserve" onload="init(evt)">
<style type="text/css"><![CDATA[
.edge:hover path { stroke: red; }
.edge:hover polygon { stroke: red; fill: red; }
]]></style>
<script type="text/javascript"><![CDATA[
var edges = document.getElementsByTagName('g');
if (edges && edges.length) {
  for (var i=0;i<edges.length;i++) {
    if (edges[i].id.substr(0,4)=='edge') {
      edges[i].setAttribute('class','edge');
    }
  }
}
]]></script>
        <defs>
                <circle id="rim" cx="0" cy="0" r="7"/>
                <circle id="rim2" cx="0" cy="0" r="3.5"/>
                <g id="zoomPlus">
                        <use xlink:href="#rim" fill="#404040">
                                <set attributeName="fill" to="#808080" begin="zoomplus.mouseover" end="zoomplus.mouseout"/>
                        </use>
                        <path d="M-4,0h8M0,-4v8" fill="none" stroke="white" stroke-width="1.5" pointer-events="none"/>
                </g>
                <g id="zoomMin">
                        <use xlink:href="#rim" fill="#404040">
                                <set attributeName="fill" to="#808080" begin="zoomminus.mouseover" end="zoomminus.mouseout"/>
                        </use>
                        <path d="M-4,0h8" fill="none" stroke="white" stroke-width="1.5" pointer-events="none"/>
                </g>
                <g id="dirArrow">
                        <path fill="none" stroke="white" stroke-width="1.5" d="M0,-3.0v7 M-2.5,-0.5L0,-3.0L2.5,-0.5"/>
                </g>
               <g id="resetDef">
                       <use xlink:href="#rim2" fill="#404040">
                               <set attributeName="fill" to="#808080" begin="reset.mouseover" end="reset.mouseout"/>
                       </use>
               </g>
        </defs>

<script type="text/javascript">
var viewWidth = 1586;
var viewHeight = 348;
var sectionId = 'dynsection-102';
</script>
<script xlink:href="../../svgpan.js"/>
<svg id="graph" class="graph">
<g id="viewport">
<title>BinManager::registerBin</title>
<polygon fill="#ffffff" stroke="transparent" points="-4,4 -4,-343.5 1582,-343.5 1582,4 -4,4"/>
<!-- Node11088 -->
<g id="node1" class="node">
<title>Node11088</title>
<g id="a_node1"><a xlink:title=" ">
<polygon fill="#bfbfbf" stroke="#000000" points="1444,-273 1444,-292 1578,-292 1578,-273 1444,-273"/>
<text text-anchor="middle" x="1511" y="-280" font-family="Helvetica,sans-Serif" font-size="10.00" fill="#000000">BinManager::registerBin</text>
</a>
</g>
</g>
<!-- Node11089 -->
<g id="node2" class="node">
<title>Node11089</title>
<g id="a_node2"><a xlink:href="../../d3/d50/classBinManager.html#a2d5d445330cf9de93768d92ea7ce8d5a" target="_top" xlink:title=" ">
<polygon fill="#ffffff" stroke="#000000" points="489,-292 489,-311 650,-311 650,-292 489,-292"/>
<text text-anchor="middle" x="569.5" y="-299" font-family="Helvetica,sans-Serif" font-size="10.00" fill="#000000">BinManager::initStandardBins</text>
</a>
</g>
</g>
<!-- Node11088&#45;&gt;Node11089 -->
<g id="edge1" class="edge">
<title>Node11088&#45;&gt;Node11089</title>
<path fill="none" stroke="#191970" d="M1467.2478,-294.6226C1402.8872,-311.3586 1278.6591,-339.5 1171,-339.5 1171,-339.5 1171,-339.5 984.5,-339.5 859.8771,-339.5 715.077,-322.2963 633.6726,-311.04"/>
<polygon fill="#191970" stroke="#191970" points="1468.2727,-297.9721 1477.0515,-292.0405 1466.4898,-291.2029 1468.2727,-297.9721"/>
</g>
<!-- Node11090 -->
<g id="node3" class="node">
<title>Node11090</title>
<g id="a_node3"><a xlink:href="../../d3/d50/classBinManager.html#a5de5d6a2d1532dcad6c87fda0b8e8ea4" target="_top" xlink:title=" ">
<polygon fill="#ffffff" stroke="#000000" points="1288,-235 1288,-254 1403,-254 1403,-235 1288,-235"/>
<text text-anchor="middle" x="1345.5" y="-242" font-family="Helvetica,sans-Serif" font-size="10.00" fill="#000000">BinManager::addBin</text>
</a>
</g>
</g>
<!-- Node11088&#45;&gt;Node11090 -->
<g id="edge2" class="edge">
<title>Node11088&#45;&gt;Node11090</title>
<path fill="none" stroke="#191970" d="M1459.1895,-270.6039C1435.9267,-265.2626 1408.8531,-259.0463 1386.9623,-254.0201"/>
<polygon fill="#191970" stroke="#191970" points="1458.7077,-274.0843 1469.2374,-272.911 1460.2742,-267.2618 1458.7077,-274.0843"/>
</g>
<!-- Node11091 -->
<g id="node4" class="node">
<title>Node11091</title>
<g id="a_node4"><a xlink:href="../../d3/d50/classBinManager.html#ad0d7188ea694ed407e6c4eaf0a4b7f52" target="_top" xlink:title=" ">
<polygon fill="#ffffff" stroke="#000000" points="1283,-273 1283,-292 1408,-292 1408,-273 1283,-273"/>
<text text-anchor="middle" x="1345.5" y="-280" font-family="Helvetica,sans-Serif" font-size="10.00" fill="#000000">BinManager::insertBin</text>
</a>
</g>
</g>
<!-- Node11088&#45;&gt;Node11091 -->
<g id="edge3" class="edge">
<title>Node11088&#45;&gt;Node11091</title>
<path fill="none" stroke="#191970" d="M1433.4349,-282.5C1424.9828,-282.5 1416.4583,-282.5 1408.2159,-282.5"/>
<polygon fill="#191970" stroke="#191970" points="1433.6848,-286.0001 1443.6848,-282.5 1433.6848,-279.0001 1433.6848,-286.0001"/>
</g>
<!-- Node11092 -->
<g id="node5" class="node">
<title>Node11092</title>
<g id="a_node5"><a xlink:href="../../d3/d50/classBinManager.html#a82f16115763739023e2d56a85bf9d5b5" target="_top" xlink:title=" ">
<polygon fill="#ffffff" stroke="#000000" points="1108,-254 1108,-273 1234,-273 1234,-254 1108,-254"/>
<text text-anchor="middle" x="1171" y="-261" font-family="Helvetica,sans-Serif" font-size="10.00" fill="#000000">BinManager::newBinIn</text>
</a>
</g>
</g>
<!-- Node11091&#45;&gt;Node11092 -->
<g id="edge4" class="edge">
<title>Node11091&#45;&gt;Node11092</title>
<path fill="none" stroke="#191970" d="M1272.8324,-274.5878C1260.0186,-273.1926 1246.7728,-271.7503 1234.2433,-270.3861"/>
<polygon fill="#191970" stroke="#191970" points="1272.6743,-278.0912 1282.9944,-275.6942 1273.432,-271.1323 1272.6743,-278.0912"/>
</g>
<!-- Node11094 -->
<g id="node7" class="node">
<title>Node11094</title>
<g id="a_node7"><a xlink:href="../../d3/d50/classBinManager.html#afc14f415cc0d760eddd342cdea779f5d" target="_top" xlink:title=" ">
<polygon fill="#ffffff" stroke="#000000" points="1106,-178 1106,-197 1236,-197 1236,-178 1106,-178"/>
<text text-anchor="middle" x="1171" y="-185" font-family="Helvetica,sans-Serif" font-size="10.00" fill="#000000">BinManager::openBinIn</text>
</a>
</g>
</g>
<!-- Node11091&#45;&gt;Node11094 -->
<g id="edge7" class="edge">
<title>Node11091&#45;&gt;Node11094</title>
<path fill="none" stroke="#191970" d="M1297.733,-269.6236C1292.6759,-267.7763 1287.6769,-265.7342 1283,-263.5 1243.5618,-244.6598 1202.3082,-213.0769 1182.6964,-197.2136"/>
<polygon fill="#191970" stroke="#191970" points="1296.8656,-273.0255 1307.46,-272.9353 1299.1217,-266.399 1296.8656,-273.0255"/>
</g>
<!-- Node11111 -->
<g id="node24" class="node">
<title>Node11111</title>
<g id="a_node24"><a xlink:href="../../d3/d50/classBinManager.html#a38979f06eeb31b95279d497505934ca3" target="_top" xlink:title=" ">
<polygon fill="#ffffff" stroke="#000000" points="1095,-292 1095,-311 1247,-311 1247,-292 1095,-292"/>
<text text-anchor="middle" x="1171" y="-299" font-family="Helvetica,sans-Serif" font-size="10.00" fill="#000000">BinManager::openCoreBinIn</text>
</a>
</g>
</g>
<!-- Node11091&#45;&gt;Node11111 -->
<g id="edge26" class="edge">
<title>Node11091&#45;&gt;Node11111</title>
<path fill="none" stroke="#191970" d="M1273.0438,-290.3892C1264.4731,-291.3224 1255.7062,-292.277 1247.0871,-293.2154"/>
<polygon fill="#191970" stroke="#191970" points="1273.432,-293.8677 1282.9944,-289.3058 1272.6742,-286.9089 1273.432,-293.8677"/>
</g>
<!-- Node11093 -->
<g id="node6" class="node">
<title>Node11093</title>
<g id="a_node6"><a xlink:href="../../d3/d50/classBinManager.html#a5c081f39071fd8cfc7b0d76bc7e0bb84" target="_top" xlink:title=" ">
<polygon fill="#ffffff" stroke="#000000" points="686,-254 686,-273 874,-273 874,-254 686,-254"/>
<text text-anchor="middle" x="780" y="-261" font-family="Helvetica,sans-Serif" font-size="10.00" fill="#000000">BinManager::createCombinedMenu</text>
</a>
</g>
</g>
<!-- Node11092&#45;&gt;Node11093 -->
<g id="edge5" class="edge">
<title>Node11092&#45;&gt;Node11093</title>
<path fill="none" stroke="#191970" d="M1097.4621,-263.5C1034.265,-263.5 942.756,-263.5 874.2048,-263.5"/>
<polygon fill="#191970" stroke="#191970" points="1097.7446,-267.0001 1107.7445,-263.5 1097.7445,-260.0001 1097.7446,-267.0001"/>
</g>
<!-- Node11093&#45;&gt;Node11089 -->
<g id="edge6" class="edge">
<title>Node11093&#45;&gt;Node11089</title>
<path fill="none" stroke="#191970" d="M717.1439,-274.847C686.942,-280.2991 651.1482,-286.7607 622.3681,-291.9561"/>
<polygon fill="#191970" stroke="#191970" points="717.9345,-278.2609 727.1537,-273.04 716.6909,-271.3722 717.9345,-278.2609"/>
</g>
<!-- Node11095 -->
<g id="node8" class="node">
<title>Node11095</title>
<g id="a_node8"><a xlink:href="../../d3/d50/classBinManager.html#abb4428a6888d62abb97157f18e5ee60c" target="_top" xlink:title=" ">
<polygon fill="#ffffff" stroke="#000000" points="910,-128 910,-147 1059,-147 1059,-128 910,-128"/>
<text text-anchor="middle" x="984.5" y="-135" font-family="Helvetica,sans-Serif" font-size="10.00" fill="#000000">BinManager::getOrOpenBin</text>
</a>
</g>
</g>
<!-- Node11094&#45;&gt;Node11095 -->
<g id="edge8" class="edge">
<title>Node11094&#45;&gt;Node11095</title>
<path fill="none" stroke="#191970" d="M1125.7831,-175.3775C1093.3433,-166.6805 1050.2354,-155.1234 1020.2031,-147.0719"/>
<polygon fill="#191970" stroke="#191970" points="1124.9165,-178.7687 1135.4818,-177.9777 1126.7292,-172.0075 1124.9165,-178.7687"/>
</g>
<!-- Node11107 -->
<g id="node20" class="node">
<title>Node11107</title>
<g id="a_node20"><a xlink:href="../../d3/d50/classBinManager.html#a32006d8b928a03103babf268a2ec782c" target="_top" xlink:title=" ">
<polygon fill="#ffffff" stroke="#000000" points="924,-178 924,-197 1045,-197 1045,-178 924,-178"/>
<text text-anchor="middle" x="984.5" y="-185" font-family="Helvetica,sans-Serif" font-size="10.00" fill="#000000">BinManager::openBin</text>
</a>
</g>
</g>
<!-- Node11094&#45;&gt;Node11107 -->
<g id="edge20" class="edge">
<title>Node11094&#45;&gt;Node11107</title>
<path fill="none" stroke="#191970" d="M1095.4455,-187.5C1078.664,-187.5 1061.0889,-187.5 1045.0029,-187.5"/>
<polygon fill="#191970" stroke="#191970" points="1095.7714,-191.0001 1105.7714,-187.5 1095.7713,-184.0001 1095.7714,-191.0001"/>
</g>
<!-- Node11109 -->
<g id="node22" class="node">
<title>Node11109</title>
<g id="a_node22"><a xlink:href="../../d3/d50/classBinManager.html#a2d9ef85a41aecb6bacd17b19289f4d3b" target="_top" xlink:title=" ">
<polygon fill="#ffffff" stroke="#000000" points="920,-216 920,-235 1049,-235 1049,-216 920,-216"/>
<text text-anchor="middle" x="984.5" y="-223" font-family="Helvetica,sans-Serif" font-size="10.00" fill="#000000">BinManager::mainLoad</text>
</a>
</g>
</g>
<!-- Node11094&#45;&gt;Node11109 -->
<g id="edge22" class="edge">
<title>Node11094&#45;&gt;Node11109</title>
<path fill="none" stroke="#191970" d="M1114.0218,-199.1095C1087.4972,-204.514 1056.3343,-210.8635 1031.2234,-215.9799"/>
<polygon fill="#191970" stroke="#191970" points="1114.8383,-202.5151 1123.9382,-197.089 1113.4407,-195.6561 1114.8383,-202.5151"/>
</g>
<!-- Node11110 -->
<g id="node23" class="node">
<title>Node11110</title>
<g id="a_node23"><a xlink:href="../../de/d4e/classPartsBinPaletteWidget.html#af30433fbe82fe3d9ae373b082ceb7761" target="_top" xlink:title=" ">
<polygon fill="#ffffff" stroke="#000000" points="328,-.5 328,-30.5 453,-30.5 453,-.5 328,-.5"/>
<text text-anchor="start" x="336" y="-18.5" font-family="Helvetica,sans-Serif" font-size="10.00" fill="#000000">PartsBinPaletteWidget</text>
<text text-anchor="middle" x="390.5" y="-7.5" font-family="Helvetica,sans-Serif" font-size="10.00" fill="#000000">::addSketchPartToMe</text>
</a>
</g>
</g>
<!-- Node11094&#45;&gt;Node11110 -->
<g id="edge24" class="edge">
<title>Node11094&#45;&gt;Node11110</title>
<path fill="none" stroke="#191970" d="M1149.059,-172.2911C1101.585,-140.4336 984.6663,-67.5713 874,-42.5 726.0009,-8.971 546.3388,-9.3005 453.2391,-12.4111"/>
<polygon fill="#191970" stroke="#191970" points="1147.1117,-175.1994 1157.3524,-177.9159 1151.0409,-169.4061 1147.1117,-175.1994"/>
</g>
<!-- Node11096 -->
<g id="node9" class="node">
<title>Node11096</title>
<g id="a_node9"><a xlink:href="../../d3/d50/classBinManager.html#aaccd5835b3682b3e22d9b106f79506e3" target="_top" xlink:title=" ">
<polygon fill="#ffffff" stroke="#000000" points="686,-90 686,-109 874,-109 874,-90 686,-90"/>
<text text-anchor="middle" x="780" y="-97" font-family="Helvetica,sans-Serif" font-size="10.00" fill="#000000">BinManager::getOrOpenMyPartsBin</text>
</a>
</g>
</g>
<!-- Node11095&#45;&gt;Node11096 -->
<g id="edge9" class="edge">
<title>Node11095&#45;&gt;Node11096</title>
<path fill="none" stroke="#191970" d="M923.0525,-126.0819C893.7922,-120.6448 859.1994,-114.2168 831.3611,-109.0439"/>
<polygon fill="#191970" stroke="#191970" points="922.6888,-129.5741 933.16,-127.96 923.9677,-122.692 922.6888,-129.5741"/>
</g>
<!-- Node11100 -->
<g id="node13" class="node">
<title>Node11100</title>
<g id="a_node13"><a xlink:href="../../d3/d50/classBinManager.html#a9fe34d7451b2841258b3ca0c28e51118" target="_top" xlink:title=" ">
<polygon fill="#ffffff" stroke="#000000" points="689,-52 689,-71 871,-71 871,-52 689,-52"/>
<text text-anchor="middle" x="780" y="-59" font-family="Helvetica,sans-Serif" font-size="10.00" fill="#000000">BinManager::getOrOpenSearchBin</text>
</a>
</g>
</g>
<!-- Node11095&#45;&gt;Node11100 -->
<g id="edge13" class="edge">
<title>Node11095&#45;&gt;Node11100</title>
<path fill="none" stroke="#191970" d="M960.7895,-122.8116C938.9801,-109.9071 905.3633,-91.5182 874,-80.5 863.1612,-76.6923 851.3364,-73.5569 839.8445,-71.0079"/>
<polygon fill="#191970" stroke="#191970" points="958.9981,-125.8185 969.3724,-127.9689 962.6035,-119.8183 958.9981,-125.8185"/>
</g>
<!-- Node11105 -->
<g id="node18" class="node">
<title>Node11105</title>
<g id="a_node18"><a xlink:href="../../d3/d50/classBinManager.html#a1bece8b3f44dfefe2c3824c053ca3c5d" target="_top" xlink:title=" ">
<polygon fill="#ffffff" stroke="#000000" points="692,-128 692,-147 868,-147 868,-128 692,-128"/>
<text text-anchor="middle" x="780" y="-135" font-family="Helvetica,sans-Serif" font-size="10.00" fill="#000000">BinManager::addToTempPartsBin</text>
</a>
</g>
</g>
<!-- Node11095&#45;&gt;Node11105 -->
<g id="edge18" class="edge">
<title>Node11095&#45;&gt;Node11105</title>
<path fill="none" stroke="#191970" d="M899.5047,-137.5C889.1084,-137.5 878.4671,-137.5 868.0275,-137.5"/>
<polygon fill="#191970" stroke="#191970" points="899.8028,-141.0001 909.8027,-137.5 899.8027,-134.0001 899.8028,-141.0001"/>
</g>
<!-- Node11106 -->
<g id="node19" class="node">
<title>Node11106</title>
<g id="a_node19"><a xlink:href="../../d3/d50/classBinManager.html#a1c416320d43308fb1dedfd7373868259" target="_top" xlink:title=" ">
<polygon fill="#ffffff" stroke="#000000" points="708.5,-166.5 708.5,-196.5 851.5,-196.5 851.5,-166.5 708.5,-166.5"/>
<text text-anchor="start" x="716.5" y="-184.5" font-family="Helvetica,sans-Serif" font-size="10.00" fill="#000000">BinManager::importPartTo</text>
<text text-anchor="middle" x="780" y="-173.5" font-family="Helvetica,sans-Serif" font-size="10.00" fill="#000000">MineBin</text>
</a>
</g>
</g>
<!-- Node11095&#45;&gt;Node11106 -->
<g id="edge19" class="edge">
<title>Node11095&#45;&gt;Node11106</title>
<path fill="none" stroke="#191970" d="M930.2527,-149.1718C905.6535,-154.4645 876.2594,-160.7889 850.0197,-166.4346"/>
<polygon fill="#191970" stroke="#191970" points="931.0865,-152.5726 940.1265,-147.0473 929.614,-145.7292 931.0865,-152.5726"/>
</g>
<!-- Node11097 -->
<g id="node10" class="node">
<title>Node11097</title>
<g id="a_node10"><a xlink:href="../../d3/d50/classBinManager.html#af6ffd6b423aa7e1a3093e5a855c8cfe0" target="_top" xlink:title=" ">
<polygon fill="#ffffff" stroke="#000000" points="499.5,-90 499.5,-109 639.5,-109 639.5,-90 499.5,-90"/>
<text text-anchor="middle" x="569.5" y="-97" font-family="Helvetica,sans-Serif" font-size="10.00" fill="#000000">BinManager::addNewPart</text>
</a>
</g>
</g>
<!-- Node11096&#45;&gt;Node11097 -->
<g id="edge10" class="edge">
<title>Node11096&#45;&gt;Node11097</title>
<path fill="none" stroke="#191970" d="M675.599,-99.5C663.3951,-99.5 651.176,-99.5 639.598,-99.5"/>
<polygon fill="#191970" stroke="#191970" points="675.8323,-103.0001 685.8323,-99.5 675.8323,-96.0001 675.8323,-103.0001"/>
</g>
<!-- Node11098 -->
<g id="node11" class="node">
<title>Node11098</title>
<g id="a_node11"><a xlink:href="../../d3/d50/classBinManager.html#abf417e9df45dacb191424c9c6e2d9dcd" target="_top" xlink:title=" ">
<polygon fill="#ffffff" stroke="#000000" points="497.5,-166 497.5,-185 641.5,-185 641.5,-166 497.5,-166"/>
<text text-anchor="middle" x="569.5" y="-173" font-family="Helvetica,sans-Serif" font-size="10.00" fill="#000000">BinManager::addPartToBin</text>
</a>
</g>
</g>
<!-- Node11096&#45;&gt;Node11098 -->
<g id="edge11" class="edge">
<title>Node11096&#45;&gt;Node11098</title>
<path fill="none" stroke="#191970" d="M699.0695,-112.3978C694.5422,-114.1774 690.1507,-116.2004 686,-118.5 665.65,-129.7744 670.165,-144.898 650,-156.5 643.2788,-160.3671 635.8113,-163.4481 628.2114,-165.9027"/>
<polygon fill="#191970" stroke="#191970" points="700.2458,-115.6943 708.5194,-109.0763 697.9246,-109.0904 700.2458,-115.6943"/>
</g>
<!-- Node11099 -->
<g id="node12" class="node">
<title>Node11099</title>
<g id="a_node12"><a xlink:href="../../d3/d50/classBinManager.html#a48fcd52391e11dd8df90437f318a78d0" target="_top" xlink:title=" ">
<polygon fill="#ffffff" stroke="#000000" points="495,-128 495,-147 644,-147 644,-128 495,-128"/>
<text text-anchor="middle" x="569.5" y="-135" font-family="Helvetica,sans-Serif" font-size="10.00" fill="#000000">BinManager::addToMyParts</text>
</a>
</g>
</g>
<!-- Node11096&#45;&gt;Node11099 -->
<g id="edge12" class="edge">
<title>Node11096&#45;&gt;Node11099</title>
<path fill="none" stroke="#191970" d="M717.1439,-110.847C686.942,-116.2991 651.1482,-122.7607 622.3681,-127.9561"/>
<polygon fill="#191970" stroke="#191970" points="717.9345,-114.2609 727.1537,-109.04 716.6909,-107.3722 717.9345,-114.2609"/>
</g>
<!-- Node11101 -->
<g id="node14" class="node">
<title>Node11101</title>
<g id="a_node14"><a xlink:href="../../d3/d50/classBinManager.html#a4a19150070924847fa48546117c68860" target="_top" xlink:title=" ">
<polygon fill="#ffffff" stroke="#000000" points="513,-52 513,-71 626,-71 626,-52 513,-52"/>
<text text-anchor="middle" x="569.5" y="-59" font-family="Helvetica,sans-Serif" font-size="10.00" fill="#000000">BinManager::search</text>
</a>
</g>
</g>
<!-- Node11100&#45;&gt;Node11101 -->
<g id="edge14" class="edge">
<title>Node11100&#45;&gt;Node11101</title>
<path fill="none" stroke="#191970" d="M678.8516,-61.5C660.717,-61.5 642.4198,-61.5 626.1178,-61.5"/>
<polygon fill="#191970" stroke="#191970" points="678.896,-65.0001 688.8959,-61.5 678.8959,-58.0001 678.896,-65.0001"/>
</g>
<!-- Node11102 -->
<g id="node15" class="node">
<title>Node11102</title>
<g id="a_node15"><a xlink:href="../../de/d4e/classPartsBinPaletteWidget.html#adfaebf7818593d2210d457572054f04b" target="_top" xlink:title=" ">
<polygon fill="#ffffff" stroke="#000000" points="328,-49.5 328,-79.5 453,-79.5 453,-49.5 328,-49.5"/>
<text text-anchor="start" x="336" y="-67.5" font-family="Helvetica,sans-Serif" font-size="10.00" fill="#000000">PartsBinPaletteWidget</text>
<text text-anchor="middle" x="390.5" y="-56.5" font-family="Helvetica,sans-Serif" font-size="10.00" fill="#000000">::search</text>
</a>
</g>
</g>
<!-- Node11101&#45;&gt;Node11102 -->
<g id="edge15" class="edge">
<title>Node11101&#45;&gt;Node11102</title>
<path fill="none" stroke="#191970" d="M502.4517,-62.6237C486.3444,-62.8937 469.1998,-63.181 453.2941,-63.4476"/>
<polygon fill="#191970" stroke="#191970" points="502.9234,-66.1164 512.8633,-62.4492 502.806,-59.1174 502.9234,-66.1164"/>
</g>
<!-- Node11103 -->
<g id="node16" class="node">
<title>Node11103</title>
<g id="a_node16"><a xlink:href="../../de/d4e/classPartsBinPaletteWidget.html#a7f150e3d1e0a41af7ebffbc9aa664941" target="_top" xlink:title=" ">
<polygon fill="#ffffff" stroke="#000000" points="167,-47.5 167,-77.5 292,-77.5 292,-47.5 167,-47.5"/>
<text text-anchor="start" x="175" y="-65.5" font-family="Helvetica,sans-Serif" font-size="10.00" fill="#000000">PartsBinPaletteWidget</text>
<text text-anchor="middle" x="229.5" y="-54.5" font-family="Helvetica,sans-Serif" font-size="10.00" fill="#000000">::setupHeader</text>
</a>
</g>
</g>
<!-- Node11102&#45;&gt;Node11103 -->
<g id="edge16" class="edge">
<title>Node11102&#45;&gt;Node11103</title>
<path fill="none" stroke="#191970" d="M317.7816,-63.5967C309.1871,-63.4899 300.4732,-63.3817 292.0367,-63.2769"/>
<polygon fill="#191970" stroke="#191970" points="317.7494,-67.0964 327.7922,-63.721 317.8365,-60.097 317.7494,-67.0964"/>
</g>
<!-- Node11104 -->
<g id="node17" class="node">
<title>Node11104</title>
<g id="a_node17"><a xlink:href="../../de/d4e/classPartsBinPaletteWidget.html#ae89a19e1aed252826037a32886643cd4" target="_top" xlink:title=" ">
<polygon fill="#ffffff" stroke="#000000" points="0,-24.5 0,-54.5 131,-54.5 131,-24.5 0,-24.5"/>
<text text-anchor="start" x="8" y="-42.5" font-family="Helvetica,sans-Serif" font-size="10.00" fill="#000000">PartsBinPaletteWidget</text>
<text text-anchor="middle" x="65.5" y="-31.5" font-family="Helvetica,sans-Serif" font-size="10.00" fill="#000000">::PartsBinPaletteWidget</text>
</a>
</g>
</g>
<!-- Node11103&#45;&gt;Node11104 -->
<g id="edge17" class="edge">
<title>Node11103&#45;&gt;Node11104</title>
<path fill="none" stroke="#191970" d="M156.4255,-52.2517C148.0443,-51.0763 139.5372,-49.8833 131.2601,-48.7225"/>
<polygon fill="#191970" stroke="#191970" points="156.1731,-55.7505 166.5623,-53.6734 157.1454,-48.8184 156.1731,-55.7505"/>
</g>
<!-- Node11108 -->
<g id="node21" class="node">
<title>Node11108</title>
<g id="a_node21"><a xlink:href="../../d3/d50/classBinManager.html#a5fa7574872d2c3c36154f10cfdb2cda2" target="_top" xlink:title=" ">
<polygon fill="#ffffff" stroke="#000000" points="729,-216 729,-235 831,-235 831,-216 729,-216"/>
<text text-anchor="middle" x="780" y="-223" font-family="Helvetica,sans-Serif" font-size="10.00" fill="#000000">BinManager::load</text>
</a>
</g>
</g>
<!-- Node11107&#45;&gt;Node11108 -->
<g id="edge21" class="edge">
<title>Node11107&#45;&gt;Node11108</title>
<path fill="none" stroke="#191970" d="M923.0131,-198.9254C893.6368,-204.3841 858.8927,-210.8402 831.0065,-216.022"/>
<polygon fill="#191970" stroke="#191970" points="923.9677,-202.308 933.16,-197.04 922.6888,-195.4259 923.9677,-202.308"/>
</g>
<!-- Node11109&#45;&gt;Node11093 -->
<g id="edge23" class="edge">
<title>Node11109&#45;&gt;Node11093</title>
<path fill="none" stroke="#191970" d="M923.0525,-236.9181C893.7922,-242.3552 859.1994,-248.7832 831.3611,-253.9561"/>
<polygon fill="#191970" stroke="#191970" points="923.9677,-240.308 933.16,-235.04 922.6888,-233.4259 923.9677,-240.308"/>
</g>
<!-- Node11110&#45;&gt;Node11104 -->
<g id="edge25" class="edge">
<title>Node11110&#45;&gt;Node11104</title>
<path fill="none" stroke="#191970" d="M317.6381,-20.8806C261.6785,-25.013 185.0787,-30.6696 131.0364,-34.6604"/>
<polygon fill="#191970" stroke="#191970" points="318.1217,-24.3545 327.8367,-20.1274 317.6061,-17.3735 318.1217,-24.3545"/>
</g>
<!-- Node11111&#45;&gt;Node11089 -->
<g id="edge27" class="edge">
<title>Node11111&#45;&gt;Node11089</title>
<path fill="none" stroke="#191970" d="M1084.551,-301.5C968.4067,-301.5 763.5286,-301.5 650.3306,-301.5"/>
<polygon fill="#191970" stroke="#191970" points="1084.8196,-305.0001 1094.8196,-301.5 1084.8196,-298.0001 1084.8196,-305.0001"/>
</g>
</g>
</svg>
        <g id="navigator" transform="translate(0 0)" fill="#404254">
                <rect fill="#f2f5e9" fill-opacity="0.5" stroke="#606060" stroke-width=".5" x="0" y="0" width="60" height="60"/>
                <use id="zoomplus" xlink:href="#zoomPlus" x="17" y="9" onmousedown="handleZoom(evt,'in')"/>
                <use id="zoomminus" xlink:href="#zoomMin" x="42" y="9" onmousedown="handleZoom(evt,'out')"/>
                <use id="reset" xlink:href="#resetDef" x="30" y="36" onmousedown="handleReset()"/>
                <g id="arrowUp" xlink:href="#dirArrow" transform="translate(30 24)" onmousedown="handlePan(0,-1)">
                  <use xlink:href="#rim" fill="#404040">
                        <set attributeName="fill" to="#808080" begin="arrowUp.mouseover" end="arrowUp.mouseout"/>
                  </use>
                  <path fill="none" stroke="white" stroke-width="1.5" d="M0,-3.0v7 M-2.5,-0.5L0,-3.0L2.5,-0.5"/>
                </g>
                <g id="arrowRight" xlink:href="#dirArrow" transform="rotate(90) translate(36 -43)" onmousedown="handlePan(1,0)">
                  <use xlink:href="#rim" fill="#404040">
                        <set attributeName="fill" to="#808080" begin="arrowRight.mouseover" end="arrowRight.mouseout"/>
                  </use>
                  <path fill="none" stroke="white" stroke-width="1.5" d="M0,-3.0v7 M-2.5,-0.5L0,-3.0L2.5,-0.5"/>
                </g>
                <g id="arrowDown" xlink:href="#dirArrow" transform="rotate(180) translate(-30 -48)" onmousedown="handlePan(0,1)">
                  <use xlink:href="#rim" fill="#404040">
                        <set attributeName="fill" to="#808080" begin="arrowDown.mouseover" end="arrowDown.mouseout"/>
                  </use>
                  <path fill="none" stroke="white" stroke-width="1.5" d="M0,-3.0v7 M-2.5,-0.5L0,-3.0L2.5,-0.5"/>
                </g>
                <g id="arrowLeft" xlink:href="#dirArrow" transform="rotate(270) translate(-36 17)" onmousedown="handlePan(-1,0)">
                  <use xlink:href="#rim" fill="#404040">
                        <set attributeName="fill" to="#808080" begin="arrowLeft.mouseover" end="arrowLeft.mouseout"/>
                  </use>
                  <path fill="none" stroke="white" stroke-width="1.5" d="M0,-3.0v7 M-2.5,-0.5L0,-3.0L2.5,-0.5"/>
                </g>
        </g>
        <svg viewBox="0 0 15 15" width="100%" height="30px" preserveAspectRatio="xMaxYMin meet">
         <g id="arrow_out" transform="scale(0.3 0.3)">
          <a xlink:href="classBinManager_a9ba6ec39191152fb7cb01e428c5a0e94_icgraph_org.svg" target="_base">
           <rect id="button" ry="5" rx="5" y="6" x="6" height="38" width="38"
                fill="#f2f5e9" fill-opacity="0.5" stroke="#606060" stroke-width="1.0"/>
           <path id="arrow"
             d="M 11.500037,31.436501 C 11.940474,20.09759 22.043105,11.32322 32.158766,21.979434 L 37.068811,17.246167 C 37.068811,17.246167 37.088388,32 37.088388,32 L 22.160133,31.978069 C 22.160133,31.978069 26.997745,27.140456 26.997745,27.140456 C 18.528582,18.264221 13.291696,25.230495 11.500037,31.436501 z"
             style="fill:#404040;"/>
          </a>
         </g>
        </svg>
</svg>
