<?xml version="1.0" encoding="UTF-8" standalone="no"?>
<!DOCTYPE svg PUBLIC "-//W3C//DTD SVG 1.1//EN"
 "http://www.w3.org/Graphics/SVG/1.1/DTD/svg11.dtd">
<!-- Generated by graphviz version 2.40.1 (0)
 -->
<!-- Title: dialogs/quotedialog.cpp Pages: 1 -->
<!--zoomable 196 -->
<svg id="main" version="1.1" xmlns="http://www.w3.org/2000/svg" xmlns:xlink="http://www.w3.org/1999/xlink" xml:space="preserve" onload="init(evt)">
<style type="text/css"><![CDATA[
.edge:hover path { stroke: red; }
.edge:hover polygon { stroke: red; fill: red; }
]]></style>
<script type="text/javascript"><![CDATA[
var edges = document.getElementsByTagName('g');
if (edges && edges.length) {
  for (var i=0;i<edges.length;i++) {
    if (edges[i].id.substr(0,4)=='edge') {
      edges[i].setAttribute('class','edge');
    }
  }
}
]]></script>
        <defs>
                <circle id="rim" cx="0" cy="0" r="7"/>
                <circle id="rim2" cx="0" cy="0" r="3.5"/>
                <g id="zoomPlus">
                        <use xlink:href="#rim" fill="#404040">
                                <set attributeName="fill" to="#808080" begin="zoomplus.mouseover" end="zoomplus.mouseout"/>
                        </use>
                        <path d="M-4,0h8M0,-4v8" fill="none" stroke="white" stroke-width="1.5" pointer-events="none"/>
                </g>
                <g id="zoomMin">
                        <use xlink:href="#rim" fill="#404040">
                                <set attributeName="fill" to="#808080" begin="zoomminus.mouseover" end="zoomminus.mouseout"/>
                        </use>
                        <path d="M-4,0h8" fill="none" stroke="white" stroke-width="1.5" pointer-events="none"/>
                </g>
                <g id="dirArrow">
                        <path fill="none" stroke="white" stroke-width="1.5" d="M0,-3.0v7 M-2.5,-0.5L0,-3.0L2.5,-0.5"/>
                </g>
               <g id="resetDef">
                       <use xlink:href="#rim2" fill="#404040">
                               <set attributeName="fill" to="#808080" begin="reset.mouseover" end="reset.mouseout"/>
                       </use>
               </g>
        </defs>

<script type="text/javascript">
var viewWidth = 1537;
var viewHeight = 196;
var sectionId = 'dynsection-0';
</script>
<script xlink:href="../../svgpan.js"/>
<svg id="graph" class="graph">
<g id="viewport">
<title>dialogs/quotedialog.cpp</title>
<polygon fill="#ffffff" stroke="transparent" points="-4,4 -4,-192 1532.5,-192 1532.5,4 -4,4"/>
<!-- Node0 -->
<g id="node1" class="node">
<title>Node0</title>
<g id="a_node1"><a xlink:title=" ">
<polygon fill="#bfbfbf" stroke="#000000" points="843.5,-168.5 843.5,-187.5 976.5,-187.5 976.5,-168.5 843.5,-168.5"/>
<text text-anchor="middle" x="910" y="-175.5" font-family="Helvetica,sans-Serif" font-size="10.00" fill="#000000">dialogs/quotedialog.cpp</text>
</a>
</g>
</g>
<!-- Node1 -->
<g id="node2" class="node">
<title>Node1</title>
<g id="a_node2"><a xlink:href="../../da/da9/quotedialog_8h.html" target="_top" xlink:title=" ">
<polygon fill="#ffffff" stroke="#000000" points="121.5,-112.5 121.5,-131.5 204.5,-131.5 204.5,-112.5 121.5,-112.5"/>
<text text-anchor="middle" x="163" y="-119.5" font-family="Helvetica,sans-Serif" font-size="10.00" fill="#000000">quotedialog.h</text>
</a>
</g>
</g>
<!-- Node0&#45;&gt;Node1 -->
<g id="edge1" class="edge">
<title>Node0&#45;&gt;Node1</title>
<path fill="none" stroke="#191970" d="M843.3804,-173.0058C696.4564,-161.9914 347.187,-135.8079 214.9479,-125.8944"/>
<polygon fill="#191970" stroke="#191970" points="214.9238,-122.3828 204.6901,-125.1254 214.4005,-129.3632 214.9238,-122.3828"/>
</g>
<!-- Node5 -->
<g id="node6" class="node">
<title>Node5</title>
<g id="a_node6"><a xlink:href="../../df/db5/debugdialog_8h.html" target="_top" xlink:title=" ">
<polygon fill="#ffffff" stroke="#000000" points="337.5,-112.5 337.5,-131.5 432.5,-131.5 432.5,-112.5 337.5,-112.5"/>
<text text-anchor="middle" x="385" y="-119.5" font-family="Helvetica,sans-Serif" font-size="10.00" fill="#000000">../debugdialog.h</text>
</a>
</g>
</g>
<!-- Node0&#45;&gt;Node5 -->
<g id="edge5" class="edge">
<title>Node0&#45;&gt;Node5</title>
<path fill="none" stroke="#191970" d="M843.1486,-172.6445C753.0088,-165.1297 587.5783,-150.3031 447,-132 445.5472,-131.8108 444.076,-131.614 442.5925,-131.4108"/>
<polygon fill="#191970" stroke="#191970" points="443.08,-127.945 432.6846,-129.9913 442.0872,-134.8742 443.08,-127.945"/>
</g>
<!-- Node8 -->
<g id="node9" class="node">
<title>Node8</title>
<g id="a_node9"><a xlink:title=" ">
<polygon fill="#ffffff" stroke="#bfbfbf" points="563.5,-56.5 563.5,-75.5 604.5,-75.5 604.5,-56.5 563.5,-56.5"/>
<text text-anchor="middle" x="584" y="-63.5" font-family="Helvetica,sans-Serif" font-size="10.00" fill="#000000">QFile</text>
</a>
</g>
</g>
<!-- Node0&#45;&gt;Node8 -->
<g id="edge30" class="edge">
<title>Node0&#45;&gt;Node8</title>
<path fill="none" stroke="#191970" d="M843.2947,-175.6745C728.5612,-170.9825 503.8069,-158.4895 480,-132 474.0583,-125.3888 475.1497,-119.4489 480,-112 484.3555,-105.3111 524.7106,-88.7162 553.8443,-77.4002"/>
<polygon fill="#191970" stroke="#191970" points="555.1522,-80.6472 563.2261,-73.7869 552.6363,-74.1149 555.1522,-80.6472"/>
</g>
<!-- Node20 -->
<g id="node21" class="node">
<title>Node20</title>
<g id="a_node21"><a xlink:title=" ">
<polygon fill="#ffffff" stroke="#bfbfbf" points="489.5,-112.5 489.5,-131.5 572.5,-131.5 572.5,-112.5 489.5,-112.5"/>
<text text-anchor="middle" x="531" y="-119.5" font-family="Helvetica,sans-Serif" font-size="10.00" fill="#000000">QHeaderView</text>
</a>
</g>
</g>
<!-- Node0&#45;&gt;Node20 -->
<g id="edge21" class="edge">
<title>Node0&#45;&gt;Node20</title>
<path fill="none" stroke="#191970" d="M843.2477,-169.7176C779.06,-161.5081 679.0737,-148.0791 582.6367,-132.0332"/>
<polygon fill="#191970" stroke="#191970" points="583.1558,-128.5714 572.7149,-130.3708 581.999,-135.4752 583.1558,-128.5714"/>
</g>
<!-- Node21 -->
<g id="node22" class="node">
<title>Node21</title>
<g id="a_node22"><a xlink:title=" ">
<polygon fill="#ffffff" stroke="#bfbfbf" points="591,-112.5 591,-131.5 697,-131.5 697,-112.5 591,-112.5"/>
<text text-anchor="middle" x="644" y="-119.5" font-family="Helvetica,sans-Serif" font-size="10.00" fill="#000000">QDesktopServices</text>
</a>
</g>
</g>
<!-- Node0&#45;&gt;Node21 -->
<g id="edge22" class="edge">
<title>Node0&#45;&gt;Node21</title>
<path fill="none" stroke="#191970" d="M864.5752,-168.4369C818.7645,-158.7925 748.0002,-143.8948 699.0325,-133.5858"/>
<polygon fill="#191970" stroke="#191970" points="699.744,-130.1589 689.2374,-131.5237 698.3019,-137.0088 699.744,-130.1589"/>
</g>
<!-- Node22 -->
<g id="node23" class="node">
<title>Node22</title>
<g id="a_node23"><a xlink:title=" ">
<polygon fill="#ffffff" stroke="#bfbfbf" points="715,-112.5 715,-131.5 837,-131.5 837,-112.5 715,-112.5"/>
<text text-anchor="middle" x="776" y="-119.5" font-family="Helvetica,sans-Serif" font-size="10.00" fill="#000000">QStyledItemDelegate</text>
</a>
</g>
</g>
<!-- Node0&#45;&gt;Node22 -->
<g id="edge23" class="edge">
<title>Node0&#45;&gt;Node22</title>
<path fill="none" stroke="#191970" d="M886.9646,-168.3733C865.2612,-159.3032 832.5382,-145.6279 808.245,-135.4755"/>
<polygon fill="#191970" stroke="#191970" points="809.3111,-132.1278 798.7348,-131.5011 806.6119,-138.5865 809.3111,-132.1278"/>
</g>
<!-- Node23 -->
<g id="node24" class="node">
<title>Node23</title>
<g id="a_node24"><a xlink:title=" ">
<polygon fill="#ffffff" stroke="#bfbfbf" points="855,-112.5 855,-131.5 897,-131.5 897,-112.5 855,-112.5"/>
<text text-anchor="middle" x="876" y="-119.5" font-family="Helvetica,sans-Serif" font-size="10.00" fill="#000000">QPen</text>
</a>
</g>
</g>
<!-- Node0&#45;&gt;Node23 -->
<g id="edge24" class="edge">
<title>Node0&#45;&gt;Node23</title>
<path fill="none" stroke="#191970" d="M904.0777,-168.2455C899.3973,-160.5367 892.7327,-149.5598 887.0711,-140.2348"/>
<polygon fill="#191970" stroke="#191970" points="890.0361,-138.3741 881.8545,-131.6427 884.0525,-142.007 890.0361,-138.3741"/>
</g>
<!-- Node24 -->
<g id="node25" class="node">
<title>Node24</title>
<g id="a_node25"><a xlink:title=" ">
<polygon fill="#ffffff" stroke="#bfbfbf" points="915,-112.5 915,-131.5 973,-131.5 973,-112.5 915,-112.5"/>
<text text-anchor="middle" x="944" y="-119.5" font-family="Helvetica,sans-Serif" font-size="10.00" fill="#000000">QPainter</text>
</a>
</g>
</g>
<!-- Node0&#45;&gt;Node24 -->
<g id="edge25" class="edge">
<title>Node0&#45;&gt;Node24</title>
<path fill="none" stroke="#191970" d="M915.9223,-168.2455C920.6027,-160.5367 927.2673,-149.5598 932.9289,-140.2348"/>
<polygon fill="#191970" stroke="#191970" points="935.9475,-142.007 938.1455,-131.6427 929.9639,-138.3741 935.9475,-142.007"/>
</g>
<!-- Node25 -->
<g id="node26" class="node">
<title>Node25</title>
<g id="a_node26"><a xlink:title=" ">
<polygon fill="#ffffff" stroke="#bfbfbf" points="991.5,-112.5 991.5,-131.5 1074.5,-131.5 1074.5,-112.5 991.5,-112.5"/>
<text text-anchor="middle" x="1033" y="-119.5" font-family="Helvetica,sans-Serif" font-size="10.00" fill="#000000">QVBoxLayout</text>
</a>
</g>
</g>
<!-- Node0&#45;&gt;Node25 -->
<g id="edge26" class="edge">
<title>Node0&#45;&gt;Node25</title>
<path fill="none" stroke="#191970" d="M931.1445,-168.3733C950.8892,-159.3838 980.5698,-145.8706 1002.8055,-135.7471"/>
<polygon fill="#191970" stroke="#191970" points="1004.4806,-138.8302 1012.1315,-131.5011 1001.58,-132.4594 1004.4806,-138.8302"/>
</g>
<!-- Node26 -->
<g id="node27" class="node">
<title>Node26</title>
<g id="a_node27"><a xlink:title=" ">
<polygon fill="#ffffff" stroke="#bfbfbf" points="1092.5,-112.5 1092.5,-131.5 1175.5,-131.5 1175.5,-112.5 1092.5,-112.5"/>
<text text-anchor="middle" x="1134" y="-119.5" font-family="Helvetica,sans-Serif" font-size="10.00" fill="#000000">QHBoxLayout</text>
</a>
</g>
</g>
<!-- Node0&#45;&gt;Node26 -->
<g id="edge27" class="edge">
<title>Node0&#45;&gt;Node26</title>
<path fill="none" stroke="#191970" d="M948.2525,-168.4369C986.3467,-158.9133 1044.9313,-144.2672 1086.0987,-133.9753"/>
<polygon fill="#191970" stroke="#191970" points="1087.0528,-137.3446 1095.9053,-131.5237 1085.355,-130.5536 1087.0528,-137.3446"/>
</g>
<!-- Node27 -->
<g id="node28" class="node">
<title>Node27</title>
<g id="a_node28"><a xlink:title=" ">
<polygon fill="#ffffff" stroke="#bfbfbf" points="1193.5,-112.5 1193.5,-131.5 1300.5,-131.5 1300.5,-112.5 1193.5,-112.5"/>
<text text-anchor="middle" x="1247" y="-119.5" font-family="Helvetica,sans-Serif" font-size="10.00" fill="#000000">QDialogButtonBox</text>
</a>
</g>
</g>
<!-- Node0&#45;&gt;Node27 -->
<g id="edge28" class="edge">
<title>Node0&#45;&gt;Node27</title>
<path fill="none" stroke="#191970" d="M967.5495,-168.4369C1027.4724,-158.4794 1121.0956,-142.9218 1183.2321,-132.5964"/>
<polygon fill="#191970" stroke="#191970" points="1184.0146,-136.0145 1193.3056,-130.9225 1182.8671,-129.1092 1184.0146,-136.0145"/>
</g>
<!-- Node28 -->
<g id="node29" class="node">
<title>Node28</title>
<g id="a_node29"><a xlink:title=" ">
<polygon fill="#ffffff" stroke="#bfbfbf" points="1319,-112.5 1319,-131.5 1399,-131.5 1399,-112.5 1319,-112.5"/>
<text text-anchor="middle" x="1359" y="-119.5" font-family="Helvetica,sans-Serif" font-size="10.00" fill="#000000">QPushButton</text>
</a>
</g>
</g>
<!-- Node0&#45;&gt;Node28 -->
<g id="edge29" class="edge">
<title>Node0&#45;&gt;Node28</title>
<path fill="none" stroke="#191970" d="M976.7705,-172.1094C1054.2827,-164.8696 1186.1529,-151.3156 1308.9823,-132.0483"/>
<polygon fill="#191970" stroke="#191970" points="1309.6113,-135.4924 1318.9403,-130.4704 1308.5157,-128.5787 1309.6113,-135.4924"/>
</g>
<!-- Node29 -->
<g id="node30" class="node">
<title>Node29</title>
<g id="a_node30"><a xlink:title=" ">
<polygon fill="#ffffff" stroke="#bfbfbf" points="1417,-112.5 1417,-131.5 1455,-131.5 1455,-112.5 1417,-112.5"/>
<text text-anchor="middle" x="1436" y="-119.5" font-family="Helvetica,sans-Serif" font-size="10.00" fill="#000000">QUrl</text>
</a>
</g>
</g>
<!-- Node0&#45;&gt;Node29 -->
<g id="edge31" class="edge">
<title>Node0&#45;&gt;Node29</title>
<path fill="none" stroke="#191970" d="M976.6331,-173.9249C1088.6878,-166.7372 1311.2031,-150.9437 1406.9561,-131.6551"/>
<polygon fill="#191970" stroke="#191970" points="1407.8567,-135.0418 1416.9067,-129.5329 1406.3966,-128.1958 1407.8567,-135.0418"/>
</g>
<!-- Node30 -->
<g id="node31" class="node">
<title>Node30</title>
<g id="a_node31"><a xlink:title=" ">
<polygon fill="#ffffff" stroke="#bfbfbf" points="1473.5,-112.5 1473.5,-131.5 1528.5,-131.5 1528.5,-112.5 1473.5,-112.5"/>
<text text-anchor="middle" x="1501" y="-119.5" font-family="Helvetica,sans-Serif" font-size="10.00" fill="#000000">QFrame</text>
</a>
</g>
</g>
<!-- Node0&#45;&gt;Node30 -->
<g id="edge32" class="edge">
<title>Node0&#45;&gt;Node30</title>
<path fill="none" stroke="#191970" d="M976.5861,-176.3596C1079.2314,-172.9756 1282.2889,-162.8876 1463.2745,-131.8176"/>
<polygon fill="#191970" stroke="#191970" points="1463.9902,-135.2458 1473.241,-130.0813 1462.7887,-128.3496 1463.9902,-135.2458"/>
</g>
<!-- Node2 -->
<g id="node3" class="node">
<title>Node2</title>
<g id="a_node3"><a xlink:title=" ">
<polygon fill="#ffffff" stroke="#bfbfbf" points="0,-56.5 0,-75.5 84,-75.5 84,-56.5 0,-56.5"/>
<text text-anchor="middle" x="42" y="-63.5" font-family="Helvetica,sans-Serif" font-size="10.00" fill="#000000">QTableWidget</text>
</a>
</g>
</g>
<!-- Node1&#45;&gt;Node2 -->
<g id="edge2" class="edge">
<title>Node1&#45;&gt;Node2</title>
<path fill="none" stroke="#191970" d="M142.1994,-112.3733C122.7757,-103.3838 93.5776,-89.8706 71.7036,-79.7471"/>
<polygon fill="#191970" stroke="#191970" points="73.0745,-76.5249 62.5292,-75.5011 70.1344,-82.8776 73.0745,-76.5249"/>
</g>
<!-- Node3 -->
<g id="node4" class="node">
<title>Node3</title>
<g id="a_node4"><a xlink:title=" ">
<polygon fill="#ffffff" stroke="#bfbfbf" points="170,-56.5 170,-75.5 226,-75.5 226,-56.5 170,-56.5"/>
<text text-anchor="middle" x="198" y="-63.5" font-family="Helvetica,sans-Serif" font-size="10.00" fill="#000000">QDialog</text>
</a>
</g>
</g>
<!-- Node1&#45;&gt;Node3 -->
<g id="edge3" class="edge">
<title>Node1&#45;&gt;Node3</title>
<path fill="none" stroke="#191970" d="M169.0965,-112.2455C173.9145,-104.5367 180.7751,-93.5598 186.6032,-84.2348"/>
<polygon fill="#191970" stroke="#191970" points="189.6413,-85.9777 191.9733,-75.6427 183.7053,-82.2677 189.6413,-85.9777"/>
</g>
<!-- Node4 -->
<g id="node5" class="node">
<title>Node4</title>
<g id="a_node5"><a xlink:title=" ">
<polygon fill="#ffffff" stroke="#bfbfbf" points="102,-56.5 102,-75.5 152,-75.5 152,-56.5 102,-56.5"/>
<text text-anchor="middle" x="127" y="-63.5" font-family="Helvetica,sans-Serif" font-size="10.00" fill="#000000">QLabel</text>
</a>
</g>
</g>
<!-- Node1&#45;&gt;Node4 -->
<g id="edge4" class="edge">
<title>Node1&#45;&gt;Node4</title>
<path fill="none" stroke="#191970" d="M156.7293,-112.2455C151.7736,-104.5367 144.717,-93.5598 138.7224,-84.2348"/>
<polygon fill="#191970" stroke="#191970" points="141.5506,-82.1618 133.1989,-75.6427 135.6624,-85.9471 141.5506,-82.1618"/>
</g>
<!-- Node5&#45;&gt;Node3 -->
<g id="edge6" class="edge">
<title>Node5&#45;&gt;Node3</title>
<path fill="none" stroke="#191970" d="M352.8536,-112.3733C320.3485,-102.6391 270.1313,-87.6008 235.7525,-77.3056"/>
<polygon fill="#191970" stroke="#191970" points="236.6507,-73.921 226.0669,-74.4051 234.6425,-80.6268 236.6507,-73.921"/>
</g>
<!-- Node6 -->
<g id="node7" class="node">
<title>Node6</title>
<g id="a_node7"><a xlink:title=" ">
<polygon fill="#ffffff" stroke="#bfbfbf" points="244,-56.5 244,-75.5 296,-75.5 296,-56.5 244,-56.5"/>
<text text-anchor="middle" x="270" y="-63.5" font-family="Helvetica,sans-Serif" font-size="10.00" fill="#000000">QEvent</text>
</a>
</g>
</g>
<!-- Node5&#45;&gt;Node6 -->
<g id="edge7" class="edge">
<title>Node5&#45;&gt;Node6</title>
<path fill="none" stroke="#191970" d="M365.2308,-112.3733C346.8531,-103.4241 319.2688,-89.9917 298.5107,-79.8835"/>
<polygon fill="#191970" stroke="#191970" points="300.0343,-76.7325 289.5112,-75.5011 296.9696,-83.026 300.0343,-76.7325"/>
</g>
<!-- Node7 -->
<g id="node8" class="node">
<title>Node7</title>
<g id="a_node8"><a xlink:title=" ">
<polygon fill="#ffffff" stroke="#bfbfbf" points="314.5,-56.5 314.5,-75.5 377.5,-75.5 377.5,-56.5 314.5,-56.5"/>
<text text-anchor="middle" x="346" y="-63.5" font-family="Helvetica,sans-Serif" font-size="10.00" fill="#000000">QTextEdit</text>
</a>
</g>
</g>
<!-- Node5&#45;&gt;Node7 -->
<g id="edge8" class="edge">
<title>Node5&#45;&gt;Node7</title>
<path fill="none" stroke="#191970" d="M378.2067,-112.2455C372.7822,-104.4564 365.0339,-93.3308 358.4967,-83.9439"/>
<polygon fill="#191970" stroke="#191970" points="361.3025,-81.8485 352.7154,-75.6427 355.5583,-85.849 361.3025,-81.8485"/>
</g>
<!-- Node5&#45;&gt;Node8 -->
<g id="edge9" class="edge">
<title>Node5&#45;&gt;Node8</title>
<path fill="none" stroke="#191970" d="M423.0222,-112.499C455.5203,-104.2034 503.7143,-91.4892 553.7648,-76.2519"/>
<polygon fill="#191970" stroke="#191970" points="554.929,-79.5558 563.4613,-73.2749 552.8745,-72.8641 554.929,-79.5558"/>
</g>
<!-- Node9 -->
<g id="node10" class="node">
<title>Node9</title>
<g id="a_node10"><a xlink:title=" ">
<polygon fill="#ffffff" stroke="#bfbfbf" points="395.5,-56.5 395.5,-75.5 454.5,-75.5 454.5,-56.5 395.5,-56.5"/>
<text text-anchor="middle" x="425" y="-63.5" font-family="Helvetica,sans-Serif" font-size="10.00" fill="#000000">QPointer</text>
</a>
</g>
</g>
<!-- Node5&#45;&gt;Node9 -->
<g id="edge10" class="edge">
<title>Node5&#45;&gt;Node9</title>
<path fill="none" stroke="#191970" d="M391.9675,-112.2455C397.5311,-104.4564 405.478,-93.3308 412.1829,-83.9439"/>
<polygon fill="#191970" stroke="#191970" points="415.148,-85.8144 418.1124,-75.6427 409.4519,-81.7457 415.148,-85.8144"/>
</g>
<!-- Node10 -->
<g id="node11" class="node">
<title>Node10</title>
<g id="a_node11"><a xlink:href="../../d4/d08/misc_8h.html" target="_top" xlink:title=" ">
<polygon fill="#ffffff" stroke="#000000" points="472.5,-56.5 472.5,-75.5 545.5,-75.5 545.5,-56.5 472.5,-56.5"/>
<text text-anchor="middle" x="509" y="-63.5" font-family="Helvetica,sans-Serif" font-size="10.00" fill="#000000">utils/misc.h</text>
</a>
</g>
</g>
<!-- Node5&#45;&gt;Node10 -->
<g id="edge11" class="edge">
<title>Node5&#45;&gt;Node10</title>
<path fill="none" stroke="#191970" d="M406.3164,-112.3733C426.2216,-103.3838 456.1436,-89.8706 478.56,-79.7471"/>
<polygon fill="#191970" stroke="#191970" points="480.2887,-82.8068 487.9618,-75.5011 477.4075,-76.4272 480.2887,-82.8068"/>
</g>
<!-- Node11 -->
<g id="node12" class="node">
<title>Node11</title>
<g id="a_node12"><a xlink:title=" ">
<polygon fill="#ffffff" stroke="#bfbfbf" points="197.5,-.5 197.5,-19.5 246.5,-19.5 246.5,-.5 197.5,-.5"/>
<text text-anchor="middle" x="222" y="-7.5" font-family="Helvetica,sans-Serif" font-size="10.00" fill="#000000">QHash</text>
</a>
</g>
</g>
<!-- Node10&#45;&gt;Node11 -->
<g id="edge12" class="edge">
<title>Node10&#45;&gt;Node11</title>
<path fill="none" stroke="#191970" d="M472.3708,-57.8896C469.2049,-57.2334 466.0481,-56.5948 463,-56 374.0654,-38.6451 348.0504,-41.4231 256.7243,-20.2092"/>
<polygon fill="#191970" stroke="#191970" points="257.3135,-16.7523 246.7773,-17.8649 255.7077,-23.5656 257.3135,-16.7523"/>
</g>
<!-- Node12 -->
<g id="node13" class="node">
<title>Node12</title>
<g id="a_node13"><a xlink:title=" ">
<polygon fill="#ffffff" stroke="#bfbfbf" points="264.5,-.5 264.5,-19.5 319.5,-19.5 319.5,-.5 264.5,-.5"/>
<text text-anchor="middle" x="292" y="-7.5" font-family="Helvetica,sans-Serif" font-size="10.00" fill="#000000">QVector</text>
</a>
</g>
</g>
<!-- Node10&#45;&gt;Node12 -->
<g id="edge13" class="edge">
<title>Node10&#45;&gt;Node12</title>
<path fill="none" stroke="#191970" d="M472.1923,-56.8984C437.6505,-48.3009 384.2952,-34.8778 329.401,-20.3367"/>
<polygon fill="#191970" stroke="#191970" points="330.0638,-16.8915 319.5004,-17.7062 328.2663,-23.6568 330.0638,-16.8915"/>
</g>
<!-- Node13 -->
<g id="node14" class="node">
<title>Node13</title>
<g id="a_node14"><a xlink:title=" ">
<polygon fill="#ffffff" stroke="#bfbfbf" points="337.5,-.5 337.5,-19.5 390.5,-19.5 390.5,-.5 337.5,-.5"/>
<text text-anchor="middle" x="364" y="-7.5" font-family="Helvetica,sans-Serif" font-size="10.00" fill="#000000">QString</text>
</a>
</g>
</g>
<!-- Node10&#45;&gt;Node13 -->
<g id="edge14" class="edge">
<title>Node10&#45;&gt;Node13</title>
<path fill="none" stroke="#191970" d="M484.0736,-56.3733C460.3798,-47.2226 424.5489,-33.3844 398.1932,-23.2057"/>
<polygon fill="#191970" stroke="#191970" points="399.1906,-19.8389 388.6011,-19.5011 396.6686,-26.3689 399.1906,-19.8389"/>
</g>
<!-- Node14 -->
<g id="node15" class="node">
<title>Node14</title>
<g id="a_node15"><a xlink:title=" ">
<polygon fill="#ffffff" stroke="#bfbfbf" points="409,-.5 409,-19.5 447,-19.5 447,-.5 409,-.5"/>
<text text-anchor="middle" x="428" y="-7.5" font-family="Helvetica,sans-Serif" font-size="10.00" fill="#000000">QDir</text>
</a>
</g>
</g>
<!-- Node10&#45;&gt;Node14 -->
<g id="edge15" class="edge">
<title>Node10&#45;&gt;Node14</title>
<path fill="none" stroke="#191970" d="M494.8909,-56.2455C482.5791,-47.7337 464.5042,-35.2375 450.2462,-25.3801"/>
<polygon fill="#191970" stroke="#191970" points="452.1634,-22.4506 441.9474,-19.6427 448.1826,-28.2085 452.1634,-22.4506"/>
</g>
<!-- Node15 -->
<g id="node16" class="node">
<title>Node15</title>
<g id="a_node16"><a xlink:title=" ">
<polygon fill="#ffffff" stroke="#bfbfbf" points="465,-.5 465,-19.5 553,-19.5 553,-.5 465,-.5"/>
<text text-anchor="middle" x="509" y="-7.5" font-family="Helvetica,sans-Serif" font-size="10.00" fill="#000000">QDomElement</text>
</a>
</g>
</g>
<!-- Node10&#45;&gt;Node15 -->
<g id="edge16" class="edge">
<title>Node10&#45;&gt;Node15</title>
<path fill="none" stroke="#191970" d="M509,-56.2455C509,-48.9382 509,-38.6944 509,-29.7046"/>
<polygon fill="#191970" stroke="#191970" points="512.5001,-29.6426 509,-19.6427 505.5001,-29.6427 512.5001,-29.6426"/>
</g>
<!-- Node16 -->
<g id="node17" class="node">
<title>Node16</title>
<g id="a_node17"><a xlink:title=" ">
<polygon fill="#ffffff" stroke="#bfbfbf" points="571,-.5 571,-19.5 641,-19.5 641,-.5 571,-.5"/>
<text text-anchor="middle" x="606" y="-7.5" font-family="Helvetica,sans-Serif" font-size="10.00" fill="#000000">QStringList</text>
</a>
</g>
</g>
<!-- Node10&#45;&gt;Node16 -->
<g id="edge17" class="edge">
<title>Node10&#45;&gt;Node16</title>
<path fill="none" stroke="#191970" d="M525.8961,-56.2455C540.918,-47.5731 563.1043,-34.7645 580.321,-24.825"/>
<polygon fill="#191970" stroke="#191970" points="582.3871,-27.6737 589.2975,-19.6427 578.8872,-21.6114 582.3871,-27.6737"/>
</g>
<!-- Node17 -->
<g id="node18" class="node">
<title>Node17</title>
<g id="a_node18"><a xlink:title=" ">
<polygon fill="#ffffff" stroke="#bfbfbf" points="659,-.5 659,-19.5 701,-19.5 701,-.5 659,-.5"/>
<text text-anchor="middle" x="680" y="-7.5" font-family="Helvetica,sans-Serif" font-size="10.00" fill="#000000">QPair</text>
</a>
</g>
</g>
<!-- Node10&#45;&gt;Node17 -->
<g id="edge18" class="edge">
<title>Node10&#45;&gt;Node17</title>
<path fill="none" stroke="#191970" d="M538.454,-56.4515C565.0409,-47.8191 605.4771,-34.6573 649.06,-20.2975"/>
<polygon fill="#191970" stroke="#191970" points="650.2995,-23.5743 658.7003,-17.1186 648.1072,-16.9264 650.2995,-23.5743"/>
</g>
<!-- Node18 -->
<g id="node19" class="node">
<title>Node18</title>
<g id="a_node19"><a xlink:title=" ">
<polygon fill="#ffffff" stroke="#bfbfbf" points="719.5,-.5 719.5,-19.5 760.5,-19.5 760.5,-.5 719.5,-.5"/>
<text text-anchor="middle" x="740" y="-7.5" font-family="Helvetica,sans-Serif" font-size="10.00" fill="#000000">QList</text>
</a>
</g>
</g>
<!-- Node10&#45;&gt;Node18 -->
<g id="edge19" class="edge">
<title>Node10&#45;&gt;Node18</title>
<path fill="none" stroke="#191970" d="M545.744,-57.7935C593.8978,-47.011 675.4516,-28.6463 709.7288,-19.7712"/>
<polygon fill="#191970" stroke="#191970" points="710.6844,-23.1386 719.4243,-17.1499 708.8574,-16.3813 710.6844,-23.1386"/>
</g>
<!-- Node19 -->
<g id="node20" class="node">
<title>Node19</title>
<g id="a_node20"><a xlink:title=" ">
<polygon fill="#ffffff" stroke="#bfbfbf" points="778.5,-.5 778.5,-19.5 833.5,-19.5 833.5,-.5 778.5,-.5"/>
<text text-anchor="middle" x="806" y="-7.5" font-family="Helvetica,sans-Serif" font-size="10.00" fill="#000000">QPointF</text>
</a>
</g>
</g>
<!-- Node10&#45;&gt;Node19 -->
<g id="edge20" class="edge">
<title>Node10&#45;&gt;Node19</title>
<path fill="none" stroke="#191970" d="M545.6256,-57.8714C548.7924,-57.2192 551.9503,-56.5865 555,-56 646.9836,-38.3115 673.6608,-40.7997 768.1808,-20.2443"/>
<polygon fill="#191970" stroke="#191970" points="769.1528,-23.6142 778.1647,-18.0432 767.6456,-16.7783 769.1528,-23.6142"/>
</g>
</g>
</svg>
        <g id="navigator" transform="translate(0 0)" fill="#404254">
                <rect fill="#f2f5e9" fill-opacity="0.5" stroke="#606060" stroke-width=".5" x="0" y="0" width="60" height="60"/>
                <use id="zoomplus" xlink:href="#zoomPlus" x="17" y="9" onmousedown="handleZoom(evt,'in')"/>
                <use id="zoomminus" xlink:href="#zoomMin" x="42" y="9" onmousedown="handleZoom(evt,'out')"/>
                <use id="reset" xlink:href="#resetDef" x="30" y="36" onmousedown="handleReset()"/>
                <g id="arrowUp" xlink:href="#dirArrow" transform="translate(30 24)" onmousedown="handlePan(0,-1)">
                  <use xlink:href="#rim" fill="#404040">
                        <set attributeName="fill" to="#808080" begin="arrowUp.mouseover" end="arrowUp.mouseout"/>
                  </use>
                  <path fill="none" stroke="white" stroke-width="1.5" d="M0,-3.0v7 M-2.5,-0.5L0,-3.0L2.5,-0.5"/>
                </g>
                <g id="arrowRight" xlink:href="#dirArrow" transform="rotate(90) translate(36 -43)" onmousedown="handlePan(1,0)">
                  <use xlink:href="#rim" fill="#404040">
                        <set attributeName="fill" to="#808080" begin="arrowRight.mouseover" end="arrowRight.mouseout"/>
                  </use>
                  <path fill="none" stroke="white" stroke-width="1.5" d="M0,-3.0v7 M-2.5,-0.5L0,-3.0L2.5,-0.5"/>
                </g>
                <g id="arrowDown" xlink:href="#dirArrow" transform="rotate(180) translate(-30 -48)" onmousedown="handlePan(0,1)">
                  <use xlink:href="#rim" fill="#404040">
                        <set attributeName="fill" to="#808080" begin="arrowDown.mouseover" end="arrowDown.mouseout"/>
                  </use>
                  <path fill="none" stroke="white" stroke-width="1.5" d="M0,-3.0v7 M-2.5,-0.5L0,-3.0L2.5,-0.5"/>
                </g>
                <g id="arrowLeft" xlink:href="#dirArrow" transform="rotate(270) translate(-36 17)" onmousedown="handlePan(-1,0)">
                  <use xlink:href="#rim" fill="#404040">
                        <set attributeName="fill" to="#808080" begin="arrowLeft.mouseover" end="arrowLeft.mouseout"/>
                  </use>
                  <path fill="none" stroke="white" stroke-width="1.5" d="M0,-3.0v7 M-2.5,-0.5L0,-3.0L2.5,-0.5"/>
                </g>
        </g>
        <svg viewBox="0 0 15 15" width="100%" height="30px" preserveAspectRatio="xMaxYMin meet">
         <g id="arrow_out" transform="scale(0.3 0.3)">
          <a xlink:href="quotedialog_8cpp__incl_org.svg" target="_base">
           <rect id="button" ry="5" rx="5" y="6" x="6" height="38" width="38"
                fill="#f2f5e9" fill-opacity="0.5" stroke="#606060" stroke-width="1.0"/>
           <path id="arrow"
             d="M 11.500037,31.436501 C 11.940474,20.09759 22.043105,11.32322 32.158766,21.979434 L 37.068811,17.246167 C 37.068811,17.246167 37.088388,32 37.088388,32 L 22.160133,31.978069 C 22.160133,31.978069 26.997745,27.140456 26.997745,27.140456 C 18.528582,18.264221 13.291696,25.230495 11.500037,31.436501 z"
             style="fill:#404040;"/>
          </a>
         </g>
        </svg>
</svg>
