<?xml version="1.0" encoding="UTF-8" standalone="no"?>
<!DOCTYPE svg PUBLIC "-//W3C//DTD SVG 1.1//EN"
 "http://www.w3.org/Graphics/SVG/1.1/DTD/svg11.dtd">
<!-- Generated by graphviz version 2.40.1 (0)
 -->
<!-- Title: AddSubpartCommand::redo Pages: 1 -->
<!--zoomable 653 -->
<svg id="main" version="1.1" xmlns="http://www.w3.org/2000/svg" xmlns:xlink="http://www.w3.org/1999/xlink" xml:space="preserve" onload="init(evt)">
<style type="text/css"><![CDATA[
.edge:hover path { stroke: red; }
.edge:hover polygon { stroke: red; fill: red; }
]]></style>
<script type="text/javascript"><![CDATA[
var edges = document.getElementsByTagName('g');
if (edges && edges.length) {
  for (var i=0;i<edges.length;i++) {
    if (edges[i].id.substr(0,4)=='edge') {
      edges[i].setAttribute('class','edge');
    }
  }
}
]]></script>
        <defs>
                <circle id="rim" cx="0" cy="0" r="7"/>
                <circle id="rim2" cx="0" cy="0" r="3.5"/>
                <g id="zoomPlus">
                        <use xlink:href="#rim" fill="#404040">
                                <set attributeName="fill" to="#808080" begin="zoomplus.mouseover" end="zoomplus.mouseout"/>
                        </use>
                        <path d="M-4,0h8M0,-4v8" fill="none" stroke="white" stroke-width="1.5" pointer-events="none"/>
                </g>
                <g id="zoomMin">
                        <use xlink:href="#rim" fill="#404040">
                                <set attributeName="fill" to="#808080" begin="zoomminus.mouseover" end="zoomminus.mouseout"/>
                        </use>
                        <path d="M-4,0h8" fill="none" stroke="white" stroke-width="1.5" pointer-events="none"/>
                </g>
                <g id="dirArrow">
                        <path fill="none" stroke="white" stroke-width="1.5" d="M0,-3.0v7 M-2.5,-0.5L0,-3.0L2.5,-0.5"/>
                </g>
               <g id="resetDef">
                       <use xlink:href="#rim2" fill="#404040">
                               <set attributeName="fill" to="#808080" begin="reset.mouseover" end="reset.mouseout"/>
                       </use>
               </g>
        </defs>

<script type="text/javascript">
var viewWidth = 1308;
var viewHeight = 653;
var sectionId = 'dynsection-3';
</script>
<script xlink:href="../../svgpan.js"/>
<svg id="graph" class="graph">
<g id="viewport">
<title>AddSubpartCommand::redo</title>
<polygon fill="#ffffff" stroke="transparent" points="-4,4 -4,-648.8934 1304,-648.8934 1304,4 -4,4"/>
<!-- Node6 -->
<g id="node1" class="node">
<title>Node6</title>
<g id="a_node1"><a xlink:title=" ">
<polygon fill="#bfbfbf" stroke="#000000" points="0,-151.3934 0,-170.3934 151,-170.3934 151,-151.3934 0,-151.3934"/>
<text text-anchor="middle" x="75.5" y="-158.3934" font-family="Helvetica,sans-Serif" font-size="10.00" fill="#000000">AddSubpartCommand::redo</text>
</a>
</g>
</g>
<!-- Node7 -->
<g id="node2" class="node">
<title>Node7</title>
<g id="a_node2"><a xlink:href="../../d8/d37/classSketchWidget.html#a69b7aa132ed5769535745dcf3beaa9ea" target="_top" xlink:title=" ">
<polygon fill="#ffffff" stroke="#000000" points="187,-189.3934 187,-208.3934 332,-208.3934 332,-189.3934 187,-189.3934"/>
<text text-anchor="middle" x="259.5" y="-196.3934" font-family="Helvetica,sans-Serif" font-size="10.00" fill="#000000">SketchWidget::addSubpart</text>
</a>
</g>
</g>
<!-- Node6&#45;&gt;Node7 -->
<g id="edge1" class="edge">
<title>Node6&#45;&gt;Node7</title>
<path fill="none" stroke="#191970" d="M121.931,-170.4824C146.6493,-175.5873 177.239,-181.9047 203.292,-187.2853"/>
<polygon fill="#191970" stroke="#191970" points="202.9017,-190.7784 213.4029,-189.3734 204.3175,-183.9231 202.9017,-190.7784"/>
</g>
<!-- Node37 -->
<g id="node32" class="node">
<title>Node37</title>
<g id="a_node32"><a xlink:href="../../d8/d6e/classBaseCommand.html#a165c99f7028014fa735ee7f0c74afeaf" target="_top" xlink:title=" ">
<polygon fill="#ffffff" stroke="#000000" points="200,-132.3934 200,-151.3934 319,-151.3934 319,-132.3934 200,-132.3934"/>
<text text-anchor="middle" x="259.5" y="-139.3934" font-family="Helvetica,sans-Serif" font-size="10.00" fill="#000000">BaseCommand::redo</text>
</a>
</g>
</g>
<!-- Node6&#45;&gt;Node37 -->
<g id="edge34" class="edge">
<title>Node6&#45;&gt;Node37</title>
<path fill="none" stroke="#191970" d="M151.1364,-153.0831C163.9632,-151.7586 177.2285,-150.3889 189.8913,-149.0813"/>
<polygon fill="#191970" stroke="#191970" points="190.3099,-152.5568 199.8975,-148.048 189.5908,-145.5938 190.3099,-152.5568"/>
</g>
<!-- Node8 -->
<g id="node3" class="node">
<title>Node8</title>
<g id="a_node3"><a xlink:href="../../d8/d37/classSketchWidget.html#a8e2ae23ef1e4c2ad993e0c3985e5c3ba" target="_top" xlink:title=" ">
<polygon fill="#ffffff" stroke="#000000" points="384,-568.3934 384,-587.3934 514,-587.3934 514,-568.3934 384,-568.3934"/>
<text text-anchor="middle" x="449" y="-575.3934" font-family="Helvetica,sans-Serif" font-size="10.00" fill="#000000">SketchWidget::findItem</text>
</a>
</g>
</g>
<!-- Node7&#45;&gt;Node8 -->
<g id="edge2" class="edge">
<title>Node7&#45;&gt;Node8</title>
<path fill="none" stroke="#191970" d="M264.3747,-208.6429C289.612,-259.1174 405.5625,-491.0183 439.5884,-559.0702"/>
<polygon fill="#191970" stroke="#191970" points="436.5548,-560.8294 444.1575,-568.2084 442.8158,-557.6989 436.5548,-560.8294"/>
</g>
<!-- Node12 -->
<g id="node7" class="node">
<title>Node12</title>
<g id="a_node7"><a xlink:href="../../d4/d4f/classItemBase.html#aa2db3c9f1bcf35528a3a12258d255c92" target="_top" xlink:title=" ">
<polygon fill="#ffffff" stroke="#000000" points="386.5,-290.3934 386.5,-309.3934 511.5,-309.3934 511.5,-290.3934 386.5,-290.3934"/>
<text text-anchor="middle" x="449" y="-297.3934" font-family="Helvetica,sans-Serif" font-size="10.00" fill="#000000">ItemBase::addSubpart</text>
</a>
</g>
</g>
<!-- Node7&#45;&gt;Node12 -->
<g id="edge6" class="edge">
<title>Node7&#45;&gt;Node12</title>
<path fill="none" stroke="#191970" d="M277.3277,-208.3953C310.6232,-226.1411 382.4398,-264.4181 421.8135,-285.4035"/>
<polygon fill="#191970" stroke="#191970" points="420.6106,-288.7284 431.0816,-290.3433 423.903,-282.5511 420.6106,-288.7284"/>
</g>
<!-- Node33 -->
<g id="node28" class="node">
<title>Node33</title>
<g id="a_node28"><a xlink:href="../../d4/d4f/classItemBase.html#a11abad34ca68ac585a75883b9fa8812d" target="_top" xlink:title=" ">
<polygon fill="#ffffff" stroke="#000000" points="375.5,-170.3934 375.5,-189.3934 522.5,-189.3934 522.5,-170.3934 375.5,-170.3934"/>
<text text-anchor="middle" x="449" y="-177.3934" font-family="Helvetica,sans-Serif" font-size="10.00" fill="#000000">ItemBase::setInstanceTitle</text>
</a>
</g>
</g>
<!-- Node7&#45;&gt;Node33 -->
<g id="edge28" class="edge">
<title>Node7&#45;&gt;Node33</title>
<path fill="none" stroke="#191970" d="M332.2237,-191.6019C343.0118,-190.5202 354.2033,-189.3981 365.1955,-188.296"/>
<polygon fill="#191970" stroke="#191970" points="365.6163,-191.7714 375.2172,-187.2912 364.9179,-184.8064 365.6163,-191.7714"/>
</g>
<!-- Node9 -->
<g id="node4" class="node">
<title>Node9</title>
<g id="a_node4"><a xlink:href="../../d4/d4f/classItemBase.html#a27afd199a7ae3c3fd14e88ed0be14420" target="_top" xlink:title=" ">
<polygon fill="#ffffff" stroke="#000000" points="610,-625.3934 610,-644.3934 688,-644.3934 688,-625.3934 610,-625.3934"/>
<text text-anchor="middle" x="649" y="-632.3934" font-family="Helvetica,sans-Serif" font-size="10.00" fill="#000000">ItemBase::id</text>
</a>
</g>
</g>
<!-- Node8&#45;&gt;Node9 -->
<g id="edge3" class="edge">
<title>Node8&#45;&gt;Node9</title>
<path fill="none" stroke="#191970" d="M476.2142,-587.4935C499.7947,-595.6282 534.9153,-607.3059 566,-615.8934 576.9092,-618.9072 588.717,-621.8178 599.9101,-624.4172"/>
<polygon fill="#191970" stroke="#191970" points="599.4455,-627.9011 609.9733,-626.7111 601.0013,-621.0761 599.4455,-627.9011"/>
</g>
<!-- Node10 -->
<g id="node5" class="node">
<title>Node10</title>
<g id="a_node5"><a xlink:href="../../d4/d4f/classItemBase.html#abf6d16e250a353043cd4953ddc049bd0" target="_top" xlink:title=" ">
<polygon fill="#ffffff" stroke="#000000" points="581.5,-587.3934 581.5,-606.3934 716.5,-606.3934 716.5,-587.3934 581.5,-587.3934"/>
<text text-anchor="middle" x="649" y="-594.3934" font-family="Helvetica,sans-Serif" font-size="10.00" fill="#000000">ItemBase::layerKinChief</text>
</a>
</g>
</g>
<!-- Node8&#45;&gt;Node10 -->
<g id="edge4" class="edge">
<title>Node8&#45;&gt;Node10</title>
<path fill="none" stroke="#191970" d="M514.2107,-584.0884C532.4731,-585.8234 552.5038,-587.7263 571.4081,-589.5222"/>
<polygon fill="#191970" stroke="#191970" points="571.1886,-593.017 581.4749,-590.4785 571.8507,-586.0484 571.1886,-593.017"/>
</g>
<!-- Node11 -->
<g id="node6" class="node">
<title>Node11</title>
<g id="a_node6"><a xlink:href="../../d4/d4f/classItemBase.html#acc32076e751f0e21ffb9050f275d3b87" target="_top" xlink:title=" ">
<polygon fill="#ffffff" stroke="#000000" points="594,-549.3934 594,-568.3934 704,-568.3934 704,-549.3934 594,-549.3934"/>
<text text-anchor="middle" x="649" y="-556.3934" font-family="Helvetica,sans-Serif" font-size="10.00" fill="#000000">ItemBase::layerKin</text>
</a>
</g>
</g>
<!-- Node8&#45;&gt;Node11 -->
<g id="edge5" class="edge">
<title>Node8&#45;&gt;Node11</title>
<path fill="none" stroke="#191970" d="M514.2107,-571.6984C536.5514,-569.576 561.5384,-567.2023 583.8725,-565.0805"/>
<polygon fill="#191970" stroke="#191970" points="584.3042,-568.5554 593.9284,-564.1252 583.6422,-561.5868 584.3042,-568.5554"/>
</g>
<!-- Node13 -->
<g id="node8" class="node">
<title>Node13</title>
<g id="a_node8"><a xlink:href="../../d4/d4f/classItemBase.html#a7afe2c290186ce3d8a0febc45fa130f5" target="_top" xlink:title=" ">
<polygon fill="#ffffff" stroke="#000000" points="590,-511.3934 590,-530.3934 708,-530.3934 708,-511.3934 590,-511.3934"/>
<text text-anchor="middle" x="649" y="-518.3934" font-family="Helvetica,sans-Serif" font-size="10.00" fill="#000000">ItemBase::debugInfo</text>
</a>
</g>
</g>
<!-- Node12&#45;&gt;Node13 -->
<g id="edge7" class="edge">
<title>Node12&#45;&gt;Node13</title>
<path fill="none" stroke="#191970" d="M451.6456,-309.7982C461.0129,-342.8502 495.8729,-450.1781 566,-501.8934 570.3871,-505.1287 575.2325,-507.8262 580.313,-510.0736"/>
<polygon fill="#191970" stroke="#191970" points="579.0735,-513.3467 589.6639,-513.652 581.5753,-506.8091 579.0735,-513.3467"/>
</g>
<!-- Node22 -->
<g id="node17" class="node">
<title>Node22</title>
<g id="a_node17"><a xlink:href="../../d4/d4f/classItemBase.html#abff975bb4318bd4530c257d0793704d3" target="_top" xlink:title=" ">
<polygon fill="#ffffff" stroke="#000000" points="583.5,-473.3934 583.5,-492.3934 714.5,-492.3934 714.5,-473.3934 583.5,-473.3934"/>
<text text-anchor="middle" x="649" y="-480.3934" font-family="Helvetica,sans-Serif" font-size="10.00" fill="#000000">ItemBase::setSuperpart</text>
</a>
</g>
</g>
<!-- Node12&#45;&gt;Node22 -->
<g id="edge16" class="edge">
<title>Node12&#45;&gt;Node22</title>
<path fill="none" stroke="#191970" d="M452.883,-309.5192C464.9316,-338.0891 504.5998,-422.953 566,-463.8934 568.9806,-465.8808 572.1407,-467.6622 575.4196,-469.2588"/>
<polygon fill="#191970" stroke="#191970" points="574.3512,-472.6073 584.9243,-473.2866 577.0825,-466.1622 574.3512,-472.6073"/>
</g>
<!-- Node23 -->
<g id="node18" class="node">
<title>Node23</title>
<g id="a_node18"><a xlink:href="../../d4/d4f/classItemBase.html#af8b5baf85b1febe04dbaccd09e90d58a" target="_top" xlink:title=" ">
<polygon fill="#ffffff" stroke="#000000" points="572.5,-423.8934 572.5,-453.8934 725.5,-453.8934 725.5,-423.8934 572.5,-423.8934"/>
<text text-anchor="start" x="580.5" y="-441.8934" font-family="Helvetica,sans-Serif" font-size="10.00" fill="#000000">ItemBase::cachedConnector</text>
<text text-anchor="middle" x="649" y="-430.8934" font-family="Helvetica,sans-Serif" font-size="10.00" fill="#000000">Items</text>
</a>
</g>
</g>
<!-- Node12&#45;&gt;Node23 -->
<g id="edge17" class="edge">
<title>Node12&#45;&gt;Node23</title>
<path fill="none" stroke="#191970" d="M456.0802,-309.411C472.7702,-331.1808 516.8882,-384.9537 566,-413.8934 569.6466,-416.0422 573.4937,-418.0206 577.4533,-419.8401"/>
<polygon fill="#191970" stroke="#191970" points="576.2807,-423.144 586.8551,-423.8027 578.9994,-416.6935 576.2807,-423.144"/>
</g>
<!-- Node24 -->
<g id="node19" class="node">
<title>Node24</title>
<g id="a_node19"><a xlink:href="../../dc/d3a/classConnectorItem.html#a24e45c00dc37853b9572d41695c55716" target="_top" xlink:title=" ">
<polygon fill="#ffffff" stroke="#000000" points="593,-385.3934 593,-404.3934 705,-404.3934 705,-385.3934 593,-385.3934"/>
<text text-anchor="middle" x="649" y="-392.3934" font-family="Helvetica,sans-Serif" font-size="10.00" fill="#000000">ConnectorItem::bus</text>
</a>
</g>
</g>
<!-- Node12&#45;&gt;Node24 -->
<g id="edge18" class="edge">
<title>Node12&#45;&gt;Node24</title>
<path fill="none" stroke="#191970" d="M460.8271,-309.6315C481.0867,-325.8202 524.2907,-358.2317 566,-375.8934 571.8958,-378.39 578.1725,-380.5857 584.5324,-382.5108"/>
<polygon fill="#191970" stroke="#191970" points="583.9788,-385.9904 594.5523,-385.3176 585.8671,-379.2499 583.9788,-385.9904"/>
</g>
<!-- Node25 -->
<g id="node20" class="node">
<title>Node25</title>
<g id="a_node20"><a xlink:href="../../dc/d3a/classConnectorItem.html#af0a6058a57e91d11f927dafa61c363d4" target="_top" xlink:title=" ">
<polygon fill="#ffffff" stroke="#000000" points="577.5,-347.3934 577.5,-366.3934 720.5,-366.3934 720.5,-347.3934 577.5,-347.3934"/>
<text text-anchor="middle" x="649" y="-354.3934" font-family="Helvetica,sans-Serif" font-size="10.00" fill="#000000">ConnectorItem::connector</text>
</a>
</g>
</g>
<!-- Node12&#45;&gt;Node25 -->
<g id="edge19" class="edge">
<title>Node12&#45;&gt;Node25</title>
<path fill="none" stroke="#191970" d="M476.2142,-309.4935C499.7947,-317.6282 534.9153,-329.3059 566,-337.8934 574.999,-340.3795 584.6094,-342.7953 593.9819,-345.0242"/>
<polygon fill="#191970" stroke="#191970" points="593.4849,-348.5021 604.0184,-347.364 595.0742,-341.6849 593.4849,-348.5021"/>
</g>
<!-- Node26 -->
<g id="node21" class="node">
<title>Node26</title>
<g id="a_node21"><a xlink:href="../../d9/d65/classConnector.html#a1b9aaeb26c3135118b58aaecd1ef36f5" target="_top" xlink:title=" ">
<polygon fill="#ffffff" stroke="#000000" points="596.5,-309.3934 596.5,-328.3934 701.5,-328.3934 701.5,-309.3934 596.5,-309.3934"/>
<text text-anchor="middle" x="649" y="-316.3934" font-family="Helvetica,sans-Serif" font-size="10.00" fill="#000000">Connector::setBus</text>
</a>
</g>
</g>
<!-- Node12&#45;&gt;Node26 -->
<g id="edge20" class="edge">
<title>Node12&#45;&gt;Node26</title>
<path fill="none" stroke="#191970" d="M511.7325,-305.853C535.4889,-308.1099 562.5197,-310.6778 586.2754,-312.9346"/>
<polygon fill="#191970" stroke="#191970" points="585.9505,-316.4194 596.2368,-313.8809 586.6126,-309.4508 585.9505,-316.4194"/>
</g>
<!-- Node27 -->
<g id="node22" class="node">
<title>Node27</title>
<g id="a_node22"><a xlink:href="../../d9/d65/classConnector.html#aa48281ac91fd7d99765da3bfc2a3cd75" target="_top" xlink:title=" ">
<polygon fill="#ffffff" stroke="#000000" points="797,-290.3934 797,-309.3934 886,-309.3934 886,-290.3934 797,-290.3934"/>
<text text-anchor="middle" x="841.5" y="-297.3934" font-family="Helvetica,sans-Serif" font-size="10.00" fill="#000000">Connector::bus</text>
</a>
</g>
</g>
<!-- Node12&#45;&gt;Node27 -->
<g id="edge27" class="edge">
<title>Node12&#45;&gt;Node27</title>
<path fill="none" stroke="#191970" d="M511.6268,-299.8934C587.5405,-299.8934 714.2548,-299.8934 786.5402,-299.8934"/>
<polygon fill="#191970" stroke="#191970" points="786.7978,-303.3935 796.7978,-299.8934 786.7977,-296.3935 786.7978,-303.3935"/>
</g>
<!-- Node28 -->
<g id="node23" class="node">
<title>Node28</title>
<g id="a_node23"><a xlink:href="../../d4/d4f/classItemBase.html#acc2f5bad42928e7178c28fa0771b1f60" target="_top" xlink:title=" ">
<polygon fill="#ffffff" stroke="#000000" points="589.5,-233.3934 589.5,-252.3934 708.5,-252.3934 708.5,-233.3934 589.5,-233.3934"/>
<text text-anchor="middle" x="649" y="-240.3934" font-family="Helvetica,sans-Serif" font-size="10.00" fill="#000000">ItemBase::modelPart</text>
</a>
</g>
</g>
<!-- Node12&#45;&gt;Node28 -->
<g id="edge22" class="edge">
<title>Node12&#45;&gt;Node28</title>
<path fill="none" stroke="#191970" d="M482.4755,-290.3529C516.2216,-280.7353 568.4657,-265.8457 605.4244,-255.3125"/>
<polygon fill="#191970" stroke="#191970" points="606.7576,-258.572 615.4153,-252.4651 604.8389,-251.84 606.7576,-258.572"/>
</g>
<!-- Node29 -->
<g id="node24" class="node">
<title>Node29</title>
<g id="a_node24"><a xlink:href="../../d4/d72/classModelPart.html#a71cf2e6aa7274a3626c347155e92b7e6" target="_top" xlink:title=" ">
<polygon fill="#ffffff" stroke="#000000" points="580.5,-195.3934 580.5,-214.3934 717.5,-214.3934 717.5,-195.3934 580.5,-195.3934"/>
<text text-anchor="middle" x="649" y="-202.3934" font-family="Helvetica,sans-Serif" font-size="10.00" fill="#000000">ModelPart::getConnector</text>
</a>
</g>
</g>
<!-- Node12&#45;&gt;Node29 -->
<g id="edge23" class="edge">
<title>Node12&#45;&gt;Node29</title>
<path fill="none" stroke="#191970" d="M460.8271,-290.1554C481.0867,-273.9666 524.2907,-241.5552 566,-223.8934 571.8958,-221.3968 578.1725,-219.2012 584.5324,-217.276"/>
<polygon fill="#191970" stroke="#191970" points="585.8671,-220.537 594.5523,-214.4692 583.9788,-213.7965 585.8671,-220.537"/>
</g>
<!-- Node30 -->
<g id="node25" class="node">
<title>Node30</title>
<g id="a_node25"><a xlink:href="../../dc/d3a/classConnectorItem.html#aa22ed310cdf87c914bfad84ce759d66b" target="_top" xlink:title=" ">
<polygon fill="#ffffff" stroke="#000000" points="577.5,-145.8934 577.5,-175.8934 720.5,-175.8934 720.5,-145.8934 577.5,-145.8934"/>
<text text-anchor="start" x="585.5" y="-163.8934" font-family="Helvetica,sans-Serif" font-size="10.00" fill="#000000">ConnectorItem::connector</text>
<text text-anchor="middle" x="649" y="-152.8934" font-family="Helvetica,sans-Serif" font-size="10.00" fill="#000000">SharedID</text>
</a>
</g>
</g>
<!-- Node12&#45;&gt;Node30 -->
<g id="edge24" class="edge">
<title>Node12&#45;&gt;Node30</title>
<path fill="none" stroke="#191970" d="M456.0802,-290.3759C472.7702,-268.6061 516.8882,-214.8332 566,-185.8934 569.6466,-183.7446 573.4937,-181.7662 577.4533,-179.9468"/>
<polygon fill="#191970" stroke="#191970" points="578.9994,-183.0933 586.8551,-175.9842 576.2807,-176.6428 578.9994,-183.0933"/>
</g>
<!-- Node31 -->
<g id="node26" class="node">
<title>Node31</title>
<g id="a_node26"><a xlink:href="../../d2/dfc/classBus.html#a655b5d950f6a017204e8696ff2af971a" target="_top" xlink:title=" ">
<polygon fill="#ffffff" stroke="#000000" points="586,-107.3934 586,-126.3934 712,-126.3934 712,-107.3934 586,-107.3934"/>
<text text-anchor="middle" x="649" y="-114.3934" font-family="Helvetica,sans-Serif" font-size="10.00" fill="#000000">Bus::addSubConnector</text>
</a>
</g>
</g>
<!-- Node12&#45;&gt;Node31 -->
<g id="edge25" class="edge">
<title>Node12&#45;&gt;Node31</title>
<path fill="none" stroke="#191970" d="M457.5601,-290.2388C472.9297,-272.6903 505.8506,-234.1163 530,-198.8934 548.0182,-172.6131 540.4534,-155.9376 566,-136.8934 569.2494,-134.4711 572.7516,-132.3381 576.4155,-130.4602"/>
<polygon fill="#191970" stroke="#191970" points="578.0805,-133.5506 585.8041,-126.2983 575.2436,-127.1512 578.0805,-133.5506"/>
</g>
<!-- Node14 -->
<g id="node9" class="node">
<title>Node14</title>
<g id="a_node9"><a xlink:href="../../d4/d4f/classItemBase.html#a301312dff647a2e6ac79be48f6023b7c" target="_top" xlink:title=" ">
<polygon fill="#ffffff" stroke="#000000" points="779.5,-511.3934 779.5,-530.3934 903.5,-530.3934 903.5,-511.3934 779.5,-511.3934"/>
<text text-anchor="middle" x="841.5" y="-518.3934" font-family="Helvetica,sans-Serif" font-size="10.00" fill="#000000">ItemBase::debugInfo2</text>
</a>
</g>
</g>
<!-- Node13&#45;&gt;Node14 -->
<g id="edge8" class="edge">
<title>Node13&#45;&gt;Node14</title>
<path fill="none" stroke="#191970" d="M708.0646,-520.8934C727.352,-520.8934 748.9936,-520.8934 769.1437,-520.8934"/>
<polygon fill="#191970" stroke="#191970" points="769.2106,-524.3935 779.2106,-520.8934 769.2105,-517.3935 769.2106,-524.3935"/>
</g>
<!-- Node15 -->
<g id="node10" class="node">
<title>Node15</title>
<g id="a_node10"><a xlink:href="../../da/d3a/classDebugDialog.html#ad26216d18945d7d7188420707b76f241" target="_top" xlink:title=" ">
<polygon fill="#ffffff" stroke="#000000" points="978.5,-606.3934 978.5,-625.3934 1094.5,-625.3934 1094.5,-606.3934 978.5,-606.3934"/>
<text text-anchor="middle" x="1036.5" y="-613.3934" font-family="Helvetica,sans-Serif" font-size="10.00" fill="#000000">DebugDialog::debug</text>
</a>
</g>
</g>
<!-- Node14&#45;&gt;Node15 -->
<g id="edge9" class="edge">
<title>Node14&#45;&gt;Node15</title>
<path fill="none" stroke="#191970" d="M852.138,-530.4382C870.7746,-546.6364 911.1482,-579.4445 951,-596.8934 956.7588,-599.4149 962.8876,-601.6175 969.1166,-603.5385"/>
<polygon fill="#191970" stroke="#191970" points="968.3729,-606.9656 978.9487,-606.3306 970.2853,-600.2319 968.3729,-606.9656"/>
</g>
<!-- Node16 -->
<g id="node11" class="node">
<title>Node16</title>
<g id="a_node11"><a xlink:href="../../d4/d4f/classItemBase.html#acc99f68478cf462d7c8b5d1bd81b85ef" target="_top" xlink:title=" ">
<polygon fill="#ffffff" stroke="#000000" points="978,-568.3934 978,-587.3934 1095,-587.3934 1095,-568.3934 978,-568.3934"/>
<text text-anchor="middle" x="1036.5" y="-575.3934" font-family="Helvetica,sans-Serif" font-size="10.00" fill="#000000">ItemBase::constTitle</text>
</a>
</g>
</g>
<!-- Node14&#45;&gt;Node16 -->
<g id="edge10" class="edge">
<title>Node14&#45;&gt;Node16</title>
<path fill="none" stroke="#191970" d="M866.4628,-530.4804C888.4885,-538.7164 921.5741,-550.5481 951,-558.8934 959.9168,-561.4223 969.4345,-563.824 978.7614,-566.0158"/>
<polygon fill="#191970" stroke="#191970" points="978.2409,-569.4871 988.7699,-568.3078 979.8035,-562.6638 978.2409,-569.4871"/>
</g>
<!-- Node17 -->
<g id="node12" class="node">
<title>Node17</title>
<g id="a_node12"><a xlink:href="../../d4/d4f/classItemBase.html#a7e2aeaad0bf538b46ff5a3285521526a" target="_top" xlink:title=" ">
<polygon fill="#ffffff" stroke="#000000" points="970.5,-530.3934 970.5,-549.3934 1102.5,-549.3934 1102.5,-530.3934 970.5,-530.3934"/>
<text text-anchor="middle" x="1036.5" y="-537.3934" font-family="Helvetica,sans-Serif" font-size="10.00" fill="#000000">ItemBase::instanceTitle</text>
</a>
</g>
</g>
<!-- Node14&#45;&gt;Node17 -->
<g id="edge11" class="edge">
<title>Node14&#45;&gt;Node17</title>
<path fill="none" stroke="#191970" d="M903.7354,-526.9574C921.7812,-528.7157 941.6897,-530.6555 960.4784,-532.4862"/>
<polygon fill="#191970" stroke="#191970" points="960.1906,-535.9746 970.483,-533.461 960.8695,-529.0076 960.1906,-535.9746"/>
</g>
<!-- Node18 -->
<g id="node13" class="node">
<title>Node18</title>
<g id="a_node13"><a xlink:href="../../d4/d4f/classItemBase.html#a8f16baa26ee92ac6cd8dda5c69d759d4" target="_top" xlink:title=" ">
<polygon fill="#ffffff" stroke="#000000" points="971.5,-492.3934 971.5,-511.3934 1101.5,-511.3934 1101.5,-492.3934 971.5,-492.3934"/>
<text text-anchor="middle" x="1036.5" y="-499.3934" font-family="Helvetica,sans-Serif" font-size="10.00" fill="#000000">ItemBase::viewLayerID</text>
</a>
</g>
</g>
<!-- Node14&#45;&gt;Node18 -->
<g id="edge12" class="edge">
<title>Node14&#45;&gt;Node18</title>
<path fill="none" stroke="#191970" d="M903.7354,-514.8295C922.0646,-513.0435 942.3156,-511.0704 961.3629,-509.2145"/>
<polygon fill="#191970" stroke="#191970" points="961.8845,-512.6803 971.498,-508.227 961.2056,-505.7133 961.8845,-512.6803"/>
</g>
<!-- Node19 -->
<g id="node14" class="node">
<title>Node19</title>
<g id="a_node14"><a xlink:href="../../d4/d4f/classItemBase.html#a3dd3d84b0fdadf869b2bbd87f42ec156" target="_top" xlink:title=" ">
<polygon fill="#ffffff" stroke="#000000" points="951,-454.3934 951,-473.3934 1122,-473.3934 1122,-454.3934 951,-454.3934"/>
<text text-anchor="middle" x="1036.5" y="-461.3934" font-family="Helvetica,sans-Serif" font-size="10.00" fill="#000000">ItemBase::viewLayerPlacement</text>
</a>
</g>
</g>
<!-- Node14&#45;&gt;Node19 -->
<g id="edge13" class="edge">
<title>Node14&#45;&gt;Node19</title>
<path fill="none" stroke="#191970" d="M866.4628,-511.3065C888.4885,-503.0705 921.5741,-491.2388 951,-482.8934 959.9168,-480.3646 969.4345,-477.9628 978.7614,-475.771"/>
<polygon fill="#191970" stroke="#191970" points="979.8035,-479.1231 988.7699,-473.479 978.2409,-472.2997 979.8035,-479.1231"/>
</g>
<!-- Node20 -->
<g id="node15" class="node">
<title>Node20</title>
<g id="a_node15"><a xlink:href="../../d4/d4f/classItemBase.html#a34c60a892e43a7b8a3c0593eebece165" target="_top" xlink:title=" ">
<polygon fill="#ffffff" stroke="#000000" points="978.5,-416.3934 978.5,-435.3934 1094.5,-435.3934 1094.5,-416.3934 978.5,-416.3934"/>
<text text-anchor="middle" x="1036.5" y="-423.3934" font-family="Helvetica,sans-Serif" font-size="10.00" fill="#000000">ItemBase::wireFlags</text>
</a>
</g>
</g>
<!-- Node14&#45;&gt;Node20 -->
<g id="edge14" class="edge">
<title>Node14&#45;&gt;Node20</title>
<path fill="none" stroke="#191970" d="M852.138,-511.3486C870.7746,-495.1505 911.1482,-462.3424 951,-444.8934 956.7588,-442.3719 962.8876,-440.1693 969.1166,-438.2484"/>
<polygon fill="#191970" stroke="#191970" points="970.2853,-441.555 978.9487,-435.4562 968.3729,-434.8212 970.2853,-441.555"/>
</g>
<!-- Node21 -->
<g id="node16" class="node">
<title>Node21</title>
<g id="a_node16"><a xlink:href="../../d3/de8/classViewGeometry.html#ac42dfbfe227f5c4ee09f56b52bd24742" target="_top" xlink:title=" ">
<polygon fill="#ffffff" stroke="#000000" points="1158,-416.3934 1158,-435.3934 1300,-435.3934 1300,-416.3934 1158,-416.3934"/>
<text text-anchor="middle" x="1229" y="-423.3934" font-family="Helvetica,sans-Serif" font-size="10.00" fill="#000000">ViewGeometry::wireFlags</text>
</a>
</g>
</g>
<!-- Node20&#45;&gt;Node21 -->
<g id="edge15" class="edge">
<title>Node20&#45;&gt;Node21</title>
<path fill="none" stroke="#191970" d="M1094.5174,-425.8934C1111.1748,-425.8934 1129.6565,-425.8934 1147.4516,-425.8934"/>
<polygon fill="#191970" stroke="#191970" points="1147.8308,-429.3935 1157.8307,-425.8934 1147.8307,-422.3935 1147.8308,-429.3935"/>
</g>
<!-- Node26&#45;&gt;Node27 -->
<g id="edge21" class="edge">
<title>Node26&#45;&gt;Node27</title>
<path fill="none" stroke="#191970" d="M701.6015,-313.7016C728.0556,-311.0905 760.0908,-307.9286 786.8273,-305.2897"/>
<polygon fill="#191970" stroke="#191970" points="787.1844,-308.7716 796.7922,-304.3061 786.4967,-301.8054 787.1844,-308.7716"/>
</g>
<!-- Node32 -->
<g id="node27" class="node">
<title>Node32</title>
<g id="a_node27"><a xlink:href="../../d2/dfc/classBus.html#adbe5168ebfc614fdf662918946d13fef" target="_top" xlink:title=" ">
<polygon fill="#ffffff" stroke="#000000" points="788,-129.3934 788,-148.3934 895,-148.3934 895,-129.3934 788,-129.3934"/>
<text text-anchor="middle" x="841.5" y="-136.3934" font-family="Helvetica,sans-Serif" font-size="10.00" fill="#000000">Bus::subConnector</text>
</a>
</g>
</g>
<!-- Node31&#45;&gt;Node32 -->
<g id="edge26" class="edge">
<title>Node31&#45;&gt;Node32</title>
<path fill="none" stroke="#191970" d="M712.0317,-124.0971C733.0452,-126.4986 756.4665,-129.1753 777.5491,-131.5848"/>
<polygon fill="#191970" stroke="#191970" points="777.3573,-135.0855 787.6901,-132.7437 778.1522,-128.1308 777.3573,-135.0855"/>
</g>
<!-- Node34 -->
<g id="node29" class="node">
<title>Node34</title>
<g id="a_node29"><a xlink:href="../../d4/d4f/classItemBase.html#a6acb5462730fef0dd93270e9767f8649" target="_top" xlink:title=" ">
<polygon fill="#ffffff" stroke="#000000" points="566,-69.3934 566,-88.3934 732,-88.3934 732,-69.3934 566,-69.3934"/>
<text text-anchor="middle" x="649" y="-76.3934" font-family="Helvetica,sans-Serif" font-size="10.00" fill="#000000">ItemBase::setInstanceTitleAux</text>
</a>
</g>
</g>
<!-- Node33&#45;&gt;Node34 -->
<g id="edge29" class="edge">
<title>Node33&#45;&gt;Node34</title>
<path fill="none" stroke="#191970" d="M512.7543,-170.3701C518.9096,-167.8881 524.7905,-164.7805 530,-160.8934 555.847,-141.6079 540.1013,-117.1095 566,-97.8934 568.5301,-96.0161 571.2142,-94.3197 574.0092,-92.7871"/>
<polygon fill="#191970" stroke="#191970" points="575.7051,-95.8572 583.2595,-88.4288 572.7215,-89.5248 575.7051,-95.8572"/>
</g>
<!-- Node35 -->
<g id="node30" class="node">
<title>Node35</title>
<g id="a_node30"><a xlink:href="../../d4/d4f/classItemBase.html#af0f5772f7bc3d09b1558119b5c7a898c" target="_top" xlink:title=" ">
<polygon fill="#ffffff" stroke="#000000" points="992,-47.3934 992,-66.3934 1081,-66.3934 1081,-47.3934 992,-47.3934"/>
<text text-anchor="middle" x="1036.5" y="-54.3934" font-family="Helvetica,sans-Serif" font-size="10.00" fill="#000000">ItemBase::title</text>
</a>
</g>
</g>
<!-- Node33&#45;&gt;Node35 -->
<g id="edge33" class="edge">
<title>Node33&#45;&gt;Node35</title>
<path fill="none" stroke="#191970" d="M515.4853,-170.3635C520.7532,-167.8548 525.6923,-164.7438 530,-160.8934 565.5304,-129.1349 529.0368,-89.9722 566,-59.8934 695.0523,45.1227 916.5958,-15.0733 1001.7532,-44.0614"/>
<polygon fill="#191970" stroke="#191970" points="1000.6179,-47.3722 1011.2127,-47.3457 1002.9139,-40.7594 1000.6179,-47.3722"/>
</g>
<!-- Node34&#45;&gt;Node35 -->
<g id="edge30" class="edge">
<title>Node34&#45;&gt;Node35</title>
<path fill="none" stroke="#191970" d="M732.172,-83.9881C784.7219,-86.1027 853.9848,-86.862 915,-80.8934 939.4026,-78.5064 966.1736,-73.4837 988.361,-68.6472"/>
<polygon fill="#191970" stroke="#191970" points="989.2109,-72.0437 998.2076,-66.4482 987.6852,-65.212 989.2109,-72.0437"/>
</g>
<!-- Node36 -->
<g id="node31" class="node">
<title>Node36</title>
<g id="a_node31"><a xlink:href="../../d4/d4f/classItemBase.html#ade764b10b8d7a5679024b520a30f4cfc" target="_top" xlink:title=" ">
<polygon fill="#ffffff" stroke="#000000" points="768,-41.8934 768,-71.8934 915,-71.8934 915,-41.8934 768,-41.8934"/>
<text text-anchor="start" x="776" y="-59.8934" font-family="Helvetica,sans-Serif" font-size="10.00" fill="#000000">ItemBase::setInstanceTitle</text>
<text text-anchor="middle" x="841.5" y="-48.8934" font-family="Helvetica,sans-Serif" font-size="10.00" fill="#000000">Tooltip</text>
</a>
</g>
</g>
<!-- Node34&#45;&gt;Node36 -->
<g id="edge31" class="edge">
<title>Node34&#45;&gt;Node36</title>
<path fill="none" stroke="#191970" d="M732.0341,-69.4038C740.5912,-68.4259 749.2905,-67.4317 757.8543,-66.4529"/>
<polygon fill="#191970" stroke="#191970" points="758.2907,-69.9259 767.8286,-65.313 757.4958,-62.9712 758.2907,-69.9259"/>
</g>
<!-- Node36&#45;&gt;Node35 -->
<g id="edge32" class="edge">
<title>Node36&#45;&gt;Node35</title>
<path fill="none" stroke="#191970" d="M915.2211,-56.8934C937.2724,-56.8934 961.0519,-56.8934 981.6629,-56.8934"/>
<polygon fill="#191970" stroke="#191970" points="981.8147,-60.3935 991.8147,-56.8934 981.8146,-53.3935 981.8147,-60.3935"/>
</g>
<!-- Node38 -->
<g id="node33" class="node">
<title>Node38</title>
<g id="a_node33"><a xlink:href="../../df/d8b/classCommandProgress.html#aebf23a39ab6caf18a3e7b3351ad4f49d" target="_top" xlink:title=" ">
<polygon fill="#ffffff" stroke="#000000" points="376.5,-132.3934 376.5,-151.3934 521.5,-151.3934 521.5,-132.3934 376.5,-132.3934"/>
<text text-anchor="middle" x="449" y="-139.3934" font-family="Helvetica,sans-Serif" font-size="10.00" fill="#000000">CommandProgress::active</text>
</a>
</g>
</g>
<!-- Node37&#45;&gt;Node38 -->
<g id="edge35" class="edge">
<title>Node37&#45;&gt;Node38</title>
<path fill="none" stroke="#191970" d="M319.1989,-141.8934C334.061,-141.8934 350.2624,-141.8934 366.0225,-141.8934"/>
<polygon fill="#191970" stroke="#191970" points="366.297,-145.3935 376.2969,-141.8934 366.2969,-138.3935 366.297,-145.3935"/>
</g>
<!-- Node39 -->
<g id="node34" class="node">
<title>Node39</title>
<g id="a_node34"><a xlink:href="../../df/d8b/classCommandProgress.html#af6c9106bc35e189ceb59132c1ac065b6" target="_top" xlink:title=" ">
<polygon fill="#ffffff" stroke="#000000" points="368,-94.3934 368,-113.3934 530,-113.3934 530,-94.3934 368,-94.3934"/>
<text text-anchor="middle" x="449" y="-101.3934" font-family="Helvetica,sans-Serif" font-size="10.00" fill="#000000">CommandProgress::emitRedo</text>
</a>
</g>
</g>
<!-- Node37&#45;&gt;Node39 -->
<g id="edge36" class="edge">
<title>Node37&#45;&gt;Node39</title>
<path fill="none" stroke="#191970" d="M307.3189,-132.3044C332.8886,-127.177 364.559,-120.8262 391.4678,-115.4302"/>
<polygon fill="#191970" stroke="#191970" points="392.4084,-118.8114 401.525,-113.4135 391.032,-111.948 392.4084,-118.8114"/>
</g>
</g>
</svg>
        <g id="navigator" transform="translate(0 0)" fill="#404254">
                <rect fill="#f2f5e9" fill-opacity="0.5" stroke="#606060" stroke-width=".5" x="0" y="0" width="60" height="60"/>
                <use id="zoomplus" xlink:href="#zoomPlus" x="17" y="9" onmousedown="handleZoom(evt,'in')"/>
                <use id="zoomminus" xlink:href="#zoomMin" x="42" y="9" onmousedown="handleZoom(evt,'out')"/>
                <use id="reset" xlink:href="#resetDef" x="30" y="36" onmousedown="handleReset()"/>
                <g id="arrowUp" xlink:href="#dirArrow" transform="translate(30 24)" onmousedown="handlePan(0,-1)">
                  <use xlink:href="#rim" fill="#404040">
                        <set attributeName="fill" to="#808080" begin="arrowUp.mouseover" end="arrowUp.mouseout"/>
                  </use>
                  <path fill="none" stroke="white" stroke-width="1.5" d="M0,-3.0v7 M-2.5,-0.5L0,-3.0L2.5,-0.5"/>
                </g>
                <g id="arrowRight" xlink:href="#dirArrow" transform="rotate(90) translate(36 -43)" onmousedown="handlePan(1,0)">
                  <use xlink:href="#rim" fill="#404040">
                        <set attributeName="fill" to="#808080" begin="arrowRight.mouseover" end="arrowRight.mouseout"/>
                  </use>
                  <path fill="none" stroke="white" stroke-width="1.5" d="M0,-3.0v7 M-2.5,-0.5L0,-3.0L2.5,-0.5"/>
                </g>
                <g id="arrowDown" xlink:href="#dirArrow" transform="rotate(180) translate(-30 -48)" onmousedown="handlePan(0,1)">
                  <use xlink:href="#rim" fill="#404040">
                        <set attributeName="fill" to="#808080" begin="arrowDown.mouseover" end="arrowDown.mouseout"/>
                  </use>
                  <path fill="none" stroke="white" stroke-width="1.5" d="M0,-3.0v7 M-2.5,-0.5L0,-3.0L2.5,-0.5"/>
                </g>
                <g id="arrowLeft" xlink:href="#dirArrow" transform="rotate(270) translate(-36 17)" onmousedown="handlePan(-1,0)">
                  <use xlink:href="#rim" fill="#404040">
                        <set attributeName="fill" to="#808080" begin="arrowLeft.mouseover" end="arrowLeft.mouseout"/>
                  </use>
                  <path fill="none" stroke="white" stroke-width="1.5" d="M0,-3.0v7 M-2.5,-0.5L0,-3.0L2.5,-0.5"/>
                </g>
        </g>
        <svg viewBox="0 0 15 15" width="100%" height="30px" preserveAspectRatio="xMaxYMin meet">
         <g id="arrow_out" transform="scale(0.3 0.3)">
          <a xlink:href="classAddSubpartCommand_ab0fe0253bbea0081eac4dbd4a8d8c622_cgraph_org.svg" target="_base">
           <rect id="button" ry="5" rx="5" y="6" x="6" height="38" width="38"
                fill="#f2f5e9" fill-opacity="0.5" stroke="#606060" stroke-width="1.0"/>
           <path id="arrow"
             d="M 11.500037,31.436501 C 11.940474,20.09759 22.043105,11.32322 32.158766,21.979434 L 37.068811,17.246167 C 37.068811,17.246167 37.088388,32 37.088388,32 L 22.160133,31.978069 C 22.160133,31.978069 26.997745,27.140456 26.997745,27.140456 C 18.528582,18.264221 13.291696,25.230495 11.500037,31.436501 z"
             style="fill:#404040;"/>
          </a>
         </g>
        </svg>
</svg>
