<?xml version="1.0" encoding="UTF-8" standalone="no"?>
<!DOCTYPE svg PUBLIC "-//W3C//DTD SVG 1.1//EN"
 "http://www.w3.org/Graphics/SVG/1.1/DTD/svg11.dtd">
<!-- Generated by graphviz version 2.40.1 (0)
 -->
<!-- Title: utils/clickablelabel.h Pages: 1 -->
<svg width="924pt" height="84pt"
 viewBox="0.00 0.00 924.00 84.00" xmlns="http://www.w3.org/2000/svg" xmlns:xlink="http://www.w3.org/1999/xlink">
<g id="graph0" class="graph" transform="scale(1 1) rotate(0) translate(4 80)">
<title>utils/clickablelabel.h</title>
<polygon fill="#ffffff" stroke="transparent" points="-4,4 -4,-80 920,-80 920,4 -4,4"/>
<!-- Node2 -->
<g id="node1" class="node">
<title>Node2</title>
<g id="a_node1"><a xlink:title=" ">
<polygon fill="#bfbfbf" stroke="#000000" points="399,-56.5 399,-75.5 515,-75.5 515,-56.5 399,-56.5"/>
<text text-anchor="middle" x="457" y="-63.5" font-family="Helvetica,sans-Serif" font-size="10.00" fill="#000000">utils/clickablelabel.h</text>
</a>
</g>
</g>
<!-- Node3 -->
<g id="node2" class="node">
<title>Node3</title>
<g id="a_node2"><a xlink:href="../../d7/d07/prefsdialog_8cpp.html" target="_top" xlink:title=" ">
<polygon fill="#ffffff" stroke="#000000" points="0,-.5 0,-19.5 130,-19.5 130,-.5 0,-.5"/>
<text text-anchor="middle" x="65" y="-7.5" font-family="Helvetica,sans-Serif" font-size="10.00" fill="#000000">dialogs/prefsdialog.cpp</text>
</a>
</g>
</g>
<!-- Node2&#45;&gt;Node3 -->
<g id="edge1" class="edge">
<title>Node2&#45;&gt;Node3</title>
<path fill="none" stroke="#191970" d="M388.7569,-56.251C316.0096,-45.8585 201.6538,-29.522 130.1235,-19.3034"/>
<polygon fill="#191970" stroke="#191970" points="388.3424,-59.7272 398.7369,-57.6767 389.3324,-52.7976 388.3424,-59.7272"/>
</g>
<!-- Node4 -->
<g id="node3" class="node">
<title>Node4</title>
<g id="a_node3"><a xlink:href="../../de/dcf/setcolordialog_8cpp.html" target="_top" xlink:title=" ">
<polygon fill="#ffffff" stroke="#000000" points="148,-.5 148,-19.5 292,-19.5 292,-.5 148,-.5"/>
<text text-anchor="middle" x="220" y="-7.5" font-family="Helvetica,sans-Serif" font-size="10.00" fill="#000000">dialogs/setcolordialog.cpp</text>
</a>
</g>
</g>
<!-- Node2&#45;&gt;Node4 -->
<g id="edge2" class="edge">
<title>Node2&#45;&gt;Node4</title>
<path fill="none" stroke="#191970" d="M406.6903,-54.1125C363.0552,-43.8021 300.7208,-29.0733 260.3055,-19.5237"/>
<polygon fill="#191970" stroke="#191970" points="405.9907,-57.5435 416.5275,-56.4369 407.6004,-50.7311 405.9907,-57.5435"/>
</g>
<!-- Node5 -->
<g id="node4" class="node">
<title>Node5</title>
<g id="a_node4"><a xlink:href="../../d8/ddb/htmlinfoview_8cpp.html" target="_top" xlink:title=" ">
<polygon fill="#ffffff" stroke="#000000" points="310,-.5 310,-19.5 456,-19.5 456,-.5 310,-.5"/>
<text text-anchor="middle" x="383" y="-7.5" font-family="Helvetica,sans-Serif" font-size="10.00" fill="#000000">infoview/htmlinfoview.cpp</text>
</a>
</g>
</g>
<!-- Node2&#45;&gt;Node5 -->
<g id="edge3" class="edge">
<title>Node2&#45;&gt;Node5</title>
<path fill="none" stroke="#191970" d="M436.1343,-50.2097C423.1375,-40.3743 406.8378,-28.0394 395.7421,-19.6427"/>
<polygon fill="#191970" stroke="#191970" points="434.024,-53.002 444.1102,-56.2455 438.2482,-47.4201 434.024,-53.002"/>
</g>
<!-- Node6 -->
<g id="node5" class="node">
<title>Node6</title>
<g id="a_node5"><a xlink:href="../../d9/dfa/itembase_8cpp.html" target="_top" xlink:title=" ">
<polygon fill="#ffffff" stroke="#000000" points="474.5,-.5 474.5,-19.5 587.5,-19.5 587.5,-.5 474.5,-.5"/>
<text text-anchor="middle" x="531" y="-7.5" font-family="Helvetica,sans-Serif" font-size="10.00" fill="#000000">items/itembase.cpp</text>
</a>
</g>
</g>
<!-- Node2&#45;&gt;Node6 -->
<g id="edge4" class="edge">
<title>Node2&#45;&gt;Node6</title>
<path fill="none" stroke="#191970" d="M477.8657,-50.2097C490.8625,-40.3743 507.1622,-28.0394 518.2579,-19.6427"/>
<polygon fill="#191970" stroke="#191970" points="475.7518,-47.4201 469.8898,-56.2455 479.976,-53.002 475.7518,-47.4201"/>
</g>
<!-- Node7 -->
<g id="node6" class="node">
<title>Node7</title>
<g id="a_node6"><a xlink:href="../../d8/dd9/mainwindow_8cpp.html" target="_top" xlink:title=" ">
<polygon fill="#ffffff" stroke="#000000" points="606,-.5 606,-19.5 770,-19.5 770,-.5 606,-.5"/>
<text text-anchor="middle" x="688" y="-7.5" font-family="Helvetica,sans-Serif" font-size="10.00" fill="#000000">mainwindow/mainwindow.cpp</text>
</a>
</g>
</g>
<!-- Node2&#45;&gt;Node7 -->
<g id="edge5" class="edge">
<title>Node2&#45;&gt;Node7</title>
<path fill="none" stroke="#191970" d="M506.3049,-54.0473C548.8222,-43.7401 609.4057,-29.0532 648.7149,-19.5237"/>
<polygon fill="#191970" stroke="#191970" points="505.3417,-50.6793 496.4478,-56.4369 506.991,-57.4823 505.3417,-50.6793"/>
</g>
<!-- Node8 -->
<g id="node7" class="node">
<title>Node8</title>
<g id="a_node7"><a xlink:href="../../d2/da5/clickablelabel_8cpp.html" target="_top" xlink:title=" ">
<polygon fill="#ffffff" stroke="#000000" points="788,-.5 788,-19.5 916,-19.5 916,-.5 788,-.5"/>
<text text-anchor="middle" x="852" y="-7.5" font-family="Helvetica,sans-Serif" font-size="10.00" fill="#000000">utils/clickablelabel.cpp</text>
</a>
</g>
</g>
<!-- Node2&#45;&gt;Node8 -->
<g id="edge6" class="edge">
<title>Node2&#45;&gt;Node8</title>
<path fill="none" stroke="#191970" d="M525.4045,-56.3021C599.2085,-45.8388 715.8158,-29.3071 787.9016,-19.0874"/>
<polygon fill="#191970" stroke="#191970" points="524.6933,-52.8679 515.2836,-57.737 525.6759,-59.7986 524.6933,-52.8679"/>
</g>
</g>
</svg>
