<?xml version="1.0" encoding="UTF-8" standalone="no"?>
<!DOCTYPE svg PUBLIC "-//W3C//DTD SVG 1.1//EN"
 "http://www.w3.org/Graphics/SVG/1.1/DTD/svg11.dtd">
<!-- Generated by graphviz version 2.40.1 (0)
 -->
<!-- Title: FServerThread Pages: 1 -->
<svg width="133pt" height="215pt"
 viewBox="0.00 0.00 133.00 215.00" xmlns="http://www.w3.org/2000/svg" xmlns:xlink="http://www.w3.org/1999/xlink">
<g id="graph0" class="graph" transform="scale(1 1) rotate(0) translate(4 211)">
<title>FServerThread</title>
<polygon fill="#ffffff" stroke="transparent" points="-4,4 -4,-211 129,-211 129,4 -4,4"/>
<!-- Node0 -->
<g id="node1" class="node">
<title>Node0</title>
<g id="a_node1"><a xlink:title=" ">
<polygon fill="#bfbfbf" stroke="#000000" points="0,-.5 0,-112.5 125,-112.5 125,-.5 0,-.5"/>
<text text-anchor="middle" x="62.5" y="-100.5" font-family="Helvetica,sans-Serif" font-size="10.00" fill="#000000">FServerThread</text>
<polyline fill="none" stroke="#000000" points="0,-93.5 125,-93.5 "/>
<text text-anchor="start" x="8" y="-81.5" font-family="Helvetica,sans-Serif" font-size="10.00" fill="#000000"># m_done</text>
<text text-anchor="start" x="8" y="-70.5" font-family="Helvetica,sans-Serif" font-size="10.00" fill="#000000"># m_socketDescriptor</text>
<text text-anchor="start" x="8" y="-59.5" font-family="Helvetica,sans-Serif" font-size="10.00" fill="#000000"># m_busy</text>
<polyline fill="none" stroke="#000000" points="0,-52.5 125,-52.5 "/>
<text text-anchor="start" x="8" y="-40.5" font-family="Helvetica,sans-Serif" font-size="10.00" fill="#000000">+ FServerThread()</text>
<text text-anchor="start" x="8" y="-29.5" font-family="Helvetica,sans-Serif" font-size="10.00" fill="#000000">+ run()</text>
<text text-anchor="start" x="8" y="-18.5" font-family="Helvetica,sans-Serif" font-size="10.00" fill="#000000">+ setDone()</text>
<text text-anchor="start" x="8" y="-7.5" font-family="Helvetica,sans-Serif" font-size="10.00" fill="#000000"># writeResponse()</text>
</a>
</g>
</g>
<!-- Node1 -->
<g id="node2" class="node">
<title>Node1</title>
<g id="a_node2"><a xlink:href="../../d3/db2/classQThread.html" target="_top" xlink:title=" ">
<polygon fill="#ffffff" stroke="#000000" points="33.5,-149.5 33.5,-206.5 91.5,-206.5 91.5,-149.5 33.5,-149.5"/>
<text text-anchor="middle" x="62.5" y="-194.5" font-family="Helvetica,sans-Serif" font-size="10.00" fill="#000000">QThread</text>
<polyline fill="none" stroke="#000000" points="33.5,-187.5 91.5,-187.5 "/>
<text text-anchor="middle" x="62.5" y="-175.5" font-family="Helvetica,sans-Serif" font-size="10.00" fill="#000000"> </text>
<polyline fill="none" stroke="#000000" points="33.5,-168.5 91.5,-168.5 "/>
<text text-anchor="middle" x="62.5" y="-156.5" font-family="Helvetica,sans-Serif" font-size="10.00" fill="#000000"> </text>
</a>
</g>
</g>
<!-- Node1&#45;&gt;Node0 -->
<g id="edge1" class="edge">
<title>Node1&#45;&gt;Node0</title>
<path fill="none" stroke="#191970" d="M62.5,-139.0021C62.5,-130.6329 62.5,-121.6292 62.5,-112.7541"/>
<polygon fill="none" stroke="#191970" points="59.0001,-139.2062 62.5,-149.2062 66.0001,-139.2062 59.0001,-139.2062"/>
</g>
</g>
</svg>
