<?xml version="1.0" encoding="UTF-8" standalone="no"?>
<!DOCTYPE svg PUBLIC "-//W3C//DTD SVG 1.1//EN"
 "http://www.w3.org/Graphics/SVG/1.1/DTD/svg11.dtd">
<!-- Generated by graphviz version 2.40.1 (0)
 -->
<!-- Title: SvgFileSplitter::toString Pages: 1 -->
<svg width="574pt" height="66pt"
 viewBox="0.00 0.00 574.00 66.00" xmlns="http://www.w3.org/2000/svg" xmlns:xlink="http://www.w3.org/1999/xlink">
<g id="graph0" class="graph" transform="scale(1 1) rotate(0) translate(4 62)">
<title>SvgFileSplitter::toString</title>
<polygon fill="#ffffff" stroke="transparent" points="-4,4 -4,-62 570,-62 570,4 -4,4"/>
<!-- Node4085 -->
<g id="node1" class="node">
<title>Node4085</title>
<g id="a_node1"><a xlink:title=" ">
<polygon fill="#bfbfbf" stroke="#000000" points="0,-19.5 0,-38.5 131,-38.5 131,-19.5 0,-19.5"/>
<text text-anchor="middle" x="65.5" y="-26.5" font-family="Helvetica,sans-Serif" font-size="10.00" fill="#000000">SvgFileSplitter::toString</text>
</a>
</g>
</g>
<!-- Node4086 -->
<g id="node2" class="node">
<title>Node4086</title>
<g id="a_node2"><a xlink:href="../../de/db8/classTextUtils.html#ab791cfa714e558bdb445a32a2fbcd568" target="_top" xlink:title=" ">
<polygon fill="#ffffff" stroke="#000000" points="167,-19.5 167,-38.5 328,-38.5 328,-19.5 167,-19.5"/>
<text text-anchor="middle" x="247.5" y="-26.5" font-family="Helvetica,sans-Serif" font-size="10.00" fill="#000000">TextUtils::removeXMLEntities</text>
</a>
</g>
</g>
<!-- Node4085&#45;&gt;Node4086 -->
<g id="edge1" class="edge">
<title>Node4085&#45;&gt;Node4086</title>
<path fill="none" stroke="#191970" d="M131.2062,-29C139.549,-29 148.2,-29 156.8468,-29"/>
<polygon fill="#191970" stroke="#191970" points="156.9768,-32.5001 166.9767,-29 156.9767,-25.5001 156.9768,-32.5001"/>
</g>
<!-- Node4087 -->
<g id="node3" class="node">
<title>Node4087</title>
<g id="a_node3"><a xlink:href="../../de/db8/classTextUtils.html#a05480fc2ca26b2281f39584aa470369f" target="_top" xlink:title=" ">
<polygon fill="#ffffff" stroke="#000000" points="364,-38.5 364,-57.5 483,-57.5 483,-38.5 364,-38.5"/>
<text text-anchor="middle" x="423.5" y="-45.5" font-family="Helvetica,sans-Serif" font-size="10.00" fill="#000000">TextUtils::svgNSOnly</text>
</a>
</g>
</g>
<!-- Node4086&#45;&gt;Node4087 -->
<g id="edge2" class="edge">
<title>Node4086&#45;&gt;Node4087</title>
<path fill="none" stroke="#191970" d="M328.0314,-37.6937C336.5899,-38.6177 345.2433,-39.5518 353.6647,-40.461"/>
<polygon fill="#191970" stroke="#191970" points="353.4819,-43.9615 363.7998,-41.5551 354.2333,-37.0019 353.4819,-43.9615"/>
</g>
<!-- Node4089 -->
<g id="node5" class="node">
<title>Node4089</title>
<g id="a_node5"><a xlink:href="../../dc/d19/textutils_8cpp.html#acb19bcc142fce11f39732f13258615e9" target="_top" xlink:title=" ">
<polygon fill="#ffffff" stroke="#000000" points="394.5,-.5 394.5,-19.5 452.5,-19.5 452.5,-.5 394.5,-.5"/>
<text text-anchor="middle" x="423.5" y="-7.5" font-family="Helvetica,sans-Serif" font-size="10.00" fill="#000000">HexExpr</text>
</a>
</g>
</g>
<!-- Node4086&#45;&gt;Node4089 -->
<g id="edge4" class="edge">
<title>Node4086&#45;&gt;Node4089</title>
<path fill="none" stroke="#191970" d="M328.0314,-20.3063C347.4848,-18.2062 367.4285,-16.0532 384.023,-14.2617"/>
<polygon fill="#191970" stroke="#191970" points="384.839,-17.6941 394.4056,-13.1409 384.0876,-10.7345 384.839,-17.6941"/>
</g>
<!-- Node4088 -->
<g id="node4" class="node">
<title>Node4088</title>
<g id="a_node4"><a xlink:href="../../dc/d19/textutils_8cpp.html#a7841ff5bb04e5990a6219e06987451bf" target="_top" xlink:title=" ">
<polygon fill="#ffffff" stroke="#000000" points="519,-38.5 519,-57.5 566,-57.5 566,-38.5 519,-38.5"/>
<text text-anchor="middle" x="542.5" y="-45.5" font-family="Helvetica,sans-Serif" font-size="10.00" fill="#000000">Xmlns</text>
</a>
</g>
</g>
<!-- Node4087&#45;&gt;Node4088 -->
<g id="edge3" class="edge">
<title>Node4087&#45;&gt;Node4088</title>
<path fill="none" stroke="#191970" d="M483.3486,-48C492.023,-48 500.6876,-48 508.6047,-48"/>
<polygon fill="#191970" stroke="#191970" points="508.8683,-51.5001 518.8683,-48 508.8683,-44.5001 508.8683,-51.5001"/>
</g>
</g>
</svg>
