<?xml version="1.0" encoding="UTF-8" standalone="no"?>
<!DOCTYPE svg PUBLIC "-//W3C//DTD SVG 1.1//EN"
 "http://www.w3.org/Graphics/SVG/1.1/DTD/svg11.dtd">
<!-- Generated by graphviz version 2.40.1 (0)
 -->
<!-- Title: SvgFileSplitter::splitString Pages: 1 -->
<!--zoomable 97 -->
<svg id="main" version="1.1" xmlns="http://www.w3.org/2000/svg" xmlns:xlink="http://www.w3.org/1999/xlink" xml:space="preserve" onload="init(evt)">
<style type="text/css"><![CDATA[
.edge:hover path { stroke: red; }
.edge:hover polygon { stroke: red; fill: red; }
]]></style>
<script type="text/javascript"><![CDATA[
var edges = document.getElementsByTagName('g');
if (edges && edges.length) {
  for (var i=0;i<edges.length;i++) {
    if (edges[i].id.substr(0,4)=='edge') {
      edges[i].setAttribute('class','edge');
    }
  }
}
]]></script>
        <defs>
                <circle id="rim" cx="0" cy="0" r="7"/>
                <circle id="rim2" cx="0" cy="0" r="3.5"/>
                <g id="zoomPlus">
                        <use xlink:href="#rim" fill="#404040">
                                <set attributeName="fill" to="#808080" begin="zoomplus.mouseover" end="zoomplus.mouseout"/>
                        </use>
                        <path d="M-4,0h8M0,-4v8" fill="none" stroke="white" stroke-width="1.5" pointer-events="none"/>
                </g>
                <g id="zoomMin">
                        <use xlink:href="#rim" fill="#404040">
                                <set attributeName="fill" to="#808080" begin="zoomminus.mouseover" end="zoomminus.mouseout"/>
                        </use>
                        <path d="M-4,0h8" fill="none" stroke="white" stroke-width="1.5" pointer-events="none"/>
                </g>
                <g id="dirArrow">
                        <path fill="none" stroke="white" stroke-width="1.5" d="M0,-3.0v7 M-2.5,-0.5L0,-3.0L2.5,-0.5"/>
                </g>
               <g id="resetDef">
                       <use xlink:href="#rim2" fill="#404040">
                               <set attributeName="fill" to="#808080" begin="reset.mouseover" end="reset.mouseout"/>
                       </use>
               </g>
        </defs>

<script type="text/javascript">
var viewWidth = 512;
var viewHeight = 97;
var sectionId = 'dynsection-68';
</script>
<script xlink:href="../../svgpan.js"/>
<svg id="graph" class="graph">
<g id="viewport">
<title>SvgFileSplitter::splitString</title>
<polygon fill="#ffffff" stroke="transparent" points="-4,4 -4,-92.5 508,-92.5 508,4 -4,4"/>
<!-- Node3795 -->
<g id="node1" class="node">
<title>Node3795</title>
<g id="a_node1"><a xlink:title=" ">
<polygon fill="#bfbfbf" stroke="#000000" points="0,-28 0,-47 143,-47 143,-28 0,-28"/>
<text text-anchor="middle" x="71.5" y="-35" font-family="Helvetica,sans-Serif" font-size="10.00" fill="#000000">SvgFileSplitter::splitString</text>
</a>
</g>
</g>
<!-- Node3796 -->
<g id="node2" class="node">
<title>Node3796</title>
<g id="a_node2"><a xlink:href="../../de/db8/classTextUtils.html#ac0c7a9b1491c032137630e8603fda02d" target="_top" xlink:title=" ">
<polygon fill="#ffffff" stroke="#000000" points="185,-50 185,-69 319,-69 319,-50 185,-50"/>
<text text-anchor="middle" x="252" y="-57" font-family="Helvetica,sans-Serif" font-size="10.00" fill="#000000">TextUtils::cleanSodipodi</text>
</a>
</g>
</g>
<!-- Node3795&#45;&gt;Node3796 -->
<g id="edge1" class="edge">
<title>Node3795&#45;&gt;Node3796</title>
<path fill="none" stroke="#191970" d="M143.0976,-46.2266C153.5401,-47.4993 164.3309,-48.8146 174.8774,-50.1"/>
<polygon fill="#191970" stroke="#191970" points="174.5447,-53.5853 184.8947,-51.321 175.3916,-46.6367 174.5447,-53.5853"/>
</g>
<!-- Node3799 -->
<g id="node5" class="node">
<title>Node3799</title>
<g id="a_node5"><a xlink:href="../../de/db8/classTextUtils.html#a9c93bbc63a055b95d8f991efc2a58caa" target="_top" xlink:title=" ">
<polygon fill="#ffffff" stroke="#000000" points="179,-.5 179,-30.5 325,-30.5 325,-.5 179,-.5"/>
<text text-anchor="start" x="187" y="-18.5" font-family="Helvetica,sans-Serif" font-size="10.00" fill="#000000">TextUtils::findElementWith</text>
<text text-anchor="middle" x="252" y="-7.5" font-family="Helvetica,sans-Serif" font-size="10.00" fill="#000000">Attribute</text>
</a>
</g>
</g>
<!-- Node3795&#45;&gt;Node3799 -->
<g id="edge4" class="edge">
<title>Node3795&#45;&gt;Node3799</title>
<path fill="none" stroke="#191970" d="M143.0976,-28.7734C151.5162,-27.7473 160.1612,-26.6937 168.722,-25.6502"/>
<polygon fill="#191970" stroke="#191970" points="169.2113,-29.1166 178.7144,-24.4323 168.3643,-22.168 169.2113,-29.1166"/>
</g>
<!-- Node3797 -->
<g id="node3" class="node">
<title>Node3797</title>
<g id="a_node3"><a xlink:href="../../dc/d19/textutils_8cpp.html#ac58f1d5d4da5efbedabefd640c66243d" target="_top" xlink:title=" ">
<polygon fill="#ffffff" stroke="#000000" points="361,-69 361,-88 504,-88 504,-69 361,-69"/>
<text text-anchor="middle" x="432.5" y="-76" font-family="Helvetica,sans-Serif" font-size="10.00" fill="#000000">SodipodiAttributeDetector</text>
</a>
</g>
</g>
<!-- Node3796&#45;&gt;Node3797 -->
<g id="edge2" class="edge">
<title>Node3796&#45;&gt;Node3797</title>
<path fill="none" stroke="#191970" d="M319.2115,-66.5749C329.5417,-67.6623 340.3034,-68.7951 350.9044,-69.911"/>
<polygon fill="#191970" stroke="#191970" points="350.6881,-73.4075 360.9996,-70.9736 351.421,-66.4459 350.6881,-73.4075"/>
</g>
<!-- Node3798 -->
<g id="node4" class="node">
<title>Node3798</title>
<g id="a_node4"><a xlink:href="../../dc/d19/textutils_8cpp.html#a259d69e4c2978224b86a5edcdd2049fa" target="_top" xlink:title=" ">
<polygon fill="#ffffff" stroke="#000000" points="362,-31 362,-50 503,-50 503,-31 362,-31"/>
<text text-anchor="middle" x="432.5" y="-38" font-family="Helvetica,sans-Serif" font-size="10.00" fill="#000000">SodipodiElementDetector</text>
</a>
</g>
</g>
<!-- Node3796&#45;&gt;Node3798 -->
<g id="edge3" class="edge">
<title>Node3796&#45;&gt;Node3798</title>
<path fill="none" stroke="#191970" d="M319.2115,-52.4251C329.8784,-51.3023 341.0054,-50.131 351.9405,-48.98"/>
<polygon fill="#191970" stroke="#191970" points="352.3316,-52.4582 361.9102,-47.9305 351.5987,-45.4967 352.3316,-52.4582"/>
</g>
</g>
</svg>
        <g id="navigator" transform="translate(0 0)" fill="#404254">
                <rect fill="#f2f5e9" fill-opacity="0.5" stroke="#606060" stroke-width=".5" x="0" y="0" width="60" height="60"/>
                <use id="zoomplus" xlink:href="#zoomPlus" x="17" y="9" onmousedown="handleZoom(evt,'in')"/>
                <use id="zoomminus" xlink:href="#zoomMin" x="42" y="9" onmousedown="handleZoom(evt,'out')"/>
                <use id="reset" xlink:href="#resetDef" x="30" y="36" onmousedown="handleReset()"/>
                <g id="arrowUp" xlink:href="#dirArrow" transform="translate(30 24)" onmousedown="handlePan(0,-1)">
                  <use xlink:href="#rim" fill="#404040">
                        <set attributeName="fill" to="#808080" begin="arrowUp.mouseover" end="arrowUp.mouseout"/>
                  </use>
                  <path fill="none" stroke="white" stroke-width="1.5" d="M0,-3.0v7 M-2.5,-0.5L0,-3.0L2.5,-0.5"/>
                </g>
                <g id="arrowRight" xlink:href="#dirArrow" transform="rotate(90) translate(36 -43)" onmousedown="handlePan(1,0)">
                  <use xlink:href="#rim" fill="#404040">
                        <set attributeName="fill" to="#808080" begin="arrowRight.mouseover" end="arrowRight.mouseout"/>
                  </use>
                  <path fill="none" stroke="white" stroke-width="1.5" d="M0,-3.0v7 M-2.5,-0.5L0,-3.0L2.5,-0.5"/>
                </g>
                <g id="arrowDown" xlink:href="#dirArrow" transform="rotate(180) translate(-30 -48)" onmousedown="handlePan(0,1)">
                  <use xlink:href="#rim" fill="#404040">
                        <set attributeName="fill" to="#808080" begin="arrowDown.mouseover" end="arrowDown.mouseout"/>
                  </use>
                  <path fill="none" stroke="white" stroke-width="1.5" d="M0,-3.0v7 M-2.5,-0.5L0,-3.0L2.5,-0.5"/>
                </g>
                <g id="arrowLeft" xlink:href="#dirArrow" transform="rotate(270) translate(-36 17)" onmousedown="handlePan(-1,0)">
                  <use xlink:href="#rim" fill="#404040">
                        <set attributeName="fill" to="#808080" begin="arrowLeft.mouseover" end="arrowLeft.mouseout"/>
                  </use>
                  <path fill="none" stroke="white" stroke-width="1.5" d="M0,-3.0v7 M-2.5,-0.5L0,-3.0L2.5,-0.5"/>
                </g>
        </g>
        <svg viewBox="0 0 15 15" width="100%" height="30px" preserveAspectRatio="xMaxYMin meet">
         <g id="arrow_out" transform="scale(0.3 0.3)">
          <a xlink:href="classSvgFileSplitter_a04c3149e72e5ca81756b410bef02aa89_cgraph_org.svg" target="_base">
           <rect id="button" ry="5" rx="5" y="6" x="6" height="38" width="38"
                fill="#f2f5e9" fill-opacity="0.5" stroke="#606060" stroke-width="1.0"/>
           <path id="arrow"
             d="M 11.500037,31.436501 C 11.940474,20.09759 22.043105,11.32322 32.158766,21.979434 L 37.068811,17.246167 C 37.068811,17.246167 37.088388,32 37.088388,32 L 22.160133,31.978069 C 22.160133,31.978069 26.997745,27.140456 26.997745,27.140456 C 18.528582,18.264221 13.291696,25.230495 11.500037,31.436501 z"
             style="fill:#404040;"/>
          </a>
         </g>
        </svg>
</svg>
