<?xml version="1.0" encoding="UTF-8" standalone="no"?>
<!DOCTYPE svg PUBLIC "-//W3C//DTD SVG 1.1//EN"
 "http://www.w3.org/Graphics/SVG/1.1/DTD/svg11.dtd">
<!-- Generated by graphviz version 2.40.1 (0)
 -->
<!-- Title: Resistor::Resistor Pages: 1 -->
<svg width="414pt" height="256pt"
 viewBox="0.00 0.00 414.00 256.00" xmlns="http://www.w3.org/2000/svg" xmlns:xlink="http://www.w3.org/1999/xlink">
<g id="graph0" class="graph" transform="scale(1 1) rotate(0) translate(4 252)">
<title>Resistor::Resistor</title>
<polygon fill="#ffffff" stroke="transparent" points="-4,4 -4,-252 410,-252 410,4 -4,4"/>
<!-- Node0 -->
<g id="node1" class="node">
<title>Node0</title>
<g id="a_node1"><a xlink:title=" ">
<polygon fill="#bfbfbf" stroke="#000000" points="0,-114.5 0,-133.5 102,-133.5 102,-114.5 0,-114.5"/>
<text text-anchor="middle" x="51" y="-121.5" font-family="Helvetica,sans-Serif" font-size="10.00" fill="#000000">Resistor::Resistor</text>
</a>
</g>
</g>
<!-- Node1 -->
<g id="node2" class="node">
<title>Node1</title>
<g id="a_node2"><a xlink:href="../../d4/d72/classModelPart.html#a47369e86cac97b2139fbed138cf3e6c2" target="_top" xlink:title=" ">
<polygon fill="#ffffff" stroke="#000000" points="157.5,-228.5 157.5,-247.5 273.5,-247.5 273.5,-228.5 157.5,-228.5"/>
<text text-anchor="middle" x="215.5" y="-235.5" font-family="Helvetica,sans-Serif" font-size="10.00" fill="#000000">ModelPart::localProp</text>
</a>
</g>
</g>
<!-- Node0&#45;&gt;Node1 -->
<g id="edge1" class="edge">
<title>Node0&#45;&gt;Node1</title>
<path fill="none" stroke="#191970" d="M56.8823,-133.5273C69.3248,-152.8392 100.2883,-196.6565 138,-219 141.6873,-221.1846 145.6152,-223.1187 149.6718,-224.831"/>
<polygon fill="#191970" stroke="#191970" points="148.7253,-228.2137 159.3178,-228.4369 151.1765,-221.6568 148.7253,-228.2137"/>
</g>
<!-- Node2 -->
<g id="node3" class="node">
<title>Node2</title>
<g id="a_node3"><a xlink:href="../../d4/d4f/classItemBase.html#acc2f5bad42928e7178c28fa0771b1f60" target="_top" xlink:title=" ">
<polygon fill="#ffffff" stroke="#000000" points="156,-190.5 156,-209.5 275,-209.5 275,-190.5 156,-190.5"/>
<text text-anchor="middle" x="215.5" y="-197.5" font-family="Helvetica,sans-Serif" font-size="10.00" fill="#000000">ItemBase::modelPart</text>
</a>
</g>
</g>
<!-- Node0&#45;&gt;Node2 -->
<g id="edge2" class="edge">
<title>Node0&#45;&gt;Node2</title>
<path fill="none" stroke="#191970" d="M64.6087,-133.5371C81.2792,-144.8825 110.68,-163.8154 138,-176 147.6509,-180.3043 158.3012,-184.1469 168.5364,-187.4289"/>
<polygon fill="#191970" stroke="#191970" points="167.5887,-190.7992 178.176,-190.4005 169.6509,-184.1099 167.5887,-190.7992"/>
</g>
<!-- Node3 -->
<g id="node4" class="node">
<title>Node3</title>
<g id="a_node4"><a xlink:href="../../df/deb/resistor_8cpp.html#a4e6b0ed9b3c8edd0368ef08ee0aa6421" target="_top" xlink:title=" ">
<polygon fill="#ffffff" stroke="#000000" points="329,-76.5 329,-95.5 406,-95.5 406,-76.5 329,-76.5"/>
<text text-anchor="middle" x="367.5" y="-83.5" font-family="Helvetica,sans-Serif" font-size="10.00" fill="#000000">OhmSymbol</text>
</a>
</g>
</g>
<!-- Node0&#45;&gt;Node3 -->
<g id="edge3" class="edge">
<title>Node0&#45;&gt;Node3</title>
<path fill="none" stroke="#191970" d="M80.231,-133.5661C126.6692,-147.1762 219.5543,-167.874 293,-143 316.2096,-135.1395 337.8731,-116.8275 351.7898,-103.0656"/>
<polygon fill="#191970" stroke="#191970" points="354.5832,-105.2131 359.0416,-95.602 349.5627,-100.3351 354.5832,-105.2131"/>
</g>
<!-- Node4 -->
<g id="node5" class="node">
<title>Node4</title>
<g id="a_node5"><a xlink:href="../../df/deb/resistor_8cpp.html#a4c943cd41df176a70fa3091e8ac44d90" target="_top" xlink:title=" ">
<polygon fill="#ffffff" stroke="#000000" points="164,-114.5 164,-133.5 267,-133.5 267,-114.5 164,-114.5"/>
<text text-anchor="middle" x="215.5" y="-121.5" font-family="Helvetica,sans-Serif" font-size="10.00" fill="#000000">PlusMinusSymbol</text>
</a>
</g>
</g>
<!-- Node0&#45;&gt;Node4 -->
<g id="edge4" class="edge">
<title>Node0&#45;&gt;Node4</title>
<path fill="none" stroke="#191970" d="M102.1471,-124C118.3929,-124 136.5372,-124 153.4639,-124"/>
<polygon fill="#191970" stroke="#191970" points="153.818,-127.5001 163.818,-124 153.8179,-120.5001 153.818,-127.5001"/>
</g>
<!-- Node5 -->
<g id="node6" class="node">
<title>Node5</title>
<g id="a_node6"><a xlink:href="../../d4/d72/classModelPart.html#a59262909e61b1889d251eadb4bf844db" target="_top" xlink:title=" ">
<polygon fill="#ffffff" stroke="#000000" points="155,-76.5 155,-95.5 276,-95.5 276,-76.5 155,-76.5"/>
<text text-anchor="middle" x="215.5" y="-83.5" font-family="Helvetica,sans-Serif" font-size="10.00" fill="#000000">ModelPart::properties</text>
</a>
</g>
</g>
<!-- Node0&#45;&gt;Node5 -->
<g id="edge5" class="edge">
<title>Node0&#45;&gt;Node5</title>
<path fill="none" stroke="#191970" d="M92.5103,-114.411C114.3156,-109.3739 141.2318,-103.1562 164.3191,-97.8229"/>
<polygon fill="#191970" stroke="#191970" points="165.3326,-101.1811 174.2882,-95.5201 163.757,-94.3607 165.3326,-101.1811"/>
</g>
<!-- Node6 -->
<g id="node7" class="node">
<title>Node6</title>
<g id="a_node7"><a xlink:href="../../d4/d72/classModelPart.html#af99e77ea33c73511b7ffd3ba1bd9aa12" target="_top" xlink:title=" ">
<polygon fill="#ffffff" stroke="#000000" points="148.5,-38.5 148.5,-57.5 282.5,-57.5 282.5,-38.5 148.5,-38.5"/>
<text text-anchor="middle" x="215.5" y="-45.5" font-family="Helvetica,sans-Serif" font-size="10.00" fill="#000000">ModelPart::setLocalProp</text>
</a>
</g>
</g>
<!-- Node0&#45;&gt;Node6 -->
<g id="edge6" class="edge">
<title>Node0&#45;&gt;Node6</title>
<path fill="none" stroke="#191970" d="M62.6399,-114.4929C78.6639,-101.8628 108.8559,-79.6742 138,-67 143.7525,-64.4983 149.8947,-62.2872 156.1088,-60.3421"/>
<polygon fill="#191970" stroke="#191970" points="157.2609,-63.6522 165.8873,-57.501 155.3078,-56.9302 157.2609,-63.6522"/>
</g>
<!-- Node7 -->
<g id="node8" class="node">
<title>Node7</title>
<g id="a_node8"><a xlink:href="../../dd/df8/classResistor.html#a94fc1851cf0dfb0623dc0b058fe79be3" target="_top" xlink:title=" ">
<polygon fill="#ffffff" stroke="#000000" points="138,-.5 138,-19.5 293,-19.5 293,-.5 138,-.5"/>
<text text-anchor="middle" x="215.5" y="-7.5" font-family="Helvetica,sans-Serif" font-size="10.00" fill="#000000">Resistor::updateResistances</text>
</a>
</g>
</g>
<!-- Node0&#45;&gt;Node7 -->
<g id="edge7" class="edge">
<title>Node0&#45;&gt;Node7</title>
<path fill="none" stroke="#191970" d="M56.8823,-114.4727C69.3248,-95.1608 100.2883,-51.3435 138,-29 141.6873,-26.8154 145.6152,-24.8813 149.6718,-23.169"/>
<polygon fill="#191970" stroke="#191970" points="151.1765,-26.3432 159.3178,-19.5631 148.7253,-19.7863 151.1765,-26.3432"/>
</g>
<!-- Node7&#45;&gt;Node3 -->
<g id="edge8" class="edge">
<title>Node7&#45;&gt;Node3</title>
<path fill="none" stroke="#191970" d="M267.3975,-19.5672C276.1624,-22.0667 285.0041,-25.1695 293,-29 314.6084,-39.3518 335.9863,-56.6315 350.2616,-69.457"/>
<polygon fill="#191970" stroke="#191970" points="348.0712,-72.1983 357.794,-76.4077 352.8184,-67.0539 348.0712,-72.1983"/>
</g>
</g>
</svg>
