<?xml version="1.0" encoding="UTF-8" standalone="no"?>
<!DOCTYPE svg PUBLIC "-//W3C//DTD SVG 1.1//EN"
 "http://www.w3.org/Graphics/SVG/1.1/DTD/svg11.dtd">
<!-- Generated by graphviz version 2.40.1 (0)
 -->
<!-- Title: PartInfoWidget Pages: 1 -->
<!--zoomable 419 -->
<svg id="main" version="1.1" xmlns="http://www.w3.org/2000/svg" xmlns:xlink="http://www.w3.org/1999/xlink" xml:space="preserve" onload="init(evt)">
<style type="text/css"><![CDATA[
.edge:hover path { stroke: red; }
.edge:hover polygon { stroke: red; fill: red; }
]]></style>
<script type="text/javascript"><![CDATA[
var edges = document.getElementsByTagName('g');
if (edges && edges.length) {
  for (var i=0;i<edges.length;i++) {
    if (edges[i].id.substr(0,4)=='edge') {
      edges[i].setAttribute('class','edge');
    }
  }
}
]]></script>
        <defs>
                <circle id="rim" cx="0" cy="0" r="7"/>
                <circle id="rim2" cx="0" cy="0" r="3.5"/>
                <g id="zoomPlus">
                        <use xlink:href="#rim" fill="#404040">
                                <set attributeName="fill" to="#808080" begin="zoomplus.mouseover" end="zoomplus.mouseout"/>
                        </use>
                        <path d="M-4,0h8M0,-4v8" fill="none" stroke="white" stroke-width="1.5" pointer-events="none"/>
                </g>
                <g id="zoomMin">
                        <use xlink:href="#rim" fill="#404040">
                                <set attributeName="fill" to="#808080" begin="zoomminus.mouseover" end="zoomminus.mouseout"/>
                        </use>
                        <path d="M-4,0h8" fill="none" stroke="white" stroke-width="1.5" pointer-events="none"/>
                </g>
                <g id="dirArrow">
                        <path fill="none" stroke="white" stroke-width="1.5" d="M0,-3.0v7 M-2.5,-0.5L0,-3.0L2.5,-0.5"/>
                </g>
               <g id="resetDef">
                       <use xlink:href="#rim2" fill="#404040">
                               <set attributeName="fill" to="#808080" begin="reset.mouseover" end="reset.mouseout"/>
                       </use>
               </g>
        </defs>

<script type="text/javascript">
var viewWidth = 527;
var viewHeight = 419;
var sectionId = 'dynsection-1';
</script>
<script xlink:href="../../svgpan.js"/>
<svg id="graph" class="graph">
<g id="viewport">
<title>PartInfoWidget</title>
<polygon fill="#ffffff" stroke="transparent" points="-4,4 -4,-415 522.5,-415 522.5,4 -4,4"/>
<!-- Node2 -->
<g id="node1" class="node">
<title>Node2</title>
<g id="a_node1"><a xlink:title=" ">
<polygon fill="#bfbfbf" stroke="#000000" points="183,-.5 183,-79.5 302,-79.5 302,-.5 183,-.5"/>
<text text-anchor="middle" x="242.5" y="-67.5" font-family="Helvetica,sans-Serif" font-size="10.00" fill="#000000">PartInfoWidget</text>
<polyline fill="none" stroke="#000000" points="183,-60.5 302,-60.5 "/>
<text text-anchor="middle" x="242.5" y="-48.5" font-family="Helvetica,sans-Serif" font-size="10.00" fill="#000000"> </text>
<polyline fill="none" stroke="#000000" points="183,-41.5 302,-41.5 "/>
<text text-anchor="start" x="191" y="-29.5" font-family="Helvetica,sans-Serif" font-size="10.00" fill="#000000">+ PartInfoWidget()</text>
<text text-anchor="start" x="191" y="-18.5" font-family="Helvetica,sans-Serif" font-size="10.00" fill="#000000">+ modelPartShared()</text>
<text text-anchor="start" x="191" y="-7.5" font-family="Helvetica,sans-Serif" font-size="10.00" fill="#000000">+ updateInfo()</text>
</a>
</g>
</g>
<!-- Node3 -->
<g id="node2" class="node">
<title>Node3</title>
<g id="a_node2"><a xlink:href="../../d8/ded/classQWidget.html" target="_top" xlink:title=" ">
<polygon fill="#ffffff" stroke="#000000" points="0,-199 0,-256 59,-256 59,-199 0,-199"/>
<text text-anchor="middle" x="29.5" y="-244" font-family="Helvetica,sans-Serif" font-size="10.00" fill="#000000">QWidget</text>
<polyline fill="none" stroke="#000000" points="0,-237 59,-237 "/>
<text text-anchor="middle" x="29.5" y="-225" font-family="Helvetica,sans-Serif" font-size="10.00" fill="#000000"> </text>
<polyline fill="none" stroke="#000000" points="0,-218 59,-218 "/>
<text text-anchor="middle" x="29.5" y="-206" font-family="Helvetica,sans-Serif" font-size="10.00" fill="#000000"> </text>
</a>
</g>
</g>
<!-- Node3&#45;&gt;Node2 -->
<g id="edge1" class="edge">
<title>Node3&#45;&gt;Node2</title>
<path fill="none" stroke="#191970" d="M47.3974,-189.8358C53.2873,-179.5286 60.426,-168.7872 68.5,-160 101.2731,-124.3322 146.5101,-93.5425 182.6444,-72.0834"/>
<polygon fill="none" stroke="#191970" points="44.2665,-188.2667 42.5508,-198.7217 50.4118,-191.6186 44.2665,-188.2667"/>
</g>
<!-- Node4 -->
<g id="node3" class="node">
<title>Node4</title>
<g id="a_node3"><a xlink:title=" ">
<polygon fill="#ffffff" stroke="#bfbfbf" points="77.5,-199 77.5,-256 151.5,-256 151.5,-199 77.5,-199"/>
<text text-anchor="middle" x="114.5" y="-244" font-family="Helvetica,sans-Serif" font-size="10.00" fill="#000000">QDateEdit *</text>
<polyline fill="none" stroke="#bfbfbf" points="77.5,-237 151.5,-237 "/>
<text text-anchor="middle" x="114.5" y="-225" font-family="Helvetica,sans-Serif" font-size="10.00" fill="#000000"> </text>
<polyline fill="none" stroke="#bfbfbf" points="77.5,-218 151.5,-218 "/>
<text text-anchor="middle" x="114.5" y="-206" font-family="Helvetica,sans-Serif" font-size="10.00" fill="#000000"> </text>
</a>
</g>
</g>
<!-- Node4&#45;&gt;Node2 -->
<g id="edge2" class="edge">
<title>Node4&#45;&gt;Node2</title>
<path fill="none" stroke="#404040" d="M128.7867,-198.8787C142.7817,-171.8866 165.4577,-130.7906 189.5,-98 191.6878,-95.0162 194.0069,-92.0135 196.4051,-89.0295"/>
<polygon fill="none" stroke="#404040" points="196.5793,-88.8208 197.3534,-81.6513 204.2691,-79.6084 203.495,-86.7779 196.5793,-88.8208"/>
<text text-anchor="middle" x="214" y="-117.5" font-family="Helvetica,sans-Serif" font-size="10.00" fill="#000000"> #m_date</text>
</g>
<!-- Node5 -->
<g id="node4" class="node">
<title>Node5</title>
<g id="a_node4"><a xlink:href="../../d3/d86/classAddRemoveListWidget.html" target="_top" xlink:title=" ">
<polygon fill="#ffffff" stroke="#000000" points="169.5,-160.5 169.5,-294.5 315.5,-294.5 315.5,-160.5 169.5,-160.5"/>
<text text-anchor="middle" x="242.5" y="-282.5" font-family="Helvetica,sans-Serif" font-size="10.00" fill="#000000">AddRemoveListWidget</text>
<polyline fill="none" stroke="#000000" points="169.5,-275.5 315.5,-275.5 "/>
<text text-anchor="middle" x="242.5" y="-263.5" font-family="Helvetica,sans-Serif" font-size="10.00" fill="#000000"> </text>
<polyline fill="none" stroke="#000000" points="169.5,-256.5 315.5,-256.5 "/>
<text text-anchor="start" x="177.5" y="-244.5" font-family="Helvetica,sans-Serif" font-size="10.00" fill="#000000">+ AddRemoveListWidget()</text>
<text text-anchor="start" x="177.5" y="-233.5" font-family="Helvetica,sans-Serif" font-size="10.00" fill="#000000">+ count()</text>
<text text-anchor="start" x="177.5" y="-222.5" font-family="Helvetica,sans-Serif" font-size="10.00" fill="#000000">+ getItemsText()</text>
<text text-anchor="start" x="177.5" y="-211.5" font-family="Helvetica,sans-Serif" font-size="10.00" fill="#000000">+ itemAt()</text>
<text text-anchor="start" x="177.5" y="-200.5" font-family="Helvetica,sans-Serif" font-size="10.00" fill="#000000">+ setItemsText()</text>
<text text-anchor="start" x="177.5" y="-189.5" font-family="Helvetica,sans-Serif" font-size="10.00" fill="#000000"># addItem()</text>
<text text-anchor="start" x="177.5" y="-178.5" font-family="Helvetica,sans-Serif" font-size="10.00" fill="#000000"># addItem()</text>
<text text-anchor="start" x="177.5" y="-167.5" font-family="Helvetica,sans-Serif" font-size="10.00" fill="#000000"># removeSelectedItems()</text>
</a>
</g>
</g>
<!-- Node5&#45;&gt;Node2 -->
<g id="edge3" class="edge">
<title>Node5&#45;&gt;Node2</title>
<path fill="none" stroke="#404040" d="M242.5,-160.3378C242.5,-137.7628 242.5,-112.9454 242.5,-91.7423"/>
<polygon fill="none" stroke="#404040" points="242.5001,-91.72 238.5,-85.7201 242.5,-79.72 246.5,-85.72 242.5001,-91.72"/>
<text text-anchor="middle" x="283.5" y="-123" font-family="Helvetica,sans-Serif" font-size="10.00" fill="#000000"> #m_tagsList</text>
<text text-anchor="middle" x="283.5" y="-112" font-family="Helvetica,sans-Serif" font-size="10.00" fill="#000000">#m_propertyList</text>
</g>
<!-- Node6 -->
<g id="node5" class="node">
<title>Node6</title>
<g id="a_node5"><a xlink:href="../../d6/d53/classQGroupBox.html" target="_top" xlink:title=" ">
<polygon fill="#ffffff" stroke="#000000" points="49.5,-353.5 49.5,-410.5 121.5,-410.5 121.5,-353.5 49.5,-353.5"/>
<text text-anchor="middle" x="85.5" y="-398.5" font-family="Helvetica,sans-Serif" font-size="10.00" fill="#000000">QGroupBox</text>
<polyline fill="none" stroke="#000000" points="49.5,-391.5 121.5,-391.5 "/>
<text text-anchor="middle" x="85.5" y="-379.5" font-family="Helvetica,sans-Serif" font-size="10.00" fill="#000000"> </text>
<polyline fill="none" stroke="#000000" points="49.5,-372.5 121.5,-372.5 "/>
<text text-anchor="middle" x="85.5" y="-360.5" font-family="Helvetica,sans-Serif" font-size="10.00" fill="#000000"> </text>
</a>
</g>
</g>
<!-- Node6&#45;&gt;Node5 -->
<g id="edge4" class="edge">
<title>Node6&#45;&gt;Node5</title>
<path fill="none" stroke="#191970" d="M122.0562,-346.0259C137.6645,-330.6661 156.4049,-312.2241 174.4027,-294.513"/>
<polygon fill="none" stroke="#191970" points="119.3352,-343.793 114.6626,-353.3018 124.2451,-348.7824 119.3352,-343.793"/>
</g>
<!-- Node7 -->
<g id="node6" class="node">
<title>Node7</title>
<g id="a_node6"><a xlink:title=" ">
<polygon fill="#ffffff" stroke="#bfbfbf" points="139.5,-353.5 139.5,-410.5 227.5,-410.5 227.5,-353.5 139.5,-353.5"/>
<text text-anchor="middle" x="183.5" y="-398.5" font-family="Helvetica,sans-Serif" font-size="10.00" fill="#000000">QPushButton *</text>
<polyline fill="none" stroke="#bfbfbf" points="139.5,-391.5 227.5,-391.5 "/>
<text text-anchor="middle" x="183.5" y="-379.5" font-family="Helvetica,sans-Serif" font-size="10.00" fill="#000000"> </text>
<polyline fill="none" stroke="#bfbfbf" points="139.5,-372.5 227.5,-372.5 "/>
<text text-anchor="middle" x="183.5" y="-360.5" font-family="Helvetica,sans-Serif" font-size="10.00" fill="#000000"> </text>
</a>
</g>
</g>
<!-- Node7&#45;&gt;Node5 -->
<g id="edge5" class="edge">
<title>Node7&#45;&gt;Node5</title>
<path fill="none" stroke="#404040" d="M177.7866,-353.1902C176.4122,-340.5777 176.3559,-325.774 180.5,-313 181.2846,-310.5814 182.1662,-308.174 183.1318,-305.7836"/>
<polygon fill="none" stroke="#404040" points="183.1966,-305.6429 182.0734,-298.5198 188.2166,-294.7433 189.3398,-301.8664 183.1966,-305.6429"/>
<text text-anchor="middle" x="227.5" y="-327" font-family="Helvetica,sans-Serif" font-size="10.00" fill="#000000"> #m_addButton</text>
<text text-anchor="middle" x="227.5" y="-316" font-family="Helvetica,sans-Serif" font-size="10.00" fill="#000000">#m_removeButton</text>
</g>
<!-- Node8 -->
<g id="node7" class="node">
<title>Node8</title>
<g id="a_node7"><a xlink:title=" ">
<polygon fill="#ffffff" stroke="#bfbfbf" points="258.5,-353.5 258.5,-410.5 342.5,-410.5 342.5,-353.5 258.5,-353.5"/>
<text text-anchor="middle" x="300.5" y="-398.5" font-family="Helvetica,sans-Serif" font-size="10.00" fill="#000000">QListWidget *</text>
<polyline fill="none" stroke="#bfbfbf" points="258.5,-391.5 342.5,-391.5 "/>
<text text-anchor="middle" x="300.5" y="-379.5" font-family="Helvetica,sans-Serif" font-size="10.00" fill="#000000"> </text>
<polyline fill="none" stroke="#bfbfbf" points="258.5,-372.5 342.5,-372.5 "/>
<text text-anchor="middle" x="300.5" y="-360.5" font-family="Helvetica,sans-Serif" font-size="10.00" fill="#000000"> </text>
</a>
</g>
</g>
<!-- Node8&#45;&gt;Node5 -->
<g id="edge6" class="edge">
<title>Node8&#45;&gt;Node5</title>
<path fill="none" stroke="#404040" d="M291.9726,-353.2687C288.1105,-340.8042 283.3326,-326.093 278.5,-313 277.6844,-310.7902 276.8445,-308.5539 275.9857,-306.3013"/>
<polygon fill="none" stroke="#404040" points="275.9189,-306.1297 270.0125,-301.9927 271.5597,-294.9495 277.466,-299.0866 275.9189,-306.1297"/>
<text text-anchor="middle" x="306.5" y="-321.5" font-family="Helvetica,sans-Serif" font-size="10.00" fill="#000000"> #m_list</text>
</g>
<!-- Node9 -->
<g id="node8" class="node">
<title>Node9</title>
<g id="a_node8"><a xlink:title=" ">
<polygon fill="#ffffff" stroke="#bfbfbf" points="361,-353.5 361,-410.5 420,-410.5 420,-353.5 361,-353.5"/>
<text text-anchor="middle" x="390.5" y="-398.5" font-family="Helvetica,sans-Serif" font-size="10.00" fill="#000000">QLabel *</text>
<polyline fill="none" stroke="#bfbfbf" points="361,-391.5 420,-391.5 "/>
<text text-anchor="middle" x="390.5" y="-379.5" font-family="Helvetica,sans-Serif" font-size="10.00" fill="#000000"> </text>
<polyline fill="none" stroke="#bfbfbf" points="361,-372.5 420,-372.5 "/>
<text text-anchor="middle" x="390.5" y="-360.5" font-family="Helvetica,sans-Serif" font-size="10.00" fill="#000000"> </text>
</a>
</g>
</g>
<!-- Node9&#45;&gt;Node5 -->
<g id="edge7" class="edge">
<title>Node9&#45;&gt;Node5</title>
<path fill="none" stroke="#404040" d="M366.998,-353.2515C356.4232,-340.6504 343.6157,-325.8385 331.5,-313 328.4532,-309.7714 325.3166,-306.5054 322.1247,-303.2291"/>
<polygon fill="none" stroke="#404040" points="321.9946,-303.0972 314.9338,-301.6325 313.5701,-294.5515 320.6309,-296.0162 321.9946,-303.0972"/>
<text text-anchor="middle" x="375" y="-321.5" font-family="Helvetica,sans-Serif" font-size="10.00" fill="#000000"> #m_label</text>
</g>
<!-- Node10 -->
<g id="node9" class="node">
<title>Node10</title>
<g id="a_node9"><a xlink:title=" ">
<polygon fill="#ffffff" stroke="#bfbfbf" points="334,-199 334,-256 405,-256 405,-199 334,-199"/>
<text text-anchor="middle" x="369.5" y="-244" font-family="Helvetica,sans-Serif" font-size="10.00" fill="#000000">QTextEdit *</text>
<polyline fill="none" stroke="#bfbfbf" points="334,-237 405,-237 "/>
<text text-anchor="middle" x="369.5" y="-225" font-family="Helvetica,sans-Serif" font-size="10.00" fill="#000000"> </text>
<polyline fill="none" stroke="#bfbfbf" points="334,-218 405,-218 "/>
<text text-anchor="middle" x="369.5" y="-206" font-family="Helvetica,sans-Serif" font-size="10.00" fill="#000000"> </text>
</a>
</g>
</g>
<!-- Node10&#45;&gt;Node2 -->
<g id="edge8" class="edge">
<title>Node10&#45;&gt;Node2</title>
<path fill="none" stroke="#404040" d="M365.9727,-198.7468C361.3317,-170.7127 350.9536,-128.03 328.5,-98 323.6455,-91.5075 317.8391,-85.5049 311.5656,-80.0206"/>
<polygon fill="none" stroke="#404040" points="311.4258,-79.9075 304.2453,-79.2434 302.0966,-72.3599 309.2771,-73.024 311.4258,-79.9075"/>
<text text-anchor="middle" x="391" y="-117.5" font-family="Helvetica,sans-Serif" font-size="10.00" fill="#000000"> #m_description</text>
</g>
<!-- Node11 -->
<g id="node10" class="node">
<title>Node11</title>
<g id="a_node10"><a xlink:title=" ">
<polygon fill="#ffffff" stroke="#bfbfbf" points="430,-199 430,-256 501,-256 501,-199 430,-199"/>
<text text-anchor="middle" x="465.5" y="-244" font-family="Helvetica,sans-Serif" font-size="10.00" fill="#000000">QLineEdit *</text>
<polyline fill="none" stroke="#bfbfbf" points="430,-237 501,-237 "/>
<text text-anchor="middle" x="465.5" y="-225" font-family="Helvetica,sans-Serif" font-size="10.00" fill="#000000"> </text>
<polyline fill="none" stroke="#bfbfbf" points="430,-218 501,-218 "/>
<text text-anchor="middle" x="465.5" y="-206" font-family="Helvetica,sans-Serif" font-size="10.00" fill="#000000"> </text>
</a>
</g>
</g>
<!-- Node11&#45;&gt;Node2 -->
<g id="edge9" class="edge">
<title>Node11&#45;&gt;Node2</title>
<path fill="none" stroke="#404040" d="M466.6797,-198.9731C466.2937,-169.8865 461.0729,-125.2721 435.5,-98 418.6224,-80.001 361.7553,-64.229 314.0877,-53.6939"/>
<polygon fill="none" stroke="#404040" points="313.9274,-53.6594 307.2191,-56.3049 302.1969,-51.1301 308.9053,-48.4846 313.9274,-53.6594"/>
<text text-anchor="middle" x="488.5" y="-134" font-family="Helvetica,sans-Serif" font-size="10.00" fill="#000000"> #m_author</text>
<text text-anchor="middle" x="488.5" y="-123" font-family="Helvetica,sans-Serif" font-size="10.00" fill="#000000">#m_label</text>
<text text-anchor="middle" x="488.5" y="-112" font-family="Helvetica,sans-Serif" font-size="10.00" fill="#000000">#m_title</text>
<text text-anchor="middle" x="488.5" y="-101" font-family="Helvetica,sans-Serif" font-size="10.00" fill="#000000">#m_version</text>
</g>
</g>
</svg>
        <g id="navigator" transform="translate(0 0)" fill="#404254">
                <rect fill="#f2f5e9" fill-opacity="0.5" stroke="#606060" stroke-width=".5" x="0" y="0" width="60" height="60"/>
                <use id="zoomplus" xlink:href="#zoomPlus" x="17" y="9" onmousedown="handleZoom(evt,'in')"/>
                <use id="zoomminus" xlink:href="#zoomMin" x="42" y="9" onmousedown="handleZoom(evt,'out')"/>
                <use id="reset" xlink:href="#resetDef" x="30" y="36" onmousedown="handleReset()"/>
                <g id="arrowUp" xlink:href="#dirArrow" transform="translate(30 24)" onmousedown="handlePan(0,-1)">
                  <use xlink:href="#rim" fill="#404040">
                        <set attributeName="fill" to="#808080" begin="arrowUp.mouseover" end="arrowUp.mouseout"/>
                  </use>
                  <path fill="none" stroke="white" stroke-width="1.5" d="M0,-3.0v7 M-2.5,-0.5L0,-3.0L2.5,-0.5"/>
                </g>
                <g id="arrowRight" xlink:href="#dirArrow" transform="rotate(90) translate(36 -43)" onmousedown="handlePan(1,0)">
                  <use xlink:href="#rim" fill="#404040">
                        <set attributeName="fill" to="#808080" begin="arrowRight.mouseover" end="arrowRight.mouseout"/>
                  </use>
                  <path fill="none" stroke="white" stroke-width="1.5" d="M0,-3.0v7 M-2.5,-0.5L0,-3.0L2.5,-0.5"/>
                </g>
                <g id="arrowDown" xlink:href="#dirArrow" transform="rotate(180) translate(-30 -48)" onmousedown="handlePan(0,1)">
                  <use xlink:href="#rim" fill="#404040">
                        <set attributeName="fill" to="#808080" begin="arrowDown.mouseover" end="arrowDown.mouseout"/>
                  </use>
                  <path fill="none" stroke="white" stroke-width="1.5" d="M0,-3.0v7 M-2.5,-0.5L0,-3.0L2.5,-0.5"/>
                </g>
                <g id="arrowLeft" xlink:href="#dirArrow" transform="rotate(270) translate(-36 17)" onmousedown="handlePan(-1,0)">
                  <use xlink:href="#rim" fill="#404040">
                        <set attributeName="fill" to="#808080" begin="arrowLeft.mouseover" end="arrowLeft.mouseout"/>
                  </use>
                  <path fill="none" stroke="white" stroke-width="1.5" d="M0,-3.0v7 M-2.5,-0.5L0,-3.0L2.5,-0.5"/>
                </g>
        </g>
        <svg viewBox="0 0 15 15" width="100%" height="30px" preserveAspectRatio="xMaxYMin meet">
         <g id="arrow_out" transform="scale(0.3 0.3)">
          <a xlink:href="classPartInfoWidget__coll__graph_org.svg" target="_base">
           <rect id="button" ry="5" rx="5" y="6" x="6" height="38" width="38"
                fill="#f2f5e9" fill-opacity="0.5" stroke="#606060" stroke-width="1.0"/>
           <path id="arrow"
             d="M 11.500037,31.436501 C 11.940474,20.09759 22.043105,11.32322 32.158766,21.979434 L 37.068811,17.246167 C 37.068811,17.246167 37.088388,32 37.088388,32 L 22.160133,31.978069 C 22.160133,31.978069 26.997745,27.140456 26.997745,27.140456 C 18.528582,18.264221 13.291696,25.230495 11.500037,31.436501 z"
             style="fill:#404040;"/>
          </a>
         </g>
        </svg>
</svg>
