<?xml version="1.0" encoding="UTF-8" standalone="no"?>
<!DOCTYPE svg PUBLIC "-//W3C//DTD SVG 1.1//EN"
 "http://www.w3.org/Graphics/SVG/1.1/DTD/svg11.dtd">
<!-- Generated by graphviz version 2.40.1 (0)
 -->
<!-- Title: SW Pages: 1 -->
<svg width="427pt" height="66pt"
 viewBox="0.00 0.00 427.00 66.00" xmlns="http://www.w3.org/2000/svg" xmlns:xlink="http://www.w3.org/1999/xlink">
<g id="graph0" class="graph" transform="scale(1 1) rotate(0) translate(4 62)">
<title>SW</title>
<polygon fill="#ffffff" stroke="transparent" points="-4,4 -4,-62 423,-62 423,4 -4,4"/>
<!-- Node12 -->
<g id="node1" class="node">
<title>Node12</title>
<g id="a_node1"><a xlink:title=" ">
<polygon fill="#bfbfbf" stroke="#000000" points="387,-19.5 387,-38.5 419,-38.5 419,-19.5 387,-19.5"/>
<text text-anchor="middle" x="403" y="-26.5" font-family="Helvetica,sans-Serif" font-size="10.00" fill="#000000">SW</text>
</a>
</g>
</g>
<!-- Node13 -->
<g id="node2" class="node">
<title>Node13</title>
<g id="a_node2"><a xlink:href="../../d9/da3/classSchematicRectConstants.html#aaa5775b990bfd72f1ffdd8f0ebf478e8" target="_top" xlink:title=" ">
<polygon fill="#ffffff" stroke="#000000" points="213,-14 213,-44 351,-44 351,-14 213,-14"/>
<text text-anchor="start" x="221" y="-32" font-family="Helvetica,sans-Serif" font-size="10.00" fill="#000000">SchematicRectConstants</text>
<text text-anchor="middle" x="282" y="-21" font-family="Helvetica,sans-Serif" font-size="10.00" fill="#000000">::genSchematicDIP</text>
</a>
</g>
</g>
<!-- Node12&#45;&gt;Node13 -->
<g id="edge1" class="edge">
<title>Node12&#45;&gt;Node13</title>
<path fill="none" stroke="#191970" d="M376.6014,-29C368.8927,-29 360.0873,-29 351.0213,-29"/>
<polygon fill="#191970" stroke="#191970" points="376.6814,-32.5001 386.6814,-29 376.6814,-25.5001 376.6814,-32.5001"/>
</g>
<!-- Node14 -->
<g id="node3" class="node">
<title>Node14</title>
<g id="a_node3"><a xlink:href="../../dc/dec/classDip.html#af77881d9896c541af8df23b19746e93f" target="_top" xlink:title=" ">
<polygon fill="#ffffff" stroke="#000000" points="21,-38.5 21,-57.5 156,-57.5 156,-38.5 21,-38.5"/>
<text text-anchor="middle" x="88.5" y="-45.5" font-family="Helvetica,sans-Serif" font-size="10.00" fill="#000000">Dip::makeSchematicSvg</text>
</a>
</g>
</g>
<!-- Node13&#45;&gt;Node14 -->
<g id="edge2" class="edge">
<title>Node13&#45;&gt;Node14</title>
<path fill="none" stroke="#191970" d="M202.8905,-36.7679C187.4016,-38.2887 171.2883,-39.8709 156.2119,-41.3513"/>
<polygon fill="#191970" stroke="#191970" points="203.3515,-40.2395 212.9616,-35.779 202.6674,-33.273 203.3515,-40.2395"/>
</g>
<!-- Node15 -->
<g id="node4" class="node">
<title>Node15</title>
<g id="a_node4"><a xlink:href="../../d8/d73/classMysteryPart.html#a6383e2de12132d51e7588e5b64546cf9" target="_top" xlink:title=" ">
<polygon fill="#ffffff" stroke="#000000" points="0,-.5 0,-19.5 177,-19.5 177,-.5 0,-.5"/>
<text text-anchor="middle" x="88.5" y="-7.5" font-family="Helvetica,sans-Serif" font-size="10.00" fill="#000000">MysteryPart::makeSchematicSvg</text>
</a>
</g>
</g>
<!-- Node13&#45;&gt;Node15 -->
<g id="edge3" class="edge">
<title>Node13&#45;&gt;Node15</title>
<path fill="none" stroke="#191970" d="M202.7629,-21.2196C194.312,-20.3898 185.6767,-19.5419 177.1266,-18.7023"/>
<polygon fill="#191970" stroke="#191970" points="202.6674,-24.727 212.9616,-22.221 203.3515,-17.7605 202.6674,-24.727"/>
</g>
</g>
</svg>
