<?xml version="1.0" encoding="UTF-8" standalone="no"?>
<!DOCTYPE svg PUBLIC "-//W3C//DTD SVG 1.1//EN"
 "http://www.w3.org/Graphics/SVG/1.1/DTD/svg11.dtd">
<!-- Generated by graphviz version 2.40.1 (0)
 -->
<!-- Title: PaletteModel::loadedFrom Pages: 1 -->
<!--zoomable 602 -->
<svg id="main" version="1.1" xmlns="http://www.w3.org/2000/svg" xmlns:xlink="http://www.w3.org/1999/xlink" xml:space="preserve" onload="init(evt)">
<style type="text/css"><![CDATA[
.edge:hover path { stroke: red; }
.edge:hover polygon { stroke: red; fill: red; }
]]></style>
<script type="text/javascript"><![CDATA[
var edges = document.getElementsByTagName('g');
if (edges && edges.length) {
  for (var i=0;i<edges.length;i++) {
    if (edges[i].id.substr(0,4)=='edge') {
      edges[i].setAttribute('class','edge');
    }
  }
}
]]></script>
        <defs>
                <circle id="rim" cx="0" cy="0" r="7"/>
                <circle id="rim2" cx="0" cy="0" r="3.5"/>
                <g id="zoomPlus">
                        <use xlink:href="#rim" fill="#404040">
                                <set attributeName="fill" to="#808080" begin="zoomplus.mouseover" end="zoomplus.mouseout"/>
                        </use>
                        <path d="M-4,0h8M0,-4v8" fill="none" stroke="white" stroke-width="1.5" pointer-events="none"/>
                </g>
                <g id="zoomMin">
                        <use xlink:href="#rim" fill="#404040">
                                <set attributeName="fill" to="#808080" begin="zoomminus.mouseover" end="zoomminus.mouseout"/>
                        </use>
                        <path d="M-4,0h8" fill="none" stroke="white" stroke-width="1.5" pointer-events="none"/>
                </g>
                <g id="dirArrow">
                        <path fill="none" stroke="white" stroke-width="1.5" d="M0,-3.0v7 M-2.5,-0.5L0,-3.0L2.5,-0.5"/>
                </g>
               <g id="resetDef">
                       <use xlink:href="#rim2" fill="#404040">
                               <set attributeName="fill" to="#808080" begin="reset.mouseover" end="reset.mouseout"/>
                       </use>
               </g>
        </defs>

<script type="text/javascript">
var viewWidth = 2289;
var viewHeight = 602;
var sectionId = 'dynsection-15';
</script>
<script xlink:href="../../svgpan.js"/>
<svg id="graph" class="graph">
<g id="viewport">
<title>PaletteModel::loadedFrom</title>
<polygon fill="#ffffff" stroke="transparent" points="-4,4 -4,-597.5 2285,-597.5 2285,4 -4,4"/>
<!-- Node150 -->
<g id="node1" class="node">
<title>Node150</title>
<g id="a_node1"><a xlink:title=" ">
<polygon fill="#bfbfbf" stroke="#000000" points="2137,-430 2137,-449 2281,-449 2281,-430 2137,-430"/>
<text text-anchor="middle" x="2209" y="-437" font-family="Helvetica,sans-Serif" font-size="10.00" fill="#000000">PaletteModel::loadedFrom</text>
</a>
</g>
</g>
<!-- Node151 -->
<g id="node2" class="node">
<title>Node151</title>
<g id="a_node2"><a xlink:href="../../de/d4e/classPartsBinPaletteWidget.html#acc1f92e2e0059432f9e49f568f7d0874" target="_top" xlink:title=" ">
<polygon fill="#ffffff" stroke="#000000" points="1815,-446.5 1815,-476.5 1940,-476.5 1940,-446.5 1815,-446.5"/>
<text text-anchor="start" x="1823" y="-464.5" font-family="Helvetica,sans-Serif" font-size="10.00" fill="#000000">PartsBinPaletteWidget</text>
<text text-anchor="middle" x="1877.5" y="-453.5" font-family="Helvetica,sans-Serif" font-size="10.00" fill="#000000">::loadFromModel</text>
</a>
</g>
</g>
<!-- Node150&#45;&gt;Node151 -->
<g id="edge1" class="edge">
<title>Node150&#45;&gt;Node151</title>
<path fill="none" stroke="#191970" d="M2126.4759,-444.9767C2068.7933,-448.8048 1992.9508,-453.8381 1940.1966,-457.3391"/>
<polygon fill="#191970" stroke="#191970" points="2126.9143,-448.4554 2136.6606,-444.3008 2126.4507,-441.4708 2126.9143,-448.4554"/>
</g>
<!-- Node152 -->
<g id="node3" class="node">
<title>Node152</title>
<g id="a_node3"><a xlink:href="../../de/d4e/classPartsBinPaletteWidget.html#a854fcff4278f950c196dcb233b1cecc2" target="_top" xlink:title=" ">
<polygon fill="#ffffff" stroke="#000000" points="1976,-402.5 1976,-432.5 2101,-432.5 2101,-402.5 1976,-402.5"/>
<text text-anchor="start" x="1984" y="-420.5" font-family="Helvetica,sans-Serif" font-size="10.00" fill="#000000">PartsBinPaletteWidget</text>
<text text-anchor="middle" x="2038.5" y="-409.5" font-family="Helvetica,sans-Serif" font-size="10.00" fill="#000000">::afterModelSetted</text>
</a>
</g>
</g>
<!-- Node150&#45;&gt;Node152 -->
<g id="edge2" class="edge">
<title>Node150&#45;&gt;Node152</title>
<path fill="none" stroke="#191970" d="M2126.6777,-428.8778C2118.1133,-427.7727 2109.5094,-426.6625 2101.2124,-425.5919"/>
<polygon fill="#191970" stroke="#191970" points="2126.3269,-432.3614 2136.6927,-430.17 2127.2228,-425.419 2126.3269,-432.3614"/>
</g>
<!-- Node152&#45;&gt;Node151 -->
<g id="edge3" class="edge">
<title>Node152&#45;&gt;Node151</title>
<path fill="none" stroke="#191970" d="M1973.7234,-435.2029C1960.0522,-438.9392 1945.7514,-442.8475 1932.4822,-446.4738"/>
<polygon fill="#191970" stroke="#191970" points="1974.8197,-438.5317 1983.5432,-432.5192 1972.9743,-431.7794 1974.8197,-438.5317"/>
</g>
<!-- Node153 -->
<g id="node4" class="node">
<title>Node153</title>
<g id="a_node4"><a xlink:href="../../de/d4e/classPartsBinPaletteWidget.html#a3150430b41905515ce71026a95ebce21" target="_top" xlink:title=" ">
<polygon fill="#ffffff" stroke="#000000" points="1815,-397.5 1815,-427.5 1940,-427.5 1940,-397.5 1815,-397.5"/>
<text text-anchor="start" x="1823" y="-415.5" font-family="Helvetica,sans-Serif" font-size="10.00" fill="#000000">PartsBinPaletteWidget</text>
<text text-anchor="middle" x="1877.5" y="-404.5" font-family="Helvetica,sans-Serif" font-size="10.00" fill="#000000">::setPaletteModel</text>
</a>
</g>
</g>
<!-- Node152&#45;&gt;Node153 -->
<g id="edge4" class="edge">
<title>Node152&#45;&gt;Node153</title>
<path fill="none" stroke="#191970" d="M1965.7816,-415.2417C1957.1871,-414.9748 1948.4732,-414.7041 1940.0367,-414.4421"/>
<polygon fill="#191970" stroke="#191970" points="1965.6883,-418.7404 1975.7922,-415.5526 1965.9057,-411.7437 1965.6883,-418.7404"/>
</g>
<!-- Node154 -->
<g id="node5" class="node">
<title>Node154</title>
<g id="a_node5"><a xlink:href="../../d3/d50/classBinManager.html#a82f16115763739023e2d56a85bf9d5b5" target="_top" xlink:title=" ">
<polygon fill="#ffffff" stroke="#000000" points="1122,-341 1122,-360 1248,-360 1248,-341 1122,-341"/>
<text text-anchor="middle" x="1185" y="-348" font-family="Helvetica,sans-Serif" font-size="10.00" fill="#000000">BinManager::newBinIn</text>
</a>
</g>
</g>
<!-- Node153&#45;&gt;Node154 -->
<g id="edge5" class="edge">
<title>Node153&#45;&gt;Node154</title>
<path fill="none" stroke="#191970" d="M1804.4795,-405.9624C1668.0134,-393.7445 1376.5084,-367.6459 1248.0334,-356.1434"/>
<polygon fill="#191970" stroke="#191970" points="1804.5516,-409.4828 1814.8239,-406.8886 1805.1758,-402.5107 1804.5516,-409.4828"/>
</g>
<!-- Node157 -->
<g id="node8" class="node">
<title>Node157</title>
<g id="a_node8"><a xlink:href="../../de/d4e/classPartsBinPaletteWidget.html#a124eecfe4b267f5ab8e414be35a0e37c" target="_top" xlink:title=" ">
<polygon fill="#ffffff" stroke="#000000" points="1654,-271.5 1654,-301.5 1779,-301.5 1779,-271.5 1654,-271.5"/>
<text text-anchor="start" x="1662" y="-289.5" font-family="Helvetica,sans-Serif" font-size="10.00" fill="#000000">PartsBinPaletteWidget</text>
<text text-anchor="middle" x="1716.5" y="-278.5" font-family="Helvetica,sans-Serif" font-size="10.00" fill="#000000">::load</text>
</a>
</g>
</g>
<!-- Node153&#45;&gt;Node157 -->
<g id="edge8" class="edge">
<title>Node153&#45;&gt;Node157</title>
<path fill="none" stroke="#191970" d="M1849.9068,-390.9053C1817.4614,-365.5133 1764.4354,-324.0147 1735.9892,-301.7524"/>
<polygon fill="#191970" stroke="#191970" points="1848.0475,-393.8946 1858.0796,-397.3015 1852.3617,-388.3821 1848.0475,-393.8946"/>
</g>
<!-- Node155 -->
<g id="node6" class="node">
<title>Node155</title>
<g id="a_node6"><a xlink:href="../../d3/d50/classBinManager.html#a5c081f39071fd8cfc7b0d76bc7e0bb84" target="_top" xlink:title=" ">
<polygon fill="#ffffff" stroke="#000000" points="686,-306 686,-325 874,-325 874,-306 686,-306"/>
<text text-anchor="middle" x="780" y="-313" font-family="Helvetica,sans-Serif" font-size="10.00" fill="#000000">BinManager::createCombinedMenu</text>
</a>
</g>
</g>
<!-- Node154&#45;&gt;Node155 -->
<g id="edge6" class="edge">
<title>Node154&#45;&gt;Node155</title>
<path fill="none" stroke="#191970" d="M1111.7097,-347.9712C1056.2281,-345.6364 978.1918,-341.4537 910,-334.5 886.2873,-332.082 860.272,-328.4721 837.7851,-325.0463"/>
<polygon fill="#191970" stroke="#191970" points="1111.664,-351.4721 1121.7993,-348.3859 1111.9516,-344.478 1111.664,-351.4721"/>
</g>
<!-- Node156 -->
<g id="node7" class="node">
<title>Node156</title>
<g id="a_node7"><a xlink:href="../../d3/d50/classBinManager.html#a2d5d445330cf9de93768d92ea7ce8d5a" target="_top" xlink:title=" ">
<polygon fill="#ffffff" stroke="#000000" points="489,-173 489,-192 650,-192 650,-173 489,-173"/>
<text text-anchor="middle" x="569.5" y="-180" font-family="Helvetica,sans-Serif" font-size="10.00" fill="#000000">BinManager::initStandardBins</text>
</a>
</g>
</g>
<!-- Node155&#45;&gt;Node156 -->
<g id="edge7" class="edge">
<title>Node155&#45;&gt;Node156</title>
<path fill="none" stroke="#191970" d="M700.1161,-302.7709C695.2307,-300.952 690.4831,-298.874 686,-296.5 635.4832,-269.7495 592.153,-214.236 576.1208,-192.0065"/>
<polygon fill="#191970" stroke="#191970" points="699.0542,-306.1063 709.648,-305.959 701.2747,-299.4677 699.0542,-306.1063"/>
</g>
<!-- Node157&#45;&gt;Node156 -->
<g id="edge9" class="edge">
<title>Node157&#45;&gt;Node156</title>
<path fill="none" stroke="#191970" d="M1707.1846,-261.4826C1693.1378,-227.2115 1663.2674,-166.0978 1618,-132.5 1522.1369,-61.3497 1478.8822,-59.5 1359.5,-59.5 1359.5,-59.5 1359.5,-59.5 991.5,-59.5 852.9543,-59.5 816.5549,-75.1284 686,-121.5 647.4904,-135.1782 605.8764,-159.5516 584.3269,-172.9763"/>
<polygon fill="#191970" stroke="#191970" points="1704.0965,-263.1902 1711.0355,-271.1965 1710.6038,-260.6104 1704.0965,-263.1902"/>
</g>
<!-- Node158 -->
<g id="node9" class="node">
<title>Node158</title>
<g id="a_node9"><a xlink:href="../../d3/d50/classBinManager.html#abb4428a6888d62abb97157f18e5ee60c" target="_top" xlink:title=" ">
<polygon fill="#ffffff" stroke="#000000" points="917,-426 917,-445 1066,-445 1066,-426 917,-426"/>
<text text-anchor="middle" x="991.5" y="-433" font-family="Helvetica,sans-Serif" font-size="10.00" fill="#000000">BinManager::getOrOpenBin</text>
</a>
</g>
</g>
<!-- Node157&#45;&gt;Node158 -->
<g id="edge10" class="edge">
<title>Node157&#45;&gt;Node158</title>
<path fill="none" stroke="#191970" d="M1671.5474,-305.4002C1654.9429,-311.8431 1635.8263,-318.639 1618,-323.5 1396.4355,-383.9178 1334.8112,-370.6619 1109,-412.5 1085.9044,-416.7791 1060.3042,-421.7619 1038.9105,-425.9934"/>
<polygon fill="#191970" stroke="#191970" points="1672.9898,-308.5937 1681.0048,-301.6647 1670.4182,-302.0831 1672.9898,-308.5937"/>
</g>
<!-- Node170 -->
<g id="node21" class="node">
<title>Node170</title>
<g id="a_node21"><a xlink:href="../../d3/d50/classBinManager.html#a3019bdd65722ab76f6bfee3a592c3468" target="_top" xlink:title=" ">
<polygon fill="#ffffff" stroke="#000000" points="910,-527 910,-546 1073,-546 1073,-527 910,-527"/>
<text text-anchor="middle" x="991.5" y="-534" font-family="Helvetica,sans-Serif" font-size="10.00" fill="#000000">BinManager::addPartToBinAux</text>
</a>
</g>
</g>
<!-- Node157&#45;&gt;Node170 -->
<g id="edge22" class="edge">
<title>Node157&#45;&gt;Node170</title>
<path fill="none" stroke="#191970" d="M1690.8525,-308.0342C1671.7865,-323.1225 1644.5797,-342.7863 1618,-355.5 1418.3297,-451.0073 1158.2531,-506.2004 1046.478,-526.9535"/>
<polygon fill="#191970" stroke="#191970" points="1693.1586,-310.6709 1698.7535,-301.6738 1688.7691,-305.2182 1693.1586,-310.6709"/>
</g>
<!-- Node171 -->
<g id="node22" class="node">
<title>Node171</title>
<g id="a_node22"><a xlink:href="../../d3/d50/classBinManager.html#a38979f06eeb31b95279d497505934ca3" target="_top" xlink:title=" ">
<polygon fill="#ffffff" stroke="#000000" points="1109,-120 1109,-139 1261,-139 1261,-120 1109,-120"/>
<text text-anchor="middle" x="1185" y="-127" font-family="Helvetica,sans-Serif" font-size="10.00" fill="#000000">BinManager::openCoreBinIn</text>
</a>
</g>
</g>
<!-- Node157&#45;&gt;Node171 -->
<g id="edge26" class="edge">
<title>Node157&#45;&gt;Node171</title>
<path fill="none" stroke="#191970" d="M1692.8989,-264.3096C1673.7925,-247.1812 1645.6095,-223.7418 1618,-207.5 1536.9036,-159.7933 1514.3273,-145.6168 1422,-127.5 1369.0048,-117.1011 1308.0534,-117.8908 1261.2341,-121.1299"/>
<polygon fill="#191970" stroke="#191970" points="1690.7502,-267.0864 1700.5034,-271.2246 1695.4595,-261.9074 1690.7502,-267.0864"/>
</g>
<!-- Node172 -->
<g id="node23" class="node">
<title>Node172</title>
<g id="a_node23"><a xlink:href="../../d3/d50/classBinManager.html#ab1f93090b054ce73e91b9152d3735766" target="_top" xlink:title=" ">
<polygon fill="#ffffff" stroke="#000000" points="1458,-217 1458,-236 1618,-236 1618,-217 1458,-217"/>
<text text-anchor="middle" x="1538" y="-224" font-family="Helvetica,sans-Serif" font-size="10.00" fill="#000000">BinManager::setAsCurrentBin</text>
</a>
</g>
</g>
<!-- Node157&#45;&gt;Node172 -->
<g id="edge28" class="edge">
<title>Node157&#45;&gt;Node172</title>
<path fill="none" stroke="#191970" d="M1661.8982,-268.1465C1630.3192,-257.5317 1591.8894,-244.6141 1566.2839,-236.0072"/>
<polygon fill="#191970" stroke="#191970" points="1660.8629,-271.4908 1671.4569,-271.3595 1663.0933,-264.8556 1660.8629,-271.4908"/>
</g>
<!-- Node182 -->
<g id="node33" class="node">
<title>Node182</title>
<g id="a_node33"><a xlink:href="../../de/d4e/classPartsBinPaletteWidget.html#a60e9d875c5de2a342920107712433103" target="_top" xlink:title=" ">
<polygon fill="#ffffff" stroke="#000000" points="1475.5,-.5 1475.5,-30.5 1600.5,-30.5 1600.5,-.5 1475.5,-.5"/>
<text text-anchor="start" x="1483.5" y="-18.5" font-family="Helvetica,sans-Serif" font-size="10.00" fill="#000000">PartsBinPaletteWidget</text>
<text text-anchor="middle" x="1538" y="-7.5" font-family="Helvetica,sans-Serif" font-size="10.00" fill="#000000">::loadBundledAux</text>
</a>
</g>
</g>
<!-- Node157&#45;&gt;Node182 -->
<g id="edge48" class="edge">
<title>Node157&#45;&gt;Node182</title>
<path fill="none" stroke="#191970" d="M1713.015,-261.5702C1704.9959,-213.3165 1680.8523,-106.5418 1618,-45.5 1611.7219,-39.4027 1604.0883,-34.5224 1596.0575,-30.622"/>
<polygon fill="#191970" stroke="#191970" points="1709.5603,-262.1323 1714.5676,-271.4692 1716.4758,-261.0476 1709.5603,-262.1323"/>
</g>
<!-- Node183 -->
<g id="node34" class="node">
<title>Node183</title>
<g id="a_node34"><a xlink:href="../../de/d4e/classPartsBinPaletteWidget.html#a639a2fef2288de9d847976da5d3d81c8" target="_top" xlink:title=" ">
<polygon fill="#ffffff" stroke="#000000" points="1297,-316.5 1297,-346.5 1422,-346.5 1422,-316.5 1297,-316.5"/>
<text text-anchor="start" x="1305" y="-334.5" font-family="Helvetica,sans-Serif" font-size="10.00" fill="#000000">PartsBinPaletteWidget</text>
<text text-anchor="middle" x="1359.5" y="-323.5" font-family="Helvetica,sans-Serif" font-size="10.00" fill="#000000">::open</text>
</a>
</g>
</g>
<!-- Node157&#45;&gt;Node183 -->
<g id="edge49" class="edge">
<title>Node157&#45;&gt;Node183</title>
<path fill="none" stroke="#191970" d="M1643.7038,-295.676C1578.4978,-303.8952 1483.8766,-315.8223 1422.0213,-323.6192"/>
<polygon fill="#191970" stroke="#191970" points="1644.4231,-299.1131 1653.9068,-294.3899 1643.5476,-292.1681 1644.4231,-299.1131"/>
</g>
<!-- Node159 -->
<g id="node10" class="node">
<title>Node159</title>
<g id="a_node10"><a xlink:href="../../d3/d50/classBinManager.html#aaccd5835b3682b3e22d9b106f79506e3" target="_top" xlink:title=" ">
<polygon fill="#ffffff" stroke="#000000" points="686,-470 686,-489 874,-489 874,-470 686,-470"/>
<text text-anchor="middle" x="780" y="-477" font-family="Helvetica,sans-Serif" font-size="10.00" fill="#000000">BinManager::getOrOpenMyPartsBin</text>
</a>
</g>
</g>
<!-- Node158&#45;&gt;Node159 -->
<g id="edge11" class="edge">
<title>Node158&#45;&gt;Node159</title>
<path fill="none" stroke="#191970" d="M937.3401,-447.144C917.4328,-451.3921 894.7016,-456.2056 874,-460.5 859.0018,-463.6112 842.6434,-466.9401 827.8395,-469.9284"/>
<polygon fill="#191970" stroke="#191970" points="938.1171,-450.5571 947.1648,-445.0445 936.6542,-443.7117 938.1171,-450.5571"/>
</g>
<!-- Node163 -->
<g id="node14" class="node">
<title>Node163</title>
<g id="a_node14"><a xlink:href="../../d3/d50/classBinManager.html#a9fe34d7451b2841258b3ca0c28e51118" target="_top" xlink:title=" ">
<polygon fill="#ffffff" stroke="#000000" points="689,-432 689,-451 871,-451 871,-432 689,-432"/>
<text text-anchor="middle" x="780" y="-439" font-family="Helvetica,sans-Serif" font-size="10.00" fill="#000000">BinManager::getOrOpenSearchBin</text>
</a>
</g>
</g>
<!-- Node158&#45;&gt;Node163 -->
<g id="edge15" class="edge">
<title>Node158&#45;&gt;Node163</title>
<path fill="none" stroke="#191970" d="M906.7877,-437.9032C895.1216,-438.2341 883.0995,-438.5752 871.3208,-438.9093"/>
<polygon fill="#191970" stroke="#191970" points="907.0363,-441.3976 916.933,-437.6154 906.8377,-434.4005 907.0363,-441.3976"/>
</g>
<!-- Node168 -->
<g id="node19" class="node">
<title>Node168</title>
<g id="a_node19"><a xlink:href="../../d3/d50/classBinManager.html#a1bece8b3f44dfefe2c3824c053ca3c5d" target="_top" xlink:title=" ">
<polygon fill="#ffffff" stroke="#000000" points="692,-508 692,-527 868,-527 868,-508 692,-508"/>
<text text-anchor="middle" x="780" y="-515" font-family="Helvetica,sans-Serif" font-size="10.00" fill="#000000">BinManager::addToTempPartsBin</text>
</a>
</g>
</g>
<!-- Node158&#45;&gt;Node168 -->
<g id="edge20" class="edge">
<title>Node158&#45;&gt;Node168</title>
<path fill="none" stroke="#191970" d="M968.2413,-450.6236C945.195,-464.9571 908.4508,-486.0881 874,-498.5 863.4269,-502.3093 851.8943,-505.4307 840.6432,-507.9621"/>
<polygon fill="#191970" stroke="#191970" points="970.3591,-453.4258 976.9452,-445.1268 966.6213,-447.5072 970.3591,-453.4258"/>
</g>
<!-- Node169 -->
<g id="node20" class="node">
<title>Node169</title>
<g id="a_node20"><a xlink:href="../../d3/d50/classBinManager.html#a1c416320d43308fb1dedfd7373868259" target="_top" xlink:title=" ">
<polygon fill="#ffffff" stroke="#000000" points="708.5,-382.5 708.5,-412.5 851.5,-412.5 851.5,-382.5 708.5,-382.5"/>
<text text-anchor="start" x="716.5" y="-400.5" font-family="Helvetica,sans-Serif" font-size="10.00" fill="#000000">BinManager::importPartTo</text>
<text text-anchor="middle" x="780" y="-389.5" font-family="Helvetica,sans-Serif" font-size="10.00" fill="#000000">MineBin</text>
</a>
</g>
</g>
<!-- Node158&#45;&gt;Node169 -->
<g id="edge21" class="edge">
<title>Node158&#45;&gt;Node169</title>
<path fill="none" stroke="#191970" d="M928.282,-424.1417C904.1159,-419.7998 876.394,-414.819 851.508,-410.3478"/>
<polygon fill="#191970" stroke="#191970" points="927.9413,-427.6364 938.4026,-425.96 929.1792,-420.7467 927.9413,-427.6364"/>
</g>
<!-- Node160 -->
<g id="node11" class="node">
<title>Node160</title>
<g id="a_node11"><a xlink:href="../../d3/d50/classBinManager.html#af6ffd6b423aa7e1a3093e5a855c8cfe0" target="_top" xlink:title=" ">
<polygon fill="#ffffff" stroke="#000000" points="499.5,-470 499.5,-489 639.5,-489 639.5,-470 499.5,-470"/>
<text text-anchor="middle" x="569.5" y="-477" font-family="Helvetica,sans-Serif" font-size="10.00" fill="#000000">BinManager::addNewPart</text>
</a>
</g>
</g>
<!-- Node159&#45;&gt;Node160 -->
<g id="edge12" class="edge">
<title>Node159&#45;&gt;Node160</title>
<path fill="none" stroke="#191970" d="M675.599,-479.5C663.3951,-479.5 651.176,-479.5 639.598,-479.5"/>
<polygon fill="#191970" stroke="#191970" points="675.8323,-483.0001 685.8323,-479.5 675.8323,-476.0001 675.8323,-483.0001"/>
</g>
<!-- Node161 -->
<g id="node12" class="node">
<title>Node161</title>
<g id="a_node12"><a xlink:href="../../d3/d50/classBinManager.html#abf417e9df45dacb191424c9c6e2d9dcd" target="_top" xlink:title=" ">
<polygon fill="#ffffff" stroke="#000000" points="497.5,-574 497.5,-593 641.5,-593 641.5,-574 497.5,-574"/>
<text text-anchor="middle" x="569.5" y="-581" font-family="Helvetica,sans-Serif" font-size="10.00" fill="#000000">BinManager::addPartToBin</text>
</a>
</g>
</g>
<!-- Node159&#45;&gt;Node161 -->
<g id="edge13" class="edge">
<title>Node159&#45;&gt;Node161</title>
<path fill="none" stroke="#191970" d="M694.6218,-493.3523C691.6288,-494.8999 688.7418,-496.6103 686,-498.5 661.3292,-515.5038 673.465,-536.8674 650,-555.5 639.5708,-563.7814 626.5251,-569.7006 613.9917,-573.8951"/>
<polygon fill="#191970" stroke="#191970" points="696.1994,-496.4805 703.879,-489.1815 693.3239,-490.0983 696.1994,-496.4805"/>
</g>
<!-- Node162 -->
<g id="node13" class="node">
<title>Node162</title>
<g id="a_node13"><a xlink:href="../../d3/d50/classBinManager.html#a48fcd52391e11dd8df90437f318a78d0" target="_top" xlink:title=" ">
<polygon fill="#ffffff" stroke="#000000" points="495,-527 495,-546 644,-546 644,-527 495,-527"/>
<text text-anchor="middle" x="569.5" y="-534" font-family="Helvetica,sans-Serif" font-size="10.00" fill="#000000">BinManager::addToMyParts</text>
</a>
</g>
</g>
<!-- Node159&#45;&gt;Node162 -->
<g id="edge14" class="edge">
<title>Node159&#45;&gt;Node162</title>
<path fill="none" stroke="#191970" d="M717.1395,-491.1545C706.6919,-493.392 696.0053,-495.8665 686,-498.5 654.7279,-506.731 619.5206,-518.5842 596.0758,-526.8565"/>
<polygon fill="#191970" stroke="#191970" points="717.9796,-494.5547 727.053,-489.0844 716.5487,-487.7025 717.9796,-494.5547"/>
</g>
<!-- Node164 -->
<g id="node15" class="node">
<title>Node164</title>
<g id="a_node15"><a xlink:href="../../d3/d50/classBinManager.html#a4a19150070924847fa48546117c68860" target="_top" xlink:title=" ">
<polygon fill="#ffffff" stroke="#000000" points="513,-427 513,-446 626,-446 626,-427 513,-427"/>
<text text-anchor="middle" x="569.5" y="-434" font-family="Helvetica,sans-Serif" font-size="10.00" fill="#000000">BinManager::search</text>
</a>
</g>
</g>
<!-- Node163&#45;&gt;Node164 -->
<g id="edge16" class="edge">
<title>Node163&#45;&gt;Node164</title>
<path fill="none" stroke="#191970" d="M678.8516,-439.0974C660.717,-438.6667 642.4198,-438.2321 626.1178,-437.8448"/>
<polygon fill="#191970" stroke="#191970" points="678.8156,-442.5975 688.8959,-439.336 678.9819,-435.5994 678.8156,-442.5975"/>
</g>
<!-- Node165 -->
<g id="node16" class="node">
<title>Node165</title>
<g id="a_node16"><a xlink:href="../../de/d4e/classPartsBinPaletteWidget.html#adfaebf7818593d2210d457572054f04b" target="_top" xlink:title=" ">
<polygon fill="#ffffff" stroke="#000000" points="328,-416.5 328,-446.5 453,-446.5 453,-416.5 328,-416.5"/>
<text text-anchor="start" x="336" y="-434.5" font-family="Helvetica,sans-Serif" font-size="10.00" fill="#000000">PartsBinPaletteWidget</text>
<text text-anchor="middle" x="390.5" y="-423.5" font-family="Helvetica,sans-Serif" font-size="10.00" fill="#000000">::search</text>
</a>
</g>
</g>
<!-- Node164&#45;&gt;Node165 -->
<g id="edge17" class="edge">
<title>Node164&#45;&gt;Node165</title>
<path fill="none" stroke="#191970" d="M502.4517,-434.6271C486.3444,-434.1772 469.1998,-433.6983 453.2941,-433.254"/>
<polygon fill="#191970" stroke="#191970" points="502.7694,-438.1373 512.8633,-434.918 502.9649,-431.14 502.7694,-438.1373"/>
</g>
<!-- Node166 -->
<g id="node17" class="node">
<title>Node166</title>
<g id="a_node17"><a xlink:href="../../de/d4e/classPartsBinPaletteWidget.html#a7f150e3d1e0a41af7ebffbc9aa664941" target="_top" xlink:title=" ">
<polygon fill="#ffffff" stroke="#000000" points="167,-404.5 167,-434.5 292,-434.5 292,-404.5 167,-404.5"/>
<text text-anchor="start" x="175" y="-422.5" font-family="Helvetica,sans-Serif" font-size="10.00" fill="#000000">PartsBinPaletteWidget</text>
<text text-anchor="middle" x="229.5" y="-411.5" font-family="Helvetica,sans-Serif" font-size="10.00" fill="#000000">::setupHeader</text>
</a>
</g>
</g>
<!-- Node165&#45;&gt;Node166 -->
<g id="edge18" class="edge">
<title>Node165&#45;&gt;Node166</title>
<path fill="none" stroke="#191970" d="M317.7816,-426.08C309.1871,-425.4394 300.4732,-424.7899 292.0367,-424.1611"/>
<polygon fill="#191970" stroke="#191970" points="317.5597,-429.5731 327.7922,-426.8261 318.08,-422.5924 317.5597,-429.5731"/>
</g>
<!-- Node167 -->
<g id="node18" class="node">
<title>Node167</title>
<g id="a_node18"><a xlink:href="../../de/d4e/classPartsBinPaletteWidget.html#ae89a19e1aed252826037a32886643cd4" target="_top" xlink:title=" ">
<polygon fill="#ffffff" stroke="#000000" points="0,-381.5 0,-411.5 131,-411.5 131,-381.5 0,-381.5"/>
<text text-anchor="start" x="8" y="-399.5" font-family="Helvetica,sans-Serif" font-size="10.00" fill="#000000">PartsBinPaletteWidget</text>
<text text-anchor="middle" x="65.5" y="-388.5" font-family="Helvetica,sans-Serif" font-size="10.00" fill="#000000">::PartsBinPaletteWidget</text>
</a>
</g>
</g>
<!-- Node166&#45;&gt;Node167 -->
<g id="edge19" class="edge">
<title>Node166&#45;&gt;Node167</title>
<path fill="none" stroke="#191970" d="M156.4255,-409.2517C148.0443,-408.0763 139.5372,-406.8833 131.2601,-405.7225"/>
<polygon fill="#191970" stroke="#191970" points="156.1731,-412.7505 166.5623,-410.6734 157.1454,-405.8184 156.1731,-412.7505"/>
</g>
<!-- Node170&#45;&gt;Node161 -->
<g id="edge23" class="edge">
<title>Node170&#45;&gt;Node161</title>
<path fill="none" stroke="#191970" d="M902.5097,-547.2044C892.8887,-548.3314 883.2412,-549.4487 874,-550.5 794.4858,-559.5454 703.223,-569.3607 641.5067,-575.9144"/>
<polygon fill="#191970" stroke="#191970" points="902.9854,-550.6726 912.5082,-546.0286 902.1678,-543.7205 902.9854,-550.6726"/>
</g>
<!-- Node170&#45;&gt;Node162 -->
<g id="edge24" class="edge">
<title>Node170&#45;&gt;Node162</title>
<path fill="none" stroke="#191970" d="M899.769,-536.5C823.2266,-536.5 715.503,-536.5 644.156,-536.5"/>
<polygon fill="#191970" stroke="#191970" points="899.8841,-540.0001 909.8841,-536.5 899.8841,-533.0001 899.8841,-540.0001"/>
</g>
<!-- Node170&#45;&gt;Node168 -->
<g id="edge25" class="edge">
<title>Node170&#45;&gt;Node168</title>
<path fill="none" stroke="#191970" d="M899.7625,-528.2588C889.2939,-527.3184 878.6388,-526.3612 868.2173,-525.425"/>
<polygon fill="#191970" stroke="#191970" points="899.4555,-531.7452 909.7286,-529.1541 900.0819,-524.7733 899.4555,-531.7452"/>
</g>
<!-- Node171&#45;&gt;Node156 -->
<g id="edge27" class="edge">
<title>Node171&#45;&gt;Node156</title>
<path fill="none" stroke="#191970" d="M1098.5962,-124.6953C998.5007,-120.8323 829.013,-119.5568 686,-144.5 652.4671,-150.3485 615.3425,-163.7302 592.2146,-172.9439"/>
<polygon fill="#191970" stroke="#191970" points="1098.5266,-128.1952 1108.6597,-125.1015 1098.809,-121.2009 1098.5266,-128.1952"/>
</g>
<!-- Node172&#45;&gt;Node171 -->
<g id="edge38" class="edge">
<title>Node172&#45;&gt;Node171</title>
<path fill="none" stroke="#191970" d="M1518.5064,-210.5095C1496.5295,-193.4553 1459.015,-167.1907 1422,-154.5 1370.1425,-136.7204 1308.4764,-130.6483 1261.0471,-128.9275"/>
<polygon fill="#191970" stroke="#191970" points="1516.3872,-213.2958 1526.3995,-216.7608 1520.7333,-207.8084 1516.3872,-213.2958"/>
</g>
<!-- Node173 -->
<g id="node24" class="node">
<title>Node173</title>
<g id="a_node24"><a xlink:href="../../d3/d50/classBinManager.html#a5de5d6a2d1532dcad6c87fda0b8e8ea4" target="_top" xlink:title=" ">
<polygon fill="#ffffff" stroke="#000000" points="1302,-164 1302,-183 1417,-183 1417,-164 1302,-164"/>
<text text-anchor="middle" x="1359.5" y="-171" font-family="Helvetica,sans-Serif" font-size="10.00" fill="#000000">BinManager::addBin</text>
</a>
</g>
</g>
<!-- Node172&#45;&gt;Node173 -->
<g id="edge29" class="edge">
<title>Node172&#45;&gt;Node173</title>
<path fill="none" stroke="#191970" d="M1495.7394,-213.952C1463.8258,-204.4763 1420.6986,-191.671 1391.5845,-183.0265"/>
<polygon fill="#191970" stroke="#191970" points="1495.0924,-217.4109 1505.675,-216.9021 1497.0849,-210.7004 1495.0924,-217.4109"/>
</g>
<!-- Node174 -->
<g id="node25" class="node">
<title>Node174</title>
<g id="a_node25"><a xlink:href="../../d3/d50/classBinManager.html#afc14f415cc0d760eddd342cdea779f5d" target="_top" xlink:title=" ">
<polygon fill="#ffffff" stroke="#000000" points="1120,-303 1120,-322 1250,-322 1250,-303 1120,-303"/>
<text text-anchor="middle" x="1185" y="-310" font-family="Helvetica,sans-Serif" font-size="10.00" fill="#000000">BinManager::openBinIn</text>
</a>
</g>
</g>
<!-- Node172&#45;&gt;Node174 -->
<g id="edge30" class="edge">
<title>Node172&#45;&gt;Node174</title>
<path fill="none" stroke="#191970" d="M1505.5224,-239.8805C1482.5152,-248.9569 1450.7543,-260.6819 1422,-268.5 1364.6563,-284.0913 1298.0086,-295.9239 1250.0218,-303.3704"/>
<polygon fill="#191970" stroke="#191970" points="1506.8227,-243.1301 1514.8124,-236.1719 1504.2274,-236.6289 1506.8227,-243.1301"/>
</g>
<!-- Node179 -->
<g id="node30" class="node">
<title>Node179</title>
<g id="a_node30"><a xlink:href="../../d3/d50/classBinManager.html#a769816f8c3555b53873e778b98d1ca0a" target="_top" xlink:title=" ">
<polygon fill="#ffffff" stroke="#000000" points="1301,-240 1301,-259 1418,-259 1418,-240 1301,-240"/>
<text text-anchor="middle" x="1359.5" y="-247" font-family="Helvetica,sans-Serif" font-size="10.00" fill="#000000">BinManager::newBin</text>
</a>
</g>
</g>
<!-- Node172&#45;&gt;Node179 -->
<g id="edge39" class="edge">
<title>Node172&#45;&gt;Node179</title>
<path fill="none" stroke="#191970" d="M1453.9682,-237.3276C1441.8364,-238.8908 1429.5757,-240.4706 1418.0866,-241.951"/>
<polygon fill="#191970" stroke="#191970" points="1454.638,-240.7703 1464.1087,-236.021 1453.7434,-233.8277 1454.638,-240.7703"/>
</g>
<!-- Node180 -->
<g id="node31" class="node">
<title>Node180</title>
<g id="a_node31"><a xlink:href="../../d3/d50/classBinManager.html#ac4a40bc221fbfffbe02a38600f57763a" target="_top" xlink:title=" ">
<polygon fill="#ffffff" stroke="#000000" points="912.5,-192 912.5,-211 1070.5,-211 1070.5,-192 912.5,-192"/>
<text text-anchor="middle" x="991.5" y="-199" font-family="Helvetica,sans-Serif" font-size="10.00" fill="#000000">BinManager::currentChanged</text>
</a>
</g>
</g>
<!-- Node172&#45;&gt;Node180 -->
<g id="edge44" class="edge">
<title>Node172&#45;&gt;Node180</title>
<path fill="none" stroke="#191970" d="M1447.6848,-222.3685C1342.6686,-217.5644 1170.979,-209.7104 1070.8768,-205.1311"/>
<polygon fill="#191970" stroke="#191970" points="1447.7994,-225.8773 1457.9489,-222.838 1448.1194,-218.8846 1447.7994,-225.8773"/>
</g>
<!-- Node174&#45;&gt;Node158 -->
<g id="edge31" class="edge">
<title>Node174&#45;&gt;Node158</title>
<path fill="none" stroke="#191970" d="M1121.5609,-325.5169C1117.2012,-327.2688 1112.9685,-329.2531 1109,-331.5 1089.3096,-342.6485 1089.704,-352.2364 1073,-367.5 1049.1938,-389.2534 1019.8501,-413.0422 1003.6644,-425.9183"/>
<polygon fill="#191970" stroke="#191970" points="1123.0228,-328.711 1131.2546,-322.0412 1120.6601,-322.1218 1123.0228,-328.711"/>
</g>
<!-- Node175 -->
<g id="node26" class="node">
<title>Node175</title>
<g id="a_node26"><a xlink:href="../../d3/d50/classBinManager.html#a32006d8b928a03103babf268a2ec782c" target="_top" xlink:title=" ">
<polygon fill="#ffffff" stroke="#000000" points="931,-268 931,-287 1052,-287 1052,-268 931,-268"/>
<text text-anchor="middle" x="991.5" y="-275" font-family="Helvetica,sans-Serif" font-size="10.00" fill="#000000">BinManager::openBin</text>
</a>
</g>
</g>
<!-- Node174&#45;&gt;Node175 -->
<g id="edge32" class="edge">
<title>Node174&#45;&gt;Node175</title>
<path fill="none" stroke="#191970" d="M1122.513,-301.1974C1097.2083,-296.6204 1068.3127,-291.3938 1044.1087,-287.0158"/>
<polygon fill="#191970" stroke="#191970" points="1121.9175,-304.6465 1132.3809,-302.9823 1123.1635,-297.7582 1121.9175,-304.6465"/>
</g>
<!-- Node177 -->
<g id="node28" class="node">
<title>Node177</title>
<g id="a_node28"><a xlink:href="../../d3/d50/classBinManager.html#a2d9ef85a41aecb6bacd17b19289f4d3b" target="_top" xlink:title=" ">
<polygon fill="#ffffff" stroke="#000000" points="927,-306 927,-325 1056,-325 1056,-306 927,-306"/>
<text text-anchor="middle" x="991.5" y="-313" font-family="Helvetica,sans-Serif" font-size="10.00" fill="#000000">BinManager::mainLoad</text>
</a>
</g>
</g>
<!-- Node174&#45;&gt;Node177 -->
<g id="edge34" class="edge">
<title>Node174&#45;&gt;Node177</title>
<path fill="none" stroke="#191970" d="M1109.5088,-313.6704C1091.8721,-313.9438 1073.244,-314.2327 1056.1287,-314.498"/>
<polygon fill="#191970" stroke="#191970" points="1109.815,-317.1662 1119.7595,-313.5115 1109.7064,-310.167 1109.815,-317.1662"/>
</g>
<!-- Node178 -->
<g id="node29" class="node">
<title>Node178</title>
<g id="a_node29"><a xlink:href="../../de/d4e/classPartsBinPaletteWidget.html#af30433fbe82fe3d9ae373b082ceb7761" target="_top" xlink:title=" ">
<polygon fill="#ffffff" stroke="#000000" points="328,-357.5 328,-387.5 453,-387.5 453,-357.5 328,-357.5"/>
<text text-anchor="start" x="336" y="-375.5" font-family="Helvetica,sans-Serif" font-size="10.00" fill="#000000">PartsBinPaletteWidget</text>
<text text-anchor="middle" x="390.5" y="-364.5" font-family="Helvetica,sans-Serif" font-size="10.00" fill="#000000">::addSketchPartToMe</text>
</a>
</g>
</g>
<!-- Node174&#45;&gt;Node178 -->
<g id="edge36" class="edge">
<title>Node174&#45;&gt;Node178</title>
<path fill="none" stroke="#191970" d="M1133.7872,-324.1066C1114.7886,-328.0028 1092.9999,-331.9912 1073,-334.5 846.0363,-362.9707 573.9367,-370.1108 453.3359,-371.9011"/>
<polygon fill="#191970" stroke="#191970" points="1134.6632,-327.4992 1143.7337,-322.024 1133.2286,-320.6477 1134.6632,-327.4992"/>
</g>
<!-- Node176 -->
<g id="node27" class="node">
<title>Node176</title>
<g id="a_node27"><a xlink:href="../../d3/d50/classBinManager.html#a5fa7574872d2c3c36154f10cfdb2cda2" target="_top" xlink:title=" ">
<polygon fill="#ffffff" stroke="#000000" points="729,-268 729,-287 831,-287 831,-268 729,-268"/>
<text text-anchor="middle" x="780" y="-275" font-family="Helvetica,sans-Serif" font-size="10.00" fill="#000000">BinManager::load</text>
</a>
</g>
</g>
<!-- Node175&#45;&gt;Node176 -->
<g id="edge33" class="edge">
<title>Node175&#45;&gt;Node176</title>
<path fill="none" stroke="#191970" d="M920.7257,-277.5C891.4589,-277.5 858.1645,-277.5 831.31,-277.5"/>
<polygon fill="#191970" stroke="#191970" points="920.8926,-281.0001 930.8926,-277.5 920.8926,-274.0001 920.8926,-281.0001"/>
</g>
<!-- Node177&#45;&gt;Node155 -->
<g id="edge35" class="edge">
<title>Node177&#45;&gt;Node155</title>
<path fill="none" stroke="#191970" d="M916.5699,-315.5C902.8536,-315.5 888.3794,-315.5 874.1864,-315.5"/>
<polygon fill="#191970" stroke="#191970" points="916.8938,-319.0001 926.8938,-315.5 916.8938,-312.0001 916.8938,-319.0001"/>
</g>
<!-- Node178&#45;&gt;Node167 -->
<g id="edge37" class="edge">
<title>Node178&#45;&gt;Node167</title>
<path fill="none" stroke="#191970" d="M317.6381,-377.8806C261.6785,-382.013 185.0787,-387.6696 131.0364,-391.6604"/>
<polygon fill="#191970" stroke="#191970" points="318.1217,-381.3545 327.8367,-377.1274 317.6061,-374.3735 318.1217,-381.3545"/>
</g>
<!-- Node179&#45;&gt;Node154 -->
<g id="edge41" class="edge">
<title>Node179&#45;&gt;Node154</title>
<path fill="none" stroke="#191970" d="M1341.5025,-266.1669C1318.1647,-287.4742 1278.3944,-322.6728 1261,-331.5 1253.3592,-335.3775 1244.8764,-338.4972 1236.4288,-340.9973"/>
<polygon fill="#191970" stroke="#191970" points="1344.0093,-268.6168 1349.0085,-259.2756 1339.2751,-263.4604 1344.0093,-268.6168"/>
</g>
<!-- Node179&#45;&gt;Node156 -->
<g id="edge40" class="edge">
<title>Node179&#45;&gt;Node156</title>
<path fill="none" stroke="#191970" d="M1290.3333,-248.2603C1167.9546,-245.3606 905.4632,-235.9653 686,-206.5 660.1095,-203.0239 631.3597,-197.123 608.8983,-192.0424"/>
<polygon fill="#191970" stroke="#191970" points="1290.5944,-251.7672 1300.6721,-248.4977 1290.7551,-244.769 1290.5944,-251.7672"/>
</g>
<!-- Node179&#45;&gt;Node171 -->
<g id="edge43" class="edge">
<title>Node179&#45;&gt;Node171</title>
<path fill="none" stroke="#191970" d="M1337.0173,-234.0391C1300.472,-208.9077 1229.2332,-159.9183 1199.0517,-139.1631"/>
<polygon fill="#191970" stroke="#191970" points="1335.2919,-237.1003 1345.5149,-239.8827 1339.2584,-231.3325 1335.2919,-237.1003"/>
</g>
<!-- Node179&#45;&gt;Node174 -->
<g id="edge42" class="edge">
<title>Node179&#45;&gt;Node174</title>
<path fill="none" stroke="#191970" d="M1323.1806,-262.6124C1289.8496,-274.646 1241.2599,-292.1884 1211.4658,-302.945"/>
<polygon fill="#191970" stroke="#191970" points="1324.78,-265.7562 1332.9972,-259.0683 1322.4029,-259.1722 1324.78,-265.7562"/>
</g>
<!-- Node180&#45;&gt;Node156 -->
<g id="edge45" class="edge">
<title>Node180&#45;&gt;Node156</title>
<path fill="none" stroke="#191970" d="M901.8217,-197.4624C827.3178,-194.1079 722.2477,-189.3773 650.3139,-186.1385"/>
<polygon fill="#191970" stroke="#191970" points="901.9777,-200.9728 912.125,-197.9262 902.2926,-193.9799 901.9777,-200.9728"/>
</g>
<!-- Node181 -->
<g id="node32" class="node">
<title>Node181</title>
<g id="a_node32"><a xlink:href="../../d3/d50/classBinManager.html#aaeb2ef7a4866cf66d08ca116436b0f41" target="_top" xlink:title=" ">
<polygon fill="#ffffff" stroke="#000000" points="695,-154 695,-173 865,-173 865,-154 695,-154"/>
<text text-anchor="middle" x="780" y="-161" font-family="Helvetica,sans-Serif" font-size="10.00" fill="#000000">BinManager::connectTabWidget</text>
</a>
</g>
</g>
<!-- Node180&#45;&gt;Node181 -->
<g id="edge46" class="edge">
<title>Node180&#45;&gt;Node181</title>
<path fill="none" stroke="#191970" d="M928.3453,-190.153C897.9999,-184.7009 862.0361,-178.2393 833.1192,-173.0439"/>
<polygon fill="#191970" stroke="#191970" points="927.9413,-193.6364 938.4026,-191.96 929.1792,-186.7467 927.9413,-193.6364"/>
</g>
<!-- Node181&#45;&gt;Node156 -->
<g id="edge47" class="edge">
<title>Node181&#45;&gt;Node156</title>
<path fill="none" stroke="#191970" d="M684.8347,-172.0897C673.2158,-173.1385 661.4313,-174.2022 650.0549,-175.229"/>
<polygon fill="#191970" stroke="#191970" points="685.3435,-175.5581 694.9884,-171.1733 684.7142,-168.5865 685.3435,-175.5581"/>
</g>
<!-- Node183&#45;&gt;Node174 -->
<g id="edge50" class="edge">
<title>Node183&#45;&gt;Node174</title>
<path fill="none" stroke="#191970" d="M1286.8465,-323.5893C1274.6297,-322.2591 1262.0199,-320.8861 1250.0122,-319.5787"/>
<polygon fill="#191970" stroke="#191970" points="1286.6743,-327.0912 1296.9944,-324.6942 1287.432,-320.1323 1286.6743,-327.0912"/>
</g>
</g>
</svg>
        <g id="navigator" transform="translate(0 0)" fill="#404254">
                <rect fill="#f2f5e9" fill-opacity="0.5" stroke="#606060" stroke-width=".5" x="0" y="0" width="60" height="60"/>
                <use id="zoomplus" xlink:href="#zoomPlus" x="17" y="9" onmousedown="handleZoom(evt,'in')"/>
                <use id="zoomminus" xlink:href="#zoomMin" x="42" y="9" onmousedown="handleZoom(evt,'out')"/>
                <use id="reset" xlink:href="#resetDef" x="30" y="36" onmousedown="handleReset()"/>
                <g id="arrowUp" xlink:href="#dirArrow" transform="translate(30 24)" onmousedown="handlePan(0,-1)">
                  <use xlink:href="#rim" fill="#404040">
                        <set attributeName="fill" to="#808080" begin="arrowUp.mouseover" end="arrowUp.mouseout"/>
                  </use>
                  <path fill="none" stroke="white" stroke-width="1.5" d="M0,-3.0v7 M-2.5,-0.5L0,-3.0L2.5,-0.5"/>
                </g>
                <g id="arrowRight" xlink:href="#dirArrow" transform="rotate(90) translate(36 -43)" onmousedown="handlePan(1,0)">
                  <use xlink:href="#rim" fill="#404040">
                        <set attributeName="fill" to="#808080" begin="arrowRight.mouseover" end="arrowRight.mouseout"/>
                  </use>
                  <path fill="none" stroke="white" stroke-width="1.5" d="M0,-3.0v7 M-2.5,-0.5L0,-3.0L2.5,-0.5"/>
                </g>
                <g id="arrowDown" xlink:href="#dirArrow" transform="rotate(180) translate(-30 -48)" onmousedown="handlePan(0,1)">
                  <use xlink:href="#rim" fill="#404040">
                        <set attributeName="fill" to="#808080" begin="arrowDown.mouseover" end="arrowDown.mouseout"/>
                  </use>
                  <path fill="none" stroke="white" stroke-width="1.5" d="M0,-3.0v7 M-2.5,-0.5L0,-3.0L2.5,-0.5"/>
                </g>
                <g id="arrowLeft" xlink:href="#dirArrow" transform="rotate(270) translate(-36 17)" onmousedown="handlePan(-1,0)">
                  <use xlink:href="#rim" fill="#404040">
                        <set attributeName="fill" to="#808080" begin="arrowLeft.mouseover" end="arrowLeft.mouseout"/>
                  </use>
                  <path fill="none" stroke="white" stroke-width="1.5" d="M0,-3.0v7 M-2.5,-0.5L0,-3.0L2.5,-0.5"/>
                </g>
        </g>
        <svg viewBox="0 0 15 15" width="100%" height="30px" preserveAspectRatio="xMaxYMin meet">
         <g id="arrow_out" transform="scale(0.3 0.3)">
          <a xlink:href="classPaletteModel_a5d53a298788ba979a2b50c59f4ae26f4_icgraph_org.svg" target="_base">
           <rect id="button" ry="5" rx="5" y="6" x="6" height="38" width="38"
                fill="#f2f5e9" fill-opacity="0.5" stroke="#606060" stroke-width="1.0"/>
           <path id="arrow"
             d="M 11.500037,31.436501 C 11.940474,20.09759 22.043105,11.32322 32.158766,21.979434 L 37.068811,17.246167 C 37.068811,17.246167 37.088388,32 37.088388,32 L 22.160133,31.978069 C 22.160133,31.978069 26.997745,27.140456 26.997745,27.140456 C 18.528582,18.264221 13.291696,25.230495 11.500037,31.436501 z"
             style="fill:#404040;"/>
          </a>
         </g>
        </svg>
</svg>
