<?xml version="1.0" encoding="UTF-8" standalone="no"?>
<!DOCTYPE svg PUBLIC "-//W3C//DTD SVG 1.1//EN"
 "http://www.w3.org/Graphics/SVG/1.1/DTD/svg11.dtd">
<!-- Generated by graphviz version 2.40.1 (0)
 -->
<!-- Title: PEMainWindow::makeNewVariant Pages: 1 -->
<svg width="480pt" height="66pt"
 viewBox="0.00 0.00 480.00 66.00" xmlns="http://www.w3.org/2000/svg" xmlns:xlink="http://www.w3.org/1999/xlink">
<g id="graph0" class="graph" transform="scale(1 1) rotate(0) translate(4 62)">
<title>PEMainWindow::makeNewVariant</title>
<polygon fill="#ffffff" stroke="transparent" points="-4,4 -4,-62 476,-62 476,4 -4,4"/>
<!-- Node6736 -->
<g id="node1" class="node">
<title>Node6736</title>
<g id="a_node1"><a xlink:title=" ">
<polygon fill="#bfbfbf" stroke="#000000" points="0,-19.5 0,-38.5 180,-38.5 180,-19.5 0,-19.5"/>
<text text-anchor="middle" x="90" y="-26.5" font-family="Helvetica,sans-Serif" font-size="10.00" fill="#000000">PEMainWindow::makeNewVariant</text>
</a>
</g>
</g>
<!-- Node6737 -->
<g id="node2" class="node">
<title>Node6737</title>
<g id="a_node2"><a xlink:href="../../d4/d4f/classItemBase.html#a2f0bd0e76df9bbdaa080933ebcc64cac" target="_top" xlink:title=" ">
<polygon fill="#ffffff" stroke="#000000" points="216,-19.5 216,-38.5 317,-38.5 317,-19.5 216,-19.5"/>
<text text-anchor="middle" x="266.5" y="-26.5" font-family="Helvetica,sans-Serif" font-size="10.00" fill="#000000">ItemBase::family</text>
</a>
</g>
</g>
<!-- Node6736&#45;&gt;Node6737 -->
<g id="edge1" class="edge">
<title>Node6736&#45;&gt;Node6737</title>
<path fill="none" stroke="#191970" d="M180.0597,-29C188.6647,-29 197.2467,-29 205.4784,-29"/>
<polygon fill="#191970" stroke="#191970" points="205.6931,-32.5001 215.6931,-29 205.693,-25.5001 205.6931,-32.5001"/>
</g>
<!-- Node6738 -->
<g id="node3" class="node">
<title>Node6738</title>
<g id="a_node3"><a xlink:href="../../d4/d72/classModelPart.html#a21ecb2edba2b75d35f9c00636f1c3d30" target="_top" xlink:title=" ">
<polygon fill="#ffffff" stroke="#000000" points="361,-38.5 361,-57.5 464,-57.5 464,-38.5 361,-38.5"/>
<text text-anchor="middle" x="412.5" y="-45.5" font-family="Helvetica,sans-Serif" font-size="10.00" fill="#000000">ModelPart::family</text>
</a>
</g>
</g>
<!-- Node6737&#45;&gt;Node6738 -->
<g id="edge2" class="edge">
<title>Node6737&#45;&gt;Node6738</title>
<path fill="none" stroke="#191970" d="M317.154,-35.592C327.9997,-37.0034 339.5738,-38.5096 350.7841,-39.9685"/>
<polygon fill="#191970" stroke="#191970" points="350.5775,-43.471 360.9456,-41.2909 351.4809,-36.5296 350.5775,-43.471"/>
</g>
<!-- Node6739 -->
<g id="node4" class="node">
<title>Node6739</title>
<g id="a_node4"><a xlink:href="../../d4/d4f/classItemBase.html#acc2f5bad42928e7178c28fa0771b1f60" target="_top" xlink:title=" ">
<polygon fill="#ffffff" stroke="#000000" points="353,-.5 353,-19.5 472,-19.5 472,-.5 353,-.5"/>
<text text-anchor="middle" x="412.5" y="-7.5" font-family="Helvetica,sans-Serif" font-size="10.00" fill="#000000">ItemBase::modelPart</text>
</a>
</g>
</g>
<!-- Node6737&#45;&gt;Node6739 -->
<g id="edge3" class="edge">
<title>Node6737&#45;&gt;Node6739</title>
<path fill="none" stroke="#191970" d="M317.154,-22.408C325.4414,-21.3295 334.1542,-20.1957 342.8049,-19.0699"/>
<polygon fill="#191970" stroke="#191970" points="343.4377,-22.5172 352.9023,-17.7559 342.5343,-15.5757 343.4377,-22.5172"/>
</g>
</g>
</svg>
