<?xml version="1.0" encoding="UTF-8" standalone="no"?>
<!DOCTYPE svg PUBLIC "-//W3C//DTD SVG 1.1//EN"
 "http://www.w3.org/Graphics/SVG/1.1/DTD/svg11.dtd">
<!-- Generated by graphviz version 2.40.1 (0)
 -->
<!-- Title: PEMainWindow::connectorMetadataChanged Pages: 1 -->
<svg width="398pt" height="78pt"
 viewBox="0.00 0.00 398.00 77.50" xmlns="http://www.w3.org/2000/svg" xmlns:xlink="http://www.w3.org/1999/xlink">
<g id="graph0" class="graph" transform="scale(1 1) rotate(0) translate(4 73.5)">
<title>PEMainWindow::connectorMetadataChanged</title>
<polygon fill="#ffffff" stroke="transparent" points="-4,4 -4,-73.5 394,-73.5 394,4 -4,4"/>
<!-- Node1647 -->
<g id="node1" class="node">
<title>Node1647</title>
<g id="a_node1"><a xlink:title=" ">
<polygon fill="#bfbfbf" stroke="#000000" points="199,-17 199,-47 390,-47 390,-17 199,-17"/>
<text text-anchor="start" x="207" y="-35" font-family="Helvetica,sans-Serif" font-size="10.00" fill="#000000">PEMainWindow::connectorMetadata</text>
<text text-anchor="middle" x="294.5" y="-24" font-family="Helvetica,sans-Serif" font-size="10.00" fill="#000000">Changed</text>
</a>
</g>
</g>
<!-- Node1648 -->
<g id="node2" class="node">
<title>Node1648</title>
<g id="a_node2"><a xlink:href="../../d6/d9a/classPEMainWindow.html#a5ebd7ccee0f82dfa5a6972ec477180f9" target="_top" xlink:title=" ">
<polygon fill="#ffffff" stroke="#000000" points="9,-39 9,-69 154,-69 154,-39 9,-39"/>
<text text-anchor="start" x="17" y="-57" font-family="Helvetica,sans-Serif" font-size="10.00" fill="#000000">PEMainWindow::initSketch</text>
<text text-anchor="middle" x="81.5" y="-46" font-family="Helvetica,sans-Serif" font-size="10.00" fill="#000000">Widgets</text>
</a>
</g>
</g>
<!-- Node1647&#45;&gt;Node1648 -->
<g id="edge1" class="edge">
<title>Node1647&#45;&gt;Node1648</title>
<path fill="none" stroke="#191970" d="M188.6493,-42.9329C176.9618,-44.1401 165.2638,-45.3483 154.1184,-46.4995"/>
<polygon fill="#191970" stroke="#191970" points="189.3159,-46.3828 198.9034,-41.8738 188.5967,-39.4198 189.3159,-46.3828"/>
</g>
<!-- Node1649 -->
<g id="node3" class="node">
<title>Node1649</title>
<g id="a_node3"><a xlink:href="../../d6/d9a/classPEMainWindow.html#a63e3a7118f6a821ebca964585a38cefc" target="_top" xlink:title=" ">
<polygon fill="#ffffff" stroke="#000000" points="0,-.5 0,-19.5 163,-19.5 163,-.5 0,-.5"/>
<text text-anchor="middle" x="81.5" y="-7.5" font-family="Helvetica,sans-Serif" font-size="10.00" fill="#000000">PEMainWindow::moreInitDock</text>
</a>
</g>
</g>
<!-- Node1647&#45;&gt;Node1649 -->
<g id="edge2" class="edge">
<title>Node1647&#45;&gt;Node1649</title>
<path fill="none" stroke="#191970" d="M188.7952,-21.0821C180.1702,-20.1913 171.5383,-19.2997 163.1257,-18.4308"/>
<polygon fill="#191970" stroke="#191970" points="188.5967,-24.5802 198.9034,-22.1262 189.3159,-17.6172 188.5967,-24.5802"/>
</g>
</g>
</svg>
