<?xml version="1.0" encoding="UTF-8" standalone="no"?>
<!DOCTYPE svg PUBLIC "-//W3C//DTD SVG 1.1//EN"
 "http://www.w3.org/Graphics/SVG/1.1/DTD/svg11.dtd">
<!-- Generated by graphviz version 2.40.1 (0)
 -->
<!-- Title: PEMainWindow::setConnectorSMD Pages: 1 -->
<svg width="374pt" height="116pt"
 viewBox="0.00 0.00 374.00 116.00" xmlns="http://www.w3.org/2000/svg" xmlns:xlink="http://www.w3.org/1999/xlink">
<g id="graph0" class="graph" transform="scale(1 1) rotate(0) translate(4 112)">
<title>PEMainWindow::setConnectorSMD</title>
<polygon fill="#ffffff" stroke="transparent" points="-4,4 -4,-112 370,-112 370,4 -4,4"/>
<!-- Node9352 -->
<g id="node1" class="node">
<title>Node9352</title>
<g id="a_node1"><a xlink:title=" ">
<polygon fill="#bfbfbf" stroke="#000000" points="0,-44.5 0,-63.5 184,-63.5 184,-44.5 0,-44.5"/>
<text text-anchor="middle" x="92" y="-51.5" font-family="Helvetica,sans-Serif" font-size="10.00" fill="#000000">PEMainWindow::setConnectorSMD</text>
</a>
</g>
</g>
<!-- Node9353 -->
<g id="node2" class="node">
<title>Node9353</title>
<g id="a_node2"><a xlink:href="../../da/d3a/classDebugDialog.html#ad26216d18945d7d7188420707b76f241" target="_top" xlink:title=" ">
<polygon fill="#ffffff" stroke="#000000" points="235,-88.5 235,-107.5 351,-107.5 351,-88.5 235,-88.5"/>
<text text-anchor="middle" x="293" y="-95.5" font-family="Helvetica,sans-Serif" font-size="10.00" fill="#000000">DebugDialog::debug</text>
</a>
</g>
</g>
<!-- Node9352&#45;&gt;Node9353 -->
<g id="edge1" class="edge">
<title>Node9352&#45;&gt;Node9353</title>
<path fill="none" stroke="#191970" d="M135.614,-63.5473C166.1677,-70.2357 207.1808,-79.2137 239.6796,-86.3279"/>
<polygon fill="#191970" stroke="#191970" points="238.954,-89.7518 249.4711,-88.4713 240.4509,-82.9138 238.954,-89.7518"/>
</g>
<!-- Node9354 -->
<g id="node3" class="node">
<title>Node9354</title>
<g id="a_node3"><a xlink:href="../../de/db8/classTextUtils.html#a9c93bbc63a055b95d8f991efc2a58caa" target="_top" xlink:title=" ">
<polygon fill="#ffffff" stroke="#000000" points="220,-39 220,-69 366,-69 366,-39 220,-39"/>
<text text-anchor="start" x="228" y="-57" font-family="Helvetica,sans-Serif" font-size="10.00" fill="#000000">TextUtils::findElementWith</text>
<text text-anchor="middle" x="293" y="-46" font-family="Helvetica,sans-Serif" font-size="10.00" fill="#000000">Attribute</text>
</a>
</g>
</g>
<!-- Node9352&#45;&gt;Node9354 -->
<g id="edge2" class="edge">
<title>Node9352&#45;&gt;Node9354</title>
<path fill="none" stroke="#191970" d="M184.2641,-54C192.775,-54 201.3653,-54 209.7885,-54"/>
<polygon fill="#191970" stroke="#191970" points="209.9636,-57.5001 219.9636,-54 209.9635,-50.5001 209.9636,-57.5001"/>
</g>
<!-- Node9355 -->
<g id="node4" class="node">
<title>Node9355</title>
<g id="a_node4"><a xlink:href="../../d6/d1a/classMainWindow.html#a5f17b471d6e5dd73d5a51b120a71fffb" target="_top" xlink:title=" ">
<polygon fill="#ffffff" stroke="#000000" points="230,-.5 230,-19.5 356,-19.5 356,-.5 230,-.5"/>
<text text-anchor="middle" x="293" y="-7.5" font-family="Helvetica,sans-Serif" font-size="10.00" fill="#000000">MainWindow::pcbView</text>
</a>
</g>
</g>
<!-- Node9352&#45;&gt;Node9355 -->
<g id="edge3" class="edge">
<title>Node9352&#45;&gt;Node9355</title>
<path fill="none" stroke="#191970" d="M135.614,-44.4527C166.1677,-37.7643 207.1808,-28.7863 239.6796,-21.6721"/>
<polygon fill="#191970" stroke="#191970" points="240.4509,-25.0862 249.4711,-19.5287 238.954,-18.2482 240.4509,-25.0862"/>
</g>
</g>
</svg>
