<?xml version="1.0" encoding="UTF-8" standalone="no"?>
<!DOCTYPE svg PUBLIC "-//W3C//DTD SVG 1.1//EN"
 "http://www.w3.org/Graphics/SVG/1.1/DTD/svg11.dtd">
<!-- Generated by graphviz version 2.40.1 (0)
 -->
<!-- Title: PEMainWindow::writeXml Pages: 1 -->
<svg width="387pt" height="66pt"
 viewBox="0.00 0.00 387.00 66.00" xmlns="http://www.w3.org/2000/svg" xmlns:xlink="http://www.w3.org/1999/xlink">
<g id="graph0" class="graph" transform="scale(1 1) rotate(0) translate(4 62)">
<title>PEMainWindow::writeXml</title>
<polygon fill="#ffffff" stroke="transparent" points="-4,4 -4,-62 383,-62 383,4 -4,4"/>
<!-- Node10535 -->
<g id="node1" class="node">
<title>Node10535</title>
<g id="a_node1"><a xlink:title=" ">
<polygon fill="#bfbfbf" stroke="#000000" points="0,-19.5 0,-38.5 141,-38.5 141,-19.5 0,-19.5"/>
<text text-anchor="middle" x="70.5" y="-26.5" font-family="Helvetica,sans-Serif" font-size="10.00" fill="#000000">PEMainWindow::writeXml</text>
</a>
</g>
</g>
<!-- Node10536 -->
<g id="node2" class="node">
<title>Node10536</title>
<g id="a_node2"><a xlink:href="../../de/db8/classTextUtils.html#a05480fc2ca26b2281f39584aa470369f" target="_top" xlink:title=" ">
<polygon fill="#ffffff" stroke="#000000" points="177,-38.5 177,-57.5 296,-57.5 296,-38.5 177,-38.5"/>
<text text-anchor="middle" x="236.5" y="-45.5" font-family="Helvetica,sans-Serif" font-size="10.00" fill="#000000">TextUtils::svgNSOnly</text>
</a>
</g>
</g>
<!-- Node10535&#45;&gt;Node10536 -->
<g id="edge1" class="edge">
<title>Node10535&#45;&gt;Node10536</title>
<path fill="none" stroke="#191970" d="M141.3804,-37.1128C149.7754,-38.0737 158.3394,-39.0539 166.719,-40.013"/>
<polygon fill="#191970" stroke="#191970" points="166.4917,-43.5098 176.8249,-41.1697 167.2878,-36.5552 166.4917,-43.5098"/>
</g>
<!-- Node10538 -->
<g id="node4" class="node">
<title>Node10538</title>
<g id="a_node4"><a xlink:href="../../de/db8/classTextUtils.html#a0301b94dbede1f79d5518f7e21c65fb6" target="_top" xlink:title=" ">
<polygon fill="#ffffff" stroke="#000000" points="181,-.5 181,-19.5 292,-19.5 292,-.5 181,-.5"/>
<text text-anchor="middle" x="236.5" y="-7.5" font-family="Helvetica,sans-Serif" font-size="10.00" fill="#000000">TextUtils::writeUtf8</text>
</a>
</g>
</g>
<!-- Node10535&#45;&gt;Node10538 -->
<g id="edge3" class="edge">
<title>Node10535&#45;&gt;Node10538</title>
<path fill="none" stroke="#191970" d="M141.3804,-20.8872C151.1909,-19.7643 161.2322,-18.615 170.9401,-17.5038"/>
<polygon fill="#191970" stroke="#191970" points="171.3753,-20.977 180.9124,-16.3624 170.5793,-14.0224 171.3753,-20.977"/>
</g>
<!-- Node10537 -->
<g id="node3" class="node">
<title>Node10537</title>
<g id="a_node3"><a xlink:href="../../dc/d19/textutils_8cpp.html#a7841ff5bb04e5990a6219e06987451bf" target="_top" xlink:title=" ">
<polygon fill="#ffffff" stroke="#000000" points="332,-38.5 332,-57.5 379,-57.5 379,-38.5 332,-38.5"/>
<text text-anchor="middle" x="355.5" y="-45.5" font-family="Helvetica,sans-Serif" font-size="10.00" fill="#000000">Xmlns</text>
</a>
</g>
</g>
<!-- Node10536&#45;&gt;Node10537 -->
<g id="edge2" class="edge">
<title>Node10536&#45;&gt;Node10537</title>
<path fill="none" stroke="#191970" d="M296.3486,-48C305.023,-48 313.6876,-48 321.6047,-48"/>
<polygon fill="#191970" stroke="#191970" points="321.8683,-51.5001 331.8683,-48 321.8683,-44.5001 321.8683,-51.5001"/>
</g>
</g>
</svg>
