<?xml version="1.0" encoding="UTF-8" standalone="no"?>
<!DOCTYPE svg PUBLIC "-//W3C//DTD SVG 1.1//EN"
 "http://www.w3.org/Graphics/SVG/1.1/DTD/svg11.dtd">
<!-- Generated by graphviz version 2.40.1 (0)
 -->
<!-- Title: PEMainWindow::updateChangeCount Pages: 1 -->
<!--zoomable 301 -->
<svg id="main" version="1.1" xmlns="http://www.w3.org/2000/svg" xmlns:xlink="http://www.w3.org/1999/xlink" xml:space="preserve" onload="init(evt)">
<style type="text/css"><![CDATA[
.edge:hover path { stroke: red; }
.edge:hover polygon { stroke: red; fill: red; }
]]></style>
<script type="text/javascript"><![CDATA[
var edges = document.getElementsByTagName('g');
if (edges && edges.length) {
  for (var i=0;i<edges.length;i++) {
    if (edges[i].id.substr(0,4)=='edge') {
      edges[i].setAttribute('class','edge');
    }
  }
}
]]></script>
        <defs>
                <circle id="rim" cx="0" cy="0" r="7"/>
                <circle id="rim2" cx="0" cy="0" r="3.5"/>
                <g id="zoomPlus">
                        <use xlink:href="#rim" fill="#404040">
                                <set attributeName="fill" to="#808080" begin="zoomplus.mouseover" end="zoomplus.mouseout"/>
                        </use>
                        <path d="M-4,0h8M0,-4v8" fill="none" stroke="white" stroke-width="1.5" pointer-events="none"/>
                </g>
                <g id="zoomMin">
                        <use xlink:href="#rim" fill="#404040">
                                <set attributeName="fill" to="#808080" begin="zoomminus.mouseover" end="zoomminus.mouseout"/>
                        </use>
                        <path d="M-4,0h8" fill="none" stroke="white" stroke-width="1.5" pointer-events="none"/>
                </g>
                <g id="dirArrow">
                        <path fill="none" stroke="white" stroke-width="1.5" d="M0,-3.0v7 M-2.5,-0.5L0,-3.0L2.5,-0.5"/>
                </g>
               <g id="resetDef">
                       <use xlink:href="#rim2" fill="#404040">
                               <set attributeName="fill" to="#808080" begin="reset.mouseover" end="reset.mouseout"/>
                       </use>
               </g>
        </defs>

<script type="text/javascript">
var viewWidth = 820;
var viewHeight = 301;
var sectionId = 'dynsection-221';
</script>
<script xlink:href="../../svgpan.js"/>
<svg id="graph" class="graph">
<g id="viewport">
<title>PEMainWindow::updateChangeCount</title>
<polygon fill="#ffffff" stroke="transparent" points="-4,4 -4,-296.5 816,-296.5 816,4 -4,4"/>
<!-- Node10463 -->
<g id="node1" class="node">
<title>Node10463</title>
<g id="a_node1"><a xlink:title=" ">
<polygon fill="#bfbfbf" stroke="#000000" points="645,-122.5 645,-152.5 812,-152.5 812,-122.5 645,-122.5"/>
<text text-anchor="start" x="653" y="-140.5" font-family="Helvetica,sans-Serif" font-size="10.00" fill="#000000">PEMainWindow::updateChange</text>
<text text-anchor="middle" x="728.5" y="-129.5" font-family="Helvetica,sans-Serif" font-size="10.00" fill="#000000">Count</text>
</a>
</g>
</g>
<!-- Node10464 -->
<g id="node2" class="node">
<title>Node10464</title>
<g id="a_node2"><a xlink:href="../../d6/d9a/classPEMainWindow.html#ac67934c6913b33d0fb8820f91b0a90ac" target="_top" xlink:title=" ">
<polygon fill="#ffffff" stroke="#000000" points="432,-216 432,-235 582,-235 582,-216 432,-216"/>
<text text-anchor="middle" x="507" y="-223" font-family="Helvetica,sans-Serif" font-size="10.00" fill="#000000">PEMainWindow::changeSvg</text>
</a>
</g>
</g>
<!-- Node10463&#45;&gt;Node10464 -->
<g id="edge1" class="edge">
<title>Node10463&#45;&gt;Node10464</title>
<path fill="none" stroke="#191970" d="M681.1915,-156.2953C635.0853,-174.6128 566.8451,-201.7241 530.9981,-215.9658"/>
<polygon fill="#191970" stroke="#191970" points="682.6733,-159.4727 690.6745,-152.5278 680.0888,-152.9673 682.6733,-159.4727"/>
</g>
<!-- Node10470 -->
<g id="node8" class="node">
<title>Node10470</title>
<g id="a_node8"><a xlink:href="../../d6/d9a/classPEMainWindow.html#ac7a236d98b50f2159be21b2f3cb5d6ea" target="_top" xlink:title=" ">
<polygon fill="#ffffff" stroke="#000000" points="405,-128 405,-147 609,-147 609,-128 405,-128"/>
<text text-anchor="middle" x="507" y="-135" font-family="Helvetica,sans-Serif" font-size="10.00" fill="#000000">PEMainWindow::relocateConnectorSvg</text>
</a>
</g>
</g>
<!-- Node10463&#45;&gt;Node10470 -->
<g id="edge7" class="edge">
<title>Node10463&#45;&gt;Node10470</title>
<path fill="none" stroke="#191970" d="M634.5749,-137.5C626.1597,-137.5 617.6117,-137.5 609.1316,-137.5"/>
<polygon fill="#191970" stroke="#191970" points="634.7604,-141.0001 644.7603,-137.5 634.7603,-134.0001 634.7604,-141.0001"/>
</g>
<!-- Node10473 -->
<g id="node11" class="node">
<title>Node10473</title>
<g id="a_node11"><a xlink:href="../../d6/d9a/classPEMainWindow.html#a3c8fc2cbd7216b45a538a5d90470b727" target="_top" xlink:title=" ">
<polygon fill="#ffffff" stroke="#000000" points="423.5,-49.5 423.5,-79.5 590.5,-79.5 590.5,-49.5 423.5,-49.5"/>
<text text-anchor="start" x="431.5" y="-67.5" font-family="Helvetica,sans-Serif" font-size="10.00" fill="#000000">PEMainWindow::moveTerminal</text>
<text text-anchor="middle" x="507" y="-56.5" font-family="Helvetica,sans-Serif" font-size="10.00" fill="#000000">Point</text>
</a>
</g>
</g>
<!-- Node10463&#45;&gt;Node10473 -->
<g id="edge10" class="edge">
<title>Node10463&#45;&gt;Node10473</title>
<path fill="none" stroke="#191970" d="M673.188,-119.2708C635.9885,-107.0109 587.5445,-91.0451 552.5672,-79.5176"/>
<polygon fill="#191970" stroke="#191970" points="672.2806,-122.6568 682.8736,-122.4629 674.4717,-116.0086 672.2806,-122.6568"/>
</g>
<!-- Node10465 -->
<g id="node3" class="node">
<title>Node10465</title>
<g id="a_node3"><a xlink:href="../../df/db4/classChangeSvgCommand.html#ae66d6cb3b7fdd618dbf78583402c999e" target="_top" xlink:title=" ">
<polygon fill="#ffffff" stroke="#000000" points="204.5,-273 204.5,-292 356.5,-292 356.5,-273 204.5,-273"/>
<text text-anchor="middle" x="280.5" y="-280" font-family="Helvetica,sans-Serif" font-size="10.00" fill="#000000">ChangeSvgCommand::undo</text>
</a>
</g>
</g>
<!-- Node10464&#45;&gt;Node10465 -->
<g id="edge2" class="edge">
<title>Node10464&#45;&gt;Node10465</title>
<path fill="none" stroke="#191970" d="M464.5498,-237.8657C437.3408,-245.6237 401.2115,-255.6142 369,-263.5 355.5677,-266.7884 340.9126,-270.0611 327.4626,-272.9404"/>
<polygon fill="#191970" stroke="#191970" points="465.8653,-241.1297 474.5145,-235.0107 463.9372,-234.4004 465.8653,-241.1297"/>
</g>
<!-- Node10466 -->
<g id="node4" class="node">
<title>Node10466</title>
<g id="a_node4"><a xlink:href="../../df/db4/classChangeSvgCommand.html#a8e5c2a3745add711c9c6fb98aa0b51ac" target="_top" xlink:title=" ">
<polygon fill="#ffffff" stroke="#000000" points="206,-235 206,-254 355,-254 355,-235 206,-235"/>
<text text-anchor="middle" x="280.5" y="-242" font-family="Helvetica,sans-Serif" font-size="10.00" fill="#000000">ChangeSvgCommand::redo</text>
</a>
</g>
</g>
<!-- Node10464&#45;&gt;Node10466 -->
<g id="edge3" class="edge">
<title>Node10464&#45;&gt;Node10466</title>
<path fill="none" stroke="#191970" d="M421.9099,-232.6378C399.9211,-234.4823 376.4202,-236.4537 355.0175,-238.2491"/>
<polygon fill="#191970" stroke="#191970" points="422.221,-236.1241 431.8934,-231.8003 421.6358,-229.1486 422.221,-236.1241"/>
</g>
<!-- Node10467 -->
<g id="node5" class="node">
<title>Node10467</title>
<g id="a_node5"><a xlink:href="../../d6/d9a/classPEMainWindow.html#a50c25bdc2254fd572a8206221e2d994b" target="_top" xlink:title=" ">
<polygon fill="#ffffff" stroke="#000000" points="203,-197 203,-216 358,-216 358,-197 203,-197"/>
<text text-anchor="middle" x="280.5" y="-204" font-family="Helvetica,sans-Serif" font-size="10.00" fill="#000000">PEMainWindow::changeSMD</text>
</a>
</g>
</g>
<!-- Node10464&#45;&gt;Node10467 -->
<g id="edge4" class="edge">
<title>Node10464&#45;&gt;Node10467</title>
<path fill="none" stroke="#191970" d="M421.7613,-218.3497C400.8721,-216.5974 378.6264,-214.7314 358.1167,-213.0109"/>
<polygon fill="#191970" stroke="#191970" points="421.6358,-221.8514 431.8934,-219.1997 422.221,-214.8759 421.6358,-221.8514"/>
</g>
<!-- Node10468 -->
<g id="node6" class="node">
<title>Node10468</title>
<g id="a_node6"><a xlink:href="../../d7/d47/classChangeSMDCommand.html#a3496e452a35fa09f91b6d20d986f4091" target="_top" xlink:title=" ">
<polygon fill="#ffffff" stroke="#000000" points="0,-216 0,-235 156,-235 156,-216 0,-216"/>
<text text-anchor="middle" x="78" y="-223" font-family="Helvetica,sans-Serif" font-size="10.00" fill="#000000">ChangeSMDCommand::undo</text>
</a>
</g>
</g>
<!-- Node10467&#45;&gt;Node10468 -->
<g id="edge5" class="edge">
<title>Node10467&#45;&gt;Node10468</title>
<path fill="none" stroke="#191970" d="M192.6666,-214.7412C180.5261,-215.8803 168.1236,-217.044 156.1741,-218.1651"/>
<polygon fill="#191970" stroke="#191970" points="193.1581,-218.2105 202.7873,-213.7916 192.5041,-211.2411 193.1581,-218.2105"/>
</g>
<!-- Node10469 -->
<g id="node7" class="node">
<title>Node10469</title>
<g id="a_node7"><a xlink:href="../../d7/d47/classChangeSMDCommand.html#a2602dda370e2b433b632d7b9b5bd8693" target="_top" xlink:title=" ">
<polygon fill="#ffffff" stroke="#000000" points="1,-178 1,-197 155,-197 155,-178 1,-178"/>
<text text-anchor="middle" x="78" y="-185" font-family="Helvetica,sans-Serif" font-size="10.00" fill="#000000">ChangeSMDCommand::redo</text>
</a>
</g>
</g>
<!-- Node10467&#45;&gt;Node10469 -->
<g id="edge6" class="edge">
<title>Node10467&#45;&gt;Node10469</title>
<path fill="none" stroke="#191970" d="M192.8155,-198.2728C180.2873,-197.0973 167.4769,-195.8954 155.1704,-194.7407"/>
<polygon fill="#191970" stroke="#191970" points="192.5041,-201.7589 202.7873,-199.2084 193.1581,-194.7895 192.5041,-201.7589"/>
</g>
<!-- Node10471 -->
<g id="node9" class="node">
<title>Node10471</title>
<g id="a_node9"><a xlink:href="../../de/d4a/classRelocateConnectorSvgCommand.html#a3338d8edd9949b0618a300136f01deb0" target="_top" xlink:title=" ">
<polygon fill="#ffffff" stroke="#000000" points="192,-147.5 192,-177.5 369,-177.5 369,-147.5 192,-147.5"/>
<text text-anchor="start" x="200" y="-165.5" font-family="Helvetica,sans-Serif" font-size="10.00" fill="#000000">RelocateConnectorSvgCommand</text>
<text text-anchor="middle" x="280.5" y="-154.5" font-family="Helvetica,sans-Serif" font-size="10.00" fill="#000000">::undo</text>
</a>
</g>
</g>
<!-- Node10470&#45;&gt;Node10471 -->
<g id="edge8" class="edge">
<title>Node10470&#45;&gt;Node10471</title>
<path fill="none" stroke="#191970" d="M410.7498,-148.1236C396.9519,-149.6466 382.8094,-151.2076 369.167,-152.7134"/>
<polygon fill="#191970" stroke="#191970" points="411.1683,-151.5988 420.7239,-147.0227 410.4003,-144.6411 411.1683,-151.5988"/>
</g>
<!-- Node10472 -->
<g id="node10" class="node">
<title>Node10472</title>
<g id="a_node10"><a xlink:href="../../de/d4a/classRelocateConnectorSvgCommand.html#aa905c12a633fb30fc3e72a87fef586ac" target="_top" xlink:title=" ">
<polygon fill="#ffffff" stroke="#000000" points="192,-98.5 192,-128.5 369,-128.5 369,-98.5 192,-98.5"/>
<text text-anchor="start" x="200" y="-116.5" font-family="Helvetica,sans-Serif" font-size="10.00" fill="#000000">RelocateConnectorSvgCommand</text>
<text text-anchor="middle" x="280.5" y="-105.5" font-family="Helvetica,sans-Serif" font-size="10.00" fill="#000000">::redo</text>
</a>
</g>
</g>
<!-- Node10470&#45;&gt;Node10472 -->
<g id="edge9" class="edge">
<title>Node10470&#45;&gt;Node10472</title>
<path fill="none" stroke="#191970" d="M407.0789,-126.9123C394.4383,-125.5729 381.5732,-124.2097 369.1251,-122.8907"/>
<polygon fill="#191970" stroke="#191970" points="406.8427,-130.4068 417.1559,-127.9801 407.5804,-123.4458 406.8427,-130.4068"/>
</g>
<!-- Node10474 -->
<g id="node12" class="node">
<title>Node10474</title>
<g id="a_node12"><a xlink:href="../../dc/df8/classMoveTerminalPointCommand.html#a6b64add9d666733986b601f54ebad51d" target="_top" xlink:title=" ">
<polygon fill="#ffffff" stroke="#000000" points="200,-49.5 200,-79.5 361,-79.5 361,-49.5 200,-49.5"/>
<text text-anchor="start" x="208" y="-67.5" font-family="Helvetica,sans-Serif" font-size="10.00" fill="#000000">MoveTerminalPointCommand</text>
<text text-anchor="middle" x="280.5" y="-56.5" font-family="Helvetica,sans-Serif" font-size="10.00" fill="#000000">::undo</text>
</a>
</g>
</g>
<!-- Node10473&#45;&gt;Node10474 -->
<g id="edge11" class="edge">
<title>Node10473&#45;&gt;Node10474</title>
<path fill="none" stroke="#191970" d="M413.2201,-64.5C395.951,-64.5 378.0591,-64.5 361.2164,-64.5"/>
<polygon fill="#191970" stroke="#191970" points="413.3033,-68.0001 423.3033,-64.5 413.3032,-61.0001 413.3033,-68.0001"/>
</g>
<!-- Node10475 -->
<g id="node13" class="node">
<title>Node10475</title>
<g id="a_node13"><a xlink:href="../../dc/df8/classMoveTerminalPointCommand.html#a3276014f8fcc731a8af09d7b7574c5c3" target="_top" xlink:title=" ">
<polygon fill="#ffffff" stroke="#000000" points="200,-.5 200,-30.5 361,-30.5 361,-.5 200,-.5"/>
<text text-anchor="start" x="208" y="-18.5" font-family="Helvetica,sans-Serif" font-size="10.00" fill="#000000">MoveTerminalPointCommand</text>
<text text-anchor="middle" x="280.5" y="-7.5" font-family="Helvetica,sans-Serif" font-size="10.00" fill="#000000">::redo</text>
</a>
</g>
</g>
<!-- Node10473&#45;&gt;Node10475 -->
<g id="edge12" class="edge">
<title>Node10473&#45;&gt;Node10475</title>
<path fill="none" stroke="#191970" d="M427.5616,-47.3146C402.2334,-41.8353 374.4212,-35.8185 349.8653,-30.5062"/>
<polygon fill="#191970" stroke="#191970" points="426.9893,-50.7717 437.5033,-49.4654 428.4694,-43.93 426.9893,-50.7717"/>
</g>
</g>
</svg>
        <g id="navigator" transform="translate(0 0)" fill="#404254">
                <rect fill="#f2f5e9" fill-opacity="0.5" stroke="#606060" stroke-width=".5" x="0" y="0" width="60" height="60"/>
                <use id="zoomplus" xlink:href="#zoomPlus" x="17" y="9" onmousedown="handleZoom(evt,'in')"/>
                <use id="zoomminus" xlink:href="#zoomMin" x="42" y="9" onmousedown="handleZoom(evt,'out')"/>
                <use id="reset" xlink:href="#resetDef" x="30" y="36" onmousedown="handleReset()"/>
                <g id="arrowUp" xlink:href="#dirArrow" transform="translate(30 24)" onmousedown="handlePan(0,-1)">
                  <use xlink:href="#rim" fill="#404040">
                        <set attributeName="fill" to="#808080" begin="arrowUp.mouseover" end="arrowUp.mouseout"/>
                  </use>
                  <path fill="none" stroke="white" stroke-width="1.5" d="M0,-3.0v7 M-2.5,-0.5L0,-3.0L2.5,-0.5"/>
                </g>
                <g id="arrowRight" xlink:href="#dirArrow" transform="rotate(90) translate(36 -43)" onmousedown="handlePan(1,0)">
                  <use xlink:href="#rim" fill="#404040">
                        <set attributeName="fill" to="#808080" begin="arrowRight.mouseover" end="arrowRight.mouseout"/>
                  </use>
                  <path fill="none" stroke="white" stroke-width="1.5" d="M0,-3.0v7 M-2.5,-0.5L0,-3.0L2.5,-0.5"/>
                </g>
                <g id="arrowDown" xlink:href="#dirArrow" transform="rotate(180) translate(-30 -48)" onmousedown="handlePan(0,1)">
                  <use xlink:href="#rim" fill="#404040">
                        <set attributeName="fill" to="#808080" begin="arrowDown.mouseover" end="arrowDown.mouseout"/>
                  </use>
                  <path fill="none" stroke="white" stroke-width="1.5" d="M0,-3.0v7 M-2.5,-0.5L0,-3.0L2.5,-0.5"/>
                </g>
                <g id="arrowLeft" xlink:href="#dirArrow" transform="rotate(270) translate(-36 17)" onmousedown="handlePan(-1,0)">
                  <use xlink:href="#rim" fill="#404040">
                        <set attributeName="fill" to="#808080" begin="arrowLeft.mouseover" end="arrowLeft.mouseout"/>
                  </use>
                  <path fill="none" stroke="white" stroke-width="1.5" d="M0,-3.0v7 M-2.5,-0.5L0,-3.0L2.5,-0.5"/>
                </g>
        </g>
        <svg viewBox="0 0 15 15" width="100%" height="30px" preserveAspectRatio="xMaxYMin meet">
         <g id="arrow_out" transform="scale(0.3 0.3)">
          <a xlink:href="classPEMainWindow_a7d8fd39cf8a9568012a8dada7d6223e6_icgraph_org.svg" target="_base">
           <rect id="button" ry="5" rx="5" y="6" x="6" height="38" width="38"
                fill="#f2f5e9" fill-opacity="0.5" stroke="#606060" stroke-width="1.0"/>
           <path id="arrow"
             d="M 11.500037,31.436501 C 11.940474,20.09759 22.043105,11.32322 32.158766,21.979434 L 37.068811,17.246167 C 37.068811,17.246167 37.088388,32 37.088388,32 L 22.160133,31.978069 C 22.160133,31.978069 26.997745,27.140456 26.997745,27.140456 C 18.528582,18.264221 13.291696,25.230495 11.500037,31.436501 z"
             style="fill:#404040;"/>
          </a>
         </g>
        </svg>
</svg>
