<?xml version="1.0" encoding="UTF-8" standalone="no"?>
<!DOCTYPE svg PUBLIC "-//W3C//DTD SVG 1.1//EN"
 "http://www.w3.org/Graphics/SVG/1.1/DTD/svg11.dtd">
<!-- Generated by graphviz version 2.40.1 (0)
 -->
<!-- Title: PEMainWindow::reuseImage Pages: 1 -->
<svg width="1269pt" height="191pt"
 viewBox="0.00 0.00 1269.00 191.00" xmlns="http://www.w3.org/2000/svg" xmlns:xlink="http://www.w3.org/1999/xlink">
<g id="graph0" class="graph" transform="scale(1 1) rotate(0) translate(4 187)">
<title>PEMainWindow::reuseImage</title>
<polygon fill="#ffffff" stroke="transparent" points="-4,4 -4,-187 1265,-187 1265,4 -4,4"/>
<!-- Node9132 -->
<g id="node1" class="node">
<title>Node9132</title>
<g id="a_node1"><a xlink:title=" ">
<polygon fill="#bfbfbf" stroke="#000000" points="0,-125.5 0,-144.5 155,-144.5 155,-125.5 0,-125.5"/>
<text text-anchor="middle" x="77.5" y="-132.5" font-family="Helvetica,sans-Serif" font-size="10.00" fill="#000000">PEMainWindow::reuseImage</text>
</a>
</g>
</g>
<!-- Node9133 -->
<g id="node2" class="node">
<title>Node9133</title>
<g id="a_node2"><a xlink:href="../../d4/d4f/classItemBase.html#a15ca8234e6d5e512e23031ca03e74d63" target="_top" xlink:title=" ">
<polygon fill="#ffffff" stroke="#000000" points="195,-163.5 195,-182.5 307,-182.5 307,-163.5 195,-163.5"/>
<text text-anchor="middle" x="251" y="-170.5" font-family="Helvetica,sans-Serif" font-size="10.00" fill="#000000">ItemBase::filename</text>
</a>
</g>
</g>
<!-- Node9132&#45;&gt;Node9133 -->
<g id="edge1" class="edge">
<title>Node9132&#45;&gt;Node9133</title>
<path fill="none" stroke="#191970" d="M121.2814,-144.589C144.486,-149.6713 173.1781,-155.9554 197.6732,-161.3203"/>
<polygon fill="#191970" stroke="#191970" points="197.0162,-164.7593 207.5335,-163.4799 198.5138,-157.9214 197.0162,-164.7593"/>
</g>
<!-- Node9134 -->
<g id="node3" class="node">
<title>Node9134</title>
<g id="a_node3"><a xlink:href="../../d4/d4f/classItemBase.html#a39957519ed5ac922dead0466357d4644" target="_top" xlink:title=" ">
<polygon fill="#ffffff" stroke="#000000" points="199.5,-125.5 199.5,-144.5 302.5,-144.5 302.5,-125.5 199.5,-125.5"/>
<text text-anchor="middle" x="251" y="-132.5" font-family="Helvetica,sans-Serif" font-size="10.00" fill="#000000">ItemBase::viewID</text>
</a>
</g>
</g>
<!-- Node9132&#45;&gt;Node9134 -->
<g id="edge2" class="edge">
<title>Node9132&#45;&gt;Node9134</title>
<path fill="none" stroke="#191970" d="M155.1157,-135C166.4657,-135 178.0267,-135 189.0097,-135"/>
<polygon fill="#191970" stroke="#191970" points="189.3371,-138.5001 199.337,-135 189.337,-131.5001 189.3371,-138.5001"/>
</g>
<!-- Node9135 -->
<g id="node4" class="node">
<title>Node9135</title>
<g id="a_node4"><a xlink:href="../../d0/dbb/classWaitPushUndoStack.html#a963a743dc56214fc3f5929cf271be8ce" target="_top" xlink:title=" ">
<polygon fill="#ffffff" stroke="#000000" points="191,-76 191,-106 311,-106 311,-76 191,-76"/>
<text text-anchor="start" x="199" y="-94" font-family="Helvetica,sans-Serif" font-size="10.00" fill="#000000">WaitPushUndoStack::</text>
<text text-anchor="middle" x="251" y="-83" font-family="Helvetica,sans-Serif" font-size="10.00" fill="#000000">waitPush</text>
</a>
</g>
</g>
<!-- Node9132&#45;&gt;Node9135 -->
<g id="edge3" class="edge">
<title>Node9132&#45;&gt;Node9135</title>
<path fill="none" stroke="#191970" d="M115.1469,-125.4527C134.5938,-120.5209 158.9494,-114.3442 181.6478,-108.5879"/>
<polygon fill="#191970" stroke="#191970" points="182.7618,-111.9162 191.5945,-106.0654 181.041,-105.131 182.7618,-111.9162"/>
</g>
<!-- Node9136 -->
<g id="node5" class="node">
<title>Node9136</title>
<g id="a_node5"><a xlink:href="../../d0/dbb/classWaitPushUndoStack.html#adb61406582da1e42263b223b11b7d1c0" target="_top" xlink:title=" ">
<polygon fill="#ffffff" stroke="#000000" points="358.5,-99 358.5,-129 478.5,-129 478.5,-99 358.5,-99"/>
<text text-anchor="start" x="366.5" y="-117" font-family="Helvetica,sans-Serif" font-size="10.00" fill="#000000">WaitPushUndoStack::</text>
<text text-anchor="middle" x="418.5" y="-106" font-family="Helvetica,sans-Serif" font-size="10.00" fill="#000000">clearDeadTimers</text>
</a>
</g>
</g>
<!-- Node9135&#45;&gt;Node9136 -->
<g id="edge4" class="edge">
<title>Node9135&#45;&gt;Node9136</title>
<path fill="none" stroke="#191970" d="M311.4713,-99.3035C323.4044,-100.9421 336.0225,-102.6747 348.2465,-104.3532"/>
<polygon fill="#191970" stroke="#191970" points="348.0151,-107.8542 358.3983,-105.7472 348.9675,-100.9193 348.0151,-107.8542"/>
</g>
<!-- Node9138 -->
<g id="node7" class="node">
<title>Node9138</title>
<g id="a_node7"><a xlink:href="../../d0/dbb/classWaitPushUndoStack.html#a279fdca551f05e81111de92ea5b2145c" target="_top" xlink:title=" ">
<polygon fill="#ffffff" stroke="#000000" points="347,-59.5 347,-78.5 490,-78.5 490,-59.5 347,-59.5"/>
<text text-anchor="middle" x="418.5" y="-66.5" font-family="Helvetica,sans-Serif" font-size="10.00" fill="#000000">WaitPushUndoStack::push</text>
</a>
</g>
</g>
<!-- Node9135&#45;&gt;Node9138 -->
<g id="edge6" class="edge">
<title>Node9135&#45;&gt;Node9138</title>
<path fill="none" stroke="#191970" d="M311.4713,-83.0575C319.7557,-81.9694 328.3701,-80.838 336.9537,-79.7106"/>
<polygon fill="#191970" stroke="#191970" points="337.5352,-83.1643 346.9943,-78.3918 336.6236,-76.2239 337.5352,-83.1643"/>
</g>
<!-- Node9137 -->
<g id="node6" class="node">
<title>Node9137</title>
<g id="a_node6"><a xlink:href="../../d0/dbb/classWaitPushUndoStack.html#a23e51cedbc43383a4f967180c64dd040" target="_top" xlink:title=" ">
<polygon fill="#ffffff" stroke="#000000" points="526,-101 526,-131 646,-131 646,-101 526,-101"/>
<text text-anchor="start" x="534" y="-119" font-family="Helvetica,sans-Serif" font-size="10.00" fill="#000000">WaitPushUndoStack::</text>
<text text-anchor="middle" x="586" y="-108" font-family="Helvetica,sans-Serif" font-size="10.00" fill="#000000">clearTimers</text>
</a>
</g>
</g>
<!-- Node9136&#45;&gt;Node9137 -->
<g id="edge5" class="edge">
<title>Node9136&#45;&gt;Node9137</title>
<path fill="none" stroke="#191970" d="M478.9713,-114.722C490.9044,-114.8645 503.5225,-115.0152 515.7465,-115.1612"/>
<polygon fill="#191970" stroke="#191970" points="515.8572,-118.6626 525.8983,-115.2824 515.9409,-111.6631 515.8572,-118.6626"/>
</g>
<!-- Node9139 -->
<g id="node8" class="node">
<title>Node9139</title>
<g id="a_node8"><a xlink:href="../../d0/dbb/classWaitPushUndoStack.html#a2b0322812e333fec2b4d0d12b12e634c" target="_top" xlink:title=" ">
<polygon fill="#ffffff" stroke="#000000" points="526,-52 526,-82 646,-82 646,-52 526,-52"/>
<text text-anchor="start" x="534" y="-70" font-family="Helvetica,sans-Serif" font-size="10.00" fill="#000000">WaitPushUndoStack::</text>
<text text-anchor="middle" x="586" y="-59" font-family="Helvetica,sans-Serif" font-size="10.00" fill="#000000">writeUndo</text>
</a>
</g>
</g>
<!-- Node9138&#45;&gt;Node9139 -->
<g id="edge7" class="edge">
<title>Node9138&#45;&gt;Node9139</title>
<path fill="none" stroke="#191970" d="M490.0209,-68.146C498.4918,-68.0449 507.1332,-67.9417 515.5884,-67.8407"/>
<polygon fill="#191970" stroke="#191970" points="515.8282,-71.3382 525.7856,-67.719 515.7445,-64.3387 515.8282,-71.3382"/>
</g>
<!-- Node9140 -->
<g id="node9" class="node">
<title>Node9140</title>
<g id="a_node9"><a xlink:href="../../d8/d6e/classBaseCommand.html#a2d7619b36325bfec9111724045c24b8e" target="_top" xlink:title=" ">
<polygon fill="#ffffff" stroke="#000000" points="692,-114.5 692,-133.5 865,-133.5 865,-114.5 692,-114.5"/>
<text text-anchor="middle" x="778.5" y="-121.5" font-family="Helvetica,sans-Serif" font-size="10.00" fill="#000000">BaseCommand::getDebugString</text>
</a>
</g>
</g>
<!-- Node9139&#45;&gt;Node9140 -->
<g id="edge8" class="edge">
<title>Node9139&#45;&gt;Node9140</title>
<path fill="none" stroke="#191970" d="M622.2859,-82.1579C644.3291,-91.2095 670.391,-101.5906 682,-105 691.2411,-107.714 701.0949,-110.1545 710.8426,-112.3101"/>
<polygon fill="#191970" stroke="#191970" points="710.4233,-115.7991 720.9322,-114.453 711.8776,-108.9518 710.4233,-115.7991"/>
</g>
<!-- Node9143 -->
<g id="node12" class="node">
<title>Node9143</title>
<g id="a_node12"><a xlink:href="../../d8/d6e/classBaseCommand.html#af34b4e2829ad3b7b718499916fd87cbb" target="_top" xlink:title=" ">
<polygon fill="#ffffff" stroke="#000000" points="716.5,-76.5 716.5,-95.5 840.5,-95.5 840.5,-76.5 716.5,-76.5"/>
<text text-anchor="middle" x="778.5" y="-83.5" font-family="Helvetica,sans-Serif" font-size="10.00" fill="#000000">BaseCommand::index</text>
</a>
</g>
</g>
<!-- Node9139&#45;&gt;Node9143 -->
<g id="edge11" class="edge">
<title>Node9139&#45;&gt;Node9143</title>
<path fill="none" stroke="#191970" d="M646.1164,-72.9336C665.0924,-74.8065 686.2605,-76.8958 706.0058,-78.8447"/>
<polygon fill="#191970" stroke="#191970" points="705.8871,-82.3499 716.1825,-79.8492 706.5747,-75.3838 705.8871,-82.3499"/>
</g>
<!-- Node9144 -->
<g id="node13" class="node">
<title>Node9144</title>
<g id="a_node13"><a xlink:href="../../d8/d6e/classBaseCommand.html#ad7114bcb3cf27232facaf0cbcd7e3b58" target="_top" xlink:title=" ">
<polygon fill="#ffffff" stroke="#000000" points="682,-38.5 682,-57.5 875,-57.5 875,-38.5 682,-38.5"/>
<text text-anchor="middle" x="778.5" y="-45.5" font-family="Helvetica,sans-Serif" font-size="10.00" fill="#000000">BaseCommand::subCommandCount</text>
</a>
</g>
</g>
<!-- Node9139&#45;&gt;Node9144 -->
<g id="edge12" class="edge">
<title>Node9139&#45;&gt;Node9144</title>
<path fill="none" stroke="#191970" d="M646.1164,-61.0664C654.4521,-60.2437 663.2108,-59.3792 672.0861,-58.5032"/>
<polygon fill="#191970" stroke="#191970" points="672.532,-61.9763 682.1399,-57.5109 671.8444,-55.0101 672.532,-61.9763"/>
</g>
<!-- Node9145 -->
<g id="node14" class="node">
<title>Node9145</title>
<g id="a_node14"><a xlink:href="../../d8/d6e/classBaseCommand.html#a2717e1d5a234ba427175907b2dc58c23" target="_top" xlink:title=" ">
<polygon fill="#ffffff" stroke="#000000" points="696.5,-.5 696.5,-19.5 860.5,-19.5 860.5,-.5 696.5,-.5"/>
<text text-anchor="middle" x="778.5" y="-7.5" font-family="Helvetica,sans-Serif" font-size="10.00" fill="#000000">BaseCommand::subCommand</text>
</a>
</g>
</g>
<!-- Node9139&#45;&gt;Node9145 -->
<g id="edge13" class="edge">
<title>Node9139&#45;&gt;Node9145</title>
<path fill="none" stroke="#191970" d="M619.6817,-51.918C637.8579,-44.2277 660.8458,-35.2127 682,-29 691.2411,-26.286 701.0949,-23.8455 710.8426,-21.6899"/>
<polygon fill="#191970" stroke="#191970" points="711.8776,-25.0482 720.9322,-19.547 710.4233,-18.2009 711.8776,-25.0482"/>
</g>
<!-- Node9141 -->
<g id="node10" class="node">
<title>Node9141</title>
<g id="a_node10"><a xlink:href="../../d8/d6e/classBaseCommand.html#aca69868889f793ce1399fd0c752cfa05" target="_top" xlink:title=" ">
<polygon fill="#ffffff" stroke="#000000" points="911,-114.5 911,-133.5 1083,-133.5 1083,-114.5 911,-114.5"/>
<text text-anchor="middle" x="997" y="-121.5" font-family="Helvetica,sans-Serif" font-size="10.00" fill="#000000">BaseCommand::getParamString</text>
</a>
</g>
</g>
<!-- Node9140&#45;&gt;Node9141 -->
<g id="edge9" class="edge">
<title>Node9140&#45;&gt;Node9141</title>
<path fill="none" stroke="#191970" d="M865.1708,-124C876.7822,-124 888.7493,-124 900.5162,-124"/>
<polygon fill="#191970" stroke="#191970" points="900.7913,-127.5001 910.7913,-124 900.7913,-120.5001 900.7913,-127.5001"/>
</g>
<!-- Node9142 -->
<g id="node11" class="node">
<title>Node9142</title>
<g id="a_node11"><a xlink:href="../../d8/d37/classSketchWidget.html#a4319a31c3a619e166f0e7dac865e2ea3" target="_top" xlink:title=" ">
<polygon fill="#ffffff" stroke="#000000" points="1119,-114.5 1119,-133.5 1261,-133.5 1261,-114.5 1119,-114.5"/>
<text text-anchor="middle" x="1190" y="-121.5" font-family="Helvetica,sans-Serif" font-size="10.00" fill="#000000">SketchWidget::viewName</text>
</a>
</g>
</g>
<!-- Node9141&#45;&gt;Node9142 -->
<g id="edge10" class="edge">
<title>Node9141&#45;&gt;Node9142</title>
<path fill="none" stroke="#191970" d="M1083.0578,-124C1091.562,-124 1100.1756,-124 1108.6304,-124"/>
<polygon fill="#191970" stroke="#191970" points="1108.8465,-127.5001 1118.8465,-124 1108.8465,-120.5001 1108.8465,-127.5001"/>
</g>
</g>
</svg>
