<?xml version="1.0" encoding="UTF-8" standalone="no"?>
<!DOCTYPE svg PUBLIC "-//W3C//DTD SVG 1.1//EN"
 "http://www.w3.org/Graphics/SVG/1.1/DTD/svg11.dtd">
<!-- Generated by graphviz version 2.40.1 (0)
 -->
<!-- Title: PEMainWindow::reuseImage Pages: 1 -->
<svg width="760pt" height="104pt"
 viewBox="0.00 0.00 760.00 104.00" xmlns="http://www.w3.org/2000/svg" xmlns:xlink="http://www.w3.org/1999/xlink">
<g id="graph0" class="graph" transform="scale(1 1) rotate(0) translate(4 100)">
<title>PEMainWindow::reuseImage</title>
<polygon fill="#ffffff" stroke="transparent" points="-4,4 -4,-100 756,-100 756,4 -4,4"/>
<!-- Node9146 -->
<g id="node1" class="node">
<title>Node9146</title>
<g id="a_node1"><a xlink:title=" ">
<polygon fill="#bfbfbf" stroke="#000000" points="597,-38.5 597,-57.5 752,-57.5 752,-38.5 597,-38.5"/>
<text text-anchor="middle" x="674.5" y="-45.5" font-family="Helvetica,sans-Serif" font-size="10.00" fill="#000000">PEMainWindow::reuseImage</text>
</a>
</g>
</g>
<!-- Node9147 -->
<g id="node2" class="node">
<title>Node9147</title>
<g id="a_node2"><a xlink:href="../../d6/d9a/classPEMainWindow.html#aefc5b9180b58cce36945b9622a54582d" target="_top" xlink:title=" ">
<polygon fill="#ffffff" stroke="#000000" points="381,-76.5 381,-95.5 561,-95.5 561,-76.5 381,-76.5"/>
<text text-anchor="middle" x="471" y="-83.5" font-family="Helvetica,sans-Serif" font-size="10.00" fill="#000000">PEMainWindow::reuseBreadboard</text>
</a>
</g>
</g>
<!-- Node9146&#45;&gt;Node9147 -->
<g id="edge1" class="edge">
<title>Node9146&#45;&gt;Node9147</title>
<path fill="none" stroke="#191970" d="M613.3529,-59.4181C584.2358,-64.8552 549.8121,-71.2832 522.11,-76.4561"/>
<polygon fill="#191970" stroke="#191970" points="614.2234,-62.8162 623.411,-57.54 612.9385,-55.9351 614.2234,-62.8162"/>
</g>
<!-- Node9150 -->
<g id="node5" class="node">
<title>Node9150</title>
<g id="a_node5"><a xlink:href="../../d6/d9a/classPEMainWindow.html#a0e5f9f751239b50f92404428910cd3a0" target="_top" xlink:title=" ">
<polygon fill="#ffffff" stroke="#000000" points="383.5,-38.5 383.5,-57.5 558.5,-57.5 558.5,-38.5 383.5,-38.5"/>
<text text-anchor="middle" x="471" y="-45.5" font-family="Helvetica,sans-Serif" font-size="10.00" fill="#000000">PEMainWindow::reuseSchematic</text>
</a>
</g>
</g>
<!-- Node9146&#45;&gt;Node9150 -->
<g id="edge4" class="edge">
<title>Node9146&#45;&gt;Node9150</title>
<path fill="none" stroke="#191970" d="M586.8646,-48C577.4644,-48 567.9004,-48 558.5018,-48"/>
<polygon fill="#191970" stroke="#191970" points="586.9849,-51.5001 596.9849,-48 586.9848,-44.5001 586.9849,-51.5001"/>
</g>
<!-- Node9151 -->
<g id="node6" class="node">
<title>Node9151</title>
<g id="a_node6"><a xlink:href="../../d6/d9a/classPEMainWindow.html#abd410454aca4059d19991aa6cee0313b" target="_top" xlink:title=" ">
<polygon fill="#ffffff" stroke="#000000" points="399.5,-.5 399.5,-19.5 542.5,-19.5 542.5,-.5 399.5,-.5"/>
<text text-anchor="middle" x="471" y="-7.5" font-family="Helvetica,sans-Serif" font-size="10.00" fill="#000000">PEMainWindow::reusePCB</text>
</a>
</g>
</g>
<!-- Node9146&#45;&gt;Node9151 -->
<g id="edge6" class="edge">
<title>Node9146&#45;&gt;Node9151</title>
<path fill="none" stroke="#191970" d="M613.3529,-36.5819C584.2358,-31.1448 549.8121,-24.7168 522.11,-19.5439"/>
<polygon fill="#191970" stroke="#191970" points="612.9385,-40.0649 623.411,-38.46 614.2234,-33.1838 612.9385,-40.0649"/>
</g>
<!-- Node9148 -->
<g id="node3" class="node">
<title>Node9148</title>
<g id="a_node3"><a xlink:href="../../d6/d9a/classPEMainWindow.html#addd5ae0274b7c1259befe176d027f58b" target="_top" xlink:title=" ">
<polygon fill="#ffffff" stroke="#000000" points="200,-33 200,-63 345,-63 345,-33 200,-33"/>
<text text-anchor="start" x="208" y="-51" font-family="Helvetica,sans-Serif" font-size="10.00" fill="#000000">PEMainWindow::createFile</text>
<text text-anchor="middle" x="272.5" y="-40" font-family="Helvetica,sans-Serif" font-size="10.00" fill="#000000">MenuActions</text>
</a>
</g>
</g>
<!-- Node9147&#45;&gt;Node9148 -->
<g id="edge2" class="edge">
<title>Node9147&#45;&gt;Node9148</title>
<path fill="none" stroke="#191970" d="M411.2152,-74.5551C390.4533,-70.5805 366.9391,-66.079 345.2474,-61.9264"/>
<polygon fill="#191970" stroke="#191970" points="410.6865,-78.0173 421.1663,-76.46 412.0027,-71.1422 410.6865,-78.0173"/>
</g>
<!-- Node9149 -->
<g id="node4" class="node">
<title>Node9149</title>
<g id="a_node4"><a xlink:href="../../d6/d9a/classPEMainWindow.html#a75b29809288068ade92be923ab97d0b1" target="_top" xlink:title=" ">
<polygon fill="#ffffff" stroke="#000000" points="0,-38.5 0,-57.5 164,-57.5 164,-38.5 0,-38.5"/>
<text text-anchor="middle" x="82" y="-45.5" font-family="Helvetica,sans-Serif" font-size="10.00" fill="#000000">PEMainWindow::createActions</text>
</a>
</g>
</g>
<!-- Node9148&#45;&gt;Node9149 -->
<g id="edge3" class="edge">
<title>Node9148&#45;&gt;Node9149</title>
<path fill="none" stroke="#191970" d="M189.7128,-48C181.2619,-48 172.6779,-48 164.233,-48"/>
<polygon fill="#191970" stroke="#191970" points="189.9367,-51.5001 199.9367,-48 189.9366,-44.5001 189.9367,-51.5001"/>
</g>
<!-- Node9150&#45;&gt;Node9148 -->
<g id="edge5" class="edge">
<title>Node9150&#45;&gt;Node9148</title>
<path fill="none" stroke="#191970" d="M373.1386,-48C363.7005,-48 354.2456,-48 345.1155,-48"/>
<polygon fill="#191970" stroke="#191970" points="373.3572,-51.5001 383.3572,-48 373.3572,-44.5001 373.3572,-51.5001"/>
</g>
<!-- Node9151&#45;&gt;Node9148 -->
<g id="edge7" class="edge">
<title>Node9151&#45;&gt;Node9148</title>
<path fill="none" stroke="#191970" d="M411.2152,-21.4449C390.4533,-25.4195 366.9391,-29.921 345.2474,-34.0736"/>
<polygon fill="#191970" stroke="#191970" points="412.0027,-24.8578 421.1663,-19.54 410.6865,-17.9827 412.0027,-24.8578"/>
</g>
</g>
</svg>
