<?xml version="1.0" encoding="UTF-8" standalone="no"?>
<!DOCTYPE svg PUBLIC "-//W3C//DTD SVG 1.1//EN"
 "http://www.w3.org/Graphics/SVG/1.1/DTD/svg11.dtd">
<!-- Generated by graphviz version 2.40.1 (0)
 -->
<!-- Title: SvgIconWidget::itemBase Pages: 1 -->
<!--zoomable 203 -->
<svg id="main" version="1.1" xmlns="http://www.w3.org/2000/svg" xmlns:xlink="http://www.w3.org/1999/xlink" xml:space="preserve" onload="init(evt)">
<style type="text/css"><![CDATA[
.edge:hover path { stroke: red; }
.edge:hover polygon { stroke: red; fill: red; }
]]></style>
<script type="text/javascript"><![CDATA[
var edges = document.getElementsByTagName('g');
if (edges && edges.length) {
  for (var i=0;i<edges.length;i++) {
    if (edges[i].id.substr(0,4)=='edge') {
      edges[i].setAttribute('class','edge');
    }
  }
}
]]></script>
        <defs>
                <circle id="rim" cx="0" cy="0" r="7"/>
                <circle id="rim2" cx="0" cy="0" r="3.5"/>
                <g id="zoomPlus">
                        <use xlink:href="#rim" fill="#404040">
                                <set attributeName="fill" to="#808080" begin="zoomplus.mouseover" end="zoomplus.mouseout"/>
                        </use>
                        <path d="M-4,0h8M0,-4v8" fill="none" stroke="white" stroke-width="1.5" pointer-events="none"/>
                </g>
                <g id="zoomMin">
                        <use xlink:href="#rim" fill="#404040">
                                <set attributeName="fill" to="#808080" begin="zoomminus.mouseover" end="zoomminus.mouseout"/>
                        </use>
                        <path d="M-4,0h8" fill="none" stroke="white" stroke-width="1.5" pointer-events="none"/>
                </g>
                <g id="dirArrow">
                        <path fill="none" stroke="white" stroke-width="1.5" d="M0,-3.0v7 M-2.5,-0.5L0,-3.0L2.5,-0.5"/>
                </g>
               <g id="resetDef">
                       <use xlink:href="#rim2" fill="#404040">
                               <set attributeName="fill" to="#808080" begin="reset.mouseover" end="reset.mouseout"/>
                       </use>
               </g>
        </defs>

<script type="text/javascript">
var viewWidth = 873;
var viewHeight = 203;
var sectionId = 'dynsection-7';
</script>
<script xlink:href="../../svgpan.js"/>
<svg id="graph" class="graph">
<g id="viewport">
<title>SvgIconWidget::itemBase</title>
<polygon fill="#ffffff" stroke="transparent" points="-4,4 -4,-198.5 869,-198.5 869,4 -4,4"/>
<!-- Node36 -->
<g id="node1" class="node">
<title>Node36</title>
<g id="a_node1"><a xlink:title=" ">
<polygon fill="#bfbfbf" stroke="#000000" points="723,-76.5 723,-95.5 865,-95.5 865,-76.5 723,-76.5"/>
<text text-anchor="middle" x="794" y="-83.5" font-family="Helvetica,sans-Serif" font-size="10.00" fill="#000000">SvgIconWidget::itemBase</text>
</a>
</g>
</g>
<!-- Node37 -->
<g id="node2" class="node">
<title>Node37</title>
<g id="a_node2"><a xlink:href="../../d8/dee/classPartsBinIconView.html#a4e2e63e3efdb5a5d372f968cff85124f" target="_top" xlink:title=" ">
<polygon fill="#ffffff" stroke="#000000" points="520.5,-164 520.5,-194 685.5,-194 685.5,-164 520.5,-164"/>
<text text-anchor="start" x="528.5" y="-182" font-family="Helvetica,sans-Serif" font-size="10.00" fill="#000000">PartsBinIconView::mousePress</text>
<text text-anchor="middle" x="603" y="-171" font-family="Helvetica,sans-Serif" font-size="10.00" fill="#000000">Event</text>
</a>
</g>
</g>
<!-- Node36&#45;&gt;Node37 -->
<g id="edge1" class="edge">
<title>Node36&#45;&gt;Node37</title>
<path fill="none" stroke="#191970" d="M773.7828,-101.6369C753.0089,-117.0611 719.2375,-140.3894 687,-155 679.6784,-158.3183 671.788,-161.2913 663.8781,-163.9197"/>
<polygon fill="#191970" stroke="#191970" points="775.9682,-104.3726 781.8478,-95.5589 771.7552,-98.7823 775.9682,-104.3726"/>
</g>
<!-- Node38 -->
<g id="node3" class="node">
<title>Node38</title>
<g id="a_node3"><a xlink:href="../../d8/dee/classPartsBinIconView.html#af541674e24eeeede01ee29ee9703977a" target="_top" xlink:title=" ">
<polygon fill="#ffffff" stroke="#000000" points="529.5,-115 529.5,-145 676.5,-145 676.5,-115 529.5,-115"/>
<text text-anchor="start" x="537.5" y="-133" font-family="Helvetica,sans-Serif" font-size="10.00" fill="#000000">PartsBinIconView::selected</text>
<text text-anchor="middle" x="603" y="-122" font-family="Helvetica,sans-Serif" font-size="10.00" fill="#000000">ItemBase</text>
</a>
</g>
</g>
<!-- Node36&#45;&gt;Node38 -->
<g id="edge2" class="edge">
<title>Node36&#45;&gt;Node38</title>
<path fill="none" stroke="#191970" d="M742.7201,-97.8132C719.8707,-103.0769 692.687,-109.3391 668.3974,-114.9346"/>
<polygon fill="#191970" stroke="#191970" points="743.5968,-101.203 752.5558,-95.5473 742.0253,-94.3816 743.5968,-101.203"/>
</g>
<!-- Node39 -->
<g id="node4" class="node">
<title>Node39</title>
<g id="a_node4"><a xlink:href="../../d8/dee/classPartsBinIconView.html#ab67ba038dd78067e5026cf7a9f2b6aee" target="_top" xlink:title=" ">
<polygon fill="#ffffff" stroke="#000000" points="328,-38.5 328,-57.5 483,-57.5 483,-38.5 328,-38.5"/>
<text text-anchor="middle" x="405.5" y="-45.5" font-family="Helvetica,sans-Serif" font-size="10.00" fill="#000000">PartsBinIconView::reloadPart</text>
</a>
</g>
</g>
<!-- Node36&#45;&gt;Node39 -->
<g id="edge3" class="edge">
<title>Node36&#45;&gt;Node39</title>
<path fill="none" stroke="#191970" d="M712.8728,-82.4628C658.0097,-79.5637 583.9885,-74.6664 519,-67 498.2657,-64.5541 475.5465,-60.9391 455.9179,-57.517"/>
<polygon fill="#191970" stroke="#191970" points="712.72,-85.9595 722.8875,-82.9811 713.0818,-78.9689 712.72,-85.9595"/>
</g>
<!-- Node42 -->
<g id="node7" class="node">
<title>Node42</title>
<g id="a_node7"><a xlink:href="../../d6/d17/classSvgIconWidget.html#aa05a452f67943c6a2e7fd126e77cd7a2" target="_top" xlink:title=" ">
<polygon fill="#ffffff" stroke="#000000" points="519,-38.5 519,-57.5 687,-57.5 687,-38.5 519,-38.5"/>
<text text-anchor="middle" x="603" y="-45.5" font-family="Helvetica,sans-Serif" font-size="10.00" fill="#000000">SvgIconWidget::SvgIconWidget</text>
</a>
</g>
</g>
<!-- Node36&#45;&gt;Node42 -->
<g id="edge6" class="edge">
<title>Node36&#45;&gt;Node42</title>
<path fill="none" stroke="#191970" d="M735.6469,-74.3905C708.4824,-68.986 676.5676,-62.6365 650.8508,-57.5201"/>
<polygon fill="#191970" stroke="#191970" points="735.3119,-77.8924 745.8026,-76.411 736.6778,-71.0269 735.3119,-77.8924"/>
</g>
<!-- Node43 -->
<g id="node8" class="node">
<title>Node43</title>
<g id="a_node8"><a xlink:href="../../d6/d17/classSvgIconWidget.html#ae665f0d7c559ef94cbdd978a64dba2a9" target="_top" xlink:title=" ">
<polygon fill="#ffffff" stroke="#000000" points="524.5,-.5 524.5,-19.5 681.5,-19.5 681.5,-.5 524.5,-.5"/>
<text text-anchor="middle" x="603" y="-7.5" font-family="Helvetica,sans-Serif" font-size="10.00" fill="#000000">SvgIconWidget::setItemBase</text>
</a>
</g>
</g>
<!-- Node36&#45;&gt;Node43 -->
<g id="edge7" class="edge">
<title>Node36&#45;&gt;Node43</title>
<path fill="none" stroke="#191970" d="M770.4015,-71.0531C749.2727,-58.258 717.0742,-40.1815 687,-29 676.9096,-25.2484 665.8505,-22.1042 655.1658,-19.5224"/>
<polygon fill="#191970" stroke="#191970" points="768.6597,-74.0908 779.0116,-76.347 772.3261,-68.1278 768.6597,-74.0908"/>
</g>
<!-- Node40 -->
<g id="node5" class="node">
<title>Node40</title>
<g id="a_node5"><a xlink:href="../../de/d4e/classPartsBinPaletteWidget.html#af79e74c91f480325c48eff1f6a358828" target="_top" xlink:title=" ">
<polygon fill="#ffffff" stroke="#000000" points="167,-33 167,-63 292,-63 292,-33 167,-33"/>
<text text-anchor="start" x="175" y="-51" font-family="Helvetica,sans-Serif" font-size="10.00" fill="#000000">PartsBinPaletteWidget</text>
<text text-anchor="middle" x="229.5" y="-40" font-family="Helvetica,sans-Serif" font-size="10.00" fill="#000000">::reloadPart</text>
</a>
</g>
</g>
<!-- Node39&#45;&gt;Node40 -->
<g id="edge4" class="edge">
<title>Node39&#45;&gt;Node40</title>
<path fill="none" stroke="#191970" d="M317.6498,-48C308.9927,-48 300.3337,-48 292.0078,-48"/>
<polygon fill="#191970" stroke="#191970" points="317.7916,-51.5001 327.7915,-48 317.7915,-44.5001 317.7916,-51.5001"/>
</g>
<!-- Node41 -->
<g id="node6" class="node">
<title>Node41</title>
<g id="a_node6"><a xlink:href="../../d3/d50/classBinManager.html#aba5301323d6d145026af979b136c6c0d" target="_top" xlink:title=" ">
<polygon fill="#ffffff" stroke="#000000" points="0,-38.5 0,-57.5 131,-57.5 131,-38.5 0,-38.5"/>
<text text-anchor="middle" x="65.5" y="-45.5" font-family="Helvetica,sans-Serif" font-size="10.00" fill="#000000">BinManager::reloadPart</text>
</a>
</g>
</g>
<!-- Node40&#45;&gt;Node41 -->
<g id="edge5" class="edge">
<title>Node40&#45;&gt;Node41</title>
<path fill="none" stroke="#191970" d="M156.4255,-48C148.0443,-48 139.5372,-48 131.2601,-48"/>
<polygon fill="#191970" stroke="#191970" points="156.5624,-51.5001 166.5623,-48 156.5623,-44.5001 156.5624,-51.5001"/>
</g>
<!-- Node43&#45;&gt;Node39 -->
<g id="edge8" class="edge">
<title>Node43&#45;&gt;Node39</title>
<path fill="none" stroke="#191970" d="M543.2853,-21.4894C515.1054,-26.9114 481.871,-33.3058 455.1031,-38.4561"/>
<polygon fill="#191970" stroke="#191970" points="544.2588,-24.8664 553.4173,-19.54 542.9361,-17.9925 544.2588,-24.8664"/>
</g>
</g>
</svg>
        <g id="navigator" transform="translate(0 0)" fill="#404254">
                <rect fill="#f2f5e9" fill-opacity="0.5" stroke="#606060" stroke-width=".5" x="0" y="0" width="60" height="60"/>
                <use id="zoomplus" xlink:href="#zoomPlus" x="17" y="9" onmousedown="handleZoom(evt,'in')"/>
                <use id="zoomminus" xlink:href="#zoomMin" x="42" y="9" onmousedown="handleZoom(evt,'out')"/>
                <use id="reset" xlink:href="#resetDef" x="30" y="36" onmousedown="handleReset()"/>
                <g id="arrowUp" xlink:href="#dirArrow" transform="translate(30 24)" onmousedown="handlePan(0,-1)">
                  <use xlink:href="#rim" fill="#404040">
                        <set attributeName="fill" to="#808080" begin="arrowUp.mouseover" end="arrowUp.mouseout"/>
                  </use>
                  <path fill="none" stroke="white" stroke-width="1.5" d="M0,-3.0v7 M-2.5,-0.5L0,-3.0L2.5,-0.5"/>
                </g>
                <g id="arrowRight" xlink:href="#dirArrow" transform="rotate(90) translate(36 -43)" onmousedown="handlePan(1,0)">
                  <use xlink:href="#rim" fill="#404040">
                        <set attributeName="fill" to="#808080" begin="arrowRight.mouseover" end="arrowRight.mouseout"/>
                  </use>
                  <path fill="none" stroke="white" stroke-width="1.5" d="M0,-3.0v7 M-2.5,-0.5L0,-3.0L2.5,-0.5"/>
                </g>
                <g id="arrowDown" xlink:href="#dirArrow" transform="rotate(180) translate(-30 -48)" onmousedown="handlePan(0,1)">
                  <use xlink:href="#rim" fill="#404040">
                        <set attributeName="fill" to="#808080" begin="arrowDown.mouseover" end="arrowDown.mouseout"/>
                  </use>
                  <path fill="none" stroke="white" stroke-width="1.5" d="M0,-3.0v7 M-2.5,-0.5L0,-3.0L2.5,-0.5"/>
                </g>
                <g id="arrowLeft" xlink:href="#dirArrow" transform="rotate(270) translate(-36 17)" onmousedown="handlePan(-1,0)">
                  <use xlink:href="#rim" fill="#404040">
                        <set attributeName="fill" to="#808080" begin="arrowLeft.mouseover" end="arrowLeft.mouseout"/>
                  </use>
                  <path fill="none" stroke="white" stroke-width="1.5" d="M0,-3.0v7 M-2.5,-0.5L0,-3.0L2.5,-0.5"/>
                </g>
        </g>
        <svg viewBox="0 0 15 15" width="100%" height="30px" preserveAspectRatio="xMaxYMin meet">
         <g id="arrow_out" transform="scale(0.3 0.3)">
          <a xlink:href="classSvgIconWidget_a738be086ac4106a351117cf8901982e6_icgraph_org.svg" target="_base">
           <rect id="button" ry="5" rx="5" y="6" x="6" height="38" width="38"
                fill="#f2f5e9" fill-opacity="0.5" stroke="#606060" stroke-width="1.0"/>
           <path id="arrow"
             d="M 11.500037,31.436501 C 11.940474,20.09759 22.043105,11.32322 32.158766,21.979434 L 37.068811,17.246167 C 37.068811,17.246167 37.088388,32 37.088388,32 L 22.160133,31.978069 C 22.160133,31.978069 26.997745,27.140456 26.997745,27.140456 C 18.528582,18.264221 13.291696,25.230495 11.500037,31.436501 z"
             style="fill:#404040;"/>
          </a>
         </g>
        </svg>
</svg>
