<?xml version="1.0" encoding="UTF-8" standalone="no"?>
<!DOCTYPE svg PUBLIC "-//W3C//DTD SVG 1.1//EN"
 "http://www.w3.org/Graphics/SVG/1.1/DTD/svg11.dtd">
<!-- Generated by graphviz version 2.40.1 (0)
 -->
<!-- Title: Note::handleZoomChangedSlot Pages: 1 -->
<svg width="467pt" height="28pt"
 viewBox="0.00 0.00 467.00 28.00" xmlns="http://www.w3.org/2000/svg" xmlns:xlink="http://www.w3.org/1999/xlink">
<g id="graph0" class="graph" transform="scale(1 1) rotate(0) translate(4 24)">
<title>Note::handleZoomChangedSlot</title>
<polygon fill="#ffffff" stroke="transparent" points="-4,4 -4,-24 463,-24 463,4 -4,4"/>
<!-- Node664 -->
<g id="node1" class="node">
<title>Node664</title>
<g id="a_node1"><a xlink:title=" ">
<polygon fill="#bfbfbf" stroke="#000000" points="0,-.5 0,-19.5 169,-19.5 169,-.5 0,-.5"/>
<text text-anchor="middle" x="84.5" y="-7.5" font-family="Helvetica,sans-Serif" font-size="10.00" fill="#000000">Note::handleZoomChangedSlot</text>
</a>
</g>
</g>
<!-- Node665 -->
<g id="node2" class="node">
<title>Node665</title>
<g id="a_node2"><a xlink:href="../../dc/d2c/classNote.html#a708a59e31bba4e86715ff6263f2c4df1" target="_top" xlink:title=" ">
<polygon fill="#ffffff" stroke="#000000" points="205,-.5 205,-19.5 310,-19.5 310,-.5 205,-.5"/>
<text text-anchor="middle" x="257.5" y="-7.5" font-family="Helvetica,sans-Serif" font-size="10.00" fill="#000000">Note::positionGrip</text>
</a>
</g>
</g>
<!-- Node664&#45;&gt;Node665 -->
<g id="edge1" class="edge">
<title>Node664&#45;&gt;Node665</title>
<path fill="none" stroke="#191970" d="M169.2262,-10C177.774,-10 186.3448,-10 194.6048,-10"/>
<polygon fill="#191970" stroke="#191970" points="194.8759,-13.5001 204.8759,-10 194.8759,-6.5001 194.8759,-13.5001"/>
</g>
<!-- Node666 -->
<g id="node3" class="node">
<title>Node666</title>
<g id="a_node3"><a xlink:href="../../dc/d2c/classNote.html#ae25f6f876cc5555ba0d439567e10f917" target="_top" xlink:title=" ">
<polygon fill="#ffffff" stroke="#000000" points="346,-.5 346,-19.5 459,-19.5 459,-.5 346,-.5"/>
<text text-anchor="middle" x="402.5" y="-7.5" font-family="Helvetica,sans-Serif" font-size="10.00" fill="#000000">Note::boundingRect</text>
</a>
</g>
</g>
<!-- Node665&#45;&gt;Node666 -->
<g id="edge2" class="edge">
<title>Node665&#45;&gt;Node666</title>
<path fill="none" stroke="#191970" d="M310.2585,-10C318.4332,-10 326.9703,-10 335.4091,-10"/>
<polygon fill="#191970" stroke="#191970" points="335.623,-13.5001 345.623,-10 335.6229,-6.5001 335.623,-13.5001"/>
</g>
</g>
</svg>
