<?xml version="1.0" encoding="UTF-8" standalone="no"?>
<!DOCTYPE svg PUBLIC "-//W3C//DTD SVG 1.1//EN"
 "http://www.w3.org/Graphics/SVG/1.1/DTD/svg11.dtd">
<!-- Generated by graphviz version 2.40.1 (0)
 -->
<!-- Title: Console Pages: 1 -->
<svg width="211pt" height="237pt"
 viewBox="0.00 0.00 210.50 237.00" xmlns="http://www.w3.org/2000/svg" xmlns:xlink="http://www.w3.org/1999/xlink">
<g id="graph0" class="graph" transform="scale(1 1) rotate(0) translate(4 233)">
<title>Console</title>
<polygon fill="#ffffff" stroke="transparent" points="-4,4 -4,-233 206.5,-233 206.5,4 -4,4"/>
<!-- Node2 -->
<g id="node1" class="node">
<title>Node2</title>
<g id="a_node1"><a xlink:title=" ">
<polygon fill="#bfbfbf" stroke="#000000" points="6,-.5 6,-123.5 161,-123.5 161,-.5 6,-.5"/>
<text text-anchor="middle" x="83.5" y="-111.5" font-family="Helvetica,sans-Serif" font-size="10.00" fill="#000000">Console</text>
<polyline fill="none" stroke="#000000" points="6,-104.5 161,-104.5 "/>
<text text-anchor="middle" x="83.5" y="-92.5" font-family="Helvetica,sans-Serif" font-size="10.00" fill="#000000"> </text>
<polyline fill="none" stroke="#000000" points="6,-85.5 161,-85.5 "/>
<text text-anchor="start" x="14" y="-73.5" font-family="Helvetica,sans-Serif" font-size="10.00" fill="#000000">+ Console()</text>
<text text-anchor="start" x="14" y="-62.5" font-family="Helvetica,sans-Serif" font-size="10.00" fill="#000000">+ putData()</text>
<text text-anchor="start" x="14" y="-51.5" font-family="Helvetica,sans-Serif" font-size="10.00" fill="#000000">+ setLocalEchoEnabled()</text>
<text text-anchor="start" x="14" y="-40.5" font-family="Helvetica,sans-Serif" font-size="10.00" fill="#000000"># contextMenuEvent()</text>
<text text-anchor="start" x="14" y="-29.5" font-family="Helvetica,sans-Serif" font-size="10.00" fill="#000000"># keyPressEvent()</text>
<text text-anchor="start" x="14" y="-18.5" font-family="Helvetica,sans-Serif" font-size="10.00" fill="#000000"># mouseDoubleClickEvent()</text>
<text text-anchor="start" x="14" y="-7.5" font-family="Helvetica,sans-Serif" font-size="10.00" fill="#000000"># mousePressEvent()</text>
</a>
</g>
</g>
<!-- Node3 -->
<g id="node2" class="node">
<title>Node3</title>
<g id="a_node2"><a xlink:href="../../df/d93/classQPlainTextEdit.html" target="_top" xlink:title=" ">
<polygon fill="#ffffff" stroke="#000000" points="0,-171.5 0,-228.5 87,-228.5 87,-171.5 0,-171.5"/>
<text text-anchor="middle" x="43.5" y="-216.5" font-family="Helvetica,sans-Serif" font-size="10.00" fill="#000000">QPlainTextEdit</text>
<polyline fill="none" stroke="#000000" points="0,-209.5 87,-209.5 "/>
<text text-anchor="middle" x="43.5" y="-197.5" font-family="Helvetica,sans-Serif" font-size="10.00" fill="#000000"> </text>
<polyline fill="none" stroke="#000000" points="0,-190.5 87,-190.5 "/>
<text text-anchor="middle" x="43.5" y="-178.5" font-family="Helvetica,sans-Serif" font-size="10.00" fill="#000000"> </text>
</a>
</g>
</g>
<!-- Node3&#45;&gt;Node2 -->
<g id="edge1" class="edge">
<title>Node3&#45;&gt;Node2</title>
<path fill="none" stroke="#191970" d="M54.6627,-161.4886C58.075,-149.7162 61.9169,-136.4619 65.6569,-123.5587"/>
<polygon fill="none" stroke="#191970" points="51.2104,-160.8272 51.788,-171.4063 57.9337,-162.7761 51.2104,-160.8272"/>
</g>
<!-- Node4 -->
<g id="node3" class="node">
<title>Node4</title>
<g id="a_node3"><a xlink:title=" ">
<polygon fill="#ffffff" stroke="#bfbfbf" points="105.5,-171.5 105.5,-228.5 143.5,-228.5 143.5,-171.5 105.5,-171.5"/>
<text text-anchor="middle" x="124.5" y="-216.5" font-family="Helvetica,sans-Serif" font-size="10.00" fill="#000000">bool</text>
<polyline fill="none" stroke="#bfbfbf" points="105.5,-209.5 143.5,-209.5 "/>
<text text-anchor="middle" x="124.5" y="-197.5" font-family="Helvetica,sans-Serif" font-size="10.00" fill="#000000"> </text>
<polyline fill="none" stroke="#bfbfbf" points="105.5,-190.5 143.5,-190.5 "/>
<text text-anchor="middle" x="124.5" y="-178.5" font-family="Helvetica,sans-Serif" font-size="10.00" fill="#000000"> </text>
</a>
</g>
</g>
<!-- Node4&#45;&gt;Node2 -->
<g id="edge2" class="edge">
<title>Node4&#45;&gt;Node2</title>
<path fill="none" stroke="#404040" d="M116.0048,-171.4063C112.8442,-160.7682 109.0957,-148.1515 105.2878,-135.3346"/>
<polygon fill="none" stroke="#404040" points="105.2068,-135.0617 99.6636,-130.4494 101.7892,-123.5587 107.3323,-128.171 105.2068,-135.0617"/>
<text text-anchor="middle" x="156" y="-145" font-family="Helvetica,sans-Serif" font-size="10.00" fill="#000000"> &#45;localEchoEnabled</text>
</g>
</g>
</svg>
