<?xml version="1.0" encoding="UTF-8" standalone="no"?>
<!DOCTYPE svg PUBLIC "-//W3C//DTD SVG 1.1//EN"
 "http://www.w3.org/Graphics/SVG/1.1/DTD/svg11.dtd">
<!-- Generated by graphviz version 2.40.1 (0)
 -->
<!-- Title: PCBSketchWidget::getViaSize Pages: 1 -->
<svg width="536pt" height="78pt"
 viewBox="0.00 0.00 536.00 77.50" xmlns="http://www.w3.org/2000/svg" xmlns:xlink="http://www.w3.org/1999/xlink">
<g id="graph0" class="graph" transform="scale(1 1) rotate(0) translate(4 73.5)">
<title>PCBSketchWidget::getViaSize</title>
<polygon fill="#ffffff" stroke="transparent" points="-4,4 -4,-73.5 532,-73.5 532,4 -4,4"/>
<!-- Node3023 -->
<g id="node1" class="node">
<title>Node3023</title>
<g id="a_node1"><a xlink:title=" ">
<polygon fill="#bfbfbf" stroke="#000000" points="0,-28 0,-47 161,-47 161,-28 0,-28"/>
<text text-anchor="middle" x="80.5" y="-35" font-family="Helvetica,sans-Serif" font-size="10.00" fill="#000000">PCBSketchWidget::getViaSize</text>
</a>
</g>
</g>
<!-- Node3024 -->
<g id="node2" class="node">
<title>Node3024</title>
<g id="a_node2"><a xlink:href="../../de/db8/classTextUtils.html#a53e674684a7ceb29e742cae16c5e246b" target="_top" xlink:title=" ">
<polygon fill="#ffffff" stroke="#000000" points="205.5,-50 205.5,-69 349.5,-69 349.5,-50 205.5,-50"/>
<text text-anchor="middle" x="277.5" y="-57" font-family="Helvetica,sans-Serif" font-size="10.00" fill="#000000">TextUtils::convertToInches</text>
</a>
</g>
</g>
<!-- Node3023&#45;&gt;Node3024 -->
<g id="edge1" class="edge">
<title>Node3023&#45;&gt;Node3024</title>
<path fill="none" stroke="#191970" d="M161.1959,-46.5117C172.4227,-47.7655 183.9687,-49.0549 195.2242,-50.3118"/>
<polygon fill="#191970" stroke="#191970" points="195.1349,-53.8235 205.4616,-51.4551 195.9118,-46.8668 195.1349,-53.8235"/>
</g>
<!-- Node3026 -->
<g id="node4" class="node">
<title>Node3026</title>
<g id="a_node4"><a xlink:href="../../df/dbf/classPCBSketchWidget.html#ac4d58372dd3b2eea4fd2fcc278deacd0" target="_top" xlink:title=" ">
<polygon fill="#ffffff" stroke="#000000" points="197,-.5 197,-30.5 358,-30.5 358,-.5 197,-.5"/>
<text text-anchor="start" x="205" y="-18.5" font-family="Helvetica,sans-Serif" font-size="10.00" fill="#000000">PCBSketchWidget::getDefault</text>
<text text-anchor="middle" x="277.5" y="-7.5" font-family="Helvetica,sans-Serif" font-size="10.00" fill="#000000">ViaSize</text>
</a>
</g>
</g>
<!-- Node3023&#45;&gt;Node3026 -->
<g id="edge3" class="edge">
<title>Node3023&#45;&gt;Node3026</title>
<path fill="none" stroke="#191970" d="M161.1959,-28.4883C169.6733,-27.5416 178.3327,-26.5745 186.9115,-25.6165"/>
<polygon fill="#191970" stroke="#191970" points="187.3799,-29.086 196.9296,-24.4977 186.6029,-22.1293 187.3799,-29.086"/>
</g>
<!-- Node3025 -->
<g id="node3" class="node">
<title>Node3025</title>
<g id="a_node3"><a xlink:href="../../de/db8/classTextUtils.html#a081f65f326bccb69ddec2919b692c479" target="_top" xlink:title=" ">
<polygon fill="#ffffff" stroke="#000000" points="394,-50 394,-69 528,-69 528,-50 394,-50"/>
<text text-anchor="middle" x="461" y="-57" font-family="Helvetica,sans-Serif" font-size="10.00" fill="#000000">TextUtils::chopNotDigits</text>
</a>
</g>
</g>
<!-- Node3024&#45;&gt;Node3025 -->
<g id="edge2" class="edge">
<title>Node3024&#45;&gt;Node3025</title>
<path fill="none" stroke="#191970" d="M349.7606,-59.5C360.8948,-59.5 372.4304,-59.5 383.6699,-59.5"/>
<polygon fill="#191970" stroke="#191970" points="383.8886,-63.0001 393.8886,-59.5 383.8885,-56.0001 383.8886,-63.0001"/>
</g>
</g>
</svg>
