<?xml version="1.0" encoding="UTF-8" standalone="no"?>
<!DOCTYPE svg PUBLIC "-//W3C//DTD SVG 1.1//EN"
 "http://www.w3.org/Graphics/SVG/1.1/DTD/svg11.dtd">
<!-- Generated by graphviz version 2.40.1 (0)
 -->
<!-- Title: PCBSketchWidget::getLabelViewLayerID Pages: 1 -->
<svg width="366pt" height="66pt"
 viewBox="0.00 0.00 366.00 66.00" xmlns="http://www.w3.org/2000/svg" xmlns:xlink="http://www.w3.org/1999/xlink">
<g id="graph0" class="graph" transform="scale(1 1) rotate(0) translate(4 62)">
<title>PCBSketchWidget::getLabelViewLayerID</title>
<polygon fill="#ffffff" stroke="transparent" points="-4,4 -4,-62 362,-62 362,4 -4,4"/>
<!-- Node2910 -->
<g id="node1" class="node">
<title>Node2910</title>
<g id="a_node1"><a xlink:title=" ">
<polygon fill="#bfbfbf" stroke="#000000" points="0,-14 0,-44 151,-44 151,-14 0,-14"/>
<text text-anchor="start" x="8" y="-32" font-family="Helvetica,sans-Serif" font-size="10.00" fill="#000000">PCBSketchWidget::getLabel</text>
<text text-anchor="middle" x="75.5" y="-21" font-family="Helvetica,sans-Serif" font-size="10.00" fill="#000000">ViewLayerID</text>
</a>
</g>
</g>
<!-- Node2911 -->
<g id="node2" class="node">
<title>Node2911</title>
<g id="a_node2"><a xlink:href="../../d8/d86/classInfoGraphicsView.html#af44db94a38b21694c8bf0d245cac5c4b" target="_top" xlink:title=" ">
<polygon fill="#ffffff" stroke="#000000" points="189,-38.5 189,-57.5 356,-57.5 356,-38.5 189,-38.5"/>
<text text-anchor="middle" x="272.5" y="-45.5" font-family="Helvetica,sans-Serif" font-size="10.00" fill="#000000">InfoGraphicsView::boardLayers</text>
</a>
</g>
</g>
<!-- Node2910&#45;&gt;Node2911 -->
<g id="edge1" class="edge">
<title>Node2910&#45;&gt;Node2911</title>
<path fill="none" stroke="#191970" d="M151.1019,-36.2916C160.1859,-37.1677 169.545,-38.0703 178.8463,-38.9674"/>
<polygon fill="#191970" stroke="#191970" points="178.6109,-42.4609 188.9007,-39.9371 179.2829,-35.4932 178.6109,-42.4609"/>
</g>
<!-- Node2912 -->
<g id="node3" class="node">
<title>Node2912</title>
<g id="a_node3"><a xlink:href="../../d4/d4f/classItemBase.html#a3dd3d84b0fdadf869b2bbd87f42ec156" target="_top" xlink:title=" ">
<polygon fill="#ffffff" stroke="#000000" points="187,-.5 187,-19.5 358,-19.5 358,-.5 187,-.5"/>
<text text-anchor="middle" x="272.5" y="-7.5" font-family="Helvetica,sans-Serif" font-size="10.00" fill="#000000">ItemBase::viewLayerPlacement</text>
</a>
</g>
</g>
<!-- Node2910&#45;&gt;Node2912 -->
<g id="edge2" class="edge">
<title>Node2910&#45;&gt;Node2912</title>
<path fill="none" stroke="#191970" d="M151.1019,-21.7084C159.5247,-20.8961 168.184,-20.0609 176.8144,-19.2286"/>
<polygon fill="#191970" stroke="#191970" points="177.2988,-22.6982 186.9166,-18.2542 176.6268,-15.7305 177.2988,-22.6982"/>
</g>
</g>
</svg>
