<?xml version="1.0" encoding="UTF-8" standalone="no"?>
<!DOCTYPE svg PUBLIC "-//W3C//DTD SVG 1.1//EN"
 "http://www.w3.org/Graphics/SVG/1.1/DTD/svg11.dtd">
<!-- Generated by graphviz version 2.40.1 (0)
 -->
<!-- Title: PCBSketchWidget::calcDistance Pages: 1 -->
<!--zoomable 72 -->
<svg id="main" version="1.1" xmlns="http://www.w3.org/2000/svg" xmlns:xlink="http://www.w3.org/1999/xlink" xml:space="preserve" onload="init(evt)">
<style type="text/css"><![CDATA[
.edge:hover path { stroke: red; }
.edge:hover polygon { stroke: red; fill: red; }
]]></style>
<script type="text/javascript"><![CDATA[
var edges = document.getElementsByTagName('g');
if (edges && edges.length) {
  for (var i=0;i<edges.length;i++) {
    if (edges[i].id.substr(0,4)=='edge') {
      edges[i].setAttribute('class','edge');
    }
  }
}
]]></script>
        <defs>
                <circle id="rim" cx="0" cy="0" r="7"/>
                <circle id="rim2" cx="0" cy="0" r="3.5"/>
                <g id="zoomPlus">
                        <use xlink:href="#rim" fill="#404040">
                                <set attributeName="fill" to="#808080" begin="zoomplus.mouseover" end="zoomplus.mouseout"/>
                        </use>
                        <path d="M-4,0h8M0,-4v8" fill="none" stroke="white" stroke-width="1.5" pointer-events="none"/>
                </g>
                <g id="zoomMin">
                        <use xlink:href="#rim" fill="#404040">
                                <set attributeName="fill" to="#808080" begin="zoomminus.mouseover" end="zoomminus.mouseout"/>
                        </use>
                        <path d="M-4,0h8" fill="none" stroke="white" stroke-width="1.5" pointer-events="none"/>
                </g>
                <g id="dirArrow">
                        <path fill="none" stroke="white" stroke-width="1.5" d="M0,-3.0v7 M-2.5,-0.5L0,-3.0L2.5,-0.5"/>
                </g>
               <g id="resetDef">
                       <use xlink:href="#rim2" fill="#404040">
                               <set attributeName="fill" to="#808080" begin="reset.mouseover" end="reset.mouseout"/>
                       </use>
               </g>
        </defs>

<script type="text/javascript">
var viewWidth = 606;
var viewHeight = 72;
var sectionId = 'dynsection-24';
</script>
<script xlink:href="../../svgpan.js"/>
<svg id="graph" class="graph">
<g id="viewport">
<title>PCBSketchWidget::calcDistance</title>
<polygon fill="#ffffff" stroke="transparent" points="-4,4 -4,-67.5 602,-67.5 602,4 -4,4"/>
<!-- Node1165 -->
<g id="node1" class="node">
<title>Node1165</title>
<g id="a_node1"><a xlink:title=" ">
<polygon fill="#bfbfbf" stroke="#000000" points="427,-.5 427,-19.5 598,-19.5 598,-.5 427,-.5"/>
<text text-anchor="middle" x="512.5" y="-7.5" font-family="Helvetica,sans-Serif" font-size="10.00" fill="#000000">PCBSketchWidget::calcDistance</text>
</a>
</g>
</g>
<!-- Node1166 -->
<g id="node2" class="node">
<title>Node1166</title>
<g id="a_node2"><a xlink:href="../../df/dbf/classPCBSketchWidget.html#af8b24c71f3bf96b0d20191bfe35c680f" target="_top" xlink:title=" ">
<polygon fill="#ffffff" stroke="#000000" points="208,-38.5 208,-57.5 384,-57.5 384,-38.5 208,-38.5"/>
<text text-anchor="middle" x="296" y="-45.5" font-family="Helvetica,sans-Serif" font-size="10.00" fill="#000000">PCBSketchWidget::calcDistances</text>
</a>
</g>
</g>
<!-- Node1165&#45;&gt;Node1166 -->
<g id="edge1" class="edge">
<title>Node1165&#45;&gt;Node1166</title>
<path fill="none" stroke="#191970" d="M448.2571,-21.2759C417.1097,-26.7429 380.1041,-33.2381 350.375,-38.4561"/>
<polygon fill="#191970" stroke="#191970" points="448.903,-24.7161 458.1474,-19.54 447.6928,-17.8215 448.903,-24.7161"/>
</g>
<!-- Node1168 -->
<g id="node4" class="node">
<title>Node1168</title>
<g id="a_node4"><a xlink:href="../../df/dbf/classPCBSketchWidget.html#a7dc10e832f85b93200a51be551958f07" target="_top" xlink:title=" ">
<polygon fill="#ffffff" stroke="#000000" points="201,-.5 201,-19.5 391,-19.5 391,-.5 201,-.5"/>
<text text-anchor="middle" x="296" y="-7.5" font-family="Helvetica,sans-Serif" font-size="10.00" fill="#000000">PCBSketchWidget::calcDistanceAux</text>
</a>
</g>
</g>
<!-- Node1165&#45;&gt;Node1168 -->
<g id="edge3" class="edge">
<title>Node1165&#45;&gt;Node1168</title>
<path fill="none" stroke="#191970" d="M416.7075,-3.2899C408.271,-3.2356 399.7322,-3.2367 391.2997,-3.2931"/>
<polygon fill="#191970" stroke="#191970" points="416.9018,-6.7917 426.9335,-3.3835 416.966,.208 416.9018,-6.7917"/>
</g>
<!-- Node1167 -->
<g id="node3" class="node">
<title>Node1167</title>
<g id="a_node3"><a xlink:href="../../df/dbf/classPCBSketchWidget.html#a30ce69df73f096eaabd1a18a684fe784" target="_top" xlink:title=" ">
<polygon fill="#ffffff" stroke="#000000" points="0,-33 0,-63 165,-63 165,-33 0,-33"/>
<text text-anchor="start" x="8" y="-51" font-family="Helvetica,sans-Serif" font-size="10.00" fill="#000000">PCBSketchWidget::findNearest</text>
<text text-anchor="middle" x="82.5" y="-40" font-family="Helvetica,sans-Serif" font-size="10.00" fill="#000000">PartConnectorItem</text>
</a>
</g>
</g>
<!-- Node1166&#45;&gt;Node1167 -->
<g id="edge2" class="edge">
<title>Node1166&#45;&gt;Node1167</title>
<path fill="none" stroke="#191970" d="M197.5989,-48C186.7727,-48 175.8313,-48 165.2237,-48"/>
<polygon fill="#191970" stroke="#191970" points="197.9288,-51.5001 207.9288,-48 197.9287,-44.5001 197.9288,-51.5001"/>
</g>
<!-- Node1168&#45;&gt;Node1165 -->
<g id="edge4" class="edge">
<title>Node1168&#45;&gt;Node1165</title>
<path fill="none" stroke="#191970" d="M401.3445,-16.7478C409.9217,-16.7606 418.5232,-16.7168 426.9335,-16.6165"/>
<polygon fill="#191970" stroke="#191970" points="401.3139,-13.2478 391.2997,-16.7069 401.2853,-20.2477 401.3139,-13.2478"/>
</g>
</g>
</svg>
        <g id="navigator" transform="translate(0 0)" fill="#404254">
                <rect fill="#f2f5e9" fill-opacity="0.5" stroke="#606060" stroke-width=".5" x="0" y="0" width="60" height="60"/>
                <use id="zoomplus" xlink:href="#zoomPlus" x="17" y="9" onmousedown="handleZoom(evt,'in')"/>
                <use id="zoomminus" xlink:href="#zoomMin" x="42" y="9" onmousedown="handleZoom(evt,'out')"/>
                <use id="reset" xlink:href="#resetDef" x="30" y="36" onmousedown="handleReset()"/>
                <g id="arrowUp" xlink:href="#dirArrow" transform="translate(30 24)" onmousedown="handlePan(0,-1)">
                  <use xlink:href="#rim" fill="#404040">
                        <set attributeName="fill" to="#808080" begin="arrowUp.mouseover" end="arrowUp.mouseout"/>
                  </use>
                  <path fill="none" stroke="white" stroke-width="1.5" d="M0,-3.0v7 M-2.5,-0.5L0,-3.0L2.5,-0.5"/>
                </g>
                <g id="arrowRight" xlink:href="#dirArrow" transform="rotate(90) translate(36 -43)" onmousedown="handlePan(1,0)">
                  <use xlink:href="#rim" fill="#404040">
                        <set attributeName="fill" to="#808080" begin="arrowRight.mouseover" end="arrowRight.mouseout"/>
                  </use>
                  <path fill="none" stroke="white" stroke-width="1.5" d="M0,-3.0v7 M-2.5,-0.5L0,-3.0L2.5,-0.5"/>
                </g>
                <g id="arrowDown" xlink:href="#dirArrow" transform="rotate(180) translate(-30 -48)" onmousedown="handlePan(0,1)">
                  <use xlink:href="#rim" fill="#404040">
                        <set attributeName="fill" to="#808080" begin="arrowDown.mouseover" end="arrowDown.mouseout"/>
                  </use>
                  <path fill="none" stroke="white" stroke-width="1.5" d="M0,-3.0v7 M-2.5,-0.5L0,-3.0L2.5,-0.5"/>
                </g>
                <g id="arrowLeft" xlink:href="#dirArrow" transform="rotate(270) translate(-36 17)" onmousedown="handlePan(-1,0)">
                  <use xlink:href="#rim" fill="#404040">
                        <set attributeName="fill" to="#808080" begin="arrowLeft.mouseover" end="arrowLeft.mouseout"/>
                  </use>
                  <path fill="none" stroke="white" stroke-width="1.5" d="M0,-3.0v7 M-2.5,-0.5L0,-3.0L2.5,-0.5"/>
                </g>
        </g>
        <svg viewBox="0 0 15 15" width="100%" height="30px" preserveAspectRatio="xMaxYMin meet">
         <g id="arrow_out" transform="scale(0.3 0.3)">
          <a xlink:href="classPCBSketchWidget_a904a66dac66cca312b109d27b5537de3_icgraph_org.svg" target="_base">
           <rect id="button" ry="5" rx="5" y="6" x="6" height="38" width="38"
                fill="#f2f5e9" fill-opacity="0.5" stroke="#606060" stroke-width="1.0"/>
           <path id="arrow"
             d="M 11.500037,31.436501 C 11.940474,20.09759 22.043105,11.32322 32.158766,21.979434 L 37.068811,17.246167 C 37.068811,17.246167 37.088388,32 37.088388,32 L 22.160133,31.978069 C 22.160133,31.978069 26.997745,27.140456 26.997745,27.140456 C 18.528582,18.264221 13.291696,25.230495 11.500037,31.436501 z"
             style="fill:#404040;"/>
          </a>
         </g>
        </svg>
</svg>
