<?xml version="1.0" encoding="UTF-8" standalone="no"?>
<!DOCTYPE svg PUBLIC "-//W3C//DTD SVG 1.1//EN"
 "http://www.w3.org/Graphics/SVG/1.1/DTD/svg11.dtd">
<!-- Generated by graphviz version 2.40.1 (0)
 -->
<!-- Title: PCBSketchWidget::acceptsTrace Pages: 1 -->
<svg width="351pt" height="39pt"
 viewBox="0.00 0.00 351.00 39.00" xmlns="http://www.w3.org/2000/svg" xmlns:xlink="http://www.w3.org/1999/xlink">
<g id="graph0" class="graph" transform="scale(1 1) rotate(0) translate(4 35)">
<title>PCBSketchWidget::acceptsTrace</title>
<polygon fill="#ffffff" stroke="transparent" points="-4,4 -4,-35 347,-35 347,4 -4,4"/>
<!-- Node39 -->
<g id="node1" class="node">
<title>Node39</title>
<g id="a_node1"><a xlink:title=" ">
<polygon fill="#bfbfbf" stroke="#000000" points="0,-.5 0,-30.5 146,-30.5 146,-.5 0,-.5"/>
<text text-anchor="start" x="8" y="-18.5" font-family="Helvetica,sans-Serif" font-size="10.00" fill="#000000">PCBSketchWidget::accepts</text>
<text text-anchor="middle" x="73" y="-7.5" font-family="Helvetica,sans-Serif" font-size="10.00" fill="#000000">Trace</text>
</a>
</g>
</g>
<!-- Node40 -->
<g id="node2" class="node">
<title>Node40</title>
<g id="a_node2"><a xlink:href="../../d3/de8/classViewGeometry.html#a972ab74ff22c5c3d4cb4e587cb8d59fd" target="_top" xlink:title=" ">
<polygon fill="#ffffff" stroke="#000000" points="182,-.5 182,-30.5 343,-30.5 343,-.5 182,-.5"/>
<text text-anchor="start" x="190" y="-18.5" font-family="Helvetica,sans-Serif" font-size="10.00" fill="#000000">ViewGeometry::getSchematic</text>
<text text-anchor="middle" x="262.5" y="-7.5" font-family="Helvetica,sans-Serif" font-size="10.00" fill="#000000">Trace</text>
</a>
</g>
</g>
<!-- Node39&#45;&gt;Node40 -->
<g id="edge1" class="edge">
<title>Node39&#45;&gt;Node40</title>
<path fill="none" stroke="#191970" d="M146.2656,-15.5C154.6498,-15.5 163.2709,-15.5 171.8471,-15.5"/>
<polygon fill="#191970" stroke="#191970" points="171.8774,-19.0001 181.8773,-15.5 171.8773,-12.0001 171.8774,-19.0001"/>
</g>
</g>
</svg>
