<?xml version="1.0" encoding="UTF-8" standalone="no"?>
<!DOCTYPE svg PUBLIC "-//W3C//DTD SVG 1.1//EN"
 "http://www.w3.org/Graphics/SVG/1.1/DTD/svg11.dtd">
<!-- Generated by graphviz version 2.40.1 (0)
 -->
<!-- Title: PCBSketchWidget::getKeepoutMils Pages: 1 -->
<svg width="543pt" height="28pt"
 viewBox="0.00 0.00 543.00 28.00" xmlns="http://www.w3.org/2000/svg" xmlns:xlink="http://www.w3.org/1999/xlink">
<g id="graph0" class="graph" transform="scale(1 1) rotate(0) translate(4 24)">
<title>PCBSketchWidget::getKeepoutMils</title>
<polygon fill="#ffffff" stroke="transparent" points="-4,4 -4,-24 539,-24 539,4 -4,4"/>
<!-- Node2886 -->
<g id="node1" class="node">
<title>Node2886</title>
<g id="a_node1"><a xlink:title=" ">
<polygon fill="#bfbfbf" stroke="#000000" points="0,-.5 0,-19.5 185,-19.5 185,-.5 0,-.5"/>
<text text-anchor="middle" x="92.5" y="-7.5" font-family="Helvetica,sans-Serif" font-size="10.00" fill="#000000">PCBSketchWidget::getKeepoutMils</text>
</a>
</g>
</g>
<!-- Node2887 -->
<g id="node2" class="node">
<title>Node2887</title>
<g id="a_node2"><a xlink:href="../../de/db8/classTextUtils.html#a53e674684a7ceb29e742cae16c5e246b" target="_top" xlink:title=" ">
<polygon fill="#ffffff" stroke="#000000" points="221,-.5 221,-19.5 365,-19.5 365,-.5 221,-.5"/>
<text text-anchor="middle" x="293" y="-7.5" font-family="Helvetica,sans-Serif" font-size="10.00" fill="#000000">TextUtils::convertToInches</text>
</a>
</g>
</g>
<!-- Node2886&#45;&gt;Node2887 -->
<g id="edge1" class="edge">
<title>Node2886&#45;&gt;Node2887</title>
<path fill="none" stroke="#191970" d="M185.1203,-10C193.6551,-10 202.2641,-10 210.6979,-10"/>
<polygon fill="#191970" stroke="#191970" points="210.8816,-13.5001 220.8816,-10 210.8815,-6.5001 210.8816,-13.5001"/>
</g>
<!-- Node2888 -->
<g id="node3" class="node">
<title>Node2888</title>
<g id="a_node3"><a xlink:href="../../de/db8/classTextUtils.html#a081f65f326bccb69ddec2919b692c479" target="_top" xlink:title=" ">
<polygon fill="#ffffff" stroke="#000000" points="401,-.5 401,-19.5 535,-19.5 535,-.5 401,-.5"/>
<text text-anchor="middle" x="468" y="-7.5" font-family="Helvetica,sans-Serif" font-size="10.00" fill="#000000">TextUtils::chopNotDigits</text>
</a>
</g>
</g>
<!-- Node2887&#45;&gt;Node2888 -->
<g id="edge2" class="edge">
<title>Node2887&#45;&gt;Node2888</title>
<path fill="none" stroke="#191970" d="M365.1895,-10C373.5566,-10 382.1163,-10 390.5499,-10"/>
<polygon fill="#191970" stroke="#191970" points="390.753,-13.5001 400.753,-10 390.753,-6.5001 390.753,-13.5001"/>
</g>
</g>
</svg>
