<?xml version="1.0" encoding="UTF-8" standalone="no"?>
<!DOCTYPE svg PUBLIC "-//W3C//DTD SVG 1.1//EN"
 "http://www.w3.org/Graphics/SVG/1.1/DTD/svg11.dtd">
<!-- Generated by graphviz version 2.40.1 (0)
 -->
<!-- Title: PCBSketchWidget::setUpColor Pages: 1 -->
<!--zoomable 299 -->
<svg id="main" version="1.1" xmlns="http://www.w3.org/2000/svg" xmlns:xlink="http://www.w3.org/1999/xlink" xml:space="preserve" onload="init(evt)">
<style type="text/css"><![CDATA[
.edge:hover path { stroke: red; }
.edge:hover polygon { stroke: red; fill: red; }
]]></style>
<script type="text/javascript"><![CDATA[
var edges = document.getElementsByTagName('g');
if (edges && edges.length) {
  for (var i=0;i<edges.length;i++) {
    if (edges[i].id.substr(0,4)=='edge') {
      edges[i].setAttribute('class','edge');
    }
  }
}
]]></script>
        <defs>
                <circle id="rim" cx="0" cy="0" r="7"/>
                <circle id="rim2" cx="0" cy="0" r="3.5"/>
                <g id="zoomPlus">
                        <use xlink:href="#rim" fill="#404040">
                                <set attributeName="fill" to="#808080" begin="zoomplus.mouseover" end="zoomplus.mouseout"/>
                        </use>
                        <path d="M-4,0h8M0,-4v8" fill="none" stroke="white" stroke-width="1.5" pointer-events="none"/>
                </g>
                <g id="zoomMin">
                        <use xlink:href="#rim" fill="#404040">
                                <set attributeName="fill" to="#808080" begin="zoomminus.mouseover" end="zoomminus.mouseout"/>
                        </use>
                        <path d="M-4,0h8" fill="none" stroke="white" stroke-width="1.5" pointer-events="none"/>
                </g>
                <g id="dirArrow">
                        <path fill="none" stroke="white" stroke-width="1.5" d="M0,-3.0v7 M-2.5,-0.5L0,-3.0L2.5,-0.5"/>
                </g>
               <g id="resetDef">
                       <use xlink:href="#rim2" fill="#404040">
                               <set attributeName="fill" to="#808080" begin="reset.mouseover" end="reset.mouseout"/>
                       </use>
               </g>
        </defs>

<script type="text/javascript">
var viewWidth = 1287;
var viewHeight = 299;
var sectionId = 'dynsection-174';
</script>
<script xlink:href="../../svgpan.js"/>
<svg id="graph" class="graph">
<g id="viewport">
<title>PCBSketchWidget::setUpColor</title>
<polygon fill="#ffffff" stroke="transparent" points="-4,4 -4,-295 1283,-295 1283,4 -4,4"/>
<!-- Node5560 -->
<g id="node1" class="node">
<title>Node5560</title>
<g id="a_node1"><a xlink:title=" ">
<polygon fill="#bfbfbf" stroke="#000000" points="0,-124 0,-143 163,-143 163,-124 0,-124"/>
<text text-anchor="middle" x="81.5" y="-131" font-family="Helvetica,sans-Serif" font-size="10.00" fill="#000000">PCBSketchWidget::setUpColor</text>
</a>
</g>
</g>
<!-- Node5561 -->
<g id="node2" class="node">
<title>Node5561</title>
<g id="a_node2"><a xlink:href="../../df/dbf/classPCBSketchWidget.html#acf6173fb2ee2d571b0da0d5e2068c61c" target="_top" xlink:title=" ">
<polygon fill="#ffffff" stroke="#000000" points="204,-260.5 204,-290.5 360,-290.5 360,-260.5 204,-260.5"/>
<text text-anchor="start" x="212" y="-278.5" font-family="Helvetica,sans-Serif" font-size="10.00" fill="#000000">PCBSketchWidget::autoroute</text>
<text text-anchor="middle" x="282" y="-267.5" font-family="Helvetica,sans-Serif" font-size="10.00" fill="#000000">TypePCB</text>
</a>
</g>
</g>
<!-- Node5560&#45;&gt;Node5561 -->
<g id="edge1" class="edge">
<title>Node5560&#45;&gt;Node5561</title>
<path fill="none" stroke="#191970" d="M88.2707,-143.0651C104.6414,-165.4805 148.7463,-221.7509 199,-251.5 201.995,-253.273 205.129,-254.9218 208.3521,-256.4542"/>
<polygon fill="#191970" stroke="#191970" points="207.0627,-259.7099 217.6301,-260.4718 209.8443,-253.2863 207.0627,-259.7099"/>
</g>
<!-- Node5562 -->
<g id="node3" class="node">
<title>Node5562</title>
<g id="a_node3"><a xlink:href="../../df/dbf/classPCBSketchWidget.html#a5ec57a6ff46ed616d0d89dff7b6b2a31" target="_top" xlink:title=" ">
<polygon fill="#ffffff" stroke="#000000" points="201,-211.5 201,-241.5 363,-241.5 363,-211.5 201,-211.5"/>
<text text-anchor="start" x="209" y="-229.5" font-family="Helvetica,sans-Serif" font-size="10.00" fill="#000000">PCBSketchWidget::getSmaller</text>
<text text-anchor="middle" x="282" y="-218.5" font-family="Helvetica,sans-Serif" font-size="10.00" fill="#000000">TraceWidth</text>
</a>
</g>
</g>
<!-- Node5560&#45;&gt;Node5562 -->
<g id="edge2" class="edge">
<title>Node5560&#45;&gt;Node5562</title>
<path fill="none" stroke="#191970" d="M95.3636,-143.1985C116.7463,-157.7895 159.449,-185.4869 199,-202.5 203.6182,-204.4866 208.4498,-206.3643 213.3598,-208.1277"/>
<polygon fill="#191970" stroke="#191970" points="212.2685,-211.4535 222.8631,-211.3764 214.5329,-204.8298 212.2685,-211.4535"/>
</g>
<!-- Node5566 -->
<g id="node7" class="node">
<title>Node5566</title>
<g id="a_node7"><a xlink:href="../../df/dbf/classPCBSketchWidget.html#a71507e82f611a9107f9133707862bc90" target="_top" xlink:title=" ">
<polygon fill="#ffffff" stroke="#000000" points="207,-162.5 207,-192.5 357,-192.5 357,-162.5 207,-162.5"/>
<text text-anchor="start" x="215" y="-180.5" font-family="Helvetica,sans-Serif" font-size="10.00" fill="#000000">PCBSketchWidget::getTrace</text>
<text text-anchor="middle" x="282" y="-169.5" font-family="Helvetica,sans-Serif" font-size="10.00" fill="#000000">Width</text>
</a>
</g>
</g>
<!-- Node5560&#45;&gt;Node5566 -->
<g id="edge6" class="edge">
<title>Node5560&#45;&gt;Node5566</title>
<path fill="none" stroke="#191970" d="M125.0055,-143.0473C147.8818,-148.0676 176.636,-154.3777 203.2649,-160.2215"/>
<polygon fill="#191970" stroke="#191970" points="202.8321,-163.7097 213.3499,-162.4346 204.3326,-156.8724 202.8321,-163.7097"/>
</g>
<!-- Node5567 -->
<g id="node8" class="node">
<title>Node5567</title>
<g id="a_node8"><a xlink:href="../../d4/d4f/classItemBase.html#a27afd199a7ae3c3fd14e88ed0be14420" target="_top" xlink:title=" ">
<polygon fill="#ffffff" stroke="#000000" points="243,-124 243,-143 321,-143 321,-124 243,-124"/>
<text text-anchor="middle" x="282" y="-131" font-family="Helvetica,sans-Serif" font-size="10.00" fill="#000000">ItemBase::id</text>
</a>
</g>
</g>
<!-- Node5560&#45;&gt;Node5567 -->
<g id="edge7" class="edge">
<title>Node5560&#45;&gt;Node5567</title>
<path fill="none" stroke="#191970" d="M163.051,-133.5C186.6089,-133.5 211.595,-133.5 232.554,-133.5"/>
<polygon fill="#191970" stroke="#191970" points="232.806,-137.0001 242.806,-133.5 232.8059,-130.0001 232.806,-137.0001"/>
</g>
<!-- Node5568 -->
<g id="node9" class="node">
<title>Node5568</title>
<g id="a_node9"><a xlink:href="../../dc/d3a/classConnectorItem.html#a9b16da5534e9c375f3ef54bb747f16de" target="_top" xlink:title=" ">
<polygon fill="#ffffff" stroke="#000000" points="199,-86 199,-105 365,-105 365,-86 199,-86"/>
<text text-anchor="middle" x="282" y="-93" font-family="Helvetica,sans-Serif" font-size="10.00" fill="#000000">ConnectorItem::minDimension</text>
</a>
</g>
</g>
<!-- Node5560&#45;&gt;Node5568 -->
<g id="edge8" class="edge">
<title>Node5560&#45;&gt;Node5568</title>
<path fill="none" stroke="#191970" d="M131.8358,-123.96C159.1262,-118.7878 193.042,-112.3599 221.7326,-106.9222"/>
<polygon fill="#191970" stroke="#191970" points="222.4701,-110.3449 231.6435,-105.0439 221.1666,-103.4673 222.4701,-110.3449"/>
</g>
<!-- Node5578 -->
<g id="node19" class="node">
<title>Node5578</title>
<g id="a_node19"><a xlink:href="../../d4/d08/misc_8h.html#aec6ff9c887dc8733e787bf81a01492fd" target="_top" xlink:title=" ">
<polygon fill="#ffffff" stroke="#000000" points="461,-50 461,-69 502,-69 502,-50 461,-50"/>
<text text-anchor="middle" x="481.5" y="-57" font-family="Helvetica,sans-Serif" font-size="10.00" fill="#000000">qMin</text>
</a>
</g>
</g>
<!-- Node5560&#45;&gt;Node5578 -->
<g id="edge20" class="edge">
<title>Node5560&#45;&gt;Node5578</title>
<path fill="none" stroke="#191970" d="M96.3394,-123.9197C117.9343,-110.5469 159.737,-86.7719 199,-76.5 288.1631,-53.1733 398.332,-54.9036 450.8536,-57.4949"/>
<polygon fill="#191970" stroke="#191970" points="450.6882,-60.991 460.8623,-58.0349 451.0654,-54.0012 450.6882,-60.991"/>
</g>
<!-- Node5579 -->
<g id="node20" class="node">
<title>Node5579</title>
<g id="a_node20"><a xlink:href="../../df/dbf/classPCBSketchWidget.html#a523751d89feb76b305b33b406c559638" target="_top" xlink:title=" ">
<polygon fill="#ffffff" stroke="#000000" points="202.5,-9 202.5,-28 361.5,-28 361.5,-9 202.5,-9"/>
<text text-anchor="middle" x="282" y="-16" font-family="Helvetica,sans-Serif" font-size="10.00" fill="#000000">PCBSketchWidget::traceColor</text>
</a>
</g>
</g>
<!-- Node5560&#45;&gt;Node5579 -->
<g id="edge21" class="edge">
<title>Node5560&#45;&gt;Node5579</title>
<path fill="none" stroke="#191970" d="M91.3251,-123.9365C110.4881,-105.7756 154.8544,-66.0968 199,-43.5 208.5427,-38.6154 219.2012,-34.5134 229.6158,-31.1368"/>
<polygon fill="#191970" stroke="#191970" points="230.9424,-34.3912 239.4817,-28.1198 228.8953,-27.6972 230.9424,-34.3912"/>
</g>
<!-- Node5563 -->
<g id="node4" class="node">
<title>Node5563</title>
<g id="a_node4"><a xlink:href="../../d7/dfe/classGraphicsUtils.html#a7642de202f74f9645bd9c0e886624a77" target="_top" xlink:title=" ">
<polygon fill="#ffffff" stroke="#000000" points="410,-255 410,-274 553,-274 553,-255 410,-255"/>
<text text-anchor="middle" x="481.5" y="-262" font-family="Helvetica,sans-Serif" font-size="10.00" fill="#000000">GraphicsUtils::mils2pixels</text>
</a>
</g>
</g>
<!-- Node5562&#45;&gt;Node5563 -->
<g id="edge3" class="edge">
<title>Node5562&#45;&gt;Node5563</title>
<path fill="none" stroke="#191970" d="M360.8477,-241.5186C381.066,-245.3697 402.4839,-249.4493 421.5736,-253.0855"/>
<polygon fill="#191970" stroke="#191970" points="421.1418,-256.5661 431.6202,-254.9991 422.4517,-249.6897 421.1418,-256.5661"/>
</g>
<!-- Node5564 -->
<g id="node5" class="node">
<title>Node5564</title>
<g id="a_node5"><a xlink:href="../../d7/dfe/classGraphicsUtils.html#aae1c13856f597c6370e8cb2255cefe19" target="_top" xlink:title=" ">
<polygon fill="#ffffff" stroke="#000000" points="410,-217 410,-236 553,-236 553,-217 410,-217"/>
<text text-anchor="middle" x="481.5" y="-224" font-family="Helvetica,sans-Serif" font-size="10.00" fill="#000000">GraphicsUtils::pixels2mils</text>
</a>
</g>
</g>
<!-- Node5562&#45;&gt;Node5564 -->
<g id="edge4" class="edge">
<title>Node5562&#45;&gt;Node5564</title>
<path fill="none" stroke="#191970" d="M363.1443,-226.5C375.1961,-226.5 387.6236,-226.5 399.689,-226.5"/>
<polygon fill="#191970" stroke="#191970" points="399.7226,-230.0001 409.7226,-226.5 399.7225,-223.0001 399.7226,-230.0001"/>
</g>
<!-- Node5565 -->
<g id="node6" class="node">
<title>Node5565</title>
<g id="a_node6"><a xlink:href="../../d4/d08/misc_8h.html#ae7cc352fa1dc81e57ff53ebbc762f27d" target="_top" xlink:title=" ">
<polygon fill="#ffffff" stroke="#000000" points="459.5,-179 459.5,-198 503.5,-198 503.5,-179 459.5,-179"/>
<text text-anchor="middle" x="481.5" y="-186" font-family="Helvetica,sans-Serif" font-size="10.00" fill="#000000">qMax</text>
</a>
</g>
</g>
<!-- Node5562&#45;&gt;Node5565 -->
<g id="edge5" class="edge">
<title>Node5562&#45;&gt;Node5565</title>
<path fill="none" stroke="#191970" d="M360.8477,-211.4814C391.7765,-205.5902 425.5125,-199.1643 449.4271,-194.6091"/>
<polygon fill="#191970" stroke="#191970" points="450.1893,-198.027 459.3578,-192.7176 448.8795,-191.1506 450.1893,-198.027"/>
</g>
<!-- Node5569 -->
<g id="node10" class="node">
<title>Node5569</title>
<g id="a_node10"><a xlink:href="../../dc/d3a/classConnectorItem.html#a2045619a56ca49be918d0c2b13698cd1" target="_top" xlink:title=" ">
<polygon fill="#ffffff" stroke="#000000" points="401,-88 401,-107 562,-107 562,-88 401,-88"/>
<text text-anchor="middle" x="481.5" y="-95" font-family="Helvetica,sans-Serif" font-size="10.00" fill="#000000">ConnectorItem::boundingRect</text>
</a>
</g>
</g>
<!-- Node5568&#45;&gt;Node5569 -->
<g id="edge9" class="edge">
<title>Node5568&#45;&gt;Node5569</title>
<path fill="none" stroke="#191970" d="M365.1613,-96.3337C373.5224,-96.4175 382.0435,-96.5029 390.4807,-96.5875"/>
<polygon fill="#191970" stroke="#191970" points="390.6794,-100.0896 400.7141,-96.6901 390.7497,-93.0899 390.6794,-100.0896"/>
</g>
<!-- Node5568&#45;&gt;Node5578 -->
<g id="edge19" class="edge">
<title>Node5568&#45;&gt;Node5578</title>
<path fill="none" stroke="#191970" d="M334.6772,-85.9943C371.6465,-79.3232 419.8087,-70.6323 450.6991,-65.0581"/>
<polygon fill="#191970" stroke="#191970" points="451.6389,-68.4451 460.8584,-63.2248 450.3958,-61.5563 451.6389,-68.4451"/>
</g>
<!-- Node5570 -->
<g id="node11" class="node">
<title>Node5570</title>
<g id="a_node11"><a xlink:href="../../dc/d3a/classConnectorItem.html#aee474fae810819d009f977ff02b26b61" target="_top" xlink:title=" ">
<polygon fill="#ffffff" stroke="#000000" points="598,-88 598,-107 722,-107 722,-88 598,-88"/>
<text text-anchor="middle" x="660" y="-95" font-family="Helvetica,sans-Serif" font-size="10.00" fill="#000000">ConnectorItem::shape</text>
</a>
</g>
</g>
<!-- Node5569&#45;&gt;Node5570 -->
<g id="edge10" class="edge">
<title>Node5569&#45;&gt;Node5570</title>
<path fill="none" stroke="#191970" d="M562.1333,-97.5C570.6722,-97.5 579.3173,-97.5 587.752,-97.5"/>
<polygon fill="#191970" stroke="#191970" points="587.9149,-101.0001 597.9148,-97.5 587.9148,-94.0001 587.9149,-101.0001"/>
</g>
<!-- Node5571 -->
<g id="node12" class="node">
<title>Node5571</title>
<g id="a_node12"><a xlink:href="../../dc/d3a/classConnectorItem.html#ad11738366c01ae4faf2a8314f013e8f8" target="_top" xlink:title=" ">
<polygon fill="#ffffff" stroke="#000000" points="758,-88 758,-107 901,-107 901,-88 758,-88"/>
<text text-anchor="middle" x="829.5" y="-95" font-family="Helvetica,sans-Serif" font-size="10.00" fill="#000000">ConnectorItem::shapeAux</text>
</a>
</g>
</g>
<!-- Node5570&#45;&gt;Node5571 -->
<g id="edge11" class="edge">
<title>Node5570&#45;&gt;Node5571</title>
<path fill="none" stroke="#191970" d="M722.1531,-97.5C730.5059,-97.5 739.1748,-97.5 747.8013,-97.5"/>
<polygon fill="#191970" stroke="#191970" points="747.8874,-101.0001 757.8874,-97.5 747.8873,-94.0001 747.8874,-101.0001"/>
</g>
<!-- Node5572 -->
<g id="node13" class="node">
<title>Node5572</title>
<g id="a_node13"><a xlink:href="../../d8/d3c/classBezier.html#a2414f8c161c4a4fed536113237cb35ec" target="_top" xlink:title=" ">
<polygon fill="#ffffff" stroke="#000000" points="973,-183 973,-202 1044,-202 1044,-183 973,-183"/>
<text text-anchor="middle" x="1008.5" y="-190" font-family="Helvetica,sans-Serif" font-size="10.00" fill="#000000">Bezier::cp0</text>
</a>
</g>
</g>
<!-- Node5571&#45;&gt;Node5572 -->
<g id="edge12" class="edge">
<title>Node5571&#45;&gt;Node5572</title>
<path fill="none" stroke="#191970" d="M840.2814,-107.1402C858.7702,-123.1847 898.2856,-155.3892 937,-173.5 945.1147,-177.2961 954.1153,-180.4341 962.9167,-182.9908"/>
<polygon fill="#191970" stroke="#191970" points="962.1446,-186.4076 972.7112,-185.6344 963.9688,-179.6494 962.1446,-186.4076"/>
</g>
<!-- Node5573 -->
<g id="node14" class="node">
<title>Node5573</title>
<g id="a_node14"><a xlink:href="../../d8/d3c/classBezier.html#ab31ae58e9814f75281175355a1b1abe1" target="_top" xlink:title=" ">
<polygon fill="#ffffff" stroke="#000000" points="973,-145 973,-164 1044,-164 1044,-145 973,-145"/>
<text text-anchor="middle" x="1008.5" y="-152" font-family="Helvetica,sans-Serif" font-size="10.00" fill="#000000">Bezier::cp1</text>
</a>
</g>
</g>
<!-- Node5571&#45;&gt;Node5573 -->
<g id="edge13" class="edge">
<title>Node5571&#45;&gt;Node5573</title>
<path fill="none" stroke="#191970" d="M854.938,-107.1402C876.6003,-115.1929 908.6317,-126.7322 937,-135.5 945.2908,-138.0624 954.1855,-140.5957 962.7879,-142.9367"/>
<polygon fill="#191970" stroke="#191970" points="962.1337,-146.3847 972.6985,-145.5868 963.9421,-139.6223 962.1337,-146.3847"/>
</g>
<!-- Node5574 -->
<g id="node15" class="node">
<title>Node5574</title>
<g id="a_node15"><a xlink:href="../../d8/d3c/classBezier.html#aec0fe0ef3264fbc54ca7e5808470f1ac" target="_top" xlink:title=" ">
<polygon fill="#ffffff" stroke="#000000" points="962,-107 962,-126 1055,-126 1055,-107 962,-107"/>
<text text-anchor="middle" x="1008.5" y="-114" font-family="Helvetica,sans-Serif" font-size="10.00" fill="#000000">Bezier::isEmpty</text>
</a>
</g>
</g>
<!-- Node5571&#45;&gt;Node5574 -->
<g id="edge14" class="edge">
<title>Node5571&#45;&gt;Node5574</title>
<path fill="none" stroke="#191970" d="M901.0172,-105.0912C917.7924,-106.8718 935.4468,-108.7457 951.4896,-110.4486"/>
<polygon fill="#191970" stroke="#191970" points="951.4603,-113.9651 961.7739,-111.5402 952.1992,-107.0042 951.4603,-113.9651"/>
</g>
<!-- Node5575 -->
<g id="node16" class="node">
<title>Node5575</title>
<g id="a_node16"><a xlink:href="../../dc/d3a/classConnectorItem.html#ab56e4b282be8f23cbba342aa52373428" target="_top" xlink:title=" ">
<polygon fill="#ffffff" stroke="#000000" points="944.5,-69 944.5,-88 1072.5,-88 1072.5,-69 944.5,-69"/>
<text text-anchor="middle" x="1008.5" y="-76" font-family="Helvetica,sans-Serif" font-size="10.00" fill="#000000">ConnectorItem::legPen</text>
</a>
</g>
</g>
<!-- Node5571&#45;&gt;Node5575 -->
<g id="edge15" class="edge">
<title>Node5571&#45;&gt;Node5575</title>
<path fill="none" stroke="#191970" d="M901.0172,-89.9088C911.977,-88.7455 923.3121,-87.5423 934.3278,-86.373"/>
<polygon fill="#191970" stroke="#191970" points="934.7599,-89.8469 944.3346,-85.3109 934.021,-82.886 934.7599,-89.8469"/>
</g>
<!-- Node5576 -->
<g id="node17" class="node">
<title>Node5576</title>
<g id="a_node17"><a xlink:href="../../dc/d09/classNonConnectorItem.html#a87a6133cc006daa875ff1f669c632405" target="_top" xlink:title=" ">
<polygon fill="#ffffff" stroke="#000000" points="937,-31 937,-50 1080,-50 1080,-31 937,-31"/>
<text text-anchor="middle" x="1008.5" y="-38" font-family="Helvetica,sans-Serif" font-size="10.00" fill="#000000">NonConnectorItem::shape</text>
</a>
</g>
</g>
<!-- Node5571&#45;&gt;Node5576 -->
<g id="edge16" class="edge">
<title>Node5571&#45;&gt;Node5576</title>
<path fill="none" stroke="#191970" d="M854.938,-87.8598C876.6003,-79.8071 908.6317,-68.2678 937,-59.5 944.5066,-57.18 952.5082,-54.8838 960.3398,-52.7326"/>
<polygon fill="#191970" stroke="#191970" points="961.3756,-56.0784 970.1187,-50.0944 959.5522,-49.32 961.3756,-56.0784"/>
</g>
<!-- Node5577 -->
<g id="node18" class="node">
<title>Node5577</title>
<g id="a_node18"><a xlink:href="../../d7/dfe/classGraphicsUtils.html#a192187e812688be5f5e2cd02b860f26c" target="_top" xlink:title=" ">
<polygon fill="#ffffff" stroke="#000000" points="1116,-12 1116,-31 1279,-31 1279,-12 1116,-12"/>
<text text-anchor="middle" x="1197.5" y="-19" font-family="Helvetica,sans-Serif" font-size="10.00" fill="#000000">GraphicsUtils::shapeFromPath</text>
</a>
</g>
</g>
<!-- Node5571&#45;&gt;Node5577 -->
<g id="edge18" class="edge">
<title>Node5571&#45;&gt;Node5577</title>
<path fill="none" stroke="#191970" d="M838.7251,-87.8464C856.0319,-70.52 895.3949,-34.7217 937,-21.5 1000.9773,-1.1687 1078.3415,-4.4143 1132.0602,-10.7314"/>
<polygon fill="#191970" stroke="#191970" points="1131.7864,-14.2242 1142.142,-11.9856 1132.6506,-7.2778 1131.7864,-14.2242"/>
</g>
<!-- Node5576&#45;&gt;Node5577 -->
<g id="edge17" class="edge">
<title>Node5576&#45;&gt;Node5577</title>
<path fill="none" stroke="#191970" d="M1080.2223,-33.2898C1088.5536,-32.4523 1097.1361,-31.5895 1105.6892,-30.7297"/>
<polygon fill="#191970" stroke="#191970" points="1106.0997,-34.2061 1115.6995,-29.7233 1105.3995,-27.2412 1106.0997,-34.2061"/>
</g>
<!-- Node5580 -->
<g id="node21" class="node">
<title>Node5580</title>
<g id="a_node21"><a xlink:href="../../dc/d3a/classConnectorItem.html#aa255a20e50fe55ef1b3726abcd357991" target="_top" xlink:title=" ">
<polygon fill="#ffffff" stroke="#000000" points="407.5,-.5 407.5,-30.5 555.5,-30.5 555.5,-.5 407.5,-.5"/>
<text text-anchor="start" x="415.5" y="-18.5" font-family="Helvetica,sans-Serif" font-size="10.00" fill="#000000">ConnectorItem::attachedTo</text>
<text text-anchor="middle" x="481.5" y="-7.5" font-family="Helvetica,sans-Serif" font-size="10.00" fill="#000000">ViewLayerID</text>
</a>
</g>
</g>
<!-- Node5579&#45;&gt;Node5580 -->
<g id="edge22" class="edge">
<title>Node5579&#45;&gt;Node5580</title>
<path fill="none" stroke="#191970" d="M361.7078,-17.3014C373.3758,-17.1259 385.4255,-16.9447 397.1821,-16.7679"/>
<polygon fill="#191970" stroke="#191970" points="397.475,-20.264 407.4212,-16.614 397.3697,-13.2648 397.475,-20.264"/>
</g>
</g>
</svg>
        <g id="navigator" transform="translate(0 0)" fill="#404254">
                <rect fill="#f2f5e9" fill-opacity="0.5" stroke="#606060" stroke-width=".5" x="0" y="0" width="60" height="60"/>
                <use id="zoomplus" xlink:href="#zoomPlus" x="17" y="9" onmousedown="handleZoom(evt,'in')"/>
                <use id="zoomminus" xlink:href="#zoomMin" x="42" y="9" onmousedown="handleZoom(evt,'out')"/>
                <use id="reset" xlink:href="#resetDef" x="30" y="36" onmousedown="handleReset()"/>
                <g id="arrowUp" xlink:href="#dirArrow" transform="translate(30 24)" onmousedown="handlePan(0,-1)">
                  <use xlink:href="#rim" fill="#404040">
                        <set attributeName="fill" to="#808080" begin="arrowUp.mouseover" end="arrowUp.mouseout"/>
                  </use>
                  <path fill="none" stroke="white" stroke-width="1.5" d="M0,-3.0v7 M-2.5,-0.5L0,-3.0L2.5,-0.5"/>
                </g>
                <g id="arrowRight" xlink:href="#dirArrow" transform="rotate(90) translate(36 -43)" onmousedown="handlePan(1,0)">
                  <use xlink:href="#rim" fill="#404040">
                        <set attributeName="fill" to="#808080" begin="arrowRight.mouseover" end="arrowRight.mouseout"/>
                  </use>
                  <path fill="none" stroke="white" stroke-width="1.5" d="M0,-3.0v7 M-2.5,-0.5L0,-3.0L2.5,-0.5"/>
                </g>
                <g id="arrowDown" xlink:href="#dirArrow" transform="rotate(180) translate(-30 -48)" onmousedown="handlePan(0,1)">
                  <use xlink:href="#rim" fill="#404040">
                        <set attributeName="fill" to="#808080" begin="arrowDown.mouseover" end="arrowDown.mouseout"/>
                  </use>
                  <path fill="none" stroke="white" stroke-width="1.5" d="M0,-3.0v7 M-2.5,-0.5L0,-3.0L2.5,-0.5"/>
                </g>
                <g id="arrowLeft" xlink:href="#dirArrow" transform="rotate(270) translate(-36 17)" onmousedown="handlePan(-1,0)">
                  <use xlink:href="#rim" fill="#404040">
                        <set attributeName="fill" to="#808080" begin="arrowLeft.mouseover" end="arrowLeft.mouseout"/>
                  </use>
                  <path fill="none" stroke="white" stroke-width="1.5" d="M0,-3.0v7 M-2.5,-0.5L0,-3.0L2.5,-0.5"/>
                </g>
        </g>
        <svg viewBox="0 0 15 15" width="100%" height="30px" preserveAspectRatio="xMaxYMin meet">
         <g id="arrow_out" transform="scale(0.3 0.3)">
          <a xlink:href="classPCBSketchWidget_a90f4a0fc2bb6099b5ff1e0c3182efca1_cgraph_org.svg" target="_base">
           <rect id="button" ry="5" rx="5" y="6" x="6" height="38" width="38"
                fill="#f2f5e9" fill-opacity="0.5" stroke="#606060" stroke-width="1.0"/>
           <path id="arrow"
             d="M 11.500037,31.436501 C 11.940474,20.09759 22.043105,11.32322 32.158766,21.979434 L 37.068811,17.246167 C 37.068811,17.246167 37.088388,32 37.088388,32 L 22.160133,31.978069 C 22.160133,31.978069 26.997745,27.140456 26.997745,27.140456 C 18.528582,18.264221 13.291696,25.230495 11.500037,31.436501 z"
             style="fill:#404040;"/>
          </a>
         </g>
        </svg>
</svg>
