<?xml version="1.0" encoding="UTF-8" standalone="no"?>
<!DOCTYPE svg PUBLIC "-//W3C//DTD SVG 1.1//EN"
 "http://www.w3.org/Graphics/SVG/1.1/DTD/svg11.dtd">
<!-- Generated by graphviz version 2.40.1 (0)
 -->
<!-- Title: PCBSketchWidget::getDefaultViaSize Pages: 1 -->
<svg width="897pt" height="214pt"
 viewBox="0.00 0.00 897.00 214.00" xmlns="http://www.w3.org/2000/svg" xmlns:xlink="http://www.w3.org/1999/xlink">
<g id="graph0" class="graph" transform="scale(1 1) rotate(0) translate(4 210)">
<title>PCBSketchWidget::getDefaultViaSize</title>
<polygon fill="#ffffff" stroke="transparent" points="-4,4 -4,-210 893,-210 893,4 -4,4"/>
<!-- Node2846 -->
<g id="node1" class="node">
<title>Node2846</title>
<g id="a_node1"><a xlink:title=" ">
<polygon fill="#bfbfbf" stroke="#000000" points="728,-85.5 728,-115.5 889,-115.5 889,-85.5 728,-85.5"/>
<text text-anchor="start" x="736" y="-103.5" font-family="Helvetica,sans-Serif" font-size="10.00" fill="#000000">PCBSketchWidget::getDefault</text>
<text text-anchor="middle" x="808.5" y="-92.5" font-family="Helvetica,sans-Serif" font-size="10.00" fill="#000000">ViaSize</text>
</a>
</g>
</g>
<!-- Node2847 -->
<g id="node2" class="node">
<title>Node2847</title>
<g id="a_node2"><a xlink:href="../../df/dbf/classPCBSketchWidget.html#a648a6ecf55e3bcb078f29f799139cbe2" target="_top" xlink:title=" ">
<polygon fill="#ffffff" stroke="#000000" points="531.5,-126.5 531.5,-156.5 691.5,-156.5 691.5,-126.5 531.5,-126.5"/>
<text text-anchor="start" x="539.5" y="-144.5" font-family="Helvetica,sans-Serif" font-size="10.00" fill="#000000">PCBSketchWidget::autorouter</text>
<text text-anchor="middle" x="611.5" y="-133.5" font-family="Helvetica,sans-Serif" font-size="10.00" fill="#000000">Settings</text>
</a>
</g>
</g>
<!-- Node2846&#45;&gt;Node2847 -->
<g id="edge1" class="edge">
<title>Node2846&#45;&gt;Node2847</title>
<path fill="none" stroke="#191970" d="M726.1118,-117.6468C712.0378,-120.5759 697.5127,-123.5989 683.7282,-126.4677"/>
<polygon fill="#191970" stroke="#191970" points="727.186,-120.9983 736.2631,-115.5341 725.7597,-114.1451 727.186,-120.9983"/>
</g>
<!-- Node2850 -->
<g id="node5" class="node">
<title>Node2850</title>
<g id="a_node5"><a xlink:href="../../df/dbf/classPCBSketchWidget.html#ab9c9425841989e7cfc24260379db0b84" target="_top" xlink:title=" ">
<polygon fill="#ffffff" stroke="#000000" points="531,-69 531,-88 692,-88 692,-69 531,-69"/>
<text text-anchor="middle" x="611.5" y="-76" font-family="Helvetica,sans-Serif" font-size="10.00" fill="#000000">PCBSketchWidget::getViaSize</text>
</a>
</g>
</g>
<!-- Node2846&#45;&gt;Node2850 -->
<g id="edge4" class="edge">
<title>Node2846&#45;&gt;Node2850</title>
<path fill="none" stroke="#191970" d="M717.7845,-90.3693C709.2049,-89.4112 700.546,-88.4442 692.0704,-87.4977"/>
<polygon fill="#191970" stroke="#191970" points="717.4774,-93.8567 727.8041,-91.4883 718.2544,-86.9 717.4774,-93.8567"/>
</g>
<!-- Node2848 -->
<g id="node3" class="node">
<title>Node2848</title>
<g id="a_node3"><a xlink:href="../../df/dbf/classPCBSketchWidget.html#acb15f19907e6babb9a966342dcce57c1" target="_top" xlink:title=" ">
<polygon fill="#ffffff" stroke="#000000" points="319,-175.5 319,-205.5 495,-205.5 495,-175.5 319,-175.5"/>
<text text-anchor="start" x="327" y="-193.5" font-family="Helvetica,sans-Serif" font-size="10.00" fill="#000000">PCBSketchWidget::setAutorouter</text>
<text text-anchor="middle" x="407" y="-182.5" font-family="Helvetica,sans-Serif" font-size="10.00" fill="#000000">Settings</text>
</a>
</g>
</g>
<!-- Node2847&#45;&gt;Node2848 -->
<g id="edge2" class="edge">
<title>Node2847&#45;&gt;Node2848</title>
<path fill="none" stroke="#191970" d="M538.8656,-158.9038C516.2433,-164.3243 491.5043,-170.252 469.6279,-175.4938"/>
<polygon fill="#191970" stroke="#191970" points="539.8443,-162.2685 548.7535,-156.5346 538.2132,-155.4612 539.8443,-162.2685"/>
</g>
<!-- Node2849 -->
<g id="node4" class="node">
<title>Node2849</title>
<g id="a_node4"><a xlink:href="../../de/de6/classSchematicSketchWidget.html#a4cad919201df7fffc903298b96f4c455" target="_top" xlink:title=" ">
<polygon fill="#ffffff" stroke="#000000" points="340,-126.5 340,-156.5 474,-156.5 474,-126.5 340,-126.5"/>
<text text-anchor="start" x="348" y="-144.5" font-family="Helvetica,sans-Serif" font-size="10.00" fill="#000000">SchematicSketchWidget</text>
<text text-anchor="middle" x="407" y="-133.5" font-family="Helvetica,sans-Serif" font-size="10.00" fill="#000000">::setAutorouterSettings</text>
</a>
</g>
</g>
<!-- Node2847&#45;&gt;Node2849 -->
<g id="edge3" class="edge">
<title>Node2847&#45;&gt;Node2849</title>
<path fill="none" stroke="#191970" d="M520.9829,-141.5C505.2322,-141.5 489.1053,-141.5 474.1236,-141.5"/>
<polygon fill="#191970" stroke="#191970" points="521.2632,-145.0001 531.2631,-141.5 521.2631,-138.0001 521.2632,-145.0001"/>
</g>
<!-- Node2851 -->
<g id="node6" class="node">
<title>Node2851</title>
<g id="a_node6"><a xlink:href="../../d1/d67/classMazeRouter.html#a0e1c56746b837fa3e83bd6b9e9fcd309" target="_top" xlink:title=" ">
<polygon fill="#ffffff" stroke="#000000" points="0,-69 0,-88 104,-88 104,-69 0,-69"/>
<text text-anchor="middle" x="52" y="-76" font-family="Helvetica,sans-Serif" font-size="10.00" fill="#000000">MazeRouter::start</text>
</a>
</g>
</g>
<!-- Node2850&#45;&gt;Node2851 -->
<g id="edge5" class="edge">
<title>Node2850&#45;&gt;Node2851</title>
<path fill="none" stroke="#191970" d="M520.6177,-78.5C402.3161,-78.5 199.47,-78.5 104.2486,-78.5"/>
<polygon fill="#191970" stroke="#191970" points="520.7415,-82.0001 530.7414,-78.5 520.7414,-75.0001 520.7415,-82.0001"/>
</g>
<!-- Node2852 -->
<g id="node7" class="node">
<title>Node2852</title>
<g id="a_node7"><a xlink:href="../../d1/d67/classMazeRouter.html#a1129f02e393730b42d04cdf7f9161006" target="_top" xlink:title=" ">
<polygon fill="#ffffff" stroke="#000000" points="338.5,-50 338.5,-69 475.5,-69 475.5,-50 338.5,-50"/>
<text text-anchor="middle" x="407" y="-57" font-family="Helvetica,sans-Serif" font-size="10.00" fill="#000000">MazeRouter::createTrace</text>
</a>
</g>
</g>
<!-- Node2850&#45;&gt;Node2852 -->
<g id="edge6" class="edge">
<title>Node2850&#45;&gt;Node2852</title>
<path fill="none" stroke="#191970" d="M521.0084,-70.0925C505.7503,-68.6748 490.1381,-67.2243 475.5555,-65.8695"/>
<polygon fill="#191970" stroke="#191970" points="520.6888,-73.5778 530.9697,-71.018 521.3364,-66.6078 520.6888,-73.5778"/>
</g>
<!-- Node2854 -->
<g id="node9" class="node">
<title>Node2854</title>
<g id="a_node9"><a xlink:href="../../df/dbf/classPCBSketchWidget.html#a087fb031ad82c87c0f25d8e96acab9e1" target="_top" xlink:title=" ">
<polygon fill="#ffffff" stroke="#000000" points="334,-.5 334,-30.5 480,-30.5 480,-.5 334,-.5"/>
<text text-anchor="start" x="342" y="-18.5" font-family="Helvetica,sans-Serif" font-size="10.00" fill="#000000">PCBSketchWidget::convert</text>
<text text-anchor="middle" x="407" y="-7.5" font-family="Helvetica,sans-Serif" font-size="10.00" fill="#000000">ToVia</text>
</a>
</g>
</g>
<!-- Node2850&#45;&gt;Node2854 -->
<g id="edge9" class="edge">
<title>Node2850&#45;&gt;Node2854</title>
<path fill="none" stroke="#191970" d="M573.7314,-65.773C550.9882,-58.211 521.4115,-48.5558 495,-40.5 484.0622,-37.1638 472.316,-33.7267 461.0812,-30.5093"/>
<polygon fill="#191970" stroke="#191970" points="572.7531,-69.1362 583.3468,-68.9806 574.9683,-62.4959 572.7531,-69.1362"/>
</g>
<!-- Node2853 -->
<g id="node8" class="node">
<title>Node2853</title>
<g id="a_node8"><a xlink:href="../../d1/d67/classMazeRouter.html#ad3096b9a4a1a5d2f7ffd05578924d4db" target="_top" xlink:title=" ">
<polygon fill="#ffffff" stroke="#000000" points="140,-50 140,-69 283,-69 283,-50 140,-50"/>
<text text-anchor="middle" x="211.5" y="-57" font-family="Helvetica,sans-Serif" font-size="10.00" fill="#000000">MazeRouter::createTraces</text>
</a>
</g>
</g>
<!-- Node2852&#45;&gt;Node2853 -->
<g id="edge7" class="edge">
<title>Node2852&#45;&gt;Node2853</title>
<path fill="none" stroke="#191970" d="M328.191,-59.5C313.3533,-59.5 297.9101,-59.5 283.3006,-59.5"/>
<polygon fill="#191970" stroke="#191970" points="328.3489,-63.0001 338.3489,-59.5 328.3489,-56.0001 328.3489,-63.0001"/>
</g>
<!-- Node2853&#45;&gt;Node2851 -->
<g id="edge8" class="edge">
<title>Node2853&#45;&gt;Node2851</title>
<path fill="none" stroke="#191970" d="M129.6032,-69.2557C121.01,-70.2794 112.4501,-71.299 104.3229,-72.2672"/>
<polygon fill="#191970" stroke="#191970" points="130.1664,-72.7135 139.6822,-68.0551 129.3383,-65.7626 130.1664,-72.7135"/>
</g>
</g>
</svg>
