<?xml version="1.0" encoding="UTF-8" standalone="no"?>
<!DOCTYPE svg PUBLIC "-//W3C//DTD SVG 1.1//EN"
 "http://www.w3.org/Graphics/SVG/1.1/DTD/svg11.dtd">
<!-- Generated by graphviz version 2.40.1 (0)
 -->
<!-- Title: utils/flineedit.cpp Pages: 1 -->
<svg width="174pt" height="140pt"
 viewBox="0.00 0.00 173.50 140.00" xmlns="http://www.w3.org/2000/svg" xmlns:xlink="http://www.w3.org/1999/xlink">
<g id="graph0" class="graph" transform="scale(1 1) rotate(0) translate(4 136)">
<title>utils/flineedit.cpp</title>
<polygon fill="#ffffff" stroke="transparent" points="-4,4 -4,-136 169.5,-136 169.5,4 -4,4"/>
<!-- Node0 -->
<g id="node1" class="node">
<title>Node0</title>
<g id="a_node1"><a xlink:title=" ">
<polygon fill="#bfbfbf" stroke="#000000" points="27,-112.5 27,-131.5 128,-131.5 128,-112.5 27,-112.5"/>
<text text-anchor="middle" x="77.5" y="-119.5" font-family="Helvetica,sans-Serif" font-size="10.00" fill="#000000">utils/flineedit.cpp</text>
</a>
</g>
</g>
<!-- Node1 -->
<g id="node2" class="node">
<title>Node1</title>
<g id="a_node2"><a xlink:href="../../d9/d2f/flineedit_8h.html" target="_top" xlink:title=" ">
<polygon fill="#ffffff" stroke="#000000" points="45,-56.5 45,-75.5 110,-75.5 110,-56.5 45,-56.5"/>
<text text-anchor="middle" x="77.5" y="-63.5" font-family="Helvetica,sans-Serif" font-size="10.00" fill="#000000">flineedit.h</text>
</a>
</g>
</g>
<!-- Node0&#45;&gt;Node1 -->
<g id="edge1" class="edge">
<title>Node0&#45;&gt;Node1</title>
<path fill="none" stroke="#191970" d="M77.5,-112.2455C77.5,-104.9382 77.5,-94.6944 77.5,-85.7046"/>
<polygon fill="#191970" stroke="#191970" points="81.0001,-85.6426 77.5,-75.6427 74.0001,-85.6427 81.0001,-85.6426"/>
</g>
<!-- Node2 -->
<g id="node3" class="node">
<title>Node2</title>
<g id="a_node3"><a xlink:title=" ">
<polygon fill="#ffffff" stroke="#bfbfbf" points="0,-.5 0,-19.5 63,-19.5 63,-.5 0,-.5"/>
<text text-anchor="middle" x="31.5" y="-7.5" font-family="Helvetica,sans-Serif" font-size="10.00" fill="#000000">QLineEdit</text>
</a>
</g>
</g>
<!-- Node1&#45;&gt;Node2 -->
<g id="edge2" class="edge">
<title>Node1&#45;&gt;Node2</title>
<path fill="none" stroke="#191970" d="M69.4874,-56.2455C63.0232,-48.3761 53.7615,-37.101 46.0017,-27.6542"/>
<polygon fill="#191970" stroke="#191970" points="48.4727,-25.1484 39.4208,-19.6427 43.0636,-29.5916 48.4727,-25.1484"/>
</g>
<!-- Node3 -->
<g id="node4" class="node">
<title>Node3</title>
<g id="a_node4"><a xlink:title=" ">
<polygon fill="#ffffff" stroke="#bfbfbf" points="81.5,-.5 81.5,-19.5 165.5,-19.5 165.5,-.5 81.5,-.5"/>
<text text-anchor="middle" x="123.5" y="-7.5" font-family="Helvetica,sans-Serif" font-size="10.00" fill="#000000">QMouseEvent</text>
</a>
</g>
</g>
<!-- Node1&#45;&gt;Node3 -->
<g id="edge3" class="edge">
<title>Node1&#45;&gt;Node3</title>
<path fill="none" stroke="#191970" d="M85.5126,-56.2455C91.9768,-48.3761 101.2385,-37.101 108.9983,-27.6542"/>
<polygon fill="#191970" stroke="#191970" points="111.9364,-29.5916 115.5792,-19.6427 106.5273,-25.1484 111.9364,-29.5916"/>
</g>
</g>
</svg>
