<?xml version="1.0" encoding="UTF-8" standalone="no"?>
<!DOCTYPE svg PUBLIC "-//W3C//DTD SVG 1.1//EN"
 "http://www.w3.org/Graphics/SVG/1.1/DTD/svg11.dtd">
<!-- Generated by graphviz version 2.40.1 (0)
 -->
<!-- Title: PEConnectorsView::PEConnectorsView Pages: 1 -->
<svg width="597pt" height="127pt"
 viewBox="0.00 0.00 597.00 126.50" xmlns="http://www.w3.org/2000/svg" xmlns:xlink="http://www.w3.org/1999/xlink">
<g id="graph0" class="graph" transform="scale(1 1) rotate(0) translate(4 122.5)">
<title>PEConnectorsView::PEConnectorsView</title>
<polygon fill="#ffffff" stroke="transparent" points="-4,4 -4,-122.5 593,-122.5 593,4 -4,4"/>
<!-- Node0 -->
<g id="node1" class="node">
<title>Node0</title>
<g id="a_node1"><a xlink:title=" ">
<polygon fill="#bfbfbf" stroke="#000000" points="0,-44.5 0,-63.5 203,-63.5 203,-44.5 0,-44.5"/>
<text text-anchor="middle" x="101.5" y="-51.5" font-family="Helvetica,sans-Serif" font-size="10.00" fill="#000000">PEConnectorsView::PEConnectorsView</text>
</a>
</g>
</g>
<!-- Node1 -->
<g id="node2" class="node">
<title>Node1</title>
<g id="a_node2"><a xlink:href="../../db/d39/classPEConnectorsView.html#a5a09383494c4ec90dc2ebbc4f1d4ca9e" target="_top" xlink:title=" ">
<polygon fill="#ffffff" stroke="#000000" points="246,-88 246,-118 393,-118 393,-88 246,-88"/>
<text text-anchor="start" x="254" y="-106" font-family="Helvetica,sans-Serif" font-size="10.00" fill="#000000">PEConnectorsView::allType</text>
<text text-anchor="middle" x="319.5" y="-95" font-family="Helvetica,sans-Serif" font-size="10.00" fill="#000000">Entry</text>
</a>
</g>
</g>
<!-- Node0&#45;&gt;Node1 -->
<g id="edge1" class="edge">
<title>Node0&#45;&gt;Node1</title>
<path fill="none" stroke="#191970" d="M143.7911,-63.5058C171.7317,-69.786 209.1745,-78.2021 242.3162,-85.6513"/>
<polygon fill="#191970" stroke="#191970" points="241.924,-89.1505 252.4482,-87.9287 243.4592,-82.3208 241.924,-89.1505"/>
</g>
<!-- Node3 -->
<g id="node4" class="node">
<title>Node3</title>
<g id="a_node4"><a xlink:href="../../db/d39/classPEConnectorsView.html#a650ed2c2968807d2b9386d990695cf78" target="_top" xlink:title=" ">
<polygon fill="#ffffff" stroke="#000000" points="239,-39 239,-69 400,-69 400,-39 239,-39"/>
<text text-anchor="start" x="247" y="-57" font-family="Helvetica,sans-Serif" font-size="10.00" fill="#000000">PEConnectorsView::connector</text>
<text text-anchor="middle" x="319.5" y="-46" font-family="Helvetica,sans-Serif" font-size="10.00" fill="#000000">CountEntry</text>
</a>
</g>
</g>
<!-- Node0&#45;&gt;Node3 -->
<g id="edge3" class="edge">
<title>Node0&#45;&gt;Node3</title>
<path fill="none" stroke="#191970" d="M203.1602,-54C211.6831,-54 220.2662,-54 228.6996,-54"/>
<polygon fill="#191970" stroke="#191970" points="228.8983,-57.5001 238.8983,-54 228.8982,-50.5001 228.8983,-57.5001"/>
</g>
<!-- Node4 -->
<g id="node5" class="node">
<title>Node4</title>
<g id="a_node5"><a xlink:href="../../db/d39/classPEConnectorsView.html#a1dc596184a82482d727f11fd183d8d17" target="_top" xlink:title=" ">
<polygon fill="#ffffff" stroke="#000000" points="240,-.5 240,-19.5 399,-19.5 399,-.5 240,-.5"/>
<text text-anchor="middle" x="319.5" y="-7.5" font-family="Helvetica,sans-Serif" font-size="10.00" fill="#000000">PEConnectorsView::smdEntry</text>
</a>
</g>
</g>
<!-- Node0&#45;&gt;Node4 -->
<g id="edge4" class="edge">
<title>Node0&#45;&gt;Node4</title>
<path fill="none" stroke="#191970" d="M148.8028,-44.4527C182.0834,-37.7355 226.8061,-28.7089 262.1252,-21.5802"/>
<polygon fill="#191970" stroke="#191970" points="263.1797,-24.9381 272.2896,-19.5287 261.7947,-18.0764 263.1797,-24.9381"/>
</g>
<!-- Node2 -->
<g id="node3" class="node">
<title>Node2</title>
<g id="a_node3"><a xlink:href="../../db/d39/classPEConnectorsView.html#a633dc0d647c52b8ce1cce629f2e2f4f6" target="_top" xlink:title=" ">
<polygon fill="#ffffff" stroke="#000000" points="436,-88 436,-118 589,-118 589,-88 436,-88"/>
<text text-anchor="start" x="444" y="-106" font-family="Helvetica,sans-Serif" font-size="10.00" fill="#000000">PEConnectorsView::uncheck</text>
<text text-anchor="middle" x="512.5" y="-95" font-family="Helvetica,sans-Serif" font-size="10.00" fill="#000000">Radios</text>
</a>
</g>
</g>
<!-- Node1&#45;&gt;Node2 -->
<g id="edge2" class="edge">
<title>Node1&#45;&gt;Node2</title>
<path fill="none" stroke="#191970" d="M393.0156,-103C403.7815,-103 414.9526,-103 425.9495,-103"/>
<polygon fill="#191970" stroke="#191970" points="425.9831,-106.5001 435.9831,-103 425.983,-99.5001 425.9831,-106.5001"/>
</g>
</g>
</svg>
