<?xml version="1.0" encoding="UTF-8" standalone="no"?>
<!DOCTYPE svg PUBLIC "-//W3C//DTD SVG 1.1//EN"
 "http://www.w3.org/Graphics/SVG/1.1/DTD/svg11.dtd">
<!-- Generated by graphviz version 2.40.1 (0)
 -->
<!-- Title: ConnectorItem::attachedMoved Pages: 1 -->
<!--zoomable 154 -->
<svg id="main" version="1.1" xmlns="http://www.w3.org/2000/svg" xmlns:xlink="http://www.w3.org/1999/xlink" xml:space="preserve" onload="init(evt)">
<style type="text/css"><![CDATA[
.edge:hover path { stroke: red; }
.edge:hover polygon { stroke: red; fill: red; }
]]></style>
<script type="text/javascript"><![CDATA[
var edges = document.getElementsByTagName('g');
if (edges && edges.length) {
  for (var i=0;i<edges.length;i++) {
    if (edges[i].id.substr(0,4)=='edge') {
      edges[i].setAttribute('class','edge');
    }
  }
}
]]></script>
        <defs>
                <circle id="rim" cx="0" cy="0" r="7"/>
                <circle id="rim2" cx="0" cy="0" r="3.5"/>
                <g id="zoomPlus">
                        <use xlink:href="#rim" fill="#404040">
                                <set attributeName="fill" to="#808080" begin="zoomplus.mouseover" end="zoomplus.mouseout"/>
                        </use>
                        <path d="M-4,0h8M0,-4v8" fill="none" stroke="white" stroke-width="1.5" pointer-events="none"/>
                </g>
                <g id="zoomMin">
                        <use xlink:href="#rim" fill="#404040">
                                <set attributeName="fill" to="#808080" begin="zoomminus.mouseover" end="zoomminus.mouseout"/>
                        </use>
                        <path d="M-4,0h8" fill="none" stroke="white" stroke-width="1.5" pointer-events="none"/>
                </g>
                <g id="dirArrow">
                        <path fill="none" stroke="white" stroke-width="1.5" d="M0,-3.0v7 M-2.5,-0.5L0,-3.0L2.5,-0.5"/>
                </g>
               <g id="resetDef">
                       <use xlink:href="#rim2" fill="#404040">
                               <set attributeName="fill" to="#808080" begin="reset.mouseover" end="reset.mouseout"/>
                       </use>
               </g>
        </defs>

<script type="text/javascript">
var viewWidth = 570;
var viewHeight = 154;
var sectionId = 'dynsection-8';
</script>
<script xlink:href="../../svgpan.js"/>
<svg id="graph" class="graph">
<g id="viewport">
<title>ConnectorItem::attachedMoved</title>
<polygon fill="#ffffff" stroke="transparent" points="-4,4 -4,-150 566,-150 566,4 -4,4"/>
<!-- Node457 -->
<g id="node1" class="node">
<title>Node457</title>
<g id="a_node1"><a xlink:title=" ">
<polygon fill="#bfbfbf" stroke="#000000" points="0,-66.5 0,-85.5 170,-85.5 170,-66.5 0,-66.5"/>
<text text-anchor="middle" x="85" y="-73.5" font-family="Helvetica,sans-Serif" font-size="10.00" fill="#000000">ConnectorItem::attachedMoved</text>
</a>
</g>
</g>
<!-- Node458 -->
<g id="node2" class="node">
<title>Node458</title>
<g id="a_node2"><a xlink:href="../../dc/d09/classNonConnectorItem.html#a1452f3637c83b50fbd089f9c4b4518b6" target="_top" xlink:title=" ">
<polygon fill="#ffffff" stroke="#000000" points="206,-126.5 206,-145.5 373,-145.5 373,-126.5 206,-126.5"/>
<text text-anchor="middle" x="289.5" y="-133.5" font-family="Helvetica,sans-Serif" font-size="10.00" fill="#000000">NonConnectorItem::attachedTo</text>
</a>
</g>
</g>
<!-- Node457&#45;&gt;Node458 -->
<g id="edge1" class="edge">
<title>Node457&#45;&gt;Node458</title>
<path fill="none" stroke="#191970" d="M110.7221,-85.5763C135.0534,-94.429 172.7012,-107.5969 206,-117 214.9311,-119.522 224.4712,-121.9437 233.7925,-124.1642"/>
<polygon fill="#191970" stroke="#191970" points="233.2488,-127.6311 243.782,-126.4898 234.8361,-120.8134 233.2488,-127.6311"/>
</g>
<!-- Node459 -->
<g id="node3" class="node">
<title>Node459</title>
<g id="a_node3"><a xlink:href="../../d4/d4f/classItemBase.html#a574c87eb0c9c35b03e26c995e81c88ef" target="_top" xlink:title=" ">
<polygon fill="#ffffff" stroke="#000000" points="213.5,-88.5 213.5,-107.5 365.5,-107.5 365.5,-88.5 213.5,-88.5"/>
<text text-anchor="middle" x="289.5" y="-95.5" font-family="Helvetica,sans-Serif" font-size="10.00" fill="#000000">ItemBase::connectedMoved</text>
</a>
</g>
</g>
<!-- Node457&#45;&gt;Node459 -->
<g id="edge2" class="edge">
<title>Node457&#45;&gt;Node459</title>
<path fill="none" stroke="#191970" d="M170.2456,-85.1707C181.1537,-86.3442 192.3274,-87.5462 203.2513,-88.7214"/>
<polygon fill="#191970" stroke="#191970" points="202.8814,-92.2017 213.1984,-89.7915 203.6302,-85.2419 202.8814,-92.2017"/>
</g>
<!-- Node460 -->
<g id="node4" class="node">
<title>Node460</title>
<g id="a_node4"><a xlink:href="../../dc/d3a/classConnectorItem.html#af2e14ebbdaa87a6c6dd301825fc83fc0" target="_top" xlink:title=" ">
<polygon fill="#ffffff" stroke="#000000" points="217,-39 217,-69 362,-69 362,-39 217,-39"/>
<text text-anchor="start" x="225" y="-57" font-family="Helvetica,sans-Serif" font-size="10.00" fill="#000000">ConnectorItem::connected</text>
<text text-anchor="middle" x="289.5" y="-46" font-family="Helvetica,sans-Serif" font-size="10.00" fill="#000000">ToItems</text>
</a>
</g>
</g>
<!-- Node457&#45;&gt;Node460 -->
<g id="edge3" class="edge">
<title>Node457&#45;&gt;Node460</title>
<path fill="none" stroke="#191970" d="M170.2456,-66.8293C182.3181,-65.5306 194.7161,-64.1968 206.7405,-62.9032"/>
<polygon fill="#191970" stroke="#191970" points="207.1697,-66.3773 216.7379,-61.8277 206.4209,-59.4175 207.1697,-66.3773"/>
</g>
<!-- Node461 -->
<g id="node5" class="node">
<title>Node461</title>
<g id="a_node5"><a xlink:href="../../d4/d4f/classItemBase.html#a7565ba05974fedf75bb75923b18bca1a" target="_top" xlink:title=" ">
<polygon fill="#ffffff" stroke="#000000" points="225.5,-.5 225.5,-19.5 353.5,-19.5 353.5,-.5 225.5,-.5"/>
<text text-anchor="middle" x="289.5" y="-7.5" font-family="Helvetica,sans-Serif" font-size="10.00" fill="#000000">ItemBase::getRatsnest</text>
</a>
</g>
</g>
<!-- Node457&#45;&gt;Node461 -->
<g id="edge4" class="edge">
<title>Node457&#45;&gt;Node461</title>
<path fill="none" stroke="#191970" d="M107.4449,-66.4733C131.5121,-56.4938 170.9952,-40.7973 206,-30 215.3033,-27.1304 225.2946,-24.4232 235.0172,-21.9824"/>
<polygon fill="#191970" stroke="#191970" points="236.1288,-25.3138 245.0119,-19.5395 234.4668,-18.5139 236.1288,-25.3138"/>
</g>
<!-- Node462 -->
<g id="node6" class="node">
<title>Node462</title>
<g id="a_node6"><a xlink:href="../../d3/de8/classViewGeometry.html#a11ca759a75de95be900ac023617a1858" target="_top" xlink:title=" ">
<polygon fill="#ffffff" stroke="#000000" points="409,-.5 409,-19.5 562,-19.5 562,-.5 409,-.5"/>
<text text-anchor="middle" x="485.5" y="-7.5" font-family="Helvetica,sans-Serif" font-size="10.00" fill="#000000">ViewGeometry::getRatsnest</text>
</a>
</g>
</g>
<!-- Node461&#45;&gt;Node462 -->
<g id="edge5" class="edge">
<title>Node461&#45;&gt;Node462</title>
<path fill="none" stroke="#191970" d="M353.6777,-10C368.0101,-10 383.4425,-10 398.5223,-10"/>
<polygon fill="#191970" stroke="#191970" points="398.888,-13.5001 408.888,-10 398.8879,-6.5001 398.888,-13.5001"/>
</g>
</g>
</svg>
        <g id="navigator" transform="translate(0 0)" fill="#404254">
                <rect fill="#f2f5e9" fill-opacity="0.5" stroke="#606060" stroke-width=".5" x="0" y="0" width="60" height="60"/>
                <use id="zoomplus" xlink:href="#zoomPlus" x="17" y="9" onmousedown="handleZoom(evt,'in')"/>
                <use id="zoomminus" xlink:href="#zoomMin" x="42" y="9" onmousedown="handleZoom(evt,'out')"/>
                <use id="reset" xlink:href="#resetDef" x="30" y="36" onmousedown="handleReset()"/>
                <g id="arrowUp" xlink:href="#dirArrow" transform="translate(30 24)" onmousedown="handlePan(0,-1)">
                  <use xlink:href="#rim" fill="#404040">
                        <set attributeName="fill" to="#808080" begin="arrowUp.mouseover" end="arrowUp.mouseout"/>
                  </use>
                  <path fill="none" stroke="white" stroke-width="1.5" d="M0,-3.0v7 M-2.5,-0.5L0,-3.0L2.5,-0.5"/>
                </g>
                <g id="arrowRight" xlink:href="#dirArrow" transform="rotate(90) translate(36 -43)" onmousedown="handlePan(1,0)">
                  <use xlink:href="#rim" fill="#404040">
                        <set attributeName="fill" to="#808080" begin="arrowRight.mouseover" end="arrowRight.mouseout"/>
                  </use>
                  <path fill="none" stroke="white" stroke-width="1.5" d="M0,-3.0v7 M-2.5,-0.5L0,-3.0L2.5,-0.5"/>
                </g>
                <g id="arrowDown" xlink:href="#dirArrow" transform="rotate(180) translate(-30 -48)" onmousedown="handlePan(0,1)">
                  <use xlink:href="#rim" fill="#404040">
                        <set attributeName="fill" to="#808080" begin="arrowDown.mouseover" end="arrowDown.mouseout"/>
                  </use>
                  <path fill="none" stroke="white" stroke-width="1.5" d="M0,-3.0v7 M-2.5,-0.5L0,-3.0L2.5,-0.5"/>
                </g>
                <g id="arrowLeft" xlink:href="#dirArrow" transform="rotate(270) translate(-36 17)" onmousedown="handlePan(-1,0)">
                  <use xlink:href="#rim" fill="#404040">
                        <set attributeName="fill" to="#808080" begin="arrowLeft.mouseover" end="arrowLeft.mouseout"/>
                  </use>
                  <path fill="none" stroke="white" stroke-width="1.5" d="M0,-3.0v7 M-2.5,-0.5L0,-3.0L2.5,-0.5"/>
                </g>
        </g>
        <svg viewBox="0 0 15 15" width="100%" height="30px" preserveAspectRatio="xMaxYMin meet">
         <g id="arrow_out" transform="scale(0.3 0.3)">
          <a xlink:href="classConnectorItem_adf8843eb2f856a9d4ed82874d110227a_cgraph_org.svg" target="_base">
           <rect id="button" ry="5" rx="5" y="6" x="6" height="38" width="38"
                fill="#f2f5e9" fill-opacity="0.5" stroke="#606060" stroke-width="1.0"/>
           <path id="arrow"
             d="M 11.500037,31.436501 C 11.940474,20.09759 22.043105,11.32322 32.158766,21.979434 L 37.068811,17.246167 C 37.068811,17.246167 37.088388,32 37.088388,32 L 22.160133,31.978069 C 22.160133,31.978069 26.997745,27.140456 26.997745,27.140456 C 18.528582,18.264221 13.291696,25.230495 11.500037,31.436501 z"
             style="fill:#404040;"/>
          </a>
         </g>
        </svg>
</svg>
