<?xml version="1.0" encoding="UTF-8" standalone="no"?>
<!DOCTYPE svg PUBLIC "-//W3C//DTD SVG 1.1//EN"
 "http://www.w3.org/Graphics/SVG/1.1/DTD/svg11.dtd">
<!-- Generated by graphviz version 2.40.1 (0)
 -->
<!-- Title: ConnectorItem::resetLeg Pages: 1 -->
<svg width="1425pt" height="400pt"
 viewBox="0.00 0.00 1425.00 400.00" xmlns="http://www.w3.org/2000/svg" xmlns:xlink="http://www.w3.org/1999/xlink">
<g id="graph0" class="graph" transform="scale(1 1) rotate(0) translate(4 396)">
<title>ConnectorItem::resetLeg</title>
<polygon fill="#ffffff" stroke="transparent" points="-4,4 -4,-396 1421,-396 1421,4 -4,4"/>
<!-- Node9247 -->
<g id="node1" class="node">
<title>Node9247</title>
<g id="a_node1"><a xlink:title=" ">
<polygon fill="#bfbfbf" stroke="#000000" points="0,-220.5 0,-239.5 137,-239.5 137,-220.5 0,-220.5"/>
<text text-anchor="middle" x="68.5" y="-227.5" font-family="Helvetica,sans-Serif" font-size="10.00" fill="#000000">ConnectorItem::resetLeg</text>
</a>
</g>
</g>
<!-- Node9248 -->
<g id="node2" class="node">
<title>Node9248</title>
<g id="a_node2"><a xlink:href="../../dc/d3a/classConnectorItem.html#ae80559e104554bd66e3cc761749aac87" target="_top" xlink:title=" ">
<polygon fill="#ffffff" stroke="#000000" points="554,-258.5 554,-277.5 736,-277.5 736,-258.5 554,-258.5"/>
<text text-anchor="middle" x="645" y="-265.5" font-family="Helvetica,sans-Serif" font-size="10.00" fill="#000000">ConnectorItem::calcConnectorEnd</text>
</a>
</g>
</g>
<!-- Node9247&#45;&gt;Node9248 -->
<g id="edge1" class="edge">
<title>Node9247&#45;&gt;Node9248</title>
<path fill="none" stroke="#191970" d="M133.3481,-239.5322C146.4522,-241.2203 160.1499,-242.8146 173,-244 300.5091,-255.7629 447.9674,-262.1033 543.6644,-265.261"/>
<polygon fill="#191970" stroke="#191970" points="543.8073,-268.7674 553.9156,-265.5936 544.0344,-261.7711 543.8073,-268.7674"/>
</g>
<!-- Node9258 -->
<g id="node12" class="node">
<title>Node9258</title>
<g id="a_node12"><a xlink:href="../../dc/d3a/classConnectorItem.html#ad1d41ce864631695c8dd6d76f475ab4c" target="_top" xlink:title=" ">
<polygon fill="#ffffff" stroke="#000000" points="352.5,-220.5 352.5,-239.5 517.5,-239.5 517.5,-220.5 352.5,-220.5"/>
<text text-anchor="middle" x="435" y="-227.5" font-family="Helvetica,sans-Serif" font-size="10.00" fill="#000000">ConnectorItem::connectorType</text>
</a>
</g>
</g>
<!-- Node9247&#45;&gt;Node9258 -->
<g id="edge12" class="edge">
<title>Node9247&#45;&gt;Node9258</title>
<path fill="none" stroke="#191970" d="M137.0059,-230C194.9233,-230 278.4288,-230 342.3157,-230"/>
<polygon fill="#191970" stroke="#191970" points="342.3938,-233.5001 352.3937,-230 342.3937,-226.5001 342.3938,-233.5001"/>
</g>
<!-- Node9259 -->
<g id="node13" class="node">
<title>Node9259</title>
<g id="a_node13"><a xlink:href="../../dc/d3a/classConnectorItem.html#a8439f6a071d20b0143ce06231b5bd181" target="_top" xlink:title=" ">
<polygon fill="#ffffff" stroke="#000000" points="173,-171 173,-201 316,-201 316,-171 173,-171"/>
<text text-anchor="start" x="181" y="-189" font-family="Helvetica,sans-Serif" font-size="10.00" fill="#000000">ConnectorItem::reposition</text>
<text text-anchor="middle" x="244.5" y="-178" font-family="Helvetica,sans-Serif" font-size="10.00" fill="#000000">Target</text>
</a>
</g>
</g>
<!-- Node9247&#45;&gt;Node9259 -->
<g id="edge13" class="edge">
<title>Node9247&#45;&gt;Node9259</title>
<path fill="none" stroke="#191970" d="M106.6894,-220.4527C126.5049,-215.4988 151.3447,-209.2888 174.4581,-203.5105"/>
<polygon fill="#191970" stroke="#191970" points="175.386,-206.8863 184.2385,-201.0654 173.6882,-200.0953 175.386,-206.8863"/>
</g>
<!-- Node9261 -->
<g id="node15" class="node">
<title>Node9261</title>
<g id="a_node15"><a xlink:href="../../dc/d3a/classConnectorItem.html#a9db3e9a8e9a67433a39b3c12aa8fe442" target="_top" xlink:title=" ">
<polygon fill="#ffffff" stroke="#000000" points="352,-115 352,-145 518,-145 518,-115 352,-115"/>
<text text-anchor="start" x="360" y="-133" font-family="Helvetica,sans-Serif" font-size="10.00" fill="#000000">ConnectorItem::sceneAdjusted</text>
<text text-anchor="middle" x="435" y="-122" font-family="Helvetica,sans-Serif" font-size="10.00" fill="#000000">TerminalPoint</text>
</a>
</g>
</g>
<!-- Node9247&#45;&gt;Node9261 -->
<g id="edge28" class="edge">
<title>Node9247&#45;&gt;Node9261</title>
<path fill="none" stroke="#191970" d="M79.1487,-220.4602C97.0669,-205.0215 135.0238,-174.8914 173,-161 226.8371,-141.3069 290.6551,-133.4599 341.827,-130.583"/>
<polygon fill="#191970" stroke="#191970" points="342.0766,-134.075 351.886,-130.0719 341.7213,-127.084 342.0766,-134.075"/>
</g>
<!-- Node9271 -->
<g id="node25" class="node">
<title>Node9271</title>
<g id="a_node25"><a xlink:href="../../dc/d3a/classConnectorItem.html#aa5dee5018dc22a1e44ee390a967b7e69" target="_top" xlink:title=" ">
<polygon fill="#ffffff" stroke="#000000" points="181,-296.5 181,-315.5 308,-315.5 308,-296.5 181,-296.5"/>
<text text-anchor="middle" x="244.5" y="-303.5" font-family="Helvetica,sans-Serif" font-size="10.00" fill="#000000">ConnectorItem::setLeg</text>
</a>
</g>
</g>
<!-- Node9247&#45;&gt;Node9271 -->
<g id="edge29" class="edge">
<title>Node9247&#45;&gt;Node9271</title>
<path fill="none" stroke="#191970" d="M85.9058,-239.5898C106.3727,-250.6467 141.5484,-268.969 173,-282 182.6169,-285.9844 193.1562,-289.8087 203.1175,-293.1881"/>
<polygon fill="#191970" stroke="#191970" points="202.2373,-296.5835 212.8307,-296.4085 204.4403,-289.9392 202.2373,-296.5835"/>
</g>
<!-- Node9249 -->
<g id="node3" class="node">
<title>Node9249</title>
<g id="a_node3"><a xlink:href="../../d8/d3c/classBezier.html#a71529ad1a0644b73f2adc958614bafc1" target="_top" xlink:title=" ">
<polygon fill="#ffffff" stroke="#000000" points="961,-272 961,-302 1113,-302 1113,-272 961,-272"/>
<text text-anchor="start" x="969" y="-290" font-family="Helvetica,sans-Serif" font-size="10.00" fill="#000000">Bezier::computeCubicCurve</text>
<text text-anchor="middle" x="1037" y="-279" font-family="Helvetica,sans-Serif" font-size="10.00" fill="#000000">Length</text>
</a>
</g>
</g>
<!-- Node9248&#45;&gt;Node9249 -->
<g id="edge2" class="edge">
<title>Node9248&#45;&gt;Node9249</title>
<path fill="none" stroke="#191970" d="M696.7082,-277.5137C719.6784,-281.2794 747.0995,-285.1477 772,-287 831.5725,-291.4316 898.8868,-291.3677 950.7642,-290.2286"/>
<polygon fill="#191970" stroke="#191970" points="951.0128,-293.7238 960.927,-289.9875 950.8467,-286.7258 951.0128,-293.7238"/>
</g>
<!-- Node9253 -->
<g id="node7" class="node">
<title>Node9253</title>
<g id="a_node7"><a xlink:href="../../dc/d3a/classConnectorItem.html#a817fe76035f457721fcf1c1f3800280e" target="_top" xlink:title=" ">
<polygon fill="#ffffff" stroke="#000000" points="789,-258.5 789,-277.5 908,-277.5 908,-258.5 789,-258.5"/>
<text text-anchor="middle" x="848.5" y="-265.5" font-family="Helvetica,sans-Serif" font-size="10.00" fill="#000000">ConnectorItem::findT</text>
</a>
</g>
</g>
<!-- Node9248&#45;&gt;Node9253 -->
<g id="edge6" class="edge">
<title>Node9248&#45;&gt;Node9253</title>
<path fill="none" stroke="#191970" d="M736.0362,-268C750.288,-268 764.8233,-268 778.507,-268"/>
<polygon fill="#191970" stroke="#191970" points="778.7862,-271.5001 788.7862,-268 778.7861,-264.5001 778.7862,-271.5001"/>
</g>
<!-- Node9254 -->
<g id="node8" class="node">
<title>Node9254</title>
<g id="a_node8"><a xlink:href="../../d8/d3c/classBezier.html#aec0fe0ef3264fbc54ca7e5808470f1ac" target="_top" xlink:title=" ">
<polygon fill="#ffffff" stroke="#000000" points="802,-220.5 802,-239.5 895,-239.5 895,-220.5 802,-220.5"/>
<text text-anchor="middle" x="848.5" y="-227.5" font-family="Helvetica,sans-Serif" font-size="10.00" fill="#000000">Bezier::isEmpty</text>
</a>
</g>
</g>
<!-- Node9248&#45;&gt;Node9254 -->
<g id="edge8" class="edge">
<title>Node9248&#45;&gt;Node9254</title>
<path fill="none" stroke="#191970" d="M696.089,-258.46C725.2837,-253.0084 761.9492,-246.1618 792.001,-240.5502"/>
<polygon fill="#191970" stroke="#191970" points="792.7311,-243.9744 801.9187,-238.6982 791.4461,-237.0934 792.7311,-243.9744"/>
</g>
<!-- Node9255 -->
<g id="node9" class="node">
<title>Node9255</title>
<g id="a_node9"><a xlink:href="../../d4/d08/misc_8h.html#ae7cc352fa1dc81e57ff53ebbc762f27d" target="_top" xlink:title=" ">
<polygon fill="#ffffff" stroke="#000000" points="826.5,-182.5 826.5,-201.5 870.5,-201.5 870.5,-182.5 826.5,-182.5"/>
<text text-anchor="middle" x="848.5" y="-189.5" font-family="Helvetica,sans-Serif" font-size="10.00" fill="#000000">qMax</text>
</a>
</g>
</g>
<!-- Node9248&#45;&gt;Node9255 -->
<g id="edge9" class="edge">
<title>Node9248&#45;&gt;Node9255</title>
<path fill="none" stroke="#191970" d="M692.8084,-258.4947C707.2006,-254.5515 722.6953,-249.1755 736,-242 754.5842,-231.9772 753.244,-220.6973 772,-211 785.7924,-203.869 802.3861,-199.3268 816.5887,-196.4794"/>
<polygon fill="#191970" stroke="#191970" points="817.2193,-199.9222 826.4336,-194.6928 815.9693,-193.0347 817.2193,-199.9222"/>
</g>
<!-- Node9256 -->
<g id="node10" class="node">
<title>Node9256</title>
<g id="a_node10"><a xlink:href="../../d4/d08/misc_8h.html#aec6ff9c887dc8733e787bf81a01492fd" target="_top" xlink:title=" ">
<polygon fill="#ffffff" stroke="#000000" points="828,-372.5 828,-391.5 869,-391.5 869,-372.5 828,-372.5"/>
<text text-anchor="middle" x="848.5" y="-379.5" font-family="Helvetica,sans-Serif" font-size="10.00" fill="#000000">qMin</text>
</a>
</g>
</g>
<!-- Node9248&#45;&gt;Node9256 -->
<g id="edge10" class="edge">
<title>Node9248&#45;&gt;Node9256</title>
<path fill="none" stroke="#191970" d="M720.0985,-277.6132C725.7892,-280.1186 731.182,-283.2054 736,-287 765.3624,-310.1255 743.0776,-339.3265 772,-363 784.8201,-373.4935 802.623,-378.3113 817.829,-380.4748"/>
<polygon fill="#191970" stroke="#191970" points="817.5233,-383.9622 827.8481,-381.5856 818.2947,-377.0049 817.5233,-383.9622"/>
</g>
<!-- Node9257 -->
<g id="node11" class="node">
<title>Node9257</title>
<g id="a_node11"><a xlink:href="../../d8/d3c/classBezier.html#a3152ca2940ed500e564f8fd03bf41b77" target="_top" xlink:title=" ">
<polygon fill="#ffffff" stroke="#000000" points="787.5,-334.5 787.5,-353.5 909.5,-353.5 909.5,-334.5 787.5,-334.5"/>
<text text-anchor="middle" x="848.5" y="-341.5" font-family="Helvetica,sans-Serif" font-size="10.00" fill="#000000">Bezier::set_endpoints</text>
</a>
</g>
</g>
<!-- Node9248&#45;&gt;Node9257 -->
<g id="edge11" class="edge">
<title>Node9248&#45;&gt;Node9257</title>
<path fill="none" stroke="#191970" d="M711.556,-277.5304C720.0287,-279.9948 728.3888,-283.0964 736,-287 755.3132,-296.9052 753.1961,-309.1592 772,-320 779.7102,-324.4451 788.341,-328.1669 796.9516,-331.2494"/>
<polygon fill="#191970" stroke="#191970" points="796.0209,-334.6283 806.6145,-334.4625 798.2297,-327.9859 796.0209,-334.6283"/>
</g>
<!-- Node9250 -->
<g id="node4" class="node">
<title>Node9250</title>
<g id="a_node4"><a xlink:href="../../d4/d4f/classItemBase.html#a1e72b3e4e4038345a39cf3ef2f664957" target="_top" xlink:title=" ">
<polygon fill="#ffffff" stroke="#000000" points="1149,-277.5 1149,-296.5 1223,-296.5 1223,-277.5 1149,-277.5"/>
<text text-anchor="middle" x="1186" y="-284.5" font-family="Helvetica,sans-Serif" font-size="10.00" fill="#000000">ItemBase::z</text>
</a>
</g>
</g>
<!-- Node9249&#45;&gt;Node9250 -->
<g id="edge3" class="edge">
<title>Node9249&#45;&gt;Node9250</title>
<path fill="none" stroke="#191970" d="M1113.246,-287C1121.8088,-287 1130.3409,-287 1138.3894,-287"/>
<polygon fill="#191970" stroke="#191970" points="1138.6534,-290.5001 1148.6534,-287 1138.6533,-283.5001 1138.6534,-290.5001"/>
</g>
<!-- Node9251 -->
<g id="node5" class="node">
<title>Node9251</title>
<g id="a_node5"><a xlink:href="../../d4/d4f/classItemBase.html#a8380ad795c557dd4a345b2c0113325dd" target="_top" xlink:title=" ">
<polygon fill="#ffffff" stroke="#000000" points="1259,-296.5 1259,-315.5 1417,-315.5 1417,-296.5 1259,-296.5"/>
<text text-anchor="middle" x="1338" y="-303.5" font-family="Helvetica,sans-Serif" font-size="10.00" fill="#000000">ItemBase::getViewGeometry</text>
</a>
</g>
</g>
<!-- Node9250&#45;&gt;Node9251 -->
<g id="edge4" class="edge">
<title>Node9250&#45;&gt;Node9251</title>
<path fill="none" stroke="#191970" d="M1223.1834,-291.6479C1232.0163,-292.752 1241.8054,-293.9757 1251.835,-295.2294"/>
<polygon fill="#191970" stroke="#191970" points="1251.5613,-298.7223 1261.9182,-296.4898 1252.4296,-291.7764 1251.5613,-298.7223"/>
</g>
<!-- Node9252 -->
<g id="node6" class="node">
<title>Node9252</title>
<g id="a_node6"><a xlink:href="../../d3/de8/classViewGeometry.html#a4e18f5bc63d72eb798b9206f76b6824b" target="_top" xlink:title=" ">
<polygon fill="#ffffff" stroke="#000000" points="1288,-258.5 1288,-277.5 1388,-277.5 1388,-258.5 1288,-258.5"/>
<text text-anchor="middle" x="1338" y="-265.5" font-family="Helvetica,sans-Serif" font-size="10.00" fill="#000000">ViewGeometry::z</text>
</a>
</g>
</g>
<!-- Node9250&#45;&gt;Node9252 -->
<g id="edge5" class="edge">
<title>Node9250&#45;&gt;Node9252</title>
<path fill="none" stroke="#191970" d="M1223.1834,-282.3521C1239.572,-280.3035 1259.2525,-277.8434 1277.6532,-275.5433"/>
<polygon fill="#191970" stroke="#191970" points="1278.2266,-278.999 1287.7152,-274.2856 1277.3582,-272.0531 1278.2266,-278.999"/>
</g>
<!-- Node9253&#45;&gt;Node9249 -->
<g id="edge7" class="edge">
<title>Node9253&#45;&gt;Node9249</title>
<path fill="none" stroke="#191970" d="M908.1426,-274.0117C921.5957,-275.3677 936.1412,-276.8339 950.4485,-278.276"/>
<polygon fill="#191970" stroke="#191970" points="950.5047,-281.7993 960.8053,-279.3199 951.2067,-274.8346 950.5047,-281.7993"/>
</g>
<!-- Node9259&#45;&gt;Node9258 -->
<g id="edge14" class="edge">
<title>Node9259&#45;&gt;Node9258</title>
<path fill="none" stroke="#191970" d="M309.0109,-201.0408C323.1724,-204.3318 338.0903,-207.7905 352,-211 362.1514,-213.3423 373.0041,-215.8349 383.4024,-218.2176"/>
<polygon fill="#191970" stroke="#191970" points="382.6661,-221.6395 393.195,-220.4599 384.2285,-214.8161 382.6661,-221.6395"/>
</g>
<!-- Node9260 -->
<g id="node14" class="node">
<title>Node9260</title>
<g id="a_node14"><a xlink:href="../../dc/d3a/classConnectorItem.html#aef41291972201b1e6d2d3aff8ffed6a2" target="_top" xlink:title=" ">
<polygon fill="#ffffff" stroke="#000000" points="363.5,-182.5 363.5,-201.5 506.5,-201.5 506.5,-182.5 363.5,-182.5"/>
<text text-anchor="middle" x="435" y="-189.5" font-family="Helvetica,sans-Serif" font-size="10.00" fill="#000000">ConnectorItem::reposition</text>
</a>
</g>
</g>
<!-- Node9259&#45;&gt;Node9260 -->
<g id="edge15" class="edge">
<title>Node9259&#45;&gt;Node9260</title>
<path fill="none" stroke="#191970" d="M316.2484,-188.2598C328.2787,-188.6387 340.8424,-189.0344 353.1049,-189.4206"/>
<polygon fill="#191970" stroke="#191970" points="353.211,-192.9256 363.3162,-189.7422 353.4314,-185.9291 353.211,-192.9256"/>
</g>
<!-- Node9259&#45;&gt;Node9261 -->
<g id="edge17" class="edge">
<title>Node9259&#45;&gt;Node9261</title>
<path fill="none" stroke="#191970" d="M295.5505,-170.993C319.68,-163.8998 348.672,-155.3773 373.9559,-147.9447"/>
<polygon fill="#191970" stroke="#191970" points="375.2016,-151.2267 383.8086,-145.0484 373.2274,-144.5108 375.2016,-151.2267"/>
</g>
<!-- Node9260&#45;&gt;Node9248 -->
<g id="edge16" class="edge">
<title>Node9260&#45;&gt;Node9248</title>
<path fill="none" stroke="#191970" d="M493.4168,-201.5755C501.9029,-204.0422 510.348,-207.1325 518,-211 536.8445,-220.5244 535.4158,-231.9772 554,-242 564.2904,-247.5498 575.8908,-252.0231 587.2779,-255.5896"/>
<polygon fill="#191970" stroke="#191970" points="586.6109,-259.0413 597.1916,-258.4947 588.5794,-252.3238 586.6109,-259.0413"/>
</g>
<!-- Node9261&#45;&gt;Node9261 -->
<g id="edge23" class="edge">
<title>Node9261&#45;&gt;Node9261</title>
<path fill="none" stroke="#191970" d="M401.8886,-145.159C393.9043,-154.5566 404.9414,-163.5 435,-163.5 453.317,-163.5 464.5705,-160.179 468.7607,-155.4579"/>
<polygon fill="#191970" stroke="#191970" points="472.2338,-154.9189 468.1114,-145.159 465.2476,-155.3594 472.2338,-154.9189"/>
</g>
<!-- Node9262 -->
<g id="node16" class="node">
<title>Node9262</title>
<g id="a_node16"><a xlink:href="../../dc/d09/classNonConnectorItem.html#a9a1e80518fb866bab2bd1fa7fe0965db" target="_top" xlink:title=" ">
<polygon fill="#ffffff" stroke="#000000" points="566.5,-115 566.5,-145 723.5,-145 723.5,-115 566.5,-115"/>
<text text-anchor="start" x="574.5" y="-133" font-family="Helvetica,sans-Serif" font-size="10.00" fill="#000000">NonConnectorItem::attached</text>
<text text-anchor="middle" x="645" y="-122" font-family="Helvetica,sans-Serif" font-size="10.00" fill="#000000">ToItemType</text>
</a>
</g>
</g>
<!-- Node9261&#45;&gt;Node9262 -->
<g id="edge18" class="edge">
<title>Node9261&#45;&gt;Node9262</title>
<path fill="none" stroke="#191970" d="M518.2992,-130C530.7686,-130 543.6649,-130 556.2426,-130"/>
<polygon fill="#191970" stroke="#191970" points="556.2472,-133.5001 566.2471,-130 556.2471,-126.5001 556.2472,-133.5001"/>
</g>
<!-- Node9263 -->
<g id="node17" class="node">
<title>Node9263</title>
<g id="a_node17"><a xlink:href="../../dc/d09/classNonConnectorItem.html#a1452f3637c83b50fbd089f9c4b4518b6" target="_top" xlink:title=" ">
<polygon fill="#ffffff" stroke="#000000" points="561.5,-76.5 561.5,-95.5 728.5,-95.5 728.5,-76.5 561.5,-76.5"/>
<text text-anchor="middle" x="645" y="-83.5" font-family="Helvetica,sans-Serif" font-size="10.00" fill="#000000">NonConnectorItem::attachedTo</text>
</a>
</g>
</g>
<!-- Node9261&#45;&gt;Node9263 -->
<g id="edge19" class="edge">
<title>Node9261&#45;&gt;Node9263</title>
<path fill="none" stroke="#191970" d="M506.4184,-114.9811C522.0944,-111.6887 538.6065,-108.224 554,-105 565.3624,-102.6203 577.5239,-100.0779 589.1384,-97.652"/>
<polygon fill="#191970" stroke="#191970" points="590.097,-101.0274 599.1704,-95.5573 588.6661,-94.1752 590.097,-101.0274"/>
</g>
<!-- Node9264 -->
<g id="node18" class="node">
<title>Node9264</title>
<g id="a_node18"><a xlink:href="../../d4/d4f/classItemBase.html#a7565ba05974fedf75bb75923b18bca1a" target="_top" xlink:title=" ">
<polygon fill="#ffffff" stroke="#000000" points="581,-38.5 581,-57.5 709,-57.5 709,-38.5 581,-38.5"/>
<text text-anchor="middle" x="645" y="-45.5" font-family="Helvetica,sans-Serif" font-size="10.00" fill="#000000">ItemBase::getRatsnest</text>
</a>
</g>
</g>
<!-- Node9261&#45;&gt;Node9264 -->
<g id="edge20" class="edge">
<title>Node9261&#45;&gt;Node9264</title>
<path fill="none" stroke="#191970" d="M458.6916,-114.8839C482.0718,-100.5979 519.2589,-79.5387 554,-67 561.3651,-64.3418 569.2069,-62.0088 577.0802,-59.9731"/>
<polygon fill="#191970" stroke="#191970" points="578.147,-63.3158 587.0365,-57.5515 576.4926,-56.5141 578.147,-63.3158"/>
</g>
<!-- Node9266 -->
<g id="node20" class="node">
<title>Node9266</title>
<g id="a_node20"><a xlink:href="../../d7/d64/classWire.html#a45d0e341658a356ad227b1f5171cfa18" target="_top" xlink:title=" ">
<polygon fill="#ffffff" stroke="#000000" points="585,-.5 585,-19.5 705,-19.5 705,-.5 585,-.5"/>
<text text-anchor="middle" x="645" y="-7.5" font-family="Helvetica,sans-Serif" font-size="10.00" fill="#000000">Wire::otherConnector</text>
</a>
</g>
</g>
<!-- Node9261&#45;&gt;Node9266 -->
<g id="edge22" class="edge">
<title>Node9261&#45;&gt;Node9266</title>
<path fill="none" stroke="#191970" d="M447.9755,-114.9918C468.2399,-92.5734 509.6952,-50.6644 554,-29 560.5788,-25.7831 567.6843,-23.1096 574.9232,-20.888"/>
<polygon fill="#191970" stroke="#191970" points="576.1435,-24.1815 584.8401,-18.13 574.2679,-17.4375 576.1435,-24.1815"/>
</g>
<!-- Node9267 -->
<g id="node21" class="node">
<title>Node9267</title>
<g id="a_node21"><a xlink:href="../../d7/dfe/classGraphicsUtils.html#a720808c811cf100be0758d271ba2afce" target="_top" xlink:title=" ">
<polygon fill="#ffffff" stroke="#000000" points="558,-213.5 558,-232.5 732,-232.5 732,-213.5 558,-213.5"/>
<text text-anchor="middle" x="645" y="-220.5" font-family="Helvetica,sans-Serif" font-size="10.00" fill="#000000">GraphicsUtils::distanceFromLine</text>
</a>
</g>
</g>
<!-- Node9261&#45;&gt;Node9267 -->
<g id="edge24" class="edge">
<title>Node9261&#45;&gt;Node9267</title>
<path fill="none" stroke="#191970" d="M468.2499,-145.1685C483.8076,-152.7778 502.3194,-162.5832 518,-173 535.3482,-184.5246 535.2966,-193.8371 554,-203 559.9534,-205.9166 566.333,-208.412 572.8497,-210.5462"/>
<polygon fill="#191970" stroke="#191970" points="571.8782,-213.9088 582.4619,-213.4217 573.8845,-207.2024 571.8782,-213.9088"/>
</g>
<!-- Node9268 -->
<g id="node22" class="node">
<title>Node9268</title>
<g id="a_node22"><a xlink:href="../../dc/d3a/classConnectorItem.html#aa279dff4c65b0bb8a48056347a1b2520" target="_top" xlink:title=" ">
<polygon fill="#ffffff" stroke="#000000" points="555.5,-164 555.5,-194 734.5,-194 734.5,-164 555.5,-164"/>
<text text-anchor="start" x="563.5" y="-182" font-family="Helvetica,sans-Serif" font-size="10.00" fill="#000000">ConnectorItem::adjustedTerminal</text>
<text text-anchor="middle" x="645" y="-171" font-family="Helvetica,sans-Serif" font-size="10.00" fill="#000000">Point</text>
</a>
</g>
</g>
<!-- Node9261&#45;&gt;Node9268 -->
<g id="edge25" class="edge">
<title>Node9261&#45;&gt;Node9268</title>
<path fill="none" stroke="#191970" d="M499.4341,-145.0346C522.0103,-150.3024 547.5431,-156.2601 570.8503,-161.6984"/>
<polygon fill="#191970" stroke="#191970" points="570.154,-165.1299 580.6878,-163.9938 571.7447,-158.313 570.154,-165.1299"/>
</g>
<!-- Node9265 -->
<g id="node19" class="node">
<title>Node9265</title>
<g id="a_node19"><a xlink:href="../../d3/de8/classViewGeometry.html#a11ca759a75de95be900ac023617a1858" target="_top" xlink:title=" ">
<polygon fill="#ffffff" stroke="#000000" points="772,-38.5 772,-57.5 925,-57.5 925,-38.5 772,-38.5"/>
<text text-anchor="middle" x="848.5" y="-45.5" font-family="Helvetica,sans-Serif" font-size="10.00" fill="#000000">ViewGeometry::getRatsnest</text>
</a>
</g>
</g>
<!-- Node9264&#45;&gt;Node9265 -->
<g id="edge21" class="edge">
<title>Node9264&#45;&gt;Node9265</title>
<path fill="none" stroke="#191970" d="M709.1094,-48C725.763,-48 743.9827,-48 761.5958,-48"/>
<polygon fill="#191970" stroke="#191970" points="761.8797,-51.5001 771.8797,-48 761.8797,-44.5001 761.8797,-51.5001"/>
</g>
<!-- Node9269 -->
<g id="node23" class="node">
<title>Node9269</title>
<g id="a_node23"><a xlink:href="../../d7/d2d/classSvgIdLayer.html#acdaf551c0efe7ce5b7197185c60f7b64" target="_top" xlink:title=" ">
<polygon fill="#ffffff" stroke="#000000" points="801,-144.5 801,-163.5 896,-163.5 896,-144.5 801,-144.5"/>
<text text-anchor="middle" x="848.5" y="-151.5" font-family="Helvetica,sans-Serif" font-size="10.00" fill="#000000">SvgIdLayer::rect</text>
</a>
</g>
</g>
<!-- Node9268&#45;&gt;Node9269 -->
<g id="edge26" class="edge">
<title>Node9268&#45;&gt;Node9269</title>
<path fill="none" stroke="#191970" d="M734.5542,-167.9983C753.63,-165.6548 773.286,-163.24 790.7881,-161.0899"/>
<polygon fill="#191970" stroke="#191970" points="791.3248,-164.5504 800.8234,-159.8571 790.4712,-157.6026 791.3248,-164.5504"/>
</g>
<!-- Node9270 -->
<g id="node24" class="node">
<title>Node9270</title>
<g id="a_node24"><a xlink:href="../../d1/d88/classPointRect.html#a35106398b82d6e7cacb0c7754cdfa9b8" target="_top" xlink:title=" ">
<polygon fill="#ffffff" stroke="#000000" points="983.5,-144.5 983.5,-163.5 1090.5,-163.5 1090.5,-144.5 983.5,-144.5"/>
<text text-anchor="middle" x="1037" y="-151.5" font-family="Helvetica,sans-Serif" font-size="10.00" fill="#000000">PointRect::getRect</text>
</a>
</g>
</g>
<!-- Node9269&#45;&gt;Node9270 -->
<g id="edge27" class="edge">
<title>Node9269&#45;&gt;Node9270</title>
<path fill="none" stroke="#191970" d="M896.0665,-154C919.456,-154 947.9771,-154 973.2276,-154"/>
<polygon fill="#191970" stroke="#191970" points="973.4562,-157.5001 983.4562,-154 973.4562,-150.5001 973.4562,-157.5001"/>
</g>
<!-- Node9272 -->
<g id="node26" class="node">
<title>Node9272</title>
<g id="a_node26"><a xlink:href="../../dc/d3a/classConnectorItem.html#a27a3de44842f1479487e201e8e9e6940" target="_top" xlink:title=" ">
<polygon fill="#ffffff" stroke="#000000" points="372.5,-296.5 372.5,-315.5 497.5,-315.5 497.5,-296.5 372.5,-296.5"/>
<text text-anchor="middle" x="435" y="-303.5" font-family="Helvetica,sans-Serif" font-size="10.00" fill="#000000">ConnectorItem::repoly</text>
</a>
</g>
</g>
<!-- Node9271&#45;&gt;Node9272 -->
<g id="edge30" class="edge">
<title>Node9271&#45;&gt;Node9272</title>
<path fill="none" stroke="#191970" d="M308.1986,-306C325.4684,-306 344.2983,-306 362.0357,-306"/>
<polygon fill="#191970" stroke="#191970" points="362.3331,-309.5001 372.333,-306 362.333,-302.5001 362.3331,-309.5001"/>
</g>
<!-- Node9272&#45;&gt;Node9248 -->
<g id="edge31" class="edge">
<title>Node9272&#45;&gt;Node9248</title>
<path fill="none" stroke="#191970" d="M487.7208,-296.46C516.429,-291.2652 552.1374,-284.8037 582.2704,-279.3511"/>
<polygon fill="#191970" stroke="#191970" points="583.0405,-282.7686 592.2575,-277.5439 581.7941,-275.8805 583.0405,-282.7686"/>
</g>
<!-- Node9273 -->
<g id="node27" class="node">
<title>Node9273</title>
<g id="a_node27"><a xlink:href="../../dc/d3a/classConnectorItem.html#a314df358a4ab7a1d324d4b42192fb46f" target="_top" xlink:title=" ">
<polygon fill="#ffffff" stroke="#000000" points="569,-296.5 569,-315.5 721,-315.5 721,-296.5 569,-296.5"/>
<text text-anchor="middle" x="645" y="-303.5" font-family="Helvetica,sans-Serif" font-size="10.00" fill="#000000">ConnectorItem::clearCurves</text>
</a>
</g>
</g>
<!-- Node9272&#45;&gt;Node9273 -->
<g id="edge32" class="edge">
<title>Node9272&#45;&gt;Node9273</title>
<path fill="none" stroke="#191970" d="M497.7225,-306C516.8499,-306 538.2243,-306 558.629,-306"/>
<polygon fill="#191970" stroke="#191970" points="558.8726,-309.5001 568.8726,-306 558.8726,-302.5001 558.8726,-309.5001"/>
</g>
</g>
</svg>
