<?xml version="1.0" encoding="UTF-8" standalone="no"?>
<!DOCTYPE svg PUBLIC "-//W3C//DTD SVG 1.1//EN"
 "http://www.w3.org/Graphics/SVG/1.1/DTD/svg11.dtd">
<!-- Generated by graphviz version 2.40.1 (0)
 -->
<!-- Title: ConnectorItem::findT Pages: 1 -->
<!--zoomable 66 -->
<svg id="main" version="1.1" xmlns="http://www.w3.org/2000/svg" xmlns:xlink="http://www.w3.org/1999/xlink" xml:space="preserve" onload="init(evt)">
<style type="text/css"><![CDATA[
.edge:hover path { stroke: red; }
.edge:hover polygon { stroke: red; fill: red; }
]]></style>
<script type="text/javascript"><![CDATA[
var edges = document.getElementsByTagName('g');
if (edges && edges.length) {
  for (var i=0;i<edges.length;i++) {
    if (edges[i].id.substr(0,4)=='edge') {
      edges[i].setAttribute('class','edge');
    }
  }
}
]]></script>
        <defs>
                <circle id="rim" cx="0" cy="0" r="7"/>
                <circle id="rim2" cx="0" cy="0" r="3.5"/>
                <g id="zoomPlus">
                        <use xlink:href="#rim" fill="#404040">
                                <set attributeName="fill" to="#808080" begin="zoomplus.mouseover" end="zoomplus.mouseout"/>
                        </use>
                        <path d="M-4,0h8M0,-4v8" fill="none" stroke="white" stroke-width="1.5" pointer-events="none"/>
                </g>
                <g id="zoomMin">
                        <use xlink:href="#rim" fill="#404040">
                                <set attributeName="fill" to="#808080" begin="zoomminus.mouseover" end="zoomminus.mouseout"/>
                        </use>
                        <path d="M-4,0h8" fill="none" stroke="white" stroke-width="1.5" pointer-events="none"/>
                </g>
                <g id="dirArrow">
                        <path fill="none" stroke="white" stroke-width="1.5" d="M0,-3.0v7 M-2.5,-0.5L0,-3.0L2.5,-0.5"/>
                </g>
               <g id="resetDef">
                       <use xlink:href="#rim2" fill="#404040">
                               <set attributeName="fill" to="#808080" begin="reset.mouseover" end="reset.mouseout"/>
                       </use>
               </g>
        </defs>

<script type="text/javascript">
var viewWidth = 619;
var viewHeight = 66;
var sectionId = 'dynsection-77';
</script>
<script xlink:href="../../svgpan.js"/>
<svg id="graph" class="graph">
<g id="viewport">
<title>ConnectorItem::findT</title>
<polygon fill="#ffffff" stroke="transparent" points="-4,4 -4,-62 615,-62 615,4 -4,4"/>
<!-- Node5703 -->
<g id="node1" class="node">
<title>Node5703</title>
<g id="a_node1"><a xlink:title=" ">
<polygon fill="#bfbfbf" stroke="#000000" points="0,-19.5 0,-38.5 119,-38.5 119,-19.5 0,-19.5"/>
<text text-anchor="middle" x="59.5" y="-26.5" font-family="Helvetica,sans-Serif" font-size="10.00" fill="#000000">ConnectorItem::findT</text>
</a>
</g>
</g>
<!-- Node5704 -->
<g id="node2" class="node">
<title>Node5704</title>
<g id="a_node2"><a xlink:href="../../d8/d3c/classBezier.html#a71529ad1a0644b73f2adc958614bafc1" target="_top" xlink:title=" ">
<polygon fill="#ffffff" stroke="#000000" points="155,-14 155,-44 307,-44 307,-14 155,-14"/>
<text text-anchor="start" x="163" y="-32" font-family="Helvetica,sans-Serif" font-size="10.00" fill="#000000">Bezier::computeCubicCurve</text>
<text text-anchor="middle" x="231" y="-21" font-family="Helvetica,sans-Serif" font-size="10.00" fill="#000000">Length</text>
</a>
</g>
</g>
<!-- Node5703&#45;&gt;Node5704 -->
<g id="edge1" class="edge">
<title>Node5703&#45;&gt;Node5704</title>
<path fill="none" stroke="#191970" d="M119.0011,-29C127.3453,-29 136.0565,-29 144.7743,-29"/>
<polygon fill="#191970" stroke="#191970" points="144.9897,-32.5001 154.9896,-29 144.9896,-25.5001 144.9897,-32.5001"/>
</g>
<!-- Node5705 -->
<g id="node3" class="node">
<title>Node5705</title>
<g id="a_node3"><a xlink:href="../../d4/d4f/classItemBase.html#a1e72b3e4e4038345a39cf3ef2f664957" target="_top" xlink:title=" ">
<polygon fill="#ffffff" stroke="#000000" points="343,-19.5 343,-38.5 417,-38.5 417,-19.5 343,-19.5"/>
<text text-anchor="middle" x="380" y="-26.5" font-family="Helvetica,sans-Serif" font-size="10.00" fill="#000000">ItemBase::z</text>
</a>
</g>
</g>
<!-- Node5704&#45;&gt;Node5705 -->
<g id="edge2" class="edge">
<title>Node5704&#45;&gt;Node5705</title>
<path fill="none" stroke="#191970" d="M307.246,-29C315.8088,-29 324.3409,-29 332.3894,-29"/>
<polygon fill="#191970" stroke="#191970" points="332.6534,-32.5001 342.6534,-29 332.6533,-25.5001 332.6534,-32.5001"/>
</g>
<!-- Node5706 -->
<g id="node4" class="node">
<title>Node5706</title>
<g id="a_node4"><a xlink:href="../../d4/d4f/classItemBase.html#a8380ad795c557dd4a345b2c0113325dd" target="_top" xlink:title=" ">
<polygon fill="#ffffff" stroke="#000000" points="453,-38.5 453,-57.5 611,-57.5 611,-38.5 453,-38.5"/>
<text text-anchor="middle" x="532" y="-45.5" font-family="Helvetica,sans-Serif" font-size="10.00" fill="#000000">ItemBase::getViewGeometry</text>
</a>
</g>
</g>
<!-- Node5705&#45;&gt;Node5706 -->
<g id="edge3" class="edge">
<title>Node5705&#45;&gt;Node5706</title>
<path fill="none" stroke="#191970" d="M417.1834,-33.6479C426.0163,-34.752 435.8054,-35.9757 445.835,-37.2294"/>
<polygon fill="#191970" stroke="#191970" points="445.5613,-40.7223 455.9182,-38.4898 446.4296,-33.7764 445.5613,-40.7223"/>
</g>
<!-- Node5707 -->
<g id="node5" class="node">
<title>Node5707</title>
<g id="a_node5"><a xlink:href="../../d3/de8/classViewGeometry.html#a4e18f5bc63d72eb798b9206f76b6824b" target="_top" xlink:title=" ">
<polygon fill="#ffffff" stroke="#000000" points="482,-.5 482,-19.5 582,-19.5 582,-.5 482,-.5"/>
<text text-anchor="middle" x="532" y="-7.5" font-family="Helvetica,sans-Serif" font-size="10.00" fill="#000000">ViewGeometry::z</text>
</a>
</g>
</g>
<!-- Node5705&#45;&gt;Node5707 -->
<g id="edge4" class="edge">
<title>Node5705&#45;&gt;Node5707</title>
<path fill="none" stroke="#191970" d="M417.1834,-24.3521C433.572,-22.3035 453.2525,-19.8434 471.6532,-17.5433"/>
<polygon fill="#191970" stroke="#191970" points="472.2266,-20.999 481.7152,-16.2856 471.3582,-14.0531 472.2266,-20.999"/>
</g>
</g>
</svg>
        <g id="navigator" transform="translate(0 0)" fill="#404254">
                <rect fill="#f2f5e9" fill-opacity="0.5" stroke="#606060" stroke-width=".5" x="0" y="0" width="60" height="60"/>
                <use id="zoomplus" xlink:href="#zoomPlus" x="17" y="9" onmousedown="handleZoom(evt,'in')"/>
                <use id="zoomminus" xlink:href="#zoomMin" x="42" y="9" onmousedown="handleZoom(evt,'out')"/>
                <use id="reset" xlink:href="#resetDef" x="30" y="36" onmousedown="handleReset()"/>
                <g id="arrowUp" xlink:href="#dirArrow" transform="translate(30 24)" onmousedown="handlePan(0,-1)">
                  <use xlink:href="#rim" fill="#404040">
                        <set attributeName="fill" to="#808080" begin="arrowUp.mouseover" end="arrowUp.mouseout"/>
                  </use>
                  <path fill="none" stroke="white" stroke-width="1.5" d="M0,-3.0v7 M-2.5,-0.5L0,-3.0L2.5,-0.5"/>
                </g>
                <g id="arrowRight" xlink:href="#dirArrow" transform="rotate(90) translate(36 -43)" onmousedown="handlePan(1,0)">
                  <use xlink:href="#rim" fill="#404040">
                        <set attributeName="fill" to="#808080" begin="arrowRight.mouseover" end="arrowRight.mouseout"/>
                  </use>
                  <path fill="none" stroke="white" stroke-width="1.5" d="M0,-3.0v7 M-2.5,-0.5L0,-3.0L2.5,-0.5"/>
                </g>
                <g id="arrowDown" xlink:href="#dirArrow" transform="rotate(180) translate(-30 -48)" onmousedown="handlePan(0,1)">
                  <use xlink:href="#rim" fill="#404040">
                        <set attributeName="fill" to="#808080" begin="arrowDown.mouseover" end="arrowDown.mouseout"/>
                  </use>
                  <path fill="none" stroke="white" stroke-width="1.5" d="M0,-3.0v7 M-2.5,-0.5L0,-3.0L2.5,-0.5"/>
                </g>
                <g id="arrowLeft" xlink:href="#dirArrow" transform="rotate(270) translate(-36 17)" onmousedown="handlePan(-1,0)">
                  <use xlink:href="#rim" fill="#404040">
                        <set attributeName="fill" to="#808080" begin="arrowLeft.mouseover" end="arrowLeft.mouseout"/>
                  </use>
                  <path fill="none" stroke="white" stroke-width="1.5" d="M0,-3.0v7 M-2.5,-0.5L0,-3.0L2.5,-0.5"/>
                </g>
        </g>
        <svg viewBox="0 0 15 15" width="100%" height="30px" preserveAspectRatio="xMaxYMin meet">
         <g id="arrow_out" transform="scale(0.3 0.3)">
          <a xlink:href="classConnectorItem_a817fe76035f457721fcf1c1f3800280e_cgraph_org.svg" target="_base">
           <rect id="button" ry="5" rx="5" y="6" x="6" height="38" width="38"
                fill="#f2f5e9" fill-opacity="0.5" stroke="#606060" stroke-width="1.0"/>
           <path id="arrow"
             d="M 11.500037,31.436501 C 11.940474,20.09759 22.043105,11.32322 32.158766,21.979434 L 37.068811,17.246167 C 37.068811,17.246167 37.088388,32 37.088388,32 L 22.160133,31.978069 C 22.160133,31.978069 26.997745,27.140456 26.997745,27.140456 C 18.528582,18.264221 13.291696,25.230495 11.500037,31.436501 z"
             style="fill:#404040;"/>
          </a>
         </g>
        </svg>
</svg>
