<?xml version="1.0" encoding="UTF-8" standalone="no"?>
<!DOCTYPE svg PUBLIC "-//W3C//DTD SVG 1.1//EN"
 "http://www.w3.org/Graphics/SVG/1.1/DTD/svg11.dtd">
<!-- Generated by graphviz version 2.40.1 (0)
 -->
<!-- Title: ConnectorItem::calcConnectorEnd Pages: 1 -->
<svg width="840pt" height="218pt"
 viewBox="0.00 0.00 840.00 218.00" xmlns="http://www.w3.org/2000/svg" xmlns:xlink="http://www.w3.org/1999/xlink">
<g id="graph0" class="graph" transform="scale(1 1) rotate(0) translate(4 214)">
<title>ConnectorItem::calcConnectorEnd</title>
<polygon fill="#ffffff" stroke="transparent" points="-4,4 -4,-214 836,-214 836,4 -4,4"/>
<!-- Node2012 -->
<g id="node1" class="node">
<title>Node2012</title>
<g id="a_node1"><a xlink:title=" ">
<polygon fill="#bfbfbf" stroke="#000000" points="0,-95.5 0,-114.5 182,-114.5 182,-95.5 0,-95.5"/>
<text text-anchor="middle" x="91" y="-102.5" font-family="Helvetica,sans-Serif" font-size="10.00" fill="#000000">ConnectorItem::calcConnectorEnd</text>
</a>
</g>
</g>
<!-- Node2013 -->
<g id="node2" class="node">
<title>Node2013</title>
<g id="a_node2"><a xlink:href="../../d8/d3c/classBezier.html#a71529ad1a0644b73f2adc958614bafc1" target="_top" xlink:title=" ">
<polygon fill="#ffffff" stroke="#000000" points="376,-166 376,-196 528,-196 528,-166 376,-166"/>
<text text-anchor="start" x="384" y="-184" font-family="Helvetica,sans-Serif" font-size="10.00" fill="#000000">Bezier::computeCubicCurve</text>
<text text-anchor="middle" x="452" y="-173" font-family="Helvetica,sans-Serif" font-size="10.00" fill="#000000">Length</text>
</a>
</g>
</g>
<!-- Node2012&#45;&gt;Node2013 -->
<g id="edge1" class="edge">
<title>Node2012&#45;&gt;Node2013</title>
<path fill="none" stroke="#191970" d="M102.2558,-114.6823C123.283,-132.0555 170.6957,-167.927 218,-181 265.6892,-194.1794 320.9638,-194.8189 365.813,-191.8671"/>
<polygon fill="#191970" stroke="#191970" points="366.0829,-195.3568 375.8022,-191.1396 365.5744,-188.3753 366.0829,-195.3568"/>
</g>
<!-- Node2017 -->
<g id="node6" class="node">
<title>Node2017</title>
<g id="a_node6"><a xlink:href="../../dc/d3a/classConnectorItem.html#a817fe76035f457721fcf1c1f3800280e" target="_top" xlink:title=" ">
<polygon fill="#ffffff" stroke="#000000" points="219.5,-152.5 219.5,-171.5 338.5,-171.5 338.5,-152.5 219.5,-152.5"/>
<text text-anchor="middle" x="279" y="-159.5" font-family="Helvetica,sans-Serif" font-size="10.00" fill="#000000">ConnectorItem::findT</text>
</a>
</g>
</g>
<!-- Node2012&#45;&gt;Node2017 -->
<g id="edge5" class="edge">
<title>Node2012&#45;&gt;Node2017</title>
<path fill="none" stroke="#191970" d="M122.467,-114.5405C154.0528,-124.1171 202.8783,-138.9205 237.5928,-149.4457"/>
<polygon fill="#191970" stroke="#191970" points="236.845,-152.8762 247.4304,-152.4284 238.8761,-146.1774 236.845,-152.8762"/>
</g>
<!-- Node2018 -->
<g id="node7" class="node">
<title>Node2018</title>
<g id="a_node7"><a xlink:href="../../d8/d3c/classBezier.html#aec0fe0ef3264fbc54ca7e5808470f1ac" target="_top" xlink:title=" ">
<polygon fill="#ffffff" stroke="#000000" points="232.5,-114.5 232.5,-133.5 325.5,-133.5 325.5,-114.5 232.5,-114.5"/>
<text text-anchor="middle" x="279" y="-121.5" font-family="Helvetica,sans-Serif" font-size="10.00" fill="#000000">Bezier::isEmpty</text>
</a>
</g>
</g>
<!-- Node2012&#45;&gt;Node2018 -->
<g id="edge7" class="edge">
<title>Node2012&#45;&gt;Node2018</title>
<path fill="none" stroke="#191970" d="M182.2464,-114.2217C195.841,-115.5956 209.5125,-116.9773 222.1221,-118.2517"/>
<polygon fill="#191970" stroke="#191970" points="222.1382,-121.7711 232.4394,-119.2944 222.8421,-114.8065 222.1382,-121.7711"/>
</g>
<!-- Node2019 -->
<g id="node8" class="node">
<title>Node2019</title>
<g id="a_node8"><a xlink:href="../../d4/d08/misc_8h.html#ae7cc352fa1dc81e57ff53ebbc762f27d" target="_top" xlink:title=" ">
<polygon fill="#ffffff" stroke="#000000" points="257,-76.5 257,-95.5 301,-95.5 301,-76.5 257,-76.5"/>
<text text-anchor="middle" x="279" y="-83.5" font-family="Helvetica,sans-Serif" font-size="10.00" fill="#000000">qMax</text>
</a>
</g>
</g>
<!-- Node2012&#45;&gt;Node2019 -->
<g id="edge8" class="edge">
<title>Node2012&#45;&gt;Node2019</title>
<path fill="none" stroke="#191970" d="M182.2464,-95.7783C205.2871,-93.4497 228.5485,-91.0988 246.4871,-89.2859"/>
<polygon fill="#191970" stroke="#191970" points="247.0576,-92.7461 256.655,-88.2583 246.3537,-85.7816 247.0576,-92.7461"/>
</g>
<!-- Node2020 -->
<g id="node9" class="node">
<title>Node2020</title>
<g id="a_node9"><a xlink:href="../../d4/d08/misc_8h.html#aec6ff9c887dc8733e787bf81a01492fd" target="_top" xlink:title=" ">
<polygon fill="#ffffff" stroke="#000000" points="258.5,-38.5 258.5,-57.5 299.5,-57.5 299.5,-38.5 258.5,-38.5"/>
<text text-anchor="middle" x="279" y="-45.5" font-family="Helvetica,sans-Serif" font-size="10.00" fill="#000000">qMin</text>
</a>
</g>
</g>
<!-- Node2012&#45;&gt;Node2020 -->
<g id="edge9" class="edge">
<title>Node2012&#45;&gt;Node2020</title>
<path fill="none" stroke="#191970" d="M122.467,-95.4595C157.668,-84.7868 214.2811,-67.6222 248.9112,-57.1227"/>
<polygon fill="#191970" stroke="#191970" points="249.9278,-60.4718 258.4821,-54.2208 247.8968,-53.773 249.9278,-60.4718"/>
</g>
<!-- Node2021 -->
<g id="node10" class="node">
<title>Node2021</title>
<g id="a_node10"><a xlink:href="../../d8/d3c/classBezier.html#a3152ca2940ed500e564f8fd03bf41b77" target="_top" xlink:title=" ">
<polygon fill="#ffffff" stroke="#000000" points="218,-.5 218,-19.5 340,-19.5 340,-.5 218,-.5"/>
<text text-anchor="middle" x="279" y="-7.5" font-family="Helvetica,sans-Serif" font-size="10.00" fill="#000000">Bezier::set_endpoints</text>
</a>
</g>
</g>
<!-- Node2012&#45;&gt;Node2021 -->
<g id="edge10" class="edge">
<title>Node2012&#45;&gt;Node2021</title>
<path fill="none" stroke="#191970" d="M104.508,-95.4376C127.0989,-79.7918 174.3728,-48.5144 218,-29 222.9994,-26.7638 228.3395,-24.6834 233.7028,-22.7819"/>
<polygon fill="#191970" stroke="#191970" points="234.9462,-26.0565 243.3135,-19.5574 232.7195,-19.4201 234.9462,-26.0565"/>
</g>
<!-- Node2014 -->
<g id="node3" class="node">
<title>Node2014</title>
<g id="a_node3"><a xlink:href="../../d4/d4f/classItemBase.html#a1e72b3e4e4038345a39cf3ef2f664957" target="_top" xlink:title=" ">
<polygon fill="#ffffff" stroke="#000000" points="564,-171.5 564,-190.5 638,-190.5 638,-171.5 564,-171.5"/>
<text text-anchor="middle" x="601" y="-178.5" font-family="Helvetica,sans-Serif" font-size="10.00" fill="#000000">ItemBase::z</text>
</a>
</g>
</g>
<!-- Node2013&#45;&gt;Node2014 -->
<g id="edge2" class="edge">
<title>Node2013&#45;&gt;Node2014</title>
<path fill="none" stroke="#191970" d="M528.246,-181C536.8088,-181 545.3409,-181 553.3894,-181"/>
<polygon fill="#191970" stroke="#191970" points="553.6534,-184.5001 563.6534,-181 553.6533,-177.5001 553.6534,-184.5001"/>
</g>
<!-- Node2015 -->
<g id="node4" class="node">
<title>Node2015</title>
<g id="a_node4"><a xlink:href="../../d4/d4f/classItemBase.html#a8380ad795c557dd4a345b2c0113325dd" target="_top" xlink:title=" ">
<polygon fill="#ffffff" stroke="#000000" points="674,-190.5 674,-209.5 832,-209.5 832,-190.5 674,-190.5"/>
<text text-anchor="middle" x="753" y="-197.5" font-family="Helvetica,sans-Serif" font-size="10.00" fill="#000000">ItemBase::getViewGeometry</text>
</a>
</g>
</g>
<!-- Node2014&#45;&gt;Node2015 -->
<g id="edge3" class="edge">
<title>Node2014&#45;&gt;Node2015</title>
<path fill="none" stroke="#191970" d="M638.1834,-185.6479C647.0163,-186.752 656.8054,-187.9757 666.835,-189.2294"/>
<polygon fill="#191970" stroke="#191970" points="666.5613,-192.7223 676.9182,-190.4898 667.4296,-185.7764 666.5613,-192.7223"/>
</g>
<!-- Node2016 -->
<g id="node5" class="node">
<title>Node2016</title>
<g id="a_node5"><a xlink:href="../../d3/de8/classViewGeometry.html#a4e18f5bc63d72eb798b9206f76b6824b" target="_top" xlink:title=" ">
<polygon fill="#ffffff" stroke="#000000" points="703,-152.5 703,-171.5 803,-171.5 803,-152.5 703,-152.5"/>
<text text-anchor="middle" x="753" y="-159.5" font-family="Helvetica,sans-Serif" font-size="10.00" fill="#000000">ViewGeometry::z</text>
</a>
</g>
</g>
<!-- Node2014&#45;&gt;Node2016 -->
<g id="edge4" class="edge">
<title>Node2014&#45;&gt;Node2016</title>
<path fill="none" stroke="#191970" d="M638.1834,-176.3521C654.572,-174.3035 674.2525,-171.8434 692.6532,-169.5433"/>
<polygon fill="#191970" stroke="#191970" points="693.2266,-172.999 702.7152,-168.2856 692.3582,-166.0531 693.2266,-172.999"/>
</g>
<!-- Node2017&#45;&gt;Node2013 -->
<g id="edge6" class="edge">
<title>Node2017&#45;&gt;Node2013</title>
<path fill="none" stroke="#191970" d="M338.5368,-168.5387C347.3654,-169.5083 356.6105,-170.5237 365.8502,-171.5385"/>
<polygon fill="#191970" stroke="#191970" points="365.5318,-175.0245 375.8542,-172.6372 366.2961,-168.0663 365.5318,-175.0245"/>
</g>
</g>
</svg>
