<?xml version="1.0" encoding="UTF-8" standalone="no"?>
<!DOCTYPE svg PUBLIC "-//W3C//DTD SVG 1.1//EN"
 "http://www.w3.org/Graphics/SVG/1.1/DTD/svg11.dtd">
<!-- Generated by graphviz version 2.40.1 (0)
 -->
<!-- Title: ConnectorItem::saveInstance Pages: 1 -->
<svg width="751pt" height="306pt"
 viewBox="0.00 0.00 751.00 305.50" xmlns="http://www.w3.org/2000/svg" xmlns:xlink="http://www.w3.org/1999/xlink">
<g id="graph0" class="graph" transform="scale(1 1) rotate(0) translate(4 301.5)">
<title>ConnectorItem::saveInstance</title>
<polygon fill="#ffffff" stroke="transparent" points="-4,4 -4,-301.5 747,-301.5 747,4 -4,4"/>
<!-- Node9667 -->
<g id="node1" class="node">
<title>Node9667</title>
<g id="a_node1"><a xlink:title=" ">
<polygon fill="#bfbfbf" stroke="#000000" points="0,-145 0,-164 159,-164 159,-145 0,-145"/>
<text text-anchor="middle" x="79.5" y="-152" font-family="Helvetica,sans-Serif" font-size="10.00" fill="#000000">ConnectorItem::saveInstance</text>
</a>
</g>
</g>
<!-- Node9668 -->
<g id="node2" class="node">
<title>Node9668</title>
<g id="a_node2"><a xlink:href="../../dc/d09/classNonConnectorItem.html#a1452f3637c83b50fbd089f9c4b4518b6" target="_top" xlink:title=" ">
<polygon fill="#ffffff" stroke="#000000" points="196,-278 196,-297 363,-297 363,-278 196,-278"/>
<text text-anchor="middle" x="279.5" y="-285" font-family="Helvetica,sans-Serif" font-size="10.00" fill="#000000">NonConnectorItem::attachedTo</text>
</a>
</g>
</g>
<!-- Node9667&#45;&gt;Node9668 -->
<g id="edge1" class="edge">
<title>Node9667&#45;&gt;Node9668</title>
<path fill="none" stroke="#191970" d="M87.0327,-164.2744C103.9628,-185.5673 147.2925,-236.3998 195,-263.5 203.0826,-268.0913 212.1066,-271.8568 221.1656,-274.9295"/>
<polygon fill="#191970" stroke="#191970" points="220.3774,-278.3502 230.9664,-277.998 222.469,-271.67 220.3774,-278.3502"/>
</g>
<!-- Node9669 -->
<g id="node3" class="node">
<title>Node9669</title>
<g id="a_node3"><a xlink:href="../../dc/d3a/classConnectorItem.html#aa255a20e50fe55ef1b3726abcd357991" target="_top" xlink:title=" ">
<polygon fill="#ffffff" stroke="#000000" points="412.5,-251.5 412.5,-281.5 560.5,-281.5 560.5,-251.5 412.5,-251.5"/>
<text text-anchor="start" x="420.5" y="-269.5" font-family="Helvetica,sans-Serif" font-size="10.00" fill="#000000">ConnectorItem::attachedTo</text>
<text text-anchor="middle" x="486.5" y="-258.5" font-family="Helvetica,sans-Serif" font-size="10.00" fill="#000000">ViewLayerID</text>
</a>
</g>
</g>
<!-- Node9667&#45;&gt;Node9669 -->
<g id="edge2" class="edge">
<title>Node9667&#45;&gt;Node9669</title>
<path fill="none" stroke="#191970" d="M93.7521,-164.1258C114.8978,-177.9374 156.2619,-203.1766 195,-216.5 262.7022,-239.7852 343.1303,-252.5381 402.3373,-259.3241"/>
<polygon fill="#191970" stroke="#191970" points="402.0675,-262.8156 412.3932,-260.4428 402.8415,-255.8585 402.0675,-262.8156"/>
</g>
<!-- Node9670 -->
<g id="node4" class="node">
<title>Node9670</title>
<g id="a_node4"><a xlink:href="../../dc/d3a/classConnectorItem.html#aa22ed310cdf87c914bfad84ce759d66b" target="_top" xlink:title=" ">
<polygon fill="#ffffff" stroke="#000000" points="415,-202.5 415,-232.5 558,-232.5 558,-202.5 415,-202.5"/>
<text text-anchor="start" x="423" y="-220.5" font-family="Helvetica,sans-Serif" font-size="10.00" fill="#000000">ConnectorItem::connector</text>
<text text-anchor="middle" x="486.5" y="-209.5" font-family="Helvetica,sans-Serif" font-size="10.00" fill="#000000">SharedID</text>
</a>
</g>
</g>
<!-- Node9667&#45;&gt;Node9670 -->
<g id="edge3" class="edge">
<title>Node9667&#45;&gt;Node9670</title>
<path fill="none" stroke="#191970" d="M102.9531,-164.005C125.9855,-172.9093 162.3232,-185.8182 195,-192.5 264.8307,-206.7791 345.6914,-212.9158 404.5086,-215.5461"/>
<polygon fill="#191970" stroke="#191970" points="404.7187,-219.058 414.8574,-215.983 405.014,-212.0642 404.7187,-219.058"/>
</g>
<!-- Node9671 -->
<g id="node5" class="node">
<title>Node9671</title>
<g id="a_node5"><a xlink:href="../../d4/d4f/classItemBase.html#a7565ba05974fedf75bb75923b18bca1a" target="_top" xlink:title=" ">
<polygon fill="#ffffff" stroke="#000000" points="215.5,-88 215.5,-107 343.5,-107 343.5,-88 215.5,-88"/>
<text text-anchor="middle" x="279.5" y="-95" font-family="Helvetica,sans-Serif" font-size="10.00" fill="#000000">ItemBase::getRatsnest</text>
</a>
</g>
</g>
<!-- Node9667&#45;&gt;Node9671 -->
<g id="edge4" class="edge">
<title>Node9667&#45;&gt;Node9671</title>
<path fill="none" stroke="#191970" d="M112.8545,-144.9552C135.9213,-138.358 167.322,-129.3846 195,-121.5 208.3239,-117.7044 222.8323,-113.5804 236.0066,-109.8391"/>
<polygon fill="#191970" stroke="#191970" points="237.1155,-113.1627 245.7794,-107.0644 235.2036,-106.4288 237.1155,-113.1627"/>
</g>
<!-- Node9673 -->
<g id="node7" class="node">
<title>Node9673</title>
<g id="a_node7"><a xlink:href="../../d5/d9d/classViewLayer.html#a57a288e6d73ae234b8a739f20964e026" target="_top" xlink:title=" ">
<polygon fill="#ffffff" stroke="#000000" points="400,-114.5 400,-144.5 573,-144.5 573,-114.5 400,-114.5"/>
<text text-anchor="start" x="408" y="-132.5" font-family="Helvetica,sans-Serif" font-size="10.00" fill="#000000">ViewLayer::viewLayerXmlName</text>
<text text-anchor="middle" x="486.5" y="-121.5" font-family="Helvetica,sans-Serif" font-size="10.00" fill="#000000">FromID</text>
</a>
</g>
</g>
<!-- Node9667&#45;&gt;Node9673 -->
<g id="edge6" class="edge">
<title>Node9667&#45;&gt;Node9673</title>
<path fill="none" stroke="#191970" d="M159.4245,-149.5906C225.3991,-145.5381 319.2622,-139.7726 389.528,-135.4565"/>
<polygon fill="#191970" stroke="#191970" points="389.9511,-138.9372 399.7177,-134.8306 389.5219,-131.9504 389.9511,-138.9372"/>
</g>
<!-- Node9675 -->
<g id="node9" class="node">
<title>Node9675</title>
<g id="a_node9"><a xlink:href="../../d8/d3c/classBezier.html#ace1d13e910448c68abcbfc9ffbde1a55" target="_top" xlink:title=" ">
<polygon fill="#ffffff" stroke="#000000" points="240.5,-50 240.5,-69 318.5,-69 318.5,-50 240.5,-50"/>
<text text-anchor="middle" x="279.5" y="-57" font-family="Helvetica,sans-Serif" font-size="10.00" fill="#000000">Bezier::write</text>
</a>
</g>
</g>
<!-- Node9667&#45;&gt;Node9675 -->
<g id="edge8" class="edge">
<title>Node9667&#45;&gt;Node9675</title>
<path fill="none" stroke="#191970" d="M90.8264,-144.9954C110.6436,-128.858 153.4631,-96.1389 195,-78.5 206.137,-73.7706 218.6216,-70.1371 230.5061,-67.3779"/>
<polygon fill="#191970" stroke="#191970" points="231.2699,-70.7937 240.3052,-65.2609 229.7916,-63.9515 231.2699,-70.7937"/>
</g>
<!-- Node9677 -->
<g id="node11" class="node">
<title>Node9677</title>
<g id="a_node11"><a xlink:href="../../dc/d3a/classConnectorItem.html#a34760849258ff644b63b415fd2958f5d" target="_top" xlink:title=" ">
<polygon fill="#ffffff" stroke="#000000" points="195,-164 195,-183 364,-183 364,-164 195,-164"/>
<text text-anchor="middle" x="279.5" y="-171" font-family="Helvetica,sans-Serif" font-size="10.00" fill="#000000">ConnectorItem::writeConnector</text>
</a>
</g>
</g>
<!-- Node9667&#45;&gt;Node9677 -->
<g id="edge10" class="edge">
<title>Node9667&#45;&gt;Node9677</title>
<path fill="none" stroke="#191970" d="M159.12,-162.0639C167.5759,-162.8672 176.2348,-163.6898 184.8408,-164.5074"/>
<polygon fill="#191970" stroke="#191970" points="184.6177,-168.0019 194.904,-165.4634 185.2798,-161.0332 184.6177,-168.0019"/>
</g>
<!-- Node9679 -->
<g id="node13" class="node">
<title>Node9679</title>
<g id="a_node13"><a xlink:href="../../dc/d3a/classConnectorItem.html#aac977deb61a8249b90b0d78a4e8087ec" target="_top" xlink:title=" ">
<polygon fill="#ffffff" stroke="#000000" points="206.5,-.5 206.5,-30.5 352.5,-30.5 352.5,-.5 206.5,-.5"/>
<text text-anchor="start" x="214.5" y="-18.5" font-family="Helvetica,sans-Serif" font-size="10.00" fill="#000000">ConnectorItem::writeOther</text>
<text text-anchor="middle" x="279.5" y="-7.5" font-family="Helvetica,sans-Serif" font-size="10.00" fill="#000000">Elements</text>
</a>
</g>
</g>
<!-- Node9667&#45;&gt;Node9679 -->
<g id="edge15" class="edge">
<title>Node9667&#45;&gt;Node9679</title>
<path fill="none" stroke="#191970" d="M86.4499,-144.9614C102.8428,-123.1473 146.2323,-69.2876 195,-40.5 198.6312,-38.3565 202.4601,-36.3847 206.4019,-34.5726"/>
<polygon fill="#191970" stroke="#191970" points="207.9078,-37.7361 215.7646,-30.6283 205.1901,-31.2852 207.9078,-37.7361"/>
</g>
<!-- Node9672 -->
<g id="node6" class="node">
<title>Node9672</title>
<g id="a_node6"><a xlink:href="../../d3/de8/classViewGeometry.html#a11ca759a75de95be900ac023617a1858" target="_top" xlink:title=" ">
<polygon fill="#ffffff" stroke="#000000" points="410,-76 410,-95 563,-95 563,-76 410,-76"/>
<text text-anchor="middle" x="486.5" y="-83" font-family="Helvetica,sans-Serif" font-size="10.00" fill="#000000">ViewGeometry::getRatsnest</text>
</a>
</g>
</g>
<!-- Node9671&#45;&gt;Node9672 -->
<g id="edge5" class="edge">
<title>Node9671&#45;&gt;Node9672</title>
<path fill="none" stroke="#191970" d="M343.5785,-93.7853C361.2927,-92.7584 380.8182,-91.6265 399.5955,-90.5379"/>
<polygon fill="#191970" stroke="#191970" points="399.8516,-94.0291 409.6323,-89.9561 399.4465,-87.0408 399.8516,-94.0291"/>
</g>
<!-- Node9674 -->
<g id="node8" class="node">
<title>Node9674</title>
<g id="a_node8"><a xlink:href="../../d5/d9d/classViewLayer.html#acda6179880454250f27ee4ed167b6983" target="_top" xlink:title=" ">
<polygon fill="#ffffff" stroke="#000000" points="609,-120 609,-139 743,-139 743,-120 609,-120"/>
<text text-anchor="middle" x="676" y="-127" font-family="Helvetica,sans-Serif" font-size="10.00" fill="#000000">ViewLayer::viewLayerID</text>
</a>
</g>
</g>
<!-- Node9673&#45;&gt;Node9674 -->
<g id="edge7" class="edge">
<title>Node9673&#45;&gt;Node9674</title>
<path fill="none" stroke="#191970" d="M573.2086,-129.5C581.7307,-129.5 590.3402,-129.5 598.7586,-129.5"/>
<polygon fill="#191970" stroke="#191970" points="598.9139,-133.0001 608.9139,-129.5 598.9138,-126.0001 598.9139,-133.0001"/>
</g>
<!-- Node9676 -->
<g id="node10" class="node">
<title>Node9676</title>
<g id="a_node10"><a xlink:href="../../d8/d3c/classBezier.html#aec0fe0ef3264fbc54ca7e5808470f1ac" target="_top" xlink:title=" ">
<polygon fill="#ffffff" stroke="#000000" points="440,-38 440,-57 533,-57 533,-38 440,-38"/>
<text text-anchor="middle" x="486.5" y="-45" font-family="Helvetica,sans-Serif" font-size="10.00" fill="#000000">Bezier::isEmpty</text>
</a>
</g>
</g>
<!-- Node9675&#45;&gt;Node9676 -->
<g id="edge9" class="edge">
<title>Node9675&#45;&gt;Node9676</title>
<path fill="none" stroke="#191970" d="M318.9224,-57.2146C350.311,-55.395 394.6627,-52.8239 429.8543,-50.7838"/>
<polygon fill="#191970" stroke="#191970" points="430.2061,-54.2694 439.9867,-50.1964 429.8009,-47.2811 430.2061,-54.2694"/>
</g>
<!-- Node9677&#45;&gt;Node9669 -->
<g id="edge14" class="edge">
<title>Node9677&#45;&gt;Node9669</title>
<path fill="none" stroke="#191970" d="M293.7351,-183.2275C315.6868,-197.8564 359.5094,-225.6026 400,-242.5 404.944,-244.5632 410.1199,-246.5051 415.3763,-248.321"/>
<polygon fill="#191970" stroke="#191970" points="414.299,-251.651 424.8919,-251.4525 416.4872,-245.0018 414.299,-251.651"/>
</g>
<!-- Node9677&#45;&gt;Node9670 -->
<g id="edge11" class="edge">
<title>Node9677&#45;&gt;Node9670</title>
<path fill="none" stroke="#191970" d="M324.4159,-183.0473C348.1379,-188.0897 377.9819,-194.4334 405.5756,-200.2987"/>
<polygon fill="#191970" stroke="#191970" points="405.1151,-203.7789 415.6243,-202.4346 406.5706,-196.9319 405.1151,-203.7789"/>
</g>
<!-- Node9677&#45;&gt;Node9673 -->
<g id="edge13" class="edge">
<title>Node9677&#45;&gt;Node9673</title>
<path fill="none" stroke="#191970" d="M324.4159,-163.9527C348.1379,-158.9103 377.9819,-152.5666 405.5756,-146.7013"/>
<polygon fill="#191970" stroke="#191970" points="406.5706,-150.0681 415.6243,-144.5654 405.1151,-143.2211 406.5706,-150.0681"/>
</g>
<!-- Node9678 -->
<g id="node12" class="node">
<title>Node9678</title>
<g id="a_node12"><a xlink:href="../../dc/d3a/classConnectorItem.html#af0a6058a57e91d11f927dafa61c363d4" target="_top" xlink:title=" ">
<polygon fill="#ffffff" stroke="#000000" points="415,-164 415,-183 558,-183 558,-164 415,-164"/>
<text text-anchor="middle" x="486.5" y="-171" font-family="Helvetica,sans-Serif" font-size="10.00" fill="#000000">ConnectorItem::connector</text>
</a>
</g>
</g>
<!-- Node9677&#45;&gt;Node9678 -->
<g id="edge12" class="edge">
<title>Node9677&#45;&gt;Node9678</title>
<path fill="none" stroke="#191970" d="M364.2921,-173.5C377.638,-173.5 391.4132,-173.5 404.6898,-173.5"/>
<polygon fill="#191970" stroke="#191970" points="404.73,-177.0001 414.73,-173.5 404.73,-170.0001 404.73,-177.0001"/>
</g>
</g>
</svg>
