<?xml version="1.0" encoding="UTF-8" standalone="no"?>
<!DOCTYPE svg PUBLIC "-//W3C//DTD SVG 1.1//EN"
 "http://www.w3.org/Graphics/SVG/1.1/DTD/svg11.dtd">
<!-- Generated by graphviz version 2.40.1 (0)
 -->
<!-- Title: ConnectorItem::collectPart Pages: 1 -->
<svg width="538pt" height="88pt"
 viewBox="0.00 0.00 538.00 88.00" xmlns="http://www.w3.org/2000/svg" xmlns:xlink="http://www.w3.org/1999/xlink">
<g id="graph0" class="graph" transform="scale(1 1) rotate(0) translate(4 84)">
<title>ConnectorItem::collectPart</title>
<polygon fill="#ffffff" stroke="transparent" points="-4,4 -4,-84 534,-84 534,4 -4,4"/>
<!-- Node2913 -->
<g id="node1" class="node">
<title>Node2913</title>
<g id="a_node1"><a xlink:title=" ">
<polygon fill="#bfbfbf" stroke="#000000" points="0,-33 0,-52 146,-52 146,-33 0,-33"/>
<text text-anchor="middle" x="73" y="-40" font-family="Helvetica,sans-Serif" font-size="10.00" fill="#000000">ConnectorItem::collectPart</text>
</a>
</g>
</g>
<!-- Node2914 -->
<g id="node2" class="node">
<title>Node2914</title>
<g id="a_node2"><a xlink:href="../../dc/d3a/classConnectorItem.html#aa255a20e50fe55ef1b3726abcd357991" target="_top" xlink:title=" ">
<polygon fill="#ffffff" stroke="#000000" points="382,-49.5 382,-79.5 530,-79.5 530,-49.5 382,-49.5"/>
<text text-anchor="start" x="390" y="-67.5" font-family="Helvetica,sans-Serif" font-size="10.00" fill="#000000">ConnectorItem::attachedTo</text>
<text text-anchor="middle" x="456" y="-56.5" font-family="Helvetica,sans-Serif" font-size="10.00" fill="#000000">ViewLayerID</text>
</a>
</g>
</g>
<!-- Node2913&#45;&gt;Node2914 -->
<g id="edge1" class="edge">
<title>Node2913&#45;&gt;Node2914</title>
<path fill="none" stroke="#191970" d="M146.3931,-46.7158C210.7496,-50.4125 304.3034,-55.7864 371.71,-59.6583"/>
<polygon fill="#191970" stroke="#191970" points="371.6924,-63.1629 381.8767,-60.2423 372.0939,-56.1745 371.6924,-63.1629"/>
</g>
<!-- Node2915 -->
<g id="node3" class="node">
<title>Node2915</title>
<g id="a_node3"><a xlink:href="../../dc/d3a/classConnectorItem.html#a560c1e8d67851141398c6923c12f1a49" target="_top" xlink:title=" ">
<polygon fill="#ffffff" stroke="#000000" points="182,-5.5 182,-35.5 346,-35.5 346,-5.5 182,-5.5"/>
<text text-anchor="start" x="190" y="-23.5" font-family="Helvetica,sans-Serif" font-size="10.00" fill="#000000">ConnectorItem::getCrossLayer</text>
<text text-anchor="middle" x="264" y="-12.5" font-family="Helvetica,sans-Serif" font-size="10.00" fill="#000000">ConnectorItem</text>
</a>
</g>
</g>
<!-- Node2913&#45;&gt;Node2915 -->
<g id="edge2" class="edge">
<title>Node2913&#45;&gt;Node2915</title>
<path fill="none" stroke="#191970" d="M146.0265,-34.0886C154.4284,-33.1208 163.0765,-32.1247 171.6898,-31.1326"/>
<polygon fill="#191970" stroke="#191970" points="172.2347,-34.5931 181.7685,-29.9717 171.4336,-27.639 172.2347,-34.5931"/>
</g>
<!-- Node2915&#45;&gt;Node2914 -->
<g id="edge3" class="edge">
<title>Node2915&#45;&gt;Node2914</title>
<path fill="none" stroke="#191970" d="M329.5385,-35.5192C345.9754,-39.286 363.7415,-43.3574 380.6157,-47.2244"/>
<polygon fill="#191970" stroke="#191970" points="379.9019,-50.6515 390.4311,-49.4738 381.4656,-43.8284 379.9019,-50.6515"/>
</g>
<!-- Node2916 -->
<g id="node4" class="node">
<title>Node2916</title>
<g id="a_node4"><a xlink:href="../../dc/d3a/classConnectorItem.html#abdede51810abd3e7858b1020155f6b8e" target="_top" xlink:title=" ">
<polygon fill="#ffffff" stroke="#000000" points="382,-.5 382,-30.5 530,-30.5 530,-.5 382,-.5"/>
<text text-anchor="start" x="390" y="-18.5" font-family="Helvetica,sans-Serif" font-size="10.00" fill="#000000">ConnectorItem::attachedTo</text>
<text text-anchor="middle" x="456" y="-7.5" font-family="Helvetica,sans-Serif" font-size="10.00" fill="#000000">ViewID</text>
</a>
</g>
</g>
<!-- Node2915&#45;&gt;Node2916 -->
<g id="edge4" class="edge">
<title>Node2915&#45;&gt;Node2916</title>
<path fill="none" stroke="#191970" d="M346.2608,-18.3578C354.6546,-18.1392 363.1915,-17.9169 371.6076,-17.6977"/>
<polygon fill="#191970" stroke="#191970" points="371.8902,-21.1916 381.7957,-17.4324 371.7079,-14.194 371.8902,-21.1916"/>
</g>
</g>
</svg>
