<?xml version="1.0" encoding="UTF-8" standalone="no"?>
<!DOCTYPE svg PUBLIC "-//W3C//DTD SVG 1.1//EN"
 "http://www.w3.org/Graphics/SVG/1.1/DTD/svg11.dtd">
<!-- Generated by graphviz version 2.40.1 (0)
 -->
<!-- Title: ConnectorItem::tempConnectTo Pages: 1 -->
<svg width="1295pt" height="231pt"
 viewBox="0.00 0.00 1295.00 231.00" xmlns="http://www.w3.org/2000/svg" xmlns:xlink="http://www.w3.org/1999/xlink">
<g id="graph0" class="graph" transform="scale(1 1) rotate(0) translate(4 227)">
<title>ConnectorItem::tempConnectTo</title>
<polygon fill="#ffffff" stroke="transparent" points="-4,4 -4,-227 1291,-227 1291,4 -4,4"/>
<!-- Node12442 -->
<g id="node1" class="node">
<title>Node12442</title>
<g id="a_node1"><a xlink:title=" ">
<polygon fill="#bfbfbf" stroke="#000000" points="1117,-134.5 1117,-153.5 1287,-153.5 1287,-134.5 1117,-134.5"/>
<text text-anchor="middle" x="1202" y="-141.5" font-family="Helvetica,sans-Serif" font-size="10.00" fill="#000000">ConnectorItem::tempConnectTo</text>
</a>
</g>
</g>
<!-- Node12443 -->
<g id="node2" class="node">
<title>Node12443</title>
<g id="a_node2"><a xlink:href="../../d8/d37/classSketchWidget.html#a48c37dfd68235697e44abb138e5bc814" target="_top" xlink:title=" ">
<polygon fill="#ffffff" stroke="#000000" points="888.5,-203.5 888.5,-222.5 1072.5,-222.5 1072.5,-203.5 888.5,-203.5"/>
<text text-anchor="middle" x="980.5" y="-210.5" font-family="Helvetica,sans-Serif" font-size="10.00" fill="#000000">SketchWidget::prepDragBendpoint</text>
</a>
</g>
</g>
<!-- Node12442&#45;&gt;Node12443 -->
<g id="edge1" class="edge">
<title>Node12442&#45;&gt;Node12443</title>
<path fill="none" stroke="#191970" d="M1173.0406,-157.9428C1148.9016,-169.0797 1113.3582,-184.3667 1081,-194 1068.4912,-197.724 1054.8808,-200.8758 1041.8324,-203.477"/>
<polygon fill="#191970" stroke="#191970" points="1174.7527,-161.0061 1182.3304,-153.6015 1171.7891,-154.6644 1174.7527,-161.0061"/>
</g>
<!-- Node12445 -->
<g id="node4" class="node">
<title>Node12445</title>
<g id="a_node4"><a xlink:href="../../d8/d37/classSketchWidget.html#a0c6c65af248f999a4a147a2efdebdfc5" target="_top" xlink:title=" ">
<polygon fill="#ffffff" stroke="#000000" points="900,-154 900,-184 1061,-184 1061,-154 900,-154"/>
<text text-anchor="start" x="908" y="-172" font-family="Helvetica,sans-Serif" font-size="10.00" fill="#000000">SketchWidget::mouseRelease</text>
<text text-anchor="middle" x="980.5" y="-161" font-family="Helvetica,sans-Serif" font-size="10.00" fill="#000000">Event</text>
</a>
</g>
</g>
<!-- Node12442&#45;&gt;Node12445 -->
<g id="edge3" class="edge">
<title>Node12442&#45;&gt;Node12445</title>
<path fill="none" stroke="#191970" d="M1107.5892,-154.6558C1092.1982,-156.393 1076.3767,-158.1787 1061.3492,-159.8748"/>
<polygon fill="#191970" stroke="#191970" points="1108.0841,-158.1223 1117.6285,-153.5227 1107.299,-151.1665 1108.0841,-158.1223"/>
</g>
<!-- Node12447 -->
<g id="node6" class="node">
<title>Node12447</title>
<g id="a_node6"><a xlink:href="../../d8/d37/classSketchWidget.html#a2cfd0c81e2bf6272f75a93ddf0ebd34e" target="_top" xlink:title=" ">
<polygon fill="#ffffff" stroke="#000000" points="903.5,-105 903.5,-135 1057.5,-135 1057.5,-105 903.5,-105"/>
<text text-anchor="start" x="911.5" y="-123" font-family="Helvetica,sans-Serif" font-size="10.00" fill="#000000">SketchWidget::dragRatsnest</text>
<text text-anchor="middle" x="980.5" y="-112" font-family="Helvetica,sans-Serif" font-size="10.00" fill="#000000">Changed</text>
</a>
</g>
</g>
<!-- Node12442&#45;&gt;Node12447 -->
<g id="edge5" class="edge">
<title>Node12442&#45;&gt;Node12447</title>
<path fill="none" stroke="#191970" d="M1106.8439,-133.6896C1090.4212,-131.9102 1073.5317,-130.0802 1057.659,-128.3603"/>
<polygon fill="#191970" stroke="#191970" points="1106.6769,-137.1919 1116.9958,-134.7896 1107.431,-130.2327 1106.6769,-137.1919"/>
</g>
<!-- Node12450 -->
<g id="node9" class="node">
<title>Node12450</title>
<g id="a_node9"><a xlink:href="../../d8/d37/classSketchWidget.html#abe6b3de1210e0a3b176714aacfb3f50f" target="_top" xlink:title=" ">
<polygon fill="#ffffff" stroke="#000000" points="880,-58.5 880,-77.5 1081,-77.5 1081,-58.5 880,-58.5"/>
<text text-anchor="middle" x="980.5" y="-65.5" font-family="Helvetica,sans-Serif" font-size="10.00" fill="#000000">SketchWidget::makeOneRatsnestWire</text>
</a>
</g>
</g>
<!-- Node12442&#45;&gt;Node12450 -->
<g id="edge8" class="edge">
<title>Node12442&#45;&gt;Node12450</title>
<path fill="none" stroke="#191970" d="M1170.5662,-130.4677C1146.3399,-120.2986 1111.873,-106.3918 1081,-96 1060.5724,-89.1241 1037.42,-82.5904 1018.4901,-77.5665"/>
<polygon fill="#191970" stroke="#191970" points="1169.3867,-133.7689 1179.9603,-134.4391 1172.1124,-127.3214 1169.3867,-133.7689"/>
</g>
<!-- Node12444 -->
<g id="node3" class="node">
<title>Node12444</title>
<g id="a_node3"><a xlink:href="../../d8/d37/classSketchWidget.html#a4890b9b77b688bb9238082de4223d7bd" target="_top" xlink:title=" ">
<polygon fill="#ffffff" stroke="#000000" points="667,-203.5 667,-222.5 844,-222.5 844,-203.5 667,-203.5"/>
<text text-anchor="middle" x="755.5" y="-210.5" font-family="Helvetica,sans-Serif" font-size="10.00" fill="#000000">SketchWidget::mouseMoveEvent</text>
</a>
</g>
</g>
<!-- Node12443&#45;&gt;Node12444 -->
<g id="edge2" class="edge">
<title>Node12443&#45;&gt;Node12444</title>
<path fill="none" stroke="#191970" d="M878.0305,-213C866.7546,-213 855.3432,-213 844.2544,-213"/>
<polygon fill="#191970" stroke="#191970" points="878.3347,-216.5001 888.3347,-213 878.3347,-209.5001 878.3347,-216.5001"/>
</g>
<!-- Node12446 -->
<g id="node5" class="node">
<title>Node12446</title>
<g id="a_node5"><a xlink:href="../../d8/d37/classPartsEditorView.html#a837bf53ef975fd9528c92dd23e2b31ce" target="_top" xlink:title=" ">
<polygon fill="#ffffff" stroke="#000000" points="670.5,-154 670.5,-184 840.5,-184 840.5,-154 670.5,-154"/>
<text text-anchor="start" x="678.5" y="-172" font-family="Helvetica,sans-Serif" font-size="10.00" fill="#000000">PartsEditorView::mouseRelease</text>
<text text-anchor="middle" x="755.5" y="-161" font-family="Helvetica,sans-Serif" font-size="10.00" fill="#000000">Event</text>
</a>
</g>
</g>
<!-- Node12445&#45;&gt;Node12446 -->
<g id="edge4" class="edge">
<title>Node12445&#45;&gt;Node12446</title>
<path fill="none" stroke="#191970" d="M889.4573,-169C873.4035,-169 856.7443,-169 840.8536,-169"/>
<polygon fill="#191970" stroke="#191970" points="889.9054,-172.5001 899.9054,-169 889.9053,-165.5001 889.9054,-172.5001"/>
</g>
<!-- Node12448 -->
<g id="node7" class="node">
<title>Node12448</title>
<g id="a_node7"><a xlink:href="../../d8/d37/classSketchWidget.html#aa9f037df16678b343be1d3d72f07e6ca" target="_top" xlink:title=" ">
<polygon fill="#ffffff" stroke="#000000" points="667.5,-112.5 667.5,-131.5 843.5,-131.5 843.5,-112.5 667.5,-112.5"/>
<text text-anchor="middle" x="755.5" y="-119.5" font-family="Helvetica,sans-Serif" font-size="10.00" fill="#000000">SketchWidget::dragWireChanged</text>
</a>
</g>
</g>
<!-- Node12447&#45;&gt;Node12448 -->
<g id="edge6" class="edge">
<title>Node12447&#45;&gt;Node12448</title>
<path fill="none" stroke="#191970" d="M893.3551,-120.7746C877.0743,-120.9193 860.0462,-121.0707 843.7329,-121.2157"/>
<polygon fill="#191970" stroke="#191970" points="893.4141,-124.2743 903.3826,-120.6855 893.3518,-117.2746 893.4141,-124.2743"/>
</g>
<!-- Node12449 -->
<g id="node8" class="node">
<title>Node12449</title>
<g id="a_node8"><a xlink:href="../../d8/d37/classSketchWidget.html#a5130555b7d18e1a17cc3387b36d1f639" target="_top" xlink:title=" ">
<polygon fill="#ffffff" stroke="#000000" points="444,-114.5 444,-133.5 616,-133.5 616,-114.5 444,-114.5"/>
<text text-anchor="middle" x="530" y="-121.5" font-family="Helvetica,sans-Serif" font-size="10.00" fill="#000000">SketchWidget::wireChangedSlot</text>
</a>
</g>
</g>
<!-- Node12448&#45;&gt;Node12449 -->
<g id="edge7" class="edge">
<title>Node12448&#45;&gt;Node12449</title>
<path fill="none" stroke="#191970" d="M657.0282,-122.8734C643.4453,-122.9938 629.5814,-123.1168 616.2423,-123.2351"/>
<polygon fill="#191970" stroke="#191970" points="657.3784,-126.3705 667.347,-122.7818 657.3163,-119.3708 657.3784,-126.3705"/>
</g>
<!-- Node12451 -->
<g id="node10" class="node">
<title>Node12451</title>
<g id="a_node10"><a xlink:href="../../d6/d9a/classPEMainWindow.html#a1ac1ef47de62ce6cc373471a448d844f" target="_top" xlink:title=" ">
<polygon fill="#ffffff" stroke="#000000" points="675,-42.5 675,-61.5 836,-61.5 836,-42.5 675,-42.5"/>
<text text-anchor="middle" x="755.5" y="-49.5" font-family="Helvetica,sans-Serif" font-size="10.00" fill="#000000">PEMainWindow::displayBuses</text>
</a>
</g>
</g>
<!-- Node12450&#45;&gt;Node12451 -->
<g id="edge9" class="edge">
<title>Node12450&#45;&gt;Node12451</title>
<path fill="none" stroke="#191970" d="M869.5303,-60.1088C858.2777,-59.3086 847.0047,-58.507 836.1616,-57.7359"/>
<polygon fill="#191970" stroke="#191970" points="869.6226,-63.6241 879.8457,-60.8424 870.1192,-56.6418 869.6226,-63.6241"/>
</g>
<!-- Node12452 -->
<g id="node11" class="node">
<title>Node12452</title>
<g id="a_node11"><a xlink:href="../../d6/d9a/classPEMainWindow.html#aa5205c0ebffb5ae3305f47cba59fa8a2" target="_top" xlink:title=" ">
<polygon fill="#ffffff" stroke="#000000" points="438,-76.5 438,-95.5 622,-95.5 622,-76.5 438,-76.5"/>
<text text-anchor="middle" x="530" y="-83.5" font-family="Helvetica,sans-Serif" font-size="10.00" fill="#000000">PEMainWindow::busModeChanged</text>
</a>
</g>
</g>
<!-- Node12451&#45;&gt;Node12452 -->
<g id="edge10" class="edge">
<title>Node12451&#45;&gt;Node12452</title>
<path fill="none" stroke="#191970" d="M682.3799,-63.0248C653.584,-67.3665 620.8366,-72.304 593.0989,-76.4862"/>
<polygon fill="#191970" stroke="#191970" points="683.0194,-66.468 692.3858,-61.5161 681.9757,-59.5462 683.0194,-66.468"/>
</g>
<!-- Node12454 -->
<g id="node13" class="node">
<title>Node12454</title>
<g id="a_node13"><a xlink:href="../../d6/d9a/classPEMainWindow.html#aa686d25f428d7a3992b38d901f305231" target="_top" xlink:title=" ">
<polygon fill="#ffffff" stroke="#000000" points="211,-.5 211,-19.5 393,-19.5 393,-.5 211,-.5"/>
<text text-anchor="middle" x="302" y="-7.5" font-family="Helvetica,sans-Serif" font-size="10.00" fill="#000000">PEMainWindow::addBusConnector</text>
</a>
</g>
</g>
<!-- Node12451&#45;&gt;Node12454 -->
<g id="edge12" class="edge">
<title>Node12451&#45;&gt;Node12454</title>
<path fill="none" stroke="#191970" d="M701.2964,-40.4634C679.5397,-36.2322 654.1711,-31.7983 631,-29 550.9113,-19.3281 459.2398,-14.5465 393.0405,-12.2024"/>
<polygon fill="#191970" stroke="#191970" points="700.8491,-43.9427 711.3384,-42.4512 702.2084,-37.076 700.8491,-43.9427"/>
</g>
<!-- Node12457 -->
<g id="node16" class="node">
<title>Node12457</title>
<g id="a_node16"><a xlink:href="../../d6/d9a/classPEMainWindow.html#ac5aecd8d1b8a722d58d876add8067a54" target="_top" xlink:title=" ">
<polygon fill="#ffffff" stroke="#000000" points="429,-38.5 429,-57.5 631,-57.5 631,-38.5 429,-38.5"/>
<text text-anchor="middle" x="530" y="-45.5" font-family="Helvetica,sans-Serif" font-size="10.00" fill="#000000">PEMainWindow::removeBusConnector</text>
</a>
</g>
</g>
<!-- Node12451&#45;&gt;Node12457 -->
<g id="edge15" class="edge">
<title>Node12451&#45;&gt;Node12457</title>
<path fill="none" stroke="#191970" d="M664.6662,-50.3888C653.6083,-50.1926 642.2579,-49.9913 631.0629,-49.7927"/>
<polygon fill="#191970" stroke="#191970" points="664.6657,-53.8892 674.7263,-50.5672 664.7899,-46.8903 664.6657,-53.8892"/>
</g>
<!-- Node12453 -->
<g id="node12" class="node">
<title>Node12453</title>
<g id="a_node12"><a xlink:href="../../d6/d9a/classPEMainWindow.html#a63e3a7118f6a821ebca964585a38cefc" target="_top" xlink:title=" ">
<polygon fill="#ffffff" stroke="#000000" points="220.5,-114.5 220.5,-133.5 383.5,-133.5 383.5,-114.5 220.5,-114.5"/>
<text text-anchor="middle" x="302" y="-121.5" font-family="Helvetica,sans-Serif" font-size="10.00" fill="#000000">PEMainWindow::moreInitDock</text>
</a>
</g>
</g>
<!-- Node12452&#45;&gt;Node12453 -->
<g id="edge11" class="edge">
<title>Node12452&#45;&gt;Node12453</title>
<path fill="none" stroke="#191970" d="M462.7703,-97.205C429.8804,-102.6866 390.7071,-109.2155 359.2633,-114.4561"/>
<polygon fill="#191970" stroke="#191970" points="463.4718,-100.6364 472.7603,-95.54 462.3209,-93.7316 463.4718,-100.6364"/>
</g>
<!-- Node12455 -->
<g id="node14" class="node">
<title>Node12455</title>
<g id="a_node14"><a xlink:href="../../d2/db4/classRemoveBusConnectorCommand.html#af180e69b9d3e34a7b888d25bfb42d0ef" target="_top" xlink:title=" ">
<polygon fill="#ffffff" stroke="#000000" points="0,-64 0,-94 175,-94 175,-64 0,-64"/>
<text text-anchor="start" x="8" y="-82" font-family="Helvetica,sans-Serif" font-size="10.00" fill="#000000">RemoveBusConnectorCommand</text>
<text text-anchor="middle" x="87.5" y="-71" font-family="Helvetica,sans-Serif" font-size="10.00" fill="#000000">::undo</text>
</a>
</g>
</g>
<!-- Node12454&#45;&gt;Node12455 -->
<g id="edge13" class="edge">
<title>Node12454&#45;&gt;Node12455</title>
<path fill="none" stroke="#191970" d="M262.4591,-22.7195C226.2817,-34.3569 172.7132,-51.5887 134.3907,-63.9163"/>
<polygon fill="#191970" stroke="#191970" points="263.7269,-25.9883 272.1747,-19.5942 261.5833,-19.3246 263.7269,-25.9883"/>
</g>
<!-- Node12456 -->
<g id="node15" class="node">
<title>Node12456</title>
<g id="a_node15"><a xlink:href="../../d2/db4/classRemoveBusConnectorCommand.html#a5c19c2523f86e489f13fd4678027eb62" target="_top" xlink:title=" ">
<polygon fill="#ffffff" stroke="#000000" points="0,-8 0,-38 175,-38 175,-8 0,-8"/>
<text text-anchor="start" x="8" y="-26" font-family="Helvetica,sans-Serif" font-size="10.00" fill="#000000">RemoveBusConnectorCommand</text>
<text text-anchor="middle" x="87.5" y="-15" font-family="Helvetica,sans-Serif" font-size="10.00" fill="#000000">::redo</text>
</a>
</g>
</g>
<!-- Node12454&#45;&gt;Node12456 -->
<g id="edge14" class="edge">
<title>Node12454&#45;&gt;Node12456</title>
<path fill="none" stroke="#191970" d="M200.4853,-16.1524C192.0626,-16.6629 183.5926,-17.1762 175.2838,-17.6798"/>
<polygon fill="#191970" stroke="#191970" points="200.9517,-19.6307 210.7217,-15.532 200.5282,-12.6435 200.9517,-19.6307"/>
</g>
<!-- Node12457&#45;&gt;Node12454 -->
<g id="edge18" class="edge">
<title>Node12457&#45;&gt;Node12454</title>
<path fill="none" stroke="#191970" d="M462.7703,-36.795C429.8804,-31.3134 390.7071,-24.7845 359.2633,-19.5439"/>
<polygon fill="#191970" stroke="#191970" points="462.3209,-40.2684 472.7603,-38.46 463.4718,-33.3636 462.3209,-40.2684"/>
</g>
<!-- Node12457&#45;&gt;Node12455 -->
<g id="edge16" class="edge">
<title>Node12457&#45;&gt;Node12455</title>
<path fill="none" stroke="#191970" d="M418.7456,-55.7941C343.3426,-61.0766 245.079,-67.9606 175.2068,-72.8556"/>
<polygon fill="#191970" stroke="#191970" points="419.0281,-59.283 428.759,-55.0926 418.5388,-52.3001 419.0281,-59.283"/>
</g>
<!-- Node12457&#45;&gt;Node12456 -->
<g id="edge17" class="edge">
<title>Node12457&#45;&gt;Node12456</title>
<path fill="none" stroke="#191970" d="M418.7456,-41.7144C343.3426,-37.4544 245.079,-31.9028 175.2068,-27.9552"/>
<polygon fill="#191970" stroke="#191970" points="418.5775,-45.2104 428.759,-42.2802 418.9724,-38.2216 418.5775,-45.2104"/>
</g>
</g>
</svg>
