<?xml version="1.0" encoding="UTF-8" standalone="no"?>
<!DOCTYPE svg PUBLIC "-//W3C//DTD SVG 1.1//EN"
 "http://www.w3.org/Graphics/SVG/1.1/DTD/svg11.dtd">
<!-- Generated by graphviz version 2.40.1 (0)
 -->
<!-- Title: FocusOutComboBox::checkSelectAll Pages: 1 -->
<svg width="409pt" height="78pt"
 viewBox="0.00 0.00 409.00 77.50" xmlns="http://www.w3.org/2000/svg" xmlns:xlink="http://www.w3.org/1999/xlink">
<g id="graph0" class="graph" transform="scale(1 1) rotate(0) translate(4 73.5)">
<title>FocusOutComboBox::checkSelectAll</title>
<polygon fill="#ffffff" stroke="transparent" points="-4,4 -4,-73.5 405,-73.5 405,4 -4,4"/>
<!-- Node5 -->
<g id="node1" class="node">
<title>Node5</title>
<g id="a_node1"><a xlink:title=" ">
<polygon fill="#bfbfbf" stroke="#000000" points="209,-22.5 209,-41.5 401,-41.5 401,-22.5 209,-22.5"/>
<text text-anchor="middle" x="305" y="-29.5" font-family="Helvetica,sans-Serif" font-size="10.00" fill="#000000">FocusOutComboBox::checkSelectAll</text>
</a>
</g>
</g>
<!-- Node6 -->
<g id="node2" class="node">
<title>Node6</title>
<g id="a_node2"><a xlink:href="../../df/d6a/classFocusOutComboBox.html#ab4da8713b8ecf60a234996f8efc47386" target="_top" xlink:title=" ">
<polygon fill="#ffffff" stroke="#000000" points="8.5,-39 8.5,-69 164.5,-69 164.5,-39 8.5,-39"/>
<text text-anchor="start" x="16.5" y="-57" font-family="Helvetica,sans-Serif" font-size="10.00" fill="#000000">FocusOutComboBox::focusIn</text>
<text text-anchor="middle" x="86.5" y="-46" font-family="Helvetica,sans-Serif" font-size="10.00" fill="#000000">Event</text>
</a>
</g>
</g>
<!-- Node5&#45;&gt;Node6 -->
<g id="edge1" class="edge">
<title>Node5&#45;&gt;Node6</title>
<path fill="none" stroke="#191970" d="M200.3996,-42.5318C188.4184,-43.7382 176.3625,-44.9521 164.8097,-46.1153"/>
<polygon fill="#191970" stroke="#191970" points="200.8345,-46.0058 210.4335,-41.5216 200.1332,-39.0411 200.8345,-46.0058"/>
</g>
<!-- Node7 -->
<g id="node3" class="node">
<title>Node7</title>
<g id="a_node3"><a xlink:href="../../df/d6a/classFocusOutComboBox.html#a9375dfd1d808052341a67a72e061b6f1" target="_top" xlink:title=" ">
<polygon fill="#ffffff" stroke="#000000" points="0,-.5 0,-19.5 173,-19.5 173,-.5 0,-.5"/>
<text text-anchor="middle" x="86.5" y="-7.5" font-family="Helvetica,sans-Serif" font-size="10.00" fill="#000000">FocusOutComboBox::eventFilter</text>
</a>
</g>
</g>
<!-- Node5&#45;&gt;Node7 -->
<g id="edge2" class="edge">
<title>Node5&#45;&gt;Node7</title>
<path fill="none" stroke="#191970" d="M200.2662,-21.4547C191.2336,-20.5453 182.1597,-19.6316 173.2922,-18.7388"/>
<polygon fill="#191970" stroke="#191970" points="200.1332,-24.9589 210.4335,-22.4784 200.8345,-17.9942 200.1332,-24.9589"/>
</g>
</g>
</svg>
