<?xml version="1.0" encoding="UTF-8" standalone="no"?>
<!DOCTYPE svg PUBLIC "-//W3C//DTD SVG 1.1//EN"
 "http://www.w3.org/Graphics/SVG/1.1/DTD/svg11.dtd">
<!-- Generated by graphviz version 2.40.1 (0)
 -->
<!-- Title: version/versionchecker.cpp Pages: 1 -->
<!--zoomable 196 -->
<svg id="main" version="1.1" xmlns="http://www.w3.org/2000/svg" xmlns:xlink="http://www.w3.org/1999/xlink" xml:space="preserve" onload="init(evt)">
<style type="text/css"><![CDATA[
.edge:hover path { stroke: red; }
.edge:hover polygon { stroke: red; fill: red; }
]]></style>
<script type="text/javascript"><![CDATA[
var edges = document.getElementsByTagName('g');
if (edges && edges.length) {
  for (var i=0;i<edges.length;i++) {
    if (edges[i].id.substr(0,4)=='edge') {
      edges[i].setAttribute('class','edge');
    }
  }
}
]]></script>
        <defs>
                <circle id="rim" cx="0" cy="0" r="7"/>
                <circle id="rim2" cx="0" cy="0" r="3.5"/>
                <g id="zoomPlus">
                        <use xlink:href="#rim" fill="#404040">
                                <set attributeName="fill" to="#808080" begin="zoomplus.mouseover" end="zoomplus.mouseout"/>
                        </use>
                        <path d="M-4,0h8M0,-4v8" fill="none" stroke="white" stroke-width="1.5" pointer-events="none"/>
                </g>
                <g id="zoomMin">
                        <use xlink:href="#rim" fill="#404040">
                                <set attributeName="fill" to="#808080" begin="zoomminus.mouseover" end="zoomminus.mouseout"/>
                        </use>
                        <path d="M-4,0h8" fill="none" stroke="white" stroke-width="1.5" pointer-events="none"/>
                </g>
                <g id="dirArrow">
                        <path fill="none" stroke="white" stroke-width="1.5" d="M0,-3.0v7 M-2.5,-0.5L0,-3.0L2.5,-0.5"/>
                </g>
               <g id="resetDef">
                       <use xlink:href="#rim2" fill="#404040">
                               <set attributeName="fill" to="#808080" begin="reset.mouseover" end="reset.mouseout"/>
                       </use>
               </g>
        </defs>

<script type="text/javascript">
var viewWidth = 1243;
var viewHeight = 196;
var sectionId = 'dynsection-0';
</script>
<script xlink:href="../../svgpan.js"/>
<svg id="graph" class="graph">
<g id="viewport">
<title>version/versionchecker.cpp</title>
<polygon fill="#ffffff" stroke="transparent" points="-4,4 -4,-192 1238.5,-192 1238.5,4 -4,4"/>
<!-- Node0 -->
<g id="node1" class="node">
<title>Node0</title>
<g id="a_node1"><a xlink:title=" ">
<polygon fill="#bfbfbf" stroke="#000000" points="666.5,-168.5 666.5,-187.5 815.5,-187.5 815.5,-168.5 666.5,-168.5"/>
<text text-anchor="middle" x="741" y="-175.5" font-family="Helvetica,sans-Serif" font-size="10.00" fill="#000000">version/versionchecker.cpp</text>
</a>
</g>
</g>
<!-- Node1 -->
<g id="node2" class="node">
<title>Node1</title>
<g id="a_node2"><a xlink:href="../../d6/dee/versionchecker_8h.html" target="_top" xlink:title=" ">
<polygon fill="#ffffff" stroke="#000000" points="294,-112.5 294,-131.5 392,-131.5 392,-112.5 294,-112.5"/>
<text text-anchor="middle" x="343" y="-119.5" font-family="Helvetica,sans-Serif" font-size="10.00" fill="#000000">versionchecker.h</text>
</a>
</g>
</g>
<!-- Node0&#45;&gt;Node1 -->
<g id="edge1" class="edge">
<title>Node0&#45;&gt;Node1</title>
<path fill="none" stroke="#191970" d="M673.0336,-168.4369C596.9592,-157.733 474.8941,-140.558 402.4674,-130.3673"/>
<polygon fill="#191970" stroke="#191970" points="402.5431,-126.8435 392.153,-128.916 401.5678,-133.7753 402.5431,-126.8435"/>
</g>
<!-- Node7 -->
<g id="node8" class="node">
<title>Node7</title>
<g id="a_node8"><a xlink:href="../../df/dfc/version_8h.html" target="_top" xlink:title=" ">
<polygon fill="#ffffff" stroke="#000000" points="481,-56.5 481,-75.5 543,-75.5 543,-56.5 481,-56.5"/>
<text text-anchor="middle" x="512" y="-63.5" font-family="Helvetica,sans-Serif" font-size="10.00" fill="#000000">version.h</text>
</a>
</g>
</g>
<!-- Node0&#45;&gt;Node7 -->
<g id="edge9" class="edge">
<title>Node0&#45;&gt;Node7</title>
<path fill="none" stroke="#191970" d="M720.2723,-168.4742C700.3821,-159.2854 669.5347,-144.9088 643,-132 607.1037,-114.537 566.0522,-93.7148 539.6168,-80.1943"/>
<polygon fill="#191970" stroke="#191970" points="541.0713,-77.007 530.5753,-75.5632 537.8801,-83.2373 541.0713,-77.007"/>
</g>
<!-- Node9 -->
<g id="node10" class="node">
<title>Node9</title>
<g id="a_node10"><a xlink:href="../../df/db5/debugdialog_8h.html" target="_top" xlink:title=" ">
<polygon fill="#ffffff" stroke="#000000" points="651.5,-112.5 651.5,-131.5 746.5,-131.5 746.5,-112.5 651.5,-112.5"/>
<text text-anchor="middle" x="699" y="-119.5" font-family="Helvetica,sans-Serif" font-size="10.00" fill="#000000">../debugdialog.h</text>
</a>
</g>
</g>
<!-- Node0&#45;&gt;Node9 -->
<g id="edge10" class="edge">
<title>Node0&#45;&gt;Node9</title>
<path fill="none" stroke="#191970" d="M733.6842,-168.2455C727.7821,-160.3761 719.3258,-149.101 712.2406,-139.6542"/>
<polygon fill="#191970" stroke="#191970" points="715.0321,-137.5427 706.232,-131.6427 709.432,-141.7427 715.0321,-137.5427"/>
</g>
<!-- Node24 -->
<g id="node25" class="node">
<title>Node24</title>
<g id="a_node25"><a xlink:title=" ">
<polygon fill="#ffffff" stroke="#bfbfbf" points="765,-112.5 765,-131.5 803,-131.5 803,-112.5 765,-112.5"/>
<text text-anchor="middle" x="784" y="-119.5" font-family="Helvetica,sans-Serif" font-size="10.00" fill="#000000">QUrl</text>
</a>
</g>
</g>
<!-- Node0&#45;&gt;Node24 -->
<g id="edge26" class="edge">
<title>Node0&#45;&gt;Node24</title>
<path fill="none" stroke="#191970" d="M748.49,-168.2455C754.5326,-160.3761 763.1903,-149.101 770.4441,-139.6542"/>
<polygon fill="#191970" stroke="#191970" points="773.2815,-141.7058 776.5958,-131.6427 767.7295,-137.4426 773.2815,-141.7058"/>
</g>
<!-- Node25 -->
<g id="node26" class="node">
<title>Node25</title>
<g id="a_node26"><a xlink:title=" ">
<polygon fill="#ffffff" stroke="#bfbfbf" points="821,-112.5 821,-131.5 963,-131.5 963,-112.5 821,-112.5"/>
<text text-anchor="middle" x="892" y="-119.5" font-family="Helvetica,sans-Serif" font-size="10.00" fill="#000000">QNetworkAccessManager</text>
</a>
</g>
</g>
<!-- Node0&#45;&gt;Node25 -->
<g id="edge27" class="edge">
<title>Node0&#45;&gt;Node25</title>
<path fill="none" stroke="#191970" d="M766.9578,-168.3733C791.7407,-159.1822 829.2746,-145.2624 856.754,-135.0713"/>
<polygon fill="#191970" stroke="#191970" points="858.2219,-138.26 866.3809,-131.5011 855.7879,-131.6968 858.2219,-138.26"/>
</g>
<!-- Node26 -->
<g id="node27" class="node">
<title>Node26</title>
<g id="a_node27"><a xlink:title=" ">
<polygon fill="#ffffff" stroke="#bfbfbf" points="981,-112.5 981,-131.5 1067,-131.5 1067,-112.5 981,-112.5"/>
<text text-anchor="middle" x="1024" y="-119.5" font-family="Helvetica,sans-Serif" font-size="10.00" fill="#000000">QMutexLocker</text>
</a>
</g>
</g>
<!-- Node0&#45;&gt;Node26 -->
<g id="edge28" class="edge">
<title>Node0&#45;&gt;Node26</title>
<path fill="none" stroke="#191970" d="M789.3279,-168.4369C839.7962,-158.4502 918.7305,-142.8307 970.9075,-132.5059"/>
<polygon fill="#191970" stroke="#191970" points="971.8394,-135.8895 980.9697,-130.5148 970.4805,-129.0226 971.8394,-135.8895"/>
</g>
<!-- Node2 -->
<g id="node3" class="node">
<title>Node2</title>
<g id="a_node3"><a xlink:title=" ">
<polygon fill="#ffffff" stroke="#bfbfbf" points="0,-56.5 0,-75.5 56,-75.5 56,-56.5 0,-56.5"/>
<text text-anchor="middle" x="28" y="-63.5" font-family="Helvetica,sans-Serif" font-size="10.00" fill="#000000">QObject</text>
</a>
</g>
</g>
<!-- Node1&#45;&gt;Node2 -->
<g id="edge2" class="edge">
<title>Node1&#45;&gt;Node2</title>
<path fill="none" stroke="#191970" d="M293.756,-115.3706C240.0392,-107.8009 151.3621,-94.3179 66.0562,-76.0675"/>
<polygon fill="#191970" stroke="#191970" points="66.7246,-72.6312 56.2105,-73.9362 65.2436,-79.4728 66.7246,-72.6312"/>
</g>
<!-- Node3 -->
<g id="node4" class="node">
<title>Node3</title>
<g id="a_node4"><a xlink:title=" ">
<polygon fill="#ffffff" stroke="#bfbfbf" points="74.5,-56.5 74.5,-75.5 187.5,-75.5 187.5,-56.5 74.5,-56.5"/>
<text text-anchor="middle" x="131" y="-63.5" font-family="Helvetica,sans-Serif" font-size="10.00" fill="#000000">QXmlStreamReader</text>
</a>
</g>
</g>
<!-- Node1&#45;&gt;Node3 -->
<g id="edge3" class="edge">
<title>Node1&#45;&gt;Node3</title>
<path fill="none" stroke="#191970" d="M306.5559,-112.3733C270.6931,-102.9001 215.8122,-88.4032 176.9718,-78.1435"/>
<polygon fill="#191970" stroke="#191970" points="177.5308,-74.6712 166.9685,-75.5011 175.743,-81.439 177.5308,-74.6712"/>
</g>
<!-- Node4 -->
<g id="node5" class="node">
<title>Node4</title>
<g id="a_node5"><a xlink:title=" ">
<polygon fill="#ffffff" stroke="#bfbfbf" points="206,-56.5 206,-75.5 278,-75.5 278,-56.5 206,-56.5"/>
<text text-anchor="middle" x="242" y="-63.5" font-family="Helvetica,sans-Serif" font-size="10.00" fill="#000000">QDateTime</text>
</a>
</g>
</g>
<!-- Node1&#45;&gt;Node4 -->
<g id="edge4" class="edge">
<title>Node1&#45;&gt;Node4</title>
<path fill="none" stroke="#191970" d="M325.4071,-112.2455C309.621,-103.4928 286.2361,-90.527 268.2413,-80.5496"/>
<polygon fill="#191970" stroke="#191970" points="269.8341,-77.4308 259.3913,-75.6427 266.4397,-83.5528 269.8341,-77.4308"/>
</g>
<!-- Node5 -->
<g id="node6" class="node">
<title>Node5</title>
<g id="a_node6"><a xlink:title=" ">
<polygon fill="#ffffff" stroke="#bfbfbf" points="296.5,-56.5 296.5,-75.5 389.5,-75.5 389.5,-56.5 296.5,-56.5"/>
<text text-anchor="middle" x="343" y="-63.5" font-family="Helvetica,sans-Serif" font-size="10.00" fill="#000000">QNetworkReply</text>
</a>
</g>
</g>
<!-- Node1&#45;&gt;Node5 -->
<g id="edge5" class="edge">
<title>Node1&#45;&gt;Node5</title>
<path fill="none" stroke="#191970" d="M343,-112.2455C343,-104.9382 343,-94.6944 343,-85.7046"/>
<polygon fill="#191970" stroke="#191970" points="346.5001,-85.6426 343,-75.6427 339.5001,-85.6427 346.5001,-85.6426"/>
</g>
<!-- Node6 -->
<g id="node7" class="node">
<title>Node6</title>
<g id="a_node7"><a xlink:title=" ">
<polygon fill="#ffffff" stroke="#bfbfbf" points="407.5,-56.5 407.5,-75.5 462.5,-75.5 462.5,-56.5 407.5,-56.5"/>
<text text-anchor="middle" x="435" y="-63.5" font-family="Helvetica,sans-Serif" font-size="10.00" fill="#000000">QMutex</text>
</a>
</g>
</g>
<!-- Node1&#45;&gt;Node6 -->
<g id="edge6" class="edge">
<title>Node1&#45;&gt;Node6</title>
<path fill="none" stroke="#191970" d="M359.0252,-112.2455C373.1408,-103.6534 393.9263,-91.0014 410.1899,-81.1018"/>
<polygon fill="#191970" stroke="#191970" points="412.4363,-83.8319 419.1585,-75.6427 408.7966,-77.8525 412.4363,-83.8319"/>
</g>
<!-- Node1&#45;&gt;Node7 -->
<g id="edge7" class="edge">
<title>Node1&#45;&gt;Node7</title>
<path fill="none" stroke="#191970" d="M372.0521,-112.3733C400.1543,-103.0613 442.9054,-88.8953 473.7607,-78.671"/>
<polygon fill="#191970" stroke="#191970" points="474.9355,-81.969 483.327,-75.5011 472.7336,-75.3243 474.9355,-81.969"/>
</g>
<!-- Node8 -->
<g id="node9" class="node">
<title>Node8</title>
<g id="a_node9"><a xlink:title=" ">
<polygon fill="#ffffff" stroke="#bfbfbf" points="566.5,-.5 566.5,-19.5 619.5,-19.5 619.5,-.5 566.5,-.5"/>
<text text-anchor="middle" x="593" y="-7.5" font-family="Helvetica,sans-Serif" font-size="10.00" fill="#000000">QString</text>
</a>
</g>
</g>
<!-- Node7&#45;&gt;Node8 -->
<g id="edge8" class="edge">
<title>Node7&#45;&gt;Node8</title>
<path fill="none" stroke="#191970" d="M526.1091,-56.2455C538.4209,-47.7337 556.4958,-35.2375 570.7538,-25.3801"/>
<polygon fill="#191970" stroke="#191970" points="572.8174,-28.2085 579.0526,-19.6427 568.8366,-22.4506 572.8174,-28.2085"/>
</g>
<!-- Node10 -->
<g id="node11" class="node">
<title>Node10</title>
<g id="a_node11"><a xlink:title=" ">
<polygon fill="#ffffff" stroke="#bfbfbf" points="561,-56.5 561,-75.5 617,-75.5 617,-56.5 561,-56.5"/>
<text text-anchor="middle" x="589" y="-63.5" font-family="Helvetica,sans-Serif" font-size="10.00" fill="#000000">QDialog</text>
</a>
</g>
</g>
<!-- Node9&#45;&gt;Node10 -->
<g id="edge11" class="edge">
<title>Node9&#45;&gt;Node10</title>
<path fill="none" stroke="#191970" d="M679.8395,-112.2455C662.4889,-103.4125 636.7099,-90.2887 617.0417,-80.2758"/>
<polygon fill="#191970" stroke="#191970" points="618.4405,-77.0605 607.941,-75.6427 615.2647,-83.2986 618.4405,-77.0605"/>
</g>
<!-- Node11 -->
<g id="node12" class="node">
<title>Node11</title>
<g id="a_node12"><a xlink:title=" ">
<polygon fill="#ffffff" stroke="#bfbfbf" points="635,-56.5 635,-75.5 687,-75.5 687,-56.5 635,-56.5"/>
<text text-anchor="middle" x="661" y="-63.5" font-family="Helvetica,sans-Serif" font-size="10.00" fill="#000000">QEvent</text>
</a>
</g>
</g>
<!-- Node9&#45;&gt;Node11 -->
<g id="edge12" class="edge">
<title>Node9&#45;&gt;Node11</title>
<path fill="none" stroke="#191970" d="M692.3809,-112.2455C687.0954,-104.4564 679.5459,-93.3308 673.1762,-83.9439"/>
<polygon fill="#191970" stroke="#191970" points="676.0545,-81.9522 667.5432,-75.6427 670.2621,-85.8827 676.0545,-81.9522"/>
</g>
<!-- Node12 -->
<g id="node13" class="node">
<title>Node12</title>
<g id="a_node13"><a xlink:title=" ">
<polygon fill="#ffffff" stroke="#bfbfbf" points="705.5,-56.5 705.5,-75.5 768.5,-75.5 768.5,-56.5 705.5,-56.5"/>
<text text-anchor="middle" x="737" y="-63.5" font-family="Helvetica,sans-Serif" font-size="10.00" fill="#000000">QTextEdit</text>
</a>
</g>
</g>
<!-- Node9&#45;&gt;Node12 -->
<g id="edge13" class="edge">
<title>Node9&#45;&gt;Node12</title>
<path fill="none" stroke="#191970" d="M705.6191,-112.2455C710.9046,-104.4564 718.4541,-93.3308 724.8238,-83.9439"/>
<polygon fill="#191970" stroke="#191970" points="727.7379,-85.8827 730.4568,-75.6427 721.9455,-81.9522 727.7379,-85.8827"/>
</g>
<!-- Node13 -->
<g id="node14" class="node">
<title>Node13</title>
<g id="a_node14"><a xlink:title=" ">
<polygon fill="#ffffff" stroke="#bfbfbf" points="786.5,-56.5 786.5,-75.5 827.5,-75.5 827.5,-56.5 786.5,-56.5"/>
<text text-anchor="middle" x="807" y="-63.5" font-family="Helvetica,sans-Serif" font-size="10.00" fill="#000000">QFile</text>
</a>
</g>
</g>
<!-- Node9&#45;&gt;Node13 -->
<g id="edge14" class="edge">
<title>Node9&#45;&gt;Node13</title>
<path fill="none" stroke="#191970" d="M717.8122,-112.2455C734.8473,-103.4125 760.1575,-90.2887 779.4681,-80.2758"/>
<polygon fill="#191970" stroke="#191970" points="781.137,-83.353 788.4034,-75.6427 777.9147,-77.1388 781.137,-83.353"/>
</g>
<!-- Node14 -->
<g id="node15" class="node">
<title>Node14</title>
<g id="a_node15"><a xlink:title=" ">
<polygon fill="#ffffff" stroke="#bfbfbf" points="845.5,-56.5 845.5,-75.5 904.5,-75.5 904.5,-56.5 845.5,-56.5"/>
<text text-anchor="middle" x="875" y="-63.5" font-family="Helvetica,sans-Serif" font-size="10.00" fill="#000000">QPointer</text>
</a>
</g>
</g>
<!-- Node9&#45;&gt;Node14 -->
<g id="edge15" class="edge">
<title>Node9&#45;&gt;Node14</title>
<path fill="none" stroke="#191970" d="M729.2555,-112.3733C758.7374,-102.9927 803.7008,-88.6861 835.8855,-78.4455"/>
<polygon fill="#191970" stroke="#191970" points="836.9642,-81.7753 845.4323,-75.4079 834.8418,-75.1048 836.9642,-81.7753"/>
</g>
<!-- Node15 -->
<g id="node16" class="node">
<title>Node15</title>
<g id="a_node16"><a xlink:href="../../d4/d08/misc_8h.html" target="_top" xlink:title=" ">
<polygon fill="#ffffff" stroke="#000000" points="922.5,-56.5 922.5,-75.5 995.5,-75.5 995.5,-56.5 922.5,-56.5"/>
<text text-anchor="middle" x="959" y="-63.5" font-family="Helvetica,sans-Serif" font-size="10.00" fill="#000000">utils/misc.h</text>
</a>
</g>
</g>
<!-- Node9&#45;&gt;Node15 -->
<g id="edge16" class="edge">
<title>Node9&#45;&gt;Node15</title>
<path fill="none" stroke="#191970" d="M743.9069,-112.4998C785.2936,-103.72 848.6938,-90.2096 912.3637,-76.3468"/>
<polygon fill="#191970" stroke="#191970" points="913.1431,-79.7591 922.1683,-74.2096 911.6523,-72.9197 913.1431,-79.7591"/>
</g>
<!-- Node15&#45;&gt;Node8 -->
<g id="edge19" class="edge">
<title>Node15&#45;&gt;Node8</title>
<path fill="none" stroke="#191970" d="M922.2101,-57.5814C919.4368,-57.0213 916.6771,-56.4872 914,-56 802.258,-35.6656 773.4068,-36.2624 661,-20 650.9203,-18.5417 640.0031,-16.9443 629.9272,-15.4625"/>
<polygon fill="#191970" stroke="#191970" points="630.2054,-11.9658 619.8021,-13.9709 629.1852,-18.8911 630.2054,-11.9658"/>
</g>
<!-- Node16 -->
<g id="node17" class="node">
<title>Node16</title>
<g id="a_node17"><a xlink:title=" ">
<polygon fill="#ffffff" stroke="#bfbfbf" points="669.5,-.5 669.5,-19.5 718.5,-19.5 718.5,-.5 669.5,-.5"/>
<text text-anchor="middle" x="694" y="-7.5" font-family="Helvetica,sans-Serif" font-size="10.00" fill="#000000">QHash</text>
</a>
</g>
</g>
<!-- Node15&#45;&gt;Node16 -->
<g id="edge17" class="edge">
<title>Node15&#45;&gt;Node16</title>
<path fill="none" stroke="#191970" d="M922.1808,-57.7315C919.4143,-57.1368 916.6641,-56.5537 914,-56 834.6203,-39.5014 811.5126,-39.8498 728.6609,-19.9815"/>
<polygon fill="#191970" stroke="#191970" points="729.3521,-16.5477 718.8089,-17.5921 727.7022,-23.3505 729.3521,-16.5477"/>
</g>
<!-- Node17 -->
<g id="node18" class="node">
<title>Node17</title>
<g id="a_node18"><a xlink:title=" ">
<polygon fill="#ffffff" stroke="#bfbfbf" points="736.5,-.5 736.5,-19.5 791.5,-19.5 791.5,-.5 736.5,-.5"/>
<text text-anchor="middle" x="764" y="-7.5" font-family="Helvetica,sans-Serif" font-size="10.00" fill="#000000">QVector</text>
</a>
</g>
</g>
<!-- Node15&#45;&gt;Node17 -->
<g id="edge18" class="edge">
<title>Node15&#45;&gt;Node17</title>
<path fill="none" stroke="#191970" d="M925.4783,-56.3733C890.9396,-46.4544 837.2232,-31.0282 801.345,-20.7247"/>
<polygon fill="#191970" stroke="#191970" points="802.3069,-17.3595 791.7292,-17.9633 800.3746,-24.0876 802.3069,-17.3595"/>
</g>
<!-- Node18 -->
<g id="node19" class="node">
<title>Node18</title>
<g id="a_node19"><a xlink:title=" ">
<polygon fill="#ffffff" stroke="#bfbfbf" points="810,-.5 810,-19.5 848,-19.5 848,-.5 810,-.5"/>
<text text-anchor="middle" x="829" y="-7.5" font-family="Helvetica,sans-Serif" font-size="10.00" fill="#000000">QDir</text>
</a>
</g>
</g>
<!-- Node15&#45;&gt;Node18 -->
<g id="edge20" class="edge">
<title>Node15&#45;&gt;Node18</title>
<path fill="none" stroke="#191970" d="M936.6522,-56.3733C914.7034,-46.9184 881.1376,-32.4593 857.3286,-22.2031"/>
<polygon fill="#191970" stroke="#191970" points="858.6678,-18.9691 848.099,-18.2273 855.8984,-25.398 858.6678,-18.9691"/>
</g>
<!-- Node19 -->
<g id="node20" class="node">
<title>Node19</title>
<g id="a_node20"><a xlink:title=" ">
<polygon fill="#ffffff" stroke="#bfbfbf" points="866,-.5 866,-19.5 954,-19.5 954,-.5 866,-.5"/>
<text text-anchor="middle" x="910" y="-7.5" font-family="Helvetica,sans-Serif" font-size="10.00" fill="#000000">QDomElement</text>
</a>
</g>
</g>
<!-- Node15&#45;&gt;Node19 -->
<g id="edge21" class="edge">
<title>Node15&#45;&gt;Node19</title>
<path fill="none" stroke="#191970" d="M950.4649,-56.2455C943.5088,-48.2958 933.5117,-36.8706 925.1949,-27.3656"/>
<polygon fill="#191970" stroke="#191970" points="927.6564,-24.8637 918.4373,-19.6427 922.3884,-29.4732 927.6564,-24.8637"/>
</g>
<!-- Node20 -->
<g id="node21" class="node">
<title>Node20</title>
<g id="a_node21"><a xlink:title=" ">
<polygon fill="#ffffff" stroke="#bfbfbf" points="972,-.5 972,-19.5 1042,-19.5 1042,-.5 972,-.5"/>
<text text-anchor="middle" x="1007" y="-7.5" font-family="Helvetica,sans-Serif" font-size="10.00" fill="#000000">QStringList</text>
</a>
</g>
</g>
<!-- Node15&#45;&gt;Node20 -->
<g id="edge22" class="edge">
<title>Node15&#45;&gt;Node20</title>
<path fill="none" stroke="#191970" d="M967.361,-56.2455C974.175,-48.2958 983.9681,-36.8706 992.1152,-27.3656"/>
<polygon fill="#191970" stroke="#191970" points="994.8843,-29.513 998.7349,-19.6427 989.5695,-24.9575 994.8843,-29.513"/>
</g>
<!-- Node21 -->
<g id="node22" class="node">
<title>Node21</title>
<g id="a_node22"><a xlink:title=" ">
<polygon fill="#ffffff" stroke="#bfbfbf" points="1060,-.5 1060,-19.5 1102,-19.5 1102,-.5 1060,-.5"/>
<text text-anchor="middle" x="1081" y="-7.5" font-family="Helvetica,sans-Serif" font-size="10.00" fill="#000000">QPair</text>
</a>
</g>
</g>
<!-- Node15&#45;&gt;Node21 -->
<g id="edge23" class="edge">
<title>Node15&#45;&gt;Node21</title>
<path fill="none" stroke="#191970" d="M979.9725,-56.3733C999.5567,-47.3838 1028.9961,-33.8706 1051.051,-23.7471"/>
<polygon fill="#191970" stroke="#191970" points="1052.6729,-26.8538 1060.3011,-19.5011 1049.7527,-20.4919 1052.6729,-26.8538"/>
</g>
<!-- Node22 -->
<g id="node23" class="node">
<title>Node22</title>
<g id="a_node23"><a xlink:title=" ">
<polygon fill="#ffffff" stroke="#bfbfbf" points="1120.5,-.5 1120.5,-19.5 1161.5,-19.5 1161.5,-.5 1120.5,-.5"/>
<text text-anchor="middle" x="1141" y="-7.5" font-family="Helvetica,sans-Serif" font-size="10.00" fill="#000000">QList</text>
</a>
</g>
</g>
<!-- Node15&#45;&gt;Node22 -->
<g id="edge24" class="edge">
<title>Node15&#45;&gt;Node22</title>
<path fill="none" stroke="#191970" d="M991.401,-56.4792C1020.2426,-47.9414 1063.8071,-34.8922 1110.6446,-20.0529"/>
<polygon fill="#191970" stroke="#191970" points="1111.8986,-23.327 1120.3679,-16.9613 1109.7774,-16.6561 1111.8986,-23.327"/>
</g>
<!-- Node23 -->
<g id="node24" class="node">
<title>Node23</title>
<g id="a_node24"><a xlink:title=" ">
<polygon fill="#ffffff" stroke="#bfbfbf" points="1179.5,-.5 1179.5,-19.5 1234.5,-19.5 1234.5,-.5 1179.5,-.5"/>
<text text-anchor="middle" x="1207" y="-7.5" font-family="Helvetica,sans-Serif" font-size="10.00" fill="#000000">QPointF</text>
</a>
</g>
</g>
<!-- Node15&#45;&gt;Node23 -->
<g id="edge25" class="edge">
<title>Node15&#45;&gt;Node23</title>
<path fill="none" stroke="#191970" d="M995.5343,-58.7355C1035.9136,-50.5604 1103.087,-36.5307 1169.3647,-20.3179"/>
<polygon fill="#191970" stroke="#191970" points="1170.2615,-23.7017 1179.1335,-17.9104 1168.5865,-16.905 1170.2615,-23.7017"/>
</g>
</g>
</svg>
        <g id="navigator" transform="translate(0 0)" fill="#404254">
                <rect fill="#f2f5e9" fill-opacity="0.5" stroke="#606060" stroke-width=".5" x="0" y="0" width="60" height="60"/>
                <use id="zoomplus" xlink:href="#zoomPlus" x="17" y="9" onmousedown="handleZoom(evt,'in')"/>
                <use id="zoomminus" xlink:href="#zoomMin" x="42" y="9" onmousedown="handleZoom(evt,'out')"/>
                <use id="reset" xlink:href="#resetDef" x="30" y="36" onmousedown="handleReset()"/>
                <g id="arrowUp" xlink:href="#dirArrow" transform="translate(30 24)" onmousedown="handlePan(0,-1)">
                  <use xlink:href="#rim" fill="#404040">
                        <set attributeName="fill" to="#808080" begin="arrowUp.mouseover" end="arrowUp.mouseout"/>
                  </use>
                  <path fill="none" stroke="white" stroke-width="1.5" d="M0,-3.0v7 M-2.5,-0.5L0,-3.0L2.5,-0.5"/>
                </g>
                <g id="arrowRight" xlink:href="#dirArrow" transform="rotate(90) translate(36 -43)" onmousedown="handlePan(1,0)">
                  <use xlink:href="#rim" fill="#404040">
                        <set attributeName="fill" to="#808080" begin="arrowRight.mouseover" end="arrowRight.mouseout"/>
                  </use>
                  <path fill="none" stroke="white" stroke-width="1.5" d="M0,-3.0v7 M-2.5,-0.5L0,-3.0L2.5,-0.5"/>
                </g>
                <g id="arrowDown" xlink:href="#dirArrow" transform="rotate(180) translate(-30 -48)" onmousedown="handlePan(0,1)">
                  <use xlink:href="#rim" fill="#404040">
                        <set attributeName="fill" to="#808080" begin="arrowDown.mouseover" end="arrowDown.mouseout"/>
                  </use>
                  <path fill="none" stroke="white" stroke-width="1.5" d="M0,-3.0v7 M-2.5,-0.5L0,-3.0L2.5,-0.5"/>
                </g>
                <g id="arrowLeft" xlink:href="#dirArrow" transform="rotate(270) translate(-36 17)" onmousedown="handlePan(-1,0)">
                  <use xlink:href="#rim" fill="#404040">
                        <set attributeName="fill" to="#808080" begin="arrowLeft.mouseover" end="arrowLeft.mouseout"/>
                  </use>
                  <path fill="none" stroke="white" stroke-width="1.5" d="M0,-3.0v7 M-2.5,-0.5L0,-3.0L2.5,-0.5"/>
                </g>
        </g>
        <svg viewBox="0 0 15 15" width="100%" height="30px" preserveAspectRatio="xMaxYMin meet">
         <g id="arrow_out" transform="scale(0.3 0.3)">
          <a xlink:href="versionchecker_8cpp__incl_org.svg" target="_base">
           <rect id="button" ry="5" rx="5" y="6" x="6" height="38" width="38"
                fill="#f2f5e9" fill-opacity="0.5" stroke="#606060" stroke-width="1.0"/>
           <path id="arrow"
             d="M 11.500037,31.436501 C 11.940474,20.09759 22.043105,11.32322 32.158766,21.979434 L 37.068811,17.246167 C 37.068811,17.246167 37.088388,32 37.088388,32 L 22.160133,31.978069 C 22.160133,31.978069 26.997745,27.140456 26.997745,27.140456 C 18.528582,18.264221 13.291696,25.230495 11.500037,31.436501 z"
             style="fill:#404040;"/>
          </a>
         </g>
        </svg>
</svg>
