<?xml version="1.0" encoding="UTF-8" standalone="no"?>
<!DOCTYPE svg PUBLIC "-//W3C//DTD SVG 1.1//EN"
 "http://www.w3.org/Graphics/SVG/1.1/DTD/svg11.dtd">
<!-- Generated by graphviz version 2.40.1 (0)
 -->
<!-- Title: SchematicFrame::makeLayerSvg Pages: 1 -->
<!--zoomable 481 -->
<svg id="main" version="1.1" xmlns="http://www.w3.org/2000/svg" xmlns:xlink="http://www.w3.org/1999/xlink" xml:space="preserve" onload="init(evt)">
<style type="text/css"><![CDATA[
.edge:hover path { stroke: red; }
.edge:hover polygon { stroke: red; fill: red; }
]]></style>
<script type="text/javascript"><![CDATA[
var edges = document.getElementsByTagName('g');
if (edges && edges.length) {
  for (var i=0;i<edges.length;i++) {
    if (edges[i].id.substr(0,4)=='edge') {
      edges[i].setAttribute('class','edge');
    }
  }
}
]]></script>
        <defs>
                <circle id="rim" cx="0" cy="0" r="7"/>
                <circle id="rim2" cx="0" cy="0" r="3.5"/>
                <g id="zoomPlus">
                        <use xlink:href="#rim" fill="#404040">
                                <set attributeName="fill" to="#808080" begin="zoomplus.mouseover" end="zoomplus.mouseout"/>
                        </use>
                        <path d="M-4,0h8M0,-4v8" fill="none" stroke="white" stroke-width="1.5" pointer-events="none"/>
                </g>
                <g id="zoomMin">
                        <use xlink:href="#rim" fill="#404040">
                                <set attributeName="fill" to="#808080" begin="zoomminus.mouseover" end="zoomminus.mouseout"/>
                        </use>
                        <path d="M-4,0h8" fill="none" stroke="white" stroke-width="1.5" pointer-events="none"/>
                </g>
                <g id="dirArrow">
                        <path fill="none" stroke="white" stroke-width="1.5" d="M0,-3.0v7 M-2.5,-0.5L0,-3.0L2.5,-0.5"/>
                </g>
               <g id="resetDef">
                       <use xlink:href="#rim2" fill="#404040">
                               <set attributeName="fill" to="#808080" begin="reset.mouseover" end="reset.mouseout"/>
                       </use>
               </g>
        </defs>

<script type="text/javascript">
var viewWidth = 569;
var viewHeight = 481;
var sectionId = 'dynsection-11';
</script>
<script xlink:href="../../svgpan.js"/>
<svg id="graph" class="graph">
<g id="viewport">
<title>SchematicFrame::makeLayerSvg</title>
<polygon fill="#ffffff" stroke="transparent" points="-4,4 -4,-476.5 565,-476.5 565,4 -4,4"/>
<!-- Node165 -->
<g id="node1" class="node">
<title>Node165</title>
<g id="a_node1"><a xlink:title=" ">
<polygon fill="#bfbfbf" stroke="#000000" points="0,-209.5 0,-228.5 176,-228.5 176,-209.5 0,-209.5"/>
<text text-anchor="middle" x="88" y="-216.5" font-family="Helvetica,sans-Serif" font-size="10.00" fill="#000000">SchematicFrame::makeLayerSvg</text>
</a>
</g>
</g>
<!-- Node166 -->
<g id="node2" class="node">
<title>Node166</title>
<g id="a_node2"><a xlink:href="../../de/db8/classTextUtils.html#aec379f2545c5e9a447b8bb09366da798" target="_top" xlink:title=" ">
<polygon fill="#ffffff" stroke="#000000" points="221.5,-442 221.5,-472 369.5,-472 369.5,-442 221.5,-442"/>
<text text-anchor="start" x="229.5" y="-460" font-family="Helvetica,sans-Serif" font-size="10.00" fill="#000000">TextUtils::convertExtended</text>
<text text-anchor="middle" x="295.5" y="-449" font-family="Helvetica,sans-Serif" font-size="10.00" fill="#000000">Chars</text>
</a>
</g>
</g>
<!-- Node165&#45;&gt;Node166 -->
<g id="edge1" class="edge">
<title>Node165&#45;&gt;Node166</title>
<path fill="none" stroke="#191970" d="M90.8185,-228.7864C101.0346,-262.4889 139.3984,-374.805 212,-432 214.2845,-433.7997 216.6966,-435.4701 219.2042,-437.0204"/>
<polygon fill="#191970" stroke="#191970" points="217.5963,-440.1301 228.0519,-441.8425 220.9462,-433.9837 217.5963,-440.1301"/>
</g>
<!-- Node167 -->
<g id="node3" class="node">
<title>Node167</title>
<g id="a_node3"><a xlink:href="../../da/d3a/classDebugDialog.html#ad26216d18945d7d7188420707b76f241" target="_top" xlink:title=" ">
<polygon fill="#ffffff" stroke="#000000" points="237.5,-403.5 237.5,-422.5 353.5,-422.5 353.5,-403.5 237.5,-403.5"/>
<text text-anchor="middle" x="295.5" y="-410.5" font-family="Helvetica,sans-Serif" font-size="10.00" fill="#000000">DebugDialog::debug</text>
</a>
</g>
</g>
<!-- Node165&#45;&gt;Node167 -->
<g id="edge2" class="edge">
<title>Node165&#45;&gt;Node167</title>
<path fill="none" stroke="#191970" d="M91.9132,-228.8453C104.3993,-258.9111 146.3633,-350.144 212,-394 216.8307,-397.2277 222.1323,-399.9127 227.6484,-402.1455"/>
<polygon fill="#191970" stroke="#191970" points="226.4943,-405.4497 237.089,-405.4922 228.8332,-398.852 226.4943,-405.4497"/>
</g>
<!-- Node168 -->
<g id="node4" class="node">
<title>Node168</title>
<g id="a_node4"><a xlink:href="../../dd/d77/schematicframe_8cpp.html#a596ee6915d86bd1db91b33617a04d1c0" target="_top" xlink:title=" ">
<polygon fill="#ffffff" stroke="#000000" points="251.5,-365.5 251.5,-384.5 339.5,-384.5 339.5,-365.5 251.5,-365.5"/>
<text text-anchor="middle" x="295.5" y="-372.5" font-family="Helvetica,sans-Serif" font-size="10.00" fill="#000000">DisplayFormat</text>
</a>
</g>
</g>
<!-- Node165&#45;&gt;Node168 -->
<g id="edge3" class="edge">
<title>Node165&#45;&gt;Node168</title>
<path fill="none" stroke="#191970" d="M93.8155,-228.8172C109.4269,-254.2515 154.9623,-322.6228 212,-356 220.8538,-361.181 231.0008,-364.9495 241.1008,-367.6904"/>
<polygon fill="#191970" stroke="#191970" points="240.5944,-371.1683 251.1355,-370.1031 242.2308,-364.3623 240.5944,-371.1683"/>
</g>
<!-- Node169 -->
<g id="node5" class="node">
<title>Node169</title>
<g id="a_node5"><a xlink:href="../../de/db8/classTextUtils.html#a31919c349d6462cbcb8742f08d6e7c9c" target="_top" xlink:title=" ">
<polygon fill="#ffffff" stroke="#000000" points="228.5,-316 228.5,-346 362.5,-346 362.5,-316 228.5,-316"/>
<text text-anchor="start" x="236.5" y="-334" font-family="Helvetica,sans-Serif" font-size="10.00" fill="#000000">TextUtils::incMultiplyPin</text>
<text text-anchor="middle" x="295.5" y="-323" font-family="Helvetica,sans-Serif" font-size="10.00" fill="#000000">Function</text>
</a>
</g>
</g>
<!-- Node165&#45;&gt;Node169 -->
<g id="edge4" class="edge">
<title>Node165&#45;&gt;Node169</title>
<path fill="none" stroke="#191970" d="M98.8117,-228.6289C119.4147,-246.5105 166.3293,-285.021 212,-307 216.0074,-308.9285 220.1992,-310.7312 224.48,-312.4114"/>
<polygon fill="#191970" stroke="#191970" points="223.3627,-315.7296 233.9562,-315.8954 225.7782,-309.1596 223.3627,-315.7296"/>
</g>
<!-- Node170 -->
<g id="node6" class="node">
<title>Node170</title>
<g id="a_node6"><a xlink:href="../../de/db8/classTextUtils.html#ad908775b15b7557b17705ed20e7d8a35" target="_top" xlink:title=" ">
<polygon fill="#ffffff" stroke="#000000" points="215.5,-267 215.5,-297 375.5,-297 375.5,-267 215.5,-267"/>
<text text-anchor="start" x="223.5" y="-285" font-family="Helvetica,sans-Serif" font-size="10.00" fill="#000000">TextUtils::incrementTemplate</text>
<text text-anchor="middle" x="295.5" y="-274" font-family="Helvetica,sans-Serif" font-size="10.00" fill="#000000">String</text>
</a>
</g>
</g>
<!-- Node165&#45;&gt;Node170 -->
<g id="edge5" class="edge">
<title>Node165&#45;&gt;Node170</title>
<path fill="none" stroke="#191970" d="M118.8131,-228.5032C143.8927,-236.2235 180.2153,-247.3717 212,-257 219.6191,-259.308 227.6331,-261.7232 235.5579,-264.1041"/>
<polygon fill="#191970" stroke="#191970" points="234.5636,-267.4598 245.1476,-266.9817 236.5755,-260.7552 234.5636,-267.4598"/>
</g>
<!-- Node171 -->
<g id="node7" class="node">
<title>Node171</title>
<g id="a_node7"><a xlink:href="../../d4/d4f/classItemBase.html#a9d409870010f61f510a7b55e2075f6c3" target="_top" xlink:title=" ">
<polygon fill="#ffffff" stroke="#000000" points="249,-228.5 249,-247.5 342,-247.5 342,-228.5 249,-228.5"/>
<text text-anchor="middle" x="295.5" y="-235.5" font-family="Helvetica,sans-Serif" font-size="10.00" fill="#000000">ItemBase::label</text>
</a>
</g>
</g>
<!-- Node165&#45;&gt;Node171 -->
<g id="edge6" class="edge">
<title>Node165&#45;&gt;Node171</title>
<path fill="none" stroke="#191970" d="M176.2996,-227.0853C197.4308,-229.0202 219.4366,-231.0352 238.7044,-232.7994"/>
<polygon fill="#191970" stroke="#191970" points="238.5292,-236.2979 248.8067,-233.7245 239.1675,-229.3271 238.5292,-236.2979"/>
</g>
<!-- Node172 -->
<g id="node8" class="node">
<title>Node172</title>
<g id="a_node8"><a xlink:href="../../d4/d4f/classItemBase.html#acc2f5bad42928e7178c28fa0771b1f60" target="_top" xlink:title=" ">
<polygon fill="#ffffff" stroke="#000000" points="236,-190.5 236,-209.5 355,-209.5 355,-190.5 236,-190.5"/>
<text text-anchor="middle" x="295.5" y="-197.5" font-family="Helvetica,sans-Serif" font-size="10.00" fill="#000000">ItemBase::modelPart</text>
</a>
</g>
</g>
<!-- Node165&#45;&gt;Node172 -->
<g id="edge7" class="edge">
<title>Node165&#45;&gt;Node172</title>
<path fill="none" stroke="#191970" d="M176.2996,-210.9147C192.7678,-209.4068 209.7673,-207.8502 225.5879,-206.4016"/>
<polygon fill="#191970" stroke="#191970" points="226.1575,-209.8642 235.7966,-205.4668 225.5191,-202.8933 226.1575,-209.8642"/>
</g>
<!-- Node173 -->
<g id="node9" class="node">
<title>Node173</title>
<g id="a_node9"><a xlink:href="../../d4/d4f/classItemBase.html#a97277bb1a43bcb78bcc5522290c63477" target="_top" xlink:title=" ">
<polygon fill="#ffffff" stroke="#000000" points="237.5,-152.5 237.5,-171.5 353.5,-171.5 353.5,-152.5 237.5,-152.5"/>
<text text-anchor="middle" x="295.5" y="-159.5" font-family="Helvetica,sans-Serif" font-size="10.00" fill="#000000">ItemBase::moduleID</text>
</a>
</g>
</g>
<!-- Node165&#45;&gt;Node173 -->
<g id="edge8" class="edge">
<title>Node165&#45;&gt;Node173</title>
<path fill="none" stroke="#191970" d="M116.8892,-209.4863C141.9099,-201.4056 179.1484,-189.7586 212,-181 221.2757,-178.527 231.1844,-176.0928 240.8167,-173.835"/>
<polygon fill="#191970" stroke="#191970" points="241.7587,-177.2098 250.7163,-171.552 240.1855,-170.3888 241.7587,-177.2098"/>
</g>
<!-- Node174 -->
<g id="node10" class="node">
<title>Node174</title>
<g id="a_node10"><a xlink:href="../../de/db8/classTextUtils.html#ac237cced8514f5457a974d9ca6d611be" target="_top" xlink:title=" ">
<polygon fill="#ffffff" stroke="#000000" points="216.5,-114.5 216.5,-133.5 374.5,-133.5 374.5,-114.5 216.5,-114.5"/>
<text text-anchor="middle" x="295.5" y="-121.5" font-family="Helvetica,sans-Serif" font-size="10.00" fill="#000000">TextUtils::noCopyPinFunction</text>
</a>
</g>
</g>
<!-- Node165&#45;&gt;Node174 -->
<g id="edge9" class="edge">
<title>Node165&#45;&gt;Node174</title>
<path fill="none" stroke="#191970" d="M100.6385,-209.2945C122.2632,-193.1537 168.2716,-160.8111 212,-143 218.2906,-140.4378 224.9954,-138.1849 231.7661,-136.2126"/>
<polygon fill="#191970" stroke="#191970" points="232.9576,-139.516 241.6928,-133.5204 231.1253,-132.7601 232.9576,-139.516"/>
</g>
<!-- Node175 -->
<g id="node11" class="node">
<title>Node175</title>
<g id="a_node11"><a xlink:href="../../d4/d4f/classItemBase.html#a6728938e08a09a903e8ccc3bf62cedcb" target="_top" xlink:title=" ">
<polygon fill="#ffffff" stroke="#000000" points="250,-76.5 250,-95.5 341,-95.5 341,-76.5 250,-76.5"/>
<text text-anchor="middle" x="295.5" y="-83.5" font-family="Helvetica,sans-Serif" font-size="10.00" fill="#000000">ItemBase::prop</text>
</a>
</g>
</g>
<!-- Node165&#45;&gt;Node175 -->
<g id="edge10" class="edge">
<title>Node165&#45;&gt;Node175</title>
<path fill="none" stroke="#191970" d="M95.5053,-209.2593C113.1972,-187.0204 159.961,-132.3287 212,-105 220.5967,-100.4854 230.2419,-97.0376 239.841,-94.4063"/>
<polygon fill="#191970" stroke="#191970" points="240.9138,-97.7465 249.7818,-91.9491 239.2341,-90.951 240.9138,-97.7465"/>
</g>
<!-- Node176 -->
<g id="node12" class="node">
<title>Node176</title>
<g id="a_node12"><a xlink:href="../../de/db8/classTextUtils.html#a7a8037b1d81cd16573fff89141c56977" target="_top" xlink:title=" ">
<polygon fill="#ffffff" stroke="#000000" points="212,-38.5 212,-57.5 379,-57.5 379,-38.5 212,-38.5"/>
<text text-anchor="middle" x="295.5" y="-45.5" font-family="Helvetica,sans-Serif" font-size="10.00" fill="#000000">TextUtils::replaceTextElements</text>
</a>
</g>
</g>
<!-- Node165&#45;&gt;Node176 -->
<g id="edge11" class="edge">
<title>Node165&#45;&gt;Node176</title>
<path fill="none" stroke="#191970" d="M92.8875,-209.3044C107.1408,-182.0854 151.5108,-104.5136 212,-67 215.3857,-64.9003 218.9775,-63.032 222.6951,-61.3696"/>
<polygon fill="#191970" stroke="#191970" points="224.1271,-64.5674 232.1497,-57.6472 221.5627,-58.054 224.1271,-64.5674"/>
</g>
<!-- Node178 -->
<g id="node14" class="node">
<title>Node178</title>
<g id="a_node14"><a xlink:href="../../d4/d4f/classItemBase.html#a8f16baa26ee92ac6cd8dda5c69d759d4" target="_top" xlink:title=" ">
<polygon fill="#ffffff" stroke="#000000" points="230.5,-.5 230.5,-19.5 360.5,-19.5 360.5,-.5 230.5,-.5"/>
<text text-anchor="middle" x="295.5" y="-7.5" font-family="Helvetica,sans-Serif" font-size="10.00" fill="#000000">ItemBase::viewLayerID</text>
</a>
</g>
</g>
<!-- Node165&#45;&gt;Node178 -->
<g id="edge13" class="edge">
<title>Node165&#45;&gt;Node178</title>
<path fill="none" stroke="#191970" d="M91.3315,-209.2247C102.6502,-177.5733 142.8201,-77.1614 212,-29 214.894,-26.9852 217.9686,-25.1807 221.1654,-23.5648"/>
<polygon fill="#191970" stroke="#191970" points="222.6981,-26.7144 230.4497,-19.492 219.886,-20.3041 222.6981,-26.7144"/>
</g>
<!-- Node177 -->
<g id="node13" class="node">
<title>Node177</title>
<g id="a_node13"><a xlink:href="../../de/db8/classTextUtils.html#ac4b18d8c6e90f5f03a6e9d1b2f48af28" target="_top" xlink:title=" ">
<polygon fill="#ffffff" stroke="#000000" points="415,-38.5 415,-57.5 561,-57.5 561,-38.5 415,-38.5"/>
<text text-anchor="middle" x="488" y="-45.5" font-family="Helvetica,sans-Serif" font-size="10.00" fill="#000000">TextUtils::replaceChildText</text>
</a>
</g>
</g>
<!-- Node176&#45;&gt;Node177 -->
<g id="edge12" class="edge">
<title>Node176&#45;&gt;Node177</title>
<path fill="none" stroke="#191970" d="M379.0935,-48C387.5333,-48 396.1053,-48 404.5437,-48"/>
<polygon fill="#191970" stroke="#191970" points="404.7527,-51.5001 414.7527,-48 404.7526,-44.5001 404.7527,-51.5001"/>
</g>
</g>
</svg>
        <g id="navigator" transform="translate(0 0)" fill="#404254">
                <rect fill="#f2f5e9" fill-opacity="0.5" stroke="#606060" stroke-width=".5" x="0" y="0" width="60" height="60"/>
                <use id="zoomplus" xlink:href="#zoomPlus" x="17" y="9" onmousedown="handleZoom(evt,'in')"/>
                <use id="zoomminus" xlink:href="#zoomMin" x="42" y="9" onmousedown="handleZoom(evt,'out')"/>
                <use id="reset" xlink:href="#resetDef" x="30" y="36" onmousedown="handleReset()"/>
                <g id="arrowUp" xlink:href="#dirArrow" transform="translate(30 24)" onmousedown="handlePan(0,-1)">
                  <use xlink:href="#rim" fill="#404040">
                        <set attributeName="fill" to="#808080" begin="arrowUp.mouseover" end="arrowUp.mouseout"/>
                  </use>
                  <path fill="none" stroke="white" stroke-width="1.5" d="M0,-3.0v7 M-2.5,-0.5L0,-3.0L2.5,-0.5"/>
                </g>
                <g id="arrowRight" xlink:href="#dirArrow" transform="rotate(90) translate(36 -43)" onmousedown="handlePan(1,0)">
                  <use xlink:href="#rim" fill="#404040">
                        <set attributeName="fill" to="#808080" begin="arrowRight.mouseover" end="arrowRight.mouseout"/>
                  </use>
                  <path fill="none" stroke="white" stroke-width="1.5" d="M0,-3.0v7 M-2.5,-0.5L0,-3.0L2.5,-0.5"/>
                </g>
                <g id="arrowDown" xlink:href="#dirArrow" transform="rotate(180) translate(-30 -48)" onmousedown="handlePan(0,1)">
                  <use xlink:href="#rim" fill="#404040">
                        <set attributeName="fill" to="#808080" begin="arrowDown.mouseover" end="arrowDown.mouseout"/>
                  </use>
                  <path fill="none" stroke="white" stroke-width="1.5" d="M0,-3.0v7 M-2.5,-0.5L0,-3.0L2.5,-0.5"/>
                </g>
                <g id="arrowLeft" xlink:href="#dirArrow" transform="rotate(270) translate(-36 17)" onmousedown="handlePan(-1,0)">
                  <use xlink:href="#rim" fill="#404040">
                        <set attributeName="fill" to="#808080" begin="arrowLeft.mouseover" end="arrowLeft.mouseout"/>
                  </use>
                  <path fill="none" stroke="white" stroke-width="1.5" d="M0,-3.0v7 M-2.5,-0.5L0,-3.0L2.5,-0.5"/>
                </g>
        </g>
        <svg viewBox="0 0 15 15" width="100%" height="30px" preserveAspectRatio="xMaxYMin meet">
         <g id="arrow_out" transform="scale(0.3 0.3)">
          <a xlink:href="classSchematicFrame_a19ea52b4a342ab0bf577bbd750fa1d0c_cgraph_org.svg" target="_base">
           <rect id="button" ry="5" rx="5" y="6" x="6" height="38" width="38"
                fill="#f2f5e9" fill-opacity="0.5" stroke="#606060" stroke-width="1.0"/>
           <path id="arrow"
             d="M 11.500037,31.436501 C 11.940474,20.09759 22.043105,11.32322 32.158766,21.979434 L 37.068811,17.246167 C 37.068811,17.246167 37.088388,32 37.088388,32 L 22.160133,31.978069 C 22.160133,31.978069 26.997745,27.140456 26.997745,27.140456 C 18.528582,18.264221 13.291696,25.230495 11.500037,31.436501 z"
             style="fill:#404040;"/>
          </a>
         </g>
        </svg>
</svg>
