<?xml version="1.0" encoding="UTF-8" standalone="no"?>
<!DOCTYPE svg PUBLIC "-//W3C//DTD SVG 1.1//EN"
 "http://www.w3.org/Graphics/SVG/1.1/DTD/svg11.dtd">
<!-- Generated by graphviz version 2.40.1 (0)
 -->
<!-- Title: ChangeLayerCommand::undo Pages: 1 -->
<svg width="526pt" height="85pt"
 viewBox="0.00 0.00 526.00 85.00" xmlns="http://www.w3.org/2000/svg" xmlns:xlink="http://www.w3.org/1999/xlink">
<g id="graph0" class="graph" transform="scale(1 1) rotate(0) translate(4 81)">
<title>ChangeLayerCommand::undo</title>
<polygon fill="#ffffff" stroke="transparent" points="-4,4 -4,-81 522,-81 522,4 -4,4"/>
<!-- Node12 -->
<g id="node1" class="node">
<title>Node12</title>
<g id="a_node1"><a xlink:title=" ">
<polygon fill="#bfbfbf" stroke="#000000" points="0,-33 0,-63 131,-63 131,-33 0,-33"/>
<text text-anchor="start" x="8" y="-51" font-family="Helvetica,sans-Serif" font-size="10.00" fill="#000000">ChangeLayerCommand</text>
<text text-anchor="middle" x="65.5" y="-40" font-family="Helvetica,sans-Serif" font-size="10.00" fill="#000000">::undo</text>
</a>
</g>
</g>
<!-- Node13 -->
<g id="node2" class="node">
<title>Node13</title>
<g id="a_node2"><a xlink:href="../../d8/d37/classSketchWidget.html#a4d824c34443f5eb7ee69fd1e4ebba5de" target="_top" xlink:title=" ">
<polygon fill="#ffffff" stroke="#000000" points="167,-57.5 167,-76.5 319,-76.5 319,-57.5 167,-57.5"/>
<text text-anchor="middle" x="243" y="-64.5" font-family="Helvetica,sans-Serif" font-size="10.00" fill="#000000">SketchWidget::changeLayer</text>
</a>
</g>
</g>
<!-- Node12&#45;&gt;Node13 -->
<g id="edge1" class="edge">
<title>Node12&#45;&gt;Node13</title>
<path fill="none" stroke="#191970" d="M131.0901,-55.0209C139.4659,-55.9175 148.1375,-56.8457 156.7772,-57.7705"/>
<polygon fill="#191970" stroke="#191970" points="156.5694,-61.2682 166.8852,-58.8525 157.3145,-54.3079 156.5694,-61.2682"/>
</g>
<!-- Node14 -->
<g id="node3" class="node">
<title>Node14</title>
<g id="a_node3"><a xlink:href="../../d8/d6e/classBaseCommand.html#ac2747a4ea6258544b1721c742dc3d4db" target="_top" xlink:title=" ">
<polygon fill="#ffffff" stroke="#000000" points="182.5,-19.5 182.5,-38.5 303.5,-38.5 303.5,-19.5 182.5,-19.5"/>
<text text-anchor="middle" x="243" y="-26.5" font-family="Helvetica,sans-Serif" font-size="10.00" fill="#000000">BaseCommand::undo</text>
</a>
</g>
</g>
<!-- Node12&#45;&gt;Node14 -->
<g id="edge2" class="edge">
<title>Node12&#45;&gt;Node14</title>
<path fill="none" stroke="#191970" d="M131.0901,-40.9791C144.4685,-39.547 158.6018,-38.0342 172.154,-36.5835"/>
<polygon fill="#191970" stroke="#191970" points="172.8113,-40.0332 182.382,-35.4887 172.0662,-33.073 172.8113,-40.0332"/>
</g>
<!-- Node15 -->
<g id="node4" class="node">
<title>Node15</title>
<g id="a_node4"><a xlink:href="../../df/d8b/classCommandProgress.html#aebf23a39ab6caf18a3e7b3351ad4f49d" target="_top" xlink:title=" ">
<polygon fill="#ffffff" stroke="#000000" points="364,-38.5 364,-57.5 509,-57.5 509,-38.5 364,-38.5"/>
<text text-anchor="middle" x="436.5" y="-45.5" font-family="Helvetica,sans-Serif" font-size="10.00" fill="#000000">CommandProgress::active</text>
</a>
</g>
</g>
<!-- Node14&#45;&gt;Node15 -->
<g id="edge3" class="edge">
<title>Node14&#45;&gt;Node15</title>
<path fill="none" stroke="#191970" d="M303.6937,-34.9596C319.4807,-36.5097 336.7623,-38.2066 353.4851,-39.8487"/>
<polygon fill="#191970" stroke="#191970" points="353.5126,-43.3681 363.8068,-40.8622 354.1967,-36.4016 353.5126,-43.3681"/>
</g>
<!-- Node16 -->
<g id="node5" class="node">
<title>Node16</title>
<g id="a_node5"><a xlink:href="../../df/d8b/classCommandProgress.html#aaed608918684247a483fd5466be7b551" target="_top" xlink:title=" ">
<polygon fill="#ffffff" stroke="#000000" points="355,-.5 355,-19.5 518,-19.5 518,-.5 355,-.5"/>
<text text-anchor="middle" x="436.5" y="-7.5" font-family="Helvetica,sans-Serif" font-size="10.00" fill="#000000">CommandProgress::emitUndo</text>
</a>
</g>
</g>
<!-- Node14&#45;&gt;Node16 -->
<g id="edge4" class="edge">
<title>Node14&#45;&gt;Node16</title>
<path fill="none" stroke="#191970" d="M303.6937,-23.0404C316.715,-21.7618 330.7531,-20.3834 344.6558,-19.0183"/>
<polygon fill="#191970" stroke="#191970" points="345.1287,-22.4888 354.7388,-18.0282 344.4446,-15.5223 345.1287,-22.4888"/>
</g>
</g>
</svg>
