<?xml version="1.0" encoding="UTF-8" standalone="no"?>
<!DOCTYPE svg PUBLIC "-//W3C//DTD SVG 1.1//EN"
 "http://www.w3.org/Graphics/SVG/1.1/DTD/svg11.dtd">
<!-- Generated by graphviz version 2.40.1 (0)
 -->
<!-- Title: PaletteItemBase::paintSelected Pages: 1 -->
<svg width="896pt" height="153pt"
 viewBox="0.00 0.00 896.00 153.00" xmlns="http://www.w3.org/2000/svg" xmlns:xlink="http://www.w3.org/1999/xlink">
<g id="graph0" class="graph" transform="scale(1 1) rotate(0) translate(4 149)">
<title>PaletteItemBase::paintSelected</title>
<polygon fill="#ffffff" stroke="transparent" points="-4,4 -4,-149 892,-149 892,4 -4,4"/>
<!-- Node1167 -->
<g id="node1" class="node">
<title>Node1167</title>
<g id="a_node1"><a xlink:title=" ">
<polygon fill="#bfbfbf" stroke="#000000" points="0,-58.5 0,-77.5 170,-77.5 170,-58.5 0,-58.5"/>
<text text-anchor="middle" x="85" y="-65.5" font-family="Helvetica,sans-Serif" font-size="10.00" fill="#000000">PaletteItemBase::paintSelected</text>
</a>
</g>
</g>
<!-- Node1168 -->
<g id="node2" class="node">
<title>Node1168</title>
<g id="a_node2"><a xlink:href="../../d4/d4f/classItemBase.html#af04d5720eead42b15b100b923cd9a00d" target="_top" xlink:title=" ">
<polygon fill="#ffffff" stroke="#000000" points="206,-96.5 206,-115.5 369,-115.5 369,-96.5 206,-96.5"/>
<text text-anchor="middle" x="287.5" y="-103.5" font-family="Helvetica,sans-Serif" font-size="10.00" fill="#000000">ItemBase::hasRubberBandLeg</text>
</a>
</g>
</g>
<!-- Node1167&#45;&gt;Node1168 -->
<g id="edge1" class="edge">
<title>Node1167&#45;&gt;Node1168</title>
<path fill="none" stroke="#191970" d="M135.8379,-77.54C163.4005,-82.7122 197.6547,-89.1401 226.6314,-94.5778"/>
<polygon fill="#191970" stroke="#191970" points="226.1672,-98.0516 236.6412,-96.4561 227.4583,-91.1717 226.1672,-98.0516"/>
</g>
<!-- Node1169 -->
<g id="node3" class="node">
<title>Node1169</title>
<g id="a_node3"><a xlink:href="../../d4/d4f/classItemBase.html#a2a2a7cb485d4f6175d7c81c772bf384c" target="_top" xlink:title=" ">
<polygon fill="#ffffff" stroke="#000000" points="219.5,-58.5 219.5,-77.5 355.5,-77.5 355.5,-58.5 219.5,-58.5"/>
<text text-anchor="middle" x="287.5" y="-65.5" font-family="Helvetica,sans-Serif" font-size="10.00" fill="#000000">ItemBase::paintSelected</text>
</a>
</g>
</g>
<!-- Node1167&#45;&gt;Node1169 -->
<g id="edge2" class="edge">
<title>Node1167&#45;&gt;Node1169</title>
<path fill="none" stroke="#191970" d="M170.2913,-68C183.17,-68 196.4021,-68 209.1256,-68"/>
<polygon fill="#191970" stroke="#191970" points="209.2041,-71.5001 219.2041,-68 209.2041,-64.5001 209.2041,-71.5001"/>
</g>
<!-- Node1175 -->
<g id="node9" class="node">
<title>Node1175</title>
<g id="a_node9"><a xlink:href="../../d7/dfe/classGraphicsUtils.html#a24f181b4b2b5074cb796836a02517bc3" target="_top" xlink:title=" ">
<polygon fill="#ffffff" stroke="#000000" points="405,-11 405,-41 549,-41 549,-11 405,-11"/>
<text text-anchor="start" x="413" y="-29" font-family="Helvetica,sans-Serif" font-size="10.00" fill="#000000">GraphicsUtils::qt_graphics</text>
<text text-anchor="middle" x="477" y="-18" font-family="Helvetica,sans-Serif" font-size="10.00" fill="#000000">Item_highlightSelected</text>
</a>
</g>
</g>
<!-- Node1167&#45;&gt;Node1175 -->
<g id="edge11" class="edge">
<title>Node1167&#45;&gt;Node1175</title>
<path fill="none" stroke="#191970" d="M140.303,-58.4691C160.8839,-55.1457 184.4669,-51.601 206,-49 269.1956,-41.3664 340.9851,-35.3944 394.7922,-31.4508"/>
<polygon fill="#191970" stroke="#191970" points="395.2436,-34.9274 404.9645,-30.7137 394.7377,-27.9457 395.2436,-34.9274"/>
</g>
<!-- Node1170 -->
<g id="node4" class="node">
<title>Node1170</title>
<g id="a_node4"><a xlink:href="../../d4/d4f/classItemBase.html#afe2eaccd6266f7c70092425055e9e726" target="_top" xlink:title=" ">
<polygon fill="#ffffff" stroke="#000000" points="409,-98.5 409,-117.5 545,-117.5 545,-98.5 409,-98.5"/>
<text text-anchor="middle" x="477" y="-105.5" font-family="Helvetica,sans-Serif" font-size="10.00" fill="#000000">ItemBase::boundingRect</text>
</a>
</g>
</g>
<!-- Node1169&#45;&gt;Node1170 -->
<g id="edge3" class="edge">
<title>Node1169&#45;&gt;Node1170</title>
<path fill="none" stroke="#191970" d="M332.89,-77.581C359.6104,-83.2212 393.5971,-90.3952 421.8535,-96.3596"/>
<polygon fill="#191970" stroke="#191970" points="421.4731,-99.8563 431.9804,-98.4972 422.9189,-93.0073 421.4731,-99.8563"/>
</g>
<!-- Node1174 -->
<g id="node8" class="node">
<title>Node1174</title>
<g id="a_node8"><a xlink:href="../../d4/d4f/classItemBase.html#ab6a1fe536ae8bbb70c223bdf3214f577" target="_top" xlink:title=" ">
<polygon fill="#ffffff" stroke="#000000" points="413.5,-60.5 413.5,-79.5 540.5,-79.5 540.5,-60.5 413.5,-60.5"/>
<text text-anchor="middle" x="477" y="-67.5" font-family="Helvetica,sans-Serif" font-size="10.00" fill="#000000">ItemBase::hoverShape</text>
</a>
</g>
</g>
<!-- Node1169&#45;&gt;Node1174 -->
<g id="edge7" class="edge">
<title>Node1169&#45;&gt;Node1174</title>
<path fill="none" stroke="#191970" d="M355.6461,-68.7192C371.0526,-68.8818 387.4804,-69.0552 403.1111,-69.2202"/>
<polygon fill="#191970" stroke="#191970" points="403.2125,-72.7213 413.2489,-69.3272 403.2864,-65.7217 403.2125,-72.7213"/>
</g>
<!-- Node1169&#45;&gt;Node1175 -->
<g id="edge8" class="edge">
<title>Node1169&#45;&gt;Node1175</title>
<path fill="none" stroke="#191970" d="M330.5005,-58.4695C350.8526,-53.9588 375.7999,-48.4296 399.3002,-43.2211"/>
<polygon fill="#191970" stroke="#191970" points="400.2598,-46.5934 409.2655,-41.0124 398.7451,-39.7592 400.2598,-46.5934"/>
</g>
<!-- Node1171 -->
<g id="node5" class="node">
<title>Node1171</title>
<g id="a_node5"><a xlink:href="../../df/db0/classFSvgRenderer.html#abfa59a6da2875e59a5ab3112fd644ade" target="_top" xlink:title=" ">
<polygon fill="#ffffff" stroke="#000000" points="585,-125.5 585,-144.5 736,-144.5 736,-125.5 585,-125.5"/>
<text text-anchor="middle" x="660.5" y="-132.5" font-family="Helvetica,sans-Serif" font-size="10.00" fill="#000000">FSvgRenderer::defaultSizeF</text>
</a>
</g>
</g>
<!-- Node1170&#45;&gt;Node1171 -->
<g id="edge4" class="edge">
<title>Node1170&#45;&gt;Node1171</title>
<path fill="none" stroke="#191970" d="M541.6952,-117.5192C555.9477,-119.6163 571.1567,-121.8541 585.7688,-124.0041"/>
<polygon fill="#191970" stroke="#191970" points="585.3675,-127.4827 595.7705,-125.4758 586.3865,-120.5572 585.3675,-127.4827"/>
</g>
<!-- Node1172 -->
<g id="node6" class="node">
<title>Node1172</title>
<g id="a_node6"><a xlink:href="../../d4/d4f/classItemBase.html#a783246d1e45a53efa9e044fca46d2c9f" target="_top" xlink:title=" ">
<polygon fill="#ffffff" stroke="#000000" points="593.5,-87.5 593.5,-106.5 727.5,-106.5 727.5,-87.5 593.5,-87.5"/>
<text text-anchor="middle" x="660.5" y="-94.5" font-family="Helvetica,sans-Serif" font-size="10.00" fill="#000000">ItemBase::fsvgRenderer</text>
</a>
</g>
</g>
<!-- Node1170&#45;&gt;Node1172 -->
<g id="edge5" class="edge">
<title>Node1170&#45;&gt;Node1172</title>
<path fill="none" stroke="#191970" d="M545.0679,-103.9196C557.5425,-103.1718 570.6442,-102.3865 583.3614,-101.6241"/>
<polygon fill="#191970" stroke="#191970" points="583.686,-105.111 593.4586,-101.0188 583.2671,-98.1236 583.686,-105.111"/>
</g>
<!-- Node1173 -->
<g id="node7" class="node">
<title>Node1173</title>
<g id="a_node7"><a xlink:href="../../da/d3a/classDebugDialog.html#ad26216d18945d7d7188420707b76f241" target="_top" xlink:title=" ">
<polygon fill="#ffffff" stroke="#000000" points="772,-87.5 772,-106.5 888,-106.5 888,-87.5 772,-87.5"/>
<text text-anchor="middle" x="830" y="-94.5" font-family="Helvetica,sans-Serif" font-size="10.00" fill="#000000">DebugDialog::debug</text>
</a>
</g>
</g>
<!-- Node1172&#45;&gt;Node1173 -->
<g id="edge6" class="edge">
<title>Node1172&#45;&gt;Node1173</title>
<path fill="none" stroke="#191970" d="M727.9779,-97C739.0751,-97 750.5849,-97 761.702,-97"/>
<polygon fill="#191970" stroke="#191970" points="761.778,-100.5001 771.778,-97 761.7779,-93.5001 761.778,-100.5001"/>
</g>
<!-- Node1176 -->
<g id="node10" class="node">
<title>Node1176</title>
<g id="a_node10"><a xlink:href="../../d4/d08/misc_8h.html#ae7cc352fa1dc81e57ff53ebbc762f27d" target="_top" xlink:title=" ">
<polygon fill="#ffffff" stroke="#000000" points="638.5,-38.5 638.5,-57.5 682.5,-57.5 682.5,-38.5 638.5,-38.5"/>
<text text-anchor="middle" x="660.5" y="-45.5" font-family="Helvetica,sans-Serif" font-size="10.00" fill="#000000">qMax</text>
</a>
</g>
</g>
<!-- Node1175&#45;&gt;Node1176 -->
<g id="edge9" class="edge">
<title>Node1175&#45;&gt;Node1176</title>
<path fill="none" stroke="#191970" d="M549.2606,-34.6634C576.669,-37.9494 606.5099,-41.5271 628.3783,-44.1489"/>
<polygon fill="#191970" stroke="#191970" points="628.0821,-47.6384 638.4276,-45.3537 628.9154,-40.6881 628.0821,-47.6384"/>
</g>
<!-- Node1177 -->
<g id="node11" class="node">
<title>Node1177</title>
<g id="a_node11"><a xlink:href="../../d4/d08/misc_8h.html#aec6ff9c887dc8733e787bf81a01492fd" target="_top" xlink:title=" ">
<polygon fill="#ffffff" stroke="#000000" points="640,-.5 640,-19.5 681,-19.5 681,-.5 640,-.5"/>
<text text-anchor="middle" x="660.5" y="-7.5" font-family="Helvetica,sans-Serif" font-size="10.00" fill="#000000">qMin</text>
</a>
</g>
</g>
<!-- Node1175&#45;&gt;Node1177 -->
<g id="edge10" class="edge">
<title>Node1175&#45;&gt;Node1177</title>
<path fill="none" stroke="#191970" d="M549.2606,-19.6993C577.1861,-17.2644 607.6369,-14.6093 629.6075,-12.6936"/>
<polygon fill="#191970" stroke="#191970" points="630.0055,-16.1723 639.6637,-11.8168 629.3974,-9.1987 630.0055,-16.1723"/>
</g>
</g>
</svg>
