<?xml version="1.0" encoding="UTF-8" standalone="no"?>
<!DOCTYPE svg PUBLIC "-//W3C//DTD SVG 1.1//EN"
 "http://www.w3.org/Graphics/SVG/1.1/DTD/svg11.dtd">
<!-- Generated by graphviz version 2.40.1 (0)
 -->
<!-- Title: InstalledFonts Pages: 1 -->
<svg width="314pt" height="182pt"
 viewBox="0.00 0.00 314.00 182.00" xmlns="http://www.w3.org/2000/svg" xmlns:xlink="http://www.w3.org/1999/xlink">
<g id="graph0" class="graph" transform="scale(1 1) rotate(0) translate(4 178)">
<title>InstalledFonts</title>
<polygon fill="#ffffff" stroke="transparent" points="-4,4 -4,-178 310,-178 310,4 -4,4"/>
<!-- Node1 -->
<g id="node1" class="node">
<title>Node1</title>
<g id="a_node1"><a xlink:title=" ">
<polygon fill="#bfbfbf" stroke="#000000" points="97.5,-.5 97.5,-57.5 182.5,-57.5 182.5,-.5 97.5,-.5"/>
<text text-anchor="middle" x="140" y="-45.5" font-family="Helvetica,sans-Serif" font-size="10.00" fill="#000000">InstalledFonts</text>
<polyline fill="none" stroke="#000000" points="97.5,-38.5 182.5,-38.5 "/>
<text text-anchor="middle" x="140" y="-26.5" font-family="Helvetica,sans-Serif" font-size="10.00" fill="#000000"> </text>
<polyline fill="none" stroke="#000000" points="97.5,-19.5 182.5,-19.5 "/>
<text text-anchor="middle" x="140" y="-7.5" font-family="Helvetica,sans-Serif" font-size="10.00" fill="#000000"> </text>
</a>
</g>
</g>
<!-- Node2 -->
<g id="node2" class="node">
<title>Node2</title>
<g id="a_node2"><a xlink:title=" ">
<polygon fill="#ffffff" stroke="#bfbfbf" points="0,-105.5 0,-173.5 112,-173.5 112,-105.5 0,-105.5"/>
<text text-anchor="start" x="8" y="-161.5" font-family="Helvetica,sans-Serif" font-size="10.00" fill="#000000">static QMultiHash&lt;</text>
<text text-anchor="middle" x="56" y="-150.5" font-family="Helvetica,sans-Serif" font-size="10.00" fill="#000000"> QString, QString &gt;</text>
<polyline fill="none" stroke="#bfbfbf" points="0,-143.5 112,-143.5 "/>
<text text-anchor="middle" x="56" y="-131.5" font-family="Helvetica,sans-Serif" font-size="10.00" fill="#000000"> </text>
<polyline fill="none" stroke="#bfbfbf" points="0,-124.5 112,-124.5 "/>
<text text-anchor="middle" x="56" y="-112.5" font-family="Helvetica,sans-Serif" font-size="10.00" fill="#000000"> </text>
</a>
</g>
</g>
<!-- Node2&#45;&gt;Node1 -->
<g id="edge1" class="edge">
<title>Node2&#45;&gt;Node1</title>
<path fill="none" stroke="#404040" d="M50.3311,-105.4483C50.2374,-95.3772 51.8227,-84.7229 57,-76 63.8593,-64.4432 74.7111,-55.4903 86.3346,-48.6518"/>
<polygon fill="none" stroke="#404040" points="86.5213,-48.5533 89.9604,-42.2151 97.1338,-42.9519 93.6946,-49.2901 86.5213,-48.5533"/>
<text text-anchor="middle" x="130" y="-79" font-family="Helvetica,sans-Serif" font-size="10.00" fill="#000000"> +InstalledFontsNameMapper</text>
</g>
<!-- Node3 -->
<g id="node3" class="node">
<title>Node3</title>
<g id="a_node3"><a xlink:title=" ">
<polygon fill="#ffffff" stroke="#bfbfbf" points="161,-111 161,-168 289,-168 289,-111 161,-111"/>
<text text-anchor="middle" x="225" y="-156" font-family="Helvetica,sans-Serif" font-size="10.00" fill="#000000">static QSet&lt; QString &gt;</text>
<polyline fill="none" stroke="#bfbfbf" points="161,-149 289,-149 "/>
<text text-anchor="middle" x="225" y="-137" font-family="Helvetica,sans-Serif" font-size="10.00" fill="#000000"> </text>
<polyline fill="none" stroke="#bfbfbf" points="161,-130 289,-130 "/>
<text text-anchor="middle" x="225" y="-118" font-family="Helvetica,sans-Serif" font-size="10.00" fill="#000000"> </text>
</a>
</g>
</g>
<!-- Node3&#45;&gt;Node1 -->
<g id="edge2" class="edge">
<title>Node3&#45;&gt;Node1</title>
<path fill="none" stroke="#404040" d="M218.9971,-110.8849C215.6126,-99.2987 210.5095,-86.2633 203,-76 199.7391,-71.5433 195.9348,-67.3211 191.8404,-63.3707"/>
<polygon fill="none" stroke="#404040" points="191.5251,-63.0935 184.3778,-62.1366 182.5121,-55.171 189.6594,-56.1279 191.5251,-63.0935"/>
<text text-anchor="middle" x="257.5" y="-79" font-family="Helvetica,sans-Serif" font-size="10.00" fill="#000000"> +InstalledFontsList</text>
</g>
</g>
</svg>
