<?xml version="1.0" encoding="UTF-8" standalone="no"?>
<!DOCTYPE svg PUBLIC "-//W3C//DTD SVG 1.1//EN"
 "http://www.w3.org/Graphics/SVG/1.1/DTD/svg11.dtd">
<!-- Generated by graphviz version 2.40.1 (0)
 -->
<!-- Title: Platform::Platform Pages: 1 -->
<!--zoomable 94 -->
<svg id="main" version="1.1" xmlns="http://www.w3.org/2000/svg" xmlns:xlink="http://www.w3.org/1999/xlink" xml:space="preserve" onload="init(evt)">
<style type="text/css"><![CDATA[
.edge:hover path { stroke: red; }
.edge:hover polygon { stroke: red; fill: red; }
]]></style>
<script type="text/javascript"><![CDATA[
var edges = document.getElementsByTagName('g');
if (edges && edges.length) {
  for (var i=0;i<edges.length;i++) {
    if (edges[i].id.substr(0,4)=='edge') {
      edges[i].setAttribute('class','edge');
    }
  }
}
]]></script>
        <defs>
                <circle id="rim" cx="0" cy="0" r="7"/>
                <circle id="rim2" cx="0" cy="0" r="3.5"/>
                <g id="zoomPlus">
                        <use xlink:href="#rim" fill="#404040">
                                <set attributeName="fill" to="#808080" begin="zoomplus.mouseover" end="zoomplus.mouseout"/>
                        </use>
                        <path d="M-4,0h8M0,-4v8" fill="none" stroke="white" stroke-width="1.5" pointer-events="none"/>
                </g>
                <g id="zoomMin">
                        <use xlink:href="#rim" fill="#404040">
                                <set attributeName="fill" to="#808080" begin="zoomminus.mouseover" end="zoomminus.mouseout"/>
                        </use>
                        <path d="M-4,0h8" fill="none" stroke="white" stroke-width="1.5" pointer-events="none"/>
                </g>
                <g id="dirArrow">
                        <path fill="none" stroke="white" stroke-width="1.5" d="M0,-3.0v7 M-2.5,-0.5L0,-3.0L2.5,-0.5"/>
                </g>
               <g id="resetDef">
                       <use xlink:href="#rim2" fill="#404040">
                               <set attributeName="fill" to="#808080" begin="reset.mouseover" end="reset.mouseout"/>
                       </use>
               </g>
        </defs>

<script type="text/javascript">
var viewWidth = 955;
var viewHeight = 94;
var sectionId = 'dynsection-2';
</script>
<script xlink:href="../../svgpan.js"/>
<svg id="graph" class="graph">
<g id="viewport">
<title>Platform::Platform</title>
<polygon fill="#ffffff" stroke="transparent" points="-4,4 -4,-90 951,-90 951,4 -4,4"/>
<!-- Node0 -->
<g id="node1" class="node">
<title>Node0</title>
<g id="a_node1"><a xlink:title=" ">
<polygon fill="#bfbfbf" stroke="#000000" points="0,-22.5 0,-41.5 107,-41.5 107,-22.5 0,-22.5"/>
<text text-anchor="middle" x="53.5" y="-29.5" font-family="Helvetica,sans-Serif" font-size="10.00" fill="#000000">Platform::Platform</text>
</a>
</g>
</g>
<!-- Node1 -->
<g id="node2" class="node">
<title>Node1</title>
<g id="a_node2"><a xlink:href="../../df/d1e/classPlatform.html#a9aedb30831a4816a613e0ea1f09f9ffd" target="_top" xlink:title=" ">
<polygon fill="#ffffff" stroke="#000000" points="143,-22.5 143,-41.5 266,-41.5 266,-22.5 143,-22.5"/>
<text text-anchor="middle" x="204.5" y="-29.5" font-family="Helvetica,sans-Serif" font-size="10.00" fill="#000000">Platform::initSyntaxer</text>
</a>
</g>
</g>
<!-- Node0&#45;&gt;Node1 -->
<g id="edge1" class="edge">
<title>Node0&#45;&gt;Node1</title>
<path fill="none" stroke="#191970" d="M107.1621,-32C115.4483,-32 124.1184,-32 132.7239,-32"/>
<polygon fill="#191970" stroke="#191970" points="132.7694,-35.5001 142.7694,-32 132.7694,-28.5001 132.7694,-35.5001"/>
</g>
<!-- Node2 -->
<g id="node3" class="node">
<title>Node2</title>
<g id="a_node3"><a xlink:href="../../dd/d63/classFolderUtils.html#a06b9ab9372f50089afc778ae6ba6fe3b" target="_top" xlink:title=" ">
<polygon fill="#ffffff" stroke="#000000" points="302,-39 302,-69 448,-69 448,-39 302,-39"/>
<text text-anchor="start" x="310" y="-57" font-family="Helvetica,sans-Serif" font-size="10.00" fill="#000000">FolderUtils::getApplication</text>
<text text-anchor="middle" x="375" y="-46" font-family="Helvetica,sans-Serif" font-size="10.00" fill="#000000">SubFolderPath</text>
</a>
</g>
</g>
<!-- Node1&#45;&gt;Node2 -->
<g id="edge2" class="edge">
<title>Node1&#45;&gt;Node2</title>
<path fill="none" stroke="#191970" d="M266.0544,-39.9425C274.4186,-41.0218 283.1133,-42.1437 291.7801,-43.2619"/>
<polygon fill="#191970" stroke="#191970" points="291.554,-46.7617 301.9197,-44.5703 292.4499,-39.8193 291.554,-46.7617"/>
</g>
<!-- Node7 -->
<g id="node8" class="node">
<title>Node7</title>
<g id="a_node8"><a xlink:href="../../df/d1e/classPlatform.html#a8ab6971f28b1477ff59c7d44d3ae4b81" target="_top" xlink:title=" ">
<polygon fill="#ffffff" stroke="#000000" points="320,-.5 320,-19.5 430,-19.5 430,-.5 320,-.5"/>
<text text-anchor="middle" x="375" y="-7.5" font-family="Helvetica,sans-Serif" font-size="10.00" fill="#000000">Platform::getName</text>
</a>
</g>
</g>
<!-- Node1&#45;&gt;Node7 -->
<g id="edge9" class="edge">
<title>Node1&#45;&gt;Node7</title>
<path fill="none" stroke="#191970" d="M266.0544,-24.0575C280.1775,-22.2352 295.2431,-20.2912 309.525,-18.4484"/>
<polygon fill="#191970" stroke="#191970" points="310.2914,-21.8786 319.7613,-17.1276 309.3956,-14.9361 310.2914,-21.8786"/>
</g>
<!-- Node3 -->
<g id="node4" class="node">
<title>Node3</title>
<g id="a_node4"><a xlink:href="../../dd/d63/classFolderUtils.html#a1cfc928bc5e4767ee32d0e12fe3e14a8" target="_top" xlink:title=" ">
<polygon fill="#ffffff" stroke="#000000" points="666.5,-66.5 666.5,-85.5 794.5,-85.5 794.5,-66.5 666.5,-66.5"/>
<text text-anchor="middle" x="730.5" y="-73.5" font-family="Helvetica,sans-Serif" font-size="10.00" fill="#000000">FolderUtils::FolderUtils</text>
</a>
</g>
</g>
<!-- Node2&#45;&gt;Node3 -->
<g id="edge3" class="edge">
<title>Node2&#45;&gt;Node3</title>
<path fill="none" stroke="#191970" d="M448.2288,-58.5317C508.9457,-62.2892 594.898,-67.6083 655.9714,-71.3878"/>
<polygon fill="#191970" stroke="#191970" points="656.1143,-74.9033 666.3114,-72.0277 656.5467,-67.9166 656.1143,-74.9033"/>
</g>
<!-- Node4 -->
<g id="node5" class="node">
<title>Node4</title>
<g id="a_node5"><a xlink:href="../../dd/d63/classFolderUtils.html#ab9ac929b2f8ae09fb703d6e4fcc952e0" target="_top" xlink:title=" ">
<polygon fill="#ffffff" stroke="#000000" points="484,-17 484,-47 630,-47 630,-17 484,-17"/>
<text text-anchor="start" x="492" y="-35" font-family="Helvetica,sans-Serif" font-size="10.00" fill="#000000">FolderUtils::getApplication</text>
<text text-anchor="middle" x="557" y="-24" font-family="Helvetica,sans-Serif" font-size="10.00" fill="#000000">SubFolder</text>
</a>
</g>
</g>
<!-- Node2&#45;&gt;Node4 -->
<g id="edge4" class="edge">
<title>Node2&#45;&gt;Node4</title>
<path fill="none" stroke="#191970" d="M448.2397,-45.1469C456.688,-44.1256 465.3489,-43.0787 473.9155,-42.0432"/>
<polygon fill="#191970" stroke="#191970" points="474.4026,-45.5099 483.9103,-40.835 473.5625,-38.5605 474.4026,-45.5099"/>
</g>
<!-- Node4&#45;&gt;Node3 -->
<g id="edge8" class="edge">
<title>Node4&#45;&gt;Node3</title>
<path fill="none" stroke="#191970" d="M616.2236,-47.0192C638.0735,-52.5604 662.5225,-58.7607 683.1815,-63.9999"/>
<polygon fill="#191970" stroke="#191970" points="682.4373,-67.4219 692.9908,-66.4876 684.158,-60.6367 682.4373,-67.4219"/>
</g>
<!-- Node5 -->
<g id="node6" class="node">
<title>Node5</title>
<g id="a_node6"><a xlink:href="../../dd/d63/classFolderUtils.html#ae36aca73d9a99c08603ca1f2b908dea0" target="_top" xlink:title=" ">
<polygon fill="#ffffff" stroke="#000000" points="666,-17 666,-47 795,-47 795,-17 666,-17"/>
<text text-anchor="start" x="674" y="-35" font-family="Helvetica,sans-Serif" font-size="10.00" fill="#000000">FolderUtils::application</text>
<text text-anchor="middle" x="730.5" y="-24" font-family="Helvetica,sans-Serif" font-size="10.00" fill="#000000">DirPath</text>
</a>
</g>
</g>
<!-- Node4&#45;&gt;Node5 -->
<g id="edge5" class="edge">
<title>Node4&#45;&gt;Node5</title>
<path fill="none" stroke="#191970" d="M630.0768,-32C638.5043,-32 647.1084,-32 655.5601,-32"/>
<polygon fill="#191970" stroke="#191970" points="655.7717,-35.5001 665.7717,-32 655.7716,-28.5001 655.7717,-35.5001"/>
</g>
<!-- Node6 -->
<g id="node7" class="node">
<title>Node6</title>
<g id="a_node7"><a xlink:href="../../da/d3a/classDebugDialog.html#ad26216d18945d7d7188420707b76f241" target="_top" xlink:title=" ">
<polygon fill="#ffffff" stroke="#000000" points="831,-.5 831,-19.5 947,-19.5 947,-.5 831,-.5"/>
<text text-anchor="middle" x="889" y="-7.5" font-family="Helvetica,sans-Serif" font-size="10.00" fill="#000000">DebugDialog::debug</text>
</a>
</g>
</g>
<!-- Node4&#45;&gt;Node6 -->
<g id="edge7" class="edge">
<title>Node4&#45;&gt;Node6</title>
<path fill="none" stroke="#191970" d="M611.4756,-16.9711C628.7678,-12.8858 648.0587,-9.0311 666,-7 722.9694,-.5505 737.674,-6.0855 795,-7 803.3312,-7.1329 812.0762,-7.332 820.7389,-7.5657"/>
<polygon fill="#191970" stroke="#191970" points="820.7448,-11.0672 830.8406,-7.854 820.9446,-4.0701 820.7448,-11.0672"/>
</g>
<!-- Node5&#45;&gt;Node6 -->
<g id="edge6" class="edge">
<title>Node5&#45;&gt;Node6</title>
<path fill="none" stroke="#191970" d="M795.4253,-22.9883C803.7521,-21.8325 812.2972,-20.6464 820.6761,-19.4834"/>
<polygon fill="#191970" stroke="#191970" points="821.3645,-22.9215 830.7883,-18.0799 820.402,-15.988 821.3645,-22.9215"/>
</g>
</g>
</svg>
        <g id="navigator" transform="translate(0 0)" fill="#404254">
                <rect fill="#f2f5e9" fill-opacity="0.5" stroke="#606060" stroke-width=".5" x="0" y="0" width="60" height="60"/>
                <use id="zoomplus" xlink:href="#zoomPlus" x="17" y="9" onmousedown="handleZoom(evt,'in')"/>
                <use id="zoomminus" xlink:href="#zoomMin" x="42" y="9" onmousedown="handleZoom(evt,'out')"/>
                <use id="reset" xlink:href="#resetDef" x="30" y="36" onmousedown="handleReset()"/>
                <g id="arrowUp" xlink:href="#dirArrow" transform="translate(30 24)" onmousedown="handlePan(0,-1)">
                  <use xlink:href="#rim" fill="#404040">
                        <set attributeName="fill" to="#808080" begin="arrowUp.mouseover" end="arrowUp.mouseout"/>
                  </use>
                  <path fill="none" stroke="white" stroke-width="1.5" d="M0,-3.0v7 M-2.5,-0.5L0,-3.0L2.5,-0.5"/>
                </g>
                <g id="arrowRight" xlink:href="#dirArrow" transform="rotate(90) translate(36 -43)" onmousedown="handlePan(1,0)">
                  <use xlink:href="#rim" fill="#404040">
                        <set attributeName="fill" to="#808080" begin="arrowRight.mouseover" end="arrowRight.mouseout"/>
                  </use>
                  <path fill="none" stroke="white" stroke-width="1.5" d="M0,-3.0v7 M-2.5,-0.5L0,-3.0L2.5,-0.5"/>
                </g>
                <g id="arrowDown" xlink:href="#dirArrow" transform="rotate(180) translate(-30 -48)" onmousedown="handlePan(0,1)">
                  <use xlink:href="#rim" fill="#404040">
                        <set attributeName="fill" to="#808080" begin="arrowDown.mouseover" end="arrowDown.mouseout"/>
                  </use>
                  <path fill="none" stroke="white" stroke-width="1.5" d="M0,-3.0v7 M-2.5,-0.5L0,-3.0L2.5,-0.5"/>
                </g>
                <g id="arrowLeft" xlink:href="#dirArrow" transform="rotate(270) translate(-36 17)" onmousedown="handlePan(-1,0)">
                  <use xlink:href="#rim" fill="#404040">
                        <set attributeName="fill" to="#808080" begin="arrowLeft.mouseover" end="arrowLeft.mouseout"/>
                  </use>
                  <path fill="none" stroke="white" stroke-width="1.5" d="M0,-3.0v7 M-2.5,-0.5L0,-3.0L2.5,-0.5"/>
                </g>
        </g>
        <svg viewBox="0 0 15 15" width="100%" height="30px" preserveAspectRatio="xMaxYMin meet">
         <g id="arrow_out" transform="scale(0.3 0.3)">
          <a xlink:href="classPlatform_a005d05d47f6d3ba0949523a1b11fb5b5_cgraph_org.svg" target="_base">
           <rect id="button" ry="5" rx="5" y="6" x="6" height="38" width="38"
                fill="#f2f5e9" fill-opacity="0.5" stroke="#606060" stroke-width="1.0"/>
           <path id="arrow"
             d="M 11.500037,31.436501 C 11.940474,20.09759 22.043105,11.32322 32.158766,21.979434 L 37.068811,17.246167 C 37.068811,17.246167 37.088388,32 37.088388,32 L 22.160133,31.978069 C 22.160133,31.978069 26.997745,27.140456 26.997745,27.140456 C 18.528582,18.264221 13.291696,25.230495 11.500037,31.436501 z"
             style="fill:#404040;"/>
          </a>
         </g>
        </svg>
</svg>
