<?xml version="1.0" encoding="UTF-8" standalone="no"?>
<!DOCTYPE svg PUBLIC "-//W3C//DTD SVG 1.1//EN"
 "http://www.w3.org/Graphics/SVG/1.1/DTD/svg11.dtd">
<!-- Generated by graphviz version 2.40.1 (0)
 -->
<!-- Title: PEGraphicsItem::mousePressedSignal Pages: 1 -->
<svg width="374pt" height="39pt"
 viewBox="0.00 0.00 374.00 39.00" xmlns="http://www.w3.org/2000/svg" xmlns:xlink="http://www.w3.org/1999/xlink">
<g id="graph0" class="graph" transform="scale(1 1) rotate(0) translate(4 35)">
<title>PEGraphicsItem::mousePressedSignal</title>
<polygon fill="#ffffff" stroke="transparent" points="-4,4 -4,-35 370,-35 370,4 -4,4"/>
<!-- Node222 -->
<g id="node1" class="node">
<title>Node222</title>
<g id="a_node1"><a xlink:title=" ">
<polygon fill="#bfbfbf" stroke="#000000" points="195,-.5 195,-30.5 366,-30.5 366,-.5 195,-.5"/>
<text text-anchor="start" x="203" y="-18.5" font-family="Helvetica,sans-Serif" font-size="10.00" fill="#000000">PEGraphicsItem::mousePressed</text>
<text text-anchor="middle" x="280.5" y="-7.5" font-family="Helvetica,sans-Serif" font-size="10.00" fill="#000000">Signal</text>
</a>
</g>
</g>
<!-- Node223 -->
<g id="node2" class="node">
<title>Node223</title>
<g id="a_node2"><a xlink:href="../../d7/d0d/classPEGraphicsItem.html#a65f81fcbf01b5808815fd77b63b0ae5f" target="_top" xlink:title=" ">
<polygon fill="#ffffff" stroke="#000000" points="0,-.5 0,-30.5 159,-30.5 159,-.5 0,-.5"/>
<text text-anchor="start" x="8" y="-18.5" font-family="Helvetica,sans-Serif" font-size="10.00" fill="#000000">PEGraphicsItem::mousePress</text>
<text text-anchor="middle" x="79.5" y="-7.5" font-family="Helvetica,sans-Serif" font-size="10.00" fill="#000000">Event</text>
</a>
</g>
</g>
<!-- Node222&#45;&gt;Node223 -->
<g id="edge1" class="edge">
<title>Node222&#45;&gt;Node223</title>
<path fill="none" stroke="#191970" d="M184.9069,-15.5C176.306,-15.5 167.6571,-15.5 159.2129,-15.5"/>
<polygon fill="#191970" stroke="#191970" points="184.9665,-19.0001 194.9664,-15.5 184.9664,-12.0001 184.9665,-19.0001"/>
</g>
</g>
</svg>
