<?xml version="1.0" encoding="UTF-8" standalone="no"?>
<!DOCTYPE svg PUBLIC "-//W3C//DTD SVG 1.1//EN"
 "http://www.w3.org/Graphics/SVG/1.1/DTD/svg11.dtd">
<!-- Generated by graphviz version 2.40.1 (0)
 -->
<!-- Title: PEGraphicsItem::restoreColor Pages: 1 -->
<svg width="282pt" height="66pt"
 viewBox="0.00 0.00 282.00 66.00" xmlns="http://www.w3.org/2000/svg" xmlns:xlink="http://www.w3.org/1999/xlink">
<g id="graph0" class="graph" transform="scale(1 1) rotate(0) translate(4 62)">
<title>PEGraphicsItem::restoreColor</title>
<polygon fill="#ffffff" stroke="transparent" points="-4,4 -4,-62 278,-62 278,4 -4,4"/>
<!-- Node397 -->
<g id="node1" class="node">
<title>Node397</title>
<g id="a_node1"><a xlink:title=" ">
<polygon fill="#bfbfbf" stroke="#000000" points="0,-19.5 0,-38.5 160,-38.5 160,-19.5 0,-19.5"/>
<text text-anchor="middle" x="80" y="-26.5" font-family="Helvetica,sans-Serif" font-size="10.00" fill="#000000">PEGraphicsItem::restoreColor</text>
</a>
</g>
</g>
<!-- Node398 -->
<g id="node2" class="node">
<title>Node398</title>
<g id="a_node2"><a xlink:href="../../df/dbe/pegraphicsitem_8cpp.html#ae4743a637e11d4ac80c40b699b57e8d5" target="_top" xlink:title=" ">
<polygon fill="#ffffff" stroke="#000000" points="196,-38.5 196,-57.5 274,-57.5 274,-38.5 196,-38.5"/>
<text text-anchor="middle" x="235" y="-45.5" font-family="Helvetica,sans-Serif" font-size="10.00" fill="#000000">NormalColor</text>
</a>
</g>
</g>
<!-- Node397&#45;&gt;Node398 -->
<g id="edge1" class="edge">
<title>Node397&#45;&gt;Node398</title>
<path fill="none" stroke="#191970" d="M157.9541,-38.5557C167.3822,-39.7114 176.8013,-40.866 185.6533,-41.951"/>
<polygon fill="#191970" stroke="#191970" points="185.3992,-45.446 195.7508,-43.1888 186.251,-38.498 185.3992,-45.446"/>
</g>
<!-- Node399 -->
<g id="node3" class="node">
<title>Node399</title>
<g id="a_node3"><a xlink:href="../../df/dbe/pegraphicsitem_8cpp.html#ad8bb5ae3e107ba0d6435eea3a1488b2c" target="_top" xlink:title=" ">
<polygon fill="#ffffff" stroke="#000000" points="204,-.5 204,-19.5 266,-19.5 266,-.5 204,-.5"/>
<text text-anchor="middle" x="235" y="-7.5" font-family="Helvetica,sans-Serif" font-size="10.00" fill="#000000">PickColor</text>
</a>
</g>
</g>
<!-- Node397&#45;&gt;Node399 -->
<g id="edge2" class="edge">
<title>Node397&#45;&gt;Node399</title>
<path fill="none" stroke="#191970" d="M157.9541,-19.4443C170.294,-17.9317 182.6185,-16.421 193.6762,-15.0655"/>
<polygon fill="#191970" stroke="#191970" points="194.3492,-18.5093 203.849,-13.8185 193.4974,-11.5613 194.3492,-18.5093"/>
</g>
</g>
</svg>
