<?xml version="1.0" encoding="UTF-8" standalone="no"?>
<!DOCTYPE svg PUBLIC "-//W3C//DTD SVG 1.1//EN"
 "http://www.w3.org/Graphics/SVG/1.1/DTD/svg11.dtd">
<!-- Generated by graphviz version 2.40.1 (0)
 -->
<!-- Title: PEGraphicsItem::hoverEnterEvent Pages: 1 -->
<svg width="559pt" height="52pt"
 viewBox="0.00 0.00 559.00 51.50" xmlns="http://www.w3.org/2000/svg" xmlns:xlink="http://www.w3.org/1999/xlink">
<g id="graph0" class="graph" transform="scale(1 1) rotate(0) translate(4 47.5)">
<title>PEGraphicsItem::hoverEnterEvent</title>
<polygon fill="#ffffff" stroke="transparent" points="-4,4 -4,-47.5 555,-47.5 555,4 -4,4"/>
<!-- Node132 -->
<g id="node1" class="node">
<title>Node132</title>
<g id="a_node1"><a xlink:title=" ">
<polygon fill="#bfbfbf" stroke="#000000" points="0,-.5 0,-30.5 153,-30.5 153,-.5 0,-.5"/>
<text text-anchor="start" x="8" y="-18.5" font-family="Helvetica,sans-Serif" font-size="10.00" fill="#000000">PEGraphicsItem::hoverEnter</text>
<text text-anchor="middle" x="76.5" y="-7.5" font-family="Helvetica,sans-Serif" font-size="10.00" fill="#000000">Event</text>
</a>
</g>
</g>
<!-- Node133 -->
<g id="node2" class="node">
<title>Node133</title>
<g id="a_node2"><a xlink:href="../../d7/d0d/classPEGraphicsItem.html#ae3e6b29591dc762bff4ecc173cece981" target="_top" xlink:title=" ">
<polygon fill="#ffffff" stroke="#000000" points="189,-6 189,-25 360,-25 360,-6 189,-6"/>
<text text-anchor="middle" x="274.5" y="-13" font-family="Helvetica,sans-Serif" font-size="10.00" fill="#000000">PEGraphicsItem::setHighlighted</text>
</a>
</g>
</g>
<!-- Node132&#45;&gt;Node133 -->
<g id="edge1" class="edge">
<title>Node132&#45;&gt;Node133</title>
<path fill="none" stroke="#191970" d="M153.052,-15.5C161.4993,-15.5 170.1769,-15.5 178.8206,-15.5"/>
<polygon fill="#191970" stroke="#191970" points="178.9363,-19.0001 188.9363,-15.5 178.9362,-12.0001 178.9363,-19.0001"/>
</g>
<!-- Node133&#45;&gt;Node133 -->
<g id="edge3" class="edge">
<title>Node133&#45;&gt;Node133</title>
<path fill="none" stroke="#191970" d="M243.9825,-25.2571C229.1361,-34.0653 239.3086,-43.5 274.5,-43.5 299.244,-43.5 311.619,-38.8356 311.625,-33.0043"/>
<polygon fill="#191970" stroke="#191970" points="314.1698,-30.5944 305.0175,-25.2571 308.8438,-35.1369 314.1698,-30.5944"/>
</g>
<!-- Node134 -->
<g id="node3" class="node">
<title>Node134</title>
<g id="a_node3"><a xlink:href="../../d7/d0d/classPEGraphicsItem.html#ae70d8f3914e03827d6ebcfecfee80eb0" target="_top" xlink:title=" ">
<polygon fill="#ffffff" stroke="#000000" points="396,-6 396,-25 551,-25 551,-6 396,-6"/>
<text text-anchor="middle" x="473.5" y="-13" font-family="Helvetica,sans-Serif" font-size="10.00" fill="#000000">PEGraphicsItem::highlighted</text>
</a>
</g>
</g>
<!-- Node133&#45;&gt;Node134 -->
<g id="edge2" class="edge">
<title>Node133&#45;&gt;Node134</title>
<path fill="none" stroke="#191970" d="M360.0488,-15.5C368.5117,-15.5 377.1119,-15.5 385.598,-15.5"/>
<polygon fill="#191970" stroke="#191970" points="385.8758,-19.0001 395.8758,-15.5 385.8757,-12.0001 385.8758,-19.0001"/>
</g>
</g>
</svg>
