<?xml version="1.0" encoding="UTF-8" standalone="no"?>
<!DOCTYPE svg PUBLIC "-//W3C//DTD SVG 1.1//EN"
 "http://www.w3.org/Graphics/SVG/1.1/DTD/svg11.dtd">
<!-- Generated by graphviz version 2.40.1 (0)
 -->
<!-- Title: QuaZipNewInfo Pages: 1 -->
<!--zoomable 204 -->
<svg id="main" version="1.1" xmlns="http://www.w3.org/2000/svg" xmlns:xlink="http://www.w3.org/1999/xlink" xml:space="preserve" onload="init(evt)">
<style type="text/css"><![CDATA[
.edge:hover path { stroke: red; }
.edge:hover polygon { stroke: red; fill: red; }
]]></style>
<script type="text/javascript"><![CDATA[
var edges = document.getElementsByTagName('g');
if (edges && edges.length) {
  for (var i=0;i<edges.length;i++) {
    if (edges[i].id.substr(0,4)=='edge') {
      edges[i].setAttribute('class','edge');
    }
  }
}
]]></script>
        <defs>
                <circle id="rim" cx="0" cy="0" r="7"/>
                <circle id="rim2" cx="0" cy="0" r="3.5"/>
                <g id="zoomPlus">
                        <use xlink:href="#rim" fill="#404040">
                                <set attributeName="fill" to="#808080" begin="zoomplus.mouseover" end="zoomplus.mouseout"/>
                        </use>
                        <path d="M-4,0h8M0,-4v8" fill="none" stroke="white" stroke-width="1.5" pointer-events="none"/>
                </g>
                <g id="zoomMin">
                        <use xlink:href="#rim" fill="#404040">
                                <set attributeName="fill" to="#808080" begin="zoomminus.mouseover" end="zoomminus.mouseout"/>
                        </use>
                        <path d="M-4,0h8" fill="none" stroke="white" stroke-width="1.5" pointer-events="none"/>
                </g>
                <g id="dirArrow">
                        <path fill="none" stroke="white" stroke-width="1.5" d="M0,-3.0v7 M-2.5,-0.5L0,-3.0L2.5,-0.5"/>
                </g>
               <g id="resetDef">
                       <use xlink:href="#rim2" fill="#404040">
                               <set attributeName="fill" to="#808080" begin="reset.mouseover" end="reset.mouseout"/>
                       </use>
               </g>
        </defs>

<script type="text/javascript">
var viewWidth = 557;
var viewHeight = 204;
var sectionId = 'dynsection-0';
</script>
<script xlink:href="../../svgpan.js"/>
<svg id="graph" class="graph">
<g id="viewport">
<title>QuaZipNewInfo</title>
<polygon fill="#ffffff" stroke="transparent" points="-4,4 -4,-200 553,-200 553,4 -4,4"/>
<!-- Node1 -->
<g id="node1" class="node">
<title>Node1</title>
<g id="a_node1"><a xlink:title="Information about a file to be created.">
<polygon fill="#bfbfbf" stroke="#000000" points="188,-.5 188,-79.5 304,-79.5 304,-.5 188,-.5"/>
<text text-anchor="middle" x="246" y="-67.5" font-family="Helvetica,sans-Serif" font-size="10.00" fill="#000000">QuaZipNewInfo</text>
<polyline fill="none" stroke="#000000" points="188,-60.5 304,-60.5 "/>
<text text-anchor="middle" x="246" y="-48.5" font-family="Helvetica,sans-Serif" font-size="10.00" fill="#000000"> </text>
<polyline fill="none" stroke="#000000" points="188,-41.5 304,-41.5 "/>
<text text-anchor="start" x="196" y="-29.5" font-family="Helvetica,sans-Serif" font-size="10.00" fill="#000000">+ QuaZipNewInfo()</text>
<text text-anchor="start" x="196" y="-18.5" font-family="Helvetica,sans-Serif" font-size="10.00" fill="#000000">+ QuaZipNewInfo()</text>
<text text-anchor="start" x="196" y="-7.5" font-family="Helvetica,sans-Serif" font-size="10.00" fill="#000000">+ setFileDateTime()</text>
</a>
</g>
</g>
<!-- Node2 -->
<g id="node2" class="node">
<title>Node2</title>
<g id="a_node2"><a xlink:title=" ">
<polygon fill="#ffffff" stroke="#bfbfbf" points="0,-138.5 0,-195.5 72,-195.5 72,-138.5 0,-138.5"/>
<text text-anchor="middle" x="36" y="-183.5" font-family="Helvetica,sans-Serif" font-size="10.00" fill="#000000">QDateTime</text>
<polyline fill="none" stroke="#bfbfbf" points="0,-176.5 72,-176.5 "/>
<text text-anchor="middle" x="36" y="-164.5" font-family="Helvetica,sans-Serif" font-size="10.00" fill="#000000"> </text>
<polyline fill="none" stroke="#bfbfbf" points="0,-157.5 72,-157.5 "/>
<text text-anchor="middle" x="36" y="-145.5" font-family="Helvetica,sans-Serif" font-size="10.00" fill="#000000"> </text>
</a>
</g>
</g>
<!-- Node2&#45;&gt;Node1 -->
<g id="edge1" class="edge">
<title>Node2&#45;&gt;Node1</title>
<path fill="none" stroke="#404040" d="M39.4102,-138.2458C42.4432,-124.4251 48.1736,-108.6014 59,-98 75.9795,-81.3733 130.1998,-65.6061 175.9131,-54.7199"/>
<polygon fill="none" stroke="#404040" points="175.9404,-54.7136 180.8762,-49.4564 187.6274,-51.9906 182.6915,-57.2477 175.9404,-54.7136"/>
<text text-anchor="middle" x="88" y="-106.5" font-family="Helvetica,sans-Serif" font-size="10.00" fill="#000000"> +dateTime</text>
</g>
<!-- Node3 -->
<g id="node3" class="node">
<title>Node3</title>
<g id="a_node3"><a xlink:title=" ">
<polygon fill="#ffffff" stroke="#bfbfbf" points="90.5,-138.5 90.5,-195.5 143.5,-195.5 143.5,-138.5 90.5,-138.5"/>
<text text-anchor="middle" x="117" y="-183.5" font-family="Helvetica,sans-Serif" font-size="10.00" fill="#000000">quint16</text>
<polyline fill="none" stroke="#bfbfbf" points="90.5,-176.5 143.5,-176.5 "/>
<text text-anchor="middle" x="117" y="-164.5" font-family="Helvetica,sans-Serif" font-size="10.00" fill="#000000"> </text>
<polyline fill="none" stroke="#bfbfbf" points="90.5,-157.5 143.5,-157.5 "/>
<text text-anchor="middle" x="117" y="-145.5" font-family="Helvetica,sans-Serif" font-size="10.00" fill="#000000"> </text>
</a>
</g>
</g>
<!-- Node3&#45;&gt;Node1 -->
<g id="edge2" class="edge">
<title>Node3&#45;&gt;Node1</title>
<path fill="none" stroke="#404040" d="M116.7045,-138.4729C117.8938,-125.0366 121.3329,-109.4797 130,-98 141.853,-82.3004 159.1263,-70.5614 176.7396,-61.9081"/>
<polygon fill="none" stroke="#404040" points="176.7853,-61.8874 180.5864,-55.7594 187.705,-56.9112 183.9039,-63.0392 176.7853,-61.8874"/>
<text text-anchor="middle" x="163.5" y="-106.5" font-family="Helvetica,sans-Serif" font-size="10.00" fill="#000000"> +internalAttr</text>
</g>
<!-- Node4 -->
<g id="node4" class="node">
<title>Node4</title>
<g id="a_node4"><a xlink:title=" ">
<polygon fill="#ffffff" stroke="#bfbfbf" points="178.5,-138.5 178.5,-195.5 231.5,-195.5 231.5,-138.5 178.5,-138.5"/>
<text text-anchor="middle" x="205" y="-183.5" font-family="Helvetica,sans-Serif" font-size="10.00" fill="#000000">QString</text>
<polyline fill="none" stroke="#bfbfbf" points="178.5,-176.5 231.5,-176.5 "/>
<text text-anchor="middle" x="205" y="-164.5" font-family="Helvetica,sans-Serif" font-size="10.00" fill="#000000"> </text>
<polyline fill="none" stroke="#bfbfbf" points="178.5,-157.5 231.5,-157.5 "/>
<text text-anchor="middle" x="205" y="-145.5" font-family="Helvetica,sans-Serif" font-size="10.00" fill="#000000"> </text>
</a>
</g>
</g>
<!-- Node4&#45;&gt;Node1 -->
<g id="edge3" class="edge">
<title>Node4&#45;&gt;Node1</title>
<path fill="none" stroke="#404040" d="M201.1432,-138.2023C200.429,-125.592 200.9369,-110.7866 205,-98 205.7731,-95.5669 206.6894,-93.148 207.7205,-90.757"/>
<polygon fill="none" stroke="#404040" points="207.8412,-90.5194 206.9937,-83.3582 213.278,-79.8216 214.1255,-86.9828 207.8412,-90.5194"/>
<text text-anchor="middle" x="232.5" y="-112" font-family="Helvetica,sans-Serif" font-size="10.00" fill="#000000"> +name</text>
<text text-anchor="middle" x="232.5" y="-101" font-family="Helvetica,sans-Serif" font-size="10.00" fill="#000000">+comment</text>
</g>
<!-- Node5 -->
<g id="node5" class="node">
<title>Node5</title>
<g id="a_node5"><a xlink:title=" ">
<polygon fill="#ffffff" stroke="#bfbfbf" points="249.5,-138.5 249.5,-195.5 322.5,-195.5 322.5,-138.5 249.5,-138.5"/>
<text text-anchor="middle" x="286" y="-183.5" font-family="Helvetica,sans-Serif" font-size="10.00" fill="#000000">QByteArray</text>
<polyline fill="none" stroke="#bfbfbf" points="249.5,-176.5 322.5,-176.5 "/>
<text text-anchor="middle" x="286" y="-164.5" font-family="Helvetica,sans-Serif" font-size="10.00" fill="#000000"> </text>
<polyline fill="none" stroke="#bfbfbf" points="249.5,-157.5 322.5,-157.5 "/>
<text text-anchor="middle" x="286" y="-145.5" font-family="Helvetica,sans-Serif" font-size="10.00" fill="#000000"> </text>
</a>
</g>
</g>
<!-- Node5&#45;&gt;Node1 -->
<g id="edge4" class="edge">
<title>Node5&#45;&gt;Node1</title>
<path fill="none" stroke="#404040" d="M277.0232,-138.4987C272.6489,-124.6104 267.2516,-107.4738 262.1919,-91.4093"/>
<polygon fill="none" stroke="#404040" points="262.1918,-91.4087 256.574,-86.8875 258.5868,-79.963 264.2045,-84.4842 262.1918,-91.4087"/>
<text text-anchor="middle" x="303" y="-112" font-family="Helvetica,sans-Serif" font-size="10.00" fill="#000000"> +extraLocal</text>
<text text-anchor="middle" x="303" y="-101" font-family="Helvetica,sans-Serif" font-size="10.00" fill="#000000">+extraGlobal</text>
</g>
<!-- Node6 -->
<g id="node6" class="node">
<title>Node6</title>
<g id="a_node6"><a xlink:title=" ">
<polygon fill="#ffffff" stroke="#bfbfbf" points="352,-138.5 352,-195.5 396,-195.5 396,-138.5 352,-138.5"/>
<text text-anchor="middle" x="374" y="-183.5" font-family="Helvetica,sans-Serif" font-size="10.00" fill="#000000">ulong</text>
<polyline fill="none" stroke="#bfbfbf" points="352,-176.5 396,-176.5 "/>
<text text-anchor="middle" x="374" y="-164.5" font-family="Helvetica,sans-Serif" font-size="10.00" fill="#000000"> </text>
<polyline fill="none" stroke="#bfbfbf" points="352,-157.5 396,-157.5 "/>
<text text-anchor="middle" x="374" y="-145.5" font-family="Helvetica,sans-Serif" font-size="10.00" fill="#000000"> </text>
</a>
</g>
</g>
<!-- Node6&#45;&gt;Node1 -->
<g id="edge5" class="edge">
<title>Node6&#45;&gt;Node1</title>
<path fill="none" stroke="#404040" d="M364.1106,-138.2884C358.5164,-124.9666 350.5113,-109.5606 340,-98 332.5158,-89.7687 323.5962,-82.2895 314.276,-75.6441"/>
<polygon fill="none" stroke="#404040" points="314.0096,-75.4648 306.7985,-75.433 304.0544,-68.7644 311.2655,-68.7962 314.0096,-75.4648"/>
<text text-anchor="middle" x="405.5" y="-106.5" font-family="Helvetica,sans-Serif" font-size="10.00" fill="#000000"> +uncompressedSize</text>
</g>
<!-- Node7 -->
<g id="node7" class="node">
<title>Node7</title>
<g id="a_node7"><a xlink:title=" ">
<polygon fill="#ffffff" stroke="#bfbfbf" points="473.5,-138.5 473.5,-195.5 526.5,-195.5 526.5,-138.5 473.5,-138.5"/>
<text text-anchor="middle" x="500" y="-183.5" font-family="Helvetica,sans-Serif" font-size="10.00" fill="#000000">quint32</text>
<polyline fill="none" stroke="#bfbfbf" points="473.5,-176.5 526.5,-176.5 "/>
<text text-anchor="middle" x="500" y="-164.5" font-family="Helvetica,sans-Serif" font-size="10.00" fill="#000000"> </text>
<polyline fill="none" stroke="#bfbfbf" points="473.5,-157.5 526.5,-157.5 "/>
<text text-anchor="middle" x="500" y="-145.5" font-family="Helvetica,sans-Serif" font-size="10.00" fill="#000000"> </text>
</a>
</g>
</g>
<!-- Node7&#45;&gt;Node1 -->
<g id="edge6" class="edge">
<title>Node7&#45;&gt;Node1</title>
<path fill="none" stroke="#404040" d="M489.8761,-138.1884C483.5862,-124.1804 474.1541,-108.2073 461,-98 438.3542,-80.4274 369.8068,-63.7522 316.1318,-52.8308"/>
<polygon fill="none" stroke="#404040" points="316.0023,-52.805 309.3348,-55.5518 304.2349,-50.4536 310.9024,-47.7068 316.0023,-52.805"/>
<text text-anchor="middle" x="514" y="-106.5" font-family="Helvetica,sans-Serif" font-size="10.00" fill="#000000"> +externalAttr</text>
</g>
</g>
</svg>
        <g id="navigator" transform="translate(0 0)" fill="#404254">
                <rect fill="#f2f5e9" fill-opacity="0.5" stroke="#606060" stroke-width=".5" x="0" y="0" width="60" height="60"/>
                <use id="zoomplus" xlink:href="#zoomPlus" x="17" y="9" onmousedown="handleZoom(evt,'in')"/>
                <use id="zoomminus" xlink:href="#zoomMin" x="42" y="9" onmousedown="handleZoom(evt,'out')"/>
                <use id="reset" xlink:href="#resetDef" x="30" y="36" onmousedown="handleReset()"/>
                <g id="arrowUp" xlink:href="#dirArrow" transform="translate(30 24)" onmousedown="handlePan(0,-1)">
                  <use xlink:href="#rim" fill="#404040">
                        <set attributeName="fill" to="#808080" begin="arrowUp.mouseover" end="arrowUp.mouseout"/>
                  </use>
                  <path fill="none" stroke="white" stroke-width="1.5" d="M0,-3.0v7 M-2.5,-0.5L0,-3.0L2.5,-0.5"/>
                </g>
                <g id="arrowRight" xlink:href="#dirArrow" transform="rotate(90) translate(36 -43)" onmousedown="handlePan(1,0)">
                  <use xlink:href="#rim" fill="#404040">
                        <set attributeName="fill" to="#808080" begin="arrowRight.mouseover" end="arrowRight.mouseout"/>
                  </use>
                  <path fill="none" stroke="white" stroke-width="1.5" d="M0,-3.0v7 M-2.5,-0.5L0,-3.0L2.5,-0.5"/>
                </g>
                <g id="arrowDown" xlink:href="#dirArrow" transform="rotate(180) translate(-30 -48)" onmousedown="handlePan(0,1)">
                  <use xlink:href="#rim" fill="#404040">
                        <set attributeName="fill" to="#808080" begin="arrowDown.mouseover" end="arrowDown.mouseout"/>
                  </use>
                  <path fill="none" stroke="white" stroke-width="1.5" d="M0,-3.0v7 M-2.5,-0.5L0,-3.0L2.5,-0.5"/>
                </g>
                <g id="arrowLeft" xlink:href="#dirArrow" transform="rotate(270) translate(-36 17)" onmousedown="handlePan(-1,0)">
                  <use xlink:href="#rim" fill="#404040">
                        <set attributeName="fill" to="#808080" begin="arrowLeft.mouseover" end="arrowLeft.mouseout"/>
                  </use>
                  <path fill="none" stroke="white" stroke-width="1.5" d="M0,-3.0v7 M-2.5,-0.5L0,-3.0L2.5,-0.5"/>
                </g>
        </g>
        <svg viewBox="0 0 15 15" width="100%" height="30px" preserveAspectRatio="xMaxYMin meet">
         <g id="arrow_out" transform="scale(0.3 0.3)">
          <a xlink:href="structQuaZipNewInfo__coll__graph_org.svg" target="_base">
           <rect id="button" ry="5" rx="5" y="6" x="6" height="38" width="38"
                fill="#f2f5e9" fill-opacity="0.5" stroke="#606060" stroke-width="1.0"/>
           <path id="arrow"
             d="M 11.500037,31.436501 C 11.940474,20.09759 22.043105,11.32322 32.158766,21.979434 L 37.068811,17.246167 C 37.068811,17.246167 37.088388,32 37.088388,32 L 22.160133,31.978069 C 22.160133,31.978069 26.997745,27.140456 26.997745,27.140456 C 18.528582,18.264221 13.291696,25.230495 11.500037,31.436501 z"
             style="fill:#404040;"/>
          </a>
         </g>
        </svg>
</svg>
