<?xml version="1.0" encoding="UTF-8" standalone="no"?>
<!DOCTYPE svg PUBLIC "-//W3C//DTD SVG 1.1//EN"
 "http://www.w3.org/Graphics/SVG/1.1/DTD/svg11.dtd">
<!-- Generated by graphviz version 2.40.1 (0)
 -->
<!-- Title: tileUnrotate90 Pages: 1 -->
<!--zoomable 104 -->
<svg id="main" version="1.1" xmlns="http://www.w3.org/2000/svg" xmlns:xlink="http://www.w3.org/1999/xlink" xml:space="preserve" onload="init(evt)">
<style type="text/css"><![CDATA[
.edge:hover path { stroke: red; }
.edge:hover polygon { stroke: red; fill: red; }
]]></style>
<script type="text/javascript"><![CDATA[
var edges = document.getElementsByTagName('g');
if (edges && edges.length) {
  for (var i=0;i<edges.length;i++) {
    if (edges[i].id.substr(0,4)=='edge') {
      edges[i].setAttribute('class','edge');
    }
  }
}
]]></script>
        <defs>
                <circle id="rim" cx="0" cy="0" r="7"/>
                <circle id="rim2" cx="0" cy="0" r="3.5"/>
                <g id="zoomPlus">
                        <use xlink:href="#rim" fill="#404040">
                                <set attributeName="fill" to="#808080" begin="zoomplus.mouseover" end="zoomplus.mouseout"/>
                        </use>
                        <path d="M-4,0h8M0,-4v8" fill="none" stroke="white" stroke-width="1.5" pointer-events="none"/>
                </g>
                <g id="zoomMin">
                        <use xlink:href="#rim" fill="#404040">
                                <set attributeName="fill" to="#808080" begin="zoomminus.mouseover" end="zoomminus.mouseout"/>
                        </use>
                        <path d="M-4,0h8" fill="none" stroke="white" stroke-width="1.5" pointer-events="none"/>
                </g>
                <g id="dirArrow">
                        <path fill="none" stroke="white" stroke-width="1.5" d="M0,-3.0v7 M-2.5,-0.5L0,-3.0L2.5,-0.5"/>
                </g>
               <g id="resetDef">
                       <use xlink:href="#rim2" fill="#404040">
                               <set attributeName="fill" to="#808080" begin="reset.mouseover" end="reset.mouseout"/>
                       </use>
               </g>
        </defs>

<script type="text/javascript">
var viewWidth = 1175;
var viewHeight = 104;
var sectionId = 'dynsection-14';
</script>
<script xlink:href="../../svgpan.js"/>
<svg id="graph" class="graph">
<g id="viewport">
<title>tileUnrotate90</title>
<polygon fill="#ffffff" stroke="transparent" points="-4,4 -4,-100 1171,-100 1171,4 -4,4"/>
<!-- Node124 -->
<g id="node1" class="node">
<title>Node124</title>
<g id="a_node1"><a xlink:title=" ">
<polygon fill="#bfbfbf" stroke="#000000" points="1080,-38.5 1080,-57.5 1167,-57.5 1167,-38.5 1080,-38.5"/>
<text text-anchor="middle" x="1123.5" y="-45.5" font-family="Helvetica,sans-Serif" font-size="10.00" fill="#000000">tileUnrotate90</text>
</a>
</g>
</g>
<!-- Node125 -->
<g id="node2" class="node">
<title>Node125</title>
<g id="a_node2"><a xlink:href="../../d1/dec/classPanelizer.html#a7f2bfdecb73d86a77651feeeef2556b6" target="_top" xlink:title=" ">
<polygon fill="#ffffff" stroke="#000000" points="925,-38.5 925,-57.5 1044,-57.5 1044,-38.5 925,-38.5"/>
<text text-anchor="middle" x="984.5" y="-45.5" font-family="Helvetica,sans-Serif" font-size="10.00" fill="#000000">Panelizer::bestFitOne</text>
</a>
</g>
</g>
<!-- Node124&#45;&gt;Node125 -->
<g id="edge1" class="edge">
<title>Node124&#45;&gt;Node125</title>
<path fill="none" stroke="#191970" d="M1069.8646,-48C1061.4752,-48 1052.76,-48 1044.2442,-48"/>
<polygon fill="#191970" stroke="#191970" points="1069.9009,-51.5001 1079.9009,-48 1069.9009,-44.5001 1069.9009,-51.5001"/>
</g>
<!-- Node126 -->
<g id="node3" class="node">
<title>Node126</title>
<g id="a_node3"><a xlink:href="../../d1/dec/classPanelizer.html#ae8789b8d3b16a162e22299ac81bded8f" target="_top" xlink:title=" ">
<polygon fill="#ffffff" stroke="#000000" points="767.5,-76.5 767.5,-95.5 867.5,-95.5 867.5,-76.5 767.5,-76.5"/>
<text text-anchor="middle" x="817.5" y="-83.5" font-family="Helvetica,sans-Serif" font-size="10.00" fill="#000000">Panelizer::bestFit</text>
</a>
</g>
</g>
<!-- Node125&#45;&gt;Node126 -->
<g id="edge2" class="edge">
<title>Node125&#45;&gt;Node126</title>
<path fill="none" stroke="#191970" d="M932.5354,-59.8243C908.9914,-65.1816 881.5263,-71.4311 859.3381,-76.4799"/>
<polygon fill="#191970" stroke="#191970" points="933.3847,-63.2206 942.3588,-57.589 931.8315,-56.3951 933.3847,-63.2206"/>
</g>
<!-- Node132 -->
<g id="node9" class="node">
<title>Node132</title>
<g id="a_node9"><a xlink:href="../../d1/dec/classPanelizer.html#af6f5a9dca507c9f3b2ec8e26013c1b46" target="_top" xlink:title=" ">
<polygon fill="#ffffff" stroke="#000000" points="754.5,-38.5 754.5,-57.5 880.5,-57.5 880.5,-38.5 754.5,-38.5"/>
<text text-anchor="middle" x="817.5" y="-45.5" font-family="Helvetica,sans-Serif" font-size="10.00" fill="#000000">Panelizer::addOptional</text>
</a>
</g>
</g>
<!-- Node125&#45;&gt;Node132 -->
<g id="edge8" class="edge">
<title>Node125&#45;&gt;Node132</title>
<path fill="none" stroke="#191970" d="M914.4698,-48C903.2221,-48 891.6396,-48 880.5677,-48"/>
<polygon fill="#191970" stroke="#191970" points="914.6809,-51.5001 924.6809,-48 914.6808,-44.5001 914.6809,-51.5001"/>
</g>
<!-- Node133 -->
<g id="node10" class="node">
<title>Node133</title>
<g id="a_node10"><a xlink:href="../../d1/dec/classPanelizer.html#a6a905041ca050006ce5d45809a716567" target="_top" xlink:title=" ">
<polygon fill="#ffffff" stroke="#000000" points="746,-.5 746,-19.5 889,-19.5 889,-.5 746,-.5"/>
<text text-anchor="middle" x="817.5" y="-7.5" font-family="Helvetica,sans-Serif" font-size="10.00" fill="#000000">Panelizer::shrinkLastPanel</text>
</a>
</g>
</g>
<!-- Node125&#45;&gt;Node133 -->
<g id="edge10" class="edge">
<title>Node125&#45;&gt;Node133</title>
<path fill="none" stroke="#191970" d="M932.5354,-36.1757C908.9914,-30.8184 881.5263,-24.5689 859.3381,-19.5201"/>
<polygon fill="#191970" stroke="#191970" points="931.8315,-39.6049 942.3588,-38.411 933.3847,-32.7794 931.8315,-39.6049"/>
</g>
<!-- Node127 -->
<g id="node4" class="node">
<title>Node127</title>
<g id="a_node4"><a xlink:href="../../d1/dec/classPanelizer.html#ac7729e4f0b0b5482f4c268db4476d866" target="_top" xlink:title=" ">
<polygon fill="#ffffff" stroke="#000000" points="587,-38.5 587,-57.5 710,-57.5 710,-38.5 587,-38.5"/>
<text text-anchor="middle" x="648.5" y="-45.5" font-family="Helvetica,sans-Serif" font-size="10.00" fill="#000000">Panelizer::bestFitLoop</text>
</a>
</g>
</g>
<!-- Node126&#45;&gt;Node127 -->
<g id="edge3" class="edge">
<title>Node126&#45;&gt;Node127</title>
<path fill="none" stroke="#191970" d="M764.9131,-74.1757C741.0871,-68.8184 713.2931,-62.5689 690.8392,-57.5201"/>
<polygon fill="#191970" stroke="#191970" points="764.3299,-77.6319 774.8542,-76.411 765.8656,-70.8024 764.3299,-77.6319"/>
</g>
<!-- Node128 -->
<g id="node5" class="node">
<title>Node128</title>
<g id="a_node5"><a xlink:href="../../d1/dec/classPanelizer.html#a20413e93309e7c25278c14bbd953de26" target="_top" xlink:title=" ">
<polygon fill="#ffffff" stroke="#000000" points="443,-38.5 443,-57.5 551,-57.5 551,-38.5 443,-38.5"/>
<text text-anchor="middle" x="497" y="-45.5" font-family="Helvetica,sans-Serif" font-size="10.00" fill="#000000">Panelizer::panelize</text>
</a>
</g>
</g>
<!-- Node127&#45;&gt;Node128 -->
<g id="edge4" class="edge">
<title>Node127&#45;&gt;Node128</title>
<path fill="none" stroke="#191970" d="M576.84,-48C568.2377,-48 559.5649,-48 551.2671,-48"/>
<polygon fill="#191970" stroke="#191970" points="576.8792,-51.5001 586.8792,-48 576.8791,-44.5001 576.8792,-51.5001"/>
</g>
<!-- Node129 -->
<g id="node6" class="node">
<title>Node129</title>
<g id="a_node6"><a xlink:href="../../dc/dc7/classFApplication.html#ade4b2813f0a6b5af98013570a7b5d9c0" target="_top" xlink:title=" ">
<polygon fill="#ffffff" stroke="#000000" points="265,-33 265,-63 407,-63 407,-33 265,-33"/>
<text text-anchor="start" x="273" y="-51" font-family="Helvetica,sans-Serif" font-size="10.00" fill="#000000">FApplication::runPanelizer</text>
<text text-anchor="middle" x="336" y="-40" font-family="Helvetica,sans-Serif" font-size="10.00" fill="#000000">Service</text>
</a>
</g>
</g>
<!-- Node128&#45;&gt;Node129 -->
<g id="edge5" class="edge">
<title>Node128&#45;&gt;Node129</title>
<path fill="none" stroke="#191970" d="M432.7829,-48C424.3314,-48 415.6301,-48 407.0728,-48"/>
<polygon fill="#191970" stroke="#191970" points="432.9415,-51.5001 442.9414,-48 432.9414,-44.5001 432.9415,-51.5001"/>
</g>
<!-- Node130 -->
<g id="node7" class="node">
<title>Node130</title>
<g id="a_node7"><a xlink:href="../../dc/dc7/classFApplication.html#ac5e0b62634df1a581eee3c3a36980754" target="_top" xlink:title=" ">
<polygon fill="#ffffff" stroke="#000000" points="77,-38.5 77,-57.5 229,-57.5 229,-38.5 77,-38.5"/>
<text text-anchor="middle" x="153" y="-45.5" font-family="Helvetica,sans-Serif" font-size="10.00" fill="#000000">FApplication::serviceStartup</text>
</a>
</g>
</g>
<!-- Node129&#45;&gt;Node130 -->
<g id="edge6" class="edge">
<title>Node129&#45;&gt;Node130</title>
<path fill="none" stroke="#191970" d="M254.973,-48C246.3792,-48 237.6606,-48 229.1257,-48"/>
<polygon fill="#191970" stroke="#191970" points="254.9855,-51.5001 264.9855,-48 254.9855,-44.5001 254.9855,-51.5001"/>
</g>
<!-- Node131 -->
<g id="node8" class="node">
<title>Node131</title>
<g id="a_node8"><a xlink:href="../../df/d0a/main_8cpp.html#a0ddf1224851353fc92bfbff6f499fa97" target="_top" xlink:title=" ">
<polygon fill="#ffffff" stroke="#000000" points="0,-38.5 0,-57.5 41,-57.5 41,-38.5 0,-38.5"/>
<text text-anchor="middle" x="20.5" y="-45.5" font-family="Helvetica,sans-Serif" font-size="10.00" fill="#000000">main</text>
</a>
</g>
</g>
<!-- Node130&#45;&gt;Node131 -->
<g id="edge7" class="edge">
<title>Node130&#45;&gt;Node131</title>
<path fill="none" stroke="#191970" d="M66.6912,-48C57.2673,-48 48.4413,-48 41.0804,-48"/>
<polygon fill="#191970" stroke="#191970" points="66.692,-51.5001 76.6919,-48 66.6919,-44.5001 66.692,-51.5001"/>
</g>
<!-- Node132&#45;&gt;Node127 -->
<g id="edge9" class="edge">
<title>Node132&#45;&gt;Node127</title>
<path fill="none" stroke="#191970" d="M743.8273,-48C732.5468,-48 721.0046,-48 710.0227,-48"/>
<polygon fill="#191970" stroke="#191970" points="744.0899,-51.5001 754.0898,-48 744.0898,-44.5001 744.0899,-51.5001"/>
</g>
<!-- Node133&#45;&gt;Node127 -->
<g id="edge11" class="edge">
<title>Node133&#45;&gt;Node127</title>
<path fill="none" stroke="#191970" d="M764.9131,-21.8243C741.0871,-27.1816 713.2931,-33.4311 690.8392,-38.4799"/>
<polygon fill="#191970" stroke="#191970" points="765.8656,-25.1976 774.8542,-19.589 764.3299,-18.3681 765.8656,-25.1976"/>
</g>
</g>
</svg>
        <g id="navigator" transform="translate(0 0)" fill="#404254">
                <rect fill="#f2f5e9" fill-opacity="0.5" stroke="#606060" stroke-width=".5" x="0" y="0" width="60" height="60"/>
                <use id="zoomplus" xlink:href="#zoomPlus" x="17" y="9" onmousedown="handleZoom(evt,'in')"/>
                <use id="zoomminus" xlink:href="#zoomMin" x="42" y="9" onmousedown="handleZoom(evt,'out')"/>
                <use id="reset" xlink:href="#resetDef" x="30" y="36" onmousedown="handleReset()"/>
                <g id="arrowUp" xlink:href="#dirArrow" transform="translate(30 24)" onmousedown="handlePan(0,-1)">
                  <use xlink:href="#rim" fill="#404040">
                        <set attributeName="fill" to="#808080" begin="arrowUp.mouseover" end="arrowUp.mouseout"/>
                  </use>
                  <path fill="none" stroke="white" stroke-width="1.5" d="M0,-3.0v7 M-2.5,-0.5L0,-3.0L2.5,-0.5"/>
                </g>
                <g id="arrowRight" xlink:href="#dirArrow" transform="rotate(90) translate(36 -43)" onmousedown="handlePan(1,0)">
                  <use xlink:href="#rim" fill="#404040">
                        <set attributeName="fill" to="#808080" begin="arrowRight.mouseover" end="arrowRight.mouseout"/>
                  </use>
                  <path fill="none" stroke="white" stroke-width="1.5" d="M0,-3.0v7 M-2.5,-0.5L0,-3.0L2.5,-0.5"/>
                </g>
                <g id="arrowDown" xlink:href="#dirArrow" transform="rotate(180) translate(-30 -48)" onmousedown="handlePan(0,1)">
                  <use xlink:href="#rim" fill="#404040">
                        <set attributeName="fill" to="#808080" begin="arrowDown.mouseover" end="arrowDown.mouseout"/>
                  </use>
                  <path fill="none" stroke="white" stroke-width="1.5" d="M0,-3.0v7 M-2.5,-0.5L0,-3.0L2.5,-0.5"/>
                </g>
                <g id="arrowLeft" xlink:href="#dirArrow" transform="rotate(270) translate(-36 17)" onmousedown="handlePan(-1,0)">
                  <use xlink:href="#rim" fill="#404040">
                        <set attributeName="fill" to="#808080" begin="arrowLeft.mouseover" end="arrowLeft.mouseout"/>
                  </use>
                  <path fill="none" stroke="white" stroke-width="1.5" d="M0,-3.0v7 M-2.5,-0.5L0,-3.0L2.5,-0.5"/>
                </g>
        </g>
        <svg viewBox="0 0 15 15" width="100%" height="30px" preserveAspectRatio="xMaxYMin meet">
         <g id="arrow_out" transform="scale(0.3 0.3)">
          <a xlink:href="tileutils_8h_a4c39ebe5d473cc0ad26430af25462428_icgraph_org.svg" target="_base">
           <rect id="button" ry="5" rx="5" y="6" x="6" height="38" width="38"
                fill="#f2f5e9" fill-opacity="0.5" stroke="#606060" stroke-width="1.0"/>
           <path id="arrow"
             d="M 11.500037,31.436501 C 11.940474,20.09759 22.043105,11.32322 32.158766,21.979434 L 37.068811,17.246167 C 37.068811,17.246167 37.088388,32 37.088388,32 L 22.160133,31.978069 C 22.160133,31.978069 26.997745,27.140456 26.997745,27.140456 C 18.528582,18.264221 13.291696,25.230495 11.500037,31.436501 z"
             style="fill:#404040;"/>
          </a>
         </g>
        </svg>
</svg>
