<?xml version="1.0" encoding="UTF-8" standalone="no"?>
<!DOCTYPE svg PUBLIC "-//W3C//DTD SVG 1.1//EN"
 "http://www.w3.org/Graphics/SVG/1.1/DTD/svg11.dtd">
<!-- Generated by graphviz version 2.40.1 (0)
 -->
<!-- Title: program/programwindow.h Pages: 1 -->
<!--zoomable 218 -->
<svg id="main" version="1.1" xmlns="http://www.w3.org/2000/svg" xmlns:xlink="http://www.w3.org/1999/xlink" xml:space="preserve" onload="init(evt)">
<style type="text/css"><![CDATA[
.edge:hover path { stroke: red; }
.edge:hover polygon { stroke: red; fill: red; }
]]></style>
<script type="text/javascript"><![CDATA[
var edges = document.getElementsByTagName('g');
if (edges && edges.length) {
  for (var i=0;i<edges.length;i++) {
    if (edges[i].id.substr(0,4)=='edge') {
      edges[i].setAttribute('class','edge');
    }
  }
}
]]></script>
        <defs>
                <circle id="rim" cx="0" cy="0" r="7"/>
                <circle id="rim2" cx="0" cy="0" r="3.5"/>
                <g id="zoomPlus">
                        <use xlink:href="#rim" fill="#404040">
                                <set attributeName="fill" to="#808080" begin="zoomplus.mouseover" end="zoomplus.mouseout"/>
                        </use>
                        <path d="M-4,0h8M0,-4v8" fill="none" stroke="white" stroke-width="1.5" pointer-events="none"/>
                </g>
                <g id="zoomMin">
                        <use xlink:href="#rim" fill="#404040">
                                <set attributeName="fill" to="#808080" begin="zoomminus.mouseover" end="zoomminus.mouseout"/>
                        </use>
                        <path d="M-4,0h8" fill="none" stroke="white" stroke-width="1.5" pointer-events="none"/>
                </g>
                <g id="dirArrow">
                        <path fill="none" stroke="white" stroke-width="1.5" d="M0,-3.0v7 M-2.5,-0.5L0,-3.0L2.5,-0.5"/>
                </g>
               <g id="resetDef">
                       <use xlink:href="#rim2" fill="#404040">
                               <set attributeName="fill" to="#808080" begin="reset.mouseover" end="reset.mouseout"/>
                       </use>
               </g>
        </defs>

<script type="text/javascript">
var viewWidth = 2210;
var viewHeight = 218;
var sectionId = 'dynsection-1';
</script>
<script xlink:href="../../svgpan.js"/>
<svg id="graph" class="graph">
<g id="viewport">
<title>program/programwindow.h</title>
<polygon fill="#ffffff" stroke="transparent" points="-4,4 -4,-214 2205.5,-214 2205.5,4 -4,4"/>
<!-- Node39 -->
<g id="node1" class="node">
<title>Node39</title>
<g id="a_node1"><a xlink:title=" ">
<polygon fill="#bfbfbf" stroke="#000000" points="1432,-190.5 1432,-209.5 1580,-209.5 1580,-190.5 1432,-190.5"/>
<text text-anchor="middle" x="1506" y="-197.5" font-family="Helvetica,sans-Serif" font-size="10.00" fill="#000000">program/programwindow.h</text>
</a>
</g>
</g>
<!-- Node40 -->
<g id="node2" class="node">
<title>Node40</title>
<g id="a_node2"><a xlink:href="../../d9/d53/mainwindow_8h.html" target="_top" xlink:title=" ">
<polygon fill="#ffffff" stroke="#000000" points="879,-134.5 879,-153.5 1031,-153.5 1031,-134.5 879,-134.5"/>
<text text-anchor="middle" x="955" y="-141.5" font-family="Helvetica,sans-Serif" font-size="10.00" fill="#000000">mainwindow/mainwindow.h</text>
</a>
</g>
</g>
<!-- Node39&#45;&gt;Node40 -->
<g id="edge1" class="edge">
<title>Node39&#45;&gt;Node40</title>
<path fill="none" stroke="#191970" d="M1421.9211,-191.4548C1315.5402,-180.6429 1133.865,-162.1787 1031.3109,-151.7557"/>
<polygon fill="#191970" stroke="#191970" points="1421.6731,-194.9475 1431.9758,-192.4767 1422.3809,-187.9834 1421.6731,-194.9475"/>
</g>
<!-- Node48 -->
<g id="node10" class="node">
<title>Node48</title>
<g id="a_node10"><a xlink:href="../../d2/de1/mainwindow__menu_8cpp.html" target="_top" xlink:title=" ">
<polygon fill="#ffffff" stroke="#000000" points="1483,-.5 1483,-30.5 1627,-30.5 1627,-.5 1483,-.5"/>
<text text-anchor="start" x="1491" y="-18.5" font-family="Helvetica,sans-Serif" font-size="10.00" fill="#000000">mainwindow/mainwindow</text>
<text text-anchor="middle" x="1555" y="-7.5" font-family="Helvetica,sans-Serif" font-size="10.00" fill="#000000">_menu.cpp</text>
</a>
</g>
</g>
<!-- Node39&#45;&gt;Node48 -->
<g id="edge21" class="edge">
<title>Node39&#45;&gt;Node48</title>
<path fill="none" stroke="#191970" d="M1506.4741,-180.1008C1507.6327,-153.5973 1511.5855,-105.5732 1525,-67 1529.5544,-53.9039 1537.5605,-40.4074 1544.157,-30.5179"/>
<polygon fill="#191970" stroke="#191970" points="1502.9674,-180.2383 1506.1217,-190.3527 1509.9633,-180.4788 1502.9674,-180.2383"/>
</g>
<!-- Node52 -->
<g id="node14" class="node">
<title>Node52</title>
<g id="a_node14"><a xlink:href="../../d8/dfb/mainwindow__export_8cpp.html" target="_top" xlink:title=" ">
<polygon fill="#ffffff" stroke="#000000" points="1334,-67.5 1334,-97.5 1478,-97.5 1478,-67.5 1334,-67.5"/>
<text text-anchor="start" x="1342" y="-85.5" font-family="Helvetica,sans-Serif" font-size="10.00" fill="#000000">mainwindow/mainwindow</text>
<text text-anchor="middle" x="1406" y="-74.5" font-family="Helvetica,sans-Serif" font-size="10.00" fill="#000000">_export.cpp</text>
</a>
</g>
</g>
<!-- Node39&#45;&gt;Node52 -->
<g id="edge20" class="edge">
<title>Node39&#45;&gt;Node52</title>
<path fill="none" stroke="#191970" d="M1491.0867,-182.4768C1471.517,-159.4825 1437.489,-119.4996 1418.9484,-97.7143"/>
<polygon fill="#191970" stroke="#191970" points="1488.67,-185.0375 1497.8166,-190.3845 1494.0008,-180.5006 1488.67,-185.0375"/>
</g>
<!-- Node56 -->
<g id="node18" class="node">
<title>Node56</title>
<g id="a_node18"><a xlink:href="../../de/d48/programtab_8h.html" target="_top" xlink:title=" ">
<polygon fill="#ffffff" stroke="#000000" points="1713.5,-134.5 1713.5,-153.5 1840.5,-153.5 1840.5,-134.5 1713.5,-134.5"/>
<text text-anchor="middle" x="1777" y="-141.5" font-family="Helvetica,sans-Serif" font-size="10.00" fill="#000000">program/programtab.h</text>
</a>
</g>
</g>
<!-- Node39&#45;&gt;Node56 -->
<g id="edge22" class="edge">
<title>Node39&#45;&gt;Node56</title>
<path fill="none" stroke="#191970" d="M1562.2712,-188.372C1612.2199,-178.0505 1684.3098,-163.1537 1730.9122,-153.5237"/>
<polygon fill="#191970" stroke="#191970" points="1561.3634,-184.9856 1552.2786,-190.4369 1562.7801,-191.8407 1561.3634,-184.9856"/>
</g>
<!-- Node60 -->
<g id="node22" class="node">
<title>Node60</title>
<g id="a_node22"><a xlink:href="../../d3/d82/programwindow_8cpp.html" target="_top" xlink:title=" ">
<polygon fill="#ffffff" stroke="#000000" points="2042.5,-73 2042.5,-92 2201.5,-92 2201.5,-73 2042.5,-73"/>
<text text-anchor="middle" x="2122" y="-80" font-family="Helvetica,sans-Serif" font-size="10.00" fill="#000000">program/programwindow.cpp</text>
</a>
</g>
</g>
<!-- Node39&#45;&gt;Node60 -->
<g id="edge27" class="edge">
<title>Node39&#45;&gt;Node60</title>
<path fill="none" stroke="#191970" d="M1590.0818,-191.6402C1659.8119,-184.0104 1761.3544,-171.2866 1849,-154 1937.6862,-136.5082 2040.3393,-107.0912 2090.7626,-92.0235"/>
<polygon fill="#191970" stroke="#191970" points="1589.595,-188.1723 1580.03,-192.7288 1590.3488,-195.1316 1589.595,-188.1723"/>
</g>
<!-- Node41 -->
<g id="node3" class="node">
<title>Node41</title>
<g id="a_node3"><a xlink:href="../../de/d0d/panelizer_8h.html" target="_top" xlink:title=" ">
<polygon fill="#ffffff" stroke="#000000" points="760,-73 760,-92 880,-92 880,-73 760,-73"/>
<text text-anchor="middle" x="820" y="-80" font-family="Helvetica,sans-Serif" font-size="10.00" fill="#000000">autoroute/panelizer.h</text>
</a>
</g>
</g>
<!-- Node40&#45;&gt;Node41 -->
<g id="edge2" class="edge">
<title>Node40&#45;&gt;Node41</title>
<path fill="none" stroke="#191970" d="M924.6843,-130.1895C899.1783,-118.5701 863.3759,-102.2601 840.9456,-92.0419"/>
<polygon fill="#191970" stroke="#191970" points="923.355,-133.43 933.9063,-134.3906 926.257,-127.0598 923.355,-133.43"/>
</g>
<!-- Node43 -->
<g id="node5" class="node">
<title>Node43</title>
<g id="a_node5"><a xlink:href="../../d6/dbb/fapplication_8cpp.html" target="_top" xlink:title=" ">
<polygon fill="#ffffff" stroke="#000000" points="824.5,-6 824.5,-25 919.5,-25 919.5,-6 824.5,-6"/>
<text text-anchor="middle" x="872" y="-13" font-family="Helvetica,sans-Serif" font-size="10.00" fill="#000000">fapplication.cpp</text>
</a>
</g>
</g>
<!-- Node40&#45;&gt;Node43 -->
<g id="edge7" class="edge">
<title>Node40&#45;&gt;Node43</title>
<path fill="none" stroke="#191970" d="M943.1428,-125.6428C925.2929,-98.0077 892.1381,-46.6776 878.3109,-25.2705"/>
<polygon fill="#191970" stroke="#191970" points="940.3957,-127.8405 948.7615,-134.3416 946.2758,-124.0425 940.3957,-127.8405"/>
</g>
<!-- Node45 -->
<g id="node7" class="node">
<title>Node45</title>
<g id="a_node7"><a xlink:href="../../d7/d07/prefsdialog_8cpp.html" target="_top" xlink:title=" ">
<polygon fill="#ffffff" stroke="#000000" points="936,-73 936,-92 1066,-92 1066,-73 936,-73"/>
<text text-anchor="middle" x="1001" y="-80" font-family="Helvetica,sans-Serif" font-size="10.00" fill="#000000">dialogs/prefsdialog.cpp</text>
</a>
</g>
</g>
<!-- Node40&#45;&gt;Node45 -->
<g id="edge6" class="edge">
<title>Node40&#45;&gt;Node45</title>
<path fill="none" stroke="#191970" d="M968.2791,-126.2465C976.5583,-115.1775 986.8969,-101.3552 993.7112,-92.2449"/>
<polygon fill="#191970" stroke="#191970" points="965.3744,-124.2864 962.1875,-134.3906 970.9799,-128.4792 965.3744,-124.2864"/>
</g>
<!-- Node46 -->
<g id="node8" class="node">
<title>Node46</title>
<g id="a_node8"><a xlink:href="../../d8/dd9/mainwindow_8cpp.html" target="_top" xlink:title=" ">
<polygon fill="#ffffff" stroke="#000000" points="938,-6 938,-25 1102,-25 1102,-6 938,-6"/>
<text text-anchor="middle" x="1020" y="-13" font-family="Helvetica,sans-Serif" font-size="10.00" fill="#000000">mainwindow/mainwindow.cpp</text>
</a>
</g>
</g>
<!-- Node40&#45;&gt;Node46 -->
<g id="edge8" class="edge">
<title>Node40&#45;&gt;Node46</title>
<path fill="none" stroke="#191970" d="M1002.7711,-131.6731C1032.3548,-122.9647 1066.3113,-110.6358 1075,-98 1092.9463,-71.901 1056.6817,-40.6997 1034.8633,-25.2134"/>
<polygon fill="#191970" stroke="#191970" points="1001.6006,-128.3675 992.9488,-134.4828 1003.5258,-135.0975 1001.6006,-128.3675"/>
</g>
<!-- Node47 -->
<g id="node9" class="node">
<title>Node47</title>
<g id="a_node9"><a xlink:href="../../d7/d55/pemainwindow_8h.html" target="_top" xlink:title=" ">
<polygon fill="#ffffff" stroke="#000000" points="1122.5,-73 1122.5,-92 1277.5,-92 1277.5,-73 1122.5,-73"/>
<text text-anchor="middle" x="1200" y="-80" font-family="Helvetica,sans-Serif" font-size="10.00" fill="#000000">partseditor/pemainwindow.h</text>
</a>
</g>
</g>
<!-- Node40&#45;&gt;Node47 -->
<g id="edge9" class="edge">
<title>Node40&#45;&gt;Node47</title>
<path fill="none" stroke="#191970" d="M1002.8533,-131.9878C1049.3503,-120.3162 1119.0365,-102.8235 1161.8984,-92.0643"/>
<polygon fill="#191970" stroke="#191970" points="1001.8594,-128.6287 993.0124,-134.4581 1003.5637,-135.418 1001.8594,-128.6287"/>
</g>
<!-- Node40&#45;&gt;Node48 -->
<g id="edge16" class="edge">
<title>Node40&#45;&gt;Node48</title>
<path fill="none" stroke="#191970" d="M1041.2451,-137.2017C1124.2414,-129.7323 1243.2544,-116.3173 1286,-98 1306.3522,-89.2787 1305.0233,-76.5501 1325,-67 1339.3286,-60.15 1420.8667,-42.6679 1482.8267,-29.9685"/>
<polygon fill="#191970" stroke="#191970" points="1040.7079,-133.7355 1031.0562,-138.1052 1041.3263,-140.7082 1040.7079,-133.7355"/>
</g>
<!-- Node51 -->
<g id="node13" class="node">
<title>Node51</title>
<g id="a_node13"><a xlink:href="../../dc/d06/mainwindow__dock_8cpp.html" target="_top" xlink:title=" ">
<polygon fill="#ffffff" stroke="#000000" points="0,-67.5 0,-97.5 144,-97.5 144,-67.5 0,-67.5"/>
<text text-anchor="start" x="8" y="-85.5" font-family="Helvetica,sans-Serif" font-size="10.00" fill="#000000">mainwindow/mainwindow</text>
<text text-anchor="middle" x="72" y="-74.5" font-family="Helvetica,sans-Serif" font-size="10.00" fill="#000000">_dock.cpp</text>
</a>
</g>
</g>
<!-- Node40&#45;&gt;Node51 -->
<g id="edge14" class="edge">
<title>Node40&#45;&gt;Node51</title>
<path fill="none" stroke="#191970" d="M868.6316,-142.7721C721.3014,-139.8458 412.1774,-130.0887 153,-98 150.1582,-97.6482 147.266,-97.2567 144.3487,-96.8339"/>
<polygon fill="#191970" stroke="#191970" points="868.8912,-146.2776 878.9568,-142.9712 869.0262,-139.2789 868.8912,-146.2776"/>
</g>
<!-- Node40&#45;&gt;Node52 -->
<g id="edge15" class="edge">
<title>Node40&#45;&gt;Node52</title>
<path fill="none" stroke="#191970" d="M1041.2226,-134.4377C1115.2974,-125.9111 1224.8794,-112.5554 1320,-98 1324.499,-97.3116 1329.1245,-96.5716 1333.7852,-95.8017"/>
<polygon fill="#191970" stroke="#191970" points="1040.5474,-130.9921 1031.0111,-135.6084 1041.3447,-137.9466 1040.5474,-130.9921"/>
</g>
<!-- Node53 -->
<g id="node15" class="node">
<title>Node53</title>
<g id="a_node15"><a xlink:href="../../d1/d8a/binmanager_8cpp.html" target="_top" xlink:title=" ">
<polygon fill="#ffffff" stroke="#000000" points="162,-67.5 162,-97.5 314,-97.5 314,-67.5 162,-67.5"/>
<text text-anchor="start" x="170" y="-85.5" font-family="Helvetica,sans-Serif" font-size="10.00" fill="#000000">partsbinpalette/binmanager</text>
<text text-anchor="middle" x="238" y="-74.5" font-family="Helvetica,sans-Serif" font-size="10.00" fill="#000000">/binmanager.cpp</text>
</a>
</g>
</g>
<!-- Node40&#45;&gt;Node53 -->
<g id="edge17" class="edge">
<title>Node40&#45;&gt;Node53</title>
<path fill="none" stroke="#191970" d="M868.832,-140.6721C746.9118,-135.2951 517.2529,-122.7077 323,-98 320.1727,-97.6404 317.2969,-97.2488 314.3953,-96.8319"/>
<polygon fill="#191970" stroke="#191970" points="868.7129,-144.1701 878.8558,-141.1086 869.0175,-137.1767 868.7129,-144.1701"/>
</g>
<!-- Node54 -->
<g id="node16" class="node">
<title>Node54</title>
<g id="a_node16"><a xlink:href="../../d1/d73/partsbinpalettewidget_8cpp.html" target="_top" xlink:title=" ">
<polygon fill="#ffffff" stroke="#000000" points="332.5,-73 332.5,-92 553.5,-92 553.5,-73 332.5,-73"/>
<text text-anchor="middle" x="443" y="-80" font-family="Helvetica,sans-Serif" font-size="10.00" fill="#000000">partsbinpalette/partsbinpalettewidget.cpp</text>
</a>
</g>
</g>
<!-- Node40&#45;&gt;Node54 -->
<g id="edge18" class="edge">
<title>Node40&#45;&gt;Node54</title>
<path fill="none" stroke="#191970" d="M868.7596,-134.1721C789.311,-125.0487 668.1649,-110.9618 563,-98 547.6762,-96.1113 531.2599,-94.0294 515.6414,-92.021"/>
<polygon fill="#191970" stroke="#191970" points="868.3865,-137.6521 878.7203,-135.315 869.1845,-130.6978 868.3865,-137.6521"/>
</g>
<!-- Node55 -->
<g id="node17" class="node">
<title>Node55</title>
<g id="a_node17"><a xlink:href="../../d7/d51/autoclosemessagebox_8cpp.html" target="_top" xlink:title=" ">
<polygon fill="#ffffff" stroke="#000000" points="572,-73 572,-92 742,-92 742,-73 572,-73"/>
<text text-anchor="middle" x="657" y="-80" font-family="Helvetica,sans-Serif" font-size="10.00" fill="#000000">utils/autoclosemessagebox.cpp</text>
</a>
</g>
</g>
<!-- Node40&#45;&gt;Node55 -->
<g id="edge19" class="edge">
<title>Node40&#45;&gt;Node55</title>
<path fill="none" stroke="#191970" d="M898.9154,-132.4255C842.3768,-120.7573 756.1338,-102.9588 703.344,-92.0643"/>
<polygon fill="#191970" stroke="#191970" points="898.2634,-135.8646 908.7645,-134.4581 899.6783,-129.0091 898.2634,-135.8646"/>
</g>
<!-- Node42 -->
<g id="node4" class="node">
<title>Node42</title>
<g id="a_node4"><a xlink:href="../../da/d99/panelizer_8cpp.html" target="_top" xlink:title=" ">
<polygon fill="#ffffff" stroke="#000000" points="675.5,-6 675.5,-25 806.5,-25 806.5,-6 675.5,-6"/>
<text text-anchor="middle" x="741" y="-13" font-family="Helvetica,sans-Serif" font-size="10.00" fill="#000000">autoroute/panelizer.cpp</text>
</a>
</g>
</g>
<!-- Node41&#45;&gt;Node42 -->
<g id="edge3" class="edge">
<title>Node41&#45;&gt;Node42</title>
<path fill="none" stroke="#191970" d="M800.8976,-66.2992C785.7035,-53.4131 764.9602,-35.8207 752.2978,-25.0817"/>
<polygon fill="#191970" stroke="#191970" points="798.7908,-69.1017 808.6812,-72.9005 803.3185,-63.7631 798.7908,-69.1017"/>
</g>
<!-- Node41&#45;&gt;Node43 -->
<g id="edge4" class="edge">
<title>Node41&#45;&gt;Node43</title>
<path fill="none" stroke="#191970" d="M833.6996,-64.8486C843.579,-52.1194 856.5374,-35.4229 864.5635,-25.0817"/>
<polygon fill="#191970" stroke="#191970" points="830.8166,-62.8547 827.4503,-72.9005 836.3466,-67.1466 830.8166,-62.8547"/>
</g>
<!-- Node44 -->
<g id="node6" class="node">
<title>Node44</title>
<g id="a_node6"><a xlink:href="../../de/d4c/pcbsketchwidget_8cpp.html" target="_top" xlink:title=" ">
<polygon fill="#ffffff" stroke="#000000" points="504.5,-6 504.5,-25 657.5,-25 657.5,-6 504.5,-6"/>
<text text-anchor="middle" x="581" y="-13" font-family="Helvetica,sans-Serif" font-size="10.00" fill="#000000">sketch/pcbsketchwidget.cpp</text>
</a>
</g>
</g>
<!-- Node41&#45;&gt;Node44 -->
<g id="edge5" class="edge">
<title>Node41&#45;&gt;Node44</title>
<path fill="none" stroke="#191970" d="M776.2458,-70.2342C729.8857,-57.2378 657.6485,-36.9872 615.2588,-25.1039"/>
<polygon fill="#191970" stroke="#191970" points="775.4374,-73.6424 786.0109,-72.9717 777.3269,-66.9022 775.4374,-73.6424"/>
</g>
<!-- Node47&#45;&gt;Node46 -->
<g id="edge10" class="edge">
<title>Node47&#45;&gt;Node46</title>
<path fill="none" stroke="#191970" d="M1164.3994,-69.2487C1129.4097,-56.2247 1076.8635,-36.6659 1045.7418,-25.0817"/>
<polygon fill="#191970" stroke="#191970" points="1163.6176,-72.6922 1174.2104,-72.9005 1166.0595,-66.1319 1163.6176,-72.6922"/>
</g>
<!-- Node47&#45;&gt;Node48 -->
<g id="edge11" class="edge">
<title>Node47&#45;&gt;Node48</title>
<path fill="none" stroke="#191970" d="M1260.5543,-71.0833C1315.8766,-60.6515 1399.9394,-44.7964 1473,-31 1476.1321,-30.4086 1479.3314,-29.8043 1482.5633,-29.1938"/>
<polygon fill="#191970" stroke="#191970" points="1259.7463,-67.6739 1250.568,-72.9664 1261.0434,-74.5527 1259.7463,-67.6739"/>
</g>
<!-- Node49 -->
<g id="node11" class="node">
<title>Node49</title>
<g id="a_node11"><a xlink:href="../../d3/d01/pecommands_8cpp.html" target="_top" xlink:title=" ">
<polygon fill="#ffffff" stroke="#000000" points="1120.5,-6 1120.5,-25 1279.5,-25 1279.5,-6 1120.5,-6"/>
<text text-anchor="middle" x="1200" y="-13" font-family="Helvetica,sans-Serif" font-size="10.00" fill="#000000">partseditor/pecommands.cpp</text>
</a>
</g>
</g>
<!-- Node47&#45;&gt;Node49 -->
<g id="edge12" class="edge">
<title>Node47&#45;&gt;Node49</title>
<path fill="none" stroke="#191970" d="M1200,-62.6079C1200,-50.214 1200,-34.8263 1200,-25.0817"/>
<polygon fill="#191970" stroke="#191970" points="1196.5001,-62.9005 1200,-72.9005 1203.5001,-62.9006 1196.5001,-62.9005"/>
</g>
<!-- Node50 -->
<g id="node12" class="node">
<title>Node50</title>
<g id="a_node12"><a xlink:href="../../d3/de2/pemainwindow_8cpp.html" target="_top" xlink:title=" ">
<polygon fill="#ffffff" stroke="#000000" points="1297.5,-6 1297.5,-25 1464.5,-25 1464.5,-6 1297.5,-6"/>
<text text-anchor="middle" x="1381" y="-13" font-family="Helvetica,sans-Serif" font-size="10.00" fill="#000000">partseditor/pemainwindow.cpp</text>
</a>
</g>
</g>
<!-- Node47&#45;&gt;Node50 -->
<g id="edge13" class="edge">
<title>Node47&#45;&gt;Node50</title>
<path fill="none" stroke="#191970" d="M1235.3464,-69.416C1270.5285,-56.3928 1323.6862,-36.7156 1355.1152,-25.0817"/>
<polygon fill="#191970" stroke="#191970" points="1234.096,-66.1467 1225.9329,-72.9005 1236.526,-72.7114 1234.096,-66.1467"/>
</g>
<!-- Node57 -->
<g id="node19" class="node">
<title>Node57</title>
<g id="a_node19"><a xlink:href="../../df/d93/platformarduino_8cpp.html" target="_top" xlink:title=" ">
<polygon fill="#ffffff" stroke="#000000" points="1864,-73 1864,-92 2024,-92 2024,-73 1864,-73"/>
<text text-anchor="middle" x="1944" y="-80" font-family="Helvetica,sans-Serif" font-size="10.00" fill="#000000">program/platformarduino.cpp</text>
</a>
</g>
</g>
<!-- Node56&#45;&gt;Node57 -->
<g id="edge23" class="edge">
<title>Node56&#45;&gt;Node57</title>
<path fill="none" stroke="#191970" d="M1812.8457,-130.7993C1844.4875,-119.1468 1889.8535,-102.4402 1918.0895,-92.0419"/>
<polygon fill="#191970" stroke="#191970" points="1811.2681,-127.6504 1803.0938,-134.3906 1813.6872,-134.2192 1811.2681,-127.6504"/>
</g>
<!-- Node58 -->
<g id="node20" class="node">
<title>Node58</title>
<g id="a_node20"><a xlink:href="../../d6/da8/platformpicaxe_8cpp.html" target="_top" xlink:title=" ">
<polygon fill="#ffffff" stroke="#000000" points="1534.5,-73 1534.5,-92 1689.5,-92 1689.5,-73 1534.5,-73"/>
<text text-anchor="middle" x="1612" y="-80" font-family="Helvetica,sans-Serif" font-size="10.00" fill="#000000">program/platformpicaxe.cpp</text>
</a>
</g>
</g>
<!-- Node56&#45;&gt;Node58 -->
<g id="edge24" class="edge">
<title>Node56&#45;&gt;Node58</title>
<path fill="none" stroke="#191970" d="M1741.5836,-130.7993C1710.3207,-119.1468 1665.498,-102.4402 1637.6002,-92.0419"/>
<polygon fill="#191970" stroke="#191970" points="1740.6261,-134.1776 1751.2188,-134.3906 1743.0709,-127.6184 1740.6261,-134.1776"/>
</g>
<!-- Node59 -->
<g id="node21" class="node">
<title>Node59</title>
<g id="a_node21"><a xlink:href="../../d2/d07/programtab_8cpp.html" target="_top" xlink:title=" ">
<polygon fill="#ffffff" stroke="#000000" points="1708,-73 1708,-92 1846,-92 1846,-73 1708,-73"/>
<text text-anchor="middle" x="1777" y="-80" font-family="Helvetica,sans-Serif" font-size="10.00" fill="#000000">program/programtab.cpp</text>
</a>
</g>
</g>
<!-- Node56&#45;&gt;Node59 -->
<g id="edge25" class="edge">
<title>Node56&#45;&gt;Node59</title>
<path fill="none" stroke="#191970" d="M1777,-124.2462C1777,-113.5519 1777,-100.814 1777,-92.2449"/>
<polygon fill="#191970" stroke="#191970" points="1773.5001,-124.3906 1777,-134.3906 1780.5001,-124.3907 1773.5001,-124.3906"/>
</g>
<!-- Node56&#45;&gt;Node60 -->
<g id="edge26" class="edge">
<title>Node56&#45;&gt;Node60</title>
<path fill="none" stroke="#191970" d="M1840.7298,-132.6395C1906.2606,-120.9579 2007.1665,-102.9703 2068.6306,-92.0137"/>
<polygon fill="#191970" stroke="#191970" points="1839.7583,-129.2574 1830.5277,-134.4581 1840.9868,-136.1488 1839.7583,-129.2574"/>
</g>
</g>
</svg>
        <g id="navigator" transform="translate(0 0)" fill="#404254">
                <rect fill="#f2f5e9" fill-opacity="0.5" stroke="#606060" stroke-width=".5" x="0" y="0" width="60" height="60"/>
                <use id="zoomplus" xlink:href="#zoomPlus" x="17" y="9" onmousedown="handleZoom(evt,'in')"/>
                <use id="zoomminus" xlink:href="#zoomMin" x="42" y="9" onmousedown="handleZoom(evt,'out')"/>
                <use id="reset" xlink:href="#resetDef" x="30" y="36" onmousedown="handleReset()"/>
                <g id="arrowUp" xlink:href="#dirArrow" transform="translate(30 24)" onmousedown="handlePan(0,-1)">
                  <use xlink:href="#rim" fill="#404040">
                        <set attributeName="fill" to="#808080" begin="arrowUp.mouseover" end="arrowUp.mouseout"/>
                  </use>
                  <path fill="none" stroke="white" stroke-width="1.5" d="M0,-3.0v7 M-2.5,-0.5L0,-3.0L2.5,-0.5"/>
                </g>
                <g id="arrowRight" xlink:href="#dirArrow" transform="rotate(90) translate(36 -43)" onmousedown="handlePan(1,0)">
                  <use xlink:href="#rim" fill="#404040">
                        <set attributeName="fill" to="#808080" begin="arrowRight.mouseover" end="arrowRight.mouseout"/>
                  </use>
                  <path fill="none" stroke="white" stroke-width="1.5" d="M0,-3.0v7 M-2.5,-0.5L0,-3.0L2.5,-0.5"/>
                </g>
                <g id="arrowDown" xlink:href="#dirArrow" transform="rotate(180) translate(-30 -48)" onmousedown="handlePan(0,1)">
                  <use xlink:href="#rim" fill="#404040">
                        <set attributeName="fill" to="#808080" begin="arrowDown.mouseover" end="arrowDown.mouseout"/>
                  </use>
                  <path fill="none" stroke="white" stroke-width="1.5" d="M0,-3.0v7 M-2.5,-0.5L0,-3.0L2.5,-0.5"/>
                </g>
                <g id="arrowLeft" xlink:href="#dirArrow" transform="rotate(270) translate(-36 17)" onmousedown="handlePan(-1,0)">
                  <use xlink:href="#rim" fill="#404040">
                        <set attributeName="fill" to="#808080" begin="arrowLeft.mouseover" end="arrowLeft.mouseout"/>
                  </use>
                  <path fill="none" stroke="white" stroke-width="1.5" d="M0,-3.0v7 M-2.5,-0.5L0,-3.0L2.5,-0.5"/>
                </g>
        </g>
        <svg viewBox="0 0 15 15" width="100%" height="30px" preserveAspectRatio="xMaxYMin meet">
         <g id="arrow_out" transform="scale(0.3 0.3)">
          <a xlink:href="programwindow_8h__dep__incl_org.svg" target="_base">
           <rect id="button" ry="5" rx="5" y="6" x="6" height="38" width="38"
                fill="#f2f5e9" fill-opacity="0.5" stroke="#606060" stroke-width="1.0"/>
           <path id="arrow"
             d="M 11.500037,31.436501 C 11.940474,20.09759 22.043105,11.32322 32.158766,21.979434 L 37.068811,17.246167 C 37.068811,17.246167 37.088388,32 37.088388,32 L 22.160133,31.978069 C 22.160133,31.978069 26.997745,27.140456 26.997745,27.140456 C 18.528582,18.264221 13.291696,25.230495 11.500037,31.436501 z"
             style="fill:#404040;"/>
          </a>
         </g>
        </svg>
</svg>
