<?xml version="1.0" encoding="UTF-8" standalone="no"?>
<!DOCTYPE svg PUBLIC "-//W3C//DTD SVG 1.1//EN"
 "http://www.w3.org/Graphics/SVG/1.1/DTD/svg11.dtd">
<!-- Generated by graphviz version 2.40.1 (0)
 -->
<!-- Title: svg/gedaelementgrammar_p.h Pages: 1 -->
<svg width="581pt" height="140pt"
 viewBox="0.00 0.00 581.00 140.00" xmlns="http://www.w3.org/2000/svg" xmlns:xlink="http://www.w3.org/1999/xlink">
<g id="graph0" class="graph" transform="scale(1 1) rotate(0) translate(4 136)">
<title>svg/gedaelementgrammar_p.h</title>
<polygon fill="#ffffff" stroke="transparent" points="-4,4 -4,-136 577,-136 577,4 -4,4"/>
<!-- Node1 -->
<g id="node1" class="node">
<title>Node1</title>
<g id="a_node1"><a xlink:title=" ">
<polygon fill="#bfbfbf" stroke="#000000" points="243,-112.5 243,-131.5 410,-131.5 410,-112.5 243,-112.5"/>
<text text-anchor="middle" x="326.5" y="-119.5" font-family="Helvetica,sans-Serif" font-size="10.00" fill="#000000">svg/gedaelementgrammar_p.h</text>
</a>
</g>
</g>
<!-- Node2 -->
<g id="node2" class="node">
<title>Node2</title>
<g id="a_node2"><a xlink:href="../../d7/d7c/gedaelementparser_8h.html" target="_top" xlink:title=" ">
<polygon fill="#ffffff" stroke="#000000" points="85.5,-56.5 85.5,-75.5 225.5,-75.5 225.5,-56.5 85.5,-56.5"/>
<text text-anchor="middle" x="155.5" y="-63.5" font-family="Helvetica,sans-Serif" font-size="10.00" fill="#000000">svg/gedaelementparser.h</text>
</a>
</g>
</g>
<!-- Node1&#45;&gt;Node2 -->
<g id="edge1" class="edge">
<title>Node1&#45;&gt;Node2</title>
<path fill="none" stroke="#191970" d="M287.3852,-109.1905C256.0568,-98.9309 212.8129,-84.7691 184.5124,-75.5011"/>
<polygon fill="#191970" stroke="#191970" points="286.5114,-112.5872 297.1041,-112.3733 288.69,-105.9348 286.5114,-112.5872"/>
</g>
<!-- Node5 -->
<g id="node5" class="node">
<title>Node5</title>
<g id="a_node5"><a xlink:href="../../d3/d67/gedaelementgrammar_8cpp.html" target="_top" xlink:title=" ">
<polygon fill="#ffffff" stroke="#000000" points="243.5,-56.5 243.5,-75.5 409.5,-75.5 409.5,-56.5 243.5,-56.5"/>
<text text-anchor="middle" x="326.5" y="-63.5" font-family="Helvetica,sans-Serif" font-size="10.00" fill="#000000">svg/gedaelementgrammar.cpp</text>
</a>
</g>
</g>
<!-- Node1&#45;&gt;Node5 -->
<g id="edge4" class="edge">
<title>Node1&#45;&gt;Node5</title>
<path fill="none" stroke="#191970" d="M326.5,-102.1575C326.5,-93.155 326.5,-82.9199 326.5,-75.6427"/>
<polygon fill="#191970" stroke="#191970" points="323.0001,-102.2455 326.5,-112.2455 330.0001,-102.2456 323.0001,-102.2455"/>
</g>
<!-- Node6 -->
<g id="node6" class="node">
<title>Node6</title>
<g id="a_node6"><a xlink:href="../../d2/d8e/gedaelementlexer_8cpp.html" target="_top" xlink:title=" ">
<polygon fill="#ffffff" stroke="#000000" points="428,-56.5 428,-75.5 573,-75.5 573,-56.5 428,-56.5"/>
<text text-anchor="middle" x="500.5" y="-63.5" font-family="Helvetica,sans-Serif" font-size="10.00" fill="#000000">svg/gedaelementlexer.cpp</text>
</a>
</g>
</g>
<!-- Node1&#45;&gt;Node6 -->
<g id="edge5" class="edge">
<title>Node1&#45;&gt;Node6</title>
<path fill="none" stroke="#191970" d="M366.301,-109.1905C398.179,-98.9309 442.1816,-84.7691 470.9787,-75.5011"/>
<polygon fill="#191970" stroke="#191970" points="364.8585,-105.9779 356.4117,-112.3733 367.0031,-112.6413 364.8585,-105.9779"/>
</g>
<!-- Node3 -->
<g id="node3" class="node">
<title>Node3</title>
<g id="a_node3"><a xlink:href="../../d0/d4f/gedaelement2svg_8cpp.html" target="_top" xlink:title=" ">
<polygon fill="#ffffff" stroke="#000000" points="0,-.5 0,-19.5 145,-19.5 145,-.5 0,-.5"/>
<text text-anchor="middle" x="72.5" y="-7.5" font-family="Helvetica,sans-Serif" font-size="10.00" fill="#000000">svg/gedaelement2svg.cpp</text>
</a>
</g>
</g>
<!-- Node2&#45;&gt;Node3 -->
<g id="edge2" class="edge">
<title>Node2&#45;&gt;Node3</title>
<path fill="none" stroke="#191970" d="M132.512,-50.49C117.8678,-40.6096 99.3556,-28.1194 86.7918,-19.6427"/>
<polygon fill="#191970" stroke="#191970" points="130.7953,-53.5539 141.0425,-56.2455 134.7104,-47.7511 130.7953,-53.5539"/>
</g>
<!-- Node4 -->
<g id="node4" class="node">
<title>Node4</title>
<g id="a_node4"><a xlink:href="../../de/da3/gedaelementparser_8cpp.html" target="_top" xlink:title=" ">
<polygon fill="#ffffff" stroke="#000000" points="163.5,-.5 163.5,-19.5 315.5,-19.5 315.5,-.5 163.5,-.5"/>
<text text-anchor="middle" x="239.5" y="-7.5" font-family="Helvetica,sans-Serif" font-size="10.00" fill="#000000">svg/gedaelementparser.cpp</text>
</a>
</g>
</g>
<!-- Node2&#45;&gt;Node4 -->
<g id="edge3" class="edge">
<title>Node2&#45;&gt;Node4</title>
<path fill="none" stroke="#191970" d="M178.7649,-50.49C193.5856,-40.6096 212.3209,-28.1194 225.036,-19.6427"/>
<polygon fill="#191970" stroke="#191970" points="176.5107,-47.7863 170.1317,-56.2455 180.3937,-53.6107 176.5107,-47.7863"/>
</g>
</g>
</svg>
