<?xml version="1.0" encoding="UTF-8" standalone="no"?>
<!DOCTYPE svg PUBLIC "-//W3C//DTD SVG 1.1//EN"
 "http://www.w3.org/Graphics/SVG/1.1/DTD/svg11.dtd">
<!-- Generated by graphviz version 2.40.1 (0)
 -->
<!-- Title: MoveItemsCommand::redo Pages: 1 -->
<svg width="1147pt" height="458pt"
 viewBox="0.00 0.00 1147.00 457.50" xmlns="http://www.w3.org/2000/svg" xmlns:xlink="http://www.w3.org/1999/xlink">
<g id="graph0" class="graph" transform="scale(1 1) rotate(0) translate(4 453.5)">
<title>MoveItemsCommand::redo</title>
<polygon fill="#ffffff" stroke="transparent" points="-4,4 -4,-453.5 1143,-453.5 1143,4 -4,4"/>
<!-- Node22 -->
<g id="node1" class="node">
<title>Node22</title>
<g id="a_node1"><a xlink:title=" ">
<polygon fill="#bfbfbf" stroke="#000000" points="0,-133.5 0,-152.5 149,-152.5 149,-133.5 0,-133.5"/>
<text text-anchor="middle" x="74.5" y="-140.5" font-family="Helvetica,sans-Serif" font-size="10.00" fill="#000000">MoveItemsCommand::redo</text>
</a>
</g>
</g>
<!-- Node23 -->
<g id="node2" class="node">
<title>Node23</title>
<g id="a_node2"><a xlink:href="../../d8/d37/classSketchWidget.html#a54194bd27c1603bcbda93e516e60ffff" target="_top" xlink:title=" ">
<polygon fill="#ffffff" stroke="#000000" points="188,-133.5 188,-152.5 328,-152.5 328,-133.5 188,-133.5"/>
<text text-anchor="middle" x="258" y="-140.5" font-family="Helvetica,sans-Serif" font-size="10.00" fill="#000000">SketchWidget::moveItem</text>
</a>
</g>
</g>
<!-- Node22&#45;&gt;Node23 -->
<g id="edge1" class="edge">
<title>Node22&#45;&gt;Node23</title>
<path fill="none" stroke="#191970" d="M149.1365,-143C158.5365,-143 168.1849,-143 177.668,-143"/>
<polygon fill="#191970" stroke="#191970" points="177.8739,-146.5001 187.8738,-143 177.8738,-139.5001 177.8739,-146.5001"/>
</g>
<!-- Node33 -->
<g id="node12" class="node">
<title>Node33</title>
<g id="a_node12"><a xlink:href="../../d8/d6e/classBaseCommand.html#a165c99f7028014fa735ee7f0c74afeaf" target="_top" xlink:title=" ">
<polygon fill="#ffffff" stroke="#000000" points="198.5,-38.5 198.5,-57.5 317.5,-57.5 317.5,-38.5 198.5,-38.5"/>
<text text-anchor="middle" x="258" y="-45.5" font-family="Helvetica,sans-Serif" font-size="10.00" fill="#000000">BaseCommand::redo</text>
</a>
</g>
</g>
<!-- Node22&#45;&gt;Node33 -->
<g id="edge11" class="edge">
<title>Node22&#45;&gt;Node33</title>
<path fill="none" stroke="#191970" d="M93.1048,-133.3681C125.6116,-116.539 192.8798,-81.7134 230.682,-62.1428"/>
<polygon fill="#191970" stroke="#191970" points="232.3475,-65.2219 239.6188,-57.5162 229.1292,-59.0056 232.3475,-65.2219"/>
</g>
<!-- Node36 -->
<g id="node15" class="node">
<title>Node36</title>
<g id="a_node15"><a xlink:href="../../d8/d37/classSketchWidget.html#a45b2c119d4e55b5ea1ac37a127225a0b" target="_top" xlink:title=" ">
<polygon fill="#ffffff" stroke="#000000" points="185,-266.5 185,-285.5 331,-285.5 331,-266.5 185,-266.5"/>
<text text-anchor="middle" x="258" y="-273.5" font-family="Helvetica,sans-Serif" font-size="10.00" fill="#000000">SketchWidget::updateWire</text>
</a>
</g>
</g>
<!-- Node22&#45;&gt;Node36 -->
<g id="edge14" class="edge">
<title>Node22&#45;&gt;Node36</title>
<path fill="none" stroke="#191970" d="M87.6969,-152.565C118.889,-175.173 197.4308,-232.0997 235.974,-260.0356"/>
<polygon fill="#191970" stroke="#191970" points="234.2767,-263.1281 244.4276,-266.1628 238.3847,-257.4603 234.2767,-263.1281"/>
</g>
<!-- Node24 -->
<g id="node3" class="node">
<title>Node24</title>
<g id="a_node3"><a xlink:href="../../d8/d37/classSketchWidget.html#a8e2ae23ef1e4c2ad993e0c3985e5c3ba" target="_top" xlink:title=" ">
<polygon fill="#ffffff" stroke="#000000" points="599.5,-178.5 599.5,-197.5 729.5,-197.5 729.5,-178.5 599.5,-178.5"/>
<text text-anchor="middle" x="664.5" y="-185.5" font-family="Helvetica,sans-Serif" font-size="10.00" fill="#000000">SketchWidget::findItem</text>
</a>
</g>
</g>
<!-- Node23&#45;&gt;Node24 -->
<g id="edge2" class="edge">
<title>Node23&#45;&gt;Node24</title>
<path fill="none" stroke="#191970" d="M328.3428,-150.787C401.1562,-158.8476 514.4944,-171.3942 589.1145,-179.6547"/>
<polygon fill="#191970" stroke="#191970" points="589.0541,-183.1694 599.3786,-180.791 589.8244,-176.2119 589.0541,-183.1694"/>
</g>
<!-- Node28 -->
<g id="node7" class="node">
<title>Node28</title>
<g id="a_node7"><a xlink:href="../../d8/d37/classSketchWidget.html#adb4b4c023a69bdea6cc2a9afd69fe577" target="_top" xlink:title=" ">
<polygon fill="#ffffff" stroke="#000000" points="372,-190.5 372,-209.5 541,-209.5 541,-190.5 372,-190.5"/>
<text text-anchor="middle" x="456.5" y="-197.5" font-family="Helvetica,sans-Serif" font-size="10.00" fill="#000000">SketchWidget::ratsnestConnect</text>
</a>
</g>
</g>
<!-- Node23&#45;&gt;Node28 -->
<g id="edge6" class="edge">
<title>Node23&#45;&gt;Node28</title>
<path fill="none" stroke="#191970" d="M288.4626,-152.5075C310.2786,-159.2466 340.3821,-168.4039 367,-176 380.942,-179.9787 396.16,-184.1305 410.0276,-187.8405"/>
<polygon fill="#191970" stroke="#191970" points="409.2853,-191.2647 419.8492,-190.455 411.0861,-184.5003 409.2853,-191.2647"/>
</g>
<!-- Node29 -->
<g id="node8" class="node">
<title>Node29</title>
<g id="a_node8"><a xlink:href="../../d4/d4f/classItemBase.html#a5e8f5145afae45de9b0c9d7526f60407" target="_top" xlink:title=" ">
<polygon fill="#ffffff" stroke="#000000" points="397,-114.5 397,-133.5 516,-133.5 516,-114.5 397,-114.5"/>
<text text-anchor="middle" x="456.5" y="-121.5" font-family="Helvetica,sans-Serif" font-size="10.00" fill="#000000">ItemBase::moveItem</text>
</a>
</g>
</g>
<!-- Node23&#45;&gt;Node29 -->
<g id="edge7" class="edge">
<title>Node23&#45;&gt;Node29</title>
<path fill="none" stroke="#191970" d="M328.263,-136.2746C347.265,-134.4557 367.8209,-132.4882 386.7923,-130.6723"/>
<polygon fill="#191970" stroke="#191970" points="387.2284,-134.1466 396.8494,-129.7096 386.5614,-127.1785 387.2284,-134.1466"/>
</g>
<!-- Node30 -->
<g id="node9" class="node">
<title>Node30</title>
<g id="a_node9"><a xlink:href="../../db/d71/classHtmlInfoView.html#ac0543007278f2bb49ecf7fa158c27ca3" target="_top" xlink:title=" ">
<polygon fill="#ffffff" stroke="#000000" points="374.5,-76.5 374.5,-95.5 538.5,-95.5 538.5,-76.5 374.5,-76.5"/>
<text text-anchor="middle" x="456.5" y="-83.5" font-family="Helvetica,sans-Serif" font-size="10.00" fill="#000000">HtmlInfoView::updateLocation</text>
</a>
</g>
</g>
<!-- Node23&#45;&gt;Node30 -->
<g id="edge8" class="edge">
<title>Node23&#45;&gt;Node30</title>
<path fill="none" stroke="#191970" d="M282.8251,-133.3377C304.7351,-125.0534 337.6608,-113.1931 367,-105 376.311,-102.3999 386.2531,-99.9622 396.0001,-97.7567"/>
<polygon fill="#191970" stroke="#191970" points="397.0378,-101.1122 406.0523,-95.5453 395.5338,-94.2757 397.0378,-101.1122"/>
</g>
<!-- Node25 -->
<g id="node4" class="node">
<title>Node25</title>
<g id="a_node4"><a xlink:href="../../d4/d4f/classItemBase.html#a27afd199a7ae3c3fd14e88ed0be14420" target="_top" xlink:title=" ">
<polygon fill="#ffffff" stroke="#000000" points="827.5,-216.5 827.5,-235.5 905.5,-235.5 905.5,-216.5 827.5,-216.5"/>
<text text-anchor="middle" x="866.5" y="-223.5" font-family="Helvetica,sans-Serif" font-size="10.00" fill="#000000">ItemBase::id</text>
</a>
</g>
</g>
<!-- Node24&#45;&gt;Node25 -->
<g id="edge3" class="edge">
<title>Node24&#45;&gt;Node25</title>
<path fill="none" stroke="#191970" d="M715.2124,-197.54C746.3969,-203.4064 786.1684,-210.8881 817.1064,-216.7081"/>
<polygon fill="#191970" stroke="#191970" points="816.7599,-220.2043 827.2346,-218.6134 818.0541,-213.3249 816.7599,-220.2043"/>
</g>
<!-- Node26 -->
<g id="node5" class="node">
<title>Node26</title>
<g id="a_node5"><a xlink:href="../../d4/d4f/classItemBase.html#abf6d16e250a353043cd4953ddc049bd0" target="_top" xlink:title=" ">
<polygon fill="#ffffff" stroke="#000000" points="799,-291.5 799,-310.5 934,-310.5 934,-291.5 799,-291.5"/>
<text text-anchor="middle" x="866.5" y="-298.5" font-family="Helvetica,sans-Serif" font-size="10.00" fill="#000000">ItemBase::layerKinChief</text>
</a>
</g>
</g>
<!-- Node24&#45;&gt;Node26 -->
<g id="edge4" class="edge">
<title>Node24&#45;&gt;Node26</title>
<path fill="none" stroke="#191970" d="M681.7224,-197.6343C717.2025,-217.4821 798.6202,-263.0276 840.5277,-286.4709"/>
<polygon fill="#191970" stroke="#191970" points="838.8852,-289.5625 849.3212,-291.3901 842.3027,-283.4534 838.8852,-289.5625"/>
</g>
<!-- Node27 -->
<g id="node6" class="node">
<title>Node27</title>
<g id="a_node6"><a xlink:href="../../d4/d4f/classItemBase.html#acc32076e751f0e21ffb9050f275d3b87" target="_top" xlink:title=" ">
<polygon fill="#ffffff" stroke="#000000" points="811.5,-178.5 811.5,-197.5 921.5,-197.5 921.5,-178.5 811.5,-178.5"/>
<text text-anchor="middle" x="866.5" y="-185.5" font-family="Helvetica,sans-Serif" font-size="10.00" fill="#000000">ItemBase::layerKin</text>
</a>
</g>
</g>
<!-- Node24&#45;&gt;Node27 -->
<g id="edge5" class="edge">
<title>Node24&#45;&gt;Node27</title>
<path fill="none" stroke="#191970" d="M729.526,-188C752.5329,-188 778.4044,-188 801.4161,-188"/>
<polygon fill="#191970" stroke="#191970" points="801.4257,-191.5001 811.4256,-188 801.4256,-184.5001 801.4257,-191.5001"/>
</g>
<!-- Node31 -->
<g id="node10" class="node">
<title>Node31</title>
<g id="a_node10"><a xlink:href="../../db/d71/classHtmlInfoView.html#aa95a8c80ce0dc5c10ac1013ef2cd8e8f" target="_top" xlink:title=" ">
<polygon fill="#ffffff" stroke="#000000" points="592,-76.5 592,-95.5 737,-95.5 737,-76.5 592,-76.5"/>
<text text-anchor="middle" x="664.5" y="-83.5" font-family="Helvetica,sans-Serif" font-size="10.00" fill="#000000">HtmlInfoView::setLocation</text>
</a>
</g>
</g>
<!-- Node30&#45;&gt;Node31 -->
<g id="edge9" class="edge">
<title>Node30&#45;&gt;Node31</title>
<path fill="none" stroke="#191970" d="M538.7071,-86C552.8703,-86 567.5981,-86 581.7748,-86"/>
<polygon fill="#191970" stroke="#191970" points="581.9844,-89.5001 591.9844,-86 581.9844,-82.5001 581.9844,-89.5001"/>
</g>
<!-- Node32 -->
<g id="node11" class="node">
<title>Node32</title>
<g id="a_node11"><a xlink:href="../../d4/d4f/classItemBase.html#a45decb22da6b671358bc8c782cff22ea" target="_top" xlink:title=" ">
<polygon fill="#ffffff" stroke="#000000" points="807,-76.5 807,-95.5 926,-95.5 926,-76.5 807,-76.5"/>
<text text-anchor="middle" x="866.5" y="-83.5" font-family="Helvetica,sans-Serif" font-size="10.00" fill="#000000">ItemBase::moveLock</text>
</a>
</g>
</g>
<!-- Node31&#45;&gt;Node32 -->
<g id="edge10" class="edge">
<title>Node31&#45;&gt;Node32</title>
<path fill="none" stroke="#191970" d="M737.1412,-86C756.5084,-86 777.3894,-86 796.6057,-86"/>
<polygon fill="#191970" stroke="#191970" points="796.7868,-89.5001 806.7868,-86 796.7867,-82.5001 796.7868,-89.5001"/>
</g>
<!-- Node34 -->
<g id="node13" class="node">
<title>Node34</title>
<g id="a_node13"><a xlink:href="../../df/d8b/classCommandProgress.html#aebf23a39ab6caf18a3e7b3351ad4f49d" target="_top" xlink:title=" ">
<polygon fill="#ffffff" stroke="#000000" points="384,-38.5 384,-57.5 529,-57.5 529,-38.5 384,-38.5"/>
<text text-anchor="middle" x="456.5" y="-45.5" font-family="Helvetica,sans-Serif" font-size="10.00" fill="#000000">CommandProgress::active</text>
</a>
</g>
</g>
<!-- Node33&#45;&gt;Node34 -->
<g id="edge12" class="edge">
<title>Node33&#45;&gt;Node34</title>
<path fill="none" stroke="#191970" d="M317.5565,-48C335.1743,-48 354.7898,-48 373.5997,-48"/>
<polygon fill="#191970" stroke="#191970" points="373.6471,-51.5001 383.6471,-48 373.6471,-44.5001 373.6471,-51.5001"/>
</g>
<!-- Node35 -->
<g id="node14" class="node">
<title>Node35</title>
<g id="a_node14"><a xlink:href="../../df/d8b/classCommandProgress.html#af6c9106bc35e189ceb59132c1ac065b6" target="_top" xlink:title=" ">
<polygon fill="#ffffff" stroke="#000000" points="375.5,-.5 375.5,-19.5 537.5,-19.5 537.5,-.5 375.5,-.5"/>
<text text-anchor="middle" x="456.5" y="-7.5" font-family="Helvetica,sans-Serif" font-size="10.00" fill="#000000">CommandProgress::emitRedo</text>
</a>
</g>
</g>
<!-- Node33&#45;&gt;Node35 -->
<g id="edge13" class="edge">
<title>Node33&#45;&gt;Node35</title>
<path fill="none" stroke="#191970" d="M307.8337,-38.46C334.7339,-33.3104 368.1362,-26.916 396.4614,-21.4935"/>
<polygon fill="#191970" stroke="#191970" points="397.4822,-24.8618 406.6458,-19.5439 396.166,-17.9866 397.4822,-24.8618"/>
</g>
<!-- Node36&#45;&gt;Node24 -->
<g id="edge15" class="edge">
<title>Node36&#45;&gt;Node24</title>
<path fill="none" stroke="#191970" d="M311.2854,-266.4521C369.2468,-255.8341 464.5282,-237.701 546,-219 570.8035,-213.3066 598.3127,-206.1619 620.5777,-200.1668"/>
<polygon fill="#191970" stroke="#191970" points="621.6735,-203.4962 630.41,-197.5026 619.8427,-196.7399 621.6735,-203.4962"/>
</g>
<!-- Node36&#45;&gt;Node28 -->
<g id="edge25" class="edge">
<title>Node36&#45;&gt;Node28</title>
<path fill="none" stroke="#191970" d="M275.6923,-266.3158C296.9029,-255.0008 333.758,-236.2686 367,-224 379.0277,-219.5609 392.2405,-215.5598 404.7349,-212.1541"/>
<polygon fill="#191970" stroke="#191970" points="405.7925,-215.4948 414.5647,-209.5535 404.0021,-208.7276 405.7925,-215.4948"/>
</g>
<!-- Node37 -->
<g id="node16" class="node">
<title>Node37</title>
<g id="a_node16"><a xlink:href="../../d8/d37/classSketchWidget.html#a7e77fed848246505a83b553ed650c403" target="_top" xlink:title=" ">
<polygon fill="#ffffff" stroke="#000000" points="367,-304.5 367,-323.5 546,-323.5 546,-304.5 367,-304.5"/>
<text text-anchor="middle" x="456.5" y="-311.5" font-family="Helvetica,sans-Serif" font-size="10.00" fill="#000000">SketchWidget::findConnectorItem</text>
</a>
</g>
</g>
<!-- Node36&#45;&gt;Node37 -->
<g id="edge16" class="edge">
<title>Node36&#45;&gt;Node37</title>
<path fill="none" stroke="#191970" d="M307.8337,-285.54C334.7339,-290.6896 368.1362,-297.084 396.4614,-302.5065"/>
<polygon fill="#191970" stroke="#191970" points="396.166,-306.0134 406.6458,-304.4561 397.4822,-299.1382 396.166,-306.0134"/>
</g>
<!-- Node40 -->
<g id="node19" class="node">
<title>Node40</title>
<g id="a_node19"><a xlink:href="../../d5/d9d/classViewLayer.html#a44b443b6ce5756595b7faaaac510c6ef" target="_top" xlink:title=" ">
<polygon fill="#ffffff" stroke="#000000" points="391,-361.5 391,-380.5 522,-380.5 522,-361.5 391,-361.5"/>
<text text-anchor="middle" x="456.5" y="-368.5" font-family="Helvetica,sans-Serif" font-size="10.00" fill="#000000">ViewLayer::specFromID</text>
</a>
</g>
</g>
<!-- Node36&#45;&gt;Node40 -->
<g id="edge22" class="edge">
<title>Node36&#45;&gt;Node40</title>
<path fill="none" stroke="#191970" d="M275.1518,-285.5164C296.4437,-297.2022 333.9874,-317.3908 367,-333 385.2426,-341.6256 405.9632,-350.4813 422.87,-357.4715"/>
<polygon fill="#191970" stroke="#191970" points="421.756,-360.7976 432.3361,-361.3559 424.4134,-354.3216 421.756,-360.7976"/>
</g>
<!-- Node42 -->
<g id="node21" class="node">
<title>Node42</title>
<g id="a_node21"><a xlink:href="../../d4/d4f/classItemBase.html#a8f16baa26ee92ac6cd8dda5c69d759d4" target="_top" xlink:title=" ">
<polygon fill="#ffffff" stroke="#000000" points="391.5,-266.5 391.5,-285.5 521.5,-285.5 521.5,-266.5 391.5,-266.5"/>
<text text-anchor="middle" x="456.5" y="-273.5" font-family="Helvetica,sans-Serif" font-size="10.00" fill="#000000">ItemBase::viewLayerID</text>
</a>
</g>
</g>
<!-- Node36&#45;&gt;Node42 -->
<g id="edge24" class="edge">
<title>Node36&#45;&gt;Node42</title>
<path fill="none" stroke="#191970" d="M331.0684,-276C347.4549,-276 364.8669,-276 381.337,-276"/>
<polygon fill="#191970" stroke="#191970" points="381.4527,-279.5001 391.4527,-276 381.4526,-272.5001 381.4527,-279.5001"/>
</g>
<!-- Node43 -->
<g id="node22" class="node">
<title>Node43</title>
<g id="a_node22"><a xlink:href="../../d7/d64/classWire.html#a6e5b7e05c903fc03a6992672dc3c5d88" target="_top" xlink:title=" ">
<polygon fill="#ffffff" stroke="#000000" points="375,-412.5 375,-431.5 538,-431.5 538,-412.5 375,-412.5"/>
<text text-anchor="middle" x="456.5" y="-419.5" font-family="Helvetica,sans-Serif" font-size="10.00" fill="#000000">Wire::simpleConnectedMoved</text>
</a>
</g>
</g>
<!-- Node36&#45;&gt;Node43 -->
<g id="edge26" class="edge">
<title>Node36&#45;&gt;Node43</title>
<path fill="none" stroke="#191970" d="M264.7705,-285.6992C280.3725,-307.3777 321.0591,-360.1892 367,-390 379.3642,-398.0231 393.9959,-404.3431 407.8076,-409.1718"/>
<polygon fill="#191970" stroke="#191970" points="407.0825,-412.618 417.6756,-412.4272 409.2756,-405.9704 407.0825,-412.618"/>
</g>
<!-- Node37&#45;&gt;Node24 -->
<g id="edge17" class="edge">
<title>Node37&#45;&gt;Node24</title>
<path fill="none" stroke="#191970" d="M530.5033,-304.4432C536.0692,-301.9256 541.3269,-298.8206 546,-295 577.1295,-269.5492 551.8321,-238.5836 582,-212 586.7005,-207.858 592.0792,-204.4291 597.7871,-201.5908"/>
<polygon fill="#191970" stroke="#191970" points="599.1996,-204.7933 606.9775,-197.5992 596.4109,-198.3727 599.1996,-204.7933"/>
</g>
<!-- Node37&#45;&gt;Node25 -->
<g id="edge20" class="edge">
<title>Node37&#45;&gt;Node25</title>
<path fill="none" stroke="#191970" d="M526.4363,-304.4549C533.3346,-301.977 539.9944,-298.8764 546,-295 568.7047,-280.3451 558.3324,-259.0428 582,-246 655.9938,-205.2234 757.7395,-209.9186 817.3712,-217.5849"/>
<polygon fill="#191970" stroke="#191970" points="816.9029,-221.0533 827.2842,-218.937 817.849,-214.1175 816.9029,-221.0533"/>
</g>
<!-- Node37&#45;&gt;Node26 -->
<g id="edge19" class="edge">
<title>Node37&#45;&gt;Node26</title>
<path fill="none" stroke="#191970" d="M546.2228,-311.1551C618.6282,-308.8594 719.4602,-305.6622 788.533,-303.4721"/>
<polygon fill="#191970" stroke="#191970" points="789.0272,-306.9583 798.9113,-303.1431 788.8053,-299.9618 789.0272,-306.9583"/>
</g>
<!-- Node38 -->
<g id="node17" class="node">
<title>Node38</title>
<g id="a_node17"><a xlink:href="../../dc/d09/classNonConnectorItem.html#a1452f3637c83b50fbd089f9c4b4518b6" target="_top" xlink:title=" ">
<polygon fill="#ffffff" stroke="#000000" points="783,-354.5 783,-373.5 950,-373.5 950,-354.5 783,-354.5"/>
<text text-anchor="middle" x="866.5" y="-361.5" font-family="Helvetica,sans-Serif" font-size="10.00" fill="#000000">NonConnectorItem::attachedTo</text>
</a>
</g>
</g>
<!-- Node37&#45;&gt;Node38 -->
<g id="edge18" class="edge">
<title>Node37&#45;&gt;Node38</title>
<path fill="none" stroke="#191970" d="M534.5829,-323.5223C604.1493,-332.006 705.8632,-344.4101 778.334,-353.248"/>
<polygon fill="#191970" stroke="#191970" points="778.0093,-356.7343 788.3595,-354.4707 778.8567,-349.7858 778.0093,-356.7343"/>
</g>
<!-- Node39 -->
<g id="node18" class="node">
<title>Node39</title>
<g id="a_node18"><a xlink:href="../../dc/d3a/classConnectorItem.html#aa22ed310cdf87c914bfad84ce759d66b" target="_top" xlink:title=" ">
<polygon fill="#ffffff" stroke="#000000" points="593,-255 593,-285 736,-285 736,-255 593,-255"/>
<text text-anchor="start" x="601" y="-273" font-family="Helvetica,sans-Serif" font-size="10.00" fill="#000000">ConnectorItem::connector</text>
<text text-anchor="middle" x="664.5" y="-262" font-family="Helvetica,sans-Serif" font-size="10.00" fill="#000000">SharedID</text>
</a>
</g>
</g>
<!-- Node37&#45;&gt;Node39 -->
<g id="edge21" class="edge">
<title>Node37&#45;&gt;Node39</title>
<path fill="none" stroke="#191970" d="M501.6329,-304.4527C525.4694,-299.4103 555.4577,-293.0666 583.1846,-287.2013"/>
<polygon fill="#191970" stroke="#191970" points="584.2228,-290.5593 593.2819,-285.0654 582.774,-283.7108 584.2228,-290.5593"/>
</g>
<!-- Node41 -->
<g id="node20" class="node">
<title>Node41</title>
<g id="a_node20"><a xlink:href="../../d5/d9d/classViewLayer.html#acda6179880454250f27ee4ed167b6983" target="_top" xlink:title=" ">
<polygon fill="#ffffff" stroke="#000000" points="597.5,-380.5 597.5,-399.5 731.5,-399.5 731.5,-380.5 597.5,-380.5"/>
<text text-anchor="middle" x="664.5" y="-387.5" font-family="Helvetica,sans-Serif" font-size="10.00" fill="#000000">ViewLayer::viewLayerID</text>
</a>
</g>
</g>
<!-- Node40&#45;&gt;Node41 -->
<g id="edge23" class="edge">
<title>Node40&#45;&gt;Node41</title>
<path fill="none" stroke="#191970" d="M522.027,-376.9856C542.6897,-378.8731 565.711,-380.976 587.1189,-382.9315"/>
<polygon fill="#191970" stroke="#191970" points="586.876,-386.4238 597.153,-383.8481 587.5128,-379.4529 586.876,-386.4238"/>
</g>
<!-- Node44 -->
<g id="node23" class="node">
<title>Node44</title>
<g id="a_node23"><a xlink:href="../../dc/d3a/classConnectorItem.html#a018307285a957aee5ac0042d18a2ad87" target="_top" xlink:title=" ">
<polygon fill="#ffffff" stroke="#000000" points="582,-419 582,-449 747,-449 747,-419 582,-419"/>
<text text-anchor="start" x="590" y="-437" font-family="Helvetica,sans-Serif" font-size="10.00" fill="#000000">ConnectorItem::firstConnected</text>
<text text-anchor="middle" x="664.5" y="-426" font-family="Helvetica,sans-Serif" font-size="10.00" fill="#000000">ToIsh</text>
</a>
</g>
</g>
<!-- Node43&#45;&gt;Node44 -->
<g id="edge27" class="edge">
<title>Node43&#45;&gt;Node44</title>
<path fill="none" stroke="#191970" d="M538.1101,-426.7083C549.0895,-427.3417 560.4185,-427.9953 571.5754,-428.639"/>
<polygon fill="#191970" stroke="#191970" points="571.5733,-432.1446 581.7583,-429.2264 571.9765,-425.1562 571.5733,-432.1446"/>
</g>
<!-- Node44&#45;&gt;Node38 -->
<g id="edge28" class="edge">
<title>Node44&#45;&gt;Node38</title>
<path fill="none" stroke="#191970" d="M716.1574,-418.9175C726.4159,-415.7617 737.0795,-412.3669 747,-409 776.2061,-399.0878 808.9614,-386.6588 832.7825,-377.376"/>
<polygon fill="#191970" stroke="#191970" points="834.3727,-380.5121 842.4081,-373.6068 831.8203,-373.994 834.3727,-380.5121"/>
</g>
<!-- Node45 -->
<g id="node24" class="node">
<title>Node45</title>
<g id="a_node24"><a xlink:href="../../d4/d4f/classItemBase.html#a7565ba05974fedf75bb75923b18bca1a" target="_top" xlink:title=" ">
<polygon fill="#ffffff" stroke="#000000" points="802.5,-424.5 802.5,-443.5 930.5,-443.5 930.5,-424.5 802.5,-424.5"/>
<text text-anchor="middle" x="866.5" y="-431.5" font-family="Helvetica,sans-Serif" font-size="10.00" fill="#000000">ItemBase::getRatsnest</text>
</a>
</g>
</g>
<!-- Node44&#45;&gt;Node45 -->
<g id="edge29" class="edge">
<title>Node44&#45;&gt;Node45</title>
<path fill="none" stroke="#191970" d="M747.244,-434C762.2049,-434 777.7186,-434 792.4125,-434"/>
<polygon fill="#191970" stroke="#191970" points="792.4375,-437.5001 802.4374,-434 792.4374,-430.5001 792.4375,-437.5001"/>
</g>
<!-- Node46 -->
<g id="node25" class="node">
<title>Node46</title>
<g id="a_node25"><a xlink:href="../../d3/de8/classViewGeometry.html#a11ca759a75de95be900ac023617a1858" target="_top" xlink:title=" ">
<polygon fill="#ffffff" stroke="#000000" points="986,-424.5 986,-443.5 1139,-443.5 1139,-424.5 986,-424.5"/>
<text text-anchor="middle" x="1062.5" y="-431.5" font-family="Helvetica,sans-Serif" font-size="10.00" fill="#000000">ViewGeometry::getRatsnest</text>
</a>
</g>
</g>
<!-- Node45&#45;&gt;Node46 -->
<g id="edge30" class="edge">
<title>Node45&#45;&gt;Node46</title>
<path fill="none" stroke="#191970" d="M930.6777,-434C945.0101,-434 960.4425,-434 975.5223,-434"/>
<polygon fill="#191970" stroke="#191970" points="975.888,-437.5001 985.888,-434 975.8879,-430.5001 975.888,-437.5001"/>
</g>
</g>
</svg>
