<?xml version="1.0" encoding="UTF-8" standalone="no"?>
<!DOCTYPE svg PUBLIC "-//W3C//DTD SVG 1.1//EN"
 "http://www.w3.org/Graphics/SVG/1.1/DTD/svg11.dtd">
<!-- Generated by graphviz version 2.40.1 (0)
 -->
<!-- Title: MoveItemsCommand::undo Pages: 1 -->
<svg width="1150pt" height="458pt"
 viewBox="0.00 0.00 1150.00 457.50" xmlns="http://www.w3.org/2000/svg" xmlns:xlink="http://www.w3.org/1999/xlink">
<g id="graph0" class="graph" transform="scale(1 1) rotate(0) translate(4 453.5)">
<title>MoveItemsCommand::undo</title>
<polygon fill="#ffffff" stroke="transparent" points="-4,4 -4,-453.5 1146,-453.5 1146,4 -4,4"/>
<!-- Node48 -->
<g id="node1" class="node">
<title>Node48</title>
<g id="a_node1"><a xlink:title=" ">
<polygon fill="#bfbfbf" stroke="#000000" points="0,-133.5 0,-152.5 152,-152.5 152,-133.5 0,-133.5"/>
<text text-anchor="middle" x="76" y="-140.5" font-family="Helvetica,sans-Serif" font-size="10.00" fill="#000000">MoveItemsCommand::undo</text>
</a>
</g>
</g>
<!-- Node49 -->
<g id="node2" class="node">
<title>Node49</title>
<g id="a_node2"><a xlink:href="../../d8/d37/classSketchWidget.html#a54194bd27c1603bcbda93e516e60ffff" target="_top" xlink:title=" ">
<polygon fill="#ffffff" stroke="#000000" points="191,-133.5 191,-152.5 331,-152.5 331,-133.5 191,-133.5"/>
<text text-anchor="middle" x="261" y="-140.5" font-family="Helvetica,sans-Serif" font-size="10.00" fill="#000000">SketchWidget::moveItem</text>
</a>
</g>
</g>
<!-- Node48&#45;&gt;Node49 -->
<g id="edge1" class="edge">
<title>Node48&#45;&gt;Node49</title>
<path fill="none" stroke="#191970" d="M152.0475,-143C161.4886,-143 171.166,-143 180.6691,-143"/>
<polygon fill="#191970" stroke="#191970" points="180.8931,-146.5001 190.893,-143 180.893,-139.5001 180.8931,-146.5001"/>
</g>
<!-- Node59 -->
<g id="node12" class="node">
<title>Node59</title>
<g id="a_node12"><a xlink:href="../../d8/d6e/classBaseCommand.html#ac2747a4ea6258544b1721c742dc3d4db" target="_top" xlink:title=" ">
<polygon fill="#ffffff" stroke="#000000" points="200.5,-38.5 200.5,-57.5 321.5,-57.5 321.5,-38.5 200.5,-38.5"/>
<text text-anchor="middle" x="261" y="-45.5" font-family="Helvetica,sans-Serif" font-size="10.00" fill="#000000">BaseCommand::undo</text>
</a>
</g>
</g>
<!-- Node48&#45;&gt;Node59 -->
<g id="edge11" class="edge">
<title>Node48&#45;&gt;Node59</title>
<path fill="none" stroke="#191970" d="M94.7569,-133.3681C127.5294,-116.539 195.3475,-81.7134 233.4587,-62.1428"/>
<polygon fill="#191970" stroke="#191970" points="235.1717,-65.1977 242.4685,-57.5162 231.974,-58.9708 235.1717,-65.1977"/>
</g>
<!-- Node62 -->
<g id="node15" class="node">
<title>Node62</title>
<g id="a_node15"><a xlink:href="../../d8/d37/classSketchWidget.html#a45b2c119d4e55b5ea1ac37a127225a0b" target="_top" xlink:title=" ">
<polygon fill="#ffffff" stroke="#000000" points="188,-266.5 188,-285.5 334,-285.5 334,-266.5 188,-266.5"/>
<text text-anchor="middle" x="261" y="-273.5" font-family="Helvetica,sans-Serif" font-size="10.00" fill="#000000">SketchWidget::updateWire</text>
</a>
</g>
</g>
<!-- Node48&#45;&gt;Node62 -->
<g id="edge14" class="edge">
<title>Node48&#45;&gt;Node62</title>
<path fill="none" stroke="#191970" d="M89.3047,-152.565C120.7519,-175.173 199.9357,-232.0997 238.7939,-260.0356"/>
<polygon fill="#191970" stroke="#191970" points="237.1541,-263.1673 247.3167,-266.1628 241.2402,-257.4837 237.1541,-263.1673"/>
</g>
<!-- Node50 -->
<g id="node3" class="node">
<title>Node50</title>
<g id="a_node3"><a xlink:href="../../d8/d37/classSketchWidget.html#a8e2ae23ef1e4c2ad993e0c3985e5c3ba" target="_top" xlink:title=" ">
<polygon fill="#ffffff" stroke="#000000" points="602.5,-178.5 602.5,-197.5 732.5,-197.5 732.5,-178.5 602.5,-178.5"/>
<text text-anchor="middle" x="667.5" y="-185.5" font-family="Helvetica,sans-Serif" font-size="10.00" fill="#000000">SketchWidget::findItem</text>
</a>
</g>
</g>
<!-- Node49&#45;&gt;Node50 -->
<g id="edge2" class="edge">
<title>Node49&#45;&gt;Node50</title>
<path fill="none" stroke="#191970" d="M331.3428,-150.787C404.1562,-158.8476 517.4944,-171.3942 592.1145,-179.6547"/>
<polygon fill="#191970" stroke="#191970" points="592.0541,-183.1694 602.3786,-180.791 592.8244,-176.2119 592.0541,-183.1694"/>
</g>
<!-- Node54 -->
<g id="node7" class="node">
<title>Node54</title>
<g id="a_node7"><a xlink:href="../../d8/d37/classSketchWidget.html#adb4b4c023a69bdea6cc2a9afd69fe577" target="_top" xlink:title=" ">
<polygon fill="#ffffff" stroke="#000000" points="375,-190.5 375,-209.5 544,-209.5 544,-190.5 375,-190.5"/>
<text text-anchor="middle" x="459.5" y="-197.5" font-family="Helvetica,sans-Serif" font-size="10.00" fill="#000000">SketchWidget::ratsnestConnect</text>
</a>
</g>
</g>
<!-- Node49&#45;&gt;Node54 -->
<g id="edge6" class="edge">
<title>Node49&#45;&gt;Node54</title>
<path fill="none" stroke="#191970" d="M291.4626,-152.5075C313.2786,-159.2466 343.3821,-168.4039 370,-176 383.942,-179.9787 399.16,-184.1305 413.0276,-187.8405"/>
<polygon fill="#191970" stroke="#191970" points="412.2853,-191.2647 422.8492,-190.455 414.0861,-184.5003 412.2853,-191.2647"/>
</g>
<!-- Node55 -->
<g id="node8" class="node">
<title>Node55</title>
<g id="a_node8"><a xlink:href="../../d4/d4f/classItemBase.html#a5e8f5145afae45de9b0c9d7526f60407" target="_top" xlink:title=" ">
<polygon fill="#ffffff" stroke="#000000" points="400,-114.5 400,-133.5 519,-133.5 519,-114.5 400,-114.5"/>
<text text-anchor="middle" x="459.5" y="-121.5" font-family="Helvetica,sans-Serif" font-size="10.00" fill="#000000">ItemBase::moveItem</text>
</a>
</g>
</g>
<!-- Node49&#45;&gt;Node55 -->
<g id="edge7" class="edge">
<title>Node49&#45;&gt;Node55</title>
<path fill="none" stroke="#191970" d="M331.263,-136.2746C350.265,-134.4557 370.8209,-132.4882 389.7923,-130.6723"/>
<polygon fill="#191970" stroke="#191970" points="390.2284,-134.1466 399.8494,-129.7096 389.5614,-127.1785 390.2284,-134.1466"/>
</g>
<!-- Node56 -->
<g id="node9" class="node">
<title>Node56</title>
<g id="a_node9"><a xlink:href="../../db/d71/classHtmlInfoView.html#ac0543007278f2bb49ecf7fa158c27ca3" target="_top" xlink:title=" ">
<polygon fill="#ffffff" stroke="#000000" points="377.5,-76.5 377.5,-95.5 541.5,-95.5 541.5,-76.5 377.5,-76.5"/>
<text text-anchor="middle" x="459.5" y="-83.5" font-family="Helvetica,sans-Serif" font-size="10.00" fill="#000000">HtmlInfoView::updateLocation</text>
</a>
</g>
</g>
<!-- Node49&#45;&gt;Node56 -->
<g id="edge8" class="edge">
<title>Node49&#45;&gt;Node56</title>
<path fill="none" stroke="#191970" d="M285.8251,-133.3377C307.7351,-125.0534 340.6608,-113.1931 370,-105 379.311,-102.3999 389.2531,-99.9622 399.0001,-97.7567"/>
<polygon fill="#191970" stroke="#191970" points="400.0378,-101.1122 409.0523,-95.5453 398.5338,-94.2757 400.0378,-101.1122"/>
</g>
<!-- Node51 -->
<g id="node4" class="node">
<title>Node51</title>
<g id="a_node4"><a xlink:href="../../d4/d4f/classItemBase.html#a27afd199a7ae3c3fd14e88ed0be14420" target="_top" xlink:title=" ">
<polygon fill="#ffffff" stroke="#000000" points="830.5,-216.5 830.5,-235.5 908.5,-235.5 908.5,-216.5 830.5,-216.5"/>
<text text-anchor="middle" x="869.5" y="-223.5" font-family="Helvetica,sans-Serif" font-size="10.00" fill="#000000">ItemBase::id</text>
</a>
</g>
</g>
<!-- Node50&#45;&gt;Node51 -->
<g id="edge3" class="edge">
<title>Node50&#45;&gt;Node51</title>
<path fill="none" stroke="#191970" d="M718.2124,-197.54C749.3969,-203.4064 789.1684,-210.8881 820.1064,-216.7081"/>
<polygon fill="#191970" stroke="#191970" points="819.7599,-220.2043 830.2346,-218.6134 821.0541,-213.3249 819.7599,-220.2043"/>
</g>
<!-- Node52 -->
<g id="node5" class="node">
<title>Node52</title>
<g id="a_node5"><a xlink:href="../../d4/d4f/classItemBase.html#abf6d16e250a353043cd4953ddc049bd0" target="_top" xlink:title=" ">
<polygon fill="#ffffff" stroke="#000000" points="802,-291.5 802,-310.5 937,-310.5 937,-291.5 802,-291.5"/>
<text text-anchor="middle" x="869.5" y="-298.5" font-family="Helvetica,sans-Serif" font-size="10.00" fill="#000000">ItemBase::layerKinChief</text>
</a>
</g>
</g>
<!-- Node50&#45;&gt;Node52 -->
<g id="edge4" class="edge">
<title>Node50&#45;&gt;Node52</title>
<path fill="none" stroke="#191970" d="M684.7224,-197.6343C720.2025,-217.4821 801.6202,-263.0276 843.5277,-286.4709"/>
<polygon fill="#191970" stroke="#191970" points="841.8852,-289.5625 852.3212,-291.3901 845.3027,-283.4534 841.8852,-289.5625"/>
</g>
<!-- Node53 -->
<g id="node6" class="node">
<title>Node53</title>
<g id="a_node6"><a xlink:href="../../d4/d4f/classItemBase.html#acc32076e751f0e21ffb9050f275d3b87" target="_top" xlink:title=" ">
<polygon fill="#ffffff" stroke="#000000" points="814.5,-178.5 814.5,-197.5 924.5,-197.5 924.5,-178.5 814.5,-178.5"/>
<text text-anchor="middle" x="869.5" y="-185.5" font-family="Helvetica,sans-Serif" font-size="10.00" fill="#000000">ItemBase::layerKin</text>
</a>
</g>
</g>
<!-- Node50&#45;&gt;Node53 -->
<g id="edge5" class="edge">
<title>Node50&#45;&gt;Node53</title>
<path fill="none" stroke="#191970" d="M732.526,-188C755.5329,-188 781.4044,-188 804.4161,-188"/>
<polygon fill="#191970" stroke="#191970" points="804.4257,-191.5001 814.4256,-188 804.4256,-184.5001 804.4257,-191.5001"/>
</g>
<!-- Node57 -->
<g id="node10" class="node">
<title>Node57</title>
<g id="a_node10"><a xlink:href="../../db/d71/classHtmlInfoView.html#aa95a8c80ce0dc5c10ac1013ef2cd8e8f" target="_top" xlink:title=" ">
<polygon fill="#ffffff" stroke="#000000" points="595,-76.5 595,-95.5 740,-95.5 740,-76.5 595,-76.5"/>
<text text-anchor="middle" x="667.5" y="-83.5" font-family="Helvetica,sans-Serif" font-size="10.00" fill="#000000">HtmlInfoView::setLocation</text>
</a>
</g>
</g>
<!-- Node56&#45;&gt;Node57 -->
<g id="edge9" class="edge">
<title>Node56&#45;&gt;Node57</title>
<path fill="none" stroke="#191970" d="M541.7071,-86C555.8703,-86 570.5981,-86 584.7748,-86"/>
<polygon fill="#191970" stroke="#191970" points="584.9844,-89.5001 594.9844,-86 584.9844,-82.5001 584.9844,-89.5001"/>
</g>
<!-- Node58 -->
<g id="node11" class="node">
<title>Node58</title>
<g id="a_node11"><a xlink:href="../../d4/d4f/classItemBase.html#a45decb22da6b671358bc8c782cff22ea" target="_top" xlink:title=" ">
<polygon fill="#ffffff" stroke="#000000" points="810,-76.5 810,-95.5 929,-95.5 929,-76.5 810,-76.5"/>
<text text-anchor="middle" x="869.5" y="-83.5" font-family="Helvetica,sans-Serif" font-size="10.00" fill="#000000">ItemBase::moveLock</text>
</a>
</g>
</g>
<!-- Node57&#45;&gt;Node58 -->
<g id="edge10" class="edge">
<title>Node57&#45;&gt;Node58</title>
<path fill="none" stroke="#191970" d="M740.1412,-86C759.5084,-86 780.3894,-86 799.6057,-86"/>
<polygon fill="#191970" stroke="#191970" points="799.7868,-89.5001 809.7868,-86 799.7867,-82.5001 799.7868,-89.5001"/>
</g>
<!-- Node60 -->
<g id="node13" class="node">
<title>Node60</title>
<g id="a_node13"><a xlink:href="../../df/d8b/classCommandProgress.html#aebf23a39ab6caf18a3e7b3351ad4f49d" target="_top" xlink:title=" ">
<polygon fill="#ffffff" stroke="#000000" points="387,-38.5 387,-57.5 532,-57.5 532,-38.5 387,-38.5"/>
<text text-anchor="middle" x="459.5" y="-45.5" font-family="Helvetica,sans-Serif" font-size="10.00" fill="#000000">CommandProgress::active</text>
</a>
</g>
</g>
<!-- Node59&#45;&gt;Node60 -->
<g id="edge12" class="edge">
<title>Node59&#45;&gt;Node60</title>
<path fill="none" stroke="#191970" d="M321.6351,-48C338.951,-48 358.1248,-48 376.5306,-48"/>
<polygon fill="#191970" stroke="#191970" points="376.6603,-51.5001 386.6603,-48 376.6603,-44.5001 376.6603,-51.5001"/>
</g>
<!-- Node61 -->
<g id="node14" class="node">
<title>Node61</title>
<g id="a_node14"><a xlink:href="../../df/d8b/classCommandProgress.html#aaed608918684247a483fd5466be7b551" target="_top" xlink:title=" ">
<polygon fill="#ffffff" stroke="#000000" points="378,-.5 378,-19.5 541,-19.5 541,-.5 378,-.5"/>
<text text-anchor="middle" x="459.5" y="-7.5" font-family="Helvetica,sans-Serif" font-size="10.00" fill="#000000">CommandProgress::emitUndo</text>
</a>
</g>
</g>
<!-- Node59&#45;&gt;Node61 -->
<g id="edge13" class="edge">
<title>Node59&#45;&gt;Node61</title>
<path fill="none" stroke="#191970" d="M310.8337,-38.46C337.7339,-33.3104 371.1362,-26.916 399.4614,-21.4935"/>
<polygon fill="#191970" stroke="#191970" points="400.4822,-24.8618 409.6458,-19.5439 399.166,-17.9866 400.4822,-24.8618"/>
</g>
<!-- Node62&#45;&gt;Node50 -->
<g id="edge15" class="edge">
<title>Node62&#45;&gt;Node50</title>
<path fill="none" stroke="#191970" d="M314.2854,-266.4521C372.2468,-255.8341 467.5282,-237.701 549,-219 573.8035,-213.3066 601.3127,-206.1619 623.5777,-200.1668"/>
<polygon fill="#191970" stroke="#191970" points="624.6735,-203.4962 633.41,-197.5026 622.8427,-196.7399 624.6735,-203.4962"/>
</g>
<!-- Node62&#45;&gt;Node54 -->
<g id="edge25" class="edge">
<title>Node62&#45;&gt;Node54</title>
<path fill="none" stroke="#191970" d="M278.6923,-266.3158C299.9029,-255.0008 336.758,-236.2686 370,-224 382.0277,-219.5609 395.2405,-215.5598 407.7349,-212.1541"/>
<polygon fill="#191970" stroke="#191970" points="408.7925,-215.4948 417.5647,-209.5535 407.0021,-208.7276 408.7925,-215.4948"/>
</g>
<!-- Node63 -->
<g id="node16" class="node">
<title>Node63</title>
<g id="a_node16"><a xlink:href="../../d8/d37/classSketchWidget.html#a7e77fed848246505a83b553ed650c403" target="_top" xlink:title=" ">
<polygon fill="#ffffff" stroke="#000000" points="370,-304.5 370,-323.5 549,-323.5 549,-304.5 370,-304.5"/>
<text text-anchor="middle" x="459.5" y="-311.5" font-family="Helvetica,sans-Serif" font-size="10.00" fill="#000000">SketchWidget::findConnectorItem</text>
</a>
</g>
</g>
<!-- Node62&#45;&gt;Node63 -->
<g id="edge16" class="edge">
<title>Node62&#45;&gt;Node63</title>
<path fill="none" stroke="#191970" d="M310.8337,-285.54C337.7339,-290.6896 371.1362,-297.084 399.4614,-302.5065"/>
<polygon fill="#191970" stroke="#191970" points="399.166,-306.0134 409.6458,-304.4561 400.4822,-299.1382 399.166,-306.0134"/>
</g>
<!-- Node66 -->
<g id="node19" class="node">
<title>Node66</title>
<g id="a_node19"><a xlink:href="../../d5/d9d/classViewLayer.html#a44b443b6ce5756595b7faaaac510c6ef" target="_top" xlink:title=" ">
<polygon fill="#ffffff" stroke="#000000" points="394,-361.5 394,-380.5 525,-380.5 525,-361.5 394,-361.5"/>
<text text-anchor="middle" x="459.5" y="-368.5" font-family="Helvetica,sans-Serif" font-size="10.00" fill="#000000">ViewLayer::specFromID</text>
</a>
</g>
</g>
<!-- Node62&#45;&gt;Node66 -->
<g id="edge22" class="edge">
<title>Node62&#45;&gt;Node66</title>
<path fill="none" stroke="#191970" d="M278.1518,-285.5164C299.4437,-297.2022 336.9874,-317.3908 370,-333 388.2426,-341.6256 408.9632,-350.4813 425.87,-357.4715"/>
<polygon fill="#191970" stroke="#191970" points="424.756,-360.7976 435.3361,-361.3559 427.4134,-354.3216 424.756,-360.7976"/>
</g>
<!-- Node68 -->
<g id="node21" class="node">
<title>Node68</title>
<g id="a_node21"><a xlink:href="../../d4/d4f/classItemBase.html#a8f16baa26ee92ac6cd8dda5c69d759d4" target="_top" xlink:title=" ">
<polygon fill="#ffffff" stroke="#000000" points="394.5,-266.5 394.5,-285.5 524.5,-285.5 524.5,-266.5 394.5,-266.5"/>
<text text-anchor="middle" x="459.5" y="-273.5" font-family="Helvetica,sans-Serif" font-size="10.00" fill="#000000">ItemBase::viewLayerID</text>
</a>
</g>
</g>
<!-- Node62&#45;&gt;Node68 -->
<g id="edge24" class="edge">
<title>Node62&#45;&gt;Node68</title>
<path fill="none" stroke="#191970" d="M334.0684,-276C350.4549,-276 367.8669,-276 384.337,-276"/>
<polygon fill="#191970" stroke="#191970" points="384.4527,-279.5001 394.4527,-276 384.4526,-272.5001 384.4527,-279.5001"/>
</g>
<!-- Node69 -->
<g id="node22" class="node">
<title>Node69</title>
<g id="a_node22"><a xlink:href="../../d7/d64/classWire.html#a6e5b7e05c903fc03a6992672dc3c5d88" target="_top" xlink:title=" ">
<polygon fill="#ffffff" stroke="#000000" points="378,-412.5 378,-431.5 541,-431.5 541,-412.5 378,-412.5"/>
<text text-anchor="middle" x="459.5" y="-419.5" font-family="Helvetica,sans-Serif" font-size="10.00" fill="#000000">Wire::simpleConnectedMoved</text>
</a>
</g>
</g>
<!-- Node62&#45;&gt;Node69 -->
<g id="edge26" class="edge">
<title>Node62&#45;&gt;Node69</title>
<path fill="none" stroke="#191970" d="M267.7705,-285.6992C283.3725,-307.3777 324.0591,-360.1892 370,-390 382.3642,-398.0231 396.9959,-404.3431 410.8076,-409.1718"/>
<polygon fill="#191970" stroke="#191970" points="410.0825,-412.618 420.6756,-412.4272 412.2756,-405.9704 410.0825,-412.618"/>
</g>
<!-- Node63&#45;&gt;Node50 -->
<g id="edge17" class="edge">
<title>Node63&#45;&gt;Node50</title>
<path fill="none" stroke="#191970" d="M533.5033,-304.4432C539.0692,-301.9256 544.3269,-298.8206 549,-295 580.1295,-269.5492 554.8321,-238.5836 585,-212 589.7005,-207.858 595.0792,-204.4291 600.7871,-201.5908"/>
<polygon fill="#191970" stroke="#191970" points="602.1996,-204.7933 609.9775,-197.5992 599.4109,-198.3727 602.1996,-204.7933"/>
</g>
<!-- Node63&#45;&gt;Node51 -->
<g id="edge20" class="edge">
<title>Node63&#45;&gt;Node51</title>
<path fill="none" stroke="#191970" d="M529.4363,-304.4549C536.3346,-301.977 542.9944,-298.8764 549,-295 571.7047,-280.3451 561.3324,-259.0428 585,-246 658.9938,-205.2234 760.7395,-209.9186 820.3712,-217.5849"/>
<polygon fill="#191970" stroke="#191970" points="819.9029,-221.0533 830.2842,-218.937 820.849,-214.1175 819.9029,-221.0533"/>
</g>
<!-- Node63&#45;&gt;Node52 -->
<g id="edge19" class="edge">
<title>Node63&#45;&gt;Node52</title>
<path fill="none" stroke="#191970" d="M549.2228,-311.1551C621.6282,-308.8594 722.4602,-305.6622 791.533,-303.4721"/>
<polygon fill="#191970" stroke="#191970" points="792.0272,-306.9583 801.9113,-303.1431 791.8053,-299.9618 792.0272,-306.9583"/>
</g>
<!-- Node64 -->
<g id="node17" class="node">
<title>Node64</title>
<g id="a_node17"><a xlink:href="../../dc/d09/classNonConnectorItem.html#a1452f3637c83b50fbd089f9c4b4518b6" target="_top" xlink:title=" ">
<polygon fill="#ffffff" stroke="#000000" points="786,-354.5 786,-373.5 953,-373.5 953,-354.5 786,-354.5"/>
<text text-anchor="middle" x="869.5" y="-361.5" font-family="Helvetica,sans-Serif" font-size="10.00" fill="#000000">NonConnectorItem::attachedTo</text>
</a>
</g>
</g>
<!-- Node63&#45;&gt;Node64 -->
<g id="edge18" class="edge">
<title>Node63&#45;&gt;Node64</title>
<path fill="none" stroke="#191970" d="M537.5829,-323.5223C607.1493,-332.006 708.8632,-344.4101 781.334,-353.248"/>
<polygon fill="#191970" stroke="#191970" points="781.0093,-356.7343 791.3595,-354.4707 781.8567,-349.7858 781.0093,-356.7343"/>
</g>
<!-- Node65 -->
<g id="node18" class="node">
<title>Node65</title>
<g id="a_node18"><a xlink:href="../../dc/d3a/classConnectorItem.html#aa22ed310cdf87c914bfad84ce759d66b" target="_top" xlink:title=" ">
<polygon fill="#ffffff" stroke="#000000" points="596,-255 596,-285 739,-285 739,-255 596,-255"/>
<text text-anchor="start" x="604" y="-273" font-family="Helvetica,sans-Serif" font-size="10.00" fill="#000000">ConnectorItem::connector</text>
<text text-anchor="middle" x="667.5" y="-262" font-family="Helvetica,sans-Serif" font-size="10.00" fill="#000000">SharedID</text>
</a>
</g>
</g>
<!-- Node63&#45;&gt;Node65 -->
<g id="edge21" class="edge">
<title>Node63&#45;&gt;Node65</title>
<path fill="none" stroke="#191970" d="M504.6329,-304.4527C528.4694,-299.4103 558.4577,-293.0666 586.1846,-287.2013"/>
<polygon fill="#191970" stroke="#191970" points="587.2228,-290.5593 596.2819,-285.0654 585.774,-283.7108 587.2228,-290.5593"/>
</g>
<!-- Node67 -->
<g id="node20" class="node">
<title>Node67</title>
<g id="a_node20"><a xlink:href="../../d5/d9d/classViewLayer.html#acda6179880454250f27ee4ed167b6983" target="_top" xlink:title=" ">
<polygon fill="#ffffff" stroke="#000000" points="600.5,-380.5 600.5,-399.5 734.5,-399.5 734.5,-380.5 600.5,-380.5"/>
<text text-anchor="middle" x="667.5" y="-387.5" font-family="Helvetica,sans-Serif" font-size="10.00" fill="#000000">ViewLayer::viewLayerID</text>
</a>
</g>
</g>
<!-- Node66&#45;&gt;Node67 -->
<g id="edge23" class="edge">
<title>Node66&#45;&gt;Node67</title>
<path fill="none" stroke="#191970" d="M525.027,-376.9856C545.6897,-378.8731 568.711,-380.976 590.1189,-382.9315"/>
<polygon fill="#191970" stroke="#191970" points="589.876,-386.4238 600.153,-383.8481 590.5128,-379.4529 589.876,-386.4238"/>
</g>
<!-- Node70 -->
<g id="node23" class="node">
<title>Node70</title>
<g id="a_node23"><a xlink:href="../../dc/d3a/classConnectorItem.html#a018307285a957aee5ac0042d18a2ad87" target="_top" xlink:title=" ">
<polygon fill="#ffffff" stroke="#000000" points="585,-419 585,-449 750,-449 750,-419 585,-419"/>
<text text-anchor="start" x="593" y="-437" font-family="Helvetica,sans-Serif" font-size="10.00" fill="#000000">ConnectorItem::firstConnected</text>
<text text-anchor="middle" x="667.5" y="-426" font-family="Helvetica,sans-Serif" font-size="10.00" fill="#000000">ToIsh</text>
</a>
</g>
</g>
<!-- Node69&#45;&gt;Node70 -->
<g id="edge27" class="edge">
<title>Node69&#45;&gt;Node70</title>
<path fill="none" stroke="#191970" d="M541.1101,-426.7083C552.0895,-427.3417 563.4185,-427.9953 574.5754,-428.639"/>
<polygon fill="#191970" stroke="#191970" points="574.5733,-432.1446 584.7583,-429.2264 574.9765,-425.1562 574.5733,-432.1446"/>
</g>
<!-- Node70&#45;&gt;Node64 -->
<g id="edge28" class="edge">
<title>Node70&#45;&gt;Node64</title>
<path fill="none" stroke="#191970" d="M719.1574,-418.9175C729.4159,-415.7617 740.0795,-412.3669 750,-409 779.2061,-399.0878 811.9614,-386.6588 835.7825,-377.376"/>
<polygon fill="#191970" stroke="#191970" points="837.3727,-380.5121 845.4081,-373.6068 834.8203,-373.994 837.3727,-380.5121"/>
</g>
<!-- Node71 -->
<g id="node24" class="node">
<title>Node71</title>
<g id="a_node24"><a xlink:href="../../d4/d4f/classItemBase.html#a7565ba05974fedf75bb75923b18bca1a" target="_top" xlink:title=" ">
<polygon fill="#ffffff" stroke="#000000" points="805.5,-424.5 805.5,-443.5 933.5,-443.5 933.5,-424.5 805.5,-424.5"/>
<text text-anchor="middle" x="869.5" y="-431.5" font-family="Helvetica,sans-Serif" font-size="10.00" fill="#000000">ItemBase::getRatsnest</text>
</a>
</g>
</g>
<!-- Node70&#45;&gt;Node71 -->
<g id="edge29" class="edge">
<title>Node70&#45;&gt;Node71</title>
<path fill="none" stroke="#191970" d="M750.244,-434C765.2049,-434 780.7186,-434 795.4125,-434"/>
<polygon fill="#191970" stroke="#191970" points="795.4375,-437.5001 805.4374,-434 795.4374,-430.5001 795.4375,-437.5001"/>
</g>
<!-- Node72 -->
<g id="node25" class="node">
<title>Node72</title>
<g id="a_node25"><a xlink:href="../../d3/de8/classViewGeometry.html#a11ca759a75de95be900ac023617a1858" target="_top" xlink:title=" ">
<polygon fill="#ffffff" stroke="#000000" points="989,-424.5 989,-443.5 1142,-443.5 1142,-424.5 989,-424.5"/>
<text text-anchor="middle" x="1065.5" y="-431.5" font-family="Helvetica,sans-Serif" font-size="10.00" fill="#000000">ViewGeometry::getRatsnest</text>
</a>
</g>
</g>
<!-- Node71&#45;&gt;Node72 -->
<g id="edge30" class="edge">
<title>Node71&#45;&gt;Node72</title>
<path fill="none" stroke="#191970" d="M933.6777,-434C948.0101,-434 963.4425,-434 978.5223,-434"/>
<polygon fill="#191970" stroke="#191970" points="978.888,-437.5001 988.888,-434 978.8879,-430.5001 978.888,-437.5001"/>
</g>
</g>
</svg>
