<?xml version="1.0" encoding="UTF-8" standalone="no"?>
<!DOCTYPE svg PUBLIC "-//W3C//DTD SVG 1.1//EN"
 "http://www.w3.org/Graphics/SVG/1.1/DTD/svg11.dtd">
<!-- Generated by graphviz version 2.40.1 (0)
 -->
<!-- Title: GPGParams Pages: 1 -->
<svg width="458pt" height="193pt"
 viewBox="0.00 0.00 458.00 193.00" xmlns="http://www.w3.org/2000/svg" xmlns:xlink="http://www.w3.org/1999/xlink">
<g id="graph0" class="graph" transform="scale(1 1) rotate(0) translate(4 189)">
<title>GPGParams</title>
<polygon fill="#ffffff" stroke="transparent" points="-4,4 -4,-189 454,-189 454,4 -4,4"/>
<!-- Node1 -->
<g id="node1" class="node">
<title>Node1</title>
<g id="a_node1"><a xlink:title=" ">
<polygon fill="#bfbfbf" stroke="#000000" points="157,-.5 157,-57.5 231,-57.5 231,-.5 157,-.5"/>
<text text-anchor="middle" x="194" y="-45.5" font-family="Helvetica,sans-Serif" font-size="10.00" fill="#000000">GPGParams</text>
<polyline fill="none" stroke="#000000" points="157,-38.5 231,-38.5 "/>
<text text-anchor="middle" x="194" y="-26.5" font-family="Helvetica,sans-Serif" font-size="10.00" fill="#000000"> </text>
<polyline fill="none" stroke="#000000" points="157,-19.5 231,-19.5 "/>
<text text-anchor="middle" x="194" y="-7.5" font-family="Helvetica,sans-Serif" font-size="10.00" fill="#000000"> </text>
</a>
</g>
</g>
<!-- Node2 -->
<g id="node2" class="node">
<title>Node2</title>
<g id="a_node2"><a xlink:title=" ">
<polygon fill="#ffffff" stroke="#bfbfbf" points="0,-127.5 0,-184.5 50,-184.5 50,-127.5 0,-127.5"/>
<text text-anchor="middle" x="25" y="-172.5" font-family="Helvetica,sans-Serif" font-size="10.00" fill="#000000">double</text>
<polyline fill="none" stroke="#bfbfbf" points="0,-165.5 50,-165.5 "/>
<text text-anchor="middle" x="25" y="-153.5" font-family="Helvetica,sans-Serif" font-size="10.00" fill="#000000"> </text>
<polyline fill="none" stroke="#bfbfbf" points="0,-146.5 50,-146.5 "/>
<text text-anchor="middle" x="25" y="-134.5" font-family="Helvetica,sans-Serif" font-size="10.00" fill="#000000"> </text>
</a>
</g>
</g>
<!-- Node2&#45;&gt;Node1 -->
<g id="edge1" class="edge">
<title>Node2&#45;&gt;Node1</title>
<path fill="none" stroke="#404040" d="M27.415,-127.4941C30.279,-110.5096 36.504,-89.6672 50,-76 63.53,-62.2984 108.7033,-48.8924 144.8891,-39.9276"/>
<polygon fill="none" stroke="#404040" points="145.0924,-39.8786 149.9867,-34.5827 156.7576,-37.0636 151.8634,-42.3595 145.0924,-39.8786"/>
<text text-anchor="middle" x="84" y="-95.5" font-family="Helvetica,sans-Serif" font-size="10.00" fill="#000000"> +res</text>
<text text-anchor="middle" x="84" y="-84.5" font-family="Helvetica,sans-Serif" font-size="10.00" fill="#000000">+keepoutMils</text>
</g>
<!-- Node3 -->
<g id="node3" class="node">
<title>Node3</title>
<g id="a_node3"><a xlink:title=" ">
<polygon fill="#ffffff" stroke="#bfbfbf" points="89.5,-127.5 89.5,-184.5 142.5,-184.5 142.5,-127.5 89.5,-127.5"/>
<text text-anchor="middle" x="116" y="-172.5" font-family="Helvetica,sans-Serif" font-size="10.00" fill="#000000">QString</text>
<polyline fill="none" stroke="#bfbfbf" points="89.5,-165.5 142.5,-165.5 "/>
<text text-anchor="middle" x="116" y="-153.5" font-family="Helvetica,sans-Serif" font-size="10.00" fill="#000000"> </text>
<polyline fill="none" stroke="#bfbfbf" points="89.5,-146.5 142.5,-146.5 "/>
<text text-anchor="middle" x="116" y="-134.5" font-family="Helvetica,sans-Serif" font-size="10.00" fill="#000000"> </text>
</a>
</g>
</g>
<!-- Node3&#45;&gt;Node1 -->
<g id="edge2" class="edge">
<title>Node3&#45;&gt;Node1</title>
<path fill="none" stroke="#404040" d="M118.2094,-127.1906C120.5312,-111.114 125.2832,-91.3057 135,-76 138.5533,-70.4029 143.0086,-65.1815 147.8701,-60.406"/>
<polygon fill="none" stroke="#404040" points="147.9961,-60.2937 149.8121,-53.3149 156.9525,-52.3071 155.1365,-59.2858 147.9961,-60.2937"/>
<text text-anchor="middle" x="162.5" y="-101" font-family="Helvetica,sans-Serif" font-size="10.00" fill="#000000"> +color</text>
<text text-anchor="middle" x="162.5" y="-90" font-family="Helvetica,sans-Serif" font-size="10.00" fill="#000000">+svg</text>
<text text-anchor="middle" x="162.5" y="-79" font-family="Helvetica,sans-Serif" font-size="10.00" fill="#000000">+boardSvg</text>
</g>
<!-- Node4 -->
<g id="node4" class="node">
<title>Node4</title>
<g id="a_node4"><a xlink:title=" ">
<polygon fill="#ffffff" stroke="#bfbfbf" points="169,-127.5 169,-184.5 219,-184.5 219,-127.5 169,-127.5"/>
<text text-anchor="middle" x="194" y="-172.5" font-family="Helvetica,sans-Serif" font-size="10.00" fill="#000000">QSizeF</text>
<polyline fill="none" stroke="#bfbfbf" points="169,-165.5 219,-165.5 "/>
<text text-anchor="middle" x="194" y="-153.5" font-family="Helvetica,sans-Serif" font-size="10.00" fill="#000000"> </text>
<polyline fill="none" stroke="#bfbfbf" points="169,-146.5 219,-146.5 "/>
<text text-anchor="middle" x="194" y="-134.5" font-family="Helvetica,sans-Serif" font-size="10.00" fill="#000000"> </text>
</a>
</g>
</g>
<!-- Node4&#45;&gt;Node1 -->
<g id="edge3" class="edge">
<title>Node4&#45;&gt;Node1</title>
<path fill="none" stroke="#404040" d="M194,-127.4987C194,-110.5423 194,-88.7438 194,-69.9661"/>
<polygon fill="none" stroke="#404040" points="194.0001,-69.8456 190,-63.8456 194,-57.8456 198,-63.8455 194.0001,-69.8456"/>
<text text-anchor="middle" x="242" y="-95.5" font-family="Helvetica,sans-Serif" font-size="10.00" fill="#000000"> +copperImageSize</text>
<text text-anchor="middle" x="242" y="-84.5" font-family="Helvetica,sans-Serif" font-size="10.00" fill="#000000">+boardImageSize</text>
</g>
<!-- Node5 -->
<g id="node5" class="node">
<title>Node5</title>
<g id="a_node5"><a xlink:title=" ">
<polygon fill="#ffffff" stroke="#bfbfbf" points="264,-127.5 264,-184.5 362,-184.5 362,-127.5 264,-127.5"/>
<text text-anchor="middle" x="313" y="-172.5" font-family="Helvetica,sans-Serif" font-size="10.00" fill="#000000">QGraphicsItem *</text>
<polyline fill="none" stroke="#bfbfbf" points="264,-165.5 362,-165.5 "/>
<text text-anchor="middle" x="313" y="-153.5" font-family="Helvetica,sans-Serif" font-size="10.00" fill="#000000"> </text>
<polyline fill="none" stroke="#bfbfbf" points="264,-146.5 362,-146.5 "/>
<text text-anchor="middle" x="313" y="-134.5" font-family="Helvetica,sans-Serif" font-size="10.00" fill="#000000"> </text>
</a>
</g>
</g>
<!-- Node5&#45;&gt;Node1 -->
<g id="edge4" class="edge">
<title>Node5&#45;&gt;Node1</title>
<path fill="none" stroke="#404040" d="M310.9621,-127.3987C308.4632,-110.7996 302.9771,-90.3947 291,-76 278.4327,-60.896 259.8564,-50.2753 242.3145,-43.001"/>
<polygon fill="none" stroke="#404040" points="242.2224,-42.966 235.191,-44.5658 231.0099,-38.6906 238.0413,-37.0908 242.2224,-42.966"/>
<text text-anchor="middle" x="326" y="-90" font-family="Helvetica,sans-Serif" font-size="10.00" fill="#000000"> +board</text>
</g>
<!-- Node6 -->
<g id="node6" class="node">
<title>Node6</title>
<g id="a_node6"><a xlink:title=" ">
<polygon fill="#ffffff" stroke="#bfbfbf" points="380,-127.5 380,-184.5 450,-184.5 450,-127.5 380,-127.5"/>
<text text-anchor="middle" x="415" y="-172.5" font-family="Helvetica,sans-Serif" font-size="10.00" fill="#000000">QStringList</text>
<polyline fill="none" stroke="#bfbfbf" points="380,-165.5 450,-165.5 "/>
<text text-anchor="middle" x="415" y="-153.5" font-family="Helvetica,sans-Serif" font-size="10.00" fill="#000000"> </text>
<polyline fill="none" stroke="#bfbfbf" points="380,-146.5 450,-146.5 "/>
<text text-anchor="middle" x="415" y="-134.5" font-family="Helvetica,sans-Serif" font-size="10.00" fill="#000000"> </text>
</a>
</g>
</g>
<!-- Node6&#45;&gt;Node1 -->
<g id="edge5" class="edge">
<title>Node6&#45;&gt;Node1</title>
<path fill="none" stroke="#404040" d="M397.8334,-127.1324C386.2895,-110.0117 369.6211,-89.1533 350,-76 317.8122,-54.4225 275.399,-42.4793 242.9227,-36.0383"/>
<polygon fill="none" stroke="#404040" points="242.8037,-36.0163 236.1754,-38.8565 231.0044,-33.8305 237.6326,-30.9903 242.8037,-36.0163"/>
<text text-anchor="middle" x="416.5" y="-90" font-family="Helvetica,sans-Serif" font-size="10.00" fill="#000000"> +exceptions</text>
</g>
</g>
</svg>
