<?xml version="1.0" encoding="UTF-8" standalone="no"?>
<!DOCTYPE svg PUBLIC "-//W3C//DTD SVG 1.1//EN"
 "http://www.w3.org/Graphics/SVG/1.1/DTD/svg11.dtd">
<!-- Generated by graphviz version 2.40.1 (0)
 -->
<!-- Title: PaletteItem::getPinLabels Pages: 1 -->
<!--zoomable 199 -->
<svg id="main" version="1.1" xmlns="http://www.w3.org/2000/svg" xmlns:xlink="http://www.w3.org/1999/xlink" xml:space="preserve" onload="init(evt)">
<style type="text/css"><![CDATA[
.edge:hover path { stroke: red; }
.edge:hover polygon { stroke: red; fill: red; }
]]></style>
<script type="text/javascript"><![CDATA[
var edges = document.getElementsByTagName('g');
if (edges && edges.length) {
  for (var i=0;i<edges.length;i++) {
    if (edges[i].id.substr(0,4)=='edge') {
      edges[i].setAttribute('class','edge');
    }
  }
}
]]></script>
        <defs>
                <circle id="rim" cx="0" cy="0" r="7"/>
                <circle id="rim2" cx="0" cy="0" r="3.5"/>
                <g id="zoomPlus">
                        <use xlink:href="#rim" fill="#404040">
                                <set attributeName="fill" to="#808080" begin="zoomplus.mouseover" end="zoomplus.mouseout"/>
                        </use>
                        <path d="M-4,0h8M0,-4v8" fill="none" stroke="white" stroke-width="1.5" pointer-events="none"/>
                </g>
                <g id="zoomMin">
                        <use xlink:href="#rim" fill="#404040">
                                <set attributeName="fill" to="#808080" begin="zoomminus.mouseover" end="zoomminus.mouseout"/>
                        </use>
                        <path d="M-4,0h8" fill="none" stroke="white" stroke-width="1.5" pointer-events="none"/>
                </g>
                <g id="dirArrow">
                        <path fill="none" stroke="white" stroke-width="1.5" d="M0,-3.0v7 M-2.5,-0.5L0,-3.0L2.5,-0.5"/>
                </g>
               <g id="resetDef">
                       <use xlink:href="#rim2" fill="#404040">
                               <set attributeName="fill" to="#808080" begin="reset.mouseover" end="reset.mouseout"/>
                       </use>
               </g>
        </defs>

<script type="text/javascript">
var viewWidth = 958;
var viewHeight = 199;
var sectionId = 'dynsection-31';
</script>
<script xlink:href="../../svgpan.js"/>
<svg id="graph" class="graph">
<g id="viewport">
<title>PaletteItem::getPinLabels</title>
<polygon fill="#ffffff" stroke="transparent" points="-4,4 -4,-195 954,-195 954,4 -4,4"/>
<!-- Node569 -->
<g id="node1" class="node">
<title>Node569</title>
<g id="a_node1"><a xlink:title=" ">
<polygon fill="#bfbfbf" stroke="#000000" points="809,-95.5 809,-114.5 950,-114.5 950,-95.5 809,-95.5"/>
<text text-anchor="middle" x="879.5" y="-102.5" font-family="Helvetica,sans-Serif" font-size="10.00" fill="#000000">PaletteItem::getPinLabels</text>
</a>
</g>
</g>
<!-- Node570 -->
<g id="node2" class="node">
<title>Node570</title>
<g id="a_node2"><a xlink:href="../../dc/dec/classDip.html#a992e0f5111a13a0398678fefb64db1f3" target="_top" xlink:title=" ">
<polygon fill="#ffffff" stroke="#000000" points="606,-171.5 606,-190.5 752,-190.5 752,-171.5 606,-171.5"/>
<text text-anchor="middle" x="679" y="-178.5" font-family="Helvetica,sans-Serif" font-size="10.00" fill="#000000">Dip::retrieveSchematicSvg</text>
</a>
</g>
</g>
<!-- Node569&#45;&gt;Node570 -->
<g id="edge1" class="edge">
<title>Node569&#45;&gt;Node570</title>
<path fill="none" stroke="#191970" d="M856.4425,-119.9013C835.4664,-132.8231 803.2523,-151.1135 773,-162 762.4255,-165.8053 750.8922,-168.9249 739.6409,-171.4557"/>
<polygon fill="#191970" stroke="#191970" points="858.356,-122.8327 864.9736,-114.5588 854.6407,-116.9 858.356,-122.8327"/>
</g>
<!-- Node571 -->
<g id="node3" class="node">
<title>Node571</title>
<g id="a_node3"><a xlink:href="../../dc/dec/classDip.html#a7f1952a3e5c064edeb13541ace16d4c9" target="_top" xlink:title=" ">
<polygon fill="#ffffff" stroke="#000000" points="618.5,-133.5 618.5,-152.5 739.5,-152.5 739.5,-133.5 618.5,-133.5"/>
<text text-anchor="middle" x="679" y="-140.5" font-family="Helvetica,sans-Serif" font-size="10.00" fill="#000000">Dip::changePinLabels</text>
</a>
</g>
</g>
<!-- Node569&#45;&gt;Node571 -->
<g id="edge2" class="edge">
<title>Node569&#45;&gt;Node571</title>
<path fill="none" stroke="#191970" d="M819.2544,-116.4181C790.5664,-121.8552 756.6502,-128.2832 729.3565,-133.4561"/>
<polygon fill="#191970" stroke="#191970" points="819.9909,-119.8409 829.1642,-114.54 818.6873,-112.9634 819.9909,-119.8409"/>
</g>
<!-- Node572 -->
<g id="node4" class="node">
<title>Node572</title>
<g id="a_node4"><a xlink:href="../../d8/d73/classMysteryPart.html#acacdaa5904f4bd31eb924f1a914cf16f" target="_top" xlink:title=" ">
<polygon fill="#ffffff" stroke="#000000" points="585,-95.5 585,-114.5 773,-114.5 773,-95.5 585,-95.5"/>
<text text-anchor="middle" x="679" y="-102.5" font-family="Helvetica,sans-Serif" font-size="10.00" fill="#000000">MysteryPart::retrieveSchematicSvg</text>
</a>
</g>
</g>
<!-- Node569&#45;&gt;Node572 -->
<g id="edge3" class="edge">
<title>Node569&#45;&gt;Node572</title>
<path fill="none" stroke="#191970" d="M798.7122,-105C790.3428,-105 781.7852,-105 773.285,-105"/>
<polygon fill="#191970" stroke="#191970" points="798.8112,-108.5001 808.8112,-105 798.8112,-101.5001 798.8112,-108.5001"/>
</g>
<!-- Node578 -->
<g id="node10" class="node">
<title>Node578</title>
<g id="a_node10"><a xlink:href="../../d8/d73/classMysteryPart.html#a00715cdacd3fd47d1845e50e40c3da8a" target="_top" xlink:title=" ">
<polygon fill="#ffffff" stroke="#000000" points="597.5,-57.5 597.5,-76.5 760.5,-76.5 760.5,-57.5 597.5,-57.5"/>
<text text-anchor="middle" x="679" y="-64.5" font-family="Helvetica,sans-Serif" font-size="10.00" fill="#000000">MysteryPart::changePinLabels</text>
</a>
</g>
</g>
<!-- Node569&#45;&gt;Node578 -->
<g id="edge9" class="edge">
<title>Node569&#45;&gt;Node578</title>
<path fill="none" stroke="#191970" d="M819.2544,-93.5819C790.5664,-88.1448 756.6502,-81.7168 729.3565,-76.5439"/>
<polygon fill="#191970" stroke="#191970" points="818.6873,-97.0366 829.1642,-95.46 819.9909,-90.1591 818.6873,-97.0366"/>
</g>
<!-- Node579 -->
<g id="node11" class="node">
<title>Node579</title>
<g id="a_node11"><a xlink:href="../../d3/d04/classPaletteItem.html#a25e23ef390a3f36f0c0af47169a04b36" target="_top" xlink:title=" ">
<polygon fill="#ffffff" stroke="#000000" points="597,-19.5 597,-38.5 761,-38.5 761,-19.5 597,-19.5"/>
<text text-anchor="middle" x="679" y="-26.5" font-family="Helvetica,sans-Serif" font-size="10.00" fill="#000000">PaletteItem::sipOrDipOrLabels</text>
</a>
</g>
</g>
<!-- Node569&#45;&gt;Node579 -->
<g id="edge10" class="edge">
<title>Node569&#45;&gt;Node579</title>
<path fill="none" stroke="#191970" d="M856.4425,-90.0987C835.4664,-77.1769 803.2523,-58.8865 773,-48 762.4255,-44.1947 750.8922,-41.0751 739.6409,-38.5443"/>
<polygon fill="#191970" stroke="#191970" points="854.6407,-93.1 864.9736,-95.4412 858.356,-87.1673 854.6407,-93.1"/>
</g>
<!-- Node573 -->
<g id="node5" class="node">
<title>Node573</title>
<g id="a_node5"><a xlink:href="../../d8/d73/classMysteryPart.html#abe898ca4ab4cc90bbca9cc7180ac33af" target="_top" xlink:title=" ">
<polygon fill="#ffffff" stroke="#000000" points="378.5,-123.5 378.5,-142.5 522.5,-142.5 522.5,-123.5 378.5,-123.5"/>
<text text-anchor="middle" x="450.5" y="-130.5" font-family="Helvetica,sans-Serif" font-size="10.00" fill="#000000">MysteryPart::setChipLabel</text>
</a>
</g>
</g>
<!-- Node572&#45;&gt;Node573 -->
<g id="edge4" class="edge">
<title>Node572&#45;&gt;Node573</title>
<path fill="none" stroke="#191970" d="M591.3421,-115.7415C568.615,-118.5264 544.4015,-121.4935 522.5764,-124.1679"/>
<polygon fill="#191970" stroke="#191970" points="591.8215,-119.209 601.3215,-114.5186 590.97,-112.261 591.8215,-119.209"/>
</g>
<!-- Node577 -->
<g id="node9" class="node">
<title>Node577</title>
<g id="a_node9"><a xlink:href="../../d8/d73/classMysteryPart.html#aebb339463ec0094de93a70f5eac20bb6" target="_top" xlink:title=" ">
<polygon fill="#ffffff" stroke="#000000" points="382,-85.5 382,-104.5 519,-104.5 519,-85.5 382,-85.5"/>
<text text-anchor="middle" x="450.5" y="-92.5" font-family="Helvetica,sans-Serif" font-size="10.00" fill="#000000">MysteryPart::retrieveSvg</text>
</a>
</g>
</g>
<!-- Node572&#45;&gt;Node577 -->
<g id="edge8" class="edge">
<title>Node572&#45;&gt;Node577</title>
<path fill="none" stroke="#191970" d="M574.6248,-100.4322C555.775,-99.6072 536.564,-98.7665 519.0648,-98.0006"/>
<polygon fill="#191970" stroke="#191970" points="574.5976,-103.9342 584.7411,-100.8749 574.9037,-96.9409 574.5976,-103.9342"/>
</g>
<!-- Node574 -->
<g id="node6" class="node">
<title>Node574</title>
<g id="a_node6"><a xlink:href="../../d8/d73/classMysteryPart.html#a98344217641c0a776f6091e1e9af68d1" target="_top" xlink:title=" ">
<polygon fill="#ffffff" stroke="#000000" points="171.5,-142.5 171.5,-161.5 289.5,-161.5 289.5,-142.5 171.5,-142.5"/>
<text text-anchor="middle" x="230.5" y="-149.5" font-family="Helvetica,sans-Serif" font-size="10.00" fill="#000000">MysteryPart::setProp</text>
</a>
</g>
</g>
<!-- Node573&#45;&gt;Node574 -->
<g id="edge5" class="edge">
<title>Node573&#45;&gt;Node574</title>
<path fill="none" stroke="#191970" d="M368.228,-140.1053C342.193,-142.3538 313.9411,-144.7937 289.8404,-146.8751"/>
<polygon fill="#191970" stroke="#191970" points="368.802,-143.5689 378.4638,-139.2213 368.1997,-136.5948 368.802,-143.5689"/>
</g>
<!-- Node575 -->
<g id="node7" class="node">
<title>Node575</title>
<g id="a_node7"><a xlink:href="../../d8/d73/classMysteryPart.html#afdf1b05f9ebed530aa77e1eded1a2323" target="_top" xlink:title=" ">
<polygon fill="#ffffff" stroke="#000000" points="155,-104.5 155,-123.5 306,-123.5 306,-104.5 155,-104.5"/>
<text text-anchor="middle" x="230.5" y="-111.5" font-family="Helvetica,sans-Serif" font-size="10.00" fill="#000000">MysteryPart::addedToScene</text>
</a>
</g>
</g>
<!-- Node573&#45;&gt;Node575 -->
<g id="edge6" class="edge">
<title>Node573&#45;&gt;Node575</title>
<path fill="none" stroke="#191970" d="M368.2657,-125.8979C347.8862,-124.1379 326.1462,-122.2604 306.1009,-120.5292"/>
<polygon fill="#191970" stroke="#191970" points="368.1997,-129.4052 378.4638,-126.7787 368.802,-122.4311 368.1997,-129.4052"/>
</g>
<!-- Node576 -->
<g id="node8" class="node">
<title>Node576</title>
<g id="a_node8"><a xlink:href="../../dc/dec/classDip.html#abf0cc41c95c0e1d9bdef6c35c601e981" target="_top" xlink:title=" ">
<polygon fill="#ffffff" stroke="#000000" points="0,-104.5 0,-123.5 109,-123.5 109,-104.5 0,-104.5"/>
<text text-anchor="middle" x="54.5" y="-111.5" font-family="Helvetica,sans-Serif" font-size="10.00" fill="#000000">Dip::addedToScene</text>
</a>
</g>
</g>
<!-- Node575&#45;&gt;Node576 -->
<g id="edge7" class="edge">
<title>Node575&#45;&gt;Node576</title>
<path fill="none" stroke="#191970" d="M144.697,-114C132.5839,-114 120.4153,-114 109.1099,-114"/>
<polygon fill="#191970" stroke="#191970" points="144.8388,-117.5001 154.8387,-114 144.8387,-110.5001 144.8388,-117.5001"/>
</g>
<!-- Node580 -->
<g id="node12" class="node">
<title>Node580</title>
<g id="a_node12"><a xlink:href="../../d3/d04/classPaletteItem.html#ab9446bc297ae14a183ca04295da5e1bb" target="_top" xlink:title=" ">
<polygon fill="#ffffff" stroke="#000000" points="352,-38.5 352,-57.5 549,-57.5 549,-38.5 352,-38.5"/>
<text text-anchor="middle" x="450.5" y="-45.5" font-family="Helvetica,sans-Serif" font-size="10.00" fill="#000000">PaletteItem::makeLocalModifications</text>
</a>
</g>
</g>
<!-- Node579&#45;&gt;Node580 -->
<g id="edge11" class="edge">
<title>Node579&#45;&gt;Node580</title>
<path fill="none" stroke="#191970" d="M586.5598,-36.6865C574.22,-37.7126 561.5276,-38.7679 549.0878,-39.8023"/>
<polygon fill="#191970" stroke="#191970" points="587.1535,-40.1493 596.8291,-35.8326 586.5734,-33.1734 587.1535,-40.1493"/>
</g>
<!-- Node581 -->
<g id="node13" class="node">
<title>Node581</title>
<g id="a_node13"><a xlink:href="../../d8/d37/classSketchWidget.html#a13848576920ea40b4d9af273933f51be" target="_top" xlink:title=" ">
<polygon fill="#ffffff" stroke="#000000" points="355.5,-.5 355.5,-19.5 545.5,-19.5 545.5,-.5 355.5,-.5"/>
<text text-anchor="middle" x="450.5" y="-7.5" font-family="Helvetica,sans-Serif" font-size="10.00" fill="#000000">SketchWidget::changePinLabelsSlot</text>
</a>
</g>
</g>
<!-- Node579&#45;&gt;Node581 -->
<g id="edge12" class="edge">
<title>Node579&#45;&gt;Node581</title>
<path fill="none" stroke="#191970" d="M586.5843,-21.3155C573.062,-20.1912 559.1158,-19.0315 545.5421,-17.9028"/>
<polygon fill="#191970" stroke="#191970" points="586.5734,-24.8266 596.8291,-22.1674 587.1535,-17.8507 586.5734,-24.8266"/>
</g>
<!-- Node582 -->
<g id="node14" class="node">
<title>Node582</title>
<g id="a_node14"><a xlink:href="../../d8/d37/classSketchWidget.html#a5ebb1251965016bb150a37f33333083a" target="_top" xlink:title=" ">
<polygon fill="#ffffff" stroke="#000000" points="145,-.5 145,-19.5 316,-19.5 316,-.5 145,-.5"/>
<text text-anchor="middle" x="230.5" y="-7.5" font-family="Helvetica,sans-Serif" font-size="10.00" fill="#000000">SketchWidget::changePinLabels</text>
</a>
</g>
</g>
<!-- Node581&#45;&gt;Node582 -->
<g id="edge13" class="edge">
<title>Node581&#45;&gt;Node582</title>
<path fill="none" stroke="#191970" d="M345.1815,-10C335.4576,-10 325.6849,-10 316.168,-10"/>
<polygon fill="#191970" stroke="#191970" points="345.2844,-13.5001 355.2843,-10 345.2843,-6.5001 345.2844,-13.5001"/>
</g>
</g>
</svg>
        <g id="navigator" transform="translate(0 0)" fill="#404254">
                <rect fill="#f2f5e9" fill-opacity="0.5" stroke="#606060" stroke-width=".5" x="0" y="0" width="60" height="60"/>
                <use id="zoomplus" xlink:href="#zoomPlus" x="17" y="9" onmousedown="handleZoom(evt,'in')"/>
                <use id="zoomminus" xlink:href="#zoomMin" x="42" y="9" onmousedown="handleZoom(evt,'out')"/>
                <use id="reset" xlink:href="#resetDef" x="30" y="36" onmousedown="handleReset()"/>
                <g id="arrowUp" xlink:href="#dirArrow" transform="translate(30 24)" onmousedown="handlePan(0,-1)">
                  <use xlink:href="#rim" fill="#404040">
                        <set attributeName="fill" to="#808080" begin="arrowUp.mouseover" end="arrowUp.mouseout"/>
                  </use>
                  <path fill="none" stroke="white" stroke-width="1.5" d="M0,-3.0v7 M-2.5,-0.5L0,-3.0L2.5,-0.5"/>
                </g>
                <g id="arrowRight" xlink:href="#dirArrow" transform="rotate(90) translate(36 -43)" onmousedown="handlePan(1,0)">
                  <use xlink:href="#rim" fill="#404040">
                        <set attributeName="fill" to="#808080" begin="arrowRight.mouseover" end="arrowRight.mouseout"/>
                  </use>
                  <path fill="none" stroke="white" stroke-width="1.5" d="M0,-3.0v7 M-2.5,-0.5L0,-3.0L2.5,-0.5"/>
                </g>
                <g id="arrowDown" xlink:href="#dirArrow" transform="rotate(180) translate(-30 -48)" onmousedown="handlePan(0,1)">
                  <use xlink:href="#rim" fill="#404040">
                        <set attributeName="fill" to="#808080" begin="arrowDown.mouseover" end="arrowDown.mouseout"/>
                  </use>
                  <path fill="none" stroke="white" stroke-width="1.5" d="M0,-3.0v7 M-2.5,-0.5L0,-3.0L2.5,-0.5"/>
                </g>
                <g id="arrowLeft" xlink:href="#dirArrow" transform="rotate(270) translate(-36 17)" onmousedown="handlePan(-1,0)">
                  <use xlink:href="#rim" fill="#404040">
                        <set attributeName="fill" to="#808080" begin="arrowLeft.mouseover" end="arrowLeft.mouseout"/>
                  </use>
                  <path fill="none" stroke="white" stroke-width="1.5" d="M0,-3.0v7 M-2.5,-0.5L0,-3.0L2.5,-0.5"/>
                </g>
        </g>
        <svg viewBox="0 0 15 15" width="100%" height="30px" preserveAspectRatio="xMaxYMin meet">
         <g id="arrow_out" transform="scale(0.3 0.3)">
          <a xlink:href="classPaletteItem_aa08c8e3c86127358a21d97f14f33225b_icgraph_org.svg" target="_base">
           <rect id="button" ry="5" rx="5" y="6" x="6" height="38" width="38"
                fill="#f2f5e9" fill-opacity="0.5" stroke="#606060" stroke-width="1.0"/>
           <path id="arrow"
             d="M 11.500037,31.436501 C 11.940474,20.09759 22.043105,11.32322 32.158766,21.979434 L 37.068811,17.246167 C 37.068811,17.246167 37.088388,32 37.088388,32 L 22.160133,31.978069 C 22.160133,31.978069 26.997745,27.140456 26.997745,27.140456 C 18.528582,18.264221 13.291696,25.230495 11.500037,31.436501 z"
             style="fill:#404040;"/>
          </a>
         </g>
        </svg>
</svg>
