<?xml version="1.0" encoding="UTF-8" standalone="no"?>
<!DOCTYPE svg PUBLIC "-//W3C//DTD SVG 1.1//EN"
 "http://www.w3.org/Graphics/SVG/1.1/DTD/svg11.dtd">
<!-- Generated by graphviz version 2.40.1 (0)
 -->
<!-- Title: PaletteItem::setHoleSize Pages: 1 -->
<!--zoomable 142 -->
<svg id="main" version="1.1" xmlns="http://www.w3.org/2000/svg" xmlns:xlink="http://www.w3.org/1999/xlink" xml:space="preserve" onload="init(evt)">
<style type="text/css"><![CDATA[
.edge:hover path { stroke: red; }
.edge:hover polygon { stroke: red; fill: red; }
]]></style>
<script type="text/javascript"><![CDATA[
var edges = document.getElementsByTagName('g');
if (edges && edges.length) {
  for (var i=0;i<edges.length;i++) {
    if (edges[i].id.substr(0,4)=='edge') {
      edges[i].setAttribute('class','edge');
    }
  }
}
]]></script>
        <defs>
                <circle id="rim" cx="0" cy="0" r="7"/>
                <circle id="rim2" cx="0" cy="0" r="3.5"/>
                <g id="zoomPlus">
                        <use xlink:href="#rim" fill="#404040">
                                <set attributeName="fill" to="#808080" begin="zoomplus.mouseover" end="zoomplus.mouseout"/>
                        </use>
                        <path d="M-4,0h8M0,-4v8" fill="none" stroke="white" stroke-width="1.5" pointer-events="none"/>
                </g>
                <g id="zoomMin">
                        <use xlink:href="#rim" fill="#404040">
                                <set attributeName="fill" to="#808080" begin="zoomminus.mouseover" end="zoomminus.mouseout"/>
                        </use>
                        <path d="M-4,0h8" fill="none" stroke="white" stroke-width="1.5" pointer-events="none"/>
                </g>
                <g id="dirArrow">
                        <path fill="none" stroke="white" stroke-width="1.5" d="M0,-3.0v7 M-2.5,-0.5L0,-3.0L2.5,-0.5"/>
                </g>
               <g id="resetDef">
                       <use xlink:href="#rim2" fill="#404040">
                               <set attributeName="fill" to="#808080" begin="reset.mouseover" end="reset.mouseout"/>
                       </use>
               </g>
        </defs>

<script type="text/javascript">
var viewWidth = 693;
var viewHeight = 142;
var sectionId = 'dynsection-81';
</script>
<script xlink:href="../../svgpan.js"/>
<svg id="graph" class="graph">
<g id="viewport">
<title>PaletteItem::setHoleSize</title>
<polygon fill="#ffffff" stroke="transparent" points="-4,4 -4,-138 689,-138 689,4 -4,4"/>
<!-- Node2539 -->
<g id="node1" class="node">
<title>Node2539</title>
<g id="a_node1"><a xlink:title=" ">
<polygon fill="#bfbfbf" stroke="#000000" points="0,-57.5 0,-76.5 137,-76.5 137,-57.5 0,-57.5"/>
<text text-anchor="middle" x="68.5" y="-64.5" font-family="Helvetica,sans-Serif" font-size="10.00" fill="#000000">PaletteItem::setHoleSize</text>
</a>
</g>
</g>
<!-- Node2540 -->
<g id="node2" class="node">
<title>Node2540</title>
<g id="a_node2"><a xlink:href="../../d3/d04/classPaletteItem.html#abdd0dd9424adf2868549318de89c8345" target="_top" xlink:title=" ">
<polygon fill="#ffffff" stroke="#000000" points="193.5,-114.5 193.5,-133.5 313.5,-133.5 313.5,-114.5 193.5,-114.5"/>
<text text-anchor="middle" x="253.5" y="-121.5" font-family="Helvetica,sans-Serif" font-size="10.00" fill="#000000">PaletteItem::getSizes</text>
</a>
</g>
</g>
<!-- Node2539&#45;&gt;Node2540 -->
<g id="edge1" class="edge">
<title>Node2539&#45;&gt;Node2540</title>
<path fill="none" stroke="#191970" d="M92.3065,-76.5606C113.3159,-84.7797 144.8845,-96.6015 173,-105 181.3973,-107.5084 190.366,-109.9006 199.1564,-112.0896"/>
<polygon fill="#191970" stroke="#191970" points="198.4219,-115.5129 208.9653,-114.4699 200.0728,-108.7103 198.4219,-115.5129"/>
</g>
<!-- Node2541 -->
<g id="node3" class="node">
<title>Node2541</title>
<g id="a_node3"><a xlink:href="../../d3/d04/classPaletteItem.html#add34def6de9186be8b4ca99f98f6031d" target="_top" xlink:title=" ">
<polygon fill="#ffffff" stroke="#000000" points="175,-38.5 175,-57.5 332,-57.5 332,-38.5 175,-38.5"/>
<text text-anchor="middle" x="253.5" y="-45.5" font-family="Helvetica,sans-Serif" font-size="10.00" fill="#000000">PaletteItem::updateEditTexts</text>
</a>
</g>
</g>
<!-- Node2539&#45;&gt;Node2541 -->
<g id="edge2" class="edge">
<title>Node2539&#45;&gt;Node2541</title>
<path fill="none" stroke="#191970" d="M137.1243,-59.9521C146.1107,-59.0292 155.4198,-58.0731 164.6797,-57.1221"/>
<polygon fill="#191970" stroke="#191970" points="165.1007,-60.5974 174.6907,-56.0939 164.3854,-53.634 165.1007,-60.5974"/>
</g>
<!-- Node2545 -->
<g id="node7" class="node">
<title>Node2545</title>
<g id="a_node7"><a xlink:href="../../d3/d04/classPaletteItem.html#adf18151e05758ccf0d3ea71645ff1ae6" target="_top" xlink:title=" ">
<polygon fill="#ffffff" stroke="#000000" points="184.5,-76.5 184.5,-95.5 322.5,-95.5 322.5,-76.5 184.5,-76.5"/>
<text text-anchor="middle" x="253.5" y="-83.5" font-family="Helvetica,sans-Serif" font-size="10.00" fill="#000000">PaletteItem::updateSizes</text>
</a>
</g>
</g>
<!-- Node2539&#45;&gt;Node2545 -->
<g id="edge6" class="edge">
<title>Node2539&#45;&gt;Node2545</title>
<path fill="none" stroke="#191970" d="M137.1243,-74.0479C149.1747,-75.2855 161.8054,-76.5827 174.1196,-77.8474"/>
<polygon fill="#191970" stroke="#191970" points="174.064,-81.36 184.3693,-78.9001 174.7792,-74.3967 174.064,-81.36"/>
</g>
<!-- Node2546 -->
<g id="node8" class="node">
<title>Node2546</title>
<g id="a_node8"><a xlink:href="../../d3/d04/classPaletteItem.html#ac1dc2f6f818e860be0a06b0b6fa0163d" target="_top" xlink:title=" ">
<polygon fill="#ffffff" stroke="#000000" points="173,-.5 173,-19.5 334,-19.5 334,-.5 173,-.5"/>
<text text-anchor="middle" x="253.5" y="-7.5" font-family="Helvetica,sans-Serif" font-size="10.00" fill="#000000">PaletteItem::updateValidators</text>
</a>
</g>
</g>
<!-- Node2539&#45;&gt;Node2546 -->
<g id="edge8" class="edge">
<title>Node2539&#45;&gt;Node2546</title>
<path fill="none" stroke="#191970" d="M92.3065,-57.4394C113.3159,-49.2203 144.8845,-37.3985 173,-29 181.3973,-26.4916 190.366,-24.0994 199.1564,-21.9104"/>
<polygon fill="#191970" stroke="#191970" points="200.0728,-25.2897 208.9653,-19.5301 198.4219,-18.4871 200.0728,-25.2897"/>
</g>
<!-- Node2542 -->
<g id="node4" class="node">
<title>Node2542</title>
<g id="a_node4"><a xlink:href="../../de/db8/classTextUtils.html#a53e674684a7ceb29e742cae16c5e246b" target="_top" xlink:title=" ">
<polygon fill="#ffffff" stroke="#000000" points="370.5,-57.5 370.5,-76.5 514.5,-76.5 514.5,-57.5 370.5,-57.5"/>
<text text-anchor="middle" x="442.5" y="-64.5" font-family="Helvetica,sans-Serif" font-size="10.00" fill="#000000">TextUtils::convertToInches</text>
</a>
</g>
</g>
<!-- Node2541&#45;&gt;Node2542 -->
<g id="edge3" class="edge">
<title>Node2541&#45;&gt;Node2542</title>
<path fill="none" stroke="#191970" d="M332.0111,-55.8926C341.3212,-56.8286 350.8446,-57.786 360.2054,-58.727"/>
<polygon fill="#191970" stroke="#191970" points="359.9815,-62.222 370.2814,-59.7399 360.6817,-55.2571 359.9815,-62.222"/>
</g>
<!-- Node2544 -->
<g id="node6" class="node">
<title>Node2544</title>
<g id="a_node6"><a xlink:href="../../d8/d7f/structHoleSettings.html#a8d7ac552c18ac5ee88dc7dbacaf3e697" target="_top" xlink:title=" ">
<polygon fill="#ffffff" stroke="#000000" points="370,-10.5 370,-29.5 515,-29.5 515,-10.5 370,-10.5"/>
<text text-anchor="middle" x="442.5" y="-17.5" font-family="Helvetica,sans-Serif" font-size="10.00" fill="#000000">HoleSettings::currentUnits</text>
</a>
</g>
</g>
<!-- Node2541&#45;&gt;Node2544 -->
<g id="edge5" class="edge">
<title>Node2541&#45;&gt;Node2544</title>
<path fill="none" stroke="#191970" d="M317.7505,-38.4814C333.8796,-36.0919 351.3229,-33.5077 367.9091,-31.0505"/>
<polygon fill="#191970" stroke="#191970" points="368.7271,-34.4676 378.1062,-29.5398 367.7012,-27.5432 368.7271,-34.4676"/>
</g>
<!-- Node2543 -->
<g id="node5" class="node">
<title>Node2543</title>
<g id="a_node5"><a xlink:href="../../de/db8/classTextUtils.html#a081f65f326bccb69ddec2919b692c479" target="_top" xlink:title=" ">
<polygon fill="#ffffff" stroke="#000000" points="551,-57.5 551,-76.5 685,-76.5 685,-57.5 551,-57.5"/>
<text text-anchor="middle" x="618" y="-64.5" font-family="Helvetica,sans-Serif" font-size="10.00" fill="#000000">TextUtils::chopNotDigits</text>
</a>
</g>
</g>
<!-- Node2542&#45;&gt;Node2543 -->
<g id="edge4" class="edge">
<title>Node2542&#45;&gt;Node2543</title>
<path fill="none" stroke="#191970" d="M514.6423,-67C523.2722,-67 532.1102,-67 540.8077,-67"/>
<polygon fill="#191970" stroke="#191970" points="540.9326,-70.5001 550.9326,-67 540.9325,-63.5001 540.9326,-70.5001"/>
</g>
<!-- Node2545&#45;&gt;Node2542 -->
<g id="edge7" class="edge">
<title>Node2545&#45;&gt;Node2542</title>
<path fill="none" stroke="#191970" d="M322.5356,-79.0599C334.8502,-77.8219 347.7882,-76.5213 360.4246,-75.251"/>
<polygon fill="#191970" stroke="#191970" points="360.8767,-78.7233 370.4764,-74.2405 360.1765,-71.7584 360.8767,-78.7233"/>
</g>
<!-- Node2546&#45;&gt;Node2544 -->
<g id="edge9" class="edge">
<title>Node2546&#45;&gt;Node2544</title>
<path fill="none" stroke="#191970" d="M334.2012,-14.2699C342.6181,-14.7152 351.1842,-15.1685 359.6247,-15.6151"/>
<polygon fill="#191970" stroke="#191970" points="359.6685,-19.1222 369.8395,-16.1555 360.0384,-12.132 359.6685,-19.1222"/>
</g>
</g>
</svg>
        <g id="navigator" transform="translate(0 0)" fill="#404254">
                <rect fill="#f2f5e9" fill-opacity="0.5" stroke="#606060" stroke-width=".5" x="0" y="0" width="60" height="60"/>
                <use id="zoomplus" xlink:href="#zoomPlus" x="17" y="9" onmousedown="handleZoom(evt,'in')"/>
                <use id="zoomminus" xlink:href="#zoomMin" x="42" y="9" onmousedown="handleZoom(evt,'out')"/>
                <use id="reset" xlink:href="#resetDef" x="30" y="36" onmousedown="handleReset()"/>
                <g id="arrowUp" xlink:href="#dirArrow" transform="translate(30 24)" onmousedown="handlePan(0,-1)">
                  <use xlink:href="#rim" fill="#404040">
                        <set attributeName="fill" to="#808080" begin="arrowUp.mouseover" end="arrowUp.mouseout"/>
                  </use>
                  <path fill="none" stroke="white" stroke-width="1.5" d="M0,-3.0v7 M-2.5,-0.5L0,-3.0L2.5,-0.5"/>
                </g>
                <g id="arrowRight" xlink:href="#dirArrow" transform="rotate(90) translate(36 -43)" onmousedown="handlePan(1,0)">
                  <use xlink:href="#rim" fill="#404040">
                        <set attributeName="fill" to="#808080" begin="arrowRight.mouseover" end="arrowRight.mouseout"/>
                  </use>
                  <path fill="none" stroke="white" stroke-width="1.5" d="M0,-3.0v7 M-2.5,-0.5L0,-3.0L2.5,-0.5"/>
                </g>
                <g id="arrowDown" xlink:href="#dirArrow" transform="rotate(180) translate(-30 -48)" onmousedown="handlePan(0,1)">
                  <use xlink:href="#rim" fill="#404040">
                        <set attributeName="fill" to="#808080" begin="arrowDown.mouseover" end="arrowDown.mouseout"/>
                  </use>
                  <path fill="none" stroke="white" stroke-width="1.5" d="M0,-3.0v7 M-2.5,-0.5L0,-3.0L2.5,-0.5"/>
                </g>
                <g id="arrowLeft" xlink:href="#dirArrow" transform="rotate(270) translate(-36 17)" onmousedown="handlePan(-1,0)">
                  <use xlink:href="#rim" fill="#404040">
                        <set attributeName="fill" to="#808080" begin="arrowLeft.mouseover" end="arrowLeft.mouseout"/>
                  </use>
                  <path fill="none" stroke="white" stroke-width="1.5" d="M0,-3.0v7 M-2.5,-0.5L0,-3.0L2.5,-0.5"/>
                </g>
        </g>
        <svg viewBox="0 0 15 15" width="100%" height="30px" preserveAspectRatio="xMaxYMin meet">
         <g id="arrow_out" transform="scale(0.3 0.3)">
          <a xlink:href="classPaletteItem_a48badddcc32798eb8f57f75b7cf7d486_cgraph_org.svg" target="_base">
           <rect id="button" ry="5" rx="5" y="6" x="6" height="38" width="38"
                fill="#f2f5e9" fill-opacity="0.5" stroke="#606060" stroke-width="1.0"/>
           <path id="arrow"
             d="M 11.500037,31.436501 C 11.940474,20.09759 22.043105,11.32322 32.158766,21.979434 L 37.068811,17.246167 C 37.068811,17.246167 37.088388,32 37.088388,32 L 22.160133,31.978069 C 22.160133,31.978069 26.997745,27.140456 26.997745,27.140456 C 18.528582,18.264221 13.291696,25.230495 11.500037,31.436501 z"
             style="fill:#404040;"/>
          </a>
         </g>
        </svg>
</svg>
