<?xml version="1.0" encoding="UTF-8" standalone="no"?>
<!DOCTYPE svg PUBLIC "-//W3C//DTD SVG 1.1//EN"
 "http://www.w3.org/Graphics/SVG/1.1/DTD/svg11.dtd">
<!-- Generated by graphviz version 2.40.1 (0)
 -->
<!-- Title: PaletteItem::sipOrDipOrLabels Pages: 1 -->
<svg width="612pt" height="66pt"
 viewBox="0.00 0.00 612.00 66.00" xmlns="http://www.w3.org/2000/svg" xmlns:xlink="http://www.w3.org/1999/xlink">
<g id="graph0" class="graph" transform="scale(1 1) rotate(0) translate(4 62)">
<title>PaletteItem::sipOrDipOrLabels</title>
<polygon fill="#ffffff" stroke="transparent" points="-4,4 -4,-62 608,-62 608,4 -4,4"/>
<!-- Node2618 -->
<g id="node1" class="node">
<title>Node2618</title>
<g id="a_node1"><a xlink:title=" ">
<polygon fill="#bfbfbf" stroke="#000000" points="440,-19.5 440,-38.5 604,-38.5 604,-19.5 440,-19.5"/>
<text text-anchor="middle" x="522" y="-26.5" font-family="Helvetica,sans-Serif" font-size="10.00" fill="#000000">PaletteItem::sipOrDipOrLabels</text>
</a>
</g>
</g>
<!-- Node2619 -->
<g id="node2" class="node">
<title>Node2619</title>
<g id="a_node2"><a xlink:href="../../d3/d04/classPaletteItem.html#ab9446bc297ae14a183ca04295da5e1bb" target="_top" xlink:title=" ">
<polygon fill="#ffffff" stroke="#000000" points="207,-38.5 207,-57.5 404,-57.5 404,-38.5 207,-38.5"/>
<text text-anchor="middle" x="305.5" y="-45.5" font-family="Helvetica,sans-Serif" font-size="10.00" fill="#000000">PaletteItem::makeLocalModifications</text>
</a>
</g>
</g>
<!-- Node2618&#45;&gt;Node2619 -->
<g id="edge1" class="edge">
<title>Node2618&#45;&gt;Node2619</title>
<path fill="none" stroke="#191970" d="M429.687,-37.1014C421.2973,-37.8376 412.7771,-38.5854 404.3338,-39.3264"/>
<polygon fill="#191970" stroke="#191970" points="430.1862,-40.5711 439.8419,-36.2102 429.5742,-33.5979 430.1862,-40.5711"/>
</g>
<!-- Node2620 -->
<g id="node3" class="node">
<title>Node2620</title>
<g id="a_node3"><a xlink:href="../../d8/d37/classSketchWidget.html#a13848576920ea40b4d9af273933f51be" target="_top" xlink:title=" ">
<polygon fill="#ffffff" stroke="#000000" points="210.5,-.5 210.5,-19.5 400.5,-19.5 400.5,-.5 210.5,-.5"/>
<text text-anchor="middle" x="305.5" y="-7.5" font-family="Helvetica,sans-Serif" font-size="10.00" fill="#000000">SketchWidget::changePinLabelsSlot</text>
</a>
</g>
</g>
<!-- Node2618&#45;&gt;Node2620 -->
<g id="edge2" class="edge">
<title>Node2618&#45;&gt;Node2620</title>
<path fill="none" stroke="#191970" d="M429.8524,-20.9131C420.193,-20.0654 410.3586,-19.2024 400.6662,-18.3518"/>
<polygon fill="#191970" stroke="#191970" points="429.5742,-24.4021 439.8419,-21.7898 430.1862,-17.4289 429.5742,-24.4021"/>
</g>
<!-- Node2621 -->
<g id="node4" class="node">
<title>Node2621</title>
<g id="a_node4"><a xlink:href="../../d8/d37/classSketchWidget.html#a5ebb1251965016bb150a37f33333083a" target="_top" xlink:title=" ">
<polygon fill="#ffffff" stroke="#000000" points="0,-.5 0,-19.5 171,-19.5 171,-.5 0,-.5"/>
<text text-anchor="middle" x="85.5" y="-7.5" font-family="Helvetica,sans-Serif" font-size="10.00" fill="#000000">SketchWidget::changePinLabels</text>
</a>
</g>
</g>
<!-- Node2620&#45;&gt;Node2621 -->
<g id="edge3" class="edge">
<title>Node2620&#45;&gt;Node2621</title>
<path fill="none" stroke="#191970" d="M200.1815,-10C190.4576,-10 180.6849,-10 171.168,-10"/>
<polygon fill="#191970" stroke="#191970" points="200.2844,-13.5001 210.2843,-10 200.2843,-6.5001 200.2844,-13.5001"/>
</g>
</g>
</svg>
