<?xml version="1.0" encoding="UTF-8" standalone="no"?>
<!DOCTYPE svg PUBLIC "-//W3C//DTD SVG 1.1//EN"
 "http://www.w3.org/Graphics/SVG/1.1/DTD/svg11.dtd">
<!-- Generated by graphviz version 2.40.1 (0)
 -->
<!-- Title: sketch/fgraphicsscene.h Pages: 1 -->
<svg width="774pt" height="95pt"
 viewBox="0.00 0.00 773.50 95.00" xmlns="http://www.w3.org/2000/svg" xmlns:xlink="http://www.w3.org/1999/xlink">
<g id="graph0" class="graph" transform="scale(1 1) rotate(0) translate(4 91)">
<title>sketch/fgraphicsscene.h</title>
<polygon fill="#ffffff" stroke="transparent" points="-4,4 -4,-91 769.5,-91 769.5,4 -4,4"/>
<!-- Node31 -->
<g id="node1" class="node">
<title>Node31</title>
<g id="a_node1"><a xlink:title=" ">
<polygon fill="#bfbfbf" stroke="#000000" points="330,-67.5 330,-86.5 464,-86.5 464,-67.5 330,-67.5"/>
<text text-anchor="middle" x="397" y="-74.5" font-family="Helvetica,sans-Serif" font-size="10.00" fill="#000000">sketch/fgraphicsscene.h</text>
</a>
</g>
</g>
<!-- Node32 -->
<g id="node2" class="node">
<title>Node32</title>
<g id="a_node2"><a xlink:href="../../d8/dfb/mainwindow__export_8cpp.html" target="_top" xlink:title=" ">
<polygon fill="#ffffff" stroke="#000000" points="0,-.5 0,-30.5 144,-30.5 144,-.5 0,-.5"/>
<text text-anchor="start" x="8" y="-18.5" font-family="Helvetica,sans-Serif" font-size="10.00" fill="#000000">mainwindow/mainwindow</text>
<text text-anchor="middle" x="72" y="-7.5" font-family="Helvetica,sans-Serif" font-size="10.00" fill="#000000">_export.cpp</text>
</a>
</g>
</g>
<!-- Node31&#45;&gt;Node32 -->
<g id="edge1" class="edge">
<title>Node31&#45;&gt;Node32</title>
<path fill="none" stroke="#191970" d="M336.1738,-65.5805C286.8051,-56.3006 215.4024,-42.8528 153,-31 150.1868,-30.4657 147.3187,-29.9202 144.4216,-29.3686"/>
<polygon fill="#191970" stroke="#191970" points="335.579,-69.0299 346.0534,-67.4373 336.872,-62.1504 335.579,-69.0299"/>
</g>
<!-- Node33 -->
<g id="node3" class="node">
<title>Node33</title>
<g id="a_node3"><a xlink:href="../../d2/de1/mainwindow__menu_8cpp.html" target="_top" xlink:title=" ">
<polygon fill="#ffffff" stroke="#000000" points="162,-.5 162,-30.5 306,-30.5 306,-.5 162,-.5"/>
<text text-anchor="start" x="170" y="-18.5" font-family="Helvetica,sans-Serif" font-size="10.00" fill="#000000">mainwindow/mainwindow</text>
<text text-anchor="middle" x="234" y="-7.5" font-family="Helvetica,sans-Serif" font-size="10.00" fill="#000000">_menu.cpp</text>
</a>
</g>
</g>
<!-- Node31&#45;&gt;Node33 -->
<g id="edge2" class="edge">
<title>Node31&#45;&gt;Node33</title>
<path fill="none" stroke="#191970" d="M362.109,-63.8356C336.2202,-54.0678 300.8797,-40.7338 273.8743,-30.5446"/>
<polygon fill="#191970" stroke="#191970" points="360.9395,-67.1351 371.5313,-67.3906 363.4106,-60.5858 360.9395,-67.1351"/>
</g>
<!-- Node34 -->
<g id="node4" class="node">
<title>Node34</title>
<g id="a_node4"><a xlink:href="../../d5/dc7/fgraphicsscene_8cpp.html" target="_top" xlink:title=" ">
<polygon fill="#ffffff" stroke="#000000" points="324.5,-6 324.5,-25 469.5,-25 469.5,-6 324.5,-6"/>
<text text-anchor="middle" x="397" y="-13" font-family="Helvetica,sans-Serif" font-size="10.00" fill="#000000">sketch/fgraphicsscene.cpp</text>
</a>
</g>
</g>
<!-- Node31&#45;&gt;Node34 -->
<g id="edge3" class="edge">
<title>Node31&#45;&gt;Node34</title>
<path fill="none" stroke="#191970" d="M397,-57.2462C397,-46.5519 397,-33.814 397,-25.2449"/>
<polygon fill="#191970" stroke="#191970" points="393.5001,-57.3906 397,-67.3906 400.5001,-57.3907 393.5001,-57.3906"/>
</g>
<!-- Node35 -->
<g id="node5" class="node">
<title>Node35</title>
<g id="a_node5"><a xlink:href="../../d2/d98/sketchwidget_8cpp.html" target="_top" xlink:title=" ">
<polygon fill="#ffffff" stroke="#000000" points="488,-6 488,-25 624,-25 624,-6 488,-6"/>
<text text-anchor="middle" x="556" y="-13" font-family="Helvetica,sans-Serif" font-size="10.00" fill="#000000">sketch/sketchwidget.cpp</text>
</a>
</g>
</g>
<!-- Node31&#45;&gt;Node35 -->
<g id="edge4" class="edge">
<title>Node31&#45;&gt;Node35</title>
<path fill="none" stroke="#191970" d="M431.5205,-63.6477C461.6282,-52.0023 504.5637,-35.3952 531.3307,-25.0419"/>
<polygon fill="#191970" stroke="#191970" points="429.9078,-60.5188 421.8438,-67.3906 432.433,-67.0474 429.9078,-60.5188"/>
</g>
<!-- Node36 -->
<g id="node6" class="node">
<title>Node36</title>
<g id="a_node6"><a xlink:href="../../d3/d7b/resizehandle_8cpp.html" target="_top" xlink:title=" ">
<polygon fill="#ffffff" stroke="#000000" points="642.5,-6 642.5,-25 765.5,-25 765.5,-6 642.5,-6"/>
<text text-anchor="middle" x="704" y="-13" font-family="Helvetica,sans-Serif" font-size="10.00" fill="#000000">utils/resizehandle.cpp</text>
</a>
</g>
</g>
<!-- Node31&#45;&gt;Node36 -->
<g id="edge5" class="edge">
<title>Node31&#45;&gt;Node36</title>
<path fill="none" stroke="#191970" d="M457.5672,-65.5819C505.2843,-56.4928 573.462,-43.2997 633,-31 642.0197,-29.1367 651.6687,-27.0756 660.8546,-25.0812"/>
<polygon fill="#191970" stroke="#191970" points="456.8759,-62.1506 447.7059,-67.4573 458.1838,-69.0273 456.8759,-62.1506"/>
</g>
</g>
</svg>
