<?xml version="1.0" encoding="UTF-8" standalone="no"?>
<!DOCTYPE svg PUBLIC "-//W3C//DTD SVG 1.1//EN"
 "http://www.w3.org/Graphics/SVG/1.1/DTD/svg11.dtd">
<!-- Generated by graphviz version 2.40.1 (0)
 -->
<!-- Title: Connector::removeViewItem Pages: 1 -->
<svg width="348pt" height="127pt"
 viewBox="0.00 0.00 348.00 126.50" xmlns="http://www.w3.org/2000/svg" xmlns:xlink="http://www.w3.org/1999/xlink">
<g id="graph0" class="graph" transform="scale(1 1) rotate(0) translate(4 122.5)">
<title>Connector::removeViewItem</title>
<polygon fill="#ffffff" stroke="transparent" points="-4,4 -4,-122.5 344,-122.5 344,4 -4,4"/>
<!-- Node1351 -->
<g id="node1" class="node">
<title>Node1351</title>
<g id="a_node1"><a xlink:title=" ">
<polygon fill="#bfbfbf" stroke="#000000" points="0,-44.5 0,-63.5 156,-63.5 156,-44.5 0,-44.5"/>
<text text-anchor="middle" x="78" y="-51.5" font-family="Helvetica,sans-Serif" font-size="10.00" fill="#000000">Connector::removeViewItem</text>
</a>
</g>
</g>
<!-- Node1352 -->
<g id="node2" class="node">
<title>Node1352</title>
<g id="a_node2"><a xlink:href="../../dc/d3a/classConnectorItem.html#abdede51810abd3e7858b1020155f6b8e" target="_top" xlink:title=" ">
<polygon fill="#ffffff" stroke="#000000" points="192,-88 192,-118 340,-118 340,-88 192,-88"/>
<text text-anchor="start" x="200" y="-106" font-family="Helvetica,sans-Serif" font-size="10.00" fill="#000000">ConnectorItem::attachedTo</text>
<text text-anchor="middle" x="266" y="-95" font-family="Helvetica,sans-Serif" font-size="10.00" fill="#000000">ViewID</text>
</a>
</g>
</g>
<!-- Node1351&#45;&gt;Node1352 -->
<g id="edge1" class="edge">
<title>Node1351&#45;&gt;Node1352</title>
<path fill="none" stroke="#191970" d="M114.6946,-63.564C138.496,-69.7676 170.224,-78.0371 198.4772,-85.401"/>
<polygon fill="#191970" stroke="#191970" points="197.7477,-88.8277 208.3072,-87.963 199.5132,-82.054 197.7477,-88.8277"/>
</g>
<!-- Node1353 -->
<g id="node3" class="node">
<title>Node1353</title>
<g id="a_node3"><a xlink:href="../../dc/d3a/classConnectorItem.html#aa255a20e50fe55ef1b3726abcd357991" target="_top" xlink:title=" ">
<polygon fill="#ffffff" stroke="#000000" points="192,-39 192,-69 340,-69 340,-39 192,-39"/>
<text text-anchor="start" x="200" y="-57" font-family="Helvetica,sans-Serif" font-size="10.00" fill="#000000">ConnectorItem::attachedTo</text>
<text text-anchor="middle" x="266" y="-46" font-family="Helvetica,sans-Serif" font-size="10.00" fill="#000000">ViewLayerID</text>
</a>
</g>
</g>
<!-- Node1351&#45;&gt;Node1353 -->
<g id="edge2" class="edge">
<title>Node1351&#45;&gt;Node1353</title>
<path fill="none" stroke="#191970" d="M156.0957,-54C164.4872,-54 173.0529,-54 181.5147,-54"/>
<polygon fill="#191970" stroke="#191970" points="181.766,-57.5001 191.766,-54 181.7659,-50.5001 181.766,-57.5001"/>
</g>
<!-- Node1354 -->
<g id="node4" class="node">
<title>Node1354</title>
<g id="a_node4"><a xlink:href="../../de/db8/connector_8cpp.html#a013423dbd29908eae540e88ce191ead4" target="_top" xlink:title=" ">
<polygon fill="#ffffff" stroke="#000000" points="231.5,-.5 231.5,-19.5 300.5,-19.5 300.5,-.5 231.5,-.5"/>
<text text-anchor="middle" x="266" y="-7.5" font-family="Helvetica,sans-Serif" font-size="10.00" fill="#000000">QuickHash</text>
</a>
</g>
</g>
<!-- Node1351&#45;&gt;Node1354 -->
<g id="edge3" class="edge">
<title>Node1351&#45;&gt;Node1354</title>
<path fill="none" stroke="#191970" d="M118.7932,-44.4527C148.9679,-37.3905 190.0495,-27.7756 221.1468,-20.4975"/>
<polygon fill="#191970" stroke="#191970" points="222.3407,-23.8128 231.28,-18.126 220.7455,-16.997 222.3407,-23.8128"/>
</g>
</g>
</svg>
