<?xml version="1.0" encoding="UTF-8" standalone="no"?>
<!DOCTYPE svg PUBLIC "-//W3C//DTD SVG 1.1//EN"
 "http://www.w3.org/Graphics/SVG/1.1/DTD/svg11.dtd">
<!-- Generated by graphviz version 2.40.1 (0)
 -->
<!-- Title: findWhitespaceAtEnd Pages: 1 -->
<svg width="474pt" height="28pt"
 viewBox="0.00 0.00 474.00 28.00" xmlns="http://www.w3.org/2000/svg" xmlns:xlink="http://www.w3.org/1999/xlink">
<g id="graph0" class="graph" transform="scale(1 1) rotate(0) translate(4 24)">
<title>findWhitespaceAtEnd</title>
<polygon fill="#ffffff" stroke="transparent" points="-4,4 -4,-24 470,-24 470,4 -4,4"/>
<!-- Node9 -->
<g id="node1" class="node">
<title>Node9</title>
<g id="a_node1"><a xlink:title=" ">
<polygon fill="#bfbfbf" stroke="#000000" points="346,-.5 346,-19.5 466,-19.5 466,-.5 346,-.5"/>
<text text-anchor="middle" x="406" y="-7.5" font-family="Helvetica,sans-Serif" font-size="10.00" fill="#000000">findWhitespaceAtEnd</text>
</a>
</g>
</g>
<!-- Node10 -->
<g id="node2" class="node">
<title>Node10</title>
<g id="a_node2"><a xlink:href="../../d1/dca/classSVGPathLexer.html#ad2f7fbeef82dd7343ddc607baccd3c06" target="_top" xlink:title="remove unneeded whitespaces from d attribute data">
<polygon fill="#ffffff" stroke="#000000" points="194,-.5 194,-19.5 310,-19.5 310,-.5 194,-.5"/>
<text text-anchor="middle" x="252" y="-7.5" font-family="Helvetica,sans-Serif" font-size="10.00" fill="#000000">SVGPathLexer::clean</text>
</a>
</g>
</g>
<!-- Node9&#45;&gt;Node10 -->
<g id="edge1" class="edge">
<title>Node9&#45;&gt;Node10</title>
<path fill="none" stroke="#191970" d="M335.3875,-10C326.9697,-10 318.4494,-10 310.2328,-10"/>
<polygon fill="#191970" stroke="#191970" points="335.5772,-13.5001 345.5771,-10 335.5771,-6.5001 335.5772,-13.5001"/>
</g>
<!-- Node11 -->
<g id="node3" class="node">
<title>Node11</title>
<g id="a_node3"><a xlink:href="../../d1/dca/classSVGPathLexer.html#a70b0b25e65c0ac9dcf47df2358dc9c8c" target="_top" xlink:title=" ">
<polygon fill="#ffffff" stroke="#000000" points="0,-.5 0,-19.5 158,-19.5 158,-.5 0,-.5"/>
<text text-anchor="middle" x="79" y="-7.5" font-family="Helvetica,sans-Serif" font-size="10.00" fill="#000000">SVGPathLexer::SVGPathLexer</text>
</a>
</g>
</g>
<!-- Node10&#45;&gt;Node11 -->
<g id="edge2" class="edge">
<title>Node10&#45;&gt;Node11</title>
<path fill="none" stroke="#191970" d="M183.7871,-10C175.3692,-10 166.7091,-10 158.1459,-10"/>
<polygon fill="#191970" stroke="#191970" points="183.9123,-13.5001 193.9122,-10 183.9122,-6.5001 183.9123,-13.5001"/>
</g>
</g>
</svg>
