<?xml version="1.0" encoding="UTF-8" standalone="no"?>
<!DOCTYPE svg PUBLIC "-//W3C//DTD SVG 1.1//EN"
 "http://www.w3.org/Graphics/SVG/1.1/DTD/svg11.dtd">
<!-- Generated by graphviz version 2.40.1 (0)
 -->
<!-- Title: SingleConnectorInfoWidget::type Pages: 1 -->
<!--zoomable 137 -->
<svg id="main" version="1.1" xmlns="http://www.w3.org/2000/svg" xmlns:xlink="http://www.w3.org/1999/xlink" xml:space="preserve" onload="init(evt)">
<style type="text/css"><![CDATA[
.edge:hover path { stroke: red; }
.edge:hover polygon { stroke: red; fill: red; }
]]></style>
<script type="text/javascript"><![CDATA[
var edges = document.getElementsByTagName('g');
if (edges && edges.length) {
  for (var i=0;i<edges.length;i++) {
    if (edges[i].id.substr(0,4)=='edge') {
      edges[i].setAttribute('class','edge');
    }
  }
}
]]></script>
        <defs>
                <circle id="rim" cx="0" cy="0" r="7"/>
                <circle id="rim2" cx="0" cy="0" r="3.5"/>
                <g id="zoomPlus">
                        <use xlink:href="#rim" fill="#404040">
                                <set attributeName="fill" to="#808080" begin="zoomplus.mouseover" end="zoomplus.mouseout"/>
                        </use>
                        <path d="M-4,0h8M0,-4v8" fill="none" stroke="white" stroke-width="1.5" pointer-events="none"/>
                </g>
                <g id="zoomMin">
                        <use xlink:href="#rim" fill="#404040">
                                <set attributeName="fill" to="#808080" begin="zoomminus.mouseover" end="zoomminus.mouseout"/>
                        </use>
                        <path d="M-4,0h8" fill="none" stroke="white" stroke-width="1.5" pointer-events="none"/>
                </g>
                <g id="dirArrow">
                        <path fill="none" stroke="white" stroke-width="1.5" d="M0,-3.0v7 M-2.5,-0.5L0,-3.0L2.5,-0.5"/>
                </g>
               <g id="resetDef">
                       <use xlink:href="#rim2" fill="#404040">
                               <set attributeName="fill" to="#808080" begin="reset.mouseover" end="reset.mouseout"/>
                       </use>
               </g>
        </defs>

<script type="text/javascript">
var viewWidth = 670;
var viewHeight = 137;
var sectionId = 'dynsection-38';
</script>
<script xlink:href="../../svgpan.js"/>
<svg id="graph" class="graph">
<g id="viewport">
<title>SingleConnectorInfoWidget::type</title>
<polygon fill="#ffffff" stroke="transparent" points="-4,4 -4,-133 666,-133 666,4 -4,4"/>
<!-- Node277 -->
<g id="node1" class="node">
<title>Node277</title>
<g id="a_node1"><a xlink:title=" ">
<polygon fill="#bfbfbf" stroke="#000000" points="513,-49.5 513,-79.5 662,-79.5 662,-49.5 513,-49.5"/>
<text text-anchor="start" x="521" y="-67.5" font-family="Helvetica,sans-Serif" font-size="10.00" fill="#000000">SingleConnectorInfoWidget</text>
<text text-anchor="middle" x="587.5" y="-56.5" font-family="Helvetica,sans-Serif" font-size="10.00" fill="#000000">::type</text>
</a>
</g>
</g>
<!-- Node278 -->
<g id="node2" class="node">
<title>Node278</title>
<g id="a_node2"><a xlink:href="../../db/d0e/classConnectorsInfoWidget.html#adfe961cec8e5cfaabc1c3ef8a4923143" target="_top" xlink:title=" ">
<polygon fill="#ffffff" stroke="#000000" points="337,-98.5 337,-128.5 462,-128.5 462,-98.5 337,-98.5"/>
<text text-anchor="start" x="345" y="-116.5" font-family="Helvetica,sans-Serif" font-size="10.00" fill="#000000">ConnectorsInfoWidget</text>
<text text-anchor="middle" x="399.5" y="-105.5" font-family="Helvetica,sans-Serif" font-size="10.00" fill="#000000">::connectorsShared</text>
</a>
</g>
</g>
<!-- Node277&#45;&gt;Node278 -->
<g id="edge1" class="edge">
<title>Node277&#45;&gt;Node278</title>
<path fill="none" stroke="#191970" d="M519.8857,-82.1229C499.3176,-87.4837 476.9156,-93.3225 457.0748,-98.4938"/>
<polygon fill="#191970" stroke="#191970" points="521.0222,-85.4437 529.8162,-79.5346 519.2567,-78.67 521.0222,-85.4437"/>
</g>
<!-- Node279 -->
<g id="node3" class="node">
<title>Node279</title>
<g id="a_node3"><a xlink:href="../../dc/db2/classSingleConnectorInfoWidget.html#a9631b2154d0b49ab003be2ea5f4aef08" target="_top" xlink:title=" ">
<polygon fill="#ffffff" stroke="#000000" points="322,-49.5 322,-79.5 477,-79.5 477,-49.5 322,-49.5"/>
<text text-anchor="start" x="330" y="-67.5" font-family="Helvetica,sans-Serif" font-size="10.00" fill="#000000">SingleConnectorInfoWidget</text>
<text text-anchor="middle" x="399.5" y="-56.5" font-family="Helvetica,sans-Serif" font-size="10.00" fill="#000000">::SingleConnectorInfoWidget</text>
</a>
</g>
</g>
<!-- Node277&#45;&gt;Node279 -->
<g id="edge2" class="edge">
<title>Node277&#45;&gt;Node279</title>
<path fill="none" stroke="#191970" d="M502.8964,-64.5C494.2951,-64.5 485.5879,-64.5 477.0665,-64.5"/>
<polygon fill="#191970" stroke="#191970" points="502.9274,-68.0001 512.9274,-64.5 502.9274,-61.0001 502.9274,-68.0001"/>
</g>
<!-- Node280 -->
<g id="node4" class="node">
<title>Node280</title>
<g id="a_node4"><a xlink:href="../../dc/db2/classSingleConnectorInfoWidget.html#a897d1e65a420d6e906ce6b7727c69628" target="_top" xlink:title=" ">
<polygon fill="#ffffff" stroke="#000000" points="325,-.5 325,-30.5 474,-30.5 474,-.5 325,-.5"/>
<text text-anchor="start" x="333" y="-18.5" font-family="Helvetica,sans-Serif" font-size="10.00" fill="#000000">SingleConnectorInfoWidget</text>
<text text-anchor="middle" x="399.5" y="-7.5" font-family="Helvetica,sans-Serif" font-size="10.00" fill="#000000">::setConnectorType</text>
</a>
</g>
</g>
<!-- Node277&#45;&gt;Node280 -->
<g id="edge3" class="edge">
<title>Node277&#45;&gt;Node280</title>
<path fill="none" stroke="#191970" d="M519.8857,-46.8771C499.3176,-41.5163 476.9156,-35.6775 457.0748,-30.5062"/>
<polygon fill="#191970" stroke="#191970" points="519.2567,-50.33 529.8162,-49.4654 521.0222,-43.5563 519.2567,-50.33"/>
</g>
<!-- Node281 -->
<g id="node5" class="node">
<title>Node281</title>
<g id="a_node5"><a xlink:href="../../db/d0e/classConnectorsInfoWidget.html#af97d1931c10f3b2d1d50f0cad6c39ebd" target="_top" xlink:title=" ">
<polygon fill="#ffffff" stroke="#000000" points="161,-.5 161,-30.5 286,-30.5 286,-.5 161,-.5"/>
<text text-anchor="start" x="169" y="-18.5" font-family="Helvetica,sans-Serif" font-size="10.00" fill="#000000">ConnectorsInfoWidget</text>
<text text-anchor="middle" x="223.5" y="-7.5" font-family="Helvetica,sans-Serif" font-size="10.00" fill="#000000">::resetType</text>
</a>
</g>
</g>
<!-- Node280&#45;&gt;Node281 -->
<g id="edge4" class="edge">
<title>Node280&#45;&gt;Node281</title>
<path fill="none" stroke="#191970" d="M314.8015,-15.5C305.1117,-15.5 295.3685,-15.5 286.0427,-15.5"/>
<polygon fill="#191970" stroke="#191970" points="314.8602,-19.0001 324.8602,-15.5 314.8601,-12.0001 314.8602,-19.0001"/>
</g>
<!-- Node282 -->
<g id="node6" class="node">
<title>Node282</title>
<g id="a_node6"><a xlink:href="../../db/d0e/classConnectorsInfoWidget.html#a969bd2f4e4f354da9ff6c03abd97d93e" target="_top" xlink:title=" ">
<polygon fill="#ffffff" stroke="#000000" points="0,-.5 0,-30.5 125,-30.5 125,-.5 0,-.5"/>
<text text-anchor="start" x="8" y="-18.5" font-family="Helvetica,sans-Serif" font-size="10.00" fill="#000000">ConnectorsInfoWidget</text>
<text text-anchor="middle" x="62.5" y="-7.5" font-family="Helvetica,sans-Serif" font-size="10.00" fill="#000000">::syncNewConnectors</text>
</a>
</g>
</g>
<!-- Node281&#45;&gt;Node282 -->
<g id="edge5" class="edge">
<title>Node281&#45;&gt;Node282</title>
<path fill="none" stroke="#191970" d="M150.7816,-15.5C142.1871,-15.5 133.4732,-15.5 125.0367,-15.5"/>
<polygon fill="#191970" stroke="#191970" points="150.7922,-19.0001 160.7922,-15.5 150.7922,-12.0001 150.7922,-19.0001"/>
</g>
</g>
</svg>
        <g id="navigator" transform="translate(0 0)" fill="#404254">
                <rect fill="#f2f5e9" fill-opacity="0.5" stroke="#606060" stroke-width=".5" x="0" y="0" width="60" height="60"/>
                <use id="zoomplus" xlink:href="#zoomPlus" x="17" y="9" onmousedown="handleZoom(evt,'in')"/>
                <use id="zoomminus" xlink:href="#zoomMin" x="42" y="9" onmousedown="handleZoom(evt,'out')"/>
                <use id="reset" xlink:href="#resetDef" x="30" y="36" onmousedown="handleReset()"/>
                <g id="arrowUp" xlink:href="#dirArrow" transform="translate(30 24)" onmousedown="handlePan(0,-1)">
                  <use xlink:href="#rim" fill="#404040">
                        <set attributeName="fill" to="#808080" begin="arrowUp.mouseover" end="arrowUp.mouseout"/>
                  </use>
                  <path fill="none" stroke="white" stroke-width="1.5" d="M0,-3.0v7 M-2.5,-0.5L0,-3.0L2.5,-0.5"/>
                </g>
                <g id="arrowRight" xlink:href="#dirArrow" transform="rotate(90) translate(36 -43)" onmousedown="handlePan(1,0)">
                  <use xlink:href="#rim" fill="#404040">
                        <set attributeName="fill" to="#808080" begin="arrowRight.mouseover" end="arrowRight.mouseout"/>
                  </use>
                  <path fill="none" stroke="white" stroke-width="1.5" d="M0,-3.0v7 M-2.5,-0.5L0,-3.0L2.5,-0.5"/>
                </g>
                <g id="arrowDown" xlink:href="#dirArrow" transform="rotate(180) translate(-30 -48)" onmousedown="handlePan(0,1)">
                  <use xlink:href="#rim" fill="#404040">
                        <set attributeName="fill" to="#808080" begin="arrowDown.mouseover" end="arrowDown.mouseout"/>
                  </use>
                  <path fill="none" stroke="white" stroke-width="1.5" d="M0,-3.0v7 M-2.5,-0.5L0,-3.0L2.5,-0.5"/>
                </g>
                <g id="arrowLeft" xlink:href="#dirArrow" transform="rotate(270) translate(-36 17)" onmousedown="handlePan(-1,0)">
                  <use xlink:href="#rim" fill="#404040">
                        <set attributeName="fill" to="#808080" begin="arrowLeft.mouseover" end="arrowLeft.mouseout"/>
                  </use>
                  <path fill="none" stroke="white" stroke-width="1.5" d="M0,-3.0v7 M-2.5,-0.5L0,-3.0L2.5,-0.5"/>
                </g>
        </g>
        <svg viewBox="0 0 15 15" width="100%" height="30px" preserveAspectRatio="xMaxYMin meet">
         <g id="arrow_out" transform="scale(0.3 0.3)">
          <a xlink:href="classSingleConnectorInfoWidget_ad43e90bac15c6f0faf38de5a139e8217_icgraph_org.svg" target="_base">
           <rect id="button" ry="5" rx="5" y="6" x="6" height="38" width="38"
                fill="#f2f5e9" fill-opacity="0.5" stroke="#606060" stroke-width="1.0"/>
           <path id="arrow"
             d="M 11.500037,31.436501 C 11.940474,20.09759 22.043105,11.32322 32.158766,21.979434 L 37.068811,17.246167 C 37.068811,17.246167 37.088388,32 37.088388,32 L 22.160133,31.978069 C 22.160133,31.978069 26.997745,27.140456 26.997745,27.140456 C 18.528582,18.264221 13.291696,25.230495 11.500037,31.436501 z"
             style="fill:#404040;"/>
          </a>
         </g>
        </svg>
</svg>
