<?xml version="1.0" encoding="UTF-8" standalone="no"?>
<!DOCTYPE svg PUBLIC "-//W3C//DTD SVG 1.1//EN"
 "http://www.w3.org/Graphics/SVG/1.1/DTD/svg11.dtd">
<!-- Generated by graphviz version 2.40.1 (0)
 -->
<!-- Title: SingleConnectorInfoWidget::editionCanceled Pages: 1 -->
<svg width="712pt" height="39pt"
 viewBox="0.00 0.00 712.00 39.00" xmlns="http://www.w3.org/2000/svg" xmlns:xlink="http://www.w3.org/1999/xlink">
<g id="graph0" class="graph" transform="scale(1 1) rotate(0) translate(4 35)">
<title>SingleConnectorInfoWidget::editionCanceled</title>
<polygon fill="#ffffff" stroke="transparent" points="-4,4 -4,-35 708,-35 708,4 -4,4"/>
<!-- Node63 -->
<g id="node1" class="node">
<title>Node63</title>
<g id="a_node1"><a xlink:title=" ">
<polygon fill="#bfbfbf" stroke="#000000" points="555,-.5 555,-30.5 704,-30.5 704,-.5 555,-.5"/>
<text text-anchor="start" x="563" y="-18.5" font-family="Helvetica,sans-Serif" font-size="10.00" fill="#000000">SingleConnectorInfoWidget</text>
<text text-anchor="middle" x="629.5" y="-7.5" font-family="Helvetica,sans-Serif" font-size="10.00" fill="#000000">::editionCanceled</text>
</a>
</g>
</g>
<!-- Node64 -->
<g id="node2" class="node">
<title>Node64</title>
<g id="a_node2"><a xlink:href="../../dc/db2/classSingleConnectorInfoWidget.html#a237912ffca106cdb1a989b84d0215644" target="_top" xlink:title=" ">
<polygon fill="#ffffff" stroke="#000000" points="370,-.5 370,-30.5 519,-30.5 519,-.5 370,-.5"/>
<text text-anchor="start" x="378" y="-18.5" font-family="Helvetica,sans-Serif" font-size="10.00" fill="#000000">SingleConnectorInfoWidget</text>
<text text-anchor="middle" x="444.5" y="-7.5" font-family="Helvetica,sans-Serif" font-size="10.00" fill="#000000">::toEditionMode</text>
</a>
</g>
</g>
<!-- Node63&#45;&gt;Node64 -->
<g id="edge1" class="edge">
<title>Node63&#45;&gt;Node64</title>
<path fill="none" stroke="#191970" d="M544.5317,-15.5C536.0744,-15.5 527.5325,-15.5 519.1915,-15.5"/>
<polygon fill="#191970" stroke="#191970" points="544.7867,-19.0001 554.7867,-15.5 544.7866,-12.0001 544.7867,-19.0001"/>
</g>
<!-- Node65 -->
<g id="node3" class="node">
<title>Node65</title>
<g id="a_node3"><a xlink:href="../../dc/db2/classSingleConnectorInfoWidget.html#acf83c47f4fe85ebc58857af23557ce1b" target="_top" xlink:title=" ">
<polygon fill="#ffffff" stroke="#000000" points="185,-.5 185,-30.5 334,-30.5 334,-.5 185,-.5"/>
<text text-anchor="start" x="193" y="-18.5" font-family="Helvetica,sans-Serif" font-size="10.00" fill="#000000">SingleConnectorInfoWidget</text>
<text text-anchor="middle" x="259.5" y="-7.5" font-family="Helvetica,sans-Serif" font-size="10.00" fill="#000000">::startEdition</text>
</a>
</g>
</g>
<!-- Node64&#45;&gt;Node65 -->
<g id="edge2" class="edge">
<title>Node64&#45;&gt;Node65</title>
<path fill="none" stroke="#191970" d="M359.5317,-15.5C351.0744,-15.5 342.5325,-15.5 334.1915,-15.5"/>
<polygon fill="#191970" stroke="#191970" points="359.7867,-19.0001 369.7867,-15.5 359.7866,-12.0001 359.7867,-19.0001"/>
</g>
<!-- Node66 -->
<g id="node4" class="node">
<title>Node66</title>
<g id="a_node4"><a xlink:href="../../dc/db2/classSingleConnectorInfoWidget.html#aa1df7d8795dfb3929d934ecfccf89d9c" target="_top" xlink:title=" ">
<polygon fill="#ffffff" stroke="#000000" points="0,-.5 0,-30.5 149,-30.5 149,-.5 0,-.5"/>
<text text-anchor="start" x="8" y="-18.5" font-family="Helvetica,sans-Serif" font-size="10.00" fill="#000000">SingleConnectorInfoWidget</text>
<text text-anchor="middle" x="74.5" y="-7.5" font-family="Helvetica,sans-Serif" font-size="10.00" fill="#000000">::mousePressEvent</text>
</a>
</g>
</g>
<!-- Node65&#45;&gt;Node66 -->
<g id="edge3" class="edge">
<title>Node65&#45;&gt;Node66</title>
<path fill="none" stroke="#191970" d="M174.5317,-15.5C166.0744,-15.5 157.5325,-15.5 149.1915,-15.5"/>
<polygon fill="#191970" stroke="#191970" points="174.7867,-19.0001 184.7867,-15.5 174.7866,-12.0001 174.7867,-19.0001"/>
</g>
</g>
</svg>
