<?xml version="1.0" encoding="UTF-8" standalone="no"?>
<!DOCTYPE svg PUBLIC "-//W3C//DTD SVG 1.1//EN"
 "http://www.w3.org/Graphics/SVG/1.1/DTD/svg11.dtd">
<!-- Generated by graphviz version 2.40.1 (0)
 -->
<!-- Title: SingleConnectorInfoWidget::toStandardMode Pages: 1 -->
<svg width="501pt" height="88pt"
 viewBox="0.00 0.00 501.00 88.00" xmlns="http://www.w3.org/2000/svg" xmlns:xlink="http://www.w3.org/1999/xlink">
<g id="graph0" class="graph" transform="scale(1 1) rotate(0) translate(4 84)">
<title>SingleConnectorInfoWidget::toStandardMode</title>
<polygon fill="#ffffff" stroke="transparent" points="-4,4 -4,-84 497,-84 497,4 -4,4"/>
<!-- Node260 -->
<g id="node1" class="node">
<title>Node260</title>
<g id="a_node1"><a xlink:title=" ">
<polygon fill="#bfbfbf" stroke="#000000" points="0,-24.5 0,-54.5 149,-54.5 149,-24.5 0,-24.5"/>
<text text-anchor="start" x="8" y="-42.5" font-family="Helvetica,sans-Serif" font-size="10.00" fill="#000000">SingleConnectorInfoWidget</text>
<text text-anchor="middle" x="74.5" y="-31.5" font-family="Helvetica,sans-Serif" font-size="10.00" fill="#000000">::toStandardMode</text>
</a>
</g>
</g>
<!-- Node261 -->
<g id="node2" class="node">
<title>Node261</title>
<g id="a_node2"><a xlink:href="../../dc/db2/classSingleConnectorInfoWidget.html#ad77036a88eb7f7ac38e3f7b21eee55bd" target="_top" xlink:title=" ">
<polygon fill="#ffffff" stroke="#000000" points="185,-49.5 185,-79.5 334,-79.5 334,-49.5 185,-49.5"/>
<text text-anchor="start" x="193" y="-67.5" font-family="Helvetica,sans-Serif" font-size="10.00" fill="#000000">SingleConnectorInfoWidget</text>
<text text-anchor="middle" x="259.5" y="-56.5" font-family="Helvetica,sans-Serif" font-size="10.00" fill="#000000">::hideIfNeeded</text>
</a>
</g>
</g>
<!-- Node260&#45;&gt;Node261 -->
<g id="edge1" class="edge">
<title>Node260&#45;&gt;Node261</title>
<path fill="none" stroke="#191970" d="M149.2133,-49.5964C157.6464,-50.736 166.2845,-51.9033 174.8326,-53.0585"/>
<polygon fill="#191970" stroke="#191970" points="174.4299,-56.5358 184.8085,-54.4066 175.3674,-49.5988 174.4299,-56.5358"/>
</g>
<!-- Node262 -->
<g id="node3" class="node">
<title>Node262</title>
<g id="a_node3"><a xlink:href="../../dc/db2/classSingleConnectorInfoWidget.html#a47805ce3c1ee11a6e52c14ede74ef848" target="_top" xlink:title=" ">
<polygon fill="#ffffff" stroke="#000000" points="185,-.5 185,-30.5 334,-30.5 334,-.5 185,-.5"/>
<text text-anchor="start" x="193" y="-18.5" font-family="Helvetica,sans-Serif" font-size="10.00" fill="#000000">SingleConnectorInfoWidget</text>
<text text-anchor="middle" x="259.5" y="-7.5" font-family="Helvetica,sans-Serif" font-size="10.00" fill="#000000">::setInEditionMode</text>
</a>
</g>
</g>
<!-- Node260&#45;&gt;Node262 -->
<g id="edge2" class="edge">
<title>Node260&#45;&gt;Node262</title>
<path fill="none" stroke="#191970" d="M149.2133,-29.8075C157.6464,-28.7134 166.2845,-27.5928 174.8326,-26.4839"/>
<polygon fill="#191970" stroke="#191970" points="175.3419,-29.9472 184.8085,-25.1897 174.4413,-23.0054 175.3419,-29.9472"/>
</g>
<!-- Node263 -->
<g id="node4" class="node">
<title>Node263</title>
<g id="a_node4"><a xlink:href="../../d4/d16/classConnectorTypeWidget.html#a05ca803305ec617c7bd7183e2dcb92ce" target="_top" xlink:title=" ">
<polygon fill="#ffffff" stroke="#000000" points="370,-.5 370,-30.5 493,-30.5 493,-.5 370,-.5"/>
<text text-anchor="start" x="378" y="-18.5" font-family="Helvetica,sans-Serif" font-size="10.00" fill="#000000">ConnectorTypeWidget</text>
<text text-anchor="middle" x="431.5" y="-7.5" font-family="Helvetica,sans-Serif" font-size="10.00" fill="#000000">::setInEditionMode</text>
</a>
</g>
</g>
<!-- Node262&#45;&gt;Node263 -->
<g id="edge3" class="edge">
<title>Node262&#45;&gt;Node263</title>
<path fill="none" stroke="#191970" d="M334.1913,-15.5C342.6347,-15.5 351.2261,-15.5 359.6323,-15.5"/>
<polygon fill="#191970" stroke="#191970" points="359.7718,-19.0001 369.7718,-15.5 359.7718,-12.0001 359.7718,-19.0001"/>
</g>
</g>
</svg>
