<?xml version="1.0" encoding="UTF-8" standalone="no"?>
<!DOCTYPE svg PUBLIC "-//W3C//DTD SVG 1.1//EN"
 "http://www.w3.org/Graphics/SVG/1.1/DTD/svg11.dtd">
<!-- Generated by graphviz version 2.40.1 (0)
 -->
<!-- Title: JumperItem::alignMe Pages: 1 -->
<svg width="540pt" height="28pt"
 viewBox="0.00 0.00 540.00 28.00" xmlns="http://www.w3.org/2000/svg" xmlns:xlink="http://www.w3.org/1999/xlink">
<g id="graph0" class="graph" transform="scale(1 1) rotate(0) translate(4 24)">
<title>JumperItem::alignMe</title>
<polygon fill="#ffffff" stroke="transparent" points="-4,4 -4,-24 536,-24 536,4 -4,4"/>
<!-- Node24 -->
<g id="node1" class="node">
<title>Node24</title>
<g id="a_node1"><a xlink:title=" ">
<polygon fill="#bfbfbf" stroke="#000000" points="413,-.5 413,-19.5 532,-19.5 532,-.5 413,-.5"/>
<text text-anchor="middle" x="472.5" y="-7.5" font-family="Helvetica,sans-Serif" font-size="10.00" fill="#000000">JumperItem::alignMe</text>
</a>
</g>
</g>
<!-- Node25 -->
<g id="node2" class="node">
<title>Node25</title>
<g id="a_node2"><a xlink:href="../../d6/d39/classJumperItem.html#a32251236eae900734e332c0136056e18" target="_top" xlink:title=" ">
<polygon fill="#ffffff" stroke="#000000" points="210,-.5 210,-19.5 377,-19.5 377,-.5 210,-.5"/>
<text text-anchor="middle" x="293.5" y="-7.5" font-family="Helvetica,sans-Serif" font-size="10.00" fill="#000000">JumperItem::mouseMoveEvent</text>
</a>
</g>
</g>
<!-- Node24&#45;&gt;Node25 -->
<g id="edge1" class="edge">
<title>Node24&#45;&gt;Node25</title>
<path fill="none" stroke="#191970" d="M402.7648,-10C394.3419,-10 385.6731,-10 377.0776,-10"/>
<polygon fill="#191970" stroke="#191970" points="402.8956,-13.5001 412.8956,-10 402.8956,-6.5001 402.8956,-13.5001"/>
</g>
<!-- Node26 -->
<g id="node3" class="node">
<title>Node26</title>
<g id="a_node3"><a xlink:href="../../d6/d39/classJumperItem.html#af084fea6fcb9dfeeee77c445df0f7d9f" target="_top" xlink:title=" ">
<polygon fill="#ffffff" stroke="#000000" points="0,-.5 0,-19.5 174,-19.5 174,-.5 0,-.5"/>
<text text-anchor="middle" x="87" y="-7.5" font-family="Helvetica,sans-Serif" font-size="10.00" fill="#000000">JumperItem::mouseMoveEventK</text>
</a>
</g>
</g>
<!-- Node25&#45;&gt;Node26 -->
<g id="edge2" class="edge">
<title>Node25&#45;&gt;Node26</title>
<path fill="none" stroke="#191970" d="M199.554,-10C191.1023,-10 182.5668,-10 174.1765,-10"/>
<polygon fill="#191970" stroke="#191970" points="199.8063,-13.5001 209.8062,-10 199.8062,-6.5001 199.8063,-13.5001"/>
</g>
</g>
</svg>
