<?xml version="1.0" encoding="UTF-8" standalone="no"?>
<!DOCTYPE svg PUBLIC "-//W3C//DTD SVG 1.1//EN"
 "http://www.w3.org/Graphics/SVG/1.1/DTD/svg11.dtd">
<!-- Generated by graphviz version 2.40.1 (0)
 -->
<!-- Title: JumperItem::resizeAux Pages: 1 -->
<!--zoomable 66 -->
<svg id="main" version="1.1" xmlns="http://www.w3.org/2000/svg" xmlns:xlink="http://www.w3.org/1999/xlink" xml:space="preserve" onload="init(evt)">
<style type="text/css"><![CDATA[
.edge:hover path { stroke: red; }
.edge:hover polygon { stroke: red; fill: red; }
]]></style>
<script type="text/javascript"><![CDATA[
var edges = document.getElementsByTagName('g');
if (edges && edges.length) {
  for (var i=0;i<edges.length;i++) {
    if (edges[i].id.substr(0,4)=='edge') {
      edges[i].setAttribute('class','edge');
    }
  }
}
]]></script>
        <defs>
                <circle id="rim" cx="0" cy="0" r="7"/>
                <circle id="rim2" cx="0" cy="0" r="3.5"/>
                <g id="zoomPlus">
                        <use xlink:href="#rim" fill="#404040">
                                <set attributeName="fill" to="#808080" begin="zoomplus.mouseover" end="zoomplus.mouseout"/>
                        </use>
                        <path d="M-4,0h8M0,-4v8" fill="none" stroke="white" stroke-width="1.5" pointer-events="none"/>
                </g>
                <g id="zoomMin">
                        <use xlink:href="#rim" fill="#404040">
                                <set attributeName="fill" to="#808080" begin="zoomminus.mouseover" end="zoomminus.mouseout"/>
                        </use>
                        <path d="M-4,0h8" fill="none" stroke="white" stroke-width="1.5" pointer-events="none"/>
                </g>
                <g id="dirArrow">
                        <path fill="none" stroke="white" stroke-width="1.5" d="M0,-3.0v7 M-2.5,-0.5L0,-3.0L2.5,-0.5"/>
                </g>
               <g id="resetDef">
                       <use xlink:href="#rim2" fill="#404040">
                               <set attributeName="fill" to="#808080" begin="reset.mouseover" end="reset.mouseout"/>
                       </use>
               </g>
        </defs>

<script type="text/javascript">
var viewWidth = 806;
var viewHeight = 66;
var sectionId = 'dynsection-41';
</script>
<script xlink:href="../../svgpan.js"/>
<svg id="graph" class="graph">
<g id="viewport">
<title>JumperItem::resizeAux</title>
<polygon fill="#ffffff" stroke="transparent" points="-4,4 -4,-62 802,-62 802,4 -4,4"/>
<!-- Node814 -->
<g id="node1" class="node">
<title>Node814</title>
<g id="a_node1"><a xlink:title=" ">
<polygon fill="#bfbfbf" stroke="#000000" points="670,-19.5 670,-38.5 798,-38.5 798,-19.5 670,-19.5"/>
<text text-anchor="middle" x="734" y="-26.5" font-family="Helvetica,sans-Serif" font-size="10.00" fill="#000000">JumperItem::resizeAux</text>
</a>
</g>
</g>
<!-- Node815 -->
<g id="node2" class="node">
<title>Node815</title>
<g id="a_node2"><a xlink:href="../../d6/d39/classJumperItem.html#a8acc42bd0a684e7601612fb9e785a6e1" target="_top" xlink:title=" ">
<polygon fill="#ffffff" stroke="#000000" points="494,-38.5 494,-57.5 634,-57.5 634,-38.5 494,-38.5"/>
<text text-anchor="middle" x="564" y="-45.5" font-family="Helvetica,sans-Serif" font-size="10.00" fill="#000000">JumperItem::initialResize</text>
</a>
</g>
</g>
<!-- Node814&#45;&gt;Node815 -->
<g id="edge1" class="edge">
<title>Node814&#45;&gt;Node815</title>
<path fill="none" stroke="#191970" d="M659.7826,-37.2949C651.2326,-38.2505 642.5348,-39.2226 634.0426,-40.1717"/>
<polygon fill="#191970" stroke="#191970" points="660.181,-40.7722 669.7303,-36.1831 659.4034,-33.8156 660.181,-40.7722"/>
</g>
<!-- Node817 -->
<g id="node4" class="node">
<title>Node817</title>
<g id="a_node4"><a xlink:href="../../d6/d39/classJumperItem.html#a5583a63e80351513ccc83385256a1d48" target="_top" xlink:title=" ">
<polygon fill="#ffffff" stroke="#000000" points="509.5,-.5 509.5,-19.5 618.5,-19.5 618.5,-.5 509.5,-.5"/>
<text text-anchor="middle" x="564" y="-7.5" font-family="Helvetica,sans-Serif" font-size="10.00" fill="#000000">JumperItem::resize</text>
</a>
</g>
</g>
<!-- Node814&#45;&gt;Node817 -->
<g id="edge3" class="edge">
<title>Node814&#45;&gt;Node817</title>
<path fill="none" stroke="#191970" d="M659.7578,-20.7023C645.9394,-19.1579 631.7355,-17.5704 618.6388,-16.1067"/>
<polygon fill="#191970" stroke="#191970" points="659.4034,-24.1844 669.7303,-21.8169 660.181,-17.2278 659.4034,-24.1844"/>
</g>
<!-- Node816 -->
<g id="node3" class="node">
<title>Node816</title>
<g id="a_node3"><a xlink:href="../../d6/d39/classJumperItem.html#abbeba73dcdde2c42025f707c99bc4faf" target="_top" xlink:title=" ">
<polygon fill="#ffffff" stroke="#000000" points="319,-38.5 319,-57.5 458,-57.5 458,-38.5 319,-38.5"/>
<text text-anchor="middle" x="388.5" y="-45.5" font-family="Helvetica,sans-Serif" font-size="10.00" fill="#000000">JumperItem::setUpImage</text>
</a>
</g>
</g>
<!-- Node815&#45;&gt;Node816 -->
<g id="edge2" class="edge">
<title>Node815&#45;&gt;Node816</title>
<path fill="none" stroke="#191970" d="M483.6086,-48C475.1319,-48 466.563,-48 458.2212,-48"/>
<polygon fill="#191970" stroke="#191970" points="483.8812,-51.5001 493.8811,-48 483.8811,-44.5001 483.8812,-51.5001"/>
</g>
<!-- Node818 -->
<g id="node5" class="node">
<title>Node818</title>
<g id="a_node5"><a xlink:href="../../d1/d67/classMazeRouter.html#a1129f02e393730b42d04cdf7f9161006" target="_top" xlink:title=" ">
<polygon fill="#ffffff" stroke="#000000" points="320,-.5 320,-19.5 457,-19.5 457,-.5 320,-.5"/>
<text text-anchor="middle" x="388.5" y="-7.5" font-family="Helvetica,sans-Serif" font-size="10.00" fill="#000000">MazeRouter::createTrace</text>
</a>
</g>
</g>
<!-- Node817&#45;&gt;Node818 -->
<g id="edge4" class="edge">
<title>Node817&#45;&gt;Node818</title>
<path fill="none" stroke="#191970" d="M499.1736,-10C485.5235,-10 471.0776,-10 457.2878,-10"/>
<polygon fill="#191970" stroke="#191970" points="499.4328,-13.5001 509.4327,-10 499.4327,-6.5001 499.4328,-13.5001"/>
</g>
<!-- Node819 -->
<g id="node6" class="node">
<title>Node819</title>
<g id="a_node6"><a xlink:href="../../d1/d67/classMazeRouter.html#ad3096b9a4a1a5d2f7ffd05578924d4db" target="_top" xlink:title=" ">
<polygon fill="#ffffff" stroke="#000000" points="140,-.5 140,-19.5 283,-19.5 283,-.5 140,-.5"/>
<text text-anchor="middle" x="211.5" y="-7.5" font-family="Helvetica,sans-Serif" font-size="10.00" fill="#000000">MazeRouter::createTraces</text>
</a>
</g>
</g>
<!-- Node818&#45;&gt;Node819 -->
<g id="edge5" class="edge">
<title>Node818&#45;&gt;Node819</title>
<path fill="none" stroke="#191970" d="M309.5456,-10C300.7305,-10 291.7876,-10 283.0721,-10"/>
<polygon fill="#191970" stroke="#191970" points="309.8139,-13.5001 319.8138,-10 309.8138,-6.5001 309.8139,-13.5001"/>
</g>
<!-- Node820 -->
<g id="node7" class="node">
<title>Node820</title>
<g id="a_node7"><a xlink:href="../../d1/d67/classMazeRouter.html#a0e1c56746b837fa3e83bd6b9e9fcd309" target="_top" xlink:title=" ">
<polygon fill="#ffffff" stroke="#000000" points="0,-.5 0,-19.5 104,-19.5 104,-.5 0,-.5"/>
<text text-anchor="middle" x="52" y="-7.5" font-family="Helvetica,sans-Serif" font-size="10.00" fill="#000000">MazeRouter::start</text>
</a>
</g>
</g>
<!-- Node819&#45;&gt;Node820 -->
<g id="edge6" class="edge">
<title>Node819&#45;&gt;Node820</title>
<path fill="none" stroke="#191970" d="M129.6032,-10C121.01,-10 112.4501,-10 104.3229,-10"/>
<polygon fill="#191970" stroke="#191970" points="129.6822,-13.5001 139.6822,-10 129.6821,-6.5001 129.6822,-13.5001"/>
</g>
</g>
</svg>
        <g id="navigator" transform="translate(0 0)" fill="#404254">
                <rect fill="#f2f5e9" fill-opacity="0.5" stroke="#606060" stroke-width=".5" x="0" y="0" width="60" height="60"/>
                <use id="zoomplus" xlink:href="#zoomPlus" x="17" y="9" onmousedown="handleZoom(evt,'in')"/>
                <use id="zoomminus" xlink:href="#zoomMin" x="42" y="9" onmousedown="handleZoom(evt,'out')"/>
                <use id="reset" xlink:href="#resetDef" x="30" y="36" onmousedown="handleReset()"/>
                <g id="arrowUp" xlink:href="#dirArrow" transform="translate(30 24)" onmousedown="handlePan(0,-1)">
                  <use xlink:href="#rim" fill="#404040">
                        <set attributeName="fill" to="#808080" begin="arrowUp.mouseover" end="arrowUp.mouseout"/>
                  </use>
                  <path fill="none" stroke="white" stroke-width="1.5" d="M0,-3.0v7 M-2.5,-0.5L0,-3.0L2.5,-0.5"/>
                </g>
                <g id="arrowRight" xlink:href="#dirArrow" transform="rotate(90) translate(36 -43)" onmousedown="handlePan(1,0)">
                  <use xlink:href="#rim" fill="#404040">
                        <set attributeName="fill" to="#808080" begin="arrowRight.mouseover" end="arrowRight.mouseout"/>
                  </use>
                  <path fill="none" stroke="white" stroke-width="1.5" d="M0,-3.0v7 M-2.5,-0.5L0,-3.0L2.5,-0.5"/>
                </g>
                <g id="arrowDown" xlink:href="#dirArrow" transform="rotate(180) translate(-30 -48)" onmousedown="handlePan(0,1)">
                  <use xlink:href="#rim" fill="#404040">
                        <set attributeName="fill" to="#808080" begin="arrowDown.mouseover" end="arrowDown.mouseout"/>
                  </use>
                  <path fill="none" stroke="white" stroke-width="1.5" d="M0,-3.0v7 M-2.5,-0.5L0,-3.0L2.5,-0.5"/>
                </g>
                <g id="arrowLeft" xlink:href="#dirArrow" transform="rotate(270) translate(-36 17)" onmousedown="handlePan(-1,0)">
                  <use xlink:href="#rim" fill="#404040">
                        <set attributeName="fill" to="#808080" begin="arrowLeft.mouseover" end="arrowLeft.mouseout"/>
                  </use>
                  <path fill="none" stroke="white" stroke-width="1.5" d="M0,-3.0v7 M-2.5,-0.5L0,-3.0L2.5,-0.5"/>
                </g>
        </g>
        <svg viewBox="0 0 15 15" width="100%" height="30px" preserveAspectRatio="xMaxYMin meet">
         <g id="arrow_out" transform="scale(0.3 0.3)">
          <a xlink:href="classJumperItem_ab5fc470fc119de7a0765c3e5dcb19dac_icgraph_org.svg" target="_base">
           <rect id="button" ry="5" rx="5" y="6" x="6" height="38" width="38"
                fill="#f2f5e9" fill-opacity="0.5" stroke="#606060" stroke-width="1.0"/>
           <path id="arrow"
             d="M 11.500037,31.436501 C 11.940474,20.09759 22.043105,11.32322 32.158766,21.979434 L 37.068811,17.246167 C 37.068811,17.246167 37.088388,32 37.088388,32 L 22.160133,31.978069 C 22.160133,31.978069 26.997745,27.140456 26.997745,27.140456 C 18.528582,18.264221 13.291696,25.230495 11.500037,31.436501 z"
             style="fill:#404040;"/>
          </a>
         </g>
        </svg>
</svg>
