<?xml version="1.0" encoding="UTF-8" standalone="no"?>
<!DOCTYPE svg PUBLIC "-//W3C//DTD SVG 1.1//EN"
 "http://www.w3.org/Graphics/SVG/1.1/DTD/svg11.dtd">
<!-- Generated by graphviz version 2.40.1 (0)
 -->
<!-- Title: JumperItem::rotateItem Pages: 1 -->
<svg width="888pt" height="350pt"
 viewBox="0.00 0.00 888.00 350.00" xmlns="http://www.w3.org/2000/svg" xmlns:xlink="http://www.w3.org/1999/xlink">
<g id="graph0" class="graph" transform="scale(1 1) rotate(0) translate(4 346)">
<title>JumperItem::rotateItem</title>
<polygon fill="#ffffff" stroke="transparent" points="-4,4 -4,-346 884,-346 884,4 -4,4"/>
<!-- Node895 -->
<g id="node1" class="node">
<title>Node895</title>
<g id="a_node1"><a xlink:title=" ">
<polygon fill="#bfbfbf" stroke="#000000" points="0,-47.5 0,-66.5 131,-66.5 131,-47.5 0,-47.5"/>
<text text-anchor="middle" x="65.5" y="-54.5" font-family="Helvetica,sans-Serif" font-size="10.00" fill="#000000">JumperItem::rotateItem</text>
</a>
</g>
</g>
<!-- Node896 -->
<g id="node2" class="node">
<title>Node896</title>
<g id="a_node2"><a xlink:href="../../d6/d39/classJumperItem.html#ac6ff15db0e972704374cc3b01d95454e" target="_top" xlink:title=" ">
<polygon fill="#ffffff" stroke="#000000" points="178.5,-66.5 178.5,-85.5 287.5,-85.5 287.5,-66.5 178.5,-66.5"/>
<text text-anchor="middle" x="233" y="-73.5" font-family="Helvetica,sans-Serif" font-size="10.00" fill="#000000">JumperItem::resize</text>
</a>
</g>
</g>
<!-- Node895&#45;&gt;Node896 -->
<g id="edge1" class="edge">
<title>Node895&#45;&gt;Node896</title>
<path fill="none" stroke="#191970" d="M131.2197,-64.4548C143.3923,-65.8355 156.0984,-67.2768 168.2421,-68.6543"/>
<polygon fill="#191970" stroke="#191970" points="167.9556,-72.1442 178.2864,-69.7937 168.7447,-65.1888 167.9556,-72.1442"/>
</g>
<!-- Node910 -->
<g id="node16" class="node">
<title>Node910</title>
<g id="a_node16"><a xlink:href="../../d6/d39/classJumperItem.html#a550c7072f1da5acd58a990f73f9d5e23" target="_top" xlink:title=" ">
<polygon fill="#ffffff" stroke="#000000" points="167,-28.5 167,-47.5 299,-47.5 299,-28.5 167,-28.5"/>
<text text-anchor="middle" x="233" y="-35.5" font-family="Helvetica,sans-Serif" font-size="10.00" fill="#000000">JumperItem::rotateEnds</text>
</a>
</g>
</g>
<!-- Node895&#45;&gt;Node910 -->
<g id="edge17" class="edge">
<title>Node895&#45;&gt;Node910</title>
<path fill="none" stroke="#191970" d="M131.2197,-49.5452C139.6517,-48.5888 148.3397,-47.6033 156.9195,-46.63"/>
<polygon fill="#191970" stroke="#191970" points="157.378,-50.1006 166.9198,-45.4957 156.589,-43.1452 157.378,-50.1006"/>
</g>
<!-- Node897 -->
<g id="node3" class="node">
<title>Node897</title>
<g id="a_node3"><a xlink:href="../../d6/d39/classJumperItem.html#a5bf2510d48ca24e7769b11b06b139982" target="_top" xlink:title=" ">
<polygon fill="#ffffff" stroke="#000000" points="350,-170.5 350,-189.5 475,-189.5 475,-170.5 350,-170.5"/>
<text text-anchor="middle" x="412.5" y="-177.5" font-family="Helvetica,sans-Serif" font-size="10.00" fill="#000000">JumperItem::makeSvg</text>
</a>
</g>
</g>
<!-- Node896&#45;&gt;Node897 -->
<g id="edge2" class="edge">
<title>Node896&#45;&gt;Node897</title>
<path fill="none" stroke="#191970" d="M249.5652,-85.5977C281.0891,-103.8622 349.8855,-143.722 387.2065,-165.3453"/>
<polygon fill="#191970" stroke="#191970" points="385.5676,-168.4407 395.9749,-170.4255 389.0769,-162.3839 385.5676,-168.4407"/>
</g>
<!-- Node905 -->
<g id="node11" class="node">
<title>Node905</title>
<g id="a_node11"><a xlink:href="../../d4/d4f/classItemBase.html#a8f16baa26ee92ac6cd8dda5c69d759d4" target="_top" xlink:title=" ">
<polygon fill="#ffffff" stroke="#000000" points="547.5,-44.5 547.5,-63.5 677.5,-63.5 677.5,-44.5 547.5,-44.5"/>
<text text-anchor="middle" x="612.5" y="-51.5" font-family="Helvetica,sans-Serif" font-size="10.00" fill="#000000">ItemBase::viewLayerID</text>
</a>
</g>
</g>
<!-- Node896&#45;&gt;Node905 -->
<g id="edge16" class="edge">
<title>Node896&#45;&gt;Node905</title>
<path fill="none" stroke="#191970" d="M287.5169,-77.8998C302.872,-78.3544 319.5888,-78.7734 335,-79 403.8814,-80.0127 421.4598,-85.9226 490,-79 515.3962,-76.435 543.3097,-70.9511 566.0687,-65.7713"/>
<polygon fill="#191970" stroke="#191970" points="566.864,-69.1798 575.809,-63.5021 565.2757,-62.3624 566.864,-69.1798"/>
</g>
<!-- Node908 -->
<g id="node14" class="node">
<title>Node908</title>
<g id="a_node14"><a xlink:href="../../d4/d4f/classItemBase.html#ab1484692ebea9a39e103002ea06421ab" target="_top" xlink:title=" ">
<polygon fill="#ffffff" stroke="#000000" points="335,-39 335,-69 490,-69 490,-39 335,-39"/>
<text text-anchor="start" x="343" y="-57" font-family="Helvetica,sans-Serif" font-size="10.00" fill="#000000">ItemBase::prepareGeometry</text>
<text text-anchor="middle" x="412.5" y="-46" font-family="Helvetica,sans-Serif" font-size="10.00" fill="#000000">Change</text>
</a>
</g>
</g>
<!-- Node896&#45;&gt;Node908 -->
<g id="edge14" class="edge">
<title>Node896&#45;&gt;Node908</title>
<path fill="none" stroke="#191970" d="M287.8313,-69.2797C299.5461,-67.8439 312.2013,-66.2929 324.8025,-64.7484"/>
<polygon fill="#191970" stroke="#191970" points="325.378,-68.2042 334.8779,-63.5136 324.5263,-61.2562 325.378,-68.2042"/>
</g>
<!-- Node909 -->
<g id="node15" class="node">
<title>Node909</title>
<g id="a_node15"><a xlink:href="../../d4/d4f/classItemBase.html#a2d09a68296b51e8565634b49dc8f2358" target="_top" xlink:title=" ">
<polygon fill="#ffffff" stroke="#000000" points="343.5,-.5 343.5,-19.5 481.5,-19.5 481.5,-.5 343.5,-.5"/>
<text text-anchor="middle" x="412.5" y="-7.5" font-family="Helvetica,sans-Serif" font-size="10.00" fill="#000000">ItemBase::resetRenderer</text>
</a>
</g>
</g>
<!-- Node896&#45;&gt;Node909 -->
<g id="edge15" class="edge">
<title>Node896&#45;&gt;Node909</title>
<path fill="none" stroke="#191970" d="M275.1136,-66.4792C283.2555,-63.9207 291.561,-60.785 299,-57 317.0657,-47.808 316.7546,-37.83 335,-29 339.9879,-26.5861 345.3092,-24.4626 350.7379,-22.5978"/>
<polygon fill="#191970" stroke="#191970" points="352.0815,-25.8446 360.5767,-19.5136 349.9876,-19.1651 352.0815,-25.8446"/>
</g>
<!-- Node898 -->
<g id="node4" class="node">
<title>Node898</title>
<g id="a_node4"><a xlink:href="../../da/d44/jumperitem_8cpp.html#a3fa657853c4af2f678c52c29c6e0241e" target="_top" xlink:title=" ">
<polygon fill="#ffffff" stroke="#000000" points="564,-322.5 564,-341.5 661,-341.5 661,-322.5 564,-322.5"/>
<text text-anchor="middle" x="612.5" y="-329.5" font-family="Helvetica,sans-Serif" font-size="10.00" fill="#000000">makeWireImage</text>
</a>
</g>
</g>
<!-- Node897&#45;&gt;Node898 -->
<g id="edge3" class="edge">
<title>Node897&#45;&gt;Node898</title>
<path fill="none" stroke="#191970" d="M417.6609,-189.5578C431.559,-214.3152 472.3749,-280.8351 526,-313 534.5046,-318.1011 544.2147,-321.8379 553.983,-324.574"/>
<polygon fill="#191970" stroke="#191970" points="553.1798,-327.9807 563.7282,-326.99 554.8643,-321.1864 553.1798,-327.9807"/>
</g>
<!-- Node899 -->
<g id="node5" class="node">
<title>Node899</title>
<g id="a_node5"><a xlink:href="../../d4/d4f/classItemBase.html#acc2f5bad42928e7178c28fa0771b1f60" target="_top" xlink:title=" ">
<polygon fill="#ffffff" stroke="#000000" points="553,-284.5 553,-303.5 672,-303.5 672,-284.5 553,-284.5"/>
<text text-anchor="middle" x="612.5" y="-291.5" font-family="Helvetica,sans-Serif" font-size="10.00" fill="#000000">ItemBase::modelPart</text>
</a>
</g>
</g>
<!-- Node897&#45;&gt;Node899 -->
<g id="edge4" class="edge">
<title>Node897&#45;&gt;Node899</title>
<path fill="none" stroke="#191970" d="M420.8319,-189.5502C438.278,-208.9046 480.7938,-252.796 526,-275 531.3046,-277.6055 536.9663,-279.8569 542.7583,-281.8018"/>
<polygon fill="#191970" stroke="#191970" points="542.0029,-285.2303 552.5888,-284.794 544.0413,-278.5337 542.0029,-285.2303"/>
</g>
<!-- Node900 -->
<g id="node6" class="node">
<title>Node900</title>
<g id="a_node6"><a xlink:href="../../d7/dfe/classGraphicsUtils.html#a9ebb3302d93618db6746d43b7d53850e" target="_top" xlink:title=" ">
<polygon fill="#ffffff" stroke="#000000" points="544,-246.5 544,-265.5 681,-265.5 681,-246.5 544,-246.5"/>
<text text-anchor="middle" x="612.5" y="-253.5" font-family="Helvetica,sans-Serif" font-size="10.00" fill="#000000">GraphicsUtils::pixels2ins</text>
</a>
</g>
</g>
<!-- Node897&#45;&gt;Node900 -->
<g id="edge5" class="edge">
<title>Node897&#45;&gt;Node900</title>
<path fill="none" stroke="#191970" d="M430.9944,-189.5816C453.1497,-200.798 491.5926,-219.4352 526,-232 537.8977,-236.3448 550.9593,-240.3498 563.2467,-243.7929"/>
<polygon fill="#191970" stroke="#191970" points="562.3289,-247.1703 572.8978,-246.4294 564.1737,-240.4178 562.3289,-247.1703"/>
</g>
<!-- Node901 -->
<g id="node7" class="node">
<title>Node901</title>
<g id="a_node7"><a xlink:href="../../d7/dfe/classGraphicsUtils.html#aae1c13856f597c6370e8cb2255cefe19" target="_top" xlink:title=" ">
<polygon fill="#ffffff" stroke="#000000" points="736,-189.5 736,-208.5 879,-208.5 879,-189.5 736,-189.5"/>
<text text-anchor="middle" x="807.5" y="-196.5" font-family="Helvetica,sans-Serif" font-size="10.00" fill="#000000">GraphicsUtils::pixels2mils</text>
</a>
</g>
</g>
<!-- Node897&#45;&gt;Node901 -->
<g id="edge6" class="edge">
<title>Node897&#45;&gt;Node901</title>
<path fill="none" stroke="#191970" d="M458.668,-189.5125C479.1883,-193.278 503.7004,-197.1464 526,-199 593.0554,-204.5738 669.4065,-204.1522 725.6591,-202.5719"/>
<polygon fill="#191970" stroke="#191970" points="726.0313,-206.0624 735.922,-202.2646 725.8217,-199.0656 726.0313,-206.0624"/>
</g>
<!-- Node902 -->
<g id="node8" class="node">
<title>Node902</title>
<g id="a_node8"><a xlink:href="../../d4/d72/classModelPart.html#af99e77ea33c73511b7ffd3ba1bd9aa12" target="_top" xlink:title=" ">
<polygon fill="#ffffff" stroke="#000000" points="545.5,-170.5 545.5,-189.5 679.5,-189.5 679.5,-170.5 545.5,-170.5"/>
<text text-anchor="middle" x="612.5" y="-177.5" font-family="Helvetica,sans-Serif" font-size="10.00" fill="#000000">ModelPart::setLocalProp</text>
</a>
</g>
</g>
<!-- Node897&#45;&gt;Node902 -->
<g id="edge7" class="edge">
<title>Node897&#45;&gt;Node902</title>
<path fill="none" stroke="#191970" d="M475.2325,-180C494.2553,-180 515.3777,-180 535.2369,-180"/>
<polygon fill="#191970" stroke="#191970" points="535.489,-183.5001 545.489,-180 535.4889,-176.5001 535.489,-183.5001"/>
</g>
<!-- Node903 -->
<g id="node9" class="node">
<title>Node903</title>
<g id="a_node9"><a xlink:href="../../da/d44/jumperitem_8cpp.html#a4fd5bc6bf8593077bfa7919c67a3d3e0" target="_top" xlink:title=" ">
<polygon fill="#ffffff" stroke="#000000" points="586,-132.5 586,-151.5 639,-151.5 639,-132.5 586,-132.5"/>
<text text-anchor="middle" x="612.5" y="-139.5" font-family="Helvetica,sans-Serif" font-size="10.00" fill="#000000">shorten</text>
</a>
</g>
</g>
<!-- Node897&#45;&gt;Node903 -->
<g id="edge8" class="edge">
<title>Node897&#45;&gt;Node903</title>
<path fill="none" stroke="#191970" d="M462.7103,-170.46C497.8484,-163.7838 543.9978,-155.0154 575.7359,-148.9852"/>
<polygon fill="#191970" stroke="#191970" points="576.7392,-152.3573 585.9101,-147.0521 575.4325,-145.4803 576.7392,-152.3573"/>
</g>
<!-- Node897&#45;&gt;Node905 -->
<g id="edge11" class="edge">
<title>Node897&#45;&gt;Node905</title>
<path fill="none" stroke="#191970" d="M424.0882,-170.4092C439.5025,-157.5231 467.4313,-133.7231 490,-112 506.7615,-95.8666 505.8086,-85.556 526,-74 530.7658,-71.2725 535.8802,-68.9167 541.1541,-66.8822"/>
<polygon fill="#191970" stroke="#191970" points="542.4701,-70.1305 550.7782,-63.5558 540.1834,-63.5145 542.4701,-70.1305"/>
</g>
<!-- Node906 -->
<g id="node12" class="node">
<title>Node906</title>
<g id="a_node12"><a xlink:href="../../d5/d9d/classViewLayer.html#a57a288e6d73ae234b8a739f20964e026" target="_top" xlink:title=" ">
<polygon fill="#ffffff" stroke="#000000" points="526,-83 526,-113 699,-113 699,-83 526,-83"/>
<text text-anchor="start" x="534" y="-101" font-family="Helvetica,sans-Serif" font-size="10.00" fill="#000000">ViewLayer::viewLayerXmlName</text>
<text text-anchor="middle" x="612.5" y="-90" font-family="Helvetica,sans-Serif" font-size="10.00" fill="#000000">FromID</text>
</a>
</g>
</g>
<!-- Node897&#45;&gt;Node906 -->
<g id="edge12" class="edge">
<title>Node897&#45;&gt;Node906</title>
<path fill="none" stroke="#191970" d="M429.3553,-170.2981C451.1353,-158.0535 490.4816,-136.9146 526,-123 532.1608,-120.5865 538.6492,-118.2876 545.1882,-116.1314"/>
<polygon fill="#191970" stroke="#191970" points="546.3072,-119.4483 554.7728,-113.0778 544.1822,-112.7787 546.3072,-119.4483"/>
</g>
<!-- Node903&#45;&gt;Node901 -->
<g id="edge9" class="edge">
<title>Node903&#45;&gt;Node901</title>
<path fill="none" stroke="#191970" d="M639.207,-146.9997C656.4091,-150.4325 679.1799,-155.3746 699,-161 724.1944,-168.1507 752.0672,-177.9547 773.2533,-185.8132"/>
<polygon fill="#191970" stroke="#191970" points="772.1864,-189.1511 782.7787,-189.3823 774.6425,-182.5961 772.1864,-189.1511"/>
</g>
<!-- Node904 -->
<g id="node10" class="node">
<title>Node904</title>
<g id="a_node10"><a xlink:href="../../d7/dfe/classGraphicsUtils.html#a6871188db62e8f636440f994911b14a3" target="_top" xlink:title=" ">
<polygon fill="#ffffff" stroke="#000000" points="735,-132.5 735,-151.5 880,-151.5 880,-132.5 735,-132.5"/>
<text text-anchor="middle" x="807.5" y="-139.5" font-family="Helvetica,sans-Serif" font-size="10.00" fill="#000000">GraphicsUtils::shortenLine</text>
</a>
</g>
</g>
<!-- Node903&#45;&gt;Node904 -->
<g id="edge10" class="edge">
<title>Node903&#45;&gt;Node904</title>
<path fill="none" stroke="#191970" d="M639.205,-142C661.3216,-142 693.9824,-142 724.6614,-142"/>
<polygon fill="#191970" stroke="#191970" points="724.9715,-145.5001 734.9715,-142 724.9715,-138.5001 724.9715,-145.5001"/>
</g>
<!-- Node907 -->
<g id="node13" class="node">
<title>Node907</title>
<g id="a_node13"><a xlink:href="../../d5/d9d/classViewLayer.html#acda6179880454250f27ee4ed167b6983" target="_top" xlink:title=" ">
<polygon fill="#ffffff" stroke="#000000" points="740.5,-88.5 740.5,-107.5 874.5,-107.5 874.5,-88.5 740.5,-88.5"/>
<text text-anchor="middle" x="807.5" y="-95.5" font-family="Helvetica,sans-Serif" font-size="10.00" fill="#000000">ViewLayer::viewLayerID</text>
</a>
</g>
</g>
<!-- Node906&#45;&gt;Node907 -->
<g id="edge13" class="edge">
<title>Node906&#45;&gt;Node907</title>
<path fill="none" stroke="#191970" d="M699.1654,-98C709.5407,-98 720.0816,-98 730.3105,-98"/>
<polygon fill="#191970" stroke="#191970" points="730.4177,-101.5001 740.4176,-98 730.4176,-94.5001 730.4177,-101.5001"/>
</g>
</g>
</svg>
