<?xml version="1.0" encoding="UTF-8" standalone="no"?>
<!DOCTYPE svg PUBLIC "-//W3C//DTD SVG 1.1//EN"
 "http://www.w3.org/Graphics/SVG/1.1/DTD/svg11.dtd">
<!-- Generated by graphviz version 2.40.1 (0)
 -->
<!-- Title: JumperItem::getAutoroutable Pages: 1 -->
<svg width="522pt" height="28pt"
 viewBox="0.00 0.00 522.00 28.00" xmlns="http://www.w3.org/2000/svg" xmlns:xlink="http://www.w3.org/1999/xlink">
<g id="graph0" class="graph" transform="scale(1 1) rotate(0) translate(4 24)">
<title>JumperItem::getAutoroutable</title>
<polygon fill="#ffffff" stroke="transparent" points="-4,4 -4,-24 518,-24 518,4 -4,4"/>
<!-- Node101 -->
<g id="node1" class="node">
<title>Node101</title>
<g id="a_node1"><a xlink:title=" ">
<polygon fill="#bfbfbf" stroke="#000000" points="356,-.5 356,-19.5 514,-19.5 514,-.5 356,-.5"/>
<text text-anchor="middle" x="435" y="-7.5" font-family="Helvetica,sans-Serif" font-size="10.00" fill="#000000">JumperItem::getAutoroutable</text>
</a>
</g>
</g>
<!-- Node102 -->
<g id="node2" class="node">
<title>Node102</title>
<g id="a_node2"><a xlink:href="../../d1/d67/classMazeRouter.html#a7c672d26ec97e1a528d21da49d3761ae" target="_top" xlink:title=" ">
<polygon fill="#ffffff" stroke="#000000" points="140,-.5 140,-19.5 320,-19.5 320,-.5 140,-.5"/>
<text text-anchor="middle" x="230" y="-7.5" font-family="Helvetica,sans-Serif" font-size="10.00" fill="#000000">MazeRouter::removeOffBoardAnd</text>
</a>
</g>
</g>
<!-- Node101&#45;&gt;Node102 -->
<g id="edge1" class="edge">
<title>Node101&#45;&gt;Node102</title>
<path fill="none" stroke="#191970" d="M345.5882,-10C337.2032,-10 328.6995,-10 320.3064,-10"/>
<polygon fill="#191970" stroke="#191970" points="345.7417,-13.5001 355.7416,-10 345.7416,-6.5001 345.7417,-13.5001"/>
</g>
<!-- Node103 -->
<g id="node3" class="node">
<title>Node103</title>
<g id="a_node3"><a xlink:href="../../d1/d67/classMazeRouter.html#a0e1c56746b837fa3e83bd6b9e9fcd309" target="_top" xlink:title=" ">
<polygon fill="#ffffff" stroke="#000000" points="0,-.5 0,-19.5 104,-19.5 104,-.5 0,-.5"/>
<text text-anchor="middle" x="52" y="-7.5" font-family="Helvetica,sans-Serif" font-size="10.00" fill="#000000">MazeRouter::start</text>
</a>
</g>
</g>
<!-- Node102&#45;&gt;Node103 -->
<g id="edge2" class="edge">
<title>Node102&#45;&gt;Node103</title>
<path fill="none" stroke="#191970" d="M129.9375,-10C121.1018,-10 112.4139,-10 104.2294,-10"/>
<polygon fill="#191970" stroke="#191970" points="129.9571,-13.5001 139.9571,-10 129.957,-6.5001 129.9571,-13.5001"/>
</g>
</g>
</svg>
