<?xml version="1.0" encoding="UTF-8" standalone="no"?>
<!DOCTYPE svg PUBLIC "-//W3C//DTD SVG 1.1//EN"
 "http://www.w3.org/Graphics/SVG/1.1/DTD/svg11.dtd">
<!-- Generated by graphviz version 2.40.1 (0)
 -->
<!-- Title: AbstractEditableLabelWidget::editionStarted Pages: 1 -->
<!--zoomable 186 -->
<svg id="main" version="1.1" xmlns="http://www.w3.org/2000/svg" xmlns:xlink="http://www.w3.org/1999/xlink" xml:space="preserve" onload="init(evt)">
<style type="text/css"><![CDATA[
.edge:hover path { stroke: red; }
.edge:hover polygon { stroke: red; fill: red; }
]]></style>
<script type="text/javascript"><![CDATA[
var edges = document.getElementsByTagName('g');
if (edges && edges.length) {
  for (var i=0;i<edges.length;i++) {
    if (edges[i].id.substr(0,4)=='edge') {
      edges[i].setAttribute('class','edge');
    }
  }
}
]]></script>
        <defs>
                <circle id="rim" cx="0" cy="0" r="7"/>
                <circle id="rim2" cx="0" cy="0" r="3.5"/>
                <g id="zoomPlus">
                        <use xlink:href="#rim" fill="#404040">
                                <set attributeName="fill" to="#808080" begin="zoomplus.mouseover" end="zoomplus.mouseout"/>
                        </use>
                        <path d="M-4,0h8M0,-4v8" fill="none" stroke="white" stroke-width="1.5" pointer-events="none"/>
                </g>
                <g id="zoomMin">
                        <use xlink:href="#rim" fill="#404040">
                                <set attributeName="fill" to="#808080" begin="zoomminus.mouseover" end="zoomminus.mouseout"/>
                        </use>
                        <path d="M-4,0h8" fill="none" stroke="white" stroke-width="1.5" pointer-events="none"/>
                </g>
                <g id="dirArrow">
                        <path fill="none" stroke="white" stroke-width="1.5" d="M0,-3.0v7 M-2.5,-0.5L0,-3.0L2.5,-0.5"/>
                </g>
               <g id="resetDef">
                       <use xlink:href="#rim2" fill="#404040">
                               <set attributeName="fill" to="#808080" begin="reset.mouseover" end="reset.mouseout"/>
                       </use>
               </g>
        </defs>

<script type="text/javascript">
var viewWidth = 554;
var viewHeight = 186;
var sectionId = 'dynsection-7';
</script>
<script xlink:href="../../svgpan.js"/>
<svg id="graph" class="graph">
<g id="viewport">
<title>AbstractEditableLabelWidget::editionStarted</title>
<polygon fill="#ffffff" stroke="transparent" points="-4,4 -4,-182 550,-182 550,4 -4,4"/>
<!-- Node36 -->
<g id="node1" class="node">
<title>Node36</title>
<g id="a_node1"><a xlink:title=" ">
<polygon fill="#bfbfbf" stroke="#000000" points="0,-98.5 0,-128.5 158,-128.5 158,-98.5 0,-98.5"/>
<text text-anchor="start" x="8" y="-116.5" font-family="Helvetica,sans-Serif" font-size="10.00" fill="#000000">AbstractEditableLabelWidget</text>
<text text-anchor="middle" x="79" y="-105.5" font-family="Helvetica,sans-Serif" font-size="10.00" fill="#000000">::editionStarted</text>
</a>
</g>
</g>
<!-- Node37 -->
<g id="node2" class="node">
<title>Node37</title>
<g id="a_node2"><a xlink:href="../../d4/def/classAbstractEditableLabelWidget.html#a0e75a7aa370d7774ac6a74459ee7d8d5" target="_top" xlink:title=" ">
<polygon fill="#ffffff" stroke="#000000" points="194,-147.5 194,-177.5 352,-177.5 352,-147.5 194,-147.5"/>
<text text-anchor="start" x="202" y="-165.5" font-family="Helvetica,sans-Serif" font-size="10.00" fill="#000000">AbstractEditableLabelWidget</text>
<text text-anchor="middle" x="273" y="-154.5" font-family="Helvetica,sans-Serif" font-size="10.00" fill="#000000">::setEditionText</text>
</a>
</g>
</g>
<!-- Node36&#45;&gt;Node37 -->
<g id="edge1" class="edge">
<title>Node36&#45;&gt;Node37</title>
<path fill="none" stroke="#191970" d="M138.5248,-128.5346C159.1016,-133.7318 182.3371,-139.6006 203.6336,-144.9796"/>
<polygon fill="#191970" stroke="#191970" points="203.0351,-148.4383 213.5878,-147.4938 204.7494,-141.6514 203.0351,-148.4383"/>
</g>
<!-- Node38 -->
<g id="node3" class="node">
<title>Node38</title>
<g id="a_node3"><a xlink:href="../../d4/def/classAbstractEditableLabelWidget.html#aa10553705ceb29db08dd82763fa7e373" target="_top" xlink:title=" ">
<polygon fill="#ffffff" stroke="#000000" points="194,-98.5 194,-128.5 352,-128.5 352,-98.5 194,-98.5"/>
<text text-anchor="start" x="202" y="-116.5" font-family="Helvetica,sans-Serif" font-size="10.00" fill="#000000">AbstractEditableLabelWidget</text>
<text text-anchor="middle" x="273" y="-105.5" font-family="Helvetica,sans-Serif" font-size="10.00" fill="#000000">::text</text>
</a>
</g>
</g>
<!-- Node36&#45;&gt;Node38 -->
<g id="edge2" class="edge">
<title>Node36&#45;&gt;Node38</title>
<path fill="none" stroke="#191970" d="M158.187,-113.5C166.5295,-113.5 175.054,-113.5 183.5021,-113.5"/>
<polygon fill="#191970" stroke="#191970" points="183.7518,-117.0001 193.7517,-113.5 183.7517,-110.0001 183.7518,-117.0001"/>
</g>
<!-- Node39 -->
<g id="node4" class="node">
<title>Node39</title>
<g id="a_node4"><a xlink:href="../../d4/def/classAbstractEditableLabelWidget.html#a413f269887e1fc94a1a58c7a1dc6a8c2" target="_top" xlink:title=" ">
<polygon fill="#ffffff" stroke="#000000" points="194,-49.5 194,-79.5 352,-79.5 352,-49.5 194,-49.5"/>
<text text-anchor="start" x="202" y="-67.5" font-family="Helvetica,sans-Serif" font-size="10.00" fill="#000000">AbstractEditableLabelWidget</text>
<text text-anchor="middle" x="273" y="-56.5" font-family="Helvetica,sans-Serif" font-size="10.00" fill="#000000">::toEditionMode</text>
</a>
</g>
</g>
<!-- Node36&#45;&gt;Node39 -->
<g id="edge3" class="edge">
<title>Node36&#45;&gt;Node39</title>
<path fill="none" stroke="#191970" d="M138.5248,-98.4654C159.1016,-93.2682 182.3371,-87.3994 203.6336,-82.0204"/>
<polygon fill="#191970" stroke="#191970" points="204.7494,-85.3486 213.5878,-79.5062 203.0351,-78.5617 204.7494,-85.3486"/>
</g>
<!-- Node40 -->
<g id="node5" class="node">
<title>Node40</title>
<g id="a_node5"><a xlink:href="../../d4/def/classAbstractEditableLabelWidget.html#aa091b2379ea08081b1513474eeb0ad08" target="_top" xlink:title=" ">
<polygon fill="#ffffff" stroke="#000000" points="388,-98.5 388,-128.5 546,-128.5 546,-98.5 388,-98.5"/>
<text text-anchor="start" x="396" y="-116.5" font-family="Helvetica,sans-Serif" font-size="10.00" fill="#000000">AbstractEditableLabelWidget</text>
<text text-anchor="middle" x="467" y="-105.5" font-family="Helvetica,sans-Serif" font-size="10.00" fill="#000000">::setEmptyTextToEdit</text>
</a>
</g>
</g>
<!-- Node39&#45;&gt;Node40 -->
<g id="edge4" class="edge">
<title>Node39&#45;&gt;Node40</title>
<path fill="none" stroke="#191970" d="M332.5248,-79.5346C353.1016,-84.7318 376.3371,-90.6006 397.6336,-95.9796"/>
<polygon fill="#191970" stroke="#191970" points="397.0351,-99.4383 407.5878,-98.4938 398.7494,-92.6514 397.0351,-99.4383"/>
</g>
<!-- Node41 -->
<g id="node6" class="node">
<title>Node41</title>
<g id="a_node6"><a xlink:href="../../d4/def/classAbstractEditableLabelWidget.html#a8a46f2b9f55bef1676f0b358a031eaab" target="_top" xlink:title=" ">
<polygon fill="#ffffff" stroke="#000000" points="388,-49.5 388,-79.5 546,-79.5 546,-49.5 388,-49.5"/>
<text text-anchor="start" x="396" y="-67.5" font-family="Helvetica,sans-Serif" font-size="10.00" fill="#000000">AbstractEditableLabelWidget</text>
<text text-anchor="middle" x="467" y="-56.5" font-family="Helvetica,sans-Serif" font-size="10.00" fill="#000000">::myEditionWidget</text>
</a>
</g>
</g>
<!-- Node39&#45;&gt;Node41 -->
<g id="edge5" class="edge">
<title>Node39&#45;&gt;Node41</title>
<path fill="none" stroke="#191970" d="M352.187,-64.5C360.5295,-64.5 369.054,-64.5 377.5021,-64.5"/>
<polygon fill="#191970" stroke="#191970" points="377.7518,-68.0001 387.7517,-64.5 377.7517,-61.0001 377.7518,-68.0001"/>
</g>
<!-- Node42 -->
<g id="node7" class="node">
<title>Node42</title>
<g id="a_node7"><a xlink:href="../../d4/def/classAbstractEditableLabelWidget.html#aefe7ea292cc75aabc903cd9daf67a0ac" target="_top" xlink:title=" ">
<polygon fill="#ffffff" stroke="#000000" points="388,-.5 388,-30.5 546,-30.5 546,-.5 388,-.5"/>
<text text-anchor="start" x="396" y="-18.5" font-family="Helvetica,sans-Serif" font-size="10.00" fill="#000000">AbstractEditableLabelWidget</text>
<text text-anchor="middle" x="467" y="-7.5" font-family="Helvetica,sans-Serif" font-size="10.00" fill="#000000">::setNoSpacing</text>
</a>
</g>
</g>
<!-- Node39&#45;&gt;Node42 -->
<g id="edge6" class="edge">
<title>Node39&#45;&gt;Node42</title>
<path fill="none" stroke="#191970" d="M332.5248,-49.4654C353.1016,-44.2682 376.3371,-38.3994 397.6336,-33.0204"/>
<polygon fill="#191970" stroke="#191970" points="398.7494,-36.3486 407.5878,-30.5062 397.0351,-29.5617 398.7494,-36.3486"/>
</g>
</g>
</svg>
        <g id="navigator" transform="translate(0 0)" fill="#404254">
                <rect fill="#f2f5e9" fill-opacity="0.5" stroke="#606060" stroke-width=".5" x="0" y="0" width="60" height="60"/>
                <use id="zoomplus" xlink:href="#zoomPlus" x="17" y="9" onmousedown="handleZoom(evt,'in')"/>
                <use id="zoomminus" xlink:href="#zoomMin" x="42" y="9" onmousedown="handleZoom(evt,'out')"/>
                <use id="reset" xlink:href="#resetDef" x="30" y="36" onmousedown="handleReset()"/>
                <g id="arrowUp" xlink:href="#dirArrow" transform="translate(30 24)" onmousedown="handlePan(0,-1)">
                  <use xlink:href="#rim" fill="#404040">
                        <set attributeName="fill" to="#808080" begin="arrowUp.mouseover" end="arrowUp.mouseout"/>
                  </use>
                  <path fill="none" stroke="white" stroke-width="1.5" d="M0,-3.0v7 M-2.5,-0.5L0,-3.0L2.5,-0.5"/>
                </g>
                <g id="arrowRight" xlink:href="#dirArrow" transform="rotate(90) translate(36 -43)" onmousedown="handlePan(1,0)">
                  <use xlink:href="#rim" fill="#404040">
                        <set attributeName="fill" to="#808080" begin="arrowRight.mouseover" end="arrowRight.mouseout"/>
                  </use>
                  <path fill="none" stroke="white" stroke-width="1.5" d="M0,-3.0v7 M-2.5,-0.5L0,-3.0L2.5,-0.5"/>
                </g>
                <g id="arrowDown" xlink:href="#dirArrow" transform="rotate(180) translate(-30 -48)" onmousedown="handlePan(0,1)">
                  <use xlink:href="#rim" fill="#404040">
                        <set attributeName="fill" to="#808080" begin="arrowDown.mouseover" end="arrowDown.mouseout"/>
                  </use>
                  <path fill="none" stroke="white" stroke-width="1.5" d="M0,-3.0v7 M-2.5,-0.5L0,-3.0L2.5,-0.5"/>
                </g>
                <g id="arrowLeft" xlink:href="#dirArrow" transform="rotate(270) translate(-36 17)" onmousedown="handlePan(-1,0)">
                  <use xlink:href="#rim" fill="#404040">
                        <set attributeName="fill" to="#808080" begin="arrowLeft.mouseover" end="arrowLeft.mouseout"/>
                  </use>
                  <path fill="none" stroke="white" stroke-width="1.5" d="M0,-3.0v7 M-2.5,-0.5L0,-3.0L2.5,-0.5"/>
                </g>
        </g>
        <svg viewBox="0 0 15 15" width="100%" height="30px" preserveAspectRatio="xMaxYMin meet">
         <g id="arrow_out" transform="scale(0.3 0.3)">
          <a xlink:href="classAbstractEditableLabelWidget_a16a587149ef468d9d12d1282efb48e0e_cgraph_org.svg" target="_base">
           <rect id="button" ry="5" rx="5" y="6" x="6" height="38" width="38"
                fill="#f2f5e9" fill-opacity="0.5" stroke="#606060" stroke-width="1.0"/>
           <path id="arrow"
             d="M 11.500037,31.436501 C 11.940474,20.09759 22.043105,11.32322 32.158766,21.979434 L 37.068811,17.246167 C 37.068811,17.246167 37.088388,32 37.088388,32 L 22.160133,31.978069 C 22.160133,31.978069 26.997745,27.140456 26.997745,27.140456 C 18.528582,18.264221 13.291696,25.230495 11.500037,31.436501 z"
             style="fill:#404040;"/>
          </a>
         </g>
        </svg>
</svg>
