<?xml version="1.0" encoding="UTF-8" standalone="no"?>
<!DOCTYPE svg PUBLIC "-//W3C//DTD SVG 1.1//EN"
 "http://www.w3.org/Graphics/SVG/1.1/DTD/svg11.dtd">
<!-- Generated by graphviz version 2.40.1 (0)
 -->
<!-- Title: AbstractEditableLabelWidget::editionCanceled Pages: 1 -->
<svg width="554pt" height="88pt"
 viewBox="0.00 0.00 554.00 88.00" xmlns="http://www.w3.org/2000/svg" xmlns:xlink="http://www.w3.org/1999/xlink">
<g id="graph0" class="graph" transform="scale(1 1) rotate(0) translate(4 84)">
<title>AbstractEditableLabelWidget::editionCanceled</title>
<polygon fill="#ffffff" stroke="transparent" points="-4,4 -4,-84 550,-84 550,4 -4,4"/>
<!-- Node17 -->
<g id="node1" class="node">
<title>Node17</title>
<g id="a_node1"><a xlink:title=" ">
<polygon fill="#bfbfbf" stroke="#000000" points="0,-24.5 0,-54.5 158,-54.5 158,-24.5 0,-24.5"/>
<text text-anchor="start" x="8" y="-42.5" font-family="Helvetica,sans-Serif" font-size="10.00" fill="#000000">AbstractEditableLabelWidget</text>
<text text-anchor="middle" x="79" y="-31.5" font-family="Helvetica,sans-Serif" font-size="10.00" fill="#000000">::editionCanceled</text>
</a>
</g>
</g>
<!-- Node18 -->
<g id="node2" class="node">
<title>Node18</title>
<g id="a_node2"><a xlink:href="../../d4/def/classAbstractEditableLabelWidget.html#a157da77a9f361dddf4772c5bcf76385a" target="_top" xlink:title=" ">
<polygon fill="#ffffff" stroke="#000000" points="194,-24.5 194,-54.5 352,-54.5 352,-24.5 194,-24.5"/>
<text text-anchor="start" x="202" y="-42.5" font-family="Helvetica,sans-Serif" font-size="10.00" fill="#000000">AbstractEditableLabelWidget</text>
<text text-anchor="middle" x="273" y="-31.5" font-family="Helvetica,sans-Serif" font-size="10.00" fill="#000000">::toStandardMode</text>
</a>
</g>
</g>
<!-- Node17&#45;&gt;Node18 -->
<g id="edge1" class="edge">
<title>Node17&#45;&gt;Node18</title>
<path fill="none" stroke="#191970" d="M158.187,-39.5C166.5295,-39.5 175.054,-39.5 183.5021,-39.5"/>
<polygon fill="#191970" stroke="#191970" points="183.7518,-43.0001 193.7517,-39.5 183.7517,-36.0001 183.7518,-43.0001"/>
</g>
<!-- Node19 -->
<g id="node3" class="node">
<title>Node19</title>
<g id="a_node3"><a xlink:href="../../d4/def/classAbstractEditableLabelWidget.html#a8a46f2b9f55bef1676f0b358a031eaab" target="_top" xlink:title=" ">
<polygon fill="#ffffff" stroke="#000000" points="388,-49.5 388,-79.5 546,-79.5 546,-49.5 388,-49.5"/>
<text text-anchor="start" x="396" y="-67.5" font-family="Helvetica,sans-Serif" font-size="10.00" fill="#000000">AbstractEditableLabelWidget</text>
<text text-anchor="middle" x="467" y="-56.5" font-family="Helvetica,sans-Serif" font-size="10.00" fill="#000000">::myEditionWidget</text>
</a>
</g>
</g>
<!-- Node18&#45;&gt;Node19 -->
<g id="edge2" class="edge">
<title>Node18&#45;&gt;Node19</title>
<path fill="none" stroke="#191970" d="M352.187,-49.7045C360.6212,-50.7914 369.2413,-51.9022 377.7806,-53.0027"/>
<polygon fill="#191970" stroke="#191970" points="377.3864,-56.4807 387.7517,-54.2876 378.2811,-49.5381 377.3864,-56.4807"/>
</g>
<!-- Node20 -->
<g id="node4" class="node">
<title>Node20</title>
<g id="a_node4"><a xlink:href="../../d4/def/classAbstractEditableLabelWidget.html#aefe7ea292cc75aabc903cd9daf67a0ac" target="_top" xlink:title=" ">
<polygon fill="#ffffff" stroke="#000000" points="388,-.5 388,-30.5 546,-30.5 546,-.5 388,-.5"/>
<text text-anchor="start" x="396" y="-18.5" font-family="Helvetica,sans-Serif" font-size="10.00" fill="#000000">AbstractEditableLabelWidget</text>
<text text-anchor="middle" x="467" y="-7.5" font-family="Helvetica,sans-Serif" font-size="10.00" fill="#000000">::setNoSpacing</text>
</a>
</g>
</g>
<!-- Node18&#45;&gt;Node20 -->
<g id="edge3" class="edge">
<title>Node18&#45;&gt;Node20</title>
<path fill="none" stroke="#191970" d="M352.187,-29.7037C360.6212,-28.6603 369.2413,-27.5939 377.7806,-26.5375"/>
<polygon fill="#191970" stroke="#191970" points="378.2571,-30.0053 387.7517,-25.3039 377.3976,-23.0582 378.2571,-30.0053"/>
</g>
</g>
</svg>
