<?xml version="1.0" encoding="UTF-8" standalone="no"?>
<!DOCTYPE svg PUBLIC "-//W3C//DTD SVG 1.1//EN"
 "http://www.w3.org/Graphics/SVG/1.1/DTD/svg11.dtd">
<!-- Generated by graphviz version 2.40.1 (0)
 -->
<!-- Title: ScrewTerminal::collectValues Pages: 1 -->
<svg width="940pt" height="493pt"
 viewBox="0.00 0.00 940.00 492.96" xmlns="http://www.w3.org/2000/svg" xmlns:xlink="http://www.w3.org/1999/xlink">
<g id="graph0" class="graph" transform="scale(1 1) rotate(0) translate(4 488.9602)">
<title>ScrewTerminal::collectValues</title>
<polygon fill="#ffffff" stroke="transparent" points="-4,4 -4,-488.9602 936,-488.9602 936,4 -4,4"/>
<!-- Node76 -->
<g id="node1" class="node">
<title>Node76</title>
<g id="a_node1"><a xlink:title=" ">
<polygon fill="#bfbfbf" stroke="#000000" points="0,-152.5 0,-171.5 158,-171.5 158,-152.5 0,-152.5"/>
<text text-anchor="middle" x="79" y="-159.5" font-family="Helvetica,sans-Serif" font-size="10.00" fill="#000000">ScrewTerminal::collectValues</text>
</a>
</g>
</g>
<!-- Node77 -->
<g id="node2" class="node">
<title>Node77</title>
<g id="a_node2"><a xlink:href="../../d3/d04/classPaletteItem.html#ae6c0145b57ffbcc512a708c9e8278e55" target="_top" xlink:title=" ">
<polygon fill="#ffffff" stroke="#000000" points="199,-247.5 199,-266.5 342,-266.5 342,-247.5 199,-247.5"/>
<text text-anchor="middle" x="270.5" y="-254.5" font-family="Helvetica,sans-Serif" font-size="10.00" fill="#000000">PaletteItem::collectValues</text>
</a>
</g>
</g>
<!-- Node76&#45;&gt;Node77 -->
<g id="edge1" class="edge">
<title>Node76&#45;&gt;Node77</title>
<path fill="none" stroke="#191970" d="M98.4159,-171.6319C132.3399,-188.461 202.5408,-223.2866 241.991,-242.8572"/>
<polygon fill="#191970" stroke="#191970" points="240.8037,-246.1751 251.3174,-247.4838 243.9146,-239.9043 240.8037,-246.1751"/>
</g>
<!-- Node81 -->
<g id="node6" class="node">
<title>Node81</title>
<g id="a_node6"><a xlink:href="../../d4/d4f/classItemBase.html#a2f0bd0e76df9bbdaa080933ebcc64cac" target="_top" xlink:title=" ">
<polygon fill="#ffffff" stroke="#000000" points="618,-380.5 618,-399.5 719,-399.5 719,-380.5 618,-380.5"/>
<text text-anchor="middle" x="668.5" y="-387.5" font-family="Helvetica,sans-Serif" font-size="10.00" fill="#000000">ItemBase::family</text>
</a>
</g>
</g>
<!-- Node76&#45;&gt;Node81 -->
<g id="edge18" class="edge">
<title>Node76&#45;&gt;Node81</title>
<path fill="none" stroke="#191970" d="M86.5426,-171.7194C117.6732,-210.8701 241.2146,-356.9261 383,-399 461.4854,-422.29 557.4733,-411.799 615.7506,-401.4105"/>
<polygon fill="#191970" stroke="#191970" points="616.6308,-404.8072 625.828,-399.5478 615.3584,-397.9238 616.6308,-404.8072"/>
</g>
<!-- Node83 -->
<g id="node8" class="node">
<title>Node83</title>
<g id="a_node8"><a xlink:href="../../d4/d4f/classItemBase.html#acc2f5bad42928e7178c28fa0771b1f60" target="_top" xlink:title=" ">
<polygon fill="#ffffff" stroke="#000000" points="798,-418.5 798,-437.5 917,-437.5 917,-418.5 798,-418.5"/>
<text text-anchor="middle" x="857.5" y="-425.5" font-family="Helvetica,sans-Serif" font-size="10.00" fill="#000000">ItemBase::modelPart</text>
</a>
</g>
</g>
<!-- Node76&#45;&gt;Node83 -->
<g id="edge20" class="edge">
<title>Node76&#45;&gt;Node83</title>
<path fill="none" stroke="#191970" d="M82.3671,-171.6207C93.4455,-201.9338 131.6587,-296.4938 194,-348 387.4592,-507.8354 498.8439,-499.3146 747,-462 773.6791,-457.9883 802.8052,-448.8161 824.4536,-441.0085"/>
<polygon fill="#191970" stroke="#191970" points="825.6715,-444.2899 833.8384,-437.5407 823.2451,-437.7238 825.6715,-444.2899"/>
</g>
<!-- Node85 -->
<g id="node10" class="node">
<title>Node85</title>
<g id="a_node10"><a xlink:href="../../d4/d4f/classItemBase.html#a6728938e08a09a903e8ccc3bf62cedcb" target="_top" xlink:title=" ">
<polygon fill="#ffffff" stroke="#000000" points="623,-114.5 623,-133.5 714,-133.5 714,-114.5 623,-114.5"/>
<text text-anchor="middle" x="668.5" y="-121.5" font-family="Helvetica,sans-Serif" font-size="10.00" fill="#000000">ItemBase::prop</text>
</a>
</g>
</g>
<!-- Node76&#45;&gt;Node85 -->
<g id="edge21" class="edge">
<title>Node76&#45;&gt;Node85</title>
<path fill="none" stroke="#191970" d="M121.0035,-152.4912C179.3918,-139.807 288.5664,-118.0183 383,-110 458.7275,-103.57 478.1406,-105.3795 554,-110 573.2274,-111.1711 594.1706,-113.4386 612.8258,-115.8133"/>
<polygon fill="#191970" stroke="#191970" points="612.559,-119.3082 622.929,-117.1373 613.4686,-112.3675 612.559,-119.3082"/>
</g>
<!-- Node91 -->
<g id="node16" class="node">
<title>Node91</title>
<g id="a_node16"><a xlink:href="../../db/d54/classScrewTerminal.html#ada604f2749a3237a12d75c422b145191" target="_top" xlink:title=" ">
<polygon fill="#ffffff" stroke="#000000" points="194,-38.5 194,-57.5 347,-57.5 347,-38.5 194,-38.5"/>
<text text-anchor="middle" x="270.5" y="-45.5" font-family="Helvetica,sans-Serif" font-size="10.00" fill="#000000">ScrewTerminal::initSpacings</text>
</a>
</g>
</g>
<!-- Node76&#45;&gt;Node91 -->
<g id="edge19" class="edge">
<title>Node76&#45;&gt;Node91</title>
<path fill="none" stroke="#191970" d="M88.5972,-152.4678C107.3204,-134.3606 150.6902,-94.7695 194,-72 202.3241,-67.6237 211.5828,-63.8858 220.703,-60.754"/>
<polygon fill="#191970" stroke="#191970" points="222.0538,-63.9958 230.4943,-57.5921 219.9026,-57.3345 222.0538,-63.9958"/>
</g>
<!-- Node92 -->
<g id="node17" class="node">
<title>Node92</title>
<g id="a_node17"><a xlink:href="../../d4/d72/classModelPart.html#a59262909e61b1889d251eadb4bf844db" target="_top" xlink:title=" ">
<polygon fill="#ffffff" stroke="#000000" points="210,-.5 210,-19.5 331,-19.5 331,-.5 210,-.5"/>
<text text-anchor="middle" x="270.5" y="-7.5" font-family="Helvetica,sans-Serif" font-size="10.00" fill="#000000">ModelPart::properties</text>
</a>
</g>
</g>
<!-- Node76&#45;&gt;Node92 -->
<g id="edge22" class="edge">
<title>Node76&#45;&gt;Node92</title>
<path fill="none" stroke="#191970" d="M84.5246,-152.166C99.0089,-127.3321 140.6734,-61.7422 194,-29 197.4439,-26.8855 201.1113,-25.0059 204.9047,-23.3353"/>
<polygon fill="#191970" stroke="#191970" points="206.4811,-26.478 214.5383,-19.5982 203.9494,-19.9519 206.4811,-26.478"/>
</g>
<!-- Node78 -->
<g id="node3" class="node">
<title>Node78</title>
<g id="a_node3"><a xlink:href="../../d4/d4f/classItemBase.html#abd8a54aaf724a2713e9f8f22f1950df2" target="_top" xlink:title=" ">
<polygon fill="#ffffff" stroke="#000000" points="401.5,-190.5 401.5,-209.5 535.5,-209.5 535.5,-190.5 401.5,-190.5"/>
<text text-anchor="middle" x="468.5" y="-197.5" font-family="Helvetica,sans-Serif" font-size="10.00" fill="#000000">ItemBase::collectValues</text>
</a>
</g>
</g>
<!-- Node77&#45;&gt;Node78 -->
<g id="edge2" class="edge">
<title>Node77&#45;&gt;Node78</title>
<path fill="none" stroke="#191970" d="M296.1717,-247.4524C318.8168,-239.2416 352.8184,-227.4248 383,-219 392.1308,-216.4513 401.8852,-214.0171 411.4178,-211.7928"/>
<polygon fill="#191970" stroke="#191970" points="412.264,-215.1898 421.236,-209.5549 410.7083,-208.3648 412.264,-215.1898"/>
</g>
<!-- Node77&#45;&gt;Node81 -->
<g id="edge10" class="edge">
<title>Node77&#45;&gt;Node81</title>
<path fill="none" stroke="#191970" d="M276.3695,-266.6149C291.008,-289.5898 331.6742,-347.5083 383,-371 454.9479,-403.9303 547.8919,-403.2374 607.85,-398.0137"/>
<polygon fill="#191970" stroke="#191970" points="608.286,-401.4882 617.9143,-397.0673 607.6305,-394.519 608.286,-401.4882"/>
</g>
<!-- Node77&#45;&gt;Node83 -->
<g id="edge13" class="edge">
<title>Node77&#45;&gt;Node83</title>
<path fill="none" stroke="#191970" d="M274.5905,-266.5266C286.6175,-293.1887 324.7216,-368.5915 383,-399 517.666,-469.2659 703.9479,-453.4891 798.0283,-439.0686"/>
<polygon fill="#191970" stroke="#191970" points="798.6074,-442.5206 807.9382,-437.5019 797.5143,-435.6065 798.6074,-442.5206"/>
</g>
<!-- Node77&#45;&gt;Node85 -->
<g id="edge14" class="edge">
<title>Node77&#45;&gt;Node85</title>
<path fill="none" stroke="#191970" d="M276.3695,-247.3851C291.008,-224.4102 331.6742,-166.4917 383,-143 456.9761,-109.1414 553.1487,-110.8284 612.8408,-116.4382"/>
<polygon fill="#191970" stroke="#191970" points="612.5221,-119.9237 622.8229,-117.4451 613.2247,-112.9591 612.5221,-119.9237"/>
</g>
<!-- Node86 -->
<g id="node11" class="node">
<title>Node86</title>
<g id="a_node11"><a xlink:href="../../d4/d72/classModelPart.html#ae641e5a6bc2ccb547068f54b331a25e0" target="_top" xlink:title=" ">
<polygon fill="#ffffff" stroke="#000000" points="405,-342.5 405,-361.5 532,-361.5 532,-342.5 405,-342.5"/>
<text text-anchor="middle" x="468.5" y="-349.5" font-family="Helvetica,sans-Serif" font-size="10.00" fill="#000000">ModelPart::flippedSMD</text>
</a>
</g>
</g>
<!-- Node77&#45;&gt;Node86 -->
<g id="edge11" class="edge">
<title>Node77&#45;&gt;Node86</title>
<path fill="none" stroke="#191970" d="M281.4804,-266.5304C300.7045,-282.7068 342.2969,-315.4831 383,-333 388.8663,-335.5246 395.109,-337.7322 401.4469,-339.6589"/>
<polygon fill="#191970" stroke="#191970" points="400.8706,-343.1322 411.4441,-342.4606 402.7595,-336.3919 400.8706,-343.1322"/>
</g>
<!-- Node87 -->
<g id="node12" class="node">
<title>Node87</title>
<g id="a_node12"><a xlink:href="../../d4/d4f/classItemBase.html#a353296ecaba8bac3acb8e36fc44b312d" target="_top" xlink:title=" ">
<polygon fill="#ffffff" stroke="#000000" points="411.5,-304.5 411.5,-323.5 525.5,-323.5 525.5,-304.5 411.5,-304.5"/>
<text text-anchor="middle" x="468.5" y="-311.5" font-family="Helvetica,sans-Serif" font-size="10.00" fill="#000000">ItemBase::itemType</text>
</a>
</g>
</g>
<!-- Node77&#45;&gt;Node87 -->
<g id="edge12" class="edge">
<title>Node77&#45;&gt;Node87</title>
<path fill="none" stroke="#191970" d="M296.1717,-266.5476C318.8168,-274.7584 352.8184,-286.5752 383,-295 392.1308,-297.5487 401.8852,-299.9829 411.4178,-302.2072"/>
<polygon fill="#191970" stroke="#191970" points="410.7083,-305.6352 421.236,-304.4451 412.264,-298.8102 410.7083,-305.6352"/>
</g>
<!-- Node88 -->
<g id="node13" class="node">
<title>Node88</title>
<g id="a_node13"><a xlink:href="../../d4/d72/classModelPart.html#a12a30c81302224d01273b58f35d7fb18" target="_top" xlink:title=" ">
<polygon fill="#ffffff" stroke="#000000" points="410,-266.5 410,-285.5 527,-285.5 527,-266.5 410,-266.5"/>
<text text-anchor="middle" x="468.5" y="-273.5" font-family="Helvetica,sans-Serif" font-size="10.00" fill="#000000">ModelPart::viewItem</text>
</a>
</g>
</g>
<!-- Node77&#45;&gt;Node88 -->
<g id="edge15" class="edge">
<title>Node77&#45;&gt;Node88</title>
<path fill="none" stroke="#191970" d="M342.2625,-263.8863C361.0318,-265.6874 381.2175,-267.6244 399.8219,-269.4097"/>
<polygon fill="#191970" stroke="#191970" points="399.6874,-272.9128 409.976,-270.3841 400.3561,-265.9448 399.6874,-272.9128"/>
</g>
<!-- Node89 -->
<g id="node14" class="node">
<title>Node89</title>
<g id="a_node14"><a xlink:href="../../d4/d4f/classItemBase.html#a8f16baa26ee92ac6cd8dda5c69d759d4" target="_top" xlink:title=" ">
<polygon fill="#ffffff" stroke="#000000" points="403.5,-228.5 403.5,-247.5 533.5,-247.5 533.5,-228.5 403.5,-228.5"/>
<text text-anchor="middle" x="468.5" y="-235.5" font-family="Helvetica,sans-Serif" font-size="10.00" fill="#000000">ItemBase::viewLayerID</text>
</a>
</g>
</g>
<!-- Node77&#45;&gt;Node89 -->
<g id="edge16" class="edge">
<title>Node77&#45;&gt;Node89</title>
<path fill="none" stroke="#191970" d="M342.2625,-250.1137C358.7596,-248.5306 376.3509,-246.8426 393.0009,-245.2449"/>
<polygon fill="#191970" stroke="#191970" points="393.6081,-248.7028 403.2281,-244.2635 392.9394,-241.7348 393.6081,-248.7028"/>
</g>
<!-- Node90 -->
<g id="node15" class="node">
<title>Node90</title>
<g id="a_node15"><a xlink:href="../../d4/d4f/classItemBase.html#a3dd3d84b0fdadf869b2bbd87f42ec156" target="_top" xlink:title=" ">
<polygon fill="#ffffff" stroke="#000000" points="383,-152.5 383,-171.5 554,-171.5 554,-152.5 383,-152.5"/>
<text text-anchor="middle" x="468.5" y="-159.5" font-family="Helvetica,sans-Serif" font-size="10.00" fill="#000000">ItemBase::viewLayerPlacement</text>
</a>
</g>
</g>
<!-- Node77&#45;&gt;Node90 -->
<g id="edge17" class="edge">
<title>Node77&#45;&gt;Node90</title>
<path fill="none" stroke="#191970" d="M281.4804,-247.4696C300.7045,-231.2932 342.2969,-198.5169 383,-181 388.8663,-178.4754 395.109,-176.2678 401.4469,-174.3411"/>
<polygon fill="#191970" stroke="#191970" points="402.7595,-177.6081 411.4441,-171.5394 400.8706,-170.8678 402.7595,-177.6081"/>
</g>
<!-- Node79 -->
<g id="node4" class="node">
<title>Node79</title>
<g id="a_node4"><a xlink:href="../../de/db8/classTextUtils.html#a76aaffd8ac18c90c1d829e7bdde11556" target="_top" xlink:title=" ">
<polygon fill="#ffffff" stroke="#000000" points="590,-169 590,-199 747,-199 747,-169 590,-169"/>
<text text-anchor="start" x="598" y="-187" font-family="Helvetica,sans-Serif" font-size="10.00" fill="#000000">TextUtils::convertFromPower</text>
<text text-anchor="middle" x="668.5" y="-176" font-family="Helvetica,sans-Serif" font-size="10.00" fill="#000000">Prefix</text>
</a>
</g>
</g>
<!-- Node78&#45;&gt;Node79 -->
<g id="edge3" class="edge">
<title>Node78&#45;&gt;Node79</title>
<path fill="none" stroke="#191970" d="M535.6535,-194.6277C549.7605,-193.4992 564.8487,-192.2921 579.6099,-191.1112"/>
<polygon fill="#191970" stroke="#191970" points="580.0718,-194.5855 589.7609,-190.2991 579.5136,-187.6078 580.0718,-194.5855"/>
</g>
<!-- Node78&#45;&gt;Node81 -->
<g id="edge5" class="edge">
<title>Node78&#45;&gt;Node81</title>
<path fill="none" stroke="#191970" d="M535.4914,-209.5742C542.0469,-212.0466 548.3515,-215.1379 554,-219 610.6641,-257.7428 646.7669,-334.6463 661.2553,-370.611"/>
<polygon fill="#191970" stroke="#191970" points="658.1658,-372.3228 665.0566,-380.3706 664.6885,-369.7822 658.1658,-372.3228"/>
</g>
<!-- Node84 -->
<g id="node9" class="node">
<title>Node84</title>
<g id="a_node9"><a xlink:href="../../d9/dfa/itembase_8cpp.html#a6613b1cb650eccee58aad1798669bb98" target="_top" xlink:title=" ">
<polygon fill="#ffffff" stroke="#000000" points="605,-218.5 605,-237.5 732,-237.5 732,-218.5 605,-218.5"/>
<text text-anchor="middle" x="668.5" y="-225.5" font-family="Helvetica,sans-Serif" font-size="10.00" fill="#000000">numberValueLessThan</text>
</a>
</g>
</g>
<!-- Node78&#45;&gt;Node84 -->
<g id="edge8" class="edge">
<title>Node78&#45;&gt;Node84</title>
<path fill="none" stroke="#191970" d="M535.6535,-209.4015C554.6907,-212.0667 575.5147,-214.9821 594.9107,-217.6975"/>
<polygon fill="#191970" stroke="#191970" points="594.5176,-221.1765 604.9064,-219.0969 595.4882,-214.2441 594.5176,-221.1765"/>
</g>
<!-- Node78&#45;&gt;Node85 -->
<g id="edge9" class="edge">
<title>Node78&#45;&gt;Node85</title>
<path fill="none" stroke="#191970" d="M524.0478,-190.4581C534.1938,-187.9316 544.5525,-184.813 554,-181 571.3883,-173.982 573.4024,-167.725 590,-159 604.5948,-151.3278 621.2158,-143.7579 635.3946,-137.6314"/>
<polygon fill="#191970" stroke="#191970" points="636.9389,-140.778 644.7656,-133.6371 634.194,-134.3385 636.9389,-140.778"/>
</g>
<!-- Node80 -->
<g id="node5" class="node">
<title>Node80</title>
<g id="a_node5"><a xlink:href="../../de/db8/classTextUtils.html#a6d3d27199572ef69fc3d13417c08cc5e" target="_top" xlink:title=" ">
<polygon fill="#ffffff" stroke="#000000" points="783,-174.5 783,-193.5 932,-193.5 932,-174.5 783,-174.5"/>
<text text-anchor="middle" x="857.5" y="-181.5" font-family="Helvetica,sans-Serif" font-size="10.00" fill="#000000">TextUtils::initPowerPrefixes</text>
</a>
</g>
</g>
<!-- Node79&#45;&gt;Node80 -->
<g id="edge4" class="edge">
<title>Node79&#45;&gt;Node80</title>
<path fill="none" stroke="#191970" d="M747.0111,-184C755.5399,-184 764.2478,-184 772.8457,-184"/>
<polygon fill="#191970" stroke="#191970" points="772.8711,-187.5001 782.8711,-184 772.8711,-180.5001 772.8711,-187.5001"/>
</g>
<!-- Node82 -->
<g id="node7" class="node">
<title>Node82</title>
<g id="a_node7"><a xlink:href="../../d4/d72/classModelPart.html#a21ecb2edba2b75d35f9c00636f1c3d30" target="_top" xlink:title=" ">
<polygon fill="#ffffff" stroke="#000000" points="806,-380.5 806,-399.5 909,-399.5 909,-380.5 806,-380.5"/>
<text text-anchor="middle" x="857.5" y="-387.5" font-family="Helvetica,sans-Serif" font-size="10.00" fill="#000000">ModelPart::family</text>
</a>
</g>
</g>
<!-- Node81&#45;&gt;Node82 -->
<g id="edge6" class="edge">
<title>Node81&#45;&gt;Node82</title>
<path fill="none" stroke="#191970" d="M719.1485,-390C742.6938,-390 770.9057,-390 795.6943,-390"/>
<polygon fill="#191970" stroke="#191970" points="795.7241,-393.5001 805.7241,-390 795.7241,-386.5001 795.7241,-393.5001"/>
</g>
<!-- Node81&#45;&gt;Node83 -->
<g id="edge7" class="edge">
<title>Node81&#45;&gt;Node83</title>
<path fill="none" stroke="#191970" d="M716.1927,-399.589C741.695,-404.7165 773.2818,-411.0672 800.1196,-416.4632"/>
<polygon fill="#191970" stroke="#191970" points="799.6565,-419.9401 810.1503,-418.4799 801.0364,-413.0774 799.6565,-419.9401"/>
</g>
</g>
</svg>
