<?xml version="1.0" encoding="UTF-8" standalone="no"?>
<!DOCTYPE svg PUBLIC "-//W3C//DTD SVG 1.1//EN"
 "http://www.w3.org/Graphics/SVG/1.1/DTD/svg11.dtd">
<!-- Generated by graphviz version 2.40.1 (0)
 -->
<!-- Title: ProgramWindow::tabSave Pages: 1 -->
<!--zoomable 192 -->
<svg id="main" version="1.1" xmlns="http://www.w3.org/2000/svg" xmlns:xlink="http://www.w3.org/1999/xlink" xml:space="preserve" onload="init(evt)">
<style type="text/css"><![CDATA[
.edge:hover path { stroke: red; }
.edge:hover polygon { stroke: red; fill: red; }
]]></style>
<script type="text/javascript"><![CDATA[
var edges = document.getElementsByTagName('g');
if (edges && edges.length) {
  for (var i=0;i<edges.length;i++) {
    if (edges[i].id.substr(0,4)=='edge') {
      edges[i].setAttribute('class','edge');
    }
  }
}
]]></script>
        <defs>
                <circle id="rim" cx="0" cy="0" r="7"/>
                <circle id="rim2" cx="0" cy="0" r="3.5"/>
                <g id="zoomPlus">
                        <use xlink:href="#rim" fill="#404040">
                                <set attributeName="fill" to="#808080" begin="zoomplus.mouseover" end="zoomplus.mouseout"/>
                        </use>
                        <path d="M-4,0h8M0,-4v8" fill="none" stroke="white" stroke-width="1.5" pointer-events="none"/>
                </g>
                <g id="zoomMin">
                        <use xlink:href="#rim" fill="#404040">
                                <set attributeName="fill" to="#808080" begin="zoomminus.mouseover" end="zoomminus.mouseout"/>
                        </use>
                        <path d="M-4,0h8" fill="none" stroke="white" stroke-width="1.5" pointer-events="none"/>
                </g>
                <g id="dirArrow">
                        <path fill="none" stroke="white" stroke-width="1.5" d="M0,-3.0v7 M-2.5,-0.5L0,-3.0L2.5,-0.5"/>
                </g>
               <g id="resetDef">
                       <use xlink:href="#rim2" fill="#404040">
                               <set attributeName="fill" to="#808080" begin="reset.mouseover" end="reset.mouseout"/>
                       </use>
               </g>
        </defs>

<script type="text/javascript">
var viewWidth = 564;
var viewHeight = 192;
var sectionId = 'dynsection-86';
</script>
<script xlink:href="../../svgpan.js"/>
<svg id="graph" class="graph">
<g id="viewport">
<title>ProgramWindow::tabSave</title>
<polygon fill="#ffffff" stroke="transparent" points="-4,4 -4,-188 560,-188 560,4 -4,4"/>
<!-- Node804 -->
<g id="node1" class="node">
<title>Node804</title>
<g id="a_node1"><a xlink:title=" ">
<polygon fill="#bfbfbf" stroke="#000000" points="414,-47.5 414,-66.5 556,-66.5 556,-47.5 414,-47.5"/>
<text text-anchor="middle" x="485" y="-54.5" font-family="Helvetica,sans-Serif" font-size="10.00" fill="#000000">ProgramWindow::tabSave</text>
</a>
</g>
</g>
<!-- Node805 -->
<g id="node2" class="node">
<title>Node805</title>
<g id="a_node2"><a xlink:href="../../dd/d15/classProgramWindow.html#a531b35a34e795ea93f857b1f2c0782bc" target="_top" xlink:title=" ">
<polygon fill="#ffffff" stroke="#000000" points="220.5,-88.5 220.5,-107.5 357.5,-107.5 357.5,-88.5 220.5,-88.5"/>
<text text-anchor="middle" x="289" y="-95.5" font-family="Helvetica,sans-Serif" font-size="10.00" fill="#000000">ProgramWindow::addTab</text>
</a>
</g>
</g>
<!-- Node804&#45;&gt;Node805 -->
<g id="edge1" class="edge">
<title>Node804&#45;&gt;Node805</title>
<path fill="none" stroke="#191970" d="M429.6301,-68.5825C399.5918,-74.866 362.9164,-82.5379 334.5515,-88.4714"/>
<polygon fill="#191970" stroke="#191970" points="430.4695,-71.9827 439.541,-66.5093 429.0362,-65.131 430.4695,-71.9827"/>
</g>
<!-- Node811 -->
<g id="node8" class="node">
<title>Node811</title>
<g id="a_node8"><a xlink:href="../../dd/d15/classProgramWindow.html#af7df45f309470a9a61903606d888a2e8" target="_top" xlink:title=" ">
<polygon fill="#ffffff" stroke="#000000" points="220,-47.5 220,-66.5 358,-66.5 358,-47.5 220,-47.5"/>
<text text-anchor="middle" x="289" y="-54.5" font-family="Helvetica,sans-Serif" font-size="10.00" fill="#000000">ProgramWindow::saveAll</text>
</a>
</g>
</g>
<!-- Node804&#45;&gt;Node811 -->
<g id="edge8" class="edge">
<title>Node804&#45;&gt;Node811</title>
<path fill="none" stroke="#191970" d="M403.6094,-57C388.5035,-57 372.8552,-57 358.1572,-57"/>
<polygon fill="#191970" stroke="#191970" points="403.9624,-60.5001 413.9624,-57 403.9623,-53.5001 403.9624,-60.5001"/>
</g>
<!-- Node812 -->
<g id="node9" class="node">
<title>Node812</title>
<g id="a_node9"><a xlink:href="../../dd/d15/classProgramWindow.html#aaa4de2c265744341f6cba2e6e30382ec" target="_top" xlink:title=" ">
<polygon fill="#ffffff" stroke="#000000" points="200,-3.5 200,-22.5 378,-22.5 378,-3.5 200,-3.5"/>
<text text-anchor="middle" x="289" y="-10.5" font-family="Helvetica,sans-Serif" font-size="10.00" fill="#000000">ProgramWindow::saveCurrentTab</text>
</a>
</g>
</g>
<!-- Node804&#45;&gt;Node812 -->
<g id="edge9" class="edge">
<title>Node804&#45;&gt;Node812</title>
<path fill="none" stroke="#191970" d="M432.5072,-45.2159C400.8673,-38.1131 361.0924,-29.184 331.4461,-22.5287"/>
<polygon fill="#191970" stroke="#191970" points="431.9471,-48.6772 442.4709,-47.4527 433.4804,-41.8472 431.9471,-48.6772"/>
</g>
<!-- Node806 -->
<g id="node3" class="node">
<title>Node806</title>
<g id="a_node3"><a xlink:href="../../dd/d15/classProgramWindow.html#a4b841305dd94c812b21079871aab124d" target="_top" xlink:title=" ">
<polygon fill="#ffffff" stroke="#000000" points="7,-.5 7,-19.5 157,-19.5 157,-.5 7,-.5"/>
<text text-anchor="middle" x="82" y="-7.5" font-family="Helvetica,sans-Serif" font-size="10.00" fill="#000000">ProgramWindow::initMenus</text>
</a>
</g>
</g>
<!-- Node805&#45;&gt;Node806 -->
<g id="edge2" class="edge">
<title>Node805&#45;&gt;Node806</title>
<path fill="none" stroke="#191970" d="M217.2293,-84.8981C211.1701,-82.4272 205.3305,-79.4904 200,-76 177.987,-61.5857 186.118,-43.2527 164,-29 157.981,-25.1214 151.2619,-22.0314 144.3313,-19.5704"/>
<polygon fill="#191970" stroke="#191970" points="216.296,-88.2828 226.8901,-88.4101 218.6877,-81.7041 216.296,-88.2828"/>
</g>
<!-- Node807 -->
<g id="node4" class="node">
<title>Node807</title>
<g id="a_node4"><a xlink:href="../../dd/d15/classProgramWindow.html#ae1287fb01dcc91e89db28be1529c27c2" target="_top" xlink:title=" ">
<polygon fill="#ffffff" stroke="#000000" points="10.5,-164.5 10.5,-183.5 153.5,-183.5 153.5,-164.5 10.5,-164.5"/>
<text text-anchor="middle" x="82" y="-171.5" font-family="Helvetica,sans-Serif" font-size="10.00" fill="#000000">ProgramWindow::linkFiles</text>
</a>
</g>
</g>
<!-- Node805&#45;&gt;Node807 -->
<g id="edge3" class="edge">
<title>Node805&#45;&gt;Node807</title>
<path fill="none" stroke="#191970" d="M261.6534,-112.4007C236.7527,-125.0427 198.6872,-143.2055 164,-155 153.3468,-158.6224 141.6837,-161.7846 130.5819,-164.4357"/>
<polygon fill="#191970" stroke="#191970" points="263.5381,-115.3674 270.835,-107.6858 260.3405,-109.1404 263.5381,-115.3674"/>
</g>
<!-- Node808 -->
<g id="node5" class="node">
<title>Node808</title>
<g id="a_node5"><a xlink:href="../../dd/d15/classProgramWindow.html#a640a9bffa3ffffd38cb6260ab68f65b6" target="_top" xlink:title=" ">
<polygon fill="#ffffff" stroke="#000000" points="7,-126.5 7,-145.5 157,-145.5 157,-126.5 7,-126.5"/>
<text text-anchor="middle" x="82" y="-133.5" font-family="Helvetica,sans-Serif" font-size="10.00" fill="#000000">ProgramWindow::tabDelete</text>
</a>
</g>
</g>
<!-- Node805&#45;&gt;Node808 -->
<g id="edge4" class="edge">
<title>Node805&#45;&gt;Node808</title>
<path fill="none" stroke="#191970" d="M210.3237,-105.8686C174.2852,-111.9654 133.9796,-119.9958 108.3226,-126.4873"/>
<polygon fill="#191970" stroke="#191970" points="211.0675,-109.2931 220.3595,-104.2031 209.9214,-102.3876 211.0675,-109.2931"/>
</g>
<!-- Node809 -->
<g id="node6" class="node">
<title>Node809</title>
<g id="a_node6"><a xlink:href="../../dd/d15/classProgramWindow.html#aea98e1f8999714a9edeb61d58406fc5b" target="_top" xlink:title=" ">
<polygon fill="#ffffff" stroke="#000000" points="0,-88.5 0,-107.5 164,-107.5 164,-88.5 0,-88.5"/>
<text text-anchor="middle" x="82" y="-95.5" font-family="Helvetica,sans-Serif" font-size="10.00" fill="#000000">ProgramWindow::duplicateTab</text>
</a>
</g>
</g>
<!-- Node805&#45;&gt;Node809 -->
<g id="edge6" class="edge">
<title>Node805&#45;&gt;Node809</title>
<path fill="none" stroke="#191970" d="M210.0799,-98C195.0374,-98 179.2597,-98 164.1202,-98"/>
<polygon fill="#191970" stroke="#191970" points="210.3596,-101.5001 220.3595,-98 210.3595,-94.5001 210.3596,-101.5001"/>
</g>
<!-- Node810 -->
<g id="node7" class="node">
<title>Node810</title>
<g id="a_node7"><a xlink:href="../../dd/d15/classProgramWindow.html#a35025bad2a448af5a3fcaab9504845f4" target="_top" xlink:title=" ">
<polygon fill="#ffffff" stroke="#000000" points="0,-39 0,-69 164,-69 164,-39 0,-39"/>
<text text-anchor="start" x="8" y="-57" font-family="Helvetica,sans-Serif" font-size="10.00" fill="#000000">ProgramWindow::loadProgram</text>
<text text-anchor="middle" x="82" y="-46" font-family="Helvetica,sans-Serif" font-size="10.00" fill="#000000">FileNew</text>
</a>
</g>
</g>
<!-- Node805&#45;&gt;Node810 -->
<g id="edge7" class="edge">
<title>Node805&#45;&gt;Node810</title>
<path fill="none" stroke="#191970" d="M234.0895,-86.3282C209.1896,-81.0355 179.4362,-74.7111 152.8757,-69.0654"/>
<polygon fill="#191970" stroke="#191970" points="233.5749,-89.7969 244.0841,-88.4527 235.0303,-82.9499 233.5749,-89.7969"/>
</g>
<!-- Node808&#45;&gt;Node805 -->
<g id="edge5" class="edge">
<title>Node808&#45;&gt;Node805</title>
<path fill="none" stroke="#191970" d="M167.096,-127.0328C201.2709,-121.1181 238.2119,-113.6861 262.3621,-107.5924"/>
<polygon fill="#191970" stroke="#191970" points="166.3431,-123.6104 157.0713,-128.7372 167.5165,-130.5114 166.3431,-123.6104"/>
</g>
<!-- Node812&#45;&gt;Node806 -->
<g id="edge10" class="edge">
<title>Node812&#45;&gt;Node806</title>
<path fill="none" stroke="#191970" d="M189.6636,-11.5603C178.6879,-11.4013 167.6498,-11.2413 157.0439,-11.0876"/>
<polygon fill="#191970" stroke="#191970" points="189.6617,-15.0606 199.7114,-11.706 189.7632,-8.0613 189.6617,-15.0606"/>
</g>
</g>
</svg>
        <g id="navigator" transform="translate(0 0)" fill="#404254">
                <rect fill="#f2f5e9" fill-opacity="0.5" stroke="#606060" stroke-width=".5" x="0" y="0" width="60" height="60"/>
                <use id="zoomplus" xlink:href="#zoomPlus" x="17" y="9" onmousedown="handleZoom(evt,'in')"/>
                <use id="zoomminus" xlink:href="#zoomMin" x="42" y="9" onmousedown="handleZoom(evt,'out')"/>
                <use id="reset" xlink:href="#resetDef" x="30" y="36" onmousedown="handleReset()"/>
                <g id="arrowUp" xlink:href="#dirArrow" transform="translate(30 24)" onmousedown="handlePan(0,-1)">
                  <use xlink:href="#rim" fill="#404040">
                        <set attributeName="fill" to="#808080" begin="arrowUp.mouseover" end="arrowUp.mouseout"/>
                  </use>
                  <path fill="none" stroke="white" stroke-width="1.5" d="M0,-3.0v7 M-2.5,-0.5L0,-3.0L2.5,-0.5"/>
                </g>
                <g id="arrowRight" xlink:href="#dirArrow" transform="rotate(90) translate(36 -43)" onmousedown="handlePan(1,0)">
                  <use xlink:href="#rim" fill="#404040">
                        <set attributeName="fill" to="#808080" begin="arrowRight.mouseover" end="arrowRight.mouseout"/>
                  </use>
                  <path fill="none" stroke="white" stroke-width="1.5" d="M0,-3.0v7 M-2.5,-0.5L0,-3.0L2.5,-0.5"/>
                </g>
                <g id="arrowDown" xlink:href="#dirArrow" transform="rotate(180) translate(-30 -48)" onmousedown="handlePan(0,1)">
                  <use xlink:href="#rim" fill="#404040">
                        <set attributeName="fill" to="#808080" begin="arrowDown.mouseover" end="arrowDown.mouseout"/>
                  </use>
                  <path fill="none" stroke="white" stroke-width="1.5" d="M0,-3.0v7 M-2.5,-0.5L0,-3.0L2.5,-0.5"/>
                </g>
                <g id="arrowLeft" xlink:href="#dirArrow" transform="rotate(270) translate(-36 17)" onmousedown="handlePan(-1,0)">
                  <use xlink:href="#rim" fill="#404040">
                        <set attributeName="fill" to="#808080" begin="arrowLeft.mouseover" end="arrowLeft.mouseout"/>
                  </use>
                  <path fill="none" stroke="white" stroke-width="1.5" d="M0,-3.0v7 M-2.5,-0.5L0,-3.0L2.5,-0.5"/>
                </g>
        </g>
        <svg viewBox="0 0 15 15" width="100%" height="30px" preserveAspectRatio="xMaxYMin meet">
         <g id="arrow_out" transform="scale(0.3 0.3)">
          <a xlink:href="classProgramWindow_a4b401e184aaee8d5eff5003276fd51b7_icgraph_org.svg" target="_base">
           <rect id="button" ry="5" rx="5" y="6" x="6" height="38" width="38"
                fill="#f2f5e9" fill-opacity="0.5" stroke="#606060" stroke-width="1.0"/>
           <path id="arrow"
             d="M 11.500037,31.436501 C 11.940474,20.09759 22.043105,11.32322 32.158766,21.979434 L 37.068811,17.246167 C 37.068811,17.246167 37.088388,32 37.088388,32 L 22.160133,31.978069 C 22.160133,31.978069 26.997745,27.140456 26.997745,27.140456 C 18.528582,18.264221 13.291696,25.230495 11.500037,31.436501 z"
             style="fill:#404040;"/>
          </a>
         </g>
        </svg>
</svg>
