<?xml version="1.0" encoding="UTF-8" standalone="no"?>
<!DOCTYPE svg PUBLIC "-//W3C//DTD SVG 1.1//EN"
 "http://www.w3.org/Graphics/SVG/1.1/DTD/svg11.dtd">
<!-- Generated by graphviz version 2.40.1 (0)
 -->
<!-- Title: ConnectorTypeWidget::toggleValue Pages: 1 -->
<!--zoomable 137 -->
<svg id="main" version="1.1" xmlns="http://www.w3.org/2000/svg" xmlns:xlink="http://www.w3.org/1999/xlink" xml:space="preserve" onload="init(evt)">
<style type="text/css"><![CDATA[
.edge:hover path { stroke: red; }
.edge:hover polygon { stroke: red; fill: red; }
]]></style>
<script type="text/javascript"><![CDATA[
var edges = document.getElementsByTagName('g');
if (edges && edges.length) {
  for (var i=0;i<edges.length;i++) {
    if (edges[i].id.substr(0,4)=='edge') {
      edges[i].setAttribute('class','edge');
    }
  }
}
]]></script>
        <defs>
                <circle id="rim" cx="0" cy="0" r="7"/>
                <circle id="rim2" cx="0" cy="0" r="3.5"/>
                <g id="zoomPlus">
                        <use xlink:href="#rim" fill="#404040">
                                <set attributeName="fill" to="#808080" begin="zoomplus.mouseover" end="zoomplus.mouseout"/>
                        </use>
                        <path d="M-4,0h8M0,-4v8" fill="none" stroke="white" stroke-width="1.5" pointer-events="none"/>
                </g>
                <g id="zoomMin">
                        <use xlink:href="#rim" fill="#404040">
                                <set attributeName="fill" to="#808080" begin="zoomminus.mouseover" end="zoomminus.mouseout"/>
                        </use>
                        <path d="M-4,0h8" fill="none" stroke="white" stroke-width="1.5" pointer-events="none"/>
                </g>
                <g id="dirArrow">
                        <path fill="none" stroke="white" stroke-width="1.5" d="M0,-3.0v7 M-2.5,-0.5L0,-3.0L2.5,-0.5"/>
                </g>
               <g id="resetDef">
                       <use xlink:href="#rim2" fill="#404040">
                               <set attributeName="fill" to="#808080" begin="reset.mouseover" end="reset.mouseout"/>
                       </use>
               </g>
        </defs>

<script type="text/javascript">
var viewWidth = 654;
var viewHeight = 137;
var sectionId = 'dynsection-12';
</script>
<script xlink:href="../../svgpan.js"/>
<svg id="graph" class="graph">
<g id="viewport">
<title>ConnectorTypeWidget::toggleValue</title>
<polygon fill="#ffffff" stroke="transparent" points="-4,4 -4,-133 650,-133 650,4 -4,4"/>
<!-- Node87 -->
<g id="node1" class="node">
<title>Node87</title>
<g id="a_node1"><a xlink:title=" ">
<polygon fill="#bfbfbf" stroke="#000000" points="0,-24.5 0,-54.5 123,-54.5 123,-24.5 0,-24.5"/>
<text text-anchor="start" x="8" y="-42.5" font-family="Helvetica,sans-Serif" font-size="10.00" fill="#000000">ConnectorTypeWidget</text>
<text text-anchor="middle" x="61.5" y="-31.5" font-family="Helvetica,sans-Serif" font-size="10.00" fill="#000000">::toggleValue</text>
</a>
</g>
</g>
<!-- Node88 -->
<g id="node2" class="node">
<title>Node88</title>
<g id="a_node2"><a xlink:href="../../d4/d16/classConnectorTypeWidget.html#ad773ba41fbd6cf0e86310911d0e37922" target="_top" xlink:title=" ">
<polygon fill="#ffffff" stroke="#000000" points="159,-47.5 159,-77.5 282,-77.5 282,-47.5 159,-47.5"/>
<text text-anchor="start" x="167" y="-65.5" font-family="Helvetica,sans-Serif" font-size="10.00" fill="#000000">ConnectorTypeWidget</text>
<text text-anchor="middle" x="220.5" y="-54.5" font-family="Helvetica,sans-Serif" font-size="10.00" fill="#000000">::setType</text>
</a>
</g>
</g>
<!-- Node87&#45;&gt;Node88 -->
<g id="edge1" class="edge">
<title>Node87&#45;&gt;Node88</title>
<path fill="none" stroke="#191970" d="M123.4288,-48.4583C131.6737,-49.6509 140.1839,-50.8819 148.5803,-52.0965"/>
<polygon fill="#191970" stroke="#191970" points="148.3421,-55.5984 158.7402,-53.5662 149.3443,-48.6705 148.3421,-55.5984"/>
</g>
<!-- Node92 -->
<g id="node6" class="node">
<title>Node92</title>
<g id="a_node6"><a xlink:href="../../d4/d16/classConnectorTypeWidget.html#a4c5f8ff5957f5801984f51ad5ac7e217" target="_top" xlink:title=" ">
<polygon fill="#ffffff" stroke="#000000" points="331,-.5 331,-30.5 454,-30.5 454,-.5 331,-.5"/>
<text text-anchor="start" x="339" y="-18.5" font-family="Helvetica,sans-Serif" font-size="10.00" fill="#000000">ConnectorTypeWidget</text>
<text text-anchor="middle" x="392.5" y="-7.5" font-family="Helvetica,sans-Serif" font-size="10.00" fill="#000000">::type</text>
</a>
</g>
</g>
<!-- Node87&#45;&gt;Node92 -->
<g id="edge8" class="edge">
<title>Node87&#45;&gt;Node92</title>
<path fill="none" stroke="#191970" d="M123.3703,-35.0139C179.3264,-30.9567 261.7287,-24.9819 320.5953,-20.7136"/>
<polygon fill="#191970" stroke="#191970" points="321.2126,-24.1782 330.9332,-19.9641 320.7063,-17.1965 321.2126,-24.1782"/>
</g>
<!-- Node89 -->
<g id="node3" class="node">
<title>Node89</title>
<g id="a_node3"><a xlink:href="../../d9/d65/classConnector.html#a76cec73ddc070d6bf83e7a71bc392695" target="_top" xlink:title=" ">
<polygon fill="#ffffff" stroke="#000000" points="318,-98.5 318,-128.5 467,-128.5 467,-98.5 318,-98.5"/>
<text text-anchor="start" x="326" y="-116.5" font-family="Helvetica,sans-Serif" font-size="10.00" fill="#000000">Connector::connectorName</text>
<text text-anchor="middle" x="392.5" y="-105.5" font-family="Helvetica,sans-Serif" font-size="10.00" fill="#000000">FromType</text>
</a>
</g>
</g>
<!-- Node88&#45;&gt;Node89 -->
<g id="edge2" class="edge">
<title>Node88&#45;&gt;Node89</title>
<path fill="none" stroke="#191970" d="M271.1754,-77.5258C290.336,-83.2072 312.3281,-89.7281 332.2803,-95.6442"/>
<polygon fill="#191970" stroke="#191970" points="331.3074,-99.0063 341.8899,-98.4935 333.2974,-92.2951 331.3074,-99.0063"/>
</g>
<!-- Node90 -->
<g id="node4" class="node">
<title>Node90</title>
<g id="a_node4"><a xlink:href="../../d4/d16/classConnectorTypeWidget.html#ae5b453d7f9d2e3ef74b6fec1ea5a5277" target="_top" xlink:title=" ">
<polygon fill="#ffffff" stroke="#000000" points="331,-49.5 331,-79.5 454,-79.5 454,-49.5 331,-49.5"/>
<text text-anchor="start" x="339" y="-67.5" font-family="Helvetica,sans-Serif" font-size="10.00" fill="#000000">ConnectorTypeWidget</text>
<text text-anchor="middle" x="392.5" y="-56.5" font-family="Helvetica,sans-Serif" font-size="10.00" fill="#000000">::setText</text>
</a>
</g>
</g>
<!-- Node88&#45;&gt;Node90 -->
<g id="edge3" class="edge">
<title>Node88&#45;&gt;Node90</title>
<path fill="none" stroke="#191970" d="M282.1101,-63.2164C294.5841,-63.3614 307.8043,-63.5152 320.5968,-63.6639"/>
<polygon fill="#191970" stroke="#191970" points="320.7019,-67.1653 330.7419,-63.7819 320.7833,-60.1658 320.7019,-67.1653"/>
</g>
<!-- Node88&#45;&gt;Node92 -->
<g id="edge5" class="edge">
<title>Node88&#45;&gt;Node92</title>
<path fill="none" stroke="#191970" d="M275.3948,-47.4997C291.9961,-42.9633 310.3846,-37.9385 327.5758,-33.2409"/>
<polygon fill="#191970" stroke="#191970" points="328.813,-36.5312 337.5368,-30.519 326.9679,-29.7788 328.813,-36.5312"/>
</g>
<!-- Node91 -->
<g id="node5" class="node">
<title>Node91</title>
<g id="a_node5"><a xlink:href="../../d4/d16/classConnectorTypeWidget.html#abb8f878d5f1d13b09e7abce9811edcff" target="_top" xlink:title=" ">
<polygon fill="#ffffff" stroke="#000000" points="513,-49.5 513,-79.5 636,-79.5 636,-49.5 513,-49.5"/>
<text text-anchor="start" x="521" y="-67.5" font-family="Helvetica,sans-Serif" font-size="10.00" fill="#000000">ConnectorTypeWidget</text>
<text text-anchor="middle" x="574.5" y="-56.5" font-family="Helvetica,sans-Serif" font-size="10.00" fill="#000000">::text</text>
</a>
</g>
</g>
<!-- Node90&#45;&gt;Node91 -->
<g id="edge4" class="edge">
<title>Node90&#45;&gt;Node91</title>
<path fill="none" stroke="#191970" d="M454.1169,-64.5C469.6822,-64.5 486.5323,-64.5 502.557,-64.5"/>
<polygon fill="#191970" stroke="#191970" points="502.9466,-68.0001 512.9466,-64.5 502.9465,-61.0001 502.9466,-68.0001"/>
</g>
<!-- Node92&#45;&gt;Node91 -->
<g id="edge6" class="edge">
<title>Node92&#45;&gt;Node91</title>
<path fill="none" stroke="#191970" d="M448.5911,-30.6014C467.6225,-35.7253 489.055,-41.4956 508.7691,-46.8032"/>
<polygon fill="#191970" stroke="#191970" points="508.0281,-50.2283 518.5941,-49.4484 509.8479,-43.469 508.0281,-50.2283"/>
</g>
<!-- Node93 -->
<g id="node7" class="node">
<title>Node93</title>
<g id="a_node7"><a xlink:href="../../d9/d65/classConnector.html#acc03b78d85b634c2e5206326b4b1c432" target="_top" xlink:title=" ">
<polygon fill="#ffffff" stroke="#000000" points="503,-.5 503,-30.5 646,-30.5 646,-.5 503,-.5"/>
<text text-anchor="start" x="511" y="-18.5" font-family="Helvetica,sans-Serif" font-size="10.00" fill="#000000">Connector::connectorType</text>
<text text-anchor="middle" x="574.5" y="-7.5" font-family="Helvetica,sans-Serif" font-size="10.00" fill="#000000">FromName</text>
</a>
</g>
</g>
<!-- Node92&#45;&gt;Node93 -->
<g id="edge7" class="edge">
<title>Node92&#45;&gt;Node93</title>
<path fill="none" stroke="#191970" d="M454.1169,-15.5C466.4854,-15.5 479.6651,-15.5 492.5973,-15.5"/>
<polygon fill="#191970" stroke="#191970" points="492.8954,-19.0001 502.8953,-15.5 492.8953,-12.0001 492.8954,-19.0001"/>
</g>
</g>
</svg>
        <g id="navigator" transform="translate(0 0)" fill="#404254">
                <rect fill="#f2f5e9" fill-opacity="0.5" stroke="#606060" stroke-width=".5" x="0" y="0" width="60" height="60"/>
                <use id="zoomplus" xlink:href="#zoomPlus" x="17" y="9" onmousedown="handleZoom(evt,'in')"/>
                <use id="zoomminus" xlink:href="#zoomMin" x="42" y="9" onmousedown="handleZoom(evt,'out')"/>
                <use id="reset" xlink:href="#resetDef" x="30" y="36" onmousedown="handleReset()"/>
                <g id="arrowUp" xlink:href="#dirArrow" transform="translate(30 24)" onmousedown="handlePan(0,-1)">
                  <use xlink:href="#rim" fill="#404040">
                        <set attributeName="fill" to="#808080" begin="arrowUp.mouseover" end="arrowUp.mouseout"/>
                  </use>
                  <path fill="none" stroke="white" stroke-width="1.5" d="M0,-3.0v7 M-2.5,-0.5L0,-3.0L2.5,-0.5"/>
                </g>
                <g id="arrowRight" xlink:href="#dirArrow" transform="rotate(90) translate(36 -43)" onmousedown="handlePan(1,0)">
                  <use xlink:href="#rim" fill="#404040">
                        <set attributeName="fill" to="#808080" begin="arrowRight.mouseover" end="arrowRight.mouseout"/>
                  </use>
                  <path fill="none" stroke="white" stroke-width="1.5" d="M0,-3.0v7 M-2.5,-0.5L0,-3.0L2.5,-0.5"/>
                </g>
                <g id="arrowDown" xlink:href="#dirArrow" transform="rotate(180) translate(-30 -48)" onmousedown="handlePan(0,1)">
                  <use xlink:href="#rim" fill="#404040">
                        <set attributeName="fill" to="#808080" begin="arrowDown.mouseover" end="arrowDown.mouseout"/>
                  </use>
                  <path fill="none" stroke="white" stroke-width="1.5" d="M0,-3.0v7 M-2.5,-0.5L0,-3.0L2.5,-0.5"/>
                </g>
                <g id="arrowLeft" xlink:href="#dirArrow" transform="rotate(270) translate(-36 17)" onmousedown="handlePan(-1,0)">
                  <use xlink:href="#rim" fill="#404040">
                        <set attributeName="fill" to="#808080" begin="arrowLeft.mouseover" end="arrowLeft.mouseout"/>
                  </use>
                  <path fill="none" stroke="white" stroke-width="1.5" d="M0,-3.0v7 M-2.5,-0.5L0,-3.0L2.5,-0.5"/>
                </g>
        </g>
        <svg viewBox="0 0 15 15" width="100%" height="30px" preserveAspectRatio="xMaxYMin meet">
         <g id="arrow_out" transform="scale(0.3 0.3)">
          <a xlink:href="classConnectorTypeWidget_a24591fa235af1f129d73a40e2ec4cb83_cgraph_org.svg" target="_base">
           <rect id="button" ry="5" rx="5" y="6" x="6" height="38" width="38"
                fill="#f2f5e9" fill-opacity="0.5" stroke="#606060" stroke-width="1.0"/>
           <path id="arrow"
             d="M 11.500037,31.436501 C 11.940474,20.09759 22.043105,11.32322 32.158766,21.979434 L 37.068811,17.246167 C 37.068811,17.246167 37.088388,32 37.088388,32 L 22.160133,31.978069 C 22.160133,31.978069 26.997745,27.140456 26.997745,27.140456 C 18.528582,18.264221 13.291696,25.230495 11.500037,31.436501 z"
             style="fill:#404040;"/>
          </a>
         </g>
        </svg>
</svg>
