<?xml version="1.0" encoding="UTF-8" standalone="no"?>
<!DOCTYPE svg PUBLIC "-//W3C//DTD SVG 1.1//EN"
 "http://www.w3.org/Graphics/SVG/1.1/DTD/svg11.dtd">
<!-- Generated by graphviz version 2.40.1 (0)
 -->
<!-- Title: ConnectorTypeWidget::text Pages: 1 -->
<!--zoomable 310 -->
<svg id="main" version="1.1" xmlns="http://www.w3.org/2000/svg" xmlns:xlink="http://www.w3.org/1999/xlink" xml:space="preserve" onload="init(evt)">
<style type="text/css"><![CDATA[
.edge:hover path { stroke: red; }
.edge:hover polygon { stroke: red; fill: red; }
]]></style>
<script type="text/javascript"><![CDATA[
var edges = document.getElementsByTagName('g');
if (edges && edges.length) {
  for (var i=0;i<edges.length;i++) {
    if (edges[i].id.substr(0,4)=='edge') {
      edges[i].setAttribute('class','edge');
    }
  }
}
]]></script>
        <defs>
                <circle id="rim" cx="0" cy="0" r="7"/>
                <circle id="rim2" cx="0" cy="0" r="3.5"/>
                <g id="zoomPlus">
                        <use xlink:href="#rim" fill="#404040">
                                <set attributeName="fill" to="#808080" begin="zoomplus.mouseover" end="zoomplus.mouseout"/>
                        </use>
                        <path d="M-4,0h8M0,-4v8" fill="none" stroke="white" stroke-width="1.5" pointer-events="none"/>
                </g>
                <g id="zoomMin">
                        <use xlink:href="#rim" fill="#404040">
                                <set attributeName="fill" to="#808080" begin="zoomminus.mouseover" end="zoomminus.mouseout"/>
                        </use>
                        <path d="M-4,0h8" fill="none" stroke="white" stroke-width="1.5" pointer-events="none"/>
                </g>
                <g id="dirArrow">
                        <path fill="none" stroke="white" stroke-width="1.5" d="M0,-3.0v7 M-2.5,-0.5L0,-3.0L2.5,-0.5"/>
                </g>
               <g id="resetDef">
                       <use xlink:href="#rim2" fill="#404040">
                               <set attributeName="fill" to="#808080" begin="reset.mouseover" end="reset.mouseout"/>
                       </use>
               </g>
        </defs>

<script type="text/javascript">
var viewWidth = 1406;
var viewHeight = 310;
var sectionId = 'dynsection-11';
</script>
<script xlink:href="../../svgpan.js"/>
<svg id="graph" class="graph">
<g id="viewport">
<title>ConnectorTypeWidget::text</title>
<polygon fill="#ffffff" stroke="transparent" points="-4,4 -4,-306 1402,-306 1402,4 -4,4"/>
<!-- Node68 -->
<g id="node1" class="node">
<title>Node68</title>
<g id="a_node1"><a xlink:title=" ">
<polygon fill="#bfbfbf" stroke="#000000" points="1275,-128.5 1275,-158.5 1398,-158.5 1398,-128.5 1275,-128.5"/>
<text text-anchor="start" x="1283" y="-146.5" font-family="Helvetica,sans-Serif" font-size="10.00" fill="#000000">ConnectorTypeWidget</text>
<text text-anchor="middle" x="1336.5" y="-135.5" font-family="Helvetica,sans-Serif" font-size="10.00" fill="#000000">::text</text>
</a>
</g>
</g>
<!-- Node69 -->
<g id="node2" class="node">
<title>Node69</title>
<g id="a_node2"><a xlink:href="../../d4/d16/classConnectorTypeWidget.html#a4c5f8ff5957f5801984f51ad5ac7e217" target="_top" xlink:title=" ">
<polygon fill="#ffffff" stroke="#000000" points="1116,-161.5 1116,-191.5 1239,-191.5 1239,-161.5 1116,-161.5"/>
<text text-anchor="start" x="1124" y="-179.5" font-family="Helvetica,sans-Serif" font-size="10.00" fill="#000000">ConnectorTypeWidget</text>
<text text-anchor="middle" x="1177.5" y="-168.5" font-family="Helvetica,sans-Serif" font-size="10.00" fill="#000000">::type</text>
</a>
</g>
</g>
<!-- Node68&#45;&gt;Node69 -->
<g id="edge1" class="edge">
<title>Node68&#45;&gt;Node69</title>
<path fill="none" stroke="#191970" d="M1264.685,-158.405C1256.1972,-160.1666 1247.5916,-161.9527 1239.2598,-163.6819"/>
<polygon fill="#191970" stroke="#191970" points="1265.4911,-161.8124 1274.5712,-156.3532 1264.0685,-154.9584 1265.4911,-161.8124"/>
</g>
<!-- Node86 -->
<g id="node19" class="node">
<title>Node86</title>
<g id="a_node19"><a xlink:href="../../d4/d16/classConnectorTypeWidget.html#ae5b453d7f9d2e3ef74b6fec1ea5a5277" target="_top" xlink:title=" ">
<polygon fill="#ffffff" stroke="#000000" points="1116,-104.5 1116,-134.5 1239,-134.5 1239,-104.5 1116,-104.5"/>
<text text-anchor="start" x="1124" y="-122.5" font-family="Helvetica,sans-Serif" font-size="10.00" fill="#000000">ConnectorTypeWidget</text>
<text text-anchor="middle" x="1177.5" y="-111.5" font-family="Helvetica,sans-Serif" font-size="10.00" fill="#000000">::setText</text>
</a>
</g>
</g>
<!-- Node68&#45;&gt;Node86 -->
<g id="edge23" class="edge">
<title>Node68&#45;&gt;Node86</title>
<path fill="none" stroke="#191970" d="M1264.4081,-132.6182C1256.0102,-131.3506 1247.501,-130.0662 1239.2598,-128.8222"/>
<polygon fill="#191970" stroke="#191970" points="1264.1608,-136.1204 1274.5712,-134.1523 1265.2056,-129.1988 1264.1608,-136.1204"/>
</g>
<!-- Node70 -->
<g id="node3" class="node">
<title>Node70</title>
<g id="a_node3"><a xlink:href="../../d4/d16/classConnectorTypeWidget.html#a58cd9efc5bb40ca3ee828fe775f000eb" target="_top" xlink:title=" ">
<polygon fill="#ffffff" stroke="#000000" points="568,-85.5 568,-115.5 697,-115.5 697,-85.5 568,-85.5"/>
<text text-anchor="start" x="576" y="-103.5" font-family="Helvetica,sans-Serif" font-size="10.00" fill="#000000">ConnectorTypeWidget</text>
<text text-anchor="middle" x="632.5" y="-92.5" font-family="Helvetica,sans-Serif" font-size="10.00" fill="#000000">::ConnectorTypeWidget</text>
</a>
</g>
</g>
<!-- Node69&#45;&gt;Node70 -->
<g id="edge2" class="edge">
<title>Node69&#45;&gt;Node70</title>
<path fill="none" stroke="#191970" d="M1105.5996,-172.0852C1056.358,-168.7141 989.6125,-163.4619 931,-156.5 848.3547,-146.6835 827.6567,-143.5871 746,-127.5 728.3133,-124.0156 709.2062,-119.6905 691.804,-115.5305"/>
<polygon fill="#191970" stroke="#191970" points="1105.6193,-175.5944 1115.8324,-172.776 1106.0908,-168.6103 1105.6193,-175.5944"/>
</g>
<!-- Node71 -->
<g id="node4" class="node">
<title>Node71</title>
<g id="a_node4"><a xlink:href="../../d4/d16/classConnectorTypeWidget.html#af9c12a232e352f8e370d4b5d463dc03b" target="_top" xlink:title=" ">
<polygon fill="#ffffff" stroke="#000000" points="944,-214.5 944,-244.5 1067,-244.5 1067,-214.5 944,-214.5"/>
<text text-anchor="start" x="952" y="-232.5" font-family="Helvetica,sans-Serif" font-size="10.00" fill="#000000">ConnectorTypeWidget</text>
<text text-anchor="middle" x="1005.5" y="-221.5" font-family="Helvetica,sans-Serif" font-size="10.00" fill="#000000">::typeAsStr</text>
</a>
</g>
</g>
<!-- Node69&#45;&gt;Node71 -->
<g id="edge3" class="edge">
<title>Node69&#45;&gt;Node71</title>
<path fill="none" stroke="#191970" d="M1118.911,-194.5536C1097.9339,-201.0175 1074.5268,-208.2301 1054.4503,-214.4165"/>
<polygon fill="#191970" stroke="#191970" points="1120.1459,-197.8355 1128.6718,-191.5459 1118.0845,-191.1459 1120.1459,-197.8355"/>
</g>
<!-- Node78 -->
<g id="node11" class="node">
<title>Node78</title>
<g id="a_node11"><a xlink:href="../../d4/d16/classConnectorTypeWidget.html#ad773ba41fbd6cf0e86310911d0e37922" target="_top" xlink:title=" ">
<polygon fill="#ffffff" stroke="#000000" points="944,-88.5 944,-118.5 1067,-118.5 1067,-88.5 944,-88.5"/>
<text text-anchor="start" x="952" y="-106.5" font-family="Helvetica,sans-Serif" font-size="10.00" fill="#000000">ConnectorTypeWidget</text>
<text text-anchor="middle" x="1005.5" y="-95.5" font-family="Helvetica,sans-Serif" font-size="10.00" fill="#000000">::setType</text>
</a>
</g>
</g>
<!-- Node69&#45;&gt;Node78 -->
<g id="edge10" class="edge">
<title>Node69&#45;&gt;Node78</title>
<path fill="none" stroke="#191970" d="M1134.1878,-157.0369C1117.3273,-149.5554 1097.8121,-141.0118 1080,-133.5 1068.1802,-128.5153 1055.2342,-123.2389 1043.498,-118.5241"/>
<polygon fill="#191970" stroke="#191970" points="1133.216,-160.4354 1143.7753,-161.3034 1136.0621,-154.04 1133.216,-160.4354"/>
</g>
<!-- Node84 -->
<g id="node17" class="node">
<title>Node84</title>
<g id="a_node17"><a xlink:href="../../d4/d16/classConnectorTypeWidget.html#a24591fa235af1f129d73a40e2ec4cb83" target="_top" xlink:title=" ">
<polygon fill="#ffffff" stroke="#000000" points="759,-88.5 759,-118.5 882,-118.5 882,-88.5 759,-88.5"/>
<text text-anchor="start" x="767" y="-106.5" font-family="Helvetica,sans-Serif" font-size="10.00" fill="#000000">ConnectorTypeWidget</text>
<text text-anchor="middle" x="820.5" y="-95.5" font-family="Helvetica,sans-Serif" font-size="10.00" fill="#000000">::toggleValue</text>
</a>
</g>
</g>
<!-- Node69&#45;&gt;Node84 -->
<g id="edge20" class="edge">
<title>Node69&#45;&gt;Node84</title>
<path fill="none" stroke="#191970" d="M1105.9811,-162.6293C1056.7421,-152.9949 989.8486,-139.7388 931,-127.5 915.1435,-124.2023 898.031,-120.5375 882.1188,-117.0848"/>
<polygon fill="#191970" stroke="#191970" points="1105.4123,-166.0843 1115.898,-164.5675 1106.7551,-159.2143 1105.4123,-166.0843"/>
</g>
<!-- Node85 -->
<g id="node18" class="node">
<title>Node85</title>
<g id="a_node18"><a xlink:href="../../dc/db2/classSingleConnectorInfoWidget.html#a4ffd73c0c4709b5b044741efddccc588" target="_top" xlink:title=" ">
<polygon fill="#ffffff" stroke="#000000" points="931,-271.5 931,-301.5 1080,-301.5 1080,-271.5 931,-271.5"/>
<text text-anchor="start" x="939" y="-289.5" font-family="Helvetica,sans-Serif" font-size="10.00" fill="#000000">SingleConnectorInfoWidget</text>
<text text-anchor="middle" x="1005.5" y="-278.5" font-family="Helvetica,sans-Serif" font-size="10.00" fill="#000000">::connectorType</text>
</a>
</g>
</g>
<!-- Node69&#45;&gt;Node85 -->
<g id="edge21" class="edge">
<title>Node69&#45;&gt;Node85</title>
<path fill="none" stroke="#191970" d="M1153.7062,-198.5714C1134.7509,-215.3782 1107.0024,-238.3058 1080,-254.5 1069.3766,-260.8712 1057.2535,-266.6435 1045.9171,-271.4757"/>
<polygon fill="#191970" stroke="#191970" points="1156.1646,-201.0677 1161.2637,-191.7806 1151.4861,-195.8609 1156.1646,-201.0677"/>
</g>
<!-- Node72 -->
<g id="node5" class="node">
<title>Node72</title>
<g id="a_node5"><a xlink:href="../../dc/db2/classSingleConnectorInfoWidget.html#ad43e90bac15c6f0faf38de5a139e8217" target="_top" xlink:title=" ">
<polygon fill="#ffffff" stroke="#000000" points="746,-214.5 746,-244.5 895,-244.5 895,-214.5 746,-214.5"/>
<text text-anchor="start" x="754" y="-232.5" font-family="Helvetica,sans-Serif" font-size="10.00" fill="#000000">SingleConnectorInfoWidget</text>
<text text-anchor="middle" x="820.5" y="-221.5" font-family="Helvetica,sans-Serif" font-size="10.00" fill="#000000">::type</text>
</a>
</g>
</g>
<!-- Node71&#45;&gt;Node72 -->
<g id="edge4" class="edge">
<title>Node71&#45;&gt;Node72</title>
<path fill="none" stroke="#191970" d="M933.8284,-229.5C921.1,-229.5 907.8165,-229.5 895.0114,-229.5"/>
<polygon fill="#191970" stroke="#191970" points="933.8977,-233.0001 943.8977,-229.5 933.8976,-226.0001 933.8977,-233.0001"/>
</g>
<!-- Node73 -->
<g id="node6" class="node">
<title>Node73</title>
<g id="a_node6"><a xlink:href="../../db/d0e/classConnectorsInfoWidget.html#adfe961cec8e5cfaabc1c3ef8a4923143" target="_top" xlink:title=" ">
<polygon fill="#ffffff" stroke="#000000" points="570,-183.5 570,-213.5 695,-213.5 695,-183.5 570,-183.5"/>
<text text-anchor="start" x="578" y="-201.5" font-family="Helvetica,sans-Serif" font-size="10.00" fill="#000000">ConnectorsInfoWidget</text>
<text text-anchor="middle" x="632.5" y="-190.5" font-family="Helvetica,sans-Serif" font-size="10.00" fill="#000000">::connectorsShared</text>
</a>
</g>
</g>
<!-- Node72&#45;&gt;Node73 -->
<g id="edge5" class="edge">
<title>Node72&#45;&gt;Node73</title>
<path fill="none" stroke="#191970" d="M735.994,-215.5655C722.2625,-213.3013 708.258,-210.992 695.1686,-208.8337"/>
<polygon fill="#191970" stroke="#191970" points="735.4912,-219.0298 745.9274,-217.2035 736.6301,-212.123 735.4912,-219.0298"/>
</g>
<!-- Node74 -->
<g id="node7" class="node">
<title>Node74</title>
<g id="a_node7"><a xlink:href="../../dc/db2/classSingleConnectorInfoWidget.html#a9631b2154d0b49ab003be2ea5f4aef08" target="_top" xlink:title=" ">
<polygon fill="#ffffff" stroke="#000000" points="555,-232.5 555,-262.5 710,-262.5 710,-232.5 555,-232.5"/>
<text text-anchor="start" x="563" y="-250.5" font-family="Helvetica,sans-Serif" font-size="10.00" fill="#000000">SingleConnectorInfoWidget</text>
<text text-anchor="middle" x="632.5" y="-239.5" font-family="Helvetica,sans-Serif" font-size="10.00" fill="#000000">::SingleConnectorInfoWidget</text>
</a>
</g>
</g>
<!-- Node72&#45;&gt;Node74 -->
<g id="edge6" class="edge">
<title>Node72&#45;&gt;Node74</title>
<path fill="none" stroke="#191970" d="M735.8964,-237.6003C727.2951,-238.4239 718.5879,-239.2575 710.0665,-240.0734"/>
<polygon fill="#191970" stroke="#191970" points="736.3065,-241.0772 745.9274,-236.6399 735.6393,-234.109 736.3065,-241.0772"/>
</g>
<!-- Node75 -->
<g id="node8" class="node">
<title>Node75</title>
<g id="a_node8"><a xlink:href="../../dc/db2/classSingleConnectorInfoWidget.html#a897d1e65a420d6e906ce6b7727c69628" target="_top" xlink:title=" ">
<polygon fill="#ffffff" stroke="#000000" points="558,-134.5 558,-164.5 707,-164.5 707,-134.5 558,-134.5"/>
<text text-anchor="start" x="566" y="-152.5" font-family="Helvetica,sans-Serif" font-size="10.00" fill="#000000">SingleConnectorInfoWidget</text>
<text text-anchor="middle" x="632.5" y="-141.5" font-family="Helvetica,sans-Serif" font-size="10.00" fill="#000000">::setConnectorType</text>
</a>
</g>
</g>
<!-- Node72&#45;&gt;Node75 -->
<g id="edge7" class="edge">
<title>Node72&#45;&gt;Node75</title>
<path fill="none" stroke="#191970" d="M768.9117,-210.4885C761.1012,-207.1078 753.2404,-203.4077 746,-199.5 728.8576,-190.2482 727.459,-183.1395 710,-174.5 702.5241,-170.8006 694.3776,-167.4785 686.2668,-164.5562"/>
<polygon fill="#191970" stroke="#191970" points="767.7927,-213.8143 778.3687,-214.4462 770.4951,-207.357 767.7927,-213.8143"/>
</g>
<!-- Node76 -->
<g id="node9" class="node">
<title>Node76</title>
<g id="a_node9"><a xlink:href="../../db/d0e/classConnectorsInfoWidget.html#af97d1931c10f3b2d1d50f0cad6c39ebd" target="_top" xlink:title=" ">
<polygon fill="#ffffff" stroke="#000000" points="382,-205.5 382,-235.5 507,-235.5 507,-205.5 382,-205.5"/>
<text text-anchor="start" x="390" y="-223.5" font-family="Helvetica,sans-Serif" font-size="10.00" fill="#000000">ConnectorsInfoWidget</text>
<text text-anchor="middle" x="444.5" y="-212.5" font-family="Helvetica,sans-Serif" font-size="10.00" fill="#000000">::resetType</text>
</a>
</g>
</g>
<!-- Node75&#45;&gt;Node76 -->
<g id="edge8" class="edge">
<title>Node75&#45;&gt;Node76</title>
<path fill="none" stroke="#191970" d="M573.6248,-167.9287C567.3126,-170.0719 561.0064,-172.2853 555,-174.5 529.0693,-184.0612 500.2568,-196.1037 478.556,-205.4686"/>
<polygon fill="#191970" stroke="#191970" points="575.1303,-171.116 583.5065,-164.6283 572.9127,-164.4765 575.1303,-171.116"/>
</g>
<!-- Node77 -->
<g id="node10" class="node">
<title>Node77</title>
<g id="a_node10"><a xlink:href="../../db/d0e/classConnectorsInfoWidget.html#a969bd2f4e4f354da9ff6c03abd97d93e" target="_top" xlink:title=" ">
<polygon fill="#ffffff" stroke="#000000" points="197,-205.5 197,-235.5 322,-235.5 322,-205.5 197,-205.5"/>
<text text-anchor="start" x="205" y="-223.5" font-family="Helvetica,sans-Serif" font-size="10.00" fill="#000000">ConnectorsInfoWidget</text>
<text text-anchor="middle" x="259.5" y="-212.5" font-family="Helvetica,sans-Serif" font-size="10.00" fill="#000000">::syncNewConnectors</text>
</a>
</g>
</g>
<!-- Node76&#45;&gt;Node77 -->
<g id="edge9" class="edge">
<title>Node76&#45;&gt;Node77</title>
<path fill="none" stroke="#191970" d="M371.77,-220.5C355.34,-220.5 338.037,-220.5 322.0681,-220.5"/>
<polygon fill="#191970" stroke="#191970" points="371.8675,-224.0001 381.8674,-220.5 371.8674,-217.0001 371.8675,-224.0001"/>
</g>
<!-- Node78&#45;&gt;Node70 -->
<g id="edge11" class="edge">
<title>Node78&#45;&gt;Node70</title>
<path fill="none" stroke="#191970" d="M940.2115,-86.2076C925.4485,-83.004 909.7704,-80.15 895,-78.5 829.1872,-71.148 811.919,-72.1703 746,-78.5 730.0162,-80.0348 712.9383,-82.7588 697.011,-85.7788"/>
<polygon fill="#191970" stroke="#191970" points="939.7389,-89.6887 950.2635,-88.4707 941.2765,-82.8596 939.7389,-89.6887"/>
</g>
<!-- Node78&#45;&gt;Node75 -->
<g id="edge19" class="edge">
<title>Node78&#45;&gt;Node75</title>
<path fill="none" stroke="#191970" d="M933.6514,-120.5223C920.8325,-123.1536 907.5618,-125.6176 895,-127.5 832.0204,-136.9375 759.8881,-142.6173 707.1945,-145.8351"/>
<polygon fill="#191970" stroke="#191970" points="934.7478,-123.8683 943.8128,-118.384 933.3063,-117.0183 934.7478,-123.8683"/>
</g>
<!-- Node79 -->
<g id="node12" class="node">
<title>Node79</title>
<g id="a_node12"><a xlink:href="../../d4/d16/classConnectorTypeWidget.html#ac7568bdc77ef00b1a1594e241c0dd9a8" target="_top" xlink:title=" ">
<polygon fill="#ffffff" stroke="#000000" points="759,-.5 759,-30.5 882,-30.5 882,-.5 759,-.5"/>
<text text-anchor="start" x="767" y="-18.5" font-family="Helvetica,sans-Serif" font-size="10.00" fill="#000000">ConnectorTypeWidget</text>
<text text-anchor="middle" x="820.5" y="-7.5" font-family="Helvetica,sans-Serif" font-size="10.00" fill="#000000">::cancel</text>
</a>
</g>
</g>
<!-- Node78&#45;&gt;Node79 -->
<g id="edge12" class="edge">
<title>Node78&#45;&gt;Node79</title>
<path fill="none" stroke="#191970" d="M969.5891,-83.479C948.1952,-71.8477 920.3535,-57.2225 895,-45.5 883.8627,-40.3505 871.5791,-35.1964 860.2533,-30.6493"/>
<polygon fill="#191970" stroke="#191970" points="968.1813,-86.6984 978.6342,-88.4269 971.5407,-80.5571 968.1813,-86.6984"/>
</g>
<!-- Node78&#45;&gt;Node84 -->
<g id="edge17" class="edge">
<title>Node78&#45;&gt;Node84</title>
<path fill="none" stroke="#191970" d="M933.4857,-103.5C916.5278,-103.5 898.6027,-103.5 882.1485,-103.5"/>
<polygon fill="#191970" stroke="#191970" points="933.8977,-107.0001 943.8977,-103.5 933.8976,-100.0001 933.8977,-107.0001"/>
</g>
<!-- Node80 -->
<g id="node13" class="node">
<title>Node80</title>
<g id="a_node13"><a xlink:href="../../dc/db2/classSingleConnectorInfoWidget.html#a6f4e412ee56ebafd042a8b54fe1efb04" target="_top" xlink:title=" ">
<polygon fill="#ffffff" stroke="#000000" points="558,-.5 558,-30.5 707,-30.5 707,-.5 558,-.5"/>
<text text-anchor="start" x="566" y="-18.5" font-family="Helvetica,sans-Serif" font-size="10.00" fill="#000000">SingleConnectorInfoWidget</text>
<text text-anchor="middle" x="632.5" y="-7.5" font-family="Helvetica,sans-Serif" font-size="10.00" fill="#000000">::editionCanceled</text>
</a>
</g>
</g>
<!-- Node79&#45;&gt;Node80 -->
<g id="edge13" class="edge">
<title>Node79&#45;&gt;Node80</title>
<path fill="none" stroke="#191970" d="M748.7245,-15.5C735.1704,-15.5 720.9623,-15.5 707.3174,-15.5"/>
<polygon fill="#191970" stroke="#191970" points="748.9418,-19.0001 758.9418,-15.5 748.9417,-12.0001 748.9418,-19.0001"/>
</g>
<!-- Node81 -->
<g id="node14" class="node">
<title>Node81</title>
<g id="a_node14"><a xlink:href="../../dc/db2/classSingleConnectorInfoWidget.html#a237912ffca106cdb1a989b84d0215644" target="_top" xlink:title=" ">
<polygon fill="#ffffff" stroke="#000000" points="370,-.5 370,-30.5 519,-30.5 519,-.5 370,-.5"/>
<text text-anchor="start" x="378" y="-18.5" font-family="Helvetica,sans-Serif" font-size="10.00" fill="#000000">SingleConnectorInfoWidget</text>
<text text-anchor="middle" x="444.5" y="-7.5" font-family="Helvetica,sans-Serif" font-size="10.00" fill="#000000">::toEditionMode</text>
</a>
</g>
</g>
<!-- Node80&#45;&gt;Node81 -->
<g id="edge14" class="edge">
<title>Node80&#45;&gt;Node81</title>
<path fill="none" stroke="#191970" d="M547.711,-15.5C538.2333,-15.5 528.6295,-15.5 519.29,-15.5"/>
<polygon fill="#191970" stroke="#191970" points="547.9274,-19.0001 557.9274,-15.5 547.9274,-12.0001 547.9274,-19.0001"/>
</g>
<!-- Node82 -->
<g id="node15" class="node">
<title>Node82</title>
<g id="a_node15"><a xlink:href="../../dc/db2/classSingleConnectorInfoWidget.html#acf83c47f4fe85ebc58857af23557ce1b" target="_top" xlink:title=" ">
<polygon fill="#ffffff" stroke="#000000" points="185,-.5 185,-30.5 334,-30.5 334,-.5 185,-.5"/>
<text text-anchor="start" x="193" y="-18.5" font-family="Helvetica,sans-Serif" font-size="10.00" fill="#000000">SingleConnectorInfoWidget</text>
<text text-anchor="middle" x="259.5" y="-7.5" font-family="Helvetica,sans-Serif" font-size="10.00" fill="#000000">::startEdition</text>
</a>
</g>
</g>
<!-- Node81&#45;&gt;Node82 -->
<g id="edge15" class="edge">
<title>Node81&#45;&gt;Node82</title>
<path fill="none" stroke="#191970" d="M359.5317,-15.5C351.0744,-15.5 342.5325,-15.5 334.1915,-15.5"/>
<polygon fill="#191970" stroke="#191970" points="359.7867,-19.0001 369.7867,-15.5 359.7866,-12.0001 359.7867,-19.0001"/>
</g>
<!-- Node83 -->
<g id="node16" class="node">
<title>Node83</title>
<g id="a_node16"><a xlink:href="../../dc/db2/classSingleConnectorInfoWidget.html#aa1df7d8795dfb3929d934ecfccf89d9c" target="_top" xlink:title=" ">
<polygon fill="#ffffff" stroke="#000000" points="0,-.5 0,-30.5 149,-30.5 149,-.5 0,-.5"/>
<text text-anchor="start" x="8" y="-18.5" font-family="Helvetica,sans-Serif" font-size="10.00" fill="#000000">SingleConnectorInfoWidget</text>
<text text-anchor="middle" x="74.5" y="-7.5" font-family="Helvetica,sans-Serif" font-size="10.00" fill="#000000">::mousePressEvent</text>
</a>
</g>
</g>
<!-- Node82&#45;&gt;Node83 -->
<g id="edge16" class="edge">
<title>Node82&#45;&gt;Node83</title>
<path fill="none" stroke="#191970" d="M174.5317,-15.5C166.0744,-15.5 157.5325,-15.5 149.1915,-15.5"/>
<polygon fill="#191970" stroke="#191970" points="174.7867,-19.0001 184.7867,-15.5 174.7866,-12.0001 174.7867,-19.0001"/>
</g>
<!-- Node84&#45;&gt;Node70 -->
<g id="edge18" class="edge">
<title>Node84&#45;&gt;Node70</title>
<path fill="none" stroke="#191970" d="M748.5536,-102.3519C731.6257,-102.0818 713.6865,-101.7955 697.1044,-101.5309"/>
<polygon fill="#191970" stroke="#191970" points="748.8872,-105.8576 758.9418,-102.5177 748.9989,-98.8585 748.8872,-105.8576"/>
</g>
<!-- Node85&#45;&gt;Node76 -->
<g id="edge22" class="edge">
<title>Node85&#45;&gt;Node76</title>
<path fill="none" stroke="#191970" d="M920.8823,-293.9896C829.3167,-299.7677 679.68,-302.4113 555,-272.5 523.6621,-264.9819 490.5824,-248.0595 468.8771,-235.5508"/>
<polygon fill="#191970" stroke="#191970" points="921.1823,-297.4775 930.9307,-293.3281 920.7224,-290.4926 921.1823,-297.4775"/>
</g>
<!-- Node86&#45;&gt;Node78 -->
<g id="edge24" class="edge">
<title>Node86&#45;&gt;Node78</title>
<path fill="none" stroke="#191970" d="M1105.7484,-112.8254C1092.9594,-111.6358 1079.7379,-110.4059 1067.2581,-109.2449"/>
<polygon fill="#191970" stroke="#191970" points="1105.6086,-116.3275 1115.8899,-113.7688 1106.2571,-109.3575 1105.6086,-116.3275"/>
</g>
</g>
</svg>
        <g id="navigator" transform="translate(0 0)" fill="#404254">
                <rect fill="#f2f5e9" fill-opacity="0.5" stroke="#606060" stroke-width=".5" x="0" y="0" width="60" height="60"/>
                <use id="zoomplus" xlink:href="#zoomPlus" x="17" y="9" onmousedown="handleZoom(evt,'in')"/>
                <use id="zoomminus" xlink:href="#zoomMin" x="42" y="9" onmousedown="handleZoom(evt,'out')"/>
                <use id="reset" xlink:href="#resetDef" x="30" y="36" onmousedown="handleReset()"/>
                <g id="arrowUp" xlink:href="#dirArrow" transform="translate(30 24)" onmousedown="handlePan(0,-1)">
                  <use xlink:href="#rim" fill="#404040">
                        <set attributeName="fill" to="#808080" begin="arrowUp.mouseover" end="arrowUp.mouseout"/>
                  </use>
                  <path fill="none" stroke="white" stroke-width="1.5" d="M0,-3.0v7 M-2.5,-0.5L0,-3.0L2.5,-0.5"/>
                </g>
                <g id="arrowRight" xlink:href="#dirArrow" transform="rotate(90) translate(36 -43)" onmousedown="handlePan(1,0)">
                  <use xlink:href="#rim" fill="#404040">
                        <set attributeName="fill" to="#808080" begin="arrowRight.mouseover" end="arrowRight.mouseout"/>
                  </use>
                  <path fill="none" stroke="white" stroke-width="1.5" d="M0,-3.0v7 M-2.5,-0.5L0,-3.0L2.5,-0.5"/>
                </g>
                <g id="arrowDown" xlink:href="#dirArrow" transform="rotate(180) translate(-30 -48)" onmousedown="handlePan(0,1)">
                  <use xlink:href="#rim" fill="#404040">
                        <set attributeName="fill" to="#808080" begin="arrowDown.mouseover" end="arrowDown.mouseout"/>
                  </use>
                  <path fill="none" stroke="white" stroke-width="1.5" d="M0,-3.0v7 M-2.5,-0.5L0,-3.0L2.5,-0.5"/>
                </g>
                <g id="arrowLeft" xlink:href="#dirArrow" transform="rotate(270) translate(-36 17)" onmousedown="handlePan(-1,0)">
                  <use xlink:href="#rim" fill="#404040">
                        <set attributeName="fill" to="#808080" begin="arrowLeft.mouseover" end="arrowLeft.mouseout"/>
                  </use>
                  <path fill="none" stroke="white" stroke-width="1.5" d="M0,-3.0v7 M-2.5,-0.5L0,-3.0L2.5,-0.5"/>
                </g>
        </g>
        <svg viewBox="0 0 15 15" width="100%" height="30px" preserveAspectRatio="xMaxYMin meet">
         <g id="arrow_out" transform="scale(0.3 0.3)">
          <a xlink:href="classConnectorTypeWidget_abb8f878d5f1d13b09e7abce9811edcff_icgraph_org.svg" target="_base">
           <rect id="button" ry="5" rx="5" y="6" x="6" height="38" width="38"
                fill="#f2f5e9" fill-opacity="0.5" stroke="#606060" stroke-width="1.0"/>
           <path id="arrow"
             d="M 11.500037,31.436501 C 11.940474,20.09759 22.043105,11.32322 32.158766,21.979434 L 37.068811,17.246167 C 37.068811,17.246167 37.088388,32 37.088388,32 L 22.160133,31.978069 C 22.160133,31.978069 26.997745,27.140456 26.997745,27.140456 C 18.528582,18.264221 13.291696,25.230495 11.500037,31.436501 z"
             style="fill:#404040;"/>
          </a>
         </g>
        </svg>
</svg>
