<?xml version="1.0" encoding="UTF-8" standalone="no"?>
<!DOCTYPE svg PUBLIC "-//W3C//DTD SVG 1.1//EN"
 "http://www.w3.org/Graphics/SVG/1.1/DTD/svg11.dtd">
<!-- Generated by graphviz version 2.40.1 (0)
 -->
<!-- Title: partseditor/obsolete/mismatchingconnectorwidget.h Pages: 1 -->
<!--zoomable 307 -->
<svg id="main" version="1.1" xmlns="http://www.w3.org/2000/svg" xmlns:xlink="http://www.w3.org/1999/xlink" xml:space="preserve" onload="init(evt)">
<style type="text/css"><![CDATA[
.edge:hover path { stroke: red; }
.edge:hover polygon { stroke: red; fill: red; }
]]></style>
<script type="text/javascript"><![CDATA[
var edges = document.getElementsByTagName('g');
if (edges && edges.length) {
  for (var i=0;i<edges.length;i++) {
    if (edges[i].id.substr(0,4)=='edge') {
      edges[i].setAttribute('class','edge');
    }
  }
}
]]></script>
        <defs>
                <circle id="rim" cx="0" cy="0" r="7"/>
                <circle id="rim2" cx="0" cy="0" r="3.5"/>
                <g id="zoomPlus">
                        <use xlink:href="#rim" fill="#404040">
                                <set attributeName="fill" to="#808080" begin="zoomplus.mouseover" end="zoomplus.mouseout"/>
                        </use>
                        <path d="M-4,0h8M0,-4v8" fill="none" stroke="white" stroke-width="1.5" pointer-events="none"/>
                </g>
                <g id="zoomMin">
                        <use xlink:href="#rim" fill="#404040">
                                <set attributeName="fill" to="#808080" begin="zoomminus.mouseover" end="zoomminus.mouseout"/>
                        </use>
                        <path d="M-4,0h8" fill="none" stroke="white" stroke-width="1.5" pointer-events="none"/>
                </g>
                <g id="dirArrow">
                        <path fill="none" stroke="white" stroke-width="1.5" d="M0,-3.0v7 M-2.5,-0.5L0,-3.0L2.5,-0.5"/>
                </g>
               <g id="resetDef">
                       <use xlink:href="#rim2" fill="#404040">
                               <set attributeName="fill" to="#808080" begin="reset.mouseover" end="reset.mouseout"/>
                       </use>
               </g>
        </defs>

<script type="text/javascript">
var viewWidth = 782;
var viewHeight = 307;
var sectionId = 'dynsection-1';
</script>
<script xlink:href="../../svgpan.js"/>
<svg id="graph" class="graph">
<g id="viewport">
<title>partseditor/obsolete/mismatchingconnectorwidget.h</title>
<polygon fill="#ffffff" stroke="transparent" points="-4,4 -4,-303 778,-303 778,4 -4,4"/>
<!-- Node6 -->
<g id="node1" class="node">
<title>Node6</title>
<g id="a_node1"><a xlink:title=" ">
<polygon fill="#bfbfbf" stroke="#000000" points="405,-268.5 405,-298.5 578,-298.5 578,-268.5 405,-268.5"/>
<text text-anchor="start" x="413" y="-286.5" font-family="Helvetica,sans-Serif" font-size="10.00" fill="#000000">partseditor/obsolete</text>
<text text-anchor="middle" x="491.5" y="-275.5" font-family="Helvetica,sans-Serif" font-size="10.00" fill="#000000">/mismatchingconnectorwidget.h</text>
</a>
</g>
</g>
<!-- Node7 -->
<g id="node2" class="node">
<title>Node7</title>
<g id="a_node2"><a xlink:href="../../dd/def/singleconnectorinfowidget_8h.html" target="_top" xlink:title=" ">
<polygon fill="#ffffff" stroke="#000000" points="412.5,-201.5 412.5,-231.5 570.5,-231.5 570.5,-201.5 412.5,-201.5"/>
<text text-anchor="start" x="420.5" y="-219.5" font-family="Helvetica,sans-Serif" font-size="10.00" fill="#000000">partseditor/obsolete</text>
<text text-anchor="middle" x="491.5" y="-208.5" font-family="Helvetica,sans-Serif" font-size="10.00" fill="#000000">/singleconnectorinfowidget.h</text>
</a>
</g>
</g>
<!-- Node6&#45;&gt;Node7 -->
<g id="edge1" class="edge">
<title>Node6&#45;&gt;Node7</title>
<path fill="none" stroke="#191970" d="M491.5,-258.0249C491.5,-249.128 491.5,-239.4287 491.5,-231.6432"/>
<polygon fill="#191970" stroke="#191970" points="488.0001,-258.2966 491.5,-268.2967 495.0001,-258.2967 488.0001,-258.2966"/>
</g>
<!-- Node8 -->
<g id="node3" class="node">
<title>Node8</title>
<g id="a_node3"><a xlink:href="../../d9/d48/connectorsinfowidget_8h.html" target="_top" xlink:title=" ">
<polygon fill="#ffffff" stroke="#000000" points="317.5,-134.5 317.5,-164.5 451.5,-164.5 451.5,-134.5 317.5,-134.5"/>
<text text-anchor="start" x="325.5" y="-152.5" font-family="Helvetica,sans-Serif" font-size="10.00" fill="#000000">partseditor/obsolete</text>
<text text-anchor="middle" x="384.5" y="-141.5" font-family="Helvetica,sans-Serif" font-size="10.00" fill="#000000">/connectorsinfowidget.h</text>
</a>
</g>
</g>
<!-- Node6&#45;&gt;Node8 -->
<g id="edge14" class="edge">
<title>Node6&#45;&gt;Node8</title>
<path fill="none" stroke="#191970" d="M441.621,-263.5073C427.4359,-255.6204 413.2178,-245.2215 403.5,-232 388.7892,-211.9853 385.2209,-182.4423 384.4946,-164.6738"/>
<polygon fill="#191970" stroke="#191970" points="440.404,-266.8195 450.8903,-268.3318 443.6358,-260.6102 440.404,-266.8195"/>
</g>
<!-- Node16 -->
<g id="node11" class="node">
<title>Node16</title>
<g id="a_node11"><a xlink:href="../../dc/dda/mismatchingconnectorwidget_8cpp.html" target="_top" xlink:title=" ">
<polygon fill="#ffffff" stroke="#000000" points="589,-201.5 589,-231.5 774,-231.5 774,-201.5 589,-201.5"/>
<text text-anchor="start" x="597" y="-219.5" font-family="Helvetica,sans-Serif" font-size="10.00" fill="#000000">partseditor/obsolete</text>
<text text-anchor="middle" x="681.5" y="-208.5" font-family="Helvetica,sans-Serif" font-size="10.00" fill="#000000">/mismatchingconnectorwidget.cpp</text>
</a>
</g>
</g>
<!-- Node6&#45;&gt;Node16 -->
<g id="edge15" class="edge">
<title>Node6&#45;&gt;Node16</title>
<path fill="none" stroke="#191970" d="M543.9563,-265.0023C573.7664,-254.4903 610.6202,-241.4945 638.6743,-231.6017"/>
<polygon fill="#191970" stroke="#191970" points="542.4065,-261.8374 534.1397,-268.4639 544.7345,-268.439 542.4065,-261.8374"/>
</g>
<!-- Node7&#45;&gt;Node8 -->
<g id="edge2" class="edge">
<title>Node7&#45;&gt;Node8</title>
<path fill="none" stroke="#191970" d="M458.8827,-196.0761C442.755,-185.9774 423.6242,-173.9983 408.803,-164.7177"/>
<polygon fill="#191970" stroke="#191970" points="457.1541,-199.1232 467.4871,-201.4639 460.8691,-193.1903 457.1541,-199.1232"/>
</g>
<!-- Node15 -->
<g id="node10" class="node">
<title>Node15</title>
<g id="a_node10"><a xlink:href="../../d7/dcf/singleconnectorinfowidget_8cpp.html" target="_top" xlink:title=" ">
<polygon fill="#ffffff" stroke="#000000" points="555,-67.5 555,-97.5 724,-97.5 724,-67.5 555,-67.5"/>
<text text-anchor="start" x="563" y="-85.5" font-family="Helvetica,sans-Serif" font-size="10.00" fill="#000000">partseditor/obsolete</text>
<text text-anchor="middle" x="639.5" y="-74.5" font-family="Helvetica,sans-Serif" font-size="10.00" fill="#000000">/singleconnectorinfowidget.cpp</text>
</a>
</g>
</g>
<!-- Node7&#45;&gt;Node15 -->
<g id="edge13" class="edge">
<title>Node7&#45;&gt;Node15</title>
<path fill="none" stroke="#191970" d="M515.7397,-194.5533C545.8518,-167.2895 596.4478,-121.4797 622.6441,-97.7614"/>
<polygon fill="#191970" stroke="#191970" points="513.2537,-192.0826 508.1898,-201.389 517.9519,-197.2717 513.2537,-192.0826"/>
</g>
<!-- Node9 -->
<g id="node4" class="node">
<title>Node9</title>
<g id="a_node4"><a xlink:href="../../d2/d86/abstractconnectorinfowidget_8cpp.html" target="_top" xlink:title=" ">
<polygon fill="#ffffff" stroke="#000000" points="36,-67.5 36,-97.5 215,-97.5 215,-67.5 36,-67.5"/>
<text text-anchor="start" x="44" y="-85.5" font-family="Helvetica,sans-Serif" font-size="10.00" fill="#000000">partseditor/obsolete</text>
<text text-anchor="middle" x="125.5" y="-74.5" font-family="Helvetica,sans-Serif" font-size="10.00" fill="#000000">/abstractconnectorinfowidget.cpp</text>
</a>
</g>
</g>
<!-- Node8&#45;&gt;Node9 -->
<g id="edge3" class="edge">
<title>Node8&#45;&gt;Node9</title>
<path fill="none" stroke="#191970" d="M316.6767,-131.955C275.427,-121.2842 223.2843,-107.7955 183.8782,-97.6017"/>
<polygon fill="#191970" stroke="#191970" points="315.8175,-135.3478 326.3753,-134.4639 317.5706,-128.5709 315.8175,-135.3478"/>
</g>
<!-- Node10 -->
<g id="node5" class="node">
<title>Node10</title>
<g id="a_node5"><a xlink:href="../../d8/d25/connectorsinfowidget_8cpp.html" target="_top" xlink:title=" ">
<polygon fill="#ffffff" stroke="#000000" points="0,-.5 0,-30.5 145,-30.5 145,-.5 0,-.5"/>
<text text-anchor="start" x="8" y="-18.5" font-family="Helvetica,sans-Serif" font-size="10.00" fill="#000000">partseditor/obsolete</text>
<text text-anchor="middle" x="72.5" y="-7.5" font-family="Helvetica,sans-Serif" font-size="10.00" fill="#000000">/connectorsinfowidget.cpp</text>
</a>
</g>
</g>
<!-- Node8&#45;&gt;Node10 -->
<g id="edge4" class="edge">
<title>Node8&#45;&gt;Node10</title>
<path fill="none" stroke="#191970" d="M307.1059,-143.7009C207.3855,-135.4298 44.6126,-118.9047 26.5,-98 8.4593,-77.1783 33.9075,-48.1553 53.535,-30.6624"/>
<polygon fill="#191970" stroke="#191970" points="306.8961,-147.1954 317.1486,-144.5238 307.4678,-140.2188 306.8961,-147.1954"/>
</g>
<!-- Node11 -->
<g id="node6" class="node">
<title>Node11</title>
<g id="a_node6"><a xlink:href="../../df/d09/partseditorviewswidget_8h.html" target="_top" xlink:title=" ">
<polygon fill="#ffffff" stroke="#000000" points="233,-67.5 233,-97.5 376,-97.5 376,-67.5 233,-67.5"/>
<text text-anchor="start" x="241" y="-85.5" font-family="Helvetica,sans-Serif" font-size="10.00" fill="#000000">partseditor/obsolete</text>
<text text-anchor="middle" x="304.5" y="-74.5" font-family="Helvetica,sans-Serif" font-size="10.00" fill="#000000">/partseditorviewswidget.h</text>
</a>
</g>
</g>
<!-- Node8&#45;&gt;Node11 -->
<g id="edge5" class="edge">
<title>Node8&#45;&gt;Node11</title>
<path fill="none" stroke="#191970" d="M358.5667,-127.7808C346.8144,-117.9383 333.2056,-106.541 322.5814,-97.6432"/>
<polygon fill="#191970" stroke="#191970" points="356.433,-130.5592 366.3468,-134.2967 360.9275,-125.1927 356.433,-130.5592"/>
</g>
<!-- Node14 -->
<g id="node9" class="node">
<title>Node14</title>
<g id="a_node9"><a xlink:href="../../db/d96/partseditormainwindow_8h.html" target="_top" xlink:title=" ">
<polygon fill="#ffffff" stroke="#000000" points="394,-67.5 394,-97.5 537,-97.5 537,-67.5 394,-67.5"/>
<text text-anchor="start" x="402" y="-85.5" font-family="Helvetica,sans-Serif" font-size="10.00" fill="#000000">partseditor/obsolete</text>
<text text-anchor="middle" x="465.5" y="-74.5" font-family="Helvetica,sans-Serif" font-size="10.00" fill="#000000">/partseditormainwindow.h</text>
</a>
</g>
</g>
<!-- Node8&#45;&gt;Node14 -->
<g id="edge9" class="edge">
<title>Node8&#45;&gt;Node14</title>
<path fill="none" stroke="#191970" d="M410.7575,-127.7808C422.6567,-117.9383 436.4356,-106.541 447.1926,-97.6432"/>
<polygon fill="#191970" stroke="#191970" points="408.3549,-125.2259 402.8802,-134.2967 412.8165,-130.6198 408.3549,-125.2259"/>
</g>
<!-- Node8&#45;&gt;Node15 -->
<g id="edge12" class="edge">
<title>Node8&#45;&gt;Node15</title>
<path fill="none" stroke="#191970" d="M451.533,-131.8874C492.1051,-121.2273 543.3078,-107.774 582.0234,-97.6017"/>
<polygon fill="#191970" stroke="#191970" points="450.5093,-128.5375 441.727,-134.4639 452.2882,-135.3077 450.5093,-128.5375"/>
</g>
<!-- Node11&#45;&gt;Node10 -->
<g id="edge6" class="edge">
<title>Node11&#45;&gt;Node10</title>
<path fill="none" stroke="#191970" d="M242.8096,-64.6842C206.01,-54.0568 159.7927,-40.7095 124.7924,-30.6017"/>
<polygon fill="#191970" stroke="#191970" points="241.8562,-68.0519 252.4347,-67.4639 243.7984,-61.3267 241.8562,-68.0519"/>
</g>
<!-- Node12 -->
<g id="node7" class="node">
<title>Node12</title>
<g id="a_node7"><a xlink:href="../../d0/dd7/partseditormainwindow_8cpp.html" target="_top" xlink:title=" ">
<polygon fill="#ffffff" stroke="#000000" points="221,-.5 221,-30.5 376,-30.5 376,-.5 221,-.5"/>
<text text-anchor="start" x="229" y="-18.5" font-family="Helvetica,sans-Serif" font-size="10.00" fill="#000000">partseditor/obsolete</text>
<text text-anchor="middle" x="298.5" y="-7.5" font-family="Helvetica,sans-Serif" font-size="10.00" fill="#000000">/partseditormainwindow.cpp</text>
</a>
</g>
</g>
<!-- Node11&#45;&gt;Node12 -->
<g id="edge7" class="edge">
<title>Node11&#45;&gt;Node12</title>
<path fill="none" stroke="#191970" d="M302.2449,-57.3179C301.441,-48.3414 300.561,-38.5143 299.8561,-30.6432"/>
<polygon fill="#191970" stroke="#191970" points="298.7604,-57.6487 303.1385,-67.2967 305.7325,-57.0243 298.7604,-57.6487"/>
</g>
<!-- Node13 -->
<g id="node8" class="node">
<title>Node13</title>
<g id="a_node8"><a xlink:href="../../de/d6e/partseditorviewswidget_8cpp.html" target="_top" xlink:title=" ">
<polygon fill="#ffffff" stroke="#000000" points="394,-.5 394,-30.5 549,-30.5 549,-.5 394,-.5"/>
<text text-anchor="start" x="402" y="-18.5" font-family="Helvetica,sans-Serif" font-size="10.00" fill="#000000">partseditor/obsolete</text>
<text text-anchor="middle" x="471.5" y="-7.5" font-family="Helvetica,sans-Serif" font-size="10.00" fill="#000000">/partseditorviewswidget.cpp</text>
</a>
</g>
</g>
<!-- Node11&#45;&gt;Node13 -->
<g id="edge8" class="edge">
<title>Node11&#45;&gt;Node13</title>
<path fill="none" stroke="#191970" d="M351.2912,-63.7275C377.3706,-53.2645 409.4148,-40.4084 433.8585,-30.6017"/>
<polygon fill="#191970" stroke="#191970" points="349.9558,-60.492 341.9781,-67.4639 352.5622,-66.9887 349.9558,-60.492"/>
</g>
<!-- Node14&#45;&gt;Node12 -->
<g id="edge10" class="edge">
<title>Node14&#45;&gt;Node12</title>
<path fill="none" stroke="#191970" d="M418.7088,-63.7275C392.6294,-53.2645 360.5852,-40.4084 336.1415,-30.6017"/>
<polygon fill="#191970" stroke="#191970" points="417.4378,-66.9887 428.0219,-67.4639 420.0442,-60.492 417.4378,-66.9887"/>
</g>
<!-- Node14&#45;&gt;Node13 -->
<g id="edge11" class="edge">
<title>Node14&#45;&gt;Node13</title>
<path fill="none" stroke="#191970" d="M467.7551,-57.3179C468.559,-48.3414 469.439,-38.5143 470.1439,-30.6432"/>
<polygon fill="#191970" stroke="#191970" points="464.2675,-57.0243 466.8615,-67.2967 471.2396,-57.6487 464.2675,-57.0243"/>
</g>
</g>
</svg>
        <g id="navigator" transform="translate(0 0)" fill="#404254">
                <rect fill="#f2f5e9" fill-opacity="0.5" stroke="#606060" stroke-width=".5" x="0" y="0" width="60" height="60"/>
                <use id="zoomplus" xlink:href="#zoomPlus" x="17" y="9" onmousedown="handleZoom(evt,'in')"/>
                <use id="zoomminus" xlink:href="#zoomMin" x="42" y="9" onmousedown="handleZoom(evt,'out')"/>
                <use id="reset" xlink:href="#resetDef" x="30" y="36" onmousedown="handleReset()"/>
                <g id="arrowUp" xlink:href="#dirArrow" transform="translate(30 24)" onmousedown="handlePan(0,-1)">
                  <use xlink:href="#rim" fill="#404040">
                        <set attributeName="fill" to="#808080" begin="arrowUp.mouseover" end="arrowUp.mouseout"/>
                  </use>
                  <path fill="none" stroke="white" stroke-width="1.5" d="M0,-3.0v7 M-2.5,-0.5L0,-3.0L2.5,-0.5"/>
                </g>
                <g id="arrowRight" xlink:href="#dirArrow" transform="rotate(90) translate(36 -43)" onmousedown="handlePan(1,0)">
                  <use xlink:href="#rim" fill="#404040">
                        <set attributeName="fill" to="#808080" begin="arrowRight.mouseover" end="arrowRight.mouseout"/>
                  </use>
                  <path fill="none" stroke="white" stroke-width="1.5" d="M0,-3.0v7 M-2.5,-0.5L0,-3.0L2.5,-0.5"/>
                </g>
                <g id="arrowDown" xlink:href="#dirArrow" transform="rotate(180) translate(-30 -48)" onmousedown="handlePan(0,1)">
                  <use xlink:href="#rim" fill="#404040">
                        <set attributeName="fill" to="#808080" begin="arrowDown.mouseover" end="arrowDown.mouseout"/>
                  </use>
                  <path fill="none" stroke="white" stroke-width="1.5" d="M0,-3.0v7 M-2.5,-0.5L0,-3.0L2.5,-0.5"/>
                </g>
                <g id="arrowLeft" xlink:href="#dirArrow" transform="rotate(270) translate(-36 17)" onmousedown="handlePan(-1,0)">
                  <use xlink:href="#rim" fill="#404040">
                        <set attributeName="fill" to="#808080" begin="arrowLeft.mouseover" end="arrowLeft.mouseout"/>
                  </use>
                  <path fill="none" stroke="white" stroke-width="1.5" d="M0,-3.0v7 M-2.5,-0.5L0,-3.0L2.5,-0.5"/>
                </g>
        </g>
        <svg viewBox="0 0 15 15" width="100%" height="30px" preserveAspectRatio="xMaxYMin meet">
         <g id="arrow_out" transform="scale(0.3 0.3)">
          <a xlink:href="mismatchingconnectorwidget_8h__dep__incl_org.svg" target="_base">
           <rect id="button" ry="5" rx="5" y="6" x="6" height="38" width="38"
                fill="#f2f5e9" fill-opacity="0.5" stroke="#606060" stroke-width="1.0"/>
           <path id="arrow"
             d="M 11.500037,31.436501 C 11.940474,20.09759 22.043105,11.32322 32.158766,21.979434 L 37.068811,17.246167 C 37.068811,17.246167 37.088388,32 37.088388,32 L 22.160133,31.978069 C 22.160133,31.978069 26.997745,27.140456 26.997745,27.140456 C 18.528582,18.264221 13.291696,25.230495 11.500037,31.436501 z"
             style="fill:#404040;"/>
          </a>
         </g>
        </svg>
</svg>
