<?xml version="1.0" encoding="UTF-8" standalone="no"?>
<!DOCTYPE svg PUBLIC "-//W3C//DTD SVG 1.1//EN"
 "http://www.w3.org/Graphics/SVG/1.1/DTD/svg11.dtd">
<!-- Generated by graphviz version 2.40.1 (0)
 -->
<!-- Title: partseditor/obsolete/partseditorview.h Pages: 1 -->
<svg width="1120pt" height="95pt"
 viewBox="0.00 0.00 1119.50 95.00" xmlns="http://www.w3.org/2000/svg" xmlns:xlink="http://www.w3.org/1999/xlink">
<g id="graph0" class="graph" transform="scale(1 1) rotate(0) translate(4 91)">
<title>partseditor/obsolete/partseditorview.h</title>
<polygon fill="#ffffff" stroke="transparent" points="-4,4 -4,-91 1115.5,-91 1115.5,4 -4,4"/>
<!-- Node0 -->
<g id="node1" class="node">
<title>Node0</title>
<g id="a_node1"><a xlink:title=" ">
<polygon fill="#bfbfbf" stroke="#000000" points="602.5,-56.5 602.5,-86.5 717.5,-86.5 717.5,-56.5 602.5,-56.5"/>
<text text-anchor="start" x="610.5" y="-74.5" font-family="Helvetica,sans-Serif" font-size="10.00" fill="#000000">partseditor/obsolete</text>
<text text-anchor="middle" x="660" y="-63.5" font-family="Helvetica,sans-Serif" font-size="10.00" fill="#000000">/partseditorview.h</text>
</a>
</g>
</g>
<!-- Node1 -->
<g id="node2" class="node">
<title>Node1</title>
<g id="a_node2"><a xlink:title=" ">
<polygon fill="#ffffff" stroke="#bfbfbf" points="0,-.5 0,-19.5 134,-19.5 134,-.5 0,-.5"/>
<text text-anchor="middle" x="67" y="-7.5" font-family="Helvetica,sans-Serif" font-size="10.00" fill="#000000">../sketch/sketchwidget.h</text>
</a>
</g>
</g>
<!-- Node0&#45;&gt;Node1 -->
<g id="edge1" class="edge">
<title>Node0&#45;&gt;Node1</title>
<path fill="none" stroke="#191970" d="M602.1723,-66.3395C508.3562,-57.8353 316.9106,-39.9336 144.1611,-20.1055"/>
<polygon fill="#191970" stroke="#191970" points="144.4575,-16.6166 134.1225,-18.9486 143.6561,-23.5706 144.4575,-16.6166"/>
</g>
<!-- Node2 -->
<g id="node3" class="node">
<title>Node2</title>
<g id="a_node3"><a xlink:title=" ">
<polygon fill="#ffffff" stroke="#bfbfbf" points="152,-.5 152,-19.5 286,-19.5 286,-.5 152,-.5"/>
<text text-anchor="middle" x="219" y="-7.5" font-family="Helvetica,sans-Serif" font-size="10.00" fill="#000000">../model/palettemodel.h</text>
</a>
</g>
</g>
<!-- Node0&#45;&gt;Node2 -->
<g id="edge2" class="edge">
<title>Node0&#45;&gt;Node2</title>
<path fill="none" stroke="#191970" d="M602.347,-63.4599C523.9681,-52.5296 383.5652,-32.9496 296.1703,-20.7618"/>
<polygon fill="#191970" stroke="#191970" points="296.4334,-17.2648 286.0458,-19.3499 295.4665,-24.1977 296.4334,-17.2648"/>
</g>
<!-- Node3 -->
<g id="node4" class="node">
<title>Node3</title>
<g id="a_node4"><a xlink:title=" ">
<polygon fill="#ffffff" stroke="#bfbfbf" points="304,-.5 304,-19.5 440,-19.5 440,-.5 304,-.5"/>
<text text-anchor="middle" x="372" y="-7.5" font-family="Helvetica,sans-Serif" font-size="10.00" fill="#000000">partseditorpaletteitem.h</text>
</a>
</g>
</g>
<!-- Node0&#45;&gt;Node3 -->
<g id="edge3" class="edge">
<title>Node0&#45;&gt;Node3</title>
<path fill="none" stroke="#191970" d="M602.4111,-59.2024C551.2717,-48.282 477.0593,-32.4345 426.7861,-21.6991"/>
<polygon fill="#191970" stroke="#191970" points="427.2623,-18.222 416.7518,-19.5564 425.8004,-25.0676 427.2623,-18.222"/>
</g>
<!-- Node4 -->
<g id="node5" class="node">
<title>Node4</title>
<g id="a_node5"><a xlink:title=" ">
<polygon fill="#ffffff" stroke="#bfbfbf" points="458.5,-.5 458.5,-19.5 647.5,-19.5 647.5,-.5 458.5,-.5"/>
<text text-anchor="middle" x="553" y="-7.5" font-family="Helvetica,sans-Serif" font-size="10.00" fill="#000000">partseditorconnectorspaletteitem.h</text>
</a>
</g>
</g>
<!-- Node0&#45;&gt;Node4 -->
<g id="edge4" class="edge">
<title>Node0&#45;&gt;Node4</title>
<path fill="none" stroke="#191970" d="M633.8249,-56.4554C616.9113,-46.734 595.0171,-34.15 578.2828,-24.5317"/>
<polygon fill="#191970" stroke="#191970" points="579.9953,-21.4791 569.5812,-19.5303 576.507,-27.548 579.9953,-21.4791"/>
</g>
<!-- Node5 -->
<g id="node6" class="node">
<title>Node5</title>
<g id="a_node6"><a xlink:title=" ">
<polygon fill="#ffffff" stroke="#bfbfbf" points="665.5,-.5 665.5,-19.5 868.5,-19.5 868.5,-.5 665.5,-.5"/>
<text text-anchor="middle" x="767" y="-7.5" font-family="Helvetica,sans-Serif" font-size="10.00" fill="#000000">partseditorconnectorsconnectoritem.h</text>
</a>
</g>
</g>
<!-- Node0&#45;&gt;Node5 -->
<g id="edge5" class="edge">
<title>Node0&#45;&gt;Node5</title>
<path fill="none" stroke="#191970" d="M686.1751,-56.4554C703.0887,-46.734 724.9829,-34.15 741.7172,-24.5317"/>
<polygon fill="#191970" stroke="#191970" points="743.493,-27.548 750.4188,-19.5303 740.0047,-21.4791 743.493,-27.548"/>
</g>
<!-- Node6 -->
<g id="node7" class="node">
<title>Node6</title>
<g id="a_node7"><a xlink:title=" ">
<polygon fill="#ffffff" stroke="#bfbfbf" points="886.5,-.5 886.5,-19.5 927.5,-19.5 927.5,-.5 886.5,-.5"/>
<text text-anchor="middle" x="907" y="-7.5" font-family="Helvetica,sans-Serif" font-size="10.00" fill="#000000">QList</text>
</a>
</g>
</g>
<!-- Node0&#45;&gt;Node6 -->
<g id="edge6" class="edge">
<title>Node0&#45;&gt;Node6</title>
<path fill="none" stroke="#191970" d="M717.783,-59.502C759.6295,-50.4363 817.6967,-37.0846 876.637,-20.209"/>
<polygon fill="#191970" stroke="#191970" points="877.8537,-23.5006 886.4861,-17.3579 875.9073,-16.7766 877.8537,-23.5006"/>
</g>
<!-- Node7 -->
<g id="node8" class="node">
<title>Node7</title>
<g id="a_node8"><a xlink:title=" ">
<polygon fill="#ffffff" stroke="#bfbfbf" points="946,-.5 946,-19.5 1016,-19.5 1016,-.5 946,-.5"/>
<text text-anchor="middle" x="981" y="-7.5" font-family="Helvetica,sans-Serif" font-size="10.00" fill="#000000">QStringList</text>
</a>
</g>
</g>
<!-- Node0&#45;&gt;Node7 -->
<g id="edge7" class="edge">
<title>Node0&#45;&gt;Node7</title>
<path fill="none" stroke="#191970" d="M717.6917,-61.4615C771.6222,-51.9217 854.6351,-36.8409 936.0448,-20.1392"/>
<polygon fill="#191970" stroke="#191970" points="936.8754,-23.5417 945.9628,-18.0947 935.462,-16.6858 936.8754,-23.5417"/>
</g>
<!-- Node8 -->
<g id="node9" class="node">
<title>Node8</title>
<g id="a_node9"><a xlink:title=" ">
<polygon fill="#ffffff" stroke="#bfbfbf" points="1034.5,-.5 1034.5,-19.5 1111.5,-19.5 1111.5,-.5 1034.5,-.5"/>
<text text-anchor="middle" x="1073" y="-7.5" font-family="Helvetica,sans-Serif" font-size="10.00" fill="#000000">QComboBox</text>
</a>
</g>
</g>
<!-- Node0&#45;&gt;Node8 -->
<g id="edge8" class="edge">
<title>Node0&#45;&gt;Node8</title>
<path fill="none" stroke="#191970" d="M717.7103,-64.5386C787.7726,-55.8236 909.7285,-39.8089 1024.2739,-20.0337"/>
<polygon fill="#191970" stroke="#191970" points="1025.0168,-23.4571 1034.269,-18.2951 1023.8171,-16.5606 1025.0168,-23.4571"/>
</g>
</g>
</svg>
