<?xml version="1.0" encoding="UTF-8" standalone="no"?>
<!DOCTYPE svg PUBLIC "-//W3C//DTD SVG 1.1//EN"
 "http://www.w3.org/Graphics/SVG/1.1/DTD/svg11.dtd">
<!-- Generated by graphviz version 2.40.1 (0)
 -->
<!-- Title: HtmlInfoView::init Pages: 1 -->
<svg width="870pt" height="438pt"
 viewBox="0.00 0.00 870.00 437.50" xmlns="http://www.w3.org/2000/svg" xmlns:xlink="http://www.w3.org/1999/xlink">
<g id="graph0" class="graph" transform="scale(1 1) rotate(0) translate(4 433.5)">
<title>HtmlInfoView::init</title>
<polygon fill="#ffffff" stroke="transparent" points="-4,4 -4,-433.5 866,-433.5 866,4 -4,4"/>
<!-- Node494 -->
<g id="node1" class="node">
<title>Node494</title>
<g id="a_node1"><a xlink:title=" ">
<polygon fill="#bfbfbf" stroke="#000000" points="0,-216 0,-235 104,-235 104,-216 0,-216"/>
<text text-anchor="middle" x="52" y="-223" font-family="Helvetica,sans-Serif" font-size="10.00" fill="#000000">HtmlInfoView::init</text>
</a>
</g>
</g>
<!-- Node495 -->
<g id="node2" class="node">
<title>Node495</title>
<g id="a_node2"><a xlink:href="../../d8/ddb/htmlinfoview_8cpp.html#abcab1b5d3432a896b85da0cf10b79b86" target="_top" xlink:title=" ">
<polygon fill="#ffffff" stroke="#000000" points="194,-410 194,-429 255,-429 255,-410 194,-410"/>
<text text-anchor="middle" x="224.5" y="-417" font-family="Helvetica,sans-Serif" font-size="10.00" fill="#000000">addLabel</text>
</a>
</g>
</g>
<!-- Node494&#45;&gt;Node495 -->
<g id="edge1" class="edge">
<title>Node494&#45;&gt;Node495</title>
<path fill="none" stroke="#191970" d="M53.8696,-235.2994C60.1183,-265.2329 83.1794,-356.1257 140,-400.5 152.3248,-410.1251 168.5815,-415.0656 183.5413,-417.5391"/>
<polygon fill="#191970" stroke="#191970" points="183.2517,-421.0314 193.6267,-418.8847 184.1775,-414.0929 183.2517,-421.0314"/>
</g>
<!-- Node496 -->
<g id="node3" class="node">
<title>Node496</title>
<g id="a_node3"><a xlink:href="../../db/d71/classHtmlInfoView.html#a37cb934e553a947f454f0c531f83509d" target="_top" xlink:title=" ">
<polygon fill="#ffffff" stroke="#000000" points="147,-372 147,-391 302,-391 302,-372 147,-372"/>
<text text-anchor="middle" x="224.5" y="-379" font-family="Helvetica,sans-Serif" font-size="10.00" fill="#000000">HtmlInfoView::clickObsolete</text>
</a>
</g>
</g>
<!-- Node494&#45;&gt;Node496 -->
<g id="edge2" class="edge">
<title>Node494&#45;&gt;Node496</title>
<path fill="none" stroke="#191970" d="M55.6531,-235.1698C65.389,-259.6055 94.3694,-324.2465 140,-357.5 145.9313,-361.8225 152.6188,-365.368 159.5685,-368.2758"/>
<polygon fill="#191970" stroke="#191970" points="158.5691,-371.6386 169.1616,-371.859 161.0184,-365.0811 158.5691,-371.6386"/>
</g>
<!-- Node497 -->
<g id="node4" class="node">
<title>Node497</title>
<g id="a_node4"><a xlink:href="../../db/d71/classHtmlInfoView.html#aa8a6c221dc4ec9805a5ea617b45a05c6" target="_top" xlink:title=" ">
<polygon fill="#ffffff" stroke="#000000" points="148.5,-284.5 148.5,-314.5 300.5,-314.5 300.5,-284.5 148.5,-284.5"/>
<text text-anchor="start" x="156.5" y="-302.5" font-family="Helvetica,sans-Serif" font-size="10.00" fill="#000000">HtmlInfoView::instanceTitle</text>
<text text-anchor="middle" x="224.5" y="-291.5" font-family="Helvetica,sans-Serif" font-size="10.00" fill="#000000">Editable</text>
</a>
</g>
</g>
<!-- Node494&#45;&gt;Node497 -->
<g id="edge3" class="edge">
<title>Node494&#45;&gt;Node497</title>
<path fill="none" stroke="#191970" d="M66.3944,-235.1192C83.3825,-246.1249 112.7723,-264.0936 140,-275.5 144.8,-277.5109 149.8218,-279.4121 154.921,-281.1971"/>
<polygon fill="#191970" stroke="#191970" points="154.1908,-284.643 164.7845,-284.4851 156.4045,-278.0023 154.1908,-284.643"/>
</g>
<!-- Node498 -->
<g id="node5" class="node">
<title>Node498</title>
<g id="a_node5"><a xlink:href="../../db/d71/classHtmlInfoView.html#a76cab221ea936c42650c85f67163d0c6" target="_top" xlink:title=" ">
<polygon fill="#ffffff" stroke="#000000" points="349,-259.5 349,-289.5 494,-289.5 494,-259.5 349,-259.5"/>
<text text-anchor="start" x="357" y="-277.5" font-family="Helvetica,sans-Serif" font-size="10.00" fill="#000000">HtmlInfoView::setInstance</text>
<text text-anchor="middle" x="421.5" y="-266.5" font-family="Helvetica,sans-Serif" font-size="10.00" fill="#000000">TitleColors</text>
</a>
</g>
</g>
<!-- Node494&#45;&gt;Node498 -->
<g id="edge26" class="edge">
<title>Node494&#45;&gt;Node498</title>
<path fill="none" stroke="#191970" d="M56.9365,-235.2503C68.2347,-256.3298 98.2539,-305.7532 140,-324.5 208.5194,-355.2697 235.5251,-340.0924 309,-324.5 336.319,-318.7025 365.0583,-305.7974 386.6511,-294.5506"/>
<polygon fill="#191970" stroke="#191970" points="388.5689,-297.4943 395.7398,-289.695 385.2704,-291.3201 388.5689,-297.4943"/>
</g>
<!-- Node499 -->
<g id="node6" class="node">
<title>Node499</title>
<g id="a_node6"><a xlink:href="../../db/d71/classHtmlInfoView.html#ae1bbec948fb672c55212399eb4bd20a8" target="_top" xlink:title=" ">
<polygon fill="#ffffff" stroke="#000000" points="148.5,-235.5 148.5,-265.5 300.5,-265.5 300.5,-235.5 148.5,-235.5"/>
<text text-anchor="start" x="156.5" y="-253.5" font-family="Helvetica,sans-Serif" font-size="10.00" fill="#000000">HtmlInfoView::instanceTitle</text>
<text text-anchor="middle" x="224.5" y="-242.5" font-family="Helvetica,sans-Serif" font-size="10.00" fill="#000000">Enter</text>
</a>
</g>
</g>
<!-- Node494&#45;&gt;Node499 -->
<g id="edge5" class="edge">
<title>Node494&#45;&gt;Node499</title>
<path fill="none" stroke="#191970" d="M104.2238,-233.0687C114.9613,-234.6248 126.5366,-236.3024 138.1152,-237.9805"/>
<polygon fill="#191970" stroke="#191970" points="137.8715,-241.4816 148.2701,-239.4522 138.8756,-234.554 137.8715,-241.4816"/>
</g>
<!-- Node500 -->
<g id="node7" class="node">
<title>Node500</title>
<g id="a_node7"><a xlink:href="../../db/d71/classHtmlInfoView.html#ad7cafc7aa887509fa0a29d37ae64b3c8" target="_top" xlink:title=" ">
<polygon fill="#ffffff" stroke="#000000" points="148.5,-186.5 148.5,-216.5 300.5,-216.5 300.5,-186.5 148.5,-186.5"/>
<text text-anchor="start" x="156.5" y="-204.5" font-family="Helvetica,sans-Serif" font-size="10.00" fill="#000000">HtmlInfoView::instanceTitle</text>
<text text-anchor="middle" x="224.5" y="-193.5" font-family="Helvetica,sans-Serif" font-size="10.00" fill="#000000">Leave</text>
</a>
</g>
</g>
<!-- Node494&#45;&gt;Node500 -->
<g id="edge7" class="edge">
<title>Node494&#45;&gt;Node500</title>
<path fill="none" stroke="#191970" d="M104.2238,-218.2341C114.9613,-216.7402 126.5366,-215.1297 138.1152,-213.5188"/>
<polygon fill="#191970" stroke="#191970" points="138.8479,-216.9506 148.2701,-212.1059 137.8832,-210.0174 138.8479,-216.9506"/>
</g>
<!-- Node501 -->
<g id="node8" class="node">
<title>Node501</title>
<g id="a_node8"><a xlink:href="../../db/d71/classHtmlInfoView.html#ae920b0c0d479c4d7504334a4e4224f4c" target="_top" xlink:title=" ">
<polygon fill="#ffffff" stroke="#000000" points="146,-88.5 146,-118.5 303,-118.5 303,-88.5 146,-88.5"/>
<text text-anchor="start" x="154" y="-106.5" font-family="Helvetica,sans-Serif" font-size="10.00" fill="#000000">HtmlInfoView::makeLocation</text>
<text text-anchor="middle" x="224.5" y="-95.5" font-family="Helvetica,sans-Serif" font-size="10.00" fill="#000000">Frame</text>
</a>
</g>
</g>
<!-- Node494&#45;&gt;Node501 -->
<g id="edge9" class="edge">
<title>Node494&#45;&gt;Node501</title>
<path fill="none" stroke="#191970" d="M58.0168,-215.9189C70.7258,-196.471 102.2609,-152.2042 140,-128.5 143.3299,-126.4085 146.8429,-124.4849 150.4688,-122.7167"/>
<polygon fill="#191970" stroke="#191970" points="151.9517,-125.8879 159.674,-118.6341 149.1137,-119.489 151.9517,-125.8879"/>
</g>
<!-- Node509 -->
<g id="node16" class="node">
<title>Node509</title>
<g id="a_node16"><a xlink:href="../../db/d71/classHtmlInfoView.html#a73fe0f3b7169fa249846785b7dd89833" target="_top" xlink:title=" ">
<polygon fill="#ffffff" stroke="#000000" points="140,-50 140,-69 309,-69 309,-50 140,-50"/>
<text text-anchor="middle" x="224.5" y="-57" font-family="Helvetica,sans-Serif" font-size="10.00" fill="#000000">HtmlInfoView::makeLockFrame</text>
</a>
</g>
</g>
<!-- Node494&#45;&gt;Node509 -->
<g id="edge18" class="edge">
<title>Node494&#45;&gt;Node509</title>
<path fill="none" stroke="#191970" d="M54.8765,-215.8534C63.2586,-189.4901 90.273,-115.7862 140,-79.5 143.2633,-77.1187 146.7693,-75.0169 150.4314,-73.162"/>
<polygon fill="#191970" stroke="#191970" points="152.0601,-76.2693 159.8067,-69.0415 149.2436,-69.8609 152.0601,-76.2693"/>
</g>
<!-- Node512 -->
<g id="node19" class="node">
<title>Node512</title>
<g id="a_node19"><a xlink:href="../../db/d71/classHtmlInfoView.html#a77558d2f72b374730bce32cfd91c71d8" target="_top" xlink:title=" ">
<polygon fill="#ffffff" stroke="#000000" points="146,-137.5 146,-167.5 303,-167.5 303,-137.5 146,-137.5"/>
<text text-anchor="start" x="154" y="-155.5" font-family="Helvetica,sans-Serif" font-size="10.00" fill="#000000">HtmlInfoView::makeRotation</text>
<text text-anchor="middle" x="224.5" y="-144.5" font-family="Helvetica,sans-Serif" font-size="10.00" fill="#000000">Frame</text>
</a>
</g>
</g>
<!-- Node494&#45;&gt;Node512 -->
<g id="edge21" class="edge">
<title>Node494&#45;&gt;Node512</title>
<path fill="none" stroke="#191970" d="M67.089,-215.9806C84.2387,-205.4708 113.3193,-188.5765 140,-177.5 145.7489,-175.1133 151.805,-172.8538 157.9252,-170.7413"/>
<polygon fill="#191970" stroke="#191970" points="159.1711,-174.0156 167.5608,-167.5455 156.9674,-167.3715 159.1711,-174.0156"/>
</g>
<!-- Node515 -->
<g id="node22" class="node">
<title>Node515</title>
<g id="a_node22"><a xlink:href="../../db/d71/classHtmlInfoView.html#af3c4499639b63ca58d14f7e86f103f1d" target="_top" xlink:title=" ">
<polygon fill="#ffffff" stroke="#000000" points="152,-.5 152,-30.5 297,-30.5 297,-.5 152,-.5"/>
<text text-anchor="start" x="160" y="-18.5" font-family="Helvetica,sans-Serif" font-size="10.00" fill="#000000">HtmlInfoView::setInstance</text>
<text text-anchor="middle" x="224.5" y="-7.5" font-family="Helvetica,sans-Serif" font-size="10.00" fill="#000000">Title</text>
</a>
</g>
</g>
<!-- Node494&#45;&gt;Node515 -->
<g id="edge25" class="edge">
<title>Node494&#45;&gt;Node515</title>
<path fill="none" stroke="#191970" d="M53.74,-215.761C59.7338,-185.1063 82.4121,-89.7212 140,-40.5 141.9843,-38.804 144.0795,-37.223 146.2619,-35.7492"/>
<polygon fill="#191970" stroke="#191970" points="148.2126,-38.6626 155.0625,-30.5799 144.6673,-32.6268 148.2126,-38.6626"/>
</g>
<!-- Node497&#45;&gt;Node498 -->
<g id="edge4" class="edge">
<title>Node497&#45;&gt;Node498</title>
<path fill="none" stroke="#191970" d="M300.6653,-289.8343C313.1387,-288.2514 326.1165,-286.6045 338.7402,-285.0025"/>
<polygon fill="#191970" stroke="#191970" points="339.2921,-288.4606 348.7719,-283.7295 338.4108,-281.5163 339.2921,-288.4606"/>
</g>
<!-- Node499&#45;&gt;Node498 -->
<g id="edge6" class="edge">
<title>Node499&#45;&gt;Node498</title>
<path fill="none" stroke="#191970" d="M300.6653,-259.779C313.1387,-261.2986 326.1165,-262.8797 338.7402,-264.4176"/>
<polygon fill="#191970" stroke="#191970" points="338.422,-267.9046 348.7719,-265.6397 339.2686,-260.956 338.422,-267.9046"/>
</g>
<!-- Node500&#45;&gt;Node498 -->
<g id="edge8" class="edge">
<title>Node500&#45;&gt;Node498</title>
<path fill="none" stroke="#191970" d="M278.8952,-216.5833C288.9713,-219.6623 299.3555,-223.0289 309,-226.5 332.7373,-235.0431 358.6718,-245.9946 379.6518,-255.2792"/>
<polygon fill="#191970" stroke="#191970" points="378.3586,-258.5347 388.917,-259.4132 381.2109,-252.1422 378.3586,-258.5347"/>
</g>
<!-- Node502 -->
<g id="node9" class="node">
<title>Node502</title>
<g id="a_node9"><a xlink:href="../../db/d71/classHtmlInfoView.html#a8a48eaf60527709cedaa4459267c8d01" target="_top" xlink:title=" ">
<polygon fill="#ffffff" stroke="#000000" points="358.5,-126 358.5,-145 484.5,-145 484.5,-126 358.5,-126"/>
<text text-anchor="middle" x="421.5" y="-133" font-family="Helvetica,sans-Serif" font-size="10.00" fill="#000000">HtmlInfoView::xyEntry</text>
</a>
</g>
</g>
<!-- Node501&#45;&gt;Node502 -->
<g id="edge10" class="edge">
<title>Node501&#45;&gt;Node502</title>
<path fill="none" stroke="#191970" d="M303.2089,-116.2852C319.5611,-118.9414 336.6722,-121.7209 352.6378,-124.3143"/>
<polygon fill="#191970" stroke="#191970" points="352.5127,-127.8397 362.9446,-125.9885 353.6351,-120.9303 352.5127,-127.8397"/>
</g>
<!-- Node508 -->
<g id="node15" class="node">
<title>Node508</title>
<g id="a_node15"><a xlink:href="../../db/d71/classHtmlInfoView.html#aeb32a5aa76897a88fd2b08bcc9d12293" target="_top" xlink:title=" ">
<polygon fill="#ffffff" stroke="#000000" points="347.5,-88 347.5,-107 495.5,-107 495.5,-88 347.5,-88"/>
<text text-anchor="middle" x="421.5" y="-95" font-family="Helvetica,sans-Serif" font-size="10.00" fill="#000000">HtmlInfoView::unitsClicked</text>
</a>
</g>
</g>
<!-- Node501&#45;&gt;Node508 -->
<g id="edge16" class="edge">
<title>Node501&#45;&gt;Node508</title>
<path fill="none" stroke="#191970" d="M303.2089,-101.1028C314.3682,-100.7629 325.881,-100.4123 337.142,-100.0693"/>
<polygon fill="#191970" stroke="#191970" points="337.5067,-103.5599 347.3955,-99.757 337.2936,-96.5631 337.5067,-103.5599"/>
</g>
<!-- Node503 -->
<g id="node10" class="node">
<title>Node503</title>
<g id="a_node10"><a xlink:href="../../d8/d86/classInfoGraphicsView.html#a606fdf5fe1049e99851ba1050a9516e6" target="_top" xlink:title=" ">
<polygon fill="#ffffff" stroke="#000000" points="542,-183.5 542,-213.5 684,-213.5 684,-183.5 542,-183.5"/>
<text text-anchor="start" x="550" y="-201.5" font-family="Helvetica,sans-Serif" font-size="10.00" fill="#000000">InfoGraphicsView::getInfo</text>
<text text-anchor="middle" x="613" y="-190.5" font-family="Helvetica,sans-Serif" font-size="10.00" fill="#000000">GraphicsView</text>
</a>
</g>
</g>
<!-- Node502&#45;&gt;Node503 -->
<g id="edge11" class="edge">
<title>Node502&#45;&gt;Node503</title>
<path fill="none" stroke="#191970" d="M449.1901,-145.0187C471.9314,-152.7963 505.0011,-164.0149 534,-173.5 540.8621,-175.7445 548.0698,-178.0697 555.224,-180.3579"/>
<polygon fill="#191970" stroke="#191970" points="554.3184,-183.7426 564.909,-183.444 556.4437,-177.073 554.3184,-183.7426"/>
</g>
<!-- Node504 -->
<g id="node11" class="node">
<title>Node504</title>
<g id="a_node11"><a xlink:href="../../da/d3a/classDebugDialog.html#ad26216d18945d7d7188420707b76f241" target="_top" xlink:title=" ">
<polygon fill="#ffffff" stroke="#000000" points="555,-145 555,-164 671,-164 671,-145 555,-145"/>
<text text-anchor="middle" x="613" y="-152" font-family="Helvetica,sans-Serif" font-size="10.00" fill="#000000">DebugDialog::debug</text>
</a>
</g>
</g>
<!-- Node502&#45;&gt;Node504 -->
<g id="edge12" class="edge">
<title>Node502&#45;&gt;Node504</title>
<path fill="none" stroke="#191970" d="M484.735,-141.774C503.9391,-143.6793 525.1233,-145.7812 544.6479,-147.7183"/>
<polygon fill="#191970" stroke="#191970" points="544.3907,-151.2099 554.6874,-148.7144 545.0819,-144.2441 544.3907,-151.2099"/>
</g>
<!-- Node505 -->
<g id="node12" class="node">
<title>Node505</title>
<g id="a_node12"><a xlink:href="../../de/db8/classTextUtils.html#a53e674684a7ceb29e742cae16c5e246b" target="_top" xlink:title=" ">
<polygon fill="#ffffff" stroke="#000000" points="541,-69 541,-88 685,-88 685,-69 541,-69"/>
<text text-anchor="middle" x="613" y="-76" font-family="Helvetica,sans-Serif" font-size="10.00" fill="#000000">TextUtils::convertToInches</text>
</a>
</g>
</g>
<!-- Node502&#45;&gt;Node505 -->
<g id="edge13" class="edge">
<title>Node502&#45;&gt;Node505</title>
<path fill="none" stroke="#191970" d="M467.7685,-125.9243C477.8743,-123.3049 488.4108,-120.1591 498,-116.5 514.9029,-110.0501 517.0733,-103.8872 534,-97.5 540.7145,-94.9663 547.8802,-92.6893 555.0527,-90.667"/>
<polygon fill="#191970" stroke="#191970" points="556.0363,-94.0271 564.7958,-88.067 554.2314,-87.2638 556.0363,-94.0271"/>
</g>
<!-- Node507 -->
<g id="node14" class="node">
<title>Node507</title>
<g id="a_node14"><a xlink:href="../../d8/d86/classInfoGraphicsView.html#a2f42dc7b20e58f48fe38fa45553df335" target="_top" xlink:title=" ">
<polygon fill="#ffffff" stroke="#000000" points="534,-107 534,-126 692,-126 692,-107 534,-107"/>
<text text-anchor="middle" x="613" y="-114" font-family="Helvetica,sans-Serif" font-size="10.00" fill="#000000">InfoGraphicsView::moveItem</text>
</a>
</g>
</g>
<!-- Node502&#45;&gt;Node507 -->
<g id="edge15" class="edge">
<title>Node502&#45;&gt;Node507</title>
<path fill="none" stroke="#191970" d="M484.735,-129.226C497.2364,-127.9857 510.5769,-126.6621 523.7525,-125.3548"/>
<polygon fill="#191970" stroke="#191970" points="524.1736,-128.8303 533.7792,-124.36 523.4824,-121.8645 524.1736,-128.8303"/>
</g>
<!-- Node506 -->
<g id="node13" class="node">
<title>Node506</title>
<g id="a_node13"><a xlink:href="../../de/db8/classTextUtils.html#a081f65f326bccb69ddec2919b692c479" target="_top" xlink:title=" ">
<polygon fill="#ffffff" stroke="#000000" points="728,-69 728,-88 862,-88 862,-69 728,-69"/>
<text text-anchor="middle" x="795" y="-76" font-family="Helvetica,sans-Serif" font-size="10.00" fill="#000000">TextUtils::chopNotDigits</text>
</a>
</g>
</g>
<!-- Node505&#45;&gt;Node506 -->
<g id="edge14" class="edge">
<title>Node505&#45;&gt;Node506</title>
<path fill="none" stroke="#191970" d="M685.1926,-78.5C695.8723,-78.5 706.9133,-78.5 717.6921,-78.5"/>
<polygon fill="#191970" stroke="#191970" points="717.9256,-82.0001 727.9256,-78.5 717.9256,-75.0001 717.9256,-82.0001"/>
</g>
<!-- Node508&#45;&gt;Node505 -->
<g id="edge17" class="edge">
<title>Node508&#45;&gt;Node505</title>
<path fill="none" stroke="#191970" d="M495.5389,-90.1541C507.0169,-89.0153 518.9343,-87.8329 530.5832,-86.6771"/>
<polygon fill="#191970" stroke="#191970" points="531.1276,-90.1404 540.7332,-85.6701 530.4365,-83.1746 531.1276,-90.1404"/>
</g>
<!-- Node510 -->
<g id="node17" class="node">
<title>Node510</title>
<g id="a_node17"><a xlink:href="../../db/d71/classHtmlInfoView.html#a69d53de7e520d0a7d25022fd2d335511" target="_top" xlink:title=" ">
<polygon fill="#ffffff" stroke="#000000" points="348.5,-50 348.5,-69 494.5,-69 494.5,-50 348.5,-50"/>
<text text-anchor="middle" x="421.5" y="-57" font-family="Helvetica,sans-Serif" font-size="10.00" fill="#000000">HtmlInfoView::changeLock</text>
</a>
</g>
</g>
<!-- Node509&#45;&gt;Node510 -->
<g id="edge19" class="edge">
<title>Node509&#45;&gt;Node510</title>
<path fill="none" stroke="#191970" d="M309.189,-59.5C318.762,-59.5 328.5126,-59.5 338.0693,-59.5"/>
<polygon fill="#191970" stroke="#191970" points="338.3457,-63.0001 348.3457,-59.5 338.3457,-56.0001 338.3457,-63.0001"/>
</g>
<!-- Node511 -->
<g id="node18" class="node">
<title>Node511</title>
<g id="a_node18"><a xlink:href="../../db/d71/classHtmlInfoView.html#a3afc2773362cd0f275351a6dfecaedba" target="_top" xlink:title=" ">
<polygon fill="#ffffff" stroke="#000000" points="345,-12 345,-31 498,-31 498,-12 345,-12"/>
<text text-anchor="middle" x="421.5" y="-19" font-family="Helvetica,sans-Serif" font-size="10.00" fill="#000000">HtmlInfoView::changeSticky</text>
</a>
</g>
</g>
<!-- Node509&#45;&gt;Node511 -->
<g id="edge20" class="edge">
<title>Node509&#45;&gt;Node511</title>
<path fill="none" stroke="#191970" d="M273.9571,-49.96C300.654,-44.8104 333.804,-38.416 361.9151,-32.9935"/>
<polygon fill="#191970" stroke="#191970" points="362.8665,-36.3746 372.0225,-31.0439 361.5406,-29.5013 362.8665,-36.3746"/>
</g>
<!-- Node513 -->
<g id="node20" class="node">
<title>Node513</title>
<g id="a_node20"><a xlink:href="../../db/d71/classHtmlInfoView.html#a58dd15c1765a6e109328807943826a05" target="_top" xlink:title=" ">
<polygon fill="#ffffff" stroke="#000000" points="357.5,-189 357.5,-208 485.5,-208 485.5,-189 357.5,-189"/>
<text text-anchor="middle" x="421.5" y="-196" font-family="Helvetica,sans-Serif" font-size="10.00" fill="#000000">HtmlInfoView::rotEntry</text>
</a>
</g>
</g>
<!-- Node512&#45;&gt;Node513 -->
<g id="edge22" class="edge">
<title>Node512&#45;&gt;Node513</title>
<path fill="none" stroke="#191970" d="M289.0052,-167.5621C315.5354,-173.757 345.8159,-180.8276 370.7261,-186.6442"/>
<polygon fill="#191970" stroke="#191970" points="370.1588,-190.1058 380.6927,-188.9714 371.7505,-183.2891 370.1588,-190.1058"/>
</g>
<!-- Node513&#45;&gt;Node503 -->
<g id="edge23" class="edge">
<title>Node513&#45;&gt;Node503</title>
<path fill="none" stroke="#191970" d="M485.533,-198.5C500.3391,-198.5 516.2859,-198.5 531.7194,-198.5"/>
<polygon fill="#191970" stroke="#191970" points="531.7701,-202.0001 541.7701,-198.5 531.7701,-195.0001 531.7701,-202.0001"/>
</g>
<!-- Node514 -->
<g id="node21" class="node">
<title>Node514</title>
<g id="a_node21"><a xlink:href="../../d8/d86/classInfoGraphicsView.html#a26c1284c5e33dbaed573514830c59530" target="_top" xlink:title=" ">
<polygon fill="#ffffff" stroke="#000000" points="541.5,-233 541.5,-252 684.5,-252 684.5,-233 541.5,-233"/>
<text text-anchor="middle" x="613" y="-240" font-family="Helvetica,sans-Serif" font-size="10.00" fill="#000000">InfoGraphicsView::rotateX</text>
</a>
</g>
</g>
<!-- Node513&#45;&gt;Node514 -->
<g id="edge24" class="edge">
<title>Node513&#45;&gt;Node514</title>
<path fill="none" stroke="#191970" d="M463.0526,-208.0473C491.9113,-214.6781 530.5639,-223.5591 561.3972,-230.6435"/>
<polygon fill="#191970" stroke="#191970" points="560.9986,-234.143 571.5284,-232.9713 562.5662,-227.3208 560.9986,-234.143"/>
</g>
</g>
</svg>
