<?xml version="1.0" encoding="UTF-8" standalone="no"?>
<!DOCTYPE svg PUBLIC "-//W3C//DTD SVG 1.1//EN"
 "http://www.w3.org/Graphics/SVG/1.1/DTD/svg11.dtd">
<!-- Generated by graphviz version 2.40.1 (0)
 -->
<!-- Title: HtmlInfoView::viewConnectorItemInfo Pages: 1 -->
<svg width="757pt" height="225pt"
 viewBox="0.00 0.00 757.00 224.50" xmlns="http://www.w3.org/2000/svg" xmlns:xlink="http://www.w3.org/1999/xlink">
<g id="graph0" class="graph" transform="scale(1 1) rotate(0) translate(4 220.5)">
<title>HtmlInfoView::viewConnectorItemInfo</title>
<polygon fill="#ffffff" stroke="transparent" points="-4,4 -4,-220.5 753,-220.5 753,4 -4,4"/>
<!-- Node898 -->
<g id="node1" class="node">
<title>Node898</title>
<g id="a_node1"><a xlink:title=" ">
<polygon fill="#bfbfbf" stroke="#000000" points="588,-82 588,-112 749,-112 749,-82 588,-82"/>
<text text-anchor="start" x="596" y="-100" font-family="Helvetica,sans-Serif" font-size="10.00" fill="#000000">HtmlInfoView::viewConnector</text>
<text text-anchor="middle" x="668.5" y="-89" font-family="Helvetica,sans-Serif" font-size="10.00" fill="#000000">ItemInfo</text>
</a>
</g>
</g>
<!-- Node899 -->
<g id="node2" class="node">
<title>Node899</title>
<g id="a_node2"><a xlink:href="../../db/d71/classHtmlInfoView.html#a0b57e09b7dddde61283e5d7547fe22f7" target="_top" xlink:title=" ">
<polygon fill="#ffffff" stroke="#000000" points="400.5,-131 400.5,-161 542.5,-161 542.5,-131 400.5,-131"/>
<text text-anchor="start" x="408.5" y="-149" font-family="Helvetica,sans-Serif" font-size="10.00" fill="#000000">HtmlInfoView::hoverEnter</text>
<text text-anchor="middle" x="471.5" y="-138" font-family="Helvetica,sans-Serif" font-size="10.00" fill="#000000">ConnectorItem</text>
</a>
</g>
</g>
<!-- Node898&#45;&gt;Node899 -->
<g id="edge1" class="edge">
<title>Node898&#45;&gt;Node899</title>
<path fill="none" stroke="#191970" d="M598.2362,-114.4768C576.5231,-119.8775 552.8106,-125.7755 531.831,-130.9938"/>
<polygon fill="#191970" stroke="#191970" points="599.1952,-117.845 608.0547,-112.0346 597.5055,-111.0519 599.1952,-117.845"/>
</g>
<!-- Node903 -->
<g id="node6" class="node">
<title>Node903</title>
<g id="a_node6"><a xlink:href="../../db/d71/classHtmlInfoView.html#a173a2e0e0c9f70e7dba168e66e7cacdb" target="_top" xlink:title=" ">
<polygon fill="#ffffff" stroke="#000000" points="398.5,-82 398.5,-112 544.5,-112 544.5,-82 398.5,-82"/>
<text text-anchor="start" x="406.5" y="-100" font-family="Helvetica,sans-Serif" font-size="10.00" fill="#000000">HtmlInfoView::hoverLeave</text>
<text text-anchor="middle" x="471.5" y="-89" font-family="Helvetica,sans-Serif" font-size="10.00" fill="#000000">ConnectorItem</text>
</a>
</g>
</g>
<!-- Node898&#45;&gt;Node903 -->
<g id="edge5" class="edge">
<title>Node898&#45;&gt;Node903</title>
<path fill="none" stroke="#191970" d="M577.724,-97C566.6907,-97 555.5272,-97 544.7921,-97"/>
<polygon fill="#191970" stroke="#191970" points="577.8042,-100.5001 587.8041,-97 577.8041,-93.5001 577.8042,-100.5001"/>
</g>
<!-- Node907 -->
<g id="node10" class="node">
<title>Node907</title>
<g id="a_node10"><a xlink:href="../../db/d71/classHtmlInfoView.html#aa34531aa11def3a6b9c4f576de034abb" target="_top" xlink:title=" ">
<polygon fill="#ffffff" stroke="#000000" points="391,-31.5 391,-50.5 552,-50.5 552,-31.5 391,-31.5"/>
<text text-anchor="middle" x="471.5" y="-38.5" font-family="Helvetica,sans-Serif" font-size="10.00" fill="#000000">HtmlInfoView::setNullContent</text>
</a>
</g>
</g>
<!-- Node898&#45;&gt;Node907 -->
<g id="edge9" class="edge">
<title>Node898&#45;&gt;Node907</title>
<path fill="none" stroke="#191970" d="M605.9909,-79.2309C572.4825,-69.7057 532.5312,-58.349 504.9236,-50.5011"/>
<polygon fill="#191970" stroke="#191970" points="605.1317,-82.6253 615.7076,-81.993 607.0457,-75.892 605.1317,-82.6253"/>
</g>
<!-- Node900 -->
<g id="node3" class="node">
<title>Node900</title>
<g id="a_node3"><a xlink:href="../../d8/d86/classInfoGraphicsView.html#a0ff1ca98583be3f8fa069a6430f631c4" target="_top" xlink:title=" ">
<polygon fill="#ffffff" stroke="#000000" points="192.5,-137 192.5,-167 353.5,-167 353.5,-137 192.5,-137"/>
<text text-anchor="start" x="200.5" y="-155" font-family="Helvetica,sans-Serif" font-size="10.00" fill="#000000">InfoGraphicsView::hoverEnter</text>
<text text-anchor="middle" x="273" y="-144" font-family="Helvetica,sans-Serif" font-size="10.00" fill="#000000">ConnectorItem</text>
</a>
</g>
</g>
<!-- Node899&#45;&gt;Node900 -->
<g id="edge2" class="edge">
<title>Node899&#45;&gt;Node900</title>
<path fill="none" stroke="#191970" d="M390.3489,-148.4529C378.2628,-148.8183 365.806,-149.1948 353.7286,-149.5598"/>
<polygon fill="#191970" stroke="#191970" points="390.508,-151.9498 400.3976,-148.1492 390.2964,-144.953 390.508,-151.9498"/>
</g>
<!-- Node901 -->
<g id="node4" class="node">
<title>Node901</title>
<g id="a_node4"><a xlink:href="../../dc/d3a/classConnectorItem.html#a2dbe7da47c8dc1aef218c87ddafa3b61" target="_top" xlink:title=" ">
<polygon fill="#ffffff" stroke="#000000" points="3.5,-186 3.5,-216 151.5,-216 151.5,-186 3.5,-186"/>
<text text-anchor="start" x="11.5" y="-204" font-family="Helvetica,sans-Serif" font-size="10.00" fill="#000000">ConnectorItem::hoverEnter</text>
<text text-anchor="middle" x="77.5" y="-193" font-family="Helvetica,sans-Serif" font-size="10.00" fill="#000000">Event</text>
</a>
</g>
</g>
<!-- Node900&#45;&gt;Node901 -->
<g id="edge3" class="edge">
<title>Node900&#45;&gt;Node901</title>
<path fill="none" stroke="#191970" d="M203.2712,-169.4768C181.7235,-174.8775 158.1915,-180.7755 137.3716,-185.9938"/>
<polygon fill="#191970" stroke="#191970" points="204.1659,-172.8609 213.015,-167.0346 202.464,-166.0709 204.1659,-172.8609"/>
</g>
<!-- Node902 -->
<g id="node5" class="node">
<title>Node902</title>
<g id="a_node5"><a xlink:href="../../d8/d37/classSketchWidget.html#a4bc087939ab412c6d4d31ba5fe35fdf4" target="_top" xlink:title=" ">
<polygon fill="#ffffff" stroke="#000000" points="6,-137 6,-167 149,-167 149,-137 6,-137"/>
<text text-anchor="start" x="14" y="-155" font-family="Helvetica,sans-Serif" font-size="10.00" fill="#000000">SketchWidget::hoverEnter</text>
<text text-anchor="middle" x="77.5" y="-144" font-family="Helvetica,sans-Serif" font-size="10.00" fill="#000000">ConnectorItem</text>
</a>
</g>
</g>
<!-- Node900&#45;&gt;Node902 -->
<g id="edge4" class="edge">
<title>Node900&#45;&gt;Node902</title>
<path fill="none" stroke="#191970" d="M182.2294,-152C171.1501,-152 159.9506,-152 149.2042,-152"/>
<polygon fill="#191970" stroke="#191970" points="182.354,-155.5001 192.354,-152 182.3539,-148.5001 182.354,-155.5001"/>
</g>
<!-- Node904 -->
<g id="node7" class="node">
<title>Node904</title>
<g id="a_node7"><a xlink:href="../../d8/d86/classInfoGraphicsView.html#aa53e151a45e707f387982ef8d3ef3a96" target="_top" xlink:title=" ">
<polygon fill="#ffffff" stroke="#000000" points="191,-82 191,-112 355,-112 355,-82 191,-82"/>
<text text-anchor="start" x="199" y="-100" font-family="Helvetica,sans-Serif" font-size="10.00" fill="#000000">InfoGraphicsView::hoverLeave</text>
<text text-anchor="middle" x="273" y="-89" font-family="Helvetica,sans-Serif" font-size="10.00" fill="#000000">ConnectorItem</text>
</a>
</g>
</g>
<!-- Node903&#45;&gt;Node904 -->
<g id="edge6" class="edge">
<title>Node903&#45;&gt;Node904</title>
<path fill="none" stroke="#191970" d="M388.1164,-97C377.256,-97 366.1355,-97 355.2932,-97"/>
<polygon fill="#191970" stroke="#191970" points="388.4316,-100.5001 398.4316,-97 388.4315,-93.5001 388.4316,-100.5001"/>
</g>
<!-- Node905 -->
<g id="node8" class="node">
<title>Node905</title>
<g id="a_node8"><a xlink:href="../../dc/d3a/classConnectorItem.html#aa35aa0dc25b778a95cdc6d1bc2e493c9" target="_top" xlink:title=" ">
<polygon fill="#ffffff" stroke="#000000" points="1.5,-88 1.5,-118 153.5,-118 153.5,-88 1.5,-88"/>
<text text-anchor="start" x="9.5" y="-106" font-family="Helvetica,sans-Serif" font-size="10.00" fill="#000000">ConnectorItem::hoverLeave</text>
<text text-anchor="middle" x="77.5" y="-95" font-family="Helvetica,sans-Serif" font-size="10.00" fill="#000000">Event</text>
</a>
</g>
</g>
<!-- Node904&#45;&gt;Node905 -->
<g id="edge7" class="edge">
<title>Node904&#45;&gt;Node905</title>
<path fill="none" stroke="#191970" d="M180.7654,-99.8307C171.715,-100.1085 162.6013,-100.3882 153.736,-100.6603"/>
<polygon fill="#191970" stroke="#191970" points="181.0523,-103.3237 190.9401,-99.5185 180.8375,-96.327 181.0523,-103.3237"/>
</g>
<!-- Node906 -->
<g id="node9" class="node">
<title>Node906</title>
<g id="a_node9"><a xlink:href="../../d8/d37/classSketchWidget.html#a64d029841c4f9e3c57435c78b14bb955" target="_top" xlink:title=" ">
<polygon fill="#ffffff" stroke="#000000" points="4.5,-39 4.5,-69 150.5,-69 150.5,-39 4.5,-39"/>
<text text-anchor="start" x="12.5" y="-57" font-family="Helvetica,sans-Serif" font-size="10.00" fill="#000000">SketchWidget::hoverLeave</text>
<text text-anchor="middle" x="77.5" y="-46" font-family="Helvetica,sans-Serif" font-size="10.00" fill="#000000">ConnectorItem</text>
</a>
</g>
</g>
<!-- Node904&#45;&gt;Node906 -->
<g id="edge8" class="edge">
<title>Node904&#45;&gt;Node906</title>
<path fill="none" stroke="#191970" d="M194.6727,-79.772C178.5109,-76.2172 161.611,-72.5001 145.8378,-69.0308"/>
<polygon fill="#191970" stroke="#191970" points="194.1052,-83.2308 204.6236,-81.9607 195.6089,-76.3942 194.1052,-83.2308"/>
</g>
<!-- Node908 -->
<g id="node11" class="node">
<title>Node908</title>
<g id="a_node11"><a xlink:href="../../db/d71/classHtmlInfoView.html#a55e312abad38351736ffcb5d453f3a62" target="_top" xlink:title=" ">
<polygon fill="#ffffff" stroke="#000000" points="202,-7.5 202,-26.5 344,-26.5 344,-7.5 202,-7.5"/>
<text text-anchor="middle" x="273" y="-14.5" font-family="Helvetica,sans-Serif" font-size="10.00" fill="#000000">HtmlInfoView::setContent</text>
</a>
</g>
</g>
<!-- Node907&#45;&gt;Node908 -->
<g id="edge10" class="edge">
<title>Node907&#45;&gt;Node908</title>
<path fill="none" stroke="#191970" d="M382.542,-30.2444C369.7153,-28.6935 356.6568,-27.1147 344.2359,-25.6129"/>
<polygon fill="#191970" stroke="#191970" points="382.4146,-33.7544 392.7624,-31.4801 383.2549,-26.805 382.4146,-33.7544"/>
</g>
<!-- Node909 -->
<g id="node12" class="node">
<title>Node909</title>
<g id="a_node12"><a xlink:href="../../db/d71/classHtmlInfoView.html#a692c7ff4ce8b8d1a44306219d7ecc1f0" target="_top" xlink:title=" ">
<polygon fill="#ffffff" stroke="#000000" points="0,-.5 0,-19.5 155,-19.5 155,-.5 0,-.5"/>
<text text-anchor="middle" x="77.5" y="-7.5" font-family="Helvetica,sans-Serif" font-size="10.00" fill="#000000">HtmlInfoView::HtmlInfoView</text>
</a>
</g>
</g>
<!-- Node908&#45;&gt;Node909 -->
<g id="edge11" class="edge">
<title>Node908&#45;&gt;Node909</title>
<path fill="none" stroke="#191970" d="M191.792,-14.0923C179.6801,-13.6586 167.2192,-13.2125 155.1825,-12.7815"/>
<polygon fill="#191970" stroke="#191970" points="191.7481,-17.5929 201.867,-14.453 191.9987,-10.5974 191.7481,-17.5929"/>
</g>
</g>
</svg>
