<?xml version="1.0" encoding="UTF-8" standalone="no"?>
<!DOCTYPE svg PUBLIC "-//W3C//DTD SVG 1.1//EN"
 "http://www.w3.org/Graphics/SVG/1.1/DTD/svg11.dtd">
<!-- Generated by graphviz version 2.40.1 (0)
 -->
<!-- Title: HtmlInfoView::currentItem Pages: 1 -->
<svg width="764pt" height="214pt"
 viewBox="0.00 0.00 764.00 213.50" xmlns="http://www.w3.org/2000/svg" xmlns:xlink="http://www.w3.org/1999/xlink">
<g id="graph0" class="graph" transform="scale(1 1) rotate(0) translate(4 209.5)">
<title>HtmlInfoView::currentItem</title>
<polygon fill="#ffffff" stroke="transparent" points="-4,4 -4,-209.5 760,-209.5 760,4 -4,4"/>
<!-- Node314 -->
<g id="node1" class="node">
<title>Node314</title>
<g id="a_node1"><a xlink:title=" ">
<polygon fill="#bfbfbf" stroke="#000000" points="610,-126 610,-145 756,-145 756,-126 610,-126"/>
<text text-anchor="middle" x="683" y="-133" font-family="Helvetica,sans-Serif" font-size="10.00" fill="#000000">HtmlInfoView::currentItem</text>
</a>
</g>
</g>
<!-- Node315 -->
<g id="node2" class="node">
<title>Node315</title>
<g id="a_node2"><a xlink:href="../../d8/d37/classSketchWidget.html#a9f0597221e341e88132e1d2a6f790ff5" target="_top" xlink:title=" ">
<polygon fill="#ffffff" stroke="#000000" points="387,-126 387,-145 574,-145 574,-126 387,-126"/>
<text text-anchor="middle" x="480.5" y="-133" font-family="Helvetica,sans-Serif" font-size="10.00" fill="#000000">SketchWidget::currentlyInfoviewed</text>
</a>
</g>
</g>
<!-- Node314&#45;&gt;Node315 -->
<g id="edge1" class="edge">
<title>Node314&#45;&gt;Node315</title>
<path fill="none" stroke="#191970" d="M599.7552,-135.5C591.3614,-135.5 582.7972,-135.5 574.3031,-135.5"/>
<polygon fill="#191970" stroke="#191970" points="599.8929,-139.0001 609.8929,-135.5 599.8928,-132.0001 599.8929,-139.0001"/>
</g>
<!-- Node316 -->
<g id="node3" class="node">
<title>Node316</title>
<g id="a_node3"><a xlink:href="../../d8/d37/classSketchWidget.html#abfa5861c50c7115df1fcf12cfad01bf4" target="_top" xlink:title=" ">
<polygon fill="#ffffff" stroke="#000000" points="186,-186 186,-205 351,-205 351,-186 186,-186"/>
<text text-anchor="middle" x="268.5" y="-193" font-family="Helvetica,sans-Serif" font-size="10.00" fill="#000000">SketchWidget::hoverEnterItem</text>
</a>
</g>
</g>
<!-- Node315&#45;&gt;Node316 -->
<g id="edge2" class="edge">
<title>Node315&#45;&gt;Node316</title>
<path fill="none" stroke="#191970" d="M437.1836,-147.7594C397.2696,-159.0558 338.85,-175.5896 302.2852,-185.9382"/>
<polygon fill="#191970" stroke="#191970" points="438.2391,-151.0982 446.908,-145.0072 436.3328,-144.3628 438.2391,-151.0982"/>
</g>
<!-- Node317 -->
<g id="node4" class="node">
<title>Node317</title>
<g id="a_node4"><a xlink:href="../../d8/d37/classSketchWidget.html#a64d029841c4f9e3c57435c78b14bb955" target="_top" xlink:title=" ">
<polygon fill="#ffffff" stroke="#000000" points="2,-164.5 2,-194.5 148,-194.5 148,-164.5 2,-164.5"/>
<text text-anchor="start" x="10" y="-182.5" font-family="Helvetica,sans-Serif" font-size="10.00" fill="#000000">SketchWidget::hoverLeave</text>
<text text-anchor="middle" x="75" y="-171.5" font-family="Helvetica,sans-Serif" font-size="10.00" fill="#000000">ConnectorItem</text>
</a>
</g>
</g>
<!-- Node315&#45;&gt;Node317 -->
<g id="edge5" class="edge">
<title>Node315&#45;&gt;Node317</title>
<path fill="none" stroke="#191970" d="M382.4979,-146.134C310.3358,-153.9642 213.7675,-164.4426 148.2403,-171.5528"/>
<polygon fill="#191970" stroke="#191970" points="382.9485,-149.6058 392.5125,-145.0473 382.1933,-142.6466 382.9485,-149.6058"/>
</g>
<!-- Node318 -->
<g id="node5" class="node">
<title>Node318</title>
<g id="a_node5"><a xlink:href="../../d8/d37/classSketchWidget.html#a4bc087939ab412c6d4d31ba5fe35fdf4" target="_top" xlink:title=" ">
<polygon fill="#ffffff" stroke="#000000" points="197,-98.5 197,-128.5 340,-128.5 340,-98.5 197,-98.5"/>
<text text-anchor="start" x="205" y="-116.5" font-family="Helvetica,sans-Serif" font-size="10.00" fill="#000000">SketchWidget::hoverEnter</text>
<text text-anchor="middle" x="268.5" y="-105.5" font-family="Helvetica,sans-Serif" font-size="10.00" fill="#000000">ConnectorItem</text>
</a>
</g>
</g>
<!-- Node315&#45;&gt;Node318 -->
<g id="edge4" class="edge">
<title>Node315&#45;&gt;Node318</title>
<path fill="none" stroke="#191970" d="M378.4326,-124.9081C365.5328,-123.5694 352.5552,-122.2227 340.2654,-120.9474"/>
<polygon fill="#191970" stroke="#191970" points="378.4388,-128.4275 388.7467,-125.9784 379.1614,-121.4648 378.4388,-128.4275"/>
</g>
<!-- Node319 -->
<g id="node6" class="node">
<title>Node319</title>
<g id="a_node6"><a xlink:href="../../d8/d37/classSketchWidget.html#a5ad6ac82ae1f6dd9afff255a634238e2" target="_top" xlink:title=" ">
<polygon fill="#ffffff" stroke="#000000" points="195.5,-49.5 195.5,-79.5 341.5,-79.5 341.5,-49.5 195.5,-49.5"/>
<text text-anchor="start" x="203.5" y="-67.5" font-family="Helvetica,sans-Serif" font-size="10.00" fill="#000000">SketchWidget::setInstance</text>
<text text-anchor="middle" x="268.5" y="-56.5" font-family="Helvetica,sans-Serif" font-size="10.00" fill="#000000">Title</text>
</a>
</g>
</g>
<!-- Node315&#45;&gt;Node319 -->
<g id="edge6" class="edge">
<title>Node315&#45;&gt;Node319</title>
<path fill="none" stroke="#191970" d="M445.954,-122.2687C419.9881,-112.4931 383.4585,-99.099 351,-88.5 341.7831,-85.4903 331.928,-82.4618 322.353,-79.6179"/>
<polygon fill="#191970" stroke="#191970" points="444.7664,-125.5614 455.358,-125.8247 447.2424,-119.0139 444.7664,-125.5614"/>
</g>
<!-- Node316&#45;&gt;Node317 -->
<g id="edge3" class="edge">
<title>Node316&#45;&gt;Node317</title>
<path fill="none" stroke="#191970" d="M175.8388,-187.8381C166.5545,-187.0704 157.2199,-186.2985 148.1778,-185.5509"/>
<polygon fill="#191970" stroke="#191970" points="175.6229,-191.3321 185.8773,-188.6681 176.1998,-184.3559 175.6229,-191.3321"/>
</g>
<!-- Node320 -->
<g id="node7" class="node">
<title>Node320</title>
<g id="a_node7"><a xlink:href="../../d4/dd1/classChangeLabelTextCommand.html#ae9fd0dba29be9d6ef10bf5a8cfdcc1bb" target="_top" xlink:title=" ">
<polygon fill="#ffffff" stroke="#000000" points="0,-98.5 0,-128.5 150,-128.5 150,-98.5 0,-98.5"/>
<text text-anchor="start" x="8" y="-116.5" font-family="Helvetica,sans-Serif" font-size="10.00" fill="#000000">ChangeLabelTextCommand</text>
<text text-anchor="middle" x="75" y="-105.5" font-family="Helvetica,sans-Serif" font-size="10.00" fill="#000000">::undo</text>
</a>
</g>
</g>
<!-- Node319&#45;&gt;Node320 -->
<g id="edge7" class="edge">
<title>Node319&#45;&gt;Node320</title>
<path fill="none" stroke="#191970" d="M199.1962,-82.0498C177.9475,-87.4306 154.7732,-93.299 134.2591,-98.4938"/>
<polygon fill="#191970" stroke="#191970" points="200.2938,-85.3824 209.1286,-79.5346 198.5754,-78.5966 200.2938,-85.3824"/>
</g>
<!-- Node321 -->
<g id="node8" class="node">
<title>Node321</title>
<g id="a_node8"><a xlink:href="../../d4/dd1/classChangeLabelTextCommand.html#af190c5f638ff7b3e58679994e36722f7" target="_top" xlink:title=" ">
<polygon fill="#ffffff" stroke="#000000" points="0,-49.5 0,-79.5 150,-79.5 150,-49.5 0,-49.5"/>
<text text-anchor="start" x="8" y="-67.5" font-family="Helvetica,sans-Serif" font-size="10.00" fill="#000000">ChangeLabelTextCommand</text>
<text text-anchor="middle" x="75" y="-56.5" font-family="Helvetica,sans-Serif" font-size="10.00" fill="#000000">::redo</text>
</a>
</g>
</g>
<!-- Node319&#45;&gt;Node321 -->
<g id="edge8" class="edge">
<title>Node319&#45;&gt;Node321</title>
<path fill="none" stroke="#191970" d="M185.2046,-64.5C173.5671,-64.5 161.6647,-64.5 150.1887,-64.5"/>
<polygon fill="#191970" stroke="#191970" points="185.346,-68.0001 195.3459,-64.5 185.3459,-61.0001 185.346,-68.0001"/>
</g>
<!-- Node322 -->
<g id="node9" class="node">
<title>Node322</title>
<g id="a_node9"><a xlink:href="../../de/de6/classSchematicSketchWidget.html#ac5c29710db8691b1526d5b2400f14a4d" target="_top" xlink:title=" ">
<polygon fill="#ffffff" stroke="#000000" points="8,-.5 8,-30.5 142,-30.5 142,-.5 8,-.5"/>
<text text-anchor="start" x="16" y="-18.5" font-family="Helvetica,sans-Serif" font-size="10.00" fill="#000000">SchematicSketchWidget</text>
<text text-anchor="middle" x="75" y="-7.5" font-family="Helvetica,sans-Serif" font-size="10.00" fill="#000000">::setInstanceTitle</text>
</a>
</g>
</g>
<!-- Node319&#45;&gt;Node322 -->
<g id="edge9" class="edge">
<title>Node319&#45;&gt;Node322</title>
<path fill="none" stroke="#191970" d="M199.1962,-46.9502C177.9475,-41.5694 154.7732,-35.701 134.2591,-30.5062"/>
<polygon fill="#191970" stroke="#191970" points="198.5754,-50.4034 209.1286,-49.4654 200.2938,-43.6176 198.5754,-50.4034"/>
</g>
</g>
</svg>
