<?xml version="1.0" encoding="UTF-8" standalone="no"?>
<!DOCTYPE svg PUBLIC "-//W3C//DTD SVG 1.1//EN"
 "http://www.w3.org/Graphics/SVG/1.1/DTD/svg11.dtd">
<!-- Generated by graphviz version 2.40.1 (0)
 -->
<!-- Title: utils/resizehandle.cpp Pages: 1 -->
<!--zoomable 252 -->
<svg id="main" version="1.1" xmlns="http://www.w3.org/2000/svg" xmlns:xlink="http://www.w3.org/1999/xlink" xml:space="preserve" onload="init(evt)">
<style type="text/css"><![CDATA[
.edge:hover path { stroke: red; }
.edge:hover polygon { stroke: red; fill: red; }
]]></style>
<script type="text/javascript"><![CDATA[
var edges = document.getElementsByTagName('g');
if (edges && edges.length) {
  for (var i=0;i<edges.length;i++) {
    if (edges[i].id.substr(0,4)=='edge') {
      edges[i].setAttribute('class','edge');
    }
  }
}
]]></script>
        <defs>
                <circle id="rim" cx="0" cy="0" r="7"/>
                <circle id="rim2" cx="0" cy="0" r="3.5"/>
                <g id="zoomPlus">
                        <use xlink:href="#rim" fill="#404040">
                                <set attributeName="fill" to="#808080" begin="zoomplus.mouseover" end="zoomplus.mouseout"/>
                        </use>
                        <path d="M-4,0h8M0,-4v8" fill="none" stroke="white" stroke-width="1.5" pointer-events="none"/>
                </g>
                <g id="zoomMin">
                        <use xlink:href="#rim" fill="#404040">
                                <set attributeName="fill" to="#808080" begin="zoomminus.mouseover" end="zoomminus.mouseout"/>
                        </use>
                        <path d="M-4,0h8" fill="none" stroke="white" stroke-width="1.5" pointer-events="none"/>
                </g>
                <g id="dirArrow">
                        <path fill="none" stroke="white" stroke-width="1.5" d="M0,-3.0v7 M-2.5,-0.5L0,-3.0L2.5,-0.5"/>
                </g>
               <g id="resetDef">
                       <use xlink:href="#rim2" fill="#404040">
                               <set attributeName="fill" to="#808080" begin="reset.mouseover" end="reset.mouseout"/>
                       </use>
               </g>
        </defs>

<script type="text/javascript">
var viewWidth = 1732;
var viewHeight = 252;
var sectionId = 'dynsection-0';
</script>
<script xlink:href="../../svgpan.js"/>
<svg id="graph" class="graph">
<g id="viewport">
<title>utils/resizehandle.cpp</title>
<polygon fill="#ffffff" stroke="transparent" points="-4,4 -4,-248 1727.5,-248 1727.5,4 -4,4"/>
<!-- Node0 -->
<g id="node1" class="node">
<title>Node0</title>
<g id="a_node1"><a xlink:title=" ">
<polygon fill="#bfbfbf" stroke="#000000" points="384,-224.5 384,-243.5 507,-243.5 507,-224.5 384,-224.5"/>
<text text-anchor="middle" x="445.5" y="-231.5" font-family="Helvetica,sans-Serif" font-size="10.00" fill="#000000">utils/resizehandle.cpp</text>
</a>
</g>
</g>
<!-- Node1 -->
<g id="node2" class="node">
<title>Node1</title>
<g id="a_node2"><a xlink:href="../../d9/d53/resizehandle_8h.html" target="_top" xlink:title=" ">
<polygon fill="#ffffff" stroke="#000000" points="234.5,-168.5 234.5,-187.5 322.5,-187.5 322.5,-168.5 234.5,-168.5"/>
<text text-anchor="middle" x="278.5" y="-175.5" font-family="Helvetica,sans-Serif" font-size="10.00" fill="#000000">resizehandle.h</text>
</a>
</g>
</g>
<!-- Node0&#45;&gt;Node1 -->
<g id="edge1" class="edge">
<title>Node0&#45;&gt;Node1</title>
<path fill="none" stroke="#191970" d="M416.7917,-224.3733C389.1423,-215.1016 347.1424,-201.0178 316.6834,-190.804"/>
<polygon fill="#191970" stroke="#191970" points="317.4276,-187.3621 306.8337,-187.5011 315.2021,-193.9989 317.4276,-187.3621"/>
</g>
<!-- Node4 -->
<g id="node5" class="node">
<title>Node4</title>
<g id="a_node5"><a xlink:href="../../dc/d67/zoomablegraphicsview_8h.html" target="_top" xlink:title=" ">
<polygon fill="#ffffff" stroke="#000000" points="0,-56.5 0,-75.5 181,-75.5 181,-56.5 0,-56.5"/>
<text text-anchor="middle" x="90.5" y="-63.5" font-family="Helvetica,sans-Serif" font-size="10.00" fill="#000000">../sketch/zoomablegraphicsview.h</text>
</a>
</g>
</g>
<!-- Node0&#45;&gt;Node4 -->
<g id="edge4" class="edge">
<title>Node0&#45;&gt;Node4</title>
<path fill="none" stroke="#191970" d="M441.1399,-224.4414C429.8832,-200.9504 397.4102,-140.2566 350.5,-112 323.8585,-95.9524 252.4092,-83.9928 191.1393,-76.2963"/>
<polygon fill="#191970" stroke="#191970" points="191.3633,-72.7975 181.0108,-75.0505 190.5087,-79.7452 191.3633,-72.7975"/>
</g>
<!-- Node9 -->
<g id="node10" class="node">
<title>Node9</title>
<g id="a_node10"><a xlink:href="../../df/db5/debugdialog_8h.html" target="_top" xlink:title=" ">
<polygon fill="#ffffff" stroke="#000000" points="398,-112.5 398,-131.5 493,-131.5 493,-112.5 398,-112.5"/>
<text text-anchor="middle" x="445.5" y="-119.5" font-family="Helvetica,sans-Serif" font-size="10.00" fill="#000000">../debugdialog.h</text>
</a>
</g>
</g>
<!-- Node0&#45;&gt;Node9 -->
<g id="edge9" class="edge">
<title>Node0&#45;&gt;Node9</title>
<path fill="none" stroke="#191970" d="M445.5,-224.4509C445.5,-206.184 445.5,-165.9553 445.5,-141.6976"/>
<polygon fill="#191970" stroke="#191970" points="449.0001,-141.5249 445.5,-131.5249 442.0001,-141.5249 449.0001,-141.5249"/>
</g>
<!-- Node23 -->
<g id="node24" class="node">
<title>Node23</title>
<g id="a_node24"><a xlink:href="../../d6/d55/fgraphicsscene_8h.html" target="_top" xlink:title=" ">
<polygon fill="#ffffff" stroke="#000000" points="1043,-168.5 1043,-187.5 1186,-187.5 1186,-168.5 1043,-168.5"/>
<text text-anchor="middle" x="1114.5" y="-175.5" font-family="Helvetica,sans-Serif" font-size="10.00" fill="#000000">../sketch/fgraphicsscene.h</text>
</a>
</g>
</g>
<!-- Node0&#45;&gt;Node23 -->
<g id="edge25" class="edge">
<title>Node0&#45;&gt;Node23</title>
<path fill="none" stroke="#191970" d="M507.2388,-228.832C628.2975,-218.6986 896.8373,-196.2199 1032.5721,-184.8579"/>
<polygon fill="#191970" stroke="#191970" points="1033.2321,-188.315 1042.9053,-183.993 1032.6481,-181.3394 1033.2321,-188.315"/>
</g>
<!-- Node35 -->
<g id="node36" class="node">
<title>Node35</title>
<g id="a_node36"><a xlink:title=" ">
<polygon fill="#ffffff" stroke="#bfbfbf" points="1667.5,-56.5 1667.5,-75.5 1723.5,-75.5 1723.5,-56.5 1667.5,-56.5"/>
<text text-anchor="middle" x="1695.5" y="-63.5" font-family="Helvetica,sans-Serif" font-size="10.00" fill="#000000">QCursor</text>
</a>
</g>
</g>
<!-- Node0&#45;&gt;Node35 -->
<g id="edge55" class="edge">
<title>Node0&#45;&gt;Node35</title>
<path fill="none" stroke="#191970" d="M507.1948,-231.6186C661.8779,-225.4222 1063.2732,-207.8893 1195.5,-188 1370.8663,-161.6217 1574.8466,-102.8152 1657.6673,-77.7174"/>
<polygon fill="#191970" stroke="#191970" points="1658.8405,-81.0189 1667.3872,-74.7577 1656.8014,-74.3225 1658.8405,-81.0189"/>
</g>
<!-- Node2 -->
<g id="node3" class="node">
<title>Node2</title>
<g id="a_node3"><a xlink:title=" ">
<polygon fill="#ffffff" stroke="#bfbfbf" points="215.5,-112.5 215.5,-131.5 341.5,-131.5 341.5,-112.5 215.5,-112.5"/>
<text text-anchor="middle" x="278.5" y="-119.5" font-family="Helvetica,sans-Serif" font-size="10.00" fill="#000000">QGraphicsPixmapItem</text>
</a>
</g>
</g>
<!-- Node1&#45;&gt;Node2 -->
<g id="edge2" class="edge">
<title>Node1&#45;&gt;Node2</title>
<path fill="none" stroke="#191970" d="M278.5,-168.2455C278.5,-160.9382 278.5,-150.6944 278.5,-141.7046"/>
<polygon fill="#191970" stroke="#191970" points="282.0001,-141.6426 278.5,-131.6427 275.0001,-141.6427 282.0001,-141.6426"/>
</g>
<!-- Node3 -->
<g id="node4" class="node">
<title>Node3</title>
<g id="a_node4"><a xlink:title=" ">
<polygon fill="#ffffff" stroke="#bfbfbf" points="41.5,-112.5 41.5,-131.5 197.5,-131.5 197.5,-112.5 41.5,-112.5"/>
<text text-anchor="middle" x="119.5" y="-119.5" font-family="Helvetica,sans-Serif" font-size="10.00" fill="#000000">QGraphicsSceneMouseEvent</text>
</a>
</g>
</g>
<!-- Node1&#45;&gt;Node3 -->
<g id="edge3" class="edge">
<title>Node1&#45;&gt;Node3</title>
<path fill="none" stroke="#191970" d="M251.1669,-168.3733C224.9566,-159.1419 185.2016,-145.1402 156.2332,-134.9375"/>
<polygon fill="#191970" stroke="#191970" points="157.0712,-131.5219 146.4764,-131.5011 154.7458,-138.1244 157.0712,-131.5219"/>
</g>
<!-- Node5 -->
<g id="node6" class="node">
<title>Node5</title>
<g id="a_node6"><a xlink:title=" ">
<polygon fill="#ffffff" stroke="#bfbfbf" points="1,-.5 1,-19.5 92,-19.5 92,-.5 1,-.5"/>
<text text-anchor="middle" x="46.5" y="-7.5" font-family="Helvetica,sans-Serif" font-size="10.00" fill="#000000">QGraphicsView</text>
</a>
</g>
</g>
<!-- Node4&#45;&gt;Node5 -->
<g id="edge5" class="edge">
<title>Node4&#45;&gt;Node5</title>
<path fill="none" stroke="#191970" d="M82.8358,-56.2455C76.6527,-48.3761 67.7937,-37.101 60.3711,-27.6542"/>
<polygon fill="#191970" stroke="#191970" points="63.0068,-25.3435 54.0764,-19.6427 57.5025,-29.6683 63.0068,-25.3435"/>
</g>
<!-- Node6 -->
<g id="node7" class="node">
<title>Node6</title>
<g id="a_node7"><a xlink:title=" ">
<polygon fill="#ffffff" stroke="#bfbfbf" points="110,-.5 110,-19.5 161,-19.5 161,-.5 110,-.5"/>
<text text-anchor="middle" x="135.5" y="-7.5" font-family="Helvetica,sans-Serif" font-size="10.00" fill="#000000">QMenu</text>
</a>
</g>
</g>
<!-- Node4&#45;&gt;Node6 -->
<g id="edge6" class="edge">
<title>Node4&#45;&gt;Node6</title>
<path fill="none" stroke="#191970" d="M98.3384,-56.2455C104.662,-48.3761 113.7224,-37.101 121.3136,-27.6542"/>
<polygon fill="#191970" stroke="#191970" points="124.2158,-29.6302 127.7514,-19.6427 118.7592,-25.2454 124.2158,-29.6302"/>
</g>
<!-- Node7 -->
<g id="node8" class="node">
<title>Node7</title>
<g id="a_node8"><a xlink:title=" ">
<polygon fill="#ffffff" stroke="#bfbfbf" points="676,-.5 676,-19.5 725,-19.5 725,-.5 676,-.5"/>
<text text-anchor="middle" x="700.5" y="-7.5" font-family="Helvetica,sans-Serif" font-size="10.00" fill="#000000">QHash</text>
</a>
</g>
</g>
<!-- Node4&#45;&gt;Node7 -->
<g id="edge7" class="edge">
<title>Node4&#45;&gt;Node7</title>
<path fill="none" stroke="#191970" d="M181.242,-56.8292C184.3653,-56.5443 187.4584,-56.2671 190.5,-56 398.5443,-37.7333 456.0109,-57.5061 665.6634,-19.7709"/>
<polygon fill="#191970" stroke="#191970" points="666.5527,-23.1666 675.7631,-17.9302 665.2975,-16.28 666.5527,-23.1666"/>
</g>
<!-- Node8 -->
<g id="node9" class="node">
<title>Node8</title>
<g id="a_node9"><a xlink:title=" ">
<polygon fill="#ffffff" stroke="#bfbfbf" points="339,-.5 339,-19.5 380,-19.5 380,-.5 339,-.5"/>
<text text-anchor="middle" x="359.5" y="-7.5" font-family="Helvetica,sans-Serif" font-size="10.00" fill="#000000">QList</text>
</a>
</g>
</g>
<!-- Node4&#45;&gt;Node8 -->
<g id="edge8" class="edge">
<title>Node4&#45;&gt;Node8</title>
<path fill="none" stroke="#191970" d="M136.4371,-56.4369C191.4028,-44.9942 281.8915,-26.1564 328.942,-16.3615"/>
<polygon fill="#191970" stroke="#191970" points="329.7611,-19.7661 338.8378,-14.3014 328.3343,-12.9131 329.7611,-19.7661"/>
</g>
<!-- Node10 -->
<g id="node11" class="node">
<title>Node10</title>
<g id="a_node11"><a xlink:title=" ">
<polygon fill="#ffffff" stroke="#bfbfbf" points="199.5,-56.5 199.5,-75.5 255.5,-75.5 255.5,-56.5 199.5,-56.5"/>
<text text-anchor="middle" x="227.5" y="-63.5" font-family="Helvetica,sans-Serif" font-size="10.00" fill="#000000">QDialog</text>
</a>
</g>
</g>
<!-- Node9&#45;&gt;Node10 -->
<g id="edge10" class="edge">
<title>Node9&#45;&gt;Node10</title>
<path fill="none" stroke="#191970" d="M407.3209,-112.4748C372.7365,-103.8068 320.1221,-90.522 265.6067,-76.2653"/>
<polygon fill="#191970" stroke="#191970" points="266.3307,-72.8369 255.77,-73.6876 264.5562,-79.6083 266.3307,-72.8369"/>
</g>
<!-- Node11 -->
<g id="node12" class="node">
<title>Node11</title>
<g id="a_node12"><a xlink:title=" ">
<polygon fill="#ffffff" stroke="#bfbfbf" points="273.5,-56.5 273.5,-75.5 325.5,-75.5 325.5,-56.5 273.5,-56.5"/>
<text text-anchor="middle" x="299.5" y="-63.5" font-family="Helvetica,sans-Serif" font-size="10.00" fill="#000000">QEvent</text>
</a>
</g>
</g>
<!-- Node9&#45;&gt;Node11 -->
<g id="edge11" class="edge">
<title>Node9&#45;&gt;Node11</title>
<path fill="none" stroke="#191970" d="M420.4017,-112.3733C396.5445,-103.2226 360.4665,-89.3844 333.929,-79.2057"/>
<polygon fill="#191970" stroke="#191970" points="334.861,-75.8145 324.2708,-75.5011 332.3541,-82.3503 334.861,-75.8145"/>
</g>
<!-- Node12 -->
<g id="node13" class="node">
<title>Node12</title>
<g id="a_node13"><a xlink:title=" ">
<polygon fill="#ffffff" stroke="#bfbfbf" points="344,-56.5 344,-75.5 407,-75.5 407,-56.5 344,-56.5"/>
<text text-anchor="middle" x="375.5" y="-63.5" font-family="Helvetica,sans-Serif" font-size="10.00" fill="#000000">QTextEdit</text>
</a>
</g>
</g>
<!-- Node9&#45;&gt;Node12 -->
<g id="edge12" class="edge">
<title>Node9&#45;&gt;Node12</title>
<path fill="none" stroke="#191970" d="M433.3069,-112.2455C422.8679,-103.8943 407.6345,-91.7076 395.426,-81.9408"/>
<polygon fill="#191970" stroke="#191970" points="397.5485,-79.1566 387.5533,-75.6427 393.1756,-84.6227 397.5485,-79.1566"/>
</g>
<!-- Node13 -->
<g id="node14" class="node">
<title>Node13</title>
<g id="a_node14"><a xlink:title=" ">
<polygon fill="#ffffff" stroke="#bfbfbf" points="425,-56.5 425,-75.5 466,-75.5 466,-56.5 425,-56.5"/>
<text text-anchor="middle" x="445.5" y="-63.5" font-family="Helvetica,sans-Serif" font-size="10.00" fill="#000000">QFile</text>
</a>
</g>
</g>
<!-- Node9&#45;&gt;Node13 -->
<g id="edge13" class="edge">
<title>Node9&#45;&gt;Node13</title>
<path fill="none" stroke="#191970" d="M445.5,-112.2455C445.5,-104.9382 445.5,-94.6944 445.5,-85.7046"/>
<polygon fill="#191970" stroke="#191970" points="449.0001,-85.6426 445.5,-75.6427 442.0001,-85.6427 449.0001,-85.6426"/>
</g>
<!-- Node14 -->
<g id="node15" class="node">
<title>Node14</title>
<g id="a_node15"><a xlink:title=" ">
<polygon fill="#ffffff" stroke="#bfbfbf" points="484,-56.5 484,-75.5 543,-75.5 543,-56.5 484,-56.5"/>
<text text-anchor="middle" x="513.5" y="-63.5" font-family="Helvetica,sans-Serif" font-size="10.00" fill="#000000">QPointer</text>
</a>
</g>
</g>
<!-- Node9&#45;&gt;Node14 -->
<g id="edge14" class="edge">
<title>Node9&#45;&gt;Node14</title>
<path fill="none" stroke="#191970" d="M457.3447,-112.2455C467.388,-103.9746 481.9995,-91.9416 493.8004,-82.2232"/>
<polygon fill="#191970" stroke="#191970" points="496.2967,-84.7015 501.791,-75.6427 491.8467,-79.298 496.2967,-84.7015"/>
</g>
<!-- Node15 -->
<g id="node16" class="node">
<title>Node15</title>
<g id="a_node16"><a xlink:href="../../d4/d08/misc_8h.html" target="_top" xlink:title=" ">
<polygon fill="#ffffff" stroke="#000000" points="600,-56.5 600,-75.5 673,-75.5 673,-56.5 600,-56.5"/>
<text text-anchor="middle" x="636.5" y="-63.5" font-family="Helvetica,sans-Serif" font-size="10.00" fill="#000000">utils/misc.h</text>
</a>
</g>
</g>
<!-- Node9&#45;&gt;Node15 -->
<g id="edge15" class="edge">
<title>Node9&#45;&gt;Node15</title>
<path fill="none" stroke="#191970" d="M478.3341,-112.3733C510.3695,-102.9807 559.2487,-88.6496 594.1855,-78.4064"/>
<polygon fill="#191970" stroke="#191970" points="595.4831,-81.6733 604.0944,-75.5011 593.5136,-74.9561 595.4831,-81.6733"/>
</g>
<!-- Node15&#45;&gt;Node7 -->
<g id="edge16" class="edge">
<title>Node15&#45;&gt;Node7</title>
<path fill="none" stroke="#191970" d="M647.6479,-56.2455C657.0087,-48.0549 670.5858,-36.1749 681.6349,-26.5069"/>
<polygon fill="#191970" stroke="#191970" points="684.2588,-28.8618 689.4798,-19.6427 679.6492,-23.5937 684.2588,-28.8618"/>
</g>
<!-- Node15&#45;&gt;Node8 -->
<g id="edge23" class="edge">
<title>Node15&#45;&gt;Node8</title>
<path fill="none" stroke="#191970" d="M599.7399,-58.7335C594.9512,-57.8041 590.1099,-56.8731 585.5,-56 501.1237,-40.019 476.3239,-42.3759 389.9824,-20.1244"/>
<polygon fill="#191970" stroke="#191970" points="390.8534,-16.7345 380.2933,-17.5919 389.0832,-23.507 390.8534,-16.7345"/>
</g>
<!-- Node16 -->
<g id="node17" class="node">
<title>Node16</title>
<g id="a_node17"><a xlink:title=" ">
<polygon fill="#ffffff" stroke="#bfbfbf" points="398,-.5 398,-19.5 453,-19.5 453,-.5 398,-.5"/>
<text text-anchor="middle" x="425.5" y="-7.5" font-family="Helvetica,sans-Serif" font-size="10.00" fill="#000000">QVector</text>
</a>
</g>
</g>
<!-- Node15&#45;&gt;Node16 -->
<g id="edge17" class="edge">
<title>Node15&#45;&gt;Node16</title>
<path fill="none" stroke="#191970" d="M600.1592,-56.4549C567.0106,-47.7345 516.4098,-34.3884 463.3152,-20.2082"/>
<polygon fill="#191970" stroke="#191970" points="463.9405,-16.7525 453.3759,-17.5517 462.133,-23.5152 463.9405,-16.7525"/>
</g>
<!-- Node17 -->
<g id="node18" class="node">
<title>Node17</title>
<g id="a_node18"><a xlink:title=" ">
<polygon fill="#ffffff" stroke="#bfbfbf" points="743,-.5 743,-19.5 796,-19.5 796,-.5 743,-.5"/>
<text text-anchor="middle" x="769.5" y="-7.5" font-family="Helvetica,sans-Serif" font-size="10.00" fill="#000000">QString</text>
</a>
</g>
</g>
<!-- Node15&#45;&gt;Node17 -->
<g id="edge18" class="edge">
<title>Node15&#45;&gt;Node17</title>
<path fill="none" stroke="#191970" d="M659.3635,-56.3733C680.905,-47.3032 713.3838,-33.6279 737.4956,-23.4755"/>
<polygon fill="#191970" stroke="#191970" points="739.0767,-26.6075 746.9348,-19.5011 736.3603,-20.156 739.0767,-26.6075"/>
</g>
<!-- Node18 -->
<g id="node19" class="node">
<title>Node18</title>
<g id="a_node19"><a xlink:title=" ">
<polygon fill="#ffffff" stroke="#bfbfbf" points="471.5,-.5 471.5,-19.5 509.5,-19.5 509.5,-.5 471.5,-.5"/>
<text text-anchor="middle" x="490.5" y="-7.5" font-family="Helvetica,sans-Serif" font-size="10.00" fill="#000000">QDir</text>
</a>
</g>
</g>
<!-- Node15&#45;&gt;Node18 -->
<g id="edge19" class="edge">
<title>Node15&#45;&gt;Node18</title>
<path fill="none" stroke="#191970" d="M611.4017,-56.3733C585.8094,-46.557 546.1541,-31.3468 519.2988,-21.0461"/>
<polygon fill="#191970" stroke="#191970" points="520.2791,-17.6736 509.6889,-17.3601 517.7723,-24.2093 520.2791,-17.6736"/>
</g>
<!-- Node19 -->
<g id="node20" class="node">
<title>Node19</title>
<g id="a_node20"><a xlink:title=" ">
<polygon fill="#ffffff" stroke="#bfbfbf" points="814.5,-.5 814.5,-19.5 902.5,-19.5 902.5,-.5 814.5,-.5"/>
<text text-anchor="middle" x="858.5" y="-7.5" font-family="Helvetica,sans-Serif" font-size="10.00" fill="#000000">QDomElement</text>
</a>
</g>
</g>
<!-- Node15&#45;&gt;Node19 -->
<g id="edge20" class="edge">
<title>Node15&#45;&gt;Node19</title>
<path fill="none" stroke="#191970" d="M673.1588,-56.7527C710.8173,-47.2533 769.604,-32.4242 810.8489,-22.0201"/>
<polygon fill="#191970" stroke="#191970" points="811.8315,-25.3819 820.6717,-19.5423 810.1194,-18.5946 811.8315,-25.3819"/>
</g>
<!-- Node20 -->
<g id="node21" class="node">
<title>Node20</title>
<g id="a_node21"><a xlink:title=" ">
<polygon fill="#ffffff" stroke="#bfbfbf" points="527.5,-.5 527.5,-19.5 597.5,-19.5 597.5,-.5 527.5,-.5"/>
<text text-anchor="middle" x="562.5" y="-7.5" font-family="Helvetica,sans-Serif" font-size="10.00" fill="#000000">QStringList</text>
</a>
</g>
</g>
<!-- Node15&#45;&gt;Node20 -->
<g id="edge21" class="edge">
<title>Node15&#45;&gt;Node20</title>
<path fill="none" stroke="#191970" d="M623.6102,-56.2455C612.5746,-47.8943 596.4708,-35.7076 583.5647,-25.9408"/>
<polygon fill="#191970" stroke="#191970" points="585.3283,-22.8862 575.2421,-19.6427 581.1041,-28.4681 585.3283,-22.8862"/>
</g>
<!-- Node21 -->
<g id="node22" class="node">
<title>Node21</title>
<g id="a_node22"><a xlink:title=" ">
<polygon fill="#ffffff" stroke="#bfbfbf" points="615.5,-.5 615.5,-19.5 657.5,-19.5 657.5,-.5 615.5,-.5"/>
<text text-anchor="middle" x="636.5" y="-7.5" font-family="Helvetica,sans-Serif" font-size="10.00" fill="#000000">QPair</text>
</a>
</g>
</g>
<!-- Node15&#45;&gt;Node21 -->
<g id="edge22" class="edge">
<title>Node15&#45;&gt;Node21</title>
<path fill="none" stroke="#191970" d="M636.5,-56.2455C636.5,-48.9382 636.5,-38.6944 636.5,-29.7046"/>
<polygon fill="#191970" stroke="#191970" points="640.0001,-29.6426 636.5,-19.6427 633.0001,-29.6427 640.0001,-29.6426"/>
</g>
<!-- Node22 -->
<g id="node23" class="node">
<title>Node22</title>
<g id="a_node23"><a xlink:title=" ">
<polygon fill="#ffffff" stroke="#bfbfbf" points="1086,-.5 1086,-19.5 1141,-19.5 1141,-.5 1086,-.5"/>
<text text-anchor="middle" x="1113.5" y="-7.5" font-family="Helvetica,sans-Serif" font-size="10.00" fill="#000000">QPointF</text>
</a>
</g>
</g>
<!-- Node15&#45;&gt;Node22 -->
<g id="edge24" class="edge">
<title>Node15&#45;&gt;Node22</title>
<path fill="none" stroke="#191970" d="M673.2835,-61.4758C687.9645,-59.708 705.0257,-57.7012 720.5,-56 875.7655,-38.9309 919.0094,-49.0135 1075.7084,-20.0945"/>
<polygon fill="#191970" stroke="#191970" points="1076.5157,-23.5043 1085.7022,-18.2262 1075.2292,-16.6235 1076.5157,-23.5043"/>
</g>
<!-- Node24 -->
<g id="node25" class="node">
<title>Node24</title>
<g id="a_node25"><a xlink:title=" ">
<polygon fill="#ffffff" stroke="#bfbfbf" points="1066.5,-112.5 1066.5,-131.5 1162.5,-131.5 1162.5,-112.5 1066.5,-112.5"/>
<text text-anchor="middle" x="1114.5" y="-119.5" font-family="Helvetica,sans-Serif" font-size="10.00" fill="#000000">QGraphicsScene</text>
</a>
</g>
</g>
<!-- Node23&#45;&gt;Node24 -->
<g id="edge26" class="edge">
<title>Node23&#45;&gt;Node24</title>
<path fill="none" stroke="#191970" d="M1114.5,-168.2455C1114.5,-160.9382 1114.5,-150.6944 1114.5,-141.7046"/>
<polygon fill="#191970" stroke="#191970" points="1118.0001,-141.6426 1114.5,-131.6427 1111.0001,-141.6427 1118.0001,-141.6426"/>
</g>
<!-- Node25 -->
<g id="node26" class="node">
<title>Node25</title>
<g id="a_node26"><a xlink:title=" ">
<polygon fill="#ffffff" stroke="#bfbfbf" points="1180.5,-112.5 1180.5,-131.5 1238.5,-131.5 1238.5,-112.5 1180.5,-112.5"/>
<text text-anchor="middle" x="1209.5" y="-119.5" font-family="Helvetica,sans-Serif" font-size="10.00" fill="#000000">QPainter</text>
</a>
</g>
</g>
<!-- Node23&#45;&gt;Node25 -->
<g id="edge27" class="edge">
<title>Node23&#45;&gt;Node25</title>
<path fill="none" stroke="#191970" d="M1131.0477,-168.2455C1145.7599,-159.5731 1167.4888,-146.7645 1184.3505,-136.825"/>
<polygon fill="#191970" stroke="#191970" points="1186.3046,-139.736 1193.1419,-131.6427 1182.7498,-133.7057 1186.3046,-139.736"/>
</g>
<!-- Node26 -->
<g id="node27" class="node">
<title>Node26</title>
<g id="a_node27"><a xlink:title=" ">
<polygon fill="#ffffff" stroke="#bfbfbf" points="1256.5,-112.5 1256.5,-131.5 1402.5,-131.5 1402.5,-112.5 1256.5,-112.5"/>
<text text-anchor="middle" x="1329.5" y="-119.5" font-family="Helvetica,sans-Serif" font-size="10.00" fill="#000000">QGraphicsSceneHelpEvent</text>
</a>
</g>
</g>
<!-- Node23&#45;&gt;Node26 -->
<g id="edge28" class="edge">
<title>Node23&#45;&gt;Node26</title>
<path fill="none" stroke="#191970" d="M1151.4598,-168.3733C1187.9075,-158.8799 1243.7246,-144.3415 1283.1289,-134.0781"/>
<polygon fill="#191970" stroke="#191970" points="1284.2276,-137.4087 1293.0225,-131.5011 1282.4631,-130.6348 1284.2276,-137.4087"/>
</g>
<!-- Node27 -->
<g id="node28" class="node">
<title>Node27</title>
<g id="a_node28"><a xlink:href="../../d9/dbd/itembase_8h.html" target="_top" xlink:title=" ">
<polygon fill="#ffffff" stroke="#000000" points="937,-112.5 937,-131.5 1048,-131.5 1048,-112.5 937,-112.5"/>
<text text-anchor="middle" x="992.5" y="-119.5" font-family="Helvetica,sans-Serif" font-size="10.00" fill="#000000">../items/itembase.h</text>
</a>
</g>
</g>
<!-- Node23&#45;&gt;Node27 -->
<g id="edge29" class="edge">
<title>Node23&#45;&gt;Node27</title>
<path fill="none" stroke="#191970" d="M1093.5275,-168.3733C1073.9433,-159.3838 1044.5039,-145.8706 1022.449,-135.7471"/>
<polygon fill="#191970" stroke="#191970" points="1023.7473,-132.4919 1013.1989,-131.5011 1020.8271,-138.8538 1023.7473,-132.4919"/>
</g>
<!-- Node27&#45;&gt;Node7 -->
<g id="edge33" class="edge">
<title>Node27&#45;&gt;Node7</title>
<path fill="none" stroke="#191970" d="M936.8841,-119.3792C866.8472,-114.9578 751.8588,-103.6176 720.5,-76 707.4688,-64.5235 702.7836,-44.8675 701.1703,-29.9833"/>
<polygon fill="#191970" stroke="#191970" points="704.6432,-29.4748 700.4481,-19.7459 697.6606,-29.9675 704.6432,-29.4748"/>
</g>
<!-- Node27&#45;&gt;Node8 -->
<g id="edge34" class="edge">
<title>Node27&#45;&gt;Node8</title>
<path fill="none" stroke="#191970" d="M936.987,-118.1204C842.3722,-111.0963 653.9532,-95.2045 590.5,-76 571.8556,-70.3571 569.8278,-62.5991 551.5,-56 484.696,-31.9464 461.8694,-39.3935 389.9899,-20.1538"/>
<polygon fill="#191970" stroke="#191970" points="390.574,-16.6842 380.0031,-17.3957 388.7105,-23.4316 390.574,-16.6842"/>
</g>
<!-- Node27&#45;&gt;Node14 -->
<g id="edge37" class="edge">
<title>Node27&#45;&gt;Node14</title>
<path fill="none" stroke="#191970" d="M936.9401,-118.2366C853.9618,-112.1398 692.9139,-98.467 557.5,-76 556.051,-75.7596 554.5782,-75.5008 553.0929,-75.2275"/>
<polygon fill="#191970" stroke="#191970" points="553.7198,-71.7836 543.2279,-73.2567 552.3484,-78.648 553.7198,-71.7836"/>
</g>
<!-- Node27&#45;&gt;Node15 -->
<g id="edge54" class="edge">
<title>Node27&#45;&gt;Node15</title>
<path fill="none" stroke="#191970" d="M936.7259,-114.3381C875.4817,-105.75 774.2955,-91.0471 687.5,-76 686.0553,-75.7496 684.5886,-75.4906 683.1084,-75.2252"/>
<polygon fill="#191970" stroke="#191970" points="683.7046,-71.7762 673.2354,-73.4031 682.434,-78.66 683.7046,-71.7762"/>
</g>
<!-- Node27&#45;&gt;Node22 -->
<g id="edge31" class="edge">
<title>Node27&#45;&gt;Node22</title>
<path fill="none" stroke="#191970" d="M988.0833,-112.4862C982.4054,-98.6967 974.608,-72.9554 986.5,-56 991.9157,-48.2784 1040.6782,-32.0958 1076.169,-21.1356"/>
<polygon fill="#191970" stroke="#191970" points="1077.2423,-24.4674 1085.7802,-18.1941 1075.1937,-17.7739 1077.2423,-24.4674"/>
</g>
<!-- Node28 -->
<g id="node29" class="node">
<title>Node28</title>
<g id="a_node29"><a xlink:title=" ">
<polygon fill="#ffffff" stroke="#bfbfbf" points="830,-56.5 830,-75.5 939,-75.5 939,-56.5 830,-56.5"/>
<text text-anchor="middle" x="884.5" y="-63.5" font-family="Helvetica,sans-Serif" font-size="10.00" fill="#000000">QXmlStreamWriter</text>
</a>
</g>
</g>
<!-- Node27&#45;&gt;Node28 -->
<g id="edge30" class="edge">
<title>Node27&#45;&gt;Node28</title>
<path fill="none" stroke="#191970" d="M973.6878,-112.2455C956.6527,-103.4125 931.3425,-90.2887 912.0319,-80.2758"/>
<polygon fill="#191970" stroke="#191970" points="913.5853,-77.1388 903.0966,-75.6427 910.363,-83.353 913.5853,-77.1388"/>
</g>
<!-- Node29 -->
<g id="node30" class="node">
<title>Node29</title>
<g id="a_node30"><a xlink:title=" ">
<polygon fill="#ffffff" stroke="#bfbfbf" points="995.5,-56.5 995.5,-75.5 1039.5,-75.5 1039.5,-56.5 995.5,-56.5"/>
<text text-anchor="middle" x="1017.5" y="-63.5" font-family="Helvetica,sans-Serif" font-size="10.00" fill="#000000">QSize</text>
</a>
</g>
</g>
<!-- Node27&#45;&gt;Node29 -->
<g id="edge32" class="edge">
<title>Node27&#45;&gt;Node29</title>
<path fill="none" stroke="#191970" d="M996.8547,-112.2455C1000.2244,-104.6973 1004.993,-94.0158 1009.0983,-84.8197"/>
<polygon fill="#191970" stroke="#191970" points="1012.3147,-86.2009 1013.1952,-75.6427 1005.9227,-83.3473 1012.3147,-86.2009"/>
</g>
<!-- Node30 -->
<g id="node31" class="node">
<title>Node30</title>
<g id="a_node31"><a xlink:title=" ">
<polygon fill="#ffffff" stroke="#bfbfbf" points="1058,-56.5 1058,-75.5 1211,-75.5 1211,-56.5 1058,-56.5"/>
<text text-anchor="middle" x="1134.5" y="-63.5" font-family="Helvetica,sans-Serif" font-size="10.00" fill="#000000">QGraphicsSceneHoverEvent</text>
</a>
</g>
</g>
<!-- Node27&#45;&gt;Node30 -->
<g id="edge35" class="edge">
<title>Node27&#45;&gt;Node30</title>
<path fill="none" stroke="#191970" d="M1016.9107,-112.3733C1040.1142,-103.2226 1075.2038,-89.3844 1101.0142,-79.2057"/>
<polygon fill="#191970" stroke="#191970" points="1102.3892,-82.4258 1110.4079,-75.5011 1099.8211,-75.9139 1102.3892,-82.4258"/>
</g>
<!-- Node31 -->
<g id="node32" class="node">
<title>Node31</title>
<g id="a_node32"><a xlink:title=" ">
<polygon fill="#ffffff" stroke="#bfbfbf" points="1229,-56.5 1229,-75.5 1336,-75.5 1336,-56.5 1229,-56.5"/>
<text text-anchor="middle" x="1282.5" y="-63.5" font-family="Helvetica,sans-Serif" font-size="10.00" fill="#000000">QGraphicsSvgItem</text>
</a>
</g>
</g>
<!-- Node27&#45;&gt;Node31 -->
<g id="edge36" class="edge">
<title>Node27&#45;&gt;Node31</title>
<path fill="none" stroke="#191970" d="M1042.0233,-112.4369C1092.1759,-102.7522 1169.761,-87.7703 1223.1697,-77.4569"/>
<polygon fill="#191970" stroke="#191970" points="1224.026,-80.8563 1233.181,-75.5237 1222.6987,-73.9832 1224.026,-80.8563"/>
</g>
<!-- Node32 -->
<g id="node33" class="node">
<title>Node32</title>
<g id="a_node33"><a xlink:title=" ">
<polygon fill="#ffffff" stroke="#bfbfbf" points="1354.5,-56.5 1354.5,-75.5 1392.5,-75.5 1392.5,-56.5 1354.5,-56.5"/>
<text text-anchor="middle" x="1373.5" y="-63.5" font-family="Helvetica,sans-Serif" font-size="10.00" fill="#000000">QUrl</text>
</a>
</g>
</g>
<!-- Node27&#45;&gt;Node32 -->
<g id="edge38" class="edge">
<title>Node27&#45;&gt;Node32</title>
<path fill="none" stroke="#191970" d="M1048.154,-113.3319C1051.3146,-112.8727 1054.4468,-112.4256 1057.5,-112 1182.0169,-94.643 1218.1856,-105.2973 1344.3411,-75.8341"/>
<polygon fill="#191970" stroke="#191970" points="1345.4665,-79.1643 1354.3873,-73.4485 1343.8492,-72.3537 1345.4665,-79.1643"/>
</g>
<!-- Node33 -->
<g id="node34" class="node">
<title>Node33</title>
<g id="a_node34"><a xlink:title=" ">
<polygon fill="#ffffff" stroke="#bfbfbf" points="1411,-56.5 1411,-75.5 1456,-75.5 1456,-56.5 1411,-56.5"/>
<text text-anchor="middle" x="1433.5" y="-63.5" font-family="Helvetica,sans-Serif" font-size="10.00" fill="#000000">QMap</text>
</a>
</g>
</g>
<!-- Node27&#45;&gt;Node33 -->
<g id="edge39" class="edge">
<title>Node27&#45;&gt;Node33</title>
<path fill="none" stroke="#191970" d="M1048.1441,-113.2583C1051.3072,-112.8178 1054.4427,-112.3949 1057.5,-112 1206.6817,-92.7299 1249.1378,-106.4603 1400.7723,-75.7536"/>
<polygon fill="#191970" stroke="#191970" points="1401.8308,-79.1092 1410.9204,-73.6659 1400.4202,-72.2528 1401.8308,-79.1092"/>
</g>
<!-- Node34 -->
<g id="node35" class="node">
<title>Node34</title>
<g id="a_node35"><a xlink:title=" ">
<polygon fill="#ffffff" stroke="#bfbfbf" points="1474,-56.5 1474,-75.5 1527,-75.5 1527,-56.5 1474,-56.5"/>
<text text-anchor="middle" x="1500.5" y="-63.5" font-family="Helvetica,sans-Serif" font-size="10.00" fill="#000000">QTimer</text>
</a>
</g>
</g>
<!-- Node27&#45;&gt;Node34 -->
<g id="edge40" class="edge">
<title>Node27&#45;&gt;Node34</title>
<path fill="none" stroke="#191970" d="M1048.1367,-113.1986C1051.3017,-112.7733 1054.4396,-112.37 1057.5,-112 1234.9566,-90.5433 1284.719,-108.4814 1463.851,-76.0171"/>
<polygon fill="#191970" stroke="#191970" points="1464.6699,-79.4252 1473.8714,-74.1734 1463.4032,-72.5408 1464.6699,-79.4252"/>
</g>
<!-- Node27&#45;&gt;Node35 -->
<g id="edge41" class="edge">
<title>Node27&#45;&gt;Node35</title>
<path fill="none" stroke="#191970" d="M1048.1249,-113.095C1051.2929,-112.6961 1054.4347,-112.3269 1057.5,-112 1320.3331,-83.9713 1392.651,-118.2754 1657.4424,-75.8526"/>
<polygon fill="#191970" stroke="#191970" points="1658.0383,-79.3017 1667.3481,-74.2444 1656.9165,-72.3922 1658.0383,-79.3017"/>
</g>
<!-- Node36 -->
<g id="node37" class="node">
<title>Node36</title>
<g id="a_node37"><a xlink:href="../../db/d39/viewgeometry_8h.html" target="_top" xlink:title=" ">
<polygon fill="#ffffff" stroke="#000000" points="1545.5,-56.5 1545.5,-75.5 1649.5,-75.5 1649.5,-56.5 1545.5,-56.5"/>
<text text-anchor="middle" x="1597.5" y="-63.5" font-family="Helvetica,sans-Serif" font-size="10.00" fill="#000000">../viewgeometry.h</text>
</a>
</g>
</g>
<!-- Node27&#45;&gt;Node36 -->
<g id="edge42" class="edge">
<title>Node27&#45;&gt;Node36</title>
<path fill="none" stroke="#191970" d="M1048.131,-113.1508C1051.2975,-112.7377 1054.4372,-112.3502 1057.5,-112 1266.2934,-88.1293 1322.7601,-100.8788 1535.0702,-76.0755"/>
<polygon fill="#191970" stroke="#191970" points="1535.7796,-79.5161 1545.2992,-74.8657 1534.9573,-72.5645 1535.7796,-79.5161"/>
</g>
<!-- Node40 -->
<g id="node41" class="node">
<title>Node40</title>
<g id="a_node41"><a xlink:href="../../da/d85/viewlayer_8h.html" target="_top" xlink:title=" ">
<polygon fill="#ffffff" stroke="#000000" points="729.5,-56.5 729.5,-75.5 811.5,-75.5 811.5,-56.5 729.5,-56.5"/>
<text text-anchor="middle" x="770.5" y="-63.5" font-family="Helvetica,sans-Serif" font-size="10.00" fill="#000000">../viewlayer.h</text>
</a>
</g>
</g>
<!-- Node27&#45;&gt;Node40 -->
<g id="edge48" class="edge">
<title>Node27&#45;&gt;Node40</title>
<path fill="none" stroke="#191970" d="M954.5891,-112.4369C916.835,-102.9133 858.7735,-88.2672 817.9736,-77.9753"/>
<polygon fill="#191970" stroke="#191970" points="818.8069,-74.576 808.2546,-75.5237 817.0947,-81.3633 818.8069,-74.576"/>
</g>
<!-- Node36&#45;&gt;Node19 -->
<g id="edge44" class="edge">
<title>Node36&#45;&gt;Node19</title>
<path fill="none" stroke="#191970" d="M1545.3062,-57.0739C1542.3311,-56.6804 1539.38,-56.3181 1536.5,-56 1263.1847,-25.8099 1189.3917,-53.2063 912.612,-19.9844"/>
<polygon fill="#191970" stroke="#191970" points="913.0291,-16.5095 902.6798,-18.7769 912.1842,-23.4583 913.0291,-16.5095"/>
</g>
<!-- Node36&#45;&gt;Node22 -->
<g id="edge43" class="edge">
<title>Node36&#45;&gt;Node22</title>
<path fill="none" stroke="#191970" d="M1545.2846,-57.2492C1542.315,-56.811 1539.371,-56.3911 1536.5,-56 1394.8805,-36.7059 1225.7018,-20.3001 1151.5198,-13.438"/>
<polygon fill="#191970" stroke="#191970" points="1151.5574,-9.9268 1141.2787,-12.4956 1150.9159,-16.8973 1151.5574,-9.9268"/>
</g>
<!-- Node37 -->
<g id="node38" class="node">
<title>Node37</title>
<g id="a_node38"><a xlink:title=" ">
<polygon fill="#ffffff" stroke="#bfbfbf" points="1572.5,-.5 1572.5,-19.5 1622.5,-19.5 1622.5,-.5 1572.5,-.5"/>
<text text-anchor="middle" x="1597.5" y="-7.5" font-family="Helvetica,sans-Serif" font-size="10.00" fill="#000000">QLineF</text>
</a>
</g>
</g>
<!-- Node36&#45;&gt;Node37 -->
<g id="edge45" class="edge">
<title>Node36&#45;&gt;Node37</title>
<path fill="none" stroke="#191970" d="M1597.5,-56.2455C1597.5,-48.9382 1597.5,-38.6944 1597.5,-29.7046"/>
<polygon fill="#191970" stroke="#191970" points="1601.0001,-29.6426 1597.5,-19.6427 1594.0001,-29.6427 1601.0001,-29.6426"/>
</g>
<!-- Node38 -->
<g id="node39" class="node">
<title>Node38</title>
<g id="a_node39"><a xlink:title=" ">
<polygon fill="#ffffff" stroke="#bfbfbf" points="1640.5,-.5 1640.5,-19.5 1692.5,-19.5 1692.5,-.5 1640.5,-.5"/>
<text text-anchor="middle" x="1666.5" y="-7.5" font-family="Helvetica,sans-Serif" font-size="10.00" fill="#000000">QRectF</text>
</a>
</g>
</g>
<!-- Node36&#45;&gt;Node38 -->
<g id="edge46" class="edge">
<title>Node36&#45;&gt;Node38</title>
<path fill="none" stroke="#191970" d="M1609.5189,-56.2455C1619.7098,-47.9746 1634.5362,-35.9416 1646.5107,-26.2232"/>
<polygon fill="#191970" stroke="#191970" points="1649.0598,-28.662 1654.6188,-19.6427 1644.6486,-23.2268 1649.0598,-28.662"/>
</g>
<!-- Node39 -->
<g id="node40" class="node">
<title>Node39</title>
<g id="a_node40"><a xlink:title=" ">
<polygon fill="#ffffff" stroke="#bfbfbf" points="1481,-.5 1481,-19.5 1554,-19.5 1554,-.5 1481,-.5"/>
<text text-anchor="middle" x="1517.5" y="-7.5" font-family="Helvetica,sans-Serif" font-size="10.00" fill="#000000">QTransform</text>
</a>
</g>
</g>
<!-- Node36&#45;&gt;Node39 -->
<g id="edge47" class="edge">
<title>Node36&#45;&gt;Node39</title>
<path fill="none" stroke="#191970" d="M1583.5651,-56.2455C1571.4053,-47.7337 1553.5536,-35.2375 1539.4715,-25.3801"/>
<polygon fill="#191970" stroke="#191970" points="1541.4747,-22.51 1531.2752,-19.6427 1537.4605,-28.2447 1541.4747,-22.51"/>
</g>
<!-- Node40&#45;&gt;Node7 -->
<g id="edge51" class="edge">
<title>Node40&#45;&gt;Node7</title>
<path fill="none" stroke="#191970" d="M758.3069,-56.2455C747.8679,-47.8943 732.6345,-35.7076 720.426,-25.9408"/>
<polygon fill="#191970" stroke="#191970" points="722.5485,-23.1566 712.5533,-19.6427 718.1756,-28.6227 722.5485,-23.1566"/>
</g>
<!-- Node40&#45;&gt;Node17 -->
<g id="edge49" class="edge">
<title>Node40&#45;&gt;Node17</title>
<path fill="none" stroke="#191970" d="M770.3258,-56.2455C770.1953,-48.9382 770.0124,-38.6944 769.8519,-29.7046"/>
<polygon fill="#191970" stroke="#191970" points="773.3503,-29.5786 769.6722,-19.6427 766.3514,-29.7036 773.3503,-29.5786"/>
</g>
<!-- Node40&#45;&gt;Node19 -->
<g id="edge53" class="edge">
<title>Node40&#45;&gt;Node19</title>
<path fill="none" stroke="#191970" d="M785.8284,-56.2455C799.3303,-47.6534 819.2122,-35.0014 834.7686,-25.1018"/>
<polygon fill="#191970" stroke="#191970" points="836.7897,-27.9643 843.3472,-19.6427 833.0315,-22.0587 836.7897,-27.9643"/>
</g>
<!-- Node41 -->
<g id="node42" class="node">
<title>Node41</title>
<g id="a_node42"><a xlink:title=" ">
<polygon fill="#ffffff" stroke="#bfbfbf" points="1013,-.5 1013,-19.5 1068,-19.5 1068,-.5 1013,-.5"/>
<text text-anchor="middle" x="1040.5" y="-7.5" font-family="Helvetica,sans-Serif" font-size="10.00" fill="#000000">QAction</text>
</a>
</g>
</g>
<!-- Node40&#45;&gt;Node41 -->
<g id="edge50" class="edge">
<title>Node40&#45;&gt;Node41</title>
<path fill="none" stroke="#191970" d="M811.6987,-57.7496C814.6769,-57.1564 817.6345,-56.5684 820.5,-56 898.6319,-40.5017 921.0437,-38.9299 1002.4451,-20.1249"/>
<polygon fill="#191970" stroke="#191970" points="1003.7263,-23.4203 1012.6723,-17.7441 1002.1391,-16.6026 1003.7263,-23.4203"/>
</g>
<!-- Node42 -->
<g id="node43" class="node">
<title>Node42</title>
<g id="a_node43"><a xlink:title=" ">
<polygon fill="#ffffff" stroke="#bfbfbf" points="920.5,-.5 920.5,-19.5 994.5,-19.5 994.5,-.5 920.5,-.5"/>
<text text-anchor="middle" x="957.5" y="-7.5" font-family="Helvetica,sans-Serif" font-size="10.00" fill="#000000">QMultiHash</text>
</a>
</g>
</g>
<!-- Node40&#45;&gt;Node42 -->
<g id="edge52" class="edge">
<title>Node40&#45;&gt;Node42</title>
<path fill="none" stroke="#191970" d="M802.6464,-56.3733C834.0109,-46.9807 881.8665,-32.6496 916.0716,-22.4064"/>
<polygon fill="#191970" stroke="#191970" points="917.1975,-25.7229 925.773,-19.5011 915.1893,-19.0171 917.1975,-25.7229"/>
</g>
</g>
</svg>
        <g id="navigator" transform="translate(0 0)" fill="#404254">
                <rect fill="#f2f5e9" fill-opacity="0.5" stroke="#606060" stroke-width=".5" x="0" y="0" width="60" height="60"/>
                <use id="zoomplus" xlink:href="#zoomPlus" x="17" y="9" onmousedown="handleZoom(evt,'in')"/>
                <use id="zoomminus" xlink:href="#zoomMin" x="42" y="9" onmousedown="handleZoom(evt,'out')"/>
                <use id="reset" xlink:href="#resetDef" x="30" y="36" onmousedown="handleReset()"/>
                <g id="arrowUp" xlink:href="#dirArrow" transform="translate(30 24)" onmousedown="handlePan(0,-1)">
                  <use xlink:href="#rim" fill="#404040">
                        <set attributeName="fill" to="#808080" begin="arrowUp.mouseover" end="arrowUp.mouseout"/>
                  </use>
                  <path fill="none" stroke="white" stroke-width="1.5" d="M0,-3.0v7 M-2.5,-0.5L0,-3.0L2.5,-0.5"/>
                </g>
                <g id="arrowRight" xlink:href="#dirArrow" transform="rotate(90) translate(36 -43)" onmousedown="handlePan(1,0)">
                  <use xlink:href="#rim" fill="#404040">
                        <set attributeName="fill" to="#808080" begin="arrowRight.mouseover" end="arrowRight.mouseout"/>
                  </use>
                  <path fill="none" stroke="white" stroke-width="1.5" d="M0,-3.0v7 M-2.5,-0.5L0,-3.0L2.5,-0.5"/>
                </g>
                <g id="arrowDown" xlink:href="#dirArrow" transform="rotate(180) translate(-30 -48)" onmousedown="handlePan(0,1)">
                  <use xlink:href="#rim" fill="#404040">
                        <set attributeName="fill" to="#808080" begin="arrowDown.mouseover" end="arrowDown.mouseout"/>
                  </use>
                  <path fill="none" stroke="white" stroke-width="1.5" d="M0,-3.0v7 M-2.5,-0.5L0,-3.0L2.5,-0.5"/>
                </g>
                <g id="arrowLeft" xlink:href="#dirArrow" transform="rotate(270) translate(-36 17)" onmousedown="handlePan(-1,0)">
                  <use xlink:href="#rim" fill="#404040">
                        <set attributeName="fill" to="#808080" begin="arrowLeft.mouseover" end="arrowLeft.mouseout"/>
                  </use>
                  <path fill="none" stroke="white" stroke-width="1.5" d="M0,-3.0v7 M-2.5,-0.5L0,-3.0L2.5,-0.5"/>
                </g>
        </g>
        <svg viewBox="0 0 15 15" width="100%" height="30px" preserveAspectRatio="xMaxYMin meet">
         <g id="arrow_out" transform="scale(0.3 0.3)">
          <a xlink:href="resizehandle_8cpp__incl_org.svg" target="_base">
           <rect id="button" ry="5" rx="5" y="6" x="6" height="38" width="38"
                fill="#f2f5e9" fill-opacity="0.5" stroke="#606060" stroke-width="1.0"/>
           <path id="arrow"
             d="M 11.500037,31.436501 C 11.940474,20.09759 22.043105,11.32322 32.158766,21.979434 L 37.068811,17.246167 C 37.068811,17.246167 37.088388,32 37.088388,32 L 22.160133,31.978069 C 22.160133,31.978069 26.997745,27.140456 26.997745,27.140456 C 18.528582,18.264221 13.291696,25.230495 11.500037,31.436501 z"
             style="fill:#404040;"/>
          </a>
         </g>
        </svg>
</svg>
