<?xml version="1.0" encoding="UTF-8" standalone="no"?>
<!DOCTYPE svg PUBLIC "-//W3C//DTD SVG 1.1//EN"
 "http://www.w3.org/Graphics/SVG/1.1/DTD/svg11.dtd">
<!-- Generated by graphviz version 2.40.1 (0)
 -->
<!-- Title: SchematicSketchWidget::extraRenderSvgStep Pages: 1 -->
<!--zoomable 313 -->
<svg id="main" version="1.1" xmlns="http://www.w3.org/2000/svg" xmlns:xlink="http://www.w3.org/1999/xlink" xml:space="preserve" onload="init(evt)">
<style type="text/css"><![CDATA[
.edge:hover path { stroke: red; }
.edge:hover polygon { stroke: red; fill: red; }
]]></style>
<script type="text/javascript"><![CDATA[
var edges = document.getElementsByTagName('g');
if (edges && edges.length) {
  for (var i=0;i<edges.length;i++) {
    if (edges[i].id.substr(0,4)=='edge') {
      edges[i].setAttribute('class','edge');
    }
  }
}
]]></script>
        <defs>
                <circle id="rim" cx="0" cy="0" r="7"/>
                <circle id="rim2" cx="0" cy="0" r="3.5"/>
                <g id="zoomPlus">
                        <use xlink:href="#rim" fill="#404040">
                                <set attributeName="fill" to="#808080" begin="zoomplus.mouseover" end="zoomplus.mouseout"/>
                        </use>
                        <path d="M-4,0h8M0,-4v8" fill="none" stroke="white" stroke-width="1.5" pointer-events="none"/>
                </g>
                <g id="zoomMin">
                        <use xlink:href="#rim" fill="#404040">
                                <set attributeName="fill" to="#808080" begin="zoomminus.mouseover" end="zoomminus.mouseout"/>
                        </use>
                        <path d="M-4,0h8" fill="none" stroke="white" stroke-width="1.5" pointer-events="none"/>
                </g>
                <g id="dirArrow">
                        <path fill="none" stroke="white" stroke-width="1.5" d="M0,-3.0v7 M-2.5,-0.5L0,-3.0L2.5,-0.5"/>
                </g>
               <g id="resetDef">
                       <use xlink:href="#rim2" fill="#404040">
                               <set attributeName="fill" to="#808080" begin="reset.mouseover" end="reset.mouseout"/>
                       </use>
               </g>
        </defs>

<script type="text/javascript">
var viewWidth = 891;
var viewHeight = 313;
var sectionId = 'dynsection-13';
</script>
<script xlink:href="../../svgpan.js"/>
<svg id="graph" class="graph">
<g id="viewport">
<title>SchematicSketchWidget::extraRenderSvgStep</title>
<polygon fill="#ffffff" stroke="transparent" points="-4,4 -4,-309 887,-309 887,4 -4,4"/>
<!-- Node608 -->
<g id="node1" class="node">
<title>Node608</title>
<g id="a_node1"><a xlink:title=" ">
<polygon fill="#bfbfbf" stroke="#000000" points="0,-204 0,-234 134,-234 134,-204 0,-204"/>
<text text-anchor="start" x="8" y="-222" font-family="Helvetica,sans-Serif" font-size="10.00" fill="#000000">SchematicSketchWidget</text>
<text text-anchor="middle" x="67" y="-211" font-family="Helvetica,sans-Serif" font-size="10.00" fill="#000000">::extraRenderSvgStep</text>
</a>
</g>
</g>
<!-- Node609 -->
<g id="node2" class="node">
<title>Node609</title>
<g id="a_node2"><a xlink:href="../../d7/d64/classWire.html#a45f4d43eb8d9c12df32f8431b22ae04a" target="_top" xlink:title=" ">
<polygon fill="#ffffff" stroke="#000000" points="203.5,-285.5 203.5,-304.5 302.5,-304.5 302.5,-285.5 203.5,-285.5"/>
<text text-anchor="middle" x="253" y="-292.5" font-family="Helvetica,sans-Serif" font-size="10.00" fill="#000000">Wire::connector0</text>
</a>
</g>
</g>
<!-- Node608&#45;&gt;Node609 -->
<g id="edge1" class="edge">
<title>Node608&#45;&gt;Node609</title>
<path fill="none" stroke="#191970" d="M89.8191,-234.0846C110.1131,-246.89 140.9841,-264.9043 170,-276 177.4603,-278.8528 185.4688,-281.3478 193.4617,-283.5089"/>
<polygon fill="#191970" stroke="#191970" points="192.6112,-286.9039 203.1658,-285.981 194.3393,-280.1206 192.6112,-286.9039"/>
</g>
<!-- Node610 -->
<g id="node3" class="node">
<title>Node610</title>
<g id="a_node3"><a xlink:href="../../d7/d64/classWire.html#a866a8602d73cc8004d133cb8780048f3" target="_top" xlink:title=" ">
<polygon fill="#ffffff" stroke="#000000" points="203.5,-247.5 203.5,-266.5 302.5,-266.5 302.5,-247.5 203.5,-247.5"/>
<text text-anchor="middle" x="253" y="-254.5" font-family="Helvetica,sans-Serif" font-size="10.00" fill="#000000">Wire::connector1</text>
</a>
</g>
</g>
<!-- Node608&#45;&gt;Node610 -->
<g id="edge2" class="edge">
<title>Node608&#45;&gt;Node610</title>
<path fill="none" stroke="#191970" d="M134.1503,-232.7189C154.5309,-236.8827 176.7107,-241.414 196.3308,-245.4224"/>
<polygon fill="#191970" stroke="#191970" points="195.8362,-248.8936 206.3344,-247.4662 197.2374,-242.0353 195.8362,-248.8936"/>
</g>
<!-- Node611 -->
<g id="node4" class="node">
<title>Node611</title>
<g id="a_node4"><a xlink:href="../../dc/d3a/classConnectorItem.html#abdfd6f5e57534b3f700d3a3a2b8aad50" target="_top" xlink:title=" ">
<polygon fill="#ffffff" stroke="#000000" points="185,-209.5 185,-228.5 321,-228.5 321,-209.5 185,-209.5"/>
<text text-anchor="middle" x="253" y="-216.5" font-family="Helvetica,sans-Serif" font-size="10.00" fill="#000000">ConnectorItem::isBigDot</text>
</a>
</g>
</g>
<!-- Node608&#45;&gt;Node611 -->
<g id="edge3" class="edge">
<title>Node608&#45;&gt;Node611</title>
<path fill="none" stroke="#191970" d="M134.1503,-219C147.2518,-219 161.0968,-219 174.5273,-219"/>
<polygon fill="#191970" stroke="#191970" points="174.6978,-222.5001 184.6977,-219 174.6977,-215.5001 174.6978,-222.5001"/>
</g>
<!-- Node612 -->
<g id="node5" class="node">
<title>Node612</title>
<g id="a_node5"><a xlink:href="../../de/de6/classSchematicSketchWidget.html#ac07a839b2e09cc53177f4fa33911cc5f" target="_top" xlink:title=" ">
<polygon fill="#ffffff" stroke="#000000" points="186,-160 186,-190 320,-190 320,-160 186,-160"/>
<text text-anchor="start" x="194" y="-178" font-family="Helvetica,sans-Serif" font-size="10.00" fill="#000000">SchematicSketchWidget</text>
<text text-anchor="middle" x="253" y="-167" font-family="Helvetica,sans-Serif" font-size="10.00" fill="#000000">::makeCircleSVG</text>
</a>
</g>
</g>
<!-- Node608&#45;&gt;Node612 -->
<g id="edge4" class="edge">
<title>Node608&#45;&gt;Node612</title>
<path fill="none" stroke="#191970" d="M130.4904,-203.9808C146.2649,-200.2492 163.303,-196.2186 179.5129,-192.384"/>
<polygon fill="#191970" stroke="#191970" points="180.5545,-195.7343 189.4801,-190.0262 178.943,-188.9223 180.5545,-195.7343"/>
</g>
<!-- Node613 -->
<g id="node6" class="node">
<title>Node613</title>
<g id="a_node6"><a xlink:href="../../dc/d3a/classConnectorItem.html#a9db3e9a8e9a67433a39b3c12aa8fe442" target="_top" xlink:title=" ">
<polygon fill="#ffffff" stroke="#000000" points="170,-93 170,-123 336,-123 336,-93 170,-93"/>
<text text-anchor="start" x="178" y="-111" font-family="Helvetica,sans-Serif" font-size="10.00" fill="#000000">ConnectorItem::sceneAdjusted</text>
<text text-anchor="middle" x="253" y="-100" font-family="Helvetica,sans-Serif" font-size="10.00" fill="#000000">TerminalPoint</text>
</a>
</g>
</g>
<!-- Node608&#45;&gt;Node613 -->
<g id="edge5" class="edge">
<title>Node608&#45;&gt;Node613</title>
<path fill="none" stroke="#191970" d="M88.2807,-203.9969C108.8206,-189.7463 140.9871,-168.0286 170,-151 183.6461,-142.9907 198.9372,-134.8449 212.6409,-127.8283"/>
<polygon fill="#191970" stroke="#191970" points="214.4984,-130.8107 221.8346,-123.1667 211.3328,-124.5674 214.4984,-130.8107"/>
</g>
<!-- Node613&#45;&gt;Node613 -->
<g id="edge15" class="edge">
<title>Node613&#45;&gt;Node613</title>
<path fill="none" stroke="#191970" d="M220.5857,-123.159C212.7694,-132.5566 223.5742,-141.5 253,-141.5 270.9313,-141.5 281.948,-138.179 286.05,-133.4579"/>
<polygon fill="#191970" stroke="#191970" points="289.5238,-132.9244 285.4143,-123.159 282.5371,-133.3556 289.5238,-132.9244"/>
</g>
<!-- Node614 -->
<g id="node7" class="node">
<title>Node614</title>
<g id="a_node7"><a xlink:href="../../dc/d3a/classConnectorItem.html#aa279dff4c65b0bb8a48056347a1b2520" target="_top" xlink:title=" ">
<polygon fill="#ffffff" stroke="#000000" points="372,-203 372,-233 551,-233 551,-203 372,-203"/>
<text text-anchor="start" x="380" y="-221" font-family="Helvetica,sans-Serif" font-size="10.00" fill="#000000">ConnectorItem::adjustedTerminal</text>
<text text-anchor="middle" x="461.5" y="-210" font-family="Helvetica,sans-Serif" font-size="10.00" fill="#000000">Point</text>
</a>
</g>
</g>
<!-- Node613&#45;&gt;Node614 -->
<g id="edge6" class="edge">
<title>Node613&#45;&gt;Node614</title>
<path fill="none" stroke="#191970" d="M289.5437,-123.1871C304.7165,-130.415 322.0085,-139.9132 336,-151 355.2693,-166.2689 351.2655,-179.7893 372,-193 375.3484,-195.1334 378.88,-197.0876 382.5288,-198.8774"/>
<polygon fill="#191970" stroke="#191970" points="381.2425,-202.1357 391.8023,-202.9961 384.0838,-195.7383 381.2425,-202.1357"/>
</g>
<!-- Node617 -->
<g id="node10" class="node">
<title>Node617</title>
<g id="a_node10"><a xlink:href="../../dc/d09/classNonConnectorItem.html#a1452f3637c83b50fbd089f9c4b4518b6" target="_top" xlink:title=" ">
<polygon fill="#ffffff" stroke="#000000" points="378,-164.5 378,-183.5 545,-183.5 545,-164.5 378,-164.5"/>
<text text-anchor="middle" x="461.5" y="-171.5" font-family="Helvetica,sans-Serif" font-size="10.00" fill="#000000">NonConnectorItem::attachedTo</text>
</a>
</g>
</g>
<!-- Node613&#45;&gt;Node617 -->
<g id="edge9" class="edge">
<title>Node613&#45;&gt;Node617</title>
<path fill="none" stroke="#191970" d="M286.5787,-123.0053C310.1289,-133.0954 342.5436,-146.1241 372,-155 380.7119,-157.6251 390.0061,-160.0267 399.1858,-162.1734"/>
<polygon fill="#191970" stroke="#191970" points="398.5439,-165.6164 409.0688,-164.4012 400.0833,-158.7878 398.5439,-165.6164"/>
</g>
<!-- Node618 -->
<g id="node11" class="node">
<title>Node618</title>
<g id="a_node11"><a xlink:href="../../dc/d09/classNonConnectorItem.html#a9a1e80518fb866bab2bd1fa7fe0965db" target="_top" xlink:title=" ">
<polygon fill="#ffffff" stroke="#000000" points="383,-115 383,-145 540,-145 540,-115 383,-115"/>
<text text-anchor="start" x="391" y="-133" font-family="Helvetica,sans-Serif" font-size="10.00" fill="#000000">NonConnectorItem::attached</text>
<text text-anchor="middle" x="461.5" y="-122" font-family="Helvetica,sans-Serif" font-size="10.00" fill="#000000">ToItemType</text>
</a>
</g>
</g>
<!-- Node613&#45;&gt;Node618 -->
<g id="edge10" class="edge">
<title>Node613&#45;&gt;Node618</title>
<path fill="none" stroke="#191970" d="M336.0038,-116.7582C348.0698,-118.0313 360.5324,-119.3463 372.7073,-120.631"/>
<polygon fill="#191970" stroke="#191970" points="372.5394,-124.1326 382.8515,-121.7014 373.274,-117.1713 372.5394,-124.1326"/>
</g>
<!-- Node619 -->
<g id="node12" class="node">
<title>Node619</title>
<g id="a_node12"><a xlink:href="../../d7/dfe/classGraphicsUtils.html#a720808c811cf100be0758d271ba2afce" target="_top" xlink:title=" ">
<polygon fill="#ffffff" stroke="#000000" points="374.5,-76.5 374.5,-95.5 548.5,-95.5 548.5,-76.5 374.5,-76.5"/>
<text text-anchor="middle" x="461.5" y="-83.5" font-family="Helvetica,sans-Serif" font-size="10.00" fill="#000000">GraphicsUtils::distanceFromLine</text>
</a>
</g>
</g>
<!-- Node613&#45;&gt;Node619 -->
<g id="edge11" class="edge">
<title>Node613&#45;&gt;Node619</title>
<path fill="none" stroke="#191970" d="M336.0038,-99.2418C345.2609,-98.265 354.7514,-97.2636 364.1664,-96.2702"/>
<polygon fill="#191970" stroke="#191970" points="364.7609,-99.727 374.3384,-95.1969 364.0263,-92.7657 364.7609,-99.727"/>
</g>
<!-- Node620 -->
<g id="node13" class="node">
<title>Node620</title>
<g id="a_node13"><a xlink:href="../../d4/d4f/classItemBase.html#a7565ba05974fedf75bb75923b18bca1a" target="_top" xlink:title=" ">
<polygon fill="#ffffff" stroke="#000000" points="397.5,-38.5 397.5,-57.5 525.5,-57.5 525.5,-38.5 397.5,-38.5"/>
<text text-anchor="middle" x="461.5" y="-45.5" font-family="Helvetica,sans-Serif" font-size="10.00" fill="#000000">ItemBase::getRatsnest</text>
</a>
</g>
</g>
<!-- Node613&#45;&gt;Node620 -->
<g id="edge12" class="edge">
<title>Node613&#45;&gt;Node620</title>
<path fill="none" stroke="#191970" d="M292.8258,-92.9085C315.7617,-84.5638 345.2576,-74.4154 372,-67 381.3157,-64.4169 391.2603,-61.9881 401.0084,-59.7863"/>
<polygon fill="#191970" stroke="#191970" points="402.0455,-63.142 411.0611,-57.577 400.5429,-56.3052 402.0455,-63.142"/>
</g>
<!-- Node622 -->
<g id="node15" class="node">
<title>Node622</title>
<g id="a_node15"><a xlink:href="../../d7/d64/classWire.html#a45d0e341658a356ad227b1f5171cfa18" target="_top" xlink:title=" ">
<polygon fill="#ffffff" stroke="#000000" points="401.5,-.5 401.5,-19.5 521.5,-19.5 521.5,-.5 401.5,-.5"/>
<text text-anchor="middle" x="461.5" y="-7.5" font-family="Helvetica,sans-Serif" font-size="10.00" fill="#000000">Wire::otherConnector</text>
</a>
</g>
</g>
<!-- Node613&#45;&gt;Node622 -->
<g id="edge14" class="edge">
<title>Node613&#45;&gt;Node622</title>
<path fill="none" stroke="#191970" d="M271.1068,-92.7704C293.4094,-74.8051 333.1325,-45.3241 372,-29 378.199,-26.3964 384.795,-24.1344 391.487,-22.1721"/>
<polygon fill="#191970" stroke="#191970" points="392.5886,-25.5 401.3254,-19.5068 390.7581,-18.7435 392.5886,-25.5"/>
</g>
<!-- Node615 -->
<g id="node8" class="node">
<title>Node615</title>
<g id="a_node8"><a xlink:href="../../d7/d2d/classSvgIdLayer.html#acdaf551c0efe7ce5b7197185c60f7b64" target="_top" xlink:title=" ">
<polygon fill="#ffffff" stroke="#000000" points="616,-208.5 616,-227.5 711,-227.5 711,-208.5 616,-208.5"/>
<text text-anchor="middle" x="663.5" y="-215.5" font-family="Helvetica,sans-Serif" font-size="10.00" fill="#000000">SvgIdLayer::rect</text>
</a>
</g>
</g>
<!-- Node614&#45;&gt;Node615 -->
<g id="edge7" class="edge">
<title>Node614&#45;&gt;Node615</title>
<path fill="none" stroke="#191970" d="M551.2765,-218C569.6882,-218 588.6036,-218 605.5345,-218"/>
<polygon fill="#191970" stroke="#191970" points="605.7978,-221.5001 615.7977,-218 605.7977,-214.5001 605.7978,-221.5001"/>
</g>
<!-- Node616 -->
<g id="node9" class="node">
<title>Node616</title>
<g id="a_node9"><a xlink:href="../../d1/d88/classPointRect.html#a35106398b82d6e7cacb0c7754cdfa9b8" target="_top" xlink:title=" ">
<polygon fill="#ffffff" stroke="#000000" points="776,-208.5 776,-227.5 883,-227.5 883,-208.5 776,-208.5"/>
<text text-anchor="middle" x="829.5" y="-215.5" font-family="Helvetica,sans-Serif" font-size="10.00" fill="#000000">PointRect::getRect</text>
</a>
</g>
</g>
<!-- Node615&#45;&gt;Node616 -->
<g id="edge8" class="edge">
<title>Node615&#45;&gt;Node616</title>
<path fill="none" stroke="#191970" d="M711.0689,-218C728.0464,-218 747.4588,-218 765.5867,-218"/>
<polygon fill="#191970" stroke="#191970" points="765.7918,-221.5001 775.7917,-218 765.7917,-214.5001 765.7918,-221.5001"/>
</g>
<!-- Node621 -->
<g id="node14" class="node">
<title>Node621</title>
<g id="a_node14"><a xlink:href="../../d3/de8/classViewGeometry.html#a11ca759a75de95be900ac023617a1858" target="_top" xlink:title=" ">
<polygon fill="#ffffff" stroke="#000000" points="587,-38.5 587,-57.5 740,-57.5 740,-38.5 587,-38.5"/>
<text text-anchor="middle" x="663.5" y="-45.5" font-family="Helvetica,sans-Serif" font-size="10.00" fill="#000000">ViewGeometry::getRatsnest</text>
</a>
</g>
</g>
<!-- Node620&#45;&gt;Node621 -->
<g id="edge13" class="edge">
<title>Node620&#45;&gt;Node621</title>
<path fill="none" stroke="#191970" d="M525.6916,-48C541.9156,-48 559.6075,-48 576.7415,-48"/>
<polygon fill="#191970" stroke="#191970" points="576.7499,-51.5001 586.7499,-48 576.7498,-44.5001 576.7499,-51.5001"/>
</g>
</g>
</svg>
        <g id="navigator" transform="translate(0 0)" fill="#404254">
                <rect fill="#f2f5e9" fill-opacity="0.5" stroke="#606060" stroke-width=".5" x="0" y="0" width="60" height="60"/>
                <use id="zoomplus" xlink:href="#zoomPlus" x="17" y="9" onmousedown="handleZoom(evt,'in')"/>
                <use id="zoomminus" xlink:href="#zoomMin" x="42" y="9" onmousedown="handleZoom(evt,'out')"/>
                <use id="reset" xlink:href="#resetDef" x="30" y="36" onmousedown="handleReset()"/>
                <g id="arrowUp" xlink:href="#dirArrow" transform="translate(30 24)" onmousedown="handlePan(0,-1)">
                  <use xlink:href="#rim" fill="#404040">
                        <set attributeName="fill" to="#808080" begin="arrowUp.mouseover" end="arrowUp.mouseout"/>
                  </use>
                  <path fill="none" stroke="white" stroke-width="1.5" d="M0,-3.0v7 M-2.5,-0.5L0,-3.0L2.5,-0.5"/>
                </g>
                <g id="arrowRight" xlink:href="#dirArrow" transform="rotate(90) translate(36 -43)" onmousedown="handlePan(1,0)">
                  <use xlink:href="#rim" fill="#404040">
                        <set attributeName="fill" to="#808080" begin="arrowRight.mouseover" end="arrowRight.mouseout"/>
                  </use>
                  <path fill="none" stroke="white" stroke-width="1.5" d="M0,-3.0v7 M-2.5,-0.5L0,-3.0L2.5,-0.5"/>
                </g>
                <g id="arrowDown" xlink:href="#dirArrow" transform="rotate(180) translate(-30 -48)" onmousedown="handlePan(0,1)">
                  <use xlink:href="#rim" fill="#404040">
                        <set attributeName="fill" to="#808080" begin="arrowDown.mouseover" end="arrowDown.mouseout"/>
                  </use>
                  <path fill="none" stroke="white" stroke-width="1.5" d="M0,-3.0v7 M-2.5,-0.5L0,-3.0L2.5,-0.5"/>
                </g>
                <g id="arrowLeft" xlink:href="#dirArrow" transform="rotate(270) translate(-36 17)" onmousedown="handlePan(-1,0)">
                  <use xlink:href="#rim" fill="#404040">
                        <set attributeName="fill" to="#808080" begin="arrowLeft.mouseover" end="arrowLeft.mouseout"/>
                  </use>
                  <path fill="none" stroke="white" stroke-width="1.5" d="M0,-3.0v7 M-2.5,-0.5L0,-3.0L2.5,-0.5"/>
                </g>
        </g>
        <svg viewBox="0 0 15 15" width="100%" height="30px" preserveAspectRatio="xMaxYMin meet">
         <g id="arrow_out" transform="scale(0.3 0.3)">
          <a xlink:href="classSchematicSketchWidget_a4e37461100f61c81e9c0974f473ed755_cgraph_org.svg" target="_base">
           <rect id="button" ry="5" rx="5" y="6" x="6" height="38" width="38"
                fill="#f2f5e9" fill-opacity="0.5" stroke="#606060" stroke-width="1.0"/>
           <path id="arrow"
             d="M 11.500037,31.436501 C 11.940474,20.09759 22.043105,11.32322 32.158766,21.979434 L 37.068811,17.246167 C 37.068811,17.246167 37.088388,32 37.088388,32 L 22.160133,31.978069 C 22.160133,31.978069 26.997745,27.140456 26.997745,27.140456 C 18.528582,18.264221 13.291696,25.230495 11.500037,31.436501 z"
             style="fill:#404040;"/>
          </a>
         </g>
        </svg>
</svg>
