<?xml version="1.0" encoding="UTF-8" standalone="no"?>
<!DOCTYPE svg PUBLIC "-//W3C//DTD SVG 1.1//EN"
 "http://www.w3.org/Graphics/SVG/1.1/DTD/svg11.dtd">
<!-- Generated by graphviz version 2.40.1 (0)
 -->
<!-- Title: SchematicSketchWidget::getAutorouterSettings Pages: 1 -->
<svg width="335pt" height="39pt"
 viewBox="0.00 0.00 335.00 39.00" xmlns="http://www.w3.org/2000/svg" xmlns:xlink="http://www.w3.org/1999/xlink">
<g id="graph0" class="graph" transform="scale(1 1) rotate(0) translate(4 35)">
<title>SchematicSketchWidget::getAutorouterSettings</title>
<polygon fill="#ffffff" stroke="transparent" points="-4,4 -4,-35 331,-35 331,4 -4,4"/>
<!-- Node626 -->
<g id="node1" class="node">
<title>Node626</title>
<g id="a_node1"><a xlink:title=" ">
<polygon fill="#bfbfbf" stroke="#000000" points="0,-.5 0,-30.5 134,-30.5 134,-.5 0,-.5"/>
<text text-anchor="start" x="8" y="-18.5" font-family="Helvetica,sans-Serif" font-size="10.00" fill="#000000">SchematicSketchWidget</text>
<text text-anchor="middle" x="67" y="-7.5" font-family="Helvetica,sans-Serif" font-size="10.00" fill="#000000">::getAutorouterSettings</text>
</a>
</g>
</g>
<!-- Node627 -->
<g id="node2" class="node">
<title>Node627</title>
<g id="a_node2"><a xlink:href="../../d8/d37/classSketchWidget.html#a39fb9d1da8e7a9fb7f7630e9a8faa77c" target="_top" xlink:title=" ">
<polygon fill="#ffffff" stroke="#000000" points="170,-.5 170,-30.5 327,-30.5 327,-.5 170,-.5"/>
<text text-anchor="start" x="178" y="-18.5" font-family="Helvetica,sans-Serif" font-size="10.00" fill="#000000">SketchWidget::getAutorouter</text>
<text text-anchor="middle" x="248.5" y="-7.5" font-family="Helvetica,sans-Serif" font-size="10.00" fill="#000000">Settings</text>
</a>
</g>
</g>
<!-- Node626&#45;&gt;Node627 -->
<g id="edge1" class="edge">
<title>Node626&#45;&gt;Node627</title>
<path fill="none" stroke="#191970" d="M134.0682,-15.5C142.415,-15.5 151.0491,-15.5 159.6603,-15.5"/>
<polygon fill="#191970" stroke="#191970" points="159.74,-19.0001 169.74,-15.5 159.7399,-12.0001 159.74,-19.0001"/>
</g>
</g>
</svg>
