<?xml version="1.0" encoding="UTF-8" standalone="no"?>
<!DOCTYPE svg PUBLIC "-//W3C//DTD SVG 1.1//EN"
 "http://www.w3.org/Graphics/SVG/1.1/DTD/svg11.dtd">
<!-- Generated by graphviz version 2.40.1 (0)
 -->
<!-- Title: SchematicSketchWidget::getViewLayerPlacement Pages: 1 -->
<!--zoomable 193 -->
<svg id="main" version="1.1" xmlns="http://www.w3.org/2000/svg" xmlns:xlink="http://www.w3.org/1999/xlink" xml:space="preserve" onload="init(evt)">
<style type="text/css"><![CDATA[
.edge:hover path { stroke: red; }
.edge:hover polygon { stroke: red; fill: red; }
]]></style>
<script type="text/javascript"><![CDATA[
var edges = document.getElementsByTagName('g');
if (edges && edges.length) {
  for (var i=0;i<edges.length;i++) {
    if (edges[i].id.substr(0,4)=='edge') {
      edges[i].setAttribute('class','edge');
    }
  }
}
]]></script>
        <defs>
                <circle id="rim" cx="0" cy="0" r="7"/>
                <circle id="rim2" cx="0" cy="0" r="3.5"/>
                <g id="zoomPlus">
                        <use xlink:href="#rim" fill="#404040">
                                <set attributeName="fill" to="#808080" begin="zoomplus.mouseover" end="zoomplus.mouseout"/>
                        </use>
                        <path d="M-4,0h8M0,-4v8" fill="none" stroke="white" stroke-width="1.5" pointer-events="none"/>
                </g>
                <g id="zoomMin">
                        <use xlink:href="#rim" fill="#404040">
                                <set attributeName="fill" to="#808080" begin="zoomminus.mouseover" end="zoomminus.mouseout"/>
                        </use>
                        <path d="M-4,0h8" fill="none" stroke="white" stroke-width="1.5" pointer-events="none"/>
                </g>
                <g id="dirArrow">
                        <path fill="none" stroke="white" stroke-width="1.5" d="M0,-3.0v7 M-2.5,-0.5L0,-3.0L2.5,-0.5"/>
                </g>
               <g id="resetDef">
                       <use xlink:href="#rim2" fill="#404040">
                               <set attributeName="fill" to="#808080" begin="reset.mouseover" end="reset.mouseout"/>
                       </use>
               </g>
        </defs>

<script type="text/javascript">
var viewWidth = 733;
var viewHeight = 193;
var sectionId = 'dynsection-20';
</script>
<script xlink:href="../../svgpan.js"/>
<svg id="graph" class="graph">
<g id="viewport">
<title>SchematicSketchWidget::getViewLayerPlacement</title>
<polygon fill="#ffffff" stroke="transparent" points="-4,4 -4,-189 729,-189 729,4 -4,4"/>
<!-- Node658 -->
<g id="node1" class="node">
<title>Node658</title>
<g id="a_node1"><a xlink:title=" ">
<polygon fill="#bfbfbf" stroke="#000000" points="0,-88.5 0,-118.5 141,-118.5 141,-88.5 0,-88.5"/>
<text text-anchor="start" x="8" y="-106.5" font-family="Helvetica,sans-Serif" font-size="10.00" fill="#000000">SchematicSketchWidget</text>
<text text-anchor="middle" x="70.5" y="-95.5" font-family="Helvetica,sans-Serif" font-size="10.00" fill="#000000">::getViewLayerPlacement</text>
</a>
</g>
</g>
<!-- Node659 -->
<g id="node2" class="node">
<title>Node659</title>
<g id="a_node2"><a xlink:href="../../d8/d37/classSketchWidget.html#ac38699f759e4e634bcf6d0ecb1a54c8e" target="_top" xlink:title=" ">
<polygon fill="#ffffff" stroke="#000000" points="177,-88.5 177,-118.5 333,-118.5 333,-88.5 177,-88.5"/>
<text text-anchor="start" x="185" y="-106.5" font-family="Helvetica,sans-Serif" font-size="10.00" fill="#000000">SketchWidget::getViewLayer</text>
<text text-anchor="middle" x="255" y="-95.5" font-family="Helvetica,sans-Serif" font-size="10.00" fill="#000000">Placement</text>
</a>
</g>
</g>
<!-- Node658&#45;&gt;Node659 -->
<g id="edge1" class="edge">
<title>Node658&#45;&gt;Node659</title>
<path fill="none" stroke="#191970" d="M141.0413,-103.5C149.4498,-103.5 158.1134,-103.5 166.7306,-103.5"/>
<polygon fill="#191970" stroke="#191970" points="166.8071,-107.0001 176.8071,-103.5 166.8071,-100.0001 166.8071,-107.0001"/>
</g>
<!-- Node660 -->
<g id="node3" class="node">
<title>Node660</title>
<g id="a_node3"><a xlink:href="../../d8/d37/classSketchWidget.html#a4bd1bf56c63b9d9921bf28ed9e62113f" target="_top" xlink:title=" ">
<polygon fill="#ffffff" stroke="#000000" points="374.5,-154.5 374.5,-184.5 522.5,-184.5 522.5,-154.5 374.5,-154.5"/>
<text text-anchor="start" x="382.5" y="-172.5" font-family="Helvetica,sans-Serif" font-size="10.00" fill="#000000">SketchWidget::defaultView</text>
<text text-anchor="middle" x="448.5" y="-161.5" font-family="Helvetica,sans-Serif" font-size="10.00" fill="#000000">LayerPlacement</text>
</a>
</g>
</g>
<!-- Node659&#45;&gt;Node660 -->
<g id="edge2" class="edge">
<title>Node659&#45;&gt;Node660</title>
<path fill="none" stroke="#191970" d="M295.4863,-118.5124C317.2091,-126.4529 344.4837,-136.2404 369,-144.5 375.787,-146.7866 382.9217,-149.1236 390.0159,-151.406"/>
<polygon fill="#191970" stroke="#191970" points="389.0374,-154.7676 399.6282,-154.4748 391.1664,-148.0992 389.0374,-154.7676"/>
</g>
<!-- Node661 -->
<g id="node4" class="node">
<title>Node661</title>
<g id="a_node4"><a xlink:href="../../d4/d72/classModelPart.html#affa1c5cf5ca90387b030ec2f8311823f" target="_top" xlink:title=" ">
<polygon fill="#ffffff" stroke="#000000" points="389,-116 389,-135 508,-135 508,-116 389,-116"/>
<text text-anchor="middle" x="448.5" y="-123" font-family="Helvetica,sans-Serif" font-size="10.00" fill="#000000">ModelPart::moduleID</text>
</a>
</g>
</g>
<!-- Node659&#45;&gt;Node661 -->
<g id="edge3" class="edge">
<title>Node659&#45;&gt;Node661</title>
<path fill="none" stroke="#191970" d="M333.1461,-112.3848C348.2305,-114.0999 363.9419,-115.8862 378.738,-117.5684"/>
<polygon fill="#191970" stroke="#191970" points="378.4848,-121.0621 388.8162,-118.7142 379.2757,-114.1069 378.4848,-121.0621"/>
</g>
<!-- Node662 -->
<g id="node5" class="node">
<title>Node662</title>
<g id="a_node5"><a xlink:href="../../d5/d9d/classViewLayer.html#a67cd0fff01dcc8e00d889173e65403fd" target="_top" xlink:title=" ">
<polygon fill="#ffffff" stroke="#000000" points="369,-66.5 369,-96.5 528,-96.5 528,-66.5 369,-66.5"/>
<text text-anchor="start" x="377" y="-84.5" font-family="Helvetica,sans-Serif" font-size="10.00" fill="#000000">ViewLayer::viewLayerIDFrom</text>
<text text-anchor="middle" x="448.5" y="-73.5" font-family="Helvetica,sans-Serif" font-size="10.00" fill="#000000">XmlString</text>
</a>
</g>
</g>
<!-- Node659&#45;&gt;Node662 -->
<g id="edge4" class="edge">
<title>Node659&#45;&gt;Node662</title>
<path fill="none" stroke="#191970" d="M333.1461,-94.6152C341.5897,-93.6552 350.2298,-92.6728 358.7958,-91.6989"/>
<polygon fill="#191970" stroke="#191970" points="359.2607,-95.1687 368.8013,-90.5614 358.4699,-88.2135 359.2607,-95.1687"/>
</g>
<!-- Node663 -->
<g id="node6" class="node">
<title>Node663</title>
<g id="a_node6"><a xlink:href="../../d3/de8/classViewGeometry.html#a0e0483df543b8ef0232569383ecb63f7" target="_top" xlink:title=" ">
<polygon fill="#ffffff" stroke="#000000" points="371,-28 371,-47 526,-47 526,-28 371,-28"/>
<text text-anchor="middle" x="448.5" y="-35" font-family="Helvetica,sans-Serif" font-size="10.00" fill="#000000">ViewGeometry::getAnyTrace</text>
</a>
</g>
</g>
<!-- Node659&#45;&gt;Node663 -->
<g id="edge5" class="edge">
<title>Node659&#45;&gt;Node663</title>
<path fill="none" stroke="#191970" d="M288.9689,-88.3673C311.4014,-78.7303 341.6057,-66.4262 369,-57.5 377.745,-54.6505 387.1411,-51.9652 396.3022,-49.5426"/>
<polygon fill="#191970" stroke="#191970" points="397.2951,-52.9013 406.1089,-47.0218 395.5523,-46.1217 397.2951,-52.9013"/>
</g>
<!-- Node664 -->
<g id="node7" class="node">
<title>Node664</title>
<g id="a_node7"><a xlink:href="../../d3/de8/classViewGeometry.html#a36bf8fa6c0bfb1e2af0bb3c4fcb5fdd2" target="_top" xlink:title=" ">
<polygon fill="#ffffff" stroke="#000000" points="567,-50 567,-69 722,-69 722,-50 567,-50"/>
<text text-anchor="middle" x="644.5" y="-57" font-family="Helvetica,sans-Serif" font-size="10.00" fill="#000000">ViewGeometry::getPCBTrace</text>
</a>
</g>
</g>
<!-- Node663&#45;&gt;Node664 -->
<g id="edge6" class="edge">
<title>Node663&#45;&gt;Node664</title>
<path fill="none" stroke="#191970" d="M526.2459,-46.2266C536.2658,-47.3513 546.5811,-48.5091 556.7476,-49.6502"/>
<polygon fill="#191970" stroke="#191970" points="556.5201,-53.1466 566.8481,-50.784 557.301,-46.1903 556.5201,-53.1466"/>
</g>
<!-- Node665 -->
<g id="node8" class="node">
<title>Node665</title>
<g id="a_node8"><a xlink:href="../../d3/de8/classViewGeometry.html#a972ab74ff22c5c3d4cb4e587cb8d59fd" target="_top" xlink:title=" ">
<polygon fill="#ffffff" stroke="#000000" points="564,-.5 564,-30.5 725,-30.5 725,-.5 564,-.5"/>
<text text-anchor="start" x="572" y="-18.5" font-family="Helvetica,sans-Serif" font-size="10.00" fill="#000000">ViewGeometry::getSchematic</text>
<text text-anchor="middle" x="644.5" y="-7.5" font-family="Helvetica,sans-Serif" font-size="10.00" fill="#000000">Trace</text>
</a>
</g>
</g>
<!-- Node663&#45;&gt;Node665 -->
<g id="edge7" class="edge">
<title>Node663&#45;&gt;Node665</title>
<path fill="none" stroke="#191970" d="M526.2459,-28.7734C535.3506,-27.7515 544.6993,-26.7021 553.9586,-25.6628"/>
<polygon fill="#191970" stroke="#191970" points="554.408,-29.1344 563.9551,-24.5408 553.6271,-22.1781 554.408,-29.1344"/>
</g>
</g>
</svg>
        <g id="navigator" transform="translate(0 0)" fill="#404254">
                <rect fill="#f2f5e9" fill-opacity="0.5" stroke="#606060" stroke-width=".5" x="0" y="0" width="60" height="60"/>
                <use id="zoomplus" xlink:href="#zoomPlus" x="17" y="9" onmousedown="handleZoom(evt,'in')"/>
                <use id="zoomminus" xlink:href="#zoomMin" x="42" y="9" onmousedown="handleZoom(evt,'out')"/>
                <use id="reset" xlink:href="#resetDef" x="30" y="36" onmousedown="handleReset()"/>
                <g id="arrowUp" xlink:href="#dirArrow" transform="translate(30 24)" onmousedown="handlePan(0,-1)">
                  <use xlink:href="#rim" fill="#404040">
                        <set attributeName="fill" to="#808080" begin="arrowUp.mouseover" end="arrowUp.mouseout"/>
                  </use>
                  <path fill="none" stroke="white" stroke-width="1.5" d="M0,-3.0v7 M-2.5,-0.5L0,-3.0L2.5,-0.5"/>
                </g>
                <g id="arrowRight" xlink:href="#dirArrow" transform="rotate(90) translate(36 -43)" onmousedown="handlePan(1,0)">
                  <use xlink:href="#rim" fill="#404040">
                        <set attributeName="fill" to="#808080" begin="arrowRight.mouseover" end="arrowRight.mouseout"/>
                  </use>
                  <path fill="none" stroke="white" stroke-width="1.5" d="M0,-3.0v7 M-2.5,-0.5L0,-3.0L2.5,-0.5"/>
                </g>
                <g id="arrowDown" xlink:href="#dirArrow" transform="rotate(180) translate(-30 -48)" onmousedown="handlePan(0,1)">
                  <use xlink:href="#rim" fill="#404040">
                        <set attributeName="fill" to="#808080" begin="arrowDown.mouseover" end="arrowDown.mouseout"/>
                  </use>
                  <path fill="none" stroke="white" stroke-width="1.5" d="M0,-3.0v7 M-2.5,-0.5L0,-3.0L2.5,-0.5"/>
                </g>
                <g id="arrowLeft" xlink:href="#dirArrow" transform="rotate(270) translate(-36 17)" onmousedown="handlePan(-1,0)">
                  <use xlink:href="#rim" fill="#404040">
                        <set attributeName="fill" to="#808080" begin="arrowLeft.mouseover" end="arrowLeft.mouseout"/>
                  </use>
                  <path fill="none" stroke="white" stroke-width="1.5" d="M0,-3.0v7 M-2.5,-0.5L0,-3.0L2.5,-0.5"/>
                </g>
        </g>
        <svg viewBox="0 0 15 15" width="100%" height="30px" preserveAspectRatio="xMaxYMin meet">
         <g id="arrow_out" transform="scale(0.3 0.3)">
          <a xlink:href="classSchematicSketchWidget_aec487640a681728064ffb305a675606a_cgraph_org.svg" target="_base">
           <rect id="button" ry="5" rx="5" y="6" x="6" height="38" width="38"
                fill="#f2f5e9" fill-opacity="0.5" stroke="#606060" stroke-width="1.0"/>
           <path id="arrow"
             d="M 11.500037,31.436501 C 11.940474,20.09759 22.043105,11.32322 32.158766,21.979434 L 37.068811,17.246167 C 37.068811,17.246167 37.088388,32 37.088388,32 L 22.160133,31.978069 C 22.160133,31.978069 26.997745,27.140456 26.997745,27.140456 C 18.528582,18.264221 13.291696,25.230495 11.500037,31.436501 z"
             style="fill:#404040;"/>
          </a>
         </g>
        </svg>
</svg>
