<?xml version="1.0" encoding="UTF-8" standalone="no"?>
<!DOCTYPE svg PUBLIC "-//W3C//DTD SVG 1.1//EN"
 "http://www.w3.org/Graphics/SVG/1.1/DTD/svg11.dtd">
<!-- Generated by graphviz version 2.40.1 (0)
 -->
<!-- Title: SchematicRectConstants::genSchematicDIP Pages: 1 -->
<svg width="485pt" height="203pt"
 viewBox="0.00 0.00 485.00 203.33" xmlns="http://www.w3.org/2000/svg" xmlns:xlink="http://www.w3.org/1999/xlink">
<g id="graph0" class="graph" transform="scale(1 1) rotate(0) translate(4 199.3324)">
<title>SchematicRectConstants::genSchematicDIP</title>
<polygon fill="#ffffff" stroke="transparent" points="-4,4 -4,-199.3324 481,-199.3324 481,4 -4,4"/>
<!-- Node0 -->
<g id="node1" class="node">
<title>Node0</title>
<g id="a_node1"><a xlink:title=" ">
<polygon fill="#bfbfbf" stroke="#000000" points="0,-90 0,-120 138,-120 138,-90 0,-90"/>
<text text-anchor="start" x="8" y="-108" font-family="Helvetica,sans-Serif" font-size="10.00" fill="#000000">SchematicRectConstants</text>
<text text-anchor="middle" x="69" y="-97" font-family="Helvetica,sans-Serif" font-size="10.00" fill="#000000">::genSchematicDIP</text>
</a>
</g>
</g>
<!-- Node1 -->
<g id="node2" class="node">
<title>Node1</title>
<g id="a_node2"><a xlink:href="../../de/db8/classTextUtils.html#a8330785617dee0cc6461a1b595d98c64" target="_top" xlink:title=" ">
<polygon fill="#ffffff" stroke="#000000" points="358,-114.5 358,-133.5 477,-133.5 477,-114.5 358,-114.5"/>
<text text-anchor="middle" x="417.5" y="-121.5" font-family="Helvetica,sans-Serif" font-size="10.00" fill="#000000">TextUtils::escapeAnd</text>
</a>
</g>
</g>
<!-- Node0&#45;&gt;Node1 -->
<g id="edge1" class="edge">
<title>Node0&#45;&gt;Node1</title>
<path fill="none" stroke="#191970" d="M83.2756,-120.0032C102.0331,-138.513 136.964,-169.0029 174,-181 236.5766,-201.2704 258.5887,-198.485 322,-181 350.7933,-173.0606 379.6586,-153.9043 397.9959,-139.9855"/>
<polygon fill="#191970" stroke="#191970" points="400.3832,-142.5619 406.1058,-133.6455 396.0718,-137.0471 400.3832,-142.5619"/>
</g>
<!-- Node2 -->
<g id="node3" class="node">
<title>Node2</title>
<g id="a_node3"><a xlink:href="../../de/db8/classTextUtils.html#a03d0e650ce39fc4d7a265d71c5b869d9" target="_top" xlink:title=" ">
<polygon fill="#ffffff" stroke="#000000" points="174,-152.5 174,-171.5 322,-171.5 322,-152.5 174,-152.5"/>
<text text-anchor="middle" x="248" y="-159.5" font-family="Helvetica,sans-Serif" font-size="10.00" fill="#000000">TextUtils::makeSVGHeader</text>
</a>
</g>
</g>
<!-- Node0&#45;&gt;Node2 -->
<g id="edge2" class="edge">
<title>Node0&#45;&gt;Node2</title>
<path fill="none" stroke="#191970" d="M108.0882,-120.1567C127.7175,-127.509 151.9559,-136.1982 174,-143 181.7492,-145.391 190.0178,-147.7237 198.1158,-149.8895"/>
<polygon fill="#191970" stroke="#191970" points="197.3021,-153.2944 207.8625,-152.4413 199.0751,-146.5226 197.3021,-153.2944"/>
</g>
<!-- Node3 -->
<g id="node4" class="node">
<title>Node3</title>
<g id="a_node4"><a xlink:href="../../d4/d08/misc_8h.html#ae7cc352fa1dc81e57ff53ebbc762f27d" target="_top" xlink:title=" ">
<polygon fill="#ffffff" stroke="#000000" points="226,-114.5 226,-133.5 270,-133.5 270,-114.5 226,-114.5"/>
<text text-anchor="middle" x="248" y="-121.5" font-family="Helvetica,sans-Serif" font-size="10.00" fill="#000000">qMax</text>
</a>
</g>
</g>
<!-- Node0&#45;&gt;Node3 -->
<g id="edge3" class="edge">
<title>Node0&#45;&gt;Node3</title>
<path fill="none" stroke="#191970" d="M138.2061,-112.3459C164.801,-115.1688 193.9195,-118.2596 215.4829,-120.5485"/>
<polygon fill="#191970" stroke="#191970" points="215.4032,-124.0596 225.7168,-121.6347 216.1421,-117.0987 215.4032,-124.0596"/>
</g>
<!-- Node4 -->
<g id="node5" class="node">
<title>Node4</title>
<g id="a_node5"><a xlink:href="../../d3/d61/schematicrectconstants_8cpp.html#afa5a5ac98b0685a57f9cf046414917c9" target="_top" xlink:title=" ">
<polygon fill="#ffffff" stroke="#000000" points="187.5,-76.5 187.5,-95.5 308.5,-95.5 308.5,-76.5 187.5,-76.5"/>
<text text-anchor="middle" x="248" y="-83.5" font-family="Helvetica,sans-Serif" font-size="10.00" fill="#000000">schematicPinNumber</text>
</a>
</g>
</g>
<!-- Node0&#45;&gt;Node4 -->
<g id="edge4" class="edge">
<title>Node0&#45;&gt;Node4</title>
<path fill="none" stroke="#191970" d="M138.2061,-97.6541C151.0147,-96.2945 164.4087,-94.8728 177.2621,-93.5085"/>
<polygon fill="#191970" stroke="#191970" points="177.8582,-96.965 187.4329,-92.4289 177.1193,-90.0041 177.8582,-96.965"/>
</g>
<!-- Node5 -->
<g id="node6" class="node">
<title>Node5</title>
<g id="a_node6"><a xlink:href="../../d3/d61/schematicrectconstants_8cpp.html#a912b97b1475ce766e785d59bd383f3f8" target="_top" xlink:title=" ">
<polygon fill="#ffffff" stroke="#000000" points="197,-38.5 197,-57.5 299,-57.5 299,-38.5 197,-38.5"/>
<text text-anchor="middle" x="248" y="-45.5" font-family="Helvetica,sans-Serif" font-size="10.00" fill="#000000">schematicPinText</text>
</a>
</g>
</g>
<!-- Node0&#45;&gt;Node5 -->
<g id="edge5" class="edge">
<title>Node0&#45;&gt;Node5</title>
<path fill="none" stroke="#191970" d="M108.0882,-89.8433C127.7175,-82.491 151.9559,-73.8018 174,-67 181.7492,-64.609 190.0178,-62.2763 198.1158,-60.1105"/>
<polygon fill="#191970" stroke="#191970" points="199.0751,-63.4774 207.8625,-57.5587 197.3021,-56.7056 199.0751,-63.4774"/>
</g>
<!-- Node6 -->
<g id="node7" class="node">
<title>Node6</title>
<g id="a_node7"><a xlink:href="../../d3/d61/schematicrectconstants_8cpp.html#a1a13dc43ae6a3b89d9704deb0a48a93d" target="_top" xlink:title=" ">
<polygon fill="#ffffff" stroke="#000000" points="232,-.5 232,-19.5 264,-19.5 264,-.5 232,-.5"/>
<text text-anchor="middle" x="248" y="-7.5" font-family="Helvetica,sans-Serif" font-size="10.00" fill="#000000">SW</text>
</a>
</g>
</g>
<!-- Node0&#45;&gt;Node6 -->
<g id="edge7" class="edge">
<title>Node0&#45;&gt;Node6</title>
<path fill="none" stroke="#191970" d="M85.5604,-89.928C105.2528,-72.7759 139.7782,-45.0661 174,-29 189.1687,-21.8787 207.388,-17.1589 221.9527,-14.2045"/>
<polygon fill="#191970" stroke="#191970" points="222.6321,-17.6382 231.8164,-12.3563 221.3428,-10.758 222.6321,-17.6382"/>
</g>
<!-- Node5&#45;&gt;Node1 -->
<g id="edge6" class="edge">
<title>Node5&#45;&gt;Node1</title>
<path fill="none" stroke="#191970" d="M293.6778,-57.5382C303.204,-60.1317 313.0619,-63.2766 322,-67 348.8053,-78.1666 377.0747,-95.8847 395.8371,-108.603"/>
<polygon fill="#191970" stroke="#191970" points="394.0164,-111.599 404.2359,-114.3943 397.9901,-105.8362 394.0164,-111.599"/>
</g>
</g>
</svg>
