<?xml version="1.0" encoding="UTF-8" standalone="no"?>
<!DOCTYPE svg PUBLIC "-//W3C//DTD SVG 1.1//EN"
 "http://www.w3.org/Graphics/SVG/1.1/DTD/svg11.dtd">
<!-- Generated by graphviz version 2.40.1 (0)
 -->
<!-- Title: Dip::otherPropsChange Pages: 1 -->
<svg width="293pt" height="66pt"
 viewBox="0.00 0.00 293.00 66.00" xmlns="http://www.w3.org/2000/svg" xmlns:xlink="http://www.w3.org/1999/xlink">
<g id="graph0" class="graph" transform="scale(1 1) rotate(0) translate(4 62)">
<title>Dip::otherPropsChange</title>
<polygon fill="#ffffff" stroke="transparent" points="-4,4 -4,-62 289,-62 289,4 -4,4"/>
<!-- Node444 -->
<g id="node1" class="node">
<title>Node444</title>
<g id="a_node1"><a xlink:title=" ">
<polygon fill="#bfbfbf" stroke="#000000" points="0,-19.5 0,-38.5 128,-38.5 128,-19.5 0,-19.5"/>
<text text-anchor="middle" x="64" y="-26.5" font-family="Helvetica,sans-Serif" font-size="10.00" fill="#000000">Dip::otherPropsChange</text>
</a>
</g>
</g>
<!-- Node445 -->
<g id="node2" class="node">
<title>Node445</title>
<g id="a_node2"><a xlink:href="../../d4/d4f/classItemBase.html#acc2f5bad42928e7178c28fa0771b1f60" target="_top" xlink:title=" ">
<polygon fill="#ffffff" stroke="#000000" points="165,-38.5 165,-57.5 284,-57.5 284,-38.5 165,-38.5"/>
<text text-anchor="middle" x="224.5" y="-45.5" font-family="Helvetica,sans-Serif" font-size="10.00" fill="#000000">ItemBase::modelPart</text>
</a>
</g>
</g>
<!-- Node444&#45;&gt;Node445 -->
<g id="edge1" class="edge">
<title>Node444&#45;&gt;Node445</title>
<path fill="none" stroke="#191970" d="M128.3567,-36.6185C137.007,-37.6426 145.9139,-38.697 154.6535,-39.7316"/>
<polygon fill="#191970" stroke="#191970" points="154.4684,-43.234 164.8106,-40.934 155.2914,-36.2826 154.4684,-43.234"/>
</g>
<!-- Node446 -->
<g id="node3" class="node">
<title>Node446</title>
<g id="a_node3"><a xlink:href="../../d4/d72/classModelPart.html#a59262909e61b1889d251eadb4bf844db" target="_top" xlink:title=" ">
<polygon fill="#ffffff" stroke="#000000" points="164,-.5 164,-19.5 285,-19.5 285,-.5 164,-.5"/>
<text text-anchor="middle" x="224.5" y="-7.5" font-family="Helvetica,sans-Serif" font-size="10.00" fill="#000000">ModelPart::properties</text>
</a>
</g>
</g>
<!-- Node444&#45;&gt;Node446 -->
<g id="edge2" class="edge">
<title>Node444&#45;&gt;Node446</title>
<path fill="none" stroke="#191970" d="M128.3567,-21.3815C136.665,-20.3979 145.21,-19.3864 153.616,-18.3912"/>
<polygon fill="#191970" stroke="#191970" points="154.2562,-21.84 163.7754,-17.1886 153.4332,-14.8885 154.2562,-21.84"/>
</g>
</g>
</svg>
