<?xml version="1.0" encoding="UTF-8" standalone="no"?>
<!DOCTYPE svg PUBLIC "-//W3C//DTD SVG 1.1//EN"
 "http://www.w3.org/Graphics/SVG/1.1/DTD/svg11.dtd">
<!-- Generated by graphviz version 2.40.1 (0)
 -->
<!-- Title: Dip::makeBreadboardSvg Pages: 1 -->
<svg width="339pt" height="66pt"
 viewBox="0.00 0.00 339.00 66.00" xmlns="http://www.w3.org/2000/svg" xmlns:xlink="http://www.w3.org/1999/xlink">
<g id="graph0" class="graph" transform="scale(1 1) rotate(0) translate(4 62)">
<title>Dip::makeBreadboardSvg</title>
<polygon fill="#ffffff" stroke="transparent" points="-4,4 -4,-62 335,-62 335,4 -4,4"/>
<!-- Node406 -->
<g id="node1" class="node">
<title>Node406</title>
<g id="a_node1"><a xlink:title=" ">
<polygon fill="#bfbfbf" stroke="#000000" points="191,-19.5 191,-38.5 331,-38.5 331,-19.5 191,-19.5"/>
<text text-anchor="middle" x="261" y="-26.5" font-family="Helvetica,sans-Serif" font-size="10.00" fill="#000000">Dip::makeBreadboardSvg</text>
</a>
</g>
</g>
<!-- Node407 -->
<g id="node2" class="node">
<title>Node407</title>
<g id="a_node2"><a xlink:href="../../dc/dec/classDip.html#ae144b2219f86e8f7db176a9d2b7652ec" target="_top" xlink:title=" ">
<polygon fill="#ffffff" stroke="#000000" points="32.5,-38.5 32.5,-57.5 122.5,-57.5 122.5,-38.5 32.5,-38.5"/>
<text text-anchor="middle" x="77.5" y="-45.5" font-family="Helvetica,sans-Serif" font-size="10.00" fill="#000000">Dip::swapEntry</text>
</a>
</g>
</g>
<!-- Node406&#45;&gt;Node407 -->
<g id="edge1" class="edge">
<title>Node406&#45;&gt;Node407</title>
<path fill="none" stroke="#191970" d="M180.8261,-37.3014C160.9054,-39.364 140.2448,-41.5033 122.6821,-43.3217"/>
<polygon fill="#191970" stroke="#191970" points="181.2547,-40.7758 190.8411,-36.2644 180.5337,-33.813 181.2547,-40.7758"/>
</g>
<!-- Node408 -->
<g id="node3" class="node">
<title>Node408</title>
<g id="a_node3"><a xlink:href="../../d0/d85/classPartFactory.html#ad0fbb8e06dce6c1030aea570ac31602f" target="_top" xlink:title=" ">
<polygon fill="#ffffff" stroke="#000000" points="0,-.5 0,-19.5 155,-19.5 155,-.5 0,-.5"/>
<text text-anchor="middle" x="77.5" y="-7.5" font-family="Helvetica,sans-Serif" font-size="10.00" fill="#000000">PartFactory::getSvgFilename</text>
</a>
</g>
</g>
<!-- Node406&#45;&gt;Node408 -->
<g id="edge2" class="edge">
<title>Node406&#45;&gt;Node408</title>
<path fill="none" stroke="#191970" d="M180.6474,-20.6801C172.2215,-19.8077 163.6653,-18.9217 155.2691,-18.0524"/>
<polygon fill="#191970" stroke="#191970" points="180.5337,-24.187 190.8411,-21.7356 181.2547,-17.2242 180.5337,-24.187"/>
</g>
</g>
</svg>
