<?xml version="1.0" encoding="UTF-8" standalone="no"?>
<!DOCTYPE svg PUBLIC "-//W3C//DTD SVG 1.1//EN"
 "http://www.w3.org/Graphics/SVG/1.1/DTD/svg11.dtd">
<!-- Generated by graphviz version 2.40.1 (0)
 -->
<!-- Title: FGraphicsScene Pages: 1 -->
<svg width="151pt" height="237pt"
 viewBox="0.00 0.00 151.00 237.00" xmlns="http://www.w3.org/2000/svg" xmlns:xlink="http://www.w3.org/1999/xlink">
<g id="graph0" class="graph" transform="scale(1 1) rotate(0) translate(4 233)">
<title>FGraphicsScene</title>
<polygon fill="#ffffff" stroke="transparent" points="-4,4 -4,-233 147,-233 147,4 -4,4"/>
<!-- Node0 -->
<g id="node1" class="node">
<title>Node0</title>
<g id="a_node1"><a xlink:title=" ">
<polygon fill="#bfbfbf" stroke="#000000" points="0,-.5 0,-134.5 143,-134.5 143,-.5 0,-.5"/>
<text text-anchor="middle" x="71.5" y="-122.5" font-family="Helvetica,sans-Serif" font-size="10.00" fill="#000000">FGraphicsScene</text>
<polyline fill="none" stroke="#000000" points="0,-115.5 143,-115.5 "/>
<text text-anchor="start" x="8" y="-103.5" font-family="Helvetica,sans-Serif" font-size="10.00" fill="#000000"># m_displayHandles</text>
<text text-anchor="start" x="8" y="-92.5" font-family="Helvetica,sans-Serif" font-size="10.00" fill="#000000"># m_lastContextMenuPos</text>
<polyline fill="none" stroke="#000000" points="0,-85.5 143,-85.5 "/>
<text text-anchor="start" x="8" y="-73.5" font-family="Helvetica,sans-Serif" font-size="10.00" fill="#000000">+ FGraphicsScene()</text>
<text text-anchor="start" x="8" y="-62.5" font-family="Helvetica,sans-Serif" font-size="10.00" fill="#000000">+ contextMenuEvent()</text>
<text text-anchor="start" x="8" y="-51.5" font-family="Helvetica,sans-Serif" font-size="10.00" fill="#000000">+ displayHandles()</text>
<text text-anchor="start" x="8" y="-40.5" font-family="Helvetica,sans-Serif" font-size="10.00" fill="#000000">+ helpEvent()</text>
<text text-anchor="start" x="8" y="-29.5" font-family="Helvetica,sans-Serif" font-size="10.00" fill="#000000">+ lastContextMenuPos()</text>
<text text-anchor="start" x="8" y="-18.5" font-family="Helvetica,sans-Serif" font-size="10.00" fill="#000000">+ lockedSelectedItems()</text>
<text text-anchor="start" x="8" y="-7.5" font-family="Helvetica,sans-Serif" font-size="10.00" fill="#000000">+ setDisplayHandles()</text>
</a>
</g>
</g>
<!-- Node1 -->
<g id="node2" class="node">
<title>Node1</title>
<g id="a_node2"><a xlink:title=" ">
<polygon fill="#ffffff" stroke="#bfbfbf" points="23.5,-171.5 23.5,-228.5 119.5,-228.5 119.5,-171.5 23.5,-171.5"/>
<text text-anchor="middle" x="71.5" y="-216.5" font-family="Helvetica,sans-Serif" font-size="10.00" fill="#000000">QGraphicsScene</text>
<polyline fill="none" stroke="#bfbfbf" points="23.5,-209.5 119.5,-209.5 "/>
<text text-anchor="middle" x="71.5" y="-197.5" font-family="Helvetica,sans-Serif" font-size="10.00" fill="#000000"> </text>
<polyline fill="none" stroke="#bfbfbf" points="23.5,-190.5 119.5,-190.5 "/>
<text text-anchor="middle" x="71.5" y="-178.5" font-family="Helvetica,sans-Serif" font-size="10.00" fill="#000000"> </text>
</a>
</g>
</g>
<!-- Node1&#45;&gt;Node0 -->
<g id="edge1" class="edge">
<title>Node1&#45;&gt;Node0</title>
<path fill="none" stroke="#191970" d="M71.5,-161.0752C71.5,-152.7041 71.5,-143.6273 71.5,-134.5309"/>
<polygon fill="none" stroke="#191970" points="68.0001,-161.2494 71.5,-171.2495 75.0001,-161.2495 68.0001,-161.2494"/>
</g>
</g>
</svg>
