<?xml version="1.0" encoding="UTF-8" standalone="no"?>
<!DOCTYPE svg PUBLIC "-//W3C//DTD SVG 1.1//EN"
 "http://www.w3.org/Graphics/SVG/1.1/DTD/svg11.dtd">
<!-- Generated by graphviz version 2.40.1 (0)
 -->
<!-- Title: FSvgRenderer::determineDefaultSize Pages: 1 -->
<!--zoomable 110 -->
<svg id="main" version="1.1" xmlns="http://www.w3.org/2000/svg" xmlns:xlink="http://www.w3.org/1999/xlink" xml:space="preserve" onload="init(evt)">
<style type="text/css"><![CDATA[
.edge:hover path { stroke: red; }
.edge:hover polygon { stroke: red; fill: red; }
]]></style>
<script type="text/javascript"><![CDATA[
var edges = document.getElementsByTagName('g');
if (edges && edges.length) {
  for (var i=0;i<edges.length;i++) {
    if (edges[i].id.substr(0,4)=='edge') {
      edges[i].setAttribute('class','edge');
    }
  }
}
]]></script>
        <defs>
                <circle id="rim" cx="0" cy="0" r="7"/>
                <circle id="rim2" cx="0" cy="0" r="3.5"/>
                <g id="zoomPlus">
                        <use xlink:href="#rim" fill="#404040">
                                <set attributeName="fill" to="#808080" begin="zoomplus.mouseover" end="zoomplus.mouseout"/>
                        </use>
                        <path d="M-4,0h8M0,-4v8" fill="none" stroke="white" stroke-width="1.5" pointer-events="none"/>
                </g>
                <g id="zoomMin">
                        <use xlink:href="#rim" fill="#404040">
                                <set attributeName="fill" to="#808080" begin="zoomminus.mouseover" end="zoomminus.mouseout"/>
                        </use>
                        <path d="M-4,0h8" fill="none" stroke="white" stroke-width="1.5" pointer-events="none"/>
                </g>
                <g id="dirArrow">
                        <path fill="none" stroke="white" stroke-width="1.5" d="M0,-3.0v7 M-2.5,-0.5L0,-3.0L2.5,-0.5"/>
                </g>
               <g id="resetDef">
                       <use xlink:href="#rim2" fill="#404040">
                               <set attributeName="fill" to="#808080" begin="reset.mouseover" end="reset.mouseout"/>
                       </use>
               </g>
        </defs>

<script type="text/javascript">
var viewWidth = 924;
var viewHeight = 110;
var sectionId = 'dynsection-10';
</script>
<script xlink:href="../../svgpan.js"/>
<svg id="graph" class="graph">
<g id="viewport">
<title>FSvgRenderer::determineDefaultSize</title>
<polygon fill="#ffffff" stroke="transparent" points="-4,4 -4,-106 920,-106 920,4 -4,4"/>
<!-- Node826 -->
<g id="node1" class="node">
<title>Node826</title>
<g id="a_node1"><a xlink:title=" ">
<polygon fill="#bfbfbf" stroke="#000000" points="0,-22.5 0,-41.5 197,-41.5 197,-22.5 0,-22.5"/>
<text text-anchor="middle" x="98.5" y="-29.5" font-family="Helvetica,sans-Serif" font-size="10.00" fill="#000000">FSvgRenderer::determineDefaultSize</text>
</a>
</g>
</g>
<!-- Node827 -->
<g id="node2" class="node">
<title>Node827</title>
<g id="a_node2"><a xlink:href="../../df/db0/classFSvgRenderer.html#ae43fe050478a4cdaa4a844f8d1d6c528" target="_top" xlink:title=" ">
<polygon fill="#ffffff" stroke="#000000" points="233,-17 233,-47 394,-47 394,-17 233,-17"/>
<text text-anchor="start" x="241" y="-35" font-family="Helvetica,sans-Serif" font-size="10.00" fill="#000000">FSvgRenderer::parseForWidth</text>
<text text-anchor="middle" x="313.5" y="-24" font-family="Helvetica,sans-Serif" font-size="10.00" fill="#000000">AndHeight</text>
</a>
</g>
</g>
<!-- Node826&#45;&gt;Node827 -->
<g id="edge1" class="edge">
<title>Node826&#45;&gt;Node827</title>
<path fill="none" stroke="#191970" d="M197.1904,-32C205.6663,-32 214.2158,-32 222.6261,-32"/>
<polygon fill="#191970" stroke="#191970" points="222.8016,-35.5001 232.8015,-32 222.8015,-28.5001 222.8016,-35.5001"/>
</g>
<!-- Node828 -->
<g id="node3" class="node">
<title>Node828</title>
<g id="a_node3"><a xlink:href="../../de/db8/classTextUtils.html#a247000f175c1f75b69ae36b0c338ab24" target="_top" xlink:title=" ">
<polygon fill="#ffffff" stroke="#000000" points="430,-39 430,-69 566,-69 566,-39 430,-39"/>
<text text-anchor="start" x="438" y="-57" font-family="Helvetica,sans-Serif" font-size="10.00" fill="#000000">TextUtils::parseForWidth</text>
<text text-anchor="middle" x="498" y="-46" font-family="Helvetica,sans-Serif" font-size="10.00" fill="#000000">AndHeight</text>
</a>
</g>
</g>
<!-- Node827&#45;&gt;Node828 -->
<g id="edge2" class="edge">
<title>Node827&#45;&gt;Node828</title>
<path fill="none" stroke="#191970" d="M394.156,-41.6175C402.7283,-42.6397 411.4363,-43.678 419.9776,-44.6965"/>
<polygon fill="#191970" stroke="#191970" points="419.5655,-48.1721 429.9096,-45.8808 420.3944,-41.2213 419.5655,-48.1721"/>
</g>
<!-- Node832 -->
<g id="node7" class="node">
<title>Node832</title>
<g id="a_node7"><a xlink:href="../../da/d3a/classDebugDialog.html#ad26216d18945d7d7188420707b76f241" target="_top" xlink:title=" ">
<polygon fill="#ffffff" stroke="#000000" points="440,-.5 440,-19.5 556,-19.5 556,-.5 440,-.5"/>
<text text-anchor="middle" x="498" y="-7.5" font-family="Helvetica,sans-Serif" font-size="10.00" fill="#000000">DebugDialog::debug</text>
</a>
</g>
</g>
<!-- Node827&#45;&gt;Node832 -->
<g id="edge7" class="edge">
<title>Node827&#45;&gt;Node832</title>
<path fill="none" stroke="#191970" d="M394.156,-22.3825C406.0804,-20.9606 418.2674,-19.5074 429.903,-18.12"/>
<polygon fill="#191970" stroke="#191970" points="430.4505,-21.5796 439.9657,-16.9201 429.6217,-14.6288 430.4505,-21.5796"/>
</g>
<!-- Node829 -->
<g id="node4" class="node">
<title>Node829</title>
<g id="a_node4"><a xlink:href="../../de/db8/classTextUtils.html#af0e4253de83781c52fcd24852666100f" target="_top" xlink:title=" ">
<polygon fill="#ffffff" stroke="#000000" points="605,-82.5 605,-101.5 743,-101.5 743,-82.5 605,-82.5"/>
<text text-anchor="middle" x="674" y="-89.5" font-family="Helvetica,sans-Serif" font-size="10.00" fill="#000000">TextUtils::isIllustratorFile</text>
</a>
</g>
</g>
<!-- Node828&#45;&gt;Node829 -->
<g id="edge3" class="edge">
<title>Node828&#45;&gt;Node829</title>
<path fill="none" stroke="#191970" d="M566.0462,-68.6918C583.7495,-72.5141 602.5901,-76.582 619.493,-80.2314"/>
<polygon fill="#191970" stroke="#191970" points="619.2261,-83.7544 629.7396,-82.4438 620.7035,-76.9121 619.2261,-83.7544"/>
</g>
<!-- Node830 -->
<g id="node5" class="node">
<title>Node830</title>
<g id="a_node5"><a xlink:href="../../de/db8/classTextUtils.html#a53e674684a7ceb29e742cae16c5e246b" target="_top" xlink:title=" ">
<polygon fill="#ffffff" stroke="#000000" points="602,-44.5 602,-63.5 746,-63.5 746,-44.5 602,-44.5"/>
<text text-anchor="middle" x="674" y="-51.5" font-family="Helvetica,sans-Serif" font-size="10.00" fill="#000000">TextUtils::convertToInches</text>
</a>
</g>
</g>
<!-- Node828&#45;&gt;Node830 -->
<g id="edge4" class="edge">
<title>Node828&#45;&gt;Node830</title>
<path fill="none" stroke="#191970" d="M566.0462,-54C574.4588,-54 583.1282,-54 591.7245,-54"/>
<polygon fill="#191970" stroke="#191970" points="591.7624,-57.5001 601.7623,-54 591.7623,-50.5001 591.7624,-57.5001"/>
</g>
<!-- Node831 -->
<g id="node6" class="node">
<title>Node831</title>
<g id="a_node6"><a xlink:href="../../de/db8/classTextUtils.html#a081f65f326bccb69ddec2919b692c479" target="_top" xlink:title=" ">
<polygon fill="#ffffff" stroke="#000000" points="782,-25.5 782,-44.5 916,-44.5 916,-25.5 782,-25.5"/>
<text text-anchor="middle" x="849" y="-32.5" font-family="Helvetica,sans-Serif" font-size="10.00" fill="#000000">TextUtils::chopNotDigits</text>
</a>
</g>
</g>
<!-- Node828&#45;&gt;Node831 -->
<g id="edge6" class="edge">
<title>Node828&#45;&gt;Node831</title>
<path fill="none" stroke="#191970" d="M566.0081,-39.7573C577.9516,-37.7773 590.3011,-36.0599 602,-35 658.6169,-29.8707 722.8337,-30.0539 771.5961,-31.4228"/>
<polygon fill="#191970" stroke="#191970" points="771.6569,-34.9262 781.7586,-31.7315 771.8695,-27.9294 771.6569,-34.9262"/>
</g>
<!-- Node830&#45;&gt;Node831 -->
<g id="edge5" class="edge">
<title>Node830&#45;&gt;Node831</title>
<path fill="none" stroke="#191970" d="M746.1895,-46.1623C754.5566,-45.2539 763.1163,-44.3245 771.5499,-43.4089"/>
<polygon fill="#191970" stroke="#191970" points="772.1892,-46.8601 781.753,-42.3011 771.4336,-39.901 772.1892,-46.8601"/>
</g>
</g>
</svg>
        <g id="navigator" transform="translate(0 0)" fill="#404254">
                <rect fill="#f2f5e9" fill-opacity="0.5" stroke="#606060" stroke-width=".5" x="0" y="0" width="60" height="60"/>
                <use id="zoomplus" xlink:href="#zoomPlus" x="17" y="9" onmousedown="handleZoom(evt,'in')"/>
                <use id="zoomminus" xlink:href="#zoomMin" x="42" y="9" onmousedown="handleZoom(evt,'out')"/>
                <use id="reset" xlink:href="#resetDef" x="30" y="36" onmousedown="handleReset()"/>
                <g id="arrowUp" xlink:href="#dirArrow" transform="translate(30 24)" onmousedown="handlePan(0,-1)">
                  <use xlink:href="#rim" fill="#404040">
                        <set attributeName="fill" to="#808080" begin="arrowUp.mouseover" end="arrowUp.mouseout"/>
                  </use>
                  <path fill="none" stroke="white" stroke-width="1.5" d="M0,-3.0v7 M-2.5,-0.5L0,-3.0L2.5,-0.5"/>
                </g>
                <g id="arrowRight" xlink:href="#dirArrow" transform="rotate(90) translate(36 -43)" onmousedown="handlePan(1,0)">
                  <use xlink:href="#rim" fill="#404040">
                        <set attributeName="fill" to="#808080" begin="arrowRight.mouseover" end="arrowRight.mouseout"/>
                  </use>
                  <path fill="none" stroke="white" stroke-width="1.5" d="M0,-3.0v7 M-2.5,-0.5L0,-3.0L2.5,-0.5"/>
                </g>
                <g id="arrowDown" xlink:href="#dirArrow" transform="rotate(180) translate(-30 -48)" onmousedown="handlePan(0,1)">
                  <use xlink:href="#rim" fill="#404040">
                        <set attributeName="fill" to="#808080" begin="arrowDown.mouseover" end="arrowDown.mouseout"/>
                  </use>
                  <path fill="none" stroke="white" stroke-width="1.5" d="M0,-3.0v7 M-2.5,-0.5L0,-3.0L2.5,-0.5"/>
                </g>
                <g id="arrowLeft" xlink:href="#dirArrow" transform="rotate(270) translate(-36 17)" onmousedown="handlePan(-1,0)">
                  <use xlink:href="#rim" fill="#404040">
                        <set attributeName="fill" to="#808080" begin="arrowLeft.mouseover" end="arrowLeft.mouseout"/>
                  </use>
                  <path fill="none" stroke="white" stroke-width="1.5" d="M0,-3.0v7 M-2.5,-0.5L0,-3.0L2.5,-0.5"/>
                </g>
        </g>
        <svg viewBox="0 0 15 15" width="100%" height="30px" preserveAspectRatio="xMaxYMin meet">
         <g id="arrow_out" transform="scale(0.3 0.3)">
          <a xlink:href="classFSvgRenderer_ae232933cfb0418afd327cc18c8c18ec9_cgraph_org.svg" target="_base">
           <rect id="button" ry="5" rx="5" y="6" x="6" height="38" width="38"
                fill="#f2f5e9" fill-opacity="0.5" stroke="#606060" stroke-width="1.0"/>
           <path id="arrow"
             d="M 11.500037,31.436501 C 11.940474,20.09759 22.043105,11.32322 32.158766,21.979434 L 37.068811,17.246167 C 37.068811,17.246167 37.088388,32 37.088388,32 L 22.160133,31.978069 C 22.160133,31.978069 26.997745,27.140456 26.997745,27.140456 C 18.528582,18.264221 13.291696,25.230495 11.500037,31.436501 z"
             style="fill:#404040;"/>
          </a>
         </g>
        </svg>
</svg>
