<?xml version="1.0" encoding="UTF-8" standalone="no"?>
<!DOCTYPE svg PUBLIC "-//W3C//DTD SVG 1.1//EN"
 "http://www.w3.org/Graphics/SVG/1.1/DTD/svg11.dtd">
<!-- Generated by graphviz version 2.40.1 (0)
 -->
<!-- Title: FSvgRenderer::initConnectorInfo Pages: 1 -->
<svg width="2097pt" height="316pt"
 viewBox="0.00 0.00 2097.00 315.50" xmlns="http://www.w3.org/2000/svg" xmlns:xlink="http://www.w3.org/1999/xlink">
<g id="graph0" class="graph" transform="scale(1 1) rotate(0) translate(4 311.5)">
<title>FSvgRenderer::initConnectorInfo</title>
<polygon fill="#ffffff" stroke="transparent" points="-4,4 -4,-311.5 2093,-311.5 2093,4 -4,4"/>
<!-- Node1665 -->
<g id="node1" class="node">
<title>Node1665</title>
<g id="a_node1"><a xlink:title=" ">
<polygon fill="#bfbfbf" stroke="#000000" points="0,-216.5 0,-235.5 174,-235.5 174,-216.5 0,-216.5"/>
<text text-anchor="middle" x="87" y="-223.5" font-family="Helvetica,sans-Serif" font-size="10.00" fill="#000000">FSvgRenderer::initConnectorInfo</text>
</a>
</g>
</g>
<!-- Node1666 -->
<g id="node2" class="node">
<title>Node1666</title>
<g id="a_node2"><a xlink:href="../../df/db0/classFSvgRenderer.html#a04fb8dfc3e6c4be2ade9acc525ccd4a0" target="_top" xlink:title=" ">
<polygon fill="#ffffff" stroke="#000000" points="210,-277 210,-307 374,-307 374,-277 210,-277"/>
<text text-anchor="start" x="218" y="-295" font-family="Helvetica,sans-Serif" font-size="10.00" fill="#000000">FSvgRenderer::clearConnector</text>
<text text-anchor="middle" x="292" y="-284" font-family="Helvetica,sans-Serif" font-size="10.00" fill="#000000">InfoHash</text>
</a>
</g>
</g>
<!-- Node1665&#45;&gt;Node1666 -->
<g id="edge1" class="edge">
<title>Node1665&#45;&gt;Node1666</title>
<path fill="none" stroke="#191970" d="M116.8088,-235.597C147.696,-245.5411 196.7269,-261.3267 235.0729,-273.6722"/>
<polygon fill="#191970" stroke="#191970" points="234.4848,-277.1598 245.0763,-276.8929 236.6301,-270.4966 234.4848,-277.1598"/>
</g>
<!-- Node1667 -->
<g id="node3" class="node">
<title>Node1667</title>
<g id="a_node3"><a xlink:href="../../df/db0/classFSvgRenderer.html#a7d8bd83f45d17f5acbc40e937f348bad" target="_top" xlink:title=" ">
<polygon fill="#ffffff" stroke="#000000" points="214.5,-189 214.5,-219 369.5,-219 369.5,-189 214.5,-189"/>
<text text-anchor="start" x="222.5" y="-207" font-family="Helvetica,sans-Serif" font-size="10.00" fill="#000000">FSvgRenderer::initConnector</text>
<text text-anchor="middle" x="292" y="-196" font-family="Helvetica,sans-Serif" font-size="10.00" fill="#000000">InfoAux</text>
</a>
</g>
</g>
<!-- Node1665&#45;&gt;Node1667 -->
<g id="edge2" class="edge">
<title>Node1665&#45;&gt;Node1667</title>
<path fill="none" stroke="#191970" d="M174.2357,-216.6381C184.1032,-215.5792 194.1637,-214.4995 204.0403,-213.4396"/>
<polygon fill="#191970" stroke="#191970" points="204.6811,-216.891 214.2505,-212.3438 203.9341,-209.931 204.6811,-216.891"/>
</g>
<!-- Node1687 -->
<g id="node23" class="node">
<title>Node1687</title>
<g id="a_node23"><a xlink:href="../../df/db0/classFSvgRenderer.html#ad130e2a58790984ccd2cd54080fa4437" target="_top" xlink:title=" ">
<polygon fill="#ffffff" stroke="#000000" points="410,-238.5 410,-257.5 571,-257.5 571,-238.5 410,-238.5"/>
<text text-anchor="middle" x="490.5" y="-245.5" font-family="Helvetica,sans-Serif" font-size="10.00" fill="#000000">FSvgRenderer::initLegInfoAux</text>
</a>
</g>
</g>
<!-- Node1665&#45;&gt;Node1687 -->
<g id="edge26" class="edge">
<title>Node1665&#45;&gt;Node1687</title>
<path fill="none" stroke="#191970" d="M174.0567,-230.7466C240.6065,-234.3751 332.0882,-239.3629 399.5784,-243.0427"/>
<polygon fill="#191970" stroke="#191970" points="399.6001,-246.549 409.7758,-243.5987 399.9812,-239.5594 399.6001,-246.549"/>
</g>
<!-- Node1688 -->
<g id="node24" class="node">
<title>Node1688</title>
<g id="a_node24"><a xlink:href="../../df/db0/classFSvgRenderer.html#a41c1beb2c25b7abe0f249bb74dc138a1" target="_top" xlink:title=" ">
<polygon fill="#ffffff" stroke="#000000" points="610.5,-147 610.5,-177 758.5,-177 758.5,-147 610.5,-147"/>
<text text-anchor="start" x="618.5" y="-165" font-family="Helvetica,sans-Serif" font-size="10.00" fill="#000000">FSvgRenderer::initTerminal</text>
<text text-anchor="middle" x="684.5" y="-154" font-family="Helvetica,sans-Serif" font-size="10.00" fill="#000000">InfoAux</text>
</a>
</g>
</g>
<!-- Node1665&#45;&gt;Node1688 -->
<g id="edge28" class="edge">
<title>Node1665&#45;&gt;Node1688</title>
<path fill="none" stroke="#191970" d="M106.0057,-216.47C129.6805,-205.138 171.6917,-186.7815 210,-179 344.4493,-151.6895 504.6391,-152.7046 600.2705,-156.7579"/>
<polygon fill="#191970" stroke="#191970" points="600.3167,-160.2633 610.4626,-157.2118 600.6283,-153.2702 600.3167,-160.2633"/>
</g>
<!-- Node1668 -->
<g id="node4" class="node">
<title>Node1668</title>
<g id="a_node4"><a xlink:href="../../df/db0/classFSvgRenderer.html#a881229242f920c82b7c46bc7060a6879" target="_top" xlink:title=" ">
<polygon fill="#ffffff" stroke="#000000" points="413,-189 413,-219 568,-219 568,-189 413,-189"/>
<text text-anchor="start" x="421" y="-207" font-family="Helvetica,sans-Serif" font-size="10.00" fill="#000000">FSvgRenderer::initConnector</text>
<text text-anchor="middle" x="490.5" y="-196" font-family="Helvetica,sans-Serif" font-size="10.00" fill="#000000">InfoStruct</text>
</a>
</g>
</g>
<!-- Node1667&#45;&gt;Node1668 -->
<g id="edge3" class="edge">
<title>Node1667&#45;&gt;Node1668</title>
<path fill="none" stroke="#191970" d="M369.5981,-204C380.5041,-204 391.7768,-204 402.854,-204"/>
<polygon fill="#191970" stroke="#191970" points="402.9558,-207.5001 412.9558,-204 402.9557,-200.5001 402.9558,-207.5001"/>
</g>
<!-- Node1669 -->
<g id="node5" class="node">
<title>Node1669</title>
<g id="a_node5"><a xlink:href="../../de/db8/classTextUtils.html#a3f9e36ac33645d86282aa9f869918d78" target="_top" xlink:title=" ">
<polygon fill="#ffffff" stroke="#000000" points="989,-158.5 989,-177.5 1137,-177.5 1137,-158.5 989,-158.5"/>
<text text-anchor="middle" x="1063" y="-165.5" font-family="Helvetica,sans-Serif" font-size="10.00" fill="#000000">TextUtils::elementToMatrix</text>
</a>
</g>
</g>
<!-- Node1668&#45;&gt;Node1669 -->
<g id="edge4" class="edge">
<title>Node1668&#45;&gt;Node1669</title>
<path fill="none" stroke="#191970" d="M568.3298,-201.3118C660.3157,-197.8221 817.9567,-190.861 953,-180 961.3267,-179.3303 969.9984,-178.5419 978.6577,-177.6944"/>
<polygon fill="#191970" stroke="#191970" points="979.1958,-181.1581 988.7959,-176.676 978.4961,-174.1931 979.1958,-181.1581"/>
</g>
<!-- Node1672 -->
<g id="node8" class="node">
<title>Node1672</title>
<g id="a_node8"><a xlink:href="../../df/db0/classFSvgRenderer.html#ac8740280c9b9925dadc202a5dd93f603" target="_top" xlink:title=" ">
<polygon fill="#ffffff" stroke="#000000" points="607,-98 607,-128 762,-128 762,-98 607,-98"/>
<text text-anchor="start" x="615" y="-116" font-family="Helvetica,sans-Serif" font-size="10.00" fill="#000000">FSvgRenderer::initConnector</text>
<text text-anchor="middle" x="684.5" y="-105" font-family="Helvetica,sans-Serif" font-size="10.00" fill="#000000">InfoStructAux</text>
</a>
</g>
</g>
<!-- Node1668&#45;&gt;Node1672 -->
<g id="edge7" class="edge">
<title>Node1668&#45;&gt;Node1672</title>
<path fill="none" stroke="#191970" d="M513.3556,-188.8174C536.2885,-174.0806 572.9933,-151.8254 607,-137 611.4464,-135.0616 616.099,-133.2103 620.8219,-131.4579"/>
<polygon fill="#191970" stroke="#191970" points="622.3144,-134.6424 630.5712,-128.0034 619.9764,-128.0443 622.3144,-134.6424"/>
</g>
<!-- Node1670 -->
<g id="node6" class="node">
<title>Node1670</title>
<g id="a_node6"><a xlink:href="../../de/db8/classTextUtils.html#a6a59855c38f81231a84ec509d0f3395b" target="_top" xlink:title=" ">
<polygon fill="#ffffff" stroke="#000000" points="1200.5,-153 1200.5,-183 1342.5,-183 1342.5,-153 1200.5,-153"/>
<text text-anchor="start" x="1208.5" y="-171" font-family="Helvetica,sans-Serif" font-size="10.00" fill="#000000">TextUtils::transformString</text>
<text text-anchor="middle" x="1271.5" y="-160" font-family="Helvetica,sans-Serif" font-size="10.00" fill="#000000">ToMatrix</text>
</a>
</g>
</g>
<!-- Node1669&#45;&gt;Node1670 -->
<g id="edge5" class="edge">
<title>Node1669&#45;&gt;Node1670</title>
<path fill="none" stroke="#191970" d="M1137.0964,-168C1154.3171,-168 1172.739,-168 1190.2497,-168"/>
<polygon fill="#191970" stroke="#191970" points="1190.4385,-171.5001 1200.4385,-168 1190.4385,-164.5001 1190.4385,-171.5001"/>
</g>
<!-- Node1671 -->
<g id="node7" class="node">
<title>Node1671</title>
<g id="a_node7"><a xlink:href="../../de/db8/classTextUtils.html#aa46b1e7b5c786490c6d6a4f6e339a268" target="_top" xlink:title=" ">
<polygon fill="#ffffff" stroke="#000000" points="1406.5,-158.5 1406.5,-177.5 1566.5,-177.5 1566.5,-158.5 1406.5,-158.5"/>
<text text-anchor="middle" x="1486.5" y="-165.5" font-family="Helvetica,sans-Serif" font-size="10.00" fill="#000000">TextUtils::getTransformFloats</text>
</a>
</g>
</g>
<!-- Node1670&#45;&gt;Node1671 -->
<g id="edge6" class="edge">
<title>Node1670&#45;&gt;Node1671</title>
<path fill="none" stroke="#191970" d="M1342.7933,-168C1359.8575,-168 1378.2999,-168 1396.1003,-168"/>
<polygon fill="#191970" stroke="#191970" points="1396.4915,-171.5001 1406.4915,-168 1396.4914,-164.5001 1396.4915,-171.5001"/>
</g>
<!-- Node1673 -->
<g id="node9" class="node">
<title>Node1673</title>
<g id="a_node9"><a xlink:href="../../df/db0/classFSvgRenderer.html#aa1eb4ebf3d86cb85fc160cbfa0f4f830" target="_top" xlink:title=" ">
<polygon fill="#ffffff" stroke="#000000" points="798,-109 798,-139 953,-139 953,-109 798,-109"/>
<text text-anchor="start" x="806" y="-127" font-family="Helvetica,sans-Serif" font-size="10.00" fill="#000000">FSvgRenderer::initConnector</text>
<text text-anchor="middle" x="875.5" y="-116" font-family="Helvetica,sans-Serif" font-size="10.00" fill="#000000">InfoCircle</text>
</a>
</g>
</g>
<!-- Node1672&#45;&gt;Node1673 -->
<g id="edge8" class="edge">
<title>Node1672&#45;&gt;Node1673</title>
<path fill="none" stroke="#191970" d="M762.187,-117.4741C770.6495,-117.9615 779.3055,-118.46 787.8763,-118.9536"/>
<polygon fill="#191970" stroke="#191970" points="787.6971,-122.449 797.8818,-119.5298 788.0997,-115.4606 787.6971,-122.449"/>
</g>
<!-- Node1675 -->
<g id="node11" class="node">
<title>Node1675</title>
<g id="a_node11"><a xlink:href="../../df/db0/classFSvgRenderer.html#a2d8829f12c05156f73ff722d30e7a0f9" target="_top" xlink:title=" ">
<polygon fill="#ffffff" stroke="#000000" points="798,-60 798,-90 953,-90 953,-60 798,-60"/>
<text text-anchor="start" x="806" y="-78" font-family="Helvetica,sans-Serif" font-size="10.00" fill="#000000">FSvgRenderer::initConnector</text>
<text text-anchor="middle" x="875.5" y="-67" font-family="Helvetica,sans-Serif" font-size="10.00" fill="#000000">InfoPath</text>
</a>
</g>
</g>
<!-- Node1672&#45;&gt;Node1675 -->
<g id="edge11" class="edge">
<title>Node1672&#45;&gt;Node1675</title>
<path fill="none" stroke="#191970" d="M759.9883,-97.9814C769.8421,-96.021 779.9935,-94.0013 789.9969,-92.0111"/>
<polygon fill="#191970" stroke="#191970" points="790.8098,-95.418 799.9346,-90.034 789.4438,-88.5526 790.8098,-95.418"/>
</g>
<!-- Node1673&#45;&gt;Node1669 -->
<g id="edge10" class="edge">
<title>Node1673&#45;&gt;Node1669</title>
<path fill="none" stroke="#191970" d="M939.5024,-139.0192C963.3301,-144.6108 990.0179,-150.8735 1012.4712,-156.1426"/>
<polygon fill="#191970" stroke="#191970" points="1011.929,-159.6103 1022.4641,-158.4876 1013.5282,-152.7955 1011.929,-159.6103"/>
</g>
<!-- Node1674 -->
<g id="node10" class="node">
<title>Node1674</title>
<g id="a_node10"><a xlink:href="../../de/db8/classTextUtils.html#af6b4e8ac48ffd2a9a7e10f2738d43404" target="_top" xlink:title=" ">
<polygon fill="#ffffff" stroke="#000000" points="993,-114.5 993,-133.5 1133,-133.5 1133,-114.5 993,-114.5"/>
<text text-anchor="middle" x="1063" y="-121.5" font-family="Helvetica,sans-Serif" font-size="10.00" fill="#000000">TextUtils::getStrokeWidth</text>
</a>
</g>
</g>
<!-- Node1673&#45;&gt;Node1674 -->
<g id="edge9" class="edge">
<title>Node1673&#45;&gt;Node1674</title>
<path fill="none" stroke="#191970" d="M953.1169,-124C962.9122,-124 972.9497,-124 982.7843,-124"/>
<polygon fill="#191970" stroke="#191970" points="982.9408,-127.5001 992.9408,-124 982.9408,-120.5001 982.9408,-127.5001"/>
</g>
<!-- Node1675&#45;&gt;Node1669 -->
<g id="edge25" class="edge">
<title>Node1675&#45;&gt;Node1669</title>
<path fill="none" stroke="#191970" d="M936.7417,-90.1698C942.4538,-92.693 947.9764,-95.6168 953,-99 973.9575,-113.114 968.2241,-128.6201 989,-143 995.9724,-147.8259 1003.9538,-151.7858 1012.0352,-155.0149"/>
<polygon fill="#191970" stroke="#191970" points="1010.9197,-158.3336 1021.5136,-158.4779 1013.322,-151.7587 1010.9197,-158.3336"/>
</g>
<!-- Node1675&#45;&gt;Node1674 -->
<g id="edge12" class="edge">
<title>Node1675&#45;&gt;Node1674</title>
<path fill="none" stroke="#191970" d="M932.0567,-90.0332C950.2328,-94.8419 970.4602,-100.1698 989,-105 997.673,-107.2596 1006.9229,-109.6501 1015.8411,-111.9449"/>
<polygon fill="#191970" stroke="#191970" points="1015.1642,-115.3846 1025.7206,-114.4831 1016.9061,-108.6047 1015.1642,-115.3846"/>
</g>
<!-- Node1676 -->
<g id="node12" class="node">
<title>Node1676</title>
<g id="a_node12"><a xlink:href="../../df/db0/classFSvgRenderer.html#ab27ef6e37636610b9593355ee2d6209d" target="_top" xlink:title=" ">
<polygon fill="#ffffff" stroke="#000000" points="996,-76.5 996,-95.5 1130,-95.5 1130,-76.5 996,-76.5"/>
<text text-anchor="middle" x="1063" y="-83.5" font-family="Helvetica,sans-Serif" font-size="10.00" fill="#000000">FSvgRenderer::finalLoad</text>
</a>
</g>
</g>
<!-- Node1675&#45;&gt;Node1676 -->
<g id="edge13" class="edge">
<title>Node1675&#45;&gt;Node1676</title>
<path fill="none" stroke="#191970" d="M953.1169,-79.5535C963.8819,-80.1851 974.9394,-80.8338 985.6986,-81.465"/>
<polygon fill="#191970" stroke="#191970" points="985.7156,-84.9719 995.9034,-82.0637 986.1256,-77.9839 985.7156,-84.9719"/>
</g>
<!-- Node1685 -->
<g id="node21" class="node">
<title>Node1685</title>
<g id="a_node21"><a xlink:href="../../d2/db7/ioapi_8h.html#a787fa3cf048117ba7123753c1e74fcd6" target="_top" xlink:title=" ">
<polygon fill="#ffffff" stroke="#000000" points="1048.5,-38.5 1048.5,-57.5 1077.5,-57.5 1077.5,-38.5 1048.5,-38.5"/>
<text text-anchor="middle" x="1063" y="-45.5" font-family="Helvetica,sans-Serif" font-size="10.00" fill="#000000">int</text>
</a>
</g>
</g>
<!-- Node1675&#45;&gt;Node1685 -->
<g id="edge23" class="edge">
<title>Node1675&#45;&gt;Node1685</title>
<path fill="none" stroke="#191970" d="M953.1169,-63.8232C983.6267,-59.4298 1016.4868,-54.6979 1038.2433,-51.565"/>
<polygon fill="#191970" stroke="#191970" points="1038.8558,-55.013 1048.2548,-50.1233 1037.858,-48.0844 1038.8558,-55.013"/>
</g>
<!-- Node1686 -->
<g id="node22" class="node">
<title>Node1686</title>
<g id="a_node22"><a xlink:href="../../d4/d08/misc_8h.html#aec6ff9c887dc8733e787bf81a01492fd" target="_top" xlink:title=" ">
<polygon fill="#ffffff" stroke="#000000" points="1042.5,-.5 1042.5,-19.5 1083.5,-19.5 1083.5,-.5 1042.5,-.5"/>
<text text-anchor="middle" x="1063" y="-7.5" font-family="Helvetica,sans-Serif" font-size="10.00" fill="#000000">qMin</text>
</a>
</g>
</g>
<!-- Node1675&#45;&gt;Node1686 -->
<g id="edge24" class="edge">
<title>Node1675&#45;&gt;Node1686</title>
<path fill="none" stroke="#191970" d="M909.3277,-59.9032C931.6651,-50.2809 961.7375,-37.9798 989,-29 1003.1552,-24.3375 1019.1399,-20.1077 1032.6214,-16.8289"/>
<polygon fill="#191970" stroke="#191970" points="1033.4493,-20.2297 1042.3711,-14.5156 1031.8332,-13.4188 1033.4493,-20.2297"/>
</g>
<!-- Node1677 -->
<g id="node13" class="node">
<title>Node1677</title>
<g id="a_node13"><a xlink:href="../../df/db0/classFSvgRenderer.html#ae232933cfb0418afd327cc18c8c18ec9" target="_top" xlink:title=" ">
<polygon fill="#ffffff" stroke="#000000" points="1173,-95.5 1173,-114.5 1370,-114.5 1370,-95.5 1173,-95.5"/>
<text text-anchor="middle" x="1271.5" y="-102.5" font-family="Helvetica,sans-Serif" font-size="10.00" fill="#000000">FSvgRenderer::determineDefaultSize</text>
</a>
</g>
</g>
<!-- Node1676&#45;&gt;Node1677 -->
<g id="edge14" class="edge">
<title>Node1676&#45;&gt;Node1677</title>
<path fill="none" stroke="#191970" d="M1130.1184,-92.1163C1140.5088,-93.0632 1151.4653,-94.0616 1162.4929,-95.0665"/>
<polygon fill="#191970" stroke="#191970" points="1162.3497,-98.5679 1172.6261,-95.9899 1162.9851,-91.5968 1162.3497,-98.5679"/>
</g>
<!-- Node1684 -->
<g id="node20" class="node">
<title>Node1684</title>
<g id="a_node20"><a xlink:href="../../df/db0/classFSvgRenderer.html#a7949e06907cc6b61f16e6a3afe99426e" target="_top" xlink:title=" ">
<polygon fill="#ffffff" stroke="#000000" points="1205,-57.5 1205,-76.5 1338,-76.5 1338,-57.5 1205,-57.5"/>
<text text-anchor="middle" x="1271.5" y="-64.5" font-family="Helvetica,sans-Serif" font-size="10.00" fill="#000000">FSvgRenderer::filename</text>
</a>
</g>
</g>
<!-- Node1676&#45;&gt;Node1684 -->
<g id="edge22" class="edge">
<title>Node1676&#45;&gt;Node1684</title>
<path fill="none" stroke="#191970" d="M1130.1184,-79.8837C1150.6816,-78.0098 1173.4619,-75.9339 1194.6229,-74.0056"/>
<polygon fill="#191970" stroke="#191970" points="1195.223,-77.4655 1204.8641,-73.0723 1194.5877,-70.4944 1195.223,-77.4655"/>
</g>
<!-- Node1678 -->
<g id="node14" class="node">
<title>Node1678</title>
<g id="a_node14"><a xlink:href="../../df/db0/classFSvgRenderer.html#ae43fe050478a4cdaa4a844f8d1d6c528" target="_top" xlink:title=" ">
<polygon fill="#ffffff" stroke="#000000" points="1406,-90 1406,-120 1567,-120 1567,-90 1406,-90"/>
<text text-anchor="start" x="1414" y="-108" font-family="Helvetica,sans-Serif" font-size="10.00" fill="#000000">FSvgRenderer::parseForWidth</text>
<text text-anchor="middle" x="1486.5" y="-97" font-family="Helvetica,sans-Serif" font-size="10.00" fill="#000000">AndHeight</text>
</a>
</g>
</g>
<!-- Node1677&#45;&gt;Node1678 -->
<g id="edge15" class="edge">
<title>Node1677&#45;&gt;Node1678</title>
<path fill="none" stroke="#191970" d="M1370.1904,-105C1378.6663,-105 1387.2158,-105 1395.6261,-105"/>
<polygon fill="#191970" stroke="#191970" points="1395.8016,-108.5001 1405.8015,-105 1395.8015,-101.5001 1395.8016,-108.5001"/>
</g>
<!-- Node1679 -->
<g id="node15" class="node">
<title>Node1679</title>
<g id="a_node15"><a xlink:href="../../de/db8/classTextUtils.html#a247000f175c1f75b69ae36b0c338ab24" target="_top" xlink:title=" ">
<polygon fill="#ffffff" stroke="#000000" points="1603,-112 1603,-142 1739,-142 1739,-112 1603,-112"/>
<text text-anchor="start" x="1611" y="-130" font-family="Helvetica,sans-Serif" font-size="10.00" fill="#000000">TextUtils::parseForWidth</text>
<text text-anchor="middle" x="1671" y="-119" font-family="Helvetica,sans-Serif" font-size="10.00" fill="#000000">AndHeight</text>
</a>
</g>
</g>
<!-- Node1678&#45;&gt;Node1679 -->
<g id="edge16" class="edge">
<title>Node1678&#45;&gt;Node1679</title>
<path fill="none" stroke="#191970" d="M1567.156,-114.6175C1575.7283,-115.6397 1584.4363,-116.678 1592.9776,-117.6965"/>
<polygon fill="#191970" stroke="#191970" points="1592.5655,-121.1721 1602.9096,-118.8808 1593.3944,-114.2213 1592.5655,-121.1721"/>
</g>
<!-- Node1683 -->
<g id="node19" class="node">
<title>Node1683</title>
<g id="a_node19"><a xlink:href="../../da/d3a/classDebugDialog.html#ad26216d18945d7d7188420707b76f241" target="_top" xlink:title=" ">
<polygon fill="#ffffff" stroke="#000000" points="1613,-73.5 1613,-92.5 1729,-92.5 1729,-73.5 1613,-73.5"/>
<text text-anchor="middle" x="1671" y="-80.5" font-family="Helvetica,sans-Serif" font-size="10.00" fill="#000000">DebugDialog::debug</text>
</a>
</g>
</g>
<!-- Node1678&#45;&gt;Node1683 -->
<g id="edge21" class="edge">
<title>Node1678&#45;&gt;Node1683</title>
<path fill="none" stroke="#191970" d="M1567.156,-95.3825C1579.0804,-93.9606 1591.2674,-92.5074 1602.903,-91.12"/>
<polygon fill="#191970" stroke="#191970" points="1603.4505,-94.5796 1612.9657,-89.9201 1602.6217,-87.6288 1603.4505,-94.5796"/>
</g>
<!-- Node1680 -->
<g id="node16" class="node">
<title>Node1680</title>
<g id="a_node16"><a xlink:href="../../de/db8/classTextUtils.html#af0e4253de83781c52fcd24852666100f" target="_top" xlink:title=" ">
<polygon fill="#ffffff" stroke="#000000" points="1778,-155.5 1778,-174.5 1916,-174.5 1916,-155.5 1778,-155.5"/>
<text text-anchor="middle" x="1847" y="-162.5" font-family="Helvetica,sans-Serif" font-size="10.00" fill="#000000">TextUtils::isIllustratorFile</text>
</a>
</g>
</g>
<!-- Node1679&#45;&gt;Node1680 -->
<g id="edge17" class="edge">
<title>Node1679&#45;&gt;Node1680</title>
<path fill="none" stroke="#191970" d="M1739.0462,-141.6918C1756.7495,-145.5141 1775.5901,-149.582 1792.493,-153.2314"/>
<polygon fill="#191970" stroke="#191970" points="1792.2261,-156.7544 1802.7396,-155.4438 1793.7035,-149.9121 1792.2261,-156.7544"/>
</g>
<!-- Node1681 -->
<g id="node17" class="node">
<title>Node1681</title>
<g id="a_node17"><a xlink:href="../../de/db8/classTextUtils.html#a53e674684a7ceb29e742cae16c5e246b" target="_top" xlink:title=" ">
<polygon fill="#ffffff" stroke="#000000" points="1775,-117.5 1775,-136.5 1919,-136.5 1919,-117.5 1775,-117.5"/>
<text text-anchor="middle" x="1847" y="-124.5" font-family="Helvetica,sans-Serif" font-size="10.00" fill="#000000">TextUtils::convertToInches</text>
</a>
</g>
</g>
<!-- Node1679&#45;&gt;Node1681 -->
<g id="edge18" class="edge">
<title>Node1679&#45;&gt;Node1681</title>
<path fill="none" stroke="#191970" d="M1739.0462,-127C1747.4588,-127 1756.1282,-127 1764.7245,-127"/>
<polygon fill="#191970" stroke="#191970" points="1764.7624,-130.5001 1774.7623,-127 1764.7623,-123.5001 1764.7624,-130.5001"/>
</g>
<!-- Node1682 -->
<g id="node18" class="node">
<title>Node1682</title>
<g id="a_node18"><a xlink:href="../../de/db8/classTextUtils.html#a081f65f326bccb69ddec2919b692c479" target="_top" xlink:title=" ">
<polygon fill="#ffffff" stroke="#000000" points="1955,-98.5 1955,-117.5 2089,-117.5 2089,-98.5 1955,-98.5"/>
<text text-anchor="middle" x="2022" y="-105.5" font-family="Helvetica,sans-Serif" font-size="10.00" fill="#000000">TextUtils::chopNotDigits</text>
</a>
</g>
</g>
<!-- Node1679&#45;&gt;Node1682 -->
<g id="edge20" class="edge">
<title>Node1679&#45;&gt;Node1682</title>
<path fill="none" stroke="#191970" d="M1739.0081,-112.7573C1750.9516,-110.7773 1763.3011,-109.0599 1775,-108 1831.6169,-102.8707 1895.8337,-103.0539 1944.5961,-104.4228"/>
<polygon fill="#191970" stroke="#191970" points="1944.6569,-107.9262 1954.7586,-104.7315 1944.8695,-100.9294 1944.6569,-107.9262"/>
</g>
<!-- Node1681&#45;&gt;Node1682 -->
<g id="edge19" class="edge">
<title>Node1681&#45;&gt;Node1682</title>
<path fill="none" stroke="#191970" d="M1919.1895,-119.1623C1927.5566,-118.2539 1936.1163,-117.3245 1944.5499,-116.4089"/>
<polygon fill="#191970" stroke="#191970" points="1945.1892,-119.8601 1954.753,-115.3011 1944.4336,-112.901 1945.1892,-119.8601"/>
</g>
<!-- Node1687&#45;&gt;Node1669 -->
<g id="edge27" class="edge">
<title>Node1687&#45;&gt;Node1669</title>
<path fill="none" stroke="#191970" d="M571.3595,-244.0174C664.1898,-238.4291 820.6965,-225.8914 953,-200 977.6011,-195.1856 1004.6419,-187.3551 1025.7567,-180.6454"/>
<polygon fill="#191970" stroke="#191970" points="1026.8703,-183.9638 1035.3095,-177.5583 1024.7178,-177.303 1026.8703,-183.9638"/>
</g>
<!-- Node1688&#45;&gt;Node1669 -->
<g id="edge29" class="edge">
<title>Node1688&#45;&gt;Node1669</title>
<path fill="none" stroke="#191970" d="M758.8278,-163.1782C821.9747,-164.1793 912.5945,-165.6158 978.4871,-166.6603"/>
<polygon fill="#191970" stroke="#191970" points="978.7879,-170.1654 988.8422,-166.8244 978.8989,-163.1663 978.7879,-170.1654"/>
</g>
</g>
</svg>
