<?xml version="1.0" encoding="UTF-8" standalone="no"?>
<!DOCTYPE svg PUBLIC "-//W3C//DTD SVG 1.1//EN"
 "http://www.w3.org/Graphics/SVG/1.1/DTD/svg11.dtd">
<!-- Generated by graphviz version 2.40.1 (0)
 -->
<!-- Title: FSvgRenderer::calcTerminalPoint Pages: 1 -->
<svg width="347pt" height="66pt"
 viewBox="0.00 0.00 347.00 66.00" xmlns="http://www.w3.org/2000/svg" xmlns:xlink="http://www.w3.org/1999/xlink">
<g id="graph0" class="graph" transform="scale(1 1) rotate(0) translate(4 62)">
<title>FSvgRenderer::calcTerminalPoint</title>
<polygon fill="#ffffff" stroke="transparent" points="-4,4 -4,-62 343,-62 343,4 -4,4"/>
<!-- Node167 -->
<g id="node1" class="node">
<title>Node167</title>
<g id="a_node1"><a xlink:title=" ">
<polygon fill="#bfbfbf" stroke="#000000" points="0,-14 0,-44 152,-44 152,-14 0,-14"/>
<text text-anchor="start" x="8" y="-32" font-family="Helvetica,sans-Serif" font-size="10.00" fill="#000000">FSvgRenderer::calcTerminal</text>
<text text-anchor="middle" x="76" y="-21" font-family="Helvetica,sans-Serif" font-size="10.00" fill="#000000">Point</text>
</a>
</g>
</g>
<!-- Node168 -->
<g id="node2" class="node">
<title>Node168</title>
<g id="a_node2"><a xlink:href="../../da/d3a/classDebugDialog.html#ad26216d18945d7d7188420707b76f241" target="_top" xlink:title=" ">
<polygon fill="#ffffff" stroke="#000000" points="205.5,-38.5 205.5,-57.5 321.5,-57.5 321.5,-38.5 205.5,-38.5"/>
<text text-anchor="middle" x="263.5" y="-45.5" font-family="Helvetica,sans-Serif" font-size="10.00" fill="#000000">DebugDialog::debug</text>
</a>
</g>
</g>
<!-- Node167&#45;&gt;Node168 -->
<g id="edge1" class="edge">
<title>Node167&#45;&gt;Node168</title>
<path fill="none" stroke="#191970" d="M152.2634,-36.728C166.5408,-38.1748 181.3792,-39.6784 195.39,-41.0982"/>
<polygon fill="#191970" stroke="#191970" points="195.1239,-44.5891 205.4259,-42.1152 195.8297,-37.6247 195.1239,-44.5891"/>
</g>
<!-- Node169 -->
<g id="node3" class="node">
<title>Node169</title>
<g id="a_node3"><a xlink:href="../../df/db0/classFSvgRenderer.html#abfa59a6da2875e59a5ab3112fd644ade" target="_top" xlink:title=" ">
<polygon fill="#ffffff" stroke="#000000" points="188,-.5 188,-19.5 339,-19.5 339,-.5 188,-.5"/>
<text text-anchor="middle" x="263.5" y="-7.5" font-family="Helvetica,sans-Serif" font-size="10.00" fill="#000000">FSvgRenderer::defaultSizeF</text>
</a>
</g>
</g>
<!-- Node167&#45;&gt;Node169 -->
<g id="edge2" class="edge">
<title>Node167&#45;&gt;Node169</title>
<path fill="none" stroke="#191970" d="M152.2634,-21.272C160.7166,-20.4154 169.3664,-19.5389 177.9247,-18.6716"/>
<polygon fill="#191970" stroke="#191970" points="178.3159,-22.15 187.9121,-17.6596 177.6101,-15.1857 178.3159,-22.15"/>
</g>
</g>
</svg>
