<?xml version="1.0" encoding="UTF-8" standalone="no"?>
<!DOCTYPE svg PUBLIC "-//W3C//DTD SVG 1.1//EN"
 "http://www.w3.org/Graphics/SVG/1.1/DTD/svg11.dtd">
<!-- Generated by graphviz version 2.40.1 (0)
 -->
<!-- Title: SketchWidget::makeSwapWire Pages: 1 -->
<svg width="590pt" height="299pt"
 viewBox="0.00 0.00 590.00 299.00" xmlns="http://www.w3.org/2000/svg" xmlns:xlink="http://www.w3.org/1999/xlink">
<g id="graph0" class="graph" transform="scale(1 1) rotate(0) translate(4 295)">
<title>SketchWidget::makeSwapWire</title>
<polygon fill="#ffffff" stroke="transparent" points="-4,4 -4,-295 586,-295 586,4 -4,4"/>
<!-- Node14214 -->
<g id="node1" class="node">
<title>Node14214</title>
<g id="a_node1"><a xlink:title=" ">
<polygon fill="#bfbfbf" stroke="#000000" points="0,-120.5 0,-139.5 165,-139.5 165,-120.5 0,-120.5"/>
<text text-anchor="middle" x="82.5" y="-127.5" font-family="Helvetica,sans-Serif" font-size="10.00" fill="#000000">SketchWidget::makeSwapWire</text>
</a>
</g>
</g>
<!-- Node14215 -->
<g id="node2" class="node">
<title>Node14215</title>
<g id="a_node2"><a xlink:href="../../dc/d09/classNonConnectorItem.html#a8bddbd1259c61a57ba95d83150d57eaf" target="_top" xlink:title=" ">
<polygon fill="#ffffff" stroke="#000000" points="201,-252.5 201,-271.5 379,-271.5 379,-252.5 201,-252.5"/>
<text text-anchor="middle" x="290" y="-259.5" font-family="Helvetica,sans-Serif" font-size="10.00" fill="#000000">NonConnectorItem::attachedToID</text>
</a>
</g>
</g>
<!-- Node14214&#45;&gt;Node14215 -->
<g id="edge1" class="edge">
<title>Node14214&#45;&gt;Node14215</title>
<path fill="none" stroke="#191970" d="M89.5627,-139.7107C106.2391,-161.8712 150.4769,-216.3116 201,-243 205.5119,-245.3834 210.302,-247.4678 215.2281,-249.2908"/>
<polygon fill="#191970" stroke="#191970" points="214.2384,-252.65 224.8319,-252.484 216.447,-246.0076 214.2384,-252.65"/>
</g>
<!-- Node14218 -->
<g id="node5" class="node">
<title>Node14218</title>
<g id="a_node5"><a xlink:href="../../dc/d3a/classConnectorItem.html#aa255a20e50fe55ef1b3726abcd357991" target="_top" xlink:title=" ">
<polygon fill="#ffffff" stroke="#000000" points="216,-203 216,-233 364,-233 364,-203 216,-203"/>
<text text-anchor="start" x="224" y="-221" font-family="Helvetica,sans-Serif" font-size="10.00" fill="#000000">ConnectorItem::attachedTo</text>
<text text-anchor="middle" x="290" y="-210" font-family="Helvetica,sans-Serif" font-size="10.00" fill="#000000">ViewLayerID</text>
</a>
</g>
</g>
<!-- Node14214&#45;&gt;Node14218 -->
<g id="edge4" class="edge">
<title>Node14214&#45;&gt;Node14218</title>
<path fill="none" stroke="#191970" d="M98.0778,-139.6841C120.2517,-153.1387 162.5043,-177.5688 201,-193 207.1055,-195.4474 213.5372,-197.7519 220.0341,-199.8966"/>
<polygon fill="#191970" stroke="#191970" points="218.9789,-203.2337 229.5692,-202.9225 221.0963,-196.5616 218.9789,-203.2337"/>
</g>
<!-- Node14219 -->
<g id="node6" class="node">
<title>Node14219</title>
<g id="a_node6"><a xlink:href="../../d9/d65/classConnector.html#ad73c2d3ee77e78a9dea4aa47385954d7" target="_top" xlink:title=" ">
<polygon fill="#ffffff" stroke="#000000" points="208,-164.5 208,-183.5 372,-183.5 372,-164.5 208,-164.5"/>
<text text-anchor="middle" x="290" y="-171.5" font-family="Helvetica,sans-Serif" font-size="10.00" fill="#000000">Connector::connectorSharedID</text>
</a>
</g>
</g>
<!-- Node14214&#45;&gt;Node14219 -->
<g id="edge5" class="edge">
<title>Node14214&#45;&gt;Node14219</title>
<path fill="none" stroke="#191970" d="M127.5244,-139.5473C159.0662,-146.2357 201.4055,-155.2137 234.9553,-162.3279"/>
<polygon fill="#191970" stroke="#191970" points="234.5549,-165.8207 245.0635,-164.4713 236.007,-158.973 234.5549,-165.8207"/>
</g>
<!-- Node14220 -->
<g id="node7" class="node">
<title>Node14220</title>
<g id="a_node7"><a xlink:href="../../dc/d3a/classConnectorItem.html#aa22ed310cdf87c914bfad84ce759d66b" target="_top" xlink:title=" ">
<polygon fill="#ffffff" stroke="#000000" points="218.5,-115 218.5,-145 361.5,-145 361.5,-115 218.5,-115"/>
<text text-anchor="start" x="226.5" y="-133" font-family="Helvetica,sans-Serif" font-size="10.00" fill="#000000">ConnectorItem::connector</text>
<text text-anchor="middle" x="290" y="-122" font-family="Helvetica,sans-Serif" font-size="10.00" fill="#000000">SharedID</text>
</a>
</g>
</g>
<!-- Node14214&#45;&gt;Node14220 -->
<g id="edge6" class="edge">
<title>Node14214&#45;&gt;Node14220</title>
<path fill="none" stroke="#191970" d="M165.1057,-130C179.293,-130 194.0311,-130 208.1972,-130"/>
<polygon fill="#191970" stroke="#191970" points="208.3951,-133.5001 218.3951,-130 208.395,-126.5001 208.3951,-133.5001"/>
</g>
<!-- Node14221 -->
<g id="node8" class="node">
<title>Node14221</title>
<g id="a_node8"><a xlink:href="../../d4/d4f/classItemBase.html#ae000103e2c77f8ffe4e11f9e08e054da" target="_top" xlink:title=" ">
<polygon fill="#ffffff" stroke="#000000" points="230.5,-76.5 230.5,-95.5 349.5,-95.5 349.5,-76.5 230.5,-76.5"/>
<text text-anchor="middle" x="290" y="-83.5" font-family="Helvetica,sans-Serif" font-size="10.00" fill="#000000">ItemBase::getNextID</text>
</a>
</g>
</g>
<!-- Node14214&#45;&gt;Node14221 -->
<g id="edge7" class="edge">
<title>Node14214&#45;&gt;Node14221</title>
<path fill="none" stroke="#191970" d="M127.5244,-120.4527C159.0662,-113.7643 201.4055,-104.7863 234.9553,-97.6721"/>
<polygon fill="#191970" stroke="#191970" points="236.007,-101.027 245.0635,-95.5287 234.5549,-94.1793 236.007,-101.027"/>
</g>
<!-- Node14223 -->
<g id="node10" class="node">
<title>Node14223</title>
<g id="a_node10"><a xlink:href="../../d5/d9d/classViewLayer.html#a44b443b6ce5756595b7faaaac510c6ef" target="_top" xlink:title=" ">
<polygon fill="#ffffff" stroke="#000000" points="224.5,-38.5 224.5,-57.5 355.5,-57.5 355.5,-38.5 224.5,-38.5"/>
<text text-anchor="middle" x="290" y="-45.5" font-family="Helvetica,sans-Serif" font-size="10.00" fill="#000000">ViewLayer::specFromID</text>
</a>
</g>
</g>
<!-- Node14214&#45;&gt;Node14223 -->
<g id="edge9" class="edge">
<title>Node14214&#45;&gt;Node14223</title>
<path fill="none" stroke="#191970" d="M97.2122,-120.4363C119.0192,-106.6728 161.5959,-81.3606 201,-67 208.3063,-64.3373 216.0929,-61.9961 223.9052,-59.9513"/>
<polygon fill="#191970" stroke="#191970" points="224.9082,-63.3089 233.7802,-57.5177 223.2332,-56.5122 224.9082,-63.3089"/>
</g>
<!-- Node14225 -->
<g id="node12" class="node">
<title>Node14225</title>
<g id="a_node12"><a xlink:href="../../d4/d4f/classItemBase.html#a3dd3d84b0fdadf869b2bbd87f42ec156" target="_top" xlink:title=" ">
<polygon fill="#ffffff" stroke="#000000" points="204.5,-.5 204.5,-19.5 375.5,-19.5 375.5,-.5 204.5,-.5"/>
<text text-anchor="middle" x="290" y="-7.5" font-family="Helvetica,sans-Serif" font-size="10.00" fill="#000000">ItemBase::viewLayerPlacement</text>
</a>
</g>
</g>
<!-- Node14214&#45;&gt;Node14225 -->
<g id="edge11" class="edge">
<title>Node14214&#45;&gt;Node14225</title>
<path fill="none" stroke="#191970" d="M90.5995,-120.4409C108.3605,-100.1439 152.9954,-52.6693 201,-29 205.9597,-26.5545 211.2269,-24.4226 216.6247,-22.5642"/>
<polygon fill="#191970" stroke="#191970" points="217.9369,-25.8214 226.4436,-19.5058 215.8552,-19.1381 217.9369,-25.8214"/>
</g>
<!-- Node14216 -->
<g id="node3" class="node">
<title>Node14216</title>
<g id="a_node3"><a xlink:href="../../dc/d09/classNonConnectorItem.html#a1452f3637c83b50fbd089f9c4b4518b6" target="_top" xlink:title=" ">
<polygon fill="#ffffff" stroke="#000000" points="415,-271.5 415,-290.5 582,-290.5 582,-271.5 415,-271.5"/>
<text text-anchor="middle" x="498.5" y="-278.5" font-family="Helvetica,sans-Serif" font-size="10.00" fill="#000000">NonConnectorItem::attachedTo</text>
</a>
</g>
</g>
<!-- Node14215&#45;&gt;Node14216 -->
<g id="edge2" class="edge">
<title>Node14215&#45;&gt;Node14216</title>
<path fill="none" stroke="#191970" d="M379.0275,-270.1128C387.5398,-270.8885 396.1904,-271.6768 404.7457,-272.4564"/>
<polygon fill="#191970" stroke="#191970" points="404.4548,-275.9443 414.7312,-273.3664 405.0901,-268.9732 404.4548,-275.9443"/>
</g>
<!-- Node14217 -->
<g id="node4" class="node">
<title>Node14217</title>
<g id="a_node4"><a xlink:href="../../d4/d4f/classItemBase.html#a27afd199a7ae3c3fd14e88ed0be14420" target="_top" xlink:title=" ">
<polygon fill="#ffffff" stroke="#000000" points="459.5,-233.5 459.5,-252.5 537.5,-252.5 537.5,-233.5 459.5,-233.5"/>
<text text-anchor="middle" x="498.5" y="-240.5" font-family="Helvetica,sans-Serif" font-size="10.00" fill="#000000">ItemBase::id</text>
</a>
</g>
</g>
<!-- Node14215&#45;&gt;Node14217 -->
<g id="edge3" class="edge">
<title>Node14215&#45;&gt;Node14217</title>
<path fill="none" stroke="#191970" d="M379.0275,-253.8872C403.1876,-251.6855 428.4623,-249.3823 449.51,-247.4643"/>
<polygon fill="#191970" stroke="#191970" points="449.8385,-250.949 459.4796,-246.5558 449.2032,-243.9779 449.8385,-250.949"/>
</g>
<!-- Node14222 -->
<g id="node9" class="node">
<title>Node14222</title>
<g id="a_node9"><a xlink:href="../../d4/d72/classModelPart.html#af580863cf392f55be038e94d5189e368" target="_top" xlink:title=" ">
<polygon fill="#ffffff" stroke="#000000" points="438.5,-76.5 438.5,-95.5 558.5,-95.5 558.5,-76.5 438.5,-76.5"/>
<text text-anchor="middle" x="498.5" y="-83.5" font-family="Helvetica,sans-Serif" font-size="10.00" fill="#000000">ModelPart::nextIndex</text>
</a>
</g>
</g>
<!-- Node14221&#45;&gt;Node14222 -->
<g id="edge8" class="edge">
<title>Node14221&#45;&gt;Node14222</title>
<path fill="none" stroke="#191970" d="M349.7477,-86C374.179,-86 402.6245,-86 428.0591,-86"/>
<polygon fill="#191970" stroke="#191970" points="428.3823,-89.5001 438.3822,-86 428.3822,-82.5001 428.3823,-89.5001"/>
</g>
<!-- Node14224 -->
<g id="node11" class="node">
<title>Node14224</title>
<g id="a_node11"><a xlink:href="../../d5/d9d/classViewLayer.html#acda6179880454250f27ee4ed167b6983" target="_top" xlink:title=" ">
<polygon fill="#ffffff" stroke="#000000" points="431.5,-38.5 431.5,-57.5 565.5,-57.5 565.5,-38.5 431.5,-38.5"/>
<text text-anchor="middle" x="498.5" y="-45.5" font-family="Helvetica,sans-Serif" font-size="10.00" fill="#000000">ViewLayer::viewLayerID</text>
</a>
</g>
</g>
<!-- Node14223&#45;&gt;Node14224 -->
<g id="edge10" class="edge">
<title>Node14223&#45;&gt;Node14224</title>
<path fill="none" stroke="#191970" d="M355.6845,-48C376.4999,-48 399.7032,-48 421.2531,-48"/>
<polygon fill="#191970" stroke="#191970" points="421.3513,-51.5001 431.3513,-48 421.3513,-44.5001 421.3513,-51.5001"/>
</g>
</g>
</svg>
