<?xml version="1.0" encoding="UTF-8" standalone="no"?>
<!DOCTYPE svg PUBLIC "-//W3C//DTD SVG 1.1//EN"
 "http://www.w3.org/Graphics/SVG/1.1/DTD/svg11.dtd">
<!-- Generated by graphviz version 2.40.1 (0)
 -->
<!-- Title: PartsEditorView::getLayers Pages: 1 -->
<!--zoomable 127 -->
<svg id="main" version="1.1" xmlns="http://www.w3.org/2000/svg" xmlns:xlink="http://www.w3.org/1999/xlink" xml:space="preserve" onload="init(evt)">
<style type="text/css"><![CDATA[
.edge:hover path { stroke: red; }
.edge:hover polygon { stroke: red; fill: red; }
]]></style>
<script type="text/javascript"><![CDATA[
var edges = document.getElementsByTagName('g');
if (edges && edges.length) {
  for (var i=0;i<edges.length;i++) {
    if (edges[i].id.substr(0,4)=='edge') {
      edges[i].setAttribute('class','edge');
    }
  }
}
]]></script>
        <defs>
                <circle id="rim" cx="0" cy="0" r="7"/>
                <circle id="rim2" cx="0" cy="0" r="3.5"/>
                <g id="zoomPlus">
                        <use xlink:href="#rim" fill="#404040">
                                <set attributeName="fill" to="#808080" begin="zoomplus.mouseover" end="zoomplus.mouseout"/>
                        </use>
                        <path d="M-4,0h8M0,-4v8" fill="none" stroke="white" stroke-width="1.5" pointer-events="none"/>
                </g>
                <g id="zoomMin">
                        <use xlink:href="#rim" fill="#404040">
                                <set attributeName="fill" to="#808080" begin="zoomminus.mouseover" end="zoomminus.mouseout"/>
                        </use>
                        <path d="M-4,0h8" fill="none" stroke="white" stroke-width="1.5" pointer-events="none"/>
                </g>
                <g id="dirArrow">
                        <path fill="none" stroke="white" stroke-width="1.5" d="M0,-3.0v7 M-2.5,-0.5L0,-3.0L2.5,-0.5"/>
                </g>
               <g id="resetDef">
                       <use xlink:href="#rim2" fill="#404040">
                               <set attributeName="fill" to="#808080" begin="reset.mouseover" end="reset.mouseout"/>
                       </use>
               </g>
        </defs>

<script type="text/javascript">
var viewWidth = 702;
var viewHeight = 127;
var sectionId = 'dynsection-102';
</script>
<script xlink:href="../../svgpan.js"/>
<svg id="graph" class="graph">
<g id="viewport">
<title>PartsEditorView::getLayers</title>
<polygon fill="#ffffff" stroke="transparent" points="-4,4 -4,-123 698,-123 698,4 -4,4"/>
<!-- Node1186 -->
<g id="node1" class="node">
<title>Node1186</title>
<g id="a_node1"><a xlink:title=" ">
<polygon fill="#bfbfbf" stroke="#000000" points="0,-50 0,-69 146,-69 146,-50 0,-50"/>
<text text-anchor="middle" x="73" y="-57" font-family="Helvetica,sans-Serif" font-size="10.00" fill="#000000">PartsEditorView::getLayers</text>
</a>
</g>
</g>
<!-- Node1187 -->
<g id="node2" class="node">
<title>Node1187</title>
<g id="a_node2"><a xlink:href="../../d8/d37/classPartsEditorView.html#a03a26c1577a179e9a590c723208ce00b" target="_top" xlink:title=" ">
<polygon fill="#ffffff" stroke="#000000" points="182,-44.5 182,-74.5 315,-74.5 315,-44.5 182,-44.5"/>
<text text-anchor="start" x="190" y="-62.5" font-family="Helvetica,sans-Serif" font-size="10.00" fill="#000000">PartsEditorView::default</text>
<text text-anchor="middle" x="248.5" y="-51.5" font-family="Helvetica,sans-Serif" font-size="10.00" fill="#000000">LayerAsStringlist</text>
</a>
</g>
</g>
<!-- Node1186&#45;&gt;Node1187 -->
<g id="edge1" class="edge">
<title>Node1186&#45;&gt;Node1187</title>
<path fill="none" stroke="#191970" d="M146.157,-59.5C154.5821,-59.5 163.1918,-59.5 171.6638,-59.5"/>
<polygon fill="#191970" stroke="#191970" points="171.9076,-63.0001 181.9076,-59.5 171.9075,-56.0001 171.9076,-63.0001"/>
</g>
<!-- Node1188 -->
<g id="node3" class="node">
<title>Node1188</title>
<g id="a_node3"><a xlink:href="../../d8/d37/classPartsEditorView.html#a1b22aa5e8c131e076b6533be88f01957" target="_top" xlink:title=" ">
<polygon fill="#ffffff" stroke="#000000" points="371,-88.5 371,-118.5 504,-118.5 504,-88.5 371,-88.5"/>
<text text-anchor="start" x="379" y="-106.5" font-family="Helvetica,sans-Serif" font-size="10.00" fill="#000000">PartsEditorView::default</text>
<text text-anchor="middle" x="437.5" y="-95.5" font-family="Helvetica,sans-Serif" font-size="10.00" fill="#000000">Layers</text>
</a>
</g>
</g>
<!-- Node1187&#45;&gt;Node1188 -->
<g id="edge2" class="edge">
<title>Node1187&#45;&gt;Node1188</title>
<path fill="none" stroke="#191970" d="M313.0145,-74.5192C329.0433,-78.2508 346.3563,-82.2814 362.8276,-86.116"/>
<polygon fill="#191970" stroke="#191970" points="362.4224,-89.6152 372.9556,-88.4738 364.0097,-82.7975 362.4224,-89.6152"/>
</g>
<!-- Node1189 -->
<g id="node4" class="node">
<title>Node1189</title>
<g id="a_node4"><a xlink:href="../../d9/db4/modelpartshared_8cpp.html#a83794b1bad8a09e58fa912a9e319f2c7" target="_top" xlink:title=" ">
<polygon fill="#ffffff" stroke="#000000" points="603.5,-72 603.5,-91 650.5,-91 650.5,-72 603.5,-72"/>
<text text-anchor="middle" x="627" y="-79" font-family="Helvetica,sans-Serif" font-size="10.00" fill="#000000">layers</text>
</a>
</g>
</g>
<!-- Node1187&#45;&gt;Node1189 -->
<g id="edge4" class="edge">
<title>Node1187&#45;&gt;Node1189</title>
<path fill="none" stroke="#191970" d="M315.2969,-63.3825C396.5481,-68.1052 530.5728,-75.8952 593.0167,-79.5247"/>
<polygon fill="#191970" stroke="#191970" points="592.925,-83.0252 603.1113,-80.1115 593.3313,-76.037 592.925,-83.0252"/>
</g>
<!-- Node1190 -->
<g id="node5" class="node">
<title>Node1190</title>
<g id="a_node5"><a xlink:href="../../d5/d9d/classViewLayer.html#a57a288e6d73ae234b8a739f20964e026" target="_top" xlink:title=" ">
<polygon fill="#ffffff" stroke="#000000" points="351,-.5 351,-30.5 524,-30.5 524,-.5 351,-.5"/>
<text text-anchor="start" x="359" y="-18.5" font-family="Helvetica,sans-Serif" font-size="10.00" fill="#000000">ViewLayer::viewLayerXmlName</text>
<text text-anchor="middle" x="437.5" y="-7.5" font-family="Helvetica,sans-Serif" font-size="10.00" fill="#000000">FromID</text>
</a>
</g>
</g>
<!-- Node1187&#45;&gt;Node1190 -->
<g id="edge5" class="edge">
<title>Node1187&#45;&gt;Node1190</title>
<path fill="none" stroke="#191970" d="M313.0145,-44.4808C329.0433,-40.7492 346.3563,-36.7186 362.8276,-32.884"/>
<polygon fill="#191970" stroke="#191970" points="364.0097,-36.2025 372.9556,-30.5262 362.4224,-29.3848 364.0097,-36.2025"/>
</g>
<!-- Node1188&#45;&gt;Node1189 -->
<g id="edge3" class="edge">
<title>Node1188&#45;&gt;Node1189</title>
<path fill="none" stroke="#191970" d="M504.0441,-95.7746C534.2782,-92.2645 568.7281,-88.2651 593.4556,-85.3943"/>
<polygon fill="#191970" stroke="#191970" points="593.8875,-88.8678 603.4172,-84.2379 593.0802,-81.9145 593.8875,-88.8678"/>
</g>
<!-- Node1191 -->
<g id="node6" class="node">
<title>Node1191</title>
<g id="a_node6"><a xlink:href="../../d5/d9d/classViewLayer.html#acda6179880454250f27ee4ed167b6983" target="_top" xlink:title=" ">
<polygon fill="#ffffff" stroke="#000000" points="560,-6 560,-25 694,-25 694,-6 560,-6"/>
<text text-anchor="middle" x="627" y="-13" font-family="Helvetica,sans-Serif" font-size="10.00" fill="#000000">ViewLayer::viewLayerID</text>
</a>
</g>
</g>
<!-- Node1190&#45;&gt;Node1191 -->
<g id="edge6" class="edge">
<title>Node1190&#45;&gt;Node1191</title>
<path fill="none" stroke="#191970" d="M524.2086,-15.5C532.7307,-15.5 541.3402,-15.5 549.7586,-15.5"/>
<polygon fill="#191970" stroke="#191970" points="549.9139,-19.0001 559.9139,-15.5 549.9138,-12.0001 549.9139,-19.0001"/>
</g>
</g>
</svg>
        <g id="navigator" transform="translate(0 0)" fill="#404254">
                <rect fill="#f2f5e9" fill-opacity="0.5" stroke="#606060" stroke-width=".5" x="0" y="0" width="60" height="60"/>
                <use id="zoomplus" xlink:href="#zoomPlus" x="17" y="9" onmousedown="handleZoom(evt,'in')"/>
                <use id="zoomminus" xlink:href="#zoomMin" x="42" y="9" onmousedown="handleZoom(evt,'out')"/>
                <use id="reset" xlink:href="#resetDef" x="30" y="36" onmousedown="handleReset()"/>
                <g id="arrowUp" xlink:href="#dirArrow" transform="translate(30 24)" onmousedown="handlePan(0,-1)">
                  <use xlink:href="#rim" fill="#404040">
                        <set attributeName="fill" to="#808080" begin="arrowUp.mouseover" end="arrowUp.mouseout"/>
                  </use>
                  <path fill="none" stroke="white" stroke-width="1.5" d="M0,-3.0v7 M-2.5,-0.5L0,-3.0L2.5,-0.5"/>
                </g>
                <g id="arrowRight" xlink:href="#dirArrow" transform="rotate(90) translate(36 -43)" onmousedown="handlePan(1,0)">
                  <use xlink:href="#rim" fill="#404040">
                        <set attributeName="fill" to="#808080" begin="arrowRight.mouseover" end="arrowRight.mouseout"/>
                  </use>
                  <path fill="none" stroke="white" stroke-width="1.5" d="M0,-3.0v7 M-2.5,-0.5L0,-3.0L2.5,-0.5"/>
                </g>
                <g id="arrowDown" xlink:href="#dirArrow" transform="rotate(180) translate(-30 -48)" onmousedown="handlePan(0,1)">
                  <use xlink:href="#rim" fill="#404040">
                        <set attributeName="fill" to="#808080" begin="arrowDown.mouseover" end="arrowDown.mouseout"/>
                  </use>
                  <path fill="none" stroke="white" stroke-width="1.5" d="M0,-3.0v7 M-2.5,-0.5L0,-3.0L2.5,-0.5"/>
                </g>
                <g id="arrowLeft" xlink:href="#dirArrow" transform="rotate(270) translate(-36 17)" onmousedown="handlePan(-1,0)">
                  <use xlink:href="#rim" fill="#404040">
                        <set attributeName="fill" to="#808080" begin="arrowLeft.mouseover" end="arrowLeft.mouseout"/>
                  </use>
                  <path fill="none" stroke="white" stroke-width="1.5" d="M0,-3.0v7 M-2.5,-0.5L0,-3.0L2.5,-0.5"/>
                </g>
        </g>
        <svg viewBox="0 0 15 15" width="100%" height="30px" preserveAspectRatio="xMaxYMin meet">
         <g id="arrow_out" transform="scale(0.3 0.3)">
          <a xlink:href="classPartsEditorView_ae63de6fdaed6e21969b4cc35be4b81df_cgraph_org.svg" target="_base">
           <rect id="button" ry="5" rx="5" y="6" x="6" height="38" width="38"
                fill="#f2f5e9" fill-opacity="0.5" stroke="#606060" stroke-width="1.0"/>
           <path id="arrow"
             d="M 11.500037,31.436501 C 11.940474,20.09759 22.043105,11.32322 32.158766,21.979434 L 37.068811,17.246167 C 37.068811,17.246167 37.088388,32 37.088388,32 L 22.160133,31.978069 C 22.160133,31.978069 26.997745,27.140456 26.997745,27.140456 C 18.528582,18.264221 13.291696,25.230495 11.500037,31.436501 z"
             style="fill:#404040;"/>
          </a>
         </g>
        </svg>
</svg>
