<?xml version="1.0" encoding="UTF-8" standalone="no"?>
<!DOCTYPE svg PUBLIC "-//W3C//DTD SVG 1.1//EN"
 "http://www.w3.org/Graphics/SVG/1.1/DTD/svg11.dtd">
<!-- Generated by graphviz version 2.40.1 (0)
 -->
<!-- Title: SketchWidget::traceColor Pages: 1 -->
<!--zoomable 78 -->
<svg id="main" version="1.1" xmlns="http://www.w3.org/2000/svg" xmlns:xlink="http://www.w3.org/1999/xlink" xml:space="preserve" onload="init(evt)">
<style type="text/css"><![CDATA[
.edge:hover path { stroke: red; }
.edge:hover polygon { stroke: red; fill: red; }
]]></style>
<script type="text/javascript"><![CDATA[
var edges = document.getElementsByTagName('g');
if (edges && edges.length) {
  for (var i=0;i<edges.length;i++) {
    if (edges[i].id.substr(0,4)=='edge') {
      edges[i].setAttribute('class','edge');
    }
  }
}
]]></script>
        <defs>
                <circle id="rim" cx="0" cy="0" r="7"/>
                <circle id="rim2" cx="0" cy="0" r="3.5"/>
                <g id="zoomPlus">
                        <use xlink:href="#rim" fill="#404040">
                                <set attributeName="fill" to="#808080" begin="zoomplus.mouseover" end="zoomplus.mouseout"/>
                        </use>
                        <path d="M-4,0h8M0,-4v8" fill="none" stroke="white" stroke-width="1.5" pointer-events="none"/>
                </g>
                <g id="zoomMin">
                        <use xlink:href="#rim" fill="#404040">
                                <set attributeName="fill" to="#808080" begin="zoomminus.mouseover" end="zoomminus.mouseout"/>
                        </use>
                        <path d="M-4,0h8" fill="none" stroke="white" stroke-width="1.5" pointer-events="none"/>
                </g>
                <g id="dirArrow">
                        <path fill="none" stroke="white" stroke-width="1.5" d="M0,-3.0v7 M-2.5,-0.5L0,-3.0L2.5,-0.5"/>
                </g>
               <g id="resetDef">
                       <use xlink:href="#rim2" fill="#404040">
                               <set attributeName="fill" to="#808080" begin="reset.mouseover" end="reset.mouseout"/>
                       </use>
               </g>
        </defs>

<script type="text/javascript">
var viewWidth = 769;
var viewHeight = 78;
var sectionId = 'dynsection-586';
</script>
<script xlink:href="../../svgpan.js"/>
<svg id="graph" class="graph">
<g id="viewport">
<title>SketchWidget::traceColor</title>
<polygon fill="#ffffff" stroke="transparent" points="-4,4 -4,-73.5 765,-73.5 765,4 -4,4"/>
<!-- Node23139 -->
<g id="node1" class="node">
<title>Node23139</title>
<g id="a_node1"><a xlink:title=" ">
<polygon fill="#bfbfbf" stroke="#000000" points="621,-22.5 621,-41.5 761,-41.5 761,-22.5 621,-22.5"/>
<text text-anchor="middle" x="691" y="-29.5" font-family="Helvetica,sans-Serif" font-size="10.00" fill="#000000">SketchWidget::traceColor</text>
</a>
</g>
</g>
<!-- Node23140 -->
<g id="node2" class="node">
<title>Node23140</title>
<g id="a_node2"><a xlink:href="../../d8/d37/classSketchWidget.html#a2cfd0c81e2bf6272f75a93ddf0ebd34e" target="_top" xlink:title=" ">
<polygon fill="#ffffff" stroke="#000000" points="425.5,-39 425.5,-69 579.5,-69 579.5,-39 425.5,-39"/>
<text text-anchor="start" x="433.5" y="-57" font-family="Helvetica,sans-Serif" font-size="10.00" fill="#000000">SketchWidget::dragRatsnest</text>
<text text-anchor="middle" x="502.5" y="-46" font-family="Helvetica,sans-Serif" font-size="10.00" fill="#000000">Changed</text>
</a>
</g>
</g>
<!-- Node23139&#45;&gt;Node23140 -->
<g id="edge1" class="edge">
<title>Node23139&#45;&gt;Node23140</title>
<path fill="none" stroke="#191970" d="M610.649,-41.3778C600.3951,-42.5746 589.9168,-43.7975 579.7141,-44.9883"/>
<polygon fill="#191970" stroke="#191970" points="611.2827,-44.8277 620.8096,-40.192 610.4712,-37.8749 611.2827,-44.8277"/>
</g>
<!-- Node23143 -->
<g id="node5" class="node">
<title>Node23143</title>
<g id="a_node5"><a xlink:href="../../d8/d37/classSketchWidget.html#a5774a56244e44363e0254f61ff4b6bcf" target="_top" xlink:title=" ">
<polygon fill="#ffffff" stroke="#000000" points="420,-.5 420,-19.5 585,-19.5 585,-.5 420,-.5"/>
<text text-anchor="middle" x="502.5" y="-7.5" font-family="Helvetica,sans-Serif" font-size="10.00" fill="#000000">SketchWidget::createOneTrace</text>
</a>
</g>
</g>
<!-- Node23139&#45;&gt;Node23143 -->
<g id="edge4" class="edge">
<title>Node23139&#45;&gt;Node23143</title>
<path fill="none" stroke="#191970" d="M610.629,-22.6198C601.8769,-21.5984 592.9615,-20.5578 584.1938,-19.5346"/>
<polygon fill="#191970" stroke="#191970" points="610.4712,-26.1251 620.8096,-23.808 611.2827,-19.1723 610.4712,-26.1251"/>
</g>
<!-- Node23141 -->
<g id="node3" class="node">
<title>Node23141</title>
<g id="a_node3"><a xlink:href="../../d8/d37/classSketchWidget.html#aa9f037df16678b343be1d3d72f07e6ca" target="_top" xlink:title=" ">
<polygon fill="#ffffff" stroke="#000000" points="208,-44.5 208,-63.5 384,-63.5 384,-44.5 208,-44.5"/>
<text text-anchor="middle" x="296" y="-51.5" font-family="Helvetica,sans-Serif" font-size="10.00" fill="#000000">SketchWidget::dragWireChanged</text>
</a>
</g>
</g>
<!-- Node23140&#45;&gt;Node23141 -->
<g id="edge2" class="edge">
<title>Node23140&#45;&gt;Node23141</title>
<path fill="none" stroke="#191970" d="M415.1588,-54C404.9175,-54 394.4623,-54 384.2093,-54"/>
<polygon fill="#191970" stroke="#191970" points="415.3134,-57.5001 425.3134,-54 415.3133,-50.5001 415.3134,-57.5001"/>
</g>
<!-- Node23142 -->
<g id="node4" class="node">
<title>Node23142</title>
<g id="a_node4"><a xlink:href="../../d8/d37/classSketchWidget.html#a5130555b7d18e1a17cc3387b36d1f639" target="_top" xlink:title=" ">
<polygon fill="#ffffff" stroke="#000000" points="0,-44.5 0,-63.5 172,-63.5 172,-44.5 0,-44.5"/>
<text text-anchor="middle" x="86" y="-51.5" font-family="Helvetica,sans-Serif" font-size="10.00" fill="#000000">SketchWidget::wireChangedSlot</text>
</a>
</g>
</g>
<!-- Node23141&#45;&gt;Node23142 -->
<g id="edge3" class="edge">
<title>Node23141&#45;&gt;Node23142</title>
<path fill="none" stroke="#191970" d="M197.5755,-54C189.1137,-54 180.5946,-54 172.2394,-54"/>
<polygon fill="#191970" stroke="#191970" points="197.8539,-57.5001 207.8539,-54 197.8538,-50.5001 197.8539,-57.5001"/>
</g>
<!-- Node23144 -->
<g id="node6" class="node">
<title>Node23144</title>
<g id="a_node6"><a xlink:href="../../d8/d37/classSketchWidget.html#ad7f65c4abe253125ddb88f143445dbb2" target="_top" xlink:title=" ">
<polygon fill="#ffffff" stroke="#000000" points="223,-.5 223,-19.5 369,-19.5 369,-.5 223,-.5"/>
<text text-anchor="middle" x="296" y="-7.5" font-family="Helvetica,sans-Serif" font-size="10.00" fill="#000000">SketchWidget::createTrace</text>
</a>
</g>
</g>
<!-- Node23143&#45;&gt;Node23144 -->
<g id="edge5" class="edge">
<title>Node23143&#45;&gt;Node23144</title>
<path fill="none" stroke="#191970" d="M409.6476,-10C396.0328,-10 382.1744,-10 369.0323,-10"/>
<polygon fill="#191970" stroke="#191970" points="409.9955,-13.5001 419.9955,-10 409.9954,-6.5001 409.9955,-13.5001"/>
</g>
</g>
</svg>
        <g id="navigator" transform="translate(0 0)" fill="#404254">
                <rect fill="#f2f5e9" fill-opacity="0.5" stroke="#606060" stroke-width=".5" x="0" y="0" width="60" height="60"/>
                <use id="zoomplus" xlink:href="#zoomPlus" x="17" y="9" onmousedown="handleZoom(evt,'in')"/>
                <use id="zoomminus" xlink:href="#zoomMin" x="42" y="9" onmousedown="handleZoom(evt,'out')"/>
                <use id="reset" xlink:href="#resetDef" x="30" y="36" onmousedown="handleReset()"/>
                <g id="arrowUp" xlink:href="#dirArrow" transform="translate(30 24)" onmousedown="handlePan(0,-1)">
                  <use xlink:href="#rim" fill="#404040">
                        <set attributeName="fill" to="#808080" begin="arrowUp.mouseover" end="arrowUp.mouseout"/>
                  </use>
                  <path fill="none" stroke="white" stroke-width="1.5" d="M0,-3.0v7 M-2.5,-0.5L0,-3.0L2.5,-0.5"/>
                </g>
                <g id="arrowRight" xlink:href="#dirArrow" transform="rotate(90) translate(36 -43)" onmousedown="handlePan(1,0)">
                  <use xlink:href="#rim" fill="#404040">
                        <set attributeName="fill" to="#808080" begin="arrowRight.mouseover" end="arrowRight.mouseout"/>
                  </use>
                  <path fill="none" stroke="white" stroke-width="1.5" d="M0,-3.0v7 M-2.5,-0.5L0,-3.0L2.5,-0.5"/>
                </g>
                <g id="arrowDown" xlink:href="#dirArrow" transform="rotate(180) translate(-30 -48)" onmousedown="handlePan(0,1)">
                  <use xlink:href="#rim" fill="#404040">
                        <set attributeName="fill" to="#808080" begin="arrowDown.mouseover" end="arrowDown.mouseout"/>
                  </use>
                  <path fill="none" stroke="white" stroke-width="1.5" d="M0,-3.0v7 M-2.5,-0.5L0,-3.0L2.5,-0.5"/>
                </g>
                <g id="arrowLeft" xlink:href="#dirArrow" transform="rotate(270) translate(-36 17)" onmousedown="handlePan(-1,0)">
                  <use xlink:href="#rim" fill="#404040">
                        <set attributeName="fill" to="#808080" begin="arrowLeft.mouseover" end="arrowLeft.mouseout"/>
                  </use>
                  <path fill="none" stroke="white" stroke-width="1.5" d="M0,-3.0v7 M-2.5,-0.5L0,-3.0L2.5,-0.5"/>
                </g>
        </g>
        <svg viewBox="0 0 15 15" width="100%" height="30px" preserveAspectRatio="xMaxYMin meet">
         <g id="arrow_out" transform="scale(0.3 0.3)">
          <a xlink:href="classSketchWidget_a146126e92125433a53585f01d433404e_icgraph_org.svg" target="_base">
           <rect id="button" ry="5" rx="5" y="6" x="6" height="38" width="38"
                fill="#f2f5e9" fill-opacity="0.5" stroke="#606060" stroke-width="1.0"/>
           <path id="arrow"
             d="M 11.500037,31.436501 C 11.940474,20.09759 22.043105,11.32322 32.158766,21.979434 L 37.068811,17.246167 C 37.068811,17.246167 37.088388,32 37.088388,32 L 22.160133,31.978069 C 22.160133,31.978069 26.997745,27.140456 26.997745,27.140456 C 18.528582,18.264221 13.291696,25.230495 11.500037,31.436501 z"
             style="fill:#404040;"/>
          </a>
         </g>
        </svg>
</svg>
