<?xml version="1.0" encoding="UTF-8" standalone="no"?>
<!DOCTYPE svg PUBLIC "-//W3C//DTD SVG 1.1//EN"
 "http://www.w3.org/Graphics/SVG/1.1/DTD/svg11.dtd">
<!-- Generated by graphviz version 2.40.1 (0)
 -->
<!-- Title: SketchWidget::showPartLabel Pages: 1 -->
<svg width="530pt" height="154pt"
 viewBox="0.00 0.00 530.00 154.00" xmlns="http://www.w3.org/2000/svg" xmlns:xlink="http://www.w3.org/1999/xlink">
<g id="graph0" class="graph" transform="scale(1 1) rotate(0) translate(4 150)">
<title>SketchWidget::showPartLabel</title>
<polygon fill="#ffffff" stroke="transparent" points="-4,4 -4,-150 526,-150 526,4 -4,4"/>
<!-- Node22198 -->
<g id="node1" class="node">
<title>Node22198</title>
<g id="a_node1"><a xlink:title=" ">
<polygon fill="#bfbfbf" stroke="#000000" points="0,-44.5 0,-63.5 160,-63.5 160,-44.5 0,-44.5"/>
<text text-anchor="middle" x="80" y="-51.5" font-family="Helvetica,sans-Serif" font-size="10.00" fill="#000000">SketchWidget::showPartLabel</text>
</a>
</g>
</g>
<!-- Node22199 -->
<g id="node2" class="node">
<title>Node22199</title>
<g id="a_node2"><a xlink:href="../../d8/d37/classSketchWidget.html#a8e2ae23ef1e4c2ad993e0c3985e5c3ba" target="_top" xlink:title=" ">
<polygon fill="#ffffff" stroke="#000000" points="208.5,-88.5 208.5,-107.5 338.5,-107.5 338.5,-88.5 208.5,-88.5"/>
<text text-anchor="middle" x="273.5" y="-95.5" font-family="Helvetica,sans-Serif" font-size="10.00" fill="#000000">SketchWidget::findItem</text>
</a>
</g>
</g>
<!-- Node22198&#45;&gt;Node22199 -->
<g id="edge1" class="edge">
<title>Node22198&#45;&gt;Node22199</title>
<path fill="none" stroke="#191970" d="M121.9866,-63.5473C151.2735,-70.2069 190.5428,-79.1363 221.7642,-86.2358"/>
<polygon fill="#191970" stroke="#191970" points="221.0682,-89.6668 231.5953,-88.4713 222.6203,-82.841 221.0682,-89.6668"/>
</g>
<!-- Node22203 -->
<g id="node6" class="node">
<title>Node22203</title>
<g id="a_node6"><a xlink:href="../../d8/d37/classSketchWidget.html#aa8938f8373d90ce93c1930241dbf41ee" target="_top" xlink:title=" ">
<polygon fill="#ffffff" stroke="#000000" points="196,-39 196,-69 351,-69 351,-39 196,-39"/>
<text text-anchor="start" x="204" y="-57" font-family="Helvetica,sans-Serif" font-size="10.00" fill="#000000">SketchWidget::getLabelView</text>
<text text-anchor="middle" x="273.5" y="-46" font-family="Helvetica,sans-Serif" font-size="10.00" fill="#000000">LayerID</text>
</a>
</g>
</g>
<!-- Node22198&#45;&gt;Node22203 -->
<g id="edge5" class="edge">
<title>Node22198&#45;&gt;Node22203</title>
<path fill="none" stroke="#191970" d="M160.1006,-54C168.6197,-54 177.3164,-54 185.9156,-54"/>
<polygon fill="#191970" stroke="#191970" points="185.9492,-57.5001 195.9492,-54 185.9491,-50.5001 185.9492,-57.5001"/>
</g>
<!-- Node22204 -->
<g id="node7" class="node">
<title>Node22204</title>
<g id="a_node7"><a xlink:href="../../d4/d4f/classItemBase.html#ad1ec13114e2b7ade0ee468f6709d83cb" target="_top" xlink:title=" ">
<polygon fill="#ffffff" stroke="#000000" points="203.5,-.5 203.5,-19.5 343.5,-19.5 343.5,-.5 203.5,-.5"/>
<text text-anchor="middle" x="273.5" y="-7.5" font-family="Helvetica,sans-Serif" font-size="10.00" fill="#000000">ItemBase::showPartLabel</text>
</a>
</g>
</g>
<!-- Node22198&#45;&gt;Node22204 -->
<g id="edge6" class="edge">
<title>Node22198&#45;&gt;Node22204</title>
<path fill="none" stroke="#191970" d="M121.9866,-44.4527C151.2735,-37.7931 190.5428,-28.8637 221.7642,-21.7642"/>
<polygon fill="#191970" stroke="#191970" points="222.6203,-25.159 231.5953,-19.5287 221.0682,-18.3332 222.6203,-25.159"/>
</g>
<!-- Node22200 -->
<g id="node3" class="node">
<title>Node22200</title>
<g id="a_node3"><a xlink:href="../../d4/d4f/classItemBase.html#a27afd199a7ae3c3fd14e88ed0be14420" target="_top" xlink:title=" ">
<polygon fill="#ffffff" stroke="#000000" points="415.5,-126.5 415.5,-145.5 493.5,-145.5 493.5,-126.5 415.5,-126.5"/>
<text text-anchor="middle" x="454.5" y="-133.5" font-family="Helvetica,sans-Serif" font-size="10.00" fill="#000000">ItemBase::id</text>
</a>
</g>
</g>
<!-- Node22199&#45;&gt;Node22200 -->
<g id="edge2" class="edge">
<title>Node22199&#45;&gt;Node22200</title>
<path fill="none" stroke="#191970" d="M319.1739,-107.589C345.4541,-113.1064 378.481,-120.0402 405.3284,-125.6767"/>
<polygon fill="#191970" stroke="#191970" points="404.7826,-129.1383 415.2884,-127.7677 406.2209,-122.2877 404.7826,-129.1383"/>
</g>
<!-- Node22201 -->
<g id="node4" class="node">
<title>Node22201</title>
<g id="a_node4"><a xlink:href="../../d4/d4f/classItemBase.html#acc32076e751f0e21ffb9050f275d3b87" target="_top" xlink:title=" ">
<polygon fill="#ffffff" stroke="#000000" points="399.5,-88.5 399.5,-107.5 509.5,-107.5 509.5,-88.5 399.5,-88.5"/>
<text text-anchor="middle" x="454.5" y="-95.5" font-family="Helvetica,sans-Serif" font-size="10.00" fill="#000000">ItemBase::layerKin</text>
</a>
</g>
</g>
<!-- Node22199&#45;&gt;Node22201 -->
<g id="edge3" class="edge">
<title>Node22199&#45;&gt;Node22201</title>
<path fill="none" stroke="#191970" d="M338.5894,-98C355.0397,-98 372.7089,-98 389.171,-98"/>
<polygon fill="#191970" stroke="#191970" points="389.2433,-101.5001 399.2433,-98 389.2432,-94.5001 389.2433,-101.5001"/>
</g>
<!-- Node22202 -->
<g id="node5" class="node">
<title>Node22202</title>
<g id="a_node5"><a xlink:href="../../d4/d4f/classItemBase.html#abf6d16e250a353043cd4953ddc049bd0" target="_top" xlink:title=" ">
<polygon fill="#ffffff" stroke="#000000" points="387,-50.5 387,-69.5 522,-69.5 522,-50.5 387,-50.5"/>
<text text-anchor="middle" x="454.5" y="-57.5" font-family="Helvetica,sans-Serif" font-size="10.00" fill="#000000">ItemBase::layerKinChief</text>
</a>
</g>
</g>
<!-- Node22199&#45;&gt;Node22202 -->
<g id="edge4" class="edge">
<title>Node22199&#45;&gt;Node22202</title>
<path fill="none" stroke="#191970" d="M319.1739,-88.411C343.4892,-83.3061 373.5802,-76.9887 399.2084,-71.6082"/>
<polygon fill="#191970" stroke="#191970" points="400.087,-75.0001 409.1545,-69.5201 398.6487,-68.1495 400.087,-75.0001"/>
</g>
</g>
</svg>
