<?xml version="1.0" encoding="UTF-8" standalone="no"?>
<!DOCTYPE svg PUBLIC "-//W3C//DTD SVG 1.1//EN"
 "http://www.w3.org/Graphics/SVG/1.1/DTD/svg11.dtd">
<!-- Generated by graphviz version 2.40.1 (0)
 -->
<!-- Title: SketchWidget::canChainWire Pages: 1 -->
<!--zoomable 242 -->
<svg id="main" version="1.1" xmlns="http://www.w3.org/2000/svg" xmlns:xlink="http://www.w3.org/1999/xlink" xml:space="preserve" onload="init(evt)">
<style type="text/css"><![CDATA[
.edge:hover path { stroke: red; }
.edge:hover polygon { stroke: red; fill: red; }
]]></style>
<script type="text/javascript"><![CDATA[
var edges = document.getElementsByTagName('g');
if (edges && edges.length) {
  for (var i=0;i<edges.length;i++) {
    if (edges[i].id.substr(0,4)=='edge') {
      edges[i].setAttribute('class','edge');
    }
  }
}
]]></script>
        <defs>
                <circle id="rim" cx="0" cy="0" r="7"/>
                <circle id="rim2" cx="0" cy="0" r="3.5"/>
                <g id="zoomPlus">
                        <use xlink:href="#rim" fill="#404040">
                                <set attributeName="fill" to="#808080" begin="zoomplus.mouseover" end="zoomplus.mouseout"/>
                        </use>
                        <path d="M-4,0h8M0,-4v8" fill="none" stroke="white" stroke-width="1.5" pointer-events="none"/>
                </g>
                <g id="zoomMin">
                        <use xlink:href="#rim" fill="#404040">
                                <set attributeName="fill" to="#808080" begin="zoomminus.mouseover" end="zoomminus.mouseout"/>
                        </use>
                        <path d="M-4,0h8" fill="none" stroke="white" stroke-width="1.5" pointer-events="none"/>
                </g>
                <g id="dirArrow">
                        <path fill="none" stroke="white" stroke-width="1.5" d="M0,-3.0v7 M-2.5,-0.5L0,-3.0L2.5,-0.5"/>
                </g>
               <g id="resetDef">
                       <use xlink:href="#rim2" fill="#404040">
                               <set attributeName="fill" to="#808080" begin="reset.mouseover" end="reset.mouseout"/>
                       </use>
               </g>
        </defs>

<script type="text/javascript">
var viewWidth = 583;
var viewHeight = 242;
var sectionId = 'dynsection-49';
</script>
<script xlink:href="../../svgpan.js"/>
<svg id="graph" class="graph">
<g id="viewport">
<title>SketchWidget::canChainWire</title>
<polygon fill="#ffffff" stroke="transparent" points="-4,4 -4,-237.5 579,-237.5 579,4 -4,4"/>
<!-- Node3503 -->
<g id="node1" class="node">
<title>Node3503</title>
<g id="a_node1"><a xlink:title=" ">
<polygon fill="#bfbfbf" stroke="#000000" points="418,-110 418,-129 575,-129 575,-110 418,-110"/>
<text text-anchor="middle" x="496.5" y="-117" font-family="Helvetica,sans-Serif" font-size="10.00" fill="#000000">SketchWidget::canChainWire</text>
</a>
</g>
</g>
<!-- Node3504 -->
<g id="node2" class="node">
<title>Node3504</title>
<g id="a_node2"><a xlink:href="../../df/dbf/classPCBSketchWidget.html#a5ea81197908a7d593b8b364eb6762b48" target="_top" xlink:title=" ">
<polygon fill="#ffffff" stroke="#000000" points="206,-214 206,-233 382,-233 382,-214 206,-214"/>
<text text-anchor="middle" x="294" y="-221" font-family="Helvetica,sans-Serif" font-size="10.00" fill="#000000">PCBSketchWidget::canChainWire</text>
</a>
</g>
</g>
<!-- Node3503&#45;&gt;Node3504 -->
<g id="edge1" class="edge">
<title>Node3503&#45;&gt;Node3504</title>
<path fill="none" stroke="#191970" d="M479.2073,-136.1209C458.0237,-155.5283 420.2197,-187.1739 382,-204.5 373.4588,-208.372 364.0873,-211.4727 354.7438,-213.9509"/>
<polygon fill="#191970" stroke="#191970" points="481.8053,-138.4838 486.7268,-129.1014 477.0285,-133.3668 481.8053,-138.4838"/>
</g>
<!-- Node3505 -->
<g id="node3" class="node">
<title>Node3505</title>
<g id="a_node3"><a xlink:href="../../d8/d37/classSketchWidget.html#a1926c7b56cafe9e1f0136bc9af9981ea" target="_top" xlink:title=" ">
<polygon fill="#ffffff" stroke="#000000" points="215,-176 215,-195 373,-195 373,-176 215,-176"/>
<text text-anchor="middle" x="294" y="-183" font-family="Helvetica,sans-Serif" font-size="10.00" fill="#000000">SketchWidget::moveByArrow</text>
</a>
</g>
</g>
<!-- Node3503&#45;&gt;Node3505 -->
<g id="edge2" class="edge">
<title>Node3503&#45;&gt;Node3505</title>
<path fill="none" stroke="#191970" d="M467.0751,-133.2676C444.255,-143.5284 411.6278,-157.3001 382,-166.5 370.3571,-170.1153 357.6397,-173.2914 345.5834,-175.9603"/>
<polygon fill="#191970" stroke="#191970" points="468.5643,-136.4354 476.2174,-129.1087 465.6657,-130.0637 468.5643,-136.4354"/>
</g>
<!-- Node3508 -->
<g id="node6" class="node">
<title>Node3508</title>
<g id="a_node6"><a xlink:href="../../d8/d37/classSketchWidget.html#a19e4694aab6edaeb9c3108d827757d1b" target="_top" xlink:title=" ">
<polygon fill="#ffffff" stroke="#000000" points="219.5,-126.5 219.5,-156.5 368.5,-156.5 368.5,-126.5 219.5,-126.5"/>
<text text-anchor="start" x="227.5" y="-144.5" font-family="Helvetica,sans-Serif" font-size="10.00" fill="#000000">SketchWidget::mousePress</text>
<text text-anchor="middle" x="294" y="-133.5" font-family="Helvetica,sans-Serif" font-size="10.00" fill="#000000">Event</text>
</a>
</g>
</g>
<!-- Node3503&#45;&gt;Node3508 -->
<g id="edge5" class="edge">
<title>Node3503&#45;&gt;Node3508</title>
<path fill="none" stroke="#191970" d="M407.9409,-129.1212C394.8,-130.5489 381.3693,-132.008 368.5532,-133.4004"/>
<polygon fill="#191970" stroke="#191970" points="408.3549,-132.5969 417.9184,-128.0373 407.5988,-125.6379 408.3549,-132.5969"/>
</g>
<!-- Node3510 -->
<g id="node8" class="node">
<title>Node3510</title>
<g id="a_node8"><a xlink:href="../../d8/d37/classSketchWidget.html#ab437f8f87027a3d1b888e0f97d804859" target="_top" xlink:title=" ">
<polygon fill="#ffffff" stroke="#000000" points="218.5,-88 218.5,-107 369.5,-107 369.5,-88 218.5,-88"/>
<text text-anchor="middle" x="294" y="-95" font-family="Helvetica,sans-Serif" font-size="10.00" fill="#000000">SketchWidget::wireSplitSlot</text>
</a>
</g>
</g>
<!-- Node3503&#45;&gt;Node3510 -->
<g id="edge7" class="edge">
<title>Node3503&#45;&gt;Node3510</title>
<path fill="none" stroke="#191970" d="M407.7688,-109.8601C395.0216,-108.4752 382.0057,-107.0611 369.5458,-105.7074"/>
<polygon fill="#191970" stroke="#191970" points="407.5988,-113.3621 417.9184,-110.9627 408.3549,-106.4031 407.5988,-113.3621"/>
</g>
<!-- Node3513 -->
<g id="node11" class="node">
<title>Node3513</title>
<g id="a_node11"><a xlink:href="../../d8/d37/classSketchWidget.html#abfa5861c50c7115df1fcf12cfad01bf4" target="_top" xlink:title=" ">
<polygon fill="#ffffff" stroke="#000000" points="211.5,-50 211.5,-69 376.5,-69 376.5,-50 211.5,-50"/>
<text text-anchor="middle" x="294" y="-57" font-family="Helvetica,sans-Serif" font-size="10.00" fill="#000000">SketchWidget::hoverEnterItem</text>
</a>
</g>
</g>
<!-- Node3503&#45;&gt;Node3513 -->
<g id="edge10" class="edge">
<title>Node3503&#45;&gt;Node3513</title>
<path fill="none" stroke="#191970" d="M463.1901,-106.2638C440.5432,-97.5899 409.7658,-86.4316 382,-78.5 369.6765,-74.9797 356.2189,-71.7652 343.6182,-69.0217"/>
<polygon fill="#191970" stroke="#191970" points="462.0846,-109.5888 472.6739,-109.9327 464.6103,-103.0603 462.0846,-109.5888"/>
</g>
<!-- Node3515 -->
<g id="node13" class="node">
<title>Node3515</title>
<g id="a_node13"><a xlink:href="../../d8/d37/classSketchWidget.html#a079762ef4e1c39bf980ba85582f666b9" target="_top" xlink:title=" ">
<polygon fill="#ffffff" stroke="#000000" points="209.5,-12 209.5,-31 378.5,-31 378.5,-12 209.5,-12"/>
<text text-anchor="middle" x="294" y="-19" font-family="Helvetica,sans-Serif" font-size="10.00" fill="#000000">SketchWidget::hoverLeaveItem</text>
</a>
</g>
</g>
<!-- Node3503&#45;&gt;Node3515 -->
<g id="edge12" class="edge">
<title>Node3503&#45;&gt;Node3515</title>
<path fill="none" stroke="#191970" d="M477.9698,-103.2524C456.3972,-85.2021 418.9836,-56.4995 382,-40.5 373.1061,-36.6524 363.3586,-33.554 353.6925,-31.0677"/>
<polygon fill="#191970" stroke="#191970" points="475.8026,-106.004 485.6852,-109.8229 480.3411,-100.6746 475.8026,-106.004"/>
</g>
<!-- Node3506 -->
<g id="node4" class="node">
<title>Node3506</title>
<g id="a_node4"><a xlink:href="../../d8/d37/classSketchWidget.html#aa39f6cd0dd58358ce203d93e5a701fb3" target="_top" xlink:title=" ">
<polygon fill="#ffffff" stroke="#000000" points="4.5,-214 4.5,-233 165.5,-233 165.5,-214 4.5,-214"/>
<text text-anchor="middle" x="85" y="-221" font-family="Helvetica,sans-Serif" font-size="10.00" fill="#000000">SketchWidget::keyPressEvent</text>
</a>
</g>
</g>
<!-- Node3505&#45;&gt;Node3506 -->
<g id="edge3" class="edge">
<title>Node3505&#45;&gt;Node3506</title>
<path fill="none" stroke="#191970" d="M231.5918,-196.847C201.6051,-202.2991 166.0664,-208.7607 137.4913,-213.9561"/>
<polygon fill="#191970" stroke="#191970" points="232.3177,-200.2724 241.5302,-195.04 231.0654,-193.3853 232.3177,-200.2724"/>
</g>
<!-- Node3507 -->
<g id="node5" class="node">
<title>Node3507</title>
<g id="a_node5"><a xlink:href="../../d8/d37/classSketchWidget.html#a25826d0d27571bc3b9ee08811fd27b85" target="_top" xlink:title=" ">
<polygon fill="#ffffff" stroke="#000000" points="15,-176 15,-195 155,-195 155,-176 15,-176"/>
<text text-anchor="middle" x="85" y="-183" font-family="Helvetica,sans-Serif" font-size="10.00" fill="#000000">SketchWidget::moveItem</text>
</a>
</g>
</g>
<!-- Node3505&#45;&gt;Node3507 -->
<g id="edge4" class="edge">
<title>Node3505&#45;&gt;Node3507</title>
<path fill="none" stroke="#191970" d="M204.7552,-185.5C188.1907,-185.5 171.1036,-185.5 155.2072,-185.5"/>
<polygon fill="#191970" stroke="#191970" points="204.9861,-189.0001 214.9861,-185.5 204.986,-182.0001 204.9861,-189.0001"/>
</g>
<!-- Node3509 -->
<g id="node7" class="node">
<title>Node3509</title>
<g id="a_node7"><a xlink:href="../../d8/d37/classPartsEditorView.html#a55fa6bfc6aaa8305f6078f83b392b926" target="_top" xlink:title=" ">
<polygon fill="#ffffff" stroke="#000000" points="6,-126.5 6,-156.5 164,-156.5 164,-126.5 6,-126.5"/>
<text text-anchor="start" x="14" y="-144.5" font-family="Helvetica,sans-Serif" font-size="10.00" fill="#000000">PartsEditorView::mousePress</text>
<text text-anchor="middle" x="85" y="-133.5" font-family="Helvetica,sans-Serif" font-size="10.00" fill="#000000">Event</text>
</a>
</g>
</g>
<!-- Node3508&#45;&gt;Node3509 -->
<g id="edge6" class="edge">
<title>Node3508&#45;&gt;Node3509</title>
<path fill="none" stroke="#191970" d="M209.2224,-141.5C194.3254,-141.5 178.8736,-141.5 164.1379,-141.5"/>
<polygon fill="#191970" stroke="#191970" points="209.4314,-145.0001 219.4314,-141.5 209.4313,-138.0001 209.4314,-145.0001"/>
</g>
<!-- Node3511 -->
<g id="node9" class="node">
<title>Node3511</title>
<g id="a_node9"><a xlink:href="../../df/dbf/classPCBSketchWidget.html#a02702717e83b5117bac7103f3fed2e1b" target="_top" xlink:title=" ">
<polygon fill="#ffffff" stroke="#000000" points="0,-88 0,-107 170,-107 170,-88 0,-88"/>
<text text-anchor="middle" x="85" y="-95" font-family="Helvetica,sans-Serif" font-size="10.00" fill="#000000">PCBSketchWidget::wireSplitSlot</text>
</a>
</g>
</g>
<!-- Node3510&#45;&gt;Node3511 -->
<g id="edge8" class="edge">
<title>Node3510&#45;&gt;Node3511</title>
<path fill="none" stroke="#191970" d="M208.2347,-97.5C195.6269,-97.5 182.6429,-97.5 170.0495,-97.5"/>
<polygon fill="#191970" stroke="#191970" points="208.2507,-101.0001 218.2507,-97.5 208.2507,-94.0001 208.2507,-101.0001"/>
</g>
<!-- Node3512 -->
<g id="node10" class="node">
<title>Node3512</title>
<g id="a_node10"><a xlink:href="../../d8/d37/classSketchWidget.html#af84561a65b317a1c68e853e680891ae3" target="_top" xlink:title=" ">
<polygon fill="#ffffff" stroke="#000000" points="6.5,-50 6.5,-69 163.5,-69 163.5,-50 6.5,-50"/>
<text text-anchor="middle" x="85" y="-57" font-family="Helvetica,sans-Serif" font-size="10.00" fill="#000000">SketchWidget::addBendpoint</text>
</a>
</g>
</g>
<!-- Node3510&#45;&gt;Node3512 -->
<g id="edge9" class="edge">
<title>Node3510&#45;&gt;Node3512</title>
<path fill="none" stroke="#191970" d="M231.5918,-86.153C201.6051,-80.7009 166.0664,-74.2393 137.4913,-69.0439"/>
<polygon fill="#191970" stroke="#191970" points="231.0654,-89.6147 241.5302,-87.96 232.3177,-82.7276 231.0654,-89.6147"/>
</g>
<!-- Node3514 -->
<g id="node12" class="node">
<title>Node3514</title>
<g id="a_node12"><a xlink:href="../../d8/d37/classSketchWidget.html#a64d029841c4f9e3c57435c78b14bb955" target="_top" xlink:title=" ">
<polygon fill="#ffffff" stroke="#000000" points="12,-.5 12,-30.5 158,-30.5 158,-.5 12,-.5"/>
<text text-anchor="start" x="20" y="-18.5" font-family="Helvetica,sans-Serif" font-size="10.00" fill="#000000">SketchWidget::hoverLeave</text>
<text text-anchor="middle" x="85" y="-7.5" font-family="Helvetica,sans-Serif" font-size="10.00" fill="#000000">ConnectorItem</text>
</a>
</g>
</g>
<!-- Node3513&#45;&gt;Node3514 -->
<g id="edge11" class="edge">
<title>Node3513&#45;&gt;Node3514</title>
<path fill="none" stroke="#191970" d="M238.559,-47.8282C213.4185,-42.5355 183.3776,-36.2111 156.5605,-30.5654"/>
<polygon fill="#191970" stroke="#191970" points="238.1435,-51.3174 248.6501,-49.9527 239.5857,-44.4675 238.1435,-51.3174"/>
</g>
</g>
</svg>
        <g id="navigator" transform="translate(0 0)" fill="#404254">
                <rect fill="#f2f5e9" fill-opacity="0.5" stroke="#606060" stroke-width=".5" x="0" y="0" width="60" height="60"/>
                <use id="zoomplus" xlink:href="#zoomPlus" x="17" y="9" onmousedown="handleZoom(evt,'in')"/>
                <use id="zoomminus" xlink:href="#zoomMin" x="42" y="9" onmousedown="handleZoom(evt,'out')"/>
                <use id="reset" xlink:href="#resetDef" x="30" y="36" onmousedown="handleReset()"/>
                <g id="arrowUp" xlink:href="#dirArrow" transform="translate(30 24)" onmousedown="handlePan(0,-1)">
                  <use xlink:href="#rim" fill="#404040">
                        <set attributeName="fill" to="#808080" begin="arrowUp.mouseover" end="arrowUp.mouseout"/>
                  </use>
                  <path fill="none" stroke="white" stroke-width="1.5" d="M0,-3.0v7 M-2.5,-0.5L0,-3.0L2.5,-0.5"/>
                </g>
                <g id="arrowRight" xlink:href="#dirArrow" transform="rotate(90) translate(36 -43)" onmousedown="handlePan(1,0)">
                  <use xlink:href="#rim" fill="#404040">
                        <set attributeName="fill" to="#808080" begin="arrowRight.mouseover" end="arrowRight.mouseout"/>
                  </use>
                  <path fill="none" stroke="white" stroke-width="1.5" d="M0,-3.0v7 M-2.5,-0.5L0,-3.0L2.5,-0.5"/>
                </g>
                <g id="arrowDown" xlink:href="#dirArrow" transform="rotate(180) translate(-30 -48)" onmousedown="handlePan(0,1)">
                  <use xlink:href="#rim" fill="#404040">
                        <set attributeName="fill" to="#808080" begin="arrowDown.mouseover" end="arrowDown.mouseout"/>
                  </use>
                  <path fill="none" stroke="white" stroke-width="1.5" d="M0,-3.0v7 M-2.5,-0.5L0,-3.0L2.5,-0.5"/>
                </g>
                <g id="arrowLeft" xlink:href="#dirArrow" transform="rotate(270) translate(-36 17)" onmousedown="handlePan(-1,0)">
                  <use xlink:href="#rim" fill="#404040">
                        <set attributeName="fill" to="#808080" begin="arrowLeft.mouseover" end="arrowLeft.mouseout"/>
                  </use>
                  <path fill="none" stroke="white" stroke-width="1.5" d="M0,-3.0v7 M-2.5,-0.5L0,-3.0L2.5,-0.5"/>
                </g>
        </g>
        <svg viewBox="0 0 15 15" width="100%" height="30px" preserveAspectRatio="xMaxYMin meet">
         <g id="arrow_out" transform="scale(0.3 0.3)">
          <a xlink:href="classSketchWidget_a1f00a660dfa1cdc18066ec6c647977d9_icgraph_org.svg" target="_base">
           <rect id="button" ry="5" rx="5" y="6" x="6" height="38" width="38"
                fill="#f2f5e9" fill-opacity="0.5" stroke="#606060" stroke-width="1.0"/>
           <path id="arrow"
             d="M 11.500037,31.436501 C 11.940474,20.09759 22.043105,11.32322 32.158766,21.979434 L 37.068811,17.246167 C 37.068811,17.246167 37.088388,32 37.088388,32 L 22.160133,31.978069 C 22.160133,31.978069 26.997745,27.140456 26.997745,27.140456 C 18.528582,18.264221 13.291696,25.230495 11.500037,31.436501 z"
             style="fill:#404040;"/>
          </a>
         </g>
        </svg>
</svg>
