<?xml version="1.0" encoding="UTF-8" standalone="no"?>
<!DOCTYPE svg PUBLIC "-//W3C//DTD SVG 1.1//EN"
 "http://www.w3.org/Graphics/SVG/1.1/DTD/svg11.dtd">
<!-- Generated by graphviz version 2.40.1 (0)
 -->
<!-- Title: SketchWidget::rotateFlipPartLabel Pages: 1 -->
<!--zoomable 116 -->
<svg id="main" version="1.1" xmlns="http://www.w3.org/2000/svg" xmlns:xlink="http://www.w3.org/1999/xlink" xml:space="preserve" onload="init(evt)">
<style type="text/css"><![CDATA[
.edge:hover path { stroke: red; }
.edge:hover polygon { stroke: red; fill: red; }
]]></style>
<script type="text/javascript"><![CDATA[
var edges = document.getElementsByTagName('g');
if (edges && edges.length) {
  for (var i=0;i<edges.length;i++) {
    if (edges[i].id.substr(0,4)=='edge') {
      edges[i].setAttribute('class','edge');
    }
  }
}
]]></script>
        <defs>
                <circle id="rim" cx="0" cy="0" r="7"/>
                <circle id="rim2" cx="0" cy="0" r="3.5"/>
                <g id="zoomPlus">
                        <use xlink:href="#rim" fill="#404040">
                                <set attributeName="fill" to="#808080" begin="zoomplus.mouseover" end="zoomplus.mouseout"/>
                        </use>
                        <path d="M-4,0h8M0,-4v8" fill="none" stroke="white" stroke-width="1.5" pointer-events="none"/>
                </g>
                <g id="zoomMin">
                        <use xlink:href="#rim" fill="#404040">
                                <set attributeName="fill" to="#808080" begin="zoomminus.mouseover" end="zoomminus.mouseout"/>
                        </use>
                        <path d="M-4,0h8" fill="none" stroke="white" stroke-width="1.5" pointer-events="none"/>
                </g>
                <g id="dirArrow">
                        <path fill="none" stroke="white" stroke-width="1.5" d="M0,-3.0v7 M-2.5,-0.5L0,-3.0L2.5,-0.5"/>
                </g>
               <g id="resetDef">
                       <use xlink:href="#rim2" fill="#404040">
                               <set attributeName="fill" to="#808080" begin="reset.mouseover" end="reset.mouseout"/>
                       </use>
               </g>
        </defs>

<script type="text/javascript">
var viewWidth = 502;
var viewHeight = 116;
var sectionId = 'dynsection-449';
</script>
<script xlink:href="../../svgpan.js"/>
<svg id="graph" class="graph">
<g id="viewport">
<title>SketchWidget::rotateFlipPartLabel</title>
<polygon fill="#ffffff" stroke="transparent" points="-4,4 -4,-111.5 498,-111.5 498,4 -4,4"/>
<!-- Node19205 -->
<g id="node1" class="node">
<title>Node19205</title>
<g id="a_node1"><a xlink:title=" ">
<polygon fill="#bfbfbf" stroke="#000000" points="0,-55 0,-85 137,-85 137,-55 0,-55"/>
<text text-anchor="start" x="8" y="-73" font-family="Helvetica,sans-Serif" font-size="10.00" fill="#000000">SketchWidget::rotateFlip</text>
<text text-anchor="middle" x="68.5" y="-62" font-family="Helvetica,sans-Serif" font-size="10.00" fill="#000000">PartLabel</text>
</a>
</g>
</g>
<!-- Node19206 -->
<g id="node2" class="node">
<title>Node19206</title>
<g id="a_node2"><a xlink:href="../../d4/d4f/classItemBase.html#abfd766ce9ad019cbae6e9d2eb5317a2d" target="_top" xlink:title=" ">
<polygon fill="#ffffff" stroke="#000000" points="173,-77 173,-107 323,-107 323,-77 173,-77"/>
<text text-anchor="start" x="181" y="-95" font-family="Helvetica,sans-Serif" font-size="10.00" fill="#000000">ItemBase::doRotateFlipPart</text>
<text text-anchor="middle" x="248" y="-84" font-family="Helvetica,sans-Serif" font-size="10.00" fill="#000000">Label</text>
</a>
</g>
</g>
<!-- Node19205&#45;&gt;Node19206 -->
<g id="edge1" class="edge">
<title>Node19205&#45;&gt;Node19206</title>
<path fill="none" stroke="#191970" d="M137.1296,-78.4114C145.5236,-79.4402 154.179,-80.501 162.7788,-81.5551"/>
<polygon fill="#191970" stroke="#191970" points="162.4781,-85.0443 172.8296,-82.7869 163.3297,-78.0963 162.4781,-85.0443"/>
</g>
<!-- Node19207 -->
<g id="node3" class="node">
<title>Node19207</title>
<g id="a_node3"><a xlink:href="../../d8/d37/classSketchWidget.html#a8e2ae23ef1e4c2ad993e0c3985e5c3ba" target="_top" xlink:title=" ">
<polygon fill="#ffffff" stroke="#000000" points="183,-38.5 183,-57.5 313,-57.5 313,-38.5 183,-38.5"/>
<text text-anchor="middle" x="248" y="-45.5" font-family="Helvetica,sans-Serif" font-size="10.00" fill="#000000">SketchWidget::findItem</text>
</a>
</g>
</g>
<!-- Node19205&#45;&gt;Node19207 -->
<g id="edge2" class="edge">
<title>Node19205&#45;&gt;Node19207</title>
<path fill="none" stroke="#191970" d="M137.1296,-61.5886C148.765,-60.1625 160.9024,-58.6749 172.698,-57.2292"/>
<polygon fill="#191970" stroke="#191970" points="173.4546,-60.6628 182.9545,-55.9722 172.6029,-53.7148 173.4546,-60.6628"/>
</g>
<!-- Node19208 -->
<g id="node4" class="node">
<title>Node19208</title>
<g id="a_node4"><a xlink:href="../../d4/d4f/classItemBase.html#a27afd199a7ae3c3fd14e88ed0be14420" target="_top" xlink:title=" ">
<polygon fill="#ffffff" stroke="#000000" points="387.5,-76.5 387.5,-95.5 465.5,-95.5 465.5,-76.5 387.5,-76.5"/>
<text text-anchor="middle" x="426.5" y="-83.5" font-family="Helvetica,sans-Serif" font-size="10.00" fill="#000000">ItemBase::id</text>
</a>
</g>
</g>
<!-- Node19207&#45;&gt;Node19208 -->
<g id="edge3" class="edge">
<title>Node19207&#45;&gt;Node19208</title>
<path fill="none" stroke="#191970" d="M293.0431,-57.589C318.7771,-63.0674 351.071,-69.9423 377.4453,-75.557"/>
<polygon fill="#191970" stroke="#191970" points="376.7281,-78.9827 387.2377,-77.6416 378.1857,-72.1361 376.7281,-78.9827"/>
</g>
<!-- Node19209 -->
<g id="node5" class="node">
<title>Node19209</title>
<g id="a_node5"><a xlink:href="../../d4/d4f/classItemBase.html#acc32076e751f0e21ffb9050f275d3b87" target="_top" xlink:title=" ">
<polygon fill="#ffffff" stroke="#000000" points="371.5,-38.5 371.5,-57.5 481.5,-57.5 481.5,-38.5 371.5,-38.5"/>
<text text-anchor="middle" x="426.5" y="-45.5" font-family="Helvetica,sans-Serif" font-size="10.00" fill="#000000">ItemBase::layerKin</text>
</a>
</g>
</g>
<!-- Node19207&#45;&gt;Node19209 -->
<g id="edge4" class="edge">
<title>Node19207&#45;&gt;Node19209</title>
<path fill="none" stroke="#191970" d="M313.2003,-48C328.886,-48 345.6427,-48 361.3271,-48"/>
<polygon fill="#191970" stroke="#191970" points="361.4572,-51.5001 371.4572,-48 361.4571,-44.5001 361.4572,-51.5001"/>
</g>
<!-- Node19210 -->
<g id="node6" class="node">
<title>Node19210</title>
<g id="a_node6"><a xlink:href="../../d4/d4f/classItemBase.html#abf6d16e250a353043cd4953ddc049bd0" target="_top" xlink:title=" ">
<polygon fill="#ffffff" stroke="#000000" points="359,-.5 359,-19.5 494,-19.5 494,-.5 359,-.5"/>
<text text-anchor="middle" x="426.5" y="-7.5" font-family="Helvetica,sans-Serif" font-size="10.00" fill="#000000">ItemBase::layerKinChief</text>
</a>
</g>
</g>
<!-- Node19207&#45;&gt;Node19210 -->
<g id="edge5" class="edge">
<title>Node19207&#45;&gt;Node19210</title>
<path fill="none" stroke="#191970" d="M293.0431,-38.411C317.0225,-33.3061 346.6979,-26.9887 371.9721,-21.6082"/>
<polygon fill="#191970" stroke="#191970" points="372.7288,-25.0256 381.7808,-19.5201 371.2712,-18.179 372.7288,-25.0256"/>
</g>
</g>
</svg>
        <g id="navigator" transform="translate(0 0)" fill="#404254">
                <rect fill="#f2f5e9" fill-opacity="0.5" stroke="#606060" stroke-width=".5" x="0" y="0" width="60" height="60"/>
                <use id="zoomplus" xlink:href="#zoomPlus" x="17" y="9" onmousedown="handleZoom(evt,'in')"/>
                <use id="zoomminus" xlink:href="#zoomMin" x="42" y="9" onmousedown="handleZoom(evt,'out')"/>
                <use id="reset" xlink:href="#resetDef" x="30" y="36" onmousedown="handleReset()"/>
                <g id="arrowUp" xlink:href="#dirArrow" transform="translate(30 24)" onmousedown="handlePan(0,-1)">
                  <use xlink:href="#rim" fill="#404040">
                        <set attributeName="fill" to="#808080" begin="arrowUp.mouseover" end="arrowUp.mouseout"/>
                  </use>
                  <path fill="none" stroke="white" stroke-width="1.5" d="M0,-3.0v7 M-2.5,-0.5L0,-3.0L2.5,-0.5"/>
                </g>
                <g id="arrowRight" xlink:href="#dirArrow" transform="rotate(90) translate(36 -43)" onmousedown="handlePan(1,0)">
                  <use xlink:href="#rim" fill="#404040">
                        <set attributeName="fill" to="#808080" begin="arrowRight.mouseover" end="arrowRight.mouseout"/>
                  </use>
                  <path fill="none" stroke="white" stroke-width="1.5" d="M0,-3.0v7 M-2.5,-0.5L0,-3.0L2.5,-0.5"/>
                </g>
                <g id="arrowDown" xlink:href="#dirArrow" transform="rotate(180) translate(-30 -48)" onmousedown="handlePan(0,1)">
                  <use xlink:href="#rim" fill="#404040">
                        <set attributeName="fill" to="#808080" begin="arrowDown.mouseover" end="arrowDown.mouseout"/>
                  </use>
                  <path fill="none" stroke="white" stroke-width="1.5" d="M0,-3.0v7 M-2.5,-0.5L0,-3.0L2.5,-0.5"/>
                </g>
                <g id="arrowLeft" xlink:href="#dirArrow" transform="rotate(270) translate(-36 17)" onmousedown="handlePan(-1,0)">
                  <use xlink:href="#rim" fill="#404040">
                        <set attributeName="fill" to="#808080" begin="arrowLeft.mouseover" end="arrowLeft.mouseout"/>
                  </use>
                  <path fill="none" stroke="white" stroke-width="1.5" d="M0,-3.0v7 M-2.5,-0.5L0,-3.0L2.5,-0.5"/>
                </g>
        </g>
        <svg viewBox="0 0 15 15" width="100%" height="30px" preserveAspectRatio="xMaxYMin meet">
         <g id="arrow_out" transform="scale(0.3 0.3)">
          <a xlink:href="classSketchWidget_ad13bbd54b202e630bf48573e733b5606_cgraph_org.svg" target="_base">
           <rect id="button" ry="5" rx="5" y="6" x="6" height="38" width="38"
                fill="#f2f5e9" fill-opacity="0.5" stroke="#606060" stroke-width="1.0"/>
           <path id="arrow"
             d="M 11.500037,31.436501 C 11.940474,20.09759 22.043105,11.32322 32.158766,21.979434 L 37.068811,17.246167 C 37.068811,17.246167 37.088388,32 37.088388,32 L 22.160133,31.978069 C 22.160133,31.978069 26.997745,27.140456 26.997745,27.140456 C 18.528582,18.264221 13.291696,25.230495 11.500037,31.436501 z"
             style="fill:#404040;"/>
          </a>
         </g>
        </svg>
</svg>
