<?xml version="1.0" encoding="UTF-8" standalone="no"?>
<!DOCTYPE svg PUBLIC "-//W3C//DTD SVG 1.1//EN"
 "http://www.w3.org/Graphics/SVG/1.1/DTD/svg11.dtd">
<!-- Generated by graphviz version 2.40.1 (0)
 -->
<!-- Title: SketchWidget::bringToFront Pages: 1 -->
<svg width="1590pt" height="259pt"
 viewBox="0.00 0.00 1590.00 259.00" xmlns="http://www.w3.org/2000/svg" xmlns:xlink="http://www.w3.org/1999/xlink">
<g id="graph0" class="graph" transform="scale(1 1) rotate(0) translate(4 255)">
<title>SketchWidget::bringToFront</title>
<polygon fill="#ffffff" stroke="transparent" points="-4,4 -4,-255 1586,-255 1586,4 -4,4"/>
<!-- Node3269 -->
<g id="node1" class="node">
<title>Node3269</title>
<g id="a_node1"><a xlink:title=" ">
<polygon fill="#bfbfbf" stroke="#000000" points="0,-38.5 0,-57.5 149,-57.5 149,-38.5 0,-38.5"/>
<text text-anchor="middle" x="74.5" y="-45.5" font-family="Helvetica,sans-Serif" font-size="10.00" fill="#000000">SketchWidget::bringToFront</text>
</a>
</g>
</g>
<!-- Node3270 -->
<g id="node2" class="node">
<title>Node3270</title>
<g id="a_node2"><a xlink:href="../../d8/d37/classSketchWidget.html#a84ec6fb08217cc73ab75b069936812cc" target="_top" xlink:title=" ">
<polygon fill="#ffffff" stroke="#000000" points="185,-76.5 185,-95.5 381,-95.5 381,-76.5 185,-76.5"/>
<text text-anchor="middle" x="283" y="-83.5" font-family="Helvetica,sans-Serif" font-size="10.00" fill="#000000">SketchWidget::continueZChangeMax</text>
</a>
</g>
</g>
<!-- Node3269&#45;&gt;Node3270 -->
<g id="edge1" class="edge">
<title>Node3269&#45;&gt;Node3270</title>
<path fill="none" stroke="#191970" d="M126.8442,-57.54C155.3474,-62.7348 190.8007,-69.1963 220.7185,-74.6489"/>
<polygon fill="#191970" stroke="#191970" points="220.1687,-78.1063 230.6342,-76.4561 221.4239,-71.2198 220.1687,-78.1063"/>
</g>
<!-- Node3285 -->
<g id="node17" class="node">
<title>Node3285</title>
<g id="a_node17"><a xlink:href="../../d8/d37/classSketchWidget.html#a1b9a7f046709473e45158e6b87ea3330" target="_top" xlink:title=" ">
<polygon fill="#ffffff" stroke="#000000" points="216.5,-38.5 216.5,-57.5 349.5,-57.5 349.5,-38.5 216.5,-38.5"/>
<text text-anchor="middle" x="283" y="-45.5" font-family="Helvetica,sans-Serif" font-size="10.00" fill="#000000">SketchWidget::lessThan</text>
</a>
</g>
</g>
<!-- Node3269&#45;&gt;Node3285 -->
<g id="edge16" class="edge">
<title>Node3269&#45;&gt;Node3285</title>
<path fill="none" stroke="#191970" d="M149.1844,-48C167.7196,-48 187.6142,-48 206.2467,-48"/>
<polygon fill="#191970" stroke="#191970" points="206.4516,-51.5001 216.4516,-48 206.4515,-44.5001 206.4516,-51.5001"/>
</g>
<!-- Node3286 -->
<g id="node18" class="node">
<title>Node3286</title>
<g id="a_node18"><a xlink:href="../../d8/d37/classSketchWidget.html#a6162d676fd1f45ca85cdeb917fe9a455" target="_top" xlink:title=" ">
<polygon fill="#ffffff" stroke="#000000" points="205.5,-.5 205.5,-19.5 360.5,-19.5 360.5,-.5 205.5,-.5"/>
<text text-anchor="middle" x="283" y="-7.5" font-family="Helvetica,sans-Serif" font-size="10.00" fill="#000000">SketchWidget::startZChange</text>
</a>
</g>
</g>
<!-- Node3269&#45;&gt;Node3286 -->
<g id="edge17" class="edge">
<title>Node3269&#45;&gt;Node3286</title>
<path fill="none" stroke="#191970" d="M126.8442,-38.46C155.3474,-33.2652 190.8007,-26.8037 220.7185,-21.3511"/>
<polygon fill="#191970" stroke="#191970" points="221.4239,-24.7802 230.6342,-19.5439 220.1687,-17.8937 221.4239,-24.7802"/>
</g>
<!-- Node3271 -->
<g id="node3" class="node">
<title>Node3271</title>
<g id="a_node3"><a xlink:href="../../d4/d4f/classItemBase.html#a8380ad795c557dd4a345b2c0113325dd" target="_top" xlink:title=" ">
<polygon fill="#ffffff" stroke="#000000" points="1020.5,-66.5 1020.5,-85.5 1178.5,-85.5 1178.5,-66.5 1020.5,-66.5"/>
<text text-anchor="middle" x="1099.5" y="-73.5" font-family="Helvetica,sans-Serif" font-size="10.00" fill="#000000">ItemBase::getViewGeometry</text>
</a>
</g>
</g>
<!-- Node3270&#45;&gt;Node3271 -->
<g id="edge2" class="edge">
<title>Node3270&#45;&gt;Node3271</title>
<path fill="none" stroke="#191970" d="M337.5792,-95.5142C361.8193,-99.28 390.7491,-103.1482 417,-105 629.369,-119.9811 879.4975,-99.6922 1010.0044,-86.2312"/>
<polygon fill="#191970" stroke="#191970" points="1010.7579,-89.6717 1020.341,-85.1535 1010.0319,-82.7095 1010.7579,-89.6717"/>
</g>
<!-- Node3272 -->
<g id="node4" class="node">
<title>Node3272</title>
<g id="a_node4"><a xlink:href="../../d3/de8/classViewGeometry.html#a72654cc7bb8e2519ceb5e1d8480d8a65" target="_top" xlink:title=" ">
<polygon fill="#ffffff" stroke="#000000" points="446,-76.5 446,-95.5 582,-95.5 582,-76.5 446,-76.5"/>
<text text-anchor="middle" x="514" y="-83.5" font-family="Helvetica,sans-Serif" font-size="10.00" fill="#000000">ViewGeometry::selected</text>
</a>
</g>
</g>
<!-- Node3270&#45;&gt;Node3272 -->
<g id="edge3" class="edge">
<title>Node3270&#45;&gt;Node3272</title>
<path fill="none" stroke="#191970" d="M381.2998,-86C399.469,-86 418.2191,-86 435.697,-86"/>
<polygon fill="#191970" stroke="#191970" points="435.8268,-89.5001 445.8267,-86 435.8267,-82.5001 435.8268,-89.5001"/>
</g>
<!-- Node3273 -->
<g id="node5" class="node">
<title>Node3273</title>
<g id="a_node5"><a xlink:href="../../da/d3a/classDebugDialog.html#ad26216d18945d7d7188420707b76f241" target="_top" xlink:title=" ">
<polygon fill="#ffffff" stroke="#000000" points="456,-38.5 456,-57.5 572,-57.5 572,-38.5 456,-38.5"/>
<text text-anchor="middle" x="514" y="-45.5" font-family="Helvetica,sans-Serif" font-size="10.00" fill="#000000">DebugDialog::debug</text>
</a>
</g>
</g>
<!-- Node3270&#45;&gt;Node3273 -->
<g id="edge4" class="edge">
<title>Node3270&#45;&gt;Node3273</title>
<path fill="none" stroke="#191970" d="M340.9929,-76.46C372.8465,-71.2201 412.5349,-64.6912 445.8607,-59.2091"/>
<polygon fill="#191970" stroke="#191970" points="446.684,-62.6208 455.9833,-57.5439 445.5477,-55.7136 446.684,-62.6208"/>
</g>
<!-- Node3274 -->
<g id="node6" class="node">
<title>Node3274</title>
<g id="a_node6"><a xlink:href="../../d8/d37/classSketchWidget.html#afb6b376845053233d0e4d6b114c81d20" target="_top" xlink:title=" ">
<polygon fill="#ffffff" stroke="#000000" points="417,-174.5 417,-193.5 611,-193.5 611,-174.5 417,-174.5"/>
<text text-anchor="middle" x="514" y="-181.5" font-family="Helvetica,sans-Serif" font-size="10.00" fill="#000000">SketchWidget::continueZChangeAux</text>
</a>
</g>
</g>
<!-- Node3270&#45;&gt;Node3274 -->
<g id="edge5" class="edge">
<title>Node3270&#45;&gt;Node3274</title>
<path fill="none" stroke="#191970" d="M305.5698,-95.5751C346.7991,-113.0663 434.4057,-150.2327 481.8542,-170.3624"/>
<polygon fill="#191970" stroke="#191970" points="480.7658,-173.7025 491.3385,-174.386 483.4997,-167.2585 480.7658,-173.7025"/>
</g>
<!-- Node3275 -->
<g id="node7" class="node">
<title>Node3275</title>
<g id="a_node7"><a xlink:href="../../d5/d9d/classViewLayer.html#abc0a1a93f87567c05f7ae20ee558d142" target="_top" xlink:title=" ">
<polygon fill="#ffffff" stroke="#000000" points="656,-231.5 656,-250.5 802,-250.5 802,-231.5 656,-231.5"/>
<text text-anchor="middle" x="729" y="-238.5" font-family="Helvetica,sans-Serif" font-size="10.00" fill="#000000">ViewLayer::getZIncrement</text>
</a>
</g>
</g>
<!-- Node3274&#45;&gt;Node3275 -->
<g id="edge6" class="edge">
<title>Node3274&#45;&gt;Node3275</title>
<path fill="none" stroke="#191970" d="M545.5867,-193.5123C572.4574,-201.4871 612.1253,-212.9837 647,-222 656.3455,-224.4161 666.3276,-226.8504 675.9955,-229.1325"/>
<polygon fill="#191970" stroke="#191970" points="675.3831,-232.5836 685.917,-231.4486 676.9745,-225.7669 675.3831,-232.5836"/>
</g>
<!-- Node3276 -->
<g id="node8" class="node">
<title>Node3276</title>
<g id="a_node8"><a xlink:href="../../d2/dd2/classChangeZCommand.html#ad19fec70cd8a41d597d7daa77046c049" target="_top" xlink:title=" ">
<polygon fill="#ffffff" stroke="#000000" points="647,-193.5 647,-212.5 811,-212.5 811,-193.5 647,-193.5"/>
<text text-anchor="middle" x="729" y="-200.5" font-family="Helvetica,sans-Serif" font-size="10.00" fill="#000000">ChangeZCommand::addTriplet</text>
</a>
</g>
</g>
<!-- Node3274&#45;&gt;Node3276 -->
<g id="edge7" class="edge">
<title>Node3274&#45;&gt;Node3276</title>
<path fill="none" stroke="#191970" d="M611.1213,-192.5828C619.5866,-193.3309 628.1386,-194.0867 636.5646,-194.8313"/>
<polygon fill="#191970" stroke="#191970" points="636.4963,-198.3388 646.7656,-195.7328 637.1126,-191.366 636.4963,-198.3388"/>
</g>
<!-- Node3277 -->
<g id="node9" class="node">
<title>Node3277</title>
<g id="a_node9"><a xlink:href="../../d0/dbb/classWaitPushUndoStack.html#a279fdca551f05e81111de92ea5b2145c" target="_top" xlink:title=" ">
<polygon fill="#ffffff" stroke="#000000" points="657.5,-155.5 657.5,-174.5 800.5,-174.5 800.5,-155.5 657.5,-155.5"/>
<text text-anchor="middle" x="729" y="-162.5" font-family="Helvetica,sans-Serif" font-size="10.00" fill="#000000">WaitPushUndoStack::push</text>
</a>
</g>
</g>
<!-- Node3274&#45;&gt;Node3277 -->
<g id="edge8" class="edge">
<title>Node3274&#45;&gt;Node3277</title>
<path fill="none" stroke="#191970" d="M611.1213,-175.4172C623.1711,-174.3523 635.3965,-173.2719 647.1843,-172.2302"/>
<polygon fill="#191970" stroke="#191970" points="647.7621,-175.6929 657.4151,-171.3261 647.1458,-168.7201 647.7621,-175.6929"/>
</g>
<!-- Node3278 -->
<g id="node10" class="node">
<title>Node3278</title>
<g id="a_node10"><a xlink:href="../../d0/dbb/classWaitPushUndoStack.html#a2b0322812e333fec2b4d0d12b12e634c" target="_top" xlink:title=" ">
<polygon fill="#ffffff" stroke="#000000" points="847,-153 847,-183 967,-183 967,-153 847,-153"/>
<text text-anchor="start" x="855" y="-171" font-family="Helvetica,sans-Serif" font-size="10.00" fill="#000000">WaitPushUndoStack::</text>
<text text-anchor="middle" x="907" y="-160" font-family="Helvetica,sans-Serif" font-size="10.00" fill="#000000">writeUndo</text>
</a>
</g>
</g>
<!-- Node3277&#45;&gt;Node3278 -->
<g id="edge9" class="edge">
<title>Node3277&#45;&gt;Node3278</title>
<path fill="none" stroke="#191970" d="M800.63,-166.2072C812.5101,-166.4075 824.8198,-166.6149 836.6674,-166.8146"/>
<polygon fill="#191970" stroke="#191970" points="836.8799,-170.3186 846.9375,-166.9877 836.9979,-163.3196 836.8799,-170.3186"/>
</g>
<!-- Node3279 -->
<g id="node11" class="node">
<title>Node3279</title>
<g id="a_node11"><a xlink:href="../../d8/d6e/classBaseCommand.html#a2d7619b36325bfec9111724045c24b8e" target="_top" xlink:title=" ">
<polygon fill="#ffffff" stroke="#000000" points="1013,-153.5 1013,-172.5 1186,-172.5 1186,-153.5 1013,-153.5"/>
<text text-anchor="middle" x="1099.5" y="-160.5" font-family="Helvetica,sans-Serif" font-size="10.00" fill="#000000">BaseCommand::getDebugString</text>
</a>
</g>
</g>
<!-- Node3278&#45;&gt;Node3279 -->
<g id="edge10" class="edge">
<title>Node3278&#45;&gt;Node3279</title>
<path fill="none" stroke="#191970" d="M967.1164,-166.4385C978.4065,-166.1453 990.4726,-165.8319 1002.5533,-165.5181"/>
<polygon fill="#191970" stroke="#191970" points="1002.7822,-169.0134 1012.6879,-165.2549 1002.6003,-162.0158 1002.7822,-169.0134"/>
</g>
<!-- Node3282 -->
<g id="node14" class="node">
<title>Node3282</title>
<g id="a_node14"><a xlink:href="../../d8/d6e/classBaseCommand.html#af34b4e2829ad3b7b718499916fd87cbb" target="_top" xlink:title=" ">
<polygon fill="#ffffff" stroke="#000000" points="1037.5,-115.5 1037.5,-134.5 1161.5,-134.5 1161.5,-115.5 1037.5,-115.5"/>
<text text-anchor="middle" x="1099.5" y="-122.5" font-family="Helvetica,sans-Serif" font-size="10.00" fill="#000000">BaseCommand::index</text>
</a>
</g>
</g>
<!-- Node3278&#45;&gt;Node3282 -->
<g id="edge13" class="edge">
<title>Node3278&#45;&gt;Node3282</title>
<path fill="none" stroke="#191970" d="M965.0148,-152.9946C977.5159,-149.9018 990.6765,-146.7518 1003,-144 1014.3424,-141.4673 1026.4749,-138.9383 1038.1755,-136.59"/>
<polygon fill="#191970" stroke="#191970" points="1039.1888,-139.9573 1048.316,-134.5774 1037.826,-133.0912 1039.1888,-139.9573"/>
</g>
<!-- Node3283 -->
<g id="node15" class="node">
<title>Node3283</title>
<g id="a_node15"><a xlink:href="../../d8/d6e/classBaseCommand.html#ad7114bcb3cf27232facaf0cbcd7e3b58" target="_top" xlink:title=" ">
<polygon fill="#ffffff" stroke="#000000" points="1003,-229.5 1003,-248.5 1196,-248.5 1196,-229.5 1003,-229.5"/>
<text text-anchor="middle" x="1099.5" y="-236.5" font-family="Helvetica,sans-Serif" font-size="10.00" fill="#000000">BaseCommand::subCommandCount</text>
</a>
</g>
</g>
<!-- Node3278&#45;&gt;Node3283 -->
<g id="edge14" class="edge">
<title>Node3278&#45;&gt;Node3283</title>
<path fill="none" stroke="#191970" d="M930.1321,-183.1225C949.0203,-194.8204 976.7824,-210.5659 1003,-220 1010.5387,-222.7127 1018.5558,-225.0693 1026.6227,-227.1092"/>
<polygon fill="#191970" stroke="#191970" points="1025.9204,-230.5397 1036.4583,-229.443 1027.5365,-223.7288 1025.9204,-230.5397"/>
</g>
<!-- Node3284 -->
<g id="node16" class="node">
<title>Node3284</title>
<g id="a_node16"><a xlink:href="../../d8/d6e/classBaseCommand.html#a2717e1d5a234ba427175907b2dc58c23" target="_top" xlink:title=" ">
<polygon fill="#ffffff" stroke="#000000" points="1017.5,-191.5 1017.5,-210.5 1181.5,-210.5 1181.5,-191.5 1017.5,-191.5"/>
<text text-anchor="middle" x="1099.5" y="-198.5" font-family="Helvetica,sans-Serif" font-size="10.00" fill="#000000">BaseCommand::subCommand</text>
</a>
</g>
</g>
<!-- Node3278&#45;&gt;Node3284 -->
<g id="edge15" class="edge">
<title>Node3278&#45;&gt;Node3284</title>
<path fill="none" stroke="#191970" d="M967.1164,-178.3057C988.2582,-181.93 1012.1211,-186.0208 1033.7057,-189.721"/>
<polygon fill="#191970" stroke="#191970" points="1033.3219,-193.2062 1043.7695,-191.4462 1034.5047,-186.3068 1033.3219,-193.2062"/>
</g>
<!-- Node3280 -->
<g id="node12" class="node">
<title>Node3280</title>
<g id="a_node12"><a xlink:href="../../d8/d6e/classBaseCommand.html#aca69868889f793ce1399fd0c752cfa05" target="_top" xlink:title=" ">
<polygon fill="#ffffff" stroke="#000000" points="1232,-153.5 1232,-172.5 1404,-172.5 1404,-153.5 1232,-153.5"/>
<text text-anchor="middle" x="1318" y="-160.5" font-family="Helvetica,sans-Serif" font-size="10.00" fill="#000000">BaseCommand::getParamString</text>
</a>
</g>
</g>
<!-- Node3279&#45;&gt;Node3280 -->
<g id="edge11" class="edge">
<title>Node3279&#45;&gt;Node3280</title>
<path fill="none" stroke="#191970" d="M1186.1708,-163C1197.7822,-163 1209.7493,-163 1221.5162,-163"/>
<polygon fill="#191970" stroke="#191970" points="1221.7913,-166.5001 1231.7913,-163 1221.7913,-159.5001 1221.7913,-166.5001"/>
</g>
<!-- Node3281 -->
<g id="node13" class="node">
<title>Node3281</title>
<g id="a_node13"><a xlink:href="../../d8/d37/classSketchWidget.html#a4319a31c3a619e166f0e7dac865e2ea3" target="_top" xlink:title=" ">
<polygon fill="#ffffff" stroke="#000000" points="1440,-153.5 1440,-172.5 1582,-172.5 1582,-153.5 1440,-153.5"/>
<text text-anchor="middle" x="1511" y="-160.5" font-family="Helvetica,sans-Serif" font-size="10.00" fill="#000000">SketchWidget::viewName</text>
</a>
</g>
</g>
<!-- Node3280&#45;&gt;Node3281 -->
<g id="edge12" class="edge">
<title>Node3280&#45;&gt;Node3281</title>
<path fill="none" stroke="#191970" d="M1404.0578,-163C1412.562,-163 1421.1756,-163 1429.6304,-163"/>
<polygon fill="#191970" stroke="#191970" points="1429.8465,-166.5001 1439.8465,-163 1429.8465,-159.5001 1429.8465,-166.5001"/>
</g>
<!-- Node3287 -->
<g id="node19" class="node">
<title>Node3287</title>
<g id="a_node19"><a xlink:href="../../d8/d37/classSketchWidget.html#a4ead6acb9dd82cafb7dc5abb100f66e5" target="_top" xlink:title=" ">
<polygon fill="#ffffff" stroke="#000000" points="441,-.5 441,-19.5 587,-19.5 587,-.5 441,-.5"/>
<text text-anchor="middle" x="514" y="-7.5" font-family="Helvetica,sans-Serif" font-size="10.00" fill="#000000">SketchWidget::sortAnyByZ</text>
</a>
</g>
</g>
<!-- Node3286&#45;&gt;Node3287 -->
<g id="edge18" class="edge">
<title>Node3286&#45;&gt;Node3287</title>
<path fill="none" stroke="#191970" d="M360.5623,-10C383.1688,-10 407.9566,-10 430.8908,-10"/>
<polygon fill="#191970" stroke="#191970" points="430.9375,-13.5001 440.9374,-10 430.9374,-6.5001 430.9375,-13.5001"/>
</g>
<!-- Node3288 -->
<g id="node20" class="node">
<title>Node3288</title>
<g id="a_node20"><a xlink:href="../../d4/d4f/classItemBase.html#a5b91c84f9c987e8ac32a97218fcbec7b" target="_top" xlink:title=" ">
<polygon fill="#ffffff" stroke="#000000" points="658.5,-38.5 658.5,-57.5 799.5,-57.5 799.5,-38.5 658.5,-38.5"/>
<text text-anchor="middle" x="729" y="-45.5" font-family="Helvetica,sans-Serif" font-size="10.00" fill="#000000">ItemBase::saveGeometry</text>
</a>
</g>
</g>
<!-- Node3287&#45;&gt;Node3288 -->
<g id="edge19" class="edge">
<title>Node3287&#45;&gt;Node3288</title>
<path fill="none" stroke="#191970" d="M567.9761,-19.54C597.3678,-24.7348 633.9264,-31.1963 664.7768,-36.6489"/>
<polygon fill="#191970" stroke="#191970" points="664.5452,-40.1622 675.0017,-38.4561 665.7635,-33.269 664.5452,-40.1622"/>
</g>
<!-- Node3289 -->
<g id="node21" class="node">
<title>Node3289</title>
<g id="a_node21"><a xlink:href="../../d4/d4f/classItemBase.html#afef2744caad90b7a563f557b01e07513" target="_top" xlink:title=" ">
<polygon fill="#ffffff" stroke="#000000" points="669,-.5 669,-19.5 789,-19.5 789,-.5 669,-.5"/>
<text text-anchor="middle" x="729" y="-7.5" font-family="Helvetica,sans-Serif" font-size="10.00" fill="#000000">ItemBase::zLessThan</text>
</a>
</g>
</g>
<!-- Node3287&#45;&gt;Node3289 -->
<g id="edge20" class="edge">
<title>Node3287&#45;&gt;Node3289</title>
<path fill="none" stroke="#191970" d="M587.0892,-10C610.3127,-10 635.9315,-10 658.9364,-10"/>
<polygon fill="#191970" stroke="#191970" points="658.9615,-13.5001 668.9615,-10 658.9614,-6.5001 658.9615,-13.5001"/>
</g>
<!-- Node3290 -->
<g id="node22" class="node">
<title>Node3290</title>
<g id="a_node22"><a xlink:href="../../d4/d4f/classItemBase.html#a1e72b3e4e4038345a39cf3ef2f664957" target="_top" xlink:title=" ">
<polygon fill="#ffffff" stroke="#000000" points="870,-6.5 870,-25.5 944,-25.5 944,-6.5 870,-6.5"/>
<text text-anchor="middle" x="907" y="-13.5" font-family="Helvetica,sans-Serif" font-size="10.00" fill="#000000">ItemBase::z</text>
</a>
</g>
</g>
<!-- Node3289&#45;&gt;Node3290 -->
<g id="edge21" class="edge">
<title>Node3289&#45;&gt;Node3290</title>
<path fill="none" stroke="#191970" d="M789.2627,-12.0313C812.2315,-12.8056 838.0608,-13.6762 859.6619,-14.4043"/>
<polygon fill="#191970" stroke="#191970" points="859.783,-17.9103 869.8953,-14.7493 860.0189,-10.9143 859.783,-17.9103"/>
</g>
<!-- Node3290&#45;&gt;Node3271 -->
<g id="edge22" class="edge">
<title>Node3290&#45;&gt;Node3271</title>
<path fill="none" stroke="#191970" d="M937.5022,-25.5072C970.3528,-35.7463 1022.7767,-52.0863 1059.0496,-63.3921"/>
<polygon fill="#191970" stroke="#191970" points="1058.2339,-66.8038 1068.8224,-66.4382 1060.3169,-60.1209 1058.2339,-66.8038"/>
</g>
<!-- Node3291 -->
<g id="node23" class="node">
<title>Node3291</title>
<g id="a_node23"><a xlink:href="../../d3/de8/classViewGeometry.html#a4e18f5bc63d72eb798b9206f76b6824b" target="_top" xlink:title=" ">
<polygon fill="#ffffff" stroke="#000000" points="1049.5,-6.5 1049.5,-25.5 1149.5,-25.5 1149.5,-6.5 1049.5,-6.5"/>
<text text-anchor="middle" x="1099.5" y="-13.5" font-family="Helvetica,sans-Serif" font-size="10.00" fill="#000000">ViewGeometry::z</text>
</a>
</g>
</g>
<!-- Node3290&#45;&gt;Node3291 -->
<g id="edge23" class="edge">
<title>Node3290&#45;&gt;Node3291</title>
<path fill="none" stroke="#191970" d="M944.1159,-16C971.0113,-16 1007.9644,-16 1039.0862,-16"/>
<polygon fill="#191970" stroke="#191970" points="1039.3941,-19.5001 1049.394,-16 1039.394,-12.5001 1039.3941,-19.5001"/>
</g>
</g>
</svg>
