<?xml version="1.0" encoding="UTF-8" standalone="no"?>
<!DOCTYPE svg PUBLIC "-//W3C//DTD SVG 1.1//EN"
 "http://www.w3.org/Graphics/SVG/1.1/DTD/svg11.dtd">
<!-- Generated by graphviz version 2.40.1 (0)
 -->
<!-- Title: PartsEditorView::createConnector Pages: 1 -->
<svg width="1158pt" height="142pt"
 viewBox="0.00 0.00 1158.00 142.00" xmlns="http://www.w3.org/2000/svg" xmlns:xlink="http://www.w3.org/1999/xlink">
<g id="graph0" class="graph" transform="scale(1 1) rotate(0) translate(4 138)">
<title>PartsEditorView::createConnector</title>
<polygon fill="#ffffff" stroke="transparent" points="-4,4 -4,-138 1154,-138 1154,4 -4,4"/>
<!-- Node728 -->
<g id="node1" class="node">
<title>Node728</title>
<g id="a_node1"><a xlink:title=" ">
<polygon fill="#bfbfbf" stroke="#000000" points="0,-76.5 0,-95.5 179,-95.5 179,-76.5 0,-76.5"/>
<text text-anchor="middle" x="89.5" y="-83.5" font-family="Helvetica,sans-Serif" font-size="10.00" fill="#000000">PartsEditorView::createConnector</text>
</a>
</g>
</g>
<!-- Node729 -->
<g id="node2" class="node">
<title>Node729</title>
<g id="a_node2"><a xlink:href="../../d9/d65/classConnector.html#ad73c2d3ee77e78a9dea4aa47385954d7" target="_top" xlink:title=" ">
<polygon fill="#ffffff" stroke="#000000" points="215,-95.5 215,-114.5 379,-114.5 379,-95.5 215,-95.5"/>
<text text-anchor="middle" x="297" y="-102.5" font-family="Helvetica,sans-Serif" font-size="10.00" fill="#000000">Connector::connectorSharedID</text>
</a>
</g>
</g>
<!-- Node728&#45;&gt;Node729 -->
<g id="edge1" class="edge">
<title>Node728&#45;&gt;Node729</title>
<path fill="none" stroke="#191970" d="M179.0042,-94.1956C187.5975,-94.9824 196.3237,-95.7814 204.9409,-96.5705"/>
<polygon fill="#191970" stroke="#191970" points="204.7147,-100.0643 214.9923,-97.4909 205.3531,-93.0935 204.7147,-100.0643"/>
</g>
<!-- Node730 -->
<g id="node3" class="node">
<title>Node730</title>
<g id="a_node3"><a xlink:href="../../d0/dbb/classWaitPushUndoStack.html#a279fdca551f05e81111de92ea5b2145c" target="_top" xlink:title=" ">
<polygon fill="#ffffff" stroke="#000000" points="225.5,-57.5 225.5,-76.5 368.5,-76.5 368.5,-57.5 225.5,-57.5"/>
<text text-anchor="middle" x="297" y="-64.5" font-family="Helvetica,sans-Serif" font-size="10.00" fill="#000000">WaitPushUndoStack::push</text>
</a>
</g>
</g>
<!-- Node728&#45;&gt;Node730 -->
<g id="edge2" class="edge">
<title>Node728&#45;&gt;Node730</title>
<path fill="none" stroke="#191970" d="M179.0042,-77.8044C190.9661,-76.7091 203.1855,-75.5902 215.01,-74.5075"/>
<polygon fill="#191970" stroke="#191970" points="215.6441,-77.9642 225.2833,-73.5668 215.0057,-70.9934 215.6441,-77.9642"/>
</g>
<!-- Node731 -->
<g id="node4" class="node">
<title>Node731</title>
<g id="a_node4"><a xlink:href="../../d0/dbb/classWaitPushUndoStack.html#a2b0322812e333fec2b4d0d12b12e634c" target="_top" xlink:title=" ">
<polygon fill="#ffffff" stroke="#000000" points="415,-52 415,-82 535,-82 535,-52 415,-52"/>
<text text-anchor="start" x="423" y="-70" font-family="Helvetica,sans-Serif" font-size="10.00" fill="#000000">WaitPushUndoStack::</text>
<text text-anchor="middle" x="475" y="-59" font-family="Helvetica,sans-Serif" font-size="10.00" fill="#000000">writeUndo</text>
</a>
</g>
</g>
<!-- Node730&#45;&gt;Node731 -->
<g id="edge3" class="edge">
<title>Node730&#45;&gt;Node731</title>
<path fill="none" stroke="#191970" d="M368.63,-67C380.5101,-67 392.8198,-67 404.6674,-67"/>
<polygon fill="#191970" stroke="#191970" points="404.9375,-70.5001 414.9375,-67 404.9375,-63.5001 404.9375,-70.5001"/>
</g>
<!-- Node732 -->
<g id="node5" class="node">
<title>Node732</title>
<g id="a_node5"><a xlink:href="../../d8/d6e/classBaseCommand.html#a2d7619b36325bfec9111724045c24b8e" target="_top" xlink:title=" ">
<polygon fill="#ffffff" stroke="#000000" points="581,-114.5 581,-133.5 754,-133.5 754,-114.5 581,-114.5"/>
<text text-anchor="middle" x="667.5" y="-121.5" font-family="Helvetica,sans-Serif" font-size="10.00" fill="#000000">BaseCommand::getDebugString</text>
</a>
</g>
</g>
<!-- Node731&#45;&gt;Node732 -->
<g id="edge4" class="edge">
<title>Node731&#45;&gt;Node732</title>
<path fill="none" stroke="#191970" d="M508.6817,-82.082C526.8579,-89.7723 549.8458,-98.7873 571,-105 580.2411,-107.714 590.0949,-110.1545 599.8426,-112.3101"/>
<polygon fill="#191970" stroke="#191970" points="599.4233,-115.7991 609.9322,-114.453 600.8776,-108.9518 599.4233,-115.7991"/>
</g>
<!-- Node735 -->
<g id="node8" class="node">
<title>Node735</title>
<g id="a_node8"><a xlink:href="../../d8/d6e/classBaseCommand.html#af34b4e2829ad3b7b718499916fd87cbb" target="_top" xlink:title=" ">
<polygon fill="#ffffff" stroke="#000000" points="605.5,-76.5 605.5,-95.5 729.5,-95.5 729.5,-76.5 605.5,-76.5"/>
<text text-anchor="middle" x="667.5" y="-83.5" font-family="Helvetica,sans-Serif" font-size="10.00" fill="#000000">BaseCommand::index</text>
</a>
</g>
</g>
<!-- Node731&#45;&gt;Node735 -->
<g id="edge7" class="edge">
<title>Node731&#45;&gt;Node735</title>
<path fill="none" stroke="#191970" d="M535.1164,-72.9336C554.0924,-74.8065 575.2605,-76.8958 595.0058,-78.8447"/>
<polygon fill="#191970" stroke="#191970" points="594.8871,-82.3499 605.1825,-79.8492 595.5747,-75.3838 594.8871,-82.3499"/>
</g>
<!-- Node736 -->
<g id="node9" class="node">
<title>Node736</title>
<g id="a_node9"><a xlink:href="../../d8/d6e/classBaseCommand.html#ad7114bcb3cf27232facaf0cbcd7e3b58" target="_top" xlink:title=" ">
<polygon fill="#ffffff" stroke="#000000" points="571,-38.5 571,-57.5 764,-57.5 764,-38.5 571,-38.5"/>
<text text-anchor="middle" x="667.5" y="-45.5" font-family="Helvetica,sans-Serif" font-size="10.00" fill="#000000">BaseCommand::subCommandCount</text>
</a>
</g>
</g>
<!-- Node731&#45;&gt;Node736 -->
<g id="edge8" class="edge">
<title>Node731&#45;&gt;Node736</title>
<path fill="none" stroke="#191970" d="M535.1164,-61.0664C543.4521,-60.2437 552.2108,-59.3792 561.0861,-58.5032"/>
<polygon fill="#191970" stroke="#191970" points="561.532,-61.9763 571.1399,-57.5109 560.8444,-55.0101 561.532,-61.9763"/>
</g>
<!-- Node737 -->
<g id="node10" class="node">
<title>Node737</title>
<g id="a_node10"><a xlink:href="../../d8/d6e/classBaseCommand.html#a2717e1d5a234ba427175907b2dc58c23" target="_top" xlink:title=" ">
<polygon fill="#ffffff" stroke="#000000" points="585.5,-.5 585.5,-19.5 749.5,-19.5 749.5,-.5 585.5,-.5"/>
<text text-anchor="middle" x="667.5" y="-7.5" font-family="Helvetica,sans-Serif" font-size="10.00" fill="#000000">BaseCommand::subCommand</text>
</a>
</g>
</g>
<!-- Node731&#45;&gt;Node737 -->
<g id="edge9" class="edge">
<title>Node731&#45;&gt;Node737</title>
<path fill="none" stroke="#191970" d="M508.6817,-51.918C526.8579,-44.2277 549.8458,-35.2127 571,-29 580.2411,-26.286 590.0949,-23.8455 599.8426,-21.6899"/>
<polygon fill="#191970" stroke="#191970" points="600.8776,-25.0482 609.9322,-19.547 599.4233,-18.2009 600.8776,-25.0482"/>
</g>
<!-- Node733 -->
<g id="node6" class="node">
<title>Node733</title>
<g id="a_node6"><a xlink:href="../../d8/d6e/classBaseCommand.html#aca69868889f793ce1399fd0c752cfa05" target="_top" xlink:title=" ">
<polygon fill="#ffffff" stroke="#000000" points="800,-114.5 800,-133.5 972,-133.5 972,-114.5 800,-114.5"/>
<text text-anchor="middle" x="886" y="-121.5" font-family="Helvetica,sans-Serif" font-size="10.00" fill="#000000">BaseCommand::getParamString</text>
</a>
</g>
</g>
<!-- Node732&#45;&gt;Node733 -->
<g id="edge5" class="edge">
<title>Node732&#45;&gt;Node733</title>
<path fill="none" stroke="#191970" d="M754.1708,-124C765.7822,-124 777.7493,-124 789.5162,-124"/>
<polygon fill="#191970" stroke="#191970" points="789.7913,-127.5001 799.7913,-124 789.7913,-120.5001 789.7913,-127.5001"/>
</g>
<!-- Node734 -->
<g id="node7" class="node">
<title>Node734</title>
<g id="a_node7"><a xlink:href="../../d8/d37/classSketchWidget.html#a4319a31c3a619e166f0e7dac865e2ea3" target="_top" xlink:title=" ">
<polygon fill="#ffffff" stroke="#000000" points="1008,-114.5 1008,-133.5 1150,-133.5 1150,-114.5 1008,-114.5"/>
<text text-anchor="middle" x="1079" y="-121.5" font-family="Helvetica,sans-Serif" font-size="10.00" fill="#000000">SketchWidget::viewName</text>
</a>
</g>
</g>
<!-- Node733&#45;&gt;Node734 -->
<g id="edge6" class="edge">
<title>Node733&#45;&gt;Node734</title>
<path fill="none" stroke="#191970" d="M972.0578,-124C980.562,-124 989.1756,-124 997.6304,-124"/>
<polygon fill="#191970" stroke="#191970" points="997.8465,-127.5001 1007.8465,-124 997.8465,-120.5001 997.8465,-127.5001"/>
</g>
</g>
</svg>
