<?xml version="1.0" encoding="UTF-8" standalone="no"?>
<!DOCTYPE svg PUBLIC "-//W3C//DTD SVG 1.1//EN"
 "http://www.w3.org/Graphics/SVG/1.1/DTD/svg11.dtd">
<!-- Generated by graphviz version 2.40.1 (0)
 -->
<!-- Title: SketchWidget::changeLegCurve Pages: 1 -->
<svg width="1274pt" height="516pt"
 viewBox="0.00 0.00 1274.00 516.00" xmlns="http://www.w3.org/2000/svg" xmlns:xlink="http://www.w3.org/1999/xlink">
<g id="graph0" class="graph" transform="scale(1 1) rotate(0) translate(4 512)">
<title>SketchWidget::changeLegCurve</title>
<polygon fill="#ffffff" stroke="transparent" points="-4,4 -4,-512 1270,-512 1270,4 -4,4"/>
<!-- Node4222 -->
<g id="node1" class="node">
<title>Node4222</title>
<g id="a_node1"><a xlink:title=" ">
<polygon fill="#bfbfbf" stroke="#000000" points="0,-126.5 0,-145.5 170,-145.5 170,-126.5 0,-126.5"/>
<text text-anchor="middle" x="85" y="-133.5" font-family="Helvetica,sans-Serif" font-size="10.00" fill="#000000">SketchWidget::changeLegCurve</text>
</a>
</g>
</g>
<!-- Node4223 -->
<g id="node2" class="node">
<title>Node4223</title>
<g id="a_node2"><a xlink:href="../../dc/d3a/classConnectorItem.html#afaaa4108710c89f522b3e5471f724282" target="_top" xlink:title=" ">
<polygon fill="#ffffff" stroke="#000000" points="222,-238 222,-268 369,-268 369,-238 222,-238"/>
<text text-anchor="start" x="230" y="-256" font-family="Helvetica,sans-Serif" font-size="10.00" fill="#000000">ConnectorItem::changeLeg</text>
<text text-anchor="middle" x="295.5" y="-245" font-family="Helvetica,sans-Serif" font-size="10.00" fill="#000000">Curve</text>
</a>
</g>
</g>
<!-- Node4222&#45;&gt;Node4223 -->
<g id="edge1" class="edge">
<title>Node4222&#45;&gt;Node4223</title>
<path fill="none" stroke="#191970" d="M102.2261,-145.5746C136.3987,-164.5684 213.4146,-207.3753 259.2407,-232.8464"/>
<polygon fill="#191970" stroke="#191970" points="257.8027,-236.0514 268.2437,-237.8504 261.2035,-229.933 257.8027,-236.0514"/>
</g>
<!-- Node4237 -->
<g id="node16" class="node">
<title>Node4237</title>
<g id="a_node16"><a xlink:href="../../d8/d37/classSketchWidget.html#a7e77fed848246505a83b553ed650c403" target="_top" xlink:title=" ">
<polygon fill="#ffffff" stroke="#000000" points="206,-126.5 206,-145.5 385,-145.5 385,-126.5 206,-126.5"/>
<text text-anchor="middle" x="295.5" y="-133.5" font-family="Helvetica,sans-Serif" font-size="10.00" fill="#000000">SketchWidget::findConnectorItem</text>
</a>
</g>
</g>
<!-- Node4222&#45;&gt;Node4237 -->
<g id="edge16" class="edge">
<title>Node4222&#45;&gt;Node4237</title>
<path fill="none" stroke="#191970" d="M170.0116,-136C178.4589,-136 187.087,-136 195.6669,-136"/>
<polygon fill="#191970" stroke="#191970" points="195.7032,-139.5001 205.7032,-136 195.7031,-132.5001 195.7032,-139.5001"/>
</g>
<!-- Node4238 -->
<g id="node17" class="node">
<title>Node4238</title>
<g id="a_node17"><a xlink:href="../../d8/d37/classSketchWidget.html#a8e2ae23ef1e4c2ad993e0c3985e5c3ba" target="_top" xlink:title=" ">
<polygon fill="#ffffff" stroke="#000000" points="447,-202.5 447,-221.5 577,-221.5 577,-202.5 447,-202.5"/>
<text text-anchor="middle" x="512" y="-209.5" font-family="Helvetica,sans-Serif" font-size="10.00" fill="#000000">SketchWidget::findItem</text>
</a>
</g>
</g>
<!-- Node4222&#45;&gt;Node4238 -->
<g id="edge25" class="edge">
<title>Node4222&#45;&gt;Node4238</title>
<path fill="none" stroke="#191970" d="M138.6475,-145.5485C217.5334,-159.5891 364.5462,-185.7553 448.6376,-200.7224"/>
<polygon fill="#191970" stroke="#191970" points="448.1134,-204.184 458.572,-202.4906 449.34,-197.2923 448.1134,-204.184"/>
</g>
<!-- Node4244 -->
<g id="node23" class="node">
<title>Node4244</title>
<g id="a_node23"><a xlink:href="../../d5/d9d/classViewLayer.html#a44b443b6ce5756595b7faaaac510c6ef" target="_top" xlink:title=" ">
<polygon fill="#ffffff" stroke="#000000" points="230,-88.5 230,-107.5 361,-107.5 361,-88.5 230,-88.5"/>
<text text-anchor="middle" x="295.5" y="-95.5" font-family="Helvetica,sans-Serif" font-size="10.00" fill="#000000">ViewLayer::specFromID</text>
</a>
</g>
</g>
<!-- Node4222&#45;&gt;Node4244 -->
<g id="edge26" class="edge">
<title>Node4222&#45;&gt;Node4244</title>
<path fill="none" stroke="#191970" d="M137.8463,-126.46C166.6229,-121.2652 202.4163,-114.8037 232.621,-109.3511"/>
<polygon fill="#191970" stroke="#191970" points="233.4128,-112.7648 242.6319,-107.5439 232.1692,-105.8761 233.4128,-112.7648"/>
</g>
<!-- Node4246 -->
<g id="node25" class="node">
<title>Node4246</title>
<g id="a_node25"><a xlink:href="../../d4/d4f/classItemBase.html#a8f16baa26ee92ac6cd8dda5c69d759d4" target="_top" xlink:title=" ">
<polygon fill="#ffffff" stroke="#000000" points="230.5,-50.5 230.5,-69.5 360.5,-69.5 360.5,-50.5 230.5,-50.5"/>
<text text-anchor="middle" x="295.5" y="-57.5" font-family="Helvetica,sans-Serif" font-size="10.00" fill="#000000">ItemBase::viewLayerID</text>
</a>
</g>
</g>
<!-- Node4222&#45;&gt;Node4246 -->
<g id="edge28" class="edge">
<title>Node4222&#45;&gt;Node4246</title>
<path fill="none" stroke="#191970" d="M102.1083,-126.3856C125.0849,-113.8403 167.4867,-91.9647 206,-79 213.8988,-76.341 222.3195,-73.9739 230.7162,-71.8906"/>
<polygon fill="#191970" stroke="#191970" points="231.6007,-75.2781 240.5296,-69.575 229.993,-68.4652 231.6007,-75.2781"/>
</g>
<!-- Node4224 -->
<g id="node3" class="node">
<title>Node4224</title>
<g id="a_node3"><a xlink:href="../../dc/d3a/classConnectorItem.html#ae80559e104554bd66e3cc761749aac87" target="_top" xlink:title=" ">
<polygon fill="#ffffff" stroke="#000000" points="421,-374.5 421,-393.5 603,-393.5 603,-374.5 421,-374.5"/>
<text text-anchor="middle" x="512" y="-381.5" font-family="Helvetica,sans-Serif" font-size="10.00" fill="#000000">ConnectorItem::calcConnectorEnd</text>
</a>
</g>
</g>
<!-- Node4223&#45;&gt;Node4224 -->
<g id="edge2" class="edge">
<title>Node4223&#45;&gt;Node4224</title>
<path fill="none" stroke="#191970" d="M320.3353,-268.0274C362.1555,-293.332 446.1208,-344.1378 487.6277,-369.2528"/>
<polygon fill="#191970" stroke="#191970" points="485.9124,-372.3057 496.28,-374.4882 489.5363,-366.3167 485.9124,-372.3057"/>
</g>
<!-- Node4234 -->
<g id="node13" class="node">
<title>Node4234</title>
<g id="a_node13"><a xlink:href="../../dc/d3a/classConnectorItem.html#a45870bff8f2760514ea3fcb05fb57087" target="_top" xlink:title=" ">
<polygon fill="#ffffff" stroke="#000000" points="431.5,-243.5 431.5,-262.5 592.5,-262.5 592.5,-243.5 431.5,-243.5"/>
<text text-anchor="middle" x="512" y="-250.5" font-family="Helvetica,sans-Serif" font-size="10.00" fill="#000000">ConnectorItem::replaceBezier</text>
</a>
</g>
</g>
<!-- Node4223&#45;&gt;Node4234 -->
<g id="edge13" class="edge">
<title>Node4223&#45;&gt;Node4234</title>
<path fill="none" stroke="#191970" d="M369.0991,-253C385.8023,-253 403.736,-253 421.0622,-253"/>
<polygon fill="#191970" stroke="#191970" points="421.1796,-256.5001 431.1796,-253 421.1795,-249.5001 421.1796,-256.5001"/>
</g>
<!-- Node4225 -->
<g id="node4" class="node">
<title>Node4225</title>
<g id="a_node4"><a xlink:href="../../d8/d3c/classBezier.html#a71529ad1a0644b73f2adc958614bafc1" target="_top" xlink:title=" ">
<polygon fill="#ffffff" stroke="#000000" points="810,-350 810,-380 962,-380 962,-350 810,-350"/>
<text text-anchor="start" x="818" y="-368" font-family="Helvetica,sans-Serif" font-size="10.00" fill="#000000">Bezier::computeCubicCurve</text>
<text text-anchor="middle" x="886" y="-357" font-family="Helvetica,sans-Serif" font-size="10.00" fill="#000000">Length</text>
</a>
</g>
</g>
<!-- Node4224&#45;&gt;Node4225 -->
<g id="edge3" class="edge">
<title>Node4224&#45;&gt;Node4225</title>
<path fill="none" stroke="#191970" d="M563.7082,-374.4863C586.6784,-370.7206 614.0995,-366.8523 639,-365 692.2866,-361.036 752.2188,-360.931 799.7024,-361.8673"/>
<polygon fill="#191970" stroke="#191970" points="799.8726,-365.3717 809.9461,-362.0892 800.0243,-358.3734 799.8726,-365.3717"/>
</g>
<!-- Node4229 -->
<g id="node8" class="node">
<title>Node4229</title>
<g id="a_node8"><a xlink:href="../../dc/d3a/classConnectorItem.html#a817fe76035f457721fcf1c1f3800280e" target="_top" xlink:title=" ">
<polygon fill="#ffffff" stroke="#000000" points="647,-374.5 647,-393.5 766,-393.5 766,-374.5 647,-374.5"/>
<text text-anchor="middle" x="706.5" y="-381.5" font-family="Helvetica,sans-Serif" font-size="10.00" fill="#000000">ConnectorItem::findT</text>
</a>
</g>
</g>
<!-- Node4224&#45;&gt;Node4229 -->
<g id="edge7" class="edge">
<title>Node4224&#45;&gt;Node4229</title>
<path fill="none" stroke="#191970" d="M603.2702,-384C614.4896,-384 625.8155,-384 636.6476,-384"/>
<polygon fill="#191970" stroke="#191970" points="636.8622,-387.5001 646.8622,-384 636.8621,-380.5001 636.8622,-387.5001"/>
</g>
<!-- Node4230 -->
<g id="node9" class="node">
<title>Node4230</title>
<g id="a_node9"><a xlink:href="../../d8/d3c/classBezier.html#aec0fe0ef3264fbc54ca7e5808470f1ac" target="_top" xlink:title=" ">
<polygon fill="#ffffff" stroke="#000000" points="660,-298.5 660,-317.5 753,-317.5 753,-298.5 660,-298.5"/>
<text text-anchor="middle" x="706.5" y="-305.5" font-family="Helvetica,sans-Serif" font-size="10.00" fill="#000000">Bezier::isEmpty</text>
</a>
</g>
</g>
<!-- Node4224&#45;&gt;Node4230 -->
<g id="edge9" class="edge">
<title>Node4224&#45;&gt;Node4230</title>
<path fill="none" stroke="#191970" d="M534.3554,-374.4742C559.6248,-363.7939 602.0572,-346.1218 639,-332 648.7588,-328.2696 659.3808,-324.4033 669.2489,-320.8919"/>
<polygon fill="#191970" stroke="#191970" points="670.5419,-324.1472 678.8058,-317.517 668.211,-317.5467 670.5419,-324.1472"/>
</g>
<!-- Node4231 -->
<g id="node10" class="node">
<title>Node4231</title>
<g id="a_node10"><a xlink:href="../../d4/d08/misc_8h.html#ae7cc352fa1dc81e57ff53ebbc762f27d" target="_top" xlink:title=" ">
<polygon fill="#ffffff" stroke="#000000" points="684.5,-488.5 684.5,-507.5 728.5,-507.5 728.5,-488.5 684.5,-488.5"/>
<text text-anchor="middle" x="706.5" y="-495.5" font-family="Helvetica,sans-Serif" font-size="10.00" fill="#000000">qMax</text>
</a>
</g>
</g>
<!-- Node4224&#45;&gt;Node4231 -->
<g id="edge10" class="edge">
<title>Node4224&#45;&gt;Node4231</title>
<path fill="none" stroke="#191970" d="M521.9941,-393.5648C542.3653,-412.5586 590.8483,-455.2445 639,-479 650.1464,-484.499 663.1378,-488.6338 674.7299,-491.6179"/>
<polygon fill="#191970" stroke="#191970" points="673.9352,-495.0265 684.4751,-493.9495 675.564,-488.2186 673.9352,-495.0265"/>
</g>
<!-- Node4232 -->
<g id="node11" class="node">
<title>Node4232</title>
<g id="a_node11"><a xlink:href="../../d4/d08/misc_8h.html#aec6ff9c887dc8733e787bf81a01492fd" target="_top" xlink:title=" ">
<polygon fill="#ffffff" stroke="#000000" points="686,-450.5 686,-469.5 727,-469.5 727,-450.5 686,-450.5"/>
<text text-anchor="middle" x="706.5" y="-457.5" font-family="Helvetica,sans-Serif" font-size="10.00" fill="#000000">qMin</text>
</a>
</g>
</g>
<!-- Node4224&#45;&gt;Node4232 -->
<g id="edge11" class="edge">
<title>Node4224&#45;&gt;Node4232</title>
<path fill="none" stroke="#191970" d="M530.9993,-393.592C555.5169,-405.7206 599.6982,-426.7371 639,-441 650.949,-445.3364 664.3798,-449.2962 676.0959,-452.4652"/>
<polygon fill="#191970" stroke="#191970" points="675.3086,-455.8771 685.87,-455.0361 677.0894,-449.1074 675.3086,-455.8771"/>
</g>
<!-- Node4233 -->
<g id="node12" class="node">
<title>Node4233</title>
<g id="a_node12"><a xlink:href="../../d8/d3c/classBezier.html#a3152ca2940ed500e564f8fd03bf41b77" target="_top" xlink:title=" ">
<polygon fill="#ffffff" stroke="#000000" points="645.5,-412.5 645.5,-431.5 767.5,-431.5 767.5,-412.5 645.5,-412.5"/>
<text text-anchor="middle" x="706.5" y="-419.5" font-family="Helvetica,sans-Serif" font-size="10.00" fill="#000000">Bezier::set_endpoints</text>
</a>
</g>
</g>
<!-- Node4224&#45;&gt;Node4233 -->
<g id="edge12" class="edge">
<title>Node4224&#45;&gt;Node4233</title>
<path fill="none" stroke="#191970" d="M560.8295,-393.54C587.1876,-398.6896 619.9169,-405.084 647.6712,-410.5065"/>
<polygon fill="#191970" stroke="#191970" points="647.1648,-413.9736 657.6504,-412.4561 648.5071,-407.1035 647.1648,-413.9736"/>
</g>
<!-- Node4226 -->
<g id="node5" class="node">
<title>Node4226</title>
<g id="a_node5"><a xlink:href="../../d4/d4f/classItemBase.html#a1e72b3e4e4038345a39cf3ef2f664957" target="_top" xlink:title=" ">
<polygon fill="#ffffff" stroke="#000000" points="998,-355.5 998,-374.5 1072,-374.5 1072,-355.5 998,-355.5"/>
<text text-anchor="middle" x="1035" y="-362.5" font-family="Helvetica,sans-Serif" font-size="10.00" fill="#000000">ItemBase::z</text>
</a>
</g>
</g>
<!-- Node4225&#45;&gt;Node4226 -->
<g id="edge4" class="edge">
<title>Node4225&#45;&gt;Node4226</title>
<path fill="none" stroke="#191970" d="M962.246,-365C970.8088,-365 979.3409,-365 987.3894,-365"/>
<polygon fill="#191970" stroke="#191970" points="987.6534,-368.5001 997.6534,-365 987.6533,-361.5001 987.6534,-368.5001"/>
</g>
<!-- Node4227 -->
<g id="node6" class="node">
<title>Node4227</title>
<g id="a_node6"><a xlink:href="../../d4/d4f/classItemBase.html#a8380ad795c557dd4a345b2c0113325dd" target="_top" xlink:title=" ">
<polygon fill="#ffffff" stroke="#000000" points="1108,-374.5 1108,-393.5 1266,-393.5 1266,-374.5 1108,-374.5"/>
<text text-anchor="middle" x="1187" y="-381.5" font-family="Helvetica,sans-Serif" font-size="10.00" fill="#000000">ItemBase::getViewGeometry</text>
</a>
</g>
</g>
<!-- Node4226&#45;&gt;Node4227 -->
<g id="edge5" class="edge">
<title>Node4226&#45;&gt;Node4227</title>
<path fill="none" stroke="#191970" d="M1072.1834,-369.6479C1081.0163,-370.752 1090.8054,-371.9757 1100.835,-373.2294"/>
<polygon fill="#191970" stroke="#191970" points="1100.5613,-376.7223 1110.9182,-374.4898 1101.4296,-369.7764 1100.5613,-376.7223"/>
</g>
<!-- Node4228 -->
<g id="node7" class="node">
<title>Node4228</title>
<g id="a_node7"><a xlink:href="../../d3/de8/classViewGeometry.html#a4e18f5bc63d72eb798b9206f76b6824b" target="_top" xlink:title=" ">
<polygon fill="#ffffff" stroke="#000000" points="1137,-336.5 1137,-355.5 1237,-355.5 1237,-336.5 1137,-336.5"/>
<text text-anchor="middle" x="1187" y="-343.5" font-family="Helvetica,sans-Serif" font-size="10.00" fill="#000000">ViewGeometry::z</text>
</a>
</g>
</g>
<!-- Node4226&#45;&gt;Node4228 -->
<g id="edge6" class="edge">
<title>Node4226&#45;&gt;Node4228</title>
<path fill="none" stroke="#191970" d="M1072.1834,-360.3521C1088.572,-358.3035 1108.2525,-355.8434 1126.6532,-353.5433"/>
<polygon fill="#191970" stroke="#191970" points="1127.2266,-356.999 1136.7152,-352.2856 1126.3582,-350.0531 1127.2266,-356.999"/>
</g>
<!-- Node4229&#45;&gt;Node4225 -->
<g id="edge8" class="edge">
<title>Node4229&#45;&gt;Node4225</title>
<path fill="none" stroke="#191970" d="M766.2709,-377.6733C777.0774,-376.5294 788.539,-375.3162 799.9218,-374.1113"/>
<polygon fill="#191970" stroke="#191970" points="800.31,-377.5899 809.886,-373.0566 799.5731,-370.6288 800.31,-377.5899"/>
</g>
<!-- Node4235 -->
<g id="node14" class="node">
<title>Node4235</title>
<g id="a_node14"><a xlink:href="../../d8/d3c/classBezier.html#a471c2ab7e34e061de38825685ec3b68f" target="_top" xlink:title=" ">
<polygon fill="#ffffff" stroke="#000000" points="668,-222.5 668,-241.5 745,-241.5 745,-222.5 668,-222.5"/>
<text text-anchor="middle" x="706.5" y="-229.5" font-family="Helvetica,sans-Serif" font-size="10.00" fill="#000000">Bezier::clear</text>
</a>
</g>
</g>
<!-- Node4234&#45;&gt;Node4235 -->
<g id="edge14" class="edge">
<title>Node4234&#45;&gt;Node4235</title>
<path fill="none" stroke="#191970" d="M592.5146,-244.3069C614.6744,-241.9143 638.0295,-239.3927 657.7892,-237.2593"/>
<polygon fill="#191970" stroke="#191970" points="658.2026,-240.7351 667.7691,-236.1817 657.4511,-233.7755 658.2026,-240.7351"/>
</g>
<!-- Node4236 -->
<g id="node15" class="node">
<title>Node4236</title>
<g id="a_node15"><a xlink:href="../../d8/d3c/classBezier.html#a729d94317967559220576af5599619ac" target="_top" xlink:title=" ">
<polygon fill="#ffffff" stroke="#000000" points="668,-260.5 668,-279.5 745,-279.5 745,-260.5 668,-260.5"/>
<text text-anchor="middle" x="706.5" y="-267.5" font-family="Helvetica,sans-Serif" font-size="10.00" fill="#000000">Bezier::copy</text>
</a>
</g>
</g>
<!-- Node4234&#45;&gt;Node4236 -->
<g id="edge15" class="edge">
<title>Node4234&#45;&gt;Node4236</title>
<path fill="none" stroke="#191970" d="M592.5146,-260.0373C614.6744,-261.9741 638.0295,-264.0154 657.7892,-265.7425"/>
<polygon fill="#191970" stroke="#191970" points="657.5023,-269.2307 667.7691,-266.6148 658.1119,-262.2573 657.5023,-269.2307"/>
</g>
<!-- Node4237&#45;&gt;Node4238 -->
<g id="edge17" class="edge">
<title>Node4237&#45;&gt;Node4238</title>
<path fill="none" stroke="#191970" d="M322.1792,-145.5649C340.209,-152.3106 364.3921,-161.9114 385,-172 401.6367,-180.1445 403.7099,-186.3543 421,-193 427.9133,-195.6572 435.2723,-197.9723 442.695,-199.9826"/>
<polygon fill="#191970" stroke="#191970" points="441.9045,-203.3928 452.4575,-202.4528 443.6216,-196.6067 441.9045,-203.3928"/>
</g>
<!-- Node4239 -->
<g id="node18" class="node">
<title>Node4239</title>
<g id="a_node18"><a xlink:href="../../d4/d4f/classItemBase.html#a27afd199a7ae3c3fd14e88ed0be14420" target="_top" xlink:title=" ">
<polygon fill="#ffffff" stroke="#000000" points="667.5,-73.5 667.5,-92.5 745.5,-92.5 745.5,-73.5 667.5,-73.5"/>
<text text-anchor="middle" x="706.5" y="-80.5" font-family="Helvetica,sans-Serif" font-size="10.00" fill="#000000">ItemBase::id</text>
</a>
</g>
</g>
<!-- Node4237&#45;&gt;Node4239 -->
<g id="edge23" class="edge">
<title>Node4237&#45;&gt;Node4239</title>
<path fill="none" stroke="#191970" d="M365.9334,-126.3468C372.6605,-123.8855 379.1461,-120.8184 385,-117 407.9351,-102.0398 396.6283,-79.484 421,-67 502.6963,-25.1524 615.3143,-52.101 671.5695,-70.2985"/>
<polygon fill="#191970" stroke="#191970" points="670.4803,-73.6248 681.0739,-73.4649 672.6928,-66.9836 670.4803,-73.6248"/>
</g>
<!-- Node4240 -->
<g id="node19" class="node">
<title>Node4240</title>
<g id="a_node19"><a xlink:href="../../d4/d4f/classItemBase.html#abf6d16e250a353043cd4953ddc049bd0" target="_top" xlink:title=" ">
<polygon fill="#ffffff" stroke="#000000" points="639,-130.5 639,-149.5 774,-149.5 774,-130.5 639,-130.5"/>
<text text-anchor="middle" x="706.5" y="-137.5" font-family="Helvetica,sans-Serif" font-size="10.00" fill="#000000">ItemBase::layerKinChief</text>
</a>
</g>
</g>
<!-- Node4237&#45;&gt;Node4240 -->
<g id="edge22" class="edge">
<title>Node4237&#45;&gt;Node4240</title>
<path fill="none" stroke="#191970" d="M385.1878,-136.8729C457.8663,-137.5802 559.2398,-138.5668 628.5676,-139.2415"/>
<polygon fill="#191970" stroke="#191970" points="628.9492,-142.7453 638.9828,-139.3429 629.0174,-135.7457 628.9492,-142.7453"/>
</g>
<!-- Node4242 -->
<g id="node21" class="node">
<title>Node4242</title>
<g id="a_node21"><a xlink:href="../../dc/d09/classNonConnectorItem.html#a1452f3637c83b50fbd089f9c4b4518b6" target="_top" xlink:title=" ">
<polygon fill="#ffffff" stroke="#000000" points="428.5,-76.5 428.5,-95.5 595.5,-95.5 595.5,-76.5 428.5,-76.5"/>
<text text-anchor="middle" x="512" y="-83.5" font-family="Helvetica,sans-Serif" font-size="10.00" fill="#000000">NonConnectorItem::attachedTo</text>
</a>
</g>
</g>
<!-- Node4237&#45;&gt;Node4242 -->
<g id="edge21" class="edge">
<title>Node4237&#45;&gt;Node4242</title>
<path fill="none" stroke="#191970" d="M342.0108,-126.4048C355.8624,-123.4721 371.0621,-120.1798 385,-117 411.3316,-110.9928 440.6252,-103.8719 464.4373,-97.9708"/>
<polygon fill="#191970" stroke="#191970" points="465.4221,-101.3326 474.2823,-95.5232 463.7332,-94.5394 465.4221,-101.3326"/>
</g>
<!-- Node4243 -->
<g id="node22" class="node">
<title>Node4243</title>
<g id="a_node22"><a xlink:href="../../dc/d3a/classConnectorItem.html#aa22ed310cdf87c914bfad84ce759d66b" target="_top" xlink:title=" ">
<polygon fill="#ffffff" stroke="#000000" points="440.5,-153 440.5,-183 583.5,-183 583.5,-153 440.5,-153"/>
<text text-anchor="start" x="448.5" y="-171" font-family="Helvetica,sans-Serif" font-size="10.00" fill="#000000">ConnectorItem::connector</text>
<text text-anchor="middle" x="512" y="-160" font-family="Helvetica,sans-Serif" font-size="10.00" fill="#000000">SharedID</text>
</a>
</g>
</g>
<!-- Node4237&#45;&gt;Node4243 -->
<g id="edge24" class="edge">
<title>Node4237&#45;&gt;Node4243</title>
<path fill="none" stroke="#191970" d="M359.871,-145.5144C381.9122,-148.7722 406.875,-152.4619 430.1121,-155.8965"/>
<polygon fill="#191970" stroke="#191970" points="429.8954,-159.4024 440.2997,-157.4023 430.919,-152.4776 429.8954,-159.4024"/>
</g>
<!-- Node4238&#45;&gt;Node4239 -->
<g id="edge18" class="edge">
<title>Node4238&#45;&gt;Node4239</title>
<path fill="none" stroke="#191970" d="M577.3271,-205.8873C586.5575,-202.9539 595.4571,-198.8118 603,-193 631.3404,-171.1638 614.3303,-146.9115 639,-121 648.4389,-111.0859 661.0433,-103.0481 672.8035,-96.9619"/>
<polygon fill="#191970" stroke="#191970" points="674.5151,-100.0216 681.9775,-92.5008 671.4538,-93.7264 674.5151,-100.0216"/>
</g>
<!-- Node4238&#45;&gt;Node4240 -->
<g id="edge19" class="edge">
<title>Node4238&#45;&gt;Node4240</title>
<path fill="none" stroke="#191970" d="M569.4391,-202.4439C580.7167,-199.8884 592.3475,-196.7628 603,-193 606.972,-191.597 649.7735,-169.4874 679.0753,-154.2727"/>
<polygon fill="#191970" stroke="#191970" points="680.7885,-157.3268 688.0482,-149.6101 677.5608,-151.1154 680.7885,-157.3268"/>
</g>
<!-- Node4241 -->
<g id="node20" class="node">
<title>Node4241</title>
<g id="a_node20"><a xlink:href="../../d4/d4f/classItemBase.html#acc32076e751f0e21ffb9050f275d3b87" target="_top" xlink:title=" ">
<polygon fill="#ffffff" stroke="#000000" points="651.5,-184.5 651.5,-203.5 761.5,-203.5 761.5,-184.5 651.5,-184.5"/>
<text text-anchor="middle" x="706.5" y="-191.5" font-family="Helvetica,sans-Serif" font-size="10.00" fill="#000000">ItemBase::layerKin</text>
</a>
</g>
</g>
<!-- Node4238&#45;&gt;Node4241 -->
<g id="edge20" class="edge">
<title>Node4238&#45;&gt;Node4241</title>
<path fill="none" stroke="#191970" d="M577.0361,-205.9812C597.7253,-204.0665 620.6075,-201.9489 641.3077,-200.0332"/>
<polygon fill="#191970" stroke="#191970" points="641.6403,-203.5175 651.2752,-199.1108 640.9952,-196.5473 641.6403,-203.5175"/>
</g>
<!-- Node4245 -->
<g id="node24" class="node">
<title>Node4245</title>
<g id="a_node24"><a xlink:href="../../d5/d9d/classViewLayer.html#acda6179880454250f27ee4ed167b6983" target="_top" xlink:title=" ">
<polygon fill="#ffffff" stroke="#000000" points="445,-.5 445,-19.5 579,-19.5 579,-.5 445,-.5"/>
<text text-anchor="middle" x="512" y="-7.5" font-family="Helvetica,sans-Serif" font-size="10.00" fill="#000000">ViewLayer::viewLayerID</text>
</a>
</g>
</g>
<!-- Node4244&#45;&gt;Node4245 -->
<g id="edge27" class="edge">
<title>Node4244&#45;&gt;Node4245</title>
<path fill="none" stroke="#191970" d="M361.0962,-89.5897C369.4961,-86.951 377.6991,-83.5026 385,-79 406.8001,-65.5555 399.5335,-47.9711 421,-34 427.9882,-29.4519 435.8064,-25.7633 443.846,-22.7723"/>
<polygon fill="#191970" stroke="#191970" points="444.989,-26.0806 453.349,-19.5719 442.7549,-19.4467 444.989,-26.0806"/>
</g>
</g>
</svg>
