<?xml version="1.0" encoding="UTF-8" standalone="no"?>
<!DOCTYPE svg PUBLIC "-//W3C//DTD SVG 1.1//EN"
 "http://www.w3.org/Graphics/SVG/1.1/DTD/svg11.dtd">
<!-- Generated by graphviz version 2.40.1 (0)
 -->
<!-- Title: SketchWidget::wireChangedCurveSlot Pages: 1 -->
<!--zoomable 211 -->
<svg id="main" version="1.1" xmlns="http://www.w3.org/2000/svg" xmlns:xlink="http://www.w3.org/1999/xlink" xml:space="preserve" onload="init(evt)">
<style type="text/css"><![CDATA[
.edge:hover path { stroke: red; }
.edge:hover polygon { stroke: red; fill: red; }
]]></style>
<script type="text/javascript"><![CDATA[
var edges = document.getElementsByTagName('g');
if (edges && edges.length) {
  for (var i=0;i<edges.length;i++) {
    if (edges[i].id.substr(0,4)=='edge') {
      edges[i].setAttribute('class','edge');
    }
  }
}
]]></script>
        <defs>
                <circle id="rim" cx="0" cy="0" r="7"/>
                <circle id="rim2" cx="0" cy="0" r="3.5"/>
                <g id="zoomPlus">
                        <use xlink:href="#rim" fill="#404040">
                                <set attributeName="fill" to="#808080" begin="zoomplus.mouseover" end="zoomplus.mouseout"/>
                        </use>
                        <path d="M-4,0h8M0,-4v8" fill="none" stroke="white" stroke-width="1.5" pointer-events="none"/>
                </g>
                <g id="zoomMin">
                        <use xlink:href="#rim" fill="#404040">
                                <set attributeName="fill" to="#808080" begin="zoomminus.mouseover" end="zoomminus.mouseout"/>
                        </use>
                        <path d="M-4,0h8" fill="none" stroke="white" stroke-width="1.5" pointer-events="none"/>
                </g>
                <g id="dirArrow">
                        <path fill="none" stroke="white" stroke-width="1.5" d="M0,-3.0v7 M-2.5,-0.5L0,-3.0L2.5,-0.5"/>
                </g>
               <g id="resetDef">
                       <use xlink:href="#rim2" fill="#404040">
                               <set attributeName="fill" to="#808080" begin="reset.mouseover" end="reset.mouseout"/>
                       </use>
               </g>
        </defs>

<script type="text/javascript">
var viewWidth = 1200;
var viewHeight = 211;
var sectionId = 'dynsection-618';
</script>
<script xlink:href="../../svgpan.js"/>
<svg id="graph" class="graph">
<g id="viewport">
<title>SketchWidget::wireChangedCurveSlot</title>
<polygon fill="#ffffff" stroke="transparent" points="-4,4 -4,-206.5 1196,-206.5 1196,4 -4,4"/>
<!-- Node24733 -->
<g id="node1" class="node">
<title>Node24733</title>
<g id="a_node1"><a xlink:title=" ">
<polygon fill="#bfbfbf" stroke="#000000" points="0,-90 0,-120 153,-120 153,-90 0,-90"/>
<text text-anchor="start" x="8" y="-108" font-family="Helvetica,sans-Serif" font-size="10.00" fill="#000000">SketchWidget::wireChanged</text>
<text text-anchor="middle" x="76.5" y="-97" font-family="Helvetica,sans-Serif" font-size="10.00" fill="#000000">CurveSlot</text>
</a>
</g>
</g>
<!-- Node24734 -->
<g id="node2" class="node">
<title>Node24734</title>
<g id="a_node2"><a xlink:href="../../d8/d37/classSketchWidget.html#a64ec2ec0979f89303d7299d215733cd8" target="_top" xlink:title=" ">
<polygon fill="#ffffff" stroke="#000000" points="203,-172 203,-202 354,-202 354,-172 203,-172"/>
<text text-anchor="start" x="211" y="-190" font-family="Helvetica,sans-Serif" font-size="10.00" fill="#000000">SketchWidget::clearHolding</text>
<text text-anchor="middle" x="278.5" y="-179" font-family="Helvetica,sans-Serif" font-size="10.00" fill="#000000">SelectItem</text>
</a>
</g>
</g>
<!-- Node24733&#45;&gt;Node24734 -->
<g id="edge1" class="edge">
<title>Node24733&#45;&gt;Node24734</title>
<path fill="none" stroke="#191970" d="M102.6457,-120.1055C125.0255,-132.5783 158.3879,-150.1028 189,-162 195.264,-164.4344 201.8591,-166.7386 208.5119,-168.8903"/>
<polygon fill="#191970" stroke="#191970" points="207.6797,-172.297 218.2683,-171.9313 209.7628,-165.6141 207.6797,-172.297"/>
</g>
<!-- Node24735 -->
<g id="node3" class="node">
<title>Node24735</title>
<g id="a_node3"><a xlink:href="../../d7/d64/classWire.html#a344d3f7e6f146f364b81d595d7792b3e" target="_top" xlink:title=" ">
<polygon fill="#ffffff" stroke="#000000" points="216.5,-133.5 216.5,-152.5 340.5,-152.5 340.5,-133.5 216.5,-133.5"/>
<text text-anchor="middle" x="278.5" y="-140.5" font-family="Helvetica,sans-Serif" font-size="10.00" fill="#000000">Wire::getAutoroutable</text>
</a>
</g>
</g>
<!-- Node24733&#45;&gt;Node24735 -->
<g id="edge2" class="edge">
<title>Node24733&#45;&gt;Node24735</title>
<path fill="none" stroke="#191970" d="M153.1556,-119.4204C174.5428,-123.4437 197.4787,-127.7584 217.8082,-131.5827"/>
<polygon fill="#191970" stroke="#191970" points="217.3943,-135.0662 227.869,-133.4754 218.6885,-128.1869 217.3943,-135.0662"/>
</g>
<!-- Node24737 -->
<g id="node5" class="node">
<title>Node24737</title>
<g id="a_node5"><a xlink:href="../../d4/d4f/classItemBase.html#a27afd199a7ae3c3fd14e88ed0be14420" target="_top" xlink:title=" ">
<polygon fill="#ffffff" stroke="#000000" points="239.5,-95.5 239.5,-114.5 317.5,-114.5 317.5,-95.5 239.5,-95.5"/>
<text text-anchor="middle" x="278.5" y="-102.5" font-family="Helvetica,sans-Serif" font-size="10.00" fill="#000000">ItemBase::id</text>
</a>
</g>
</g>
<!-- Node24733&#45;&gt;Node24737 -->
<g id="edge4" class="edge">
<title>Node24733&#45;&gt;Node24737</title>
<path fill="none" stroke="#191970" d="M153.1556,-105C178.6105,-105 206.2592,-105 229.0963,-105"/>
<polygon fill="#191970" stroke="#191970" points="229.2253,-108.5001 239.2252,-105 229.2252,-101.5001 229.2253,-108.5001"/>
</g>
<!-- Node24738 -->
<g id="node6" class="node">
<title>Node24738</title>
<g id="a_node6"><a xlink:href="../../d0/dbb/classWaitPushUndoStack.html#a279fdca551f05e81111de92ea5b2145c" target="_top" xlink:title=" ">
<polygon fill="#ffffff" stroke="#000000" points="207,-57.5 207,-76.5 350,-76.5 350,-57.5 207,-57.5"/>
<text text-anchor="middle" x="278.5" y="-64.5" font-family="Helvetica,sans-Serif" font-size="10.00" fill="#000000">WaitPushUndoStack::push</text>
</a>
</g>
</g>
<!-- Node24733&#45;&gt;Node24738 -->
<g id="edge5" class="edge">
<title>Node24733&#45;&gt;Node24738</title>
<path fill="none" stroke="#191970" d="M153.1556,-90.5796C174.5428,-86.5563 197.4787,-82.2416 217.8082,-78.4173"/>
<polygon fill="#191970" stroke="#191970" points="218.6885,-81.8131 227.869,-76.5246 217.3943,-74.9338 218.6885,-81.8131"/>
</g>
<!-- Node24746 -->
<g id="node14" class="node">
<title>Node24746</title>
<g id="a_node14"><a xlink:href="../../d8/d6e/classBaseCommand.html#a585d8f59cf9bd3df472711b2c73ac7e2" target="_top" xlink:title=" ">
<polygon fill="#ffffff" stroke="#000000" points="189,-19.5 189,-38.5 368,-38.5 368,-19.5 189,-19.5"/>
<text text-anchor="middle" x="278.5" y="-26.5" font-family="Helvetica,sans-Serif" font-size="10.00" fill="#000000">BaseCommand::setSkipFirstRedo</text>
</a>
</g>
</g>
<!-- Node24733&#45;&gt;Node24746 -->
<g id="edge13" class="edge">
<title>Node24733&#45;&gt;Node24746</title>
<path fill="none" stroke="#191970" d="M101.5755,-89.9025C123.8385,-77.0888 157.6143,-59.0697 189,-48 196.5614,-45.3331 204.6205,-42.9792 212.6871,-40.9186"/>
<polygon fill="#191970" stroke="#191970" points="213.5986,-44.2992 222.4974,-38.5492 211.9551,-37.4948 213.5986,-44.2992"/>
</g>
<!-- Node24736 -->
<g id="node4" class="node">
<title>Node24736</title>
<g id="a_node4"><a xlink:href="../../d3/de8/classViewGeometry.html#af689b52fc3d260a5cc237dcb760b8faa" target="_top" xlink:title=" ">
<polygon fill="#ffffff" stroke="#000000" points="404,-133.5 404,-152.5 577,-152.5 577,-133.5 404,-133.5"/>
<text text-anchor="middle" x="490.5" y="-140.5" font-family="Helvetica,sans-Serif" font-size="10.00" fill="#000000">ViewGeometry::getAutoroutable</text>
</a>
</g>
</g>
<!-- Node24735&#45;&gt;Node24736 -->
<g id="edge3" class="edge">
<title>Node24735&#45;&gt;Node24736</title>
<path fill="none" stroke="#191970" d="M340.6745,-143C357.2974,-143 375.6655,-143 393.6776,-143"/>
<polygon fill="#191970" stroke="#191970" points="393.9287,-146.5001 403.9287,-143 393.9286,-139.5001 393.9287,-146.5001"/>
</g>
<!-- Node24739 -->
<g id="node7" class="node">
<title>Node24739</title>
<g id="a_node7"><a xlink:href="../../d0/dbb/classWaitPushUndoStack.html#a2b0322812e333fec2b4d0d12b12e634c" target="_top" xlink:title=" ">
<polygon fill="#ffffff" stroke="#000000" points="430.5,-52 430.5,-82 550.5,-82 550.5,-52 430.5,-52"/>
<text text-anchor="start" x="438.5" y="-70" font-family="Helvetica,sans-Serif" font-size="10.00" fill="#000000">WaitPushUndoStack::</text>
<text text-anchor="middle" x="490.5" y="-59" font-family="Helvetica,sans-Serif" font-size="10.00" fill="#000000">writeUndo</text>
</a>
</g>
</g>
<!-- Node24738&#45;&gt;Node24739 -->
<g id="edge6" class="edge">
<title>Node24738&#45;&gt;Node24739</title>
<path fill="none" stroke="#191970" d="M350.2735,-67C372.8782,-67 397.8091,-67 420.3028,-67"/>
<polygon fill="#191970" stroke="#191970" points="420.4491,-70.5001 430.4491,-67 420.449,-63.5001 420.4491,-70.5001"/>
</g>
<!-- Node24740 -->
<g id="node8" class="node">
<title>Node24740</title>
<g id="a_node8"><a xlink:href="../../d8/d6e/classBaseCommand.html#a2d7619b36325bfec9111724045c24b8e" target="_top" xlink:title=" ">
<polygon fill="#ffffff" stroke="#000000" points="623,-114.5 623,-133.5 796,-133.5 796,-114.5 623,-114.5"/>
<text text-anchor="middle" x="709.5" y="-121.5" font-family="Helvetica,sans-Serif" font-size="10.00" fill="#000000">BaseCommand::getDebugString</text>
</a>
</g>
</g>
<!-- Node24739&#45;&gt;Node24740 -->
<g id="edge7" class="edge">
<title>Node24739&#45;&gt;Node24740</title>
<path fill="none" stroke="#191970" d="M534.9769,-82.0482C558.083,-89.5464 586.8785,-98.3969 613,-105 623.5198,-107.6592 634.7631,-110.169 645.7225,-112.4397"/>
<polygon fill="#191970" stroke="#191970" points="645.1828,-115.9014 655.6785,-114.4552 646.5718,-109.0405 645.1828,-115.9014"/>
</g>
<!-- Node24743 -->
<g id="node11" class="node">
<title>Node24743</title>
<g id="a_node11"><a xlink:href="../../d8/d6e/classBaseCommand.html#af34b4e2829ad3b7b718499916fd87cbb" target="_top" xlink:title=" ">
<polygon fill="#ffffff" stroke="#000000" points="647.5,-76.5 647.5,-95.5 771.5,-95.5 771.5,-76.5 647.5,-76.5"/>
<text text-anchor="middle" x="709.5" y="-83.5" font-family="Helvetica,sans-Serif" font-size="10.00" fill="#000000">BaseCommand::index</text>
</a>
</g>
</g>
<!-- Node24739&#45;&gt;Node24743 -->
<g id="edge10" class="edge">
<title>Node24739&#45;&gt;Node24743</title>
<path fill="none" stroke="#191970" d="M550.6324,-72.217C577.3604,-74.5358 609.0517,-77.2853 637.0712,-79.7162"/>
<polygon fill="#191970" stroke="#191970" points="636.9469,-83.2185 647.212,-80.596 637.552,-76.2447 636.9469,-83.2185"/>
</g>
<!-- Node24744 -->
<g id="node12" class="node">
<title>Node24744</title>
<g id="a_node12"><a xlink:href="../../d8/d6e/classBaseCommand.html#ad7114bcb3cf27232facaf0cbcd7e3b58" target="_top" xlink:title=" ">
<polygon fill="#ffffff" stroke="#000000" points="613,-38.5 613,-57.5 806,-57.5 806,-38.5 613,-38.5"/>
<text text-anchor="middle" x="709.5" y="-45.5" font-family="Helvetica,sans-Serif" font-size="10.00" fill="#000000">BaseCommand::subCommandCount</text>
</a>
</g>
</g>
<!-- Node24739&#45;&gt;Node24744 -->
<g id="edge11" class="edge">
<title>Node24739&#45;&gt;Node24744</title>
<path fill="none" stroke="#191970" d="M550.6324,-61.783C566.7218,-60.3871 584.6098,-58.8352 602.4127,-57.2907"/>
<polygon fill="#191970" stroke="#191970" points="603.2107,-60.7347 612.8707,-56.3834 602.6056,-53.7609 603.2107,-60.7347"/>
</g>
<!-- Node24745 -->
<g id="node13" class="node">
<title>Node24745</title>
<g id="a_node13"><a xlink:href="../../d8/d6e/classBaseCommand.html#a2717e1d5a234ba427175907b2dc58c23" target="_top" xlink:title=" ">
<polygon fill="#ffffff" stroke="#000000" points="627.5,-.5 627.5,-19.5 791.5,-19.5 791.5,-.5 627.5,-.5"/>
<text text-anchor="middle" x="709.5" y="-7.5" font-family="Helvetica,sans-Serif" font-size="10.00" fill="#000000">BaseCommand::subCommand</text>
</a>
</g>
</g>
<!-- Node24739&#45;&gt;Node24745 -->
<g id="edge12" class="edge">
<title>Node24739&#45;&gt;Node24745</title>
<path fill="none" stroke="#191970" d="M534.9769,-51.9518C558.083,-44.4536 586.8785,-35.6031 613,-29 623.5198,-26.3408 634.7631,-23.831 645.7225,-21.5603"/>
<polygon fill="#191970" stroke="#191970" points="646.5718,-24.9595 655.6785,-19.5448 645.1828,-18.0986 646.5718,-24.9595"/>
</g>
<!-- Node24741 -->
<g id="node9" class="node">
<title>Node24741</title>
<g id="a_node9"><a xlink:href="../../d8/d6e/classBaseCommand.html#aca69868889f793ce1399fd0c752cfa05" target="_top" xlink:title=" ">
<polygon fill="#ffffff" stroke="#000000" points="842,-114.5 842,-133.5 1014,-133.5 1014,-114.5 842,-114.5"/>
<text text-anchor="middle" x="928" y="-121.5" font-family="Helvetica,sans-Serif" font-size="10.00" fill="#000000">BaseCommand::getParamString</text>
</a>
</g>
</g>
<!-- Node24740&#45;&gt;Node24741 -->
<g id="edge8" class="edge">
<title>Node24740&#45;&gt;Node24741</title>
<path fill="none" stroke="#191970" d="M796.1708,-124C807.7822,-124 819.7493,-124 831.5162,-124"/>
<polygon fill="#191970" stroke="#191970" points="831.7913,-127.5001 841.7913,-124 831.7913,-120.5001 831.7913,-127.5001"/>
</g>
<!-- Node24742 -->
<g id="node10" class="node">
<title>Node24742</title>
<g id="a_node10"><a xlink:href="../../d8/d37/classSketchWidget.html#a4319a31c3a619e166f0e7dac865e2ea3" target="_top" xlink:title=" ">
<polygon fill="#ffffff" stroke="#000000" points="1050,-114.5 1050,-133.5 1192,-133.5 1192,-114.5 1050,-114.5"/>
<text text-anchor="middle" x="1121" y="-121.5" font-family="Helvetica,sans-Serif" font-size="10.00" fill="#000000">SketchWidget::viewName</text>
</a>
</g>
</g>
<!-- Node24741&#45;&gt;Node24742 -->
<g id="edge9" class="edge">
<title>Node24741&#45;&gt;Node24742</title>
<path fill="none" stroke="#191970" d="M1014.0578,-124C1022.562,-124 1031.1756,-124 1039.6304,-124"/>
<polygon fill="#191970" stroke="#191970" points="1039.8465,-127.5001 1049.8465,-124 1039.8465,-120.5001 1039.8465,-127.5001"/>
</g>
</g>
</svg>
        <g id="navigator" transform="translate(0 0)" fill="#404254">
                <rect fill="#f2f5e9" fill-opacity="0.5" stroke="#606060" stroke-width=".5" x="0" y="0" width="60" height="60"/>
                <use id="zoomplus" xlink:href="#zoomPlus" x="17" y="9" onmousedown="handleZoom(evt,'in')"/>
                <use id="zoomminus" xlink:href="#zoomMin" x="42" y="9" onmousedown="handleZoom(evt,'out')"/>
                <use id="reset" xlink:href="#resetDef" x="30" y="36" onmousedown="handleReset()"/>
                <g id="arrowUp" xlink:href="#dirArrow" transform="translate(30 24)" onmousedown="handlePan(0,-1)">
                  <use xlink:href="#rim" fill="#404040">
                        <set attributeName="fill" to="#808080" begin="arrowUp.mouseover" end="arrowUp.mouseout"/>
                  </use>
                  <path fill="none" stroke="white" stroke-width="1.5" d="M0,-3.0v7 M-2.5,-0.5L0,-3.0L2.5,-0.5"/>
                </g>
                <g id="arrowRight" xlink:href="#dirArrow" transform="rotate(90) translate(36 -43)" onmousedown="handlePan(1,0)">
                  <use xlink:href="#rim" fill="#404040">
                        <set attributeName="fill" to="#808080" begin="arrowRight.mouseover" end="arrowRight.mouseout"/>
                  </use>
                  <path fill="none" stroke="white" stroke-width="1.5" d="M0,-3.0v7 M-2.5,-0.5L0,-3.0L2.5,-0.5"/>
                </g>
                <g id="arrowDown" xlink:href="#dirArrow" transform="rotate(180) translate(-30 -48)" onmousedown="handlePan(0,1)">
                  <use xlink:href="#rim" fill="#404040">
                        <set attributeName="fill" to="#808080" begin="arrowDown.mouseover" end="arrowDown.mouseout"/>
                  </use>
                  <path fill="none" stroke="white" stroke-width="1.5" d="M0,-3.0v7 M-2.5,-0.5L0,-3.0L2.5,-0.5"/>
                </g>
                <g id="arrowLeft" xlink:href="#dirArrow" transform="rotate(270) translate(-36 17)" onmousedown="handlePan(-1,0)">
                  <use xlink:href="#rim" fill="#404040">
                        <set attributeName="fill" to="#808080" begin="arrowLeft.mouseover" end="arrowLeft.mouseout"/>
                  </use>
                  <path fill="none" stroke="white" stroke-width="1.5" d="M0,-3.0v7 M-2.5,-0.5L0,-3.0L2.5,-0.5"/>
                </g>
        </g>
        <svg viewBox="0 0 15 15" width="100%" height="30px" preserveAspectRatio="xMaxYMin meet">
         <g id="arrow_out" transform="scale(0.3 0.3)">
          <a xlink:href="classSketchWidget_ae4d4ed21d55c051285de66d3813bed5e_cgraph_org.svg" target="_base">
           <rect id="button" ry="5" rx="5" y="6" x="6" height="38" width="38"
                fill="#f2f5e9" fill-opacity="0.5" stroke="#606060" stroke-width="1.0"/>
           <path id="arrow"
             d="M 11.500037,31.436501 C 11.940474,20.09759 22.043105,11.32322 32.158766,21.979434 L 37.068811,17.246167 C 37.068811,17.246167 37.088388,32 37.088388,32 L 22.160133,31.978069 C 22.160133,31.978069 26.997745,27.140456 26.997745,27.140456 C 18.528582,18.264221 13.291696,25.230495 11.500037,31.436501 z"
             style="fill:#404040;"/>
          </a>
         </g>
        </svg>
</svg>
