<?xml version="1.0" encoding="UTF-8" standalone="no"?>
<!DOCTYPE svg PUBLIC "-//W3C//DTD SVG 1.1//EN"
 "http://www.w3.org/Graphics/SVG/1.1/DTD/svg11.dtd">
<!-- Generated by graphviz version 2.40.1 (0)
 -->
<!-- Title: SketchWidget::checkForReversedWires Pages: 1 -->
<svg width="989pt" height="943pt"
 viewBox="0.00 0.00 989.00 943.00" xmlns="http://www.w3.org/2000/svg" xmlns:xlink="http://www.w3.org/1999/xlink">
<g id="graph0" class="graph" transform="scale(1 1) rotate(0) translate(4 939)">
<title>SketchWidget::checkForReversedWires</title>
<polygon fill="#ffffff" stroke="transparent" points="-4,4 -4,-939 985,-939 985,4 -4,4"/>
<!-- Node5040 -->
<g id="node1" class="node">
<title>Node5040</title>
<g id="a_node1"><a xlink:title=" ">
<polygon fill="#bfbfbf" stroke="#000000" points="0,-435 0,-465 179,-465 179,-435 0,-435"/>
<text text-anchor="start" x="8" y="-453" font-family="Helvetica,sans-Serif" font-size="10.00" fill="#000000">SketchWidget::checkForReversed</text>
<text text-anchor="middle" x="89.5" y="-442" font-family="Helvetica,sans-Serif" font-size="10.00" fill="#000000">Wires</text>
</a>
</g>
</g>
<!-- Node5041 -->
<g id="node2" class="node">
<title>Node5041</title>
<g id="a_node2"><a xlink:href="../../d7/d64/classWire.html#a8a8792f023fd85952e007cda7d35f556" target="_top" xlink:title=" ">
<polygon fill="#ffffff" stroke="#000000" points="243.5,-877.5 243.5,-896.5 352.5,-896.5 352.5,-877.5 243.5,-877.5"/>
<text text-anchor="middle" x="298" y="-884.5" font-family="Helvetica,sans-Serif" font-size="10.00" fill="#000000">Wire::changeCurve</text>
</a>
</g>
</g>
<!-- Node5040&#45;&gt;Node5041 -->
<g id="edge1" class="edge">
<title>Node5040&#45;&gt;Node5041</title>
<path fill="none" stroke="#191970" d="M91.0481,-465.3761C97.2454,-520.2268 124.4804,-709.4332 215,-830 228.6373,-848.1641 249.8138,-862.5739 267.3629,-872.3608"/>
<polygon fill="#191970" stroke="#191970" points="266.1967,-875.7052 276.6683,-877.317 269.4874,-869.5268 266.1967,-875.7052"/>
</g>
<!-- Node5044 -->
<g id="node5" class="node">
<title>Node5044</title>
<g id="a_node5"><a xlink:href="../../d7/d64/classWire.html#a45f4d43eb8d9c12df32f8431b22ae04a" target="_top" xlink:title=" ">
<polygon fill="#ffffff" stroke="#000000" points="248.5,-687.5 248.5,-706.5 347.5,-706.5 347.5,-687.5 248.5,-687.5"/>
<text text-anchor="middle" x="298" y="-694.5" font-family="Helvetica,sans-Serif" font-size="10.00" fill="#000000">Wire::connector0</text>
</a>
</g>
</g>
<!-- Node5040&#45;&gt;Node5044 -->
<g id="edge4" class="edge">
<title>Node5040&#45;&gt;Node5044</title>
<path fill="none" stroke="#191970" d="M93.1689,-465.0713C104.0156,-506.2588 139.974,-621.3985 215,-678 221.8703,-683.1831 229.9084,-686.9915 238.2278,-689.7822"/>
<polygon fill="#191970" stroke="#191970" points="237.4924,-693.2125 248.0702,-692.6123 239.4268,-686.4851 237.4924,-693.2125"/>
</g>
<!-- Node5045 -->
<g id="node6" class="node">
<title>Node5045</title>
<g id="a_node6"><a xlink:href="../../d7/d64/classWire.html#a76d78de417b35d44b4adc5b05d889afe" target="_top" xlink:title=" ">
<polygon fill="#ffffff" stroke="#000000" points="237.5,-649.5 237.5,-668.5 358.5,-668.5 358.5,-649.5 237.5,-649.5"/>
<text text-anchor="middle" x="298" y="-656.5" font-family="Helvetica,sans-Serif" font-size="10.00" fill="#000000">Wire::connector0Rect</text>
</a>
</g>
</g>
<!-- Node5040&#45;&gt;Node5045 -->
<g id="edge5" class="edge">
<title>Node5040&#45;&gt;Node5045</title>
<path fill="none" stroke="#191970" d="M94.9289,-465.1813C108.7747,-501.6002 149.0415,-594.2873 215,-640 218.9677,-642.7498 223.2737,-645.1072 227.7672,-647.1276"/>
<polygon fill="#191970" stroke="#191970" points="226.6177,-650.4362 237.2056,-650.8192 229.1675,-643.9171 226.6177,-650.4362"/>
</g>
<!-- Node5046 -->
<g id="node7" class="node">
<title>Node5046</title>
<g id="a_node7"><a xlink:href="../../d7/d64/classWire.html#a866a8602d73cc8004d133cb8780048f3" target="_top" xlink:title=" ">
<polygon fill="#ffffff" stroke="#000000" points="248.5,-611.5 248.5,-630.5 347.5,-630.5 347.5,-611.5 248.5,-611.5"/>
<text text-anchor="middle" x="298" y="-618.5" font-family="Helvetica,sans-Serif" font-size="10.00" fill="#000000">Wire::connector1</text>
</a>
</g>
</g>
<!-- Node5040&#45;&gt;Node5046 -->
<g id="edge6" class="edge">
<title>Node5040&#45;&gt;Node5046</title>
<path fill="none" stroke="#191970" d="M98.1143,-465.0206C115.9765,-494.8069 160.0094,-561.5346 215,-597 222.1577,-601.6163 230.2235,-605.3654 238.4424,-608.4051"/>
<polygon fill="#191970" stroke="#191970" points="237.5218,-611.788 248.1158,-611.6568 239.7523,-605.1529 237.5218,-611.788"/>
</g>
<!-- Node5047 -->
<g id="node8" class="node">
<title>Node5047</title>
<g id="a_node8"><a xlink:href="../../d7/d64/classWire.html#a49e750b97dc2d99f65ef9a344e050c1a" target="_top" xlink:title=" ">
<polygon fill="#ffffff" stroke="#000000" points="446,-725.5 446,-744.5 567,-744.5 567,-725.5 446,-725.5"/>
<text text-anchor="middle" x="506.5" y="-732.5" font-family="Helvetica,sans-Serif" font-size="10.00" fill="#000000">Wire::connector1Rect</text>
</a>
</g>
</g>
<!-- Node5040&#45;&gt;Node5047 -->
<g id="edge7" class="edge">
<title>Node5040&#45;&gt;Node5047</title>
<path fill="none" stroke="#191970" d="M91.369,-465.1431C98.0405,-511.972 125.2933,-654.954 215,-716 286.5893,-764.717 392.3566,-756.9005 454.8638,-746.2911"/>
<polygon fill="#191970" stroke="#191970" points="455.6579,-749.7048 464.8876,-744.5026 454.4282,-742.8137 455.6579,-749.7048"/>
</g>
<!-- Node5048 -->
<g id="node9" class="node">
<title>Node5048</title>
<g id="a_node9"><a xlink:href="../../d7/d64/classWire.html#aeeab152819f6e13d4f41614ba7e72761" target="_top" xlink:title=" ">
<polygon fill="#ffffff" stroke="#000000" points="686,-782.5 686,-801.5 749,-801.5 749,-782.5 686,-782.5"/>
<text text-anchor="middle" x="717.5" y="-789.5" font-family="Helvetica,sans-Serif" font-size="10.00" fill="#000000">Wire::line</text>
</a>
</g>
</g>
<!-- Node5040&#45;&gt;Node5048 -->
<g id="edge33" class="edge">
<title>Node5040&#45;&gt;Node5048</title>
<path fill="none" stroke="#191970" d="M90.5968,-465.0689C95.1387,-515.2823 117.1534,-677.7515 215,-749 251.8933,-775.8645 561.9906,-787.492 675.8164,-790.8825"/>
<polygon fill="#191970" stroke="#191970" points="675.7909,-794.3832 685.8887,-791.1762 675.995,-787.3861 675.7909,-794.3832"/>
</g>
<!-- Node5049 -->
<g id="node10" class="node">
<title>Node5049</title>
<g id="a_node10"><a xlink:href="../../d8/d3c/classBezier.html#a2414f8c161c4a4fed536113237cb35ec" target="_top" xlink:title=" ">
<polygon fill="#ffffff" stroke="#000000" points="471,-554.5 471,-573.5 542,-573.5 542,-554.5 471,-554.5"/>
<text text-anchor="middle" x="506.5" y="-561.5" font-family="Helvetica,sans-Serif" font-size="10.00" fill="#000000">Bezier::cp0</text>
</a>
</g>
</g>
<!-- Node5040&#45;&gt;Node5049 -->
<g id="edge9" class="edge">
<title>Node5040&#45;&gt;Node5049</title>
<path fill="none" stroke="#191970" d="M100.1257,-465.2183C119.4319,-491.368 163.1062,-543.9493 215,-564 296.9401,-595.6599 401.7765,-584.3865 460.789,-573.8455"/>
<polygon fill="#191970" stroke="#191970" points="461.7164,-577.2331 470.9081,-571.9641 460.4368,-570.351 461.7164,-577.2331"/>
</g>
<!-- Node5050 -->
<g id="node11" class="node">
<title>Node5050</title>
<g id="a_node11"><a xlink:href="../../d8/d3c/classBezier.html#ab31ae58e9814f75281175355a1b1abe1" target="_top" xlink:title=" ">
<polygon fill="#ffffff" stroke="#000000" points="471,-478.5 471,-497.5 542,-497.5 542,-478.5 471,-478.5"/>
<text text-anchor="middle" x="506.5" y="-485.5" font-family="Helvetica,sans-Serif" font-size="10.00" fill="#000000">Bezier::cp1</text>
</a>
</g>
</g>
<!-- Node5040&#45;&gt;Node5050 -->
<g id="edge10" class="edge">
<title>Node5040&#45;&gt;Node5050</title>
<path fill="none" stroke="#191970" d="M128.3868,-465.0115C152.8366,-473.6329 185.2742,-483.5984 215,-488 301.0095,-500.7358 402.8657,-496.3771 460.5598,-492.1326"/>
<polygon fill="#191970" stroke="#191970" points="461.1023,-495.6013 470.8048,-491.3455 460.5661,-488.6219 461.1023,-495.6013"/>
</g>
<!-- Node5051 -->
<g id="node12" class="node">
<title>Node5051</title>
<g id="a_node12"><a xlink:href="../../d7/d64/classWire.html#ad8c9250746e47be776fae10cc02a2eda" target="_top" xlink:title=" ">
<polygon fill="#ffffff" stroke="#000000" points="262,-421.5 262,-440.5 334,-440.5 334,-421.5 262,-421.5"/>
<text text-anchor="middle" x="298" y="-428.5" font-family="Helvetica,sans-Serif" font-size="10.00" fill="#000000">Wire::curve</text>
</a>
</g>
</g>
<!-- Node5040&#45;&gt;Node5051 -->
<g id="edge11" class="edge">
<title>Node5040&#45;&gt;Node5051</title>
<path fill="none" stroke="#191970" d="M179.1328,-441.832C204.1735,-439.5501 230.3621,-437.1636 251.7645,-435.2133"/>
<polygon fill="#191970" stroke="#191970" points="252.2196,-438.6864 261.8606,-434.2933 251.5843,-431.7153 252.2196,-438.6864"/>
</g>
<!-- Node5052 -->
<g id="node13" class="node">
<title>Node5052</title>
<g id="a_node13"><a xlink:href="../../d4/d4f/classItemBase.html#a7afe2c290186ce3d8a0febc45fa130f5" target="_top" xlink:title=" ">
<polygon fill="#ffffff" stroke="#000000" points="239,-383.5 239,-402.5 357,-402.5 357,-383.5 239,-383.5"/>
<text text-anchor="middle" x="298" y="-390.5" font-family="Helvetica,sans-Serif" font-size="10.00" fill="#000000">ItemBase::debugInfo</text>
</a>
</g>
</g>
<!-- Node5040&#45;&gt;Node5052 -->
<g id="edge12" class="edge">
<title>Node5040&#45;&gt;Node5052</title>
<path fill="none" stroke="#191970" d="M136.3612,-434.9724C159.8578,-427.6519 188.8168,-418.952 215,-412 224.2254,-409.5505 234.0774,-407.1279 243.6529,-404.8745"/>
<polygon fill="#191970" stroke="#191970" points="244.5424,-408.2612 253.4938,-402.5934 242.9617,-401.442 244.5424,-408.2612"/>
</g>
<!-- Node5061 -->
<g id="node22" class="node">
<title>Node5061</title>
<g id="a_node22"><a xlink:href="../../d8/d3c/classBezier.html#a332771a58decf335b861d6556a2f2ca0" target="_top" xlink:title=" ">
<polygon fill="#ffffff" stroke="#000000" points="247,-345.5 247,-364.5 349,-364.5 349,-345.5 247,-345.5"/>
<text text-anchor="middle" x="298" y="-352.5" font-family="Helvetica,sans-Serif" font-size="10.00" fill="#000000">Bezier::endpoint0</text>
</a>
</g>
</g>
<!-- Node5040&#45;&gt;Node5061 -->
<g id="edge21" class="edge">
<title>Node5040&#45;&gt;Node5061</title>
<path fill="none" stroke="#191970" d="M109.7329,-434.9266C133.6827,-417.7733 175.3361,-390.0623 215,-374 221.9546,-371.1837 229.4143,-368.7372 236.9054,-366.6246"/>
<polygon fill="#191970" stroke="#191970" points="237.9527,-369.9683 246.7315,-364.0368 236.1698,-363.1991 237.9527,-369.9683"/>
</g>
<!-- Node5062 -->
<g id="node23" class="node">
<title>Node5062</title>
<g id="a_node23"><a xlink:href="../../d8/d3c/classBezier.html#a38ca0914e4f828d28a6a92feed535524" target="_top" xlink:title=" ">
<polygon fill="#ffffff" stroke="#000000" points="247,-307.5 247,-326.5 349,-326.5 349,-307.5 247,-307.5"/>
<text text-anchor="middle" x="298" y="-314.5" font-family="Helvetica,sans-Serif" font-size="10.00" fill="#000000">Bezier::endpoint1</text>
</a>
</g>
</g>
<!-- Node5040&#45;&gt;Node5062 -->
<g id="edge22" class="edge">
<title>Node5040&#45;&gt;Node5062</title>
<path fill="none" stroke="#191970" d="M101.6328,-434.7749C122.2087,-410.0386 166.4685,-361.3419 215,-336 221.9101,-332.3917 229.4953,-329.4638 237.1842,-327.089"/>
<polygon fill="#191970" stroke="#191970" points="238.2451,-330.4268 246.936,-324.3672 236.3632,-323.6845 238.2451,-330.4268"/>
</g>
<!-- Node5063 -->
<g id="node24" class="node">
<title>Node5063</title>
<g id="a_node24"><a xlink:href="../../dc/d3a/classConnectorItem.html#a018307285a957aee5ac0042d18a2ad87" target="_top" xlink:title=" ">
<polygon fill="#ffffff" stroke="#000000" points="215.5,-258 215.5,-288 380.5,-288 380.5,-258 215.5,-258"/>
<text text-anchor="start" x="223.5" y="-276" font-family="Helvetica,sans-Serif" font-size="10.00" fill="#000000">ConnectorItem::firstConnected</text>
<text text-anchor="middle" x="298" y="-265" font-family="Helvetica,sans-Serif" font-size="10.00" fill="#000000">ToIsh</text>
</a>
</g>
</g>
<!-- Node5040&#45;&gt;Node5063 -->
<g id="edge23" class="edge">
<title>Node5040&#45;&gt;Node5063</title>
<path fill="none" stroke="#191970" d="M97.7445,-434.9833C115.2491,-404.5027 159.1385,-335.1266 215,-298 218.0629,-295.9644 221.2973,-294.0895 224.6427,-292.3634"/>
<polygon fill="#191970" stroke="#191970" points="226.1312,-295.5312 233.7154,-288.1331 223.1731,-289.1869 226.1312,-295.5312"/>
</g>
<!-- Node5067 -->
<g id="node28" class="node">
<title>Node5067</title>
<g id="a_node28"><a xlink:href="../../d8/d37/classSketchWidget.html#af71d0b339c0214ea1a9a9b9b03c845af" target="_top" xlink:title=" ">
<polygon fill="#ffffff" stroke="#000000" points="222,-152.5 222,-171.5 374,-171.5 374,-152.5 222,-152.5"/>
<text text-anchor="middle" x="298" y="-159.5" font-family="Helvetica,sans-Serif" font-size="10.00" fill="#000000">SketchWidget::getTraceFlag</text>
</a>
</g>
</g>
<!-- Node5040&#45;&gt;Node5067 -->
<g id="edge27" class="edge">
<title>Node5040&#45;&gt;Node5067</title>
<path fill="none" stroke="#191970" d="M91.9278,-434.7506C100.0752,-388.8162 130.8263,-250.7177 215,-182 217.7234,-179.7767 220.6546,-177.7937 223.7317,-176.0256"/>
<polygon fill="#191970" stroke="#191970" points="225.3137,-179.148 232.7388,-171.5903 222.2213,-172.8681 225.3137,-179.148"/>
</g>
<!-- Node5068 -->
<g id="node29" class="node">
<title>Node5068</title>
<g id="a_node29"><a xlink:href="../../d7/d64/classWire.html#adb2317b77f3bbb2426498d9deccc0584" target="_top" xlink:title=" ">
<polygon fill="#ffffff" stroke="#000000" points="254,-114.5 254,-133.5 342,-133.5 342,-114.5 254,-114.5"/>
<text text-anchor="middle" x="298" y="-121.5" font-family="Helvetica,sans-Serif" font-size="10.00" fill="#000000">Wire::isCurved</text>
</a>
</g>
</g>
<!-- Node5040&#45;&gt;Node5068 -->
<g id="edge28" class="edge">
<title>Node5040&#45;&gt;Node5068</title>
<path fill="none" stroke="#191970" d="M90.9019,-434.7142C96.3645,-384.4485 120.8447,-222.9333 215,-143 223.1983,-136.04 233.44,-131.5014 243.9015,-128.57"/>
<polygon fill="#191970" stroke="#191970" points="244.9977,-131.9083 253.9395,-126.2254 243.4055,-125.0918 244.9977,-131.9083"/>
</g>
<!-- Node5070 -->
<g id="node31" class="node">
<title>Node5070</title>
<g id="a_node31"><a xlink:href="../../d7/d64/classWire.html#af18b21be89076a015bf909b1571e010a" target="_top" xlink:title=" ">
<polygon fill="#ffffff" stroke="#000000" points="247.5,-76.5 247.5,-95.5 348.5,-95.5 348.5,-76.5 247.5,-76.5"/>
<text text-anchor="middle" x="298" y="-83.5" font-family="Helvetica,sans-Serif" font-size="10.00" fill="#000000">Wire::isTraceType</text>
</a>
</g>
</g>
<!-- Node5040&#45;&gt;Node5070 -->
<g id="edge30" class="edge">
<title>Node5040&#45;&gt;Node5070</title>
<path fill="none" stroke="#191970" d="M90.133,-434.7935C93.241,-380.7863 111.3379,-196.5578 215,-105 221.4504,-99.3028 229.2596,-95.2142 237.4759,-92.2973"/>
<polygon fill="#191970" stroke="#191970" points="238.6668,-95.5946 247.2512,-89.385 236.6681,-88.886 238.6668,-95.5946"/>
</g>
<!-- Node5073 -->
<g id="node34" class="node">
<title>Node5073</title>
<g id="a_node34"><a xlink:href="../../dc/d3a/classConnectorItem.html#a9db3e9a8e9a67433a39b3c12aa8fe442" target="_top" xlink:title=" ">
<polygon fill="#ffffff" stroke="#000000" points="215,-191 215,-221 381,-221 381,-191 215,-191"/>
<text text-anchor="start" x="223" y="-209" font-family="Helvetica,sans-Serif" font-size="10.00" fill="#000000">ConnectorItem::sceneAdjusted</text>
<text text-anchor="middle" x="298" y="-198" font-family="Helvetica,sans-Serif" font-size="10.00" fill="#000000">TerminalPoint</text>
</a>
</g>
</g>
<!-- Node5040&#45;&gt;Node5073 -->
<g id="edge34" class="edge">
<title>Node5040&#45;&gt;Node5073</title>
<path fill="none" stroke="#191970" d="M95.6313,-434.7362C110.8859,-398.3819 153.7801,-305.4996 215,-249 224.9787,-239.7907 237.301,-232.0079 249.369,-225.7028"/>
<polygon fill="#191970" stroke="#191970" points="251.1024,-228.75 258.5049,-221.1702 247.9913,-222.4793 251.1024,-228.75"/>
</g>
<!-- Node5080 -->
<g id="node41" class="node">
<title>Node5080</title>
<g id="a_node41"><a xlink:href="../../d8/d3c/classBezier.html#a0996dfa95ee42e7b107a1c2c11fb9e41" target="_top" xlink:title=" ">
<polygon fill="#ffffff" stroke="#000000" points="252.5,-535.5 252.5,-554.5 343.5,-554.5 343.5,-535.5 252.5,-535.5"/>
<text text-anchor="middle" x="298" y="-542.5" font-family="Helvetica,sans-Serif" font-size="10.00" fill="#000000">Bezier::set_cp0</text>
</a>
</g>
</g>
<!-- Node5040&#45;&gt;Node5080 -->
<g id="edge44" class="edge">
<title>Node5040&#45;&gt;Node5080</title>
<path fill="none" stroke="#191970" d="M112.2627,-465.0386C136.7932,-480.721 177.3877,-505.1792 215,-521 225.5871,-525.4532 237.2664,-529.3896 248.4372,-532.72"/>
<polygon fill="#191970" stroke="#191970" points="247.5055,-536.0938 258.083,-535.4883 249.4366,-529.3654 247.5055,-536.0938"/>
</g>
<!-- Node5081 -->
<g id="node42" class="node">
<title>Node5081</title>
<g id="a_node42"><a xlink:href="../../d8/d3c/classBezier.html#a7a358764d13519a86c65fc886cb42dff" target="_top" xlink:title=" ">
<polygon fill="#ffffff" stroke="#000000" points="252.5,-459.5 252.5,-478.5 343.5,-478.5 343.5,-459.5 252.5,-459.5"/>
<text text-anchor="middle" x="298" y="-466.5" font-family="Helvetica,sans-Serif" font-size="10.00" fill="#000000">Bezier::set_cp1</text>
</a>
</g>
</g>
<!-- Node5040&#45;&gt;Node5081 -->
<g id="edge46" class="edge">
<title>Node5040&#45;&gt;Node5081</title>
<path fill="none" stroke="#191970" d="M179.1328,-458.168C200.5575,-460.1204 222.8225,-462.1493 242.2112,-463.9161"/>
<polygon fill="#191970" stroke="#191970" points="242.0882,-467.4193 252.3646,-464.8414 242.7235,-460.4482 242.0882,-467.4193"/>
</g>
<!-- Node5082 -->
<g id="node43" class="node">
<title>Node5082</title>
<g id="a_node43"><a xlink:href="../../d8/d3c/classBezier.html#a3152ca2940ed500e564f8fd03bf41b77" target="_top" xlink:title=" ">
<polygon fill="#ffffff" stroke="#000000" points="237,-38.5 237,-57.5 359,-57.5 359,-38.5 237,-38.5"/>
<text text-anchor="middle" x="298" y="-45.5" font-family="Helvetica,sans-Serif" font-size="10.00" fill="#000000">Bezier::set_endpoints</text>
</a>
</g>
</g>
<!-- Node5040&#45;&gt;Node5082 -->
<g id="edge48" class="edge">
<title>Node5040&#45;&gt;Node5082</title>
<path fill="none" stroke="#191970" d="M92.4305,-434.7361C105.1461,-370.0515 157.4935,-119.4656 215,-67 218.6959,-63.6281 222.8652,-60.8157 227.3181,-58.4737"/>
<polygon fill="#191970" stroke="#191970" points="229.0554,-61.533 236.796,-54.2988 226.2336,-55.127 229.0554,-61.533"/>
</g>
<!-- Node5083 -->
<g id="node44" class="node">
<title>Node5083</title>
<g id="a_node44"><a xlink:href="../../d7/d64/classWire.html#ab54e6d32ffc4a0b14889ec79cc227f36" target="_top" xlink:title=" ">
<polygon fill="#ffffff" stroke="#000000" points="229.5,-.5 229.5,-19.5 366.5,-19.5 366.5,-.5 229.5,-.5"/>
<text text-anchor="middle" x="298" y="-7.5" font-family="Helvetica,sans-Serif" font-size="10.00" fill="#000000">Wire::setConnector0Rect</text>
</a>
</g>
</g>
<!-- Node5040&#45;&gt;Node5083 -->
<g id="edge49" class="edge">
<title>Node5040&#45;&gt;Node5083</title>
<path fill="none" stroke="#191970" d="M91.9712,-434.6485C103.3333,-365.9324 152.677,-87.4173 215,-29 216.7088,-27.3983 218.524,-25.9221 220.4259,-24.5619"/>
<polygon fill="#191970" stroke="#191970" points="222.4503,-27.4303 229.2589,-19.3128 218.8742,-21.4127 222.4503,-27.4303"/>
</g>
<!-- Node5084 -->
<g id="node45" class="node">
<title>Node5084</title>
<g id="a_node45"><a xlink:href="../../d7/d64/classWire.html#a18ebebc1b4204bef0e4d2c460e24cf9b" target="_top" xlink:title=" ">
<polygon fill="#ffffff" stroke="#000000" points="248.5,-801.5 248.5,-820.5 347.5,-820.5 347.5,-801.5 248.5,-801.5"/>
<text text-anchor="middle" x="298" y="-808.5" font-family="Helvetica,sans-Serif" font-size="10.00" fill="#000000">Wire::setLineAnd</text>
</a>
</g>
</g>
<!-- Node5040&#45;&gt;Node5084 -->
<g id="edge50" class="edge">
<title>Node5040&#45;&gt;Node5084</title>
<path fill="none" stroke="#191970" d="M90.464,-465.028C94.6611,-517.6053 115.9066,-695.0744 215,-787 221.7837,-793.293 230.1175,-797.9468 238.8605,-801.3859"/>
<polygon fill="#191970" stroke="#191970" points="237.8596,-804.7425 248.4541,-804.6611 240.1212,-798.1179 237.8596,-804.7425"/>
</g>
<!-- Node5042 -->
<g id="node3" class="node">
<title>Node5042</title>
<g id="a_node3"><a xlink:href="../../d4/d4f/classItemBase.html#ab1484692ebea9a39e103002ea06421ab" target="_top" xlink:title=" ">
<polygon fill="#ffffff" stroke="#000000" points="640,-853 640,-883 795,-883 795,-853 640,-853"/>
<text text-anchor="start" x="648" y="-871" font-family="Helvetica,sans-Serif" font-size="10.00" fill="#000000">ItemBase::prepareGeometry</text>
<text text-anchor="middle" x="717.5" y="-860" font-family="Helvetica,sans-Serif" font-size="10.00" fill="#000000">Change</text>
</a>
</g>
</g>
<!-- Node5041&#45;&gt;Node5042 -->
<g id="edge2" class="edge">
<title>Node5041&#45;&gt;Node5042</title>
<path fill="none" stroke="#191970" d="M352.8423,-884.5161C423.1978,-881.3295 546.0903,-875.7635 629.5744,-871.9823"/>
<polygon fill="#191970" stroke="#191970" points="629.9768,-875.4678 639.8082,-871.5188 629.6601,-868.475 629.9768,-875.4678"/>
</g>
<!-- Node5043 -->
<g id="node4" class="node">
<title>Node5043</title>
<g id="a_node4"><a xlink:href="../../d8/d3c/classBezier.html#a729d94317967559220576af5599619ac" target="_top" xlink:title=" ">
<polygon fill="#ffffff" stroke="#000000" points="468,-915.5 468,-934.5 545,-934.5 545,-915.5 468,-915.5"/>
<text text-anchor="middle" x="506.5" y="-922.5" font-family="Helvetica,sans-Serif" font-size="10.00" fill="#000000">Bezier::copy</text>
</a>
</g>
</g>
<!-- Node5041&#45;&gt;Node5043 -->
<g id="edge3" class="edge">
<title>Node5041&#45;&gt;Node5043</title>
<path fill="none" stroke="#191970" d="M350.3442,-896.54C383.3253,-902.5509 425.6117,-910.2578 457.8605,-916.1352"/>
<polygon fill="#191970" stroke="#191970" points="457.4881,-919.625 467.9536,-917.9748 458.7432,-912.7384 457.4881,-919.625"/>
</g>
<!-- Node5047&#45;&gt;Node5048 -->
<g id="edge8" class="edge">
<title>Node5047&#45;&gt;Node5048</title>
<path fill="none" stroke="#191970" d="M542.2194,-744.5502C558.6094,-748.9396 578.2941,-754.2215 596,-759 622.5629,-766.1688 652.3782,-774.266 675.8257,-780.6455"/>
<polygon fill="#191970" stroke="#191970" points="675.2174,-784.1072 685.7856,-783.3563 677.0558,-777.3529 675.2174,-784.1072"/>
</g>
<!-- Node5053 -->
<g id="node14" class="node">
<title>Node5053</title>
<g id="a_node14"><a xlink:href="../../d4/d4f/classItemBase.html#a301312dff647a2e6ac79be48f6023b7c" target="_top" xlink:title=" ">
<polygon fill="#ffffff" stroke="#000000" points="444.5,-383.5 444.5,-402.5 568.5,-402.5 568.5,-383.5 444.5,-383.5"/>
<text text-anchor="middle" x="506.5" y="-390.5" font-family="Helvetica,sans-Serif" font-size="10.00" fill="#000000">ItemBase::debugInfo2</text>
</a>
</g>
</g>
<!-- Node5052&#45;&gt;Node5053 -->
<g id="edge13" class="edge">
<title>Node5052&#45;&gt;Node5053</title>
<path fill="none" stroke="#191970" d="M357.19,-393C381.1042,-393 408.9356,-393 434.0456,-393"/>
<polygon fill="#191970" stroke="#191970" points="434.252,-396.5001 444.252,-393 434.252,-389.5001 434.252,-396.5001"/>
</g>
<!-- Node5054 -->
<g id="node15" class="node">
<title>Node5054</title>
<g id="a_node15"><a xlink:href="../../d4/d4f/classItemBase.html#acc99f68478cf462d7c8b5d1bd81b85ef" target="_top" xlink:title=" ">
<polygon fill="#ffffff" stroke="#000000" points="659,-382.5 659,-401.5 776,-401.5 776,-382.5 659,-382.5"/>
<text text-anchor="middle" x="717.5" y="-389.5" font-family="Helvetica,sans-Serif" font-size="10.00" fill="#000000">ItemBase::constTitle</text>
</a>
</g>
</g>
<!-- Node5053&#45;&gt;Node5054 -->
<g id="edge14" class="edge">
<title>Node5053&#45;&gt;Node5054</title>
<path fill="none" stroke="#191970" d="M568.6657,-392.7054C593.7778,-392.5864 622.8546,-392.4486 648.6088,-392.3265"/>
<polygon fill="#191970" stroke="#191970" points="648.6889,-395.8263 658.6722,-392.2788 648.6556,-388.8263 648.6889,-395.8263"/>
</g>
<!-- Node5055 -->
<g id="node16" class="node">
<title>Node5055</title>
<g id="a_node16"><a xlink:href="../../da/d3a/classDebugDialog.html#ad26216d18945d7d7188420707b76f241" target="_top" xlink:title=" ">
<polygon fill="#ffffff" stroke="#000000" points="659.5,-344.5 659.5,-363.5 775.5,-363.5 775.5,-344.5 659.5,-344.5"/>
<text text-anchor="middle" x="717.5" y="-351.5" font-family="Helvetica,sans-Serif" font-size="10.00" fill="#000000">DebugDialog::debug</text>
</a>
</g>
</g>
<!-- Node5053&#45;&gt;Node5055 -->
<g id="edge15" class="edge">
<title>Node5053&#45;&gt;Node5055</title>
<path fill="none" stroke="#191970" d="M558.1164,-383.4595C587.7306,-377.9858 625.0878,-371.0809 656.1905,-365.3321"/>
<polygon fill="#191970" stroke="#191970" points="656.854,-368.7688 666.0512,-363.5095 655.5816,-361.8854 656.854,-368.7688"/>
</g>
<!-- Node5056 -->
<g id="node17" class="node">
<title>Node5056</title>
<g id="a_node17"><a xlink:href="../../d4/d4f/classItemBase.html#a7e2aeaad0bf538b46ff5a3285521526a" target="_top" xlink:title=" ">
<polygon fill="#ffffff" stroke="#000000" points="651.5,-306.5 651.5,-325.5 783.5,-325.5 783.5,-306.5 651.5,-306.5"/>
<text text-anchor="middle" x="717.5" y="-313.5" font-family="Helvetica,sans-Serif" font-size="10.00" fill="#000000">ItemBase::instanceTitle</text>
</a>
</g>
</g>
<!-- Node5053&#45;&gt;Node5056 -->
<g id="edge16" class="edge">
<title>Node5053&#45;&gt;Node5056</title>
<path fill="none" stroke="#191970" d="M524.2898,-383.2925C548.1711,-370.6109 592.2052,-348.4438 632,-335 639.6813,-332.405 647.872,-330.0668 656.0266,-327.9909"/>
<polygon fill="#191970" stroke="#191970" points="657.027,-331.3498 665.9189,-325.5893 655.3754,-324.5474 657.027,-331.3498"/>
</g>
<!-- Node5057 -->
<g id="node18" class="node">
<title>Node5057</title>
<g id="a_node18"><a xlink:href="../../d4/d4f/classItemBase.html#a8f16baa26ee92ac6cd8dda5c69d759d4" target="_top" xlink:title=" ">
<polygon fill="#ffffff" stroke="#000000" points="652.5,-496.5 652.5,-515.5 782.5,-515.5 782.5,-496.5 652.5,-496.5"/>
<text text-anchor="middle" x="717.5" y="-503.5" font-family="Helvetica,sans-Serif" font-size="10.00" fill="#000000">ItemBase::viewLayerID</text>
</a>
</g>
</g>
<!-- Node5053&#45;&gt;Node5057 -->
<g id="edge17" class="edge">
<title>Node5053&#45;&gt;Node5057</title>
<path fill="none" stroke="#191970" d="M516.2652,-402.6923C536.1965,-421.8963 583.766,-464.8341 632,-487 637.3993,-489.4813 643.1425,-491.6477 648.9988,-493.5377"/>
<polygon fill="#191970" stroke="#191970" points="648.3389,-496.992 658.9206,-496.4641 650.3193,-490.278 648.3389,-496.992"/>
</g>
<!-- Node5058 -->
<g id="node19" class="node">
<title>Node5058</title>
<g id="a_node19"><a xlink:href="../../d4/d4f/classItemBase.html#a3dd3d84b0fdadf869b2bbd87f42ec156" target="_top" xlink:title=" ">
<polygon fill="#ffffff" stroke="#000000" points="632,-458.5 632,-477.5 803,-477.5 803,-458.5 632,-458.5"/>
<text text-anchor="middle" x="717.5" y="-465.5" font-family="Helvetica,sans-Serif" font-size="10.00" fill="#000000">ItemBase::viewLayerPlacement</text>
</a>
</g>
</g>
<!-- Node5053&#45;&gt;Node5058 -->
<g id="edge18" class="edge">
<title>Node5053&#45;&gt;Node5058</title>
<path fill="none" stroke="#191970" d="M524.7473,-402.5463C548.7702,-414.784 592.5824,-435.973 632,-449 639.8867,-451.6064 648.3005,-453.9656 656.6574,-456.0644"/>
<polygon fill="#191970" stroke="#191970" points="655.8655,-459.4737 666.4066,-458.4078 657.5016,-452.6676 655.8655,-459.4737"/>
</g>
<!-- Node5059 -->
<g id="node20" class="node">
<title>Node5059</title>
<g id="a_node20"><a xlink:href="../../d4/d4f/classItemBase.html#a34c60a892e43a7b8a3c0593eebece165" target="_top" xlink:title=" ">
<polygon fill="#ffffff" stroke="#000000" points="659.5,-420.5 659.5,-439.5 775.5,-439.5 775.5,-420.5 659.5,-420.5"/>
<text text-anchor="middle" x="717.5" y="-427.5" font-family="Helvetica,sans-Serif" font-size="10.00" fill="#000000">ItemBase::wireFlags</text>
</a>
</g>
</g>
<!-- Node5053&#45;&gt;Node5059 -->
<g id="edge19" class="edge">
<title>Node5053&#45;&gt;Node5059</title>
<path fill="none" stroke="#191970" d="M560.8377,-402.5284C588.909,-407.4509 623.3567,-413.4915 652.795,-418.6536"/>
<polygon fill="#191970" stroke="#191970" points="652.5258,-422.1598 662.9801,-420.4396 653.7349,-415.265 652.5258,-422.1598"/>
</g>
<!-- Node5060 -->
<g id="node21" class="node">
<title>Node5060</title>
<g id="a_node21"><a xlink:href="../../d3/de8/classViewGeometry.html#ac42dfbfe227f5c4ee09f56b52bd24742" target="_top" xlink:title=" ">
<polygon fill="#ffffff" stroke="#000000" points="839,-420.5 839,-439.5 981,-439.5 981,-420.5 839,-420.5"/>
<text text-anchor="middle" x="910" y="-427.5" font-family="Helvetica,sans-Serif" font-size="10.00" fill="#000000">ViewGeometry::wireFlags</text>
</a>
</g>
</g>
<!-- Node5059&#45;&gt;Node5060 -->
<g id="edge20" class="edge">
<title>Node5059&#45;&gt;Node5060</title>
<path fill="none" stroke="#191970" d="M775.5174,-430C792.1748,-430 810.6565,-430 828.4516,-430"/>
<polygon fill="#191970" stroke="#191970" points="828.8308,-433.5001 838.8307,-430 828.8307,-426.5001 828.8308,-433.5001"/>
</g>
<!-- Node5064 -->
<g id="node25" class="node">
<title>Node5064</title>
<g id="a_node25"><a xlink:href="../../dc/d09/classNonConnectorItem.html#a1452f3637c83b50fbd089f9c4b4518b6" target="_top" xlink:title=" ">
<polygon fill="#ffffff" stroke="#000000" points="423,-303.5 423,-322.5 590,-322.5 590,-303.5 423,-303.5"/>
<text text-anchor="middle" x="506.5" y="-310.5" font-family="Helvetica,sans-Serif" font-size="10.00" fill="#000000">NonConnectorItem::attachedTo</text>
</a>
</g>
</g>
<!-- Node5063&#45;&gt;Node5064 -->
<g id="edge24" class="edge">
<title>Node5063&#45;&gt;Node5064</title>
<path fill="none" stroke="#191970" d="M376.2309,-288.0083C399.679,-292.5068 425.0031,-297.3651 447.0331,-301.5915"/>
<polygon fill="#191970" stroke="#191970" points="446.4242,-305.0384 456.9046,-303.4853 447.7431,-298.1638 446.4242,-305.0384"/>
</g>
<!-- Node5065 -->
<g id="node26" class="node">
<title>Node5065</title>
<g id="a_node26"><a xlink:href="../../d4/d4f/classItemBase.html#a7565ba05974fedf75bb75923b18bca1a" target="_top" xlink:title=" ">
<polygon fill="#ffffff" stroke="#000000" points="442.5,-265.5 442.5,-284.5 570.5,-284.5 570.5,-265.5 442.5,-265.5"/>
<text text-anchor="middle" x="506.5" y="-272.5" font-family="Helvetica,sans-Serif" font-size="10.00" fill="#000000">ItemBase::getRatsnest</text>
</a>
</g>
</g>
<!-- Node5063&#45;&gt;Node5065 -->
<g id="edge25" class="edge">
<title>Node5063&#45;&gt;Node5065</title>
<path fill="none" stroke="#191970" d="M380.7042,-273.7933C397.6519,-273.9559 415.3939,-274.1261 432.0313,-274.2857"/>
<polygon fill="#191970" stroke="#191970" points="432.1976,-277.7873 442.2307,-274.3835 432.2648,-270.7877 432.1976,-277.7873"/>
</g>
<!-- Node5066 -->
<g id="node27" class="node">
<title>Node5066</title>
<g id="a_node27"><a xlink:href="../../d3/de8/classViewGeometry.html#a11ca759a75de95be900ac023617a1858" target="_top" xlink:title=" ">
<polygon fill="#ffffff" stroke="#000000" points="641,-265.5 641,-284.5 794,-284.5 794,-265.5 641,-265.5"/>
<text text-anchor="middle" x="717.5" y="-272.5" font-family="Helvetica,sans-Serif" font-size="10.00" fill="#000000">ViewGeometry::getRatsnest</text>
</a>
</g>
</g>
<!-- Node5065&#45;&gt;Node5066 -->
<g id="edge26" class="edge">
<title>Node5065&#45;&gt;Node5066</title>
<path fill="none" stroke="#191970" d="M570.6664,-275C589.5436,-275 610.518,-275 630.5685,-275"/>
<polygon fill="#191970" stroke="#191970" points="630.6375,-278.5001 640.6374,-275 630.6374,-271.5001 630.6375,-278.5001"/>
</g>
<!-- Node5069 -->
<g id="node30" class="node">
<title>Node5069</title>
<g id="a_node30"><a xlink:href="../../d8/d3c/classBezier.html#aec0fe0ef3264fbc54ca7e5808470f1ac" target="_top" xlink:title=" ">
<polygon fill="#ffffff" stroke="#000000" points="460,-51.5 460,-70.5 553,-70.5 553,-51.5 460,-51.5"/>
<text text-anchor="middle" x="506.5" y="-58.5" font-family="Helvetica,sans-Serif" font-size="10.00" fill="#000000">Bezier::isEmpty</text>
</a>
</g>
</g>
<!-- Node5068&#45;&gt;Node5069 -->
<g id="edge29" class="edge">
<title>Node5068&#45;&gt;Node5069</title>
<path fill="none" stroke="#191970" d="M342.0231,-117.0297C354.8938,-114.1708 368.7801,-110.2607 381,-105 398.6624,-97.3963 399.3179,-88.5579 417,-81 427.4174,-76.5473 438.9583,-73.0247 450.1933,-70.2592"/>
<polygon fill="#191970" stroke="#191970" points="450.9882,-73.6679 459.9518,-68.0195 449.4223,-66.8452 450.9882,-73.6679"/>
</g>
<!-- Node5071 -->
<g id="node32" class="node">
<title>Node5071</title>
<g id="a_node32"><a xlink:href="../../d7/d64/classWire.html#a279a6f6496623e9da9f02234b2325af6" target="_top" xlink:title=" ">
<polygon fill="#ffffff" stroke="#000000" points="465,-13.5 465,-32.5 548,-32.5 548,-13.5 465,-13.5"/>
<text text-anchor="middle" x="506.5" y="-20.5" font-family="Helvetica,sans-Serif" font-size="10.00" fill="#000000">Wire::hasFlag</text>
</a>
</g>
</g>
<!-- Node5070&#45;&gt;Node5071 -->
<g id="edge31" class="edge">
<title>Node5070&#45;&gt;Node5071</title>
<path fill="none" stroke="#191970" d="M348.5938,-77.6559C359.5357,-74.9663 370.8588,-71.4804 381,-67 398.8182,-59.1279 399.12,-49.7306 417,-42 428.8497,-36.8767 442.1962,-33.0914 454.8947,-30.3109"/>
<polygon fill="#191970" stroke="#191970" points="455.7898,-33.7009 464.8988,-28.2901 454.4037,-26.8395 455.7898,-33.7009"/>
</g>
<!-- Node5072 -->
<g id="node33" class="node">
<title>Node5072</title>
<g id="a_node33"><a xlink:href="../../d3/de8/classViewGeometry.html#af48546e414eab094f557068fa483aee3" target="_top" xlink:title=" ">
<polygon fill="#ffffff" stroke="#000000" points="651,-13.5 651,-32.5 784,-32.5 784,-13.5 651,-13.5"/>
<text text-anchor="middle" x="717.5" y="-20.5" font-family="Helvetica,sans-Serif" font-size="10.00" fill="#000000">ViewGeometry::hasFlag</text>
</a>
</g>
</g>
<!-- Node5071&#45;&gt;Node5072 -->
<g id="edge32" class="edge">
<title>Node5071&#45;&gt;Node5072</title>
<path fill="none" stroke="#191970" d="M548.1868,-23C574.6297,-23 609.6399,-23 640.9593,-23"/>
<polygon fill="#191970" stroke="#191970" points="640.9827,-26.5001 650.9827,-23 640.9826,-19.5001 640.9827,-26.5001"/>
</g>
<!-- Node5073&#45;&gt;Node5064 -->
<g id="edge38" class="edge">
<title>Node5073&#45;&gt;Node5064</title>
<path fill="none" stroke="#191970" d="M335.1441,-221.154C350.2467,-228.3199 367.3238,-237.7807 381,-249 400.8019,-265.2445 395.1999,-280.5555 417,-294 420.4011,-296.0975 423.9981,-297.9663 427.7195,-299.631"/>
<polygon fill="#191970" stroke="#191970" points="426.5989,-302.9514 437.1857,-303.3628 429.1662,-296.4391 426.5989,-302.9514"/>
</g>
<!-- Node5073&#45;&gt;Node5065 -->
<g id="edge41" class="edge">
<title>Node5073&#45;&gt;Node5065</title>
<path fill="none" stroke="#191970" d="M329.2138,-221.028C352.8716,-231.9444 386.4191,-246.4236 417,-256 425.5717,-258.6842 434.7234,-261.1097 443.7807,-263.2597"/>
<polygon fill="#191970" stroke="#191970" points="443.0122,-266.6742 453.5399,-265.4838 444.5676,-259.8492 443.0122,-266.6742"/>
</g>
<!-- Node5073&#45;&gt;Node5073 -->
<g id="edge43" class="edge">
<title>Node5073&#45;&gt;Node5073</title>
<path fill="none" stroke="#191970" d="M261.7517,-221.159C253.011,-230.5566 265.0938,-239.5 298,-239.5 318.0522,-239.5 330.3719,-236.179 334.9591,-231.4579"/>
<polygon fill="#191970" stroke="#191970" points="338.4286,-230.8943 334.2483,-221.159 331.4452,-231.3763 338.4286,-230.8943"/>
</g>
<!-- Node5074 -->
<g id="node35" class="node">
<title>Node5074</title>
<g id="a_node35"><a xlink:href="../../dc/d3a/classConnectorItem.html#aa279dff4c65b0bb8a48056347a1b2520" target="_top" xlink:title=" ">
<polygon fill="#ffffff" stroke="#000000" points="417,-90 417,-120 596,-120 596,-90 417,-90"/>
<text text-anchor="start" x="425" y="-108" font-family="Helvetica,sans-Serif" font-size="10.00" fill="#000000">ConnectorItem::adjustedTerminal</text>
<text text-anchor="middle" x="506.5" y="-97" font-family="Helvetica,sans-Serif" font-size="10.00" fill="#000000">Point</text>
</a>
</g>
</g>
<!-- Node5073&#45;&gt;Node5074 -->
<g id="edge35" class="edge">
<title>Node5073&#45;&gt;Node5074</title>
<path fill="none" stroke="#191970" d="M363.434,-190.9254C369.65,-188.1495 375.6276,-184.8708 381,-181 403.5107,-164.7812 394.3269,-145.9909 417,-130 419.8551,-127.9863 422.8677,-126.1345 425.9906,-124.4314"/>
<polygon fill="#191970" stroke="#191970" points="427.5913,-127.5449 435.0447,-120.0151 424.5225,-121.2534 427.5913,-127.5449"/>
</g>
<!-- Node5077 -->
<g id="node38" class="node">
<title>Node5077</title>
<g id="a_node38"><a xlink:href="../../dc/d09/classNonConnectorItem.html#a9a1e80518fb866bab2bd1fa7fe0965db" target="_top" xlink:title=" ">
<polygon fill="#ffffff" stroke="#000000" points="428,-216 428,-246 585,-246 585,-216 428,-216"/>
<text text-anchor="start" x="436" y="-234" font-family="Helvetica,sans-Serif" font-size="10.00" fill="#000000">NonConnectorItem::attached</text>
<text text-anchor="middle" x="506.5" y="-223" font-family="Helvetica,sans-Serif" font-size="10.00" fill="#000000">ToItemType</text>
</a>
</g>
</g>
<!-- Node5073&#45;&gt;Node5077 -->
<g id="edge39" class="edge">
<title>Node5073&#45;&gt;Node5077</title>
<path fill="none" stroke="#191970" d="M381.0038,-215.9525C393.0698,-217.3993 405.5324,-218.8936 417.7073,-220.3534"/>
<polygon fill="#191970" stroke="#191970" points="417.5059,-223.8542 427.8515,-221.5697 418.3393,-216.904 417.5059,-223.8542"/>
</g>
<!-- Node5078 -->
<g id="node39" class="node">
<title>Node5078</title>
<g id="a_node39"><a xlink:href="../../d7/dfe/classGraphicsUtils.html#a720808c811cf100be0758d271ba2afce" target="_top" xlink:title=" ">
<polygon fill="#ffffff" stroke="#000000" points="419.5,-177.5 419.5,-196.5 593.5,-196.5 593.5,-177.5 419.5,-177.5"/>
<text text-anchor="middle" x="506.5" y="-184.5" font-family="Helvetica,sans-Serif" font-size="10.00" fill="#000000">GraphicsUtils::distanceFromLine</text>
</a>
</g>
</g>
<!-- Node5073&#45;&gt;Node5078 -->
<g id="edge40" class="edge">
<title>Node5073&#45;&gt;Node5078</title>
<path fill="none" stroke="#191970" d="M381.0038,-198.4361C390.2609,-197.5925 399.7514,-196.7277 409.1664,-195.8697"/>
<polygon fill="#191970" stroke="#191970" points="409.6973,-199.3359 419.3384,-194.9428 409.062,-192.3648 409.6973,-199.3359"/>
</g>
<!-- Node5079 -->
<g id="node40" class="node">
<title>Node5079</title>
<g id="a_node40"><a xlink:href="../../d7/d64/classWire.html#a45d0e341658a356ad227b1f5171cfa18" target="_top" xlink:title=" ">
<polygon fill="#ffffff" stroke="#000000" points="446.5,-139.5 446.5,-158.5 566.5,-158.5 566.5,-139.5 446.5,-139.5"/>
<text text-anchor="middle" x="506.5" y="-146.5" font-family="Helvetica,sans-Serif" font-size="10.00" fill="#000000">Wire::otherConnector</text>
</a>
</g>
</g>
<!-- Node5073&#45;&gt;Node5079 -->
<g id="edge42" class="edge">
<title>Node5073&#45;&gt;Node5079</title>
<path fill="none" stroke="#191970" d="M349.4957,-190.961C359.9544,-187.7743 370.856,-184.3566 381,-181 397.1501,-175.6561 400.6412,-172.6662 417,-168 426.183,-165.3806 435.9887,-162.9437 445.6182,-160.748"/>
<polygon fill="#191970" stroke="#191970" points="446.5479,-164.127 455.5559,-158.5496 445.0359,-157.2922 446.5479,-164.127"/>
</g>
<!-- Node5075 -->
<g id="node36" class="node">
<title>Node5075</title>
<g id="a_node36"><a xlink:href="../../d7/d2d/classSvgIdLayer.html#acdaf551c0efe7ce5b7197185c60f7b64" target="_top" xlink:title=" ">
<polygon fill="#ffffff" stroke="#000000" points="670,-95.5 670,-114.5 765,-114.5 765,-95.5 670,-95.5"/>
<text text-anchor="middle" x="717.5" y="-102.5" font-family="Helvetica,sans-Serif" font-size="10.00" fill="#000000">SvgIdLayer::rect</text>
</a>
</g>
</g>
<!-- Node5074&#45;&gt;Node5075 -->
<g id="edge36" class="edge">
<title>Node5074&#45;&gt;Node5075</title>
<path fill="none" stroke="#191970" d="M596.289,-105C617.6815,-105 639.9556,-105 659.4861,-105"/>
<polygon fill="#191970" stroke="#191970" points="659.7295,-108.5001 669.7295,-105 659.7295,-101.5001 659.7295,-108.5001"/>
</g>
<!-- Node5076 -->
<g id="node37" class="node">
<title>Node5076</title>
<g id="a_node37"><a xlink:href="../../d1/d88/classPointRect.html#a35106398b82d6e7cacb0c7754cdfa9b8" target="_top" xlink:title=" ">
<polygon fill="#ffffff" stroke="#000000" points="856.5,-95.5 856.5,-114.5 963.5,-114.5 963.5,-95.5 856.5,-95.5"/>
<text text-anchor="middle" x="910" y="-102.5" font-family="Helvetica,sans-Serif" font-size="10.00" fill="#000000">PointRect::getRect</text>
</a>
</g>
</g>
<!-- Node5075&#45;&gt;Node5076 -->
<g id="edge37" class="edge">
<title>Node5075&#45;&gt;Node5076</title>
<path fill="none" stroke="#191970" d="M765.0843,-105C789.4602,-105 819.4874,-105 845.8756,-105"/>
<polygon fill="#191970" stroke="#191970" points="846.1701,-108.5001 856.1701,-105 846.17,-101.5001 846.1701,-108.5001"/>
</g>
<!-- Node5080&#45;&gt;Node5049 -->
<g id="edge45" class="edge">
<title>Node5080&#45;&gt;Node5049</title>
<path fill="none" stroke="#191970" d="M343.7562,-549.1696C378.411,-552.3276 425.8161,-556.6475 460.5245,-559.8104"/>
<polygon fill="#191970" stroke="#191970" points="460.5839,-563.3302 470.8603,-560.7523 461.2192,-556.3591 460.5839,-563.3302"/>
</g>
<!-- Node5081&#45;&gt;Node5050 -->
<g id="edge47" class="edge">
<title>Node5081&#45;&gt;Node5050</title>
<path fill="none" stroke="#191970" d="M343.7562,-473.1696C378.411,-476.3276 425.8161,-480.6475 460.5245,-483.8104"/>
<polygon fill="#191970" stroke="#191970" points="460.5839,-487.3302 470.8603,-484.7523 461.2192,-480.3591 460.5839,-487.3302"/>
</g>
<!-- Node5085 -->
<g id="node46" class="node">
<title>Node5085</title>
<g id="a_node46"><a xlink:href="../../d7/d64/classWire.html#a05b5f7ebb0ee82dc75ca8913d7ddf07a" target="_top" xlink:title=" ">
<polygon fill="#ffffff" stroke="#000000" points="466.5,-839.5 466.5,-858.5 546.5,-858.5 546.5,-839.5 466.5,-839.5"/>
<text text-anchor="middle" x="506.5" y="-846.5" font-family="Helvetica,sans-Serif" font-size="10.00" fill="#000000">Wire::setLine</text>
</a>
</g>
</g>
<!-- Node5084&#45;&gt;Node5085 -->
<g id="edge51" class="edge">
<title>Node5084&#45;&gt;Node5085</title>
<path fill="none" stroke="#191970" d="M347.676,-820.0537C380.5323,-826.0419 423.4607,-833.8657 456.4027,-839.8695"/>
<polygon fill="#191970" stroke="#191970" points="455.8177,-843.3205 466.2832,-841.6703 457.0728,-836.4339 455.8177,-843.3205"/>
</g>
<!-- Node5086 -->
<g id="node47" class="node">
<title>Node5086</title>
<g id="a_node47"><a xlink:href="../../d7/d64/classWire.html#abc61eb96d8830c10eb55b280a447ae90" target="_top" xlink:title=" ">
<polygon fill="#ffffff" stroke="#000000" points="438,-801.5 438,-820.5 575,-820.5 575,-801.5 438,-801.5"/>
<text text-anchor="middle" x="506.5" y="-808.5" font-family="Helvetica,sans-Serif" font-size="10.00" fill="#000000">Wire::setConnector1Rect</text>
</a>
</g>
</g>
<!-- Node5084&#45;&gt;Node5086 -->
<g id="edge54" class="edge">
<title>Node5084&#45;&gt;Node5086</title>
<path fill="none" stroke="#191970" d="M347.676,-811C371.6003,-811 400.8647,-811 427.7255,-811"/>
<polygon fill="#191970" stroke="#191970" points="427.8864,-814.5001 437.8863,-811 427.8863,-807.5001 427.8864,-814.5001"/>
</g>
<!-- Node5085&#45;&gt;Node5042 -->
<g id="edge53" class="edge">
<title>Node5085&#45;&gt;Node5042</title>
<path fill="none" stroke="#191970" d="M546.6841,-852.6185C570.2151,-854.7374 600.8932,-857.4999 629.7476,-860.0981"/>
<polygon fill="#191970" stroke="#191970" points="629.5894,-863.598 639.863,-861.009 630.2173,-856.6262 629.5894,-863.598"/>
</g>
<!-- Node5085&#45;&gt;Node5048 -->
<g id="edge52" class="edge">
<title>Node5085&#45;&gt;Node5048</title>
<path fill="none" stroke="#191970" d="M546.7868,-841.2861C562.2518,-838.106 580.0192,-834.1855 596,-830 624.4357,-822.5525 656.1193,-812.5868 680.0009,-804.7295"/>
<polygon fill="#191970" stroke="#191970" points="681.3359,-807.9744 689.726,-801.5047 679.1326,-801.3301 681.3359,-807.9744"/>
</g>
<!-- Node5086&#45;&gt;Node5048 -->
<g id="edge55" class="edge">
<title>Node5086&#45;&gt;Node5048</title>
<path fill="none" stroke="#191970" d="M575.0057,-804.8312C608.2289,-801.8396 647.0565,-798.3433 675.7834,-795.7565"/>
<polygon fill="#191970" stroke="#191970" points="676.2351,-799.2301 685.8809,-794.8472 675.6072,-792.2583 676.2351,-799.2301"/>
</g>
</g>
</svg>
