<?xml version="1.0" encoding="UTF-8" standalone="no"?>
<!DOCTYPE svg PUBLIC "-//W3C//DTD SVG 1.1//EN"
 "http://www.w3.org/Graphics/SVG/1.1/DTD/svg11.dtd">
<!-- Generated by graphviz version 2.40.1 (0)
 -->
<!-- Title: SketchWidget::addViewLayer Pages: 1 -->
<svg width="924pt" height="408pt"
 viewBox="0.00 0.00 924.00 408.00" xmlns="http://www.w3.org/2000/svg" xmlns:xlink="http://www.w3.org/1999/xlink">
<g id="graph0" class="graph" transform="scale(1 1) rotate(0) translate(4 404)">
<title>SketchWidget::addViewLayer</title>
<polygon fill="#ffffff" stroke="transparent" points="-4,4 -4,-404 920,-404 920,4 -4,4"/>
<!-- Node2379 -->
<g id="node1" class="node">
<title>Node2379</title>
<g id="a_node1"><a xlink:title=" ">
<polygon fill="#bfbfbf" stroke="#000000" points="0,-304.5 0,-323.5 158,-323.5 158,-304.5 0,-304.5"/>
<text text-anchor="middle" x="79" y="-311.5" font-family="Helvetica,sans-Serif" font-size="10.00" fill="#000000">SketchWidget::addViewLayer</text>
</a>
</g>
</g>
<!-- Node2380 -->
<g id="node2" class="node">
<title>Node2380</title>
<g id="a_node2"><a xlink:href="../../d5/d9d/classViewLayer.html#a03042985cec978df9f6a02ad6dc45ad0" target="_top" xlink:title=" ">
<polygon fill="#ffffff" stroke="#000000" points="198.5,-380.5 198.5,-399.5 336.5,-399.5 336.5,-380.5 198.5,-380.5"/>
<text text-anchor="middle" x="267.5" y="-387.5" font-family="Helvetica,sans-Serif" font-size="10.00" fill="#000000">ViewLayer::displayName</text>
</a>
</g>
</g>
<!-- Node2379&#45;&gt;Node2380 -->
<g id="edge1" class="edge">
<title>Node2379&#45;&gt;Node2380</title>
<path fill="none" stroke="#191970" d="M95.6547,-323.6324C117.5964,-335.9973 157.666,-357.4661 194,-371 200.4726,-373.411 207.3754,-375.6311 214.2609,-377.6374"/>
<polygon fill="#191970" stroke="#191970" points="213.7126,-381.1175 224.2845,-380.4213 215.5859,-374.3728 213.7126,-381.1175"/>
</g>
<!-- Node2381 -->
<g id="node3" class="node">
<title>Node2381</title>
<g id="a_node3"><a xlink:href="../../d5/d9d/classViewLayer.html#adbd97611c54ed9b3ae63d4baa3d2a212" target="_top" xlink:title=" ">
<polygon fill="#ffffff" stroke="#000000" points="208,-342.5 208,-361.5 327,-361.5 327,-342.5 208,-342.5"/>
<text text-anchor="middle" x="267.5" y="-349.5" font-family="Helvetica,sans-Serif" font-size="10.00" fill="#000000">ViewLayer::setAction</text>
</a>
</g>
</g>
<!-- Node2379&#45;&gt;Node2381 -->
<g id="edge2" class="edge">
<title>Node2379&#45;&gt;Node2381</title>
<path fill="none" stroke="#191970" d="M126.5665,-323.589C152.0014,-328.7165 183.5046,-335.0672 210.2714,-340.4632"/>
<polygon fill="#191970" stroke="#191970" points="209.7811,-343.9347 220.2755,-342.4799 211.1644,-337.0727 209.7811,-343.9347"/>
</g>
<!-- Node2383 -->
<g id="node5" class="node">
<title>Node2383</title>
<g id="a_node5"><a xlink:href="../../d8/d37/classSketchWidget.html#a047a41f5e74b7c9be0673832db003ab5" target="_top" xlink:title=" ">
<polygon fill="#ffffff" stroke="#000000" points="194,-182 194,-212 341,-212 341,-182 194,-182"/>
<text text-anchor="start" x="202" y="-200" font-family="Helvetica,sans-Serif" font-size="10.00" fill="#000000">SketchWidget::toggleLayer</text>
<text text-anchor="middle" x="267.5" y="-189" font-family="Helvetica,sans-Serif" font-size="10.00" fill="#000000">Visibility</text>
</a>
</g>
</g>
<!-- Node2379&#45;&gt;Node2383 -->
<g id="edge4" class="edge">
<title>Node2379&#45;&gt;Node2383</title>
<path fill="none" stroke="#191970" d="M94.4257,-304.4254C124.8991,-285.5109 193.4183,-242.9817 234.5148,-217.4736"/>
<polygon fill="#191970" stroke="#191970" points="236.4417,-220.397 243.0924,-212.1496 232.7502,-214.4495 236.4417,-220.397"/>
</g>
<!-- Node2385 -->
<g id="node7" class="node">
<title>Node2385</title>
<g id="a_node7"><a xlink:href="../../d5/d9d/classViewLayer.html#acda6179880454250f27ee4ed167b6983" target="_top" xlink:title=" ">
<polygon fill="#ffffff" stroke="#000000" points="579,-266.5 579,-285.5 713,-285.5 713,-266.5 579,-266.5"/>
<text text-anchor="middle" x="646" y="-273.5" font-family="Helvetica,sans-Serif" font-size="10.00" fill="#000000">ViewLayer::viewLayerID</text>
</a>
</g>
</g>
<!-- Node2379&#45;&gt;Node2385 -->
<g id="edge19" class="edge">
<title>Node2379&#45;&gt;Node2385</title>
<path fill="none" stroke="#191970" d="M151.0024,-304.4713C165.2344,-302.8035 180.0747,-301.2159 194,-300 325.3493,-288.5311 478.6838,-281.7864 568.7633,-278.4999"/>
<polygon fill="#191970" stroke="#191970" points="569.0238,-281.9929 578.8914,-278.1353 568.7719,-274.9974 569.0238,-281.9929"/>
</g>
<!-- Node2387 -->
<g id="node9" class="node">
<title>Node2387</title>
<g id="a_node9"><a xlink:href="../../d5/d9d/classViewLayer.html#af2035443385bd2654488e7a5e7b70e58" target="_top" xlink:title=" ">
<polygon fill="#ffffff" stroke="#000000" points="779.5,-228.5 779.5,-247.5 885.5,-247.5 885.5,-228.5 779.5,-228.5"/>
<text text-anchor="middle" x="832.5" y="-235.5" font-family="Helvetica,sans-Serif" font-size="10.00" fill="#000000">ViewLayer::visible</text>
</a>
</g>
</g>
<!-- Node2379&#45;&gt;Node2387 -->
<g id="edge20" class="edge">
<title>Node2379&#45;&gt;Node2387</title>
<path fill="none" stroke="#191970" d="M158.4711,-321.9756C279.9432,-331.8649 518.2102,-342.1554 713,-295 748.3433,-286.444 785.6408,-266.6945 808.9795,-252.8539"/>
<polygon fill="#191970" stroke="#191970" points="811.0517,-255.6906 817.7896,-247.5143 807.4235,-249.7043 811.0517,-255.6906"/>
</g>
<!-- Node2382 -->
<g id="node4" class="node">
<title>Node2382</title>
<g id="a_node4"><a xlink:href="../../d5/d9d/classViewLayer.html#a90addd3f5189b67fc65694efacd246d6" target="_top" xlink:title=" ">
<polygon fill="#ffffff" stroke="#000000" points="408,-342.5 408,-361.5 512,-361.5 512,-342.5 408,-342.5"/>
<text text-anchor="middle" x="460" y="-349.5" font-family="Helvetica,sans-Serif" font-size="10.00" fill="#000000">ViewLayer::action</text>
</a>
</g>
</g>
<!-- Node2381&#45;&gt;Node2382 -->
<g id="edge3" class="edge">
<title>Node2381&#45;&gt;Node2382</title>
<path fill="none" stroke="#191970" d="M327.0899,-352C349.4966,-352 375.0197,-352 397.6693,-352"/>
<polygon fill="#191970" stroke="#191970" points="397.8522,-355.5001 407.8522,-352 397.8522,-348.5001 397.8522,-355.5001"/>
</g>
<!-- Node2384 -->
<g id="node6" class="node">
<title>Node2384</title>
<g id="a_node6"><a xlink:href="../../d8/d37/classSketchWidget.html#a55535ceed23e00e82ae7c82a2bbc1bf2" target="_top" xlink:title=" ">
<polygon fill="#ffffff" stroke="#000000" points="378,-152.5 378,-171.5 542,-171.5 542,-152.5 378,-152.5"/>
<text text-anchor="middle" x="460" y="-159.5" font-family="Helvetica,sans-Serif" font-size="10.00" fill="#000000">SketchWidget::setLayerVisible</text>
</a>
</g>
</g>
<!-- Node2383&#45;&gt;Node2384 -->
<g id="edge5" class="edge">
<title>Node2383&#45;&gt;Node2384</title>
<path fill="none" stroke="#191970" d="M341.1,-183.6182C359.7304,-180.2308 379.5611,-176.6252 397.5796,-173.3492"/>
<polygon fill="#191970" stroke="#191970" points="398.4566,-176.7472 407.6692,-171.5147 397.2044,-169.8601 398.4566,-176.7472"/>
</g>
<!-- Node2383&#45;&gt;Node2387 -->
<g id="edge17" class="edge">
<title>Node2383&#45;&gt;Node2387</title>
<path fill="none" stroke="#191970" d="M341.074,-202.339C452.8585,-210.4508 663.5931,-225.743 769.04,-233.3949"/>
<polygon fill="#191970" stroke="#191970" points="768.9892,-236.9004 779.2163,-234.1334 769.4959,-229.9187 768.9892,-236.9004"/>
</g>
<!-- Node2396 -->
<g id="node18" class="node">
<title>Node2396</title>
<g id="a_node18"><a xlink:href="../../d5/d9d/classViewLayer.html#a6127c323b35f7b892f42e4f9ddfdbcbd" target="_top" xlink:title=" ">
<polygon fill="#ffffff" stroke="#000000" points="377,-114.5 377,-133.5 543,-133.5 543,-114.5 377,-114.5"/>
<text text-anchor="middle" x="460" y="-121.5" font-family="Helvetica,sans-Serif" font-size="10.00" fill="#000000">ViewLayer::includeChildLayers</text>
</a>
</g>
</g>
<!-- Node2383&#45;&gt;Node2396 -->
<g id="edge18" class="edge">
<title>Node2383&#45;&gt;Node2396</title>
<path fill="none" stroke="#191970" d="M293.7403,-181.8877C315.4623,-169.9152 347.4419,-153.5089 377,-143 384.2471,-140.4234 391.977,-138.1093 399.694,-136.0575"/>
<polygon fill="#191970" stroke="#191970" points="400.5869,-139.4419 409.4247,-133.5986 398.872,-132.6552 400.5869,-139.4419"/>
</g>
<!-- Node2384&#45;&gt;Node2385 -->
<g id="edge6" class="edge">
<title>Node2384&#45;&gt;Node2385</title>
<path fill="none" stroke="#191970" d="M475.5383,-171.5235C507.9515,-191.3896 582.9781,-237.3737 621.7816,-261.1565"/>
<polygon fill="#191970" stroke="#191970" points="620.0201,-264.1819 630.3751,-266.4234 623.678,-258.2137 620.0201,-264.1819"/>
</g>
<!-- Node2386 -->
<g id="node8" class="node">
<title>Node2386</title>
<g id="a_node8"><a xlink:href="../../d5/d9d/classViewLayer.html#aa2a357f5da67b45f537a17d9aa17444d" target="_top" xlink:title=" ">
<polygon fill="#ffffff" stroke="#000000" points="585,-190.5 585,-209.5 707,-209.5 707,-190.5 585,-190.5"/>
<text text-anchor="middle" x="646" y="-197.5" font-family="Helvetica,sans-Serif" font-size="10.00" fill="#000000">ViewLayer::setVisible</text>
</a>
</g>
</g>
<!-- Node2384&#45;&gt;Node2386 -->
<g id="edge7" class="edge">
<title>Node2384&#45;&gt;Node2386</title>
<path fill="none" stroke="#191970" d="M506.9357,-171.589C532.0332,-176.7165 563.1186,-183.0672 589.5304,-188.4632"/>
<polygon fill="#191970" stroke="#191970" points="588.9036,-191.9074 599.4019,-190.4799 590.3048,-185.049 588.9036,-191.9074"/>
</g>
<!-- Node2388 -->
<g id="node10" class="node">
<title>Node2388</title>
<g id="a_node10"><a xlink:href="../../d5/d9d/classViewLayer.html#a9bad6430529e9fe821c156a24fdbc1c1" target="_top" xlink:title=" ">
<polygon fill="#ffffff" stroke="#000000" points="581.5,-38.5 581.5,-57.5 710.5,-57.5 710.5,-38.5 581.5,-38.5"/>
<text text-anchor="middle" x="646" y="-45.5" font-family="Helvetica,sans-Serif" font-size="10.00" fill="#000000">ViewLayer::childLayers</text>
</a>
</g>
</g>
<!-- Node2384&#45;&gt;Node2388 -->
<g id="edge9" class="edge">
<title>Node2384&#45;&gt;Node2388</title>
<path fill="none" stroke="#191970" d="M527.2966,-152.3374C532.9343,-149.8627 538.2748,-146.7956 543,-143 572.139,-119.5936 550.4708,-91.1459 579,-67 581.0188,-65.2914 583.1818,-63.736 585.4497,-62.3202"/>
<polygon fill="#191970" stroke="#191970" points="587.3906,-65.2551 594.633,-57.5221 584.149,-59.0508 587.3906,-65.2551"/>
</g>
<!-- Node2389 -->
<g id="node11" class="node">
<title>Node2389</title>
<g id="a_node11"><a xlink:href="../../d4/d4f/classItemBase.html#a8f16baa26ee92ac6cd8dda5c69d759d4" target="_top" xlink:title=" ">
<polygon fill="#ffffff" stroke="#000000" points="581,-.5 581,-19.5 711,-19.5 711,-.5 581,-.5"/>
<text text-anchor="middle" x="646" y="-7.5" font-family="Helvetica,sans-Serif" font-size="10.00" fill="#000000">ItemBase::viewLayerID</text>
</a>
</g>
</g>
<!-- Node2384&#45;&gt;Node2389 -->
<g id="edge10" class="edge">
<title>Node2384&#45;&gt;Node2389</title>
<path fill="none" stroke="#191970" d="M529.0733,-152.4165C534.1385,-149.9047 538.8707,-146.8083 543,-143 582.0582,-106.9782 540.8783,-66.0115 579,-29 580.4964,-27.5472 582.0953,-26.2039 583.7762,-24.962"/>
<polygon fill="#191970" stroke="#191970" points="585.9989,-27.7097 592.7679,-19.5591 582.3936,-21.7095 585.9989,-27.7097"/>
</g>
<!-- Node2390 -->
<g id="node12" class="node">
<title>Node2390</title>
<g id="a_node12"><a xlink:href="../../d4/d4f/classItemBase.html#af09456248c6af9a4c9354f5b6ec3fead" target="_top" xlink:title=" ">
<polygon fill="#ffffff" stroke="#000000" points="586.5,-76.5 586.5,-95.5 705.5,-95.5 705.5,-76.5 586.5,-76.5"/>
<text text-anchor="middle" x="646" y="-83.5" font-family="Helvetica,sans-Serif" font-size="10.00" fill="#000000">ItemBase::setHidden</text>
</a>
</g>
</g>
<!-- Node2384&#45;&gt;Node2390 -->
<g id="edge11" class="edge">
<title>Node2384&#45;&gt;Node2390</title>
<path fill="none" stroke="#191970" d="M520.9653,-152.4332C528.6517,-149.9746 536.196,-146.8843 543,-143 563.204,-131.466 559.0984,-117.0482 579,-105 582.6071,-102.8163 586.4748,-100.875 590.4653,-99.1505"/>
<polygon fill="#191970" stroke="#191970" points="591.8573,-102.3651 599.934,-95.5082 589.3441,-95.8318 591.8573,-102.3651"/>
</g>
<!-- Node2393 -->
<g id="node15" class="node">
<title>Node2393</title>
<g id="a_node15"><a xlink:href="../../d0/dbb/classPartLabel.html#aeac014c70c40eb59bfd96b4349724c4e" target="_top" xlink:title=" ">
<polygon fill="#ffffff" stroke="#000000" points="582,-152.5 582,-171.5 710,-171.5 710,-152.5 582,-152.5"/>
<text text-anchor="middle" x="646" y="-159.5" font-family="Helvetica,sans-Serif" font-size="10.00" fill="#000000">PartLabel::viewLayerID</text>
</a>
</g>
</g>
<!-- Node2384&#45;&gt;Node2393 -->
<g id="edge14" class="edge">
<title>Node2384&#45;&gt;Node2393</title>
<path fill="none" stroke="#191970" d="M542.1237,-162C552.019,-162 562.0808,-162 571.8527,-162"/>
<polygon fill="#191970" stroke="#191970" points="571.9121,-165.5001 581.9121,-162 571.912,-158.5001 571.9121,-165.5001"/>
</g>
<!-- Node2394 -->
<g id="node16" class="node">
<title>Node2394</title>
<g id="a_node16"><a xlink:href="../../d0/dbb/classPartLabel.html#a988298efac1d39de38ba9cbbd90dfc81" target="_top" xlink:title=" ">
<polygon fill="#ffffff" stroke="#000000" points="587.5,-114.5 587.5,-133.5 704.5,-133.5 704.5,-114.5 587.5,-114.5"/>
<text text-anchor="middle" x="646" y="-121.5" font-family="Helvetica,sans-Serif" font-size="10.00" fill="#000000">PartLabel::setHidden</text>
</a>
</g>
</g>
<!-- Node2384&#45;&gt;Node2394 -->
<g id="edge15" class="edge">
<title>Node2384&#45;&gt;Node2394</title>
<path fill="none" stroke="#191970" d="M506.9357,-152.411C532.0332,-147.2835 563.1186,-140.9328 589.5304,-135.5368"/>
<polygon fill="#191970" stroke="#191970" points="590.3048,-138.951 599.4019,-133.5201 588.9036,-132.0926 590.3048,-138.951"/>
</g>
<!-- Node2386&#45;&gt;Node2387 -->
<g id="edge8" class="edge">
<title>Node2386&#45;&gt;Node2387</title>
<path fill="none" stroke="#191970" d="M693.0618,-209.589C718.2268,-214.7165 749.3958,-221.0672 775.8786,-226.4632"/>
<polygon fill="#191970" stroke="#191970" points="775.2791,-229.9129 785.7766,-228.4799 776.6767,-223.0538 775.2791,-229.9129"/>
</g>
<!-- Node2391 -->
<g id="node13" class="node">
<title>Node2391</title>
<g id="a_node13"><a xlink:href="../../dc/d09/classNonConnectorItem.html#aea97371d34a3a9b3d0370085ae0936dd" target="_top" xlink:title=" ">
<polygon fill="#ffffff" stroke="#000000" points="750.5,-38.5 750.5,-57.5 914.5,-57.5 914.5,-38.5 750.5,-38.5"/>
<text text-anchor="middle" x="832.5" y="-45.5" font-family="Helvetica,sans-Serif" font-size="10.00" fill="#000000">NonConnectorItem::setHidden</text>
</a>
</g>
</g>
<!-- Node2390&#45;&gt;Node2391 -->
<g id="edge12" class="edge">
<title>Node2390&#45;&gt;Node2391</title>
<path fill="none" stroke="#191970" d="M693.0618,-76.411C718.2268,-71.2835 749.3958,-64.9328 775.8786,-59.5368"/>
<polygon fill="#191970" stroke="#191970" points="776.6767,-62.9462 785.7766,-57.5201 775.2791,-56.0871 776.6767,-62.9462"/>
</g>
<!-- Node2392 -->
<g id="node14" class="node">
<title>Node2392</title>
<g id="a_node14"><a xlink:href="../../d4/d4f/classItemBase.html#a68e261a4c514ae7d0709d2d68fe09645" target="_top" xlink:title=" ">
<polygon fill="#ffffff" stroke="#000000" points="764,-76.5 764,-95.5 901,-95.5 901,-76.5 764,-76.5"/>
<text text-anchor="middle" x="832.5" y="-83.5" font-family="Helvetica,sans-Serif" font-size="10.00" fill="#000000">ItemBase::updateHidden</text>
</a>
</g>
</g>
<!-- Node2390&#45;&gt;Node2392 -->
<g id="edge13" class="edge">
<title>Node2390&#45;&gt;Node2392</title>
<path fill="none" stroke="#191970" d="M705.5225,-86C720.7384,-86 737.3389,-86 753.3695,-86"/>
<polygon fill="#191970" stroke="#191970" points="753.8013,-89.5001 763.8013,-86 753.8012,-82.5001 753.8013,-89.5001"/>
</g>
<!-- Node2395 -->
<g id="node17" class="node">
<title>Node2395</title>
<g id="a_node17"><a xlink:href="../../d0/dbb/classPartLabel.html#a5b11883b1c525cde93035c659c66d56a" target="_top" xlink:title=" ">
<polygon fill="#ffffff" stroke="#000000" points="749,-114.5 749,-133.5 916,-133.5 916,-114.5 749,-114.5"/>
<text text-anchor="middle" x="832.5" y="-121.5" font-family="Helvetica,sans-Serif" font-size="10.00" fill="#000000">PartLabel::setHiddenOrInactive</text>
</a>
</g>
</g>
<!-- Node2394&#45;&gt;Node2395 -->
<g id="edge16" class="edge">
<title>Node2394&#45;&gt;Node2395</title>
<path fill="none" stroke="#191970" d="M704.7538,-124C715.5719,-124 727.111,-124 738.6622,-124"/>
<polygon fill="#191970" stroke="#191970" points="738.7985,-127.5001 748.7985,-124 738.7984,-120.5001 738.7985,-127.5001"/>
</g>
</g>
</svg>
