<?xml version="1.0" encoding="UTF-8" standalone="no"?>
<!DOCTYPE svg PUBLIC "-//W3C//DTD SVG 1.1//EN"
 "http://www.w3.org/Graphics/SVG/1.1/DTD/svg11.dtd">
<!-- Generated by graphviz version 2.40.1 (0)
 -->
<!-- Title: SketchWidget::hidePartLayer Pages: 1 -->
<!--zoomable 148 -->
<svg id="main" version="1.1" xmlns="http://www.w3.org/2000/svg" xmlns:xlink="http://www.w3.org/1999/xlink" xml:space="preserve" onload="init(evt)">
<style type="text/css"><![CDATA[
.edge:hover path { stroke: red; }
.edge:hover polygon { stroke: red; fill: red; }
]]></style>
<script type="text/javascript"><![CDATA[
var edges = document.getElementsByTagName('g');
if (edges && edges.length) {
  for (var i=0;i<edges.length;i++) {
    if (edges[i].id.substr(0,4)=='edge') {
      edges[i].setAttribute('class','edge');
    }
  }
}
]]></script>
        <defs>
                <circle id="rim" cx="0" cy="0" r="7"/>
                <circle id="rim2" cx="0" cy="0" r="3.5"/>
                <g id="zoomPlus">
                        <use xlink:href="#rim" fill="#404040">
                                <set attributeName="fill" to="#808080" begin="zoomplus.mouseover" end="zoomplus.mouseout"/>
                        </use>
                        <path d="M-4,0h8M0,-4v8" fill="none" stroke="white" stroke-width="1.5" pointer-events="none"/>
                </g>
                <g id="zoomMin">
                        <use xlink:href="#rim" fill="#404040">
                                <set attributeName="fill" to="#808080" begin="zoomminus.mouseover" end="zoomminus.mouseout"/>
                        </use>
                        <path d="M-4,0h8" fill="none" stroke="white" stroke-width="1.5" pointer-events="none"/>
                </g>
                <g id="dirArrow">
                        <path fill="none" stroke="white" stroke-width="1.5" d="M0,-3.0v7 M-2.5,-0.5L0,-3.0L2.5,-0.5"/>
                </g>
               <g id="resetDef">
                       <use xlink:href="#rim2" fill="#404040">
                               <set attributeName="fill" to="#808080" begin="reset.mouseover" end="reset.mouseout"/>
                       </use>
               </g>
        </defs>

<script type="text/javascript">
var viewWidth = 538;
var viewHeight = 148;
var sectionId = 'dynsection-271';
</script>
<script xlink:href="../../svgpan.js"/>
<svg id="graph" class="graph">
<g id="viewport">
<title>SketchWidget::hidePartLayer</title>
<polygon fill="#ffffff" stroke="transparent" points="-4,4 -4,-144 534,-144 534,4 -4,4"/>
<!-- Node11793 -->
<g id="node1" class="node">
<title>Node11793</title>
<g id="a_node1"><a xlink:title=" ">
<polygon fill="#bfbfbf" stroke="#000000" points="0,-63.5 0,-82.5 156,-82.5 156,-63.5 0,-63.5"/>
<text text-anchor="middle" x="78" y="-70.5" font-family="Helvetica,sans-Serif" font-size="10.00" fill="#000000">SketchWidget::hidePartLayer</text>
</a>
</g>
</g>
<!-- Node11794 -->
<g id="node2" class="node">
<title>Node11794</title>
<g id="a_node2"><a xlink:href="../../d4/d4f/classItemBase.html#acc32076e751f0e21ffb9050f275d3b87" target="_top" xlink:title=" ">
<polygon fill="#ffffff" stroke="#000000" points="210,-120.5 210,-139.5 320,-139.5 320,-120.5 210,-120.5"/>
<text text-anchor="middle" x="265" y="-127.5" font-family="Helvetica,sans-Serif" font-size="10.00" fill="#000000">ItemBase::layerKin</text>
</a>
</g>
</g>
<!-- Node11793&#45;&gt;Node11794 -->
<g id="edge1" class="edge">
<title>Node11793&#45;&gt;Node11794</title>
<path fill="none" stroke="#191970" d="M105.0176,-82.5752C128.0151,-90.5884 161.9971,-102.106 192,-111 199.8552,-113.3286 208.2309,-115.6538 216.4035,-117.8382"/>
<polygon fill="#191970" stroke="#191970" points="215.6613,-121.262 226.2229,-120.4236 217.4437,-114.4927 215.6613,-121.262"/>
</g>
<!-- Node11795 -->
<g id="node3" class="node">
<title>Node11795</title>
<g id="a_node3"><a xlink:href="../../d4/d4f/classItemBase.html#abf6d16e250a353043cd4953ddc049bd0" target="_top" xlink:title=" ">
<polygon fill="#ffffff" stroke="#000000" points="197.5,-82.5 197.5,-101.5 332.5,-101.5 332.5,-82.5 197.5,-82.5"/>
<text text-anchor="middle" x="265" y="-89.5" font-family="Helvetica,sans-Serif" font-size="10.00" fill="#000000">ItemBase::layerKinChief</text>
</a>
</g>
</g>
<!-- Node11793&#45;&gt;Node11795 -->
<g id="edge2" class="edge">
<title>Node11793&#45;&gt;Node11795</title>
<path fill="none" stroke="#191970" d="M156.2213,-80.9476C166.5049,-81.9925 177.042,-83.0631 187.3166,-84.107"/>
<polygon fill="#191970" stroke="#191970" points="187.182,-87.6113 197.4846,-85.1401 187.8896,-80.6471 187.182,-87.6113"/>
</g>
<!-- Node11796 -->
<g id="node4" class="node">
<title>Node11796</title>
<g id="a_node4"><a xlink:href="../../d4/d4f/classItemBase.html#a7c3b2494aa3d742425ddb46a3ef94937" target="_top" xlink:title=" ">
<polygon fill="#ffffff" stroke="#000000" points="192,-44.5 192,-63.5 338,-63.5 338,-44.5 192,-44.5"/>
<text text-anchor="middle" x="265" y="-51.5" font-family="Helvetica,sans-Serif" font-size="10.00" fill="#000000">ItemBase::setLayerHidden</text>
</a>
</g>
</g>
<!-- Node11793&#45;&gt;Node11796 -->
<g id="edge3" class="edge">
<title>Node11793&#45;&gt;Node11796</title>
<path fill="none" stroke="#191970" d="M156.2213,-65.0524C164.7097,-64.1899 173.3707,-63.3099 181.9143,-62.4419"/>
<polygon fill="#191970" stroke="#191970" points="182.2774,-65.9231 191.8724,-61.4301 181.5698,-58.9589 182.2774,-65.9231"/>
</g>
<!-- Node11800 -->
<g id="node8" class="node">
<title>Node11800</title>
<g id="a_node8"><a xlink:href="../../d4/d4f/classItemBase.html#a8f16baa26ee92ac6cd8dda5c69d759d4" target="_top" xlink:title=" ">
<polygon fill="#ffffff" stroke="#000000" points="200,-6.5 200,-25.5 330,-25.5 330,-6.5 200,-6.5"/>
<text text-anchor="middle" x="265" y="-13.5" font-family="Helvetica,sans-Serif" font-size="10.00" fill="#000000">ItemBase::viewLayerID</text>
</a>
</g>
</g>
<!-- Node11793&#45;&gt;Node11800 -->
<g id="edge7" class="edge">
<title>Node11793&#45;&gt;Node11800</title>
<path fill="none" stroke="#191970" d="M105.0176,-63.4248C128.0151,-55.4116 161.9971,-43.894 192,-35 199.8552,-32.6714 208.2309,-30.3462 216.4035,-28.1618"/>
<polygon fill="#191970" stroke="#191970" points="217.4437,-31.5073 226.2229,-25.5764 215.6613,-24.738 217.4437,-31.5073"/>
</g>
<!-- Node11797 -->
<g id="node5" class="node">
<title>Node11797</title>
<g id="a_node5"><a xlink:href="../../d4/d4f/classItemBase.html#a7f8248e87b153adfd111e851bd4e4060" target="_top" xlink:title=" ">
<polygon fill="#ffffff" stroke="#000000" points="388,-88.5 388,-107.5 516,-107.5 516,-88.5 388,-88.5"/>
<text text-anchor="middle" x="452" y="-95.5" font-family="Helvetica,sans-Serif" font-size="10.00" fill="#000000">ItemBase::layerHidden</text>
</a>
</g>
</g>
<!-- Node11796&#45;&gt;Node11797 -->
<g id="edge4" class="edge">
<title>Node11796&#45;&gt;Node11797</title>
<path fill="none" stroke="#191970" d="M305.5762,-63.5473C333.7568,-70.1781 371.5011,-79.0591 401.6098,-86.1435"/>
<polygon fill="#191970" stroke="#191970" points="400.9671,-89.5878 411.503,-88.4713 402.5705,-82.7739 400.9671,-89.5878"/>
</g>
<!-- Node11798 -->
<g id="node6" class="node">
<title>Node11798</title>
<g id="a_node6"><a xlink:href="../../dc/d09/classNonConnectorItem.html#a8fea619cf58e981668c19ca5a3aa0190" target="_top" xlink:title=" ">
<polygon fill="#ffffff" stroke="#000000" points="374,-39 374,-69 530,-69 530,-39 374,-39"/>
<text text-anchor="start" x="382" y="-57" font-family="Helvetica,sans-Serif" font-size="10.00" fill="#000000">NonConnectorItem::setLayer</text>
<text text-anchor="middle" x="452" y="-46" font-family="Helvetica,sans-Serif" font-size="10.00" fill="#000000">Hidden</text>
</a>
</g>
</g>
<!-- Node11796&#45;&gt;Node11798 -->
<g id="edge5" class="edge">
<title>Node11796&#45;&gt;Node11798</title>
<path fill="none" stroke="#191970" d="M338.1025,-54C346.496,-54 355.12,-54 363.6858,-54"/>
<polygon fill="#191970" stroke="#191970" points="363.6973,-57.5001 373.6973,-54 363.6972,-50.5001 363.6973,-57.5001"/>
</g>
<!-- Node11799 -->
<g id="node7" class="node">
<title>Node11799</title>
<g id="a_node7"><a xlink:href="../../d4/d4f/classItemBase.html#a68e261a4c514ae7d0709d2d68fe09645" target="_top" xlink:title=" ">
<polygon fill="#ffffff" stroke="#000000" points="383.5,-.5 383.5,-19.5 520.5,-19.5 520.5,-.5 383.5,-.5"/>
<text text-anchor="middle" x="452" y="-7.5" font-family="Helvetica,sans-Serif" font-size="10.00" fill="#000000">ItemBase::updateHidden</text>
</a>
</g>
</g>
<!-- Node11796&#45;&gt;Node11799 -->
<g id="edge6" class="edge">
<title>Node11796&#45;&gt;Node11799</title>
<path fill="none" stroke="#191970" d="M305.5762,-44.4527C333.7568,-37.8219 371.5011,-28.9409 401.6098,-21.8565"/>
<polygon fill="#191970" stroke="#191970" points="402.5705,-25.2261 411.503,-19.5287 400.9671,-18.4122 402.5705,-25.2261"/>
</g>
</g>
</svg>
        <g id="navigator" transform="translate(0 0)" fill="#404254">
                <rect fill="#f2f5e9" fill-opacity="0.5" stroke="#606060" stroke-width=".5" x="0" y="0" width="60" height="60"/>
                <use id="zoomplus" xlink:href="#zoomPlus" x="17" y="9" onmousedown="handleZoom(evt,'in')"/>
                <use id="zoomminus" xlink:href="#zoomMin" x="42" y="9" onmousedown="handleZoom(evt,'out')"/>
                <use id="reset" xlink:href="#resetDef" x="30" y="36" onmousedown="handleReset()"/>
                <g id="arrowUp" xlink:href="#dirArrow" transform="translate(30 24)" onmousedown="handlePan(0,-1)">
                  <use xlink:href="#rim" fill="#404040">
                        <set attributeName="fill" to="#808080" begin="arrowUp.mouseover" end="arrowUp.mouseout"/>
                  </use>
                  <path fill="none" stroke="white" stroke-width="1.5" d="M0,-3.0v7 M-2.5,-0.5L0,-3.0L2.5,-0.5"/>
                </g>
                <g id="arrowRight" xlink:href="#dirArrow" transform="rotate(90) translate(36 -43)" onmousedown="handlePan(1,0)">
                  <use xlink:href="#rim" fill="#404040">
                        <set attributeName="fill" to="#808080" begin="arrowRight.mouseover" end="arrowRight.mouseout"/>
                  </use>
                  <path fill="none" stroke="white" stroke-width="1.5" d="M0,-3.0v7 M-2.5,-0.5L0,-3.0L2.5,-0.5"/>
                </g>
                <g id="arrowDown" xlink:href="#dirArrow" transform="rotate(180) translate(-30 -48)" onmousedown="handlePan(0,1)">
                  <use xlink:href="#rim" fill="#404040">
                        <set attributeName="fill" to="#808080" begin="arrowDown.mouseover" end="arrowDown.mouseout"/>
                  </use>
                  <path fill="none" stroke="white" stroke-width="1.5" d="M0,-3.0v7 M-2.5,-0.5L0,-3.0L2.5,-0.5"/>
                </g>
                <g id="arrowLeft" xlink:href="#dirArrow" transform="rotate(270) translate(-36 17)" onmousedown="handlePan(-1,0)">
                  <use xlink:href="#rim" fill="#404040">
                        <set attributeName="fill" to="#808080" begin="arrowLeft.mouseover" end="arrowLeft.mouseout"/>
                  </use>
                  <path fill="none" stroke="white" stroke-width="1.5" d="M0,-3.0v7 M-2.5,-0.5L0,-3.0L2.5,-0.5"/>
                </g>
        </g>
        <svg viewBox="0 0 15 15" width="100%" height="30px" preserveAspectRatio="xMaxYMin meet">
         <g id="arrow_out" transform="scale(0.3 0.3)">
          <a xlink:href="classSketchWidget_a7bc00edfa45fa5df215b5f6d867f9c27_cgraph_org.svg" target="_base">
           <rect id="button" ry="5" rx="5" y="6" x="6" height="38" width="38"
                fill="#f2f5e9" fill-opacity="0.5" stroke="#606060" stroke-width="1.0"/>
           <path id="arrow"
             d="M 11.500037,31.436501 C 11.940474,20.09759 22.043105,11.32322 32.158766,21.979434 L 37.068811,17.246167 C 37.068811,17.246167 37.088388,32 37.088388,32 L 22.160133,31.978069 C 22.160133,31.978069 26.997745,27.140456 26.997745,27.140456 C 18.528582,18.264221 13.291696,25.230495 11.500037,31.436501 z"
             style="fill:#404040;"/>
          </a>
         </g>
        </svg>
</svg>
