<?xml version="1.0" encoding="UTF-8" standalone="no"?>
<!DOCTYPE svg PUBLIC "-//W3C//DTD SVG 1.1//EN"
 "http://www.w3.org/Graphics/SVG/1.1/DTD/svg11.dtd">
<!-- Generated by graphviz version 2.40.1 (0)
 -->
<!-- Title: SketchWidget::showPartLabelsAux Pages: 1 -->
<svg width="1165pt" height="203pt"
 viewBox="0.00 0.00 1165.00 203.00" xmlns="http://www.w3.org/2000/svg" xmlns:xlink="http://www.w3.org/1999/xlink">
<g id="graph0" class="graph" transform="scale(1 1) rotate(0) translate(4 199)">
<title>SketchWidget::showPartLabelsAux</title>
<polygon fill="#ffffff" stroke="transparent" points="-4,4 -4,-199 1161,-199 1161,4 -4,4"/>
<!-- Node22226 -->
<g id="node1" class="node">
<title>Node22226</title>
<g id="a_node1"><a xlink:title=" ">
<polygon fill="#bfbfbf" stroke="#000000" points="0,-118.5 0,-137.5 184,-137.5 184,-118.5 0,-118.5"/>
<text text-anchor="middle" x="92" y="-125.5" font-family="Helvetica,sans-Serif" font-size="10.00" fill="#000000">SketchWidget::showPartLabelsAux</text>
</a>
</g>
</g>
<!-- Node22227 -->
<g id="node2" class="node">
<title>Node22227</title>
<g id="a_node2"><a xlink:href="../../de/deb/classShowLabelCommand.html#a6a4b446cd87cfe8742abafc5db103a03" target="_top" xlink:title=" ">
<polygon fill="#ffffff" stroke="#000000" points="226,-175.5 226,-194.5 369,-194.5 369,-175.5 226,-175.5"/>
<text text-anchor="middle" x="297.5" y="-182.5" font-family="Helvetica,sans-Serif" font-size="10.00" fill="#000000">ShowLabelCommand::add</text>
</a>
</g>
</g>
<!-- Node22226&#45;&gt;Node22227 -->
<g id="edge1" class="edge">
<title>Node22226&#45;&gt;Node22227</title>
<path fill="none" stroke="#191970" d="M122.6591,-137.5539C148.5156,-145.5024 186.5499,-156.9401 220,-166 228.6466,-168.3419 237.8698,-170.713 246.8266,-172.9491"/>
<polygon fill="#191970" stroke="#191970" points="246.2336,-176.4077 256.7811,-175.4076 247.9121,-169.6119 246.2336,-176.4077"/>
</g>
<!-- Node22228 -->
<g id="node3" class="node">
<title>Node22228</title>
<g id="a_node3"><a xlink:href="../../d4/d4f/classItemBase.html#a27afd199a7ae3c3fd14e88ed0be14420" target="_top" xlink:title=" ">
<polygon fill="#ffffff" stroke="#000000" points="258.5,-137.5 258.5,-156.5 336.5,-156.5 336.5,-137.5 258.5,-137.5"/>
<text text-anchor="middle" x="297.5" y="-144.5" font-family="Helvetica,sans-Serif" font-size="10.00" fill="#000000">ItemBase::id</text>
</a>
</g>
</g>
<!-- Node22226&#45;&gt;Node22228 -->
<g id="edge2" class="edge">
<title>Node22226&#45;&gt;Node22228</title>
<path fill="none" stroke="#191970" d="M184.2305,-136.5274C206.2991,-138.5678 229.0218,-140.6687 248.2689,-142.4482"/>
<polygon fill="#191970" stroke="#191970" points="248.0059,-145.9387 258.2857,-143.3743 248.6504,-138.9685 248.0059,-145.9387"/>
</g>
<!-- Node22229 -->
<g id="node4" class="node">
<title>Node22229</title>
<g id="a_node4"><a xlink:href="../../d4/d4f/classItemBase.html#aaa6072174e2edaf19186d7490c6e384c" target="_top" xlink:title=" ">
<polygon fill="#ffffff" stroke="#000000" points="220,-99.5 220,-118.5 375,-118.5 375,-99.5 220,-99.5"/>
<text text-anchor="middle" x="297.5" y="-106.5" font-family="Helvetica,sans-Serif" font-size="10.00" fill="#000000">ItemBase::isPartLabelVisible</text>
</a>
</g>
</g>
<!-- Node22226&#45;&gt;Node22229 -->
<g id="edge3" class="edge">
<title>Node22226&#45;&gt;Node22229</title>
<path fill="none" stroke="#191970" d="M184.2305,-119.4726C192.6507,-118.6941 201.166,-117.9068 209.5472,-117.1319"/>
<polygon fill="#191970" stroke="#191970" points="210.0533,-120.6001 219.6885,-116.1942 209.4087,-113.6298 210.0533,-120.6001"/>
</g>
<!-- Node22231 -->
<g id="node6" class="node">
<title>Node22231</title>
<g id="a_node6"><a xlink:href="../../d0/dbb/classWaitPushUndoStack.html#a279fdca551f05e81111de92ea5b2145c" target="_top" xlink:title=" ">
<polygon fill="#ffffff" stroke="#000000" points="226,-60.5 226,-79.5 369,-79.5 369,-60.5 226,-60.5"/>
<text text-anchor="middle" x="297.5" y="-67.5" font-family="Helvetica,sans-Serif" font-size="10.00" fill="#000000">WaitPushUndoStack::push</text>
</a>
</g>
</g>
<!-- Node22226&#45;&gt;Node22231 -->
<g id="edge5" class="edge">
<title>Node22226&#45;&gt;Node22231</title>
<path fill="none" stroke="#191970" d="M122.948,-118.4721C148.8163,-110.5901 186.7172,-99.2318 220,-90 229.4411,-87.3813 239.5605,-84.688 249.2685,-82.1597"/>
<polygon fill="#191970" stroke="#191970" points="250.3848,-85.4863 259.1906,-79.5949 248.6328,-78.7091 250.3848,-85.4863"/>
</g>
<!-- Node22230 -->
<g id="node5" class="node">
<title>Node22230</title>
<g id="a_node5"><a xlink:href="../../d4/d4f/classItemBase.html#a187a364591f460d22824b57fc0d5c243" target="_top" xlink:title=" ">
<polygon fill="#ffffff" stroke="#000000" points="411,-101.5 411,-120.5 542,-120.5 542,-101.5 411,-101.5"/>
<text text-anchor="middle" x="476.5" y="-108.5" font-family="Helvetica,sans-Serif" font-size="10.00" fill="#000000">ItemBase::hasPartLabel</text>
</a>
</g>
</g>
<!-- Node22229&#45;&gt;Node22230 -->
<g id="edge4" class="edge">
<title>Node22229&#45;&gt;Node22230</title>
<path fill="none" stroke="#191970" d="M375.2311,-109.8685C383.6827,-109.9629 392.2769,-110.059 400.705,-110.1531"/>
<polygon fill="#191970" stroke="#191970" points="400.8437,-113.6548 410.8823,-110.2668 400.922,-106.6552 400.8437,-113.6548"/>
</g>
<!-- Node22232 -->
<g id="node7" class="node">
<title>Node22232</title>
<g id="a_node7"><a xlink:href="../../d0/dbb/classWaitPushUndoStack.html#a2b0322812e333fec2b4d0d12b12e634c" target="_top" xlink:title=" ">
<polygon fill="#ffffff" stroke="#000000" points="416.5,-52 416.5,-82 536.5,-82 536.5,-52 416.5,-52"/>
<text text-anchor="start" x="424.5" y="-70" font-family="Helvetica,sans-Serif" font-size="10.00" fill="#000000">WaitPushUndoStack::</text>
<text text-anchor="middle" x="476.5" y="-59" font-family="Helvetica,sans-Serif" font-size="10.00" fill="#000000">writeUndo</text>
</a>
</g>
</g>
<!-- Node22231&#45;&gt;Node22232 -->
<g id="edge6" class="edge">
<title>Node22231&#45;&gt;Node22232</title>
<path fill="none" stroke="#191970" d="M369.0172,-68.8014C381.2658,-68.5961 393.983,-68.383 406.1995,-68.1782"/>
<polygon fill="#191970" stroke="#191970" points="406.3823,-71.6757 416.3222,-68.0086 406.2649,-64.6767 406.3823,-71.6757"/>
</g>
<!-- Node22233 -->
<g id="node8" class="node">
<title>Node22233</title>
<g id="a_node8"><a xlink:href="../../d8/d6e/classBaseCommand.html#a2d7619b36325bfec9111724045c24b8e" target="_top" xlink:title=" ">
<polygon fill="#ffffff" stroke="#000000" points="588,-114.5 588,-133.5 761,-133.5 761,-114.5 588,-114.5"/>
<text text-anchor="middle" x="674.5" y="-121.5" font-family="Helvetica,sans-Serif" font-size="10.00" fill="#000000">BaseCommand::getDebugString</text>
</a>
</g>
</g>
<!-- Node22232&#45;&gt;Node22233 -->
<g id="edge7" class="edge">
<title>Node22232&#45;&gt;Node22233</title>
<path fill="none" stroke="#191970" d="M515.6821,-82.02C541.476,-91.8466 571.619,-103.1905 578,-105 587.61,-107.7251 597.8671,-110.197 607.9738,-112.389"/>
<polygon fill="#191970" stroke="#191970" points="607.4959,-115.8647 618.0007,-114.4867 608.9294,-109.013 607.4959,-115.8647"/>
</g>
<!-- Node22236 -->
<g id="node11" class="node">
<title>Node22236</title>
<g id="a_node11"><a xlink:href="../../d8/d6e/classBaseCommand.html#af34b4e2829ad3b7b718499916fd87cbb" target="_top" xlink:title=" ">
<polygon fill="#ffffff" stroke="#000000" points="612.5,-76.5 612.5,-95.5 736.5,-95.5 736.5,-76.5 612.5,-76.5"/>
<text text-anchor="middle" x="674.5" y="-83.5" font-family="Helvetica,sans-Serif" font-size="10.00" fill="#000000">BaseCommand::index</text>
</a>
</g>
</g>
<!-- Node22232&#45;&gt;Node22236 -->
<g id="edge10" class="edge">
<title>Node22232&#45;&gt;Node22236</title>
<path fill="none" stroke="#191970" d="M536.713,-72.778C557.3391,-74.7573 580.6334,-76.9926 602.1203,-79.0545"/>
<polygon fill="#191970" stroke="#191970" points="601.8867,-82.548 612.1753,-80.0193 602.5554,-75.5801 601.8867,-82.548"/>
</g>
<!-- Node22237 -->
<g id="node12" class="node">
<title>Node22237</title>
<g id="a_node12"><a xlink:href="../../d8/d6e/classBaseCommand.html#ad7114bcb3cf27232facaf0cbcd7e3b58" target="_top" xlink:title=" ">
<polygon fill="#ffffff" stroke="#000000" points="578,-38.5 578,-57.5 771,-57.5 771,-38.5 578,-38.5"/>
<text text-anchor="middle" x="674.5" y="-45.5" font-family="Helvetica,sans-Serif" font-size="10.00" fill="#000000">BaseCommand::subCommandCount</text>
</a>
</g>
</g>
<!-- Node22232&#45;&gt;Node22237 -->
<g id="edge11" class="edge">
<title>Node22232&#45;&gt;Node22237</title>
<path fill="none" stroke="#191970" d="M536.713,-61.222C546.542,-60.2788 556.977,-59.2775 567.5336,-58.2645"/>
<polygon fill="#191970" stroke="#191970" points="568.0563,-61.7305 577.6763,-57.2912 567.3876,-54.7625 568.0563,-61.7305"/>
</g>
<!-- Node22238 -->
<g id="node13" class="node">
<title>Node22238</title>
<g id="a_node13"><a xlink:href="../../d8/d6e/classBaseCommand.html#a2717e1d5a234ba427175907b2dc58c23" target="_top" xlink:title=" ">
<polygon fill="#ffffff" stroke="#000000" points="592.5,-.5 592.5,-19.5 756.5,-19.5 756.5,-.5 592.5,-.5"/>
<text text-anchor="middle" x="674.5" y="-7.5" font-family="Helvetica,sans-Serif" font-size="10.00" fill="#000000">BaseCommand::subCommand</text>
</a>
</g>
</g>
<!-- Node22232&#45;&gt;Node22238 -->
<g id="edge12" class="edge">
<title>Node22232&#45;&gt;Node22238</title>
<path fill="none" stroke="#191970" d="M512.1927,-51.9999C531.4332,-44.3329 555.7342,-35.3139 578,-29 587.61,-26.2749 597.8671,-23.803 607.9738,-21.611"/>
<polygon fill="#191970" stroke="#191970" points="608.9294,-24.987 618.0007,-19.5133 607.4959,-18.1353 608.9294,-24.987"/>
</g>
<!-- Node22234 -->
<g id="node9" class="node">
<title>Node22234</title>
<g id="a_node9"><a xlink:href="../../d8/d6e/classBaseCommand.html#aca69868889f793ce1399fd0c752cfa05" target="_top" xlink:title=" ">
<polygon fill="#ffffff" stroke="#000000" points="807,-114.5 807,-133.5 979,-133.5 979,-114.5 807,-114.5"/>
<text text-anchor="middle" x="893" y="-121.5" font-family="Helvetica,sans-Serif" font-size="10.00" fill="#000000">BaseCommand::getParamString</text>
</a>
</g>
</g>
<!-- Node22233&#45;&gt;Node22234 -->
<g id="edge8" class="edge">
<title>Node22233&#45;&gt;Node22234</title>
<path fill="none" stroke="#191970" d="M761.1708,-124C772.7822,-124 784.7493,-124 796.5162,-124"/>
<polygon fill="#191970" stroke="#191970" points="796.7913,-127.5001 806.7913,-124 796.7913,-120.5001 796.7913,-127.5001"/>
</g>
<!-- Node22235 -->
<g id="node10" class="node">
<title>Node22235</title>
<g id="a_node10"><a xlink:href="../../d8/d37/classSketchWidget.html#a4319a31c3a619e166f0e7dac865e2ea3" target="_top" xlink:title=" ">
<polygon fill="#ffffff" stroke="#000000" points="1015,-114.5 1015,-133.5 1157,-133.5 1157,-114.5 1015,-114.5"/>
<text text-anchor="middle" x="1086" y="-121.5" font-family="Helvetica,sans-Serif" font-size="10.00" fill="#000000">SketchWidget::viewName</text>
</a>
</g>
</g>
<!-- Node22234&#45;&gt;Node22235 -->
<g id="edge9" class="edge">
<title>Node22234&#45;&gt;Node22235</title>
<path fill="none" stroke="#191970" d="M979.0578,-124C987.562,-124 996.1756,-124 1004.6304,-124"/>
<polygon fill="#191970" stroke="#191970" points="1004.8465,-127.5001 1014.8465,-124 1004.8465,-120.5001 1004.8465,-127.5001"/>
</g>
</g>
</svg>
