<?xml version="1.0" encoding="UTF-8" standalone="no"?>
<!DOCTYPE svg PUBLIC "-//W3C//DTD SVG 1.1//EN"
 "http://www.w3.org/Graphics/SVG/1.1/DTD/svg11.dtd">
<!-- Generated by graphviz version 2.40.1 (0)
 -->
<!-- Title: PartsEditorView::addConnectorsIfNeeded Pages: 1 -->
<svg width="1140pt" height="201pt"
 viewBox="0.00 0.00 1140.00 201.00" xmlns="http://www.w3.org/2000/svg" xmlns:xlink="http://www.w3.org/1999/xlink">
<g id="graph0" class="graph" transform="scale(1 1) rotate(0) translate(4 197)">
<title>PartsEditorView::addConnectorsIfNeeded</title>
<polygon fill="#ffffff" stroke="transparent" points="-4,4 -4,-197 1136,-197 1136,4 -4,4"/>
<!-- Node126 -->
<g id="node1" class="node">
<title>Node126</title>
<g id="a_node1"><a xlink:title=" ">
<polygon fill="#bfbfbf" stroke="#000000" points="0,-71.5 0,-101.5 171,-101.5 171,-71.5 0,-71.5"/>
<text text-anchor="start" x="8" y="-89.5" font-family="Helvetica,sans-Serif" font-size="10.00" fill="#000000">PartsEditorView::addConnectors</text>
<text text-anchor="middle" x="85.5" y="-78.5" font-family="Helvetica,sans-Serif" font-size="10.00" fill="#000000">IfNeeded</text>
</a>
</g>
</g>
<!-- Node127 -->
<g id="node2" class="node">
<title>Node127</title>
<g id="a_node2"><a xlink:href="../../d8/d37/classPartsEditorView.html#a4fe0e9c761419149b1383b3f35a75f8d" target="_top" xlink:title=" ">
<polygon fill="#ffffff" stroke="#000000" points="210.5,-137.5 210.5,-167.5 348.5,-167.5 348.5,-137.5 210.5,-137.5"/>
<text text-anchor="start" x="218.5" y="-155.5" font-family="Helvetica,sans-Serif" font-size="10.00" fill="#000000">PartsEditorView::addRect</text>
<text text-anchor="middle" x="279.5" y="-144.5" font-family="Helvetica,sans-Serif" font-size="10.00" fill="#000000">ToSvg</text>
</a>
</g>
</g>
<!-- Node126&#45;&gt;Node127 -->
<g id="edge1" class="edge">
<title>Node126&#45;&gt;Node127</title>
<path fill="none" stroke="#191970" d="M130.0075,-101.6417C158.4731,-111.3259 195.5693,-123.9463 225.6863,-134.1923"/>
<polygon fill="#191970" stroke="#191970" points="224.6051,-137.5214 235.1996,-137.4287 226.8597,-130.8944 224.6051,-137.5214"/>
</g>
<!-- Node128 -->
<g id="node3" class="node">
<title>Node128</title>
<g id="a_node3"><a xlink:href="../../d8/d37/classPartsEditorView.html#a8d36b26ef37aaf1d72309743a63f97e5" target="_top" xlink:title=" ">
<polygon fill="#ffffff" stroke="#000000" points="564,-137.5 564,-167.5 716,-167.5 716,-137.5 564,-137.5"/>
<text text-anchor="start" x="572" y="-155.5" font-family="Helvetica,sans-Serif" font-size="10.00" fill="#000000">PartsEditorView::connectors</text>
<text text-anchor="middle" x="640" y="-144.5" font-family="Helvetica,sans-Serif" font-size="10.00" fill="#000000">LayerId</text>
</a>
</g>
</g>
<!-- Node126&#45;&gt;Node128 -->
<g id="edge8" class="edge">
<title>Node126&#45;&gt;Node128</title>
<path fill="none" stroke="#191970" d="M171.1077,-91.6583C260.5102,-97.7382 404.6359,-109.494 528,-128.5 540.329,-130.3995 553.3409,-132.8091 565.9606,-135.3649"/>
<polygon fill="#191970" stroke="#191970" points="565.4748,-138.8385 575.9768,-137.4389 566.8942,-131.9839 565.4748,-138.8385"/>
</g>
<!-- Node133 -->
<g id="node8" class="node">
<title>Node133</title>
<g id="a_node8"><a xlink:href="../../d8/d37/classPartsEditorView.html#aa17226b87d7a4841295455eea3ed4d7d" target="_top" xlink:title=" ">
<polygon fill="#ffffff" stroke="#000000" points="207,-49.5 207,-79.5 352,-79.5 352,-49.5 207,-49.5"/>
<text text-anchor="start" x="215" y="-67.5" font-family="Helvetica,sans-Serif" font-size="10.00" fill="#000000">PartsEditorView::mapFrom</text>
<text text-anchor="middle" x="279.5" y="-56.5" font-family="Helvetica,sans-Serif" font-size="10.00" fill="#000000">SceneToSvg</text>
</a>
</g>
</g>
<!-- Node126&#45;&gt;Node133 -->
<g id="edge9" class="edge">
<title>Node126&#45;&gt;Node133</title>
<path fill="none" stroke="#191970" d="M171.1559,-76.7864C179.599,-75.829 188.1583,-74.8583 196.5732,-73.9041"/>
<polygon fill="#191970" stroke="#191970" points="197.2065,-77.3548 206.7484,-72.7502 196.4177,-70.3994 197.2065,-77.3548"/>
</g>
<!-- Node134 -->
<g id="node9" class="node">
<title>Node134</title>
<g id="a_node9"><a xlink:href="../../d8/d37/classPartsEditorView.html#ac95b5d917c111ed03b080ba7f0843515" target="_top" xlink:title=" ">
<polygon fill="#ffffff" stroke="#000000" points="209.5,-.5 209.5,-30.5 349.5,-30.5 349.5,-.5 209.5,-.5"/>
<text text-anchor="start" x="217.5" y="-18.5" font-family="Helvetica,sans-Serif" font-size="10.00" fill="#000000">PartsEditorView::svgIdFor</text>
<text text-anchor="middle" x="279.5" y="-7.5" font-family="Helvetica,sans-Serif" font-size="10.00" fill="#000000">Connector</text>
</a>
</g>
</g>
<!-- Node126&#45;&gt;Node134 -->
<g id="edge10" class="edge">
<title>Node126&#45;&gt;Node134</title>
<path fill="none" stroke="#191970" d="M123.0832,-71.4097C146.9974,-61.9451 178.6857,-49.6559 207,-39.5 212.226,-37.6255 217.6822,-35.7221 223.1534,-33.8494"/>
<polygon fill="#191970" stroke="#191970" points="224.6224,-37.0472 232.9713,-30.5245 222.3771,-30.4171 224.6224,-37.0472"/>
</g>
<!-- Node127&#45;&gt;Node128 -->
<g id="edge2" class="edge">
<title>Node127&#45;&gt;Node128</title>
<path fill="none" stroke="#191970" d="M333.7219,-167.5287C350.9346,-171.614 370.1379,-175.4688 388,-177.5 449.8238,-184.5304 466.1525,-184.3187 528,-177.5 542.9636,-175.8503 558.8515,-172.9963 573.8144,-169.7928"/>
<polygon fill="#191970" stroke="#191970" points="574.9997,-173.1149 584.0028,-167.5297 573.4817,-166.2815 574.9997,-173.1149"/>
</g>
<!-- Node132 -->
<g id="node7" class="node">
<title>Node132</title>
<g id="a_node7"><a xlink:href="../../d8/d37/classPartsEditorView.html#a08299f077e4669e1e5fb1d66fcd04853" target="_top" xlink:title=" ">
<polygon fill="#ffffff" stroke="#000000" points="389,-137.5 389,-167.5 527,-167.5 527,-137.5 389,-137.5"/>
<text text-anchor="start" x="397" y="-155.5" font-family="Helvetica,sans-Serif" font-size="10.00" fill="#000000">PartsEditorView::addRect</text>
<text text-anchor="middle" x="458" y="-144.5" font-family="Helvetica,sans-Serif" font-size="10.00" fill="#000000">ToSvgAux</text>
</a>
</g>
</g>
<!-- Node127&#45;&gt;Node132 -->
<g id="edge6" class="edge">
<title>Node127&#45;&gt;Node132</title>
<path fill="none" stroke="#191970" d="M348.5128,-152.5C358.4459,-152.5 368.7321,-152.5 378.8432,-152.5"/>
<polygon fill="#191970" stroke="#191970" points="378.8765,-156.0001 388.8765,-152.5 378.8764,-149.0001 378.8765,-156.0001"/>
</g>
<!-- Node129 -->
<g id="node4" class="node">
<title>Node129</title>
<g id="a_node4"><a xlink:href="../../d8/d37/classPartsEditorView.html#a645cab9267603f73116a628a32bf787c" target="_top" xlink:title=" ">
<polygon fill="#ffffff" stroke="#000000" points="752,-137.5 752,-167.5 923,-167.5 923,-137.5 752,-137.5"/>
<text text-anchor="start" x="760" y="-155.5" font-family="Helvetica,sans-Serif" font-size="10.00" fill="#000000">PartsEditorView::findConnectors</text>
<text text-anchor="middle" x="837.5" y="-144.5" font-family="Helvetica,sans-Serif" font-size="10.00" fill="#000000">LayerId</text>
</a>
</g>
</g>
<!-- Node128&#45;&gt;Node129 -->
<g id="edge3" class="edge">
<title>Node128&#45;&gt;Node129</title>
<path fill="none" stroke="#191970" d="M716.0762,-152.5C724.5113,-152.5 733.1797,-152.5 741.8169,-152.5"/>
<polygon fill="#191970" stroke="#191970" points="741.9259,-156.0001 751.9259,-152.5 741.9259,-149.0001 741.9259,-156.0001"/>
</g>
<!-- Node130 -->
<g id="node5" class="node">
<title>Node130</title>
<g id="a_node5"><a xlink:href="../../d5/d9d/classViewLayer.html#a67cd0fff01dcc8e00d889173e65403fd" target="_top" xlink:title=" ">
<polygon fill="#ffffff" stroke="#000000" points="966,-162.5 966,-192.5 1125,-192.5 1125,-162.5 966,-162.5"/>
<text text-anchor="start" x="974" y="-180.5" font-family="Helvetica,sans-Serif" font-size="10.00" fill="#000000">ViewLayer::viewLayerIDFrom</text>
<text text-anchor="middle" x="1045.5" y="-169.5" font-family="Helvetica,sans-Serif" font-size="10.00" fill="#000000">XmlString</text>
</a>
</g>
</g>
<!-- Node129&#45;&gt;Node130 -->
<g id="edge4" class="edge">
<title>Node129&#45;&gt;Node130</title>
<path fill="none" stroke="#191970" d="M923.002,-162.7767C933.701,-164.0626 944.6698,-165.381 955.4357,-166.675"/>
<polygon fill="#191970" stroke="#191970" points="955.3339,-170.1878 965.6801,-167.9063 956.1693,-163.2379 955.3339,-170.1878"/>
</g>
<!-- Node131 -->
<g id="node6" class="node">
<title>Node131</title>
<g id="a_node6"><a xlink:href="../../d8/d37/classSketchWidget.html#a12e006b8cf3036dd523e112402994a47" target="_top" xlink:title=" ">
<polygon fill="#ffffff" stroke="#000000" points="959,-113.5 959,-143.5 1132,-143.5 1132,-113.5 959,-113.5"/>
<text text-anchor="start" x="967" y="-131.5" font-family="Helvetica,sans-Serif" font-size="10.00" fill="#000000">SketchWidget::defaultConnector</text>
<text text-anchor="middle" x="1045.5" y="-120.5" font-family="Helvetica,sans-Serif" font-size="10.00" fill="#000000">Layer</text>
</a>
</g>
</g>
<!-- Node129&#45;&gt;Node131 -->
<g id="edge5" class="edge">
<title>Node129&#45;&gt;Node131</title>
<path fill="none" stroke="#191970" d="M923.002,-142.6344C931.5388,-141.6494 940.2473,-140.6445 948.8876,-139.6476"/>
<polygon fill="#191970" stroke="#191970" points="949.4518,-143.1058 958.9847,-138.4825 948.6494,-136.1519 949.4518,-143.1058"/>
</g>
<!-- Node132&#45;&gt;Node128 -->
<g id="edge7" class="edge">
<title>Node132&#45;&gt;Node128</title>
<path fill="none" stroke="#191970" d="M527.0659,-152.5C535.8334,-152.5 544.8898,-152.5 553.8824,-152.5"/>
<polygon fill="#191970" stroke="#191970" points="553.9895,-156.0001 563.9895,-152.5 553.9895,-149.0001 553.9895,-156.0001"/>
</g>
<!-- Node135 -->
<g id="node10" class="node">
<title>Node135</title>
<g id="a_node10"><a xlink:href="../../d8/d37/classPartsEditorView.html#ac9b2de68f34f11c5c8c4b50f1f130133" target="_top" xlink:title=" ">
<polygon fill="#ffffff" stroke="#000000" points="388,-.5 388,-30.5 528,-30.5 528,-.5 388,-.5"/>
<text text-anchor="start" x="396" y="-18.5" font-family="Helvetica,sans-Serif" font-size="10.00" fill="#000000">PartsEditorView::terminal</text>
<text text-anchor="middle" x="458" y="-7.5" font-family="Helvetica,sans-Serif" font-size="10.00" fill="#000000">IdForConnectorIdAux</text>
</a>
</g>
</g>
<!-- Node134&#45;&gt;Node135 -->
<g id="edge11" class="edge">
<title>Node134&#45;&gt;Node135</title>
<path fill="none" stroke="#191970" d="M349.5356,-15.5C358.7885,-15.5 368.3305,-15.5 377.7381,-15.5"/>
<polygon fill="#191970" stroke="#191970" points="377.8734,-19.0001 387.8734,-15.5 377.8733,-12.0001 377.8734,-19.0001"/>
</g>
</g>
</svg>
