<?xml version="1.0" encoding="UTF-8" standalone="no"?>
<!DOCTYPE svg PUBLIC "-//W3C//DTD SVG 1.1//EN"
 "http://www.w3.org/Graphics/SVG/1.1/DTD/svg11.dtd">
<!-- Generated by graphviz version 2.40.1 (0)
 -->
<!-- Title: PartsEditorView::addFixedToBottomRightItem Pages: 1 -->
<svg width="523pt" height="127pt"
 viewBox="0.00 0.00 523.00 126.50" xmlns="http://www.w3.org/2000/svg" xmlns:xlink="http://www.w3.org/1999/xlink">
<g id="graph0" class="graph" transform="scale(1 1) rotate(0) translate(4 122.5)">
<title>PartsEditorView::addFixedToBottomRightItem</title>
<polygon fill="#ffffff" stroke="transparent" points="-4,4 -4,-122.5 519,-122.5 519,4 -4,4"/>
<!-- Node168 -->
<g id="node1" class="node">
<title>Node168</title>
<g id="a_node1"><a xlink:title=" ">
<polygon fill="#bfbfbf" stroke="#000000" points="0,-49.5 0,-79.5 142,-79.5 142,-49.5 0,-49.5"/>
<text text-anchor="start" x="8" y="-67.5" font-family="Helvetica,sans-Serif" font-size="10.00" fill="#000000">PartsEditorView::addFixed</text>
<text text-anchor="middle" x="71" y="-56.5" font-family="Helvetica,sans-Serif" font-size="10.00" fill="#000000">ToBottomRightItem</text>
</a>
</g>
</g>
<!-- Node169 -->
<g id="node2" class="node">
<title>Node169</title>
<g id="a_node2"><a xlink:href="../../d8/d37/classPartsEditorView.html#ae6f9dfe5c7dcf03b5d9f34ad513db706" target="_top" xlink:title=" ">
<polygon fill="#ffffff" stroke="#000000" points="178,-49.5 178,-79.5 335,-79.5 335,-49.5 178,-49.5"/>
<text text-anchor="start" x="186" y="-67.5" font-family="Helvetica,sans-Serif" font-size="10.00" fill="#000000">PartsEditorView::ensureFixed</text>
<text text-anchor="middle" x="256.5" y="-56.5" font-family="Helvetica,sans-Serif" font-size="10.00" fill="#000000">ToBottomRight</text>
</a>
</g>
</g>
<!-- Node168&#45;&gt;Node169 -->
<g id="edge1" class="edge">
<title>Node168&#45;&gt;Node169</title>
<path fill="none" stroke="#191970" d="M142.1886,-64.5C150.5603,-64.5 159.1801,-64.5 167.7542,-64.5"/>
<polygon fill="#191970" stroke="#191970" points="167.7809,-68.0001 177.7809,-64.5 167.7808,-61.0001 167.7809,-68.0001"/>
</g>
<!-- Node170 -->
<g id="node3" class="node">
<title>Node170</title>
<g id="a_node3"><a xlink:href="../../d2/db7/ioapi_8h.html#a787fa3cf048117ba7123753c1e74fcd6" target="_top" xlink:title=" ">
<polygon fill="#ffffff" stroke="#000000" points="428.5,-99 428.5,-118 457.5,-118 457.5,-99 428.5,-99"/>
<text text-anchor="middle" x="443" y="-106" font-family="Helvetica,sans-Serif" font-size="10.00" fill="#000000">int</text>
</a>
</g>
</g>
<!-- Node169&#45;&gt;Node170 -->
<g id="edge2" class="edge">
<title>Node169&#45;&gt;Node170</title>
<path fill="none" stroke="#191970" d="M320.1611,-79.5192C353.8039,-87.4564 393.179,-96.746 418.1025,-102.6261"/>
<polygon fill="#191970" stroke="#191970" points="417.6158,-106.1073 428.1524,-104.9971 419.2232,-99.2943 417.6158,-106.1073"/>
</g>
<!-- Node171 -->
<g id="node4" class="node">
<title>Node171</title>
<g id="a_node4"><a xlink:href="../../d8/d37/classPartsEditorView.html#a4a1a622a3c3d8ca587baffff5676714e" target="_top" xlink:title=" ">
<polygon fill="#ffffff" stroke="#000000" points="371,-49.5 371,-79.5 515,-79.5 515,-49.5 371,-49.5"/>
<text text-anchor="start" x="379" y="-67.5" font-family="Helvetica,sans-Serif" font-size="10.00" fill="#000000">PartsEditorView::fixedItem</text>
<text text-anchor="middle" x="443" y="-56.5" font-family="Helvetica,sans-Serif" font-size="10.00" fill="#000000">Width</text>
</a>
</g>
</g>
<!-- Node169&#45;&gt;Node171 -->
<g id="edge3" class="edge">
<title>Node169&#45;&gt;Node171</title>
<path fill="none" stroke="#191970" d="M335.0523,-64.5C343.4743,-64.5 352.0604,-64.5 360.5264,-64.5"/>
<polygon fill="#191970" stroke="#191970" points="360.7744,-68.0001 370.7743,-64.5 360.7743,-61.0001 360.7744,-68.0001"/>
</g>
<!-- Node172 -->
<g id="node5" class="node">
<title>Node172</title>
<g id="a_node5"><a xlink:href="../../d8/d37/classPartsEditorView.html#a6f0cd36c446afefd5b4f033f3213487f" target="_top" xlink:title=" ">
<polygon fill="#ffffff" stroke="#000000" points="371,-.5 371,-30.5 515,-30.5 515,-.5 371,-.5"/>
<text text-anchor="start" x="379" y="-18.5" font-family="Helvetica,sans-Serif" font-size="10.00" fill="#000000">PartsEditorView::fixedItem</text>
<text text-anchor="middle" x="443" y="-7.5" font-family="Helvetica,sans-Serif" font-size="10.00" fill="#000000">Height</text>
</a>
</g>
</g>
<!-- Node169&#45;&gt;Node172 -->
<g id="edge4" class="edge">
<title>Node169&#45;&gt;Node172</title>
<path fill="none" stroke="#191970" d="M313.7236,-49.4654C333.4154,-44.2917 355.64,-38.4525 376.0373,-33.0934"/>
<polygon fill="#191970" stroke="#191970" points="377.1023,-36.4325 385.8846,-30.5062 375.3235,-29.6622 377.1023,-36.4325"/>
</g>
</g>
</svg>
