<?xml version="1.0" encoding="UTF-8" standalone="no"?>
<!DOCTYPE svg PUBLIC "-//W3C//DTD SVG 1.1//EN"
 "http://www.w3.org/Graphics/SVG/1.1/DTD/svg11.dtd">
<!-- Generated by graphviz version 2.40.1 (0)
 -->
<!-- Title: SketchWidget::changeBus Pages: 1 -->
<svg width="1339pt" height="291pt"
 viewBox="0.00 0.00 1339.00 290.50" xmlns="http://www.w3.org/2000/svg" xmlns:xlink="http://www.w3.org/1999/xlink">
<g id="graph0" class="graph" transform="scale(1 1) rotate(0) translate(4 286.5)">
<title>SketchWidget::changeBus</title>
<polygon fill="#ffffff" stroke="transparent" points="-4,4 -4,-286.5 1335,-286.5 1335,4 -4,4"/>
<!-- Node3674 -->
<g id="node1" class="node">
<title>Node3674</title>
<g id="a_node1"><a xlink:title=" ">
<polygon fill="#bfbfbf" stroke="#000000" points="0,-175.5 0,-194.5 143,-194.5 143,-175.5 0,-175.5"/>
<text text-anchor="middle" x="71.5" y="-182.5" font-family="Helvetica,sans-Serif" font-size="10.00" fill="#000000">SketchWidget::changeBus</text>
</a>
</g>
</g>
<!-- Node3675 -->
<g id="node2" class="node">
<title>Node3675</title>
<g id="a_node2"><a xlink:href="../../d0/df6/classCleanUpWiresCommand.html#a021f5191f536cbe9c96f5bde11356a8e" target="_top" xlink:title=" ">
<polygon fill="#ffffff" stroke="#000000" points="200,-252 200,-282 336,-282 336,-252 200,-252"/>
<text text-anchor="start" x="208" y="-270" font-family="Helvetica,sans-Serif" font-size="10.00" fill="#000000">CleanUpWiresCommand</text>
<text text-anchor="middle" x="268" y="-259" font-family="Helvetica,sans-Serif" font-size="10.00" fill="#000000">::addRatsnestConnect</text>
</a>
</g>
</g>
<!-- Node3674&#45;&gt;Node3675 -->
<g id="edge1" class="edge">
<title>Node3674&#45;&gt;Node3675</title>
<path fill="none" stroke="#191970" d="M87.019,-194.5944C107.4763,-206.9182 144.8749,-228.3427 179,-242 185.1068,-244.444 191.5394,-246.7463 198.037,-248.8895"/>
<polygon fill="#191970" stroke="#191970" points="196.9825,-252.2268 207.5727,-251.9137 199.0987,-245.5543 196.9825,-252.2268"/>
</g>
<!-- Node3676 -->
<g id="node3" class="node">
<title>Node3676</title>
<g id="a_node3"><a xlink:href="../../dc/d09/classNonConnectorItem.html#a8bddbd1259c61a57ba95d83150d57eaf" target="_top" xlink:title=" ">
<polygon fill="#ffffff" stroke="#000000" points="179,-213.5 179,-232.5 357,-232.5 357,-213.5 179,-213.5"/>
<text text-anchor="middle" x="268" y="-220.5" font-family="Helvetica,sans-Serif" font-size="10.00" fill="#000000">NonConnectorItem::attachedToID</text>
</a>
</g>
</g>
<!-- Node3674&#45;&gt;Node3676 -->
<g id="edge2" class="edge">
<title>Node3674&#45;&gt;Node3676</title>
<path fill="none" stroke="#191970" d="M120.8316,-194.54C147.4607,-199.6896 180.5266,-206.084 208.5663,-211.5065"/>
<polygon fill="#191970" stroke="#191970" points="208.1654,-214.9937 218.6481,-213.4561 209.4946,-208.121 208.1654,-214.9937"/>
</g>
<!-- Node3678 -->
<g id="node5" class="node">
<title>Node3678</title>
<g id="a_node5"><a xlink:href="../../d4/d4f/classItemBase.html#a27afd199a7ae3c3fd14e88ed0be14420" target="_top" xlink:title=" ">
<polygon fill="#ffffff" stroke="#000000" points="437.5,-175.5 437.5,-194.5 515.5,-194.5 515.5,-175.5 437.5,-175.5"/>
<text text-anchor="middle" x="476.5" y="-182.5" font-family="Helvetica,sans-Serif" font-size="10.00" fill="#000000">ItemBase::id</text>
</a>
</g>
</g>
<!-- Node3674&#45;&gt;Node3678 -->
<g id="edge6" class="edge">
<title>Node3674&#45;&gt;Node3678</title>
<path fill="none" stroke="#191970" d="M143.4392,-185C225.2251,-185 356.5435,-185 427.3873,-185"/>
<polygon fill="#191970" stroke="#191970" points="427.3878,-188.5001 437.3878,-185 427.3878,-181.5001 427.3878,-188.5001"/>
</g>
<!-- Node3679 -->
<g id="node6" class="node">
<title>Node3679</title>
<g id="a_node6"><a xlink:href="../../dc/d3a/classConnectorItem.html#aa22ed310cdf87c914bfad84ce759d66b" target="_top" xlink:title=" ">
<polygon fill="#ffffff" stroke="#000000" points="196.5,-126 196.5,-156 339.5,-156 339.5,-126 196.5,-126"/>
<text text-anchor="start" x="204.5" y="-144" font-family="Helvetica,sans-Serif" font-size="10.00" fill="#000000">ConnectorItem::connector</text>
<text text-anchor="middle" x="268" y="-133" font-family="Helvetica,sans-Serif" font-size="10.00" fill="#000000">SharedID</text>
</a>
</g>
</g>
<!-- Node3674&#45;&gt;Node3679 -->
<g id="edge5" class="edge">
<title>Node3674&#45;&gt;Node3679</title>
<path fill="none" stroke="#191970" d="M114.1376,-175.4527C136.5575,-170.4324 164.7381,-164.1223 190.8356,-158.2785"/>
<polygon fill="#191970" stroke="#191970" points="191.7259,-161.6659 200.7195,-156.0654 190.1963,-154.8351 191.7259,-161.6659"/>
</g>
<!-- Node3680 -->
<g id="node7" class="node">
<title>Node3680</title>
<g id="a_node7"><a xlink:href="../../d0/dbb/classWaitPushUndoStack.html#a963a743dc56214fc3f5929cf271be8ce" target="_top" xlink:title=" ">
<polygon fill="#ffffff" stroke="#000000" points="208,-77 208,-107 328,-107 328,-77 208,-77"/>
<text text-anchor="start" x="216" y="-95" font-family="Helvetica,sans-Serif" font-size="10.00" fill="#000000">WaitPushUndoStack::</text>
<text text-anchor="middle" x="268" y="-84" font-family="Helvetica,sans-Serif" font-size="10.00" fill="#000000">waitPush</text>
</a>
</g>
</g>
<!-- Node3674&#45;&gt;Node3680 -->
<g id="edge7" class="edge">
<title>Node3674&#45;&gt;Node3680</title>
<path fill="none" stroke="#191970" d="M84.0504,-175.3375C103.4393,-160.8214 142.2834,-133.3495 179,-117 185.1074,-114.2804 191.5838,-111.784 198.1473,-109.51"/>
<polygon fill="#191970" stroke="#191970" points="199.3872,-112.7867 207.7931,-106.3376 197.2002,-106.1371 199.3872,-112.7867"/>
</g>
<!-- Node3677 -->
<g id="node4" class="node">
<title>Node3677</title>
<g id="a_node4"><a xlink:href="../../dc/d09/classNonConnectorItem.html#a1452f3637c83b50fbd089f9c4b4518b6" target="_top" xlink:title=" ">
<polygon fill="#ffffff" stroke="#000000" points="393,-213.5 393,-232.5 560,-232.5 560,-213.5 393,-213.5"/>
<text text-anchor="middle" x="476.5" y="-220.5" font-family="Helvetica,sans-Serif" font-size="10.00" fill="#000000">NonConnectorItem::attachedTo</text>
</a>
</g>
</g>
<!-- Node3676&#45;&gt;Node3677 -->
<g id="edge3" class="edge">
<title>Node3676&#45;&gt;Node3677</title>
<path fill="none" stroke="#191970" d="M357.0275,-223C365.4472,-223 374.0023,-223 382.4667,-223"/>
<polygon fill="#191970" stroke="#191970" points="382.7312,-226.5001 392.7312,-223 382.7311,-219.5001 382.7312,-226.5001"/>
</g>
<!-- Node3676&#45;&gt;Node3678 -->
<g id="edge4" class="edge">
<title>Node3676&#45;&gt;Node3678</title>
<path fill="none" stroke="#191970" d="M320.3442,-213.46C353.1076,-207.4888 395.0539,-199.8439 427.2206,-193.9814"/>
<polygon fill="#191970" stroke="#191970" points="428.0862,-197.3813 437.2966,-192.145 426.8311,-190.4948 428.0862,-197.3813"/>
</g>
<!-- Node3681 -->
<g id="node8" class="node">
<title>Node3681</title>
<g id="a_node8"><a xlink:href="../../d0/dbb/classWaitPushUndoStack.html#adb61406582da1e42263b223b11b7d1c0" target="_top" xlink:title=" ">
<polygon fill="#ffffff" stroke="#000000" points="416.5,-100 416.5,-130 536.5,-130 536.5,-100 416.5,-100"/>
<text text-anchor="start" x="424.5" y="-118" font-family="Helvetica,sans-Serif" font-size="10.00" fill="#000000">WaitPushUndoStack::</text>
<text text-anchor="middle" x="476.5" y="-107" font-family="Helvetica,sans-Serif" font-size="10.00" fill="#000000">clearDeadTimers</text>
</a>
</g>
</g>
<!-- Node3680&#45;&gt;Node3681 -->
<g id="edge8" class="edge">
<title>Node3680&#45;&gt;Node3681</title>
<path fill="none" stroke="#191970" d="M328.0271,-98.6217C352.3461,-101.3044 380.6063,-104.4218 405.9047,-107.2125"/>
<polygon fill="#191970" stroke="#191970" points="405.8511,-110.7277 416.1746,-108.3454 406.6187,-103.7699 405.8511,-110.7277"/>
</g>
<!-- Node3683 -->
<g id="node10" class="node">
<title>Node3683</title>
<g id="a_node10"><a xlink:href="../../d0/dbb/classWaitPushUndoStack.html#a279fdca551f05e81111de92ea5b2145c" target="_top" xlink:title=" ">
<polygon fill="#ffffff" stroke="#000000" points="405,-59.5 405,-78.5 548,-78.5 548,-59.5 405,-59.5"/>
<text text-anchor="middle" x="476.5" y="-66.5" font-family="Helvetica,sans-Serif" font-size="10.00" fill="#000000">WaitPushUndoStack::push</text>
</a>
</g>
</g>
<!-- Node3680&#45;&gt;Node3683 -->
<g id="edge10" class="edge">
<title>Node3680&#45;&gt;Node3683</title>
<path fill="none" stroke="#191970" d="M328.0271,-85.3783C348.7878,-83.0882 372.4207,-80.4812 394.6312,-78.0311"/>
<polygon fill="#191970" stroke="#191970" points="395.1646,-81.4936 404.7205,-76.9181 394.397,-74.5358 395.1646,-81.4936"/>
</g>
<!-- Node3682 -->
<g id="node9" class="node">
<title>Node3682</title>
<g id="a_node9"><a xlink:href="../../d0/dbb/classWaitPushUndoStack.html#a23e51cedbc43383a4f967180c64dd040" target="_top" xlink:title=" ">
<polygon fill="#ffffff" stroke="#000000" points="596,-101 596,-131 716,-131 716,-101 596,-101"/>
<text text-anchor="start" x="604" y="-119" font-family="Helvetica,sans-Serif" font-size="10.00" fill="#000000">WaitPushUndoStack::</text>
<text text-anchor="middle" x="656" y="-108" font-family="Helvetica,sans-Serif" font-size="10.00" fill="#000000">clearTimers</text>
</a>
</g>
</g>
<!-- Node3681&#45;&gt;Node3682 -->
<g id="edge9" class="edge">
<title>Node3681&#45;&gt;Node3682</title>
<path fill="none" stroke="#191970" d="M536.7702,-115.3358C552.3937,-115.4228 569.3579,-115.5173 585.4571,-115.607"/>
<polygon fill="#191970" stroke="#191970" points="585.8694,-119.1093 595.8888,-115.6651 585.9085,-112.1094 585.8694,-119.1093"/>
</g>
<!-- Node3684 -->
<g id="node11" class="node">
<title>Node3684</title>
<g id="a_node11"><a xlink:href="../../d0/dbb/classWaitPushUndoStack.html#a2b0322812e333fec2b4d0d12b12e634c" target="_top" xlink:title=" ">
<polygon fill="#ffffff" stroke="#000000" points="596,-52 596,-82 716,-82 716,-52 596,-52"/>
<text text-anchor="start" x="604" y="-70" font-family="Helvetica,sans-Serif" font-size="10.00" fill="#000000">WaitPushUndoStack::</text>
<text text-anchor="middle" x="656" y="-59" font-family="Helvetica,sans-Serif" font-size="10.00" fill="#000000">writeUndo</text>
</a>
</g>
</g>
<!-- Node3683&#45;&gt;Node3684 -->
<g id="edge11" class="edge">
<title>Node3683&#45;&gt;Node3684</title>
<path fill="none" stroke="#191970" d="M548.217,-68.2009C560.5761,-68.0632 573.411,-67.9202 585.7313,-67.7829"/>
<polygon fill="#191970" stroke="#191970" points="585.9772,-71.2805 595.9376,-67.6692 585.8992,-64.2809 585.9772,-71.2805"/>
</g>
<!-- Node3685 -->
<g id="node12" class="node">
<title>Node3685</title>
<g id="a_node12"><a xlink:href="../../d8/d6e/classBaseCommand.html#a2d7619b36325bfec9111724045c24b8e" target="_top" xlink:title=" ">
<polygon fill="#ffffff" stroke="#000000" points="762,-114.5 762,-133.5 935,-133.5 935,-114.5 762,-114.5"/>
<text text-anchor="middle" x="848.5" y="-121.5" font-family="Helvetica,sans-Serif" font-size="10.00" fill="#000000">BaseCommand::getDebugString</text>
</a>
</g>
</g>
<!-- Node3684&#45;&gt;Node3685 -->
<g id="edge12" class="edge">
<title>Node3684&#45;&gt;Node3685</title>
<path fill="none" stroke="#191970" d="M692.2859,-82.1579C714.3291,-91.2095 740.391,-101.5906 752,-105 761.2411,-107.714 771.0949,-110.1545 780.8426,-112.3101"/>
<polygon fill="#191970" stroke="#191970" points="780.4233,-115.7991 790.9322,-114.453 781.8776,-108.9518 780.4233,-115.7991"/>
</g>
<!-- Node3688 -->
<g id="node15" class="node">
<title>Node3688</title>
<g id="a_node15"><a xlink:href="../../d8/d6e/classBaseCommand.html#af34b4e2829ad3b7b718499916fd87cbb" target="_top" xlink:title=" ">
<polygon fill="#ffffff" stroke="#000000" points="786.5,-76.5 786.5,-95.5 910.5,-95.5 910.5,-76.5 786.5,-76.5"/>
<text text-anchor="middle" x="848.5" y="-83.5" font-family="Helvetica,sans-Serif" font-size="10.00" fill="#000000">BaseCommand::index</text>
</a>
</g>
</g>
<!-- Node3684&#45;&gt;Node3688 -->
<g id="edge15" class="edge">
<title>Node3684&#45;&gt;Node3688</title>
<path fill="none" stroke="#191970" d="M716.1164,-72.9336C735.0924,-74.8065 756.2605,-76.8958 776.0058,-78.8447"/>
<polygon fill="#191970" stroke="#191970" points="775.8871,-82.3499 786.1825,-79.8492 776.5747,-75.3838 775.8871,-82.3499"/>
</g>
<!-- Node3689 -->
<g id="node16" class="node">
<title>Node3689</title>
<g id="a_node16"><a xlink:href="../../d8/d6e/classBaseCommand.html#ad7114bcb3cf27232facaf0cbcd7e3b58" target="_top" xlink:title=" ">
<polygon fill="#ffffff" stroke="#000000" points="752,-38.5 752,-57.5 945,-57.5 945,-38.5 752,-38.5"/>
<text text-anchor="middle" x="848.5" y="-45.5" font-family="Helvetica,sans-Serif" font-size="10.00" fill="#000000">BaseCommand::subCommandCount</text>
</a>
</g>
</g>
<!-- Node3684&#45;&gt;Node3689 -->
<g id="edge16" class="edge">
<title>Node3684&#45;&gt;Node3689</title>
<path fill="none" stroke="#191970" d="M716.1164,-61.0664C724.4521,-60.2437 733.2108,-59.3792 742.0861,-58.5032"/>
<polygon fill="#191970" stroke="#191970" points="742.532,-61.9763 752.1399,-57.5109 741.8444,-55.0101 742.532,-61.9763"/>
</g>
<!-- Node3690 -->
<g id="node17" class="node">
<title>Node3690</title>
<g id="a_node17"><a xlink:href="../../d8/d6e/classBaseCommand.html#a2717e1d5a234ba427175907b2dc58c23" target="_top" xlink:title=" ">
<polygon fill="#ffffff" stroke="#000000" points="766.5,-.5 766.5,-19.5 930.5,-19.5 930.5,-.5 766.5,-.5"/>
<text text-anchor="middle" x="848.5" y="-7.5" font-family="Helvetica,sans-Serif" font-size="10.00" fill="#000000">BaseCommand::subCommand</text>
</a>
</g>
</g>
<!-- Node3684&#45;&gt;Node3690 -->
<g id="edge17" class="edge">
<title>Node3684&#45;&gt;Node3690</title>
<path fill="none" stroke="#191970" d="M689.6817,-51.918C707.8579,-44.2277 730.8458,-35.2127 752,-29 761.2411,-26.286 771.0949,-23.8455 780.8426,-21.6899"/>
<polygon fill="#191970" stroke="#191970" points="781.8776,-25.0482 790.9322,-19.547 780.4233,-18.2009 781.8776,-25.0482"/>
</g>
<!-- Node3686 -->
<g id="node13" class="node">
<title>Node3686</title>
<g id="a_node13"><a xlink:href="../../d8/d6e/classBaseCommand.html#aca69868889f793ce1399fd0c752cfa05" target="_top" xlink:title=" ">
<polygon fill="#ffffff" stroke="#000000" points="981,-114.5 981,-133.5 1153,-133.5 1153,-114.5 981,-114.5"/>
<text text-anchor="middle" x="1067" y="-121.5" font-family="Helvetica,sans-Serif" font-size="10.00" fill="#000000">BaseCommand::getParamString</text>
</a>
</g>
</g>
<!-- Node3685&#45;&gt;Node3686 -->
<g id="edge13" class="edge">
<title>Node3685&#45;&gt;Node3686</title>
<path fill="none" stroke="#191970" d="M935.1708,-124C946.7822,-124 958.7493,-124 970.5162,-124"/>
<polygon fill="#191970" stroke="#191970" points="970.7913,-127.5001 980.7913,-124 970.7913,-120.5001 970.7913,-127.5001"/>
</g>
<!-- Node3687 -->
<g id="node14" class="node">
<title>Node3687</title>
<g id="a_node14"><a xlink:href="../../d8/d37/classSketchWidget.html#a4319a31c3a619e166f0e7dac865e2ea3" target="_top" xlink:title=" ">
<polygon fill="#ffffff" stroke="#000000" points="1189,-114.5 1189,-133.5 1331,-133.5 1331,-114.5 1189,-114.5"/>
<text text-anchor="middle" x="1260" y="-121.5" font-family="Helvetica,sans-Serif" font-size="10.00" fill="#000000">SketchWidget::viewName</text>
</a>
</g>
</g>
<!-- Node3686&#45;&gt;Node3687 -->
<g id="edge14" class="edge">
<title>Node3686&#45;&gt;Node3687</title>
<path fill="none" stroke="#191970" d="M1153.0578,-124C1161.562,-124 1170.1756,-124 1178.6304,-124"/>
<polygon fill="#191970" stroke="#191970" points="1178.8465,-127.5001 1188.8465,-124 1178.8465,-120.5001 1178.8465,-127.5001"/>
</g>
</g>
</svg>
