<?xml version="1.0" encoding="UTF-8" standalone="no"?>
<!DOCTYPE svg PUBLIC "-//W3C//DTD SVG 1.1//EN"
 "http://www.w3.org/Graphics/SVG/1.1/DTD/svg11.dtd">
<!-- Generated by graphviz version 2.40.1 (0)
 -->
<!-- Title: PartsEditorView::ensureFilePath Pages: 1 -->
<svg width="792pt" height="215pt"
 viewBox="0.00 0.00 792.00 215.00" xmlns="http://www.w3.org/2000/svg" xmlns:xlink="http://www.w3.org/1999/xlink">
<g id="graph0" class="graph" transform="scale(1 1) rotate(0) translate(4 211)">
<title>PartsEditorView::ensureFilePath</title>
<polygon fill="#ffffff" stroke="transparent" points="-4,4 -4,-211 788,-211 788,4 -4,4"/>
<!-- Node942 -->
<g id="node1" class="node">
<title>Node942</title>
<g id="a_node1"><a xlink:title=" ">
<polygon fill="#bfbfbf" stroke="#000000" points="614,-94 614,-113 784,-113 784,-94 614,-94"/>
<text text-anchor="middle" x="699" y="-101" font-family="Helvetica,sans-Serif" font-size="10.00" fill="#000000">PartsEditorView::ensureFilePath</text>
</a>
</g>
</g>
<!-- Node943 -->
<g id="node2" class="node">
<title>Node943</title>
<g id="a_node2"><a xlink:href="../../d8/d37/classPartsEditorView.html#adaeaf95a2c811ab085b54abeb724f493" target="_top" xlink:title=" ">
<polygon fill="#ffffff" stroke="#000000" points="423,-176.5 423,-206.5 563,-206.5 563,-176.5 423,-176.5"/>
<text text-anchor="start" x="431" y="-194.5" font-family="Helvetica,sans-Serif" font-size="10.00" fill="#000000">PartsEditorView::copySvg</text>
<text text-anchor="middle" x="493" y="-183.5" font-family="Helvetica,sans-Serif" font-size="10.00" fill="#000000">FileToDestiny</text>
</a>
</g>
</g>
<!-- Node942&#45;&gt;Node943 -->
<g id="edge1" class="edge">
<title>Node942&#45;&gt;Node943</title>
<path fill="none" stroke="#191970" d="M674.2468,-118.2059C650.2523,-132.0194 612.5197,-152.5903 578,-166.5 569.0116,-170.1219 559.2994,-173.4751 549.764,-176.4727"/>
<polygon fill="#191970" stroke="#191970" points="676.1518,-121.1469 683.0362,-113.0936 672.6323,-115.096 676.1518,-121.1469"/>
</g>
<!-- Node944 -->
<g id="node3" class="node">
<title>Node944</title>
<g id="a_node3"><a xlink:href="../../d8/d37/classPartsEditorView.html#a2fa2a529e705dc6dfbb54c84cf137ef3" target="_top" xlink:title=" ">
<polygon fill="#ffffff" stroke="#000000" points="414,-88.5 414,-118.5 572,-118.5 572,-88.5 414,-88.5"/>
<text text-anchor="start" x="422" y="-106.5" font-family="Helvetica,sans-Serif" font-size="10.00" fill="#000000">PartsEditorView::copyToTemp</text>
<text text-anchor="middle" x="493" y="-95.5" font-family="Helvetica,sans-Serif" font-size="10.00" fill="#000000">AndRenameIfNecessary</text>
</a>
</g>
</g>
<!-- Node942&#45;&gt;Node944 -->
<g id="edge2" class="edge">
<title>Node942&#45;&gt;Node944</title>
<path fill="none" stroke="#191970" d="M603.6909,-103.5C593.1759,-103.5 582.5535,-103.5 572.2652,-103.5"/>
<polygon fill="#191970" stroke="#191970" points="603.7249,-107.0001 613.7249,-103.5 603.7249,-100.0001 603.7249,-107.0001"/>
</g>
<!-- Node950 -->
<g id="node9" class="node">
<title>Node950</title>
<g id="a_node9"><a xlink:href="../../d8/d37/classPartsEditorView.html#a6f5e03519f3750badec3c9e493adeab0" target="_top" xlink:title=" ">
<polygon fill="#ffffff" stroke="#000000" points="408,-138 408,-157 578,-157 578,-138 408,-138"/>
<text text-anchor="middle" x="493" y="-145" font-family="Helvetica,sans-Serif" font-size="10.00" fill="#000000">PartsEditorView::setSvgFilePath</text>
</a>
</g>
</g>
<!-- Node942&#45;&gt;Node950 -->
<g id="edge8" class="edge">
<title>Node942&#45;&gt;Node950</title>
<path fill="none" stroke="#191970" d="M644.2604,-115.192C610.9369,-122.3096 568.9055,-131.2872 537.6117,-137.9713"/>
<polygon fill="#191970" stroke="#191970" points="645.2528,-118.559 654.3011,-113.0473 643.7905,-111.7134 645.2528,-118.559"/>
</g>
<!-- Node951 -->
<g id="node10" class="node">
<title>Node951</title>
<g id="a_node10"><a xlink:href="../../d8/d37/classPartsEditorView.html#a992477bba984b2097a0fff261501cdd2" target="_top" xlink:title=" ">
<polygon fill="#ffffff" stroke="#000000" points="208,-.5 208,-30.5 355,-30.5 355,-.5 208,-.5"/>
<text text-anchor="start" x="216" y="-18.5" font-family="Helvetica,sans-Serif" font-size="10.00" fill="#000000">PartsEditorView::createSvg</text>
<text text-anchor="middle" x="281.5" y="-7.5" font-family="Helvetica,sans-Serif" font-size="10.00" fill="#000000">FromImage</text>
</a>
</g>
</g>
<!-- Node942&#45;&gt;Node951 -->
<g id="edge11" class="edge">
<title>Node942&#45;&gt;Node951</title>
<path fill="none" stroke="#191970" d="M643.7632,-91.8573C568.9064,-76.0791 435.1637,-47.889 352.8029,-30.5291"/>
<polygon fill="#191970" stroke="#191970" points="643.4166,-95.3611 653.9235,-93.9988 644.8604,-88.5116 643.4166,-95.3611"/>
</g>
<!-- Node952 -->
<g id="node11" class="node">
<title>Node952</title>
<g id="a_node11"><a xlink:href="../../d8/d37/classPartsEditorView.html#a24294d80fe21c1bce48022e0a09e8194" target="_top" xlink:title=" ">
<polygon fill="#ffffff" stroke="#000000" points="412.5,-12 412.5,-31 573.5,-31 573.5,-12 412.5,-12"/>
<text text-anchor="middle" x="493" y="-19" font-family="Helvetica,sans-Serif" font-size="10.00" fill="#000000">PartsEditorView::aboutToSave</text>
</a>
</g>
</g>
<!-- Node942&#45;&gt;Node952 -->
<g id="edge13" class="edge">
<title>Node942&#45;&gt;Node952</title>
<path fill="none" stroke="#191970" d="M672.4802,-89.1542C648.3442,-76.4954 611.4766,-58.1422 578,-45.5 563.368,-39.9743 546.9019,-35.0419 532.3862,-31.1071"/>
<polygon fill="#191970" stroke="#191970" points="670.9058,-92.2809 681.3812,-93.8676 674.1817,-86.0947 670.9058,-92.2809"/>
</g>
<!-- Node945 -->
<g id="node4" class="node">
<title>Node945</title>
<g id="a_node4"><a xlink:href="../../d8/d37/classPartsEditorView.html#aff7a745d001423456d836a37712ff150" target="_top" xlink:title=" ">
<polygon fill="#ffffff" stroke="#000000" points="191,-138 191,-157 372,-157 372,-138 191,-138"/>
<text text-anchor="middle" x="281.5" y="-145" font-family="Helvetica,sans-Serif" font-size="10.00" fill="#000000">PartsEditorView::updateModelPart</text>
</a>
</g>
</g>
<!-- Node944&#45;&gt;Node945 -->
<g id="edge3" class="edge">
<title>Node944&#45;&gt;Node945</title>
<path fill="none" stroke="#191970" d="M410.8698,-120.5862C382.4573,-126.4971 351.6476,-132.9067 327.2245,-137.9876"/>
<polygon fill="#191970" stroke="#191970" points="411.7278,-123.9827 420.8052,-118.5192 410.302,-117.1295 411.7278,-123.9827"/>
</g>
<!-- Node946 -->
<g id="node5" class="node">
<title>Node946</title>
<g id="a_node5"><a xlink:href="../../d8/d37/classPartsEditorView.html#a189d7b8df5426ba6e986bb89eaab113f" target="_top" xlink:title=" ">
<polygon fill="#ffffff" stroke="#000000" points="204,-50 204,-69 359,-69 359,-50 204,-50"/>
<text text-anchor="middle" x="281.5" y="-57" font-family="Helvetica,sans-Serif" font-size="10.00" fill="#000000">PartsEditorView::loadSvgFile</text>
</a>
</g>
</g>
<!-- Node944&#45;&gt;Node946 -->
<g id="edge4" class="edge">
<title>Node944&#45;&gt;Node946</title>
<path fill="none" stroke="#191970" d="M410.8698,-86.4138C382.4573,-80.5029 351.6476,-74.0933 327.2245,-69.0124"/>
<polygon fill="#191970" stroke="#191970" points="410.302,-89.8705 420.8052,-88.4808 411.7278,-83.0173 410.302,-89.8705"/>
</g>
<!-- Node949 -->
<g id="node8" class="node">
<title>Node949</title>
<g id="a_node8"><a xlink:href="../../d8/d37/classPartsEditorView.html#a0a2f61e5492ff3f5de5e87a7a9aa3554" target="_top" xlink:title=" ">
<polygon fill="#ffffff" stroke="#000000" points="209.5,-88.5 209.5,-118.5 353.5,-118.5 353.5,-88.5 209.5,-88.5"/>
<text text-anchor="start" x="217.5" y="-106.5" font-family="Helvetica,sans-Serif" font-size="10.00" fill="#000000">PartsEditorView::loadFrom</text>
<text text-anchor="middle" x="281.5" y="-95.5" font-family="Helvetica,sans-Serif" font-size="10.00" fill="#000000">Model</text>
</a>
</g>
</g>
<!-- Node944&#45;&gt;Node949 -->
<g id="edge7" class="edge">
<title>Node944&#45;&gt;Node949</title>
<path fill="none" stroke="#191970" d="M403.6785,-103.5C387.0511,-103.5 369.8682,-103.5 353.8287,-103.5"/>
<polygon fill="#191970" stroke="#191970" points="403.9445,-107.0001 413.9444,-103.5 403.9444,-100.0001 403.9445,-107.0001"/>
</g>
<!-- Node947 -->
<g id="node6" class="node">
<title>Node947</title>
<g id="a_node6"><a xlink:href="../../d8/d37/classPartsEditorView.html#ab22203479e6abef0ddda420830759094" target="_top" xlink:title=" ">
<polygon fill="#ffffff" stroke="#000000" points="9,-29 9,-48 146,-48 146,-29 9,-29"/>
<text text-anchor="middle" x="77.5" y="-36" font-family="Helvetica,sans-Serif" font-size="10.00" fill="#000000">PartsEditorView::loadFile</text>
</a>
</g>
</g>
<!-- Node946&#45;&gt;Node947 -->
<g id="edge5" class="edge">
<title>Node946&#45;&gt;Node947</title>
<path fill="none" stroke="#191970" d="M193.4989,-50.4411C177.707,-48.8154 161.4588,-47.1428 146.3073,-45.5831"/>
<polygon fill="#191970" stroke="#191970" points="193.4885,-53.9584 203.7944,-51.5009 194.2054,-46.9952 193.4885,-53.9584"/>
</g>
<!-- Node948 -->
<g id="node7" class="node">
<title>Node948</title>
<g id="a_node7"><a xlink:href="../../d8/d37/classPartsEditorView.html#aed7a897a96a6f8c69001b38908502a3f" target="_top" xlink:title=" ">
<polygon fill="#ffffff" stroke="#000000" points="0,-70 0,-89 155,-89 155,-70 0,-70"/>
<text text-anchor="middle" x="77.5" y="-77" font-family="Helvetica,sans-Serif" font-size="10.00" fill="#000000">PartsEditorView::loadSvgFile</text>
</a>
</g>
</g>
<!-- Node946&#45;&gt;Node948 -->
<g id="edge6" class="edge">
<title>Node946&#45;&gt;Node948</title>
<path fill="none" stroke="#191970" d="M193.652,-68.1126C180.9054,-69.3622 167.8581,-70.6414 155.3273,-71.8699"/>
<polygon fill="#191970" stroke="#191970" points="194.1836,-71.5773 203.7944,-67.1182 193.5006,-64.6107 194.1836,-71.5773"/>
</g>
<!-- Node950&#45;&gt;Node945 -->
<g id="edge9" class="edge">
<title>Node950&#45;&gt;Node945</title>
<path fill="none" stroke="#191970" d="M397.6625,-147.5C389.2303,-147.5 380.709,-147.5 372.3157,-147.5"/>
<polygon fill="#191970" stroke="#191970" points="397.8891,-151.0001 407.8891,-147.5 397.889,-144.0001 397.8891,-151.0001"/>
</g>
<!-- Node950&#45;&gt;Node948 -->
<g id="edge10" class="edge">
<title>Node950&#45;&gt;Node948</title>
<path fill="none" stroke="#191970" d="M433.7504,-158.69C414.1678,-161.8828 392.2194,-164.9222 372,-166.5 291.7994,-172.7584 267.1818,-192.3387 191,-166.5 144.9161,-150.8697 102.8666,-108.1755 85.6873,-89.0212"/>
<polygon fill="#191970" stroke="#191970" points="434.4697,-162.1183 443.7535,-157.0132 433.3124,-155.2146 434.4697,-162.1183"/>
</g>
<!-- Node951&#45;&gt;Node947 -->
<g id="edge12" class="edge">
<title>Node951&#45;&gt;Node947</title>
<path fill="none" stroke="#191970" d="M197.8517,-24.9309C180.7016,-26.8645 162.8359,-28.8788 146.2807,-30.7453"/>
<polygon fill="#191970" stroke="#191970" points="198.3064,-28.4019 207.8513,-23.8035 197.5221,-21.446 198.3064,-28.4019"/>
</g>
</g>
</svg>
