<?xml version="1.0" encoding="UTF-8" standalone="no"?>
<!DOCTYPE svg PUBLIC "-//W3C//DTD SVG 1.1//EN"
 "http://www.w3.org/Graphics/SVG/1.1/DTD/svg11.dtd">
<!-- Generated by graphviz version 2.40.1 (0)
 -->
<!-- Title: SketchWidget::stackSelectionState Pages: 1 -->
<svg width="1122pt" height="238pt"
 viewBox="0.00 0.00 1122.00 237.50" xmlns="http://www.w3.org/2000/svg" xmlns:xlink="http://www.w3.org/1999/xlink">
<g id="graph0" class="graph" transform="scale(1 1) rotate(0) translate(4 233.5)">
<title>SketchWidget::stackSelectionState</title>
<polygon fill="#ffffff" stroke="transparent" points="-4,4 -4,-233.5 1118,-233.5 1118,4 -4,4"/>
<!-- Node22435 -->
<g id="node1" class="node">
<title>Node22435</title>
<g id="a_node1"><a xlink:title=" ">
<polygon fill="#bfbfbf" stroke="#000000" points="0,-128 0,-158 161,-158 161,-128 0,-128"/>
<text text-anchor="start" x="8" y="-146" font-family="Helvetica,sans-Serif" font-size="10.00" fill="#000000">SketchWidget::stackSelection</text>
<text text-anchor="middle" x="80.5" y="-135" font-family="Helvetica,sans-Serif" font-size="10.00" fill="#000000">State</text>
</a>
</g>
</g>
<!-- Node22436 -->
<g id="node2" class="node">
<title>Node22436</title>
<g id="a_node2"><a xlink:href="../../d2/d38/classSelectItemCommand.html#a3397bfea7b40cc14dba541e857b044fa" target="_top" xlink:title=" ">
<polygon fill="#ffffff" stroke="#000000" points="207.5,-199 207.5,-229 332.5,-229 332.5,-199 207.5,-199"/>
<text text-anchor="start" x="215.5" y="-217" font-family="Helvetica,sans-Serif" font-size="10.00" fill="#000000">SelectItemCommand::</text>
<text text-anchor="middle" x="270" y="-206" font-family="Helvetica,sans-Serif" font-size="10.00" fill="#000000">addUndo</text>
</a>
</g>
</g>
<!-- Node22435&#45;&gt;Node22436 -->
<g id="edge1" class="edge">
<title>Node22435&#45;&gt;Node22436</title>
<path fill="none" stroke="#191970" d="M115.9563,-158.0108C138.9196,-167.5568 169.5524,-179.9638 197,-190 202.1685,-191.8899 207.5667,-193.7938 212.9864,-195.6582"/>
<polygon fill="#191970" stroke="#191970" points="212.1258,-199.0621 222.7201,-198.96 214.3744,-192.4331 212.1258,-199.0621"/>
</g>
<!-- Node22437 -->
<g id="node3" class="node">
<title>Node22437</title>
<g id="a_node3"><a xlink:href="../../d4/d4f/classItemBase.html#abbe779a3f21ec2a9ed8de3fd2a586b14" target="_top" xlink:title=" ">
<polygon fill="#ffffff" stroke="#000000" points="197,-150 197,-180 343,-180 343,-150 197,-150"/>
<text text-anchor="start" x="205" y="-168" font-family="Helvetica,sans-Serif" font-size="10.00" fill="#000000">ItemBase::extractTopLevel</text>
<text text-anchor="middle" x="270" y="-157" font-family="Helvetica,sans-Serif" font-size="10.00" fill="#000000">ItemBase</text>
</a>
</g>
</g>
<!-- Node22435&#45;&gt;Node22437 -->
<g id="edge2" class="edge">
<title>Node22435&#45;&gt;Node22437</title>
<path fill="none" stroke="#191970" d="M161.1398,-152.3619C169.6836,-153.3538 178.3838,-154.3638 186.9544,-155.3588"/>
<polygon fill="#191970" stroke="#191970" points="186.6018,-158.8413 196.9387,-156.518 187.4091,-151.888 186.6018,-158.8413"/>
</g>
<!-- Node22440 -->
<g id="node6" class="node">
<title>Node22440</title>
<g id="a_node6"><a xlink:href="../../d4/d4f/classItemBase.html#a27afd199a7ae3c3fd14e88ed0be14420" target="_top" xlink:title=" ">
<polygon fill="#ffffff" stroke="#000000" points="231,-111.5 231,-130.5 309,-130.5 309,-111.5 231,-111.5"/>
<text text-anchor="middle" x="270" y="-118.5" font-family="Helvetica,sans-Serif" font-size="10.00" fill="#000000">ItemBase::id</text>
</a>
</g>
</g>
<!-- Node22435&#45;&gt;Node22440 -->
<g id="edge5" class="edge">
<title>Node22435&#45;&gt;Node22440</title>
<path fill="none" stroke="#191970" d="M161.1398,-133.6381C181.4446,-131.2808 202.6336,-128.8209 220.8638,-126.7045"/>
<polygon fill="#191970" stroke="#191970" points="221.4141,-130.1642 230.9437,-125.5342 220.6068,-123.2109 221.4141,-130.1642"/>
</g>
<!-- Node22441 -->
<g id="node7" class="node">
<title>Node22441</title>
<g id="a_node7"><a xlink:href="../../d0/dbb/classWaitPushUndoStack.html#a279fdca551f05e81111de92ea5b2145c" target="_top" xlink:title=" ">
<polygon fill="#ffffff" stroke="#000000" points="198.5,-73.5 198.5,-92.5 341.5,-92.5 341.5,-73.5 198.5,-73.5"/>
<text text-anchor="middle" x="270" y="-80.5" font-family="Helvetica,sans-Serif" font-size="10.00" fill="#000000">WaitPushUndoStack::push</text>
</a>
</g>
</g>
<!-- Node22435&#45;&gt;Node22441 -->
<g id="edge6" class="edge">
<title>Node22435&#45;&gt;Node22441</title>
<path fill="none" stroke="#191970" d="M120.6614,-127.9313C142.991,-119.7898 171.3675,-109.8311 197,-102 204.7465,-99.6333 213.0111,-97.3011 221.0913,-95.1249"/>
<polygon fill="#191970" stroke="#191970" points="222.0353,-98.4957 230.8086,-92.556 220.2461,-91.7282 222.0353,-98.4957"/>
</g>
<!-- Node22438 -->
<g id="node4" class="node">
<title>Node22438</title>
<g id="a_node4"><a xlink:href="../../d4/d4f/classItemBase.html#aee43e2ce5dbdaac292cb6398ce43f766" target="_top" xlink:title=" ">
<polygon fill="#ffffff" stroke="#000000" points="383.5,-155.5 383.5,-174.5 494.5,-174.5 494.5,-155.5 383.5,-155.5"/>
<text text-anchor="middle" x="439" y="-162.5" font-family="Helvetica,sans-Serif" font-size="10.00" fill="#000000">ItemBase::topLevel</text>
</a>
</g>
</g>
<!-- Node22437&#45;&gt;Node22438 -->
<g id="edge3" class="edge">
<title>Node22437&#45;&gt;Node22438</title>
<path fill="none" stroke="#191970" d="M343.1429,-165C353.1405,-165 363.354,-165 373.21,-165"/>
<polygon fill="#191970" stroke="#191970" points="373.3275,-168.5001 383.3274,-165 373.3274,-161.5001 373.3275,-168.5001"/>
</g>
<!-- Node22439 -->
<g id="node5" class="node">
<title>Node22439</title>
<g id="a_node5"><a xlink:href="../../d4/d4f/classItemBase.html#abf6d16e250a353043cd4953ddc049bd0" target="_top" xlink:title=" ">
<polygon fill="#ffffff" stroke="#000000" points="564,-155.5 564,-174.5 699,-174.5 699,-155.5 564,-155.5"/>
<text text-anchor="middle" x="631.5" y="-162.5" font-family="Helvetica,sans-Serif" font-size="10.00" fill="#000000">ItemBase::layerKinChief</text>
</a>
</g>
</g>
<!-- Node22438&#45;&gt;Node22439 -->
<g id="edge4" class="edge">
<title>Node22438&#45;&gt;Node22439</title>
<path fill="none" stroke="#191970" d="M494.679,-165C513.0232,-165 533.774,-165 553.4685,-165"/>
<polygon fill="#191970" stroke="#191970" points="553.6529,-168.5001 563.6529,-165 553.6528,-161.5001 553.6529,-168.5001"/>
</g>
<!-- Node22442 -->
<g id="node8" class="node">
<title>Node22442</title>
<g id="a_node8"><a xlink:href="../../d0/dbb/classWaitPushUndoStack.html#a2b0322812e333fec2b4d0d12b12e634c" target="_top" xlink:title=" ">
<polygon fill="#ffffff" stroke="#000000" points="379,-68 379,-98 499,-98 499,-68 379,-68"/>
<text text-anchor="start" x="387" y="-86" font-family="Helvetica,sans-Serif" font-size="10.00" fill="#000000">WaitPushUndoStack::</text>
<text text-anchor="middle" x="439" y="-75" font-family="Helvetica,sans-Serif" font-size="10.00" fill="#000000">writeUndo</text>
</a>
</g>
</g>
<!-- Node22441&#45;&gt;Node22442 -->
<g id="edge7" class="edge">
<title>Node22441&#45;&gt;Node22442</title>
<path fill="none" stroke="#191970" d="M341.6712,-83C350.6914,-83 359.9112,-83 368.9067,-83"/>
<polygon fill="#191970" stroke="#191970" points="368.9448,-86.5001 378.9448,-83 368.9448,-79.5001 368.9448,-86.5001"/>
</g>
<!-- Node22443 -->
<g id="node9" class="node">
<title>Node22443</title>
<g id="a_node9"><a xlink:href="../../d8/d6e/classBaseCommand.html#a2d7619b36325bfec9111724045c24b8e" target="_top" xlink:title=" ">
<polygon fill="#ffffff" stroke="#000000" points="545,-114.5 545,-133.5 718,-133.5 718,-114.5 545,-114.5"/>
<text text-anchor="middle" x="631.5" y="-121.5" font-family="Helvetica,sans-Serif" font-size="10.00" fill="#000000">BaseCommand::getDebugString</text>
</a>
</g>
</g>
<!-- Node22442&#45;&gt;Node22443 -->
<g id="edge8" class="edge">
<title>Node22442&#45;&gt;Node22443</title>
<path fill="none" stroke="#191970" d="M499.109,-97.0746C510.9895,-99.7718 523.3771,-102.5246 535,-105 546.7426,-107.5009 559.3145,-110.0613 571.3742,-112.4599"/>
<polygon fill="#191970" stroke="#191970" points="570.8658,-115.927 581.3546,-114.4318 572.2227,-109.0598 570.8658,-115.927"/>
</g>
<!-- Node22446 -->
<g id="node12" class="node">
<title>Node22446</title>
<g id="a_node12"><a xlink:href="../../d8/d6e/classBaseCommand.html#af34b4e2829ad3b7b718499916fd87cbb" target="_top" xlink:title=" ">
<polygon fill="#ffffff" stroke="#000000" points="569.5,-76.5 569.5,-95.5 693.5,-95.5 693.5,-76.5 569.5,-76.5"/>
<text text-anchor="middle" x="631.5" y="-83.5" font-family="Helvetica,sans-Serif" font-size="10.00" fill="#000000">BaseCommand::index</text>
</a>
</g>
</g>
<!-- Node22442&#45;&gt;Node22446 -->
<g id="edge11" class="edge">
<title>Node22442&#45;&gt;Node22446</title>
<path fill="none" stroke="#191970" d="M499.1164,-83.9369C518.0924,-84.2326 539.2605,-84.5625 559.0058,-84.8702"/>
<polygon fill="#191970" stroke="#191970" points="559.1292,-88.3725 569.1825,-85.0288 559.2383,-81.3733 559.1292,-88.3725"/>
</g>
<!-- Node22447 -->
<g id="node13" class="node">
<title>Node22447</title>
<g id="a_node13"><a xlink:href="../../d8/d6e/classBaseCommand.html#ad7114bcb3cf27232facaf0cbcd7e3b58" target="_top" xlink:title=" ">
<polygon fill="#ffffff" stroke="#000000" points="535,-38.5 535,-57.5 728,-57.5 728,-38.5 535,-38.5"/>
<text text-anchor="middle" x="631.5" y="-45.5" font-family="Helvetica,sans-Serif" font-size="10.00" fill="#000000">BaseCommand::subCommandCount</text>
</a>
</g>
</g>
<!-- Node22442&#45;&gt;Node22447 -->
<g id="edge12" class="edge">
<title>Node22442&#45;&gt;Node22447</title>
<path fill="none" stroke="#191970" d="M499.1164,-72.0697C521.3105,-68.0344 546.5033,-63.4539 568.9112,-59.3798"/>
<polygon fill="#191970" stroke="#191970" points="569.7774,-62.7798 578.9899,-57.5473 568.5251,-55.8927 569.7774,-62.7798"/>
</g>
<!-- Node22448 -->
<g id="node14" class="node">
<title>Node22448</title>
<g id="a_node14"><a xlink:href="../../d8/d6e/classBaseCommand.html#a2717e1d5a234ba427175907b2dc58c23" target="_top" xlink:title=" ">
<polygon fill="#ffffff" stroke="#000000" points="549.5,-.5 549.5,-19.5 713.5,-19.5 713.5,-.5 549.5,-.5"/>
<text text-anchor="middle" x="631.5" y="-7.5" font-family="Helvetica,sans-Serif" font-size="10.00" fill="#000000">BaseCommand::subCommand</text>
</a>
</g>
</g>
<!-- Node22442&#45;&gt;Node22448 -->
<g id="edge13" class="edge">
<title>Node22442&#45;&gt;Node22448</title>
<path fill="none" stroke="#191970" d="M460.9053,-67.9983C479.7553,-55.7603 508.0889,-38.927 535,-29 542.3216,-26.2992 550.1047,-23.9571 557.951,-21.9318"/>
<polygon fill="#191970" stroke="#191970" points="558.9937,-25.2808 567.8937,-19.5327 557.3517,-18.4761 558.9937,-25.2808"/>
</g>
<!-- Node22444 -->
<g id="node10" class="node">
<title>Node22444</title>
<g id="a_node10"><a xlink:href="../../d8/d6e/classBaseCommand.html#aca69868889f793ce1399fd0c752cfa05" target="_top" xlink:title=" ">
<polygon fill="#ffffff" stroke="#000000" points="764,-114.5 764,-133.5 936,-133.5 936,-114.5 764,-114.5"/>
<text text-anchor="middle" x="850" y="-121.5" font-family="Helvetica,sans-Serif" font-size="10.00" fill="#000000">BaseCommand::getParamString</text>
</a>
</g>
</g>
<!-- Node22443&#45;&gt;Node22444 -->
<g id="edge9" class="edge">
<title>Node22443&#45;&gt;Node22444</title>
<path fill="none" stroke="#191970" d="M718.1708,-124C729.7822,-124 741.7493,-124 753.5162,-124"/>
<polygon fill="#191970" stroke="#191970" points="753.7913,-127.5001 763.7913,-124 753.7913,-120.5001 753.7913,-127.5001"/>
</g>
<!-- Node22445 -->
<g id="node11" class="node">
<title>Node22445</title>
<g id="a_node11"><a xlink:href="../../d8/d37/classSketchWidget.html#a4319a31c3a619e166f0e7dac865e2ea3" target="_top" xlink:title=" ">
<polygon fill="#ffffff" stroke="#000000" points="972,-114.5 972,-133.5 1114,-133.5 1114,-114.5 972,-114.5"/>
<text text-anchor="middle" x="1043" y="-121.5" font-family="Helvetica,sans-Serif" font-size="10.00" fill="#000000">SketchWidget::viewName</text>
</a>
</g>
</g>
<!-- Node22444&#45;&gt;Node22445 -->
<g id="edge10" class="edge">
<title>Node22444&#45;&gt;Node22445</title>
<path fill="none" stroke="#191970" d="M936.0578,-124C944.562,-124 953.1756,-124 961.6304,-124"/>
<polygon fill="#191970" stroke="#191970" points="961.8465,-127.5001 971.8465,-124 961.8465,-120.5001 961.8465,-127.5001"/>
</g>
</g>
</svg>
