<?xml version="1.0" encoding="UTF-8" standalone="no"?>
<!DOCTYPE svg PUBLIC "-//W3C//DTD SVG 1.1//EN"
 "http://www.w3.org/Graphics/SVG/1.1/DTD/svg11.dtd">
<!-- Generated by graphviz version 2.40.1 (0)
 -->
<!-- Title: PartsEditorView::newPartsEditorPaletteItem Pages: 1 -->
<!--zoomable 97 -->
<svg id="main" version="1.1" xmlns="http://www.w3.org/2000/svg" xmlns:xlink="http://www.w3.org/1999/xlink" xml:space="preserve" onload="init(evt)">
<style type="text/css"><![CDATA[
.edge:hover path { stroke: red; }
.edge:hover polygon { stroke: red; fill: red; }
]]></style>
<script type="text/javascript"><![CDATA[
var edges = document.getElementsByTagName('g');
if (edges && edges.length) {
  for (var i=0;i<edges.length;i++) {
    if (edges[i].id.substr(0,4)=='edge') {
      edges[i].setAttribute('class','edge');
    }
  }
}
]]></script>
        <defs>
                <circle id="rim" cx="0" cy="0" r="7"/>
                <circle id="rim2" cx="0" cy="0" r="3.5"/>
                <g id="zoomPlus">
                        <use xlink:href="#rim" fill="#404040">
                                <set attributeName="fill" to="#808080" begin="zoomplus.mouseover" end="zoomplus.mouseout"/>
                        </use>
                        <path d="M-4,0h8M0,-4v8" fill="none" stroke="white" stroke-width="1.5" pointer-events="none"/>
                </g>
                <g id="zoomMin">
                        <use xlink:href="#rim" fill="#404040">
                                <set attributeName="fill" to="#808080" begin="zoomminus.mouseover" end="zoomminus.mouseout"/>
                        </use>
                        <path d="M-4,0h8" fill="none" stroke="white" stroke-width="1.5" pointer-events="none"/>
                </g>
                <g id="dirArrow">
                        <path fill="none" stroke="white" stroke-width="1.5" d="M0,-3.0v7 M-2.5,-0.5L0,-3.0L2.5,-0.5"/>
                </g>
               <g id="resetDef">
                       <use xlink:href="#rim2" fill="#404040">
                               <set attributeName="fill" to="#808080" begin="reset.mouseover" end="reset.mouseout"/>
                       </use>
               </g>
        </defs>

<script type="text/javascript">
var viewWidth = 727;
var viewHeight = 97;
var sectionId = 'dynsection-121';
</script>
<script xlink:href="../../svgpan.js"/>
<svg id="graph" class="graph">
<g id="viewport">
<title>PartsEditorView::newPartsEditorPaletteItem</title>
<polygon fill="#ffffff" stroke="transparent" points="-4,4 -4,-92.5 723,-92.5 723,4 -4,4"/>
<!-- Node2776 -->
<g id="node1" class="node">
<title>Node2776</title>
<g id="a_node1"><a xlink:title=" ">
<polygon fill="#bfbfbf" stroke="#000000" points="576,-22.5 576,-52.5 719,-52.5 719,-22.5 576,-22.5"/>
<text text-anchor="start" x="584" y="-40.5" font-family="Helvetica,sans-Serif" font-size="10.00" fill="#000000">PartsEditorView::newParts</text>
<text text-anchor="middle" x="647.5" y="-29.5" font-family="Helvetica,sans-Serif" font-size="10.00" fill="#000000">EditorPaletteItem</text>
</a>
</g>
</g>
<!-- Node2777 -->
<g id="node2" class="node">
<title>Node2777</title>
<g id="a_node2"><a xlink:href="../../d8/d37/classPartsEditorView.html#a65a4c46f488ea95117f5b2b25540dba6" target="_top" xlink:title=" ">
<polygon fill="#ffffff" stroke="#000000" points="391.5,-44.5 391.5,-74.5 530.5,-74.5 530.5,-44.5 391.5,-44.5"/>
<text text-anchor="start" x="399.5" y="-62.5" font-family="Helvetica,sans-Serif" font-size="10.00" fill="#000000">PartsEditorView::addItem</text>
<text text-anchor="middle" x="461" y="-51.5" font-family="Helvetica,sans-Serif" font-size="10.00" fill="#000000">InPartsEditor</text>
</a>
</g>
</g>
<!-- Node2776&#45;&gt;Node2777 -->
<g id="edge1" class="edge">
<title>Node2776&#45;&gt;Node2777</title>
<path fill="none" stroke="#191970" d="M565.7026,-47.149C553.9736,-48.5326 541.9992,-49.9451 530.5369,-51.2973"/>
<polygon fill="#191970" stroke="#191970" points="566.4065,-50.5903 575.9276,-45.9429 565.5864,-43.6385 566.4065,-50.5903"/>
</g>
<!-- Node2781 -->
<g id="node6" class="node">
<title>Node2781</title>
<g id="a_node6"><a xlink:href="../../d8/d37/classPartsEditorView.html#ab2ec92b93a10195e6ac9772617ce7a37" target="_top" xlink:title=" ">
<polygon fill="#ffffff" stroke="#000000" points="382,-6 382,-25 540,-25 540,-6 382,-6"/>
<text text-anchor="middle" x="461" y="-13" font-family="Helvetica,sans-Serif" font-size="10.00" fill="#000000">PartsEditorView::addItemAux</text>
</a>
</g>
</g>
<!-- Node2776&#45;&gt;Node2781 -->
<g id="edge5" class="edge">
<title>Node2776&#45;&gt;Node2781</title>
<path fill="none" stroke="#191970" d="M565.9501,-27.8802C557.3833,-26.8696 548.6826,-25.8433 540.1435,-24.836"/>
<polygon fill="#191970" stroke="#191970" points="565.5864,-31.3615 575.9276,-29.0571 566.4065,-24.4097 565.5864,-31.3615"/>
</g>
<!-- Node2778 -->
<g id="node3" class="node">
<title>Node2778</title>
<g id="a_node3"><a xlink:href="../../d8/d37/classPartsEditorView.html#a189d7b8df5426ba6e986bb89eaab113f" target="_top" xlink:title=" ">
<polygon fill="#ffffff" stroke="#000000" points="191,-50 191,-69 346,-69 346,-50 191,-50"/>
<text text-anchor="middle" x="268.5" y="-57" font-family="Helvetica,sans-Serif" font-size="10.00" fill="#000000">PartsEditorView::loadSvgFile</text>
</a>
</g>
</g>
<!-- Node2777&#45;&gt;Node2778 -->
<g id="edge2" class="edge">
<title>Node2777&#45;&gt;Node2778</title>
<path fill="none" stroke="#191970" d="M381.1659,-59.5C369.5973,-59.5 357.7026,-59.5 346.1773,-59.5"/>
<polygon fill="#191970" stroke="#191970" points="381.2309,-63.0001 391.2309,-59.5 381.2309,-56.0001 381.2309,-63.0001"/>
</g>
<!-- Node2779 -->
<g id="node4" class="node">
<title>Node2779</title>
<g id="a_node4"><a xlink:href="../../d8/d37/classPartsEditorView.html#ab22203479e6abef0ddda420830759094" target="_top" xlink:title=" ">
<polygon fill="#ffffff" stroke="#000000" points="9,-69 9,-88 146,-88 146,-69 9,-69"/>
<text text-anchor="middle" x="77.5" y="-76" font-family="Helvetica,sans-Serif" font-size="10.00" fill="#000000">PartsEditorView::loadFile</text>
</a>
</g>
</g>
<!-- Node2778&#45;&gt;Node2779 -->
<g id="edge3" class="edge">
<title>Node2778&#45;&gt;Node2779</title>
<path fill="none" stroke="#191970" d="M180.7011,-68.2339C169.1305,-69.3849 157.4081,-70.551 146.2193,-71.6641"/>
<polygon fill="#191970" stroke="#191970" points="181.2086,-71.7008 190.813,-67.228 180.5156,-64.7352 181.2086,-71.7008"/>
</g>
<!-- Node2780 -->
<g id="node5" class="node">
<title>Node2780</title>
<g id="a_node5"><a xlink:href="../../d8/d37/classPartsEditorView.html#aed7a897a96a6f8c69001b38908502a3f" target="_top" xlink:title=" ">
<polygon fill="#ffffff" stroke="#000000" points="0,-31 0,-50 155,-50 155,-31 0,-31"/>
<text text-anchor="middle" x="77.5" y="-38" font-family="Helvetica,sans-Serif" font-size="10.00" fill="#000000">PartsEditorView::loadSvgFile</text>
</a>
</g>
</g>
<!-- Node2778&#45;&gt;Node2780 -->
<g id="edge4" class="edge">
<title>Node2778&#45;&gt;Node2780</title>
<path fill="none" stroke="#191970" d="M180.8066,-50.7766C172.2353,-49.9239 163.5796,-49.0629 155.1182,-48.2212"/>
<polygon fill="#191970" stroke="#191970" points="180.5156,-54.2648 190.813,-51.772 181.2086,-47.2992 180.5156,-54.2648"/>
</g>
<!-- Node2782 -->
<g id="node7" class="node">
<title>Node2782</title>
<g id="a_node7"><a xlink:href="../../d8/d37/classPartsEditorView.html#a0a2f61e5492ff3f5de5e87a7a9aa3554" target="_top" xlink:title=" ">
<polygon fill="#ffffff" stroke="#000000" points="196.5,-.5 196.5,-30.5 340.5,-30.5 340.5,-.5 196.5,-.5"/>
<text text-anchor="start" x="204.5" y="-18.5" font-family="Helvetica,sans-Serif" font-size="10.00" fill="#000000">PartsEditorView::loadFrom</text>
<text text-anchor="middle" x="268.5" y="-7.5" font-family="Helvetica,sans-Serif" font-size="10.00" fill="#000000">Model</text>
</a>
</g>
</g>
<!-- Node2781&#45;&gt;Node2782 -->
<g id="edge6" class="edge">
<title>Node2781&#45;&gt;Node2782</title>
<path fill="none" stroke="#191970" d="M371.8565,-15.5C361.3595,-15.5 350.7492,-15.5 340.5285,-15.5"/>
<polygon fill="#191970" stroke="#191970" points="371.8696,-19.0001 381.8695,-15.5 371.8695,-12.0001 371.8696,-19.0001"/>
</g>
</g>
</svg>
        <g id="navigator" transform="translate(0 0)" fill="#404254">
                <rect fill="#f2f5e9" fill-opacity="0.5" stroke="#606060" stroke-width=".5" x="0" y="0" width="60" height="60"/>
                <use id="zoomplus" xlink:href="#zoomPlus" x="17" y="9" onmousedown="handleZoom(evt,'in')"/>
                <use id="zoomminus" xlink:href="#zoomMin" x="42" y="9" onmousedown="handleZoom(evt,'out')"/>
                <use id="reset" xlink:href="#resetDef" x="30" y="36" onmousedown="handleReset()"/>
                <g id="arrowUp" xlink:href="#dirArrow" transform="translate(30 24)" onmousedown="handlePan(0,-1)">
                  <use xlink:href="#rim" fill="#404040">
                        <set attributeName="fill" to="#808080" begin="arrowUp.mouseover" end="arrowUp.mouseout"/>
                  </use>
                  <path fill="none" stroke="white" stroke-width="1.5" d="M0,-3.0v7 M-2.5,-0.5L0,-3.0L2.5,-0.5"/>
                </g>
                <g id="arrowRight" xlink:href="#dirArrow" transform="rotate(90) translate(36 -43)" onmousedown="handlePan(1,0)">
                  <use xlink:href="#rim" fill="#404040">
                        <set attributeName="fill" to="#808080" begin="arrowRight.mouseover" end="arrowRight.mouseout"/>
                  </use>
                  <path fill="none" stroke="white" stroke-width="1.5" d="M0,-3.0v7 M-2.5,-0.5L0,-3.0L2.5,-0.5"/>
                </g>
                <g id="arrowDown" xlink:href="#dirArrow" transform="rotate(180) translate(-30 -48)" onmousedown="handlePan(0,1)">
                  <use xlink:href="#rim" fill="#404040">
                        <set attributeName="fill" to="#808080" begin="arrowDown.mouseover" end="arrowDown.mouseout"/>
                  </use>
                  <path fill="none" stroke="white" stroke-width="1.5" d="M0,-3.0v7 M-2.5,-0.5L0,-3.0L2.5,-0.5"/>
                </g>
                <g id="arrowLeft" xlink:href="#dirArrow" transform="rotate(270) translate(-36 17)" onmousedown="handlePan(-1,0)">
                  <use xlink:href="#rim" fill="#404040">
                        <set attributeName="fill" to="#808080" begin="arrowLeft.mouseover" end="arrowLeft.mouseout"/>
                  </use>
                  <path fill="none" stroke="white" stroke-width="1.5" d="M0,-3.0v7 M-2.5,-0.5L0,-3.0L2.5,-0.5"/>
                </g>
        </g>
        <svg viewBox="0 0 15 15" width="100%" height="30px" preserveAspectRatio="xMaxYMin meet">
         <g id="arrow_out" transform="scale(0.3 0.3)">
          <a xlink:href="classPartsEditorView_aa21af8c64cb5e3cf88bcc00535d19721_icgraph_org.svg" target="_base">
           <rect id="button" ry="5" rx="5" y="6" x="6" height="38" width="38"
                fill="#f2f5e9" fill-opacity="0.5" stroke="#606060" stroke-width="1.0"/>
           <path id="arrow"
             d="M 11.500037,31.436501 C 11.940474,20.09759 22.043105,11.32322 32.158766,21.979434 L 37.068811,17.246167 C 37.068811,17.246167 37.088388,32 37.088388,32 L 22.160133,31.978069 C 22.160133,31.978069 26.997745,27.140456 26.997745,27.140456 C 18.528582,18.264221 13.291696,25.230495 11.500037,31.436501 z"
             style="fill:#404040;"/>
          </a>
         </g>
        </svg>
</svg>
