<?xml version="1.0" encoding="UTF-8" standalone="no"?>
<!DOCTYPE svg PUBLIC "-//W3C//DTD SVG 1.1//EN"
 "http://www.w3.org/Graphics/SVG/1.1/DTD/svg11.dtd">
<!-- Generated by graphviz version 2.40.1 (0)
 -->
<!-- Title: PartsEditorView::addItemAux Pages: 1 -->
<svg width="911pt" height="823pt"
 viewBox="0.00 0.00 911.00 823.00" xmlns="http://www.w3.org/2000/svg" xmlns:xlink="http://www.w3.org/1999/xlink">
<g id="graph0" class="graph" transform="scale(1 1) rotate(0) translate(4 819)">
<title>PartsEditorView::addItemAux</title>
<polygon fill="#ffffff" stroke="transparent" points="-4,4 -4,-819 907,-819 907,4 -4,4"/>
<!-- Node189 -->
<g id="node1" class="node">
<title>Node189</title>
<g id="a_node1"><a xlink:title=" ">
<polygon fill="#bfbfbf" stroke="#000000" points="0,-262.5 0,-281.5 158,-281.5 158,-262.5 0,-262.5"/>
<text text-anchor="middle" x="79" y="-269.5" font-family="Helvetica,sans-Serif" font-size="10.00" fill="#000000">PartsEditorView::addItemAux</text>
</a>
</g>
</g>
<!-- Node190 -->
<g id="node2" class="node">
<title>Node190</title>
<g id="a_node2"><a xlink:href="../../d8/d37/classPartsEditorView.html#a6923038368e934240fe15075d8ff170a" target="_top" xlink:title=" ">
<polygon fill="#ffffff" stroke="#000000" points="203.5,-714 203.5,-744 355.5,-744 355.5,-714 203.5,-714"/>
<text text-anchor="start" x="211.5" y="-732" font-family="Helvetica,sans-Serif" font-size="10.00" fill="#000000">PartsEditorView::addDefault</text>
<text text-anchor="middle" x="279.5" y="-721" font-family="Helvetica,sans-Serif" font-size="10.00" fill="#000000">Layers</text>
</a>
</g>
</g>
<!-- Node189&#45;&gt;Node190 -->
<g id="edge1" class="edge">
<title>Node189&#45;&gt;Node190</title>
<path fill="none" stroke="#191970" d="M81.5294,-281.6004C92.209,-321.4535 135.7563,-477.3115 194,-596 213.7959,-636.3399 243.2355,-679.4723 261.8909,-705.331"/>
<polygon fill="#191970" stroke="#191970" points="259.2888,-707.7032 268.0064,-713.7243 264.9463,-703.581 259.2888,-707.7032"/>
</g>
<!-- Node195 -->
<g id="node7" class="node">
<title>Node195</title>
<g id="a_node7"><a xlink:href="../../d8/d37/classSketchWidget.html#aa706edf9a054a03f2ab49c7da4ea0a69" target="_top" xlink:title=" ">
<polygon fill="#ffffff" stroke="#000000" points="206,-567.5 206,-586.5 353,-586.5 353,-567.5 206,-567.5"/>
<text text-anchor="middle" x="279.5" y="-574.5" font-family="Helvetica,sans-Serif" font-size="10.00" fill="#000000">SketchWidget::addToScene</text>
</a>
</g>
</g>
<!-- Node189&#45;&gt;Node195 -->
<g id="edge6" class="edge">
<title>Node189&#45;&gt;Node195</title>
<path fill="none" stroke="#191970" d="M82.0836,-281.7862C93.0924,-315.667 133.0802,-430.0938 194,-507 211.5049,-529.0985 237.0866,-548.8925 255.7042,-561.7459"/>
<polygon fill="#191970" stroke="#191970" points="253.9685,-564.7966 264.2185,-567.4779 257.8778,-558.9899 253.9685,-564.7966"/>
</g>
<!-- Node205 -->
<g id="node17" class="node">
<title>Node205</title>
<g id="a_node17"><a xlink:href="../../d8/d37/classPartsEditorView.html#a645cab9267603f73116a628a32bf787c" target="_top" xlink:title=" ">
<polygon fill="#ffffff" stroke="#000000" points="194,-431 194,-461 365,-461 365,-431 194,-431"/>
<text text-anchor="start" x="202" y="-449" font-family="Helvetica,sans-Serif" font-size="10.00" fill="#000000">PartsEditorView::findConnectors</text>
<text text-anchor="middle" x="279.5" y="-438" font-family="Helvetica,sans-Serif" font-size="10.00" fill="#000000">LayerId</text>
</a>
</g>
</g>
<!-- Node189&#45;&gt;Node205 -->
<g id="edge17" class="edge">
<title>Node189&#45;&gt;Node205</title>
<path fill="none" stroke="#191970" d="M84.3782,-281.7643C98.8198,-307.1345 140.9691,-375.8115 194,-414 200.8407,-418.9261 208.5296,-423.1866 216.419,-426.8454"/>
<polygon fill="#191970" stroke="#191970" points="215.1655,-430.1165 225.7336,-430.868 217.9407,-423.6901 215.1655,-430.1165"/>
</g>
<!-- Node206 -->
<g id="node18" class="node">
<title>Node206</title>
<g id="a_node18"><a xlink:href="../../d5/d9d/classViewLayer.html#a67cd0fff01dcc8e00d889173e65403fd" target="_top" xlink:title=" ">
<polygon fill="#ffffff" stroke="#000000" points="408,-480 408,-510 567,-510 567,-480 408,-480"/>
<text text-anchor="start" x="416" y="-498" font-family="Helvetica,sans-Serif" font-size="10.00" fill="#000000">ViewLayer::viewLayerIDFrom</text>
<text text-anchor="middle" x="487.5" y="-487" font-family="Helvetica,sans-Serif" font-size="10.00" fill="#000000">XmlString</text>
</a>
</g>
</g>
<!-- Node189&#45;&gt;Node206 -->
<g id="edge47" class="edge">
<title>Node189&#45;&gt;Node206</title>
<path fill="none" stroke="#191970" d="M81.2111,-281.6813C89.3699,-314.9265 121.1679,-424.9115 194,-471 254.1575,-509.0679 335.7084,-512.8235 397.5807,-508.3312"/>
<polygon fill="#191970" stroke="#191970" points="398.0396,-511.8056 407.724,-507.5088 397.4738,-504.8285 398.0396,-511.8056"/>
</g>
<!-- Node208 -->
<g id="node20" class="node">
<title>Node208</title>
<g id="a_node20"><a xlink:href="../../d8/d37/classPartsEditorView.html#a2df0940e4870286229179eb782040da8" target="_top" xlink:title=" ">
<polygon fill="#ffffff" stroke="#000000" points="209,-374 209,-404 350,-404 350,-374 209,-374"/>
<text text-anchor="start" x="217" y="-392" font-family="Helvetica,sans-Serif" font-size="10.00" fill="#000000">PartsEditorView::getLayer</text>
<text text-anchor="middle" x="279.5" y="-381" font-family="Helvetica,sans-Serif" font-size="10.00" fill="#000000">FileName</text>
</a>
</g>
</g>
<!-- Node189&#45;&gt;Node208 -->
<g id="edge20" class="edge">
<title>Node189&#45;&gt;Node208</title>
<path fill="none" stroke="#191970" d="M92.082,-281.5018C113.0415,-296.5267 155.6901,-326.2905 194,-348 207.3825,-355.5836 222.3861,-363.0932 236.0448,-369.5726"/>
<polygon fill="#191970" stroke="#191970" points="234.7088,-372.8117 245.2494,-373.8821 237.6769,-366.4721 234.7088,-372.8117"/>
</g>
<!-- Node210 -->
<g id="node22" class="node">
<title>Node210</title>
<g id="a_node22"><a xlink:href="../../d8/d37/classSketchWidget.html#afee7393f2169de892881d669d1889c76" target="_top" xlink:title=" ">
<polygon fill="#ffffff" stroke="#000000" points="196,-319.5 196,-338.5 363,-338.5 363,-319.5 196,-319.5"/>
<text text-anchor="middle" x="279.5" y="-326.5" font-family="Helvetica,sans-Serif" font-size="10.00" fill="#000000">SketchWidget::getViewLayerID</text>
</a>
</g>
</g>
<!-- Node189&#45;&gt;Node210 -->
<g id="edge22" class="edge">
<title>Node189&#45;&gt;Node210</title>
<path fill="none" stroke="#191970" d="M105.2619,-281.5147C128.4229,-289.7044 163.1875,-301.5087 194,-310 203.248,-312.5486 213.1303,-314.9949 222.7725,-317.2345"/>
<polygon fill="#191970" stroke="#191970" points="222.1704,-320.6868 232.6973,-319.4893 223.7212,-313.8608 222.1704,-320.6868"/>
</g>
<!-- Node215 -->
<g id="node27" class="node">
<title>Node215</title>
<g id="a_node27"><a xlink:href="../../d4/d72/classModelPart.html#a41eddfff486830d2a2d8e42767b594d2" target="_top" xlink:title=" ">
<polygon fill="#ffffff" stroke="#000000" points="208.5,-281.5 208.5,-300.5 350.5,-300.5 350.5,-281.5 208.5,-281.5"/>
<text text-anchor="middle" x="279.5" y="-288.5" font-family="Helvetica,sans-Serif" font-size="10.00" fill="#000000">ModelPart::initConnectors</text>
</a>
</g>
</g>
<!-- Node189&#45;&gt;Node215 -->
<g id="edge28" class="edge">
<title>Node189&#45;&gt;Node215</title>
<path fill="none" stroke="#191970" d="M158.2429,-279.5093C171.4139,-280.7574 185.0915,-282.0536 198.31,-283.3062"/>
<polygon fill="#191970" stroke="#191970" points="198.0272,-286.795 208.3129,-284.2541 198.6877,-279.8262 198.0272,-286.795"/>
</g>
<!-- Node226 -->
<g id="node38" class="node">
<title>Node226</title>
<g id="a_node38"><a xlink:href="../../de/db8/classTextUtils.html#a03d0e650ce39fc4d7a265d71c5b869d9" target="_top" xlink:title=" ">
<polygon fill="#ffffff" stroke="#000000" points="205.5,-243.5 205.5,-262.5 353.5,-262.5 353.5,-243.5 205.5,-243.5"/>
<text text-anchor="middle" x="279.5" y="-250.5" font-family="Helvetica,sans-Serif" font-size="10.00" fill="#000000">TextUtils::makeSVGHeader</text>
</a>
</g>
</g>
<!-- Node189&#45;&gt;Node226 -->
<g id="edge40" class="edge">
<title>Node189&#45;&gt;Node226</title>
<path fill="none" stroke="#191970" d="M158.2429,-264.4907C170.3861,-263.34 182.9598,-262.1485 195.2073,-260.9878"/>
<polygon fill="#191970" stroke="#191970" points="195.7768,-264.4496 205.402,-260.0218 195.1163,-257.4809 195.7768,-264.4496"/>
</g>
<!-- Node227 -->
<g id="node39" class="node">
<title>Node227</title>
<g id="a_node39"><a xlink:href="../../d8/d37/classPartsEditorView.html#aa21af8c64cb5e3cf88bcc00535d19721" target="_top" xlink:title=" ">
<polygon fill="#ffffff" stroke="#000000" points="208,-194 208,-224 351,-224 351,-194 208,-194"/>
<text text-anchor="start" x="216" y="-212" font-family="Helvetica,sans-Serif" font-size="10.00" fill="#000000">PartsEditorView::newParts</text>
<text text-anchor="middle" x="279.5" y="-201" font-family="Helvetica,sans-Serif" font-size="10.00" fill="#000000">EditorPaletteItem</text>
</a>
</g>
</g>
<!-- Node189&#45;&gt;Node227 -->
<g id="edge41" class="edge">
<title>Node189&#45;&gt;Node227</title>
<path fill="none" stroke="#191970" d="M107.2681,-262.3559C130.493,-254.5055 164.2866,-243.2502 194,-234 201.4754,-231.6728 209.3379,-229.2884 217.142,-226.9603"/>
<polygon fill="#191970" stroke="#191970" points="218.3689,-230.2473 226.9624,-224.0502 216.38,-223.5357 218.3689,-230.2473"/>
</g>
<!-- Node228 -->
<g id="node40" class="node">
<title>Node228</title>
<g id="a_node40"><a xlink:href="../../d4/d72/classModelPart.html#a4c4b99accea7970f828880cfb85a4ce3" target="_top" xlink:title=" ">
<polygon fill="#ffffff" stroke="#000000" points="233,-155.5 233,-174.5 326,-174.5 326,-155.5 233,-155.5"/>
<text text-anchor="middle" x="279.5" y="-162.5" font-family="Helvetica,sans-Serif" font-size="10.00" fill="#000000">ModelPart::path</text>
</a>
</g>
</g>
<!-- Node189&#45;&gt;Node228 -->
<g id="edge42" class="edge">
<title>Node189&#45;&gt;Node228</title>
<path fill="none" stroke="#191970" d="M88.8097,-262.2347C107.5551,-244.1466 150.4851,-205.4182 194,-185 203.005,-180.7747 212.974,-177.404 222.8307,-174.7267"/>
<polygon fill="#191970" stroke="#191970" points="223.7616,-178.1017 232.6101,-172.2747 222.0591,-171.3119 223.7616,-178.1017"/>
</g>
<!-- Node229 -->
<g id="node41" class="node">
<title>Node229</title>
<g id="a_node41"><a xlink:href="../../d4/d4f/classItemBase.html#ac1e0b2c691b8641cea6a29bc69b432ad" target="_top" xlink:title=" ">
<polygon fill="#ffffff" stroke="#000000" points="217,-117.5 217,-136.5 342,-136.5 342,-117.5 217,-117.5"/>
<text text-anchor="middle" x="279.5" y="-124.5" font-family="Helvetica,sans-Serif" font-size="10.00" fill="#000000">ItemBase::retrieveSvg</text>
</a>
</g>
</g>
<!-- Node189&#45;&gt;Node229 -->
<g id="edge43" class="edge">
<title>Node189&#45;&gt;Node229</title>
<path fill="none" stroke="#191970" d="M84.8352,-262.263C99.7329,-238.3099 141.7146,-176.2736 194,-146 198.141,-143.6023 202.556,-141.507 207.1148,-139.676"/>
<polygon fill="#191970" stroke="#191970" points="208.393,-142.9361 216.6331,-136.2764 206.0385,-136.3439 208.393,-142.9361"/>
</g>
<!-- Node230 -->
<g id="node42" class="node">
<title>Node230</title>
<g id="a_node42"><a xlink:href="../../d4/d4f/classItemBase.html#a055b52d5822842e70317609e1a609b25" target="_top" xlink:title=" ">
<polygon fill="#ffffff" stroke="#000000" points="235,-79.5 235,-98.5 324,-98.5 324,-79.5 235,-79.5"/>
<text text-anchor="middle" x="279.5" y="-86.5" font-family="Helvetica,sans-Serif" font-size="10.00" fill="#000000">ItemBase::size</text>
</a>
</g>
</g>
<!-- Node189&#45;&gt;Node230 -->
<g id="edge44" class="edge">
<title>Node189&#45;&gt;Node230</title>
<path fill="none" stroke="#191970" d="M82.7553,-262.3575C94.4266,-233.7407 132.9877,-148.7594 194,-108 203.1965,-101.8563 214.069,-97.6699 224.9229,-94.8246"/>
<polygon fill="#191970" stroke="#191970" points="225.8615,-98.2006 234.8368,-92.5709 224.3097,-91.3747 225.8615,-98.2006"/>
</g>
<!-- Node231 -->
<g id="node43" class="node">
<title>Node231</title>
<g id="a_node43"><a xlink:href="../../d4/d4f/classItemBase.html#a8f16baa26ee92ac6cd8dda5c69d759d4" target="_top" xlink:title=" ">
<polygon fill="#ffffff" stroke="#000000" points="214.5,-41.5 214.5,-60.5 344.5,-60.5 344.5,-41.5 214.5,-41.5"/>
<text text-anchor="middle" x="279.5" y="-48.5" font-family="Helvetica,sans-Serif" font-size="10.00" fill="#000000">ItemBase::viewLayerID</text>
</a>
</g>
</g>
<!-- Node189&#45;&gt;Node231 -->
<g id="edge45" class="edge">
<title>Node189&#45;&gt;Node231</title>
<path fill="none" stroke="#191970" d="M81.5333,-262.0811C90.5283,-228.9846 124.1998,-121.5323 194,-70 197.4406,-67.4599 201.1571,-65.2486 205.0475,-63.3245"/>
<polygon fill="#191970" stroke="#191970" points="206.5687,-66.4808 214.3925,-59.3366 203.8212,-60.0425 206.5687,-66.4808"/>
</g>
<!-- Node232 -->
<g id="node44" class="node">
<title>Node232</title>
<g id="a_node44"><a xlink:href="../../d5/d9d/classViewLayer.html#acda6179880454250f27ee4ed167b6983" target="_top" xlink:title=" ">
<polygon fill="#ffffff" stroke="#000000" points="212.5,-3.5 212.5,-22.5 346.5,-22.5 346.5,-3.5 212.5,-3.5"/>
<text text-anchor="middle" x="279.5" y="-10.5" font-family="Helvetica,sans-Serif" font-size="10.00" fill="#000000">ViewLayer::viewLayerID</text>
</a>
</g>
</g>
<!-- Node189&#45;&gt;Node232 -->
<g id="edge46" class="edge">
<title>Node189&#45;&gt;Node232</title>
<path fill="none" stroke="#191970" d="M80.5473,-262.3531C86.938,-225.8315 114.7717,-94.9382 194,-32 196.824,-29.7566 199.8587,-27.7659 203.0408,-26.0001"/>
<polygon fill="#191970" stroke="#191970" points="204.804,-29.0379 212.3461,-21.597 201.8099,-22.7105 204.804,-29.0379"/>
</g>
<!-- Node191 -->
<g id="node3" class="node">
<title>Node191</title>
<g id="a_node3"><a xlink:href="../../da/d3a/classDebugDialog.html#ad26216d18945d7d7188420707b76f241" target="_top" xlink:title=" ">
<polygon fill="#ffffff" stroke="#000000" points="429.5,-719.5 429.5,-738.5 545.5,-738.5 545.5,-719.5 429.5,-719.5"/>
<text text-anchor="middle" x="487.5" y="-726.5" font-family="Helvetica,sans-Serif" font-size="10.00" fill="#000000">DebugDialog::debug</text>
</a>
</g>
</g>
<!-- Node190&#45;&gt;Node191 -->
<g id="edge2" class="edge">
<title>Node190&#45;&gt;Node191</title>
<path fill="none" stroke="#191970" d="M355.7704,-729C376.5995,-729 399.0295,-729 419.3726,-729"/>
<polygon fill="#191970" stroke="#191970" points="419.487,-732.5001 429.487,-729 419.4869,-725.5001 419.487,-732.5001"/>
</g>
<!-- Node192 -->
<g id="node4" class="node">
<title>Node192</title>
<g id="a_node4"><a xlink:href="../../d4/d72/classModelPart.html#ae641e5a6bc2ccb547068f54b331a25e0" target="_top" xlink:title=" ">
<polygon fill="#ffffff" stroke="#000000" points="424,-681.5 424,-700.5 551,-700.5 551,-681.5 424,-681.5"/>
<text text-anchor="middle" x="487.5" y="-688.5" font-family="Helvetica,sans-Serif" font-size="10.00" fill="#000000">ModelPart::flippedSMD</text>
</a>
</g>
</g>
<!-- Node190&#45;&gt;Node192 -->
<g id="edge3" class="edge">
<title>Node190&#45;&gt;Node192</title>
<path fill="none" stroke="#191970" d="M355.7704,-715.066C378.5914,-710.8968 403.3341,-706.3765 425.1483,-702.3912"/>
<polygon fill="#191970" stroke="#191970" points="426.0648,-705.7818 435.2729,-700.5415 424.8067,-698.8957 426.0648,-705.7818"/>
</g>
<!-- Node193 -->
<g id="node5" class="node">
<title>Node193</title>
<g id="a_node5"><a xlink:href="../../d4/d4f/classItemBase.html#acc2f5bad42928e7178c28fa0771b1f60" target="_top" xlink:title=" ">
<polygon fill="#ffffff" stroke="#000000" points="428,-795.5 428,-814.5 547,-814.5 547,-795.5 428,-795.5"/>
<text text-anchor="middle" x="487.5" y="-802.5" font-family="Helvetica,sans-Serif" font-size="10.00" fill="#000000">ItemBase::modelPart</text>
</a>
</g>
</g>
<!-- Node190&#45;&gt;Node193 -->
<g id="edge4" class="edge">
<title>Node190&#45;&gt;Node193</title>
<path fill="none" stroke="#191970" d="M307.2395,-744.1904C331.401,-756.8868 367.6868,-774.6847 401,-786 408.8479,-788.6656 417.2262,-791.0511 425.5635,-793.1563"/>
<polygon fill="#191970" stroke="#191970" points="424.7563,-796.5619 435.2976,-795.4987 426.3941,-789.7562 424.7563,-796.5619"/>
</g>
<!-- Node194 -->
<g id="node6" class="node">
<title>Node194</title>
<g id="a_node6"><a xlink:href="../../d8/d37/classSketchWidget.html#a71e692b5d2516fba556a245ed14fba48" target="_top" xlink:title=" ">
<polygon fill="#ffffff" stroke="#000000" points="402,-757.5 402,-776.5 573,-776.5 573,-757.5 402,-757.5"/>
<text text-anchor="middle" x="487.5" y="-764.5" font-family="Helvetica,sans-Serif" font-size="10.00" fill="#000000">SketchWidget::setViewLayerIDs</text>
</a>
</g>
</g>
<!-- Node190&#45;&gt;Node194 -->
<g id="edge5" class="edge">
<title>Node190&#45;&gt;Node194</title>
<path fill="none" stroke="#191970" d="M355.7704,-742.934C378.5914,-747.1032 403.3341,-751.6235 425.1483,-755.6088"/>
<polygon fill="#191970" stroke="#191970" points="424.8067,-759.1043 435.2729,-757.4585 426.0648,-752.2182 424.8067,-759.1043"/>
</g>
<!-- Node196 -->
<g id="node8" class="node">
<title>Node196</title>
<g id="a_node8"><a xlink:href="../../d4/d4f/classItemBase.html#af09456248c6af9a4c9354f5b6ec3fead" target="_top" xlink:title=" ">
<polygon fill="#ffffff" stroke="#000000" points="428,-567.5 428,-586.5 547,-586.5 547,-567.5 428,-567.5"/>
<text text-anchor="middle" x="487.5" y="-574.5" font-family="Helvetica,sans-Serif" font-size="10.00" fill="#000000">ItemBase::setHidden</text>
</a>
</g>
</g>
<!-- Node195&#45;&gt;Node196 -->
<g id="edge7" class="edge">
<title>Node195&#45;&gt;Node196</title>
<path fill="none" stroke="#191970" d="M353.1257,-577C374.1159,-577 396.9155,-577 417.672,-577"/>
<polygon fill="#191970" stroke="#191970" points="417.6806,-580.5001 427.6806,-577 417.6805,-573.5001 417.6806,-580.5001"/>
</g>
<!-- Node199 -->
<g id="node11" class="node">
<title>Node199</title>
<g id="a_node11"><a xlink:href="../../d8/d37/classSketchWidget.html#a86112469d6f9234142eeea7ceacd7e48" target="_top" xlink:title=" ">
<polygon fill="#ffffff" stroke="#000000" points="410,-529.5 410,-548.5 565,-548.5 565,-529.5 410,-529.5"/>
<text text-anchor="middle" x="487.5" y="-536.5" font-family="Helvetica,sans-Serif" font-size="10.00" fill="#000000">SketchWidget::layerIsVisible</text>
</a>
</g>
</g>
<!-- Node195&#45;&gt;Node199 -->
<g id="edge10" class="edge">
<title>Node195&#45;&gt;Node199</title>
<path fill="none" stroke="#191970" d="M331.7187,-567.46C360.1535,-562.2652 395.5218,-555.8037 425.3678,-550.3511"/>
<polygon fill="#191970" stroke="#191970" points="426.0517,-553.7842 435.2598,-548.5439 424.7936,-546.8981 426.0517,-553.7842"/>
</g>
<!-- Node201 -->
<g id="node13" class="node">
<title>Node201</title>
<g id="a_node13"><a xlink:href="../../d4/d4f/classItemBase.html#afd0485c60abf2afd7fb0199500bd12a6" target="_top" xlink:title=" ">
<polygon fill="#ffffff" stroke="#000000" points="426,-605.5 426,-624.5 549,-624.5 549,-605.5 426,-605.5"/>
<text text-anchor="middle" x="487.5" y="-612.5" font-family="Helvetica,sans-Serif" font-size="10.00" fill="#000000">ItemBase::setInactive</text>
</a>
</g>
</g>
<!-- Node195&#45;&gt;Node201 -->
<g id="edge12" class="edge">
<title>Node195&#45;&gt;Node201</title>
<path fill="none" stroke="#191970" d="M331.7187,-586.54C360.1535,-591.7348 395.5218,-598.1963 425.3678,-603.6489"/>
<polygon fill="#191970" stroke="#191970" points="424.7936,-607.1019 435.2598,-605.4561 426.0517,-600.2158 424.7936,-607.1019"/>
</g>
<!-- Node203 -->
<g id="node15" class="node">
<title>Node203</title>
<g id="a_node15"><a xlink:href="../../d8/d37/classSketchWidget.html#a66cd9fd4968f3628849987d495b73035" target="_top" xlink:title=" ">
<polygon fill="#ffffff" stroke="#000000" points="411,-643.5 411,-662.5 564,-662.5 564,-643.5 411,-643.5"/>
<text text-anchor="middle" x="487.5" y="-650.5" font-family="Helvetica,sans-Serif" font-size="10.00" fill="#000000">SketchWidget::layerIsActive</text>
</a>
</g>
</g>
<!-- Node195&#45;&gt;Node203 -->
<g id="edge15" class="edge">
<title>Node195&#45;&gt;Node203</title>
<path fill="none" stroke="#191970" d="M296.6983,-586.5696C319.7913,-599.0654 362.392,-620.8863 401,-634 408.8479,-636.6656 417.2262,-639.0511 425.5635,-641.1563"/>
<polygon fill="#191970" stroke="#191970" points="424.7563,-644.5619 435.2976,-643.4987 426.3941,-637.7562 424.7563,-644.5619"/>
</g>
<!-- Node197 -->
<g id="node9" class="node">
<title>Node197</title>
<g id="a_node9"><a xlink:href="../../dc/d09/classNonConnectorItem.html#aea97371d34a3a9b3d0370085ae0936dd" target="_top" xlink:title=" ">
<polygon fill="#ffffff" stroke="#000000" points="612,-548.5 612,-567.5 776,-567.5 776,-548.5 612,-548.5"/>
<text text-anchor="middle" x="694" y="-555.5" font-family="Helvetica,sans-Serif" font-size="10.00" fill="#000000">NonConnectorItem::setHidden</text>
</a>
</g>
</g>
<!-- Node196&#45;&gt;Node197 -->
<g id="edge8" class="edge">
<title>Node196&#45;&gt;Node197</title>
<path fill="none" stroke="#191970" d="M547.2284,-571.5044C564.2135,-569.9416 583.1221,-568.2018 601.5652,-566.5049"/>
<polygon fill="#191970" stroke="#191970" points="602.1111,-569.9695 611.7483,-565.568 601.4697,-562.999 602.1111,-569.9695"/>
</g>
<!-- Node198 -->
<g id="node10" class="node">
<title>Node198</title>
<g id="a_node10"><a xlink:href="../../d4/d4f/classItemBase.html#a68e261a4c514ae7d0709d2d68fe09645" target="_top" xlink:title=" ">
<polygon fill="#ffffff" stroke="#000000" points="625.5,-586.5 625.5,-605.5 762.5,-605.5 762.5,-586.5 625.5,-586.5"/>
<text text-anchor="middle" x="694" y="-593.5" font-family="Helvetica,sans-Serif" font-size="10.00" fill="#000000">ItemBase::updateHidden</text>
</a>
</g>
</g>
<!-- Node196&#45;&gt;Node198 -->
<g id="edge9" class="edge">
<title>Node196&#45;&gt;Node198</title>
<path fill="none" stroke="#191970" d="M547.2284,-582.4956C568.404,-584.444 592.5691,-586.6674 615.0948,-588.74"/>
<polygon fill="#191970" stroke="#191970" points="615.0338,-592.249 625.3125,-589.6801 615.6752,-585.2785 615.0338,-592.249"/>
</g>
<!-- Node200 -->
<g id="node12" class="node">
<title>Node200</title>
<g id="a_node12"><a xlink:href="../../d5/d9d/classViewLayer.html#af2035443385bd2654488e7a5e7b70e58" target="_top" xlink:title=" ">
<polygon fill="#ffffff" stroke="#000000" points="641,-510.5 641,-529.5 747,-529.5 747,-510.5 641,-510.5"/>
<text text-anchor="middle" x="694" y="-517.5" font-family="Helvetica,sans-Serif" font-size="10.00" fill="#000000">ViewLayer::visible</text>
</a>
</g>
</g>
<!-- Node199&#45;&gt;Node200 -->
<g id="edge11" class="edge">
<title>Node199&#45;&gt;Node200</title>
<path fill="none" stroke="#191970" d="M565.2745,-531.844C586.7916,-529.8642 609.8832,-527.7396 630.4844,-525.8441"/>
<polygon fill="#191970" stroke="#191970" points="631.056,-529.3063 640.6932,-524.9047 630.4145,-522.3358 631.056,-529.3063"/>
</g>
<!-- Node201&#45;&gt;Node198 -->
<g id="edge14" class="edge">
<title>Node201&#45;&gt;Node198</title>
<path fill="none" stroke="#191970" d="M549.1771,-609.3251C569.9016,-607.4183 593.3088,-605.2646 615.1671,-603.2534"/>
<polygon fill="#191970" stroke="#191970" points="615.7817,-606.7117 625.4189,-602.3101 615.1403,-599.7412 615.7817,-606.7117"/>
</g>
<!-- Node202 -->
<g id="node14" class="node">
<title>Node202</title>
<g id="a_node14"><a xlink:href="../../dc/d09/classNonConnectorItem.html#a24efde2d9cbc52bb3f0a3396c348a337" target="_top" xlink:title=" ">
<polygon fill="#ffffff" stroke="#000000" points="610,-624.5 610,-643.5 778,-643.5 778,-624.5 610,-624.5"/>
<text text-anchor="middle" x="694" y="-631.5" font-family="Helvetica,sans-Serif" font-size="10.00" fill="#000000">NonConnectorItem::setInactive</text>
</a>
</g>
</g>
<!-- Node201&#45;&gt;Node202 -->
<g id="edge13" class="edge">
<title>Node201&#45;&gt;Node202</title>
<path fill="none" stroke="#191970" d="M549.1771,-620.6749C565.0726,-622.1374 582.5462,-623.7452 599.6888,-625.3225"/>
<polygon fill="#191970" stroke="#191970" points="599.4507,-628.8152 609.7293,-626.2463 600.0921,-621.8447 599.4507,-628.8152"/>
</g>
<!-- Node204 -->
<g id="node16" class="node">
<title>Node204</title>
<g id="a_node16"><a xlink:href="../../d5/d9d/classViewLayer.html#a1fe0237c3edc3391ce0c0e00aacaa0ab" target="_top" xlink:title=" ">
<polygon fill="#ffffff" stroke="#000000" points="637.5,-662.5 637.5,-681.5 750.5,-681.5 750.5,-662.5 637.5,-662.5"/>
<text text-anchor="middle" x="694" y="-669.5" font-family="Helvetica,sans-Serif" font-size="10.00" fill="#000000">ViewLayer::isActive</text>
</a>
</g>
</g>
<!-- Node203&#45;&gt;Node204 -->
<g id="edge16" class="edge">
<title>Node203&#45;&gt;Node204</title>
<path fill="none" stroke="#191970" d="M564.0995,-660.0479C584.8179,-661.9542 607.0731,-664.0019 627.2065,-665.8544"/>
<polygon fill="#191970" stroke="#191970" points="626.9331,-669.3439 637.2117,-666.7749 627.5745,-662.3733 626.9331,-669.3439"/>
</g>
<!-- Node205&#45;&gt;Node206 -->
<g id="edge18" class="edge">
<title>Node205&#45;&gt;Node206</title>
<path fill="none" stroke="#191970" d="M343.3204,-461.0346C365.6816,-466.3024 390.9713,-472.2601 414.0565,-477.6984"/>
<polygon fill="#191970" stroke="#191970" points="413.2641,-481.1075 423.8003,-479.9938 414.8693,-474.294 413.2641,-481.1075"/>
</g>
<!-- Node207 -->
<g id="node19" class="node">
<title>Node207</title>
<g id="a_node19"><a xlink:href="../../d8/d37/classSketchWidget.html#a12e006b8cf3036dd523e112402994a47" target="_top" xlink:title=" ">
<polygon fill="#ffffff" stroke="#000000" points="401,-431 401,-461 574,-461 574,-431 401,-431"/>
<text text-anchor="start" x="409" y="-449" font-family="Helvetica,sans-Serif" font-size="10.00" fill="#000000">SketchWidget::defaultConnector</text>
<text text-anchor="middle" x="487.5" y="-438" font-family="Helvetica,sans-Serif" font-size="10.00" fill="#000000">Layer</text>
</a>
</g>
</g>
<!-- Node205&#45;&gt;Node207 -->
<g id="edge19" class="edge">
<title>Node205&#45;&gt;Node207</title>
<path fill="none" stroke="#191970" d="M365.002,-446C373.5388,-446 382.2473,-446 390.8876,-446"/>
<polygon fill="#191970" stroke="#191970" points="390.9847,-449.5001 400.9847,-446 390.9846,-442.5001 390.9847,-449.5001"/>
</g>
<!-- Node209 -->
<g id="node21" class="node">
<title>Node209</title>
<g id="a_node21"><a xlink:href="../../d4/d72/classModelPart.html#af335d9a70911925dfe30e67111ae1af3" target="_top" xlink:title=" ">
<polygon fill="#ffffff" stroke="#000000" points="413,-392.5 413,-411.5 562,-411.5 562,-392.5 413,-392.5"/>
<text text-anchor="middle" x="487.5" y="-399.5" font-family="Helvetica,sans-Serif" font-size="10.00" fill="#000000">ModelPart::imageFileName</text>
</a>
</g>
</g>
<!-- Node208&#45;&gt;Node209 -->
<g id="edge21" class="edge">
<title>Node208&#45;&gt;Node209</title>
<path fill="none" stroke="#191970" d="M350.2095,-393.4193C367.0446,-394.4715 385.1807,-395.605 402.5791,-396.6924"/>
<polygon fill="#191970" stroke="#191970" points="402.5234,-400.1957 412.7223,-397.3264 402.9601,-393.2093 402.5234,-400.1957"/>
</g>
<!-- Node211 -->
<g id="node23" class="node">
<title>Node211</title>
<g id="a_node23"><a xlink:href="../../d8/d37/classSketchWidget.html#a822f0b08903311cc5c4a8e53d87ebdb6" target="_top" xlink:title=" ">
<polygon fill="#ffffff" stroke="#000000" points="415,-266.5 415,-285.5 560,-285.5 560,-266.5 415,-266.5"/>
<text text-anchor="middle" x="487.5" y="-273.5" font-family="Helvetica,sans-Serif" font-size="10.00" fill="#000000">SketchWidget::viewLayers</text>
</a>
</g>
</g>
<!-- Node210&#45;&gt;Node211 -->
<g id="edge23" class="edge">
<title>Node210&#45;&gt;Node211</title>
<path fill="none" stroke="#191970" d="M328.6646,-319.4181C340.6454,-316.715 353.36,-313.5342 365,-310 381.4268,-305.0124 384.5947,-301.0578 401,-296 410.5005,-293.071 420.7047,-290.3483 430.6548,-287.9139"/>
<polygon fill="#191970" stroke="#191970" points="431.5646,-291.2953 440.4849,-285.5787 429.9467,-284.4848 431.5646,-291.2953"/>
</g>
<!-- Node212 -->
<g id="node24" class="node">
<title>Node212</title>
<g id="a_node24"><a xlink:href="../../d4/d72/classModelPart.html#ac89b3fa9f8a63631644055987b33977c" target="_top" xlink:title=" ">
<polygon fill="#ffffff" stroke="#000000" points="424,-228.5 424,-247.5 551,-247.5 551,-228.5 424,-228.5"/>
<text text-anchor="middle" x="487.5" y="-235.5" font-family="Helvetica,sans-Serif" font-size="10.00" fill="#000000">ModelPart::viewLayers</text>
</a>
</g>
</g>
<!-- Node210&#45;&gt;Node212 -->
<g id="edge24" class="edge">
<title>Node210&#45;&gt;Node212</title>
<path fill="none" stroke="#191970" d="M346.4653,-319.3875C353.0258,-316.9225 359.3387,-313.8433 365,-310 388.5597,-294.0061 377.4207,-272.9651 401,-257 405.0821,-254.2361 409.4985,-251.8665 414.1014,-249.8358"/>
<polygon fill="#191970" stroke="#191970" points="415.6833,-252.9776 423.7643,-246.1257 413.1742,-246.4427 415.6833,-252.9776"/>
</g>
<!-- Node213 -->
<g id="node25" class="node">
<title>Node213</title>
<g id="a_node25"><a xlink:href="../../d8/d37/classSketchWidget.html#aad6b7b43a75038116e316bb711c7d638" target="_top" xlink:title=" ">
<polygon fill="#ffffff" stroke="#000000" points="632.5,-332.5 632.5,-351.5 755.5,-351.5 755.5,-332.5 632.5,-332.5"/>
<text text-anchor="middle" x="694" y="-339.5" font-family="Helvetica,sans-Serif" font-size="10.00" fill="#000000">SketchWidget::viewID</text>
</a>
</g>
</g>
<!-- Node210&#45;&gt;Node213 -->
<g id="edge25" class="edge">
<title>Node210&#45;&gt;Node213</title>
<path fill="none" stroke="#191970" d="M339.911,-338.5407C359.3612,-341.1869 381.0435,-343.6916 401,-345 476.4575,-349.947 563.0754,-348.1374 622.4506,-345.7498"/>
<polygon fill="#191970" stroke="#191970" points="622.6294,-349.2455 632.4744,-345.3309 622.337,-342.2516 622.6294,-349.2455"/>
</g>
<!-- Node214 -->
<g id="node26" class="node">
<title>Node214</title>
<g id="a_node26"><a xlink:href="../../d8/d37/classSketchWidget.html#af9e4c6354a6cb4c10ef6d7c98bb48dd8" target="_top" xlink:title=" ">
<polygon fill="#ffffff" stroke="#000000" points="416.5,-305 416.5,-335 558.5,-335 558.5,-305 416.5,-305"/>
<text text-anchor="start" x="424.5" y="-323" font-family="Helvetica,sans-Serif" font-size="10.00" fill="#000000">SketchWidget::multiLayer</text>
<text text-anchor="middle" x="487.5" y="-312" font-family="Helvetica,sans-Serif" font-size="10.00" fill="#000000">GetViewLayerID</text>
</a>
</g>
</g>
<!-- Node210&#45;&gt;Node214 -->
<g id="edge26" class="edge">
<title>Node210&#45;&gt;Node214</title>
<path fill="none" stroke="#191970" d="M363.2025,-325.3783C377.3732,-324.7651 392.067,-324.1293 406.1756,-323.5188"/>
<polygon fill="#191970" stroke="#191970" points="406.4903,-327.0086 416.3296,-323.0795 406.1876,-320.0151 406.4903,-327.0086"/>
</g>
<!-- Node214&#45;&gt;Node213 -->
<g id="edge27" class="edge">
<title>Node214&#45;&gt;Node213</title>
<path fill="none" stroke="#191970" d="M558.5656,-327.5712C579.2191,-329.7715 601.7818,-332.1753 622.4641,-334.3787"/>
<polygon fill="#191970" stroke="#191970" points="622.135,-337.8634 632.4495,-335.4426 622.8766,-330.9028 622.135,-337.8634"/>
</g>
<!-- Node216 -->
<g id="node28" class="node">
<title>Node216</title>
<g id="a_node28"><a xlink:href="../../d4/d72/classModelPart.html#a2acf4e49c5485c018eafe728acae0229" target="_top" xlink:title=" ">
<polygon fill="#ffffff" stroke="#000000" points="425,-190.5 425,-209.5 550,-209.5 550,-190.5 425,-190.5"/>
<text text-anchor="middle" x="487.5" y="-197.5" font-family="Helvetica,sans-Serif" font-size="10.00" fill="#000000">ModelPart::clearBuses</text>
</a>
</g>
</g>
<!-- Node215&#45;&gt;Node216 -->
<g id="edge29" class="edge">
<title>Node215&#45;&gt;Node216</title>
<path fill="none" stroke="#191970" d="M346.4653,-281.3875C353.0258,-278.9225 359.3387,-275.8433 365,-272 388.5597,-256.0061 377.4207,-234.9651 401,-219 405.3446,-216.0583 410.068,-213.5633 414.992,-211.4481"/>
<polygon fill="#191970" stroke="#191970" points="416.5215,-214.6129 424.6614,-207.8311 414.069,-208.0566 416.5215,-214.6129"/>
</g>
<!-- Node218 -->
<g id="node30" class="node">
<title>Node218</title>
<g id="a_node30"><a xlink:href="../../d7/d1b/classConnectorShared.html#a2ba3eb78fb417cdc98943d670426529c" target="_top" xlink:title=" ">
<polygon fill="#ffffff" stroke="#000000" points="430,-152.5 430,-171.5 545,-171.5 545,-152.5 430,-152.5"/>
<text text-anchor="middle" x="487.5" y="-159.5" font-family="Helvetica,sans-Serif" font-size="10.00" fill="#000000">ConnectorShared::id</text>
</a>
</g>
</g>
<!-- Node215&#45;&gt;Node218 -->
<g id="edge31" class="edge">
<title>Node215&#45;&gt;Node218</title>
<path fill="none" stroke="#191970" d="M349.9273,-281.4858C355.3676,-278.9666 360.4887,-275.8492 365,-272 398.0869,-243.7686 367.8785,-209.1908 401,-181 406.6347,-176.2041 413.2078,-172.5399 420.1673,-169.7513"/>
<polygon fill="#191970" stroke="#191970" points="421.5001,-172.9952 429.8452,-166.4676 419.2509,-166.3664 421.5001,-172.9952"/>
</g>
<!-- Node219 -->
<g id="node31" class="node">
<title>Node219</title>
<g id="a_node31"><a xlink:href="../../d4/d72/classModelPart.html#ade497815345c420bbd23e111aa96b87d" target="_top" xlink:title=" ">
<polygon fill="#ffffff" stroke="#000000" points="429.5,-114.5 429.5,-133.5 545.5,-133.5 545.5,-114.5 429.5,-114.5"/>
<text text-anchor="middle" x="487.5" y="-121.5" font-family="Helvetica,sans-Serif" font-size="10.00" fill="#000000">ModelPart::initBuses</text>
</a>
</g>
</g>
<!-- Node215&#45;&gt;Node219 -->
<g id="edge32" class="edge">
<title>Node215&#45;&gt;Node219</title>
<path fill="none" stroke="#191970" d="M350.7846,-281.7794C355.9739,-279.1888 360.8064,-275.9751 365,-272 408.2001,-231.0505 357.7498,-183.8966 401,-143 406.3764,-137.9162 412.7883,-134.0723 419.6563,-131.1818"/>
<polygon fill="#191970" stroke="#191970" points="420.9799,-134.4265 429.2502,-127.8043 418.6553,-127.8237 420.9799,-134.4265"/>
</g>
<!-- Node217 -->
<g id="node29" class="node">
<title>Node217</title>
<g id="a_node29"><a xlink:href="../../d4/d72/classModelPart.html#ab3aad94e89c7415cfdcc8c269052c9a9" target="_top" xlink:title=" ">
<polygon fill="#ffffff" stroke="#000000" points="649.5,-190.5 649.5,-209.5 738.5,-209.5 738.5,-190.5 649.5,-190.5"/>
<text text-anchor="middle" x="694" y="-197.5" font-family="Helvetica,sans-Serif" font-size="10.00" fill="#000000">ModelPart::bus</text>
</a>
</g>
</g>
<!-- Node216&#45;&gt;Node217 -->
<g id="edge30" class="edge">
<title>Node216&#45;&gt;Node217</title>
<path fill="none" stroke="#191970" d="M550.0172,-200C578.4375,-200 611.7613,-200 639.1887,-200"/>
<polygon fill="#191970" stroke="#191970" points="639.3893,-203.5001 649.3893,-200 639.3892,-196.5001 639.3893,-203.5001"/>
</g>
<!-- Node219&#45;&gt;Node217 -->
<g id="edge35" class="edge">
<title>Node219&#45;&gt;Node217</title>
<path fill="none" stroke="#191970" d="M545.5718,-131.737C555.4399,-134.4388 565.299,-138.0835 574,-143 594.2547,-154.4448 589.7811,-169.4922 610,-181 619.0596,-186.1563 629.4147,-189.9133 639.6879,-192.6507"/>
<polygon fill="#191970" stroke="#191970" points="638.929,-196.0678 649.4673,-194.9752 640.5478,-189.2575 638.929,-196.0678"/>
</g>
<!-- Node220 -->
<g id="node32" class="node">
<title>Node220</title>
<g id="a_node32"><a xlink:href="../../d2/dfc/classBus.html#aee9b091c50d02e889b17a600d664e6eb" target="_top" xlink:title=" ">
<polygon fill="#ffffff" stroke="#000000" points="640,-76.5 640,-95.5 748,-95.5 748,-76.5 640,-76.5"/>
<text text-anchor="middle" x="694" y="-83.5" font-family="Helvetica,sans-Serif" font-size="10.00" fill="#000000">Bus::addConnector</text>
</a>
</g>
</g>
<!-- Node219&#45;&gt;Node220 -->
<g id="edge33" class="edge">
<title>Node219&#45;&gt;Node220</title>
<path fill="none" stroke="#191970" d="M539.3421,-114.46C567.4491,-109.2878 602.3799,-102.8599 631.9291,-97.4222"/>
<polygon fill="#191970" stroke="#191970" points="632.9351,-100.796 642.1365,-95.5439 631.6682,-93.9116 632.9351,-100.796"/>
</g>
<!-- Node221 -->
<g id="node33" class="node">
<title>Node221</title>
<g id="a_node33"><a xlink:href="../../d7/d1b/classConnectorShared.html#a287f4978e9742842d23ae0b1a00f46c2" target="_top" xlink:title=" ">
<polygon fill="#ffffff" stroke="#000000" points="632.5,-38.5 632.5,-57.5 755.5,-57.5 755.5,-38.5 632.5,-38.5"/>
<text text-anchor="middle" x="694" y="-45.5" font-family="Helvetica,sans-Serif" font-size="10.00" fill="#000000">ConnectorShared::bus</text>
</a>
</g>
</g>
<!-- Node219&#45;&gt;Node221 -->
<g id="edge34" class="edge">
<title>Node219&#45;&gt;Node221</title>
<path fill="none" stroke="#191970" d="M504.8631,-114.4749C528.172,-102.0286 571.1517,-80.2622 610,-67 617.6454,-64.39 625.8054,-62.0353 633.9222,-59.9445"/>
<polygon fill="#191970" stroke="#191970" points="634.8884,-63.3113 643.764,-57.5256 633.2176,-56.5136 634.8884,-63.3113"/>
</g>
<!-- Node222 -->
<g id="node34" class="node">
<title>Node222</title>
<g id="a_node34"><a xlink:href="../../d9/d65/classConnector.html#a24de03e134daab2d9efa441caaa42297" target="_top" xlink:title=" ">
<polygon fill="#ffffff" stroke="#000000" points="617,-.5 617,-19.5 771,-19.5 771,-.5 617,-.5"/>
<text text-anchor="middle" x="694" y="-7.5" font-family="Helvetica,sans-Serif" font-size="10.00" fill="#000000">Connector::connectorShared</text>
</a>
</g>
</g>
<!-- Node219&#45;&gt;Node222 -->
<g id="edge36" class="edge">
<title>Node219&#45;&gt;Node222</title>
<path fill="none" stroke="#191970" d="M496.9674,-114.2048C516.3065,-94.7969 562.5412,-51.4029 610,-29 615.2837,-26.5058 620.9117,-24.3304 626.6557,-22.4345"/>
<polygon fill="#191970" stroke="#191970" points="627.8267,-25.7371 636.3917,-19.5008 625.8071,-19.0348 627.8267,-25.7371"/>
</g>
<!-- Node223 -->
<g id="node35" class="node">
<title>Node223</title>
<g id="a_node35"><a xlink:href="../../d5/d1b/classBusShared.html#aefd518b6892423933c79f4f0375a13d8" target="_top" xlink:title=" ">
<polygon fill="#ffffff" stroke="#000000" points="652.5,-152.5 652.5,-171.5 735.5,-171.5 735.5,-152.5 652.5,-152.5"/>
<text text-anchor="middle" x="694" y="-159.5" font-family="Helvetica,sans-Serif" font-size="10.00" fill="#000000">BusShared::id</text>
</a>
</g>
</g>
<!-- Node219&#45;&gt;Node223 -->
<g id="edge37" class="edge">
<title>Node219&#45;&gt;Node223</title>
<path fill="none" stroke="#191970" d="M539.3421,-133.54C570.8209,-139.3327 610.8589,-146.7004 642.3101,-152.4881"/>
<polygon fill="#191970" stroke="#191970" points="641.7297,-155.9399 652.198,-154.3076 642.9966,-149.0555 641.7297,-155.9399"/>
</g>
<!-- Node224 -->
<g id="node36" class="node">
<title>Node224</title>
<g id="a_node36"><a xlink:href="../../d9/d65/classConnector.html#a1b9aaeb26c3135118b58aaecd1ef36f5" target="_top" xlink:title=" ">
<polygon fill="#ffffff" stroke="#000000" points="641.5,-114.5 641.5,-133.5 746.5,-133.5 746.5,-114.5 641.5,-114.5"/>
<text text-anchor="middle" x="694" y="-121.5" font-family="Helvetica,sans-Serif" font-size="10.00" fill="#000000">Connector::setBus</text>
</a>
</g>
</g>
<!-- Node219&#45;&gt;Node224 -->
<g id="edge38" class="edge">
<title>Node219&#45;&gt;Node224</title>
<path fill="none" stroke="#191970" d="M545.5713,-124C572.2275,-124 603.8881,-124 631.1076,-124"/>
<polygon fill="#191970" stroke="#191970" points="631.3027,-127.5001 641.3027,-124 631.3026,-120.5001 631.3027,-127.5001"/>
</g>
<!-- Node225 -->
<g id="node37" class="node">
<title>Node225</title>
<g id="a_node37"><a xlink:href="../../d9/d65/classConnector.html#aa48281ac91fd7d99765da3bfc2a3cd75" target="_top" xlink:title=" ">
<polygon fill="#ffffff" stroke="#000000" points="814,-114.5 814,-133.5 903,-133.5 903,-114.5 814,-114.5"/>
<text text-anchor="middle" x="858.5" y="-121.5" font-family="Helvetica,sans-Serif" font-size="10.00" fill="#000000">Connector::bus</text>
</a>
</g>
</g>
<!-- Node224&#45;&gt;Node225 -->
<g id="edge39" class="edge">
<title>Node224&#45;&gt;Node225</title>
<path fill="none" stroke="#191970" d="M746.5011,-124C764.8276,-124 785.4315,-124 803.923,-124"/>
<polygon fill="#191970" stroke="#191970" points="803.9509,-127.5001 813.9509,-124 803.9509,-120.5001 803.9509,-127.5001"/>
</g>
</g>
</svg>
