<?xml version="1.0" encoding="UTF-8" standalone="no"?>
<!DOCTYPE svg PUBLIC "-//W3C//DTD SVG 1.1//EN"
 "http://www.w3.org/Graphics/SVG/1.1/DTD/svg11.dtd">
<!-- Generated by graphviz version 2.40.1 (0)
 -->
<!-- Title: SketchWidget::showPartLabel Pages: 1 -->
<svg width="353pt" height="66pt"
 viewBox="0.00 0.00 353.00 66.00" xmlns="http://www.w3.org/2000/svg" xmlns:xlink="http://www.w3.org/1999/xlink">
<g id="graph0" class="graph" transform="scale(1 1) rotate(0) translate(4 62)">
<title>SketchWidget::showPartLabel</title>
<polygon fill="#ffffff" stroke="transparent" points="-4,4 -4,-62 349,-62 349,4 -4,4"/>
<!-- Node22205 -->
<g id="node1" class="node">
<title>Node22205</title>
<g id="a_node1"><a xlink:title=" ">
<polygon fill="#bfbfbf" stroke="#000000" points="185,-19.5 185,-38.5 345,-38.5 345,-19.5 185,-19.5"/>
<text text-anchor="middle" x="265" y="-26.5" font-family="Helvetica,sans-Serif" font-size="10.00" fill="#000000">SketchWidget::showPartLabel</text>
</a>
</g>
</g>
<!-- Node22206 -->
<g id="node2" class="node">
<title>Node22206</title>
<g id="a_node2"><a xlink:href="../../de/deb/classShowLabelCommand.html#aeb8938024d8dd057824d430c774e0606" target="_top" xlink:title=" ">
<polygon fill="#ffffff" stroke="#000000" points="0,-38.5 0,-57.5 149,-57.5 149,-38.5 0,-38.5"/>
<text text-anchor="middle" x="74.5" y="-45.5" font-family="Helvetica,sans-Serif" font-size="10.00" fill="#000000">ShowLabelCommand::undo</text>
</a>
</g>
</g>
<!-- Node22205&#45;&gt;Node22206 -->
<g id="edge1" class="edge">
<title>Node22205&#45;&gt;Node22206</title>
<path fill="none" stroke="#191970" d="M174.7525,-38.0011C166.1897,-38.8551 157.5729,-39.7145 149.1799,-40.5516"/>
<polygon fill="#191970" stroke="#191970" points="175.1597,-41.4779 184.763,-37.0026 174.465,-34.5125 175.1597,-41.4779"/>
</g>
<!-- Node22207 -->
<g id="node3" class="node">
<title>Node22207</title>
<g id="a_node3"><a xlink:href="../../de/deb/classShowLabelCommand.html#ae5829e8ca68d411c3ede0dadb04f8fe0" target="_top" xlink:title=" ">
<polygon fill="#ffffff" stroke="#000000" points="1,-.5 1,-19.5 148,-19.5 148,-.5 1,-.5"/>
<text text-anchor="middle" x="74.5" y="-7.5" font-family="Helvetica,sans-Serif" font-size="10.00" fill="#000000">ShowLabelCommand::redo</text>
</a>
</g>
</g>
<!-- Node22205&#45;&gt;Node22207 -->
<g id="edge2" class="edge">
<title>Node22205&#45;&gt;Node22207</title>
<path fill="none" stroke="#191970" d="M174.779,-20.0016C165.8994,-19.116 156.9614,-18.2245 148.2747,-17.3581"/>
<polygon fill="#191970" stroke="#191970" points="174.465,-23.4875 184.763,-20.9974 175.1597,-16.5221 174.465,-23.4875"/>
</g>
</g>
</svg>
