<?xml version="1.0" encoding="UTF-8" standalone="no"?>
<!DOCTYPE svg PUBLIC "-//W3C//DTD SVG 1.1//EN"
 "http://www.w3.org/Graphics/SVG/1.1/DTD/svg11.dtd">
<!-- Generated by graphviz version 2.40.1 (0)
 -->
<!-- Title: SketchWidget::prepDragWire Pages: 1 -->
<!--zoomable 116 -->
<svg id="main" version="1.1" xmlns="http://www.w3.org/2000/svg" xmlns:xlink="http://www.w3.org/1999/xlink" xml:space="preserve" onload="init(evt)">
<style type="text/css"><![CDATA[
.edge:hover path { stroke: red; }
.edge:hover polygon { stroke: red; fill: red; }
]]></style>
<script type="text/javascript"><![CDATA[
var edges = document.getElementsByTagName('g');
if (edges && edges.length) {
  for (var i=0;i<edges.length;i++) {
    if (edges[i].id.substr(0,4)=='edge') {
      edges[i].setAttribute('class','edge');
    }
  }
}
]]></script>
        <defs>
                <circle id="rim" cx="0" cy="0" r="7"/>
                <circle id="rim2" cx="0" cy="0" r="3.5"/>
                <g id="zoomPlus">
                        <use xlink:href="#rim" fill="#404040">
                                <set attributeName="fill" to="#808080" begin="zoomplus.mouseover" end="zoomplus.mouseout"/>
                        </use>
                        <path d="M-4,0h8M0,-4v8" fill="none" stroke="white" stroke-width="1.5" pointer-events="none"/>
                </g>
                <g id="zoomMin">
                        <use xlink:href="#rim" fill="#404040">
                                <set attributeName="fill" to="#808080" begin="zoomminus.mouseover" end="zoomminus.mouseout"/>
                        </use>
                        <path d="M-4,0h8" fill="none" stroke="white" stroke-width="1.5" pointer-events="none"/>
                </g>
                <g id="dirArrow">
                        <path fill="none" stroke="white" stroke-width="1.5" d="M0,-3.0v7 M-2.5,-0.5L0,-3.0L2.5,-0.5"/>
                </g>
               <g id="resetDef">
                       <use xlink:href="#rim2" fill="#404040">
                               <set attributeName="fill" to="#808080" begin="reset.mouseover" end="reset.mouseout"/>
                       </use>
               </g>
        </defs>

<script type="text/javascript">
var viewWidth = 556;
var viewHeight = 116;
var sectionId = 'dynsection-384';
</script>
<script xlink:href="../../svgpan.js"/>
<svg id="graph" class="graph">
<g id="viewport">
<title>SketchWidget::prepDragWire</title>
<polygon fill="#ffffff" stroke="transparent" points="-4,4 -4,-111.5 552,-111.5 552,4 -4,4"/>
<!-- Node17629 -->
<g id="node1" class="node">
<title>Node17629</title>
<g id="a_node1"><a xlink:title=" ">
<polygon fill="#bfbfbf" stroke="#000000" points="391,-28 391,-47 548,-47 548,-28 391,-28"/>
<text text-anchor="middle" x="469.5" y="-35" font-family="Helvetica,sans-Serif" font-size="10.00" fill="#000000">SketchWidget::prepDragWire</text>
</a>
</g>
</g>
<!-- Node17630 -->
<g id="node2" class="node">
<title>Node17630</title>
<g id="a_node2"><a xlink:href="../../d8/d37/classSketchWidget.html#a1926c7b56cafe9e1f0136bc9af9981ea" target="_top" xlink:title=" ">
<polygon fill="#ffffff" stroke="#000000" points="197,-50 197,-69 355,-69 355,-50 197,-50"/>
<text text-anchor="middle" x="276" y="-57" font-family="Helvetica,sans-Serif" font-size="10.00" fill="#000000">SketchWidget::moveByArrow</text>
</a>
</g>
</g>
<!-- Node17629&#45;&gt;Node17630 -->
<g id="edge1" class="edge">
<title>Node17629&#45;&gt;Node17630</title>
<path fill="none" stroke="#191970" d="M380.8376,-47.5805C372.3076,-48.5503 363.6933,-49.5297 355.2622,-50.4883"/>
<polygon fill="#191970" stroke="#191970" points="381.2556,-51.0556 390.7961,-46.4482 380.4647,-44.1004 381.2556,-51.0556"/>
</g>
<!-- Node17633 -->
<g id="node5" class="node">
<title>Node17633</title>
<g id="a_node5"><a xlink:href="../../d8/d37/classSketchWidget.html#a19e4694aab6edaeb9c3108d827757d1b" target="_top" xlink:title=" ">
<polygon fill="#ffffff" stroke="#000000" points="201.5,-.5 201.5,-30.5 350.5,-30.5 350.5,-.5 201.5,-.5"/>
<text text-anchor="start" x="209.5" y="-18.5" font-family="Helvetica,sans-Serif" font-size="10.00" fill="#000000">SketchWidget::mousePress</text>
<text text-anchor="middle" x="276" y="-7.5" font-family="Helvetica,sans-Serif" font-size="10.00" fill="#000000">Event</text>
</a>
</g>
</g>
<!-- Node17629&#45;&gt;Node17633 -->
<g id="edge4" class="edge">
<title>Node17629&#45;&gt;Node17633</title>
<path fill="none" stroke="#191970" d="M380.7581,-27.4105C370.6646,-26.2629 360.4541,-25.102 350.57,-23.9782"/>
<polygon fill="#191970" stroke="#191970" points="380.4647,-30.8996 390.7961,-28.5518 381.2556,-23.9444 380.4647,-30.8996"/>
</g>
<!-- Node17631 -->
<g id="node3" class="node">
<title>Node17631</title>
<g id="a_node3"><a xlink:href="../../d8/d37/classSketchWidget.html#aa39f6cd0dd58358ce203d93e5a701fb3" target="_top" xlink:title=" ">
<polygon fill="#ffffff" stroke="#000000" points="0,-88 0,-107 161,-107 161,-88 0,-88"/>
<text text-anchor="middle" x="80.5" y="-95" font-family="Helvetica,sans-Serif" font-size="10.00" fill="#000000">SketchWidget::keyPressEvent</text>
</a>
</g>
</g>
<!-- Node17630&#45;&gt;Node17631 -->
<g id="edge2" class="edge">
<title>Node17630&#45;&gt;Node17631</title>
<path fill="none" stroke="#191970" d="M216.89,-70.9894C188.9955,-76.4114 156.0976,-82.8058 129.6008,-87.9561"/>
<polygon fill="#191970" stroke="#191970" points="217.771,-74.3838 226.9194,-69.04 216.4353,-67.5124 217.771,-74.3838"/>
</g>
<!-- Node17632 -->
<g id="node4" class="node">
<title>Node17632</title>
<g id="a_node4"><a xlink:href="../../d8/d37/classSketchWidget.html#a25826d0d27571bc3b9ee08811fd27b85" target="_top" xlink:title=" ">
<polygon fill="#ffffff" stroke="#000000" points="10.5,-50 10.5,-69 150.5,-69 150.5,-50 10.5,-50"/>
<text text-anchor="middle" x="80.5" y="-57" font-family="Helvetica,sans-Serif" font-size="10.00" fill="#000000">SketchWidget::moveItem</text>
</a>
</g>
</g>
<!-- Node17630&#45;&gt;Node17632 -->
<g id="edge3" class="edge">
<title>Node17630&#45;&gt;Node17632</title>
<path fill="none" stroke="#191970" d="M186.6891,-59.5C174.6267,-59.5 162.3917,-59.5 150.7261,-59.5"/>
<polygon fill="#191970" stroke="#191970" points="186.7645,-63.0001 196.7645,-59.5 186.7645,-56.0001 186.7645,-63.0001"/>
</g>
<!-- Node17634 -->
<g id="node6" class="node">
<title>Node17634</title>
<g id="a_node6"><a xlink:href="../../d8/d37/classPartsEditorView.html#a55fa6bfc6aaa8305f6078f83b392b926" target="_top" xlink:title=" ">
<polygon fill="#ffffff" stroke="#000000" points="1.5,-.5 1.5,-30.5 159.5,-30.5 159.5,-.5 1.5,-.5"/>
<text text-anchor="start" x="9.5" y="-18.5" font-family="Helvetica,sans-Serif" font-size="10.00" fill="#000000">PartsEditorView::mousePress</text>
<text text-anchor="middle" x="80.5" y="-7.5" font-family="Helvetica,sans-Serif" font-size="10.00" fill="#000000">Event</text>
</a>
</g>
</g>
<!-- Node17633&#45;&gt;Node17634 -->
<g id="edge5" class="edge">
<title>Node17633&#45;&gt;Node17634</title>
<path fill="none" stroke="#191970" d="M190.9664,-15.5C180.5974,-15.5 170.0342,-15.5 159.7542,-15.5"/>
<polygon fill="#191970" stroke="#191970" points="191.253,-19.0001 201.253,-15.5 191.253,-12.0001 191.253,-19.0001"/>
</g>
</g>
</svg>
        <g id="navigator" transform="translate(0 0)" fill="#404254">
                <rect fill="#f2f5e9" fill-opacity="0.5" stroke="#606060" stroke-width=".5" x="0" y="0" width="60" height="60"/>
                <use id="zoomplus" xlink:href="#zoomPlus" x="17" y="9" onmousedown="handleZoom(evt,'in')"/>
                <use id="zoomminus" xlink:href="#zoomMin" x="42" y="9" onmousedown="handleZoom(evt,'out')"/>
                <use id="reset" xlink:href="#resetDef" x="30" y="36" onmousedown="handleReset()"/>
                <g id="arrowUp" xlink:href="#dirArrow" transform="translate(30 24)" onmousedown="handlePan(0,-1)">
                  <use xlink:href="#rim" fill="#404040">
                        <set attributeName="fill" to="#808080" begin="arrowUp.mouseover" end="arrowUp.mouseout"/>
                  </use>
                  <path fill="none" stroke="white" stroke-width="1.5" d="M0,-3.0v7 M-2.5,-0.5L0,-3.0L2.5,-0.5"/>
                </g>
                <g id="arrowRight" xlink:href="#dirArrow" transform="rotate(90) translate(36 -43)" onmousedown="handlePan(1,0)">
                  <use xlink:href="#rim" fill="#404040">
                        <set attributeName="fill" to="#808080" begin="arrowRight.mouseover" end="arrowRight.mouseout"/>
                  </use>
                  <path fill="none" stroke="white" stroke-width="1.5" d="M0,-3.0v7 M-2.5,-0.5L0,-3.0L2.5,-0.5"/>
                </g>
                <g id="arrowDown" xlink:href="#dirArrow" transform="rotate(180) translate(-30 -48)" onmousedown="handlePan(0,1)">
                  <use xlink:href="#rim" fill="#404040">
                        <set attributeName="fill" to="#808080" begin="arrowDown.mouseover" end="arrowDown.mouseout"/>
                  </use>
                  <path fill="none" stroke="white" stroke-width="1.5" d="M0,-3.0v7 M-2.5,-0.5L0,-3.0L2.5,-0.5"/>
                </g>
                <g id="arrowLeft" xlink:href="#dirArrow" transform="rotate(270) translate(-36 17)" onmousedown="handlePan(-1,0)">
                  <use xlink:href="#rim" fill="#404040">
                        <set attributeName="fill" to="#808080" begin="arrowLeft.mouseover" end="arrowLeft.mouseout"/>
                  </use>
                  <path fill="none" stroke="white" stroke-width="1.5" d="M0,-3.0v7 M-2.5,-0.5L0,-3.0L2.5,-0.5"/>
                </g>
        </g>
        <svg viewBox="0 0 15 15" width="100%" height="30px" preserveAspectRatio="xMaxYMin meet">
         <g id="arrow_out" transform="scale(0.3 0.3)">
          <a xlink:href="classSketchWidget_a7e1f2afd78bf7aa255e211af218f6e55_icgraph_org.svg" target="_base">
           <rect id="button" ry="5" rx="5" y="6" x="6" height="38" width="38"
                fill="#f2f5e9" fill-opacity="0.5" stroke="#606060" stroke-width="1.0"/>
           <path id="arrow"
             d="M 11.500037,31.436501 C 11.940474,20.09759 22.043105,11.32322 32.158766,21.979434 L 37.068811,17.246167 C 37.068811,17.246167 37.088388,32 37.088388,32 L 22.160133,31.978069 C 22.160133,31.978069 26.997745,27.140456 26.997745,27.140456 C 18.528582,18.264221 13.291696,25.230495 11.500037,31.436501 z"
             style="fill:#404040;"/>
          </a>
         </g>
        </svg>
</svg>
