<?xml version="1.0" encoding="UTF-8" standalone="no"?>
<!DOCTYPE svg PUBLIC "-//W3C//DTD SVG 1.1//EN"
 "http://www.w3.org/Graphics/SVG/1.1/DTD/svg11.dtd">
<!-- Generated by graphviz version 2.40.1 (0)
 -->
<!-- Title: PartsEditorView::ensureFixedToTopLeftItems Pages: 1 -->
<svg width="358pt" height="39pt"
 viewBox="0.00 0.00 358.00 39.00" xmlns="http://www.w3.org/2000/svg" xmlns:xlink="http://www.w3.org/1999/xlink">
<g id="graph0" class="graph" transform="scale(1 1) rotate(0) translate(4 35)">
<title>PartsEditorView::ensureFixedToTopLeftItems</title>
<polygon fill="#ffffff" stroke="transparent" points="-4,4 -4,-35 354,-35 354,4 -4,4"/>
<!-- Node1023 -->
<g id="node1" class="node">
<title>Node1023</title>
<g id="a_node1"><a xlink:title=" ">
<polygon fill="#bfbfbf" stroke="#000000" points="0,-.5 0,-30.5 157,-30.5 157,-.5 0,-.5"/>
<text text-anchor="start" x="8" y="-18.5" font-family="Helvetica,sans-Serif" font-size="10.00" fill="#000000">PartsEditorView::ensureFixed</text>
<text text-anchor="middle" x="78.5" y="-7.5" font-family="Helvetica,sans-Serif" font-size="10.00" fill="#000000">ToTopLeftItems</text>
</a>
</g>
</g>
<!-- Node1024 -->
<g id="node2" class="node">
<title>Node1024</title>
<g id="a_node2"><a xlink:href="../../d8/d37/classPartsEditorView.html#a4acc06fa55ba89a5c9b75e487f2302b6" target="_top" xlink:title=" ">
<polygon fill="#ffffff" stroke="#000000" points="193,-.5 193,-30.5 350,-30.5 350,-.5 193,-.5"/>
<text text-anchor="start" x="201" y="-18.5" font-family="Helvetica,sans-Serif" font-size="10.00" fill="#000000">PartsEditorView::ensureFixed</text>
<text text-anchor="middle" x="271.5" y="-7.5" font-family="Helvetica,sans-Serif" font-size="10.00" fill="#000000">ToTopLeft</text>
</a>
</g>
</g>
<!-- Node1023&#45;&gt;Node1024 -->
<g id="edge1" class="edge">
<title>Node1023&#45;&gt;Node1024</title>
<path fill="none" stroke="#191970" d="M157.0005,-15.5C165.4766,-15.5 174.1448,-15.5 182.7308,-15.5"/>
<polygon fill="#191970" stroke="#191970" points="182.756,-19.0001 192.7559,-15.5 182.7559,-12.0001 182.756,-19.0001"/>
</g>
</g>
</svg>
