<?xml version="1.0" encoding="UTF-8" standalone="no"?>
<!DOCTYPE svg PUBLIC "-//W3C//DTD SVG 1.1//EN"
 "http://www.w3.org/Graphics/SVG/1.1/DTD/svg11.dtd">
<!-- Generated by graphviz version 2.40.1 (0)
 -->
<!-- Title: SketchWidget::viewportEvent Pages: 1 -->
<!--zoomable 332 -->
<svg id="main" version="1.1" xmlns="http://www.w3.org/2000/svg" xmlns:xlink="http://www.w3.org/1999/xlink" xml:space="preserve" onload="init(evt)">
<style type="text/css"><![CDATA[
.edge:hover path { stroke: red; }
.edge:hover polygon { stroke: red; fill: red; }
]]></style>
<script type="text/javascript"><![CDATA[
var edges = document.getElementsByTagName('g');
if (edges && edges.length) {
  for (var i=0;i<edges.length;i++) {
    if (edges[i].id.substr(0,4)=='edge') {
      edges[i].setAttribute('class','edge');
    }
  }
}
]]></script>
        <defs>
                <circle id="rim" cx="0" cy="0" r="7"/>
                <circle id="rim2" cx="0" cy="0" r="3.5"/>
                <g id="zoomPlus">
                        <use xlink:href="#rim" fill="#404040">
                                <set attributeName="fill" to="#808080" begin="zoomplus.mouseover" end="zoomplus.mouseout"/>
                        </use>
                        <path d="M-4,0h8M0,-4v8" fill="none" stroke="white" stroke-width="1.5" pointer-events="none"/>
                </g>
                <g id="zoomMin">
                        <use xlink:href="#rim" fill="#404040">
                                <set attributeName="fill" to="#808080" begin="zoomminus.mouseover" end="zoomminus.mouseout"/>
                        </use>
                        <path d="M-4,0h8" fill="none" stroke="white" stroke-width="1.5" pointer-events="none"/>
                </g>
                <g id="dirArrow">
                        <path fill="none" stroke="white" stroke-width="1.5" d="M0,-3.0v7 M-2.5,-0.5L0,-3.0L2.5,-0.5"/>
                </g>
               <g id="resetDef">
                       <use xlink:href="#rim2" fill="#404040">
                               <set attributeName="fill" to="#808080" begin="reset.mouseover" end="reset.mouseout"/>
                       </use>
               </g>
        </defs>

<script type="text/javascript">
var viewWidth = 909;
var viewHeight = 332;
var sectionId = 'dynsection-616';
</script>
<script xlink:href="../../svgpan.js"/>
<svg id="graph" class="graph">
<g id="viewport">
<title>SketchWidget::viewportEvent</title>
<polygon fill="#ffffff" stroke="transparent" points="-4,4 -4,-328 905,-328 905,4 -4,4"/>
<!-- Node24712 -->
<g id="node1" class="node">
<title>Node24712</title>
<g id="a_node1"><a xlink:title=" ">
<polygon fill="#bfbfbf" stroke="#000000" points="0,-76.5 0,-95.5 160,-95.5 160,-76.5 0,-76.5"/>
<text text-anchor="middle" x="80" y="-83.5" font-family="Helvetica,sans-Serif" font-size="10.00" fill="#000000">SketchWidget::viewportEvent</text>
</a>
</g>
</g>
<!-- Node24713 -->
<g id="node2" class="node">
<title>Node24713</title>
<g id="a_node2"><a xlink:href="../../d8/d37/classSketchWidget.html#afe422b82037595e5df7de5949df2b469" target="_top" xlink:title=" ">
<polygon fill="#ffffff" stroke="#000000" points="196,-133.5 196,-152.5 355,-152.5 355,-133.5 196,-133.5"/>
<text text-anchor="middle" x="275.5" y="-140.5" font-family="Helvetica,sans-Serif" font-size="10.00" fill="#000000">SketchWidget::squashShapes</text>
</a>
</g>
</g>
<!-- Node24712&#45;&gt;Node24713 -->
<g id="edge1" class="edge">
<title>Node24712&#45;&gt;Node24713</title>
<path fill="none" stroke="#191970" d="M112.7223,-95.5405C145.7092,-105.1582 196.7777,-120.0477 232.9049,-130.581"/>
<polygon fill="#191970" stroke="#191970" points="232.091,-133.9893 242.6709,-133.4284 234.0504,-127.2691 232.091,-133.9893"/>
</g>
<!-- Node24724 -->
<g id="node13" class="node">
<title>Node24724</title>
<g id="a_node13"><a xlink:href="../../d8/d37/classSketchWidget.html#ac1e809fcf1c3e12730dbd2021f452ff2" target="_top" xlink:title=" ">
<polygon fill="#ffffff" stroke="#000000" points="391,-.5 391,-19.5 562,-19.5 562,-.5 391,-.5"/>
<text text-anchor="middle" x="476.5" y="-7.5" font-family="Helvetica,sans-Serif" font-size="10.00" fill="#000000">SketchWidget::unsquashShapes</text>
</a>
</g>
</g>
<!-- Node24712&#45;&gt;Node24724 -->
<g id="edge15" class="edge">
<title>Node24712&#45;&gt;Node24724</title>
<path fill="none" stroke="#191970" d="M129.8155,-76.4515C202.769,-62.468 338.4698,-36.4572 416.7084,-21.4607"/>
<polygon fill="#191970" stroke="#191970" points="417.726,-24.8294 426.8883,-19.5094 416.4081,-17.9546 417.726,-24.8294"/>
</g>
<!-- Node24714 -->
<g id="node3" class="node">
<title>Node24714</title>
<g id="a_node3"><a xlink:href="../../dc/d09/classNonConnectorItem.html#a1452f3637c83b50fbd089f9c4b4518b6" target="_top" xlink:title=" ">
<polygon fill="#ffffff" stroke="#000000" points="393,-304.5 393,-323.5 560,-323.5 560,-304.5 393,-304.5"/>
<text text-anchor="middle" x="476.5" y="-311.5" font-family="Helvetica,sans-Serif" font-size="10.00" fill="#000000">NonConnectorItem::attachedTo</text>
</a>
</g>
</g>
<!-- Node24713&#45;&gt;Node24714 -->
<g id="edge2" class="edge">
<title>Node24713&#45;&gt;Node24714</title>
<path fill="none" stroke="#191970" d="M279.8522,-152.7101C292.6014,-179.9672 332.6764,-257.6297 391,-295 394.1968,-297.0483 397.5833,-298.8778 401.0922,-300.5117"/>
<polygon fill="#191970" stroke="#191970" points="400.0385,-303.8617 410.6198,-304.3957 402.681,-297.3796 400.0385,-303.8617"/>
</g>
<!-- Node24715 -->
<g id="node4" class="node">
<title>Node24715</title>
<g id="a_node4"><a xlink:href="../../d4/d4f/classItemBase.html#afe2eaccd6266f7c70092425055e9e726" target="_top" xlink:title=" ">
<polygon fill="#ffffff" stroke="#000000" points="408.5,-266.5 408.5,-285.5 544.5,-285.5 544.5,-266.5 408.5,-266.5"/>
<text text-anchor="middle" x="476.5" y="-273.5" font-family="Helvetica,sans-Serif" font-size="10.00" fill="#000000">ItemBase::boundingRect</text>
</a>
</g>
</g>
<!-- Node24713&#45;&gt;Node24715 -->
<g id="edge3" class="edge">
<title>Node24713&#45;&gt;Node24715</title>
<path fill="none" stroke="#191970" d="M282.3164,-152.7739C298.4287,-175.0827 341.2686,-229.9112 391,-257 395.2021,-259.2889 399.6631,-261.3022 404.2558,-263.073"/>
<polygon fill="#191970" stroke="#191970" points="403.2325,-266.4224 413.8273,-266.378 405.5173,-259.8057 403.2325,-266.4224"/>
</g>
<!-- Node24719 -->
<g id="node8" class="node">
<title>Node24719</title>
<g id="a_node8"><a xlink:href="../../d4/d4f/classItemBase.html#a52cffbbd80ca912411942ae25239cf35" target="_top" xlink:title=" ">
<polygon fill="#ffffff" stroke="#000000" points="425.5,-228.5 425.5,-247.5 527.5,-247.5 527.5,-228.5 425.5,-228.5"/>
<text text-anchor="middle" x="476.5" y="-235.5" font-family="Helvetica,sans-Serif" font-size="10.00" fill="#000000">ItemBase::hidden</text>
</a>
</g>
</g>
<!-- Node24713&#45;&gt;Node24719 -->
<g id="edge7" class="edge">
<title>Node24713&#45;&gt;Node24719</title>
<path fill="none" stroke="#191970" d="M286.8218,-152.5156C306.6319,-168.6697 349.441,-201.4131 391,-219 398.7501,-222.2797 407.1453,-225.0293 415.5443,-227.3248"/>
<polygon fill="#191970" stroke="#191970" points="414.814,-230.7503 425.3675,-229.8154 416.5344,-223.965 414.814,-230.7503"/>
</g>
<!-- Node24720 -->
<g id="node9" class="node">
<title>Node24720</title>
<g id="a_node9"><a xlink:href="../../d4/d4f/classItemBase.html#a0563aba348d06b8c576ff062c3b039d2" target="_top" xlink:title=" ">
<polygon fill="#ffffff" stroke="#000000" points="422.5,-190.5 422.5,-209.5 530.5,-209.5 530.5,-190.5 422.5,-190.5"/>
<text text-anchor="middle" x="476.5" y="-197.5" font-family="Helvetica,sans-Serif" font-size="10.00" fill="#000000">ItemBase::inactive</text>
</a>
</g>
</g>
<!-- Node24713&#45;&gt;Node24720 -->
<g id="edge8" class="edge">
<title>Node24713&#45;&gt;Node24720</title>
<path fill="none" stroke="#191970" d="M301.8798,-152.5081C325.144,-160.6935 360.0612,-172.4954 391,-181 400.2497,-183.5426 410.1327,-185.9859 419.7753,-188.2244"/>
<polygon fill="#191970" stroke="#191970" points="419.1734,-191.6767 429.7003,-190.4786 420.7239,-184.8506 419.1734,-191.6767"/>
</g>
<!-- Node24721 -->
<g id="node10" class="node">
<title>Node24721</title>
<g id="a_node10"><a xlink:href="../../d4/d4f/classItemBase.html#a7f8248e87b153adfd111e851bd4e4060" target="_top" xlink:title=" ">
<polygon fill="#ffffff" stroke="#000000" points="412.5,-152.5 412.5,-171.5 540.5,-171.5 540.5,-152.5 412.5,-152.5"/>
<text text-anchor="middle" x="476.5" y="-159.5" font-family="Helvetica,sans-Serif" font-size="10.00" fill="#000000">ItemBase::layerHidden</text>
</a>
</g>
</g>
<!-- Node24713&#45;&gt;Node24721 -->
<g id="edge9" class="edge">
<title>Node24713&#45;&gt;Node24721</title>
<path fill="none" stroke="#191970" d="M355.2292,-150.5366C370.6356,-151.9929 386.723,-153.5136 401.9562,-154.9536"/>
<polygon fill="#191970" stroke="#191970" points="402.062,-158.4791 412.347,-155.9358 402.7208,-151.5102 402.062,-158.4791"/>
</g>
<!-- Node24722 -->
<g id="node11" class="node">
<title>Node24722</title>
<g id="a_node11"><a xlink:href="../../d4/d4f/classItemBase.html#aee88fec5879eb77d63f6df0c4f6067f0" target="_top" xlink:title=" ">
<polygon fill="#ffffff" stroke="#000000" points="405,-114.5 405,-133.5 548,-133.5 548,-114.5 405,-114.5"/>
<text text-anchor="middle" x="476.5" y="-121.5" font-family="Helvetica,sans-Serif" font-size="10.00" fill="#000000">ItemBase::selectionShape</text>
</a>
</g>
</g>
<!-- Node24713&#45;&gt;Node24722 -->
<g id="edge10" class="edge">
<title>Node24713&#45;&gt;Node24722</title>
<path fill="none" stroke="#191970" d="M355.2292,-135.4634C368.1156,-134.2453 381.4783,-132.9822 394.4192,-131.7589"/>
<polygon fill="#191970" stroke="#191970" points="395.0637,-135.2137 404.6899,-130.788 394.4048,-128.2447 395.0637,-135.2137"/>
</g>
<!-- Node24723 -->
<g id="node12" class="node">
<title>Node24723</title>
<g id="a_node12"><a xlink:href="../../d4/d4f/classItemBase.html#a0080846d29476b165582298d291c68d9" target="_top" xlink:title=" ">
<polygon fill="#ffffff" stroke="#000000" points="599,-38.5 599,-57.5 748,-57.5 748,-38.5 599,-38.5"/>
<text text-anchor="middle" x="673.5" y="-45.5" font-family="Helvetica,sans-Serif" font-size="10.00" fill="#000000">ItemBase::setSquashShape</text>
</a>
</g>
</g>
<!-- Node24713&#45;&gt;Node24723 -->
<g id="edge11" class="edge">
<title>Node24713&#45;&gt;Node24723</title>
<path fill="none" stroke="#191970" d="M301.8394,-133.3418C325.0776,-125.0601 359.9795,-113.2014 391,-105 463.6685,-85.7874 548.3343,-69.4946 605.8913,-59.3111"/>
<polygon fill="#191970" stroke="#191970" points="606.7131,-62.7205 615.957,-57.5436 605.5024,-55.8259 606.7131,-62.7205"/>
</g>
<!-- Node24713&#45;&gt;Node24724 -->
<g id="edge12" class="edge">
<title>Node24713&#45;&gt;Node24724</title>
<path fill="none" stroke="#191970" d="M290.3666,-133.4338C307.2112,-122.1579 334.9264,-102.2475 355,-81 374.3037,-60.5674 367.6737,-44.6846 391,-29 394.0837,-26.9266 397.3577,-25.0758 400.7577,-23.4242"/>
<polygon fill="#191970" stroke="#191970" points="402.168,-26.6279 410.0075,-19.501 399.4347,-20.1836 402.168,-26.6279"/>
</g>
<!-- Node24725 -->
<g id="node14" class="node">
<title>Node24725</title>
<g id="a_node14"><a xlink:href="../../d8/d37/classSketchWidget.html#aad6b7b43a75038116e316bb711c7d638" target="_top" xlink:title=" ">
<polygon fill="#ffffff" stroke="#000000" points="415,-38.5 415,-57.5 538,-57.5 538,-38.5 415,-38.5"/>
<text text-anchor="middle" x="476.5" y="-45.5" font-family="Helvetica,sans-Serif" font-size="10.00" fill="#000000">SketchWidget::viewID</text>
</a>
</g>
</g>
<!-- Node24713&#45;&gt;Node24725 -->
<g id="edge14" class="edge">
<title>Node24713&#45;&gt;Node24725</title>
<path fill="none" stroke="#191970" d="M288.3537,-133.43C309.0135,-118.4434 351.3218,-89.3595 391,-72 401.2736,-67.5052 412.6112,-63.6272 423.5789,-60.3783"/>
<polygon fill="#191970" stroke="#191970" points="424.8354,-63.6603 433.5061,-57.5718 422.9311,-56.9243 424.8354,-63.6603"/>
</g>
<!-- Node24716 -->
<g id="node5" class="node">
<title>Node24716</title>
<g id="a_node5"><a xlink:href="../../df/db0/classFSvgRenderer.html#abfa59a6da2875e59a5ab3112fd644ade" target="_top" xlink:title=" ">
<polygon fill="#ffffff" stroke="#000000" points="598,-285.5 598,-304.5 749,-304.5 749,-285.5 598,-285.5"/>
<text text-anchor="middle" x="673.5" y="-292.5" font-family="Helvetica,sans-Serif" font-size="10.00" fill="#000000">FSvgRenderer::defaultSizeF</text>
</a>
</g>
</g>
<!-- Node24715&#45;&gt;Node24716 -->
<g id="edge4" class="edge">
<title>Node24715&#45;&gt;Node24716</title>
<path fill="none" stroke="#191970" d="M544.5721,-282.5653C558.354,-283.8946 573.0173,-285.3088 587.3278,-286.689"/>
<polygon fill="#191970" stroke="#191970" points="587.3783,-290.21 597.6682,-287.6863 588.0504,-283.2423 587.3783,-290.21"/>
</g>
<!-- Node24717 -->
<g id="node6" class="node">
<title>Node24717</title>
<g id="a_node6"><a xlink:href="../../d4/d4f/classItemBase.html#a783246d1e45a53efa9e044fca46d2c9f" target="_top" xlink:title=" ">
<polygon fill="#ffffff" stroke="#000000" points="606.5,-247.5 606.5,-266.5 740.5,-266.5 740.5,-247.5 606.5,-247.5"/>
<text text-anchor="middle" x="673.5" y="-254.5" font-family="Helvetica,sans-Serif" font-size="10.00" fill="#000000">ItemBase::fsvgRenderer</text>
</a>
</g>
</g>
<!-- Node24715&#45;&gt;Node24717 -->
<g id="edge5" class="edge">
<title>Node24715&#45;&gt;Node24717</title>
<path fill="none" stroke="#191970" d="M544.5721,-269.4347C561.3064,-267.8207 579.3401,-266.0814 596.4641,-264.4299"/>
<polygon fill="#191970" stroke="#191970" points="596.8068,-267.9131 606.4246,-263.4692 596.1348,-260.9455 596.8068,-267.9131"/>
</g>
<!-- Node24718 -->
<g id="node7" class="node">
<title>Node24718</title>
<g id="a_node7"><a xlink:href="../../da/d3a/classDebugDialog.html#ad26216d18945d7d7188420707b76f241" target="_top" xlink:title=" ">
<polygon fill="#ffffff" stroke="#000000" points="785,-247.5 785,-266.5 901,-266.5 901,-247.5 785,-247.5"/>
<text text-anchor="middle" x="843" y="-254.5" font-family="Helvetica,sans-Serif" font-size="10.00" fill="#000000">DebugDialog::debug</text>
</a>
</g>
</g>
<!-- Node24717&#45;&gt;Node24718 -->
<g id="edge6" class="edge">
<title>Node24717&#45;&gt;Node24718</title>
<path fill="none" stroke="#191970" d="M740.9779,-257C752.0751,-257 763.5849,-257 774.702,-257"/>
<polygon fill="#191970" stroke="#191970" points="774.778,-260.5001 784.778,-257 774.7779,-253.5001 774.778,-260.5001"/>
</g>
<!-- Node24724&#45;&gt;Node24723 -->
<g id="edge13" class="edge">
<title>Node24724&#45;&gt;Node24723</title>
<path fill="none" stroke="#191970" d="M525.9571,-19.54C552.654,-24.6896 585.804,-31.084 613.9151,-36.5065"/>
<polygon fill="#191970" stroke="#191970" points="613.5406,-39.9987 624.0225,-38.4561 614.8665,-33.1254 613.5406,-39.9987"/>
</g>
</g>
</svg>
        <g id="navigator" transform="translate(0 0)" fill="#404254">
                <rect fill="#f2f5e9" fill-opacity="0.5" stroke="#606060" stroke-width=".5" x="0" y="0" width="60" height="60"/>
                <use id="zoomplus" xlink:href="#zoomPlus" x="17" y="9" onmousedown="handleZoom(evt,'in')"/>
                <use id="zoomminus" xlink:href="#zoomMin" x="42" y="9" onmousedown="handleZoom(evt,'out')"/>
                <use id="reset" xlink:href="#resetDef" x="30" y="36" onmousedown="handleReset()"/>
                <g id="arrowUp" xlink:href="#dirArrow" transform="translate(30 24)" onmousedown="handlePan(0,-1)">
                  <use xlink:href="#rim" fill="#404040">
                        <set attributeName="fill" to="#808080" begin="arrowUp.mouseover" end="arrowUp.mouseout"/>
                  </use>
                  <path fill="none" stroke="white" stroke-width="1.5" d="M0,-3.0v7 M-2.5,-0.5L0,-3.0L2.5,-0.5"/>
                </g>
                <g id="arrowRight" xlink:href="#dirArrow" transform="rotate(90) translate(36 -43)" onmousedown="handlePan(1,0)">
                  <use xlink:href="#rim" fill="#404040">
                        <set attributeName="fill" to="#808080" begin="arrowRight.mouseover" end="arrowRight.mouseout"/>
                  </use>
                  <path fill="none" stroke="white" stroke-width="1.5" d="M0,-3.0v7 M-2.5,-0.5L0,-3.0L2.5,-0.5"/>
                </g>
                <g id="arrowDown" xlink:href="#dirArrow" transform="rotate(180) translate(-30 -48)" onmousedown="handlePan(0,1)">
                  <use xlink:href="#rim" fill="#404040">
                        <set attributeName="fill" to="#808080" begin="arrowDown.mouseover" end="arrowDown.mouseout"/>
                  </use>
                  <path fill="none" stroke="white" stroke-width="1.5" d="M0,-3.0v7 M-2.5,-0.5L0,-3.0L2.5,-0.5"/>
                </g>
                <g id="arrowLeft" xlink:href="#dirArrow" transform="rotate(270) translate(-36 17)" onmousedown="handlePan(-1,0)">
                  <use xlink:href="#rim" fill="#404040">
                        <set attributeName="fill" to="#808080" begin="arrowLeft.mouseover" end="arrowLeft.mouseout"/>
                  </use>
                  <path fill="none" stroke="white" stroke-width="1.5" d="M0,-3.0v7 M-2.5,-0.5L0,-3.0L2.5,-0.5"/>
                </g>
        </g>
        <svg viewBox="0 0 15 15" width="100%" height="30px" preserveAspectRatio="xMaxYMin meet">
         <g id="arrow_out" transform="scale(0.3 0.3)">
          <a xlink:href="classSketchWidget_a365ab308c56d4342d93712a28000060e_cgraph_org.svg" target="_base">
           <rect id="button" ry="5" rx="5" y="6" x="6" height="38" width="38"
                fill="#f2f5e9" fill-opacity="0.5" stroke="#606060" stroke-width="1.0"/>
           <path id="arrow"
             d="M 11.500037,31.436501 C 11.940474,20.09759 22.043105,11.32322 32.158766,21.979434 L 37.068811,17.246167 C 37.068811,17.246167 37.088388,32 37.088388,32 L 22.160133,31.978069 C 22.160133,31.978069 26.997745,27.140456 26.997745,27.140456 C 18.528582,18.264221 13.291696,25.230495 11.500037,31.436501 z"
             style="fill:#404040;"/>
          </a>
         </g>
        </svg>
</svg>
