<?xml version="1.0" encoding="UTF-8" standalone="no"?>
<!DOCTYPE svg PUBLIC "-//W3C//DTD SVG 1.1//EN"
 "http://www.w3.org/Graphics/SVG/1.1/DTD/svg11.dtd">
<!-- Generated by graphviz version 2.40.1 (0)
 -->
<!-- Title: SketchWidget::bringForward Pages: 1 -->
<!--zoomable 259 -->
<svg id="main" version="1.1" xmlns="http://www.w3.org/2000/svg" xmlns:xlink="http://www.w3.org/1999/xlink" xml:space="preserve" onload="init(evt)">
<style type="text/css"><![CDATA[
.edge:hover path { stroke: red; }
.edge:hover polygon { stroke: red; fill: red; }
]]></style>
<script type="text/javascript"><![CDATA[
var edges = document.getElementsByTagName('g');
if (edges && edges.length) {
  for (var i=0;i<edges.length;i++) {
    if (edges[i].id.substr(0,4)=='edge') {
      edges[i].setAttribute('class','edge');
    }
  }
}
]]></script>
        <defs>
                <circle id="rim" cx="0" cy="0" r="7"/>
                <circle id="rim2" cx="0" cy="0" r="3.5"/>
                <g id="zoomPlus">
                        <use xlink:href="#rim" fill="#404040">
                                <set attributeName="fill" to="#808080" begin="zoomplus.mouseover" end="zoomplus.mouseout"/>
                        </use>
                        <path d="M-4,0h8M0,-4v8" fill="none" stroke="white" stroke-width="1.5" pointer-events="none"/>
                </g>
                <g id="zoomMin">
                        <use xlink:href="#rim" fill="#404040">
                                <set attributeName="fill" to="#808080" begin="zoomminus.mouseover" end="zoomminus.mouseout"/>
                        </use>
                        <path d="M-4,0h8" fill="none" stroke="white" stroke-width="1.5" pointer-events="none"/>
                </g>
                <g id="dirArrow">
                        <path fill="none" stroke="white" stroke-width="1.5" d="M0,-3.0v7 M-2.5,-0.5L0,-3.0L2.5,-0.5"/>
                </g>
               <g id="resetDef">
                       <use xlink:href="#rim2" fill="#404040">
                               <set attributeName="fill" to="#808080" begin="reset.mouseover" end="reset.mouseout"/>
                       </use>
               </g>
        </defs>

<script type="text/javascript">
var viewWidth = 1573;
var viewHeight = 259;
var sectionId = 'dynsection-42';
</script>
<script xlink:href="../../svgpan.js"/>
<svg id="graph" class="graph">
<g id="viewport">
<title>SketchWidget::bringForward</title>
<polygon fill="#ffffff" stroke="transparent" points="-4,4 -4,-255 1569,-255 1569,4 -4,4"/>
<!-- Node3245 -->
<g id="node1" class="node">
<title>Node3245</title>
<g id="a_node1"><a xlink:title=" ">
<polygon fill="#bfbfbf" stroke="#000000" points="0,-38.5 0,-57.5 153,-57.5 153,-38.5 0,-38.5"/>
<text text-anchor="middle" x="76.5" y="-45.5" font-family="Helvetica,sans-Serif" font-size="10.00" fill="#000000">SketchWidget::bringForward</text>
</a>
</g>
</g>
<!-- Node3246 -->
<g id="node2" class="node">
<title>Node3246</title>
<g id="a_node2"><a xlink:href="../../d8/d37/classSketchWidget.html#aab72c18413fc82c550811ea3906d66b9" target="_top" xlink:title=" ">
<polygon fill="#ffffff" stroke="#000000" points="189,-76.5 189,-95.5 364,-95.5 364,-76.5 189,-76.5"/>
<text text-anchor="middle" x="276.5" y="-83.5" font-family="Helvetica,sans-Serif" font-size="10.00" fill="#000000">SketchWidget::continueZChange</text>
</a>
</g>
</g>
<!-- Node3245&#45;&gt;Node3246 -->
<g id="edge1" class="edge">
<title>Node3245&#45;&gt;Node3246</title>
<path fill="none" stroke="#191970" d="M126.7103,-57.54C153.9326,-62.7122 187.7639,-69.1401 216.3829,-74.5778"/>
<polygon fill="#191970" stroke="#191970" points="215.7915,-78.0279 226.2691,-76.4561 217.0981,-71.1509 215.7915,-78.0279"/>
</g>
<!-- Node3261 -->
<g id="node17" class="node">
<title>Node3261</title>
<g id="a_node17"><a xlink:href="../../d8/d37/classSketchWidget.html#a7e9cc47ab909efa0e338ddf80f455754" target="_top" xlink:title=" ">
<polygon fill="#ffffff" stroke="#000000" points="202,-38.5 202,-57.5 351,-57.5 351,-38.5 202,-38.5"/>
<text text-anchor="middle" x="276.5" y="-45.5" font-family="Helvetica,sans-Serif" font-size="10.00" fill="#000000">SketchWidget::greaterThan</text>
</a>
</g>
</g>
<!-- Node3245&#45;&gt;Node3261 -->
<g id="edge16" class="edge">
<title>Node3245&#45;&gt;Node3261</title>
<path fill="none" stroke="#191970" d="M153.2532,-48C165.8569,-48 178.9821,-48 191.7664,-48"/>
<polygon fill="#191970" stroke="#191970" points="191.9297,-51.5001 201.9296,-48 191.9296,-44.5001 191.9297,-51.5001"/>
</g>
<!-- Node3262 -->
<g id="node18" class="node">
<title>Node3262</title>
<g id="a_node18"><a xlink:href="../../d8/d37/classSketchWidget.html#a6162d676fd1f45ca85cdeb917fe9a455" target="_top" xlink:title=" ">
<polygon fill="#ffffff" stroke="#000000" points="199,-.5 199,-19.5 354,-19.5 354,-.5 199,-.5"/>
<text text-anchor="middle" x="276.5" y="-7.5" font-family="Helvetica,sans-Serif" font-size="10.00" fill="#000000">SketchWidget::startZChange</text>
</a>
</g>
</g>
<!-- Node3245&#45;&gt;Node3262 -->
<g id="edge17" class="edge">
<title>Node3245&#45;&gt;Node3262</title>
<path fill="none" stroke="#191970" d="M126.7103,-38.46C153.9326,-33.2878 187.7639,-26.8599 216.3829,-21.4222"/>
<polygon fill="#191970" stroke="#191970" points="217.0981,-24.8491 226.2691,-19.5439 215.7915,-17.9721 217.0981,-24.8491"/>
</g>
<!-- Node3247 -->
<g id="node3" class="node">
<title>Node3247</title>
<g id="a_node3"><a xlink:href="../../d4/d4f/classItemBase.html#a8380ad795c557dd4a345b2c0113325dd" target="_top" xlink:title=" ">
<polygon fill="#ffffff" stroke="#000000" points="1003.5,-66.5 1003.5,-85.5 1161.5,-85.5 1161.5,-66.5 1003.5,-66.5"/>
<text text-anchor="middle" x="1082.5" y="-73.5" font-family="Helvetica,sans-Serif" font-size="10.00" fill="#000000">ItemBase::getViewGeometry</text>
</a>
</g>
</g>
<!-- Node3246&#45;&gt;Node3247 -->
<g id="edge2" class="edge">
<title>Node3246&#45;&gt;Node3247</title>
<path fill="none" stroke="#191970" d="M326.7724,-95.5134C349.1074,-99.2791 375.7743,-103.1474 400,-105 612.4899,-121.2498 862.9444,-100.3988 993.3722,-86.5249"/>
<polygon fill="#191970" stroke="#191970" points="993.7502,-90.0045 1003.3188,-85.4556 993.0019,-83.0446 993.7502,-90.0045"/>
</g>
<!-- Node3248 -->
<g id="node4" class="node">
<title>Node3248</title>
<g id="a_node4"><a xlink:href="../../d3/de8/classViewGeometry.html#a72654cc7bb8e2519ceb5e1d8480d8a65" target="_top" xlink:title=" ">
<polygon fill="#ffffff" stroke="#000000" points="429,-76.5 429,-95.5 565,-95.5 565,-76.5 429,-76.5"/>
<text text-anchor="middle" x="497" y="-83.5" font-family="Helvetica,sans-Serif" font-size="10.00" fill="#000000">ViewGeometry::selected</text>
</a>
</g>
</g>
<!-- Node3246&#45;&gt;Node3248 -->
<g id="edge3" class="edge">
<title>Node3246&#45;&gt;Node3248</title>
<path fill="none" stroke="#191970" d="M364.281,-86C382.2517,-86 401.0541,-86 418.6672,-86"/>
<polygon fill="#191970" stroke="#191970" points="418.8848,-89.5001 428.8848,-86 418.8848,-82.5001 418.8848,-89.5001"/>
</g>
<!-- Node3249 -->
<g id="node5" class="node">
<title>Node3249</title>
<g id="a_node5"><a xlink:href="../../d4/d4f/classItemBase.html#a8f16baa26ee92ac6cd8dda5c69d759d4" target="_top" xlink:title=" ">
<polygon fill="#ffffff" stroke="#000000" points="432,-38.5 432,-57.5 562,-57.5 562,-38.5 432,-38.5"/>
<text text-anchor="middle" x="497" y="-45.5" font-family="Helvetica,sans-Serif" font-size="10.00" fill="#000000">ItemBase::viewLayerID</text>
</a>
</g>
</g>
<!-- Node3246&#45;&gt;Node3249 -->
<g id="edge4" class="edge">
<title>Node3246&#45;&gt;Node3249</title>
<path fill="none" stroke="#191970" d="M331.8568,-76.46C362.1315,-71.2426 399.8205,-64.7475 431.5463,-59.28"/>
<polygon fill="#191970" stroke="#191970" points="432.3601,-62.6914 441.6204,-57.5439 431.1712,-55.7931 432.3601,-62.6914"/>
</g>
<!-- Node3250 -->
<g id="node6" class="node">
<title>Node3250</title>
<g id="a_node6"><a xlink:href="../../d8/d37/classSketchWidget.html#afb6b376845053233d0e4d6b114c81d20" target="_top" xlink:title=" ">
<polygon fill="#ffffff" stroke="#000000" points="400,-174.5 400,-193.5 594,-193.5 594,-174.5 400,-174.5"/>
<text text-anchor="middle" x="497" y="-181.5" font-family="Helvetica,sans-Serif" font-size="10.00" fill="#000000">SketchWidget::continueZChangeAux</text>
</a>
</g>
</g>
<!-- Node3246&#45;&gt;Node3250 -->
<g id="edge5" class="edge">
<title>Node3246&#45;&gt;Node3250</title>
<path fill="none" stroke="#191970" d="M298.0439,-95.5751C337.3168,-113.0297 420.6739,-150.0773 466.0306,-170.2358"/>
<polygon fill="#191970" stroke="#191970" points="464.809,-173.5229 475.3686,-174.386 467.652,-167.1263 464.809,-173.5229"/>
</g>
<!-- Node3251 -->
<g id="node7" class="node">
<title>Node3251</title>
<g id="a_node7"><a xlink:href="../../d5/d9d/classViewLayer.html#abc0a1a93f87567c05f7ae20ee558d142" target="_top" xlink:title=" ">
<polygon fill="#ffffff" stroke="#000000" points="639,-231.5 639,-250.5 785,-250.5 785,-231.5 639,-231.5"/>
<text text-anchor="middle" x="712" y="-238.5" font-family="Helvetica,sans-Serif" font-size="10.00" fill="#000000">ViewLayer::getZIncrement</text>
</a>
</g>
</g>
<!-- Node3250&#45;&gt;Node3251 -->
<g id="edge6" class="edge">
<title>Node3250&#45;&gt;Node3251</title>
<path fill="none" stroke="#191970" d="M528.5867,-193.5123C555.4574,-201.4871 595.1253,-212.9837 630,-222 639.3455,-224.4161 649.3276,-226.8504 658.9955,-229.1325"/>
<polygon fill="#191970" stroke="#191970" points="658.3831,-232.5836 668.917,-231.4486 659.9745,-225.7669 658.3831,-232.5836"/>
</g>
<!-- Node3252 -->
<g id="node8" class="node">
<title>Node3252</title>
<g id="a_node8"><a xlink:href="../../d2/dd2/classChangeZCommand.html#ad19fec70cd8a41d597d7daa77046c049" target="_top" xlink:title=" ">
<polygon fill="#ffffff" stroke="#000000" points="630,-193.5 630,-212.5 794,-212.5 794,-193.5 630,-193.5"/>
<text text-anchor="middle" x="712" y="-200.5" font-family="Helvetica,sans-Serif" font-size="10.00" fill="#000000">ChangeZCommand::addTriplet</text>
</a>
</g>
</g>
<!-- Node3250&#45;&gt;Node3252 -->
<g id="edge7" class="edge">
<title>Node3250&#45;&gt;Node3252</title>
<path fill="none" stroke="#191970" d="M594.1213,-192.5828C602.5866,-193.3309 611.1386,-194.0867 619.5646,-194.8313"/>
<polygon fill="#191970" stroke="#191970" points="619.4963,-198.3388 629.7656,-195.7328 620.1126,-191.366 619.4963,-198.3388"/>
</g>
<!-- Node3253 -->
<g id="node9" class="node">
<title>Node3253</title>
<g id="a_node9"><a xlink:href="../../d0/dbb/classWaitPushUndoStack.html#a279fdca551f05e81111de92ea5b2145c" target="_top" xlink:title=" ">
<polygon fill="#ffffff" stroke="#000000" points="640.5,-155.5 640.5,-174.5 783.5,-174.5 783.5,-155.5 640.5,-155.5"/>
<text text-anchor="middle" x="712" y="-162.5" font-family="Helvetica,sans-Serif" font-size="10.00" fill="#000000">WaitPushUndoStack::push</text>
</a>
</g>
</g>
<!-- Node3250&#45;&gt;Node3253 -->
<g id="edge8" class="edge">
<title>Node3250&#45;&gt;Node3253</title>
<path fill="none" stroke="#191970" d="M594.1213,-175.4172C606.1711,-174.3523 618.3965,-173.2719 630.1843,-172.2302"/>
<polygon fill="#191970" stroke="#191970" points="630.7621,-175.6929 640.4151,-171.3261 630.1458,-168.7201 630.7621,-175.6929"/>
</g>
<!-- Node3254 -->
<g id="node10" class="node">
<title>Node3254</title>
<g id="a_node10"><a xlink:href="../../d0/dbb/classWaitPushUndoStack.html#a2b0322812e333fec2b4d0d12b12e634c" target="_top" xlink:title=" ">
<polygon fill="#ffffff" stroke="#000000" points="830,-153 830,-183 950,-183 950,-153 830,-153"/>
<text text-anchor="start" x="838" y="-171" font-family="Helvetica,sans-Serif" font-size="10.00" fill="#000000">WaitPushUndoStack::</text>
<text text-anchor="middle" x="890" y="-160" font-family="Helvetica,sans-Serif" font-size="10.00" fill="#000000">writeUndo</text>
</a>
</g>
</g>
<!-- Node3253&#45;&gt;Node3254 -->
<g id="edge9" class="edge">
<title>Node3253&#45;&gt;Node3254</title>
<path fill="none" stroke="#191970" d="M783.63,-166.2072C795.5101,-166.4075 807.8198,-166.6149 819.6674,-166.8146"/>
<polygon fill="#191970" stroke="#191970" points="819.8799,-170.3186 829.9375,-166.9877 819.9979,-163.3196 819.8799,-170.3186"/>
</g>
<!-- Node3255 -->
<g id="node11" class="node">
<title>Node3255</title>
<g id="a_node11"><a xlink:href="../../d8/d6e/classBaseCommand.html#a2d7619b36325bfec9111724045c24b8e" target="_top" xlink:title=" ">
<polygon fill="#ffffff" stroke="#000000" points="996,-153.5 996,-172.5 1169,-172.5 1169,-153.5 996,-153.5"/>
<text text-anchor="middle" x="1082.5" y="-160.5" font-family="Helvetica,sans-Serif" font-size="10.00" fill="#000000">BaseCommand::getDebugString</text>
</a>
</g>
</g>
<!-- Node3254&#45;&gt;Node3255 -->
<g id="edge10" class="edge">
<title>Node3254&#45;&gt;Node3255</title>
<path fill="none" stroke="#191970" d="M950.1164,-166.4385C961.4065,-166.1453 973.4726,-165.8319 985.5533,-165.5181"/>
<polygon fill="#191970" stroke="#191970" points="985.7822,-169.0134 995.6879,-165.2549 985.6003,-162.0158 985.7822,-169.0134"/>
</g>
<!-- Node3258 -->
<g id="node14" class="node">
<title>Node3258</title>
<g id="a_node14"><a xlink:href="../../d8/d6e/classBaseCommand.html#af34b4e2829ad3b7b718499916fd87cbb" target="_top" xlink:title=" ">
<polygon fill="#ffffff" stroke="#000000" points="1020.5,-115.5 1020.5,-134.5 1144.5,-134.5 1144.5,-115.5 1020.5,-115.5"/>
<text text-anchor="middle" x="1082.5" y="-122.5" font-family="Helvetica,sans-Serif" font-size="10.00" fill="#000000">BaseCommand::index</text>
</a>
</g>
</g>
<!-- Node3254&#45;&gt;Node3258 -->
<g id="edge13" class="edge">
<title>Node3254&#45;&gt;Node3258</title>
<path fill="none" stroke="#191970" d="M948.0148,-152.9946C960.5159,-149.9018 973.6765,-146.7518 986,-144 997.3424,-141.4673 1009.4749,-138.9383 1021.1755,-136.59"/>
<polygon fill="#191970" stroke="#191970" points="1022.1888,-139.9573 1031.316,-134.5774 1020.826,-133.0912 1022.1888,-139.9573"/>
</g>
<!-- Node3259 -->
<g id="node15" class="node">
<title>Node3259</title>
<g id="a_node15"><a xlink:href="../../d8/d6e/classBaseCommand.html#ad7114bcb3cf27232facaf0cbcd7e3b58" target="_top" xlink:title=" ">
<polygon fill="#ffffff" stroke="#000000" points="986,-229.5 986,-248.5 1179,-248.5 1179,-229.5 986,-229.5"/>
<text text-anchor="middle" x="1082.5" y="-236.5" font-family="Helvetica,sans-Serif" font-size="10.00" fill="#000000">BaseCommand::subCommandCount</text>
</a>
</g>
</g>
<!-- Node3254&#45;&gt;Node3259 -->
<g id="edge14" class="edge">
<title>Node3254&#45;&gt;Node3259</title>
<path fill="none" stroke="#191970" d="M913.1321,-183.1225C932.0203,-194.8204 959.7824,-210.5659 986,-220 993.5387,-222.7127 1001.5558,-225.0693 1009.6227,-227.1092"/>
<polygon fill="#191970" stroke="#191970" points="1008.9204,-230.5397 1019.4583,-229.443 1010.5365,-223.7288 1008.9204,-230.5397"/>
</g>
<!-- Node3260 -->
<g id="node16" class="node">
<title>Node3260</title>
<g id="a_node16"><a xlink:href="../../d8/d6e/classBaseCommand.html#a2717e1d5a234ba427175907b2dc58c23" target="_top" xlink:title=" ">
<polygon fill="#ffffff" stroke="#000000" points="1000.5,-191.5 1000.5,-210.5 1164.5,-210.5 1164.5,-191.5 1000.5,-191.5"/>
<text text-anchor="middle" x="1082.5" y="-198.5" font-family="Helvetica,sans-Serif" font-size="10.00" fill="#000000">BaseCommand::subCommand</text>
</a>
</g>
</g>
<!-- Node3254&#45;&gt;Node3260 -->
<g id="edge15" class="edge">
<title>Node3254&#45;&gt;Node3260</title>
<path fill="none" stroke="#191970" d="M950.1164,-178.3057C971.2582,-181.93 995.1211,-186.0208 1016.7057,-189.721"/>
<polygon fill="#191970" stroke="#191970" points="1016.3219,-193.2062 1026.7695,-191.4462 1017.5047,-186.3068 1016.3219,-193.2062"/>
</g>
<!-- Node3256 -->
<g id="node12" class="node">
<title>Node3256</title>
<g id="a_node12"><a xlink:href="../../d8/d6e/classBaseCommand.html#aca69868889f793ce1399fd0c752cfa05" target="_top" xlink:title=" ">
<polygon fill="#ffffff" stroke="#000000" points="1215,-153.5 1215,-172.5 1387,-172.5 1387,-153.5 1215,-153.5"/>
<text text-anchor="middle" x="1301" y="-160.5" font-family="Helvetica,sans-Serif" font-size="10.00" fill="#000000">BaseCommand::getParamString</text>
</a>
</g>
</g>
<!-- Node3255&#45;&gt;Node3256 -->
<g id="edge11" class="edge">
<title>Node3255&#45;&gt;Node3256</title>
<path fill="none" stroke="#191970" d="M1169.1708,-163C1180.7822,-163 1192.7493,-163 1204.5162,-163"/>
<polygon fill="#191970" stroke="#191970" points="1204.7913,-166.5001 1214.7913,-163 1204.7913,-159.5001 1204.7913,-166.5001"/>
</g>
<!-- Node3257 -->
<g id="node13" class="node">
<title>Node3257</title>
<g id="a_node13"><a xlink:href="../../d8/d37/classSketchWidget.html#a4319a31c3a619e166f0e7dac865e2ea3" target="_top" xlink:title=" ">
<polygon fill="#ffffff" stroke="#000000" points="1423,-153.5 1423,-172.5 1565,-172.5 1565,-153.5 1423,-153.5"/>
<text text-anchor="middle" x="1494" y="-160.5" font-family="Helvetica,sans-Serif" font-size="10.00" fill="#000000">SketchWidget::viewName</text>
</a>
</g>
</g>
<!-- Node3256&#45;&gt;Node3257 -->
<g id="edge12" class="edge">
<title>Node3256&#45;&gt;Node3257</title>
<path fill="none" stroke="#191970" d="M1387.0578,-163C1395.562,-163 1404.1756,-163 1412.6304,-163"/>
<polygon fill="#191970" stroke="#191970" points="1412.8465,-166.5001 1422.8465,-163 1412.8465,-159.5001 1412.8465,-166.5001"/>
</g>
<!-- Node3263 -->
<g id="node19" class="node">
<title>Node3263</title>
<g id="a_node19"><a xlink:href="../../d8/d37/classSketchWidget.html#a4ead6acb9dd82cafb7dc5abb100f66e5" target="_top" xlink:title=" ">
<polygon fill="#ffffff" stroke="#000000" points="424,-.5 424,-19.5 570,-19.5 570,-.5 424,-.5"/>
<text text-anchor="middle" x="497" y="-7.5" font-family="Helvetica,sans-Serif" font-size="10.00" fill="#000000">SketchWidget::sortAnyByZ</text>
</a>
</g>
</g>
<!-- Node3262&#45;&gt;Node3263 -->
<g id="edge18" class="edge">
<title>Node3262&#45;&gt;Node3263</title>
<path fill="none" stroke="#191970" d="M354.2401,-10C373.4567,-10 394.1205,-10 413.5945,-10"/>
<polygon fill="#191970" stroke="#191970" points="413.6557,-13.5001 423.6557,-10 413.6556,-6.5001 413.6557,-13.5001"/>
</g>
<!-- Node3264 -->
<g id="node20" class="node">
<title>Node3264</title>
<g id="a_node20"><a xlink:href="../../d4/d4f/classItemBase.html#a5b91c84f9c987e8ac32a97218fcbec7b" target="_top" xlink:title=" ">
<polygon fill="#ffffff" stroke="#000000" points="641.5,-38.5 641.5,-57.5 782.5,-57.5 782.5,-38.5 641.5,-38.5"/>
<text text-anchor="middle" x="712" y="-45.5" font-family="Helvetica,sans-Serif" font-size="10.00" fill="#000000">ItemBase::saveGeometry</text>
</a>
</g>
</g>
<!-- Node3263&#45;&gt;Node3264 -->
<g id="edge19" class="edge">
<title>Node3263&#45;&gt;Node3264</title>
<path fill="none" stroke="#191970" d="M550.9761,-19.54C580.3678,-24.7348 616.9264,-31.1963 647.7768,-36.6489"/>
<polygon fill="#191970" stroke="#191970" points="647.5452,-40.1622 658.0017,-38.4561 648.7635,-33.269 647.5452,-40.1622"/>
</g>
<!-- Node3265 -->
<g id="node21" class="node">
<title>Node3265</title>
<g id="a_node21"><a xlink:href="../../d4/d4f/classItemBase.html#afef2744caad90b7a563f557b01e07513" target="_top" xlink:title=" ">
<polygon fill="#ffffff" stroke="#000000" points="652,-.5 652,-19.5 772,-19.5 772,-.5 652,-.5"/>
<text text-anchor="middle" x="712" y="-7.5" font-family="Helvetica,sans-Serif" font-size="10.00" fill="#000000">ItemBase::zLessThan</text>
</a>
</g>
</g>
<!-- Node3263&#45;&gt;Node3265 -->
<g id="edge20" class="edge">
<title>Node3263&#45;&gt;Node3265</title>
<path fill="none" stroke="#191970" d="M570.0892,-10C593.3127,-10 618.9315,-10 641.9364,-10"/>
<polygon fill="#191970" stroke="#191970" points="641.9615,-13.5001 651.9615,-10 641.9614,-6.5001 641.9615,-13.5001"/>
</g>
<!-- Node3266 -->
<g id="node22" class="node">
<title>Node3266</title>
<g id="a_node22"><a xlink:href="../../d4/d4f/classItemBase.html#a1e72b3e4e4038345a39cf3ef2f664957" target="_top" xlink:title=" ">
<polygon fill="#ffffff" stroke="#000000" points="853,-6.5 853,-25.5 927,-25.5 927,-6.5 853,-6.5"/>
<text text-anchor="middle" x="890" y="-13.5" font-family="Helvetica,sans-Serif" font-size="10.00" fill="#000000">ItemBase::z</text>
</a>
</g>
</g>
<!-- Node3265&#45;&gt;Node3266 -->
<g id="edge21" class="edge">
<title>Node3265&#45;&gt;Node3266</title>
<path fill="none" stroke="#191970" d="M772.2627,-12.0313C795.2315,-12.8056 821.0608,-13.6762 842.6619,-14.4043"/>
<polygon fill="#191970" stroke="#191970" points="842.783,-17.9103 852.8953,-14.7493 843.0189,-10.9143 842.783,-17.9103"/>
</g>
<!-- Node3266&#45;&gt;Node3247 -->
<g id="edge22" class="edge">
<title>Node3266&#45;&gt;Node3247</title>
<path fill="none" stroke="#191970" d="M920.5022,-25.5072C953.3528,-35.7463 1005.7767,-52.0863 1042.0496,-63.3921"/>
<polygon fill="#191970" stroke="#191970" points="1041.2339,-66.8038 1051.8224,-66.4382 1043.3169,-60.1209 1041.2339,-66.8038"/>
</g>
<!-- Node3267 -->
<g id="node23" class="node">
<title>Node3267</title>
<g id="a_node23"><a xlink:href="../../d3/de8/classViewGeometry.html#a4e18f5bc63d72eb798b9206f76b6824b" target="_top" xlink:title=" ">
<polygon fill="#ffffff" stroke="#000000" points="1032.5,-6.5 1032.5,-25.5 1132.5,-25.5 1132.5,-6.5 1032.5,-6.5"/>
<text text-anchor="middle" x="1082.5" y="-13.5" font-family="Helvetica,sans-Serif" font-size="10.00" fill="#000000">ViewGeometry::z</text>
</a>
</g>
</g>
<!-- Node3266&#45;&gt;Node3267 -->
<g id="edge23" class="edge">
<title>Node3266&#45;&gt;Node3267</title>
<path fill="none" stroke="#191970" d="M927.1159,-16C954.0113,-16 990.9644,-16 1022.0862,-16"/>
<polygon fill="#191970" stroke="#191970" points="1022.3941,-19.5001 1032.394,-16 1022.394,-12.5001 1022.3941,-19.5001"/>
</g>
</g>
</svg>
        <g id="navigator" transform="translate(0 0)" fill="#404254">
                <rect fill="#f2f5e9" fill-opacity="0.5" stroke="#606060" stroke-width=".5" x="0" y="0" width="60" height="60"/>
                <use id="zoomplus" xlink:href="#zoomPlus" x="17" y="9" onmousedown="handleZoom(evt,'in')"/>
                <use id="zoomminus" xlink:href="#zoomMin" x="42" y="9" onmousedown="handleZoom(evt,'out')"/>
                <use id="reset" xlink:href="#resetDef" x="30" y="36" onmousedown="handleReset()"/>
                <g id="arrowUp" xlink:href="#dirArrow" transform="translate(30 24)" onmousedown="handlePan(0,-1)">
                  <use xlink:href="#rim" fill="#404040">
                        <set attributeName="fill" to="#808080" begin="arrowUp.mouseover" end="arrowUp.mouseout"/>
                  </use>
                  <path fill="none" stroke="white" stroke-width="1.5" d="M0,-3.0v7 M-2.5,-0.5L0,-3.0L2.5,-0.5"/>
                </g>
                <g id="arrowRight" xlink:href="#dirArrow" transform="rotate(90) translate(36 -43)" onmousedown="handlePan(1,0)">
                  <use xlink:href="#rim" fill="#404040">
                        <set attributeName="fill" to="#808080" begin="arrowRight.mouseover" end="arrowRight.mouseout"/>
                  </use>
                  <path fill="none" stroke="white" stroke-width="1.5" d="M0,-3.0v7 M-2.5,-0.5L0,-3.0L2.5,-0.5"/>
                </g>
                <g id="arrowDown" xlink:href="#dirArrow" transform="rotate(180) translate(-30 -48)" onmousedown="handlePan(0,1)">
                  <use xlink:href="#rim" fill="#404040">
                        <set attributeName="fill" to="#808080" begin="arrowDown.mouseover" end="arrowDown.mouseout"/>
                  </use>
                  <path fill="none" stroke="white" stroke-width="1.5" d="M0,-3.0v7 M-2.5,-0.5L0,-3.0L2.5,-0.5"/>
                </g>
                <g id="arrowLeft" xlink:href="#dirArrow" transform="rotate(270) translate(-36 17)" onmousedown="handlePan(-1,0)">
                  <use xlink:href="#rim" fill="#404040">
                        <set attributeName="fill" to="#808080" begin="arrowLeft.mouseover" end="arrowLeft.mouseout"/>
                  </use>
                  <path fill="none" stroke="white" stroke-width="1.5" d="M0,-3.0v7 M-2.5,-0.5L0,-3.0L2.5,-0.5"/>
                </g>
        </g>
        <svg viewBox="0 0 15 15" width="100%" height="30px" preserveAspectRatio="xMaxYMin meet">
         <g id="arrow_out" transform="scale(0.3 0.3)">
          <a xlink:href="classSketchWidget_a9a8ded53a6c1b6d191476c1eb37c27da_cgraph_org.svg" target="_base">
           <rect id="button" ry="5" rx="5" y="6" x="6" height="38" width="38"
                fill="#f2f5e9" fill-opacity="0.5" stroke="#606060" stroke-width="1.0"/>
           <path id="arrow"
             d="M 11.500037,31.436501 C 11.940474,20.09759 22.043105,11.32322 32.158766,21.979434 L 37.068811,17.246167 C 37.068811,17.246167 37.088388,32 37.088388,32 L 22.160133,31.978069 C 22.160133,31.978069 26.997745,27.140456 26.997745,27.140456 C 18.528582,18.264221 13.291696,25.230495 11.500037,31.436501 z"
             style="fill:#404040;"/>
          </a>
         </g>
        </svg>
</svg>
