<?xml version="1.0" encoding="UTF-8" standalone="no"?>
<!DOCTYPE svg PUBLIC "-//W3C//DTD SVG 1.1//EN"
 "http://www.w3.org/Graphics/SVG/1.1/DTD/svg11.dtd">
<!-- Generated by graphviz version 2.40.1 (0)
 -->
<!-- Title: SketchWidget::setLastPaletteItemSelected Pages: 1 -->
<!--zoomable 192 -->
<svg id="main" version="1.1" xmlns="http://www.w3.org/2000/svg" xmlns:xlink="http://www.w3.org/1999/xlink" xml:space="preserve" onload="init(evt)">
<style type="text/css"><![CDATA[
.edge:hover path { stroke: red; }
.edge:hover polygon { stroke: red; fill: red; }
]]></style>
<script type="text/javascript"><![CDATA[
var edges = document.getElementsByTagName('g');
if (edges && edges.length) {
  for (var i=0;i<edges.length;i++) {
    if (edges[i].id.substr(0,4)=='edge') {
      edges[i].setAttribute('class','edge');
    }
  }
}
]]></script>
        <defs>
                <circle id="rim" cx="0" cy="0" r="7"/>
                <circle id="rim2" cx="0" cy="0" r="3.5"/>
                <g id="zoomPlus">
                        <use xlink:href="#rim" fill="#404040">
                                <set attributeName="fill" to="#808080" begin="zoomplus.mouseover" end="zoomplus.mouseout"/>
                        </use>
                        <path d="M-4,0h8M0,-4v8" fill="none" stroke="white" stroke-width="1.5" pointer-events="none"/>
                </g>
                <g id="zoomMin">
                        <use xlink:href="#rim" fill="#404040">
                                <set attributeName="fill" to="#808080" begin="zoomminus.mouseover" end="zoomminus.mouseout"/>
                        </use>
                        <path d="M-4,0h8" fill="none" stroke="white" stroke-width="1.5" pointer-events="none"/>
                </g>
                <g id="dirArrow">
                        <path fill="none" stroke="white" stroke-width="1.5" d="M0,-3.0v7 M-2.5,-0.5L0,-3.0L2.5,-0.5"/>
                </g>
               <g id="resetDef">
                       <use xlink:href="#rim2" fill="#404040">
                               <set attributeName="fill" to="#808080" begin="reset.mouseover" end="reset.mouseout"/>
                       </use>
               </g>
        </defs>

<script type="text/javascript">
var viewWidth = 754;
var viewHeight = 192;
var sectionId = 'dynsection-506';
</script>
<script xlink:href="../../svgpan.js"/>
<svg id="graph" class="graph">
<g id="viewport">
<title>SketchWidget::setLastPaletteItemSelected</title>
<polygon fill="#ffffff" stroke="transparent" points="-4,4 -4,-187.5 750,-187.5 750,4 -4,4"/>
<!-- Node20248 -->
<g id="node1" class="node">
<title>Node20248</title>
<g id="a_node1"><a xlink:title=" ">
<polygon fill="#bfbfbf" stroke="#000000" points="588,-82.5 588,-112.5 746,-112.5 746,-82.5 588,-82.5"/>
<text text-anchor="start" x="596" y="-100.5" font-family="Helvetica,sans-Serif" font-size="10.00" fill="#000000">SketchWidget::setLastPalette</text>
<text text-anchor="middle" x="667" y="-89.5" font-family="Helvetica,sans-Serif" font-size="10.00" fill="#000000">ItemSelected</text>
</a>
</g>
</g>
<!-- Node20249 -->
<g id="node2" class="node">
<title>Node20249</title>
<g id="a_node2"><a xlink:href="../../d8/d37/classSketchWidget.html#a8b07db46975abf66c7b161741f8c00ff" target="_top" xlink:title=" ">
<polygon fill="#ffffff" stroke="#000000" points="387.5,-164 387.5,-183 543.5,-183 543.5,-164 387.5,-164"/>
<text text-anchor="middle" x="465.5" y="-171" font-family="Helvetica,sans-Serif" font-size="10.00" fill="#000000">SketchWidget::SketchWidget</text>
</a>
</g>
</g>
<!-- Node20248&#45;&gt;Node20249 -->
<g id="edge1" class="edge">
<title>Node20248&#45;&gt;Node20249</title>
<path fill="none" stroke="#191970" d="M632.5282,-117.3587C610.1732,-129.5322 580.0827,-144.6232 552,-154.5 541.4118,-158.2239 529.8284,-161.369 518.6785,-163.9626"/>
<polygon fill="#191970" stroke="#191970" points="634.2396,-120.4118 641.3023,-112.5144 630.8562,-114.2838 634.2396,-120.4118"/>
</g>
<!-- Node20250 -->
<g id="node3" class="node">
<title>Node20250</title>
<g id="a_node3"><a xlink:href="../../d8/d37/classSketchWidget.html#a2661219051466739ee74bc1040d50d10" target="_top" xlink:title=" ">
<polygon fill="#ffffff" stroke="#000000" points="394,-126 394,-145 537,-145 537,-126 394,-126"/>
<text text-anchor="middle" x="465.5" y="-133" font-family="Helvetica,sans-Serif" font-size="10.00" fill="#000000">SketchWidget::deleteItem</text>
</a>
</g>
</g>
<!-- Node20248&#45;&gt;Node20250 -->
<g id="edge2" class="edge">
<title>Node20248&#45;&gt;Node20250</title>
<path fill="none" stroke="#191970" d="M577.9078,-114.3015C556.6487,-118.3107 534.6878,-122.4522 515.8799,-125.9991"/>
<polygon fill="#191970" stroke="#191970" points="578.7621,-117.7022 587.9402,-112.4095 577.4648,-110.8234 578.7621,-117.7022"/>
</g>
<!-- Node20251 -->
<g id="node4" class="node">
<title>Node20251</title>
<g id="a_node4"><a xlink:href="../../d8/d37/classSketchWidget.html#a506feca1916d49f1eb7283073e977fc7" target="_top" xlink:title=" ">
<polygon fill="#ffffff" stroke="#000000" points="395,-88 395,-107 536,-107 536,-88 395,-88"/>
<text text-anchor="middle" x="465.5" y="-95" font-family="Helvetica,sans-Serif" font-size="10.00" fill="#000000">SketchWidget::selectItem</text>
</a>
</g>
</g>
<!-- Node20248&#45;&gt;Node20251 -->
<g id="edge3" class="edge">
<title>Node20248&#45;&gt;Node20251</title>
<path fill="none" stroke="#191970" d="M577.8422,-97.5C563.8799,-97.5 549.6165,-97.5 536.1441,-97.5"/>
<polygon fill="#191970" stroke="#191970" points="577.9402,-101.0001 587.9402,-97.5 577.9402,-94.0001 577.9402,-101.0001"/>
</g>
<!-- Node20255 -->
<g id="node8" class="node">
<title>Node20255</title>
<g id="a_node8"><a xlink:href="../../d8/d37/classSketchWidget.html#a8c03ab7eeb4b3ebf6fa8a5cd409fa77e" target="_top" xlink:title=" ">
<polygon fill="#ffffff" stroke="#000000" points="379,-50 379,-69 552,-69 552,-50 379,-50"/>
<text text-anchor="middle" x="465.5" y="-57" font-family="Helvetica,sans-Serif" font-size="10.00" fill="#000000">SketchWidget::itemSelectedSlot</text>
</a>
</g>
</g>
<!-- Node20248&#45;&gt;Node20255 -->
<g id="edge7" class="edge">
<title>Node20248&#45;&gt;Node20255</title>
<path fill="none" stroke="#191970" d="M577.9078,-80.6985C556.6487,-76.6893 534.6878,-72.5478 515.8799,-69.0009"/>
<polygon fill="#191970" stroke="#191970" points="577.4648,-84.1766 587.9402,-82.5905 578.7621,-77.2978 577.4648,-84.1766"/>
</g>
<!-- Node20256 -->
<g id="node9" class="node">
<title>Node20256</title>
<g id="a_node9"><a xlink:href="../../d8/d37/classSketchWidget.html#a66b567226586478345886a55243ca643" target="_top" xlink:title=" ">
<polygon fill="#ffffff" stroke="#000000" points="386.5,-.5 386.5,-30.5 544.5,-30.5 544.5,-.5 386.5,-.5"/>
<text text-anchor="start" x="394.5" y="-18.5" font-family="Helvetica,sans-Serif" font-size="10.00" fill="#000000">SketchWidget::setLastPalette</text>
<text text-anchor="middle" x="465.5" y="-7.5" font-family="Helvetica,sans-Serif" font-size="10.00" fill="#000000">ItemSelectedIf</text>
</a>
</g>
</g>
<!-- Node20248&#45;&gt;Node20256 -->
<g id="edge8" class="edge">
<title>Node20248&#45;&gt;Node20256</title>
<path fill="none" stroke="#191970" d="M630.6618,-77.3974C608.4021,-65.6144 579.0777,-51.026 552,-40.5 542.821,-36.9318 532.9212,-33.6058 523.2112,-30.6188"/>
<polygon fill="#191970" stroke="#191970" points="629.2735,-80.6241 639.742,-82.2555 632.5758,-74.4519 629.2735,-80.6241"/>
</g>
<!-- Node20252 -->
<g id="node5" class="node">
<title>Node20252</title>
<g id="a_node5"><a xlink:href="../../d2/d38/classSelectItemCommand.html#af932ed9afa480a9b048b23ea0f556011" target="_top" xlink:title=" ">
<polygon fill="#ffffff" stroke="#000000" points="206,-82.5 206,-112.5 331,-112.5 331,-82.5 206,-82.5"/>
<text text-anchor="start" x="214" y="-100.5" font-family="Helvetica,sans-Serif" font-size="10.00" fill="#000000">SelectItemCommand::</text>
<text text-anchor="middle" x="268.5" y="-89.5" font-family="Helvetica,sans-Serif" font-size="10.00" fill="#000000">selectAllFromStack</text>
</a>
</g>
</g>
<!-- Node20251&#45;&gt;Node20252 -->
<g id="edge4" class="edge">
<title>Node20251&#45;&gt;Node20252</title>
<path fill="none" stroke="#191970" d="M384.7861,-97.5C366.8614,-97.5 348.1238,-97.5 331.0551,-97.5"/>
<polygon fill="#191970" stroke="#191970" points="384.9349,-101.0001 394.9349,-97.5 384.9349,-94.0001 384.9349,-101.0001"/>
</g>
<!-- Node20253 -->
<g id="node6" class="node">
<title>Node20253</title>
<g id="a_node6"><a xlink:href="../../d2/d38/classSelectItemCommand.html#aa015747281aad328aad567a6aab9d34d" target="_top" xlink:title=" ">
<polygon fill="#ffffff" stroke="#000000" points="4.5,-107 4.5,-126 153.5,-126 153.5,-107 4.5,-107"/>
<text text-anchor="middle" x="79" y="-114" font-family="Helvetica,sans-Serif" font-size="10.00" fill="#000000">SelectItemCommand::undo</text>
</a>
</g>
</g>
<!-- Node20252&#45;&gt;Node20253 -->
<g id="edge5" class="edge">
<title>Node20252&#45;&gt;Node20253</title>
<path fill="none" stroke="#191970" d="M195.5757,-104.8117C181.8499,-106.1879 167.4779,-107.6289 153.6988,-109.0104"/>
<polygon fill="#191970" stroke="#191970" points="196.3245,-108.2542 205.9254,-103.774 195.6261,-101.2892 196.3245,-108.2542"/>
</g>
<!-- Node20254 -->
<g id="node7" class="node">
<title>Node20254</title>
<g id="a_node7"><a xlink:href="../../d2/d38/classSelectItemCommand.html#ab0eedba4d2a622f685ae3412b8b303d4" target="_top" xlink:title=" ">
<polygon fill="#ffffff" stroke="#000000" points="5.5,-69 5.5,-88 152.5,-88 152.5,-69 5.5,-69"/>
<text text-anchor="middle" x="79" y="-76" font-family="Helvetica,sans-Serif" font-size="10.00" fill="#000000">SelectItemCommand::redo</text>
</a>
</g>
</g>
<!-- Node20252&#45;&gt;Node20254 -->
<g id="edge6" class="edge">
<title>Node20252&#45;&gt;Node20254</title>
<path fill="none" stroke="#191970" d="M195.784,-90.2092C181.6622,-88.7933 166.849,-87.3081 152.6959,-85.889"/>
<polygon fill="#191970" stroke="#191970" points="195.6261,-93.7108 205.9254,-91.226 196.3245,-86.7458 195.6261,-93.7108"/>
</g>
<!-- Node20257 -->
<g id="node10" class="node">
<title>Node20257</title>
<g id="a_node10"><a xlink:href="../../d8/d37/classSketchWidget.html#a19e4694aab6edaeb9c3108d827757d1b" target="_top" xlink:title=" ">
<polygon fill="#ffffff" stroke="#000000" points="194,-.5 194,-30.5 343,-30.5 343,-.5 194,-.5"/>
<text text-anchor="start" x="202" y="-18.5" font-family="Helvetica,sans-Serif" font-size="10.00" fill="#000000">SketchWidget::mousePress</text>
<text text-anchor="middle" x="268.5" y="-7.5" font-family="Helvetica,sans-Serif" font-size="10.00" fill="#000000">Event</text>
</a>
</g>
</g>
<!-- Node20256&#45;&gt;Node20257 -->
<g id="edge9" class="edge">
<title>Node20256&#45;&gt;Node20257</title>
<path fill="none" stroke="#191970" d="M376.1502,-15.5C365.116,-15.5 353.9274,-15.5 343.1446,-15.5"/>
<polygon fill="#191970" stroke="#191970" points="376.2241,-19.0001 386.2241,-15.5 376.2241,-12.0001 376.2241,-19.0001"/>
</g>
<!-- Node20258 -->
<g id="node11" class="node">
<title>Node20258</title>
<g id="a_node11"><a xlink:href="../../d8/d37/classPartsEditorView.html#a55fa6bfc6aaa8305f6078f83b392b926" target="_top" xlink:title=" ">
<polygon fill="#ffffff" stroke="#000000" points="0,-.5 0,-30.5 158,-30.5 158,-.5 0,-.5"/>
<text text-anchor="start" x="8" y="-18.5" font-family="Helvetica,sans-Serif" font-size="10.00" fill="#000000">PartsEditorView::mousePress</text>
<text text-anchor="middle" x="79" y="-7.5" font-family="Helvetica,sans-Serif" font-size="10.00" fill="#000000">Event</text>
</a>
</g>
</g>
<!-- Node20257&#45;&gt;Node20258 -->
<g id="edge10" class="edge">
<title>Node20257&#45;&gt;Node20258</title>
<path fill="none" stroke="#191970" d="M183.638,-15.5C175.1859,-15.5 166.6278,-15.5 158.2365,-15.5"/>
<polygon fill="#191970" stroke="#191970" points="183.8766,-19.0001 193.8766,-15.5 183.8766,-12.0001 183.8766,-19.0001"/>
</g>
</g>
</svg>
        <g id="navigator" transform="translate(0 0)" fill="#404254">
                <rect fill="#f2f5e9" fill-opacity="0.5" stroke="#606060" stroke-width=".5" x="0" y="0" width="60" height="60"/>
                <use id="zoomplus" xlink:href="#zoomPlus" x="17" y="9" onmousedown="handleZoom(evt,'in')"/>
                <use id="zoomminus" xlink:href="#zoomMin" x="42" y="9" onmousedown="handleZoom(evt,'out')"/>
                <use id="reset" xlink:href="#resetDef" x="30" y="36" onmousedown="handleReset()"/>
                <g id="arrowUp" xlink:href="#dirArrow" transform="translate(30 24)" onmousedown="handlePan(0,-1)">
                  <use xlink:href="#rim" fill="#404040">
                        <set attributeName="fill" to="#808080" begin="arrowUp.mouseover" end="arrowUp.mouseout"/>
                  </use>
                  <path fill="none" stroke="white" stroke-width="1.5" d="M0,-3.0v7 M-2.5,-0.5L0,-3.0L2.5,-0.5"/>
                </g>
                <g id="arrowRight" xlink:href="#dirArrow" transform="rotate(90) translate(36 -43)" onmousedown="handlePan(1,0)">
                  <use xlink:href="#rim" fill="#404040">
                        <set attributeName="fill" to="#808080" begin="arrowRight.mouseover" end="arrowRight.mouseout"/>
                  </use>
                  <path fill="none" stroke="white" stroke-width="1.5" d="M0,-3.0v7 M-2.5,-0.5L0,-3.0L2.5,-0.5"/>
                </g>
                <g id="arrowDown" xlink:href="#dirArrow" transform="rotate(180) translate(-30 -48)" onmousedown="handlePan(0,1)">
                  <use xlink:href="#rim" fill="#404040">
                        <set attributeName="fill" to="#808080" begin="arrowDown.mouseover" end="arrowDown.mouseout"/>
                  </use>
                  <path fill="none" stroke="white" stroke-width="1.5" d="M0,-3.0v7 M-2.5,-0.5L0,-3.0L2.5,-0.5"/>
                </g>
                <g id="arrowLeft" xlink:href="#dirArrow" transform="rotate(270) translate(-36 17)" onmousedown="handlePan(-1,0)">
                  <use xlink:href="#rim" fill="#404040">
                        <set attributeName="fill" to="#808080" begin="arrowLeft.mouseover" end="arrowLeft.mouseout"/>
                  </use>
                  <path fill="none" stroke="white" stroke-width="1.5" d="M0,-3.0v7 M-2.5,-0.5L0,-3.0L2.5,-0.5"/>
                </g>
        </g>
        <svg viewBox="0 0 15 15" width="100%" height="30px" preserveAspectRatio="xMaxYMin meet">
         <g id="arrow_out" transform="scale(0.3 0.3)">
          <a xlink:href="classSketchWidget_a70f83e8603684202ff36e4677212d7cb_icgraph_org.svg" target="_base">
           <rect id="button" ry="5" rx="5" y="6" x="6" height="38" width="38"
                fill="#f2f5e9" fill-opacity="0.5" stroke="#606060" stroke-width="1.0"/>
           <path id="arrow"
             d="M 11.500037,31.436501 C 11.940474,20.09759 22.043105,11.32322 32.158766,21.979434 L 37.068811,17.246167 C 37.068811,17.246167 37.088388,32 37.088388,32 L 22.160133,31.978069 C 22.160133,31.978069 26.997745,27.140456 26.997745,27.140456 C 18.528582,18.264221 13.291696,25.230495 11.500037,31.436501 z"
             style="fill:#404040;"/>
          </a>
         </g>
        </svg>
</svg>
