<?xml version="1.0" encoding="UTF-8" standalone="no"?>
<!DOCTYPE svg PUBLIC "-//W3C//DTD SVG 1.1//EN"
 "http://www.w3.org/Graphics/SVG/1.1/DTD/svg11.dtd">
<!-- Generated by graphviz version 2.40.1 (0)
 -->
<!-- Title: SketchWidget::updatePartLabelInstanceTitleSignal Pages: 1 -->
<svg width="495pt" height="39pt"
 viewBox="0.00 0.00 495.00 39.00" xmlns="http://www.w3.org/2000/svg" xmlns:xlink="http://www.w3.org/1999/xlink">
<g id="graph0" class="graph" transform="scale(1 1) rotate(0) translate(4 35)">
<title>SketchWidget::updatePartLabelInstanceTitleSignal</title>
<polygon fill="#ffffff" stroke="transparent" points="-4,4 -4,-35 491,-35 491,4 -4,4"/>
<!-- Node23704 -->
<g id="node1" class="node">
<title>Node23704</title>
<g id="a_node1"><a xlink:title=" ">
<polygon fill="#bfbfbf" stroke="#000000" points="345,-.5 345,-30.5 487,-30.5 487,-.5 345,-.5"/>
<text text-anchor="start" x="353" y="-18.5" font-family="Helvetica,sans-Serif" font-size="10.00" fill="#000000">SketchWidget::updatePart</text>
<text text-anchor="middle" x="416" y="-7.5" font-family="Helvetica,sans-Serif" font-size="10.00" fill="#000000">LabelInstanceTitleSignal</text>
</a>
</g>
</g>
<!-- Node23705 -->
<g id="node2" class="node">
<title>Node23705</title>
<g id="a_node2"><a xlink:href="../../d8/d37/classSketchWidget.html#aead6206f007becd2aa5aa47b949c0382" target="_top" xlink:title=" ">
<polygon fill="#ffffff" stroke="#000000" points="164,-.5 164,-30.5 309,-30.5 309,-.5 164,-.5"/>
<text text-anchor="start" x="172" y="-18.5" font-family="Helvetica,sans-Serif" font-size="10.00" fill="#000000">SketchWidget::incInstance</text>
<text text-anchor="middle" x="236.5" y="-7.5" font-family="Helvetica,sans-Serif" font-size="10.00" fill="#000000">Title</text>
</a>
</g>
</g>
<!-- Node23704&#45;&gt;Node23705 -->
<g id="edge1" class="edge">
<title>Node23704&#45;&gt;Node23705</title>
<path fill="none" stroke="#191970" d="M334.5228,-15.5C326.0407,-15.5 317.4593,-15.5 309.0851,-15.5"/>
<polygon fill="#191970" stroke="#191970" points="334.7991,-19.0001 344.799,-15.5 334.799,-12.0001 334.7991,-19.0001"/>
</g>
<!-- Node23706 -->
<g id="node3" class="node">
<title>Node23706</title>
<g id="a_node3"><a xlink:href="../../d6/d93/classIncLabelTextCommand.html#a5275aca016469c9b3cfc0224c7ebe567" target="_top" xlink:title=" ">
<polygon fill="#ffffff" stroke="#000000" points="0,-.5 0,-30.5 128,-30.5 128,-.5 0,-.5"/>
<text text-anchor="start" x="8" y="-18.5" font-family="Helvetica,sans-Serif" font-size="10.00" fill="#000000">IncLabelTextCommand</text>
<text text-anchor="middle" x="64" y="-7.5" font-family="Helvetica,sans-Serif" font-size="10.00" fill="#000000">::redo</text>
</a>
</g>
</g>
<!-- Node23705&#45;&gt;Node23706 -->
<g id="edge2" class="edge">
<title>Node23705&#45;&gt;Node23706</title>
<path fill="none" stroke="#191970" d="M153.7595,-15.5C145.1326,-15.5 136.4589,-15.5 128.0842,-15.5"/>
<polygon fill="#191970" stroke="#191970" points="153.8445,-19.0001 163.8444,-15.5 153.8444,-12.0001 153.8445,-19.0001"/>
</g>
</g>
</svg>
