<?xml version="1.0" encoding="UTF-8" standalone="no"?>
<!DOCTYPE svg PUBLIC "-//W3C//DTD SVG 1.1//EN"
 "http://www.w3.org/Graphics/SVG/1.1/DTD/svg11.dtd">
<!-- Generated by graphviz version 2.40.1 (0)
 -->
<!-- Title: SketchWidget::moveLegBendpoints Pages: 1 -->
<svg width="858pt" height="192pt"
 viewBox="0.00 0.00 858.00 192.00" xmlns="http://www.w3.org/2000/svg" xmlns:xlink="http://www.w3.org/1999/xlink">
<g id="graph0" class="graph" transform="scale(1 1) rotate(0) translate(4 188)">
<title>SketchWidget::moveLegBendpoints</title>
<polygon fill="#ffffff" stroke="transparent" points="-4,4 -4,-188 854,-188 854,4 -4,4"/>
<!-- Node15851 -->
<g id="node1" class="node">
<title>Node15851</title>
<g id="a_node1"><a xlink:title=" ">
<polygon fill="#bfbfbf" stroke="#000000" points="0,-82.5 0,-101.5 189,-101.5 189,-82.5 0,-82.5"/>
<text text-anchor="middle" x="94.5" y="-89.5" font-family="Helvetica,sans-Serif" font-size="10.00" fill="#000000">SketchWidget::moveLegBendpoints</text>
</a>
</g>
</g>
<!-- Node15852 -->
<g id="node2" class="node">
<title>Node15852</title>
<g id="a_node2"><a xlink:href="../../d8/d37/classSketchWidget.html#a7989b41535a747a3748dbbbb9b1f3119" target="_top" xlink:title=" ">
<polygon fill="#ffffff" stroke="#000000" points="225,-82.5 225,-101.5 433,-101.5 433,-82.5 225,-82.5"/>
<text text-anchor="middle" x="329" y="-89.5" font-family="Helvetica,sans-Serif" font-size="10.00" fill="#000000">SketchWidget::moveLegBendpointsAux</text>
</a>
</g>
</g>
<!-- Node15851&#45;&gt;Node15852 -->
<g id="edge1" class="edge">
<title>Node15851&#45;&gt;Node15852</title>
<path fill="none" stroke="#191970" d="M189.2042,-92C197.6096,-92 206.1757,-92 214.7207,-92"/>
<polygon fill="#191970" stroke="#191970" points="214.7312,-95.5001 224.7312,-92 214.7312,-88.5001 214.7312,-95.5001"/>
</g>
<!-- Node15853 -->
<g id="node3" class="node">
<title>Node15853</title>
<g id="a_node3"><a xlink:href="../../dc/d3a/classConnectorItem.html#a444c88cc0a91ac31d9d06e5473b14337" target="_top" xlink:title=" ">
<polygon fill="#ffffff" stroke="#000000" points="484,-164.5 484,-183.5 632,-183.5 632,-164.5 484,-164.5"/>
<text text-anchor="middle" x="558" y="-171.5" font-family="Helvetica,sans-Serif" font-size="10.00" fill="#000000">ConnectorItem::moveDone</text>
</a>
</g>
</g>
<!-- Node15852&#45;&gt;Node15853 -->
<g id="edge2" class="edge">
<title>Node15852&#45;&gt;Node15853</title>
<path fill="none" stroke="#191970" d="M347.0728,-101.6388C373.2794,-115.2638 423.6619,-140.1468 469,-155 477.1817,-157.6804 485.9128,-160.0806 494.5887,-162.1984"/>
<polygon fill="#191970" stroke="#191970" points="493.7948,-165.6071 504.3284,-164.4693 495.3844,-158.7899 493.7948,-165.6071"/>
</g>
<!-- Node15854 -->
<g id="node4" class="node">
<title>Node15854</title>
<g id="a_node4"><a xlink:href="../../dc/d09/classNonConnectorItem.html#a8bddbd1259c61a57ba95d83150d57eaf" target="_top" xlink:title=" ">
<polygon fill="#ffffff" stroke="#000000" points="469,-126.5 469,-145.5 647,-145.5 647,-126.5 469,-126.5"/>
<text text-anchor="middle" x="558" y="-133.5" font-family="Helvetica,sans-Serif" font-size="10.00" fill="#000000">NonConnectorItem::attachedToID</text>
</a>
</g>
</g>
<!-- Node15852&#45;&gt;Node15854 -->
<g id="edge3" class="edge">
<title>Node15852&#45;&gt;Node15854</title>
<path fill="none" stroke="#191970" d="M378.6896,-101.5473C413.7996,-108.2934 461.0323,-117.3687 498.2073,-124.5114"/>
<polygon fill="#191970" stroke="#191970" points="497.9266,-128.0215 508.4074,-126.4713 499.2474,-121.1472 497.9266,-128.0215"/>
</g>
<!-- Node15857 -->
<g id="node7" class="node">
<title>Node15857</title>
<g id="a_node7"><a xlink:href="../../dc/d3a/classConnectorItem.html#aa22ed310cdf87c914bfad84ce759d66b" target="_top" xlink:title=" ">
<polygon fill="#ffffff" stroke="#000000" points="486.5,-77 486.5,-107 629.5,-107 629.5,-77 486.5,-77"/>
<text text-anchor="start" x="494.5" y="-95" font-family="Helvetica,sans-Serif" font-size="10.00" fill="#000000">ConnectorItem::connector</text>
<text text-anchor="middle" x="558" y="-84" font-family="Helvetica,sans-Serif" font-size="10.00" fill="#000000">SharedID</text>
</a>
</g>
</g>
<!-- Node15852&#45;&gt;Node15857 -->
<g id="edge6" class="edge">
<title>Node15852&#45;&gt;Node15857</title>
<path fill="none" stroke="#191970" d="M433.1138,-92C447.5652,-92 462.2392,-92 476.2046,-92"/>
<polygon fill="#191970" stroke="#191970" points="476.2351,-95.5001 486.235,-92 476.235,-88.5001 476.2351,-95.5001"/>
</g>
<!-- Node15858 -->
<g id="node8" class="node">
<title>Node15858</title>
<g id="a_node8"><a xlink:href="../../d8/d6e/classBaseCommand.html#a50d7eb575aa507b487d1abaaf72fba54" target="_top" xlink:title=" ">
<polygon fill="#ffffff" stroke="#000000" points="478,-38.5 478,-57.5 638,-57.5 638,-38.5 478,-38.5"/>
<text text-anchor="middle" x="558" y="-45.5" font-family="Helvetica,sans-Serif" font-size="10.00" fill="#000000">BaseCommand::setUndoOnly</text>
</a>
</g>
</g>
<!-- Node15852&#45;&gt;Node15858 -->
<g id="edge7" class="edge">
<title>Node15852&#45;&gt;Node15858</title>
<path fill="none" stroke="#191970" d="M378.6896,-82.4527C413.7996,-75.7066 461.0323,-66.6313 498.2073,-59.4886"/>
<polygon fill="#191970" stroke="#191970" points="499.2474,-62.8528 508.4074,-57.5287 497.9266,-55.9785 499.2474,-62.8528"/>
</g>
<!-- Node15859 -->
<g id="node9" class="node">
<title>Node15859</title>
<g id="a_node9"><a xlink:href="../../d8/d6e/classBaseCommand.html#a8e1ea4fcfded8a2bb3d6dfd6f444e84f" target="_top" xlink:title=" ">
<polygon fill="#ffffff" stroke="#000000" points="478.5,-.5 478.5,-19.5 637.5,-19.5 637.5,-.5 478.5,-.5"/>
<text text-anchor="middle" x="558" y="-7.5" font-family="Helvetica,sans-Serif" font-size="10.00" fill="#000000">BaseCommand::setRedoOnly</text>
</a>
</g>
</g>
<!-- Node15852&#45;&gt;Node15859 -->
<g id="edge8" class="edge">
<title>Node15852&#45;&gt;Node15859</title>
<path fill="none" stroke="#191970" d="M347.0728,-82.3612C373.2794,-68.7362 423.6619,-43.8532 469,-29 477.1817,-26.3196 485.9128,-23.9194 494.5887,-21.8016"/>
<polygon fill="#191970" stroke="#191970" points="495.3844,-25.2101 504.3284,-19.5307 493.7948,-18.3929 495.3844,-25.2101"/>
</g>
<!-- Node15855 -->
<g id="node5" class="node">
<title>Node15855</title>
<g id="a_node5"><a xlink:href="../../dc/d09/classNonConnectorItem.html#a1452f3637c83b50fbd089f9c4b4518b6" target="_top" xlink:title=" ">
<polygon fill="#ffffff" stroke="#000000" points="683,-145.5 683,-164.5 850,-164.5 850,-145.5 683,-145.5"/>
<text text-anchor="middle" x="766.5" y="-152.5" font-family="Helvetica,sans-Serif" font-size="10.00" fill="#000000">NonConnectorItem::attachedTo</text>
</a>
</g>
</g>
<!-- Node15854&#45;&gt;Node15855 -->
<g id="edge4" class="edge">
<title>Node15854&#45;&gt;Node15855</title>
<path fill="none" stroke="#191970" d="M647.0275,-144.1128C655.5398,-144.8885 664.1904,-145.6768 672.7457,-146.4564"/>
<polygon fill="#191970" stroke="#191970" points="672.4548,-149.9443 682.7312,-147.3664 673.0901,-142.9732 672.4548,-149.9443"/>
</g>
<!-- Node15856 -->
<g id="node6" class="node">
<title>Node15856</title>
<g id="a_node6"><a xlink:href="../../d4/d4f/classItemBase.html#a27afd199a7ae3c3fd14e88ed0be14420" target="_top" xlink:title=" ">
<polygon fill="#ffffff" stroke="#000000" points="727.5,-107.5 727.5,-126.5 805.5,-126.5 805.5,-107.5 727.5,-107.5"/>
<text text-anchor="middle" x="766.5" y="-114.5" font-family="Helvetica,sans-Serif" font-size="10.00" fill="#000000">ItemBase::id</text>
</a>
</g>
</g>
<!-- Node15854&#45;&gt;Node15856 -->
<g id="edge5" class="edge">
<title>Node15854&#45;&gt;Node15856</title>
<path fill="none" stroke="#191970" d="M647.0275,-127.8872C671.1876,-125.6855 696.4623,-123.3823 717.51,-121.4643"/>
<polygon fill="#191970" stroke="#191970" points="717.8385,-124.949 727.4796,-120.5558 717.2032,-117.9779 717.8385,-124.949"/>
</g>
</g>
</svg>
