<?xml version="1.0" encoding="UTF-8" standalone="no"?>
<!DOCTYPE svg PUBLIC "-//W3C//DTD SVG 1.1//EN"
 "http://www.w3.org/Graphics/SVG/1.1/DTD/svg11.dtd">
<!-- Generated by graphviz version 2.40.1 (0)
 -->
<!-- Title: SketchWidget::resizingBoardPress Pages: 1 -->
<svg width="543pt" height="39pt"
 viewBox="0.00 0.00 543.00 39.00" xmlns="http://www.w3.org/2000/svg" xmlns:xlink="http://www.w3.org/1999/xlink">
<g id="graph0" class="graph" transform="scale(1 1) rotate(0) translate(4 35)">
<title>SketchWidget::resizingBoardPress</title>
<polygon fill="#ffffff" stroke="transparent" points="-4,4 -4,-35 539,-35 539,4 -4,4"/>
<!-- Node19107 -->
<g id="node1" class="node">
<title>Node19107</title>
<g id="a_node1"><a xlink:title=" ">
<polygon fill="#bfbfbf" stroke="#000000" points="379,-.5 379,-30.5 535,-30.5 535,-.5 379,-.5"/>
<text text-anchor="start" x="387" y="-18.5" font-family="Helvetica,sans-Serif" font-size="10.00" fill="#000000">SketchWidget::resizingBoard</text>
<text text-anchor="middle" x="457" y="-7.5" font-family="Helvetica,sans-Serif" font-size="10.00" fill="#000000">Press</text>
</a>
</g>
</g>
<!-- Node19108 -->
<g id="node2" class="node">
<title>Node19108</title>
<g id="a_node2"><a xlink:href="../../d8/d37/classSketchWidget.html#a19e4694aab6edaeb9c3108d827757d1b" target="_top" xlink:title=" ">
<polygon fill="#ffffff" stroke="#000000" points="194,-.5 194,-30.5 343,-30.5 343,-.5 194,-.5"/>
<text text-anchor="start" x="202" y="-18.5" font-family="Helvetica,sans-Serif" font-size="10.00" fill="#000000">SketchWidget::mousePress</text>
<text text-anchor="middle" x="268.5" y="-7.5" font-family="Helvetica,sans-Serif" font-size="10.00" fill="#000000">Event</text>
</a>
</g>
</g>
<!-- Node19107&#45;&gt;Node19108 -->
<g id="edge1" class="edge">
<title>Node19107&#45;&gt;Node19108</title>
<path fill="none" stroke="#191970" d="M368.9042,-15.5C360.2885,-15.5 351.604,-15.5 343.1403,-15.5"/>
<polygon fill="#191970" stroke="#191970" points="368.9692,-19.0001 378.9691,-15.5 368.9691,-12.0001 368.9692,-19.0001"/>
</g>
<!-- Node19109 -->
<g id="node3" class="node">
<title>Node19109</title>
<g id="a_node3"><a xlink:href="../../d8/d37/classPartsEditorView.html#a55fa6bfc6aaa8305f6078f83b392b926" target="_top" xlink:title=" ">
<polygon fill="#ffffff" stroke="#000000" points="0,-.5 0,-30.5 158,-30.5 158,-.5 0,-.5"/>
<text text-anchor="start" x="8" y="-18.5" font-family="Helvetica,sans-Serif" font-size="10.00" fill="#000000">PartsEditorView::mousePress</text>
<text text-anchor="middle" x="79" y="-7.5" font-family="Helvetica,sans-Serif" font-size="10.00" fill="#000000">Event</text>
</a>
</g>
</g>
<!-- Node19108&#45;&gt;Node19109 -->
<g id="edge2" class="edge">
<title>Node19108&#45;&gt;Node19109</title>
<path fill="none" stroke="#191970" d="M183.638,-15.5C175.1859,-15.5 166.6278,-15.5 158.2365,-15.5"/>
<polygon fill="#191970" stroke="#191970" points="183.8766,-19.0001 193.8766,-15.5 183.8766,-12.0001 183.8766,-19.0001"/>
</g>
</g>
</svg>
