<?xml version="1.0" encoding="UTF-8" standalone="no"?>
<!DOCTYPE svg PUBLIC "-//W3C//DTD SVG 1.1//EN"
 "http://www.w3.org/Graphics/SVG/1.1/DTD/svg11.dtd">
<!-- Generated by graphviz version 2.40.1 (0)
 -->
<!-- Title: SketchWidget::flattenCurve Pages: 1 -->
<!--zoomable 331 -->
<svg id="main" version="1.1" xmlns="http://www.w3.org/2000/svg" xmlns:xlink="http://www.w3.org/1999/xlink" xml:space="preserve" onload="init(evt)">
<style type="text/css"><![CDATA[
.edge:hover path { stroke: red; }
.edge:hover polygon { stroke: red; fill: red; }
]]></style>
<script type="text/javascript"><![CDATA[
var edges = document.getElementsByTagName('g');
if (edges && edges.length) {
  for (var i=0;i<edges.length;i++) {
    if (edges[i].id.substr(0,4)=='edge') {
      edges[i].setAttribute('class','edge');
    }
  }
}
]]></script>
        <defs>
                <circle id="rim" cx="0" cy="0" r="7"/>
                <circle id="rim2" cx="0" cy="0" r="3.5"/>
                <g id="zoomPlus">
                        <use xlink:href="#rim" fill="#404040">
                                <set attributeName="fill" to="#808080" begin="zoomplus.mouseover" end="zoomplus.mouseout"/>
                        </use>
                        <path d="M-4,0h8M0,-4v8" fill="none" stroke="white" stroke-width="1.5" pointer-events="none"/>
                </g>
                <g id="zoomMin">
                        <use xlink:href="#rim" fill="#404040">
                                <set attributeName="fill" to="#808080" begin="zoomminus.mouseover" end="zoomminus.mouseout"/>
                        </use>
                        <path d="M-4,0h8" fill="none" stroke="white" stroke-width="1.5" pointer-events="none"/>
                </g>
                <g id="dirArrow">
                        <path fill="none" stroke="white" stroke-width="1.5" d="M0,-3.0v7 M-2.5,-0.5L0,-3.0L2.5,-0.5"/>
                </g>
               <g id="resetDef">
                       <use xlink:href="#rim2" fill="#404040">
                               <set attributeName="fill" to="#808080" begin="reset.mouseover" end="reset.mouseout"/>
                       </use>
               </g>
        </defs>

<script type="text/javascript">
var viewWidth = 1417;
var viewHeight = 331;
var sectionId = 'dynsection-235';
</script>
<script xlink:href="../../svgpan.js"/>
<svg id="graph" class="graph">
<g id="viewport">
<title>SketchWidget::flattenCurve</title>
<polygon fill="#ffffff" stroke="transparent" points="-4,4 -4,-327 1413,-327 1413,4 -4,4"/>
<!-- Node10393 -->
<g id="node1" class="node">
<title>Node10393</title>
<g id="a_node1"><a xlink:title=" ">
<polygon fill="#bfbfbf" stroke="#000000" points="0,-221.5 0,-240.5 149,-240.5 149,-221.5 0,-221.5"/>
<text text-anchor="middle" x="74.5" y="-228.5" font-family="Helvetica,sans-Serif" font-size="10.00" fill="#000000">SketchWidget::flattenCurve</text>
</a>
</g>
</g>
<!-- Node10394 -->
<g id="node2" class="node">
<title>Node10394</title>
<g id="a_node2"><a xlink:href="../../dc/d09/classNonConnectorItem.html#a1452f3637c83b50fbd089f9c4b4518b6" target="_top" xlink:title=" ">
<polygon fill="#ffffff" stroke="#000000" points="194,-303.5 194,-322.5 361,-322.5 361,-303.5 194,-303.5"/>
<text text-anchor="middle" x="277.5" y="-310.5" font-family="Helvetica,sans-Serif" font-size="10.00" fill="#000000">NonConnectorItem::attachedTo</text>
</a>
</g>
</g>
<!-- Node10393&#45;&gt;Node10394 -->
<g id="edge1" class="edge">
<title>Node10393&#45;&gt;Node10394</title>
<path fill="none" stroke="#191970" d="M88.0995,-240.6546C108.2854,-254.5313 147.8041,-279.9832 185,-294 192.0402,-296.653 199.5287,-298.9654 207.0786,-300.974"/>
<polygon fill="#191970" stroke="#191970" points="206.4575,-304.4261 217.0066,-303.4427 208.1468,-297.633 206.4575,-304.4261"/>
</g>
<!-- Node10395 -->
<g id="node3" class="node">
<title>Node10395</title>
<g id="a_node3"><a xlink:href="../../d7/d64/classWire.html#ad8c9250746e47be776fae10cc02a2eda" target="_top" xlink:title=" ">
<polygon fill="#ffffff" stroke="#000000" points="241.5,-265.5 241.5,-284.5 313.5,-284.5 313.5,-265.5 241.5,-265.5"/>
<text text-anchor="middle" x="277.5" y="-272.5" font-family="Helvetica,sans-Serif" font-size="10.00" fill="#000000">Wire::curve</text>
</a>
</g>
</g>
<!-- Node10393&#45;&gt;Node10395 -->
<g id="edge2" class="edge">
<title>Node10393&#45;&gt;Node10395</title>
<path fill="none" stroke="#191970" d="M115.6492,-240.5144C136.421,-245.2651 162.0246,-251.0418 185,-256 200.1039,-259.2595 216.6243,-262.6942 231.4709,-265.7334"/>
<polygon fill="#191970" stroke="#191970" points="230.9462,-269.1984 241.4439,-267.7673 232.345,-262.3396 230.9462,-269.1984"/>
</g>
<!-- Node10396 -->
<g id="node4" class="node">
<title>Node10396</title>
<g id="a_node4"><a xlink:href="../../d8/d37/classSketchWidget.html#a8d418165fb0480ad618e40c871e9e46c" target="_top" xlink:title=" ">
<polygon fill="#ffffff" stroke="#000000" points="196.5,-216 196.5,-246 358.5,-246 358.5,-216 196.5,-216"/>
<text text-anchor="start" x="204.5" y="-234" font-family="Helvetica,sans-Serif" font-size="10.00" fill="#000000">SketchWidget::lastHoverEnter</text>
<text text-anchor="middle" x="277.5" y="-223" font-family="Helvetica,sans-Serif" font-size="10.00" fill="#000000">ConnectorItem</text>
</a>
</g>
</g>
<!-- Node10393&#45;&gt;Node10396 -->
<g id="edge3" class="edge">
<title>Node10393&#45;&gt;Node10396</title>
<path fill="none" stroke="#191970" d="M149.2249,-231C161.2365,-231 173.7869,-231 186.1352,-231"/>
<polygon fill="#191970" stroke="#191970" points="186.4441,-234.5001 196.444,-231 186.444,-227.5001 186.4441,-234.5001"/>
</g>
<!-- Node10397 -->
<g id="node5" class="node">
<title>Node10397</title>
<g id="a_node5"><a xlink:href="../../d8/d37/classSketchWidget.html#a96008c0cbe889ecde0143879bbd531dd" target="_top" xlink:title=" ">
<polygon fill="#ffffff" stroke="#000000" points="185,-177.5 185,-196.5 370,-196.5 370,-177.5 185,-177.5"/>
<text text-anchor="middle" x="277.5" y="-184.5" font-family="Helvetica,sans-Serif" font-size="10.00" fill="#000000">SketchWidget::lastHoverEnterItem</text>
</a>
</g>
</g>
<!-- Node10393&#45;&gt;Node10397 -->
<g id="edge4" class="edge">
<title>Node10393&#45;&gt;Node10397</title>
<path fill="none" stroke="#191970" d="M118.3237,-221.4719C138.61,-217.0638 163.0321,-211.7606 185,-207 197.4169,-204.3092 210.7723,-201.4191 223.3663,-198.6957"/>
<polygon fill="#191970" stroke="#191970" points="224.2362,-202.0886 233.2707,-196.5543 222.7569,-195.2467 224.2362,-202.0886"/>
</g>
<!-- Node10398 -->
<g id="node6" class="node">
<title>Node10398</title>
<g id="a_node6"><a xlink:href="../../d8/d37/classSketchWidget.html#ae4d4ed21d55c051285de66d3813bed5e" target="_top" xlink:title=" ">
<polygon fill="#ffffff" stroke="#000000" points="201,-128 201,-158 354,-158 354,-128 201,-128"/>
<text text-anchor="start" x="209" y="-146" font-family="Helvetica,sans-Serif" font-size="10.00" fill="#000000">SketchWidget::wireChanged</text>
<text text-anchor="middle" x="277.5" y="-135" font-family="Helvetica,sans-Serif" font-size="10.00" fill="#000000">CurveSlot</text>
</a>
</g>
</g>
<!-- Node10393&#45;&gt;Node10398 -->
<g id="edge5" class="edge">
<title>Node10393&#45;&gt;Node10398</title>
<path fill="none" stroke="#191970" d="M88.5585,-221.4193C108.9922,-207.865 148.4558,-183.0673 185,-168 190.8537,-165.5865 197.0116,-163.338 203.2538,-161.2588"/>
<polygon fill="#191970" stroke="#191970" points="204.6293,-164.4943 213.1007,-158.1315 202.5104,-157.8227 204.6293,-164.4943"/>
</g>
<!-- Node10399 -->
<g id="node7" class="node">
<title>Node10399</title>
<g id="a_node7"><a xlink:href="../../d8/d37/classSketchWidget.html#a64ec2ec0979f89303d7299d215733cd8" target="_top" xlink:title=" ">
<polygon fill="#ffffff" stroke="#000000" points="420,-210 420,-240 571,-240 571,-210 420,-210"/>
<text text-anchor="start" x="428" y="-228" font-family="Helvetica,sans-Serif" font-size="10.00" fill="#000000">SketchWidget::clearHolding</text>
<text text-anchor="middle" x="495.5" y="-217" font-family="Helvetica,sans-Serif" font-size="10.00" fill="#000000">SelectItem</text>
</a>
</g>
</g>
<!-- Node10398&#45;&gt;Node10399 -->
<g id="edge6" class="edge">
<title>Node10398&#45;&gt;Node10399</title>
<path fill="none" stroke="#191970" d="M347.0637,-158.0036C355.0132,-160.8187 362.8283,-164.1257 370,-168 388.8347,-178.1748 387.2084,-189.7459 406,-200 410.2043,-202.2942 414.6371,-204.3924 419.1888,-206.3094"/>
<polygon fill="#191970" stroke="#191970" points="418.0753,-209.6317 428.6639,-209.9943 420.6125,-203.1076 418.0753,-209.6317"/>
</g>
<!-- Node10400 -->
<g id="node8" class="node">
<title>Node10400</title>
<g id="a_node8"><a xlink:href="../../d4/d4f/classItemBase.html#a27afd199a7ae3c3fd14e88ed0be14420" target="_top" xlink:title=" ">
<polygon fill="#ffffff" stroke="#000000" points="456.5,-171.5 456.5,-190.5 534.5,-190.5 534.5,-171.5 456.5,-171.5"/>
<text text-anchor="middle" x="495.5" y="-178.5" font-family="Helvetica,sans-Serif" font-size="10.00" fill="#000000">ItemBase::id</text>
</a>
</g>
</g>
<!-- Node10398&#45;&gt;Node10400 -->
<g id="edge7" class="edge">
<title>Node10398&#45;&gt;Node10400</title>
<path fill="none" stroke="#191970" d="M354.0521,-156.3439C384.73,-161.6915 419.181,-167.6967 446.4023,-172.4417"/>
<polygon fill="#191970" stroke="#191970" points="446.0057,-175.9252 456.4582,-174.1945 447.2078,-169.0292 446.0057,-175.9252"/>
</g>
<!-- Node10401 -->
<g id="node9" class="node">
<title>Node10401</title>
<g id="a_node9"><a xlink:href="../../d7/d64/classWire.html#a344d3f7e6f146f364b81d595d7792b3e" target="_top" xlink:title=" ">
<polygon fill="#ffffff" stroke="#000000" points="433.5,-133.5 433.5,-152.5 557.5,-152.5 557.5,-133.5 433.5,-133.5"/>
<text text-anchor="middle" x="495.5" y="-140.5" font-family="Helvetica,sans-Serif" font-size="10.00" fill="#000000">Wire::getAutoroutable</text>
</a>
</g>
</g>
<!-- Node10398&#45;&gt;Node10401 -->
<g id="edge8" class="edge">
<title>Node10398&#45;&gt;Node10401</title>
<path fill="none" stroke="#191970" d="M354.0521,-143C376.5005,-143 400.9693,-143 423.1473,-143"/>
<polygon fill="#191970" stroke="#191970" points="423.1605,-146.5001 433.1605,-143 423.1604,-139.5001 423.1605,-146.5001"/>
</g>
<!-- Node10403 -->
<g id="node11" class="node">
<title>Node10403</title>
<g id="a_node11"><a xlink:href="../../d8/d6e/classBaseCommand.html#a585d8f59cf9bd3df472711b2c73ac7e2" target="_top" xlink:title=" ">
<polygon fill="#ffffff" stroke="#000000" points="406,-95.5 406,-114.5 585,-114.5 585,-95.5 406,-95.5"/>
<text text-anchor="middle" x="495.5" y="-102.5" font-family="Helvetica,sans-Serif" font-size="10.00" fill="#000000">BaseCommand::setSkipFirstRedo</text>
</a>
</g>
</g>
<!-- Node10398&#45;&gt;Node10403 -->
<g id="edge10" class="edge">
<title>Node10398&#45;&gt;Node10403</title>
<path fill="none" stroke="#191970" d="M354.0521,-129.6561C379.0644,-125.2961 406.585,-120.499 430.6503,-116.3041"/>
<polygon fill="#191970" stroke="#191970" points="431.4847,-119.7115 440.7351,-114.5462 430.2826,-112.8155 431.4847,-119.7115"/>
</g>
<!-- Node10404 -->
<g id="node12" class="node">
<title>Node10404</title>
<g id="a_node12"><a xlink:href="../../d0/dbb/classWaitPushUndoStack.html#a279fdca551f05e81111de92ea5b2145c" target="_top" xlink:title=" ">
<polygon fill="#ffffff" stroke="#000000" points="424,-57.5 424,-76.5 567,-76.5 567,-57.5 424,-57.5"/>
<text text-anchor="middle" x="495.5" y="-64.5" font-family="Helvetica,sans-Serif" font-size="10.00" fill="#000000">WaitPushUndoStack::push</text>
</a>
</g>
</g>
<!-- Node10398&#45;&gt;Node10404 -->
<g id="edge11" class="edge">
<title>Node10398&#45;&gt;Node10404</title>
<path fill="none" stroke="#191970" d="M306.672,-127.9577C332.2802,-115.2673 370.8263,-97.3969 406,-86 414.2343,-83.3319 423.0183,-80.9388 431.7449,-78.8245"/>
<polygon fill="#191970" stroke="#191970" points="432.5882,-82.222 441.5407,-76.5561 431.0089,-75.4024 432.5882,-82.222"/>
</g>
<!-- Node10402 -->
<g id="node10" class="node">
<title>Node10402</title>
<g id="a_node10"><a xlink:href="../../d3/de8/classViewGeometry.html#af689b52fc3d260a5cc237dcb760b8faa" target="_top" xlink:title=" ">
<polygon fill="#ffffff" stroke="#000000" points="621,-133.5 621,-152.5 794,-152.5 794,-133.5 621,-133.5"/>
<text text-anchor="middle" x="707.5" y="-140.5" font-family="Helvetica,sans-Serif" font-size="10.00" fill="#000000">ViewGeometry::getAutoroutable</text>
</a>
</g>
</g>
<!-- Node10401&#45;&gt;Node10402 -->
<g id="edge9" class="edge">
<title>Node10401&#45;&gt;Node10402</title>
<path fill="none" stroke="#191970" d="M557.6745,-143C574.2974,-143 592.6655,-143 610.6776,-143"/>
<polygon fill="#191970" stroke="#191970" points="610.9287,-146.5001 620.9287,-143 610.9286,-139.5001 610.9287,-146.5001"/>
</g>
<!-- Node10405 -->
<g id="node13" class="node">
<title>Node10405</title>
<g id="a_node13"><a xlink:href="../../d0/dbb/classWaitPushUndoStack.html#a2b0322812e333fec2b4d0d12b12e634c" target="_top" xlink:title=" ">
<polygon fill="#ffffff" stroke="#000000" points="647.5,-52 647.5,-82 767.5,-82 767.5,-52 647.5,-52"/>
<text text-anchor="start" x="655.5" y="-70" font-family="Helvetica,sans-Serif" font-size="10.00" fill="#000000">WaitPushUndoStack::</text>
<text text-anchor="middle" x="707.5" y="-59" font-family="Helvetica,sans-Serif" font-size="10.00" fill="#000000">writeUndo</text>
</a>
</g>
</g>
<!-- Node10404&#45;&gt;Node10405 -->
<g id="edge12" class="edge">
<title>Node10404&#45;&gt;Node10405</title>
<path fill="none" stroke="#191970" d="M567.2735,-67C589.8782,-67 614.8091,-67 637.3028,-67"/>
<polygon fill="#191970" stroke="#191970" points="637.4491,-70.5001 647.4491,-67 637.449,-63.5001 637.4491,-70.5001"/>
</g>
<!-- Node10406 -->
<g id="node14" class="node">
<title>Node10406</title>
<g id="a_node14"><a xlink:href="../../d8/d6e/classBaseCommand.html#a2d7619b36325bfec9111724045c24b8e" target="_top" xlink:title=" ">
<polygon fill="#ffffff" stroke="#000000" points="840,-114.5 840,-133.5 1013,-133.5 1013,-114.5 840,-114.5"/>
<text text-anchor="middle" x="926.5" y="-121.5" font-family="Helvetica,sans-Serif" font-size="10.00" fill="#000000">BaseCommand::getDebugString</text>
</a>
</g>
</g>
<!-- Node10405&#45;&gt;Node10406 -->
<g id="edge13" class="edge">
<title>Node10405&#45;&gt;Node10406</title>
<path fill="none" stroke="#191970" d="M751.9769,-82.0482C775.083,-89.5464 803.8785,-98.3969 830,-105 840.5198,-107.6592 851.7631,-110.169 862.7225,-112.4397"/>
<polygon fill="#191970" stroke="#191970" points="862.1828,-115.9014 872.6785,-114.4552 863.5718,-109.0405 862.1828,-115.9014"/>
</g>
<!-- Node10409 -->
<g id="node17" class="node">
<title>Node10409</title>
<g id="a_node17"><a xlink:href="../../d8/d6e/classBaseCommand.html#af34b4e2829ad3b7b718499916fd87cbb" target="_top" xlink:title=" ">
<polygon fill="#ffffff" stroke="#000000" points="864.5,-76.5 864.5,-95.5 988.5,-95.5 988.5,-76.5 864.5,-76.5"/>
<text text-anchor="middle" x="926.5" y="-83.5" font-family="Helvetica,sans-Serif" font-size="10.00" fill="#000000">BaseCommand::index</text>
</a>
</g>
</g>
<!-- Node10405&#45;&gt;Node10409 -->
<g id="edge16" class="edge">
<title>Node10405&#45;&gt;Node10409</title>
<path fill="none" stroke="#191970" d="M767.6324,-72.217C794.3604,-74.5358 826.0517,-77.2853 854.0712,-79.7162"/>
<polygon fill="#191970" stroke="#191970" points="853.9469,-83.2185 864.212,-80.596 854.552,-76.2447 853.9469,-83.2185"/>
</g>
<!-- Node10410 -->
<g id="node18" class="node">
<title>Node10410</title>
<g id="a_node18"><a xlink:href="../../d8/d6e/classBaseCommand.html#ad7114bcb3cf27232facaf0cbcd7e3b58" target="_top" xlink:title=" ">
<polygon fill="#ffffff" stroke="#000000" points="830,-38.5 830,-57.5 1023,-57.5 1023,-38.5 830,-38.5"/>
<text text-anchor="middle" x="926.5" y="-45.5" font-family="Helvetica,sans-Serif" font-size="10.00" fill="#000000">BaseCommand::subCommandCount</text>
</a>
</g>
</g>
<!-- Node10405&#45;&gt;Node10410 -->
<g id="edge17" class="edge">
<title>Node10405&#45;&gt;Node10410</title>
<path fill="none" stroke="#191970" d="M767.6324,-61.783C783.7218,-60.3871 801.6098,-58.8352 819.4127,-57.2907"/>
<polygon fill="#191970" stroke="#191970" points="820.2107,-60.7347 829.8707,-56.3834 819.6056,-53.7609 820.2107,-60.7347"/>
</g>
<!-- Node10411 -->
<g id="node19" class="node">
<title>Node10411</title>
<g id="a_node19"><a xlink:href="../../d8/d6e/classBaseCommand.html#a2717e1d5a234ba427175907b2dc58c23" target="_top" xlink:title=" ">
<polygon fill="#ffffff" stroke="#000000" points="844.5,-.5 844.5,-19.5 1008.5,-19.5 1008.5,-.5 844.5,-.5"/>
<text text-anchor="middle" x="926.5" y="-7.5" font-family="Helvetica,sans-Serif" font-size="10.00" fill="#000000">BaseCommand::subCommand</text>
</a>
</g>
</g>
<!-- Node10405&#45;&gt;Node10411 -->
<g id="edge18" class="edge">
<title>Node10405&#45;&gt;Node10411</title>
<path fill="none" stroke="#191970" d="M751.9769,-51.9518C775.083,-44.4536 803.8785,-35.6031 830,-29 840.5198,-26.3408 851.7631,-23.831 862.7225,-21.5603"/>
<polygon fill="#191970" stroke="#191970" points="863.5718,-24.9595 872.6785,-19.5448 862.1828,-18.0986 863.5718,-24.9595"/>
</g>
<!-- Node10407 -->
<g id="node15" class="node">
<title>Node10407</title>
<g id="a_node15"><a xlink:href="../../d8/d6e/classBaseCommand.html#aca69868889f793ce1399fd0c752cfa05" target="_top" xlink:title=" ">
<polygon fill="#ffffff" stroke="#000000" points="1059,-114.5 1059,-133.5 1231,-133.5 1231,-114.5 1059,-114.5"/>
<text text-anchor="middle" x="1145" y="-121.5" font-family="Helvetica,sans-Serif" font-size="10.00" fill="#000000">BaseCommand::getParamString</text>
</a>
</g>
</g>
<!-- Node10406&#45;&gt;Node10407 -->
<g id="edge14" class="edge">
<title>Node10406&#45;&gt;Node10407</title>
<path fill="none" stroke="#191970" d="M1013.1708,-124C1024.7822,-124 1036.7493,-124 1048.5162,-124"/>
<polygon fill="#191970" stroke="#191970" points="1048.7913,-127.5001 1058.7913,-124 1048.7913,-120.5001 1048.7913,-127.5001"/>
</g>
<!-- Node10408 -->
<g id="node16" class="node">
<title>Node10408</title>
<g id="a_node16"><a xlink:href="../../d8/d37/classSketchWidget.html#a4319a31c3a619e166f0e7dac865e2ea3" target="_top" xlink:title=" ">
<polygon fill="#ffffff" stroke="#000000" points="1267,-114.5 1267,-133.5 1409,-133.5 1409,-114.5 1267,-114.5"/>
<text text-anchor="middle" x="1338" y="-121.5" font-family="Helvetica,sans-Serif" font-size="10.00" fill="#000000">SketchWidget::viewName</text>
</a>
</g>
</g>
<!-- Node10407&#45;&gt;Node10408 -->
<g id="edge15" class="edge">
<title>Node10407&#45;&gt;Node10408</title>
<path fill="none" stroke="#191970" d="M1231.0578,-124C1239.562,-124 1248.1756,-124 1256.6304,-124"/>
<polygon fill="#191970" stroke="#191970" points="1256.8465,-127.5001 1266.8465,-124 1256.8465,-120.5001 1256.8465,-127.5001"/>
</g>
</g>
</svg>
        <g id="navigator" transform="translate(0 0)" fill="#404254">
                <rect fill="#f2f5e9" fill-opacity="0.5" stroke="#606060" stroke-width=".5" x="0" y="0" width="60" height="60"/>
                <use id="zoomplus" xlink:href="#zoomPlus" x="17" y="9" onmousedown="handleZoom(evt,'in')"/>
                <use id="zoomminus" xlink:href="#zoomMin" x="42" y="9" onmousedown="handleZoom(evt,'out')"/>
                <use id="reset" xlink:href="#resetDef" x="30" y="36" onmousedown="handleReset()"/>
                <g id="arrowUp" xlink:href="#dirArrow" transform="translate(30 24)" onmousedown="handlePan(0,-1)">
                  <use xlink:href="#rim" fill="#404040">
                        <set attributeName="fill" to="#808080" begin="arrowUp.mouseover" end="arrowUp.mouseout"/>
                  </use>
                  <path fill="none" stroke="white" stroke-width="1.5" d="M0,-3.0v7 M-2.5,-0.5L0,-3.0L2.5,-0.5"/>
                </g>
                <g id="arrowRight" xlink:href="#dirArrow" transform="rotate(90) translate(36 -43)" onmousedown="handlePan(1,0)">
                  <use xlink:href="#rim" fill="#404040">
                        <set attributeName="fill" to="#808080" begin="arrowRight.mouseover" end="arrowRight.mouseout"/>
                  </use>
                  <path fill="none" stroke="white" stroke-width="1.5" d="M0,-3.0v7 M-2.5,-0.5L0,-3.0L2.5,-0.5"/>
                </g>
                <g id="arrowDown" xlink:href="#dirArrow" transform="rotate(180) translate(-30 -48)" onmousedown="handlePan(0,1)">
                  <use xlink:href="#rim" fill="#404040">
                        <set attributeName="fill" to="#808080" begin="arrowDown.mouseover" end="arrowDown.mouseout"/>
                  </use>
                  <path fill="none" stroke="white" stroke-width="1.5" d="M0,-3.0v7 M-2.5,-0.5L0,-3.0L2.5,-0.5"/>
                </g>
                <g id="arrowLeft" xlink:href="#dirArrow" transform="rotate(270) translate(-36 17)" onmousedown="handlePan(-1,0)">
                  <use xlink:href="#rim" fill="#404040">
                        <set attributeName="fill" to="#808080" begin="arrowLeft.mouseover" end="arrowLeft.mouseout"/>
                  </use>
                  <path fill="none" stroke="white" stroke-width="1.5" d="M0,-3.0v7 M-2.5,-0.5L0,-3.0L2.5,-0.5"/>
                </g>
        </g>
        <svg viewBox="0 0 15 15" width="100%" height="30px" preserveAspectRatio="xMaxYMin meet">
         <g id="arrow_out" transform="scale(0.3 0.3)">
          <a xlink:href="classSketchWidget_aae3b4deb05a16cd0a6b3752886eae4f9_cgraph_org.svg" target="_base">
           <rect id="button" ry="5" rx="5" y="6" x="6" height="38" width="38"
                fill="#f2f5e9" fill-opacity="0.5" stroke="#606060" stroke-width="1.0"/>
           <path id="arrow"
             d="M 11.500037,31.436501 C 11.940474,20.09759 22.043105,11.32322 32.158766,21.979434 L 37.068811,17.246167 C 37.068811,17.246167 37.088388,32 37.088388,32 L 22.160133,31.978069 C 22.160133,31.978069 26.997745,27.140456 26.997745,27.140456 C 18.528582,18.264221 13.291696,25.230495 11.500037,31.436501 z"
             style="fill:#404040;"/>
          </a>
         </g>
        </svg>
</svg>
