<?xml version="1.0" encoding="UTF-8" standalone="no"?>
<!DOCTYPE svg PUBLIC "-//W3C//DTD SVG 1.1//EN"
 "http://www.w3.org/Graphics/SVG/1.1/DTD/svg11.dtd">
<!-- Generated by graphviz version 2.40.1 (0)
 -->
<!-- Title: SketchWidget::getViewLayerPlacement Pages: 1 -->
<svg width="556pt" height="165pt"
 viewBox="0.00 0.00 556.00 165.00" xmlns="http://www.w3.org/2000/svg" xmlns:xlink="http://www.w3.org/1999/xlink">
<g id="graph0" class="graph" transform="scale(1 1) rotate(0) translate(4 161)">
<title>SketchWidget::getViewLayerPlacement</title>
<polygon fill="#ffffff" stroke="transparent" points="-4,4 -4,-161 552,-161 552,4 -4,4"/>
<!-- Node11118 -->
<g id="node1" class="node">
<title>Node11118</title>
<g id="a_node1"><a xlink:title=" ">
<polygon fill="#bfbfbf" stroke="#000000" points="0,-63.5 0,-93.5 156,-93.5 156,-63.5 0,-63.5"/>
<text text-anchor="start" x="8" y="-81.5" font-family="Helvetica,sans-Serif" font-size="10.00" fill="#000000">SketchWidget::getViewLayer</text>
<text text-anchor="middle" x="78" y="-70.5" font-family="Helvetica,sans-Serif" font-size="10.00" fill="#000000">Placement</text>
</a>
</g>
</g>
<!-- Node11119 -->
<g id="node2" class="node">
<title>Node11119</title>
<g id="a_node2"><a xlink:href="../../d8/d37/classSketchWidget.html#a4bd1bf56c63b9d9921bf28ed9e62113f" target="_top" xlink:title=" ">
<polygon fill="#ffffff" stroke="#000000" points="197.5,-126.5 197.5,-156.5 345.5,-156.5 345.5,-126.5 197.5,-126.5"/>
<text text-anchor="start" x="205.5" y="-144.5" font-family="Helvetica,sans-Serif" font-size="10.00" fill="#000000">SketchWidget::defaultView</text>
<text text-anchor="middle" x="271.5" y="-133.5" font-family="Helvetica,sans-Serif" font-size="10.00" fill="#000000">LayerPlacement</text>
</a>
</g>
</g>
<!-- Node11118&#45;&gt;Node11119 -->
<g id="edge1" class="edge">
<title>Node11118&#45;&gt;Node11119</title>
<path fill="none" stroke="#191970" d="M122.6085,-93.5654C143.6324,-100.6155 169.0764,-109.0757 192,-116.5 198.9081,-118.7373 206.163,-121.0583 213.3634,-123.3441"/>
<polygon fill="#191970" stroke="#191970" points="212.5204,-126.7483 223.1104,-126.4281 214.6321,-120.0744 212.5204,-126.7483"/>
</g>
<!-- Node11120 -->
<g id="node3" class="node">
<title>Node11120</title>
<g id="a_node3"><a xlink:href="../../d3/de8/classViewGeometry.html#a0e0483df543b8ef0232569383ecb63f7" target="_top" xlink:title=" ">
<polygon fill="#ffffff" stroke="#000000" points="194,-88 194,-107 349,-107 349,-88 194,-88"/>
<text text-anchor="middle" x="271.5" y="-95" font-family="Helvetica,sans-Serif" font-size="10.00" fill="#000000">ViewGeometry::getAnyTrace</text>
</a>
</g>
</g>
<!-- Node11118&#45;&gt;Node11120 -->
<g id="edge2" class="edge">
<title>Node11118&#45;&gt;Node11120</title>
<path fill="none" stroke="#191970" d="M156.1461,-86.1733C165.1387,-87.0563 174.3542,-87.9611 183.4657,-88.8558"/>
<polygon fill="#191970" stroke="#191970" points="183.3971,-92.3658 193.6913,-89.8599 184.0812,-85.3993 183.3971,-92.3658"/>
</g>
<!-- Node11123 -->
<g id="node6" class="node">
<title>Node11123</title>
<g id="a_node6"><a xlink:href="../../d4/d72/classModelPart.html#affa1c5cf5ca90387b030ec2f8311823f" target="_top" xlink:title=" ">
<polygon fill="#ffffff" stroke="#000000" points="212,-50 212,-69 331,-69 331,-50 212,-50"/>
<text text-anchor="middle" x="271.5" y="-57" font-family="Helvetica,sans-Serif" font-size="10.00" fill="#000000">ModelPart::moduleID</text>
</a>
</g>
</g>
<!-- Node11118&#45;&gt;Node11123 -->
<g id="edge5" class="edge">
<title>Node11118&#45;&gt;Node11123</title>
<path fill="none" stroke="#191970" d="M156.1461,-70.8267C171.2305,-69.3456 186.9419,-67.8029 201.738,-66.35"/>
<polygon fill="#191970" stroke="#191970" points="202.2062,-69.821 211.8162,-65.3604 201.522,-62.8545 202.2062,-69.821"/>
</g>
<!-- Node11124 -->
<g id="node7" class="node">
<title>Node11124</title>
<g id="a_node7"><a xlink:href="../../d5/d9d/classViewLayer.html#a67cd0fff01dcc8e00d889173e65403fd" target="_top" xlink:title=" ">
<polygon fill="#ffffff" stroke="#000000" points="192,-.5 192,-30.5 351,-30.5 351,-.5 192,-.5"/>
<text text-anchor="start" x="200" y="-18.5" font-family="Helvetica,sans-Serif" font-size="10.00" fill="#000000">ViewLayer::viewLayerIDFrom</text>
<text text-anchor="middle" x="271.5" y="-7.5" font-family="Helvetica,sans-Serif" font-size="10.00" fill="#000000">XmlString</text>
</a>
</g>
</g>
<!-- Node11118&#45;&gt;Node11124 -->
<g id="edge6" class="edge">
<title>Node11118&#45;&gt;Node11124</title>
<path fill="none" stroke="#191970" d="M122.6085,-63.4346C143.6324,-56.3845 169.0764,-47.9243 192,-40.5 198.9081,-38.2627 206.163,-35.9417 213.3634,-33.6559"/>
<polygon fill="#191970" stroke="#191970" points="214.6321,-36.9256 223.1104,-30.5719 212.5204,-30.2517 214.6321,-36.9256"/>
</g>
<!-- Node11121 -->
<g id="node4" class="node">
<title>Node11121</title>
<g id="a_node4"><a xlink:href="../../d3/de8/classViewGeometry.html#a36bf8fa6c0bfb1e2af0bb3c4fcb5fdd2" target="_top" xlink:title=" ">
<polygon fill="#ffffff" stroke="#000000" points="390,-110 390,-129 545,-129 545,-110 390,-110"/>
<text text-anchor="middle" x="467.5" y="-117" font-family="Helvetica,sans-Serif" font-size="10.00" fill="#000000">ViewGeometry::getPCBTrace</text>
</a>
</g>
</g>
<!-- Node11120&#45;&gt;Node11121 -->
<g id="edge3" class="edge">
<title>Node11120&#45;&gt;Node11121</title>
<path fill="none" stroke="#191970" d="M349.2459,-106.2266C359.2658,-107.3513 369.5811,-108.5091 379.7476,-109.6502"/>
<polygon fill="#191970" stroke="#191970" points="379.5201,-113.1466 389.8481,-110.784 380.301,-106.1903 379.5201,-113.1466"/>
</g>
<!-- Node11122 -->
<g id="node5" class="node">
<title>Node11122</title>
<g id="a_node5"><a xlink:href="../../d3/de8/classViewGeometry.html#a972ab74ff22c5c3d4cb4e587cb8d59fd" target="_top" xlink:title=" ">
<polygon fill="#ffffff" stroke="#000000" points="387,-60.5 387,-90.5 548,-90.5 548,-60.5 387,-60.5"/>
<text text-anchor="start" x="395" y="-78.5" font-family="Helvetica,sans-Serif" font-size="10.00" fill="#000000">ViewGeometry::getSchematic</text>
<text text-anchor="middle" x="467.5" y="-67.5" font-family="Helvetica,sans-Serif" font-size="10.00" fill="#000000">Trace</text>
</a>
</g>
</g>
<!-- Node11120&#45;&gt;Node11122 -->
<g id="edge4" class="edge">
<title>Node11120&#45;&gt;Node11122</title>
<path fill="none" stroke="#191970" d="M349.2459,-88.7734C358.3506,-87.7515 367.6993,-86.7021 376.9586,-85.6628"/>
<polygon fill="#191970" stroke="#191970" points="377.408,-89.1344 386.9551,-84.5408 376.6271,-82.1781 377.408,-89.1344"/>
</g>
</g>
</svg>
