<?xml version="1.0" encoding="UTF-8" standalone="no"?>
<!DOCTYPE svg PUBLIC "-//W3C//DTD SVG 1.1//EN"
 "http://www.w3.org/Graphics/SVG/1.1/DTD/svg11.dtd">
<!-- Generated by graphviz version 2.40.1 (0)
 -->
<!-- Title: SketchWidget::swappedGender Pages: 1 -->
<svg width="587pt" height="28pt"
 viewBox="0.00 0.00 587.00 28.00" xmlns="http://www.w3.org/2000/svg" xmlns:xlink="http://www.w3.org/1999/xlink">
<g id="graph0" class="graph" transform="scale(1 1) rotate(0) translate(4 24)">
<title>SketchWidget::swappedGender</title>
<polygon fill="#ffffff" stroke="transparent" points="-4,4 -4,-24 583,-24 583,4 -4,4"/>
<!-- Node22683 -->
<g id="node1" class="node">
<title>Node22683</title>
<g id="a_node1"><a xlink:title=" ">
<polygon fill="#bfbfbf" stroke="#000000" points="411,-.5 411,-19.5 579,-19.5 579,-.5 411,-.5"/>
<text text-anchor="middle" x="495" y="-7.5" font-family="Helvetica,sans-Serif" font-size="10.00" fill="#000000">SketchWidget::swappedGender</text>
</a>
</g>
</g>
<!-- Node22684 -->
<g id="node2" class="node">
<title>Node22684</title>
<g id="a_node2"><a xlink:href="../../d8/d37/classSketchWidget.html#aa86618aaab81694c0bfb9a51574e2bea" target="_top" xlink:title=" ">
<polygon fill="#ffffff" stroke="#000000" points="180,-.5 180,-19.5 375,-19.5 375,-.5 180,-.5"/>
<text text-anchor="middle" x="277.5" y="-7.5" font-family="Helvetica,sans-Serif" font-size="10.00" fill="#000000">SketchWidget::setUpSwapReconnect</text>
</a>
</g>
</g>
<!-- Node22683&#45;&gt;Node22684 -->
<g id="edge1" class="edge">
<title>Node22683&#45;&gt;Node22684</title>
<path fill="none" stroke="#191970" d="M400.6629,-10C392.2033,-10 383.6253,-10 375.1385,-10"/>
<polygon fill="#191970" stroke="#191970" points="400.9089,-13.5001 410.9088,-10 400.9088,-6.5001 400.9089,-13.5001"/>
</g>
<!-- Node22685 -->
<g id="node3" class="node">
<title>Node22685</title>
<g id="a_node3"><a xlink:href="../../d8/d37/classSketchWidget.html#a04f5b79a07774750b07b3affc52ac9e5" target="_top" xlink:title=" ">
<polygon fill="#ffffff" stroke="#000000" points="0,-.5 0,-19.5 144,-19.5 144,-.5 0,-.5"/>
<text text-anchor="middle" x="72" y="-7.5" font-family="Helvetica,sans-Serif" font-size="10.00" fill="#000000">SketchWidget::setUpSwap</text>
</a>
</g>
</g>
<!-- Node22684&#45;&gt;Node22685 -->
<g id="edge2" class="edge">
<title>Node22684&#45;&gt;Node22685</title>
<path fill="none" stroke="#191970" d="M169.7222,-10C161.0876,-10 152.5005,-10 144.2055,-10"/>
<polygon fill="#191970" stroke="#191970" points="169.8656,-13.5001 179.8656,-10 169.8655,-6.5001 169.8656,-13.5001"/>
</g>
</g>
</svg>
