<?xml version="1.0" encoding="UTF-8" standalone="no"?>
<!DOCTYPE svg PUBLIC "-//W3C//DTD SVG 1.1//EN"
 "http://www.w3.org/Graphics/SVG/1.1/DTD/svg11.dtd">
<!-- Generated by graphviz version 2.40.1 (0)
 -->
<!-- Title: SketchWidget::setPropSignal Pages: 1 -->
<!--zoomable 116 -->
<svg id="main" version="1.1" xmlns="http://www.w3.org/2000/svg" xmlns:xlink="http://www.w3.org/1999/xlink" xml:space="preserve" onload="init(evt)">
<style type="text/css"><![CDATA[
.edge:hover path { stroke: red; }
.edge:hover polygon { stroke: red; fill: red; }
]]></style>
<script type="text/javascript"><![CDATA[
var edges = document.getElementsByTagName('g');
if (edges && edges.length) {
  for (var i=0;i<edges.length;i++) {
    if (edges[i].id.substr(0,4)=='edge') {
      edges[i].setAttribute('class','edge');
    }
  }
}
]]></script>
        <defs>
                <circle id="rim" cx="0" cy="0" r="7"/>
                <circle id="rim2" cx="0" cy="0" r="3.5"/>
                <g id="zoomPlus">
                        <use xlink:href="#rim" fill="#404040">
                                <set attributeName="fill" to="#808080" begin="zoomplus.mouseover" end="zoomplus.mouseout"/>
                        </use>
                        <path d="M-4,0h8M0,-4v8" fill="none" stroke="white" stroke-width="1.5" pointer-events="none"/>
                </g>
                <g id="zoomMin">
                        <use xlink:href="#rim" fill="#404040">
                                <set attributeName="fill" to="#808080" begin="zoomminus.mouseover" end="zoomminus.mouseout"/>
                        </use>
                        <path d="M-4,0h8" fill="none" stroke="white" stroke-width="1.5" pointer-events="none"/>
                </g>
                <g id="dirArrow">
                        <path fill="none" stroke="white" stroke-width="1.5" d="M0,-3.0v7 M-2.5,-0.5L0,-3.0L2.5,-0.5"/>
                </g>
               <g id="resetDef">
                       <use xlink:href="#rim2" fill="#404040">
                               <set attributeName="fill" to="#808080" begin="reset.mouseover" end="reset.mouseout"/>
                       </use>
               </g>
        </defs>

<script type="text/javascript">
var viewWidth = 666;
var viewHeight = 116;
var sectionId = 'dynsection-523';
</script>
<script xlink:href="../../svgpan.js"/>
<svg id="graph" class="graph">
<g id="viewport">
<title>SketchWidget::setPropSignal</title>
<polygon fill="#ffffff" stroke="transparent" points="-4,4 -4,-111.5 662,-111.5 662,4 -4,4"/>
<!-- Node20608 -->
<g id="node1" class="node">
<title>Node20608</title>
<g id="a_node1"><a xlink:title=" ">
<polygon fill="#bfbfbf" stroke="#000000" points="502,-50 502,-69 658,-69 658,-50 502,-50"/>
<text text-anchor="middle" x="580" y="-57" font-family="Helvetica,sans-Serif" font-size="10.00" fill="#000000">SketchWidget::setPropSignal</text>
</a>
</g>
</g>
<!-- Node20609 -->
<g id="node2" class="node">
<title>Node20609</title>
<g id="a_node2"><a xlink:href="../../d8/d37/classSketchWidget.html#a43bbced3eb999e963c99ccdd5dd85c58" target="_top" xlink:title=" ">
<polygon fill="#ffffff" stroke="#000000" points="340,-50 340,-69 466,-69 466,-50 340,-50"/>
<text text-anchor="middle" x="403" y="-57" font-family="Helvetica,sans-Serif" font-size="10.00" fill="#000000">SketchWidget::setProp</text>
</a>
</g>
</g>
<!-- Node20608&#45;&gt;Node20609 -->
<g id="edge1" class="edge">
<title>Node20608&#45;&gt;Node20609</title>
<path fill="none" stroke="#191970" d="M491.7293,-59.5C483.09,-59.5 474.4478,-59.5 466.1319,-59.5"/>
<polygon fill="#191970" stroke="#191970" points="491.85,-63.0001 501.85,-59.5 491.85,-56.0001 491.85,-63.0001"/>
</g>
<!-- Node20610 -->
<g id="node3" class="node">
<title>Node20610</title>
<g id="a_node3"><a xlink:href="../../d1/d80/classSetPropCommand.html#a3a5e9e4d9fd4226ef14be28c4c0c4a02" target="_top" xlink:title=" ">
<polygon fill="#ffffff" stroke="#000000" points="170,-88 170,-107 304,-107 304,-88 170,-88"/>
<text text-anchor="middle" x="237" y="-95" font-family="Helvetica,sans-Serif" font-size="10.00" fill="#000000">SetPropCommand::undo</text>
</a>
</g>
</g>
<!-- Node20609&#45;&gt;Node20610 -->
<g id="edge2" class="edge">
<title>Node20609&#45;&gt;Node20610</title>
<path fill="none" stroke="#191970" d="M351.3466,-71.3243C327.9436,-76.6816 300.6429,-82.9311 278.5876,-87.9799"/>
<polygon fill="#191970" stroke="#191970" points="352.1444,-74.7323 361.1112,-69.089 350.5823,-67.9088 352.1444,-74.7323"/>
</g>
<!-- Node20611 -->
<g id="node4" class="node">
<title>Node20611</title>
<g id="a_node4"><a xlink:href="../../d1/d80/classSetPropCommand.html#a46565eaf965048daacb37a946282f44e" target="_top" xlink:title=" ">
<polygon fill="#ffffff" stroke="#000000" points="171,-50 171,-69 303,-69 303,-50 171,-50"/>
<text text-anchor="middle" x="237" y="-57" font-family="Helvetica,sans-Serif" font-size="10.00" fill="#000000">SetPropCommand::redo</text>
</a>
</g>
</g>
<!-- Node20609&#45;&gt;Node20611 -->
<g id="edge3" class="edge">
<title>Node20609&#45;&gt;Node20611</title>
<path fill="none" stroke="#191970" d="M329.5268,-59.5C320.7248,-59.5 311.7779,-59.5 303.0892,-59.5"/>
<polygon fill="#191970" stroke="#191970" points="329.769,-63.0001 339.769,-59.5 329.7689,-56.0001 329.769,-63.0001"/>
</g>
<!-- Node20612 -->
<g id="node5" class="node">
<title>Node20612</title>
<g id="a_node5"><a xlink:href="../../de/de6/classSchematicSketchWidget.html#abb818afdd3826b22c28c29a47cb22b5e" target="_top" xlink:title=" ">
<polygon fill="#ffffff" stroke="#000000" points="170,-.5 170,-30.5 304,-30.5 304,-.5 170,-.5"/>
<text text-anchor="start" x="178" y="-18.5" font-family="Helvetica,sans-Serif" font-size="10.00" fill="#000000">SchematicSketchWidget</text>
<text text-anchor="middle" x="237" y="-7.5" font-family="Helvetica,sans-Serif" font-size="10.00" fill="#000000">::setProp</text>
</a>
</g>
</g>
<!-- Node20609&#45;&gt;Node20612 -->
<g id="edge4" class="edge">
<title>Node20609&#45;&gt;Node20612</title>
<path fill="none" stroke="#191970" d="M357.0907,-47.3313C337.5153,-42.1426 314.4746,-36.0354 293.8375,-30.5654"/>
<polygon fill="#191970" stroke="#191970" points="356.4175,-50.7736 366.9805,-49.9527 358.211,-44.0073 356.4175,-50.7736"/>
</g>
<!-- Node20613 -->
<g id="node6" class="node">
<title>Node20613</title>
<g id="a_node6"><a xlink:href="../../de/de6/classSchematicSketchWidget.html#ac5c29710db8691b1526d5b2400f14a4d" target="_top" xlink:title=" ">
<polygon fill="#ffffff" stroke="#000000" points="0,-.5 0,-30.5 134,-30.5 134,-.5 0,-.5"/>
<text text-anchor="start" x="8" y="-18.5" font-family="Helvetica,sans-Serif" font-size="10.00" fill="#000000">SchematicSketchWidget</text>
<text text-anchor="middle" x="67" y="-7.5" font-family="Helvetica,sans-Serif" font-size="10.00" fill="#000000">::setInstanceTitle</text>
</a>
</g>
</g>
<!-- Node20612&#45;&gt;Node20613 -->
<g id="edge5" class="edge">
<title>Node20612&#45;&gt;Node20613</title>
<path fill="none" stroke="#191970" d="M159.5754,-15.5C151.1241,-15.5 142.5721,-15.5 134.2572,-15.5"/>
<polygon fill="#191970" stroke="#191970" points="159.8115,-19.0001 169.8115,-15.5 159.8115,-12.0001 159.8115,-19.0001"/>
</g>
</g>
</svg>
        <g id="navigator" transform="translate(0 0)" fill="#404254">
                <rect fill="#f2f5e9" fill-opacity="0.5" stroke="#606060" stroke-width=".5" x="0" y="0" width="60" height="60"/>
                <use id="zoomplus" xlink:href="#zoomPlus" x="17" y="9" onmousedown="handleZoom(evt,'in')"/>
                <use id="zoomminus" xlink:href="#zoomMin" x="42" y="9" onmousedown="handleZoom(evt,'out')"/>
                <use id="reset" xlink:href="#resetDef" x="30" y="36" onmousedown="handleReset()"/>
                <g id="arrowUp" xlink:href="#dirArrow" transform="translate(30 24)" onmousedown="handlePan(0,-1)">
                  <use xlink:href="#rim" fill="#404040">
                        <set attributeName="fill" to="#808080" begin="arrowUp.mouseover" end="arrowUp.mouseout"/>
                  </use>
                  <path fill="none" stroke="white" stroke-width="1.5" d="M0,-3.0v7 M-2.5,-0.5L0,-3.0L2.5,-0.5"/>
                </g>
                <g id="arrowRight" xlink:href="#dirArrow" transform="rotate(90) translate(36 -43)" onmousedown="handlePan(1,0)">
                  <use xlink:href="#rim" fill="#404040">
                        <set attributeName="fill" to="#808080" begin="arrowRight.mouseover" end="arrowRight.mouseout"/>
                  </use>
                  <path fill="none" stroke="white" stroke-width="1.5" d="M0,-3.0v7 M-2.5,-0.5L0,-3.0L2.5,-0.5"/>
                </g>
                <g id="arrowDown" xlink:href="#dirArrow" transform="rotate(180) translate(-30 -48)" onmousedown="handlePan(0,1)">
                  <use xlink:href="#rim" fill="#404040">
                        <set attributeName="fill" to="#808080" begin="arrowDown.mouseover" end="arrowDown.mouseout"/>
                  </use>
                  <path fill="none" stroke="white" stroke-width="1.5" d="M0,-3.0v7 M-2.5,-0.5L0,-3.0L2.5,-0.5"/>
                </g>
                <g id="arrowLeft" xlink:href="#dirArrow" transform="rotate(270) translate(-36 17)" onmousedown="handlePan(-1,0)">
                  <use xlink:href="#rim" fill="#404040">
                        <set attributeName="fill" to="#808080" begin="arrowLeft.mouseover" end="arrowLeft.mouseout"/>
                  </use>
                  <path fill="none" stroke="white" stroke-width="1.5" d="M0,-3.0v7 M-2.5,-0.5L0,-3.0L2.5,-0.5"/>
                </g>
        </g>
        <svg viewBox="0 0 15 15" width="100%" height="30px" preserveAspectRatio="xMaxYMin meet">
         <g id="arrow_out" transform="scale(0.3 0.3)">
          <a xlink:href="classSketchWidget_af54809af674c95e44912d3514f90d20b_icgraph_org.svg" target="_base">
           <rect id="button" ry="5" rx="5" y="6" x="6" height="38" width="38"
                fill="#f2f5e9" fill-opacity="0.5" stroke="#606060" stroke-width="1.0"/>
           <path id="arrow"
             d="M 11.500037,31.436501 C 11.940474,20.09759 22.043105,11.32322 32.158766,21.979434 L 37.068811,17.246167 C 37.068811,17.246167 37.088388,32 37.088388,32 L 22.160133,31.978069 C 22.160133,31.978069 26.997745,27.140456 26.997745,27.140456 C 18.528582,18.264221 13.291696,25.230495 11.500037,31.436501 z"
             style="fill:#404040;"/>
          </a>
         </g>
        </svg>
</svg>
