<?xml version="1.0" encoding="UTF-8" standalone="no"?>
<!DOCTYPE svg PUBLIC "-//W3C//DTD SVG 1.1//EN"
 "http://www.w3.org/Graphics/SVG/1.1/DTD/svg11.dtd">
<!-- Generated by graphviz version 2.40.1 (0)
 -->
<!-- Title: SketchWidget::createWire Pages: 1 -->
<!--zoomable 559 -->
<svg id="main" version="1.1" xmlns="http://www.w3.org/2000/svg" xmlns:xlink="http://www.w3.org/1999/xlink" xml:space="preserve" onload="init(evt)">
<style type="text/css"><![CDATA[
.edge:hover path { stroke: red; }
.edge:hover polygon { stroke: red; fill: red; }
]]></style>
<script type="text/javascript"><![CDATA[
var edges = document.getElementsByTagName('g');
if (edges && edges.length) {
  for (var i=0;i<edges.length;i++) {
    if (edges[i].id.substr(0,4)=='edge') {
      edges[i].setAttribute('class','edge');
    }
  }
}
]]></script>
        <defs>
                <circle id="rim" cx="0" cy="0" r="7"/>
                <circle id="rim2" cx="0" cy="0" r="3.5"/>
                <g id="zoomPlus">
                        <use xlink:href="#rim" fill="#404040">
                                <set attributeName="fill" to="#808080" begin="zoomplus.mouseover" end="zoomplus.mouseout"/>
                        </use>
                        <path d="M-4,0h8M0,-4v8" fill="none" stroke="white" stroke-width="1.5" pointer-events="none"/>
                </g>
                <g id="zoomMin">
                        <use xlink:href="#rim" fill="#404040">
                                <set attributeName="fill" to="#808080" begin="zoomminus.mouseover" end="zoomminus.mouseout"/>
                        </use>
                        <path d="M-4,0h8" fill="none" stroke="white" stroke-width="1.5" pointer-events="none"/>
                </g>
                <g id="dirArrow">
                        <path fill="none" stroke="white" stroke-width="1.5" d="M0,-3.0v7 M-2.5,-0.5L0,-3.0L2.5,-0.5"/>
                </g>
               <g id="resetDef">
                       <use xlink:href="#rim2" fill="#404040">
                               <set attributeName="fill" to="#808080" begin="reset.mouseover" end="reset.mouseout"/>
                       </use>
               </g>
        </defs>

<script type="text/javascript">
var viewWidth = 912;
var viewHeight = 559;
var sectionId = 'dynsection-160';
</script>
<script xlink:href="../../svgpan.js"/>
<svg id="graph" class="graph">
<g id="viewport">
<title>SketchWidget::createWire</title>
<polygon fill="#ffffff" stroke="transparent" points="-4,4 -4,-555 908,-555 908,4 -4,4"/>
<!-- Node7045 -->
<g id="node1" class="node">
<title>Node7045</title>
<g id="a_node1"><a xlink:title=" ">
<polygon fill="#bfbfbf" stroke="#000000" points="0,-202.5 0,-221.5 143,-221.5 143,-202.5 0,-202.5"/>
<text text-anchor="middle" x="71.5" y="-209.5" font-family="Helvetica,sans-Serif" font-size="10.00" fill="#000000">SketchWidget::createWire</text>
</a>
</g>
</g>
<!-- Node7046 -->
<g id="node2" class="node">
<title>Node7046</title>
<g id="a_node2"><a xlink:href="../../dc/d09/classNonConnectorItem.html#a8bddbd1259c61a57ba95d83150d57eaf" target="_top" xlink:title=" ">
<polygon fill="#ffffff" stroke="#000000" points="179,-452.5 179,-471.5 357,-471.5 357,-452.5 179,-452.5"/>
<text text-anchor="middle" x="268" y="-459.5" font-family="Helvetica,sans-Serif" font-size="10.00" fill="#000000">NonConnectorItem::attachedToID</text>
</a>
</g>
</g>
<!-- Node7045&#45;&gt;Node7046 -->
<g id="edge1" class="edge">
<title>Node7045&#45;&gt;Node7046</title>
<path fill="none" stroke="#191970" d="M75.4347,-221.7407C87.53,-250.848 126.5446,-338.7608 179,-397 197.2672,-417.2814 222.8126,-435.1435 241.8522,-446.9846"/>
<polygon fill="#191970" stroke="#191970" points="240.2502,-450.1064 250.6159,-452.2981 243.8794,-444.1206 240.2502,-450.1064"/>
</g>
<!-- Node7049 -->
<g id="node5" class="node">
<title>Node7049</title>
<g id="a_node5"><a xlink:href="../../dc/d09/classNonConnectorItem.html#add22aea9a0fe8aa2f3f5415c975a35e0" target="_top" xlink:title=" ">
<polygon fill="#ffffff" stroke="#000000" points="189.5,-491 189.5,-521 346.5,-521 346.5,-491 189.5,-491"/>
<text text-anchor="start" x="197.5" y="-509" font-family="Helvetica,sans-Serif" font-size="10.00" fill="#000000">NonConnectorItem::attached</text>
<text text-anchor="middle" x="268" y="-498" font-family="Helvetica,sans-Serif" font-size="10.00" fill="#000000">ToTitle</text>
</a>
</g>
</g>
<!-- Node7045&#45;&gt;Node7049 -->
<g id="edge4" class="edge">
<title>Node7045&#45;&gt;Node7049</title>
<path fill="none" stroke="#191970" d="M72.3436,-221.5429C76.2833,-260.2089 96.3418,-406.6956 179,-481 180.7456,-482.5692 182.5822,-484.0407 184.4938,-485.4205"/>
<polygon fill="#191970" stroke="#191970" points="182.9652,-488.5916 193.3051,-490.902 186.6628,-482.6478 182.9652,-488.5916"/>
</g>
<!-- Node7051 -->
<g id="node7" class="node">
<title>Node7051</title>
<g id="a_node7"><a xlink:href="../../dc/d3a/classConnectorItem.html#aa22ed310cdf87c914bfad84ce759d66b" target="_top" xlink:title=" ">
<polygon fill="#ffffff" stroke="#000000" points="196.5,-290 196.5,-320 339.5,-320 339.5,-290 196.5,-290"/>
<text text-anchor="start" x="204.5" y="-308" font-family="Helvetica,sans-Serif" font-size="10.00" fill="#000000">ConnectorItem::connector</text>
<text text-anchor="middle" x="268" y="-297" font-family="Helvetica,sans-Serif" font-size="10.00" fill="#000000">SharedID</text>
</a>
</g>
</g>
<!-- Node7045&#45;&gt;Node7051 -->
<g id="edge7" class="edge">
<title>Node7045&#45;&gt;Node7051</title>
<path fill="none" stroke="#191970" d="M83.6869,-221.6223C102.9054,-236.3662 141.8942,-264.5623 179,-281 183.6365,-283.0539 188.4887,-284.9671 193.4324,-286.7429"/>
<polygon fill="#191970" stroke="#191970" points="192.4248,-290.0969 203.0191,-289.9895 194.6702,-283.4668 192.4248,-290.0969"/>
</g>
<!-- Node7052 -->
<g id="node8" class="node">
<title>Node7052</title>
<g id="a_node8"><a xlink:href="../../d8/d37/classSketchWidget.html#a9c664f2ac0b81888263abd6dd977f7ca" target="_top" xlink:title=" ">
<polygon fill="#ffffff" stroke="#000000" points="196.5,-241 196.5,-271 339.5,-271 339.5,-241 196.5,-241"/>
<text text-anchor="start" x="204.5" y="-259" font-family="Helvetica,sans-Serif" font-size="10.00" fill="#000000">SketchWidget::createWire</text>
<text text-anchor="middle" x="268" y="-248" font-family="Helvetica,sans-Serif" font-size="10.00" fill="#000000">ViewLayerPlacement</text>
</a>
</g>
</g>
<!-- Node7045&#45;&gt;Node7052 -->
<g id="edge8" class="edge">
<title>Node7045&#45;&gt;Node7052</title>
<path fill="none" stroke="#191970" d="M114.1376,-221.5473C136.5575,-226.5676 164.7381,-232.8777 190.8356,-238.7215"/>
<polygon fill="#191970" stroke="#191970" points="190.1963,-242.1649 200.7195,-240.9346 191.7259,-235.3341 190.1963,-242.1649"/>
</g>
<!-- Node7054 -->
<g id="node10" class="node">
<title>Node7054</title>
<g id="a_node10"><a xlink:href="../../da/d3a/classDebugDialog.html#ad26216d18945d7d7188420707b76f241" target="_top" xlink:title=" ">
<polygon fill="#ffffff" stroke="#000000" points="210,-202.5 210,-221.5 326,-221.5 326,-202.5 210,-202.5"/>
<text text-anchor="middle" x="268" y="-209.5" font-family="Helvetica,sans-Serif" font-size="10.00" fill="#000000">DebugDialog::debug</text>
</a>
</g>
</g>
<!-- Node7045&#45;&gt;Node7054 -->
<g id="edge10" class="edge">
<title>Node7045&#45;&gt;Node7054</title>
<path fill="none" stroke="#191970" d="M143.2751,-212C161.6903,-212 181.4464,-212 199.6817,-212"/>
<polygon fill="#191970" stroke="#191970" points="199.9282,-215.5001 209.9282,-212 199.9281,-208.5001 199.9282,-215.5001"/>
</g>
<!-- Node7055 -->
<g id="node11" class="node">
<title>Node7055</title>
<g id="a_node11"><a xlink:href="../../d4/d4f/classItemBase.html#ae000103e2c77f8ffe4e11f9e08e054da" target="_top" xlink:title=" ">
<polygon fill="#ffffff" stroke="#000000" points="208.5,-164.5 208.5,-183.5 327.5,-183.5 327.5,-164.5 208.5,-164.5"/>
<text text-anchor="middle" x="268" y="-171.5" font-family="Helvetica,sans-Serif" font-size="10.00" fill="#000000">ItemBase::getNextID</text>
</a>
</g>
</g>
<!-- Node7045&#45;&gt;Node7055 -->
<g id="edge11" class="edge">
<title>Node7045&#45;&gt;Node7055</title>
<path fill="none" stroke="#191970" d="M120.8316,-202.46C147.4607,-197.3104 180.5266,-190.916 208.5663,-185.4935"/>
<polygon fill="#191970" stroke="#191970" points="209.4946,-188.879 218.6481,-183.5439 208.1654,-182.0063 209.4946,-188.879"/>
</g>
<!-- Node7057 -->
<g id="node13" class="node">
<title>Node7057</title>
<g id="a_node13"><a xlink:href="../../dc/d3a/classConnectorItem.html#a9db3e9a8e9a67433a39b3c12aa8fe442" target="_top" xlink:title=" ">
<polygon fill="#ffffff" stroke="#000000" points="185,-339 185,-369 351,-369 351,-339 185,-339"/>
<text text-anchor="start" x="193" y="-357" font-family="Helvetica,sans-Serif" font-size="10.00" fill="#000000">ConnectorItem::sceneAdjusted</text>
<text text-anchor="middle" x="268" y="-346" font-family="Helvetica,sans-Serif" font-size="10.00" fill="#000000">TerminalPoint</text>
</a>
</g>
</g>
<!-- Node7045&#45;&gt;Node7057 -->
<g id="edge13" class="edge">
<title>Node7045&#45;&gt;Node7057</title>
<path fill="none" stroke="#191970" d="M77.4521,-221.6453C91.906,-244.234 131.2077,-300.8517 179,-330 181.8009,-331.7082 184.7239,-333.2968 187.7315,-334.7739"/>
<polygon fill="#191970" stroke="#191970" points="186.4109,-338.017 196.9707,-338.8789 189.2532,-331.62 186.4109,-338.017"/>
</g>
<!-- Node7066 -->
<g id="node22" class="node">
<title>Node7066</title>
<g id="a_node22"><a xlink:href="../../d3/de8/classViewGeometry.html#a295c030cfa23e54b7815df05340cf713" target="_top" xlink:title=" ">
<polygon fill="#ffffff" stroke="#000000" points="203,-88.5 203,-107.5 333,-107.5 333,-88.5 203,-88.5"/>
<text text-anchor="middle" x="268" y="-95.5" font-family="Helvetica,sans-Serif" font-size="10.00" fill="#000000">ViewGeometry::setLine</text>
</a>
</g>
</g>
<!-- Node7045&#45;&gt;Node7066 -->
<g id="edge24" class="edge">
<title>Node7045&#45;&gt;Node7066</title>
<path fill="none" stroke="#191970" d="M79.2642,-202.4128C95.5532,-182.9901 135.4112,-138.9794 179,-117 183.8495,-114.5547 189.0013,-112.4235 194.2868,-110.5662"/>
<polygon fill="#191970" stroke="#191970" points="195.4375,-113.8731 203.9088,-107.51 193.3185,-107.2015 195.4375,-113.8731"/>
</g>
<!-- Node7068 -->
<g id="node24" class="node">
<title>Node7068</title>
<g id="a_node24"><a xlink:href="../../d3/de8/classViewGeometry.html#ada2d98e4a6be92bd84acd810face3433" target="_top" xlink:title=" ">
<polygon fill="#ffffff" stroke="#000000" points="205,-126.5 205,-145.5 331,-145.5 331,-126.5 205,-126.5"/>
<text text-anchor="middle" x="268" y="-133.5" font-family="Helvetica,sans-Serif" font-size="10.00" fill="#000000">ViewGeometry::setLoc</text>
</a>
</g>
</g>
<!-- Node7045&#45;&gt;Node7068 -->
<g id="edge26" class="edge">
<title>Node7045&#45;&gt;Node7068</title>
<path fill="none" stroke="#191970" d="M86.5422,-202.2878C106.7813,-189.6343 144.26,-167.6391 179,-155 186.3077,-152.3413 194.0953,-150.0026 201.9081,-147.9592"/>
<polygon fill="#191970" stroke="#191970" points="202.9107,-151.3169 211.7835,-145.5268 201.2366,-144.52 202.9107,-151.3169"/>
</g>
<!-- Node7069 -->
<g id="node25" class="node">
<title>Node7069</title>
<g id="a_node25"><a xlink:href="../../d9/dd9/classChangeConnectionCommand.html#af00b095a1f092d81746c2fe3195d4cfd" target="_top" xlink:title=" ">
<polygon fill="#ffffff" stroke="#000000" points="189,-39 189,-69 347,-69 347,-39 189,-39"/>
<text text-anchor="start" x="197" y="-57" font-family="Helvetica,sans-Serif" font-size="10.00" fill="#000000">ChangeConnectionCommand</text>
<text text-anchor="middle" x="268" y="-46" font-family="Helvetica,sans-Serif" font-size="10.00" fill="#000000">::setUpdateConnections</text>
</a>
</g>
</g>
<!-- Node7045&#45;&gt;Node7069 -->
<g id="edge28" class="edge">
<title>Node7045&#45;&gt;Node7069</title>
<path fill="none" stroke="#191970" d="M76.5476,-202.2537C89.8134,-177.6255 128.1712,-112.4788 179,-79 182.133,-76.9364 185.4359,-75.0413 188.8515,-73.3009"/>
<polygon fill="#191970" stroke="#191970" points="190.4896,-76.4002 198.1169,-69.0467 187.5686,-70.0387 190.4896,-76.4002"/>
</g>
<!-- Node7070 -->
<g id="node26" class="node">
<title>Node7070</title>
<g id="a_node26"><a xlink:href="../../d3/de8/classViewGeometry.html#a91a17813adf8a287d8f5e8d7124a29dd" target="_top" xlink:title=" ">
<polygon fill="#ffffff" stroke="#000000" points="189,-.5 189,-19.5 347,-19.5 347,-.5 189,-.5"/>
<text text-anchor="middle" x="268" y="-7.5" font-family="Helvetica,sans-Serif" font-size="10.00" fill="#000000">ViewGeometry::setWireFlags</text>
</a>
</g>
</g>
<!-- Node7045&#45;&gt;Node7070 -->
<g id="edge29" class="edge">
<title>Node7045&#45;&gt;Node7070</title>
<path fill="none" stroke="#191970" d="M74.1928,-202.132C83.1986,-171.113 115.3522,-74.9207 179,-29 181.5446,-27.1641 184.2299,-25.4988 187.0189,-23.9885"/>
<polygon fill="#191970" stroke="#191970" points="188.6611,-27.0843 196.2333,-19.6741 185.6927,-20.7449 188.6611,-27.0843"/>
</g>
<!-- Node7047 -->
<g id="node3" class="node">
<title>Node7047</title>
<g id="a_node3"><a xlink:href="../../dc/d09/classNonConnectorItem.html#a1452f3637c83b50fbd089f9c4b4518b6" target="_top" xlink:title=" ">
<polygon fill="#ffffff" stroke="#000000" points="399,-493.5 399,-512.5 566,-512.5 566,-493.5 399,-493.5"/>
<text text-anchor="middle" x="482.5" y="-500.5" font-family="Helvetica,sans-Serif" font-size="10.00" fill="#000000">NonConnectorItem::attachedTo</text>
</a>
</g>
</g>
<!-- Node7046&#45;&gt;Node7047 -->
<g id="edge2" class="edge">
<title>Node7046&#45;&gt;Node7047</title>
<path fill="none" stroke="#191970" d="M317.7498,-471.5093C349.0419,-477.4905 389.6059,-485.244 422.6529,-491.5607"/>
<polygon fill="#191970" stroke="#191970" points="422.1696,-495.0316 432.649,-493.4714 423.4839,-488.1561 422.1696,-495.0316"/>
</g>
<!-- Node7048 -->
<g id="node4" class="node">
<title>Node7048</title>
<g id="a_node4"><a xlink:href="../../d4/d4f/classItemBase.html#a27afd199a7ae3c3fd14e88ed0be14420" target="_top" xlink:title=" ">
<polygon fill="#ffffff" stroke="#000000" points="443.5,-455.5 443.5,-474.5 521.5,-474.5 521.5,-455.5 443.5,-455.5"/>
<text text-anchor="middle" x="482.5" y="-462.5" font-family="Helvetica,sans-Serif" font-size="10.00" fill="#000000">ItemBase::id</text>
</a>
</g>
</g>
<!-- Node7046&#45;&gt;Node7048 -->
<g id="edge3" class="edge">
<title>Node7046&#45;&gt;Node7048</title>
<path fill="none" stroke="#191970" d="M357.1038,-463.2462C383.1562,-463.6106 410.6798,-463.9955 433.2828,-464.3116"/>
<polygon fill="#191970" stroke="#191970" points="433.2507,-467.8114 443.2987,-464.4517 433.3487,-460.8121 433.2507,-467.8114"/>
</g>
<!-- Node7049&#45;&gt;Node7047 -->
<g id="edge5" class="edge">
<title>Node7049&#45;&gt;Node7047</title>
<path fill="none" stroke="#191970" d="M346.6539,-504.8999C360.3163,-504.7089 374.6465,-504.5084 388.6661,-504.3124"/>
<polygon fill="#191970" stroke="#191970" points="388.8556,-507.8102 398.8056,-504.1706 388.7576,-500.8108 388.8556,-507.8102"/>
</g>
<!-- Node7050 -->
<g id="node6" class="node">
<title>Node7050</title>
<g id="a_node6"><a xlink:href="../../d4/d4f/classItemBase.html#af0f5772f7bc3d09b1558119b5c7a898c" target="_top" xlink:title=" ">
<polygon fill="#ffffff" stroke="#000000" points="438,-531.5 438,-550.5 527,-550.5 527,-531.5 438,-531.5"/>
<text text-anchor="middle" x="482.5" y="-538.5" font-family="Helvetica,sans-Serif" font-size="10.00" fill="#000000">ItemBase::title</text>
</a>
</g>
</g>
<!-- Node7049&#45;&gt;Node7050 -->
<g id="edge6" class="edge">
<title>Node7049&#45;&gt;Node7050</title>
<path fill="none" stroke="#191970" d="M346.6539,-518.834C373.6615,-523.2408 403.2791,-528.0735 427.9472,-532.0986"/>
<polygon fill="#191970" stroke="#191970" points="427.4086,-535.5569 437.8417,-533.7131 428.5359,-528.6483 427.4086,-535.5569"/>
</g>
<!-- Node7053 -->
<g id="node9" class="node">
<title>Node7053</title>
<g id="a_node9"><a xlink:href="../../dc/d3a/classConnectorItem.html#a42dbcf5999c35018405f884275c8a0c1" target="_top" xlink:title=" ">
<polygon fill="#ffffff" stroke="#000000" points="408.5,-193 408.5,-223 556.5,-223 556.5,-193 408.5,-193"/>
<text text-anchor="start" x="416.5" y="-211" font-family="Helvetica,sans-Serif" font-size="10.00" fill="#000000">ConnectorItem::attachedTo</text>
<text text-anchor="middle" x="482.5" y="-200" font-family="Helvetica,sans-Serif" font-size="10.00" fill="#000000">ViewLayerPlacement</text>
</a>
</g>
</g>
<!-- Node7052&#45;&gt;Node7053 -->
<g id="edge9" class="edge">
<title>Node7052&#45;&gt;Node7053</title>
<path fill="none" stroke="#191970" d="M335.2806,-240.9442C357.5418,-235.9627 382.484,-230.3812 405.4218,-225.2483"/>
<polygon fill="#191970" stroke="#191970" points="406.4638,-228.6017 415.4581,-223.0024 404.9351,-221.7707 406.4638,-228.6017"/>
</g>
<!-- Node7056 -->
<g id="node12" class="node">
<title>Node7056</title>
<g id="a_node12"><a xlink:href="../../d4/d72/classModelPart.html#af580863cf392f55be038e94d5189e368" target="_top" xlink:title=" ">
<polygon fill="#ffffff" stroke="#000000" points="422.5,-154.5 422.5,-173.5 542.5,-173.5 542.5,-154.5 422.5,-154.5"/>
<text text-anchor="middle" x="482.5" y="-161.5" font-family="Helvetica,sans-Serif" font-size="10.00" fill="#000000">ModelPart::nextIndex</text>
</a>
</g>
</g>
<!-- Node7055&#45;&gt;Node7056 -->
<g id="edge12" class="edge">
<title>Node7055&#45;&gt;Node7056</title>
<path fill="none" stroke="#191970" d="M327.7502,-171.2144C353.9111,-169.9948 384.7973,-168.5549 412.0686,-167.2835"/>
<polygon fill="#191970" stroke="#191970" points="412.5002,-170.7673 422.3263,-166.8053 412.1741,-163.7749 412.5002,-170.7673"/>
</g>
<!-- Node7057&#45;&gt;Node7047 -->
<g id="edge17" class="edge">
<title>Node7057&#45;&gt;Node7047</title>
<path fill="none" stroke="#191970" d="M283.7434,-369.1368C301.7752,-386.6119 332.0462,-416.3733 357,-443 373.5823,-460.694 372.0737,-471.7469 393,-484 396.701,-486.1671 400.6169,-488.0884 404.6612,-489.7917"/>
<polygon fill="#191970" stroke="#191970" points="403.6976,-493.1677 414.2902,-493.3833 406.144,-486.6091 403.6976,-493.1677"/>
</g>
<!-- Node7057&#45;&gt;Node7057 -->
<g id="edge23" class="edge">
<title>Node7057&#45;&gt;Node7057</title>
<path fill="none" stroke="#191970" d="M233.843,-369.159C225.6065,-378.5566 236.9922,-387.5 268,-387.5 286.8954,-387.5 298.5043,-384.179 302.8268,-379.4579"/>
<polygon fill="#191970" stroke="#191970" points="306.2987,-378.9107 302.157,-369.159 299.3135,-379.3651 306.2987,-378.9107"/>
</g>
<!-- Node7058 -->
<g id="node14" class="node">
<title>Node7058</title>
<g id="a_node14"><a xlink:href="../../dc/d3a/classConnectorItem.html#aa279dff4c65b0bb8a48056347a1b2520" target="_top" xlink:title=" ">
<polygon fill="#ffffff" stroke="#000000" points="393,-368 393,-398 572,-398 572,-368 393,-368"/>
<text text-anchor="start" x="401" y="-386" font-family="Helvetica,sans-Serif" font-size="10.00" fill="#000000">ConnectorItem::adjustedTerminal</text>
<text text-anchor="middle" x="482.5" y="-375" font-family="Helvetica,sans-Serif" font-size="10.00" fill="#000000">Point</text>
</a>
</g>
</g>
<!-- Node7057&#45;&gt;Node7058 -->
<g id="edge14" class="edge">
<title>Node7057&#45;&gt;Node7058</title>
<path fill="none" stroke="#191970" d="M351.2383,-365.2537C361.5904,-366.6532 372.2571,-368.0954 382.8252,-369.5241"/>
<polygon fill="#191970" stroke="#191970" points="382.535,-373.0167 392.9138,-370.8881 383.4729,-366.0798 382.535,-373.0167"/>
</g>
<!-- Node7061 -->
<g id="node17" class="node">
<title>Node7061</title>
<g id="a_node17"><a xlink:href="../../dc/d09/classNonConnectorItem.html#a9a1e80518fb866bab2bd1fa7fe0965db" target="_top" xlink:title=" ">
<polygon fill="#ffffff" stroke="#000000" points="404,-319 404,-349 561,-349 561,-319 404,-319"/>
<text text-anchor="start" x="412" y="-337" font-family="Helvetica,sans-Serif" font-size="10.00" fill="#000000">NonConnectorItem::attached</text>
<text text-anchor="middle" x="482.5" y="-326" font-family="Helvetica,sans-Serif" font-size="10.00" fill="#000000">ToItemType</text>
</a>
</g>
</g>
<!-- Node7057&#45;&gt;Node7061 -->
<g id="edge18" class="edge">
<title>Node7057&#45;&gt;Node7061</title>
<path fill="none" stroke="#191970" d="M351.2383,-346.2389C365.1683,-344.94 379.668,-343.5881 393.7307,-342.2769"/>
<polygon fill="#191970" stroke="#191970" points="394.2469,-345.744 403.8788,-341.3307 393.597,-338.7742 394.2469,-345.744"/>
</g>
<!-- Node7062 -->
<g id="node18" class="node">
<title>Node7062</title>
<g id="a_node18"><a xlink:href="../../d7/dfe/classGraphicsUtils.html#a720808c811cf100be0758d271ba2afce" target="_top" xlink:title=" ">
<polygon fill="#ffffff" stroke="#000000" points="395.5,-280.5 395.5,-299.5 569.5,-299.5 569.5,-280.5 395.5,-280.5"/>
<text text-anchor="middle" x="482.5" y="-287.5" font-family="Helvetica,sans-Serif" font-size="10.00" fill="#000000">GraphicsUtils::distanceFromLine</text>
</a>
</g>
</g>
<!-- Node7057&#45;&gt;Node7062 -->
<g id="edge19" class="edge">
<title>Node7057&#45;&gt;Node7062</title>
<path fill="none" stroke="#191970" d="M331.3559,-338.9645C340.0834,-336.3018 348.8433,-333.3076 357,-330 373.9618,-323.1218 375.8925,-316.5073 393,-310 400.915,-306.9893 409.4044,-304.3664 417.8879,-302.1"/>
<polygon fill="#191970" stroke="#191970" points="418.9669,-305.4376 427.8093,-299.6013 417.2573,-298.6496 418.9669,-305.4376"/>
</g>
<!-- Node7063 -->
<g id="node19" class="node">
<title>Node7063</title>
<g id="a_node19"><a xlink:href="../../d4/d4f/classItemBase.html#a7565ba05974fedf75bb75923b18bca1a" target="_top" xlink:title=" ">
<polygon fill="#ffffff" stroke="#000000" points="418.5,-242.5 418.5,-261.5 546.5,-261.5 546.5,-242.5 418.5,-242.5"/>
<text text-anchor="middle" x="482.5" y="-249.5" font-family="Helvetica,sans-Serif" font-size="10.00" fill="#000000">ItemBase::getRatsnest</text>
</a>
</g>
</g>
<!-- Node7057&#45;&gt;Node7063 -->
<g id="edge20" class="edge">
<title>Node7057&#45;&gt;Node7063</title>
<path fill="none" stroke="#191970" d="M342.0009,-338.9455C347.3163,-336.4132 352.3899,-333.4552 357,-330 381.5807,-311.5774 367.929,-288.7497 393,-271 397.817,-267.5896 403.1212,-264.769 408.6696,-262.4387"/>
<polygon fill="#191970" stroke="#191970" points="410.0008,-265.6788 418.1948,-258.9625 407.6009,-259.103 410.0008,-265.6788"/>
</g>
<!-- Node7065 -->
<g id="node21" class="node">
<title>Node7065</title>
<g id="a_node21"><a xlink:href="../../d7/d64/classWire.html#a45d0e341658a356ad227b1f5171cfa18" target="_top" xlink:title=" ">
<polygon fill="#ffffff" stroke="#000000" points="422.5,-417.5 422.5,-436.5 542.5,-436.5 542.5,-417.5 422.5,-417.5"/>
<text text-anchor="middle" x="482.5" y="-424.5" font-family="Helvetica,sans-Serif" font-size="10.00" fill="#000000">Wire::otherConnector</text>
</a>
</g>
</g>
<!-- Node7057&#45;&gt;Node7065 -->
<g id="edge22" class="edge">
<title>Node7057&#45;&gt;Node7065</title>
<path fill="none" stroke="#191970" d="M298.1718,-369.0516C323.0947,-380.9889 359.6646,-397.3774 393,-408 401.3572,-410.6631 410.2731,-413.0613 419.118,-415.185"/>
<polygon fill="#191970" stroke="#191970" points="418.5104,-418.6366 429.0404,-417.4656 420.0785,-411.8144 418.5104,-418.6366"/>
</g>
<!-- Node7059 -->
<g id="node15" class="node">
<title>Node7059</title>
<g id="a_node15"><a xlink:href="../../d7/d2d/classSvgIdLayer.html#acdaf551c0efe7ce5b7197185c60f7b64" target="_top" xlink:title=" ">
<polygon fill="#ffffff" stroke="#000000" points="637,-373.5 637,-392.5 732,-392.5 732,-373.5 637,-373.5"/>
<text text-anchor="middle" x="684.5" y="-380.5" font-family="Helvetica,sans-Serif" font-size="10.00" fill="#000000">SvgIdLayer::rect</text>
</a>
</g>
</g>
<!-- Node7058&#45;&gt;Node7059 -->
<g id="edge15" class="edge">
<title>Node7058&#45;&gt;Node7059</title>
<path fill="none" stroke="#191970" d="M572.2765,-383C590.6882,-383 609.6036,-383 626.5345,-383"/>
<polygon fill="#191970" stroke="#191970" points="626.7978,-386.5001 636.7977,-383 626.7977,-379.5001 626.7978,-386.5001"/>
</g>
<!-- Node7060 -->
<g id="node16" class="node">
<title>Node7060</title>
<g id="a_node16"><a xlink:href="../../d1/d88/classPointRect.html#a35106398b82d6e7cacb0c7754cdfa9b8" target="_top" xlink:title=" ">
<polygon fill="#ffffff" stroke="#000000" points="797,-373.5 797,-392.5 904,-392.5 904,-373.5 797,-373.5"/>
<text text-anchor="middle" x="850.5" y="-380.5" font-family="Helvetica,sans-Serif" font-size="10.00" fill="#000000">PointRect::getRect</text>
</a>
</g>
</g>
<!-- Node7059&#45;&gt;Node7060 -->
<g id="edge16" class="edge">
<title>Node7059&#45;&gt;Node7060</title>
<path fill="none" stroke="#191970" d="M732.0689,-383C749.0464,-383 768.4588,-383 786.5867,-383"/>
<polygon fill="#191970" stroke="#191970" points="786.7918,-386.5001 796.7917,-383 786.7917,-379.5001 786.7918,-386.5001"/>
</g>
<!-- Node7064 -->
<g id="node20" class="node">
<title>Node7064</title>
<g id="a_node20"><a xlink:href="../../d3/de8/classViewGeometry.html#a11ca759a75de95be900ac023617a1858" target="_top" xlink:title=" ">
<polygon fill="#ffffff" stroke="#000000" points="608,-242.5 608,-261.5 761,-261.5 761,-242.5 608,-242.5"/>
<text text-anchor="middle" x="684.5" y="-249.5" font-family="Helvetica,sans-Serif" font-size="10.00" fill="#000000">ViewGeometry::getRatsnest</text>
</a>
</g>
</g>
<!-- Node7063&#45;&gt;Node7064 -->
<g id="edge21" class="edge">
<title>Node7063&#45;&gt;Node7064</title>
<path fill="none" stroke="#191970" d="M546.6916,-252C562.9156,-252 580.6075,-252 597.7415,-252"/>
<polygon fill="#191970" stroke="#191970" points="597.7499,-255.5001 607.7499,-252 597.7498,-248.5001 597.7499,-255.5001"/>
</g>
<!-- Node7067 -->
<g id="node23" class="node">
<title>Node7067</title>
<g id="a_node23"><a xlink:href="../../d3/de8/classViewGeometry.html#aea2ab7d8389a1a1149d5682dd5bd7117" target="_top" xlink:title=" ">
<polygon fill="#ffffff" stroke="#000000" points="428,-97.5 428,-116.5 537,-116.5 537,-97.5 428,-97.5"/>
<text text-anchor="middle" x="482.5" y="-104.5" font-family="Helvetica,sans-Serif" font-size="10.00" fill="#000000">ViewGeometry::loc</text>
</a>
</g>
</g>
<!-- Node7066&#45;&gt;Node7067 -->
<g id="edge25" class="edge">
<title>Node7066&#45;&gt;Node7067</title>
<path fill="none" stroke="#191970" d="M333.2307,-100.737C360.0076,-101.8605 390.9353,-103.1581 417.6705,-104.2799"/>
<polygon fill="#191970" stroke="#191970" points="417.5564,-107.7781 427.6943,-104.7005 417.8499,-100.7842 417.5564,-107.7781"/>
</g>
<!-- Node7068&#45;&gt;Node7067 -->
<g id="edge27" class="edge">
<title>Node7068&#45;&gt;Node7067</title>
<path fill="none" stroke="#191970" d="M331.1969,-127.4559C358.3726,-123.7818 390.1156,-119.4902 417.4894,-115.7893"/>
<polygon fill="#191970" stroke="#191970" points="418.3072,-119.2107 427.7481,-114.4024 417.3693,-112.2738 418.3072,-119.2107"/>
</g>
<!-- Node7071 -->
<g id="node27" class="node">
<title>Node7071</title>
<g id="a_node27"><a xlink:href="../../d3/de8/classViewGeometry.html#ac42dfbfe227f5c4ee09f56b52bd24742" target="_top" xlink:title=" ">
<polygon fill="#ffffff" stroke="#000000" points="411.5,-.5 411.5,-19.5 553.5,-19.5 553.5,-.5 411.5,-.5"/>
<text text-anchor="middle" x="482.5" y="-7.5" font-family="Helvetica,sans-Serif" font-size="10.00" fill="#000000">ViewGeometry::wireFlags</text>
</a>
</g>
</g>
<!-- Node7070&#45;&gt;Node7071 -->
<g id="edge30" class="edge">
<title>Node7070&#45;&gt;Node7071</title>
<path fill="none" stroke="#191970" d="M347.2625,-10C364.8206,-10 383.4548,-10 401.0969,-10"/>
<polygon fill="#191970" stroke="#191970" points="401.354,-13.5001 411.3539,-10 401.3539,-6.5001 401.354,-13.5001"/>
</g>
</g>
</svg>
        <g id="navigator" transform="translate(0 0)" fill="#404254">
                <rect fill="#f2f5e9" fill-opacity="0.5" stroke="#606060" stroke-width=".5" x="0" y="0" width="60" height="60"/>
                <use id="zoomplus" xlink:href="#zoomPlus" x="17" y="9" onmousedown="handleZoom(evt,'in')"/>
                <use id="zoomminus" xlink:href="#zoomMin" x="42" y="9" onmousedown="handleZoom(evt,'out')"/>
                <use id="reset" xlink:href="#resetDef" x="30" y="36" onmousedown="handleReset()"/>
                <g id="arrowUp" xlink:href="#dirArrow" transform="translate(30 24)" onmousedown="handlePan(0,-1)">
                  <use xlink:href="#rim" fill="#404040">
                        <set attributeName="fill" to="#808080" begin="arrowUp.mouseover" end="arrowUp.mouseout"/>
                  </use>
                  <path fill="none" stroke="white" stroke-width="1.5" d="M0,-3.0v7 M-2.5,-0.5L0,-3.0L2.5,-0.5"/>
                </g>
                <g id="arrowRight" xlink:href="#dirArrow" transform="rotate(90) translate(36 -43)" onmousedown="handlePan(1,0)">
                  <use xlink:href="#rim" fill="#404040">
                        <set attributeName="fill" to="#808080" begin="arrowRight.mouseover" end="arrowRight.mouseout"/>
                  </use>
                  <path fill="none" stroke="white" stroke-width="1.5" d="M0,-3.0v7 M-2.5,-0.5L0,-3.0L2.5,-0.5"/>
                </g>
                <g id="arrowDown" xlink:href="#dirArrow" transform="rotate(180) translate(-30 -48)" onmousedown="handlePan(0,1)">
                  <use xlink:href="#rim" fill="#404040">
                        <set attributeName="fill" to="#808080" begin="arrowDown.mouseover" end="arrowDown.mouseout"/>
                  </use>
                  <path fill="none" stroke="white" stroke-width="1.5" d="M0,-3.0v7 M-2.5,-0.5L0,-3.0L2.5,-0.5"/>
                </g>
                <g id="arrowLeft" xlink:href="#dirArrow" transform="rotate(270) translate(-36 17)" onmousedown="handlePan(-1,0)">
                  <use xlink:href="#rim" fill="#404040">
                        <set attributeName="fill" to="#808080" begin="arrowLeft.mouseover" end="arrowLeft.mouseout"/>
                  </use>
                  <path fill="none" stroke="white" stroke-width="1.5" d="M0,-3.0v7 M-2.5,-0.5L0,-3.0L2.5,-0.5"/>
                </g>
        </g>
        <svg viewBox="0 0 15 15" width="100%" height="30px" preserveAspectRatio="xMaxYMin meet">
         <g id="arrow_out" transform="scale(0.3 0.3)">
          <a xlink:href="classSketchWidget_aa5f4bd73cd4da29b9831a5fa8a25b235_cgraph_org.svg" target="_base">
           <rect id="button" ry="5" rx="5" y="6" x="6" height="38" width="38"
                fill="#f2f5e9" fill-opacity="0.5" stroke="#606060" stroke-width="1.0"/>
           <path id="arrow"
             d="M 11.500037,31.436501 C 11.940474,20.09759 22.043105,11.32322 32.158766,21.979434 L 37.068811,17.246167 C 37.068811,17.246167 37.088388,32 37.088388,32 L 22.160133,31.978069 C 22.160133,31.978069 26.997745,27.140456 26.997745,27.140456 C 18.528582,18.264221 13.291696,25.230495 11.500037,31.436501 z"
             style="fill:#404040;"/>
          </a>
         </g>
        </svg>
</svg>
