<?xml version="1.0" encoding="UTF-8" standalone="no"?>
<!DOCTYPE svg PUBLIC "-//W3C//DTD SVG 1.1//EN"
 "http://www.w3.org/Graphics/SVG/1.1/DTD/svg11.dtd">
<!-- Generated by graphviz version 2.40.1 (0)
 -->
<!-- Title: SketchWidget::rotateWire Pages: 1 -->
<!--zoomable 653 -->
<svg id="main" version="1.1" xmlns="http://www.w3.org/2000/svg" xmlns:xlink="http://www.w3.org/1999/xlink" xml:space="preserve" onload="init(evt)">
<style type="text/css"><![CDATA[
.edge:hover path { stroke: red; }
.edge:hover polygon { stroke: red; fill: red; }
]]></style>
<script type="text/javascript"><![CDATA[
var edges = document.getElementsByTagName('g');
if (edges && edges.length) {
  for (var i=0;i<edges.length;i++) {
    if (edges[i].id.substr(0,4)=='edge') {
      edges[i].setAttribute('class','edge');
    }
  }
}
]]></script>
        <defs>
                <circle id="rim" cx="0" cy="0" r="7"/>
                <circle id="rim2" cx="0" cy="0" r="3.5"/>
                <g id="zoomPlus">
                        <use xlink:href="#rim" fill="#404040">
                                <set attributeName="fill" to="#808080" begin="zoomplus.mouseover" end="zoomplus.mouseout"/>
                        </use>
                        <path d="M-4,0h8M0,-4v8" fill="none" stroke="white" stroke-width="1.5" pointer-events="none"/>
                </g>
                <g id="zoomMin">
                        <use xlink:href="#rim" fill="#404040">
                                <set attributeName="fill" to="#808080" begin="zoomminus.mouseover" end="zoomminus.mouseout"/>
                        </use>
                        <path d="M-4,0h8" fill="none" stroke="white" stroke-width="1.5" pointer-events="none"/>
                </g>
                <g id="dirArrow">
                        <path fill="none" stroke="white" stroke-width="1.5" d="M0,-3.0v7 M-2.5,-0.5L0,-3.0L2.5,-0.5"/>
                </g>
               <g id="resetDef">
                       <use xlink:href="#rim2" fill="#404040">
                               <set attributeName="fill" to="#808080" begin="reset.mouseover" end="reset.mouseout"/>
                       </use>
               </g>
        </defs>

<script type="text/javascript">
var viewWidth = 898;
var viewHeight = 653;
var sectionId = 'dynsection-455';
</script>
<script xlink:href="../../svgpan.js"/>
<svg id="graph" class="graph">
<g id="viewport">
<title>SketchWidget::rotateWire</title>
<polygon fill="#ffffff" stroke="transparent" points="-4,4 -4,-648.5 894,-648.5 894,4 -4,4"/>
<!-- Node19313 -->
<g id="node1" class="node">
<title>Node19313</title>
<g id="a_node1"><a xlink:title=" ">
<polygon fill="#bfbfbf" stroke="#000000" points="0,-340 0,-359 141,-359 141,-340 0,-340"/>
<text text-anchor="middle" x="70.5" y="-347" font-family="Helvetica,sans-Serif" font-size="10.00" fill="#000000">SketchWidget::rotateWire</text>
</a>
</g>
</g>
<!-- Node19314 -->
<g id="node2" class="node">
<title>Node19314</title>
<g id="a_node2"><a xlink:href="../../d7/d64/classWire.html#a45f4d43eb8d9c12df32f8431b22ae04a" target="_top" xlink:title=" ">
<polygon fill="#ffffff" stroke="#000000" points="210.5,-625 210.5,-644 309.5,-644 309.5,-625 210.5,-625"/>
<text text-anchor="middle" x="260" y="-632" font-family="Helvetica,sans-Serif" font-size="10.00" fill="#000000">Wire::connector0</text>
</a>
</g>
</g>
<!-- Node19313&#45;&gt;Node19314 -->
<g id="edge1" class="edge">
<title>Node19313&#45;&gt;Node19314</title>
<path fill="none" stroke="#191970" d="M71.2426,-359.05C74.7849,-397.7249 93.4506,-544.049 177,-615.5 183.7749,-621.2939 191.9637,-625.4124 200.5243,-628.3234"/>
<polygon fill="#191970" stroke="#191970" points="199.7147,-631.7322 210.292,-631.1218 201.6427,-625.0029 199.7147,-631.7322"/>
</g>
<!-- Node19315 -->
<g id="node3" class="node">
<title>Node19315</title>
<g id="a_node3"><a xlink:href="../../d7/d64/classWire.html#a866a8602d73cc8004d133cb8780048f3" target="_top" xlink:title=" ">
<polygon fill="#ffffff" stroke="#000000" points="210.5,-587 210.5,-606 309.5,-606 309.5,-587 210.5,-587"/>
<text text-anchor="middle" x="260" y="-594" font-family="Helvetica,sans-Serif" font-size="10.00" fill="#000000">Wire::connector1</text>
</a>
</g>
</g>
<!-- Node19313&#45;&gt;Node19315 -->
<g id="edge2" class="edge">
<title>Node19313&#45;&gt;Node19315</title>
<path fill="none" stroke="#191970" d="M71.9456,-359.1239C77.7746,-394.3975 102.9084,-517.6555 177,-577.5 183.8514,-583.0339 192.0092,-587.0211 200.4942,-589.8818"/>
<polygon fill="#191970" stroke="#191970" points="199.5835,-593.2617 210.161,-592.6553 201.5141,-586.5331 199.5835,-593.2617"/>
</g>
<!-- Node19316 -->
<g id="node4" class="node">
<title>Node19316</title>
<g id="a_node4"><a xlink:href="../../d8/d3c/classBezier.html#a2414f8c161c4a4fed536113237cb35ec" target="_top" xlink:title=" ">
<polygon fill="#ffffff" stroke="#000000" points="433,-473 433,-492 504,-492 504,-473 433,-473"/>
<text text-anchor="middle" x="468.5" y="-480" font-family="Helvetica,sans-Serif" font-size="10.00" fill="#000000">Bezier::cp0</text>
</a>
</g>
</g>
<!-- Node19313&#45;&gt;Node19316 -->
<g id="edge3" class="edge">
<title>Node19313&#45;&gt;Node19316</title>
<path fill="none" stroke="#191970" d="M80.7482,-359.1645C98.7258,-375.5435 137.7755,-408.6169 177,-425.5 220.621,-444.2755 352.3744,-465.5407 422.8565,-475.9933"/>
<polygon fill="#191970" stroke="#191970" points="422.3901,-479.4623 432.7931,-477.4555 423.4092,-472.5369 422.3901,-479.4623"/>
</g>
<!-- Node19317 -->
<g id="node5" class="node">
<title>Node19317</title>
<g id="a_node5"><a xlink:href="../../d8/d3c/classBezier.html#ab31ae58e9814f75281175355a1b1abe1" target="_top" xlink:title=" ">
<polygon fill="#ffffff" stroke="#000000" points="433,-252 433,-271 504,-271 504,-252 433,-252"/>
<text text-anchor="middle" x="468.5" y="-259" font-family="Helvetica,sans-Serif" font-size="10.00" fill="#000000">Bezier::cp1</text>
</a>
</g>
</g>
<!-- Node19313&#45;&gt;Node19317 -->
<g id="edge4" class="edge">
<title>Node19313&#45;&gt;Node19317</title>
<path fill="none" stroke="#191970" d="M79.9462,-339.7426C97.2861,-322.585 136.1774,-287.5044 177,-273.5 259.9348,-245.0488 363.9953,-249.5879 422.6898,-255.5106"/>
<polygon fill="#191970" stroke="#191970" points="422.442,-259.0039 432.7571,-256.5855 423.1853,-252.0435 422.442,-259.0039"/>
</g>
<!-- Node19318 -->
<g id="node6" class="node">
<title>Node19318</title>
<g id="a_node6"><a xlink:href="../../d7/d64/classWire.html#ad8c9250746e47be776fae10cc02a2eda" target="_top" xlink:title=" ">
<polygon fill="#ffffff" stroke="#000000" points="224,-473 224,-492 296,-492 296,-473 224,-473"/>
<text text-anchor="middle" x="260" y="-480" font-family="Helvetica,sans-Serif" font-size="10.00" fill="#000000">Wire::curve</text>
</a>
</g>
</g>
<!-- Node19313&#45;&gt;Node19318 -->
<g id="edge5" class="edge">
<title>Node19313&#45;&gt;Node19318</title>
<path fill="none" stroke="#191970" d="M77.269,-359.2842C92.5275,-380.5965 131.8217,-431.4655 177,-458.5 188.1721,-465.1853 201.3096,-470.0963 213.7956,-473.6675"/>
<polygon fill="#191970" stroke="#191970" points="213.0579,-477.0925 223.6194,-476.2526 214.8394,-470.3229 213.0579,-477.0925"/>
</g>
<!-- Node19319 -->
<g id="node7" class="node">
<title>Node19319</title>
<g id="a_node7"><a xlink:href="../../d7/d64/classWire.html#a344d3f7e6f146f364b81d595d7792b3e" target="_top" xlink:title=" ">
<polygon fill="#ffffff" stroke="#000000" points="198,-549 198,-568 322,-568 322,-549 198,-549"/>
<text text-anchor="middle" x="260" y="-556" font-family="Helvetica,sans-Serif" font-size="10.00" fill="#000000">Wire::getAutoroutable</text>
</a>
</g>
</g>
<!-- Node19313&#45;&gt;Node19319 -->
<g id="edge6" class="edge">
<title>Node19313&#45;&gt;Node19319</title>
<path fill="none" stroke="#191970" d="M72.9276,-359.249C81.32,-390.8197 112.2114,-491.0126 177,-539.5 180.4618,-542.0908 184.216,-544.3375 188.1507,-546.2851"/>
<polygon fill="#191970" stroke="#191970" points="187.0344,-549.6137 197.6065,-550.3075 189.7745,-543.1723 187.0344,-549.6137"/>
</g>
<!-- Node19321 -->
<g id="node9" class="node">
<title>Node19321</title>
<g id="a_node9"><a xlink:href="../../d4/d4f/classItemBase.html#a8380ad795c557dd4a345b2c0113325dd" target="_top" xlink:title=" ">
<polygon fill="#ffffff" stroke="#000000" points="181,-397 181,-416 339,-416 339,-397 181,-397"/>
<text text-anchor="middle" x="260" y="-404" font-family="Helvetica,sans-Serif" font-size="10.00" fill="#000000">ItemBase::getViewGeometry</text>
</a>
</g>
</g>
<!-- Node19313&#45;&gt;Node19321 -->
<g id="edge8" class="edge">
<title>Node19313&#45;&gt;Node19321</title>
<path fill="none" stroke="#191970" d="M94.7662,-359.0809C116.1803,-367.313 148.3547,-379.1424 177,-387.5 185.5577,-389.9968 194.6894,-392.3716 203.6497,-394.5434"/>
<polygon fill="#191970" stroke="#191970" points="203.1171,-398.0138 213.6537,-396.9048 204.7252,-391.201 203.1171,-398.0138"/>
</g>
<!-- Node19322 -->
<g id="node10" class="node">
<title>Node19322</title>
<g id="a_node10"><a xlink:href="../../d4/d4f/classItemBase.html#a27afd199a7ae3c3fd14e88ed0be14420" target="_top" xlink:title=" ">
<polygon fill="#ffffff" stroke="#000000" points="221,-359 221,-378 299,-378 299,-359 221,-359"/>
<text text-anchor="middle" x="260" y="-366" font-family="Helvetica,sans-Serif" font-size="10.00" fill="#000000">ItemBase::id</text>
</a>
</g>
</g>
<!-- Node19313&#45;&gt;Node19322 -->
<g id="edge9" class="edge">
<title>Node19313&#45;&gt;Node19322</title>
<path fill="none" stroke="#191970" d="M141.0628,-356.5749C164.2133,-358.8961 189.4284,-361.4242 210.6595,-363.5529"/>
<polygon fill="#191970" stroke="#191970" points="210.4362,-367.048 220.7355,-364.5632 211.1346,-360.0829 210.4362,-367.048"/>
</g>
<!-- Node19323 -->
<g id="node11" class="node">
<title>Node19323</title>
<g id="a_node11"><a xlink:href="../../d3/de8/classViewGeometry.html#a83904f333d0beeef1ed110dcb93fd800" target="_top" xlink:title=" ">
<polygon fill="#ffffff" stroke="#000000" points="203.5,-321 203.5,-340 316.5,-340 316.5,-321 203.5,-321"/>
<text text-anchor="middle" x="260" y="-328" font-family="Helvetica,sans-Serif" font-size="10.00" fill="#000000">ViewGeometry::line</text>
</a>
</g>
</g>
<!-- Node19313&#45;&gt;Node19323 -->
<g id="edge10" class="edge">
<title>Node19313&#45;&gt;Node19323</title>
<path fill="none" stroke="#191970" d="M141.0628,-342.4251C158.0557,-340.7213 176.161,-338.906 192.9866,-337.219"/>
<polygon fill="#191970" stroke="#191970" points="193.6752,-340.6676 203.2761,-336.1874 192.9768,-333.7025 193.6752,-340.6676"/>
</g>
<!-- Node19324 -->
<g id="node12" class="node">
<title>Node19324</title>
<g id="a_node12"><a xlink:href="../../d3/de8/classViewGeometry.html#aea2ab7d8389a1a1149d5682dd5bd7117" target="_top" xlink:title=" ">
<polygon fill="#ffffff" stroke="#000000" points="205.5,-283 205.5,-302 314.5,-302 314.5,-283 205.5,-283"/>
<text text-anchor="middle" x="260" y="-290" font-family="Helvetica,sans-Serif" font-size="10.00" fill="#000000">ViewGeometry::loc</text>
</a>
</g>
</g>
<!-- Node19313&#45;&gt;Node19324 -->
<g id="edge11" class="edge">
<title>Node19313&#45;&gt;Node19324</title>
<path fill="none" stroke="#191970" d="M94.7662,-339.9191C116.1803,-331.687 148.3547,-319.8576 177,-311.5 185.5577,-309.0032 194.6894,-306.6284 203.6497,-304.4566"/>
<polygon fill="#191970" stroke="#191970" points="204.7252,-307.799 213.6537,-302.0952 203.1171,-300.9862 204.7252,-307.799"/>
</g>
<!-- Node19325 -->
<g id="node13" class="node">
<title>Node19325</title>
<g id="a_node13"><a xlink:href="../../dc/d3a/classConnectorItem.html#a9db3e9a8e9a67433a39b3c12aa8fe442" target="_top" xlink:title=" ">
<polygon fill="#ffffff" stroke="#000000" points="177,-139.5 177,-169.5 343,-169.5 343,-139.5 177,-139.5"/>
<text text-anchor="start" x="185" y="-157.5" font-family="Helvetica,sans-Serif" font-size="10.00" fill="#000000">ConnectorItem::sceneAdjusted</text>
<text text-anchor="middle" x="260" y="-146.5" font-family="Helvetica,sans-Serif" font-size="10.00" fill="#000000">TerminalPoint</text>
</a>
</g>
</g>
<!-- Node19313&#45;&gt;Node19325 -->
<g id="edge12" class="edge">
<title>Node19313&#45;&gt;Node19325</title>
<path fill="none" stroke="#191970" d="M75.1946,-339.7529C88.1518,-313.6947 126.8033,-241.4208 177,-197.5 187.4139,-188.3881 200.0983,-180.5758 212.3855,-174.2082"/>
<polygon fill="#191970" stroke="#191970" points="214.2469,-177.1923 221.66,-169.6228 211.1445,-170.9174 214.2469,-177.1923"/>
</g>
<!-- Node19335 -->
<g id="node23" class="node">
<title>Node19335</title>
<g id="a_node23"><a xlink:href="../../d8/d3c/classBezier.html#a0996dfa95ee42e7b107a1c2c11fb9e41" target="_top" xlink:title=" ">
<polygon fill="#ffffff" stroke="#000000" points="214.5,-511 214.5,-530 305.5,-530 305.5,-511 214.5,-511"/>
<text text-anchor="middle" x="260" y="-518" font-family="Helvetica,sans-Serif" font-size="10.00" fill="#000000">Bezier::set_cp0</text>
</a>
</g>
</g>
<!-- Node19313&#45;&gt;Node19335 -->
<g id="edge23" class="edge">
<title>Node19313&#45;&gt;Node19335</title>
<path fill="none" stroke="#191970" d="M74.3015,-359.1871C85.5007,-386.3837 121.1292,-463.9023 177,-501.5 185.2783,-507.0708 194.9615,-511.0248 204.7331,-513.8273"/>
<polygon fill="#191970" stroke="#191970" points="203.9354,-517.2355 214.4856,-516.2632 205.6318,-510.4442 203.9354,-517.2355"/>
</g>
<!-- Node19336 -->
<g id="node24" class="node">
<title>Node19336</title>
<g id="a_node24"><a xlink:href="../../d8/d3c/classBezier.html#a7a358764d13519a86c65fc886cb42dff" target="_top" xlink:title=" ">
<polygon fill="#ffffff" stroke="#000000" points="214.5,-207 214.5,-226 305.5,-226 305.5,-207 214.5,-207"/>
<text text-anchor="middle" x="260" y="-214" font-family="Helvetica,sans-Serif" font-size="10.00" fill="#000000">Bezier::set_cp1</text>
</a>
</g>
</g>
<!-- Node19313&#45;&gt;Node19336 -->
<g id="edge25" class="edge">
<title>Node19313&#45;&gt;Node19336</title>
<path fill="none" stroke="#191970" d="M77.269,-339.7158C92.5275,-318.4035 131.8217,-267.5345 177,-240.5 185.4952,-235.4165 195.1269,-231.359 204.7443,-228.1363"/>
<polygon fill="#191970" stroke="#191970" points="205.7901,-231.4765 214.3144,-225.1848 203.7271,-224.7874 205.7901,-231.4765"/>
</g>
<!-- Node19337 -->
<g id="node25" class="node">
<title>Node19337</title>
<g id="a_node25"><a xlink:href="../../d8/d3c/classBezier.html#a3152ca2940ed500e564f8fd03bf41b77" target="_top" xlink:title=" ">
<polygon fill="#ffffff" stroke="#000000" points="199,-101 199,-120 321,-120 321,-101 199,-101"/>
<text text-anchor="middle" x="260" y="-108" font-family="Helvetica,sans-Serif" font-size="10.00" fill="#000000">Bezier::set_endpoints</text>
</a>
</g>
</g>
<!-- Node19313&#45;&gt;Node19337 -->
<g id="edge27" class="edge">
<title>Node19313&#45;&gt;Node19337</title>
<path fill="none" stroke="#191970" d="M72.1467,-339.7319C78.5298,-305.0522 104.9666,-186.8622 177,-129.5 180.7763,-126.4928 184.9398,-123.9437 189.3302,-121.7846"/>
<polygon fill="#191970" stroke="#191970" points="190.7505,-124.9843 198.6096,-117.8791 188.0349,-118.5325 190.7505,-124.9843"/>
</g>
<!-- Node19338 -->
<g id="node26" class="node">
<title>Node19338</title>
<g id="a_node26"><a xlink:href="../../d8/d6e/classBaseCommand.html#a8e1ea4fcfded8a2bb3d6dfd6f444e84f" target="_top" xlink:title=" ">
<polygon fill="#ffffff" stroke="#000000" points="180.5,-63 180.5,-82 339.5,-82 339.5,-63 180.5,-63"/>
<text text-anchor="middle" x="260" y="-70" font-family="Helvetica,sans-Serif" font-size="10.00" fill="#000000">BaseCommand::setRedoOnly</text>
</a>
</g>
</g>
<!-- Node19313&#45;&gt;Node19338 -->
<g id="edge28" class="edge">
<title>Node19313&#45;&gt;Node19338</title>
<path fill="none" stroke="#191970" d="M71.37,-339.9733C75.3654,-302.0466 95.427,-160.5119 177,-91.5 178.975,-89.8292 181.0678,-88.298 183.2531,-86.8951"/>
<polygon fill="#191970" stroke="#191970" points="184.9702,-89.9455 192.087,-82.0968 181.6291,-83.7943 184.9702,-89.9455"/>
</g>
<!-- Node19339 -->
<g id="node27" class="node">
<title>Node19339</title>
<g id="a_node27"><a xlink:href="../../d8/d6e/classBaseCommand.html#a50d7eb575aa507b487d1abaaf72fba54" target="_top" xlink:title=" ">
<polygon fill="#ffffff" stroke="#000000" points="180,-25 180,-44 340,-44 340,-25 180,-25"/>
<text text-anchor="middle" x="260" y="-32" font-family="Helvetica,sans-Serif" font-size="10.00" fill="#000000">BaseCommand::setUndoOnly</text>
</a>
</g>
</g>
<!-- Node19313&#45;&gt;Node19339 -->
<g id="edge29" class="edge">
<title>Node19313&#45;&gt;Node19339</title>
<path fill="none" stroke="#191970" d="M70.8222,-339.7611C72.7496,-298.1952 86.0638,-134.1024 177,-53.5 178.7527,-51.9465 180.6064,-50.5125 182.5418,-49.1891"/>
<polygon fill="#191970" stroke="#191970" points="184.5502,-52.0725 191.4919,-44.0684 181.0739,-45.9966 184.5502,-52.0725"/>
</g>
<!-- Node19320 -->
<g id="node8" class="node">
<title>Node19320</title>
<g id="a_node8"><a xlink:href="../../d3/de8/classViewGeometry.html#af689b52fc3d260a5cc237dcb760b8faa" target="_top" xlink:title=" ">
<polygon fill="#ffffff" stroke="#000000" points="382,-549 382,-568 555,-568 555,-549 382,-549"/>
<text text-anchor="middle" x="468.5" y="-556" font-family="Helvetica,sans-Serif" font-size="10.00" fill="#000000">ViewGeometry::getAutoroutable</text>
</a>
</g>
</g>
<!-- Node19319&#45;&gt;Node19320 -->
<g id="edge7" class="edge">
<title>Node19319&#45;&gt;Node19320</title>
<path fill="none" stroke="#191970" d="M322.2745,-558.5C337.7764,-558.5 354.765,-558.5 371.5029,-558.5"/>
<polygon fill="#191970" stroke="#191970" points="371.8768,-562.0001 381.8768,-558.5 371.8768,-555.0001 371.8768,-562.0001"/>
</g>
<!-- Node19325&#45;&gt;Node19325 -->
<g id="edge22" class="edge">
<title>Node19325&#45;&gt;Node19325</title>
<path fill="none" stroke="#191970" d="M227.2371,-169.659C219.3369,-179.0566 230.2578,-188 260,-188 278.1241,-188 289.2593,-184.679 293.4053,-179.9579"/>
<polygon fill="#191970" stroke="#191970" points="296.8788,-179.4217 292.7629,-169.659 289.8924,-179.8575 296.8788,-179.4217"/>
</g>
<!-- Node19326 -->
<g id="node14" class="node">
<title>Node19326</title>
<g id="a_node14"><a xlink:href="../../dc/d3a/classConnectorItem.html#aa279dff4c65b0bb8a48056347a1b2520" target="_top" xlink:title=" ">
<polygon fill="#ffffff" stroke="#000000" points="379,-88.5 379,-118.5 558,-118.5 558,-88.5 379,-88.5"/>
<text text-anchor="start" x="387" y="-106.5" font-family="Helvetica,sans-Serif" font-size="10.00" fill="#000000">ConnectorItem::adjustedTerminal</text>
<text text-anchor="middle" x="468.5" y="-95.5" font-family="Helvetica,sans-Serif" font-size="10.00" fill="#000000">Point</text>
</a>
</g>
</g>
<!-- Node19325&#45;&gt;Node19326 -->
<g id="edge13" class="edge">
<title>Node19325&#45;&gt;Node19326</title>
<path fill="none" stroke="#191970" d="M321.4292,-139.4742C345.1837,-133.6637 372.5285,-126.9751 397.1463,-120.9534"/>
<polygon fill="#191970" stroke="#191970" points="398.2679,-124.2823 407.1499,-118.5065 396.6047,-117.4828 398.2679,-124.2823"/>
</g>
<!-- Node19329 -->
<g id="node17" class="node">
<title>Node19329</title>
<g id="a_node17"><a xlink:href="../../dc/d09/classNonConnectorItem.html#a1452f3637c83b50fbd089f9c4b4518b6" target="_top" xlink:title=" ">
<polygon fill="#ffffff" stroke="#000000" points="385,-50 385,-69 552,-69 552,-50 385,-50"/>
<text text-anchor="middle" x="468.5" y="-57" font-family="Helvetica,sans-Serif" font-size="10.00" fill="#000000">NonConnectorItem::attachedTo</text>
</a>
</g>
</g>
<!-- Node19325&#45;&gt;Node19329 -->
<g id="edge16" class="edge">
<title>Node19325&#45;&gt;Node19329</title>
<path fill="none" stroke="#191970" d="M325.434,-139.4254C331.65,-136.6495 337.6276,-133.3708 343,-129.5 365.5107,-113.2812 355.833,-93.7665 379,-78.5 382.1004,-76.4569 385.3807,-74.6286 388.7824,-72.9927"/>
<polygon fill="#191970" stroke="#191970" points="390.173,-76.2049 398.0297,-69.0969 387.4552,-69.754 390.173,-76.2049"/>
</g>
<!-- Node19330 -->
<g id="node18" class="node">
<title>Node19330</title>
<g id="a_node18"><a xlink:href="../../dc/d09/classNonConnectorItem.html#a9a1e80518fb866bab2bd1fa7fe0965db" target="_top" xlink:title=" ">
<polygon fill="#ffffff" stroke="#000000" points="390,-.5 390,-30.5 547,-30.5 547,-.5 390,-.5"/>
<text text-anchor="start" x="398" y="-18.5" font-family="Helvetica,sans-Serif" font-size="10.00" fill="#000000">NonConnectorItem::attached</text>
<text text-anchor="middle" x="468.5" y="-7.5" font-family="Helvetica,sans-Serif" font-size="10.00" fill="#000000">ToItemType</text>
</a>
</g>
</g>
<!-- Node19325&#45;&gt;Node19330 -->
<g id="edge17" class="edge">
<title>Node19325&#45;&gt;Node19330</title>
<path fill="none" stroke="#191970" d="M328.8651,-139.3731C333.9754,-136.6145 338.775,-133.3539 343,-129.5 374.5243,-100.7448 347.1872,-68.9357 379,-40.5 380.7591,-38.9276 382.6094,-37.4533 384.5346,-36.0709"/>
<polygon fill="#191970" stroke="#191970" points="386.7445,-38.8193 393.4058,-30.5805 383.0606,-32.8671 386.7445,-38.8193"/>
</g>
<!-- Node19331 -->
<g id="node19" class="node">
<title>Node19331</title>
<g id="a_node19"><a xlink:href="../../d7/dfe/classGraphicsUtils.html#a720808c811cf100be0758d271ba2afce" target="_top" xlink:title=" ">
<polygon fill="#ffffff" stroke="#000000" points="381.5,-214 381.5,-233 555.5,-233 555.5,-214 381.5,-214"/>
<text text-anchor="middle" x="468.5" y="-221" font-family="Helvetica,sans-Serif" font-size="10.00" fill="#000000">GraphicsUtils::distanceFromLine</text>
</a>
</g>
</g>
<!-- Node19325&#45;&gt;Node19331 -->
<g id="edge18" class="edge">
<title>Node19325&#45;&gt;Node19331</title>
<path fill="none" stroke="#191970" d="M291.2138,-169.528C314.8716,-180.4444 348.4191,-194.9236 379,-204.5 387.5717,-207.1842 396.7234,-209.6097 405.7807,-211.7597"/>
<polygon fill="#191970" stroke="#191970" points="405.0122,-215.1742 415.5399,-213.9838 406.5676,-208.3492 405.0122,-215.1742"/>
</g>
<!-- Node19332 -->
<g id="node20" class="node">
<title>Node19332</title>
<g id="a_node20"><a xlink:href="../../d4/d4f/classItemBase.html#a7565ba05974fedf75bb75923b18bca1a" target="_top" xlink:title=" ">
<polygon fill="#ffffff" stroke="#000000" points="404.5,-176 404.5,-195 532.5,-195 532.5,-176 404.5,-176"/>
<text text-anchor="middle" x="468.5" y="-183" font-family="Helvetica,sans-Serif" font-size="10.00" fill="#000000">ItemBase::getRatsnest</text>
</a>
</g>
</g>
<!-- Node19325&#45;&gt;Node19332 -->
<g id="edge19" class="edge">
<title>Node19325&#45;&gt;Node19332</title>
<path fill="none" stroke="#191970" d="M343.0038,-166.8411C359.9317,-169.358 377.6401,-171.9909 394.2397,-174.4589"/>
<polygon fill="#191970" stroke="#191970" points="394.0091,-177.963 404.4151,-175.9718 395.0386,-171.0391 394.0091,-177.963"/>
</g>
<!-- Node19334 -->
<g id="node22" class="node">
<title>Node19334</title>
<g id="a_node22"><a xlink:href="../../d7/d64/classWire.html#a45d0e341658a356ad227b1f5171cfa18" target="_top" xlink:title=" ">
<polygon fill="#ffffff" stroke="#000000" points="408.5,-138 408.5,-157 528.5,-157 528.5,-138 408.5,-138"/>
<text text-anchor="middle" x="468.5" y="-145" font-family="Helvetica,sans-Serif" font-size="10.00" fill="#000000">Wire::otherConnector</text>
</a>
</g>
</g>
<!-- Node19325&#45;&gt;Node19334 -->
<g id="edge21" class="edge">
<title>Node19325&#45;&gt;Node19334</title>
<path fill="none" stroke="#191970" d="M343.0038,-151.7133C361.2306,-151.1014 380.3622,-150.4591 398.0403,-149.8656"/>
<polygon fill="#191970" stroke="#191970" points="398.3862,-153.356 408.2631,-149.5223 398.1513,-146.3599 398.3862,-153.356"/>
</g>
<!-- Node19327 -->
<g id="node15" class="node">
<title>Node19327</title>
<g id="a_node15"><a xlink:href="../../d7/d2d/classSvgIdLayer.html#acdaf551c0efe7ce5b7197185c60f7b64" target="_top" xlink:title=" ">
<polygon fill="#ffffff" stroke="#000000" points="623,-94 623,-113 718,-113 718,-94 623,-94"/>
<text text-anchor="middle" x="670.5" y="-101" font-family="Helvetica,sans-Serif" font-size="10.00" fill="#000000">SvgIdLayer::rect</text>
</a>
</g>
</g>
<!-- Node19326&#45;&gt;Node19327 -->
<g id="edge14" class="edge">
<title>Node19326&#45;&gt;Node19327</title>
<path fill="none" stroke="#191970" d="M558.2765,-103.5C576.6882,-103.5 595.6036,-103.5 612.5345,-103.5"/>
<polygon fill="#191970" stroke="#191970" points="612.7978,-107.0001 622.7977,-103.5 612.7977,-100.0001 612.7978,-107.0001"/>
</g>
<!-- Node19328 -->
<g id="node16" class="node">
<title>Node19328</title>
<g id="a_node16"><a xlink:href="../../d1/d88/classPointRect.html#a35106398b82d6e7cacb0c7754cdfa9b8" target="_top" xlink:title=" ">
<polygon fill="#ffffff" stroke="#000000" points="783,-94 783,-113 890,-113 890,-94 783,-94"/>
<text text-anchor="middle" x="836.5" y="-101" font-family="Helvetica,sans-Serif" font-size="10.00" fill="#000000">PointRect::getRect</text>
</a>
</g>
</g>
<!-- Node19327&#45;&gt;Node19328 -->
<g id="edge15" class="edge">
<title>Node19327&#45;&gt;Node19328</title>
<path fill="none" stroke="#191970" d="M718.0689,-103.5C735.0464,-103.5 754.4588,-103.5 772.5867,-103.5"/>
<polygon fill="#191970" stroke="#191970" points="772.7918,-107.0001 782.7917,-103.5 772.7917,-100.0001 772.7918,-107.0001"/>
</g>
<!-- Node19333 -->
<g id="node21" class="node">
<title>Node19333</title>
<g id="a_node21"><a xlink:href="../../d3/de8/classViewGeometry.html#a11ca759a75de95be900ac023617a1858" target="_top" xlink:title=" ">
<polygon fill="#ffffff" stroke="#000000" points="594,-176 594,-195 747,-195 747,-176 594,-176"/>
<text text-anchor="middle" x="670.5" y="-183" font-family="Helvetica,sans-Serif" font-size="10.00" fill="#000000">ViewGeometry::getRatsnest</text>
</a>
</g>
</g>
<!-- Node19332&#45;&gt;Node19333 -->
<g id="edge20" class="edge">
<title>Node19332&#45;&gt;Node19333</title>
<path fill="none" stroke="#191970" d="M532.6916,-185.5C548.9156,-185.5 566.6075,-185.5 583.7415,-185.5"/>
<polygon fill="#191970" stroke="#191970" points="583.7499,-189.0001 593.7499,-185.5 583.7498,-182.0001 583.7499,-189.0001"/>
</g>
<!-- Node19335&#45;&gt;Node19316 -->
<g id="edge24" class="edge">
<title>Node19335&#45;&gt;Node19316</title>
<path fill="none" stroke="#191970" d="M305.7562,-512.1607C340.5604,-505.8175 388.225,-497.1305 422.9726,-490.7976"/>
<polygon fill="#191970" stroke="#191970" points="423.6499,-494.2319 432.8603,-488.9955 422.3947,-487.3453 423.6499,-494.2319"/>
</g>
<!-- Node19336&#45;&gt;Node19317 -->
<g id="edge26" class="edge">
<title>Node19336&#45;&gt;Node19317</title>
<path fill="none" stroke="#191970" d="M303.2282,-226.0093C325.8016,-230.9586 353.8823,-237.09 379,-242.5 393.2448,-245.5682 408.7731,-248.8771 422.8358,-251.8604"/>
<polygon fill="#191970" stroke="#191970" points="422.269,-255.3179 432.7773,-253.967 423.7201,-248.47 422.269,-255.3179"/>
</g>
</g>
</svg>
        <g id="navigator" transform="translate(0 0)" fill="#404254">
                <rect fill="#f2f5e9" fill-opacity="0.5" stroke="#606060" stroke-width=".5" x="0" y="0" width="60" height="60"/>
                <use id="zoomplus" xlink:href="#zoomPlus" x="17" y="9" onmousedown="handleZoom(evt,'in')"/>
                <use id="zoomminus" xlink:href="#zoomMin" x="42" y="9" onmousedown="handleZoom(evt,'out')"/>
                <use id="reset" xlink:href="#resetDef" x="30" y="36" onmousedown="handleReset()"/>
                <g id="arrowUp" xlink:href="#dirArrow" transform="translate(30 24)" onmousedown="handlePan(0,-1)">
                  <use xlink:href="#rim" fill="#404040">
                        <set attributeName="fill" to="#808080" begin="arrowUp.mouseover" end="arrowUp.mouseout"/>
                  </use>
                  <path fill="none" stroke="white" stroke-width="1.5" d="M0,-3.0v7 M-2.5,-0.5L0,-3.0L2.5,-0.5"/>
                </g>
                <g id="arrowRight" xlink:href="#dirArrow" transform="rotate(90) translate(36 -43)" onmousedown="handlePan(1,0)">
                  <use xlink:href="#rim" fill="#404040">
                        <set attributeName="fill" to="#808080" begin="arrowRight.mouseover" end="arrowRight.mouseout"/>
                  </use>
                  <path fill="none" stroke="white" stroke-width="1.5" d="M0,-3.0v7 M-2.5,-0.5L0,-3.0L2.5,-0.5"/>
                </g>
                <g id="arrowDown" xlink:href="#dirArrow" transform="rotate(180) translate(-30 -48)" onmousedown="handlePan(0,1)">
                  <use xlink:href="#rim" fill="#404040">
                        <set attributeName="fill" to="#808080" begin="arrowDown.mouseover" end="arrowDown.mouseout"/>
                  </use>
                  <path fill="none" stroke="white" stroke-width="1.5" d="M0,-3.0v7 M-2.5,-0.5L0,-3.0L2.5,-0.5"/>
                </g>
                <g id="arrowLeft" xlink:href="#dirArrow" transform="rotate(270) translate(-36 17)" onmousedown="handlePan(-1,0)">
                  <use xlink:href="#rim" fill="#404040">
                        <set attributeName="fill" to="#808080" begin="arrowLeft.mouseover" end="arrowLeft.mouseout"/>
                  </use>
                  <path fill="none" stroke="white" stroke-width="1.5" d="M0,-3.0v7 M-2.5,-0.5L0,-3.0L2.5,-0.5"/>
                </g>
        </g>
        <svg viewBox="0 0 15 15" width="100%" height="30px" preserveAspectRatio="xMaxYMin meet">
         <g id="arrow_out" transform="scale(0.3 0.3)">
          <a xlink:href="classSketchWidget_aa240c73bb7408ca507843f398c5deb7a_cgraph_org.svg" target="_base">
           <rect id="button" ry="5" rx="5" y="6" x="6" height="38" width="38"
                fill="#f2f5e9" fill-opacity="0.5" stroke="#606060" stroke-width="1.0"/>
           <path id="arrow"
             d="M 11.500037,31.436501 C 11.940474,20.09759 22.043105,11.32322 32.158766,21.979434 L 37.068811,17.246167 C 37.068811,17.246167 37.088388,32 37.088388,32 L 22.160133,31.978069 C 22.160133,31.978069 26.997745,27.140456 26.997745,27.140456 C 18.528582,18.264221 13.291696,25.230495 11.500037,31.436501 z"
             style="fill:#404040;"/>
          </a>
         </g>
        </svg>
</svg>
