<?xml version="1.0" encoding="UTF-8" standalone="no"?>
<!DOCTYPE svg PUBLIC "-//W3C//DTD SVG 1.1//EN"
 "http://www.w3.org/Graphics/SVG/1.1/DTD/svg11.dtd">
<!-- Generated by graphviz version 2.40.1 (0)
 -->
<!-- Title: PartsEditorView::isEmpty Pages: 1 -->
<!--zoomable 127 -->
<svg id="main" version="1.1" xmlns="http://www.w3.org/2000/svg" xmlns:xlink="http://www.w3.org/1999/xlink" xml:space="preserve" onload="init(evt)">
<style type="text/css"><![CDATA[
.edge:hover path { stroke: red; }
.edge:hover polygon { stroke: red; fill: red; }
]]></style>
<script type="text/javascript"><![CDATA[
var edges = document.getElementsByTagName('g');
if (edges && edges.length) {
  for (var i=0;i<edges.length;i++) {
    if (edges[i].id.substr(0,4)=='edge') {
      edges[i].setAttribute('class','edge');
    }
  }
}
]]></script>
        <defs>
                <circle id="rim" cx="0" cy="0" r="7"/>
                <circle id="rim2" cx="0" cy="0" r="3.5"/>
                <g id="zoomPlus">
                        <use xlink:href="#rim" fill="#404040">
                                <set attributeName="fill" to="#808080" begin="zoomplus.mouseover" end="zoomplus.mouseout"/>
                        </use>
                        <path d="M-4,0h8M0,-4v8" fill="none" stroke="white" stroke-width="1.5" pointer-events="none"/>
                </g>
                <g id="zoomMin">
                        <use xlink:href="#rim" fill="#404040">
                                <set attributeName="fill" to="#808080" begin="zoomminus.mouseover" end="zoomminus.mouseout"/>
                        </use>
                        <path d="M-4,0h8" fill="none" stroke="white" stroke-width="1.5" pointer-events="none"/>
                </g>
                <g id="dirArrow">
                        <path fill="none" stroke="white" stroke-width="1.5" d="M0,-3.0v7 M-2.5,-0.5L0,-3.0L2.5,-0.5"/>
                </g>
               <g id="resetDef">
                       <use xlink:href="#rim2" fill="#404040">
                               <set attributeName="fill" to="#808080" begin="reset.mouseover" end="reset.mouseout"/>
                       </use>
               </g>
        </defs>

<script type="text/javascript">
var viewWidth = 777;
var viewHeight = 127;
var sectionId = 'dynsection-109';
</script>
<script xlink:href="../../svgpan.js"/>
<svg id="graph" class="graph">
<g id="viewport">
<title>PartsEditorView::isEmpty</title>
<polygon fill="#ffffff" stroke="transparent" points="-4,4 -4,-122.5 773,-122.5 773,4 -4,4"/>
<!-- Node1220 -->
<g id="node1" class="node">
<title>Node1220</title>
<g id="a_node1"><a xlink:title=" ">
<polygon fill="#bfbfbf" stroke="#000000" points="631,-55 631,-74 769,-74 769,-55 631,-55"/>
<text text-anchor="middle" x="700" y="-62" font-family="Helvetica,sans-Serif" font-size="10.00" fill="#000000">PartsEditorView::isEmpty</text>
</a>
</g>
</g>
<!-- Node1221 -->
<g id="node2" class="node">
<title>Node1221</title>
<g id="a_node2"><a xlink:href="../../d8/d37/classPartsEditorView.html#ae6c8181e9bf763c34699043d4d6af079" target="_top" xlink:title=" ">
<polygon fill="#ffffff" stroke="#000000" points="436.5,-99 436.5,-118 582.5,-118 582.5,-99 436.5,-99"/>
<text text-anchor="middle" x="509.5" y="-106" font-family="Helvetica,sans-Serif" font-size="10.00" fill="#000000">PartsEditorView::getLayers</text>
</a>
</g>
</g>
<!-- Node1220&#45;&gt;Node1221 -->
<g id="edge1" class="edge">
<title>Node1220&#45;&gt;Node1221</title>
<path fill="none" stroke="#191970" d="M650.6148,-76.4203C633.0683,-80.6127 613.1658,-85.3192 595,-89.5 581.367,-92.6376 566.4904,-95.9739 553.0247,-98.9608"/>
<polygon fill="#191970" stroke="#191970" points="651.7327,-79.7517 660.6428,-74.0192 650.1027,-72.9441 651.7327,-79.7517"/>
</g>
<!-- Node1222 -->
<g id="node3" class="node">
<title>Node1222</title>
<g id="a_node3"><a xlink:href="../../d8/d37/classPartsEditorView.html#aa3087f31954d688d16e2c16b6ccf3e0b" target="_top" xlink:title=" ">
<polygon fill="#ffffff" stroke="#000000" points="424,-49.5 424,-79.5 595,-79.5 595,-49.5 424,-49.5"/>
<text text-anchor="start" x="432" y="-67.5" font-family="Helvetica,sans-Serif" font-size="10.00" fill="#000000">PartsEditorView::findConnectors</text>
<text text-anchor="middle" x="509.5" y="-56.5" font-family="Helvetica,sans-Serif" font-size="10.00" fill="#000000">LayerIdsAux</text>
</a>
</g>
</g>
<!-- Node1220&#45;&gt;Node1222 -->
<g id="edge2" class="edge">
<title>Node1220&#45;&gt;Node1222</title>
<path fill="none" stroke="#191970" d="M620.7683,-64.5C612.331,-64.5 603.7212,-64.5 595.2138,-64.5"/>
<polygon fill="#191970" stroke="#191970" points="620.9558,-68.0001 630.9558,-64.5 620.9557,-61.0001 620.9558,-68.0001"/>
</g>
<!-- Node1225 -->
<g id="node6" class="node">
<title>Node1225</title>
<g id="a_node6"><a xlink:href="../../d8/d37/classPartsEditorView.html#af643d65684253d1148231a8b2324a630" target="_top" xlink:title=" ">
<polygon fill="#ffffff" stroke="#000000" points="432.5,-.5 432.5,-30.5 586.5,-30.5 586.5,-.5 432.5,-.5"/>
<text text-anchor="start" x="440.5" y="-18.5" font-family="Helvetica,sans-Serif" font-size="10.00" fill="#000000">PartsEditorView::isSupposed</text>
<text text-anchor="middle" x="509.5" y="-7.5" font-family="Helvetica,sans-Serif" font-size="10.00" fill="#000000">ToBeRemoved</text>
</a>
</g>
</g>
<!-- Node1220&#45;&gt;Node1225 -->
<g id="edge5" class="edge">
<title>Node1220&#45;&gt;Node1225</title>
<path fill="none" stroke="#191970" d="M652.9512,-52.3982C627.2681,-45.792 595.2361,-37.5529 567.96,-30.537"/>
<polygon fill="#191970" stroke="#191970" points="652.2608,-55.8345 662.8175,-54.936 654.0046,-49.0552 652.2608,-55.8345"/>
</g>
<!-- Node1223 -->
<g id="node4" class="node">
<title>Node1223</title>
<g id="a_node4"><a xlink:href="../../d8/d37/classPartsEditorView.html#a2c064fe90ee45c2614c8ddf754cd03f9" target="_top" xlink:title=" ">
<polygon fill="#ffffff" stroke="#000000" points="207,-49.5 207,-79.5 378,-79.5 378,-49.5 207,-49.5"/>
<text text-anchor="start" x="215" y="-67.5" font-family="Helvetica,sans-Serif" font-size="10.00" fill="#000000">PartsEditorView::findConnectors</text>
<text text-anchor="middle" x="292.5" y="-56.5" font-family="Helvetica,sans-Serif" font-size="10.00" fill="#000000">LayerIds</text>
</a>
</g>
</g>
<!-- Node1222&#45;&gt;Node1223 -->
<g id="edge3" class="edge">
<title>Node1222&#45;&gt;Node1223</title>
<path fill="none" stroke="#191970" d="M413.5116,-64.5C401.8036,-64.5 389.8986,-64.5 378.3518,-64.5"/>
<polygon fill="#191970" stroke="#191970" points="413.7359,-68.0001 423.7359,-64.5 413.7358,-61.0001 413.7359,-68.0001"/>
</g>
<!-- Node1224 -->
<g id="node5" class="node">
<title>Node1224</title>
<g id="a_node5"><a xlink:href="../../d8/d37/classPartsEditorView.html#a24294d80fe21c1bce48022e0a09e8194" target="_top" xlink:title=" ">
<polygon fill="#ffffff" stroke="#000000" points="0,-30 0,-49 161,-49 161,-30 0,-30"/>
<text text-anchor="middle" x="80.5" y="-37" font-family="Helvetica,sans-Serif" font-size="10.00" fill="#000000">PartsEditorView::aboutToSave</text>
</a>
</g>
</g>
<!-- Node1223&#45;&gt;Node1224 -->
<g id="edge4" class="edge">
<title>Node1223&#45;&gt;Node1224</title>
<path fill="none" stroke="#191970" d="M196.9348,-53.2305C185.0266,-51.8263 172.9411,-50.4011 161.2872,-49.0268"/>
<polygon fill="#191970" stroke="#191970" points="196.5415,-56.7083 206.8826,-54.4036 197.3613,-49.7565 196.5415,-56.7083"/>
</g>
<!-- Node1226 -->
<g id="node7" class="node">
<title>Node1226</title>
<g id="a_node7"><a xlink:href="../../d8/d37/classPartsEditorView.html#a89e9a25d4e92bad32490cb46142cd5f2" target="_top" xlink:title=" ">
<polygon fill="#ffffff" stroke="#000000" points="197,-.5 197,-30.5 388,-30.5 388,-.5 197,-.5"/>
<text text-anchor="start" x="205" y="-18.5" font-family="Helvetica,sans-Serif" font-size="10.00" fill="#000000">PartsEditorView::removeConnectors</text>
<text text-anchor="middle" x="292.5" y="-7.5" font-family="Helvetica,sans-Serif" font-size="10.00" fill="#000000">IfNeeded</text>
</a>
</g>
</g>
<!-- Node1225&#45;&gt;Node1226 -->
<g id="edge6" class="edge">
<title>Node1225&#45;&gt;Node1226</title>
<path fill="none" stroke="#191970" d="M422.2452,-15.5C411.0956,-15.5 399.6344,-15.5 388.3579,-15.5"/>
<polygon fill="#191970" stroke="#191970" points="422.3829,-19.0001 432.3829,-15.5 422.3829,-12.0001 422.3829,-19.0001"/>
</g>
<!-- Node1226&#45;&gt;Node1224 -->
<g id="edge7" class="edge">
<title>Node1226&#45;&gt;Node1224</title>
<path fill="none" stroke="#191970" d="M186.7072,-27.4765C178.1539,-28.4448 169.5988,-29.4133 161.2647,-30.3568"/>
<polygon fill="#191970" stroke="#191970" points="187.1911,-30.9442 196.7339,-26.3415 186.4036,-23.9886 187.1911,-30.9442"/>
</g>
</g>
</svg>
        <g id="navigator" transform="translate(0 0)" fill="#404254">
                <rect fill="#f2f5e9" fill-opacity="0.5" stroke="#606060" stroke-width=".5" x="0" y="0" width="60" height="60"/>
                <use id="zoomplus" xlink:href="#zoomPlus" x="17" y="9" onmousedown="handleZoom(evt,'in')"/>
                <use id="zoomminus" xlink:href="#zoomMin" x="42" y="9" onmousedown="handleZoom(evt,'out')"/>
                <use id="reset" xlink:href="#resetDef" x="30" y="36" onmousedown="handleReset()"/>
                <g id="arrowUp" xlink:href="#dirArrow" transform="translate(30 24)" onmousedown="handlePan(0,-1)">
                  <use xlink:href="#rim" fill="#404040">
                        <set attributeName="fill" to="#808080" begin="arrowUp.mouseover" end="arrowUp.mouseout"/>
                  </use>
                  <path fill="none" stroke="white" stroke-width="1.5" d="M0,-3.0v7 M-2.5,-0.5L0,-3.0L2.5,-0.5"/>
                </g>
                <g id="arrowRight" xlink:href="#dirArrow" transform="rotate(90) translate(36 -43)" onmousedown="handlePan(1,0)">
                  <use xlink:href="#rim" fill="#404040">
                        <set attributeName="fill" to="#808080" begin="arrowRight.mouseover" end="arrowRight.mouseout"/>
                  </use>
                  <path fill="none" stroke="white" stroke-width="1.5" d="M0,-3.0v7 M-2.5,-0.5L0,-3.0L2.5,-0.5"/>
                </g>
                <g id="arrowDown" xlink:href="#dirArrow" transform="rotate(180) translate(-30 -48)" onmousedown="handlePan(0,1)">
                  <use xlink:href="#rim" fill="#404040">
                        <set attributeName="fill" to="#808080" begin="arrowDown.mouseover" end="arrowDown.mouseout"/>
                  </use>
                  <path fill="none" stroke="white" stroke-width="1.5" d="M0,-3.0v7 M-2.5,-0.5L0,-3.0L2.5,-0.5"/>
                </g>
                <g id="arrowLeft" xlink:href="#dirArrow" transform="rotate(270) translate(-36 17)" onmousedown="handlePan(-1,0)">
                  <use xlink:href="#rim" fill="#404040">
                        <set attributeName="fill" to="#808080" begin="arrowLeft.mouseover" end="arrowLeft.mouseout"/>
                  </use>
                  <path fill="none" stroke="white" stroke-width="1.5" d="M0,-3.0v7 M-2.5,-0.5L0,-3.0L2.5,-0.5"/>
                </g>
        </g>
        <svg viewBox="0 0 15 15" width="100%" height="30px" preserveAspectRatio="xMaxYMin meet">
         <g id="arrow_out" transform="scale(0.3 0.3)">
          <a xlink:href="classPartsEditorView_a08d4f4b314c8bae6e4c8468b18050a70_icgraph_org.svg" target="_base">
           <rect id="button" ry="5" rx="5" y="6" x="6" height="38" width="38"
                fill="#f2f5e9" fill-opacity="0.5" stroke="#606060" stroke-width="1.0"/>
           <path id="arrow"
             d="M 11.500037,31.436501 C 11.940474,20.09759 22.043105,11.32322 32.158766,21.979434 L 37.068811,17.246167 C 37.068811,17.246167 37.088388,32 37.088388,32 L 22.160133,31.978069 C 22.160133,31.978069 26.997745,27.140456 26.997745,27.140456 C 18.528582,18.264221 13.291696,25.230495 11.500037,31.436501 z"
             style="fill:#404040;"/>
          </a>
         </g>
        </svg>
</svg>
