<?xml version="1.0" encoding="UTF-8" standalone="no"?>
<!DOCTYPE svg PUBLIC "-//W3C//DTD SVG 1.1//EN"
 "http://www.w3.org/Graphics/SVG/1.1/DTD/svg11.dtd">
<!-- Generated by graphviz version 2.40.1 (0)
 -->
<!-- Title: PartsEditorView::fixedItemWidth Pages: 1 -->
<!--zoomable 279 -->
<svg id="main" version="1.1" xmlns="http://www.w3.org/2000/svg" xmlns:xlink="http://www.w3.org/1999/xlink" xml:space="preserve" onload="init(evt)">
<style type="text/css"><![CDATA[
.edge:hover path { stroke: red; }
.edge:hover polygon { stroke: red; fill: red; }
]]></style>
<script type="text/javascript"><![CDATA[
var edges = document.getElementsByTagName('g');
if (edges && edges.length) {
  for (var i=0;i<edges.length;i++) {
    if (edges[i].id.substr(0,4)=='edge') {
      edges[i].setAttribute('class','edge');
    }
  }
}
]]></script>
        <defs>
                <circle id="rim" cx="0" cy="0" r="7"/>
                <circle id="rim2" cx="0" cy="0" r="3.5"/>
                <g id="zoomPlus">
                        <use xlink:href="#rim" fill="#404040">
                                <set attributeName="fill" to="#808080" begin="zoomplus.mouseover" end="zoomplus.mouseout"/>
                        </use>
                        <path d="M-4,0h8M0,-4v8" fill="none" stroke="white" stroke-width="1.5" pointer-events="none"/>
                </g>
                <g id="zoomMin">
                        <use xlink:href="#rim" fill="#404040">
                                <set attributeName="fill" to="#808080" begin="zoomminus.mouseover" end="zoomminus.mouseout"/>
                        </use>
                        <path d="M-4,0h8" fill="none" stroke="white" stroke-width="1.5" pointer-events="none"/>
                </g>
                <g id="dirArrow">
                        <path fill="none" stroke="white" stroke-width="1.5" d="M0,-3.0v7 M-2.5,-0.5L0,-3.0L2.5,-0.5"/>
                </g>
               <g id="resetDef">
                       <use xlink:href="#rim2" fill="#404040">
                               <set attributeName="fill" to="#808080" begin="reset.mouseover" end="reset.mouseout"/>
                       </use>
               </g>
        </defs>

<script type="text/javascript">
var viewWidth = 942;
var viewHeight = 279;
var sectionId = 'dynsection-88';
</script>
<script xlink:href="../../svgpan.js"/>
<svg id="graph" class="graph">
<g id="viewport">
<title>PartsEditorView::fixedItemWidth</title>
<polygon fill="#ffffff" stroke="transparent" points="-4,4 -4,-275 938,-275 938,4 -4,4"/>
<!-- Node1111 -->
<g id="node1" class="node">
<title>Node1111</title>
<g id="a_node1"><a xlink:title=" ">
<polygon fill="#bfbfbf" stroke="#000000" points="790,-118.5 790,-148.5 934,-148.5 934,-118.5 790,-118.5"/>
<text text-anchor="start" x="798" y="-136.5" font-family="Helvetica,sans-Serif" font-size="10.00" fill="#000000">PartsEditorView::fixedItem</text>
<text text-anchor="middle" x="862" y="-125.5" font-family="Helvetica,sans-Serif" font-size="10.00" fill="#000000">Width</text>
</a>
</g>
</g>
<!-- Node1112 -->
<g id="node2" class="node">
<title>Node1112</title>
<g id="a_node2"><a xlink:href="../../d8/d37/classPartsEditorView.html#aa432f3159aa63e8ee08bcdbae53299d1" target="_top" xlink:title=" ">
<polygon fill="#ffffff" stroke="#000000" points="597,-191.5 597,-221.5 754,-221.5 754,-191.5 597,-191.5"/>
<text text-anchor="start" x="605" y="-209.5" font-family="Helvetica,sans-Serif" font-size="10.00" fill="#000000">PartsEditorView::ensureFixed</text>
<text text-anchor="middle" x="675.5" y="-198.5" font-family="Helvetica,sans-Serif" font-size="10.00" fill="#000000">ToTopRight</text>
</a>
</g>
</g>
<!-- Node1111&#45;&gt;Node1112 -->
<g id="edge1" class="edge">
<title>Node1111&#45;&gt;Node1112</title>
<path fill="none" stroke="#191970" d="M814.0272,-152.2775C782.9792,-164.4304 743.0883,-180.0445 714.0934,-191.3937"/>
<polygon fill="#191970" stroke="#191970" points="815.3208,-155.5299 823.3571,-148.6256 812.7693,-149.0114 815.3208,-155.5299"/>
</g>
<!-- Node1117 -->
<g id="node7" class="node">
<title>Node1117</title>
<g id="a_node7"><a xlink:href="../../d8/d37/classPartsEditorView.html#ae6f9dfe5c7dcf03b5d9f34ad513db706" target="_top" xlink:title=" ">
<polygon fill="#ffffff" stroke="#000000" points="597,-118.5 597,-148.5 754,-148.5 754,-118.5 597,-118.5"/>
<text text-anchor="start" x="605" y="-136.5" font-family="Helvetica,sans-Serif" font-size="10.00" fill="#000000">PartsEditorView::ensureFixed</text>
<text text-anchor="middle" x="675.5" y="-125.5" font-family="Helvetica,sans-Serif" font-size="10.00" fill="#000000">ToBottomRight</text>
</a>
</g>
</g>
<!-- Node1111&#45;&gt;Node1117 -->
<g id="edge6" class="edge">
<title>Node1111&#45;&gt;Node1117</title>
<path fill="none" stroke="#191970" d="M779.6627,-133.5C771.2099,-133.5 762.6357,-133.5 754.2232,-133.5"/>
<polygon fill="#191970" stroke="#191970" points="779.8943,-137.0001 789.8942,-133.5 779.8942,-130.0001 779.8943,-137.0001"/>
</g>
<!-- Node1121 -->
<g id="node11" class="node">
<title>Node1121</title>
<g id="a_node11"><a xlink:href="../../d8/d37/classPartsEditorView.html#a07e1499dd5bc9ff08f8c620fe111cce0" target="_top" xlink:title=" ">
<polygon fill="#ffffff" stroke="#000000" points="597,-44.5 597,-74.5 754,-74.5 754,-44.5 597,-44.5"/>
<text text-anchor="start" x="605" y="-62.5" font-family="Helvetica,sans-Serif" font-size="10.00" fill="#000000">PartsEditorView::ensureFixed</text>
<text text-anchor="middle" x="675.5" y="-51.5" font-family="Helvetica,sans-Serif" font-size="10.00" fill="#000000">ToCenter</text>
</a>
</g>
</g>
<!-- Node1111&#45;&gt;Node1121 -->
<g id="edge11" class="edge">
<title>Node1111&#45;&gt;Node1121</title>
<path fill="none" stroke="#191970" d="M814.3881,-114.6084C783.0128,-102.1592 742.4884,-86.0798 713.3209,-74.5067"/>
<polygon fill="#191970" stroke="#191970" points="813.223,-117.9115 823.8089,-118.3464 815.8047,-111.405 813.223,-117.9115"/>
</g>
<!-- Node1113 -->
<g id="node3" class="node">
<title>Node1113</title>
<g id="a_node3"><a xlink:href="../../d8/d37/classPartsEditorView.html#ab30827555db05278f83d8b97449e7382" target="_top" xlink:title=" ">
<polygon fill="#ffffff" stroke="#000000" points="411.5,-240.5 411.5,-270.5 553.5,-270.5 553.5,-240.5 411.5,-240.5"/>
<text text-anchor="start" x="419.5" y="-258.5" font-family="Helvetica,sans-Serif" font-size="10.00" fill="#000000">PartsEditorView::addFixed</text>
<text text-anchor="middle" x="482.5" y="-247.5" font-family="Helvetica,sans-Serif" font-size="10.00" fill="#000000">ToTopRightItem</text>
</a>
</g>
</g>
<!-- Node1112&#45;&gt;Node1113 -->
<g id="edge2" class="edge">
<title>Node1112&#45;&gt;Node1113</title>
<path fill="none" stroke="#191970" d="M606.3753,-224.0498C585.1815,-229.4306 562.0671,-235.299 541.606,-240.4938"/>
<polygon fill="#191970" stroke="#191970" points="607.4508,-227.3879 616.282,-221.5346 605.7282,-220.6031 607.4508,-227.3879"/>
</g>
<!-- Node1114 -->
<g id="node4" class="node">
<title>Node1114</title>
<g id="a_node4"><a xlink:href="../../d8/d37/classPartsEditorView.html#a5aa719697b16083fbd863327cbcdc153" target="_top" xlink:title=" ">
<polygon fill="#ffffff" stroke="#000000" points="404,-191.5 404,-221.5 561,-221.5 561,-191.5 404,-191.5"/>
<text text-anchor="start" x="412" y="-209.5" font-family="Helvetica,sans-Serif" font-size="10.00" fill="#000000">PartsEditorView::ensureFixed</text>
<text text-anchor="middle" x="482.5" y="-198.5" font-family="Helvetica,sans-Serif" font-size="10.00" fill="#000000">ToTopRightItems</text>
</a>
</g>
</g>
<!-- Node1112&#45;&gt;Node1114 -->
<g id="edge3" class="edge">
<title>Node1112&#45;&gt;Node1114</title>
<path fill="none" stroke="#191970" d="M586.9775,-206.5C578.393,-206.5 569.7238,-206.5 561.2441,-206.5"/>
<polygon fill="#191970" stroke="#191970" points="586.9995,-210.0001 596.9995,-206.5 586.9995,-203.0001 586.9995,-210.0001"/>
</g>
<!-- Node1115 -->
<g id="node5" class="node">
<title>Node1115</title>
<g id="a_node5"><a xlink:href="../../d8/d37/classPartsEditorView.html#acb994a6cebd7eabefbe3adb6ea4d7983" target="_top" xlink:title=" ">
<polygon fill="#ffffff" stroke="#000000" points="211,-91.5 211,-121.5 368,-121.5 368,-91.5 211,-91.5"/>
<text text-anchor="start" x="219" y="-109.5" font-family="Helvetica,sans-Serif" font-size="10.00" fill="#000000">PartsEditorView::ensureFixed</text>
<text text-anchor="middle" x="289.5" y="-98.5" font-family="Helvetica,sans-Serif" font-size="10.00" fill="#000000">ItemsPositions</text>
</a>
</g>
</g>
<!-- Node1114&#45;&gt;Node1115 -->
<g id="edge4" class="edge">
<title>Node1114&#45;&gt;Node1115</title>
<path fill="none" stroke="#191970" d="M410.6761,-186.7691C408.3697,-185.4361 406.1359,-184.015 404,-182.5 381.9581,-166.8658 389.7684,-149.5128 368,-133.5 361.6148,-128.8031 354.3499,-124.8781 346.8779,-121.6102"/>
<polygon fill="#191970" stroke="#191970" points="409.3845,-190.04 419.8802,-191.4854 412.5767,-183.8102 409.3845,-190.04"/>
</g>
<!-- Node1116 -->
<g id="node6" class="node">
<title>Node1116</title>
<g id="a_node6"><a xlink:href="../../d8/d37/classPartsEditorView.html#a4e0969a7fb76039b4cc5a18cd660ede3" target="_top" xlink:title=" ">
<polygon fill="#ffffff" stroke="#000000" points="0,-50 0,-69 175,-69 175,-50 0,-50"/>
<text text-anchor="middle" x="87.5" y="-57" font-family="Helvetica,sans-Serif" font-size="10.00" fill="#000000">PartsEditorView::PartsEditorView</text>
</a>
</g>
</g>
<!-- Node1115&#45;&gt;Node1116 -->
<g id="edge5" class="edge">
<title>Node1115&#45;&gt;Node1116</title>
<path fill="none" stroke="#191970" d="M215.2359,-89.2207C185.9426,-82.405 153.4159,-74.8369 128.5165,-69.0434"/>
<polygon fill="#191970" stroke="#191970" points="214.4975,-92.6423 225.0306,-91.4997 216.0839,-85.8245 214.4975,-92.6423"/>
</g>
<!-- Node1118 -->
<g id="node8" class="node">
<title>Node1118</title>
<g id="a_node8"><a xlink:href="../../d8/d37/classPartsEditorView.html#a8eb9553d2f74dcceca0bee8fe721ca02" target="_top" xlink:title=" ">
<polygon fill="#ffffff" stroke="#000000" points="411.5,-142.5 411.5,-172.5 553.5,-172.5 553.5,-142.5 411.5,-142.5"/>
<text text-anchor="start" x="419.5" y="-160.5" font-family="Helvetica,sans-Serif" font-size="10.00" fill="#000000">PartsEditorView::addFixed</text>
<text text-anchor="middle" x="482.5" y="-149.5" font-family="Helvetica,sans-Serif" font-size="10.00" fill="#000000">ToBottomRightItem</text>
</a>
</g>
</g>
<!-- Node1117&#45;&gt;Node1118 -->
<g id="edge7" class="edge">
<title>Node1117&#45;&gt;Node1118</title>
<path fill="none" stroke="#191970" d="M586.8734,-144.5209C575.7861,-145.8997 564.5592,-147.2957 553.7835,-148.6357"/>
<polygon fill="#191970" stroke="#191970" points="587.5079,-147.9691 596.9995,-143.2617 586.644,-141.0226 587.5079,-147.9691"/>
</g>
<!-- Node1120 -->
<g id="node10" class="node">
<title>Node1120</title>
<g id="a_node10"><a xlink:href="../../d8/d37/classPartsEditorView.html#a31c9dc5cc080da01b3e672ad4aa2cd69" target="_top" xlink:title=" ">
<polygon fill="#ffffff" stroke="#000000" points="404,-93.5 404,-123.5 561,-123.5 561,-93.5 404,-93.5"/>
<text text-anchor="start" x="412" y="-111.5" font-family="Helvetica,sans-Serif" font-size="10.00" fill="#000000">PartsEditorView::ensureFixed</text>
<text text-anchor="middle" x="482.5" y="-100.5" font-family="Helvetica,sans-Serif" font-size="10.00" fill="#000000">ToBottomRightItems</text>
</a>
</g>
</g>
<!-- Node1117&#45;&gt;Node1120 -->
<g id="edge9" class="edge">
<title>Node1117&#45;&gt;Node1120</title>
<path fill="none" stroke="#191970" d="M586.9775,-122.0334C578.393,-120.9214 569.7238,-119.7984 561.2441,-118.7"/>
<polygon fill="#191970" stroke="#191970" points="586.6327,-125.5179 596.9995,-123.3315 587.532,-118.5759 586.6327,-125.5179"/>
</g>
<!-- Node1119 -->
<g id="node9" class="node">
<title>Node1119</title>
<g id="a_node9"><a xlink:href="../../d8/d37/classPartsEditorView.html#a5d95749ac308fccc8c6b1888cab69244" target="_top" xlink:title=" ">
<polygon fill="#ffffff" stroke="#000000" points="218.5,-142.5 218.5,-172.5 360.5,-172.5 360.5,-142.5 218.5,-142.5"/>
<text text-anchor="start" x="226.5" y="-160.5" font-family="Helvetica,sans-Serif" font-size="10.00" fill="#000000">PartsEditorView::addFixed</text>
<text text-anchor="middle" x="289.5" y="-149.5" font-family="Helvetica,sans-Serif" font-size="10.00" fill="#000000">ToBottomRight</text>
</a>
</g>
</g>
<!-- Node1118&#45;&gt;Node1119 -->
<g id="edge8" class="edge">
<title>Node1118&#45;&gt;Node1119</title>
<path fill="none" stroke="#191970" d="M401.2544,-157.5C387.7866,-157.5 373.912,-157.5 360.7161,-157.5"/>
<polygon fill="#191970" stroke="#191970" points="401.4562,-161.0001 411.4561,-157.5 401.4561,-154.0001 401.4562,-161.0001"/>
</g>
<!-- Node1120&#45;&gt;Node1115 -->
<g id="edge10" class="edge">
<title>Node1120&#45;&gt;Node1115</title>
<path fill="none" stroke="#191970" d="M393.9775,-107.5827C385.393,-107.4937 376.7238,-107.4039 368.2441,-107.316"/>
<polygon fill="#191970" stroke="#191970" points="393.9637,-111.0826 403.9995,-107.6865 394.0364,-104.083 393.9637,-111.0826"/>
</g>
<!-- Node1122 -->
<g id="node12" class="node">
<title>Node1122</title>
<g id="a_node12"><a xlink:href="../../d8/d37/classPartsEditorView.html#a9d89ab18d3a9bc3b0d66d2310e6e9664" target="_top" xlink:title=" ">
<polygon fill="#ffffff" stroke="#000000" points="218.5,-.5 218.5,-30.5 360.5,-30.5 360.5,-.5 218.5,-.5"/>
<text text-anchor="start" x="226.5" y="-18.5" font-family="Helvetica,sans-Serif" font-size="10.00" fill="#000000">PartsEditorView::addFixed</text>
<text text-anchor="middle" x="289.5" y="-7.5" font-family="Helvetica,sans-Serif" font-size="10.00" fill="#000000">ToCenterItem</text>
</a>
</g>
</g>
<!-- Node1121&#45;&gt;Node1122 -->
<g id="edge12" class="edge">
<title>Node1121&#45;&gt;Node1122</title>
<path fill="none" stroke="#191970" d="M604.7492,-42.3748C590.3416,-39.3616 575.237,-36.5414 561,-34.5 493.414,-24.809 415.6244,-20.0047 360.6834,-17.6581"/>
<polygon fill="#191970" stroke="#191970" points="604.0817,-45.8111 614.5931,-44.4845 605.5486,-38.9665 604.0817,-45.8111"/>
</g>
<!-- Node1123 -->
<g id="node13" class="node">
<title>Node1123</title>
<g id="a_node13"><a xlink:href="../../d8/d37/classPartsEditorView.html#aca8adaf783f4441ff14dca7d8958a2af" target="_top" xlink:title=" ">
<polygon fill="#ffffff" stroke="#000000" points="404,-44.5 404,-74.5 561,-74.5 561,-44.5 404,-44.5"/>
<text text-anchor="start" x="412" y="-62.5" font-family="Helvetica,sans-Serif" font-size="10.00" fill="#000000">PartsEditorView::ensureFixed</text>
<text text-anchor="middle" x="482.5" y="-51.5" font-family="Helvetica,sans-Serif" font-size="10.00" fill="#000000">ToCenterItems</text>
</a>
</g>
</g>
<!-- Node1121&#45;&gt;Node1123 -->
<g id="edge14" class="edge">
<title>Node1121&#45;&gt;Node1123</title>
<path fill="none" stroke="#191970" d="M586.9775,-59.5C578.393,-59.5 569.7238,-59.5 561.2441,-59.5"/>
<polygon fill="#191970" stroke="#191970" points="586.9995,-63.0001 596.9995,-59.5 586.9995,-56.0001 586.9995,-63.0001"/>
</g>
<!-- Node1122&#45;&gt;Node1116 -->
<g id="edge13" class="edge">
<title>Node1122&#45;&gt;Node1116</title>
<path fill="none" stroke="#191970" d="M210.7032,-32.6637C183.6657,-38.553 154.3949,-44.9288 131.1706,-49.9876"/>
<polygon fill="#191970" stroke="#191970" points="211.5221,-36.0674 220.548,-30.5192 210.0322,-29.2278 211.5221,-36.0674"/>
</g>
<!-- Node1123&#45;&gt;Node1115 -->
<g id="edge16" class="edge">
<title>Node1123&#45;&gt;Node1115</title>
<path fill="none" stroke="#191970" d="M411.0781,-76.8929C391.4074,-81.6832 370.2429,-86.8372 351.1738,-91.481"/>
<polygon fill="#191970" stroke="#191970" points="412.0151,-80.2671 420.903,-74.5003 410.3587,-73.4659 412.0151,-80.2671"/>
</g>
<!-- Node1123&#45;&gt;Node1116 -->
<g id="edge15" class="edge">
<title>Node1123&#45;&gt;Node1116</title>
<path fill="none" stroke="#191970" d="M393.7168,-59.5C328.441,-59.5 240.1495,-59.5 175.1437,-59.5"/>
<polygon fill="#191970" stroke="#191970" points="393.9885,-63.0001 403.9884,-59.5 393.9884,-56.0001 393.9885,-63.0001"/>
</g>
</g>
</svg>
        <g id="navigator" transform="translate(0 0)" fill="#404254">
                <rect fill="#f2f5e9" fill-opacity="0.5" stroke="#606060" stroke-width=".5" x="0" y="0" width="60" height="60"/>
                <use id="zoomplus" xlink:href="#zoomPlus" x="17" y="9" onmousedown="handleZoom(evt,'in')"/>
                <use id="zoomminus" xlink:href="#zoomMin" x="42" y="9" onmousedown="handleZoom(evt,'out')"/>
                <use id="reset" xlink:href="#resetDef" x="30" y="36" onmousedown="handleReset()"/>
                <g id="arrowUp" xlink:href="#dirArrow" transform="translate(30 24)" onmousedown="handlePan(0,-1)">
                  <use xlink:href="#rim" fill="#404040">
                        <set attributeName="fill" to="#808080" begin="arrowUp.mouseover" end="arrowUp.mouseout"/>
                  </use>
                  <path fill="none" stroke="white" stroke-width="1.5" d="M0,-3.0v7 M-2.5,-0.5L0,-3.0L2.5,-0.5"/>
                </g>
                <g id="arrowRight" xlink:href="#dirArrow" transform="rotate(90) translate(36 -43)" onmousedown="handlePan(1,0)">
                  <use xlink:href="#rim" fill="#404040">
                        <set attributeName="fill" to="#808080" begin="arrowRight.mouseover" end="arrowRight.mouseout"/>
                  </use>
                  <path fill="none" stroke="white" stroke-width="1.5" d="M0,-3.0v7 M-2.5,-0.5L0,-3.0L2.5,-0.5"/>
                </g>
                <g id="arrowDown" xlink:href="#dirArrow" transform="rotate(180) translate(-30 -48)" onmousedown="handlePan(0,1)">
                  <use xlink:href="#rim" fill="#404040">
                        <set attributeName="fill" to="#808080" begin="arrowDown.mouseover" end="arrowDown.mouseout"/>
                  </use>
                  <path fill="none" stroke="white" stroke-width="1.5" d="M0,-3.0v7 M-2.5,-0.5L0,-3.0L2.5,-0.5"/>
                </g>
                <g id="arrowLeft" xlink:href="#dirArrow" transform="rotate(270) translate(-36 17)" onmousedown="handlePan(-1,0)">
                  <use xlink:href="#rim" fill="#404040">
                        <set attributeName="fill" to="#808080" begin="arrowLeft.mouseover" end="arrowLeft.mouseout"/>
                  </use>
                  <path fill="none" stroke="white" stroke-width="1.5" d="M0,-3.0v7 M-2.5,-0.5L0,-3.0L2.5,-0.5"/>
                </g>
        </g>
        <svg viewBox="0 0 15 15" width="100%" height="30px" preserveAspectRatio="xMaxYMin meet">
         <g id="arrow_out" transform="scale(0.3 0.3)">
          <a xlink:href="classPartsEditorView_a4a1a622a3c3d8ca587baffff5676714e_icgraph_org.svg" target="_base">
           <rect id="button" ry="5" rx="5" y="6" x="6" height="38" width="38"
                fill="#f2f5e9" fill-opacity="0.5" stroke="#606060" stroke-width="1.0"/>
           <path id="arrow"
             d="M 11.500037,31.436501 C 11.940474,20.09759 22.043105,11.32322 32.158766,21.979434 L 37.068811,17.246167 C 37.068811,17.246167 37.088388,32 37.088388,32 L 22.160133,31.978069 C 22.160133,31.978069 26.997745,27.140456 26.997745,27.140456 C 18.528582,18.264221 13.291696,25.230495 11.500037,31.436501 z"
             style="fill:#404040;"/>
          </a>
         </g>
        </svg>
</svg>
