<?xml version="1.0" encoding="UTF-8" standalone="no"?>
<!DOCTYPE svg PUBLIC "-//W3C//DTD SVG 1.1//EN"
 "http://www.w3.org/Graphics/SVG/1.1/DTD/svg11.dtd">
<!-- Generated by graphviz version 2.40.1 (0)
 -->
<!-- Title: SketchWidget::selectAllWires Pages: 1 -->
<svg width="1537pt" height="276pt"
 viewBox="0.00 0.00 1537.00 276.00" xmlns="http://www.w3.org/2000/svg" xmlns:xlink="http://www.w3.org/1999/xlink">
<g id="graph0" class="graph" transform="scale(1 1) rotate(0) translate(4 272)">
<title>SketchWidget::selectAllWires</title>
<polygon fill="#ffffff" stroke="transparent" points="-4,4 -4,-272 1533,-272 1533,4 -4,4"/>
<!-- Node19619 -->
<g id="node1" class="node">
<title>Node19619</title>
<g id="a_node1"><a xlink:title=" ">
<polygon fill="#bfbfbf" stroke="#000000" points="0,-133.5 0,-152.5 159,-152.5 159,-133.5 0,-133.5"/>
<text text-anchor="middle" x="79.5" y="-140.5" font-family="Helvetica,sans-Serif" font-size="10.00" fill="#000000">SketchWidget::selectAllWires</text>
</a>
</g>
</g>
<!-- Node19620 -->
<g id="node2" class="node">
<title>Node19620</title>
<g id="a_node2"><a xlink:href="../../d8/d37/classSketchWidget.html#aa92118743eec862f3fa8df87dcbadf2d" target="_top" xlink:title=" ">
<polygon fill="#ffffff" stroke="#000000" points="195,-133.5 195,-152.5 379,-152.5 379,-133.5 195,-133.5"/>
<text text-anchor="middle" x="287" y="-140.5" font-family="Helvetica,sans-Serif" font-size="10.00" fill="#000000">SketchWidget::selectAllWiresFrom</text>
</a>
</g>
</g>
<!-- Node19619&#45;&gt;Node19620 -->
<g id="edge1" class="edge">
<title>Node19619&#45;&gt;Node19620</title>
<path fill="none" stroke="#191970" d="M159.1315,-143C167.5103,-143 176.1113,-143 184.6991,-143"/>
<polygon fill="#191970" stroke="#191970" points="184.7602,-146.5001 194.7602,-143 184.7602,-139.5001 184.7602,-146.5001"/>
</g>
<!-- Node19621 -->
<g id="node3" class="node">
<title>Node19621</title>
<g id="a_node3"><a xlink:href="../../d7/d64/classWire.html#a279a6f6496623e9da9f02234b2325af6" target="_top" xlink:title=" ">
<polygon fill="#ffffff" stroke="#000000" points="454,-242.5 454,-261.5 537,-261.5 537,-242.5 454,-242.5"/>
<text text-anchor="middle" x="495.5" y="-249.5" font-family="Helvetica,sans-Serif" font-size="10.00" fill="#000000">Wire::hasFlag</text>
</a>
</g>
</g>
<!-- Node19620&#45;&gt;Node19621 -->
<g id="edge2" class="edge">
<title>Node19620&#45;&gt;Node19621</title>
<path fill="none" stroke="#191970" d="M298.984,-152.7498C320.825,-170.0949 369.1,-206.5048 415,-228 424.5081,-232.4527 435.0347,-236.299 445.2551,-239.5279"/>
<polygon fill="#191970" stroke="#191970" points="444.3327,-242.9053 454.917,-242.4341 446.349,-236.202 444.3327,-242.9053"/>
</g>
<!-- Node19623 -->
<g id="node5" class="node">
<title>Node19623</title>
<g id="a_node5"><a xlink:href="../../d8/d37/classSketchWidget.html#af71d0b339c0214ea1a9a9b9b03c845af" target="_top" xlink:title=" ">
<polygon fill="#ffffff" stroke="#000000" points="419.5,-199.5 419.5,-218.5 571.5,-218.5 571.5,-199.5 419.5,-199.5"/>
<text text-anchor="middle" x="495.5" y="-206.5" font-family="Helvetica,sans-Serif" font-size="10.00" fill="#000000">SketchWidget::getTraceFlag</text>
</a>
</g>
</g>
<!-- Node19620&#45;&gt;Node19623 -->
<g id="edge4" class="edge">
<title>Node19620&#45;&gt;Node19623</title>
<path fill="none" stroke="#191970" d="M310.3057,-152.5194C335.7442,-162.6826 377.818,-178.8297 415,-190 423.3933,-192.5215 432.36,-194.9207 441.1495,-197.1125"/>
<polygon fill="#191970" stroke="#191970" points="440.4144,-200.5356 450.958,-199.4944 442.0664,-193.7333 440.4144,-200.5356"/>
</g>
<!-- Node19624 -->
<g id="node6" class="node">
<title>Node19624</title>
<g id="a_node6"><a xlink:href="../../d8/d37/classSketchWidget.html#afe26a565be45229a07833c6f4ab6e9b6" target="_top" xlink:title=" ">
<polygon fill="#ffffff" stroke="#000000" points="415,-150 415,-180 576,-180 576,-150 415,-150"/>
<text text-anchor="start" x="423" y="-168" font-family="Helvetica,sans-Serif" font-size="10.00" fill="#000000">SketchWidget::stackSelection</text>
<text text-anchor="middle" x="495.5" y="-157" font-family="Helvetica,sans-Serif" font-size="10.00" fill="#000000">State</text>
</a>
</g>
</g>
<!-- Node19620&#45;&gt;Node19624 -->
<g id="edge5" class="edge">
<title>Node19620&#45;&gt;Node19624</title>
<path fill="none" stroke="#191970" d="M377.2385,-152.5216C386.3544,-153.4834 395.6158,-154.4607 404.7372,-155.4231"/>
<polygon fill="#191970" stroke="#191970" points="404.6486,-158.9331 414.9607,-156.5018 405.3832,-151.9718 404.6486,-158.9331"/>
</g>
<!-- Node19629 -->
<g id="node11" class="node">
<title>Node19629</title>
<g id="a_node11"><a xlink:href="../../d4/d4f/classItemBase.html#a27afd199a7ae3c3fd14e88ed0be14420" target="_top" xlink:title=" ">
<polygon fill="#ffffff" stroke="#000000" points="646,-111.5 646,-130.5 724,-130.5 724,-111.5 646,-111.5"/>
<text text-anchor="middle" x="685" y="-118.5" font-family="Helvetica,sans-Serif" font-size="10.00" fill="#000000">ItemBase::id</text>
</a>
</g>
</g>
<!-- Node19620&#45;&gt;Node19629 -->
<g id="edge20" class="edge">
<title>Node19620&#45;&gt;Node19629</title>
<path fill="none" stroke="#191970" d="M379.3096,-137.8975C459.2502,-133.4786 571.8029,-127.2571 635.6643,-123.7271"/>
<polygon fill="#191970" stroke="#191970" points="636.0715,-127.21 645.863,-123.1634 635.6851,-120.2207 636.0715,-127.21"/>
</g>
<!-- Node19630 -->
<g id="node12" class="node">
<title>Node19630</title>
<g id="a_node12"><a xlink:href="../../d0/dbb/classWaitPushUndoStack.html#a279fdca551f05e81111de92ea5b2145c" target="_top" xlink:title=" ">
<polygon fill="#ffffff" stroke="#000000" points="613.5,-73.5 613.5,-92.5 756.5,-92.5 756.5,-73.5 613.5,-73.5"/>
<text text-anchor="middle" x="685" y="-80.5" font-family="Helvetica,sans-Serif" font-size="10.00" fill="#000000">WaitPushUndoStack::push</text>
</a>
</g>
</g>
<!-- Node19620&#45;&gt;Node19630 -->
<g id="edge21" class="edge">
<title>Node19620&#45;&gt;Node19630</title>
<path fill="none" stroke="#191970" d="M347.2164,-133.4906C368.6128,-130.1384 392.8754,-126.3673 415,-123 480.686,-113.0028 555.4142,-101.9573 609.575,-94.0109"/>
<polygon fill="#191970" stroke="#191970" points="610.3961,-97.428 619.7826,-92.5142 609.3806,-90.502 610.3961,-97.428"/>
</g>
<!-- Node19638 -->
<g id="node20" class="node">
<title>Node19638</title>
<g id="a_node20"><a xlink:href="../../d2/d38/classSelectItemCommand.html#af5f579079660a8d49b256cc47c37a9f8" target="_top" xlink:title=" ">
<polygon fill="#ffffff" stroke="#000000" points="433,-24 433,-54 558,-54 558,-24 433,-24"/>
<text text-anchor="start" x="441" y="-42" font-family="Helvetica,sans-Serif" font-size="10.00" fill="#000000">SelectItemCommand::</text>
<text text-anchor="middle" x="495.5" y="-31" font-family="Helvetica,sans-Serif" font-size="10.00" fill="#000000">addRedo</text>
</a>
</g>
</g>
<!-- Node19620&#45;&gt;Node19638 -->
<g id="edge19" class="edge">
<title>Node19620&#45;&gt;Node19638</title>
<path fill="none" stroke="#191970" d="M301.9235,-133.2655C325.359,-118.2359 372.5096,-89.0272 415,-69 423.4214,-65.0307 432.5222,-61.2134 441.4702,-57.71"/>
<polygon fill="#191970" stroke="#191970" points="442.9876,-60.8772 451.0805,-54.0394 440.4899,-54.3379 442.9876,-60.8772"/>
</g>
<!-- Node19622 -->
<g id="node4" class="node">
<title>Node19622</title>
<g id="a_node4"><a xlink:href="../../d3/de8/classViewGeometry.html#af48546e414eab094f557068fa483aee3" target="_top" xlink:title=" ">
<polygon fill="#ffffff" stroke="#000000" points="618.5,-248.5 618.5,-267.5 751.5,-267.5 751.5,-248.5 618.5,-248.5"/>
<text text-anchor="middle" x="685" y="-255.5" font-family="Helvetica,sans-Serif" font-size="10.00" fill="#000000">ViewGeometry::hasFlag</text>
</a>
</g>
</g>
<!-- Node19621&#45;&gt;Node19622 -->
<g id="edge3" class="edge">
<title>Node19621&#45;&gt;Node19622</title>
<path fill="none" stroke="#191970" d="M537.0866,-253.3167C557.8688,-253.9747 583.6962,-254.7925 607.925,-255.5596"/>
<polygon fill="#191970" stroke="#191970" points="608.0857,-259.0664 618.1915,-255.8847 608.3073,-252.0699 608.0857,-259.0664"/>
</g>
<!-- Node19625 -->
<g id="node7" class="node">
<title>Node19625</title>
<g id="a_node7"><a xlink:href="../../d4/d4f/classItemBase.html#abbe779a3f21ec2a9ed8de3fd2a586b14" target="_top" xlink:title=" ">
<polygon fill="#ffffff" stroke="#000000" points="612,-150 612,-180 758,-180 758,-150 612,-150"/>
<text text-anchor="start" x="620" y="-168" font-family="Helvetica,sans-Serif" font-size="10.00" fill="#000000">ItemBase::extractTopLevel</text>
<text text-anchor="middle" x="685" y="-157" font-family="Helvetica,sans-Serif" font-size="10.00" fill="#000000">ItemBase</text>
</a>
</g>
</g>
<!-- Node19624&#45;&gt;Node19625 -->
<g id="edge6" class="edge">
<title>Node19624&#45;&gt;Node19625</title>
<path fill="none" stroke="#191970" d="M576.1398,-165C584.5907,-165 593.1947,-165 601.6749,-165"/>
<polygon fill="#191970" stroke="#191970" points="601.9388,-168.5001 611.9387,-165 601.9387,-161.5001 601.9388,-168.5001"/>
</g>
<!-- Node19628 -->
<g id="node10" class="node">
<title>Node19628</title>
<g id="a_node10"><a xlink:href="../../d2/d38/classSelectItemCommand.html#a3397bfea7b40cc14dba541e857b044fa" target="_top" xlink:title=" ">
<polygon fill="#ffffff" stroke="#000000" points="622.5,-199 622.5,-229 747.5,-229 747.5,-199 622.5,-199"/>
<text text-anchor="start" x="630.5" y="-217" font-family="Helvetica,sans-Serif" font-size="10.00" fill="#000000">SelectItemCommand::</text>
<text text-anchor="middle" x="685" y="-206" font-family="Helvetica,sans-Serif" font-size="10.00" fill="#000000">addUndo</text>
</a>
</g>
</g>
<!-- Node19624&#45;&gt;Node19628 -->
<g id="edge9" class="edge">
<title>Node19624&#45;&gt;Node19628</title>
<path fill="none" stroke="#191970" d="M553.6441,-180.0346C573.7436,-185.2318 596.4401,-191.1006 617.2427,-196.4796"/>
<polygon fill="#191970" stroke="#191970" points="616.4081,-199.8789 626.9659,-198.9938 618.1605,-193.1018 616.4081,-199.8789"/>
</g>
<!-- Node19624&#45;&gt;Node19629 -->
<g id="edge10" class="edge">
<title>Node19624&#45;&gt;Node19629</title>
<path fill="none" stroke="#191970" d="M560.1851,-149.9808C585.0292,-144.2122 612.9498,-137.7293 636.074,-132.3601"/>
<polygon fill="#191970" stroke="#191970" points="637.0501,-135.7267 645.9993,-130.0556 635.4668,-128.9081 637.0501,-135.7267"/>
</g>
<!-- Node19624&#45;&gt;Node19630 -->
<g id="edge11" class="edge">
<title>Node19624&#45;&gt;Node19630</title>
<path fill="none" stroke="#191970" d="M519.223,-149.9569C542.2037,-135.9265 578.411,-115.2284 612,-102 618.2219,-99.5496 624.8661,-97.3208 631.5166,-95.3227"/>
<polygon fill="#191970" stroke="#191970" points="632.5567,-98.6657 641.2162,-92.5614 630.64,-91.9332 632.5567,-98.6657"/>
</g>
<!-- Node19626 -->
<g id="node8" class="node">
<title>Node19626</title>
<g id="a_node8"><a xlink:href="../../d4/d4f/classItemBase.html#aee43e2ce5dbdaac292cb6398ce43f766" target="_top" xlink:title=" ">
<polygon fill="#ffffff" stroke="#000000" points="798.5,-155.5 798.5,-174.5 909.5,-174.5 909.5,-155.5 798.5,-155.5"/>
<text text-anchor="middle" x="854" y="-162.5" font-family="Helvetica,sans-Serif" font-size="10.00" fill="#000000">ItemBase::topLevel</text>
</a>
</g>
</g>
<!-- Node19625&#45;&gt;Node19626 -->
<g id="edge7" class="edge">
<title>Node19625&#45;&gt;Node19626</title>
<path fill="none" stroke="#191970" d="M758.1429,-165C768.1405,-165 778.354,-165 788.21,-165"/>
<polygon fill="#191970" stroke="#191970" points="788.3275,-168.5001 798.3274,-165 788.3274,-161.5001 788.3275,-168.5001"/>
</g>
<!-- Node19627 -->
<g id="node9" class="node">
<title>Node19627</title>
<g id="a_node9"><a xlink:href="../../d4/d4f/classItemBase.html#abf6d16e250a353043cd4953ddc049bd0" target="_top" xlink:title=" ">
<polygon fill="#ffffff" stroke="#000000" points="979,-155.5 979,-174.5 1114,-174.5 1114,-155.5 979,-155.5"/>
<text text-anchor="middle" x="1046.5" y="-162.5" font-family="Helvetica,sans-Serif" font-size="10.00" fill="#000000">ItemBase::layerKinChief</text>
</a>
</g>
</g>
<!-- Node19626&#45;&gt;Node19627 -->
<g id="edge8" class="edge">
<title>Node19626&#45;&gt;Node19627</title>
<path fill="none" stroke="#191970" d="M909.679,-165C928.0232,-165 948.774,-165 968.4685,-165"/>
<polygon fill="#191970" stroke="#191970" points="968.6529,-168.5001 978.6529,-165 968.6528,-161.5001 968.6529,-168.5001"/>
</g>
<!-- Node19631 -->
<g id="node13" class="node">
<title>Node19631</title>
<g id="a_node13"><a xlink:href="../../d0/dbb/classWaitPushUndoStack.html#a2b0322812e333fec2b4d0d12b12e634c" target="_top" xlink:title=" ">
<polygon fill="#ffffff" stroke="#000000" points="794,-68 794,-98 914,-98 914,-68 794,-68"/>
<text text-anchor="start" x="802" y="-86" font-family="Helvetica,sans-Serif" font-size="10.00" fill="#000000">WaitPushUndoStack::</text>
<text text-anchor="middle" x="854" y="-75" font-family="Helvetica,sans-Serif" font-size="10.00" fill="#000000">writeUndo</text>
</a>
</g>
</g>
<!-- Node19630&#45;&gt;Node19631 -->
<g id="edge12" class="edge">
<title>Node19630&#45;&gt;Node19631</title>
<path fill="none" stroke="#191970" d="M756.6712,-83C765.6914,-83 774.9112,-83 783.9067,-83"/>
<polygon fill="#191970" stroke="#191970" points="783.9448,-86.5001 793.9448,-83 783.9448,-79.5001 783.9448,-86.5001"/>
</g>
<!-- Node19632 -->
<g id="node14" class="node">
<title>Node19632</title>
<g id="a_node14"><a xlink:href="../../d8/d6e/classBaseCommand.html#a2d7619b36325bfec9111724045c24b8e" target="_top" xlink:title=" ">
<polygon fill="#ffffff" stroke="#000000" points="960,-.5 960,-19.5 1133,-19.5 1133,-.5 960,-.5"/>
<text text-anchor="middle" x="1046.5" y="-7.5" font-family="Helvetica,sans-Serif" font-size="10.00" fill="#000000">BaseCommand::getDebugString</text>
</a>
</g>
</g>
<!-- Node19631&#45;&gt;Node19632 -->
<g id="edge13" class="edge">
<title>Node19631&#45;&gt;Node19632</title>
<path fill="none" stroke="#191970" d="M875.9053,-67.9983C894.7553,-55.7603 923.0889,-38.927 950,-29 957.3216,-26.2992 965.1047,-23.9571 972.951,-21.9318"/>
<polygon fill="#191970" stroke="#191970" points="973.9937,-25.2808 982.8937,-19.5327 972.3517,-18.4761 973.9937,-25.2808"/>
</g>
<!-- Node19635 -->
<g id="node17" class="node">
<title>Node19635</title>
<g id="a_node17"><a xlink:href="../../d8/d6e/classBaseCommand.html#af34b4e2829ad3b7b718499916fd87cbb" target="_top" xlink:title=" ">
<polygon fill="#ffffff" stroke="#000000" points="984.5,-114.5 984.5,-133.5 1108.5,-133.5 1108.5,-114.5 984.5,-114.5"/>
<text text-anchor="middle" x="1046.5" y="-121.5" font-family="Helvetica,sans-Serif" font-size="10.00" fill="#000000">BaseCommand::index</text>
</a>
</g>
</g>
<!-- Node19631&#45;&gt;Node19635 -->
<g id="edge16" class="edge">
<title>Node19631&#45;&gt;Node19635</title>
<path fill="none" stroke="#191970" d="M914.109,-97.0746C925.9895,-99.7718 938.3771,-102.5246 950,-105 961.7426,-107.5009 974.3145,-110.0613 986.3742,-112.4599"/>
<polygon fill="#191970" stroke="#191970" points="985.8658,-115.927 996.3546,-114.4318 987.2227,-109.0598 985.8658,-115.927"/>
</g>
<!-- Node19636 -->
<g id="node18" class="node">
<title>Node19636</title>
<g id="a_node18"><a xlink:href="../../d8/d6e/classBaseCommand.html#ad7114bcb3cf27232facaf0cbcd7e3b58" target="_top" xlink:title=" ">
<polygon fill="#ffffff" stroke="#000000" points="950,-76.5 950,-95.5 1143,-95.5 1143,-76.5 950,-76.5"/>
<text text-anchor="middle" x="1046.5" y="-83.5" font-family="Helvetica,sans-Serif" font-size="10.00" fill="#000000">BaseCommand::subCommandCount</text>
</a>
</g>
</g>
<!-- Node19631&#45;&gt;Node19636 -->
<g id="edge17" class="edge">
<title>Node19631&#45;&gt;Node19636</title>
<path fill="none" stroke="#191970" d="M914.1164,-83.9369C922.2832,-84.0642 930.856,-84.1978 939.5467,-84.3332"/>
<polygon fill="#191970" stroke="#191970" points="939.7324,-87.8364 949.7857,-84.4928 939.8415,-80.8373 939.7324,-87.8364"/>
</g>
<!-- Node19637 -->
<g id="node19" class="node">
<title>Node19637</title>
<g id="a_node19"><a xlink:href="../../d8/d6e/classBaseCommand.html#a2717e1d5a234ba427175907b2dc58c23" target="_top" xlink:title=" ">
<polygon fill="#ffffff" stroke="#000000" points="964.5,-38.5 964.5,-57.5 1128.5,-57.5 1128.5,-38.5 964.5,-38.5"/>
<text text-anchor="middle" x="1046.5" y="-45.5" font-family="Helvetica,sans-Serif" font-size="10.00" fill="#000000">BaseCommand::subCommand</text>
</a>
</g>
</g>
<!-- Node19631&#45;&gt;Node19637 -->
<g id="edge18" class="edge">
<title>Node19631&#45;&gt;Node19637</title>
<path fill="none" stroke="#191970" d="M914.1164,-72.0697C936.3105,-68.0344 961.5033,-63.4539 983.9112,-59.3798"/>
<polygon fill="#191970" stroke="#191970" points="984.7774,-62.7798 993.9899,-57.5473 983.5251,-55.8927 984.7774,-62.7798"/>
</g>
<!-- Node19633 -->
<g id="node15" class="node">
<title>Node19633</title>
<g id="a_node15"><a xlink:href="../../d8/d6e/classBaseCommand.html#aca69868889f793ce1399fd0c752cfa05" target="_top" xlink:title=" ">
<polygon fill="#ffffff" stroke="#000000" points="1179,-.5 1179,-19.5 1351,-19.5 1351,-.5 1179,-.5"/>
<text text-anchor="middle" x="1265" y="-7.5" font-family="Helvetica,sans-Serif" font-size="10.00" fill="#000000">BaseCommand::getParamString</text>
</a>
</g>
</g>
<!-- Node19632&#45;&gt;Node19633 -->
<g id="edge14" class="edge">
<title>Node19632&#45;&gt;Node19633</title>
<path fill="none" stroke="#191970" d="M1133.1708,-10C1144.7822,-10 1156.7493,-10 1168.5162,-10"/>
<polygon fill="#191970" stroke="#191970" points="1168.7913,-13.5001 1178.7913,-10 1168.7913,-6.5001 1168.7913,-13.5001"/>
</g>
<!-- Node19634 -->
<g id="node16" class="node">
<title>Node19634</title>
<g id="a_node16"><a xlink:href="../../d8/d37/classSketchWidget.html#a4319a31c3a619e166f0e7dac865e2ea3" target="_top" xlink:title=" ">
<polygon fill="#ffffff" stroke="#000000" points="1387,-.5 1387,-19.5 1529,-19.5 1529,-.5 1387,-.5"/>
<text text-anchor="middle" x="1458" y="-7.5" font-family="Helvetica,sans-Serif" font-size="10.00" fill="#000000">SketchWidget::viewName</text>
</a>
</g>
</g>
<!-- Node19633&#45;&gt;Node19634 -->
<g id="edge15" class="edge">
<title>Node19633&#45;&gt;Node19634</title>
<path fill="none" stroke="#191970" d="M1351.0578,-10C1359.562,-10 1368.1756,-10 1376.6304,-10"/>
<polygon fill="#191970" stroke="#191970" points="1376.8465,-13.5001 1386.8465,-10 1376.8465,-6.5001 1376.8465,-13.5001"/>
</g>
</g>
</svg>
