<?xml version="1.0" encoding="UTF-8" standalone="no"?>
<!DOCTYPE svg PUBLIC "-//W3C//DTD SVG 1.1//EN"
 "http://www.w3.org/Graphics/SVG/1.1/DTD/svg11.dtd">
<!-- Generated by graphviz version 2.40.1 (0)
 -->
<!-- Title: SketchWidget::selectItems Pages: 1 -->
<!--zoomable 310 -->
<svg id="main" version="1.1" xmlns="http://www.w3.org/2000/svg" xmlns:xlink="http://www.w3.org/1999/xlink" xml:space="preserve" onload="init(evt)">
<style type="text/css"><![CDATA[
.edge:hover path { stroke: red; }
.edge:hover polygon { stroke: red; fill: red; }
]]></style>
<script type="text/javascript"><![CDATA[
var edges = document.getElementsByTagName('g');
if (edges && edges.length) {
  for (var i=0;i<edges.length;i++) {
    if (edges[i].id.substr(0,4)=='edge') {
      edges[i].setAttribute('class','edge');
    }
  }
}
]]></script>
        <defs>
                <circle id="rim" cx="0" cy="0" r="7"/>
                <circle id="rim2" cx="0" cy="0" r="3.5"/>
                <g id="zoomPlus">
                        <use xlink:href="#rim" fill="#404040">
                                <set attributeName="fill" to="#808080" begin="zoomplus.mouseover" end="zoomplus.mouseout"/>
                        </use>
                        <path d="M-4,0h8M0,-4v8" fill="none" stroke="white" stroke-width="1.5" pointer-events="none"/>
                </g>
                <g id="zoomMin">
                        <use xlink:href="#rim" fill="#404040">
                                <set attributeName="fill" to="#808080" begin="zoomminus.mouseover" end="zoomminus.mouseout"/>
                        </use>
                        <path d="M-4,0h8" fill="none" stroke="white" stroke-width="1.5" pointer-events="none"/>
                </g>
                <g id="dirArrow">
                        <path fill="none" stroke="white" stroke-width="1.5" d="M0,-3.0v7 M-2.5,-0.5L0,-3.0L2.5,-0.5"/>
                </g>
               <g id="resetDef">
                       <use xlink:href="#rim2" fill="#404040">
                               <set attributeName="fill" to="#808080" begin="reset.mouseover" end="reset.mouseout"/>
                       </use>
               </g>
        </defs>

<script type="text/javascript">
var viewWidth = 1304;
var viewHeight = 310;
var sectionId = 'dynsection-480';
</script>
<script xlink:href="../../svgpan.js"/>
<svg id="graph" class="graph">
<g id="viewport">
<title>SketchWidget::selectItems</title>
<polygon fill="#ffffff" stroke="transparent" points="-4,4 -4,-305.5 1300,-305.5 1300,4 -4,4"/>
<!-- Node19735 -->
<g id="node1" class="node">
<title>Node19735</title>
<g id="a_node1"><a xlink:title=" ">
<polygon fill="#bfbfbf" stroke="#000000" points="0,-175.5 0,-194.5 146,-194.5 146,-175.5 0,-175.5"/>
<text text-anchor="middle" x="73" y="-182.5" font-family="Helvetica,sans-Serif" font-size="10.00" fill="#000000">SketchWidget::selectItems</text>
</a>
</g>
</g>
<!-- Node19736 -->
<g id="node2" class="node">
<title>Node19736</title>
<g id="a_node2"><a xlink:href="../../d2/d38/classSelectItemCommand.html#af5f579079660a8d49b256cc47c37a9f8" target="_top" xlink:title=" ">
<polygon fill="#ffffff" stroke="#000000" points="200,-271 200,-301 325,-301 325,-271 200,-271"/>
<text text-anchor="start" x="208" y="-289" font-family="Helvetica,sans-Serif" font-size="10.00" fill="#000000">SelectItemCommand::</text>
<text text-anchor="middle" x="262.5" y="-278" font-family="Helvetica,sans-Serif" font-size="10.00" fill="#000000">addRedo</text>
</a>
</g>
</g>
<!-- Node19735&#45;&gt;Node19736 -->
<g id="edge1" class="edge">
<title>Node19735&#45;&gt;Node19736</title>
<path fill="none" stroke="#191970" d="M85.8578,-194.7289C105.69,-209.4154 145.2987,-237.4937 182,-256 189.9343,-260.0008 198.5355,-263.7642 207.0636,-267.1841"/>
<polygon fill="#191970" stroke="#191970" points="206.0326,-270.5383 216.6215,-270.8937 208.5654,-264.0126 206.0326,-270.5383"/>
</g>
<!-- Node19737 -->
<g id="node3" class="node">
<title>Node19737</title>
<g id="a_node3"><a xlink:href="../../d4/d4f/classItemBase.html#a27afd199a7ae3c3fd14e88ed0be14420" target="_top" xlink:title=" ">
<polygon fill="#ffffff" stroke="#000000" points="413,-194.5 413,-213.5 491,-213.5 491,-194.5 413,-194.5"/>
<text text-anchor="middle" x="452" y="-201.5" font-family="Helvetica,sans-Serif" font-size="10.00" fill="#000000">ItemBase::id</text>
</a>
</g>
</g>
<!-- Node19735&#45;&gt;Node19737 -->
<g id="edge2" class="edge">
<title>Node19735&#45;&gt;Node19737</title>
<path fill="none" stroke="#191970" d="M146.2015,-181.5963C200.5982,-179.8932 276.5684,-179.2534 343,-185 362.6996,-186.7041 384.1804,-190.1098 402.8248,-193.5731"/>
<polygon fill="#191970" stroke="#191970" points="402.3822,-197.0518 412.8617,-195.4926 403.6972,-190.1764 402.3822,-197.0518"/>
</g>
<!-- Node19738 -->
<g id="node4" class="node">
<title>Node19738</title>
<g id="a_node4"><a xlink:href="../../d4/d4f/classItemBase.html#a7e2aeaad0bf538b46ff5a3285521526a" target="_top" xlink:title=" ">
<polygon fill="#ffffff" stroke="#000000" points="196.5,-194.5 196.5,-213.5 328.5,-213.5 328.5,-194.5 196.5,-194.5"/>
<text text-anchor="middle" x="262.5" y="-201.5" font-family="Helvetica,sans-Serif" font-size="10.00" fill="#000000">ItemBase::instanceTitle</text>
</a>
</g>
</g>
<!-- Node19735&#45;&gt;Node19738 -->
<g id="edge3" class="edge">
<title>Node19735&#45;&gt;Node19738</title>
<path fill="none" stroke="#191970" d="M146.2656,-192.3459C159.3789,-193.6607 173.0717,-195.0336 186.266,-196.3565"/>
<polygon fill="#191970" stroke="#191970" points="185.9415,-199.8414 196.2408,-197.3566 186.6399,-192.8763 185.9415,-199.8414"/>
</g>
<!-- Node19739 -->
<g id="node5" class="node">
<title>Node19739</title>
<g id="a_node5"><a xlink:href="../../d4/d4f/classItemBase.html#abf6d16e250a353043cd4953ddc049bd0" target="_top" xlink:title=" ">
<polygon fill="#ffffff" stroke="#000000" points="746,-202.5 746,-221.5 881,-221.5 881,-202.5 746,-202.5"/>
<text text-anchor="middle" x="813.5" y="-209.5" font-family="Helvetica,sans-Serif" font-size="10.00" fill="#000000">ItemBase::layerKinChief</text>
</a>
</g>
</g>
<!-- Node19735&#45;&gt;Node19739 -->
<g id="edge4" class="edge">
<title>Node19735&#45;&gt;Node19739</title>
<path fill="none" stroke="#191970" d="M93.748,-194.5899C115.2771,-203.9724 150.1874,-217.6137 182,-223 378.9716,-256.3502 615.4289,-236.6597 735.4058,-222.533"/>
<polygon fill="#191970" stroke="#191970" points="736.0824,-225.9771 745.5956,-221.3135 735.2505,-219.0267 736.0824,-225.9771"/>
</g>
<!-- Node19740 -->
<g id="node6" class="node">
<title>Node19740</title>
<g id="a_node6"><a xlink:href="../../d0/dbb/classWaitPushUndoStack.html#a279fdca551f05e81111de92ea5b2145c" target="_top" xlink:title=" ">
<polygon fill="#ffffff" stroke="#000000" points="380.5,-57.5 380.5,-76.5 523.5,-76.5 523.5,-57.5 380.5,-57.5"/>
<text text-anchor="middle" x="452" y="-64.5" font-family="Helvetica,sans-Serif" font-size="10.00" fill="#000000">WaitPushUndoStack::push</text>
</a>
</g>
</g>
<!-- Node19735&#45;&gt;Node19740 -->
<g id="edge5" class="edge">
<title>Node19735&#45;&gt;Node19740</title>
<path fill="none" stroke="#191970" d="M81.1606,-175.4998C97.8948,-156.7547 138.2246,-115.2468 182,-97 241.8341,-72.0595 315.2482,-65.2522 370.4127,-64.2961"/>
<polygon fill="#191970" stroke="#191970" points="370.5334,-67.795 380.4934,-64.1826 370.4546,-60.7955 370.5334,-67.795"/>
</g>
<!-- Node19748 -->
<g id="node14" class="node">
<title>Node19748</title>
<g id="a_node14"><a xlink:href="../../d8/d37/classSketchWidget.html#afe26a565be45229a07833c6f4ab6e9b6" target="_top" xlink:title=" ">
<polygon fill="#ffffff" stroke="#000000" points="182,-107 182,-137 343,-137 343,-107 182,-107"/>
<text text-anchor="start" x="190" y="-125" font-family="Helvetica,sans-Serif" font-size="10.00" fill="#000000">SketchWidget::stackSelection</text>
<text text-anchor="middle" x="262.5" y="-114" font-family="Helvetica,sans-Serif" font-size="10.00" fill="#000000">State</text>
</a>
</g>
</g>
<!-- Node19735&#45;&gt;Node19748 -->
<g id="edge13" class="edge">
<title>Node19735&#45;&gt;Node19748</title>
<path fill="none" stroke="#191970" d="M101.781,-175.4317C129.7948,-166.1184 173.0822,-151.7273 207.6779,-140.2258"/>
<polygon fill="#191970" stroke="#191970" points="208.8002,-143.5411 217.1853,-137.065 206.5918,-136.8986 208.8002,-143.5411"/>
</g>
<!-- Node19741 -->
<g id="node7" class="node">
<title>Node19741</title>
<g id="a_node7"><a xlink:href="../../d0/dbb/classWaitPushUndoStack.html#a2b0322812e333fec2b4d0d12b12e634c" target="_top" xlink:title=" ">
<polygon fill="#ffffff" stroke="#000000" points="561,-52 561,-82 681,-82 681,-52 561,-52"/>
<text text-anchor="start" x="569" y="-70" font-family="Helvetica,sans-Serif" font-size="10.00" fill="#000000">WaitPushUndoStack::</text>
<text text-anchor="middle" x="621" y="-59" font-family="Helvetica,sans-Serif" font-size="10.00" fill="#000000">writeUndo</text>
</a>
</g>
</g>
<!-- Node19740&#45;&gt;Node19741 -->
<g id="edge6" class="edge">
<title>Node19740&#45;&gt;Node19741</title>
<path fill="none" stroke="#191970" d="M523.6712,-67C532.6914,-67 541.9112,-67 550.9067,-67"/>
<polygon fill="#191970" stroke="#191970" points="550.9448,-70.5001 560.9448,-67 550.9448,-63.5001 550.9448,-70.5001"/>
</g>
<!-- Node19742 -->
<g id="node8" class="node">
<title>Node19742</title>
<g id="a_node8"><a xlink:href="../../d8/d6e/classBaseCommand.html#a2d7619b36325bfec9111724045c24b8e" target="_top" xlink:title=" ">
<polygon fill="#ffffff" stroke="#000000" points="727,-114.5 727,-133.5 900,-133.5 900,-114.5 727,-114.5"/>
<text text-anchor="middle" x="813.5" y="-121.5" font-family="Helvetica,sans-Serif" font-size="10.00" fill="#000000">BaseCommand::getDebugString</text>
</a>
</g>
</g>
<!-- Node19741&#45;&gt;Node19742 -->
<g id="edge7" class="edge">
<title>Node19741&#45;&gt;Node19742</title>
<path fill="none" stroke="#191970" d="M654.6817,-82.082C672.8579,-89.7723 695.8458,-98.7873 717,-105 726.2411,-107.714 736.0949,-110.1545 745.8426,-112.3101"/>
<polygon fill="#191970" stroke="#191970" points="745.4233,-115.7991 755.9322,-114.453 746.8776,-108.9518 745.4233,-115.7991"/>
</g>
<!-- Node19745 -->
<g id="node11" class="node">
<title>Node19745</title>
<g id="a_node11"><a xlink:href="../../d8/d6e/classBaseCommand.html#af34b4e2829ad3b7b718499916fd87cbb" target="_top" xlink:title=" ">
<polygon fill="#ffffff" stroke="#000000" points="751.5,-76.5 751.5,-95.5 875.5,-95.5 875.5,-76.5 751.5,-76.5"/>
<text text-anchor="middle" x="813.5" y="-83.5" font-family="Helvetica,sans-Serif" font-size="10.00" fill="#000000">BaseCommand::index</text>
</a>
</g>
</g>
<!-- Node19741&#45;&gt;Node19745 -->
<g id="edge10" class="edge">
<title>Node19741&#45;&gt;Node19745</title>
<path fill="none" stroke="#191970" d="M681.1164,-72.9336C700.0924,-74.8065 721.2605,-76.8958 741.0058,-78.8447"/>
<polygon fill="#191970" stroke="#191970" points="740.8871,-82.3499 751.1825,-79.8492 741.5747,-75.3838 740.8871,-82.3499"/>
</g>
<!-- Node19746 -->
<g id="node12" class="node">
<title>Node19746</title>
<g id="a_node12"><a xlink:href="../../d8/d6e/classBaseCommand.html#ad7114bcb3cf27232facaf0cbcd7e3b58" target="_top" xlink:title=" ">
<polygon fill="#ffffff" stroke="#000000" points="717,-38.5 717,-57.5 910,-57.5 910,-38.5 717,-38.5"/>
<text text-anchor="middle" x="813.5" y="-45.5" font-family="Helvetica,sans-Serif" font-size="10.00" fill="#000000">BaseCommand::subCommandCount</text>
</a>
</g>
</g>
<!-- Node19741&#45;&gt;Node19746 -->
<g id="edge11" class="edge">
<title>Node19741&#45;&gt;Node19746</title>
<path fill="none" stroke="#191970" d="M681.1164,-61.0664C689.4521,-60.2437 698.2108,-59.3792 707.0861,-58.5032"/>
<polygon fill="#191970" stroke="#191970" points="707.532,-61.9763 717.1399,-57.5109 706.8444,-55.0101 707.532,-61.9763"/>
</g>
<!-- Node19747 -->
<g id="node13" class="node">
<title>Node19747</title>
<g id="a_node13"><a xlink:href="../../d8/d6e/classBaseCommand.html#a2717e1d5a234ba427175907b2dc58c23" target="_top" xlink:title=" ">
<polygon fill="#ffffff" stroke="#000000" points="731.5,-.5 731.5,-19.5 895.5,-19.5 895.5,-.5 731.5,-.5"/>
<text text-anchor="middle" x="813.5" y="-7.5" font-family="Helvetica,sans-Serif" font-size="10.00" fill="#000000">BaseCommand::subCommand</text>
</a>
</g>
</g>
<!-- Node19741&#45;&gt;Node19747 -->
<g id="edge12" class="edge">
<title>Node19741&#45;&gt;Node19747</title>
<path fill="none" stroke="#191970" d="M654.6817,-51.918C672.8579,-44.2277 695.8458,-35.2127 717,-29 726.2411,-26.286 736.0949,-23.8455 745.8426,-21.6899"/>
<polygon fill="#191970" stroke="#191970" points="746.8776,-25.0482 755.9322,-19.547 745.4233,-18.2009 746.8776,-25.0482"/>
</g>
<!-- Node19743 -->
<g id="node9" class="node">
<title>Node19743</title>
<g id="a_node9"><a xlink:href="../../d8/d6e/classBaseCommand.html#aca69868889f793ce1399fd0c752cfa05" target="_top" xlink:title=" ">
<polygon fill="#ffffff" stroke="#000000" points="946,-114.5 946,-133.5 1118,-133.5 1118,-114.5 946,-114.5"/>
<text text-anchor="middle" x="1032" y="-121.5" font-family="Helvetica,sans-Serif" font-size="10.00" fill="#000000">BaseCommand::getParamString</text>
</a>
</g>
</g>
<!-- Node19742&#45;&gt;Node19743 -->
<g id="edge8" class="edge">
<title>Node19742&#45;&gt;Node19743</title>
<path fill="none" stroke="#191970" d="M900.1708,-124C911.7822,-124 923.7493,-124 935.5162,-124"/>
<polygon fill="#191970" stroke="#191970" points="935.7913,-127.5001 945.7913,-124 935.7913,-120.5001 935.7913,-127.5001"/>
</g>
<!-- Node19744 -->
<g id="node10" class="node">
<title>Node19744</title>
<g id="a_node10"><a xlink:href="../../d8/d37/classSketchWidget.html#a4319a31c3a619e166f0e7dac865e2ea3" target="_top" xlink:title=" ">
<polygon fill="#ffffff" stroke="#000000" points="1154,-114.5 1154,-133.5 1296,-133.5 1296,-114.5 1154,-114.5"/>
<text text-anchor="middle" x="1225" y="-121.5" font-family="Helvetica,sans-Serif" font-size="10.00" fill="#000000">SketchWidget::viewName</text>
</a>
</g>
</g>
<!-- Node19743&#45;&gt;Node19744 -->
<g id="edge9" class="edge">
<title>Node19743&#45;&gt;Node19744</title>
<path fill="none" stroke="#191970" d="M1118.0578,-124C1126.562,-124 1135.1756,-124 1143.6304,-124"/>
<polygon fill="#191970" stroke="#191970" points="1143.8465,-127.5001 1153.8465,-124 1143.8465,-120.5001 1143.8465,-127.5001"/>
</g>
<!-- Node19748&#45;&gt;Node19737 -->
<g id="edge18" class="edge">
<title>Node19748&#45;&gt;Node19737</title>
<path fill="none" stroke="#191970" d="M312.0131,-137.0252C322.6002,-141.1663 333.4598,-146.1595 343,-152 361.5116,-163.3327 359.9342,-174.6267 379,-185 386.4413,-189.0486 394.783,-192.2644 403.095,-194.8096"/>
<polygon fill="#191970" stroke="#191970" points="402.2113,-198.1966 412.7831,-197.4992 404.0838,-191.4517 402.2113,-198.1966"/>
</g>
<!-- Node19748&#45;&gt;Node19740 -->
<g id="edge19" class="edge">
<title>Node19748&#45;&gt;Node19740</title>
<path fill="none" stroke="#191970" d="M309.4047,-106.9776C330.5965,-100.3269 355.9916,-92.5456 379,-86 387.1481,-83.682 395.8394,-81.3223 404.2792,-79.0899"/>
<polygon fill="#191970" stroke="#191970" points="405.2365,-82.4573 414.0235,-76.538 403.4631,-75.6857 405.2365,-82.4573"/>
</g>
<!-- Node19749 -->
<g id="node15" class="node">
<title>Node19749</title>
<g id="a_node15"><a xlink:href="../../d4/d4f/classItemBase.html#abbe779a3f21ec2a9ed8de3fd2a586b14" target="_top" xlink:title=" ">
<polygon fill="#ffffff" stroke="#000000" points="379,-145 379,-175 525,-175 525,-145 379,-145"/>
<text text-anchor="start" x="387" y="-163" font-family="Helvetica,sans-Serif" font-size="10.00" fill="#000000">ItemBase::extractTopLevel</text>
<text text-anchor="middle" x="452" y="-152" font-family="Helvetica,sans-Serif" font-size="10.00" fill="#000000">ItemBase</text>
</a>
</g>
</g>
<!-- Node19748&#45;&gt;Node19749 -->
<g id="edge14" class="edge">
<title>Node19748&#45;&gt;Node19749</title>
<path fill="none" stroke="#191970" d="M337.3954,-137.0186C347.7441,-139.0938 358.4236,-141.2353 368.9096,-143.3381"/>
<polygon fill="#191970" stroke="#191970" points="368.3939,-146.8043 378.8868,-145.3388 369.7702,-139.9409 368.3939,-146.8043"/>
</g>
<!-- Node19751 -->
<g id="node17" class="node">
<title>Node19751</title>
<g id="a_node17"><a xlink:href="../../d2/d38/classSelectItemCommand.html#a3397bfea7b40cc14dba541e857b044fa" target="_top" xlink:title=" ">
<polygon fill="#ffffff" stroke="#000000" points="389.5,-96 389.5,-126 514.5,-126 514.5,-96 389.5,-96"/>
<text text-anchor="start" x="397.5" y="-114" font-family="Helvetica,sans-Serif" font-size="10.00" fill="#000000">SelectItemCommand::</text>
<text text-anchor="middle" x="452" y="-103" font-family="Helvetica,sans-Serif" font-size="10.00" fill="#000000">addUndo</text>
</a>
</g>
</g>
<!-- Node19748&#45;&gt;Node19751 -->
<g id="edge17" class="edge">
<title>Node19748&#45;&gt;Node19751</title>
<path fill="none" stroke="#191970" d="M343.1398,-117.3191C355.0606,-116.6271 367.2862,-115.9174 379.0388,-115.2352"/>
<polygon fill="#191970" stroke="#191970" points="379.4453,-118.7176 389.2257,-114.6439 379.0396,-111.7294 379.4453,-118.7176"/>
</g>
<!-- Node19750 -->
<g id="node16" class="node">
<title>Node19750</title>
<g id="a_node16"><a xlink:href="../../d4/d4f/classItemBase.html#aee43e2ce5dbdaac292cb6398ce43f766" target="_top" xlink:title=" ">
<polygon fill="#ffffff" stroke="#000000" points="565.5,-172.5 565.5,-191.5 676.5,-191.5 676.5,-172.5 565.5,-172.5"/>
<text text-anchor="middle" x="621" y="-179.5" font-family="Helvetica,sans-Serif" font-size="10.00" fill="#000000">ItemBase::topLevel</text>
</a>
</g>
</g>
<!-- Node19749&#45;&gt;Node19750 -->
<g id="edge15" class="edge">
<title>Node19749&#45;&gt;Node19750</title>
<path fill="none" stroke="#191970" d="M525.1429,-169.5216C535.1405,-170.823 545.354,-172.1526 555.21,-173.4356"/>
<polygon fill="#191970" stroke="#191970" points="554.9593,-176.9324 565.3274,-174.7527 555.863,-169.991 554.9593,-176.9324"/>
</g>
<!-- Node19750&#45;&gt;Node19739 -->
<g id="edge16" class="edge">
<title>Node19750&#45;&gt;Node19739</title>
<path fill="none" stroke="#191970" d="M676.679,-190.6772C697.0969,-193.8593 720.4964,-197.5059 742.1022,-200.8731"/>
<polygon fill="#191970" stroke="#191970" points="741.7939,-204.3672 752.2136,-202.4489 742.8718,-197.4507 741.7939,-204.3672"/>
</g>
</g>
</svg>
        <g id="navigator" transform="translate(0 0)" fill="#404254">
                <rect fill="#f2f5e9" fill-opacity="0.5" stroke="#606060" stroke-width=".5" x="0" y="0" width="60" height="60"/>
                <use id="zoomplus" xlink:href="#zoomPlus" x="17" y="9" onmousedown="handleZoom(evt,'in')"/>
                <use id="zoomminus" xlink:href="#zoomMin" x="42" y="9" onmousedown="handleZoom(evt,'out')"/>
                <use id="reset" xlink:href="#resetDef" x="30" y="36" onmousedown="handleReset()"/>
                <g id="arrowUp" xlink:href="#dirArrow" transform="translate(30 24)" onmousedown="handlePan(0,-1)">
                  <use xlink:href="#rim" fill="#404040">
                        <set attributeName="fill" to="#808080" begin="arrowUp.mouseover" end="arrowUp.mouseout"/>
                  </use>
                  <path fill="none" stroke="white" stroke-width="1.5" d="M0,-3.0v7 M-2.5,-0.5L0,-3.0L2.5,-0.5"/>
                </g>
                <g id="arrowRight" xlink:href="#dirArrow" transform="rotate(90) translate(36 -43)" onmousedown="handlePan(1,0)">
                  <use xlink:href="#rim" fill="#404040">
                        <set attributeName="fill" to="#808080" begin="arrowRight.mouseover" end="arrowRight.mouseout"/>
                  </use>
                  <path fill="none" stroke="white" stroke-width="1.5" d="M0,-3.0v7 M-2.5,-0.5L0,-3.0L2.5,-0.5"/>
                </g>
                <g id="arrowDown" xlink:href="#dirArrow" transform="rotate(180) translate(-30 -48)" onmousedown="handlePan(0,1)">
                  <use xlink:href="#rim" fill="#404040">
                        <set attributeName="fill" to="#808080" begin="arrowDown.mouseover" end="arrowDown.mouseout"/>
                  </use>
                  <path fill="none" stroke="white" stroke-width="1.5" d="M0,-3.0v7 M-2.5,-0.5L0,-3.0L2.5,-0.5"/>
                </g>
                <g id="arrowLeft" xlink:href="#dirArrow" transform="rotate(270) translate(-36 17)" onmousedown="handlePan(-1,0)">
                  <use xlink:href="#rim" fill="#404040">
                        <set attributeName="fill" to="#808080" begin="arrowLeft.mouseover" end="arrowLeft.mouseout"/>
                  </use>
                  <path fill="none" stroke="white" stroke-width="1.5" d="M0,-3.0v7 M-2.5,-0.5L0,-3.0L2.5,-0.5"/>
                </g>
        </g>
        <svg viewBox="0 0 15 15" width="100%" height="30px" preserveAspectRatio="xMaxYMin meet">
         <g id="arrow_out" transform="scale(0.3 0.3)">
          <a xlink:href="classSketchWidget_aed0fab3ec534588a884e8dc5709d4507_cgraph_org.svg" target="_base">
           <rect id="button" ry="5" rx="5" y="6" x="6" height="38" width="38"
                fill="#f2f5e9" fill-opacity="0.5" stroke="#606060" stroke-width="1.0"/>
           <path id="arrow"
             d="M 11.500037,31.436501 C 11.940474,20.09759 22.043105,11.32322 32.158766,21.979434 L 37.068811,17.246167 C 37.068811,17.246167 37.088388,32 37.088388,32 L 22.160133,31.978069 C 22.160133,31.978069 26.997745,27.140456 26.997745,27.140456 C 18.528582,18.264221 13.291696,25.230495 11.500037,31.436501 z"
             style="fill:#404040;"/>
          </a>
         </g>
        </svg>
</svg>
