<?xml version="1.0" encoding="UTF-8" standalone="no"?>
<!DOCTYPE svg PUBLIC "-//W3C//DTD SVG 1.1//EN"
 "http://www.w3.org/Graphics/SVG/1.1/DTD/svg11.dtd">
<!-- Generated by graphviz version 2.40.1 (0)
 -->
<!-- Title: PartsEditorView::recoverTerminalPointsState Pages: 1 -->
<svg width="345pt" height="39pt"
 viewBox="0.00 0.00 345.00 39.00" xmlns="http://www.w3.org/2000/svg" xmlns:xlink="http://www.w3.org/1999/xlink">
<g id="graph0" class="graph" transform="scale(1 1) rotate(0) translate(4 35)">
<title>PartsEditorView::recoverTerminalPointsState</title>
<polygon fill="#ffffff" stroke="transparent" points="-4,4 -4,-35 341,-35 341,4 -4,4"/>
<!-- Node2785 -->
<g id="node1" class="node">
<title>Node2785</title>
<g id="a_node1"><a xlink:title=" ">
<polygon fill="#bfbfbf" stroke="#000000" points="0,-.5 0,-30.5 135,-30.5 135,-.5 0,-.5"/>
<text text-anchor="start" x="8" y="-18.5" font-family="Helvetica,sans-Serif" font-size="10.00" fill="#000000">PartsEditorView::recover</text>
<text text-anchor="middle" x="67.5" y="-7.5" font-family="Helvetica,sans-Serif" font-size="10.00" fill="#000000">TerminalPointsState</text>
</a>
</g>
</g>
<!-- Node2786 -->
<g id="node2" class="node">
<title>Node2786</title>
<g id="a_node2"><a xlink:href="../../d8/d37/classPartsEditorView.html#aa172db6f1736c07ac5a848284be541b2" target="_top" xlink:title=" ">
<polygon fill="#ffffff" stroke="#000000" points="171,-.5 171,-30.5 337,-30.5 337,-.5 171,-.5"/>
<text text-anchor="start" x="179" y="-18.5" font-family="Helvetica,sans-Serif" font-size="10.00" fill="#000000">PartsEditorView::showTerminal</text>
<text text-anchor="middle" x="254" y="-7.5" font-family="Helvetica,sans-Serif" font-size="10.00" fill="#000000">Points</text>
</a>
</g>
</g>
<!-- Node2785&#45;&gt;Node2786 -->
<g id="edge1" class="edge">
<title>Node2785&#45;&gt;Node2786</title>
<path fill="none" stroke="#191970" d="M135.0945,-15.5C143.4112,-15.5 152.0232,-15.5 160.6365,-15.5"/>
<polygon fill="#191970" stroke="#191970" points="160.7307,-19.0001 170.7307,-15.5 160.7306,-12.0001 160.7307,-19.0001"/>
</g>
</g>
</svg>
