<?xml version="1.0" encoding="UTF-8" standalone="no"?>
<!DOCTYPE svg PUBLIC "-//W3C//DTD SVG 1.1//EN"
 "http://www.w3.org/Graphics/SVG/1.1/DTD/svg11.dtd">
<!-- Generated by graphviz version 2.40.1 (0)
 -->
<!-- Title: SketchWidget::setGridSize Pages: 1 -->
<svg width="503pt" height="66pt"
 viewBox="0.00 0.00 503.00 66.00" xmlns="http://www.w3.org/2000/svg" xmlns:xlink="http://www.w3.org/1999/xlink">
<g id="graph0" class="graph" transform="scale(1 1) rotate(0) translate(4 62)">
<title>SketchWidget::setGridSize</title>
<polygon fill="#ffffff" stroke="transparent" points="-4,4 -4,-62 499,-62 499,4 -4,4"/>
<!-- Node20080 -->
<g id="node1" class="node">
<title>Node20080</title>
<g id="a_node1"><a xlink:title=" ">
<polygon fill="#bfbfbf" stroke="#000000" points="0,-19.5 0,-38.5 145,-38.5 145,-19.5 0,-19.5"/>
<text text-anchor="middle" x="72.5" y="-26.5" font-family="Helvetica,sans-Serif" font-size="10.00" fill="#000000">SketchWidget::setGridSize</text>
</a>
</g>
</g>
<!-- Node20081 -->
<g id="node2" class="node">
<title>Node20081</title>
<g id="a_node2"><a xlink:href="../../de/db8/classTextUtils.html#a53e674684a7ceb29e742cae16c5e246b" target="_top" xlink:title=" ">
<polygon fill="#ffffff" stroke="#000000" points="181,-38.5 181,-57.5 325,-57.5 325,-38.5 181,-38.5"/>
<text text-anchor="middle" x="253" y="-45.5" font-family="Helvetica,sans-Serif" font-size="10.00" fill="#000000">TextUtils::convertToInches</text>
</a>
</g>
</g>
<!-- Node20080&#45;&gt;Node20081 -->
<g id="edge1" class="edge">
<title>Node20080&#45;&gt;Node20081</title>
<path fill="none" stroke="#191970" d="M145.136,-36.6459C153.5852,-37.5353 162.2487,-38.4472 170.8144,-39.3489"/>
<polygon fill="#191970" stroke="#191970" points="170.4949,-42.8345 180.8064,-40.4007 171.2277,-35.873 170.4949,-42.8345"/>
</g>
<!-- Node20083 -->
<g id="node4" class="node">
<title>Node20083</title>
<g id="a_node4"><a xlink:href="../../d8/d37/classSketchWidget.html#a4319a31c3a619e166f0e7dac865e2ea3" target="_top" xlink:title=" ">
<polygon fill="#ffffff" stroke="#000000" points="182,-.5 182,-19.5 324,-19.5 324,-.5 182,-.5"/>
<text text-anchor="middle" x="253" y="-7.5" font-family="Helvetica,sans-Serif" font-size="10.00" fill="#000000">SketchWidget::viewName</text>
</a>
</g>
</g>
<!-- Node20080&#45;&gt;Node20083 -->
<g id="edge3" class="edge">
<title>Node20080&#45;&gt;Node20083</title>
<path fill="none" stroke="#191970" d="M145.136,-21.3541C153.9617,-20.4251 163.0213,-19.4714 171.959,-18.5306"/>
<polygon fill="#191970" stroke="#191970" points="172.4008,-22.0036 181.9794,-17.4759 171.6679,-15.042 172.4008,-22.0036"/>
</g>
<!-- Node20082 -->
<g id="node3" class="node">
<title>Node20082</title>
<g id="a_node3"><a xlink:href="../../de/db8/classTextUtils.html#a081f65f326bccb69ddec2919b692c479" target="_top" xlink:title=" ">
<polygon fill="#ffffff" stroke="#000000" points="361,-38.5 361,-57.5 495,-57.5 495,-38.5 361,-38.5"/>
<text text-anchor="middle" x="428" y="-45.5" font-family="Helvetica,sans-Serif" font-size="10.00" fill="#000000">TextUtils::chopNotDigits</text>
</a>
</g>
</g>
<!-- Node20081&#45;&gt;Node20082 -->
<g id="edge2" class="edge">
<title>Node20081&#45;&gt;Node20082</title>
<path fill="none" stroke="#191970" d="M325.1895,-48C333.5566,-48 342.1163,-48 350.5499,-48"/>
<polygon fill="#191970" stroke="#191970" points="350.753,-51.5001 360.753,-48 350.753,-44.5001 350.753,-51.5001"/>
</g>
</g>
</svg>
