<?xml version="1.0" encoding="UTF-8" standalone="no"?>
<!DOCTYPE svg PUBLIC "-//W3C//DTD SVG 1.1//EN"
 "http://www.w3.org/Graphics/SVG/1.1/DTD/svg11.dtd">
<!-- Generated by graphviz version 2.40.1 (0)
 -->
<!-- Title: Bezier::join Pages: 1 -->
<svg width="495pt" height="127pt"
 viewBox="0.00 0.00 495.00 126.50" xmlns="http://www.w3.org/2000/svg" xmlns:xlink="http://www.w3.org/1999/xlink">
<g id="graph0" class="graph" transform="scale(1 1) rotate(0) translate(4 122.5)">
<title>Bezier::join</title>
<polygon fill="#ffffff" stroke="transparent" points="-4,4 -4,-122.5 491,-122.5 491,4 -4,4"/>
<!-- Node2022 -->
<g id="node1" class="node">
<title>Node2022</title>
<g id="a_node1"><a xlink:title=" ">
<polygon fill="#bfbfbf" stroke="#000000" points="416,-22.5 416,-41.5 487,-41.5 487,-22.5 416,-22.5"/>
<text text-anchor="middle" x="451.5" y="-29.5" font-family="Helvetica,sans-Serif" font-size="10.00" fill="#000000">Bezier::join</text>
</a>
</g>
</g>
<!-- Node2023 -->
<g id="node2" class="node">
<title>Node2023</title>
<g id="a_node2"><a xlink:href="../../dc/d3a/classConnectorItem.html#a8e4b14a3e8a143e2d65e7af6df226705" target="_top" xlink:title=" ">
<polygon fill="#ffffff" stroke="#000000" points="198,-44.5 198,-63.5 380,-63.5 380,-44.5 198,-44.5"/>
<text text-anchor="middle" x="289" y="-51.5" font-family="Helvetica,sans-Serif" font-size="10.00" fill="#000000">ConnectorItem::removeBendpoint</text>
</a>
</g>
</g>
<!-- Node2022&#45;&gt;Node2023 -->
<g id="edge1" class="edge">
<title>Node2022&#45;&gt;Node2023</title>
<path fill="none" stroke="#191970" d="M405.6979,-38.2009C391.2739,-40.1537 374.996,-42.3575 359.2763,-44.4857"/>
<polygon fill="#191970" stroke="#191970" points="406.3987,-41.638 415.8387,-36.828 405.4595,-34.7013 406.3987,-41.638"/>
</g>
<!-- Node2026 -->
<g id="node5" class="node">
<title>Node2026</title>
<g id="a_node5"><a xlink:href="../../d8/d37/classSketchWidget.html#a5a254786c2fc214037c6875ebf1beac5" target="_top" xlink:title=" ">
<polygon fill="#ffffff" stroke="#000000" points="215.5,-3.5 215.5,-22.5 362.5,-22.5 362.5,-3.5 215.5,-3.5"/>
<text text-anchor="middle" x="289" y="-10.5" font-family="Helvetica,sans-Serif" font-size="10.00" fill="#000000">SketchWidget::wireJoinSlot</text>
</a>
</g>
</g>
<!-- Node2022&#45;&gt;Node2026 -->
<g id="edge4" class="edge">
<title>Node2022&#45;&gt;Node2026</title>
<path fill="none" stroke="#191970" d="M405.8913,-26.6673C392.4254,-25.0928 377.3304,-23.3279 362.576,-21.6027"/>
<polygon fill="#191970" stroke="#191970" points="405.4999,-30.1453 415.8387,-27.8304 406.3128,-23.1926 405.4999,-30.1453"/>
</g>
<!-- Node2024 -->
<g id="node3" class="node">
<title>Node2024</title>
<g id="a_node3"><a xlink:href="../../dc/d3a/classConnectorItem.html#a2c00e834da13669c4dfd48d8fbb275cb" target="_top" xlink:title=" ">
<polygon fill="#ffffff" stroke="#000000" points="0,-88 0,-118 162,-118 162,-88 0,-88"/>
<text text-anchor="start" x="8" y="-106" font-family="Helvetica,sans-Serif" font-size="10.00" fill="#000000">ConnectorItem::mouseDouble</text>
<text text-anchor="middle" x="81" y="-95" font-family="Helvetica,sans-Serif" font-size="10.00" fill="#000000">ClickEvent</text>
</a>
</g>
</g>
<!-- Node2023&#45;&gt;Node2024 -->
<g id="edge2" class="edge">
<title>Node2023&#45;&gt;Node2024</title>
<path fill="none" stroke="#191970" d="M238.372,-65.9268C210.2061,-72.562 174.8757,-80.8851 144.8304,-87.963"/>
<polygon fill="#191970" stroke="#191970" points="239.4707,-69.2638 248.4017,-63.564 237.8656,-62.4503 239.4707,-69.2638"/>
</g>
<!-- Node2025 -->
<g id="node4" class="node">
<title>Node2025</title>
<g id="a_node4"><a xlink:href="../../dc/d3a/classConnectorItem.html#a01782fe6a1827ada7cecce953d7c6fb4" target="_top" xlink:title=" ">
<polygon fill="#ffffff" stroke="#000000" points="2,-39 2,-69 160,-69 160,-39 2,-39"/>
<text text-anchor="start" x="10" y="-57" font-family="Helvetica,sans-Serif" font-size="10.00" fill="#000000">ConnectorItem::contextMenu</text>
<text text-anchor="middle" x="81" y="-46" font-family="Helvetica,sans-Serif" font-size="10.00" fill="#000000">Event</text>
</a>
</g>
</g>
<!-- Node2023&#45;&gt;Node2025 -->
<g id="edge3" class="edge">
<title>Node2023&#45;&gt;Node2025</title>
<path fill="none" stroke="#191970" d="M187.7259,-54C178.4478,-54 169.1408,-54 160.1005,-54"/>
<polygon fill="#191970" stroke="#191970" points="187.7682,-57.5001 197.7682,-54 187.7681,-50.5001 187.7682,-57.5001"/>
</g>
<!-- Node2027 -->
<g id="node6" class="node">
<title>Node2027</title>
<g id="a_node6"><a xlink:href="../../d8/d37/classSketchWidget.html#af84561a65b317a1c68e853e680891ae3" target="_top" xlink:title=" ">
<polygon fill="#ffffff" stroke="#000000" points="2.5,-.5 2.5,-19.5 159.5,-19.5 159.5,-.5 2.5,-.5"/>
<text text-anchor="middle" x="81" y="-7.5" font-family="Helvetica,sans-Serif" font-size="10.00" fill="#000000">SketchWidget::addBendpoint</text>
</a>
</g>
</g>
<!-- Node2026&#45;&gt;Node2027 -->
<g id="edge5" class="edge">
<title>Node2026&#45;&gt;Node2027</title>
<path fill="none" stroke="#191970" d="M205.1265,-11.7903C190.1678,-11.5745 174.6314,-11.3505 159.8201,-11.1368"/>
<polygon fill="#191970" stroke="#191970" points="205.3248,-15.2934 215.3743,-11.9381 205.4258,-8.2941 205.3248,-15.2934"/>
</g>
</g>
</svg>
