<?xml version="1.0" encoding="UTF-8" standalone="no"?>
<!DOCTYPE svg PUBLIC "-//W3C//DTD SVG 1.1//EN"
 "http://www.w3.org/Graphics/SVG/1.1/DTD/svg11.dtd">
<!-- Generated by graphviz version 2.40.1 (0)
 -->
<!-- Title: ZoomButton Pages: 1 -->
<!--zoomable 463 -->
<svg id="main" version="1.1" xmlns="http://www.w3.org/2000/svg" xmlns:xlink="http://www.w3.org/1999/xlink" xml:space="preserve" onload="init(evt)">
<style type="text/css"><![CDATA[
.edge:hover path { stroke: red; }
.edge:hover polygon { stroke: red; fill: red; }
]]></style>
<script type="text/javascript"><![CDATA[
var edges = document.getElementsByTagName('g');
if (edges && edges.length) {
  for (var i=0;i<edges.length;i++) {
    if (edges[i].id.substr(0,4)=='edge') {
      edges[i].setAttribute('class','edge');
    }
  }
}
]]></script>
        <defs>
                <circle id="rim" cx="0" cy="0" r="7"/>
                <circle id="rim2" cx="0" cy="0" r="3.5"/>
                <g id="zoomPlus">
                        <use xlink:href="#rim" fill="#404040">
                                <set attributeName="fill" to="#808080" begin="zoomplus.mouseover" end="zoomplus.mouseout"/>
                        </use>
                        <path d="M-4,0h8M0,-4v8" fill="none" stroke="white" stroke-width="1.5" pointer-events="none"/>
                </g>
                <g id="zoomMin">
                        <use xlink:href="#rim" fill="#404040">
                                <set attributeName="fill" to="#808080" begin="zoomminus.mouseover" end="zoomminus.mouseout"/>
                        </use>
                        <path d="M-4,0h8" fill="none" stroke="white" stroke-width="1.5" pointer-events="none"/>
                </g>
                <g id="dirArrow">
                        <path fill="none" stroke="white" stroke-width="1.5" d="M0,-3.0v7 M-2.5,-0.5L0,-3.0L2.5,-0.5"/>
                </g>
               <g id="resetDef">
                       <use xlink:href="#rim2" fill="#404040">
                               <set attributeName="fill" to="#808080" begin="reset.mouseover" end="reset.mouseout"/>
                       </use>
               </g>
        </defs>

<script type="text/javascript">
var viewWidth = 640;
var viewHeight = 463;
var sectionId = 'dynsection-1';
</script>
<script xlink:href="../../svgpan.js"/>
<svg id="graph" class="graph">
<g id="viewport">
<title>ZoomButton</title>
<polygon fill="#ffffff" stroke="transparent" points="-4,4 -4,-459 636,-459 636,4 -4,4"/>
<!-- Node2 -->
<g id="node1" class="node">
<title>Node2</title>
<g id="a_node1"><a xlink:title=" ">
<polygon fill="#bfbfbf" stroke="#000000" points="69,-.5 69,-101.5 191,-101.5 191,-.5 69,-.5"/>
<text text-anchor="middle" x="130" y="-89.5" font-family="Helvetica,sans-Serif" font-size="10.00" fill="#000000">ZoomButton</text>
<polyline fill="none" stroke="#000000" points="69,-82.5 191,-82.5 "/>
<text text-anchor="middle" x="130" y="-70.5" font-family="Helvetica,sans-Serif" font-size="10.00" fill="#000000"> </text>
<polyline fill="none" stroke="#000000" points="69,-63.5 191,-63.5 "/>
<text text-anchor="start" x="77" y="-51.5" font-family="Helvetica,sans-Serif" font-size="10.00" fill="#000000">+ ZoomButton()</text>
<text text-anchor="start" x="77" y="-40.5" font-family="Helvetica,sans-Serif" font-size="10.00" fill="#000000"># enterEvent()</text>
<text text-anchor="start" x="77" y="-29.5" font-family="Helvetica,sans-Serif" font-size="10.00" fill="#000000"># leaveEvent()</text>
<text text-anchor="start" x="77" y="-18.5" font-family="Helvetica,sans-Serif" font-size="10.00" fill="#000000"># mousePressEvent()</text>
<text text-anchor="start" x="77" y="-7.5" font-family="Helvetica,sans-Serif" font-size="10.00" fill="#000000"># zoom()</text>
</a>
</g>
</g>
<!-- Node3 -->
<g id="node2" class="node">
<title>Node3</title>
<g id="a_node2"><a xlink:href="../../dd/d4a/classQLabel.html" target="_top" xlink:title=" ">
<polygon fill="#ffffff" stroke="#000000" points="0,-210 0,-267 50,-267 50,-210 0,-210"/>
<text text-anchor="middle" x="25" y="-255" font-family="Helvetica,sans-Serif" font-size="10.00" fill="#000000">QLabel</text>
<polyline fill="none" stroke="#000000" points="0,-248 50,-248 "/>
<text text-anchor="middle" x="25" y="-236" font-family="Helvetica,sans-Serif" font-size="10.00" fill="#000000"> </text>
<polyline fill="none" stroke="#000000" points="0,-229 50,-229 "/>
<text text-anchor="middle" x="25" y="-217" font-family="Helvetica,sans-Serif" font-size="10.00" fill="#000000"> </text>
</a>
</g>
</g>
<!-- Node3&#45;&gt;Node2 -->
<g id="edge1" class="edge">
<title>Node3&#45;&gt;Node2</title>
<path fill="none" stroke="#191970" d="M36.8337,-199.749C44.972,-175.8627 57.0084,-145.1066 72,-120 75.6905,-113.8194 79.9275,-107.6321 84.3953,-101.6401"/>
<polygon fill="none" stroke="#191970" points="33.4161,-198.9355 33.5873,-209.5289 40.0596,-201.1408 33.4161,-198.9355"/>
</g>
<!-- Node4 -->
<g id="node3" class="node">
<title>Node4</title>
<g id="a_node3"><a xlink:title=" ">
<polygon fill="#ffffff" stroke="#bfbfbf" points="61,-397.5 61,-454.5 111,-454.5 111,-397.5 61,-397.5"/>
<text text-anchor="middle" x="86" y="-442.5" font-family="Helvetica,sans-Serif" font-size="10.00" fill="#000000">double</text>
<polyline fill="none" stroke="#bfbfbf" points="61,-435.5 111,-435.5 "/>
<text text-anchor="middle" x="86" y="-423.5" font-family="Helvetica,sans-Serif" font-size="10.00" fill="#000000"> </text>
<polyline fill="none" stroke="#bfbfbf" points="61,-416.5 111,-416.5 "/>
<text text-anchor="middle" x="86" y="-404.5" font-family="Helvetica,sans-Serif" font-size="10.00" fill="#000000"> </text>
</a>
</g>
</g>
<!-- Node4&#45;&gt;Node2 -->
<g id="edge2" class="edge">
<title>Node4&#45;&gt;Node2</title>
<path fill="none" stroke="#404040" d="M84.0388,-397.3693C81.2098,-346.7455 78.0263,-238.3405 95,-149 97.2509,-137.1526 100.7075,-124.8208 104.588,-113.0626"/>
<polygon fill="none" stroke="#404040" points="104.6533,-112.8739 102.8374,-105.8951 108.5809,-101.5348 110.3968,-108.5135 104.6533,-112.8739"/>
<text text-anchor="middle" x="119" y="-236" font-family="Helvetica,sans-Serif" font-size="10.00" fill="#000000"> #m_step</text>
</g>
<!-- Node6 -->
<g id="node5" class="node">
<title>Node6</title>
<g id="a_node5"><a xlink:href="../../d1/dc8/classZoomableGraphicsView.html" target="_top" xlink:title=" ">
<polygon fill="#ffffff" stroke="#000000" points="152,-149.5 152,-327.5 310,-327.5 310,-149.5 152,-149.5"/>
<text text-anchor="middle" x="231" y="-315.5" font-family="Helvetica,sans-Serif" font-size="10.00" fill="#000000">ZoomableGraphicsView</text>
<polyline fill="none" stroke="#000000" points="152,-308.5 310,-308.5 "/>
<text text-anchor="middle" x="231" y="-296.5" font-family="Helvetica,sans-Serif" font-size="10.00" fill="#000000"> </text>
<polyline fill="none" stroke="#000000" points="152,-289.5 310,-289.5 "/>
<text text-anchor="start" x="160" y="-277.5" font-family="Helvetica,sans-Serif" font-size="10.00" fill="#000000">+ ZoomableGraphicsView()</text>
<text text-anchor="start" x="160" y="-266.5" font-family="Helvetica,sans-Serif" font-size="10.00" fill="#000000">+ absoluteZoom()</text>
<text text-anchor="start" x="160" y="-255.5" font-family="Helvetica,sans-Serif" font-size="10.00" fill="#000000">+ currentZoom()</text>
<text text-anchor="start" x="160" y="-244.5" font-family="Helvetica,sans-Serif" font-size="10.00" fill="#000000">+ ensureFixedToBottomRight</text>
<text text-anchor="start" x="160" y="-233.5" font-family="Helvetica,sans-Serif" font-size="10.00" fill="#000000">Items()</text>
<text text-anchor="start" x="160" y="-222.5" font-family="Helvetica,sans-Serif" font-size="10.00" fill="#000000">+ relativeZoom()</text>
<text text-anchor="start" x="160" y="-211.5" font-family="Helvetica,sans-Serif" font-size="10.00" fill="#000000">+ setAcceptWheelEvents()</text>
<text text-anchor="start" x="160" y="-200.5" font-family="Helvetica,sans-Serif" font-size="10.00" fill="#000000">+ setViewFromBelow()</text>
<text text-anchor="start" x="160" y="-189.5" font-family="Helvetica,sans-Serif" font-size="10.00" fill="#000000">+ viewFromBelow()</text>
<text text-anchor="start" x="160" y="-178.5" font-family="Helvetica,sans-Serif" font-size="10.00" fill="#000000">+ setWheelMapping()</text>
<text text-anchor="start" x="160" y="-167.5" font-family="Helvetica,sans-Serif" font-size="10.00" fill="#000000">+ wheelMapping()</text>
<text text-anchor="start" x="160" y="-156.5" font-family="Helvetica,sans-Serif" font-size="10.00" fill="#000000"># wheelEvent()</text>
</a>
</g>
</g>
<!-- Node4&#45;&gt;Node6 -->
<g id="edge7" class="edge">
<title>Node4&#45;&gt;Node6</title>
<path fill="none" stroke="#404040" d="M92.8153,-397.1947C97.5558,-381.1194 105.0249,-361.3111 116,-346 123.3602,-335.732 128.552,-336.3869 138,-328 139.5553,-326.6193 141.1202,-325.2211 142.6917,-323.8085"/>
<polygon fill="none" stroke="#404040" points="142.8652,-323.6508 144.6163,-316.6555 151.747,-315.5814 149.9959,-322.5767 142.8652,-323.6508"/>
<text text-anchor="middle" x="155.5" y="-360" font-family="Helvetica,sans-Serif" font-size="10.00" fill="#000000"> #m_scaleValue</text>
</g>
<!-- Node5 -->
<g id="node4" class="node">
<title>Node5</title>
<g id="a_node4"><a xlink:title=" ">
<polygon fill="#ffffff" stroke="#bfbfbf" points="328,-210 328,-267 396,-267 396,-210 328,-210"/>
<text text-anchor="middle" x="362" y="-255" font-family="Helvetica,sans-Serif" font-size="10.00" fill="#000000">ZoomType</text>
<polyline fill="none" stroke="#bfbfbf" points="328,-248 396,-248 "/>
<text text-anchor="middle" x="362" y="-236" font-family="Helvetica,sans-Serif" font-size="10.00" fill="#000000"> </text>
<polyline fill="none" stroke="#bfbfbf" points="328,-229 396,-229 "/>
<text text-anchor="middle" x="362" y="-217" font-family="Helvetica,sans-Serif" font-size="10.00" fill="#000000"> </text>
</a>
</g>
</g>
<!-- Node5&#45;&gt;Node2 -->
<g id="edge3" class="edge">
<title>Node5&#45;&gt;Node2</title>
<path fill="none" stroke="#404040" d="M353.5717,-209.8674C346.7645,-190.7494 335.5632,-166.0758 319,-149 286.7944,-115.7978 240.9096,-91.6378 202.4163,-75.614"/>
<polygon fill="none" stroke="#404040" points="202.3802,-75.5995 195.3189,-77.0615 191.2534,-71.1057 198.3147,-69.6436 202.3802,-75.5995"/>
<text text-anchor="middle" x="321.5" y="-123" font-family="Helvetica,sans-Serif" font-size="10.00" fill="#000000"> #m_type</text>
</g>
<!-- Node6&#45;&gt;Node2 -->
<g id="edge4" class="edge">
<title>Node6&#45;&gt;Node2</title>
<path fill="none" stroke="#404040" d="M183.0142,-149.4175C176.2337,-136.8299 169.3926,-124.1298 162.9814,-112.2279"/>
<polygon fill="none" stroke="#404040" points="162.9195,-112.1129 156.5525,-108.7275 157.2286,-101.5482 163.5957,-104.9336 162.9195,-112.1129"/>
<text text-anchor="middle" x="200.5" y="-123" font-family="Helvetica,sans-Serif" font-size="10.00" fill="#000000"> #m_owner</text>
</g>
<!-- Node7 -->
<g id="node6" class="node">
<title>Node7</title>
<g id="a_node6"><a xlink:href="../../d4/dca/classQGraphicsView.html" target="_top" xlink:title=" ">
<polygon fill="#ffffff" stroke="#000000" points="129.5,-397.5 129.5,-454.5 220.5,-454.5 220.5,-397.5 129.5,-397.5"/>
<text text-anchor="middle" x="175" y="-442.5" font-family="Helvetica,sans-Serif" font-size="10.00" fill="#000000">QGraphicsView</text>
<polyline fill="none" stroke="#000000" points="129.5,-435.5 220.5,-435.5 "/>
<text text-anchor="middle" x="175" y="-423.5" font-family="Helvetica,sans-Serif" font-size="10.00" fill="#000000"> </text>
<polyline fill="none" stroke="#000000" points="129.5,-416.5 220.5,-416.5 "/>
<text text-anchor="middle" x="175" y="-404.5" font-family="Helvetica,sans-Serif" font-size="10.00" fill="#000000"> </text>
</a>
</g>
</g>
<!-- Node7&#45;&gt;Node6 -->
<g id="edge5" class="edge">
<title>Node7&#45;&gt;Node6</title>
<path fill="none" stroke="#191970" d="M195.2746,-388.2657C196.6276,-385.1708 197.8907,-382.0575 199,-379 204.9297,-362.6556 209.9983,-344.8303 214.2363,-327.5328"/>
<polygon fill="none" stroke="#191970" points="192.06,-386.878 191.01,-397.4207 198.4053,-389.8338 192.06,-386.878"/>
</g>
<!-- Node8 -->
<g id="node7" class="node">
<title>Node8</title>
<g id="a_node7"><a xlink:title=" ">
<polygon fill="#ffffff" stroke="#bfbfbf" points="238.5,-397.5 238.5,-454.5 357.5,-454.5 357.5,-397.5 238.5,-397.5"/>
<text text-anchor="middle" x="298" y="-442.5" font-family="Helvetica,sans-Serif" font-size="10.00" fill="#000000">static WheelMapping</text>
<polyline fill="none" stroke="#bfbfbf" points="238.5,-435.5 357.5,-435.5 "/>
<text text-anchor="middle" x="298" y="-423.5" font-family="Helvetica,sans-Serif" font-size="10.00" fill="#000000"> </text>
<polyline fill="none" stroke="#bfbfbf" points="238.5,-416.5 357.5,-416.5 "/>
<text text-anchor="middle" x="298" y="-404.5" font-family="Helvetica,sans-Serif" font-size="10.00" fill="#000000"> </text>
</a>
</g>
</g>
<!-- Node8&#45;&gt;Node6 -->
<g id="edge6" class="edge">
<title>Node8&#45;&gt;Node6</title>
<path fill="none" stroke="#404040" d="M279.2749,-397.302C275.8915,-391.3975 272.6137,-385.1133 270,-379 264.6506,-366.488 259.8281,-353.0358 255.5472,-339.5899"/>
<polygon fill="none" stroke="#404040" points="255.449,-339.2701 249.8634,-334.7093 251.925,-327.7992 257.5106,-332.3599 255.449,-339.2701"/>
<text text-anchor="middle" x="319" y="-360" font-family="Helvetica,sans-Serif" font-size="10.00" fill="#000000"> #m_wheelMapping</text>
</g>
<!-- Node9 -->
<g id="node8" class="node">
<title>Node9</title>
<g id="a_node8"><a xlink:title=" ">
<polygon fill="#ffffff" stroke="#bfbfbf" points="375.5,-397.5 375.5,-454.5 404.5,-454.5 404.5,-397.5 375.5,-397.5"/>
<text text-anchor="middle" x="390" y="-442.5" font-family="Helvetica,sans-Serif" font-size="10.00" fill="#000000">int</text>
<polyline fill="none" stroke="#bfbfbf" points="375.5,-435.5 404.5,-435.5 "/>
<text text-anchor="middle" x="390" y="-423.5" font-family="Helvetica,sans-Serif" font-size="10.00" fill="#000000"> </text>
<polyline fill="none" stroke="#bfbfbf" points="375.5,-416.5 404.5,-416.5 "/>
<text text-anchor="middle" x="390" y="-404.5" font-family="Helvetica,sans-Serif" font-size="10.00" fill="#000000"> </text>
</a>
</g>
</g>
<!-- Node9&#45;&gt;Node6 -->
<g id="edge8" class="edge">
<title>Node9&#45;&gt;Node6</title>
<path fill="none" stroke="#404040" d="M388.5228,-397.3405C386.2347,-380.5124 380.7732,-359.8894 368,-346 354.381,-331.1909 342.1948,-337.9884 320.6262,-327.8193"/>
<polygon fill="none" stroke="#404040" points="320.4604,-327.7255 313.2685,-328.2511 310.0172,-321.8145 317.2091,-321.2889 320.4604,-327.7255"/>
<text text-anchor="middle" x="435" y="-371" font-family="Helvetica,sans-Serif" font-size="10.00" fill="#000000"> #m_maxScaleValue</text>
<text text-anchor="middle" x="435" y="-360" font-family="Helvetica,sans-Serif" font-size="10.00" fill="#000000">#m_minScaleValue</text>
<text text-anchor="middle" x="435" y="-349" font-family="Helvetica,sans-Serif" font-size="10.00" fill="#000000">+MaxScaleValue</text>
</g>
<!-- Node10 -->
<g id="node9" class="node">
<title>Node10</title>
<g id="a_node9"><a xlink:title=" ">
<polygon fill="#ffffff" stroke="#bfbfbf" points="496,-397.5 496,-454.5 534,-454.5 534,-397.5 496,-397.5"/>
<text text-anchor="middle" x="515" y="-442.5" font-family="Helvetica,sans-Serif" font-size="10.00" fill="#000000">bool</text>
<polyline fill="none" stroke="#bfbfbf" points="496,-435.5 534,-435.5 "/>
<text text-anchor="middle" x="515" y="-423.5" font-family="Helvetica,sans-Serif" font-size="10.00" fill="#000000"> </text>
<polyline fill="none" stroke="#bfbfbf" points="496,-416.5 534,-416.5 "/>
<text text-anchor="middle" x="515" y="-404.5" font-family="Helvetica,sans-Serif" font-size="10.00" fill="#000000"> </text>
</a>
</g>
</g>
<!-- Node10&#45;&gt;Node6 -->
<g id="edge9" class="edge">
<title>Node10&#45;&gt;Node6</title>
<path fill="none" stroke="#404040" d="M513.6548,-397.2299C511.2256,-379.697 505.0829,-358.3573 490,-346 462.7523,-323.6762 369.6667,-341.3205 321.2859,-327.4262"/>
<polygon fill="none" stroke="#404040" points="321.2425,-327.4099 314.2163,-329.0324 310.0162,-323.1707 317.0424,-321.5482 321.2425,-327.4099"/>
<text text-anchor="middle" x="570.5" y="-365.5" font-family="Helvetica,sans-Serif" font-size="10.00" fill="#000000"> #m_acceptWheelEvents</text>
<text text-anchor="middle" x="570.5" y="-354.5" font-family="Helvetica,sans-Serif" font-size="10.00" fill="#000000">#m_viewFromBelow</text>
</g>
</g>
</svg>
        <g id="navigator" transform="translate(0 0)" fill="#404254">
                <rect fill="#f2f5e9" fill-opacity="0.5" stroke="#606060" stroke-width=".5" x="0" y="0" width="60" height="60"/>
                <use id="zoomplus" xlink:href="#zoomPlus" x="17" y="9" onmousedown="handleZoom(evt,'in')"/>
                <use id="zoomminus" xlink:href="#zoomMin" x="42" y="9" onmousedown="handleZoom(evt,'out')"/>
                <use id="reset" xlink:href="#resetDef" x="30" y="36" onmousedown="handleReset()"/>
                <g id="arrowUp" xlink:href="#dirArrow" transform="translate(30 24)" onmousedown="handlePan(0,-1)">
                  <use xlink:href="#rim" fill="#404040">
                        <set attributeName="fill" to="#808080" begin="arrowUp.mouseover" end="arrowUp.mouseout"/>
                  </use>
                  <path fill="none" stroke="white" stroke-width="1.5" d="M0,-3.0v7 M-2.5,-0.5L0,-3.0L2.5,-0.5"/>
                </g>
                <g id="arrowRight" xlink:href="#dirArrow" transform="rotate(90) translate(36 -43)" onmousedown="handlePan(1,0)">
                  <use xlink:href="#rim" fill="#404040">
                        <set attributeName="fill" to="#808080" begin="arrowRight.mouseover" end="arrowRight.mouseout"/>
                  </use>
                  <path fill="none" stroke="white" stroke-width="1.5" d="M0,-3.0v7 M-2.5,-0.5L0,-3.0L2.5,-0.5"/>
                </g>
                <g id="arrowDown" xlink:href="#dirArrow" transform="rotate(180) translate(-30 -48)" onmousedown="handlePan(0,1)">
                  <use xlink:href="#rim" fill="#404040">
                        <set attributeName="fill" to="#808080" begin="arrowDown.mouseover" end="arrowDown.mouseout"/>
                  </use>
                  <path fill="none" stroke="white" stroke-width="1.5" d="M0,-3.0v7 M-2.5,-0.5L0,-3.0L2.5,-0.5"/>
                </g>
                <g id="arrowLeft" xlink:href="#dirArrow" transform="rotate(270) translate(-36 17)" onmousedown="handlePan(-1,0)">
                  <use xlink:href="#rim" fill="#404040">
                        <set attributeName="fill" to="#808080" begin="arrowLeft.mouseover" end="arrowLeft.mouseout"/>
                  </use>
                  <path fill="none" stroke="white" stroke-width="1.5" d="M0,-3.0v7 M-2.5,-0.5L0,-3.0L2.5,-0.5"/>
                </g>
        </g>
        <svg viewBox="0 0 15 15" width="100%" height="30px" preserveAspectRatio="xMaxYMin meet">
         <g id="arrow_out" transform="scale(0.3 0.3)">
          <a xlink:href="classZoomButton__coll__graph_org.svg" target="_base">
           <rect id="button" ry="5" rx="5" y="6" x="6" height="38" width="38"
                fill="#f2f5e9" fill-opacity="0.5" stroke="#606060" stroke-width="1.0"/>
           <path id="arrow"
             d="M 11.500037,31.436501 C 11.940474,20.09759 22.043105,11.32322 32.158766,21.979434 L 37.068811,17.246167 C 37.068811,17.246167 37.088388,32 37.088388,32 L 22.160133,31.978069 C 22.160133,31.978069 26.997745,27.140456 26.997745,27.140456 C 18.528582,18.264221 13.291696,25.230495 11.500037,31.436501 z"
             style="fill:#404040;"/>
          </a>
         </g>
        </svg>
</svg>
