<?xml version="1.0" encoding="UTF-8" standalone="no"?>
<!DOCTYPE svg PUBLIC "-//W3C//DTD SVG 1.1//EN"
 "http://www.w3.org/Graphics/SVG/1.1/DTD/svg11.dtd">
<!-- Generated by graphviz version 2.40.1 (0)
 -->
<!-- Title: Panelizer::placeBestFit Pages: 1 -->
<!--zoomable 512 -->
<svg id="main" version="1.1" xmlns="http://www.w3.org/2000/svg" xmlns:xlink="http://www.w3.org/1999/xlink" xml:space="preserve" onload="init(evt)">
<style type="text/css"><![CDATA[
.edge:hover path { stroke: red; }
.edge:hover polygon { stroke: red; fill: red; }
]]></style>
<script type="text/javascript"><![CDATA[
var edges = document.getElementsByTagName('g');
if (edges && edges.length) {
  for (var i=0;i<edges.length;i++) {
    if (edges[i].id.substr(0,4)=='edge') {
      edges[i].setAttribute('class','edge');
    }
  }
}
]]></script>
        <defs>
                <circle id="rim" cx="0" cy="0" r="7"/>
                <circle id="rim2" cx="0" cy="0" r="3.5"/>
                <g id="zoomPlus">
                        <use xlink:href="#rim" fill="#404040">
                                <set attributeName="fill" to="#808080" begin="zoomplus.mouseover" end="zoomplus.mouseout"/>
                        </use>
                        <path d="M-4,0h8M0,-4v8" fill="none" stroke="white" stroke-width="1.5" pointer-events="none"/>
                </g>
                <g id="zoomMin">
                        <use xlink:href="#rim" fill="#404040">
                                <set attributeName="fill" to="#808080" begin="zoomminus.mouseover" end="zoomminus.mouseout"/>
                        </use>
                        <path d="M-4,0h8" fill="none" stroke="white" stroke-width="1.5" pointer-events="none"/>
                </g>
                <g id="dirArrow">
                        <path fill="none" stroke="white" stroke-width="1.5" d="M0,-3.0v7 M-2.5,-0.5L0,-3.0L2.5,-0.5"/>
                </g>
               <g id="resetDef">
                       <use xlink:href="#rim2" fill="#404040">
                               <set attributeName="fill" to="#808080" begin="reset.mouseover" end="reset.mouseout"/>
                       </use>
               </g>
        </defs>

<script type="text/javascript">
var viewWidth = 528;
var viewHeight = 512;
var sectionId = 'dynsection-37';
</script>
<script xlink:href="../../svgpan.js"/>
<svg id="graph" class="graph">
<g id="viewport">
<title>Panelizer::placeBestFit</title>
<polygon fill="#ffffff" stroke="transparent" points="-4,4 -4,-507.5617 524,-507.5617 524,4 -4,4"/>
<!-- Node6057 -->
<g id="node1" class="node">
<title>Node6057</title>
<g id="a_node1"><a xlink:title=" ">
<polygon fill="#bfbfbf" stroke="#000000" points="0,-351.0617 0,-370.0617 127,-370.0617 127,-351.0617 0,-351.0617"/>
<text text-anchor="middle" x="63.5" y="-358.0617" font-family="Helvetica,sans-Serif" font-size="10.00" fill="#000000">Panelizer::placeBestFit</text>
</a>
</g>
</g>
<!-- Node6058 -->
<g id="node2" class="node">
<title>Node6058</title>
<g id="a_node2"><a xlink:href="../../da/d99/panelizer_8cpp.html#a182df8be4a54f1ee420ad6d75270eedb" target="_top" xlink:title=" ">
<polygon fill="#ffffff" stroke="#000000" points="163,-408.0617 163,-427.0617 240,-427.0617 240,-408.0617 163,-408.0617"/>
<text text-anchor="middle" x="201.5" y="-415.0617" font-family="Helvetica,sans-Serif" font-size="10.00" fill="#000000">allObstacles</text>
</a>
</g>
</g>
<!-- Node6057&#45;&gt;Node6058 -->
<g id="edge1" class="edge">
<title>Node6057&#45;&gt;Node6058</title>
<path fill="none" stroke="#191970" d="M86.5981,-370.1022C109.0869,-379.3911 143.4814,-393.5975 168.7813,-404.0475"/>
<polygon fill="#191970" stroke="#191970" points="167.7477,-407.4073 178.3265,-407.9901 170.4201,-400.9375 167.7477,-407.4073"/>
</g>
<!-- Node6059 -->
<g id="node3" class="node">
<title>Node6059</title>
<g id="a_node3"><a xlink:href="../../da/dce/tile_8h.html#a89d98699304ed2074013f1d71d48075a" target="_top" xlink:title=" ">
<polygon fill="#ffffff" stroke="#000000" points="285,-484.0617 285,-503.0617 350,-503.0617 350,-484.0617 285,-484.0617"/>
<text text-anchor="middle" x="317.5" y="-491.0617" font-family="Helvetica,sans-Serif" font-size="10.00" fill="#000000">TiGetType</text>
</a>
</g>
</g>
<!-- Node6057&#45;&gt;Node6059 -->
<g id="edge7" class="edge">
<title>Node6057&#45;&gt;Node6059</title>
<path fill="none" stroke="#191970" d="M68.6567,-370.3192C81.2733,-393.091 116.1235,-449.6915 163,-474.5617 197.4668,-492.848 242.1972,-496.5517 274.6522,-496.3049"/>
<polygon fill="#191970" stroke="#191970" points="274.8031,-499.8027 284.7296,-496.0994 274.6603,-492.8041 274.8031,-499.8027"/>
</g>
<!-- Node6060 -->
<g id="node4" class="node">
<title>Node6060</title>
<g id="a_node4"><a xlink:href="../../da/d99/panelizer_8cpp.html#a505071e1e3b562c6d3826ac37ee3f3ae" target="_top" xlink:title=" ">
<polygon fill="#ffffff" stroke="#000000" points="170,-446.0617 170,-465.0617 233,-465.0617 233,-446.0617 170,-446.0617"/>
<text text-anchor="middle" x="201.5" y="-453.0617" font-family="Helvetica,sans-Serif" font-size="10.00" fill="#000000">allSpaces</text>
</a>
</g>
</g>
<!-- Node6057&#45;&gt;Node6060 -->
<g id="edge3" class="edge">
<title>Node6057&#45;&gt;Node6060</title>
<path fill="none" stroke="#191970" d="M74.6198,-370.211C92.4816,-385.438 129.015,-415.4738 163,-436.5617 165.6383,-438.1988 168.4373,-439.8062 171.275,-441.3502"/>
<polygon fill="#191970" stroke="#191970" points="169.8304,-444.5433 180.3211,-446.025 173.0441,-438.3246 169.8304,-444.5433"/>
</g>
<!-- Node6061 -->
<g id="node5" class="node">
<title>Node6061</title>
<g id="a_node5"><a xlink:href="../../da/dce/tile_8h.html#a3fd8545e72ebeb8fd1b6a6d2dd3d3b77" target="_top" xlink:title=" ">
<polygon fill="#ffffff" stroke="#000000" points="404,-408.0617 404,-427.0617 433,-427.0617 433,-408.0617 404,-408.0617"/>
<text text-anchor="middle" x="418.5" y="-415.0617" font-family="Helvetica,sans-Serif" font-size="10.00" fill="#000000">BL</text>
</a>
</g>
</g>
<!-- Node6057&#45;&gt;Node6061 -->
<g id="edge5" class="edge">
<title>Node6057&#45;&gt;Node6061</title>
<path fill="none" stroke="#191970" d="M122.919,-370.1022C201.9337,-382.7891 338.0818,-404.6495 393.7205,-413.583"/>
<polygon fill="#191970" stroke="#191970" points="393.3056,-417.0612 403.734,-415.1908 394.4153,-410.1497 393.3056,-417.0612"/>
</g>
<!-- Node6062 -->
<g id="node6" class="node">
<title>Node6062</title>
<g id="a_node6"><a xlink:href="../../d4/d08/misc_8h.html#ae7cc352fa1dc81e57ff53ebbc762f27d" target="_top" xlink:title=" ">
<polygon fill="#ffffff" stroke="#000000" points="179.5,-332.0617 179.5,-351.0617 223.5,-351.0617 223.5,-332.0617 179.5,-332.0617"/>
<text text-anchor="middle" x="201.5" y="-339.0617" font-family="Helvetica,sans-Serif" font-size="10.00" fill="#000000">qMax</text>
</a>
</g>
</g>
<!-- Node6057&#45;&gt;Node6062 -->
<g id="edge6" class="edge">
<title>Node6057&#45;&gt;Node6062</title>
<path fill="none" stroke="#191970" d="M127.2487,-351.7847C141.8144,-349.7793 156.6941,-347.7306 169.2712,-345.999"/>
<polygon fill="#191970" stroke="#191970" points="169.8078,-349.4583 179.2369,-344.6269 168.8529,-342.5237 169.8078,-349.4583"/>
</g>
<!-- Node6063 -->
<g id="node7" class="node">
<title>Node6063</title>
<g id="a_node7"><a xlink:href="../../d7/d8d/search2_8cpp.html#a8d3676cefae8fe3f354bdbc7f7e0fcc7" target="_top" xlink:title=" ">
<polygon fill="#ffffff" stroke="#000000" points="172.5,-237.0617 172.5,-256.0617 230.5,-256.0617 230.5,-237.0617 172.5,-237.0617"/>
<text text-anchor="middle" x="201.5" y="-244.0617" font-family="Helvetica,sans-Serif" font-size="10.00" fill="#000000">TiSrArea</text>
</a>
</g>
</g>
<!-- Node6057&#45;&gt;Node6063 -->
<g id="edge8" class="edge">
<title>Node6057&#45;&gt;Node6063</title>
<path fill="none" stroke="#191970" d="M75.2658,-350.8421C98.9955,-331.2394 152.8035,-286.7893 181.9169,-262.739"/>
<polygon fill="#191970" stroke="#191970" points="184.2834,-265.3239 189.764,-256.2567 179.8252,-259.9272 184.2834,-265.3239"/>
</g>
<!-- Node6070 -->
<g id="node14" class="node">
<title>Node6070</title>
<g id="a_node14"><a xlink:href="../../da/dce/tile_8h.html#af6d9b1552f9bcf833e7f219992f27027" target="_top" xlink:title=" ">
<polygon fill="#ffffff" stroke="#000000" points="396,-66.0617 396,-85.0617 441,-85.0617 441,-66.0617 396,-66.0617"/>
<text text-anchor="middle" x="418.5" y="-73.0617" font-family="Helvetica,sans-Serif" font-size="10.00" fill="#000000">YMAX</text>
</a>
</g>
</g>
<!-- Node6057&#45;&gt;Node6070 -->
<g id="edge36" class="edge">
<title>Node6057&#45;&gt;Node6070</title>
<path fill="none" stroke="#191970" d="M68.9323,-350.8544C82.4142,-327.4027 119.4795,-266.7121 163,-227.5617 234.1964,-163.5147 336.4035,-112.4618 387.2707,-89.2111"/>
<polygon fill="#191970" stroke="#191970" points="388.7723,-92.3733 396.4439,-85.066 385.8898,-85.9943 388.7723,-92.3733"/>
</g>
<!-- Node6073 -->
<g id="node17" class="node">
<title>Node6073</title>
<g id="a_node17"><a xlink:href="../../d7/d2f/tile_8cpp.html#aa696da8fa06d284454c1a4e8a150b8f3" target="_top" xlink:title=" ">
<polygon fill="#ffffff" stroke="#000000" points="288.5,-66.0617 288.5,-85.0617 346.5,-85.0617 346.5,-66.0617 288.5,-66.0617"/>
<text text-anchor="middle" x="317.5" y="-73.0617" font-family="Helvetica,sans-Serif" font-size="10.00" fill="#000000">TiToRect</text>
</a>
</g>
</g>
<!-- Node6057&#45;&gt;Node6073 -->
<g id="edge31" class="edge">
<title>Node6057&#45;&gt;Node6073</title>
<path fill="none" stroke="#191970" d="M64.6123,-350.6597C69.2262,-314.334 90.1732,-187.1091 163,-121.5617 194.8592,-92.887 243.8969,-82.0581 278.1553,-77.9852"/>
<polygon fill="#191970" stroke="#191970" points="278.6961,-81.4478 288.2774,-76.9258 277.9674,-74.4859 278.6961,-81.4478"/>
</g>
<!-- Node6058&#45;&gt;Node6059 -->
<g id="edge2" class="edge">
<title>Node6058&#45;&gt;Node6059</title>
<path fill="none" stroke="#191970" d="M223.6899,-427.178C229.1935,-429.9197 234.9562,-433.1097 240,-436.5617 257.9116,-448.8208 258.5018,-456.7194 276,-469.5617 280.3341,-472.7426 285.1231,-475.8463 289.8616,-478.7092"/>
<polygon fill="#191970" stroke="#191970" points="288.3712,-481.8906 298.7786,-483.8748 291.8801,-475.8335 288.3712,-481.8906"/>
</g>
<!-- Node6060&#45;&gt;Node6059 -->
<g id="edge4" class="edge">
<title>Node6060&#45;&gt;Node6059</title>
<path fill="none" stroke="#191970" d="M230.7717,-465.1507C245.1967,-469.8762 262.7934,-475.6406 278.3573,-480.7391"/>
<polygon fill="#191970" stroke="#191970" points="277.645,-484.1887 288.2377,-483.9758 279.8242,-477.5366 277.645,-484.1887"/>
</g>
<!-- Node6064 -->
<g id="node8" class="node">
<title>Node6064</title>
<g id="a_node8"><a xlink:href="../../d7/d2f/tile_8cpp.html#a3b13b17e13c8aece74e59b3778750a7b" target="_top" xlink:title=" ">
<polygon fill="#ffffff" stroke="#000000" points="286,-256.0617 286,-275.0617 349,-275.0617 349,-256.0617 286,-256.0617"/>
<text text-anchor="middle" x="317.5" y="-263.0617" font-family="Helvetica,sans-Serif" font-size="10.00" fill="#000000">gotoPoint</text>
</a>
</g>
</g>
<!-- Node6063&#45;&gt;Node6064 -->
<g id="edge9" class="edge">
<title>Node6063&#45;&gt;Node6064</title>
<path fill="none" stroke="#191970" d="M230.7717,-251.3562C244.4049,-253.5893 260.8712,-256.2863 275.7769,-258.7278"/>
<polygon fill="#191970" stroke="#191970" points="275.3586,-262.2058 285.7929,-260.3683 276.4902,-255.2979 275.3586,-262.2058"/>
</g>
<!-- Node6067 -->
<g id="node11" class="node">
<title>Node6067</title>
<g id="a_node11"><a xlink:href="../../da/dce/tile_8h.html#a52b4c95b89a7d1a998cb5ea9db6a3def" target="_top" xlink:title=" ">
<polygon fill="#ffffff" stroke="#000000" points="395,-180.0617 395,-199.0617 442,-199.0617 442,-180.0617 395,-180.0617"/>
<text text-anchor="middle" x="418.5" y="-187.0617" font-family="Helvetica,sans-Serif" font-size="10.00" fill="#000000">RIGHT</text>
</a>
</g>
</g>
<!-- Node6063&#45;&gt;Node6067 -->
<g id="edge22" class="edge">
<title>Node6063&#45;&gt;Node6067</title>
<path fill="none" stroke="#191970" d="M230.7656,-238.8745C270.8437,-228.347 342.6361,-209.4891 384.876,-198.3938"/>
<polygon fill="#191970" stroke="#191970" points="385.9046,-201.7425 394.6873,-195.8167 384.1262,-194.9721 385.9046,-201.7425"/>
</g>
<!-- Node6068 -->
<g id="node12" class="node">
<title>Node6068</title>
<g id="a_node12"><a xlink:href="../../da/dce/tile_8h.html#ad5887af538fa75ba5befb2a55f3891f6" target="_top" xlink:title=" ">
<polygon fill="#ffffff" stroke="#000000" points="484.5,-341.0617 484.5,-360.0617 513.5,-360.0617 513.5,-341.0617 484.5,-341.0617"/>
<text text-anchor="middle" x="499" y="-348.0617" font-family="Helvetica,sans-Serif" font-size="10.00" fill="#000000">TR</text>
</a>
</g>
</g>
<!-- Node6063&#45;&gt;Node6068 -->
<g id="edge29" class="edge">
<title>Node6063&#45;&gt;Node6068</title>
<path fill="none" stroke="#191970" d="M207.3017,-256.2092C227.8288,-289.2706 300.8694,-398.0738 395,-436.5617 414.3351,-444.4674 423.5961,-446.4431 442,-436.5617 468.2058,-422.4915 484.3974,-390.4902 492.5402,-369.74"/>
<polygon fill="#191970" stroke="#191970" points="495.9293,-370.6629 496.0751,-360.069 489.3547,-368.2597 495.9293,-370.6629"/>
</g>
<!-- Node6071 -->
<g id="node15" class="node">
<title>Node6071</title>
<g id="a_node15"><a xlink:href="../../da/dce/tile_8h.html#a9ba4203204abc4c4fb4c8bd6cd3662c3" target="_top" xlink:title=" ">
<polygon fill="#ffffff" stroke="#000000" points="478,-66.0617 478,-85.0617 520,-85.0617 520,-66.0617 478,-66.0617"/>
<text text-anchor="middle" x="499" y="-73.0617" font-family="Helvetica,sans-Serif" font-size="10.00" fill="#000000">YMIN</text>
</a>
</g>
</g>
<!-- Node6063&#45;&gt;Node6071 -->
<g id="edge30" class="edge">
<title>Node6063&#45;&gt;Node6071</title>
<path fill="none" stroke="#191970" d="M202.5058,-236.7193C206.1928,-205.7104 221.726,-109.0006 276,-56.5617 330.73,-3.6823 372.1939,15.7485 442,-14.5617 461.849,-23.1803 477.9329,-42.4931 487.8923,-57.0953"/>
<polygon fill="#191970" stroke="#191970" points="485.1738,-59.3385 493.5307,-65.8511 491.0591,-55.5486 485.1738,-59.3385"/>
</g>
<!-- Node6072 -->
<g id="node16" class="node">
<title>Node6072</title>
<g id="a_node16"><a xlink:href="../../d7/d8d/search2_8cpp.html#a0ab70d6a7faffc1117669aa1eca0929e" target="_top" xlink:title=" ">
<polygon fill="#ffffff" stroke="#000000" points="276,-173.0617 276,-192.0617 359,-192.0617 359,-173.0617 276,-173.0617"/>
<text text-anchor="middle" x="317.5" y="-180.0617" font-family="Helvetica,sans-Serif" font-size="10.00" fill="#000000">tiSrAreaEnum</text>
</a>
</g>
</g>
<!-- Node6063&#45;&gt;Node6072 -->
<g id="edge23" class="edge">
<title>Node6063&#45;&gt;Node6072</title>
<path fill="none" stroke="#191970" d="M218.8664,-236.9803C238.0012,-226.4231 268.9937,-209.3238 291.1303,-197.1105"/>
<polygon fill="#191970" stroke="#191970" points="292.9499,-200.104 300.0149,-192.2087 289.5683,-193.975 292.9499,-200.104"/>
</g>
<!-- Node6064&#45;&gt;Node6061 -->
<g id="edge10" class="edge">
<title>Node6064&#45;&gt;Node6061</title>
<path fill="none" stroke="#191970" d="M322.4321,-275.3632C333.7674,-297.4747 363.1591,-352.5057 395,-393.5617 396.8092,-395.8946 398.8219,-398.2433 400.8868,-400.5104"/>
<polygon fill="#191970" stroke="#191970" points="398.4246,-402.9993 407.8886,-407.7622 403.4605,-398.1371 398.4246,-402.9993"/>
</g>
<!-- Node6065 -->
<g id="node9" class="node">
<title>Node6065</title>
<g id="a_node9"><a xlink:href="../../da/dce/tile_8h.html#ac129d7f1975b2dc92b7e1200ca0df246" target="_top" xlink:title=" ">
<polygon fill="#ffffff" stroke="#000000" points="404,-218.0617 404,-237.0617 433,-237.0617 433,-218.0617 404,-218.0617"/>
<text text-anchor="middle" x="418.5" y="-225.0617" font-family="Helvetica,sans-Serif" font-size="10.00" fill="#000000">LB</text>
</a>
</g>
</g>
<!-- Node6064&#45;&gt;Node6065 -->
<g id="edge11" class="edge">
<title>Node6064&#45;&gt;Node6065</title>
<path fill="none" stroke="#191970" d="M342.9866,-255.9727C358.806,-250.0209 379.0066,-242.4206 394.5333,-236.5789"/>
<polygon fill="#191970" stroke="#191970" points="395.8417,-239.8262 403.9687,-233.0289 393.3767,-233.2746 395.8417,-239.8262"/>
</g>
<!-- Node6066 -->
<g id="node10" class="node">
<title>Node6066</title>
<g id="a_node10"><a xlink:href="../../da/dce/tile_8h.html#aa6602689c00ed8c7e08f79a73d0bf014" target="_top" xlink:title=" ">
<polygon fill="#ffffff" stroke="#000000" points="479.5,-180.0617 479.5,-199.0617 518.5,-199.0617 518.5,-180.0617 479.5,-180.0617"/>
<text text-anchor="middle" x="499" y="-187.0617" font-family="Helvetica,sans-Serif" font-size="10.00" fill="#000000">LEFT</text>
</a>
</g>
</g>
<!-- Node6064&#45;&gt;Node6066 -->
<g id="edge12" class="edge">
<title>Node6064&#45;&gt;Node6066</title>
<path fill="none" stroke="#191970" d="M338.7849,-275.0982C364.8118,-285.224 409.415,-297.495 442,-279.5617 469.1683,-264.6096 485.1999,-230.6353 493.0284,-208.9709"/>
<polygon fill="#191970" stroke="#191970" points="496.4455,-209.7894 496.308,-199.1955 489.809,-207.5629 496.4455,-209.7894"/>
</g>
<!-- Node6064&#45;&gt;Node6067 -->
<g id="edge13" class="edge">
<title>Node6064&#45;&gt;Node6067</title>
<path fill="none" stroke="#191970" d="M334.0371,-255.9899C341.7967,-251.3013 351.0618,-245.4142 359,-239.5617 375.9951,-227.032 378.7884,-222.0899 395,-208.5617 396.1581,-207.5953 397.3525,-206.6063 398.5604,-205.612"/>
<polygon fill="#191970" stroke="#191970" points="400.9432,-208.1853 406.4865,-199.1563 396.5225,-202.7578 400.9432,-208.1853"/>
</g>
<!-- Node6064&#45;&gt;Node6068 -->
<g id="edge17" class="edge">
<title>Node6064&#45;&gt;Node6068</title>
<path fill="none" stroke="#191970" d="M325.3751,-275.3359C338.2104,-290.5231 365.217,-319.4999 395,-333.5617 420.3335,-345.5227 452.5707,-349.2571 474.3884,-350.3269"/>
<polygon fill="#191970" stroke="#191970" points="474.3583,-353.8278 484.4709,-350.6678 474.5949,-346.8318 474.3583,-353.8278"/>
</g>
<!-- Node6069 -->
<g id="node13" class="node">
<title>Node6069</title>
<g id="a_node13"><a xlink:href="../../da/dce/tile_8h.html#a80a2cd9ad52a4b260f35e3b0d789cfe7" target="_top" xlink:title=" ">
<polygon fill="#ffffff" stroke="#000000" points="484.5,-275.0617 484.5,-294.0617 513.5,-294.0617 513.5,-275.0617 484.5,-275.0617"/>
<text text-anchor="middle" x="499" y="-282.0617" font-family="Helvetica,sans-Serif" font-size="10.00" fill="#000000">RT</text>
</a>
</g>
</g>
<!-- Node6064&#45;&gt;Node6069 -->
<g id="edge16" class="edge">
<title>Node6064&#45;&gt;Node6069</title>
<path fill="none" stroke="#191970" d="M327.4823,-275.1894C341.3184,-287.7934 367.7188,-309.2574 395,-317.5617 414.9836,-323.6447 421.8261,-322.9802 442,-317.5617 454.9827,-314.0747 468.0621,-306.831 478.4115,-300.0163"/>
<polygon fill="#191970" stroke="#191970" points="480.5114,-302.8193 486.7326,-294.2433 476.5212,-297.0679 480.5114,-302.8193"/>
</g>
<!-- Node6064&#45;&gt;Node6070 -->
<g id="edge18" class="edge">
<title>Node6064&#45;&gt;Node6070</title>
<path fill="none" stroke="#191970" d="M324.3921,-255.839C332.9923,-243.5107 347.9159,-221.4602 359,-201.5617 379.4984,-164.7626 399.6388,-119.7307 410.4248,-94.6902"/>
<polygon fill="#191970" stroke="#191970" points="413.7412,-95.836 414.4485,-85.2648 407.3033,-93.0877 413.7412,-95.836"/>
</g>
<!-- Node6064&#45;&gt;Node6071 -->
<g id="edge21" class="edge">
<title>Node6064&#45;&gt;Node6071</title>
<path fill="none" stroke="#191970" d="M349.0509,-269.2647C376.6865,-270.712 416.3352,-268.1896 442,-246.5617 465.623,-226.6545 486.7122,-135.741 495.1248,-95.1881"/>
<polygon fill="#191970" stroke="#191970" points="498.5957,-95.6825 497.1529,-85.1864 491.7353,-94.2913 498.5957,-95.6825"/>
</g>
<!-- Node6067&#45;&gt;Node6066 -->
<g id="edge14" class="edge">
<title>Node6067&#45;&gt;Node6066</title>
<path fill="none" stroke="#191970" d="M442.2173,-189.5617C450.6841,-189.5617 460.3324,-189.5617 469.243,-189.5617"/>
<polygon fill="#191970" stroke="#191970" points="469.2495,-193.0618 479.2495,-189.5617 469.2495,-186.0618 469.2495,-193.0618"/>
</g>
<!-- Node6067&#45;&gt;Node6068 -->
<g id="edge15" class="edge">
<title>Node6067&#45;&gt;Node6068</title>
<path fill="none" stroke="#191970" d="M433.0598,-199.3339C436.3211,-202.0313 439.5389,-205.1618 442,-208.5617 468.4754,-245.1373 460.7831,-261.8209 478,-303.5617 481.87,-312.9442 486.439,-323.2513 490.3252,-331.8164"/>
<polygon fill="#191970" stroke="#191970" points="487.1445,-333.277 494.491,-340.9111 493.5087,-330.3619 487.1445,-333.277"/>
</g>
<!-- Node6070&#45;&gt;Node6069 -->
<g id="edge19" class="edge">
<title>Node6070&#45;&gt;Node6069</title>
<path fill="none" stroke="#191970" d="M422.1681,-85.0851C434.5571,-117.2504 475.004,-222.2616 491.6952,-265.5965"/>
<polygon fill="#191970" stroke="#191970" points="488.4499,-266.9087 495.3104,-274.9824 494.9821,-264.3926 488.4499,-266.9087"/>
</g>
<!-- Node6070&#45;&gt;Node6071 -->
<g id="edge20" class="edge">
<title>Node6070&#45;&gt;Node6071</title>
<path fill="none" stroke="#191970" d="M441.3527,-75.5617C449.4822,-75.5617 458.7841,-75.5617 467.509,-75.5617"/>
<polygon fill="#191970" stroke="#191970" points="467.7476,-79.0618 477.7476,-75.5617 467.7475,-72.0618 467.7476,-79.0618"/>
</g>
<!-- Node6072&#45;&gt;Node6065 -->
<g id="edge24" class="edge">
<title>Node6072&#45;&gt;Node6065</title>
<path fill="none" stroke="#191970" d="M338.9195,-192.1051C355.2805,-199.3946 377.8192,-209.4366 394.7347,-216.9732"/>
<polygon fill="#191970" stroke="#191970" points="393.3964,-220.2086 403.9552,-221.0814 396.2453,-213.8145 393.3964,-220.2086"/>
</g>
<!-- Node6072&#45;&gt;Node6067 -->
<g id="edge25" class="edge">
<title>Node6072&#45;&gt;Node6067</title>
<path fill="none" stroke="#191970" d="M359.1637,-185.4493C367.7221,-186.0425 376.63,-186.6598 384.8624,-187.2304"/>
<polygon fill="#191970" stroke="#191970" points="384.6338,-190.7229 394.8519,-187.9227 385.1178,-183.7396 384.6338,-190.7229"/>
</g>
<!-- Node6072&#45;&gt;Node6068 -->
<g id="edge26" class="edge">
<title>Node6072&#45;&gt;Node6068</title>
<path fill="none" stroke="#191970" d="M337.4842,-172.9737C364.1856,-161.7167 411.6501,-147.3347 442,-170.5617 490.6309,-207.7794 457.4469,-245.8756 478,-303.5617 481.4064,-313.1223 485.923,-323.4495 489.8946,-331.9818"/>
<polygon fill="#191970" stroke="#191970" points="486.742,-333.5022 494.2074,-341.0201 493.0596,-330.4876 486.742,-333.5022"/>
</g>
<!-- Node6072&#45;&gt;Node6070 -->
<g id="edge27" class="edge">
<title>Node6072&#45;&gt;Node6070</title>
<path fill="none" stroke="#191970" d="M331.3764,-173.0251C339.8443,-166.8552 350.6158,-158.3563 359,-149.5617 377.8947,-129.7421 377.371,-120.5151 395,-99.5617 396.9006,-97.3027 398.9685,-94.9986 401.0632,-92.7556"/>
<polygon fill="#191970" stroke="#191970" points="403.6327,-95.1336 408.084,-85.5192 398.6086,-90.2592 403.6327,-95.1336"/>
</g>
<!-- Node6072&#45;&gt;Node6071 -->
<g id="edge28" class="edge">
<title>Node6072&#45;&gt;Node6071</title>
<path fill="none" stroke="#191970" d="M333.927,-172.8775C365.7829,-154.0974 436.1325,-112.6241 473.8876,-90.3663"/>
<polygon fill="#191970" stroke="#191970" points="475.9039,-93.2406 482.7409,-85.147 472.3489,-87.2105 475.9039,-93.2406"/>
</g>
<!-- Node6073&#45;&gt;Node6066 -->
<g id="edge32" class="edge">
<title>Node6073&#45;&gt;Node6066</title>
<path fill="none" stroke="#191970" d="M334.7892,-66.0152C360.4044,-53.2945 408.9609,-34.7758 442,-56.5617 480.4951,-81.9452 493.0913,-139.302 497.1377,-169.7334"/>
<polygon fill="#191970" stroke="#191970" points="493.693,-170.4176 498.3061,-179.9554 500.6477,-169.6226 493.693,-170.4176"/>
</g>
<!-- Node6073&#45;&gt;Node6067 -->
<g id="edge33" class="edge">
<title>Node6073&#45;&gt;Node6067</title>
<path fill="none" stroke="#191970" d="M326.1112,-85.2813C343.1804,-104.5475 381.5141,-147.8153 403.0543,-172.128"/>
<polygon fill="#191970" stroke="#191970" points="400.6594,-174.7028 409.9106,-179.8668 405.8989,-170.0608 400.6594,-174.7028"/>
</g>
<!-- Node6073&#45;&gt;Node6070 -->
<g id="edge34" class="edge">
<title>Node6073&#45;&gt;Node6070</title>
<path fill="none" stroke="#191970" d="M346.7134,-75.5617C358.9116,-75.5617 373.138,-75.5617 385.6939,-75.5617"/>
<polygon fill="#191970" stroke="#191970" points="385.7668,-79.0618 395.7668,-75.5617 385.7667,-72.0618 385.7668,-79.0618"/>
</g>
<!-- Node6073&#45;&gt;Node6071 -->
<g id="edge35" class="edge">
<title>Node6073&#45;&gt;Node6071</title>
<path fill="none" stroke="#191970" d="M327.4823,-65.9341C341.3184,-53.3301 367.7188,-31.8661 395,-23.5617 414.9836,-17.4788 422.5231,-16.0123 442,-23.5617 459.8602,-30.4845 475.5528,-45.8987 485.9265,-58.1576"/>
<polygon fill="#191970" stroke="#191970" points="483.2304,-60.3901 492.2198,-65.9974 488.6891,-56.0081 483.2304,-60.3901"/>
</g>
</g>
</svg>
        <g id="navigator" transform="translate(0 0)" fill="#404254">
                <rect fill="#f2f5e9" fill-opacity="0.5" stroke="#606060" stroke-width=".5" x="0" y="0" width="60" height="60"/>
                <use id="zoomplus" xlink:href="#zoomPlus" x="17" y="9" onmousedown="handleZoom(evt,'in')"/>
                <use id="zoomminus" xlink:href="#zoomMin" x="42" y="9" onmousedown="handleZoom(evt,'out')"/>
                <use id="reset" xlink:href="#resetDef" x="30" y="36" onmousedown="handleReset()"/>
                <g id="arrowUp" xlink:href="#dirArrow" transform="translate(30 24)" onmousedown="handlePan(0,-1)">
                  <use xlink:href="#rim" fill="#404040">
                        <set attributeName="fill" to="#808080" begin="arrowUp.mouseover" end="arrowUp.mouseout"/>
                  </use>
                  <path fill="none" stroke="white" stroke-width="1.5" d="M0,-3.0v7 M-2.5,-0.5L0,-3.0L2.5,-0.5"/>
                </g>
                <g id="arrowRight" xlink:href="#dirArrow" transform="rotate(90) translate(36 -43)" onmousedown="handlePan(1,0)">
                  <use xlink:href="#rim" fill="#404040">
                        <set attributeName="fill" to="#808080" begin="arrowRight.mouseover" end="arrowRight.mouseout"/>
                  </use>
                  <path fill="none" stroke="white" stroke-width="1.5" d="M0,-3.0v7 M-2.5,-0.5L0,-3.0L2.5,-0.5"/>
                </g>
                <g id="arrowDown" xlink:href="#dirArrow" transform="rotate(180) translate(-30 -48)" onmousedown="handlePan(0,1)">
                  <use xlink:href="#rim" fill="#404040">
                        <set attributeName="fill" to="#808080" begin="arrowDown.mouseover" end="arrowDown.mouseout"/>
                  </use>
                  <path fill="none" stroke="white" stroke-width="1.5" d="M0,-3.0v7 M-2.5,-0.5L0,-3.0L2.5,-0.5"/>
                </g>
                <g id="arrowLeft" xlink:href="#dirArrow" transform="rotate(270) translate(-36 17)" onmousedown="handlePan(-1,0)">
                  <use xlink:href="#rim" fill="#404040">
                        <set attributeName="fill" to="#808080" begin="arrowLeft.mouseover" end="arrowLeft.mouseout"/>
                  </use>
                  <path fill="none" stroke="white" stroke-width="1.5" d="M0,-3.0v7 M-2.5,-0.5L0,-3.0L2.5,-0.5"/>
                </g>
        </g>
        <svg viewBox="0 0 15 15" width="100%" height="30px" preserveAspectRatio="xMaxYMin meet">
         <g id="arrow_out" transform="scale(0.3 0.3)">
          <a xlink:href="classPanelizer_a2d7b41a2f9445195b6b2351e9b2d73aa_cgraph_org.svg" target="_base">
           <rect id="button" ry="5" rx="5" y="6" x="6" height="38" width="38"
                fill="#f2f5e9" fill-opacity="0.5" stroke="#606060" stroke-width="1.0"/>
           <path id="arrow"
             d="M 11.500037,31.436501 C 11.940474,20.09759 22.043105,11.32322 32.158766,21.979434 L 37.068811,17.246167 C 37.068811,17.246167 37.088388,32 37.088388,32 L 22.160133,31.978069 C 22.160133,31.978069 26.997745,27.140456 26.997745,27.140456 C 18.528582,18.264221 13.291696,25.230495 11.500037,31.436501 z"
             style="fill:#404040;"/>
          </a>
         </g>
        </svg>
</svg>
