<?xml version="1.0" encoding="UTF-8" standalone="no"?>
<!DOCTYPE svg PUBLIC "-//W3C//DTD SVG 1.1//EN"
 "http://www.w3.org/Graphics/SVG/1.1/DTD/svg11.dtd">
<!-- Generated by graphviz version 2.40.1 (0)
 -->
<!-- Title: Panelizer::initPanelizerOutput Pages: 1 -->
<!--zoomable 88 -->
<svg id="main" version="1.1" xmlns="http://www.w3.org/2000/svg" xmlns:xlink="http://www.w3.org/1999/xlink" xml:space="preserve" onload="init(evt)">
<style type="text/css"><![CDATA[
.edge:hover path { stroke: red; }
.edge:hover polygon { stroke: red; fill: red; }
]]></style>
<script type="text/javascript"><![CDATA[
var edges = document.getElementsByTagName('g');
if (edges && edges.length) {
  for (var i=0;i<edges.length;i++) {
    if (edges[i].id.substr(0,4)=='edge') {
      edges[i].setAttribute('class','edge');
    }
  }
}
]]></script>
        <defs>
                <circle id="rim" cx="0" cy="0" r="7"/>
                <circle id="rim2" cx="0" cy="0" r="3.5"/>
                <g id="zoomPlus">
                        <use xlink:href="#rim" fill="#404040">
                                <set attributeName="fill" to="#808080" begin="zoomplus.mouseover" end="zoomplus.mouseout"/>
                        </use>
                        <path d="M-4,0h8M0,-4v8" fill="none" stroke="white" stroke-width="1.5" pointer-events="none"/>
                </g>
                <g id="zoomMin">
                        <use xlink:href="#rim" fill="#404040">
                                <set attributeName="fill" to="#808080" begin="zoomminus.mouseover" end="zoomminus.mouseout"/>
                        </use>
                        <path d="M-4,0h8" fill="none" stroke="white" stroke-width="1.5" pointer-events="none"/>
                </g>
                <g id="dirArrow">
                        <path fill="none" stroke="white" stroke-width="1.5" d="M0,-3.0v7 M-2.5,-0.5L0,-3.0L2.5,-0.5"/>
                </g>
               <g id="resetDef">
                       <use xlink:href="#rim2" fill="#404040">
                               <set attributeName="fill" to="#808080" begin="reset.mouseover" end="reset.mouseout"/>
                       </use>
               </g>
        </defs>

<script type="text/javascript">
var viewWidth = 729;
var viewHeight = 88;
var sectionId = 'dynsection-22';
</script>
<script xlink:href="../../svgpan.js"/>
<svg id="graph" class="graph">
<g id="viewport">
<title>Panelizer::initPanelizerOutput</title>
<polygon fill="#ffffff" stroke="transparent" points="-4,4 -4,-84 725,-84 725,4 -4,4"/>
<!-- Node414 -->
<g id="node1" class="node">
<title>Node414</title>
<g id="a_node1"><a xlink:title=" ">
<polygon fill="#bfbfbf" stroke="#000000" points="594,-24.5 594,-54.5 721,-54.5 721,-24.5 594,-24.5"/>
<text text-anchor="start" x="602" y="-42.5" font-family="Helvetica,sans-Serif" font-size="10.00" fill="#000000">Panelizer::initPanelizer</text>
<text text-anchor="middle" x="657.5" y="-31.5" font-family="Helvetica,sans-Serif" font-size="10.00" fill="#000000">Output</text>
</a>
</g>
</g>
<!-- Node415 -->
<g id="node2" class="node">
<title>Node415</title>
<g id="a_node2"><a xlink:href="../../d1/dec/classPanelizer.html#a20413e93309e7c25278c14bbd953de26" target="_top" xlink:title=" ">
<polygon fill="#ffffff" stroke="#000000" points="450,-52 450,-71 558,-71 558,-52 450,-52"/>
<text text-anchor="middle" x="504" y="-59" font-family="Helvetica,sans-Serif" font-size="10.00" fill="#000000">Panelizer::panelize</text>
</a>
</g>
</g>
<!-- Node414&#45;&gt;Node415 -->
<g id="edge1" class="edge">
<title>Node414&#45;&gt;Node415</title>
<path fill="none" stroke="#191970" d="M583.6527,-50.084C575.022,-51.321 566.3422,-52.565 558.0509,-53.7533"/>
<polygon fill="#191970" stroke="#191970" points="584.3335,-53.5223 593.7357,-48.6389 583.3403,-46.5931 584.3335,-53.5223"/>
</g>
<!-- Node419 -->
<g id="node6" class="node">
<title>Node419</title>
<g id="a_node6"><a xlink:href="../../d1/dec/classPanelizer.html#a17e70d92a6673b55cbe831bf41f51764" target="_top" xlink:title=" ">
<polygon fill="#ffffff" stroke="#000000" points="451.5,-11 451.5,-30 556.5,-30 556.5,-11 451.5,-11"/>
<text text-anchor="middle" x="504" y="-18" font-family="Helvetica,sans-Serif" font-size="10.00" fill="#000000">Panelizer::inscribe</text>
</a>
</g>
</g>
<!-- Node414&#45;&gt;Node419 -->
<g id="edge5" class="edge">
<title>Node414&#45;&gt;Node419</title>
<path fill="none" stroke="#191970" d="M583.5237,-30.3433C574.4352,-29.2184 565.2947,-28.087 556.6129,-27.0123"/>
<polygon fill="#191970" stroke="#191970" points="583.3815,-33.8523 593.7357,-31.6074 584.2414,-26.9054 583.3815,-33.8523"/>
</g>
<!-- Node416 -->
<g id="node3" class="node">
<title>Node416</title>
<g id="a_node3"><a xlink:href="../../dc/dc7/classFApplication.html#ade4b2813f0a6b5af98013570a7b5d9c0" target="_top" xlink:title=" ">
<polygon fill="#ffffff" stroke="#000000" points="268.5,-49.5 268.5,-79.5 410.5,-79.5 410.5,-49.5 268.5,-49.5"/>
<text text-anchor="start" x="276.5" y="-67.5" font-family="Helvetica,sans-Serif" font-size="10.00" fill="#000000">FApplication::runPanelizer</text>
<text text-anchor="middle" x="339.5" y="-56.5" font-family="Helvetica,sans-Serif" font-size="10.00" fill="#000000">Service</text>
</a>
</g>
</g>
<!-- Node415&#45;&gt;Node416 -->
<g id="edge2" class="edge">
<title>Node415&#45;&gt;Node416</title>
<path fill="none" stroke="#191970" d="M439.5824,-62.6748C430.1336,-62.8471 420.355,-63.0254 410.7785,-63.2001"/>
<polygon fill="#191970" stroke="#191970" points="439.7462,-66.1725 449.6806,-62.4906 439.6185,-59.1736 439.7462,-66.1725"/>
</g>
<!-- Node417 -->
<g id="node4" class="node">
<title>Node417</title>
<g id="a_node4"><a xlink:href="../../dc/dc7/classFApplication.html#ac5e0b62634df1a581eee3c3a36980754" target="_top" xlink:title=" ">
<polygon fill="#ffffff" stroke="#000000" points="77,-30 77,-49 229,-49 229,-30 77,-30"/>
<text text-anchor="middle" x="153" y="-37" font-family="Helvetica,sans-Serif" font-size="10.00" fill="#000000">FApplication::serviceStartup</text>
</a>
</g>
</g>
<!-- Node416&#45;&gt;Node417 -->
<g id="edge3" class="edge">
<title>Node416&#45;&gt;Node417</title>
<path fill="none" stroke="#191970" d="M258.4954,-53.6415C247.0626,-52.1089 235.3799,-50.5429 224.151,-49.0377"/>
<polygon fill="#191970" stroke="#191970" points="258.0839,-57.1175 268.4603,-54.9773 259.014,-50.1796 258.0839,-57.1175"/>
</g>
<!-- Node418 -->
<g id="node5" class="node">
<title>Node418</title>
<g id="a_node5"><a xlink:href="../../df/d0a/main_8cpp.html#a0ddf1224851353fc92bfbff6f499fa97" target="_top" xlink:title=" ">
<polygon fill="#ffffff" stroke="#000000" points="0,-30 0,-49 41,-49 41,-30 0,-30"/>
<text text-anchor="middle" x="20.5" y="-37" font-family="Helvetica,sans-Serif" font-size="10.00" fill="#000000">main</text>
</a>
</g>
</g>
<!-- Node417&#45;&gt;Node418 -->
<g id="edge4" class="edge">
<title>Node417&#45;&gt;Node418</title>
<path fill="none" stroke="#191970" d="M66.6912,-39.5C57.2673,-39.5 48.4413,-39.5 41.0804,-39.5"/>
<polygon fill="#191970" stroke="#191970" points="66.692,-43.0001 76.6919,-39.5 66.6919,-36.0001 66.692,-43.0001"/>
</g>
<!-- Node420 -->
<g id="node7" class="node">
<title>Node420</title>
<g id="a_node7"><a xlink:href="../../dc/dc7/classFApplication.html#acf8b4e0eaaa72bb5ac8da5ac4350a8a4" target="_top" xlink:title=" ">
<polygon fill="#ffffff" stroke="#000000" points="265,-.5 265,-30.5 414,-30.5 414,-.5 265,-.5"/>
<text text-anchor="start" x="273" y="-18.5" font-family="Helvetica,sans-Serif" font-size="10.00" fill="#000000">FApplication::runInscription</text>
<text text-anchor="middle" x="339.5" y="-7.5" font-family="Helvetica,sans-Serif" font-size="10.00" fill="#000000">Service</text>
</a>
</g>
</g>
<!-- Node419&#45;&gt;Node420 -->
<g id="edge6" class="edge">
<title>Node419&#45;&gt;Node420</title>
<path fill="none" stroke="#191970" d="M441.3031,-18.5943C432.4704,-18.3258 423.3184,-18.0477 414.2873,-17.7732"/>
<polygon fill="#191970" stroke="#191970" points="441.3971,-22.0987 451.4989,-18.9042 441.6099,-15.1019 441.3971,-22.0987"/>
</g>
<!-- Node420&#45;&gt;Node417 -->
<g id="edge7" class="edge">
<title>Node420&#45;&gt;Node417</title>
<path fill="none" stroke="#191970" d="M254.9604,-26.3791C245.6625,-27.5756 236.248,-28.7871 227.0912,-29.9655"/>
<polygon fill="#191970" stroke="#191970" points="255.5148,-29.8367 264.9862,-25.0889 254.6213,-22.894 255.5148,-29.8367"/>
</g>
</g>
</svg>
        <g id="navigator" transform="translate(0 0)" fill="#404254">
                <rect fill="#f2f5e9" fill-opacity="0.5" stroke="#606060" stroke-width=".5" x="0" y="0" width="60" height="60"/>
                <use id="zoomplus" xlink:href="#zoomPlus" x="17" y="9" onmousedown="handleZoom(evt,'in')"/>
                <use id="zoomminus" xlink:href="#zoomMin" x="42" y="9" onmousedown="handleZoom(evt,'out')"/>
                <use id="reset" xlink:href="#resetDef" x="30" y="36" onmousedown="handleReset()"/>
                <g id="arrowUp" xlink:href="#dirArrow" transform="translate(30 24)" onmousedown="handlePan(0,-1)">
                  <use xlink:href="#rim" fill="#404040">
                        <set attributeName="fill" to="#808080" begin="arrowUp.mouseover" end="arrowUp.mouseout"/>
                  </use>
                  <path fill="none" stroke="white" stroke-width="1.5" d="M0,-3.0v7 M-2.5,-0.5L0,-3.0L2.5,-0.5"/>
                </g>
                <g id="arrowRight" xlink:href="#dirArrow" transform="rotate(90) translate(36 -43)" onmousedown="handlePan(1,0)">
                  <use xlink:href="#rim" fill="#404040">
                        <set attributeName="fill" to="#808080" begin="arrowRight.mouseover" end="arrowRight.mouseout"/>
                  </use>
                  <path fill="none" stroke="white" stroke-width="1.5" d="M0,-3.0v7 M-2.5,-0.5L0,-3.0L2.5,-0.5"/>
                </g>
                <g id="arrowDown" xlink:href="#dirArrow" transform="rotate(180) translate(-30 -48)" onmousedown="handlePan(0,1)">
                  <use xlink:href="#rim" fill="#404040">
                        <set attributeName="fill" to="#808080" begin="arrowDown.mouseover" end="arrowDown.mouseout"/>
                  </use>
                  <path fill="none" stroke="white" stroke-width="1.5" d="M0,-3.0v7 M-2.5,-0.5L0,-3.0L2.5,-0.5"/>
                </g>
                <g id="arrowLeft" xlink:href="#dirArrow" transform="rotate(270) translate(-36 17)" onmousedown="handlePan(-1,0)">
                  <use xlink:href="#rim" fill="#404040">
                        <set attributeName="fill" to="#808080" begin="arrowLeft.mouseover" end="arrowLeft.mouseout"/>
                  </use>
                  <path fill="none" stroke="white" stroke-width="1.5" d="M0,-3.0v7 M-2.5,-0.5L0,-3.0L2.5,-0.5"/>
                </g>
        </g>
        <svg viewBox="0 0 15 15" width="100%" height="30px" preserveAspectRatio="xMaxYMin meet">
         <g id="arrow_out" transform="scale(0.3 0.3)">
          <a xlink:href="classPanelizer_ab0197b526f65a7446e2a1b7fb3230643_icgraph_org.svg" target="_base">
           <rect id="button" ry="5" rx="5" y="6" x="6" height="38" width="38"
                fill="#f2f5e9" fill-opacity="0.5" stroke="#606060" stroke-width="1.0"/>
           <path id="arrow"
             d="M 11.500037,31.436501 C 11.940474,20.09759 22.043105,11.32322 32.158766,21.979434 L 37.068811,17.246167 C 37.068811,17.246167 37.088388,32 37.088388,32 L 22.160133,31.978069 C 22.160133,31.978069 26.997745,27.140456 26.997745,27.140456 C 18.528582,18.264221 13.291696,25.230495 11.500037,31.436501 z"
             style="fill:#404040;"/>
          </a>
         </g>
        </svg>
</svg>
