<?xml version="1.0" encoding="UTF-8" standalone="no"?>
<!DOCTYPE svg PUBLIC "-//W3C//DTD SVG 1.1//EN"
 "http://www.w3.org/Graphics/SVG/1.1/DTD/svg11.dtd">
<!-- Generated by graphviz version 2.40.1 (0)
 -->
<!-- Title: FApplication::gotOrderFab Pages: 1 -->
<svg width="378pt" height="28pt"
 viewBox="0.00 0.00 378.00 28.00" xmlns="http://www.w3.org/2000/svg" xmlns:xlink="http://www.w3.org/1999/xlink">
<g id="graph0" class="graph" transform="scale(1 1) rotate(0) translate(4 24)">
<title>FApplication::gotOrderFab</title>
<polygon fill="#ffffff" stroke="transparent" points="-4,4 -4,-24 374,-24 374,4 -4,4"/>
<!-- Node4092 -->
<g id="node1" class="node">
<title>Node4092</title>
<g id="a_node1"><a xlink:title=" ">
<polygon fill="#bfbfbf" stroke="#000000" points="229,-.5 229,-19.5 370,-19.5 370,-.5 229,-.5"/>
<text text-anchor="middle" x="299.5" y="-7.5" font-family="Helvetica,sans-Serif" font-size="10.00" fill="#000000">FApplication::gotOrderFab</text>
</a>
</g>
</g>
<!-- Node4093 -->
<g id="node2" class="node">
<title>Node4093</title>
<g id="a_node2"><a xlink:href="../../dc/dc7/classFApplication.html#a89349e60ea5512570b4fa2474507ab36" target="_top" xlink:title=" ">
<polygon fill="#ffffff" stroke="#000000" points="77,-.5 77,-19.5 193,-19.5 193,-.5 77,-.5"/>
<text text-anchor="middle" x="135" y="-7.5" font-family="Helvetica,sans-Serif" font-size="10.00" fill="#000000">FApplication::startup</text>
</a>
</g>
</g>
<!-- Node4092&#45;&gt;Node4093 -->
<g id="edge1" class="edge">
<title>Node4092&#45;&gt;Node4093</title>
<path fill="none" stroke="#191970" d="M218.6611,-10C210.0116,-10 201.3411,-10 193.0327,-10"/>
<polygon fill="#191970" stroke="#191970" points="218.7826,-13.5001 228.7825,-10 218.7825,-6.5001 218.7826,-13.5001"/>
</g>
<!-- Node4094 -->
<g id="node3" class="node">
<title>Node4094</title>
<g id="a_node3"><a xlink:href="../../df/d0a/main_8cpp.html#a0ddf1224851353fc92bfbff6f499fa97" target="_top" xlink:title=" ">
<polygon fill="#ffffff" stroke="#000000" points="0,-.5 0,-19.5 41,-19.5 41,-.5 0,-.5"/>
<text text-anchor="middle" x="20.5" y="-7.5" font-family="Helvetica,sans-Serif" font-size="10.00" fill="#000000">main</text>
</a>
</g>
</g>
<!-- Node4093&#45;&gt;Node4094 -->
<g id="edge2" class="edge">
<title>Node4093&#45;&gt;Node4094</title>
<path fill="none" stroke="#191970" d="M66.5926,-10C57.3396,-10 48.4911,-10 41.0653,-10"/>
<polygon fill="#191970" stroke="#191970" points="66.7437,-13.5001 76.7437,-10 66.7437,-6.5001 66.7437,-13.5001"/>
</g>
</g>
</svg>
