<?xml version="1.0" encoding="UTF-8" standalone="no"?>
<!DOCTYPE svg PUBLIC "-//W3C//DTD SVG 1.1//EN"
 "http://www.w3.org/Graphics/SVG/1.1/DTD/svg11.dtd">
<!-- Generated by graphviz version 2.40.1 (0)
 -->
<!-- Title: FApplication::installNewParts Pages: 1 -->
<svg width="371pt" height="39pt"
 viewBox="0.00 0.00 371.00 39.00" xmlns="http://www.w3.org/2000/svg" xmlns:xlink="http://www.w3.org/1999/xlink">
<g id="graph0" class="graph" transform="scale(1 1) rotate(0) translate(4 35)">
<title>FApplication::installNewParts</title>
<polygon fill="#ffffff" stroke="transparent" points="-4,4 -4,-35 367,-35 367,4 -4,4"/>
<!-- Node5535 -->
<g id="node1" class="node">
<title>Node5535</title>
<g id="a_node1"><a xlink:title=" ">
<polygon fill="#bfbfbf" stroke="#000000" points="229,-.5 229,-30.5 363,-30.5 363,-.5 229,-.5"/>
<text text-anchor="start" x="237" y="-18.5" font-family="Helvetica,sans-Serif" font-size="10.00" fill="#000000">FApplication::installNew</text>
<text text-anchor="middle" x="296" y="-7.5" font-family="Helvetica,sans-Serif" font-size="10.00" fill="#000000">Parts</text>
</a>
</g>
</g>
<!-- Node5536 -->
<g id="node2" class="node">
<title>Node5536</title>
<g id="a_node2"><a xlink:href="../../dc/dc7/classFApplication.html#a89349e60ea5512570b4fa2474507ab36" target="_top" xlink:title=" ">
<polygon fill="#ffffff" stroke="#000000" points="77,-6 77,-25 193,-25 193,-6 77,-6"/>
<text text-anchor="middle" x="135" y="-13" font-family="Helvetica,sans-Serif" font-size="10.00" fill="#000000">FApplication::startup</text>
</a>
</g>
</g>
<!-- Node5535&#45;&gt;Node5536 -->
<g id="edge1" class="edge">
<title>Node5535&#45;&gt;Node5536</title>
<path fill="none" stroke="#191970" d="M218.6252,-15.5C210.0434,-15.5 201.4141,-15.5 193.1283,-15.5"/>
<polygon fill="#191970" stroke="#191970" points="218.6544,-19.0001 228.6544,-15.5 218.6543,-12.0001 218.6544,-19.0001"/>
</g>
<!-- Node5537 -->
<g id="node3" class="node">
<title>Node5537</title>
<g id="a_node3"><a xlink:href="../../df/d0a/main_8cpp.html#a0ddf1224851353fc92bfbff6f499fa97" target="_top" xlink:title=" ">
<polygon fill="#ffffff" stroke="#000000" points="0,-6 0,-25 41,-25 41,-6 0,-6"/>
<text text-anchor="middle" x="20.5" y="-13" font-family="Helvetica,sans-Serif" font-size="10.00" fill="#000000">main</text>
</a>
</g>
</g>
<!-- Node5536&#45;&gt;Node5537 -->
<g id="edge2" class="edge">
<title>Node5536&#45;&gt;Node5537</title>
<path fill="none" stroke="#191970" d="M66.5926,-15.5C57.3396,-15.5 48.4911,-15.5 41.0653,-15.5"/>
<polygon fill="#191970" stroke="#191970" points="66.7437,-19.0001 76.7437,-15.5 66.7437,-12.0001 66.7437,-19.0001"/>
</g>
</g>
</svg>
