<?xml version="1.0" encoding="UTF-8" standalone="no"?>
<!DOCTYPE svg PUBLIC "-//W3C//DTD SVG 1.1//EN"
 "http://www.w3.org/Graphics/SVG/1.1/DTD/svg11.dtd">
<!-- Generated by graphviz version 2.40.1 (0)
 -->
<!-- Title: UpdateDialog::httpErrorSlot Pages: 1 -->
<svg width="537pt" height="39pt"
 viewBox="0.00 0.00 537.00 39.00" xmlns="http://www.w3.org/2000/svg" xmlns:xlink="http://www.w3.org/1999/xlink">
<g id="graph0" class="graph" transform="scale(1 1) rotate(0) translate(4 35)">
<title>UpdateDialog::httpErrorSlot</title>
<polygon fill="#ffffff" stroke="transparent" points="-4,4 -4,-35 533,-35 533,4 -4,4"/>
<!-- Node49 -->
<g id="node1" class="node">
<title>Node49</title>
<g id="a_node1"><a xlink:title=" ">
<polygon fill="#bfbfbf" stroke="#000000" points="378,-6 378,-25 529,-25 529,-6 378,-6"/>
<text text-anchor="middle" x="453.5" y="-13" font-family="Helvetica,sans-Serif" font-size="10.00" fill="#000000">UpdateDialog::httpErrorSlot</text>
</a>
</g>
</g>
<!-- Node50 -->
<g id="node2" class="node">
<title>Node50</title>
<g id="a_node2"><a xlink:href="../../dc/dc1/classUpdateDialog.html#a0afbcb61f6587a0a8a13f1ee6c691933" target="_top" xlink:title=" ">
<polygon fill="#ffffff" stroke="#000000" points="202,-.5 202,-30.5 342,-30.5 342,-.5 202,-.5"/>
<text text-anchor="start" x="210" y="-18.5" font-family="Helvetica,sans-Serif" font-size="10.00" fill="#000000">UpdateDialog::setVersion</text>
<text text-anchor="middle" x="272" y="-7.5" font-family="Helvetica,sans-Serif" font-size="10.00" fill="#000000">Checker</text>
</a>
</g>
</g>
<!-- Node49&#45;&gt;Node50 -->
<g id="edge1" class="edge">
<title>Node49&#45;&gt;Node50</title>
<path fill="none" stroke="#191970" d="M367.764,-15.5C359.1395,-15.5 350.4544,-15.5 342.0215,-15.5"/>
<polygon fill="#191970" stroke="#191970" points="367.842,-19.0001 377.8419,-15.5 367.8419,-12.0001 367.842,-19.0001"/>
</g>
<!-- Node51 -->
<g id="node3" class="node">
<title>Node51</title>
<g id="a_node3"><a xlink:href="../../dc/dc7/classFApplication.html#a29a898d618c784a4860bc6322da51a11" target="_top" xlink:title=" ">
<polygon fill="#ffffff" stroke="#000000" points="0,-6 0,-25 166,-25 166,-6 0,-6"/>
<text text-anchor="middle" x="83" y="-13" font-family="Helvetica,sans-Serif" font-size="10.00" fill="#000000">FApplication::checkForUpdates</text>
</a>
</g>
</g>
<!-- Node50&#45;&gt;Node51 -->
<g id="edge2" class="edge">
<title>Node50&#45;&gt;Node51</title>
<path fill="none" stroke="#191970" d="M191.6652,-15.5C183.2026,-15.5 174.585,-15.5 166.0921,-15.5"/>
<polygon fill="#191970" stroke="#191970" points="191.892,-19.0001 201.892,-15.5 191.8919,-12.0001 191.892,-19.0001"/>
</g>
</g>
</svg>
