<?xml version="1.0" encoding="UTF-8" standalone="no"?>
<!DOCTYPE svg PUBLIC "-//W3C//DTD SVG 1.1//EN"
 "http://www.w3.org/Graphics/SVG/1.1/DTD/svg11.dtd">
<!-- Generated by graphviz version 2.40.1 (0)
 -->
<!-- Title: PEToolView::initConnectors Pages: 1 -->
<svg width="766pt" height="116pt"
 viewBox="0.00 0.00 766.00 115.50" xmlns="http://www.w3.org/2000/svg" xmlns:xlink="http://www.w3.org/1999/xlink">
<g id="graph0" class="graph" transform="scale(1 1) rotate(0) translate(4 111.5)">
<title>PEToolView::initConnectors</title>
<polygon fill="#ffffff" stroke="transparent" points="-4,4 -4,-111.5 762,-111.5 762,4 -4,4"/>
<!-- Node306 -->
<g id="node1" class="node">
<title>Node306</title>
<g id="a_node1"><a xlink:title=" ">
<polygon fill="#bfbfbf" stroke="#000000" points="0,-50 0,-69 148,-69 148,-50 0,-50"/>
<text text-anchor="middle" x="74" y="-57" font-family="Helvetica,sans-Serif" font-size="10.00" fill="#000000">PEToolView::initConnectors</text>
</a>
</g>
</g>
<!-- Node307 -->
<g id="node2" class="node">
<title>Node307</title>
<g id="a_node2"><a xlink:href="../../dd/d1d/classPEToolView.html#a10ba0436858fc558ef07e9922d1c997c" target="_top" xlink:title=" ">
<polygon fill="#ffffff" stroke="#000000" points="184,-50 184,-69 342,-69 342,-50 184,-50"/>
<text text-anchor="middle" x="263" y="-57" font-family="Helvetica,sans-Serif" font-size="10.00" fill="#000000">PEToolView::switchConnector</text>
</a>
</g>
</g>
<!-- Node306&#45;&gt;Node307 -->
<g id="edge1" class="edge">
<title>Node306&#45;&gt;Node307</title>
<path fill="none" stroke="#191970" d="M148.1554,-59.5C156.5547,-59.5 165.1792,-59.5 173.7461,-59.5"/>
<polygon fill="#191970" stroke="#191970" points="173.7594,-63.0001 183.7593,-59.5 173.7593,-56.0001 173.7594,-63.0001"/>
</g>
<!-- Node308 -->
<g id="node3" class="node">
<title>Node308</title>
<g id="a_node3"><a xlink:href="../../d7/d0d/classPEGraphicsItem.html#a2a325095902115409fd685ef1b8527f6" target="_top" xlink:title=" ">
<polygon fill="#ffffff" stroke="#000000" points="387,-88 387,-107 527,-107 527,-88 387,-88"/>
<text text-anchor="middle" x="457" y="-95" font-family="Helvetica,sans-Serif" font-size="10.00" fill="#000000">PEGraphicsItem::element</text>
</a>
</g>
</g>
<!-- Node307&#45;&gt;Node308 -->
<g id="edge2" class="edge">
<title>Node307&#45;&gt;Node308</title>
<path fill="none" stroke="#191970" d="M311.9544,-69.089C338.2467,-74.239 370.8396,-80.6232 398.4653,-86.0344"/>
<polygon fill="#191970" stroke="#191970" points="397.9113,-89.4924 408.3976,-87.9799 399.2569,-82.6229 397.9113,-89.4924"/>
</g>
<!-- Node309 -->
<g id="node4" class="node">
<title>Node309</title>
<g id="a_node4"><a xlink:href="../../d1/d20/classPEUtils.html#a5b512cce6b3df0ef4ba5094a0239d2fa" target="_top" xlink:title=" ">
<polygon fill="#ffffff" stroke="#000000" points="378,-50 378,-69 536,-69 536,-50 378,-50"/>
<text text-anchor="middle" x="457" y="-57" font-family="Helvetica,sans-Serif" font-size="10.00" fill="#000000">PEUtils::makeConnectorForm</text>
</a>
</g>
</g>
<!-- Node307&#45;&gt;Node309 -->
<g id="edge3" class="edge">
<title>Node307&#45;&gt;Node309</title>
<path fill="none" stroke="#191970" d="M342.187,-59.5C350.5295,-59.5 359.054,-59.5 367.5021,-59.5"/>
<polygon fill="#191970" stroke="#191970" points="367.7518,-63.0001 377.7517,-59.5 367.7517,-56.0001 367.7518,-63.0001"/>
</g>
<!-- Node311 -->
<g id="node6" class="node">
<title>Node311</title>
<g id="a_node6"><a xlink:href="../../dd/d1d/classPEToolView.html#acd2d09d8e257d17e23a6ee7653b0dcb3" target="_top" xlink:title=" ">
<polygon fill="#ffffff" stroke="#000000" points="383,-.5 383,-30.5 531,-30.5 531,-.5 383,-.5"/>
<text text-anchor="start" x="391" y="-18.5" font-family="Helvetica,sans-Serif" font-size="10.00" fill="#000000">PEToolView::hideConnector</text>
<text text-anchor="middle" x="457" y="-7.5" font-family="Helvetica,sans-Serif" font-size="10.00" fill="#000000">ListStuff</text>
</a>
</g>
</g>
<!-- Node307&#45;&gt;Node311 -->
<g id="edge5" class="edge">
<title>Node307&#45;&gt;Node311</title>
<path fill="none" stroke="#191970" d="M305.0951,-49.9527C327.2298,-44.9324 355.0518,-38.6223 380.8174,-32.7785"/>
<polygon fill="#191970" stroke="#191970" points="381.5973,-36.1906 390.5754,-30.5654 380.0489,-29.364 381.5973,-36.1906"/>
</g>
<!-- Node310 -->
<g id="node5" class="node">
<title>Node310</title>
<g id="a_node5"><a xlink:href="../../d9/d65/classConnector.html#acc03b78d85b634c2e5206326b4b1c432" target="_top" xlink:title=" ">
<polygon fill="#ffffff" stroke="#000000" points="593.5,-44.5 593.5,-74.5 736.5,-74.5 736.5,-44.5 593.5,-44.5"/>
<text text-anchor="start" x="601.5" y="-62.5" font-family="Helvetica,sans-Serif" font-size="10.00" fill="#000000">Connector::connectorType</text>
<text text-anchor="middle" x="665" y="-51.5" font-family="Helvetica,sans-Serif" font-size="10.00" fill="#000000">FromName</text>
</a>
</g>
</g>
<!-- Node309&#45;&gt;Node310 -->
<g id="edge4" class="edge">
<title>Node309&#45;&gt;Node310</title>
<path fill="none" stroke="#191970" d="M536.2292,-59.5C551.6742,-59.5 567.8932,-59.5 583.4129,-59.5"/>
<polygon fill="#191970" stroke="#191970" points="583.4956,-63.0001 593.4955,-59.5 583.4955,-56.0001 583.4956,-63.0001"/>
</g>
<!-- Node312 -->
<g id="node7" class="node">
<title>Node312</title>
<g id="a_node7"><a xlink:href="../../dd/d1d/classPEToolView.html#af4126e8fc6996d2e711222cefc6338b1" target="_top" xlink:title=" ">
<polygon fill="#ffffff" stroke="#000000" points="572,-6 572,-25 758,-25 758,-6 572,-6"/>
<text text-anchor="middle" x="665" y="-13" font-family="Helvetica,sans-Serif" font-size="10.00" fill="#000000">PEToolView::pickModeChangedSlot</text>
</a>
</g>
</g>
<!-- Node311&#45;&gt;Node312 -->
<g id="edge6" class="edge">
<title>Node311&#45;&gt;Node312</title>
<path fill="none" stroke="#191970" d="M531.2119,-15.5C541.0996,-15.5 551.3796,-15.5 561.6512,-15.5"/>
<polygon fill="#191970" stroke="#191970" points="561.9051,-19.0001 571.9051,-15.5 561.905,-12.0001 561.9051,-19.0001"/>
</g>
</g>
</svg>
