<?xml version="1.0" encoding="UTF-8" standalone="no"?>
<!DOCTYPE svg PUBLIC "-//W3C//DTD SVG 1.1//EN"
 "http://www.w3.org/Graphics/SVG/1.1/DTD/svg11.dtd">
<!-- Generated by graphviz version 2.40.1 (0)
 -->
<!-- Title: KicadModule2Svg::drawOblong Pages: 1 -->
<svg width="735pt" height="104pt"
 viewBox="0.00 0.00 735.00 104.00" xmlns="http://www.w3.org/2000/svg" xmlns:xlink="http://www.w3.org/1999/xlink">
<g id="graph0" class="graph" transform="scale(1 1) rotate(0) translate(4 100)">
<title>KicadModule2Svg::drawOblong</title>
<polygon fill="#ffffff" stroke="transparent" points="-4,4 -4,-100 731,-100 731,4 -4,4"/>
<!-- Node187 -->
<g id="node1" class="node">
<title>Node187</title>
<g id="a_node1"><a xlink:title=" ">
<polygon fill="#bfbfbf" stroke="#000000" points="0,-37.5 0,-56.5 168,-56.5 168,-37.5 0,-37.5"/>
<text text-anchor="middle" x="84" y="-44.5" font-family="Helvetica,sans-Serif" font-size="10.00" fill="#000000">KicadModule2Svg::drawOblong</text>
</a>
</g>
</g>
<!-- Node188 -->
<g id="node2" class="node">
<title>Node188</title>
<g id="a_node2"><a xlink:href="../../d0/db3/classKicadModule2Svg.html#ae4b1329a4f409c3be7073296b01449d8" target="_top" xlink:title=" ">
<polygon fill="#ffffff" stroke="#000000" points="204,-57 204,-87 388,-87 388,-57 204,-57"/>
<text text-anchor="start" x="212" y="-75" font-family="Helvetica,sans-Serif" font-size="10.00" fill="#000000">KicadModule2Svg::drawHorizontal</text>
<text text-anchor="middle" x="296" y="-64" font-family="Helvetica,sans-Serif" font-size="10.00" fill="#000000">Oblong</text>
</a>
</g>
</g>
<!-- Node187&#45;&gt;Node188 -->
<g id="edge1" class="edge">
<title>Node187&#45;&gt;Node188</title>
<path fill="none" stroke="#191970" d="M164.7529,-56.5227C174.2191,-57.639 183.9706,-58.789 193.6808,-59.9341"/>
<polygon fill="#191970" stroke="#191970" points="193.4302,-63.4287 203.7713,-61.124 194.25,-56.4768 193.4302,-63.4287"/>
</g>
<!-- Node193 -->
<g id="node7" class="node">
<title>Node193</title>
<g id="a_node7"><a xlink:href="../../d0/db3/classKicadModule2Svg.html#a5fc7b8ad8938093e4db0fff836d5395e" target="_top" xlink:title=" ">
<polygon fill="#ffffff" stroke="#000000" points="211,-8 211,-38 381,-38 381,-8 211,-8"/>
<text text-anchor="start" x="219" y="-26" font-family="Helvetica,sans-Serif" font-size="10.00" fill="#000000">KicadModule2Svg::drawVertical</text>
<text text-anchor="middle" x="296" y="-15" font-family="Helvetica,sans-Serif" font-size="10.00" fill="#000000">Oblong</text>
</a>
</g>
</g>
<!-- Node187&#45;&gt;Node193 -->
<g id="edge7" class="edge">
<title>Node187&#45;&gt;Node193</title>
<path fill="none" stroke="#191970" d="M168.0925,-37.4801C178.8906,-36.2577 190.0059,-34.9993 200.9632,-33.7589"/>
<polygon fill="#191970" stroke="#191970" points="201.4252,-37.229 210.968,-32.6263 200.6377,-30.2735 201.4252,-37.229"/>
</g>
<!-- Node189 -->
<g id="node3" class="node">
<title>Node189</title>
<g id="a_node3"><a xlink:href="../../df/dca/kicadmodule2svg_8cpp.html#a6960c07841fd33915d54c6c39e640de2" target="_top" xlink:title=" ">
<polygon fill="#ffffff" stroke="#000000" points="447.5,-38.5 447.5,-57.5 551.5,-57.5 551.5,-38.5 447.5,-38.5"/>
<text text-anchor="middle" x="499.5" y="-45.5" font-family="Helvetica,sans-Serif" font-size="10.00" fill="#000000">checkStrokeWidth</text>
</a>
</g>
</g>
<!-- Node188&#45;&gt;Node189 -->
<g id="edge2" class="edge">
<title>Node188&#45;&gt;Node189</title>
<path fill="none" stroke="#191970" d="M388.2234,-61.1235C404.8728,-59.16 421.8655,-57.1559 437.3972,-55.3242"/>
<polygon fill="#191970" stroke="#191970" points="437.8532,-58.7947 447.3745,-54.1475 437.0333,-51.8429 437.8532,-58.7947"/>
</g>
<!-- Node191 -->
<g id="node5" class="node">
<title>Node191</title>
<g id="a_node5"><a xlink:href="../../d0/db3/classKicadModule2Svg.html#af5e75c1391ddfaf5fc0df39a13bfa6df" target="_top" xlink:title=" ">
<polygon fill="#ffffff" stroke="#000000" points="424,-76.5 424,-95.5 575,-95.5 575,-76.5 424,-76.5"/>
<text text-anchor="middle" x="499.5" y="-83.5" font-family="Helvetica,sans-Serif" font-size="10.00" fill="#000000">KicadModule2Svg::getColor</text>
</a>
</g>
</g>
<!-- Node188&#45;&gt;Node191 -->
<g id="edge4" class="edge">
<title>Node188&#45;&gt;Node191</title>
<path fill="none" stroke="#191970" d="M388.2234,-78.3446C396.6717,-78.9258 405.2085,-79.5131 413.5979,-80.0903"/>
<polygon fill="#191970" stroke="#191970" points="413.5255,-83.5935 423.7422,-80.7882 414.006,-76.61 413.5255,-83.5935"/>
</g>
<!-- Node192 -->
<g id="node6" class="node">
<title>Node192</title>
<g id="a_node6"><a xlink:href="../../d4/d08/misc_8h.html#aec6ff9c887dc8733e787bf81a01492fd" target="_top" xlink:title=" ">
<polygon fill="#ffffff" stroke="#000000" points="479,-.5 479,-19.5 520,-19.5 520,-.5 479,-.5"/>
<text text-anchor="middle" x="499.5" y="-7.5" font-family="Helvetica,sans-Serif" font-size="10.00" fill="#000000">qMin</text>
</a>
</g>
</g>
<!-- Node188&#45;&gt;Node192 -->
<g id="edge6" class="edge">
<title>Node188&#45;&gt;Node192</title>
<path fill="none" stroke="#191970" d="M357.9069,-56.9911C368.0723,-54.0107 378.4123,-50.6581 388,-47 404.7134,-40.6232 407.2274,-35.2194 424,-29 438.4414,-23.645 454.9858,-19.2927 468.8996,-16.1114"/>
<polygon fill="#191970" stroke="#191970" points="469.9291,-19.4689 478.9483,-13.9098 468.4309,-12.6311 469.9291,-19.4689"/>
</g>
<!-- Node190 -->
<g id="node4" class="node">
<title>Node190</title>
<g id="a_node4"><a xlink:href="../../da/d3a/classDebugDialog.html#ad26216d18945d7d7188420707b76f241" target="_top" xlink:title=" ">
<polygon fill="#ffffff" stroke="#000000" points="611,-57.5 611,-76.5 727,-76.5 727,-57.5 611,-57.5"/>
<text text-anchor="middle" x="669" y="-64.5" font-family="Helvetica,sans-Serif" font-size="10.00" fill="#000000">DebugDialog::debug</text>
</a>
</g>
</g>
<!-- Node189&#45;&gt;Node190 -->
<g id="edge3" class="edge">
<title>Node189&#45;&gt;Node190</title>
<path fill="none" stroke="#191970" d="M551.7387,-53.8557C567.2049,-55.5893 584.3737,-57.5139 600.6962,-59.3435"/>
<polygon fill="#191970" stroke="#191970" points="600.3993,-62.8321 610.727,-60.4679 601.1792,-55.8757 600.3993,-62.8321"/>
</g>
<!-- Node191&#45;&gt;Node190 -->
<g id="edge5" class="edge">
<title>Node191&#45;&gt;Node190</title>
<path fill="none" stroke="#191970" d="M575.3263,-77.5003C583.7861,-76.552 592.3659,-75.5903 600.7234,-74.6534"/>
<polygon fill="#191970" stroke="#191970" points="601.2366,-78.1179 610.7845,-73.5256 600.4568,-71.1615 601.2366,-78.1179"/>
</g>
<!-- Node193&#45;&gt;Node189 -->
<g id="edge9" class="edge">
<title>Node193&#45;&gt;Node189</title>
<path fill="none" stroke="#191970" d="M381.1232,-33.4574C399.8786,-35.7615 419.4088,-38.1608 437.0708,-40.3306"/>
<polygon fill="#191970" stroke="#191970" points="436.8819,-43.8336 447.2341,-41.5791 437.7355,-36.8858 436.8819,-43.8336"/>
</g>
<!-- Node193&#45;&gt;Node191 -->
<g id="edge8" class="edge">
<title>Node193&#45;&gt;Node191</title>
<path fill="none" stroke="#191970" d="M361.9917,-38.0536C370.8491,-40.6996 379.726,-43.6843 388,-47 404.9899,-53.8085 406.9808,-60.265 424,-67 430.2487,-69.4728 436.918,-71.7017 443.6088,-73.6882"/>
<polygon fill="#191970" stroke="#191970" points="442.8072,-77.0984 453.3806,-76.4255 444.6954,-70.3578 442.8072,-77.0984"/>
</g>
<!-- Node193&#45;&gt;Node192 -->
<g id="edge10" class="edge">
<title>Node193&#45;&gt;Node192</title>
<path fill="none" stroke="#191970" d="M381.1232,-17.5622C412.1511,-15.58 445.2992,-13.4625 468.602,-11.9738"/>
<polygon fill="#191970" stroke="#191970" points="469.1286,-15.4474 478.8851,-11.3169 468.6823,-8.4617 469.1286,-15.4474"/>
</g>
</g>
</svg>
