<?xml version="1.0" encoding="UTF-8" standalone="no"?>
<!DOCTYPE svg PUBLIC "-//W3C//DTD SVG 1.1//EN"
 "http://www.w3.org/Graphics/SVG/1.1/DTD/svg11.dtd">
<!-- Generated by graphviz version 2.40.1 (0)
 -->
<!-- Title: KicadModule2Svg::drawVerticalOblong Pages: 1 -->
<svg width="517pt" height="104pt"
 viewBox="0.00 0.00 517.00 104.00" xmlns="http://www.w3.org/2000/svg" xmlns:xlink="http://www.w3.org/1999/xlink">
<g id="graph0" class="graph" transform="scale(1 1) rotate(0) translate(4 100)">
<title>KicadModule2Svg::drawVerticalOblong</title>
<polygon fill="#ffffff" stroke="transparent" points="-4,4 -4,-100 513,-100 513,4 -4,4"/>
<!-- Node228 -->
<g id="node1" class="node">
<title>Node228</title>
<g id="a_node1"><a xlink:title=" ">
<polygon fill="#bfbfbf" stroke="#000000" points="0,-33 0,-63 170,-63 170,-33 0,-33"/>
<text text-anchor="start" x="8" y="-51" font-family="Helvetica,sans-Serif" font-size="10.00" fill="#000000">KicadModule2Svg::drawVertical</text>
<text text-anchor="middle" x="85" y="-40" font-family="Helvetica,sans-Serif" font-size="10.00" fill="#000000">Oblong</text>
</a>
</g>
</g>
<!-- Node229 -->
<g id="node2" class="node">
<title>Node229</title>
<g id="a_node2"><a xlink:href="../../df/dca/kicadmodule2svg_8cpp.html#a6960c07841fd33915d54c6c39e640de2" target="_top" xlink:title=" ">
<polygon fill="#ffffff" stroke="#000000" points="229.5,-76.5 229.5,-95.5 333.5,-95.5 333.5,-76.5 229.5,-76.5"/>
<text text-anchor="middle" x="281.5" y="-83.5" font-family="Helvetica,sans-Serif" font-size="10.00" fill="#000000">checkStrokeWidth</text>
</a>
</g>
</g>
<!-- Node228&#45;&gt;Node229 -->
<g id="edge1" class="edge">
<title>Node228&#45;&gt;Node229</title>
<path fill="none" stroke="#191970" d="M162.662,-63.0186C182.5763,-66.8697 203.6721,-70.9493 222.4748,-74.5855"/>
<polygon fill="#191970" stroke="#191970" points="221.8876,-78.0367 232.3702,-76.4991 223.2167,-71.164 221.8876,-78.0367"/>
</g>
<!-- Node231 -->
<g id="node4" class="node">
<title>Node231</title>
<g id="a_node4"><a xlink:href="../../d0/db3/classKicadModule2Svg.html#af5e75c1391ddfaf5fc0df39a13bfa6df" target="_top" xlink:title=" ">
<polygon fill="#ffffff" stroke="#000000" points="206,-38.5 206,-57.5 357,-57.5 357,-38.5 206,-38.5"/>
<text text-anchor="middle" x="281.5" y="-45.5" font-family="Helvetica,sans-Serif" font-size="10.00" fill="#000000">KicadModule2Svg::getColor</text>
</a>
</g>
</g>
<!-- Node228&#45;&gt;Node231 -->
<g id="edge3" class="edge">
<title>Node228&#45;&gt;Node231</title>
<path fill="none" stroke="#191970" d="M170.0449,-48C178.5251,-48 187.139,-48 195.6276,-48"/>
<polygon fill="#191970" stroke="#191970" points="195.9024,-51.5001 205.9023,-48 195.9023,-44.5001 195.9024,-51.5001"/>
</g>
<!-- Node232 -->
<g id="node5" class="node">
<title>Node232</title>
<g id="a_node5"><a xlink:href="../../d4/d08/misc_8h.html#aec6ff9c887dc8733e787bf81a01492fd" target="_top" xlink:title=" ">
<polygon fill="#ffffff" stroke="#000000" points="261,-.5 261,-19.5 302,-19.5 302,-.5 261,-.5"/>
<text text-anchor="middle" x="281.5" y="-7.5" font-family="Helvetica,sans-Serif" font-size="10.00" fill="#000000">qMin</text>
</a>
</g>
</g>
<!-- Node228&#45;&gt;Node232 -->
<g id="edge5" class="edge">
<title>Node228&#45;&gt;Node232</title>
<path fill="none" stroke="#191970" d="M162.662,-32.9814C193.5473,-27.0087 227.2746,-20.4863 250.8817,-15.9211"/>
<polygon fill="#191970" stroke="#191970" points="251.816,-19.3054 260.9695,-13.9703 250.4868,-12.4327 251.816,-19.3054"/>
</g>
<!-- Node230 -->
<g id="node3" class="node">
<title>Node230</title>
<g id="a_node3"><a xlink:href="../../da/d3a/classDebugDialog.html#ad26216d18945d7d7188420707b76f241" target="_top" xlink:title=" ">
<polygon fill="#ffffff" stroke="#000000" points="393,-57.5 393,-76.5 509,-76.5 509,-57.5 393,-57.5"/>
<text text-anchor="middle" x="451" y="-64.5" font-family="Helvetica,sans-Serif" font-size="10.00" fill="#000000">DebugDialog::debug</text>
</a>
</g>
</g>
<!-- Node229&#45;&gt;Node230 -->
<g id="edge2" class="edge">
<title>Node229&#45;&gt;Node230</title>
<path fill="none" stroke="#191970" d="M333.7387,-80.1443C349.2049,-78.4107 366.3737,-76.4861 382.6962,-74.6565"/>
<polygon fill="#191970" stroke="#191970" points="383.1792,-78.1243 392.727,-73.5321 382.3993,-71.1679 383.1792,-78.1243"/>
</g>
<!-- Node231&#45;&gt;Node230 -->
<g id="edge4" class="edge">
<title>Node231&#45;&gt;Node230</title>
<path fill="none" stroke="#191970" d="M357.3263,-56.4997C365.7861,-57.448 374.3659,-58.4097 382.7234,-59.3466"/>
<polygon fill="#191970" stroke="#191970" points="382.4568,-62.8385 392.7845,-60.4744 383.2366,-55.8821 382.4568,-62.8385"/>
</g>
</g>
</svg>
