<?xml version="1.0" encoding="UTF-8" standalone="no"?>
<!DOCTYPE svg PUBLIC "-//W3C//DTD SVG 1.1//EN"
 "http://www.w3.org/Graphics/SVG/1.1/DTD/svg11.dtd">
<!-- Generated by graphviz version 2.40.1 (0)
 -->
<!-- Title: KicadModule2Svg::convertPad Pages: 1 -->
<!--zoomable 452 -->
<svg id="main" version="1.1" xmlns="http://www.w3.org/2000/svg" xmlns:xlink="http://www.w3.org/1999/xlink" xml:space="preserve" onload="init(evt)">
<style type="text/css"><![CDATA[
.edge:hover path { stroke: red; }
.edge:hover polygon { stroke: red; fill: red; }
]]></style>
<script type="text/javascript"><![CDATA[
var edges = document.getElementsByTagName('g');
if (edges && edges.length) {
  for (var i=0;i<edges.length;i++) {
    if (edges[i].id.substr(0,4)=='edge') {
      edges[i].setAttribute('class','edge');
    }
  }
}
]]></script>
        <defs>
                <circle id="rim" cx="0" cy="0" r="7"/>
                <circle id="rim2" cx="0" cy="0" r="3.5"/>
                <g id="zoomPlus">
                        <use xlink:href="#rim" fill="#404040">
                                <set attributeName="fill" to="#808080" begin="zoomplus.mouseover" end="zoomplus.mouseout"/>
                        </use>
                        <path d="M-4,0h8M0,-4v8" fill="none" stroke="white" stroke-width="1.5" pointer-events="none"/>
                </g>
                <g id="zoomMin">
                        <use xlink:href="#rim" fill="#404040">
                                <set attributeName="fill" to="#808080" begin="zoomminus.mouseover" end="zoomminus.mouseout"/>
                        </use>
                        <path d="M-4,0h8" fill="none" stroke="white" stroke-width="1.5" pointer-events="none"/>
                </g>
                <g id="dirArrow">
                        <path fill="none" stroke="white" stroke-width="1.5" d="M0,-3.0v7 M-2.5,-0.5L0,-3.0L2.5,-0.5"/>
                </g>
               <g id="resetDef">
                       <use xlink:href="#rim2" fill="#404040">
                               <set attributeName="fill" to="#808080" begin="reset.mouseover" end="reset.mouseout"/>
                       </use>
               </g>
        </defs>

<script type="text/javascript">
var viewWidth = 1139;
var viewHeight = 452;
var sectionId = 'dynsection-6';
</script>
<script xlink:href="../../svgpan.js"/>
<svg id="graph" class="graph">
<g id="viewport">
<title>KicadModule2Svg::convertPad</title>
<polygon fill="#ffffff" stroke="transparent" points="-4,4 -4,-447.5142 1135,-447.5142 1135,4 -4,4"/>
<!-- Node75 -->
<g id="node1" class="node">
<title>Node75</title>
<g id="a_node1"><a xlink:title=" ">
<polygon fill="#bfbfbf" stroke="#000000" points="0,-215.0142 0,-234.0142 164,-234.0142 164,-215.0142 0,-215.0142"/>
<text text-anchor="middle" x="82" y="-222.0142" font-family="Helvetica,sans-Serif" font-size="10.00" fill="#000000">KicadModule2Svg::convertPad</text>
</a>
</g>
</g>
<!-- Node76 -->
<g id="node2" class="node">
<title>Node76</title>
<g id="a_node2"><a xlink:href="../../d0/db3/classKicadModule2Svg.html#a1488047884d4ecfa613ec80af607f7ec" target="_top" xlink:title=" ">
<polygon fill="#ffffff" stroke="#000000" points="200,-386.0142 200,-405.0142 368,-405.0142 368,-386.0142 200,-386.0142"/>
<text text-anchor="middle" x="284" y="-393.0142" font-family="Helvetica,sans-Serif" font-size="10.00" fill="#000000">KicadModule2Svg::checkLimits</text>
</a>
</g>
</g>
<!-- Node75&#45;&gt;Node76 -->
<g id="edge1" class="edge">
<title>Node75&#45;&gt;Node76</title>
<path fill="none" stroke="#191970" d="M86.9096,-234.1076C100.839,-260.3469 143.2998,-333.8494 200,-371.5142 206.7362,-375.9889 214.3104,-379.6408 222.0813,-382.6185"/>
<polygon fill="#191970" stroke="#191970" points="221.0197,-385.9548 231.6145,-385.9262 223.3144,-379.3415 221.0197,-385.9548"/>
</g>
<!-- Node79 -->
<g id="node5" class="node">
<title>Node79</title>
<g id="a_node5"><a xlink:href="../../da/d3a/classDebugDialog.html#ad26216d18945d7d7188420707b76f241" target="_top" xlink:title=" ">
<polygon fill="#ffffff" stroke="#000000" points="1015,-183.0142 1015,-202.0142 1131,-202.0142 1131,-183.0142 1015,-183.0142"/>
<text text-anchor="middle" x="1073" y="-190.0142" font-family="Helvetica,sans-Serif" font-size="10.00" fill="#000000">DebugDialog::debug</text>
</a>
</g>
</g>
<!-- Node75&#45;&gt;Node79 -->
<g id="edge4" class="edge">
<title>Node75&#45;&gt;Node79</title>
<path fill="none" stroke="#191970" d="M98.3813,-234.0792C152.2082,-264.5749 329.2724,-357.5142 488,-357.5142 488,-357.5142 488,-357.5142 700,-357.5142 846.5606,-357.5142 999.9543,-249.6567 1053.3279,-208.3485"/>
<polygon fill="#191970" stroke="#191970" points="1055.5867,-211.025 1061.2935,-202.0985 1051.2656,-205.5179 1055.5867,-211.025"/>
</g>
<!-- Node80 -->
<g id="node6" class="node">
<title>Node80</title>
<g id="a_node6"><a xlink:href="../../d0/db3/classKicadModule2Svg.html#aef4c2009a7a690e5c593c2543a388d62" target="_top" xlink:title=" ">
<polygon fill="#ffffff" stroke="#000000" points="205,-234.0142 205,-253.0142 363,-253.0142 363,-234.0142 205,-234.0142"/>
<text text-anchor="middle" x="284" y="-241.0142" font-family="Helvetica,sans-Serif" font-size="10.00" fill="#000000">KicadModule2Svg::drawCPad</text>
</a>
</g>
</g>
<!-- Node75&#45;&gt;Node80 -->
<g id="edge5" class="edge">
<title>Node75&#45;&gt;Node80</title>
<path fill="none" stroke="#191970" d="M164.1611,-232.2422C174.2374,-233.19 184.5731,-234.1621 194.7475,-235.1191"/>
<polygon fill="#191970" stroke="#191970" points="194.5688,-238.6177 204.8526,-236.0696 195.2244,-231.6485 194.5688,-238.6177"/>
</g>
<!-- Node82 -->
<g id="node8" class="node">
<title>Node82</title>
<g id="a_node8"><a xlink:href="../../d0/db3/classKicadModule2Svg.html#a777bac90e0d9163c08bf655f98572906" target="_top" xlink:title=" ">
<polygon fill="#ffffff" stroke="#000000" points="420,-272.0142 420,-291.0142 556,-291.0142 556,-272.0142 420,-272.0142"/>
<text text-anchor="middle" x="488" y="-279.0142" font-family="Helvetica,sans-Serif" font-size="10.00" fill="#000000">KicadModule2Svg::getID</text>
</a>
</g>
</g>
<!-- Node75&#45;&gt;Node82 -->
<g id="edge29" class="edge">
<title>Node75&#45;&gt;Node82</title>
<path fill="none" stroke="#191970" d="M105.9532,-234.1523C129.4785,-243.1552 166.5987,-256.135 200,-262.5142 270.1113,-275.9043 351.3683,-280.2758 409.6595,-281.5193"/>
<polygon fill="#191970" stroke="#191970" points="409.8397,-285.0232 419.9033,-281.7107 409.9705,-278.0244 409.8397,-285.0232"/>
</g>
<!-- Node85 -->
<g id="node11" class="node">
<title>Node85</title>
<g id="a_node11"><a xlink:href="../../d0/db3/classKicadModule2Svg.html#a6a75ac71bb15b8806afe382c2aeb221d" target="_top" xlink:title=" ">
<polygon fill="#ffffff" stroke="#000000" points="404,-82.0142 404,-101.0142 572,-101.0142 572,-82.0142 404,-82.0142"/>
<text text-anchor="middle" x="488" y="-89.0142" font-family="Helvetica,sans-Serif" font-size="10.00" fill="#000000">KicadModule2Svg::drawOblong</text>
</a>
</g>
</g>
<!-- Node75&#45;&gt;Node85 -->
<g id="edge21" class="edge">
<title>Node75&#45;&gt;Node85</title>
<path fill="none" stroke="#191970" d="M109.4485,-214.9075C133.2316,-206.7686 168.653,-195.0885 200,-186.5142 273.8404,-166.3168 300.1758,-184.0138 368,-148.5142 387.2302,-138.4489 385.0583,-126.1124 404,-115.5142 412.2518,-110.8971 421.4662,-107.1055 430.6851,-104.0111"/>
<polygon fill="#191970" stroke="#191970" points="431.7452,-107.3468 440.2535,-101.0334 429.6651,-100.663 431.7452,-107.3468"/>
</g>
<!-- Node89 -->
<g id="node15" class="node">
<title>Node89</title>
<g id="a_node15"><a xlink:href="../../d0/db3/classKicadModule2Svg.html#a0c61a95e4a0c43126e29466752a6649f" target="_top" xlink:title=" ">
<polygon fill="#ffffff" stroke="#000000" points="205,-196.0142 205,-215.0142 363,-215.0142 363,-196.0142 205,-196.0142"/>
<text text-anchor="middle" x="284" y="-203.0142" font-family="Helvetica,sans-Serif" font-size="10.00" fill="#000000">KicadModule2Svg::drawRPad</text>
</a>
</g>
</g>
<!-- Node75&#45;&gt;Node89 -->
<g id="edge22" class="edge">
<title>Node75&#45;&gt;Node89</title>
<path fill="none" stroke="#191970" d="M164.1611,-216.7862C174.2374,-215.8384 184.5731,-214.8662 194.7475,-213.9092"/>
<polygon fill="#191970" stroke="#191970" points="195.2244,-217.3799 204.8526,-212.9587 194.5688,-210.4107 195.2244,-217.3799"/>
</g>
<!-- Node90 -->
<g id="node16" class="node">
<title>Node90</title>
<g id="a_node16"><a xlink:href="../../de/db8/classTextUtils.html#aae59ccde68185d89fa39ba44a9878bed" target="_top" xlink:title=" ">
<polygon fill="#ffffff" stroke="#000000" points="218.5,-120.0142 218.5,-139.0142 349.5,-139.0142 349.5,-120.0142 218.5,-120.0142"/>
<text text-anchor="middle" x="284" y="-127.0142" font-family="Helvetica,sans-Serif" font-size="10.00" fill="#000000">TextUtils::svgTransform</text>
</a>
</g>
</g>
<!-- Node75&#45;&gt;Node90 -->
<g id="edge30" class="edge">
<title>Node75&#45;&gt;Node90</title>
<path fill="none" stroke="#191970" d="M95.1773,-214.9858C116.3463,-200.0562 159.6539,-171.049 200,-153.5142 210.2238,-149.0708 221.5012,-145.2005 232.3844,-141.9405"/>
<polygon fill="#191970" stroke="#191970" points="233.5784,-145.2393 242.2269,-139.1193 231.6495,-138.5103 233.5784,-145.2393"/>
</g>
<!-- Node91 -->
<g id="node17" class="node">
<title>Node91</title>
<g id="a_node17"><a xlink:href="../../d7/d2f/classX2Svg.html#a6db3c582094dce1d148bd3c985ef4700" target="_top" xlink:title=" ">
<polygon fill="#ffffff" stroke="#000000" points="237.5,-82.0142 237.5,-101.0142 330.5,-101.0142 330.5,-82.0142 237.5,-82.0142"/>
<text text-anchor="middle" x="284" y="-89.0142" font-family="Helvetica,sans-Serif" font-size="10.00" fill="#000000">X2Svg::unquote</text>
</a>
</g>
</g>
<!-- Node75&#45;&gt;Node91 -->
<g id="edge31" class="edge">
<title>Node75&#45;&gt;Node91</title>
<path fill="none" stroke="#191970" d="M89.024,-214.7575C105.6114,-192.4849 149.6259,-137.7272 200,-110.5142 208.4942,-105.9255 218.0474,-102.4428 227.585,-99.8002"/>
<polygon fill="#191970" stroke="#191970" points="228.6149,-103.1507 237.4736,-97.3392 226.9243,-96.3579 228.6149,-103.1507"/>
</g>
<!-- Node77 -->
<g id="node3" class="node">
<title>Node77</title>
<g id="a_node3"><a xlink:href="../../d7/d2f/classX2Svg.html#a316531cb3067bf8c016a226d0256192a" target="_top" xlink:title=" ">
<polygon fill="#ffffff" stroke="#000000" points="431.5,-386.0142 431.5,-405.0142 544.5,-405.0142 544.5,-386.0142 431.5,-386.0142"/>
<text text-anchor="middle" x="488" y="-393.0142" font-family="Helvetica,sans-Serif" font-size="10.00" fill="#000000">X2Svg::checkXLimit</text>
</a>
</g>
</g>
<!-- Node76&#45;&gt;Node77 -->
<g id="edge2" class="edge">
<title>Node76&#45;&gt;Node77</title>
<path fill="none" stroke="#191970" d="M368.1524,-395.5142C385.7851,-395.5142 404.1522,-395.5142 421.0568,-395.5142"/>
<polygon fill="#191970" stroke="#191970" points="421.3736,-399.0143 431.3736,-395.5142 421.3736,-392.0143 421.3736,-399.0143"/>
</g>
<!-- Node78 -->
<g id="node4" class="node">
<title>Node78</title>
<g id="a_node4"><a xlink:href="../../d7/d2f/classX2Svg.html#a6a4c7a105bd250ed9362170d2115c942" target="_top" xlink:title=" ">
<polygon fill="#ffffff" stroke="#000000" points="431.5,-424.0142 431.5,-443.0142 544.5,-443.0142 544.5,-424.0142 431.5,-424.0142"/>
<text text-anchor="middle" x="488" y="-431.0142" font-family="Helvetica,sans-Serif" font-size="10.00" fill="#000000">X2Svg::checkYLimit</text>
</a>
</g>
</g>
<!-- Node76&#45;&gt;Node78 -->
<g id="edge3" class="edge">
<title>Node76&#45;&gt;Node78</title>
<path fill="none" stroke="#191970" d="M335.2145,-405.0541C362.9812,-410.2264 397.4891,-416.6543 426.6806,-422.0919"/>
<polygon fill="#191970" stroke="#191970" points="426.2926,-425.5798 436.7644,-423.9703 427.5745,-418.6982 426.2926,-425.5798"/>
</g>
<!-- Node81 -->
<g id="node7" class="node">
<title>Node81</title>
<g id="a_node7"><a xlink:href="../../d0/db3/classKicadModule2Svg.html#af5e75c1391ddfaf5fc0df39a13bfa6df" target="_top" xlink:title=" ">
<polygon fill="#ffffff" stroke="#000000" points="828,-183.0142 828,-202.0142 979,-202.0142 979,-183.0142 828,-183.0142"/>
<text text-anchor="middle" x="903.5" y="-190.0142" font-family="Helvetica,sans-Serif" font-size="10.00" fill="#000000">KicadModule2Svg::getColor</text>
</a>
</g>
</g>
<!-- Node80&#45;&gt;Node81 -->
<g id="edge6" class="edge">
<title>Node80&#45;&gt;Node81</title>
<path fill="none" stroke="#191970" d="M298.7408,-253.1885C320.6274,-266.9135 363.5008,-291.3844 404,-300.5142 583.7448,-341.0341 800.5804,-244.737 876.0382,-206.9378"/>
<polygon fill="#191970" stroke="#191970" points="878,-209.8671 885.3308,-202.218 874.8299,-203.626 878,-209.8671"/>
</g>
<!-- Node80&#45;&gt;Node82 -->
<g id="edge8" class="edge">
<title>Node80&#45;&gt;Node82</title>
<path fill="none" stroke="#191970" d="M335.2145,-253.0541C362.9812,-258.2264 397.4891,-264.6543 426.6806,-270.0919"/>
<polygon fill="#191970" stroke="#191970" points="426.2926,-273.5798 436.7644,-271.9703 427.5745,-266.6982 426.2926,-273.5798"/>
</g>
<!-- Node83 -->
<g id="node9" class="node">
<title>Node83</title>
<g id="a_node9"><a xlink:href="../../df/dca/kicadmodule2svg_8cpp.html#a6960c07841fd33915d54c6c39e640de2" target="_top" xlink:title=" ">
<polygon fill="#ffffff" stroke="#000000" points="851.5,-126.0142 851.5,-145.0142 955.5,-145.0142 955.5,-126.0142 851.5,-126.0142"/>
<text text-anchor="middle" x="903.5" y="-133.0142" font-family="Helvetica,sans-Serif" font-size="10.00" fill="#000000">checkStrokeWidth</text>
</a>
</g>
</g>
<!-- Node80&#45;&gt;Node83 -->
<g id="edge9" class="edge">
<title>Node80&#45;&gt;Node83</title>
<path fill="none" stroke="#191970" d="M363.0148,-242.4718C421.153,-240.6956 501.925,-236.1167 572,-224.5142 680.5946,-206.5339 805.0666,-168.1645 865.9653,-148.1907"/>
<polygon fill="#191970" stroke="#191970" points="867.1326,-151.4912 875.5312,-145.0326 864.9381,-144.8441 867.1326,-151.4912"/>
</g>
<!-- Node84 -->
<g id="node10" class="node">
<title>Node84</title>
<g id="a_node10"><a xlink:href="../../d4/d08/misc_8h.html#ae7cc352fa1dc81e57ff53ebbc762f27d" target="_top" xlink:title=" ">
<polygon fill="#ffffff" stroke="#000000" points="466,-196.0142 466,-215.0142 510,-215.0142 510,-196.0142 466,-196.0142"/>
<text text-anchor="middle" x="488" y="-203.0142" font-family="Helvetica,sans-Serif" font-size="10.00" fill="#000000">qMax</text>
</a>
</g>
</g>
<!-- Node80&#45;&gt;Node84 -->
<g id="edge11" class="edge">
<title>Node80&#45;&gt;Node84</title>
<path fill="none" stroke="#191970" d="M335.2145,-233.9742C372.964,-226.9424 423.1732,-217.5897 455.5436,-211.56"/>
<polygon fill="#191970" stroke="#191970" points="456.6038,-214.9228 465.7938,-209.6506 455.3219,-208.0411 456.6038,-214.9228"/>
</g>
<!-- Node80&#45;&gt;Node85 -->
<g id="edge12" class="edge">
<title>Node80&#45;&gt;Node85</title>
<path fill="none" stroke="#191970" d="M346.6671,-233.8866C354.1266,-231.4378 361.4192,-228.3664 368,-224.5142 371.3078,-222.5779 440.7193,-144.7117 472.4353,-109.0389"/>
<polygon fill="#191970" stroke="#191970" points="475.2562,-111.1336 479.2829,-101.3338 470.0238,-106.4835 475.2562,-111.1336"/>
</g>
<!-- Node81&#45;&gt;Node79 -->
<g id="edge7" class="edge">
<title>Node81&#45;&gt;Node79</title>
<path fill="none" stroke="#191970" d="M979.3263,-192.5142C987.7861,-192.5142 996.3659,-192.5142 1004.7234,-192.5142"/>
<polygon fill="#191970" stroke="#191970" points="1004.7845,-196.0143 1014.7845,-192.5142 1004.7844,-189.0143 1004.7845,-196.0143"/>
</g>
<!-- Node83&#45;&gt;Node79 -->
<g id="edge10" class="edge">
<title>Node83&#45;&gt;Node79</title>
<path fill="none" stroke="#191970" d="M931.8705,-145.0547C960.1037,-154.549 1003.6144,-169.181 1034.8587,-179.6879"/>
<polygon fill="#191970" stroke="#191970" points="1033.9429,-183.0725 1044.537,-182.9425 1036.1742,-176.4376 1033.9429,-183.0725"/>
</g>
<!-- Node86 -->
<g id="node12" class="node">
<title>Node86</title>
<g id="a_node12"><a xlink:href="../../d0/db3/classKicadModule2Svg.html#a5fc7b8ad8938093e4db0fff836d5395e" target="_top" xlink:title=" ">
<polygon fill="#ffffff" stroke="#000000" points="615,-76.5142 615,-106.5142 785,-106.5142 785,-76.5142 615,-76.5142"/>
<text text-anchor="start" x="623" y="-94.5142" font-family="Helvetica,sans-Serif" font-size="10.00" fill="#000000">KicadModule2Svg::drawVertical</text>
<text text-anchor="middle" x="700" y="-83.5142" font-family="Helvetica,sans-Serif" font-size="10.00" fill="#000000">Oblong</text>
</a>
</g>
</g>
<!-- Node85&#45;&gt;Node86 -->
<g id="edge13" class="edge">
<title>Node85&#45;&gt;Node86</title>
<path fill="none" stroke="#191970" d="M572.0925,-91.5142C582.8906,-91.5142 594.0059,-91.5142 604.9632,-91.5142"/>
<polygon fill="#191970" stroke="#191970" points="604.968,-95.0143 614.968,-91.5142 604.968,-88.0143 604.968,-95.0143"/>
</g>
<!-- Node88 -->
<g id="node14" class="node">
<title>Node88</title>
<g id="a_node14"><a xlink:href="../../d0/db3/classKicadModule2Svg.html#ae4b1329a4f409c3be7073296b01449d8" target="_top" xlink:title=" ">
<polygon fill="#ffffff" stroke="#000000" points="608,-27.5142 608,-57.5142 792,-57.5142 792,-27.5142 608,-27.5142"/>
<text text-anchor="start" x="616" y="-45.5142" font-family="Helvetica,sans-Serif" font-size="10.00" fill="#000000">KicadModule2Svg::drawHorizontal</text>
<text text-anchor="middle" x="700" y="-34.5142" font-family="Helvetica,sans-Serif" font-size="10.00" fill="#000000">Oblong</text>
</a>
</g>
</g>
<!-- Node85&#45;&gt;Node88 -->
<g id="edge17" class="edge">
<title>Node85&#45;&gt;Node88</title>
<path fill="none" stroke="#191970" d="M529.1271,-82.0084C556.2987,-75.7281 592.711,-67.3121 624.9405,-59.8628"/>
<polygon fill="#191970" stroke="#191970" points="625.8387,-63.2476 634.7936,-57.5855 624.2623,-56.4274 625.8387,-63.2476"/>
</g>
<!-- Node86&#45;&gt;Node81 -->
<g id="edge14" class="edge">
<title>Node86&#45;&gt;Node81</title>
<path fill="none" stroke="#191970" d="M730.466,-106.6349C769.6147,-126.065 837.0564,-159.5373 875.1517,-178.4445"/>
<polygon fill="#191970" stroke="#191970" points="873.6561,-181.6096 884.1696,-182.9202 876.7682,-175.3393 873.6561,-181.6096"/>
</g>
<!-- Node86&#45;&gt;Node83 -->
<g id="edge15" class="edge">
<title>Node86&#45;&gt;Node83</title>
<path fill="none" stroke="#191970" d="M769.464,-106.5334C795.6744,-112.2005 825.0735,-118.5571 849.6448,-123.8698"/>
<polygon fill="#191970" stroke="#191970" points="848.9912,-127.3093 859.5051,-126.0018 850.4706,-120.4674 848.9912,-127.3093"/>
</g>
<!-- Node87 -->
<g id="node13" class="node">
<title>Node87</title>
<g id="a_node13"><a xlink:href="../../d4/d08/misc_8h.html#aec6ff9c887dc8733e787bf81a01492fd" target="_top" xlink:title=" ">
<polygon fill="#ffffff" stroke="#000000" points="883,-33.0142 883,-52.0142 924,-52.0142 924,-33.0142 883,-33.0142"/>
<text text-anchor="middle" x="903.5" y="-40.0142" font-family="Helvetica,sans-Serif" font-size="10.00" fill="#000000">qMin</text>
</a>
</g>
</g>
<!-- Node86&#45;&gt;Node87 -->
<g id="edge16" class="edge">
<title>Node86&#45;&gt;Node87</title>
<path fill="none" stroke="#191970" d="M762.4397,-76.4796C799.0676,-67.6601 843.7265,-56.9068 872.8492,-49.8945"/>
<polygon fill="#191970" stroke="#191970" points="873.9292,-53.2345 882.832,-47.4907 872.2905,-46.429 873.9292,-53.2345"/>
</g>
<!-- Node88&#45;&gt;Node81 -->
<g id="edge18" class="edge">
<title>Node88&#45;&gt;Node81</title>
<path fill="none" stroke="#191970" d="M777.5902,-57.6814C782.7733,-60.4375 787.652,-63.6861 792,-67.5142 823.408,-95.1665 799.5243,-123.8507 828,-154.5142 837.7079,-164.9679 850.9309,-172.9621 863.5991,-178.8572"/>
<polygon fill="#191970" stroke="#191970" points="862.5428,-182.2132 873.1111,-182.962 865.3164,-175.7862 862.5428,-182.2132"/>
</g>
<!-- Node88&#45;&gt;Node83 -->
<g id="edge19" class="edge">
<title>Node88&#45;&gt;Node83</title>
<path fill="none" stroke="#191970" d="M764.6393,-57.5859C773.9668,-60.4755 783.3344,-63.784 792,-67.5142 825.3135,-81.8543 860.5287,-104.8232 882.2623,-120.0386"/>
<polygon fill="#191970" stroke="#191970" points="880.2576,-122.9077 890.4376,-125.8433 884.3101,-117.2001 880.2576,-122.9077"/>
</g>
<!-- Node88&#45;&gt;Node87 -->
<g id="edge20" class="edge">
<title>Node88&#45;&gt;Node87</title>
<path fill="none" stroke="#191970" d="M792.2234,-42.5142C821.1917,-42.5142 851.1991,-42.5142 872.7424,-42.5142"/>
<polygon fill="#191970" stroke="#191970" points="872.8911,-46.0143 882.891,-42.5142 872.891,-39.0143 872.8911,-46.0143"/>
</g>
<!-- Node89&#45;&gt;Node81 -->
<g id="edge23" class="edge">
<title>Node89&#45;&gt;Node81</title>
<path fill="none" stroke="#191970" d="M332.8361,-196.001C354.5361,-192.2354 380.4488,-188.3671 404,-186.5142 548.8148,-175.1206 717.9605,-181.205 817.6043,-186.7735"/>
<polygon fill="#191970" stroke="#191970" points="817.4378,-190.2696 827.6209,-187.3447 817.8364,-183.281 817.4378,-190.2696"/>
</g>
<!-- Node89&#45;&gt;Node82 -->
<g id="edge24" class="edge">
<title>Node89&#45;&gt;Node82</title>
<path fill="none" stroke="#191970" d="M334.7016,-215.081C345.804,-217.7008 357.402,-220.8492 368,-224.5142 401.5265,-236.1084 438.084,-254.3464 461.928,-267.0596"/>
<polygon fill="#191970" stroke="#191970" points="460.5561,-270.2965 471.0183,-271.9679 463.882,-264.137 460.5561,-270.2965"/>
</g>
<!-- Node89&#45;&gt;Node83 -->
<g id="edge26" class="edge">
<title>Node89&#45;&gt;Node83</title>
<path fill="none" stroke="#191970" d="M316.0403,-195.9706C340.0407,-189.1981 373.8017,-180.4633 404,-175.5142 560.1399,-149.9247 746.5345,-140.5058 841.3874,-137.1967"/>
<polygon fill="#191970" stroke="#191970" points="841.5093,-140.6946 851.3854,-136.8588 841.2728,-133.6986 841.5093,-140.6946"/>
</g>
<!-- Node89&#45;&gt;Node84 -->
<g id="edge27" class="edge">
<title>Node89&#45;&gt;Node84</title>
<path fill="none" stroke="#191970" d="M363.1637,-205.5142C395.3588,-205.5142 430.7534,-205.5142 455.6063,-205.5142"/>
<polygon fill="#191970" stroke="#191970" points="455.9025,-209.0143 465.9025,-205.5142 455.9025,-202.0143 455.9025,-209.0143"/>
</g>
<!-- Node89&#45;&gt;Node85 -->
<g id="edge28" class="edge">
<title>Node89&#45;&gt;Node85</title>
<path fill="none" stroke="#191970" d="M340.7767,-195.9674C350.5309,-192.5329 360.0658,-187.8633 368,-181.5142 394.0886,-160.6376 377.9114,-136.3908 404,-115.5142 409.3308,-111.2484 415.3841,-107.7407 421.7411,-104.8564"/>
<polygon fill="#191970" stroke="#191970" points="423.24,-108.0265 431.2233,-101.061 420.6387,-101.5278 423.24,-108.0265"/>
</g>
<!-- Node89&#45;&gt;Node87 -->
<g id="edge25" class="edge">
<title>Node89&#45;&gt;Node87</title>
<path fill="none" stroke="#191970" d="M303.8932,-195.9606C322.4814,-186.2032 349.9959,-169.525 368,-148.5142 392.3198,-120.1331 375.3147,-96.4744 404,-72.5142 543.2127,43.767 787.6063,-9.6721 873.0086,-33.3356"/>
<polygon fill="#191970" stroke="#191970" points="872.2702,-36.7642 882.8458,-36.1267 874.1809,-30.03 872.2702,-36.7642"/>
</g>
</g>
</svg>
        <g id="navigator" transform="translate(0 0)" fill="#404254">
                <rect fill="#f2f5e9" fill-opacity="0.5" stroke="#606060" stroke-width=".5" x="0" y="0" width="60" height="60"/>
                <use id="zoomplus" xlink:href="#zoomPlus" x="17" y="9" onmousedown="handleZoom(evt,'in')"/>
                <use id="zoomminus" xlink:href="#zoomMin" x="42" y="9" onmousedown="handleZoom(evt,'out')"/>
                <use id="reset" xlink:href="#resetDef" x="30" y="36" onmousedown="handleReset()"/>
                <g id="arrowUp" xlink:href="#dirArrow" transform="translate(30 24)" onmousedown="handlePan(0,-1)">
                  <use xlink:href="#rim" fill="#404040">
                        <set attributeName="fill" to="#808080" begin="arrowUp.mouseover" end="arrowUp.mouseout"/>
                  </use>
                  <path fill="none" stroke="white" stroke-width="1.5" d="M0,-3.0v7 M-2.5,-0.5L0,-3.0L2.5,-0.5"/>
                </g>
                <g id="arrowRight" xlink:href="#dirArrow" transform="rotate(90) translate(36 -43)" onmousedown="handlePan(1,0)">
                  <use xlink:href="#rim" fill="#404040">
                        <set attributeName="fill" to="#808080" begin="arrowRight.mouseover" end="arrowRight.mouseout"/>
                  </use>
                  <path fill="none" stroke="white" stroke-width="1.5" d="M0,-3.0v7 M-2.5,-0.5L0,-3.0L2.5,-0.5"/>
                </g>
                <g id="arrowDown" xlink:href="#dirArrow" transform="rotate(180) translate(-30 -48)" onmousedown="handlePan(0,1)">
                  <use xlink:href="#rim" fill="#404040">
                        <set attributeName="fill" to="#808080" begin="arrowDown.mouseover" end="arrowDown.mouseout"/>
                  </use>
                  <path fill="none" stroke="white" stroke-width="1.5" d="M0,-3.0v7 M-2.5,-0.5L0,-3.0L2.5,-0.5"/>
                </g>
                <g id="arrowLeft" xlink:href="#dirArrow" transform="rotate(270) translate(-36 17)" onmousedown="handlePan(-1,0)">
                  <use xlink:href="#rim" fill="#404040">
                        <set attributeName="fill" to="#808080" begin="arrowLeft.mouseover" end="arrowLeft.mouseout"/>
                  </use>
                  <path fill="none" stroke="white" stroke-width="1.5" d="M0,-3.0v7 M-2.5,-0.5L0,-3.0L2.5,-0.5"/>
                </g>
        </g>
        <svg viewBox="0 0 15 15" width="100%" height="30px" preserveAspectRatio="xMaxYMin meet">
         <g id="arrow_out" transform="scale(0.3 0.3)">
          <a xlink:href="classKicadModule2Svg_a0c8aa4cc2422a763c242230b370398e0_cgraph_org.svg" target="_base">
           <rect id="button" ry="5" rx="5" y="6" x="6" height="38" width="38"
                fill="#f2f5e9" fill-opacity="0.5" stroke="#606060" stroke-width="1.0"/>
           <path id="arrow"
             d="M 11.500037,31.436501 C 11.940474,20.09759 22.043105,11.32322 32.158766,21.979434 L 37.068811,17.246167 C 37.068811,17.246167 37.088388,32 37.088388,32 L 22.160133,31.978069 C 22.160133,31.978069 26.997745,27.140456 26.997745,27.140456 C 18.528582,18.264221 13.291696,25.230495 11.500037,31.436501 z"
             style="fill:#404040;"/>
          </a>
         </g>
        </svg>
</svg>
