<?xml version="1.0" encoding="UTF-8" standalone="no"?>
<!DOCTYPE svg PUBLIC "-//W3C//DTD SVG 1.1//EN"
 "http://www.w3.org/Graphics/SVG/1.1/DTD/svg11.dtd">
<!-- Generated by graphviz version 2.40.1 (0)
 -->
<!-- Title: ZoomSlider::minusClicked Pages: 1 -->
<svg width="638pt" height="66pt"
 viewBox="0.00 0.00 638.00 66.00" xmlns="http://www.w3.org/2000/svg" xmlns:xlink="http://www.w3.org/1999/xlink">
<g id="graph0" class="graph" transform="scale(1 1) rotate(0) translate(4 62)">
<title>ZoomSlider::minusClicked</title>
<polygon fill="#ffffff" stroke="transparent" points="-4,4 -4,-62 634,-62 634,4 -4,4"/>
<!-- Node15 -->
<g id="node1" class="node">
<title>Node15</title>
<g id="a_node1"><a xlink:title=" ">
<polygon fill="#bfbfbf" stroke="#000000" points="0,-19.5 0,-38.5 144,-38.5 144,-19.5 0,-19.5"/>
<text text-anchor="middle" x="72" y="-26.5" font-family="Helvetica,sans-Serif" font-size="10.00" fill="#000000">ZoomSlider::minusClicked</text>
</a>
</g>
</g>
<!-- Node16 -->
<g id="node2" class="node">
<title>Node16</title>
<g id="a_node2"><a xlink:href="../../da/da8/classZoomSlider.html#aa1c43b860b759864f0356170f6fcaff9" target="_top" xlink:title=" ">
<polygon fill="#ffffff" stroke="#000000" points="180,-19.5 180,-38.5 280,-38.5 280,-19.5 180,-19.5"/>
<text text-anchor="middle" x="230" y="-26.5" font-family="Helvetica,sans-Serif" font-size="10.00" fill="#000000">ZoomSlider::step</text>
</a>
</g>
</g>
<!-- Node15&#45;&gt;Node16 -->
<g id="edge1" class="edge">
<title>Node15&#45;&gt;Node16</title>
<path fill="none" stroke="#191970" d="M144.0646,-29C152.6282,-29 161.3013,-29 169.6773,-29"/>
<polygon fill="#191970" stroke="#191970" points="169.7195,-32.5001 179.7194,-29 169.7194,-25.5001 169.7195,-32.5001"/>
</g>
<!-- Node17 -->
<g id="node3" class="node">
<title>Node17</title>
<g id="a_node3"><a xlink:href="../../da/da8/classZoomSlider.html#ad27b4c6a6075c2be1f69bd2b2730df1c" target="_top" xlink:title=" ">
<polygon fill="#ffffff" stroke="#000000" points="498.5,-38.5 498.5,-57.5 604.5,-57.5 604.5,-38.5 498.5,-38.5"/>
<text text-anchor="middle" x="551.5" y="-45.5" font-family="Helvetica,sans-Serif" font-size="10.00" fill="#000000">ZoomSlider::value</text>
</a>
</g>
</g>
<!-- Node16&#45;&gt;Node17 -->
<g id="edge2" class="edge">
<title>Node16&#45;&gt;Node17</title>
<path fill="none" stroke="#191970" d="M280.2344,-31.9688C336.3286,-35.2838 427.2215,-40.6554 488.1499,-44.2561"/>
<polygon fill="#191970" stroke="#191970" points="488.2217,-47.7664 498.4108,-44.8625 488.6347,-40.7786 488.2217,-47.7664"/>
</g>
<!-- Node18 -->
<g id="node4" class="node">
<title>Node18</title>
<g id="a_node4"><a xlink:href="../../da/da8/classZoomSlider.html#a322455a9c103cb3aec4c0ba1cd020766" target="_top" xlink:title=" ">
<polygon fill="#ffffff" stroke="#000000" points="316,-.5 316,-19.5 437,-19.5 437,-.5 316,-.5"/>
<text text-anchor="middle" x="376.5" y="-7.5" font-family="Helvetica,sans-Serif" font-size="10.00" fill="#000000">ZoomSlider::setValue</text>
</a>
</g>
</g>
<!-- Node16&#45;&gt;Node18 -->
<g id="edge3" class="edge">
<title>Node16&#45;&gt;Node18</title>
<path fill="none" stroke="#191970" d="M280.0072,-22.5144C288.2885,-21.4404 297.012,-20.309 305.6897,-19.1836"/>
<polygon fill="#191970" stroke="#191970" points="306.3596,-22.6261 315.8264,-17.8689 305.4593,-15.6842 306.3596,-22.6261"/>
</g>
<!-- Node18&#45;&gt;Node17 -->
<g id="edge4" class="edge">
<title>Node18&#45;&gt;Node17</title>
<path fill="none" stroke="#191970" d="M420.6599,-19.589C444.0651,-24.6713 473.0053,-30.9554 497.7121,-36.3203"/>
<polygon fill="#191970" stroke="#191970" points="497.1427,-39.7782 507.6577,-38.4799 498.6281,-32.9376 497.1427,-39.7782"/>
</g>
<!-- Node19 -->
<g id="node5" class="node">
<title>Node19</title>
<g id="a_node5"><a xlink:href="../../da/da8/classZoomSlider.html#ade387f44631380be9f6f087c5ec449a2" target="_top" xlink:title=" ">
<polygon fill="#ffffff" stroke="#000000" points="473,-.5 473,-19.5 630,-19.5 630,-.5 473,-.5"/>
<text text-anchor="middle" x="551.5" y="-7.5" font-family="Helvetica,sans-Serif" font-size="10.00" fill="#000000">ZoomSlider::sliderTextEdited</text>
</a>
</g>
</g>
<!-- Node18&#45;&gt;Node19 -->
<g id="edge5" class="edge">
<title>Node18&#45;&gt;Node19</title>
<path fill="none" stroke="#191970" d="M437.2154,-10C445.4461,-10 454.0267,-10 462.6251,-10"/>
<polygon fill="#191970" stroke="#191970" points="462.707,-13.5001 472.707,-10 462.707,-6.5001 462.707,-13.5001"/>
</g>
</g>
</svg>
