<?xml version="1.0" encoding="UTF-8" standalone="no"?>
<!DOCTYPE svg PUBLIC "-//W3C//DTD SVG 1.1//EN"
 "http://www.w3.org/Graphics/SVG/1.1/DTD/svg11.dtd">
<!-- Generated by graphviz version 2.40.1 (0)
 -->
<!-- Title: ZoomSlider::value Pages: 1 -->
<!--zoomable 123 -->
<svg id="main" version="1.1" xmlns="http://www.w3.org/2000/svg" xmlns:xlink="http://www.w3.org/1999/xlink" xml:space="preserve" onload="init(evt)">
<style type="text/css"><![CDATA[
.edge:hover path { stroke: red; }
.edge:hover polygon { stroke: red; fill: red; }
]]></style>
<script type="text/javascript"><![CDATA[
var edges = document.getElementsByTagName('g');
if (edges && edges.length) {
  for (var i=0;i<edges.length;i++) {
    if (edges[i].id.substr(0,4)=='edge') {
      edges[i].setAttribute('class','edge');
    }
  }
}
]]></script>
        <defs>
                <circle id="rim" cx="0" cy="0" r="7"/>
                <circle id="rim2" cx="0" cy="0" r="3.5"/>
                <g id="zoomPlus">
                        <use xlink:href="#rim" fill="#404040">
                                <set attributeName="fill" to="#808080" begin="zoomplus.mouseover" end="zoomplus.mouseout"/>
                        </use>
                        <path d="M-4,0h8M0,-4v8" fill="none" stroke="white" stroke-width="1.5" pointer-events="none"/>
                </g>
                <g id="zoomMin">
                        <use xlink:href="#rim" fill="#404040">
                                <set attributeName="fill" to="#808080" begin="zoomminus.mouseover" end="zoomminus.mouseout"/>
                        </use>
                        <path d="M-4,0h8" fill="none" stroke="white" stroke-width="1.5" pointer-events="none"/>
                </g>
                <g id="dirArrow">
                        <path fill="none" stroke="white" stroke-width="1.5" d="M0,-3.0v7 M-2.5,-0.5L0,-3.0L2.5,-0.5"/>
                </g>
               <g id="resetDef">
                       <use xlink:href="#rim2" fill="#404040">
                               <set attributeName="fill" to="#808080" begin="reset.mouseover" end="reset.mouseout"/>
                       </use>
               </g>
        </defs>

<script type="text/javascript">
var viewWidth = 794;
var viewHeight = 123;
var sectionId = 'dynsection-15';
</script>
<script xlink:href="../../svgpan.js"/>
<svg id="graph" class="graph">
<g id="viewport">
<title>ZoomSlider::value</title>
<polygon fill="#ffffff" stroke="transparent" points="-4,4 -4,-119 790,-119 790,4 -4,4"/>
<!-- Node71 -->
<g id="node1" class="node">
<title>Node71</title>
<g id="a_node1"><a xlink:title=" ">
<polygon fill="#bfbfbf" stroke="#000000" points="680,-38.5 680,-57.5 786,-57.5 786,-38.5 680,-38.5"/>
<text text-anchor="middle" x="733" y="-45.5" font-family="Helvetica,sans-Serif" font-size="10.00" fill="#000000">ZoomSlider::value</text>
</a>
</g>
</g>
<!-- Node72 -->
<g id="node2" class="node">
<title>Node72</title>
<g id="a_node2"><a xlink:href="../../da/da8/classZoomSlider.html#a322455a9c103cb3aec4c0ba1cd020766" target="_top" xlink:title=" ">
<polygon fill="#ffffff" stroke="#000000" points="505,-76.5 505,-95.5 626,-95.5 626,-76.5 505,-76.5"/>
<text text-anchor="middle" x="565.5" y="-83.5" font-family="Helvetica,sans-Serif" font-size="10.00" fill="#000000">ZoomSlider::setValue</text>
</a>
</g>
</g>
<!-- Node71&#45;&gt;Node72 -->
<g id="edge1" class="edge">
<title>Node71&#45;&gt;Node72</title>
<path fill="none" stroke="#191970" d="M680.8799,-59.8243C657.2653,-65.1816 629.718,-71.4311 607.4634,-76.4799"/>
<polygon fill="#191970" stroke="#191970" points="681.7549,-63.2148 690.7327,-57.589 680.2061,-56.3883 681.7549,-63.2148"/>
</g>
<!-- Node73 -->
<g id="node3" class="node">
<title>Node73</title>
<g id="a_node3"><a xlink:href="../../da/da8/classZoomSlider.html#aa1c43b860b759864f0356170f6fcaff9" target="_top" xlink:title=" ">
<polygon fill="#ffffff" stroke="#000000" points="351,-57.5 351,-76.5 451,-76.5 451,-57.5 351,-57.5"/>
<text text-anchor="middle" x="401" y="-64.5" font-family="Helvetica,sans-Serif" font-size="10.00" fill="#000000">ZoomSlider::step</text>
</a>
</g>
</g>
<!-- Node71&#45;&gt;Node73 -->
<g id="edge9" class="edge">
<title>Node71&#45;&gt;Node73</title>
<path fill="none" stroke="#191970" d="M669.3682,-51.6416C605.8545,-55.2764 509.5436,-60.7882 451.2194,-64.126"/>
<polygon fill="#191970" stroke="#191970" points="669.8748,-55.1184 679.6585,-51.0527 669.4748,-48.1298 669.8748,-55.1184"/>
</g>
<!-- Node79 -->
<g id="node9" class="node">
<title>Node79</title>
<g id="a_node9"><a xlink:href="../../da/da8/classZoomSlider.html#aa85f73f67d040ebe84375a5626c212cb" target="_top" xlink:title=" ">
<polygon fill="#ffffff" stroke="#000000" points="487,-.5 487,-19.5 644,-19.5 644,-.5 487,-.5"/>
<text text-anchor="middle" x="565.5" y="-7.5" font-family="Helvetica,sans-Serif" font-size="10.00" fill="#000000">ZoomSlider::sliderTextEdited</text>
</a>
</g>
</g>
<!-- Node71&#45;&gt;Node79 -->
<g id="edge10" class="edge">
<title>Node71&#45;&gt;Node79</title>
<path fill="none" stroke="#191970" d="M680.8799,-36.1757C657.2653,-30.8184 629.718,-24.5689 607.4634,-19.5201"/>
<polygon fill="#191970" stroke="#191970" points="680.2061,-39.6117 690.7327,-38.411 681.7549,-32.7852 680.2061,-39.6117"/>
</g>
<!-- Node72&#45;&gt;Node73 -->
<g id="edge2" class="edge">
<title>Node72&#45;&gt;Node73</title>
<path fill="none" stroke="#191970" d="M494.6515,-77.8169C479.9691,-76.121 464.7924,-74.3681 451.042,-72.7799"/>
<polygon fill="#191970" stroke="#191970" points="494.3781,-81.3085 504.7136,-78.9791 495.1813,-74.3547 494.3781,-81.3085"/>
</g>
<!-- Node74 -->
<g id="node4" class="node">
<title>Node74</title>
<g id="a_node4"><a xlink:href="../../da/da8/classZoomSlider.html#afaec36b1b644dd9b1e3fff7ab40f940b" target="_top" xlink:title=" ">
<polygon fill="#ffffff" stroke="#000000" points="171,-76.5 171,-95.5 315,-95.5 315,-76.5 171,-76.5"/>
<text text-anchor="middle" x="243" y="-83.5" font-family="Helvetica,sans-Serif" font-size="10.00" fill="#000000">ZoomSlider::minusClicked</text>
</a>
</g>
</g>
<!-- Node73&#45;&gt;Node74 -->
<g id="edge3" class="edge">
<title>Node73&#45;&gt;Node74</title>
<path fill="none" stroke="#191970" d="M340.5851,-74.2651C332.2556,-75.2667 323.6339,-76.3035 315.1195,-77.3274"/>
<polygon fill="#191970" stroke="#191970" points="341.0628,-77.7329 350.5734,-73.064 340.227,-70.783 341.0628,-77.7329"/>
</g>
<!-- Node77 -->
<g id="node7" class="node">
<title>Node77</title>
<g id="a_node7"><a xlink:href="../../da/da8/classZoomSlider.html#afbd08ad85a36b12b2ad5d44b14405e76" target="_top" xlink:title=" ">
<polygon fill="#ffffff" stroke="#000000" points="176,-38.5 176,-57.5 310,-57.5 310,-38.5 176,-38.5"/>
<text text-anchor="middle" x="243" y="-45.5" font-family="Helvetica,sans-Serif" font-size="10.00" fill="#000000">ZoomSlider::plusClicked</text>
</a>
</g>
</g>
<!-- Node73&#45;&gt;Node77 -->
<g id="edge6" class="edge">
<title>Node73&#45;&gt;Node77</title>
<path fill="none" stroke="#191970" d="M340.451,-59.7188C330.5691,-58.5305 320.2792,-57.2931 310.2479,-56.0868"/>
<polygon fill="#191970" stroke="#191970" points="340.227,-63.217 350.5734,-60.936 341.0628,-56.2671 340.227,-63.217"/>
</g>
<!-- Node75 -->
<g id="node5" class="node">
<title>Node75</title>
<g id="a_node5"><a xlink:href="../../da/da8/classZoomSlider.html#a63e4f02ccada927d1dc191738cdc1cf6" target="_top" xlink:title=" ">
<polygon fill="#ffffff" stroke="#000000" points="0,-57.5 0,-76.5 135,-76.5 135,-57.5 0,-57.5"/>
<text text-anchor="middle" x="67.5" y="-64.5" font-family="Helvetica,sans-Serif" font-size="10.00" fill="#000000">ZoomSlider::ZoomSlider</text>
</a>
</g>
</g>
<!-- Node74&#45;&gt;Node75 -->
<g id="edge4" class="edge">
<title>Node74&#45;&gt;Node75</title>
<path fill="none" stroke="#191970" d="M160.8138,-77.1023C152.2129,-76.1712 143.5405,-75.2323 135.1288,-74.3216"/>
<polygon fill="#191970" stroke="#191970" points="160.539,-80.593 170.8577,-78.1897 161.2925,-73.6336 160.539,-80.593"/>
</g>
<!-- Node76 -->
<g id="node6" class="node">
<title>Node76</title>
<g id="a_node6"><a xlink:href="../../da/da8/classZoomSlider.html#a6c4184ea774eb8efdc994d0722242f30" target="_top" xlink:title=" ">
<polygon fill="#ffffff" stroke="#000000" points="6,-95.5 6,-114.5 129,-114.5 129,-95.5 6,-95.5"/>
<text text-anchor="middle" x="67.5" y="-102.5" font-family="Helvetica,sans-Serif" font-size="10.00" fill="#000000">ZoomSlider::zoomOut</text>
</a>
</g>
</g>
<!-- Node74&#45;&gt;Node76 -->
<g id="edge5" class="edge">
<title>Node74&#45;&gt;Node76</title>
<path fill="none" stroke="#191970" d="M160.6859,-94.9115C150.0207,-96.0661 139.248,-97.2324 129.0013,-98.3417"/>
<polygon fill="#191970" stroke="#191970" points="161.2925,-98.3664 170.8577,-93.8103 160.539,-91.407 161.2925,-98.3664"/>
</g>
<!-- Node77&#45;&gt;Node75 -->
<g id="edge7" class="edge">
<title>Node77&#45;&gt;Node75</title>
<path fill="none" stroke="#191970" d="M165.7785,-56.3602C155.5721,-57.4651 145.1729,-58.591 135.144,-59.6767"/>
<polygon fill="#191970" stroke="#191970" points="166.3346,-59.8205 175.8998,-55.2644 165.5811,-52.8612 166.3346,-59.8205"/>
</g>
<!-- Node78 -->
<g id="node8" class="node">
<title>Node78</title>
<g id="a_node8"><a xlink:href="../../da/da8/classZoomSlider.html#a58c3b499fdf5cf1a92b3b2aa1ce10fae" target="_top" xlink:title=" ">
<polygon fill="#ffffff" stroke="#000000" points="10,-19.5 10,-38.5 125,-38.5 125,-19.5 10,-19.5"/>
<text text-anchor="middle" x="67.5" y="-26.5" font-family="Helvetica,sans-Serif" font-size="10.00" fill="#000000">ZoomSlider::zoomIn</text>
</a>
</g>
</g>
<!-- Node77&#45;&gt;Node78 -->
<g id="edge8" class="edge">
<title>Node77&#45;&gt;Node78</title>
<path fill="none" stroke="#191970" d="M165.5889,-39.6193C151.9911,-38.1472 138.0574,-36.6387 125.1186,-35.2379"/>
<polygon fill="#191970" stroke="#191970" points="165.5811,-43.1388 175.8998,-40.7356 166.3346,-36.1795 165.5811,-43.1388"/>
</g>
</g>
</svg>
        <g id="navigator" transform="translate(0 0)" fill="#404254">
                <rect fill="#f2f5e9" fill-opacity="0.5" stroke="#606060" stroke-width=".5" x="0" y="0" width="60" height="60"/>
                <use id="zoomplus" xlink:href="#zoomPlus" x="17" y="9" onmousedown="handleZoom(evt,'in')"/>
                <use id="zoomminus" xlink:href="#zoomMin" x="42" y="9" onmousedown="handleZoom(evt,'out')"/>
                <use id="reset" xlink:href="#resetDef" x="30" y="36" onmousedown="handleReset()"/>
                <g id="arrowUp" xlink:href="#dirArrow" transform="translate(30 24)" onmousedown="handlePan(0,-1)">
                  <use xlink:href="#rim" fill="#404040">
                        <set attributeName="fill" to="#808080" begin="arrowUp.mouseover" end="arrowUp.mouseout"/>
                  </use>
                  <path fill="none" stroke="white" stroke-width="1.5" d="M0,-3.0v7 M-2.5,-0.5L0,-3.0L2.5,-0.5"/>
                </g>
                <g id="arrowRight" xlink:href="#dirArrow" transform="rotate(90) translate(36 -43)" onmousedown="handlePan(1,0)">
                  <use xlink:href="#rim" fill="#404040">
                        <set attributeName="fill" to="#808080" begin="arrowRight.mouseover" end="arrowRight.mouseout"/>
                  </use>
                  <path fill="none" stroke="white" stroke-width="1.5" d="M0,-3.0v7 M-2.5,-0.5L0,-3.0L2.5,-0.5"/>
                </g>
                <g id="arrowDown" xlink:href="#dirArrow" transform="rotate(180) translate(-30 -48)" onmousedown="handlePan(0,1)">
                  <use xlink:href="#rim" fill="#404040">
                        <set attributeName="fill" to="#808080" begin="arrowDown.mouseover" end="arrowDown.mouseout"/>
                  </use>
                  <path fill="none" stroke="white" stroke-width="1.5" d="M0,-3.0v7 M-2.5,-0.5L0,-3.0L2.5,-0.5"/>
                </g>
                <g id="arrowLeft" xlink:href="#dirArrow" transform="rotate(270) translate(-36 17)" onmousedown="handlePan(-1,0)">
                  <use xlink:href="#rim" fill="#404040">
                        <set attributeName="fill" to="#808080" begin="arrowLeft.mouseover" end="arrowLeft.mouseout"/>
                  </use>
                  <path fill="none" stroke="white" stroke-width="1.5" d="M0,-3.0v7 M-2.5,-0.5L0,-3.0L2.5,-0.5"/>
                </g>
        </g>
        <svg viewBox="0 0 15 15" width="100%" height="30px" preserveAspectRatio="xMaxYMin meet">
         <g id="arrow_out" transform="scale(0.3 0.3)">
          <a xlink:href="classZoomSlider_ad27b4c6a6075c2be1f69bd2b2730df1c_icgraph_org.svg" target="_base">
           <rect id="button" ry="5" rx="5" y="6" x="6" height="38" width="38"
                fill="#f2f5e9" fill-opacity="0.5" stroke="#606060" stroke-width="1.0"/>
           <path id="arrow"
             d="M 11.500037,31.436501 C 11.940474,20.09759 22.043105,11.32322 32.158766,21.979434 L 37.068811,17.246167 C 37.068811,17.246167 37.088388,32 37.088388,32 L 22.160133,31.978069 C 22.160133,31.978069 26.997745,27.140456 26.997745,27.140456 C 18.528582,18.264221 13.291696,25.230495 11.500037,31.436501 z"
             style="fill:#404040;"/>
          </a>
         </g>
        </svg>
</svg>
