<?xml version="1.0" encoding="UTF-8" standalone="no"?>
<!DOCTYPE svg PUBLIC "-//W3C//DTD SVG 1.1//EN"
 "http://www.w3.org/Graphics/SVG/1.1/DTD/svg11.dtd">
<!-- Generated by graphviz version 2.40.1 (0)
 -->
<!-- Title: FixFontsDialog::FixFontsDialog Pages: 1 -->
<svg width="1105pt" height="39pt"
 viewBox="0.00 0.00 1105.00 39.00" xmlns="http://www.w3.org/2000/svg" xmlns:xlink="http://www.w3.org/1999/xlink">
<g id="graph0" class="graph" transform="scale(1 1) rotate(0) translate(4 35)">
<title>FixFontsDialog::FixFontsDialog</title>
<polygon fill="#ffffff" stroke="transparent" points="-4,4 -4,-35 1101,-35 1101,4 -4,4"/>
<!-- Node3 -->
<g id="node1" class="node">
<title>Node3</title>
<g id="a_node1"><a xlink:title=" ">
<polygon fill="#bfbfbf" stroke="#000000" points="962,-.5 962,-30.5 1097,-30.5 1097,-.5 962,-.5"/>
<text text-anchor="start" x="970" y="-18.5" font-family="Helvetica,sans-Serif" font-size="10.00" fill="#000000">FixFontsDialog::FixFonts</text>
<text text-anchor="middle" x="1029.5" y="-7.5" font-family="Helvetica,sans-Serif" font-size="10.00" fill="#000000">Dialog</text>
</a>
</g>
</g>
<!-- Node4 -->
<g id="node2" class="node">
<title>Node4</title>
<g id="a_node2"><a xlink:href="../../dc/d38/classFixFontsDialog.html#a352b6281d2c1a9e68fcc4cbc6862f81d" target="_top" xlink:title=" ">
<polygon fill="#ffffff" stroke="#000000" points="793,-6 793,-25 926,-25 926,-6 793,-6"/>
<text text-anchor="middle" x="859.5" y="-13" font-family="Helvetica,sans-Serif" font-size="10.00" fill="#000000">FixFontsDialog::fixFonts</text>
</a>
</g>
</g>
<!-- Node3&#45;&gt;Node4 -->
<g id="edge1" class="edge">
<title>Node3&#45;&gt;Node4</title>
<path fill="none" stroke="#191970" d="M951.8127,-15.5C943.2281,-15.5 934.5433,-15.5 926.112,-15.5"/>
<polygon fill="#191970" stroke="#191970" points="951.8231,-19.0001 961.823,-15.5 951.823,-12.0001 951.8231,-19.0001"/>
</g>
<!-- Node5 -->
<g id="node3" class="node">
<title>Node5</title>
<g id="a_node3"><a xlink:href="../../d8/d37/classPartsEditorView.html#a295b6daed074b25a406f6d9e68ca394e" target="_top" xlink:title=" ">
<polygon fill="#ffffff" stroke="#000000" points="588,-.5 588,-30.5 757,-30.5 757,-.5 588,-.5"/>
<text text-anchor="start" x="596" y="-18.5" font-family="Helvetica,sans-Serif" font-size="10.00" fill="#000000">PartsEditorView::fixUnavailable</text>
<text text-anchor="middle" x="672.5" y="-7.5" font-family="Helvetica,sans-Serif" font-size="10.00" fill="#000000">FontFamilies</text>
</a>
</g>
</g>
<!-- Node4&#45;&gt;Node5 -->
<g id="edge2" class="edge">
<title>Node4&#45;&gt;Node5</title>
<path fill="none" stroke="#191970" d="M782.6452,-15.5C774.2451,-15.5 765.6597,-15.5 757.1722,-15.5"/>
<polygon fill="#191970" stroke="#191970" points="782.7807,-19.0001 792.7807,-15.5 782.7806,-12.0001 782.7807,-19.0001"/>
</g>
<!-- Node6 -->
<g id="node4" class="node">
<title>Node6</title>
<g id="a_node4"><a xlink:href="../../d8/d37/classPartsEditorView.html#a5e43e001e8936c57453d2635c6c6d836" target="_top" xlink:title=" ">
<polygon fill="#ffffff" stroke="#000000" points="415,-6 415,-25 552,-25 552,-6 415,-6"/>
<text text-anchor="middle" x="483.5" y="-13" font-family="Helvetica,sans-Serif" font-size="10.00" fill="#000000">PartsEditorView::fixFonts</text>
</a>
</g>
</g>
<!-- Node5&#45;&gt;Node6 -->
<g id="edge3" class="edge">
<title>Node5&#45;&gt;Node6</title>
<path fill="none" stroke="#191970" d="M577.7993,-15.5C569.138,-15.5 560.4791,-15.5 552.1134,-15.5"/>
<polygon fill="#191970" stroke="#191970" points="577.9504,-19.0001 587.9504,-15.5 577.9503,-12.0001 577.9504,-19.0001"/>
</g>
<!-- Node7 -->
<g id="node5" class="node">
<title>Node7</title>
<g id="a_node5"><a xlink:href="../../d8/d37/classPartsEditorView.html#a1b417523ea5b5ec8fd77963cb90e45ad" target="_top" xlink:title=" ">
<polygon fill="#ffffff" stroke="#000000" points="191,-6 191,-25 379,-25 379,-6 191,-6"/>
<text text-anchor="middle" x="285" y="-13" font-family="Helvetica,sans-Serif" font-size="10.00" fill="#000000">PartsEditorView::beforeSVGLoading</text>
</a>
</g>
</g>
<!-- Node6&#45;&gt;Node7 -->
<g id="edge4" class="edge">
<title>Node6&#45;&gt;Node7</title>
<path fill="none" stroke="#191970" d="M404.7637,-15.5C396.3481,-15.5 387.7267,-15.5 379.1561,-15.5"/>
<polygon fill="#191970" stroke="#191970" points="404.9096,-19.0001 414.9096,-15.5 404.9096,-12.0001 404.9096,-19.0001"/>
</g>
<!-- Node8 -->
<g id="node6" class="node">
<title>Node8</title>
<g id="a_node6"><a xlink:href="../../d8/d37/classPartsEditorView.html#aed7a897a96a6f8c69001b38908502a3f" target="_top" xlink:title=" ">
<polygon fill="#ffffff" stroke="#000000" points="0,-6 0,-25 155,-25 155,-6 0,-6"/>
<text text-anchor="middle" x="77.5" y="-13" font-family="Helvetica,sans-Serif" font-size="10.00" fill="#000000">PartsEditorView::loadSvgFile</text>
</a>
</g>
</g>
<!-- Node7&#45;&gt;Node8 -->
<g id="edge5" class="edge">
<title>Node7&#45;&gt;Node8</title>
<path fill="none" stroke="#191970" d="M180.8036,-15.5C172.1378,-15.5 163.4761,-15.5 155.0604,-15.5"/>
<polygon fill="#191970" stroke="#191970" points="180.9639,-19.0001 190.9639,-15.5 180.9639,-12.0001 180.9639,-19.0001"/>
</g>
</g>
</svg>
