<?xml version="1.0" encoding="UTF-8" standalone="no"?>
<!DOCTYPE svg PUBLIC "-//W3C//DTD SVG 1.1//EN"
 "http://www.w3.org/Graphics/SVG/1.1/DTD/svg11.dtd">
<!-- Generated by graphviz version 2.40.1 (0)
 -->
<!-- Title: StackTabBar::dragMoveEvent Pages: 1 -->
<svg width="353pt" height="116pt"
 viewBox="0.00 0.00 353.00 115.50" xmlns="http://www.w3.org/2000/svg" xmlns:xlink="http://www.w3.org/1999/xlink">
<g id="graph0" class="graph" transform="scale(1 1) rotate(0) translate(4 111.5)">
<title>StackTabBar::dragMoveEvent</title>
<polygon fill="#ffffff" stroke="transparent" points="-4,4 -4,-111.5 349,-111.5 349,4 -4,4"/>
<!-- Node33 -->
<g id="node1" class="node">
<title>Node33</title>
<g id="a_node1"><a xlink:title=" ">
<polygon fill="#bfbfbf" stroke="#000000" points="0,-38.5 0,-57.5 159,-57.5 159,-38.5 0,-38.5"/>
<text text-anchor="middle" x="79.5" y="-45.5" font-family="Helvetica,sans-Serif" font-size="10.00" fill="#000000">StackTabBar::dragMoveEvent</text>
</a>
</g>
</g>
<!-- Node34 -->
<g id="node2" class="node">
<title>Node34</title>
<g id="a_node2"><a xlink:href="../../de/d4e/classPartsBinPaletteWidget.html#a364f715afb0f268936a6ba62689c601f" target="_top" xlink:title=" ">
<polygon fill="#ffffff" stroke="#000000" points="207.5,-77 207.5,-107 332.5,-107 332.5,-77 207.5,-77"/>
<text text-anchor="start" x="215.5" y="-95" font-family="Helvetica,sans-Serif" font-size="10.00" fill="#000000">PartsBinPaletteWidget</text>
<text text-anchor="middle" x="270" y="-84" font-family="Helvetica,sans-Serif" font-size="10.00" fill="#000000">::allowsChanges</text>
</a>
</g>
</g>
<!-- Node33&#45;&gt;Node34 -->
<g id="edge1" class="edge">
<title>Node33&#45;&gt;Node34</title>
<path fill="none" stroke="#191970" d="M120.8357,-57.5473C143.2502,-62.7245 171.6041,-69.2734 197.5576,-75.2679"/>
<polygon fill="#191970" stroke="#191970" points="196.8385,-78.6939 207.3696,-77.5342 198.4138,-71.8734 196.8385,-78.6939"/>
</g>
<!-- Node35 -->
<g id="node3" class="node">
<title>Node35</title>
<g id="a_node3"><a xlink:href="../../da/d3a/classDebugDialog.html#ad26216d18945d7d7188420707b76f241" target="_top" xlink:title=" ">
<polygon fill="#ffffff" stroke="#000000" points="212,-38.5 212,-57.5 328,-57.5 328,-38.5 212,-38.5"/>
<text text-anchor="middle" x="270" y="-45.5" font-family="Helvetica,sans-Serif" font-size="10.00" fill="#000000">DebugDialog::debug</text>
</a>
</g>
</g>
<!-- Node33&#45;&gt;Node35 -->
<g id="edge2" class="edge">
<title>Node33&#45;&gt;Node35</title>
<path fill="none" stroke="#191970" d="M159.1854,-48C173.2411,-48 187.7616,-48 201.4775,-48"/>
<polygon fill="#191970" stroke="#191970" points="201.7884,-51.5001 211.7883,-48 201.7883,-44.5001 201.7884,-51.5001"/>
</g>
<!-- Node36 -->
<g id="node4" class="node">
<title>Node36</title>
<g id="a_node4"><a xlink:href="../../df/d74/classStackTabBar.html#a92b6b245d539431b1f0b9d91b2913287" target="_top" xlink:title=" ">
<polygon fill="#ffffff" stroke="#000000" points="195,-.5 195,-19.5 345,-19.5 345,-.5 195,-.5"/>
<text text-anchor="middle" x="270" y="-7.5" font-family="Helvetica,sans-Serif" font-size="10.00" fill="#000000">StackTabBar::mimeIsAction</text>
</a>
</g>
</g>
<!-- Node33&#45;&gt;Node36 -->
<g id="edge3" class="edge">
<title>Node33&#45;&gt;Node36</title>
<path fill="none" stroke="#191970" d="M127.5712,-38.411C153.2759,-33.2835 185.1134,-26.9328 212.1642,-21.5368"/>
<polygon fill="#191970" stroke="#191970" points="213.1524,-24.9087 222.2745,-19.5201 211.783,-18.044 213.1524,-24.9087"/>
</g>
</g>
</svg>
