<?xml version="1.0" encoding="UTF-8" standalone="no"?>
<!DOCTYPE svg PUBLIC "-//W3C//DTD SVG 1.1//EN"
 "http://www.w3.org/Graphics/SVG/1.1/DTD/svg11.dtd">
<!-- Generated by graphviz version 2.40.1 (0)
 -->
<!-- Title: ConnectionThing::add Pages: 1 -->
<svg width="820pt" height="66pt"
 viewBox="0.00 0.00 820.00 66.00" xmlns="http://www.w3.org/2000/svg" xmlns:xlink="http://www.w3.org/1999/xlink">
<g id="graph0" class="graph" transform="scale(1 1) rotate(0) translate(4 62)">
<title>ConnectionThing::add</title>
<polygon fill="#ffffff" stroke="transparent" points="-4,4 -4,-62 816,-62 816,4 -4,4"/>
<!-- Node1 -->
<g id="node1" class="node">
<title>Node1</title>
<g id="a_node1"><a xlink:title=" ">
<polygon fill="#bfbfbf" stroke="#000000" points="690,-19.5 690,-38.5 812,-38.5 812,-19.5 690,-19.5"/>
<text text-anchor="middle" x="751" y="-26.5" font-family="Helvetica,sans-Serif" font-size="10.00" fill="#000000">ConnectionThing::add</text>
</a>
</g>
</g>
<!-- Node2 -->
<g id="node2" class="node">
<title>Node2</title>
<g id="a_node2"><a xlink:href="../../d1/d67/classMazeRouter.html#a1129f02e393730b42d04cdf7f9161006" target="_top" xlink:title=" ">
<polygon fill="#ffffff" stroke="#000000" points="328,-38.5 328,-57.5 465,-57.5 465,-38.5 328,-38.5"/>
<text text-anchor="middle" x="396.5" y="-45.5" font-family="Helvetica,sans-Serif" font-size="10.00" fill="#000000">MazeRouter::createTrace</text>
</a>
</g>
</g>
<!-- Node1&#45;&gt;Node2 -->
<g id="edge1" class="edge">
<title>Node1&#45;&gt;Node2</title>
<path fill="none" stroke="#191970" d="M679.4881,-32.8328C617.0137,-36.1812 526.917,-41.0101 465.2686,-44.3142"/>
<polygon fill="#191970" stroke="#191970" points="679.8572,-36.3181 689.6555,-32.2879 679.4825,-29.3282 679.8572,-36.3181"/>
</g>
<!-- Node5 -->
<g id="node5" class="node">
<title>Node5</title>
<g id="a_node5"><a xlink:href="../../d1/d67/classMazeRouter.html#afe437e192363d4a4e22f713af6d18797" target="_top" xlink:title=" ">
<polygon fill="#ffffff" stroke="#000000" points="510,-.5 510,-19.5 654,-19.5 654,-.5 510,-.5"/>
<text text-anchor="middle" x="582" y="-7.5" font-family="Helvetica,sans-Serif" font-size="10.00" fill="#000000">MazeRouter::reducePoints</text>
</a>
</g>
</g>
<!-- Node1&#45;&gt;Node5 -->
<g id="edge4" class="edge">
<title>Node1&#45;&gt;Node5</title>
<path fill="none" stroke="#191970" d="M680.0438,-21.0227C671.4803,-20.0599 662.7264,-19.0757 654.1461,-18.1111"/>
<polygon fill="#191970" stroke="#191970" points="679.6587,-24.5013 689.9871,-22.1406 680.4408,-17.5452 679.6587,-24.5013"/>
</g>
<!-- Node3 -->
<g id="node3" class="node">
<title>Node3</title>
<g id="a_node3"><a xlink:href="../../d1/d67/classMazeRouter.html#ad3096b9a4a1a5d2f7ffd05578924d4db" target="_top" xlink:title=" ">
<polygon fill="#ffffff" stroke="#000000" points="140,-19.5 140,-38.5 283,-38.5 283,-19.5 140,-19.5"/>
<text text-anchor="middle" x="211.5" y="-26.5" font-family="Helvetica,sans-Serif" font-size="10.00" fill="#000000">MazeRouter::createTraces</text>
</a>
</g>
</g>
<!-- Node2&#45;&gt;Node3 -->
<g id="edge2" class="edge">
<title>Node2&#45;&gt;Node3</title>
<path fill="none" stroke="#191970" d="M317.8383,-39.9212C306.3094,-38.7372 294.4871,-37.523 283.1096,-36.3545"/>
<polygon fill="#191970" stroke="#191970" points="317.5704,-43.412 327.8757,-40.9521 318.2857,-36.4487 317.5704,-43.412"/>
</g>
<!-- Node4 -->
<g id="node4" class="node">
<title>Node4</title>
<g id="a_node4"><a xlink:href="../../d1/d67/classMazeRouter.html#a0e1c56746b837fa3e83bd6b9e9fcd309" target="_top" xlink:title=" ">
<polygon fill="#ffffff" stroke="#000000" points="0,-19.5 0,-38.5 104,-38.5 104,-19.5 0,-19.5"/>
<text text-anchor="middle" x="52" y="-26.5" font-family="Helvetica,sans-Serif" font-size="10.00" fill="#000000">MazeRouter::start</text>
</a>
</g>
</g>
<!-- Node3&#45;&gt;Node4 -->
<g id="edge3" class="edge">
<title>Node3&#45;&gt;Node4</title>
<path fill="none" stroke="#191970" d="M129.6032,-29C121.01,-29 112.4501,-29 104.3229,-29"/>
<polygon fill="#191970" stroke="#191970" points="129.6822,-32.5001 139.6822,-29 129.6821,-25.5001 129.6822,-32.5001"/>
</g>
<!-- Node6 -->
<g id="node6" class="node">
<title>Node6</title>
<g id="a_node6"><a xlink:href="../../d1/d67/classMazeRouter.html#a8a3528662be91963efa08d15497a548b" target="_top" xlink:title=" ">
<polygon fill="#ffffff" stroke="#000000" points="319,-.5 319,-19.5 474,-19.5 474,-.5 319,-.5"/>
<text text-anchor="middle" x="396.5" y="-7.5" font-family="Helvetica,sans-Serif" font-size="10.00" fill="#000000">MazeRouter::optimizeTraces</text>
</a>
</g>
</g>
<!-- Node5&#45;&gt;Node6 -->
<g id="edge5" class="edge">
<title>Node5&#45;&gt;Node6</title>
<path fill="none" stroke="#191970" d="M499.509,-10C491.0509,-10 482.4775,-10 474.075,-10"/>
<polygon fill="#191970" stroke="#191970" points="499.7497,-13.5001 509.7497,-10 499.7497,-6.5001 499.7497,-13.5001"/>
</g>
<!-- Node6&#45;&gt;Node3 -->
<g id="edge6" class="edge">
<title>Node6&#45;&gt;Node3</title>
<path fill="none" stroke="#191970" d="M308.7743,-19.0097C300.1564,-19.8947 291.4832,-20.7855 283.0548,-21.6511"/>
<polygon fill="#191970" stroke="#191970" points="309.2574,-22.4786 318.8475,-17.9751 308.5422,-15.5152 309.2574,-22.4786"/>
</g>
</g>
</svg>
