<?xml version="1.0" encoding="UTF-8" standalone="no"?>
<!DOCTYPE svg PUBLIC "-//W3C//DTD SVG 1.1//EN"
 "http://www.w3.org/Graphics/SVG/1.1/DTD/svg11.dtd">
<!-- Generated by graphviz version 2.40.1 (0)
 -->
<!-- Title: SimpleEditableLabelWidget::updateUndoStackIfNecessary Pages: 1 -->
<svg width="929pt" height="137pt"
 viewBox="0.00 0.00 929.00 137.00" xmlns="http://www.w3.org/2000/svg" xmlns:xlink="http://www.w3.org/1999/xlink">
<g id="graph0" class="graph" transform="scale(1 1) rotate(0) translate(4 133)">
<title>SimpleEditableLabelWidget::updateUndoStackIfNecessary</title>
<polygon fill="#ffffff" stroke="transparent" points="-4,4 -4,-133 925,-133 925,4 -4,4"/>
<!-- Node81 -->
<g id="node1" class="node">
<title>Node81</title>
<g id="a_node1"><a xlink:title=" ">
<polygon fill="#bfbfbf" stroke="#000000" points="754,-71.5 754,-101.5 921,-101.5 921,-71.5 754,-71.5"/>
<text text-anchor="start" x="762" y="-89.5" font-family="Helvetica,sans-Serif" font-size="10.00" fill="#000000">SimpleEditableLabelWidget</text>
<text text-anchor="middle" x="837.5" y="-78.5" font-family="Helvetica,sans-Serif" font-size="10.00" fill="#000000">::updateUndoStackIfNecessary</text>
</a>
</g>
</g>
<!-- Node82 -->
<g id="node2" class="node">
<title>Node82</title>
<g id="a_node2"><a xlink:href="../../d2/d56/classSimpleEditableLabelWidget.html#a9bbc201b69666756f621c497cda47063" target="_top" xlink:title=" ">
<polygon fill="#ffffff" stroke="#000000" points="187,-98.5 187,-128.5 344,-128.5 344,-98.5 187,-98.5"/>
<text text-anchor="start" x="195" y="-116.5" font-family="Helvetica,sans-Serif" font-size="10.00" fill="#000000">SimpleEditableLabelWidget</text>
<text text-anchor="middle" x="265.5" y="-105.5" font-family="Helvetica,sans-Serif" font-size="10.00" fill="#000000">::SimpleEditableLabelWidget</text>
</a>
</g>
</g>
<!-- Node81&#45;&gt;Node82 -->
<g id="edge1" class="edge">
<title>Node81&#45;&gt;Node82</title>
<path fill="none" stroke="#191970" d="M743.503,-90.9369C632.178,-96.1918 448.7326,-104.8509 344.4447,-109.7736"/>
<polygon fill="#191970" stroke="#191970" points="743.8899,-94.4227 753.7137,-90.4549 743.5598,-87.4304 743.8899,-94.4227"/>
</g>
<!-- Node83 -->
<g id="node3" class="node">
<title>Node83</title>
<g id="a_node3"><a xlink:href="../../d2/d56/classSimpleEditableLabelWidget.html#a32be7722c0defbe1294f588e0528e793" target="_top" xlink:title=" ">
<polygon fill="#ffffff" stroke="#000000" points="567,-49.5 567,-79.5 718,-79.5 718,-49.5 567,-49.5"/>
<text text-anchor="start" x="575" y="-67.5" font-family="Helvetica,sans-Serif" font-size="10.00" fill="#000000">SimpleEditableLabelWidget</text>
<text text-anchor="middle" x="642.5" y="-56.5" font-family="Helvetica,sans-Serif" font-size="10.00" fill="#000000">::setText</text>
</a>
</g>
</g>
<!-- Node81&#45;&gt;Node83 -->
<g id="edge2" class="edge">
<title>Node81&#45;&gt;Node83</title>
<path fill="none" stroke="#191970" d="M743.8727,-75.9369C735.2554,-74.9647 726.5978,-73.988 718.1696,-73.0371"/>
<polygon fill="#191970" stroke="#191970" points="743.6245,-79.431 753.9539,-77.0743 744.4093,-72.4752 743.6245,-79.431"/>
</g>
<!-- Node84 -->
<g id="node4" class="node">
<title>Node84</title>
<g id="a_node4"><a xlink:href="../../d2/d56/classSimpleEditableLabelWidget.html#a6c48bab43e4689f6666b57675f5c5bd4" target="_top" xlink:title=" ">
<polygon fill="#ffffff" stroke="#000000" points="380,-49.5 380,-79.5 531,-79.5 531,-49.5 380,-49.5"/>
<text text-anchor="start" x="388" y="-67.5" font-family="Helvetica,sans-Serif" font-size="10.00" fill="#000000">SimpleEditableLabelWidget</text>
<text text-anchor="middle" x="455.5" y="-56.5" font-family="Helvetica,sans-Serif" font-size="10.00" fill="#000000">::toStandardMode</text>
</a>
</g>
</g>
<!-- Node83&#45;&gt;Node84 -->
<g id="edge3" class="edge">
<title>Node83&#45;&gt;Node84</title>
<path fill="none" stroke="#191970" d="M556.7022,-64.5C548.2272,-64.5 539.6671,-64.5 531.3031,-64.5"/>
<polygon fill="#191970" stroke="#191970" points="556.979,-68.0001 566.979,-64.5 556.9789,-61.0001 556.979,-68.0001"/>
</g>
<!-- Node87 -->
<g id="node7" class="node">
<title>Node87</title>
<g id="a_node7"><a xlink:href="../../d2/d56/classSimpleEditableLabelWidget.html#acb5deff042f0adb2ef379f20bbea2472" target="_top" xlink:title=" ">
<polygon fill="#ffffff" stroke="#000000" points="190,-.5 190,-30.5 341,-30.5 341,-.5 190,-.5"/>
<text text-anchor="start" x="198" y="-18.5" font-family="Helvetica,sans-Serif" font-size="10.00" fill="#000000">SimpleEditableLabelWidget</text>
<text text-anchor="middle" x="265.5" y="-7.5" font-family="Helvetica,sans-Serif" font-size="10.00" fill="#000000">::keyPressEvent</text>
</a>
</g>
</g>
<!-- Node83&#45;&gt;Node87 -->
<g id="edge8" class="edge">
<title>Node83&#45;&gt;Node87</title>
<path fill="none" stroke="#191970" d="M572.4629,-47.3345C558.7744,-44.3944 544.4845,-41.612 531,-39.5 467.3289,-29.5278 394.3698,-23.3032 341.0658,-19.6998"/>
<polygon fill="#191970" stroke="#191970" points="571.7858,-50.7691 582.3038,-49.4958 573.2875,-43.9321 571.7858,-50.7691"/>
</g>
<!-- Node84&#45;&gt;Node82 -->
<g id="edge4" class="edge">
<title>Node84&#45;&gt;Node82</title>
<path fill="none" stroke="#191970" d="M387.4497,-82.0498C366.5854,-87.4306 343.8303,-93.299 323.6873,-98.4938"/>
<polygon fill="#191970" stroke="#191970" points="388.3934,-85.421 397.2025,-79.5346 386.6453,-78.6428 388.3934,-85.421"/>
</g>
<!-- Node85 -->
<g id="node5" class="node">
<title>Node85</title>
<g id="a_node5"><a xlink:href="../../d2/d56/classSimpleEditableLabelWidget.html#a4e4229ef5a9c6da71d3291a79e042ee4" target="_top" xlink:title=" ">
<polygon fill="#ffffff" stroke="#000000" points="190,-49.5 190,-79.5 341,-79.5 341,-49.5 190,-49.5"/>
<text text-anchor="start" x="198" y="-67.5" font-family="Helvetica,sans-Serif" font-size="10.00" fill="#000000">SimpleEditableLabelWidget</text>
<text text-anchor="middle" x="265.5" y="-56.5" font-family="Helvetica,sans-Serif" font-size="10.00" fill="#000000">::swapMode</text>
</a>
</g>
</g>
<!-- Node84&#45;&gt;Node85 -->
<g id="edge5" class="edge">
<title>Node84&#45;&gt;Node85</title>
<path fill="none" stroke="#191970" d="M369.6334,-64.5C360.1469,-64.5 350.5377,-64.5 341.1891,-64.5"/>
<polygon fill="#191970" stroke="#191970" points="369.8611,-68.0001 379.861,-64.5 369.861,-61.0001 369.8611,-68.0001"/>
</g>
<!-- Node84&#45;&gt;Node87 -->
<g id="edge7" class="edge">
<title>Node84&#45;&gt;Node87</title>
<path fill="none" stroke="#191970" d="M387.4497,-46.9502C366.5854,-41.5694 343.8303,-35.701 323.6873,-30.5062"/>
<polygon fill="#191970" stroke="#191970" points="386.6453,-50.3572 397.2025,-49.4654 388.3934,-43.579 386.6453,-50.3572"/>
</g>
<!-- Node86 -->
<g id="node6" class="node">
<title>Node86</title>
<g id="a_node6"><a xlink:href="../../d2/d56/classSimpleEditableLabelWidget.html#ae6f2fefe91346ee65d3c72928c3fd791" target="_top" xlink:title=" ">
<polygon fill="#ffffff" stroke="#000000" points="0,-49.5 0,-79.5 151,-79.5 151,-49.5 0,-49.5"/>
<text text-anchor="start" x="8" y="-67.5" font-family="Helvetica,sans-Serif" font-size="10.00" fill="#000000">SimpleEditableLabelWidget</text>
<text text-anchor="middle" x="75.5" y="-56.5" font-family="Helvetica,sans-Serif" font-size="10.00" fill="#000000">::mousePressEvent</text>
</a>
</g>
</g>
<!-- Node85&#45;&gt;Node86 -->
<g id="edge6" class="edge">
<title>Node85&#45;&gt;Node86</title>
<path fill="none" stroke="#191970" d="M179.6334,-64.5C170.1469,-64.5 160.5377,-64.5 151.1891,-64.5"/>
<polygon fill="#191970" stroke="#191970" points="179.8611,-68.0001 189.861,-64.5 179.861,-61.0001 179.8611,-68.0001"/>
</g>
</g>
</svg>
