<?xml version="1.0" encoding="UTF-8" standalone="no"?>
<!DOCTYPE svg PUBLIC "-//W3C//DTD SVG 1.1//EN"
 "http://www.w3.org/Graphics/SVG/1.1/DTD/svg11.dtd">
<!-- Generated by graphviz version 2.40.1 (0)
 -->
<!-- Title: SimpleEditableLabelWidget::textChanged Pages: 1 -->
<svg width="913pt" height="137pt"
 viewBox="0.00 0.00 913.00 137.00" xmlns="http://www.w3.org/2000/svg" xmlns:xlink="http://www.w3.org/1999/xlink">
<g id="graph0" class="graph" transform="scale(1 1) rotate(0) translate(4 133)">
<title>SimpleEditableLabelWidget::textChanged</title>
<polygon fill="#ffffff" stroke="transparent" points="-4,4 -4,-133 909,-133 909,4 -4,4"/>
<!-- Node58 -->
<g id="node1" class="node">
<title>Node58</title>
<g id="a_node1"><a xlink:title=" ">
<polygon fill="#bfbfbf" stroke="#000000" points="754,-24.5 754,-54.5 905,-54.5 905,-24.5 754,-24.5"/>
<text text-anchor="start" x="762" y="-42.5" font-family="Helvetica,sans-Serif" font-size="10.00" fill="#000000">SimpleEditableLabelWidget</text>
<text text-anchor="middle" x="829.5" y="-31.5" font-family="Helvetica,sans-Serif" font-size="10.00" fill="#000000">::textChanged</text>
</a>
</g>
</g>
<!-- Node59 -->
<g id="node2" class="node">
<title>Node59</title>
<g id="a_node2"><a xlink:href="../../d2/d56/classSimpleEditableLabelWidget.html#a32be7722c0defbe1294f588e0528e793" target="_top" xlink:title=" ">
<polygon fill="#ffffff" stroke="#000000" points="567,-24.5 567,-54.5 718,-54.5 718,-24.5 567,-24.5"/>
<text text-anchor="start" x="575" y="-42.5" font-family="Helvetica,sans-Serif" font-size="10.00" fill="#000000">SimpleEditableLabelWidget</text>
<text text-anchor="middle" x="642.5" y="-31.5" font-family="Helvetica,sans-Serif" font-size="10.00" fill="#000000">::setText</text>
</a>
</g>
</g>
<!-- Node58&#45;&gt;Node59 -->
<g id="edge1" class="edge">
<title>Node58&#45;&gt;Node59</title>
<path fill="none" stroke="#191970" d="M743.7022,-39.5C735.2272,-39.5 726.6671,-39.5 718.3031,-39.5"/>
<polygon fill="#191970" stroke="#191970" points="743.979,-43.0001 753.979,-39.5 743.9789,-36.0001 743.979,-43.0001"/>
</g>
<!-- Node60 -->
<g id="node3" class="node">
<title>Node60</title>
<g id="a_node3"><a xlink:href="../../d2/d56/classSimpleEditableLabelWidget.html#a6c48bab43e4689f6666b57675f5c5bd4" target="_top" xlink:title=" ">
<polygon fill="#ffffff" stroke="#000000" points="380,-47.5 380,-77.5 531,-77.5 531,-47.5 380,-47.5"/>
<text text-anchor="start" x="388" y="-65.5" font-family="Helvetica,sans-Serif" font-size="10.00" fill="#000000">SimpleEditableLabelWidget</text>
<text text-anchor="middle" x="455.5" y="-54.5" font-family="Helvetica,sans-Serif" font-size="10.00" fill="#000000">::toStandardMode</text>
</a>
</g>
</g>
<!-- Node59&#45;&gt;Node60 -->
<g id="edge2" class="edge">
<title>Node59&#45;&gt;Node60</title>
<path fill="none" stroke="#191970" d="M556.9816,-50.0183C548.4153,-51.0719 539.759,-52.1366 531.3031,-53.1766"/>
<polygon fill="#191970" stroke="#191970" points="557.481,-53.4833 566.979,-48.7887 556.6265,-46.5357 557.481,-53.4833"/>
</g>
<!-- Node64 -->
<g id="node7" class="node">
<title>Node64</title>
<g id="a_node7"><a xlink:href="../../d2/d56/classSimpleEditableLabelWidget.html#acb5deff042f0adb2ef379f20bbea2472" target="_top" xlink:title=" ">
<polygon fill="#ffffff" stroke="#000000" points="190,-.5 190,-30.5 341,-30.5 341,-.5 190,-.5"/>
<text text-anchor="start" x="198" y="-18.5" font-family="Helvetica,sans-Serif" font-size="10.00" fill="#000000">SimpleEditableLabelWidget</text>
<text text-anchor="middle" x="265.5" y="-7.5" font-family="Helvetica,sans-Serif" font-size="10.00" fill="#000000">::keyPressEvent</text>
</a>
</g>
</g>
<!-- Node59&#45;&gt;Node64 -->
<g id="edge7" class="edge">
<title>Node59&#45;&gt;Node64</title>
<path fill="none" stroke="#191970" d="M556.4563,-34.0224C491.5759,-29.8921 403.434,-24.2809 341.2169,-20.3202"/>
<polygon fill="#191970" stroke="#191970" points="556.4597,-37.5296 566.6619,-34.6721 556.9045,-30.5438 556.4597,-37.5296"/>
</g>
<!-- Node61 -->
<g id="node4" class="node">
<title>Node61</title>
<g id="a_node4"><a xlink:href="../../d2/d56/classSimpleEditableLabelWidget.html#a9bbc201b69666756f621c497cda47063" target="_top" xlink:title=" ">
<polygon fill="#ffffff" stroke="#000000" points="187,-98.5 187,-128.5 344,-128.5 344,-98.5 187,-98.5"/>
<text text-anchor="start" x="195" y="-116.5" font-family="Helvetica,sans-Serif" font-size="10.00" fill="#000000">SimpleEditableLabelWidget</text>
<text text-anchor="middle" x="265.5" y="-105.5" font-family="Helvetica,sans-Serif" font-size="10.00" fill="#000000">::SimpleEditableLabelWidget</text>
</a>
</g>
</g>
<!-- Node60&#45;&gt;Node61 -->
<g id="edge3" class="edge">
<title>Node60&#45;&gt;Node61</title>
<path fill="none" stroke="#191970" d="M389.8038,-80.1342C367.521,-86.1154 342.8538,-92.7366 321.4065,-98.4935"/>
<polygon fill="#191970" stroke="#191970" points="390.7706,-83.4987 399.5214,-77.5258 388.9559,-76.738 390.7706,-83.4987"/>
</g>
<!-- Node62 -->
<g id="node5" class="node">
<title>Node62</title>
<g id="a_node5"><a xlink:href="../../d2/d56/classSimpleEditableLabelWidget.html#a4e4229ef5a9c6da71d3291a79e042ee4" target="_top" xlink:title=" ">
<polygon fill="#ffffff" stroke="#000000" points="190,-49.5 190,-79.5 341,-79.5 341,-49.5 190,-49.5"/>
<text text-anchor="start" x="198" y="-67.5" font-family="Helvetica,sans-Serif" font-size="10.00" fill="#000000">SimpleEditableLabelWidget</text>
<text text-anchor="middle" x="265.5" y="-56.5" font-family="Helvetica,sans-Serif" font-size="10.00" fill="#000000">::swapMode</text>
</a>
</g>
</g>
<!-- Node60&#45;&gt;Node62 -->
<g id="edge4" class="edge">
<title>Node60&#45;&gt;Node62</title>
<path fill="none" stroke="#191970" d="M369.6334,-63.4039C360.1469,-63.5037 350.5377,-63.6049 341.1891,-63.7033"/>
<polygon fill="#191970" stroke="#191970" points="369.8985,-66.9014 379.861,-63.2962 369.8247,-59.9017 369.8985,-66.9014"/>
</g>
<!-- Node60&#45;&gt;Node64 -->
<g id="edge6" class="edge">
<title>Node60&#45;&gt;Node64</title>
<path fill="none" stroke="#191970" d="M384.9229,-45.0415C365.6331,-40.2698 344.9021,-35.1416 326.2152,-30.519"/>
<polygon fill="#191970" stroke="#191970" points="384.3125,-48.4959 394.8604,-47.4997 385.9935,-41.7007 384.3125,-48.4959"/>
</g>
<!-- Node63 -->
<g id="node6" class="node">
<title>Node63</title>
<g id="a_node6"><a xlink:href="../../d2/d56/classSimpleEditableLabelWidget.html#ae6f2fefe91346ee65d3c72928c3fd791" target="_top" xlink:title=" ">
<polygon fill="#ffffff" stroke="#000000" points="0,-49.5 0,-79.5 151,-79.5 151,-49.5 0,-49.5"/>
<text text-anchor="start" x="8" y="-67.5" font-family="Helvetica,sans-Serif" font-size="10.00" fill="#000000">SimpleEditableLabelWidget</text>
<text text-anchor="middle" x="75.5" y="-56.5" font-family="Helvetica,sans-Serif" font-size="10.00" fill="#000000">::mousePressEvent</text>
</a>
</g>
</g>
<!-- Node62&#45;&gt;Node63 -->
<g id="edge5" class="edge">
<title>Node62&#45;&gt;Node63</title>
<path fill="none" stroke="#191970" d="M179.6334,-64.5C170.1469,-64.5 160.5377,-64.5 151.1891,-64.5"/>
<polygon fill="#191970" stroke="#191970" points="179.8611,-68.0001 189.861,-64.5 179.861,-61.0001 179.8611,-68.0001"/>
</g>
</g>
</svg>
