<?xml version="1.0" encoding="UTF-8" standalone="no"?>
<!DOCTYPE svg PUBLIC "-//W3C//DTD SVG 1.1//EN"
 "http://www.w3.org/Graphics/SVG/1.1/DTD/svg11.dtd">
<!-- Generated by graphviz version 2.40.1 (0)
 -->
<!-- Title: NonConnectorItem::attachedToID Pages: 1 -->
<svg width="389pt" height="66pt"
 viewBox="0.00 0.00 389.00 66.00" xmlns="http://www.w3.org/2000/svg" xmlns:xlink="http://www.w3.org/1999/xlink">
<g id="graph0" class="graph" transform="scale(1 1) rotate(0) translate(4 62)">
<title>NonConnectorItem::attachedToID</title>
<polygon fill="#ffffff" stroke="transparent" points="-4,4 -4,-62 385,-62 385,4 -4,4"/>
<!-- Node536 -->
<g id="node1" class="node">
<title>Node536</title>
<g id="a_node1"><a xlink:title=" ">
<polygon fill="#bfbfbf" stroke="#000000" points="0,-19.5 0,-38.5 178,-38.5 178,-19.5 0,-19.5"/>
<text text-anchor="middle" x="89" y="-26.5" font-family="Helvetica,sans-Serif" font-size="10.00" fill="#000000">NonConnectorItem::attachedToID</text>
</a>
</g>
</g>
<!-- Node537 -->
<g id="node2" class="node">
<title>Node537</title>
<g id="a_node2"><a xlink:href="../../dc/d09/classNonConnectorItem.html#a1452f3637c83b50fbd089f9c4b4518b6" target="_top" xlink:title=" ">
<polygon fill="#ffffff" stroke="#000000" points="214,-38.5 214,-57.5 381,-57.5 381,-38.5 214,-38.5"/>
<text text-anchor="middle" x="297.5" y="-45.5" font-family="Helvetica,sans-Serif" font-size="10.00" fill="#000000">NonConnectorItem::attachedTo</text>
</a>
</g>
</g>
<!-- Node536&#45;&gt;Node537 -->
<g id="edge1" class="edge">
<title>Node536&#45;&gt;Node537</title>
<path fill="none" stroke="#191970" d="M178.0275,-37.1128C186.5398,-37.8885 195.1904,-38.6768 203.7457,-39.4564"/>
<polygon fill="#191970" stroke="#191970" points="203.4548,-42.9443 213.7312,-40.3664 204.0901,-35.9732 203.4548,-42.9443"/>
</g>
<!-- Node538 -->
<g id="node3" class="node">
<title>Node538</title>
<g id="a_node3"><a xlink:href="../../d4/d4f/classItemBase.html#a27afd199a7ae3c3fd14e88ed0be14420" target="_top" xlink:title=" ">
<polygon fill="#ffffff" stroke="#000000" points="258.5,-.5 258.5,-19.5 336.5,-19.5 336.5,-.5 258.5,-.5"/>
<text text-anchor="middle" x="297.5" y="-7.5" font-family="Helvetica,sans-Serif" font-size="10.00" fill="#000000">ItemBase::id</text>
</a>
</g>
</g>
<!-- Node536&#45;&gt;Node538 -->
<g id="edge2" class="edge">
<title>Node536&#45;&gt;Node538</title>
<path fill="none" stroke="#191970" d="M178.0275,-20.8872C202.1876,-18.6855 227.4623,-16.3823 248.51,-14.4643"/>
<polygon fill="#191970" stroke="#191970" points="248.8385,-17.949 258.4796,-13.5558 248.2032,-10.9779 248.8385,-17.949"/>
</g>
</g>
</svg>
