<?xml version="1.0" encoding="UTF-8" standalone="no"?>
<!DOCTYPE svg PUBLIC "-//W3C//DTD SVG 1.1//EN"
 "http://www.w3.org/Graphics/SVG/1.1/DTD/svg11.dtd">
<!-- Generated by graphviz version 2.40.1 (0)
 -->
<!-- Title: NonConnectorItem::attachedToTitle Pages: 1 -->
<svg width="368pt" height="66pt"
 viewBox="0.00 0.00 368.00 66.00" xmlns="http://www.w3.org/2000/svg" xmlns:xlink="http://www.w3.org/1999/xlink">
<g id="graph0" class="graph" transform="scale(1 1) rotate(0) translate(4 62)">
<title>NonConnectorItem::attachedToTitle</title>
<polygon fill="#ffffff" stroke="transparent" points="-4,4 -4,-62 364,-62 364,4 -4,4"/>
<!-- Node1639 -->
<g id="node1" class="node">
<title>Node1639</title>
<g id="a_node1"><a xlink:title=" ">
<polygon fill="#bfbfbf" stroke="#000000" points="0,-14 0,-44 157,-44 157,-14 0,-14"/>
<text text-anchor="start" x="8" y="-32" font-family="Helvetica,sans-Serif" font-size="10.00" fill="#000000">NonConnectorItem::attached</text>
<text text-anchor="middle" x="78.5" y="-21" font-family="Helvetica,sans-Serif" font-size="10.00" fill="#000000">ToTitle</text>
</a>
</g>
</g>
<!-- Node1640 -->
<g id="node2" class="node">
<title>Node1640</title>
<g id="a_node2"><a xlink:href="../../dc/d09/classNonConnectorItem.html#a1452f3637c83b50fbd089f9c4b4518b6" target="_top" xlink:title=" ">
<polygon fill="#ffffff" stroke="#000000" points="193,-38.5 193,-57.5 360,-57.5 360,-38.5 193,-38.5"/>
<text text-anchor="middle" x="276.5" y="-45.5" font-family="Helvetica,sans-Serif" font-size="10.00" fill="#000000">NonConnectorItem::attachedTo</text>
</a>
</g>
</g>
<!-- Node1639&#45;&gt;Node1640 -->
<g id="edge1" class="edge">
<title>Node1639&#45;&gt;Node1640</title>
<path fill="none" stroke="#191970" d="M157.0392,-36.5366C165.498,-37.3483 174.1651,-38.18 182.7788,-39.0065"/>
<polygon fill="#191970" stroke="#191970" points="182.5616,-42.5017 192.8502,-39.973 183.2303,-35.5337 182.5616,-42.5017"/>
</g>
<!-- Node1641 -->
<g id="node3" class="node">
<title>Node1641</title>
<g id="a_node3"><a xlink:href="../../d4/d4f/classItemBase.html#af0f5772f7bc3d09b1558119b5c7a898c" target="_top" xlink:title=" ">
<polygon fill="#ffffff" stroke="#000000" points="232,-.5 232,-19.5 321,-19.5 321,-.5 232,-.5"/>
<text text-anchor="middle" x="276.5" y="-7.5" font-family="Helvetica,sans-Serif" font-size="10.00" fill="#000000">ItemBase::title</text>
</a>
</g>
</g>
<!-- Node1639&#45;&gt;Node1641 -->
<g id="edge2" class="edge">
<title>Node1639&#45;&gt;Node1641</title>
<path fill="none" stroke="#191970" d="M157.0392,-21.4634C178.7377,-19.3812 201.8074,-17.1675 221.8288,-15.2462"/>
<polygon fill="#191970" stroke="#191970" points="222.3776,-18.7097 231.9975,-14.2704 221.7088,-11.7417 222.3776,-18.7097"/>
</g>
</g>
</svg>
