<?xml version="1.0" encoding="UTF-8" standalone="no"?>
<!DOCTYPE svg PUBLIC "-//W3C//DTD SVG 1.1//EN"
 "http://www.w3.org/Graphics/SVG/1.1/DTD/svg11.dtd">
<!-- Generated by graphviz version 2.40.1 (0)
 -->
<!-- Title: ConnectorShared::setBus Pages: 1 -->
<svg width="1008pt" height="98pt"
 viewBox="0.00 0.00 1008.00 97.54" xmlns="http://www.w3.org/2000/svg" xmlns:xlink="http://www.w3.org/1999/xlink">
<g id="graph0" class="graph" transform="scale(1 1) rotate(0) translate(4 93.544)">
<title>ConnectorShared::setBus</title>
<polygon fill="#ffffff" stroke="transparent" points="-4,4 -4,-93.544 1004,-93.544 1004,4 -4,4"/>
<!-- Node621 -->
<g id="node1" class="node">
<title>Node621</title>
<g id="a_node1"><a xlink:title=" ">
<polygon fill="#bfbfbf" stroke="#000000" points="861,-26.044 861,-45.044 1000,-45.044 1000,-26.044 861,-26.044"/>
<text text-anchor="middle" x="930.5" y="-33.044" font-family="Helvetica,sans-Serif" font-size="10.00" fill="#000000">ConnectorShared::setBus</text>
</a>
</g>
</g>
<!-- Node622 -->
<g id="node2" class="node">
<title>Node622</title>
<g id="a_node2"><a xlink:href="../../d5/d1b/classBusShared.html#a8ab2c15f0aa5f5ba870115a71e09c3f4" target="_top" xlink:title=" ">
<polygon fill="#ffffff" stroke="#000000" points="667,-64.044 667,-83.044 807,-83.044 807,-64.044 667,-64.044"/>
<text text-anchor="middle" x="737" y="-71.044" font-family="Helvetica,sans-Serif" font-size="10.00" fill="#000000">BusShared::initConnector</text>
</a>
</g>
</g>
<!-- Node621&#45;&gt;Node622 -->
<g id="edge1" class="edge">
<title>Node621&#45;&gt;Node622</title>
<path fill="none" stroke="#191970" d="M871.7466,-47.0821C844.148,-52.502 811.6453,-58.885 785.4771,-64.0239"/>
<polygon fill="#191970" stroke="#191970" points="872.5337,-50.4945 881.6718,-45.133 871.1847,-43.6257 872.5337,-50.4945"/>
</g>
<!-- Node623 -->
<g id="node3" class="node">
<title>Node623</title>
<g id="a_node3"><a xlink:href="../../d5/d1b/classBusShared.html#a74a158161f8b1cd6981064a3740b7710" target="_top" xlink:title=" ">
<polygon fill="#ffffff" stroke="#000000" points="649,-26.044 649,-45.044 825,-45.044 825,-26.044 649,-26.044"/>
<text text-anchor="middle" x="737" y="-33.044" font-family="Helvetica,sans-Serif" font-size="10.00" fill="#000000">BusShared::addConnectorShared</text>
</a>
</g>
</g>
<!-- Node621&#45;&gt;Node623 -->
<g id="edge2" class="edge">
<title>Node621&#45;&gt;Node623</title>
<path fill="none" stroke="#191970" d="M850.7379,-35.544C842.3071,-35.544 833.6987,-35.544 825.1796,-35.544"/>
<polygon fill="#191970" stroke="#191970" points="850.9155,-39.0441 860.9154,-35.544 850.9154,-32.0441 850.9155,-39.0441"/>
</g>
<!-- Node625 -->
<g id="node5" class="node">
<title>Node625</title>
<g id="a_node5"><a xlink:href="../../d3/dee/classStripboard.html#a6e841512cf089ec1d97c192a3189047d" target="_top" xlink:title=" ">
<polygon fill="#ffffff" stroke="#000000" points="325,-26.044 325,-45.044 453,-45.044 453,-26.044 325,-26.044"/>
<text text-anchor="middle" x="389" y="-33.044" font-family="Helvetica,sans-Serif" font-size="10.00" fill="#000000">Stripboard::reinitBuses</text>
</a>
</g>
</g>
<!-- Node621&#45;&gt;Node625 -->
<g id="edge9" class="edge">
<title>Node621&#45;&gt;Node625</title>
<path fill="none" stroke="#191970" d="M876.11,-24.1416C859.752,-21.1478 841.7096,-18.2752 825,-16.544 676.4381,-1.1518 637.2381,7.705 489,-10.544 465.1998,-13.4739 438.9168,-20.1862 419.271,-25.9185"/>
<polygon fill="#191970" stroke="#191970" points="875.5756,-27.6024 886.0504,-26.0122 876.8702,-20.7231 875.5756,-27.6024"/>
</g>
<!-- Node624 -->
<g id="node4" class="node">
<title>Node624</title>
<g id="a_node4"><a xlink:href="../../d3/dee/classStripboard.html#adfa528d34d809fc2f544057306be5e93" target="_top" xlink:title=" ">
<polygon fill="#ffffff" stroke="#000000" points="494.5,-70.044 494.5,-89.044 607.5,-89.044 607.5,-70.044 494.5,-70.044"/>
<text text-anchor="middle" x="551" y="-77.044" font-family="Helvetica,sans-Serif" font-size="10.00" fill="#000000">Stripboard::nextBus</text>
</a>
</g>
</g>
<!-- Node623&#45;&gt;Node624 -->
<g id="edge3" class="edge">
<title>Node623&#45;&gt;Node624</title>
<path fill="none" stroke="#191970" d="M681.1621,-47.273C670.4699,-49.6114 659.3764,-52.1012 649,-54.544 628.4902,-59.3724 605.6751,-65.1673 587.2225,-69.9617"/>
<polygon fill="#191970" stroke="#191970" points="682.2231,-50.6244 691.2538,-45.084 680.7391,-43.7835 682.2231,-50.6244"/>
</g>
<!-- Node628 -->
<g id="node8" class="node">
<title>Node628</title>
<g id="a_node8"><a xlink:href="../../d8/d0a/classSqliteReferenceModel.html#a1ac2032bc655c193c0352776b4446b37" target="_top" xlink:title=" ">
<polygon fill="#ffffff" stroke="#000000" points="489,-20.544 489,-50.544 613,-50.544 613,-20.544 489,-20.544"/>
<text text-anchor="start" x="497" y="-38.544" font-family="Helvetica,sans-Serif" font-size="10.00" fill="#000000">SqliteReferenceModel</text>
<text text-anchor="middle" x="551" y="-27.544" font-family="Helvetica,sans-Serif" font-size="10.00" fill="#000000">::loadFromDB</text>
</a>
</g>
</g>
<!-- Node623&#45;&gt;Node628 -->
<g id="edge8" class="edge">
<title>Node623&#45;&gt;Node628</title>
<path fill="none" stroke="#191970" d="M638.6741,-35.544C629.9701,-35.544 621.3284,-35.544 613.0555,-35.544"/>
<polygon fill="#191970" stroke="#191970" points="638.9023,-39.0441 648.9023,-35.544 638.9022,-32.0441 638.9023,-39.0441"/>
</g>
<!-- Node624&#45;&gt;Node625 -->
<g id="edge4" class="edge">
<title>Node624&#45;&gt;Node625</title>
<path fill="none" stroke="#191970" d="M505.9057,-67.2961C480.0425,-60.2716 448.0562,-51.5839 424.083,-45.0727"/>
<polygon fill="#191970" stroke="#191970" points="505.2806,-70.7531 515.8484,-69.9966 507.1154,-63.9978 505.2806,-70.7531"/>
</g>
<!-- Node626 -->
<g id="node6" class="node">
<title>Node626</title>
<g id="a_node6"><a xlink:href="../../d3/dee/classStripboard.html#ace87aeb220141dac7a286592aaf0dd74" target="_top" xlink:title=" ">
<polygon fill="#ffffff" stroke="#000000" points="0,-26.044 0,-45.044 143,-45.044 143,-26.044 0,-26.044"/>
<text text-anchor="middle" x="71.5" y="-33.044" font-family="Helvetica,sans-Serif" font-size="10.00" fill="#000000">Stripboard::addedToScene</text>
</a>
</g>
</g>
<!-- Node625&#45;&gt;Node626 -->
<g id="edge5" class="edge">
<title>Node625&#45;&gt;Node626</title>
<path fill="none" stroke="#191970" d="M314.6342,-35.544C262.8841,-35.544 194.2682,-35.544 143.1274,-35.544"/>
<polygon fill="#191970" stroke="#191970" points="314.7492,-39.0441 324.7491,-35.544 314.7491,-32.0441 314.7492,-39.0441"/>
</g>
<!-- Node627 -->
<g id="node7" class="node">
<title>Node627</title>
<g id="a_node7"><a xlink:href="../../d3/dee/classStripboard.html#a4e4311bc141e9ad6a14cd10c42093095" target="_top" xlink:title=" ">
<polygon fill="#ffffff" stroke="#000000" points="179,-7.044 179,-26.044 289,-26.044 289,-7.044 179,-7.044"/>
<text text-anchor="middle" x="234" y="-14.044" font-family="Helvetica,sans-Serif" font-size="10.00" fill="#000000">Stripboard::setProp</text>
</a>
</g>
</g>
<!-- Node625&#45;&gt;Node627 -->
<g id="edge6" class="edge">
<title>Node625&#45;&gt;Node627</title>
<path fill="none" stroke="#191970" d="M314.5732,-26.4207C305.9797,-25.3673 297.3357,-24.3077 289.0649,-23.2939"/>
<polygon fill="#191970" stroke="#191970" points="314.261,-29.9085 324.6126,-27.6513 315.1128,-22.9605 314.261,-29.9085"/>
</g>
<!-- Node627&#45;&gt;Node626 -->
<g id="edge7" class="edge">
<title>Node627&#45;&gt;Node626</title>
<path fill="none" stroke="#191970" d="M168.8327,-24.1635C160.3905,-25.1506 151.7069,-26.1659 143.1666,-27.1645"/>
<polygon fill="#191970" stroke="#191970" points="169.4591,-27.6142 178.9849,-22.9765 168.6461,-20.6616 169.4591,-27.6142"/>
</g>
</g>
</svg>
