<?xml version="1.0" encoding="UTF-8" standalone="no"?>
<!DOCTYPE svg PUBLIC "-//W3C//DTD SVG 1.1//EN"
 "http://www.w3.org/Graphics/SVG/1.1/DTD/svg11.dtd">
<!-- Generated by graphviz version 2.40.1 (0)
 -->
<!-- Title: ChangeWireCommand::getParamString Pages: 1 -->
<svg width="526pt" height="39pt"
 viewBox="0.00 0.00 526.00 39.00" xmlns="http://www.w3.org/2000/svg" xmlns:xlink="http://www.w3.org/1999/xlink">
<g id="graph0" class="graph" transform="scale(1 1) rotate(0) translate(4 35)">
<title>ChangeWireCommand::getParamString</title>
<polygon fill="#ffffff" stroke="transparent" points="-4,4 -4,-35 522,-35 522,4 -4,4"/>
<!-- Node2 -->
<g id="node1" class="node">
<title>Node2</title>
<g id="a_node1"><a xlink:title=" ">
<polygon fill="#bfbfbf" stroke="#000000" points="0,-.5 0,-30.5 132,-30.5 132,-.5 0,-.5"/>
<text text-anchor="start" x="8" y="-18.5" font-family="Helvetica,sans-Serif" font-size="10.00" fill="#000000">ChangeWireCommand::</text>
<text text-anchor="middle" x="66" y="-7.5" font-family="Helvetica,sans-Serif" font-size="10.00" fill="#000000">getParamString</text>
</a>
</g>
</g>
<!-- Node3 -->
<g id="node2" class="node">
<title>Node3</title>
<g id="a_node2"><a xlink:href="../../d8/d6e/classBaseCommand.html#aca69868889f793ce1399fd0c752cfa05" target="_top" xlink:title=" ">
<polygon fill="#ffffff" stroke="#000000" points="168,-6 168,-25 340,-25 340,-6 168,-6"/>
<text text-anchor="middle" x="254" y="-13" font-family="Helvetica,sans-Serif" font-size="10.00" fill="#000000">BaseCommand::getParamString</text>
</a>
</g>
</g>
<!-- Node2&#45;&gt;Node3 -->
<g id="edge1" class="edge">
<title>Node2&#45;&gt;Node3</title>
<path fill="none" stroke="#191970" d="M132.0174,-15.5C140.3063,-15.5 148.9146,-15.5 157.5505,-15.5"/>
<polygon fill="#191970" stroke="#191970" points="157.6834,-19.0001 167.6834,-15.5 157.6834,-12.0001 157.6834,-19.0001"/>
</g>
<!-- Node4 -->
<g id="node3" class="node">
<title>Node4</title>
<g id="a_node3"><a xlink:href="../../d8/d37/classSketchWidget.html#a4319a31c3a619e166f0e7dac865e2ea3" target="_top" xlink:title=" ">
<polygon fill="#ffffff" stroke="#000000" points="376,-6 376,-25 518,-25 518,-6 376,-6"/>
<text text-anchor="middle" x="447" y="-13" font-family="Helvetica,sans-Serif" font-size="10.00" fill="#000000">SketchWidget::viewName</text>
</a>
</g>
</g>
<!-- Node3&#45;&gt;Node4 -->
<g id="edge2" class="edge">
<title>Node3&#45;&gt;Node4</title>
<path fill="none" stroke="#191970" d="M340.0578,-15.5C348.562,-15.5 357.1756,-15.5 365.6304,-15.5"/>
<polygon fill="#191970" stroke="#191970" points="365.8465,-19.0001 375.8465,-15.5 365.8465,-12.0001 365.8465,-19.0001"/>
</g>
</g>
</svg>
