<?xml version="1.0" encoding="UTF-8" standalone="no"?>
<!DOCTYPE svg PUBLIC "-//W3C//DTD SVG 1.1//EN"
 "http://www.w3.org/Graphics/SVG/1.1/DTD/svg11.dtd">
<!-- Generated by graphviz version 2.40.1 (0)
 -->
<!-- Title: DRCResultsDialog Pages: 1 -->
<svg width="740pt" height="215pt"
 viewBox="0.00 0.00 740.00 215.00" xmlns="http://www.w3.org/2000/svg" xmlns:xlink="http://www.w3.org/1999/xlink">
<g id="graph0" class="graph" transform="scale(1 1) rotate(0) translate(4 211)">
<title>DRCResultsDialog</title>
<polygon fill="#ffffff" stroke="transparent" points="-4,4 -4,-211 736,-211 736,4 -4,4"/>
<!-- Node2 -->
<g id="node1" class="node">
<title>Node2</title>
<g id="a_node1"><a xlink:title=" ">
<polygon fill="#bfbfbf" stroke="#000000" points="315,-.5 315,-90.5 447,-90.5 447,-.5 315,-.5"/>
<text text-anchor="middle" x="381" y="-78.5" font-family="Helvetica,sans-Serif" font-size="10.00" fill="#000000">DRCResultsDialog</text>
<polyline fill="none" stroke="#000000" points="315,-71.5 447,-71.5 "/>
<text text-anchor="middle" x="381" y="-59.5" font-family="Helvetica,sans-Serif" font-size="10.00" fill="#000000"> </text>
<polyline fill="none" stroke="#000000" points="315,-52.5 447,-52.5 "/>
<text text-anchor="start" x="323" y="-40.5" font-family="Helvetica,sans-Serif" font-size="10.00" fill="#000000">+ DRCResultsDialog()</text>
<text text-anchor="start" x="323" y="-29.5" font-family="Helvetica,sans-Serif" font-size="10.00" fill="#000000">+ ~DRCResultsDialog()</text>
<text text-anchor="start" x="323" y="-18.5" font-family="Helvetica,sans-Serif" font-size="10.00" fill="#000000"># pressedSlot()</text>
<text text-anchor="start" x="323" y="-7.5" font-family="Helvetica,sans-Serif" font-size="10.00" fill="#000000"># releasedSlot()</text>
</a>
</g>
</g>
<!-- Node3 -->
<g id="node2" class="node">
<title>Node3</title>
<g id="a_node2"><a xlink:href="../../d9/d46/classQDialog.html" target="_top" xlink:title=" ">
<polygon fill="#ffffff" stroke="#000000" points="0,-144 0,-201 56,-201 56,-144 0,-144"/>
<text text-anchor="middle" x="28" y="-189" font-family="Helvetica,sans-Serif" font-size="10.00" fill="#000000">QDialog</text>
<polyline fill="none" stroke="#000000" points="0,-182 56,-182 "/>
<text text-anchor="middle" x="28" y="-170" font-family="Helvetica,sans-Serif" font-size="10.00" fill="#000000"> </text>
<polyline fill="none" stroke="#000000" points="0,-163 56,-163 "/>
<text text-anchor="middle" x="28" y="-151" font-family="Helvetica,sans-Serif" font-size="10.00" fill="#000000"> </text>
</a>
</g>
</g>
<!-- Node3&#45;&gt;Node2 -->
<g id="edge1" class="edge">
<title>Node3&#45;&gt;Node2</title>
<path fill="none" stroke="#191970" d="M64.4282,-138.3294C64.6186,-138.2185 64.8092,-138.1086 65,-138 144.6045,-92.6742 248.3714,-67.8483 314.8578,-55.6182"/>
<polygon fill="none" stroke="#191970" points="62.3873,-135.4841 56.0521,-143.9762 66.3003,-141.2884 62.3873,-135.4841"/>
</g>
<!-- Node4 -->
<g id="node3" class="node">
<title>Node4</title>
<g id="a_node3"><a xlink:title=" ">
<polygon fill="#ffffff" stroke="#bfbfbf" points="74,-144 74,-201 216,-201 216,-144 74,-144"/>
<text text-anchor="middle" x="145" y="-189" font-family="Helvetica,sans-Serif" font-size="10.00" fill="#000000">QList&lt; CollidingThing * &gt;</text>
<polyline fill="none" stroke="#bfbfbf" points="74,-182 216,-182 "/>
<text text-anchor="middle" x="145" y="-170" font-family="Helvetica,sans-Serif" font-size="10.00" fill="#000000"> </text>
<polyline fill="none" stroke="#bfbfbf" points="74,-163 216,-163 "/>
<text text-anchor="middle" x="145" y="-151" font-family="Helvetica,sans-Serif" font-size="10.00" fill="#000000"> </text>
</a>
</g>
</g>
<!-- Node4&#45;&gt;Node2 -->
<g id="edge2" class="edge">
<title>Node4&#45;&gt;Node2</title>
<path fill="none" stroke="#404040" d="M180.5844,-143.6926C195.8755,-132.0754 214.2782,-119.0689 232,-109 254.4813,-96.2269 280.0362,-84.4371 303.5561,-74.5722"/>
<polygon fill="none" stroke="#404040" points="303.8224,-74.4624 307.8447,-68.4773 314.9164,-69.8881 310.8942,-75.8733 303.8224,-74.4624"/>
<text text-anchor="middle" x="282" y="-112" font-family="Helvetica,sans-Serif" font-size="10.00" fill="#000000"> #m_collidingThings</text>
</g>
<!-- Node5 -->
<g id="node4" class="node">
<title>Node5</title>
<g id="a_node4"><a xlink:title=" ">
<polygon fill="#ffffff" stroke="#bfbfbf" points="234,-144 234,-201 368,-201 368,-144 234,-144"/>
<text text-anchor="middle" x="301" y="-189" font-family="Helvetica,sans-Serif" font-size="10.00" fill="#000000">QGraphicsPixmapItem *</text>
<polyline fill="none" stroke="#bfbfbf" points="234,-182 368,-182 "/>
<text text-anchor="middle" x="301" y="-170" font-family="Helvetica,sans-Serif" font-size="10.00" fill="#000000"> </text>
<polyline fill="none" stroke="#bfbfbf" points="234,-163 368,-163 "/>
<text text-anchor="middle" x="301" y="-151" font-family="Helvetica,sans-Serif" font-size="10.00" fill="#000000"> </text>
</a>
</g>
</g>
<!-- Node5&#45;&gt;Node2 -->
<g id="edge3" class="edge">
<title>Node5&#45;&gt;Node2</title>
<path fill="none" stroke="#404040" d="M318.9536,-143.9987C326.8866,-131.4051 336.502,-116.1405 345.7708,-101.4263"/>
<polygon fill="none" stroke="#404040" points="346.0337,-101.0089 345.8472,-93.8002 352.4297,-90.8554 352.6162,-98.0641 346.0337,-101.0089"/>
<text text-anchor="middle" x="383.5" y="-112" font-family="Helvetica,sans-Serif" font-size="10.00" fill="#000000"> #m_displayItem</text>
</g>
<!-- Node6 -->
<g id="node5" class="node">
<title>Node6</title>
<g id="a_node5"><a xlink:title=" ">
<polygon fill="#ffffff" stroke="#bfbfbf" points="386.5,-138.5 386.5,-206.5 535.5,-206.5 535.5,-138.5 386.5,-138.5"/>
<text text-anchor="start" x="394.5" y="-194.5" font-family="Helvetica,sans-Serif" font-size="10.00" fill="#000000">QPointer&lt; class PCBSketch</text>
<text text-anchor="middle" x="461" y="-183.5" font-family="Helvetica,sans-Serif" font-size="10.00" fill="#000000">Widget &gt;</text>
<polyline fill="none" stroke="#bfbfbf" points="386.5,-176.5 535.5,-176.5 "/>
<text text-anchor="middle" x="461" y="-164.5" font-family="Helvetica,sans-Serif" font-size="10.00" fill="#000000"> </text>
<polyline fill="none" stroke="#bfbfbf" points="386.5,-157.5 535.5,-157.5 "/>
<text text-anchor="middle" x="461" y="-145.5" font-family="Helvetica,sans-Serif" font-size="10.00" fill="#000000"> </text>
</a>
</g>
</g>
<!-- Node6&#45;&gt;Node2 -->
<g id="edge4" class="edge">
<title>Node6&#45;&gt;Node2</title>
<path fill="none" stroke="#404040" d="M445.8288,-138.201C441.1378,-128.5409 435.695,-118.1714 430,-109 428.3024,-106.2662 426.5121,-103.5085 424.6595,-100.7536"/>
<polygon fill="none" stroke="#404040" points="424.6048,-100.6753 417.8899,-98.0466 417.7337,-90.8372 424.4486,-93.4659 424.6048,-100.6753"/>
<text text-anchor="middle" x="481.5" y="-112" font-family="Helvetica,sans-Serif" font-size="10.00" fill="#000000"> #m_sketchWidget</text>
</g>
<!-- Node7 -->
<g id="node6" class="node">
<title>Node7</title>
<g id="a_node6"><a xlink:title=" ">
<polygon fill="#ffffff" stroke="#bfbfbf" points="553.5,-144 553.5,-201 616.5,-201 616.5,-144 553.5,-144"/>
<text text-anchor="middle" x="585" y="-189" font-family="Helvetica,sans-Serif" font-size="10.00" fill="#000000">QImage *</text>
<polyline fill="none" stroke="#bfbfbf" points="553.5,-182 616.5,-182 "/>
<text text-anchor="middle" x="585" y="-170" font-family="Helvetica,sans-Serif" font-size="10.00" fill="#000000"> </text>
<polyline fill="none" stroke="#bfbfbf" points="553.5,-163 616.5,-163 "/>
<text text-anchor="middle" x="585" y="-151" font-family="Helvetica,sans-Serif" font-size="10.00" fill="#000000"> </text>
</a>
</g>
</g>
<!-- Node7&#45;&gt;Node2 -->
<g id="edge5" class="edge">
<title>Node7&#45;&gt;Node2</title>
<path fill="none" stroke="#404040" d="M565.8322,-143.9041C556.6928,-131.9113 544.9318,-118.5617 532,-109 509.9887,-92.7249 483.1816,-79.7112 458.2973,-69.8072"/>
<polygon fill="none" stroke="#404040" points="458.2248,-69.7795 451.1893,-71.3611 447.0233,-65.4751 454.0589,-63.8934 458.2248,-69.7795"/>
<text text-anchor="middle" x="590.5" y="-112" font-family="Helvetica,sans-Serif" font-size="10.00" fill="#000000"> #m_displayImage</text>
</g>
<!-- Node8 -->
<g id="node7" class="node">
<title>Node8</title>
<g id="a_node7"><a xlink:title=" ">
<polygon fill="#ffffff" stroke="#bfbfbf" points="662,-144 662,-201 732,-201 732,-144 662,-144"/>
<text text-anchor="middle" x="697" y="-189" font-family="Helvetica,sans-Serif" font-size="10.00" fill="#000000">QStringList</text>
<polyline fill="none" stroke="#bfbfbf" points="662,-182 732,-182 "/>
<text text-anchor="middle" x="697" y="-170" font-family="Helvetica,sans-Serif" font-size="10.00" fill="#000000"> </text>
<polyline fill="none" stroke="#bfbfbf" points="662,-163 732,-163 "/>
<text text-anchor="middle" x="697" y="-151" font-family="Helvetica,sans-Serif" font-size="10.00" fill="#000000"> </text>
</a>
</g>
</g>
<!-- Node8&#45;&gt;Node2 -->
<g id="edge6" class="edge">
<title>Node8&#45;&gt;Node2</title>
<path fill="none" stroke="#404040" d="M677.9136,-143.8893C668.235,-131.4484 655.4652,-117.746 641,-109 585.5497,-75.4737 513.3588,-59.6305 459.1201,-52.1537"/>
<polygon fill="none" stroke="#404040" points="459.0369,-52.143 452.5715,-55.3366 447.1369,-50.5968 453.6023,-47.4033 459.0369,-52.143"/>
<text text-anchor="middle" x="693" y="-112" font-family="Helvetica,sans-Serif" font-size="10.00" fill="#000000"> #m_messages</text>
</g>
</g>
</svg>
