<?xml version="1.0" encoding="UTF-8" standalone="no"?>
<!DOCTYPE svg PUBLIC "-//W3C//DTD SVG 1.1//EN"
 "http://www.w3.org/Graphics/SVG/1.1/DTD/svg11.dtd">
<!-- Generated by graphviz version 2.40.1 (0)
 -->
<!-- Title: ProgramWindow Pages: 1 -->
<svg width="2279pt" height="1206pt"
 viewBox="0.00 0.00 2278.50 1206.00" xmlns="http://www.w3.org/2000/svg" xmlns:xlink="http://www.w3.org/1999/xlink">
<g id="graph0" class="graph" transform="scale(1 1) rotate(0) translate(4 1202)">
<title>ProgramWindow</title>
<polygon fill="#ffffff" stroke="transparent" points="-4,4 -4,-1202 2274.5,-1202 2274.5,4 -4,4"/>
<!-- Node4 -->
<g id="node1" class="node">
<title>Node4</title>
<g id="a_node1"><a xlink:title=" ">
<polygon fill="#bfbfbf" stroke="#000000" points="1255,-.5 1255,-453.5 1408,-453.5 1408,-.5 1255,-.5"/>
<text text-anchor="middle" x="1331.5" y="-441.5" font-family="Helvetica,sans-Serif" font-size="10.00" fill="#000000">ProgramWindow</text>
<polyline fill="none" stroke="#000000" points="1255,-434.5 1408,-434.5 "/>
<text text-anchor="start" x="1263" y="-422.5" font-family="Helvetica,sans-Serif" font-size="10.00" fill="#000000">+ m_saveAction</text>
<text text-anchor="start" x="1263" y="-411.5" font-family="Helvetica,sans-Serif" font-size="10.00" fill="#000000"># m_preferencesAction</text>
<text text-anchor="start" x="1263" y="-400.5" font-family="Helvetica,sans-Serif" font-size="10.00" fill="#000000"># m_selectAction</text>
<polyline fill="none" stroke="#000000" points="1255,-393.5 1408,-393.5 "/>
<text text-anchor="start" x="1263" y="-381.5" font-family="Helvetica,sans-Serif" font-size="10.00" fill="#000000">+ ProgramWindow()</text>
<text text-anchor="start" x="1263" y="-370.5" font-family="Helvetica,sans-Serif" font-size="10.00" fill="#000000">+ ~ProgramWindow()</text>
<text text-anchor="start" x="1263" y="-359.5" font-family="Helvetica,sans-Serif" font-size="10.00" fill="#000000">+ alreadyHasProgram()</text>
<text text-anchor="start" x="1263" y="-348.5" font-family="Helvetica,sans-Serif" font-size="10.00" fill="#000000">+ createViewMenuActions()</text>
<text text-anchor="start" x="1263" y="-337.5" font-family="Helvetica,sans-Serif" font-size="10.00" fill="#000000">+ defaultSaveFolder()</text>
<text text-anchor="start" x="1263" y="-326.5" font-family="Helvetica,sans-Serif" font-size="10.00" fill="#000000">+ getAvailablePlatforms()</text>
<text text-anchor="start" x="1263" y="-315.5" font-family="Helvetica,sans-Serif" font-size="10.00" fill="#000000">+ getBoards()</text>
<text text-anchor="start" x="1263" y="-304.5" font-family="Helvetica,sans-Serif" font-size="10.00" fill="#000000">+ getPlatformByName()</text>
<text text-anchor="start" x="1263" y="-293.5" font-family="Helvetica,sans-Serif" font-size="10.00" fill="#000000">+ getSerialPorts()</text>
<text text-anchor="start" x="1263" y="-282.5" font-family="Helvetica,sans-Serif" font-size="10.00" fill="#000000">+ hasPlatform()</text>
<text text-anchor="start" x="1263" y="-271.5" font-family="Helvetica,sans-Serif" font-size="10.00" fill="#000000">and 8 more...</text>
<text text-anchor="start" x="1263" y="-260.5" font-family="Helvetica,sans-Serif" font-size="10.00" fill="#000000">+ saveAll()</text>
<text text-anchor="start" x="1263" y="-249.5" font-family="Helvetica,sans-Serif" font-size="10.00" fill="#000000"># addBoard()</text>
<text text-anchor="start" x="1263" y="-238.5" font-family="Helvetica,sans-Serif" font-size="10.00" fill="#000000"># addPort()</text>
<text text-anchor="start" x="1263" y="-227.5" font-family="Helvetica,sans-Serif" font-size="10.00" fill="#000000"># beforeClosing()</text>
<text text-anchor="start" x="1263" y="-216.5" font-family="Helvetica,sans-Serif" font-size="10.00" fill="#000000"># beforeClosingTab()</text>
<text text-anchor="start" x="1263" y="-205.5" font-family="Helvetica,sans-Serif" font-size="10.00" fill="#000000"># cleanUp()</text>
<text text-anchor="start" x="1263" y="-194.5" font-family="Helvetica,sans-Serif" font-size="10.00" fill="#000000"># closeEvent()</text>
<text text-anchor="start" x="1263" y="-183.5" font-family="Helvetica,sans-Serif" font-size="10.00" fill="#000000"># createCenter()</text>
<text text-anchor="start" x="1263" y="-172.5" font-family="Helvetica,sans-Serif" font-size="10.00" fill="#000000"># createHeader()</text>
<text text-anchor="start" x="1263" y="-161.5" font-family="Helvetica,sans-Serif" font-size="10.00" fill="#000000"># currentWidget()</text>
<text text-anchor="start" x="1263" y="-150.5" font-family="Helvetica,sans-Serif" font-size="10.00" fill="#000000"># event()</text>
<text text-anchor="start" x="1263" y="-139.5" font-family="Helvetica,sans-Serif" font-size="10.00" fill="#000000">and 12 more...</text>
<text text-anchor="start" x="1263" y="-128.5" font-family="Helvetica,sans-Serif" font-size="10.00" fill="#000000"># initPlatforms()</text>
<text text-anchor="start" x="1263" y="-117.5" font-family="Helvetica,sans-Serif" font-size="10.00" fill="#000000"># addTab()</text>
<text text-anchor="start" x="1263" y="-106.5" font-family="Helvetica,sans-Serif" font-size="10.00" fill="#000000"># closeCurrentTab()</text>
<text text-anchor="start" x="1263" y="-95.5" font-family="Helvetica,sans-Serif" font-size="10.00" fill="#000000"># closeTab()</text>
<text text-anchor="start" x="1263" y="-84.5" font-family="Helvetica,sans-Serif" font-size="10.00" fill="#000000"># copy()</text>
<text text-anchor="start" x="1263" y="-73.5" font-family="Helvetica,sans-Serif" font-size="10.00" fill="#000000"># cut()</text>
<text text-anchor="start" x="1263" y="-62.5" font-family="Helvetica,sans-Serif" font-size="10.00" fill="#000000"># duplicateTab()</text>
<text text-anchor="start" x="1263" y="-51.5" font-family="Helvetica,sans-Serif" font-size="10.00" fill="#000000"># loadProgramFile()</text>
<text text-anchor="start" x="1263" y="-40.5" font-family="Helvetica,sans-Serif" font-size="10.00" fill="#000000"># paste()</text>
<text text-anchor="start" x="1263" y="-29.5" font-family="Helvetica,sans-Serif" font-size="10.00" fill="#000000"># portProcessFinished()</text>
<text text-anchor="start" x="1263" y="-18.5" font-family="Helvetica,sans-Serif" font-size="10.00" fill="#000000"># portProcessReadyRead()</text>
<text text-anchor="start" x="1263" y="-7.5" font-family="Helvetica,sans-Serif" font-size="10.00" fill="#000000">and 18 more...</text>
</a>
</g>
</g>
<!-- Node5 -->
<g id="node2" class="node">
<title>Node5</title>
<g id="a_node2"><a xlink:href="../../d3/d1c/classFritzingWindow.html" target="_top" xlink:title=" ">
<polygon fill="#ffffff" stroke="#000000" points="434,-556.5 434,-811.5 591,-811.5 591,-556.5 434,-556.5"/>
<text text-anchor="middle" x="512.5" y="-799.5" font-family="Helvetica,sans-Serif" font-size="10.00" fill="#000000">FritzingWindow</text>
<polyline fill="none" stroke="#000000" points="434,-792.5 591,-792.5 "/>
<text text-anchor="middle" x="512.5" y="-780.5" font-family="Helvetica,sans-Serif" font-size="10.00" fill="#000000"> </text>
<polyline fill="none" stroke="#000000" points="434,-773.5 591,-773.5 "/>
<text text-anchor="start" x="442" y="-761.5" font-family="Helvetica,sans-Serif" font-size="10.00" fill="#000000">+ FritzingWindow()</text>
<text text-anchor="start" x="442" y="-750.5" font-family="Helvetica,sans-Serif" font-size="10.00" fill="#000000">+ fileName()</text>
<text text-anchor="start" x="442" y="-739.5" font-family="Helvetica,sans-Serif" font-size="10.00" fill="#000000">+ notClosableForAWhile()</text>
<text text-anchor="start" x="442" y="-728.5" font-family="Helvetica,sans-Serif" font-size="10.00" fill="#000000">+ setFileName()</text>
<text text-anchor="start" x="442" y="-717.5" font-family="Helvetica,sans-Serif" font-size="10.00" fill="#000000">+ alreadyHasExtension()</text>
<text text-anchor="start" x="442" y="-706.5" font-family="Helvetica,sans-Serif" font-size="10.00" fill="#000000"># anyModified()</text>
<text text-anchor="start" x="442" y="-695.5" font-family="Helvetica,sans-Serif" font-size="10.00" fill="#000000"># beforeClosing()</text>
<text text-anchor="start" x="442" y="-684.5" font-family="Helvetica,sans-Serif" font-size="10.00" fill="#000000"># beforeClosingMessage()</text>
<text text-anchor="start" x="442" y="-673.5" font-family="Helvetica,sans-Serif" font-size="10.00" fill="#000000"># createCloseAction()</text>
<text text-anchor="start" x="442" y="-662.5" font-family="Helvetica,sans-Serif" font-size="10.00" fill="#000000"># defaultSaveFolder()</text>
<text text-anchor="start" x="442" y="-651.5" font-family="Helvetica,sans-Serif" font-size="10.00" fill="#000000"># fileExtension()</text>
<text text-anchor="start" x="442" y="-640.5" font-family="Helvetica,sans-Serif" font-size="10.00" fill="#000000"># fritzingTitle()</text>
<text text-anchor="start" x="442" y="-629.5" font-family="Helvetica,sans-Serif" font-size="10.00" fill="#000000"># getExtensions()</text>
<text text-anchor="start" x="442" y="-618.5" font-family="Helvetica,sans-Serif" font-size="10.00" fill="#000000"># getExtensionString()</text>
<text text-anchor="start" x="442" y="-607.5" font-family="Helvetica,sans-Serif" font-size="10.00" fill="#000000"># save()</text>
<text text-anchor="start" x="442" y="-596.5" font-family="Helvetica,sans-Serif" font-size="10.00" fill="#000000">and 7 more...</text>
<text text-anchor="start" x="442" y="-585.5" font-family="Helvetica,sans-Serif" font-size="10.00" fill="#000000"># save()</text>
<text text-anchor="start" x="442" y="-574.5" font-family="Helvetica,sans-Serif" font-size="10.00" fill="#000000"># saveAs()</text>
<text text-anchor="start" x="442" y="-563.5" font-family="Helvetica,sans-Serif" font-size="10.00" fill="#000000"># undoStackCleanChanged()</text>
</a>
</g>
</g>
<!-- Node5&#45;&gt;Node4 -->
<g id="edge1" class="edge">
<title>Node5&#45;&gt;Node4</title>
<path fill="none" stroke="#191970" d="M594.7247,-548.1999C616.3671,-520.2308 641.5798,-492.958 669.5,-472 853.6345,-333.7814 1124.0477,-266.4819 1254.929,-240.4515"/>
<polygon fill="none" stroke="#191970" points="591.6834,-546.4176 588.4209,-556.4976 597.2573,-550.6522 591.6834,-546.4176"/>
</g>
<!-- Node6 -->
<g id="node3" class="node">
<title>Node6</title>
<g id="a_node3"><a xlink:href="../../df/d90/classQMainWindow.html" target="_top" xlink:title=" ">
<polygon fill="#ffffff" stroke="#000000" points="529,-953 529,-1010 616,-1010 616,-953 529,-953"/>
<text text-anchor="middle" x="572.5" y="-998" font-family="Helvetica,sans-Serif" font-size="10.00" fill="#000000">QMainWindow</text>
<polyline fill="none" stroke="#000000" points="529,-991 616,-991 "/>
<text text-anchor="middle" x="572.5" y="-979" font-family="Helvetica,sans-Serif" font-size="10.00" fill="#000000"> </text>
<polyline fill="none" stroke="#000000" points="529,-972 616,-972 "/>
<text text-anchor="middle" x="572.5" y="-960" font-family="Helvetica,sans-Serif" font-size="10.00" fill="#000000"> </text>
</a>
</g>
</g>
<!-- Node6&#45;&gt;Node5 -->
<g id="edge2" class="edge">
<title>Node6&#45;&gt;Node5</title>
<path fill="none" stroke="#191970" d="M566.4792,-942.656C561.5691,-911.9813 554.2069,-868.1405 546.5,-830 545.2887,-824.0052 544.0132,-817.8807 542.6956,-811.7008"/>
<polygon fill="none" stroke="#191970" points="563.085,-943.5988 568.1102,-952.926 569.9983,-942.5008 563.085,-943.5988"/>
</g>
<!-- Node7 -->
<g id="node4" class="node">
<title>Node7</title>
<g id="a_node4"><a xlink:href="../../dd/d82/classBundler.html" target="_top" xlink:title=" ">
<polygon fill="#ffffff" stroke="#000000" points="715,-936.5 715,-1026.5 846,-1026.5 846,-936.5 715,-936.5"/>
<text text-anchor="middle" x="780.5" y="-1014.5" font-family="Helvetica,sans-Serif" font-size="10.00" fill="#000000">Bundler</text>
<polyline fill="none" stroke="#000000" points="715,-1007.5 846,-1007.5 "/>
<text text-anchor="middle" x="780.5" y="-995.5" font-family="Helvetica,sans-Serif" font-size="10.00" fill="#000000"> </text>
<polyline fill="none" stroke="#000000" points="715,-988.5 846,-988.5 "/>
<text text-anchor="start" x="723" y="-976.5" font-family="Helvetica,sans-Serif" font-size="10.00" fill="#000000">+ ~Bundler()</text>
<text text-anchor="start" x="723" y="-965.5" font-family="Helvetica,sans-Serif" font-size="10.00" fill="#000000">+ loadBundledAux()</text>
<text text-anchor="start" x="723" y="-954.5" font-family="Helvetica,sans-Serif" font-size="10.00" fill="#000000">+ preloadBundledAux()</text>
<text text-anchor="start" x="723" y="-943.5" font-family="Helvetica,sans-Serif" font-size="10.00" fill="#000000">+ saveAsAux()</text>
</a>
</g>
</g>
<!-- Node7&#45;&gt;Node5 -->
<g id="edge3" class="edge">
<title>Node7&#45;&gt;Node5</title>
<path fill="none" stroke="#191970" d="M746.7917,-927.8418C726.947,-897.8577 700.5014,-860.5037 673.5,-830 648.4902,-801.7463 618.4526,-773.288 591.1315,-749.0961"/>
<polygon fill="none" stroke="#191970" points="744.0563,-930.0527 752.4697,-936.4921 749.9082,-926.2115 744.0563,-930.0527"/>
</g>
<!-- Node8 -->
<g id="node5" class="node">
<title>Node8</title>
<g id="a_node5"><a xlink:href="../../d0/dbb/classWaitPushUndoStack.html" target="_top" xlink:title=" ">
<polygon fill="#ffffff" stroke="#000000" points="370,-881.5 370,-1081.5 511,-1081.5 511,-881.5 370,-881.5"/>
<text text-anchor="middle" x="440.5" y="-1069.5" font-family="Helvetica,sans-Serif" font-size="10.00" fill="#000000">WaitPushUndoStack</text>
<polyline fill="none" stroke="#000000" points="370,-1062.5 511,-1062.5 "/>
<text text-anchor="middle" x="440.5" y="-1050.5" font-family="Helvetica,sans-Serif" font-size="10.00" fill="#000000"> </text>
<polyline fill="none" stroke="#000000" points="370,-1043.5 511,-1043.5 "/>
<text text-anchor="start" x="378" y="-1031.5" font-family="Helvetica,sans-Serif" font-size="10.00" fill="#000000">+ WaitPushUndoStack()</text>
<text text-anchor="start" x="378" y="-1020.5" font-family="Helvetica,sans-Serif" font-size="10.00" fill="#000000">+ ~WaitPushUndoStack()</text>
<text text-anchor="start" x="378" y="-1009.5" font-family="Helvetica,sans-Serif" font-size="10.00" fill="#000000">+ addTimer()</text>
<text text-anchor="start" x="378" y="-998.5" font-family="Helvetica,sans-Serif" font-size="10.00" fill="#000000">+ deleteTemporary()</text>
<text text-anchor="start" x="378" y="-987.5" font-family="Helvetica,sans-Serif" font-size="10.00" fill="#000000">+ deleteTimer()</text>
<text text-anchor="start" x="378" y="-976.5" font-family="Helvetica,sans-Serif" font-size="10.00" fill="#000000">+ hasTimers()</text>
<text text-anchor="start" x="378" y="-965.5" font-family="Helvetica,sans-Serif" font-size="10.00" fill="#000000">+ push()</text>
<text text-anchor="start" x="378" y="-954.5" font-family="Helvetica,sans-Serif" font-size="10.00" fill="#000000">+ resolveTemporary()</text>
<text text-anchor="start" x="378" y="-943.5" font-family="Helvetica,sans-Serif" font-size="10.00" fill="#000000">+ waitPush()</text>
<text text-anchor="start" x="378" y="-932.5" font-family="Helvetica,sans-Serif" font-size="10.00" fill="#000000">+ waitPushTemporary()</text>
<text text-anchor="start" x="378" y="-921.5" font-family="Helvetica,sans-Serif" font-size="10.00" fill="#000000">+ writeUndo()</text>
<text text-anchor="start" x="378" y="-910.5" font-family="Helvetica,sans-Serif" font-size="10.00" fill="#000000"># clearDeadTimers()</text>
<text text-anchor="start" x="378" y="-899.5" font-family="Helvetica,sans-Serif" font-size="10.00" fill="#000000"># clearLiveTimers()</text>
<text text-anchor="start" x="378" y="-888.5" font-family="Helvetica,sans-Serif" font-size="10.00" fill="#000000"># clearTimers()</text>
</a>
</g>
</g>
<!-- Node8&#45;&gt;Node5 -->
<g id="edge4" class="edge">
<title>Node8&#45;&gt;Node5</title>
<path fill="none" stroke="#404040" d="M454.0574,-881.2201C457.0432,-864.0395 460.5236,-846.4359 464.5,-830 465.0186,-827.8564 465.5538,-825.699 466.1039,-823.531"/>
<polygon fill="none" stroke="#404040" points="466.1232,-823.4573 463.783,-816.6365 469.179,-811.8529 471.5192,-818.6737 466.1232,-823.4573"/>
<text text-anchor="middle" x="503.5" y="-844" font-family="Helvetica,sans-Serif" font-size="10.00" fill="#000000"> #m_undoStack</text>
</g>
<!-- Node9 -->
<g id="node6" class="node">
<title>Node9</title>
<g id="a_node6"><a xlink:title=" ">
<polygon fill="#ffffff" stroke="#bfbfbf" points="232,-1140.5 232,-1197.5 309,-1197.5 309,-1140.5 232,-1140.5"/>
<text text-anchor="middle" x="270.5" y="-1185.5" font-family="Helvetica,sans-Serif" font-size="10.00" fill="#000000">QUndoStack</text>
<polyline fill="none" stroke="#bfbfbf" points="232,-1178.5 309,-1178.5 "/>
<text text-anchor="middle" x="270.5" y="-1166.5" font-family="Helvetica,sans-Serif" font-size="10.00" fill="#000000"> </text>
<polyline fill="none" stroke="#bfbfbf" points="232,-1159.5 309,-1159.5 "/>
<text text-anchor="middle" x="270.5" y="-1147.5" font-family="Helvetica,sans-Serif" font-size="10.00" fill="#000000"> </text>
</a>
</g>
</g>
<!-- Node9&#45;&gt;Node8 -->
<g id="edge5" class="edge">
<title>Node9&#45;&gt;Node8</title>
<path fill="none" stroke="#191970" d="M310.0135,-1132.9277C326.1406,-1117.6681 344.6794,-1099.4197 360.5,-1082 363.6486,-1078.5332 366.8189,-1074.9589 369.9862,-1071.318"/>
<polygon fill="none" stroke="#191970" points="307.2047,-1130.7641 302.3127,-1140.162 311.9975,-1135.866 307.2047,-1130.7641"/>
</g>
<!-- Node10 -->
<g id="node7" class="node">
<title>Node10</title>
<g id="a_node7"><a xlink:title=" ">
<polygon fill="#ffffff" stroke="#bfbfbf" points="327,-1140.5 327,-1197.5 368,-1197.5 368,-1140.5 327,-1140.5"/>
<text text-anchor="middle" x="347.5" y="-1185.5" font-family="Helvetica,sans-Serif" font-size="10.00" fill="#000000">QFile</text>
<polyline fill="none" stroke="#bfbfbf" points="327,-1178.5 368,-1178.5 "/>
<text text-anchor="middle" x="347.5" y="-1166.5" font-family="Helvetica,sans-Serif" font-size="10.00" fill="#000000"> </text>
<polyline fill="none" stroke="#bfbfbf" points="327,-1159.5 368,-1159.5 "/>
<text text-anchor="middle" x="347.5" y="-1147.5" font-family="Helvetica,sans-Serif" font-size="10.00" fill="#000000"> </text>
</a>
</g>
</g>
<!-- Node10&#45;&gt;Node8 -->
<g id="edge6" class="edge">
<title>Node10&#45;&gt;Node8</title>
<path fill="none" stroke="#404040" d="M361.8274,-1140.114C368.4098,-1126.8432 376.6791,-1110.1712 385.365,-1092.6593"/>
<polygon fill="none" stroke="#404040" points="385.4835,-1092.4202 384.5662,-1085.2677 390.8157,-1081.67 391.733,-1088.8225 385.4835,-1092.4202"/>
<text text-anchor="middle" x="401.5" y="-1108.5" font-family="Helvetica,sans-Serif" font-size="10.00" fill="#000000"> #m_file</text>
</g>
<!-- Node11 -->
<g id="node8" class="node">
<title>Node11</title>
<g id="a_node8"><a xlink:title=" ">
<polygon fill="#ffffff" stroke="#bfbfbf" points="386.5,-1140.5 386.5,-1197.5 494.5,-1197.5 494.5,-1140.5 386.5,-1140.5"/>
<text text-anchor="middle" x="440.5" y="-1185.5" font-family="Helvetica,sans-Serif" font-size="10.00" fill="#000000">QList&lt; QTimer * &gt;</text>
<polyline fill="none" stroke="#bfbfbf" points="386.5,-1178.5 494.5,-1178.5 "/>
<text text-anchor="middle" x="440.5" y="-1166.5" font-family="Helvetica,sans-Serif" font-size="10.00" fill="#000000"> </text>
<polyline fill="none" stroke="#bfbfbf" points="386.5,-1159.5 494.5,-1159.5 "/>
<text text-anchor="middle" x="440.5" y="-1147.5" font-family="Helvetica,sans-Serif" font-size="10.00" fill="#000000"> </text>
</a>
</g>
</g>
<!-- Node11&#45;&gt;Node8 -->
<g id="edge7" class="edge">
<title>Node11&#45;&gt;Node8</title>
<path fill="none" stroke="#404040" d="M440.5,-1140.114C440.5,-1127.2188 440.5,-1111.1122 440.5,-1094.1441"/>
<polygon fill="none" stroke="#404040" points="440.5001,-1093.67 436.5,-1087.67 440.5,-1081.67 444.5,-1087.6699 440.5001,-1093.67"/>
<text text-anchor="middle" x="481.5" y="-1114" font-family="Helvetica,sans-Serif" font-size="10.00" fill="#000000"> #m_liveTimers</text>
<text text-anchor="middle" x="481.5" y="-1103" font-family="Helvetica,sans-Serif" font-size="10.00" fill="#000000">#m_deadTimers</text>
</g>
<!-- Node12 -->
<g id="node9" class="node">
<title>Node12</title>
<g id="a_node9"><a xlink:title=" ">
<polygon fill="#ffffff" stroke="#bfbfbf" points="512.5,-1140.5 512.5,-1197.5 620.5,-1197.5 620.5,-1140.5 512.5,-1140.5"/>
<text text-anchor="middle" x="566.5" y="-1185.5" font-family="Helvetica,sans-Serif" font-size="10.00" fill="#000000">QUndoCommand *</text>
<polyline fill="none" stroke="#bfbfbf" points="512.5,-1178.5 620.5,-1178.5 "/>
<text text-anchor="middle" x="566.5" y="-1166.5" font-family="Helvetica,sans-Serif" font-size="10.00" fill="#000000"> </text>
<polyline fill="none" stroke="#bfbfbf" points="512.5,-1159.5 620.5,-1159.5 "/>
<text text-anchor="middle" x="566.5" y="-1147.5" font-family="Helvetica,sans-Serif" font-size="10.00" fill="#000000"> </text>
</a>
</g>
</g>
<!-- Node12&#45;&gt;Node8 -->
<g id="edge8" class="edge">
<title>Node12&#45;&gt;Node8</title>
<path fill="none" stroke="#404040" d="M550.7946,-1140.4057C543.6674,-1127.8331 534.9544,-1113.0009 526.5,-1100 523.7328,-1095.7446 520.874,-1091.4321 517.9547,-1087.0972"/>
<polygon fill="none" stroke="#404040" points="517.804,-1086.876 511.1202,-1084.1691 511.0481,-1076.9584 517.732,-1079.6652 517.804,-1086.876"/>
<text text-anchor="middle" x="578.5" y="-1108.5" font-family="Helvetica,sans-Serif" font-size="10.00" fill="#000000"> #m_temporary</text>
</g>
<!-- Node13 -->
<g id="node10" class="node">
<title>Node13</title>
<g id="a_node10"><a xlink:title=" ">
<polygon fill="#ffffff" stroke="#bfbfbf" points="639,-1140.5 639,-1197.5 694,-1197.5 694,-1140.5 639,-1140.5"/>
<text text-anchor="middle" x="666.5" y="-1185.5" font-family="Helvetica,sans-Serif" font-size="10.00" fill="#000000">QMutex</text>
<polyline fill="none" stroke="#bfbfbf" points="639,-1178.5 694,-1178.5 "/>
<text text-anchor="middle" x="666.5" y="-1166.5" font-family="Helvetica,sans-Serif" font-size="10.00" fill="#000000"> </text>
<polyline fill="none" stroke="#bfbfbf" points="639,-1159.5 694,-1159.5 "/>
<text text-anchor="middle" x="666.5" y="-1147.5" font-family="Helvetica,sans-Serif" font-size="10.00" fill="#000000"> </text>
</a>
</g>
</g>
<!-- Node13&#45;&gt;Node8 -->
<g id="edge9" class="edge">
<title>Node13&#45;&gt;Node8</title>
<path fill="none" stroke="#404040" d="M654.5673,-1140.3307C647.1392,-1126.0033 636.1776,-1109.6959 621.5,-1100 586.0909,-1076.6092 562.8448,-1101.1498 521.9268,-1082.2532"/>
<polygon fill="none" stroke="#404040" points="521.6991,-1082.1311 514.5208,-1082.819 511.125,-1076.4575 518.3032,-1075.7696 521.6991,-1082.1311"/>
<text text-anchor="middle" x="672.5" y="-1108.5" font-family="Helvetica,sans-Serif" font-size="10.00" fill="#000000"> #m_mutex</text>
</g>
<!-- Node14 -->
<g id="node11" class="node">
<title>Node14</title>
<g id="a_node11"><a xlink:title=" ">
<polygon fill="#ffffff" stroke="#bfbfbf" points="271.5,-953 271.5,-1010 351.5,-1010 351.5,-953 271.5,-953"/>
<text text-anchor="middle" x="311.5" y="-998" font-family="Helvetica,sans-Serif" font-size="10.00" fill="#000000">QStatusBar *</text>
<polyline fill="none" stroke="#bfbfbf" points="271.5,-991 351.5,-991 "/>
<text text-anchor="middle" x="311.5" y="-979" font-family="Helvetica,sans-Serif" font-size="10.00" fill="#000000"> </text>
<polyline fill="none" stroke="#bfbfbf" points="271.5,-972 351.5,-972 "/>
<text text-anchor="middle" x="311.5" y="-960" font-family="Helvetica,sans-Serif" font-size="10.00" fill="#000000"> </text>
</a>
</g>
</g>
<!-- Node14&#45;&gt;Node5 -->
<g id="edge10" class="edge">
<title>Node14&#45;&gt;Node5</title>
<path fill="none" stroke="#404040" d="M321.5324,-952.7886C333.2216,-921.2719 354.3171,-869.8568 380.5,-830 393.6609,-809.9658 409.5205,-789.9485 425.6116,-771.4432"/>
<polygon fill="none" stroke="#404040" points="425.8312,-771.1946 426.8052,-764.0495 433.7753,-762.2005 432.8013,-769.3456 425.8312,-771.1946"/>
<text text-anchor="middle" x="417" y="-844" font-family="Helvetica,sans-Serif" font-size="10.00" fill="#000000"> #m_statusBar</text>
</g>
<!-- Node15 -->
<g id="node12" class="node">
<title>Node15</title>
<g id="a_node12"><a xlink:title=" ">
<polygon fill="#ffffff" stroke="#bfbfbf" points="0,-953 0,-1010 53,-1010 53,-953 0,-953"/>
<text text-anchor="middle" x="26.5" y="-998" font-family="Helvetica,sans-Serif" font-size="10.00" fill="#000000">QString</text>
<polyline fill="none" stroke="#bfbfbf" points="0,-991 53,-991 "/>
<text text-anchor="middle" x="26.5" y="-979" font-family="Helvetica,sans-Serif" font-size="10.00" fill="#000000"> </text>
<polyline fill="none" stroke="#bfbfbf" points="0,-972 53,-972 "/>
<text text-anchor="middle" x="26.5" y="-960" font-family="Helvetica,sans-Serif" font-size="10.00" fill="#000000"> </text>
</a>
</g>
</g>
<!-- Node15&#45;&gt;Node4 -->
<g id="edge20" class="edge">
<title>Node15&#45;&gt;Node4</title>
<path fill="none" stroke="#404040" d="M22.5917,-952.7164C19.6295,-920.9081 18.9038,-869.0222 38.5,-830 121.4705,-664.78 191.3146,-648.3166 351.5,-556 654.747,-381.2355 1064.6932,-281.8116 1242.7903,-244.3613"/>
<polygon fill="none" stroke="#404040" points="1242.9482,-244.3284 1248.0049,-239.1874 1254.6954,-241.8778 1249.6387,-247.0188 1242.9482,-244.3284"/>
<text text-anchor="middle" x="388" y="-681.5" font-family="Helvetica,sans-Serif" font-size="10.00" fill="#000000"> +LocateName</text>
</g>
<!-- Node15&#45;&gt;Node5 -->
<g id="edge11" class="edge">
<title>Node15&#45;&gt;Node5</title>
<path fill="none" stroke="#404040" d="M25.41,-952.8338C25.7194,-919.1753 31.4269,-863.6786 62.5,-830 87.4542,-802.9534 298.015,-742.221 422.0759,-708.2235"/>
<polygon fill="none" stroke="#404040" points="422.227,-708.1823 426.9604,-702.7421 433.8026,-705.0189 429.0693,-710.4591 422.227,-708.1823"/>
<text text-anchor="middle" x="119" y="-855" font-family="Helvetica,sans-Serif" font-size="10.00" fill="#000000"> +QtFunkyPlaceholder</text>
<text text-anchor="middle" x="119" y="-844" font-family="Helvetica,sans-Serif" font-size="10.00" fill="#000000">+ReadOnlyPlaceholder</text>
<text text-anchor="middle" x="119" y="-833" font-family="Helvetica,sans-Serif" font-size="10.00" fill="#000000">#m_fwFilename</text>
</g>
<!-- Node16 -->
<g id="node13" class="node">
<title>Node16</title>
<g id="a_node13"><a xlink:title=" ">
<polygon fill="#ffffff" stroke="#bfbfbf" points="634,-953 634,-1010 697,-1010 697,-953 634,-953"/>
<text text-anchor="middle" x="665.5" y="-998" font-family="Helvetica,sans-Serif" font-size="10.00" fill="#000000">QAction *</text>
<polyline fill="none" stroke="#bfbfbf" points="634,-991 697,-991 "/>
<text text-anchor="middle" x="665.5" y="-979" font-family="Helvetica,sans-Serif" font-size="10.00" fill="#000000"> </text>
<polyline fill="none" stroke="#bfbfbf" points="634,-972 697,-972 "/>
<text text-anchor="middle" x="665.5" y="-960" font-family="Helvetica,sans-Serif" font-size="10.00" fill="#000000"> </text>
</a>
</g>
</g>
<!-- Node16&#45;&gt;Node4 -->
<g id="edge22" class="edge">
<title>Node16&#45;&gt;Node4</title>
<path fill="none" stroke="#404040" d="M665.8606,-952.9322C668.1405,-879.8556 682.964,-682.9597 774.5,-556 892.3342,-392.565 1118.5547,-296.6246 1243.3845,-253.8427"/>
<polygon fill="none" stroke="#404040" points="1243.4053,-253.8358 1247.8074,-248.1242 1254.7727,-249.991 1250.3706,-255.7025 1243.4053,-253.8358"/>
<text text-anchor="middle" x="822.5" y="-736.5" font-family="Helvetica,sans-Serif" font-size="10.00" fill="#000000"> +m_newAction</text>
<text text-anchor="middle" x="822.5" y="-725.5" font-family="Helvetica,sans-Serif" font-size="10.00" fill="#000000">#m_pasteAction</text>
<text text-anchor="middle" x="822.5" y="-714.5" font-family="Helvetica,sans-Serif" font-size="10.00" fill="#000000">#m_cutAction</text>
<text text-anchor="middle" x="822.5" y="-703.5" font-family="Helvetica,sans-Serif" font-size="10.00" fill="#000000">#m_redoAction</text>
<text text-anchor="middle" x="822.5" y="-692.5" font-family="Helvetica,sans-Serif" font-size="10.00" fill="#000000">#m_copyAction</text>
<text text-anchor="middle" x="822.5" y="-681.5" font-family="Helvetica,sans-Serif" font-size="10.00" fill="#000000">#m_undoAction</text>
<text text-anchor="middle" x="822.5" y="-670.5" font-family="Helvetica,sans-Serif" font-size="10.00" fill="#000000">+m_openAction</text>
<text text-anchor="middle" x="822.5" y="-659.5" font-family="Helvetica,sans-Serif" font-size="10.00" fill="#000000">#m_printAction</text>
<text text-anchor="middle" x="822.5" y="-648.5" font-family="Helvetica,sans-Serif" font-size="10.00" fill="#000000">+m_programAction</text>
<text text-anchor="middle" x="822.5" y="-637.5" font-family="Helvetica,sans-Serif" font-size="10.00" fill="#000000">+m_monitorAction</text>
<text text-anchor="middle" x="822.5" y="-626.5" font-family="Helvetica,sans-Serif" font-size="10.00" fill="#000000">...</text>
</g>
<!-- Node16&#45;&gt;Node5 -->
<g id="edge12" class="edge">
<title>Node16&#45;&gt;Node5</title>
<path fill="none" stroke="#404040" d="M658.0823,-952.6097C651.634,-931.3392 640.7446,-902.5 624.5,-881 616.6749,-870.6433 609.7032,-873.0599 601.5,-863 591.2636,-850.4467 581.8015,-836.5211 573.1716,-822.1408"/>
<polygon fill="none" stroke="#404040" points="573.0738,-821.9727 566.5979,-818.8003 567.0356,-811.6024 573.5114,-814.7748 573.0738,-821.9727"/>
<text text-anchor="middle" x="635.5" y="-844" font-family="Helvetica,sans-Serif" font-size="10.00" fill="#000000"> #m_closeAct</text>
</g>
<!-- Node17 -->
<g id="node14" class="node">
<title>Node17</title>
<g id="a_node14"><a xlink:title=" ">
<polygon fill="#ffffff" stroke="#bfbfbf" points="159.5,-953 159.5,-1010 197.5,-1010 197.5,-953 159.5,-953"/>
<text text-anchor="middle" x="178.5" y="-998" font-family="Helvetica,sans-Serif" font-size="10.00" fill="#000000">bool</text>
<polyline fill="none" stroke="#bfbfbf" points="159.5,-991 197.5,-991 "/>
<text text-anchor="middle" x="178.5" y="-979" font-family="Helvetica,sans-Serif" font-size="10.00" fill="#000000"> </text>
<polyline fill="none" stroke="#bfbfbf" points="159.5,-972 197.5,-972 "/>
<text text-anchor="middle" x="178.5" y="-960" font-family="Helvetica,sans-Serif" font-size="10.00" fill="#000000"> </text>
</a>
</g>
</g>
<!-- Node17&#45;&gt;Node5 -->
<g id="edge13" class="edge">
<title>Node17&#45;&gt;Node5</title>
<path fill="none" stroke="#404040" d="M173.6842,-952.8959C169.7904,-920.058 168.5815,-866.0908 194.5,-830 247.7038,-755.9153 347.8834,-718.5108 421.6365,-700.2443"/>
<polygon fill="none" stroke="#404040" points="422.023,-700.1522 426.9314,-694.8694 433.6956,-697.3685 428.7872,-702.6512 422.023,-700.1522"/>
<text text-anchor="middle" x="230" y="-844" font-family="Helvetica,sans-Serif" font-size="10.00" fill="#000000"> #m_readOnly</text>
</g>
<!-- Node18 -->
<g id="node15" class="node">
<title>Node18</title>
<g id="a_node15"><a xlink:title=" ">
<polygon fill="#ffffff" stroke="#bfbfbf" points="215.5,-953 215.5,-1010 253.5,-1010 253.5,-953 215.5,-953"/>
<text text-anchor="middle" x="234.5" y="-998" font-family="Helvetica,sans-Serif" font-size="10.00" fill="#000000">QDir</text>
<polyline fill="none" stroke="#bfbfbf" points="215.5,-991 253.5,-991 "/>
<text text-anchor="middle" x="234.5" y="-979" font-family="Helvetica,sans-Serif" font-size="10.00" fill="#000000"> </text>
<polyline fill="none" stroke="#bfbfbf" points="215.5,-972 253.5,-972 "/>
<text text-anchor="middle" x="234.5" y="-960" font-family="Helvetica,sans-Serif" font-size="10.00" fill="#000000"> </text>
</a>
</g>
</g>
<!-- Node18&#45;&gt;Node5 -->
<g id="edge14" class="edge">
<title>Node18&#45;&gt;Node5</title>
<path fill="none" stroke="#404040" d="M238.5343,-952.9184C244.6083,-919.5994 259.0576,-864.6847 291.5,-830 329.0805,-789.8221 379.8014,-755.3111 423.1736,-729.9449"/>
<polygon fill="none" stroke="#404040" points="423.3421,-729.848 426.545,-723.3872 433.7407,-723.8589 430.5377,-730.3196 423.3421,-729.848"/>
<text text-anchor="middle" x="325" y="-844" font-family="Helvetica,sans-Serif" font-size="10.00" fill="#000000"> #m_tempDir</text>
</g>
<!-- Node19 -->
<g id="node16" class="node">
<title>Node19</title>
<g id="a_node16"><a xlink:title=" ">
<polygon fill="#ffffff" stroke="#bfbfbf" points="864.5,-953 864.5,-1010 934.5,-1010 934.5,-953 864.5,-953"/>
<text text-anchor="middle" x="899.5" y="-998" font-family="Helvetica,sans-Serif" font-size="10.00" fill="#000000">QStringList</text>
<polyline fill="none" stroke="#bfbfbf" points="864.5,-991 934.5,-991 "/>
<text text-anchor="middle" x="899.5" y="-979" font-family="Helvetica,sans-Serif" font-size="10.00" fill="#000000"> </text>
<polyline fill="none" stroke="#bfbfbf" points="864.5,-972 934.5,-972 "/>
<text text-anchor="middle" x="899.5" y="-960" font-family="Helvetica,sans-Serif" font-size="10.00" fill="#000000"> </text>
</a>
</g>
</g>
<!-- Node19&#45;&gt;Node4 -->
<g id="edge27" class="edge">
<title>Node19&#45;&gt;Node4</title>
<path fill="none" stroke="#404040" d="M895.4839,-952.8407C884.2589,-868.9762 855.5916,-625.5953 890.5,-556 964.1265,-409.2142 1137.7458,-311.2046 1243.8545,-262.657"/>
<polygon fill="none" stroke="#404040" points="1243.9218,-262.6267 1247.7442,-256.512 1254.8587,-257.6887 1251.0362,-263.8033 1243.9218,-262.6267"/>
<text text-anchor="middle" x="916.5" y="-681.5" font-family="Helvetica,sans-Serif" font-size="10.00" fill="#000000"> #m_ports</text>
</g>
<!-- Node19&#45;&gt;Node5 -->
<g id="edge15" class="edge">
<title>Node19&#45;&gt;Node5</title>
<path fill="none" stroke="#404040" d="M894.3303,-952.5941C888.6338,-929.5423 877.0969,-898.3421 854.5,-881 814.5043,-850.3051 788.6844,-883.2194 742.5,-863 720.7534,-853.4794 720.7484,-842.3918 700.5,-830 684.2168,-820.0349 677.5612,-822.319 661.5,-812 640.7885,-798.6933 619.9099,-782.7133 600.6054,-766.6257"/>
<polygon fill="none" stroke="#404040" points="600.4284,-766.4762 593.2638,-765.6587 591.2627,-758.7308 598.4274,-759.5483 600.4284,-766.4762"/>
<text text-anchor="middle" x="805" y="-844" font-family="Helvetica,sans-Serif" font-size="10.00" fill="#000000"> #OtherKnownExtensions</text>
</g>
<!-- Node20 -->
<g id="node17" class="node">
<title>Node20</title>
<g id="a_node17"><a xlink:title=" ">
<polygon fill="#ffffff" stroke="#bfbfbf" points="951.5,-655.5 951.5,-712.5 1089.5,-712.5 1089.5,-655.5 951.5,-655.5"/>
<text text-anchor="middle" x="1020.5" y="-700.5" font-family="Helvetica,sans-Serif" font-size="10.00" fill="#000000">QPointer&lt; PTabWidget &gt;</text>
<polyline fill="none" stroke="#bfbfbf" points="951.5,-693.5 1089.5,-693.5 "/>
<text text-anchor="middle" x="1020.5" y="-681.5" font-family="Helvetica,sans-Serif" font-size="10.00" fill="#000000"> </text>
<polyline fill="none" stroke="#bfbfbf" points="951.5,-674.5 1089.5,-674.5 "/>
<text text-anchor="middle" x="1020.5" y="-662.5" font-family="Helvetica,sans-Serif" font-size="10.00" fill="#000000"> </text>
</a>
</g>
</g>
<!-- Node20&#45;&gt;Node4 -->
<g id="edge16" class="edge">
<title>Node20&#45;&gt;Node4</title>
<path fill="none" stroke="#404040" d="M1029.2407,-655.4362C1042.8676,-613.2855 1071.6928,-532.8514 1110.5,-472 1148.6955,-412.1078 1201.7442,-352.7508 1246.2935,-307.4643"/>
<polygon fill="none" stroke="#404040" points="1246.3473,-307.41 1247.7301,-300.3328 1254.7949,-298.8872 1253.412,-305.9645 1246.3473,-307.41"/>
<text text-anchor="middle" x="1149" y="-502.5" font-family="Helvetica,sans-Serif" font-size="10.00" fill="#000000"> #m_tabWidget</text>
</g>
<!-- Node21 -->
<g id="node18" class="node">
<title>Node21</title>
<g id="a_node18"><a xlink:title=" ">
<polygon fill="#ffffff" stroke="#bfbfbf" points="1108,-655.5 1108,-712.5 1275,-712.5 1275,-655.5 1108,-655.5"/>
<text text-anchor="middle" x="1191.5" y="-700.5" font-family="Helvetica,sans-Serif" font-size="10.00" fill="#000000">QPointer&lt; class ProgramTab &gt;</text>
<polyline fill="none" stroke="#bfbfbf" points="1108,-693.5 1275,-693.5 "/>
<text text-anchor="middle" x="1191.5" y="-681.5" font-family="Helvetica,sans-Serif" font-size="10.00" fill="#000000"> </text>
<polyline fill="none" stroke="#bfbfbf" points="1108,-674.5 1275,-674.5 "/>
<text text-anchor="middle" x="1191.5" y="-662.5" font-family="Helvetica,sans-Serif" font-size="10.00" fill="#000000"> </text>
</a>
</g>
</g>
<!-- Node21&#45;&gt;Node4 -->
<g id="edge17" class="edge">
<title>Node21&#45;&gt;Node4</title>
<path fill="none" stroke="#404040" d="M1189.3442,-655.2646C1187.0835,-613.9163 1185.9631,-535.6144 1203.5,-472 1214.018,-433.8466 1231.0427,-394.8497 1249.2905,-359.5122"/>
<polygon fill="none" stroke="#404040" points="1249.4065,-359.2913 1248.6556,-352.1194 1254.9871,-348.6678 1255.7379,-355.8397 1249.4065,-359.2913"/>
<text text-anchor="middle" x="1262" y="-502.5" font-family="Helvetica,sans-Serif" font-size="10.00" fill="#000000"> #m_savingProgramTab</text>
</g>
<!-- Node22 -->
<g id="node19" class="node">
<title>Node22</title>
<g id="a_node19"><a xlink:title=" ">
<polygon fill="#ffffff" stroke="#bfbfbf" points="1293,-655.5 1293,-712.5 1352,-712.5 1352,-655.5 1293,-655.5"/>
<text text-anchor="middle" x="1322.5" y="-700.5" font-family="Helvetica,sans-Serif" font-size="10.00" fill="#000000">QMenu *</text>
<polyline fill="none" stroke="#bfbfbf" points="1293,-693.5 1352,-693.5 "/>
<text text-anchor="middle" x="1322.5" y="-681.5" font-family="Helvetica,sans-Serif" font-size="10.00" fill="#000000"> </text>
<polyline fill="none" stroke="#bfbfbf" points="1293,-674.5 1352,-674.5 "/>
<text text-anchor="middle" x="1322.5" y="-662.5" font-family="Helvetica,sans-Serif" font-size="10.00" fill="#000000"> </text>
</a>
</g>
</g>
<!-- Node22&#45;&gt;Node4 -->
<g id="edge18" class="edge">
<title>Node22&#45;&gt;Node4</title>
<path fill="none" stroke="#404040" d="M1323.063,-655.4126C1323.8365,-616.1363 1325.3029,-541.6736 1326.799,-465.7039"/>
<polygon fill="none" stroke="#404040" points="1326.8029,-465.5012 1322.9219,-459.4235 1327.0393,-453.5035 1330.9204,-459.5811 1326.8029,-465.5012"/>
<text text-anchor="middle" x="1374" y="-530" font-family="Helvetica,sans-Serif" font-size="10.00" fill="#000000"> #m_editMenu</text>
<text text-anchor="middle" x="1374" y="-519" font-family="Helvetica,sans-Serif" font-size="10.00" fill="#000000">#m_serialPortMenu</text>
<text text-anchor="middle" x="1374" y="-508" font-family="Helvetica,sans-Serif" font-size="10.00" fill="#000000">#m_boardMenu</text>
<text text-anchor="middle" x="1374" y="-497" font-family="Helvetica,sans-Serif" font-size="10.00" fill="#000000">#m_programMenu</text>
<text text-anchor="middle" x="1374" y="-486" font-family="Helvetica,sans-Serif" font-size="10.00" fill="#000000">#m_platformMenu</text>
<text text-anchor="middle" x="1374" y="-475" font-family="Helvetica,sans-Serif" font-size="10.00" fill="#000000">#m_viewMenu</text>
</g>
<!-- Node23 -->
<g id="node20" class="node">
<title>Node23</title>
<g id="a_node20"><a xlink:title=" ">
<polygon fill="#ffffff" stroke="#bfbfbf" points="1370.5,-655.5 1370.5,-712.5 1540.5,-712.5 1540.5,-655.5 1370.5,-655.5"/>
<text text-anchor="middle" x="1455.5" y="-700.5" font-family="Helvetica,sans-Serif" font-size="10.00" fill="#000000">QMap&lt; Platform *, QAction * &gt;</text>
<polyline fill="none" stroke="#bfbfbf" points="1370.5,-693.5 1540.5,-693.5 "/>
<text text-anchor="middle" x="1455.5" y="-681.5" font-family="Helvetica,sans-Serif" font-size="10.00" fill="#000000"> </text>
<polyline fill="none" stroke="#bfbfbf" points="1370.5,-674.5 1540.5,-674.5 "/>
<text text-anchor="middle" x="1455.5" y="-662.5" font-family="Helvetica,sans-Serif" font-size="10.00" fill="#000000"> </text>
</a>
</g>
</g>
<!-- Node23&#45;&gt;Node4 -->
<g id="edge19" class="edge">
<title>Node23&#45;&gt;Node4</title>
<path fill="none" stroke="#404040" d="M1453.7236,-655.4724C1450.6882,-614.3768 1443.1398,-536.3799 1426.5,-472 1422.2796,-455.6713 1417.2971,-438.9494 1411.8604,-422.2883"/>
<polygon fill="none" stroke="#404040" points="1411.8163,-422.1554 1406.1266,-417.7251 1408.0279,-410.7691 1413.7175,-415.1994 1411.8163,-422.1554"/>
<text text-anchor="middle" x="1492" y="-502.5" font-family="Helvetica,sans-Serif" font-size="10.00" fill="#000000"> #m_platformActions</text>
</g>
<!-- Node24 -->
<g id="node21" class="node">
<title>Node24</title>
<g id="a_node21"><a xlink:title=" ">
<polygon fill="#ffffff" stroke="#bfbfbf" points="1558.5,-655.5 1558.5,-712.5 1672.5,-712.5 1672.5,-655.5 1558.5,-655.5"/>
<text text-anchor="middle" x="1615.5" y="-700.5" font-family="Helvetica,sans-Serif" font-size="10.00" fill="#000000">QList&lt; Platform * &gt;</text>
<polyline fill="none" stroke="#bfbfbf" points="1558.5,-693.5 1672.5,-693.5 "/>
<text text-anchor="middle" x="1615.5" y="-681.5" font-family="Helvetica,sans-Serif" font-size="10.00" fill="#000000"> </text>
<polyline fill="none" stroke="#bfbfbf" points="1558.5,-674.5 1672.5,-674.5 "/>
<text text-anchor="middle" x="1615.5" y="-662.5" font-family="Helvetica,sans-Serif" font-size="10.00" fill="#000000"> </text>
</a>
</g>
</g>
<!-- Node24&#45;&gt;Node4 -->
<g id="edge21" class="edge">
<title>Node24&#45;&gt;Node4</title>
<path fill="none" stroke="#404040" d="M1610.4167,-655.3756C1602.0667,-613.1484 1582.8457,-532.6191 1548.5,-472 1513.5683,-410.3467 1461.1721,-350.6191 1416.6174,-305.5727"/>
<polygon fill="none" stroke="#404040" points="1416.5861,-305.5413 1409.5161,-304.1216 1408.1073,-297.0495 1415.1773,-298.4692 1416.5861,-305.5413"/>
<text text-anchor="middle" x="1612.5" y="-502.5" font-family="Helvetica,sans-Serif" font-size="10.00" fill="#000000"> #m_platforms</text>
</g>
<!-- Node25 -->
<g id="node22" class="node">
<title>Node25</title>
<g id="a_node22"><a xlink:title=" ">
<polygon fill="#ffffff" stroke="#bfbfbf" points="1690.5,-655.5 1690.5,-712.5 1800.5,-712.5 1800.5,-655.5 1690.5,-655.5"/>
<text text-anchor="middle" x="1745.5" y="-700.5" font-family="Helvetica,sans-Serif" font-size="10.00" fill="#000000">QList&lt; QAction * &gt;</text>
<polyline fill="none" stroke="#bfbfbf" points="1690.5,-693.5 1800.5,-693.5 "/>
<text text-anchor="middle" x="1745.5" y="-681.5" font-family="Helvetica,sans-Serif" font-size="10.00" fill="#000000"> </text>
<polyline fill="none" stroke="#bfbfbf" points="1690.5,-674.5 1800.5,-674.5 "/>
<text text-anchor="middle" x="1745.5" y="-662.5" font-family="Helvetica,sans-Serif" font-size="10.00" fill="#000000"> </text>
</a>
</g>
</g>
<!-- Node25&#45;&gt;Node4 -->
<g id="edge23" class="edge">
<title>Node25&#45;&gt;Node4</title>
<path fill="none" stroke="#404040" d="M1738.0757,-655.1474C1725.895,-611.9189 1698.4295,-529.3084 1653.5,-472 1588.6458,-389.2774 1489.5897,-319.5516 1418.4754,-275.8931"/>
<polygon fill="none" stroke="#404040" points="1418.4472,-275.876 1411.2423,-276.1771 1408.1932,-269.6423 1415.3981,-269.3412 1418.4472,-275.876"/>
<text text-anchor="middle" x="1749" y="-502.5" font-family="Helvetica,sans-Serif" font-size="10.00" fill="#000000"> #m_viewMenuActions</text>
</g>
<!-- Node26 -->
<g id="node23" class="node">
<title>Node26</title>
<g id="a_node23"><a xlink:title=" ">
<polygon fill="#ffffff" stroke="#bfbfbf" points="1818.5,-655.5 1818.5,-712.5 1974.5,-712.5 1974.5,-655.5 1818.5,-655.5"/>
<text text-anchor="middle" x="1896.5" y="-700.5" font-family="Helvetica,sans-Serif" font-size="10.00" fill="#000000">QMap&lt; QString, QAction * &gt;</text>
<polyline fill="none" stroke="#bfbfbf" points="1818.5,-693.5 1974.5,-693.5 "/>
<text text-anchor="middle" x="1896.5" y="-681.5" font-family="Helvetica,sans-Serif" font-size="10.00" fill="#000000"> </text>
<polyline fill="none" stroke="#bfbfbf" points="1818.5,-674.5 1974.5,-674.5 "/>
<text text-anchor="middle" x="1896.5" y="-662.5" font-family="Helvetica,sans-Serif" font-size="10.00" fill="#000000"> </text>
</a>
</g>
</g>
<!-- Node26&#45;&gt;Node4 -->
<g id="edge24" class="edge">
<title>Node26&#45;&gt;Node4</title>
<path fill="none" stroke="#404040" d="M1891.3302,-655.1916C1882.0554,-610.9025 1858.7682,-525.6026 1809.5,-472 1701.8406,-354.8692 1525.3851,-285.0463 1419.6419,-251.4973"/>
<polygon fill="none" stroke="#404040" points="1419.5091,-251.4559 1412.5892,-253.4843 1408.0553,-247.8767 1414.9753,-245.8484 1419.5091,-251.4559"/>
<text text-anchor="middle" x="1896" y="-508" font-family="Helvetica,sans-Serif" font-size="10.00" fill="#000000"> #m_boardActions</text>
<text text-anchor="middle" x="1896" y="-497" font-family="Helvetica,sans-Serif" font-size="10.00" fill="#000000">#m_portActions</text>
</g>
<!-- Node27 -->
<g id="node24" class="node">
<title>Node27</title>
<g id="a_node24"><a xlink:title=" ">
<polygon fill="#ffffff" stroke="#bfbfbf" points="1992.5,-655.5 1992.5,-712.5 2136.5,-712.5 2136.5,-655.5 1992.5,-655.5"/>
<text text-anchor="middle" x="2064.5" y="-700.5" font-family="Helvetica,sans-Serif" font-size="10.00" fill="#000000">QPointer&lt; QPushButton &gt;</text>
<polyline fill="none" stroke="#bfbfbf" points="1992.5,-693.5 2136.5,-693.5 "/>
<text text-anchor="middle" x="2064.5" y="-681.5" font-family="Helvetica,sans-Serif" font-size="10.00" fill="#000000"> </text>
<polyline fill="none" stroke="#bfbfbf" points="1992.5,-674.5 2136.5,-674.5 "/>
<text text-anchor="middle" x="2064.5" y="-662.5" font-family="Helvetica,sans-Serif" font-size="10.00" fill="#000000"> </text>
</a>
</g>
</g>
<!-- Node27&#45;&gt;Node4 -->
<g id="edge25" class="edge">
<title>Node27&#45;&gt;Node4</title>
<path fill="none" stroke="#404040" d="M2055.4173,-655.2692C2039.8329,-610.3076 2003.913,-523.1788 1945.5,-472 1789.9552,-335.7187 1549.1881,-269.9059 1420.2267,-242.8778"/>
<polygon fill="none" stroke="#404040" points="1419.8558,-242.8016 1413.1726,-245.5098 1408.1022,-240.3822 1414.7855,-237.674 1419.8558,-242.8016"/>
<text text-anchor="middle" x="2038" y="-502.5" font-family="Helvetica,sans-Serif" font-size="10.00" fill="#000000"> #m_addButton</text>
</g>
<!-- Node28 -->
<g id="node25" class="node">
<title>Node28</title>
<g id="a_node25"><a xlink:title=" ">
<polygon fill="#ffffff" stroke="#bfbfbf" points="2154.5,-655.5 2154.5,-712.5 2246.5,-712.5 2246.5,-655.5 2154.5,-655.5"/>
<text text-anchor="middle" x="2200.5" y="-700.5" font-family="Helvetica,sans-Serif" font-size="10.00" fill="#000000">QActionGroup *</text>
<polyline fill="none" stroke="#bfbfbf" points="2154.5,-693.5 2246.5,-693.5 "/>
<text text-anchor="middle" x="2200.5" y="-681.5" font-family="Helvetica,sans-Serif" font-size="10.00" fill="#000000"> </text>
<polyline fill="none" stroke="#bfbfbf" points="2154.5,-674.5 2246.5,-674.5 "/>
<text text-anchor="middle" x="2200.5" y="-662.5" font-family="Helvetica,sans-Serif" font-size="10.00" fill="#000000"> </text>
</a>
</g>
</g>
<!-- Node28&#45;&gt;Node4 -->
<g id="edge26" class="edge">
<title>Node28&#45;&gt;Node4</title>
<path fill="none" stroke="#404040" d="M2192.9103,-655.2844C2179.0048,-608.7051 2144.7882,-517.3336 2080.5,-472 1871.6928,-324.7572 1568.9451,-261.9604 1420.4332,-238.7608"/>
<polygon fill="none" stroke="#404040" points="1420.1406,-238.716 1413.6036,-241.7604 1408.2793,-236.8971 1414.8162,-233.8528 1420.1406,-238.716"/>
<text text-anchor="middle" x="2204" y="-513.5" font-family="Helvetica,sans-Serif" font-size="10.00" fill="#000000"> #m_serialPortActionGroup</text>
<text text-anchor="middle" x="2204" y="-502.5" font-family="Helvetica,sans-Serif" font-size="10.00" fill="#000000">#m_platformActionGroup</text>
<text text-anchor="middle" x="2204" y="-491.5" font-family="Helvetica,sans-Serif" font-size="10.00" fill="#000000">#m_boardActionGroup</text>
</g>
</g>
</svg>
