<?xml version="1.0" encoding="UTF-8" standalone="no"?>
<!DOCTYPE svg PUBLIC "-//W3C//DTD SVG 1.1//EN"
 "http://www.w3.org/Graphics/SVG/1.1/DTD/svg11.dtd">
<!-- Generated by graphviz version 2.40.1 (0)
 -->
<!-- Title: FileProgressDialog::incValue Pages: 1 -->
<svg width="423pt" height="39pt"
 viewBox="0.00 0.00 423.00 39.00" xmlns="http://www.w3.org/2000/svg" xmlns:xlink="http://www.w3.org/1999/xlink">
<g id="graph0" class="graph" transform="scale(1 1) rotate(0) translate(4 35)">
<title>FileProgressDialog::incValue</title>
<polygon fill="#ffffff" stroke="transparent" points="-4,4 -4,-35 419,-35 419,4 -4,4"/>
<!-- Node17 -->
<g id="node1" class="node">
<title>Node17</title>
<g id="a_node1"><a xlink:title=" ">
<polygon fill="#bfbfbf" stroke="#000000" points="0,-.5 0,-30.5 107,-30.5 107,-.5 0,-.5"/>
<text text-anchor="start" x="8" y="-18.5" font-family="Helvetica,sans-Serif" font-size="10.00" fill="#000000">FileProgressDialog</text>
<text text-anchor="middle" x="53.5" y="-7.5" font-family="Helvetica,sans-Serif" font-size="10.00" fill="#000000">::incValue</text>
</a>
</g>
</g>
<!-- Node18 -->
<g id="node2" class="node">
<title>Node18</title>
<g id="a_node2"><a xlink:href="../../d8/db2/classProcessEventBlocker.html#afb3a51929474b813d83fd1b59aaf9615" target="_top" xlink:title=" ">
<polygon fill="#ffffff" stroke="#000000" points="143,-.5 143,-30.5 261,-30.5 261,-.5 143,-.5"/>
<text text-anchor="start" x="151" y="-18.5" font-family="Helvetica,sans-Serif" font-size="10.00" fill="#000000">ProcessEventBlocker</text>
<text text-anchor="middle" x="202" y="-7.5" font-family="Helvetica,sans-Serif" font-size="10.00" fill="#000000">::processEvents</text>
</a>
</g>
</g>
<!-- Node17&#45;&gt;Node18 -->
<g id="edge1" class="edge">
<title>Node17&#45;&gt;Node18</title>
<path fill="none" stroke="#191970" d="M107.1119,-15.5C115.4717,-15.5 124.2105,-15.5 132.8567,-15.5"/>
<polygon fill="#191970" stroke="#191970" points="132.9356,-19.0001 142.9355,-15.5 132.9355,-12.0001 132.9356,-19.0001"/>
</g>
<!-- Node19 -->
<g id="node3" class="node">
<title>Node19</title>
<g id="a_node3"><a xlink:href="../../d8/db2/classProcessEventBlocker.html#a77fa75337b682a0b4edd684110826694" target="_top" xlink:title=" ">
<polygon fill="#ffffff" stroke="#000000" points="297,-.5 297,-30.5 415,-30.5 415,-.5 297,-.5"/>
<text text-anchor="start" x="305" y="-18.5" font-family="Helvetica,sans-Serif" font-size="10.00" fill="#000000">ProcessEventBlocker</text>
<text text-anchor="middle" x="356" y="-7.5" font-family="Helvetica,sans-Serif" font-size="10.00" fill="#000000">::_processEvents</text>
</a>
</g>
</g>
<!-- Node18&#45;&gt;Node19 -->
<g id="edge2" class="edge">
<title>Node18&#45;&gt;Node19</title>
<path fill="none" stroke="#191970" d="M261.1,-15.5C269.4218,-15.5 278.0389,-15.5 286.5326,-15.5"/>
<polygon fill="#191970" stroke="#191970" points="286.8037,-19.0001 296.8037,-15.5 286.8037,-12.0001 286.8037,-19.0001"/>
</g>
</g>
</svg>
