<?xml version="1.0" encoding="UTF-8" standalone="no"?>
<!DOCTYPE svg PUBLIC "-//W3C//DTD SVG 1.1//EN"
 "http://www.w3.org/Graphics/SVG/1.1/DTD/svg11.dtd">
<!-- Generated by graphviz version 2.40.1 (0)
 -->
<!-- Title: mainwindow/mainwindow.h Pages: 1 -->
<svg width="1703pt" height="162pt"
 viewBox="0.00 0.00 1702.50 162.00" xmlns="http://www.w3.org/2000/svg" xmlns:xlink="http://www.w3.org/1999/xlink">
<g id="graph0" class="graph" transform="scale(1 1) rotate(0) translate(4 158)">
<title>mainwindow/mainwindow.h</title>
<polygon fill="#ffffff" stroke="transparent" points="-4,4 -4,-158 1698.5,-158 1698.5,4 -4,4"/>
<!-- Node71 -->
<g id="node1" class="node">
<title>Node71</title>
<g id="a_node1"><a xlink:title=" ">
<polygon fill="#bfbfbf" stroke="#000000" points="618.5,-134.5 618.5,-153.5 770.5,-153.5 770.5,-134.5 618.5,-134.5"/>
<text text-anchor="middle" x="694.5" y="-141.5" font-family="Helvetica,sans-Serif" font-size="10.00" fill="#000000">mainwindow/mainwindow.h</text>
</a>
</g>
</g>
<!-- Node72 -->
<g id="node2" class="node">
<title>Node72</title>
<g id="a_node2"><a xlink:href="../../de/d0d/panelizer_8h.html" target="_top" xlink:title=" ">
<polygon fill="#ffffff" stroke="#000000" points="200.5,-73 200.5,-92 320.5,-92 320.5,-73 200.5,-73"/>
<text text-anchor="middle" x="260.5" y="-80" font-family="Helvetica,sans-Serif" font-size="10.00" fill="#000000">autoroute/panelizer.h</text>
</a>
</g>
</g>
<!-- Node71&#45;&gt;Node72 -->
<g id="edge1" class="edge">
<title>Node71&#45;&gt;Node72</title>
<path fill="none" stroke="#191970" d="M608.162,-133.3686C538.5117,-124.5722 438.067,-111.3904 350.5,-98 338.5886,-96.1786 325.8175,-94.0725 313.7469,-92.0114"/>
<polygon fill="#191970" stroke="#191970" points="607.8506,-136.857 618.2096,-134.6342 608.7254,-129.9119 607.8506,-136.857"/>
</g>
<!-- Node74 -->
<g id="node4" class="node">
<title>Node74</title>
<g id="a_node4"><a xlink:href="../../d6/dbb/fapplication_8cpp.html" target="_top" xlink:title=" ">
<polygon fill="#ffffff" stroke="#000000" points="320,-6 320,-25 415,-25 415,-6 320,-6"/>
<text text-anchor="middle" x="367.5" y="-13" font-family="Helvetica,sans-Serif" font-size="10.00" fill="#000000">fapplication.cpp</text>
</a>
</g>
</g>
<!-- Node71&#45;&gt;Node74 -->
<g id="edge6" class="edge">
<title>Node71&#45;&gt;Node74</title>
<path fill="none" stroke="#191970" d="M608.3874,-136.3661C522.0477,-127.9105 399.6266,-113.4212 383.5,-98 363.3598,-78.7409 364.3661,-42.2959 366.1755,-25.0302"/>
<polygon fill="#191970" stroke="#191970" points="608.1737,-139.8617 618.4645,-137.3418 608.8483,-132.8943 608.1737,-139.8617"/>
</g>
<!-- Node76 -->
<g id="node6" class="node">
<title>Node76</title>
<g id="a_node6"><a xlink:href="../../d7/d07/prefsdialog_8cpp.html" target="_top" xlink:title=" ">
<polygon fill="#ffffff" stroke="#000000" points="392.5,-73 392.5,-92 522.5,-92 522.5,-73 392.5,-73"/>
<text text-anchor="middle" x="457.5" y="-80" font-family="Helvetica,sans-Serif" font-size="10.00" fill="#000000">dialogs/prefsdialog.cpp</text>
</a>
</g>
</g>
<!-- Node71&#45;&gt;Node76 -->
<g id="edge5" class="edge">
<title>Node71&#45;&gt;Node76</title>
<path fill="none" stroke="#191970" d="M647.9261,-131.9144C602.948,-120.2428 535.7329,-102.8009 494.3575,-92.0643"/>
<polygon fill="#191970" stroke="#191970" points="647.1702,-135.3341 657.7288,-134.4581 648.9285,-128.5585 647.1702,-135.3341"/>
</g>
<!-- Node77 -->
<g id="node7" class="node">
<title>Node77</title>
<g id="a_node7"><a xlink:href="../../d8/dd9/mainwindow_8cpp.html" target="_top" xlink:title=" ">
<polygon fill="#ffffff" stroke="#000000" points="438.5,-6 438.5,-25 602.5,-25 602.5,-6 438.5,-6"/>
<text text-anchor="middle" x="520.5" y="-13" font-family="Helvetica,sans-Serif" font-size="10.00" fill="#000000">mainwindow/mainwindow.cpp</text>
</a>
</g>
</g>
<!-- Node71&#45;&gt;Node77 -->
<g id="edge7" class="edge">
<title>Node71&#45;&gt;Node77</title>
<path fill="none" stroke="#191970" d="M658.7793,-130.5918C639.9226,-122.6235 616.9374,-111.4468 598.5,-98 568.5602,-76.1642 540.5285,-41.9069 527.7492,-25.2484"/>
<polygon fill="#191970" stroke="#191970" points="657.6375,-133.9063 668.2178,-134.4612 660.2928,-127.4295 657.6375,-133.9063"/>
</g>
<!-- Node78 -->
<g id="node8" class="node">
<title>Node78</title>
<g id="a_node8"><a xlink:href="../../d7/d55/pemainwindow_8h.html" target="_top" xlink:title=" ">
<polygon fill="#ffffff" stroke="#000000" points="617,-73 617,-92 772,-92 772,-73 617,-73"/>
<text text-anchor="middle" x="694.5" y="-80" font-family="Helvetica,sans-Serif" font-size="10.00" fill="#000000">partseditor/pemainwindow.h</text>
</a>
</g>
</g>
<!-- Node71&#45;&gt;Node78 -->
<g id="edge8" class="edge">
<title>Node71&#45;&gt;Node78</title>
<path fill="none" stroke="#191970" d="M694.5,-124.2462C694.5,-113.5519 694.5,-100.814 694.5,-92.2449"/>
<polygon fill="#191970" stroke="#191970" points="691.0001,-124.3906 694.5,-134.3906 698.0001,-124.3907 691.0001,-124.3906"/>
</g>
<!-- Node79 -->
<g id="node9" class="node">
<title>Node79</title>
<g id="a_node9"><a xlink:href="../../d2/de1/mainwindow__menu_8cpp.html" target="_top" xlink:title=" ">
<polygon fill="#ffffff" stroke="#000000" points="620.5,-.5 620.5,-30.5 764.5,-30.5 764.5,-.5 620.5,-.5"/>
<text text-anchor="start" x="628.5" y="-18.5" font-family="Helvetica,sans-Serif" font-size="10.00" fill="#000000">mainwindow/mainwindow</text>
<text text-anchor="middle" x="692.5" y="-7.5" font-family="Helvetica,sans-Serif" font-size="10.00" fill="#000000">_menu.cpp</text>
</a>
</g>
</g>
<!-- Node71&#45;&gt;Node79 -->
<g id="edge15" class="edge">
<title>Node71&#45;&gt;Node79</title>
<path fill="none" stroke="#191970" d="M648.0061,-130.4362C632.3423,-123.4015 616.5536,-113.0282 607.5,-98 600.3902,-86.1984 600.7376,-79.004 607.5,-67 616.8156,-50.4638 633.8193,-38.6299 650.1841,-30.5103"/>
<polygon fill="#191970" stroke="#191970" points="647.101,-133.8475 657.6816,-134.3966 649.7528,-127.3692 647.101,-133.8475"/>
</g>
<!-- Node82 -->
<g id="node12" class="node">
<title>Node82</title>
<g id="a_node12"><a xlink:href="../../dc/d06/mainwindow__dock_8cpp.html" target="_top" xlink:title=" ">
<polygon fill="#ffffff" stroke="#000000" points="790.5,-67.5 790.5,-97.5 934.5,-97.5 934.5,-67.5 790.5,-67.5"/>
<text text-anchor="start" x="798.5" y="-85.5" font-family="Helvetica,sans-Serif" font-size="10.00" fill="#000000">mainwindow/mainwindow</text>
<text text-anchor="middle" x="862.5" y="-74.5" font-family="Helvetica,sans-Serif" font-size="10.00" fill="#000000">_dock.cpp</text>
</a>
</g>
</g>
<!-- Node71&#45;&gt;Node82 -->
<g id="edge13" class="edge">
<title>Node71&#45;&gt;Node82</title>
<path fill="none" stroke="#191970" d="M730.4613,-130.8356C757.1442,-121.0678 793.5688,-107.7338 821.4026,-97.5446"/>
<polygon fill="#191970" stroke="#191970" points="728.9374,-127.6662 720.75,-134.3906 731.3438,-134.2396 728.9374,-127.6662"/>
</g>
<!-- Node83 -->
<g id="node13" class="node">
<title>Node83</title>
<g id="a_node13"><a xlink:href="../../d8/dfb/mainwindow__export_8cpp.html" target="_top" xlink:title=" ">
<polygon fill="#ffffff" stroke="#000000" points="952.5,-67.5 952.5,-97.5 1096.5,-97.5 1096.5,-67.5 952.5,-67.5"/>
<text text-anchor="start" x="960.5" y="-85.5" font-family="Helvetica,sans-Serif" font-size="10.00" fill="#000000">mainwindow/mainwindow</text>
<text text-anchor="middle" x="1024.5" y="-74.5" font-family="Helvetica,sans-Serif" font-size="10.00" fill="#000000">_export.cpp</text>
</a>
</g>
</g>
<!-- Node71&#45;&gt;Node83 -->
<g id="edge14" class="edge">
<title>Node71&#45;&gt;Node83</title>
<path fill="none" stroke="#191970" d="M756.5843,-132.6444C806.9713,-123.4009 879.8404,-109.971 943.5,-98 946.3142,-97.4708 949.1831,-96.9297 952.0809,-96.3817"/>
<polygon fill="#191970" stroke="#191970" points="755.7055,-129.2471 746.5007,-134.4934 756.968,-136.1323 755.7055,-129.2471"/>
</g>
<!-- Node84 -->
<g id="node14" class="node">
<title>Node84</title>
<g id="a_node14"><a xlink:href="../../d1/d8a/binmanager_8cpp.html" target="_top" xlink:title=" ">
<polygon fill="#ffffff" stroke="#000000" points="1114.5,-67.5 1114.5,-97.5 1266.5,-97.5 1266.5,-67.5 1114.5,-67.5"/>
<text text-anchor="start" x="1122.5" y="-85.5" font-family="Helvetica,sans-Serif" font-size="10.00" fill="#000000">partsbinpalette/binmanager</text>
<text text-anchor="middle" x="1190.5" y="-74.5" font-family="Helvetica,sans-Serif" font-size="10.00" fill="#000000">/binmanager.cpp</text>
</a>
</g>
</g>
<!-- Node71&#45;&gt;Node84 -->
<g id="edge16" class="edge">
<title>Node71&#45;&gt;Node84</title>
<path fill="none" stroke="#191970" d="M781.0116,-136.0659C864.3386,-128.0114 993.8349,-114.4102 1105.5,-98 1108.3198,-97.5856 1111.1892,-97.1473 1114.0854,-96.691"/>
<polygon fill="#191970" stroke="#191970" points="780.4499,-132.6037 770.8308,-137.0446 781.1198,-139.5715 780.4499,-132.6037"/>
</g>
<!-- Node85 -->
<g id="node15" class="node">
<title>Node85</title>
<g id="a_node15"><a xlink:href="../../d1/d73/partsbinpalettewidget_8cpp.html" target="_top" xlink:title=" ">
<polygon fill="#ffffff" stroke="#000000" points="1285,-73 1285,-92 1506,-92 1506,-73 1285,-73"/>
<text text-anchor="middle" x="1395.5" y="-80" font-family="Helvetica,sans-Serif" font-size="10.00" fill="#000000">partsbinpalette/partsbinpalettewidget.cpp</text>
</a>
</g>
</g>
<!-- Node71&#45;&gt;Node85 -->
<g id="edge17" class="edge">
<title>Node71&#45;&gt;Node85</title>
<path fill="none" stroke="#191970" d="M780.7718,-138.5073C894.3408,-130.9704 1100.144,-116.2556 1275.5,-98 1292.0059,-96.2816 1309.7521,-94.1478 1326.4014,-92.0185"/>
<polygon fill="#191970" stroke="#191970" points="780.4917,-135.0181 770.7443,-139.17 780.9534,-142.0029 780.4917,-135.0181"/>
</g>
<!-- Node86 -->
<g id="node16" class="node">
<title>Node86</title>
<g id="a_node16"><a xlink:href="../../d7/d51/autoclosemessagebox_8cpp.html" target="_top" xlink:title=" ">
<polygon fill="#ffffff" stroke="#000000" points="1524.5,-73 1524.5,-92 1694.5,-92 1694.5,-73 1524.5,-73"/>
<text text-anchor="middle" x="1609.5" y="-80" font-family="Helvetica,sans-Serif" font-size="10.00" fill="#000000">utils/autoclosemessagebox.cpp</text>
</a>
</g>
</g>
<!-- Node71&#45;&gt;Node86 -->
<g id="edge18" class="edge">
<title>Node71&#45;&gt;Node86</title>
<path fill="none" stroke="#191970" d="M780.6182,-142.2173C930.4106,-138.438 1248.4775,-127.4096 1515.5,-98 1529.3099,-96.479 1544.1777,-94.2873 1557.9223,-92.0289"/>
<polygon fill="#191970" stroke="#191970" points="780.4722,-138.7198 770.562,-142.4665 780.6457,-145.7176 780.4722,-138.7198"/>
</g>
<!-- Node73 -->
<g id="node3" class="node">
<title>Node73</title>
<g id="a_node3"><a xlink:href="../../da/d99/panelizer_8cpp.html" target="_top" xlink:title=" ">
<polygon fill="#ffffff" stroke="#000000" points="171,-6 171,-25 302,-25 302,-6 171,-6"/>
<text text-anchor="middle" x="236.5" y="-13" font-family="Helvetica,sans-Serif" font-size="10.00" fill="#000000">autoroute/panelizer.cpp</text>
</a>
</g>
</g>
<!-- Node72&#45;&gt;Node73 -->
<g id="edge2" class="edge">
<title>Node72&#45;&gt;Node73</title>
<path fill="none" stroke="#191970" d="M253.6449,-63.3628C249.1607,-50.8444 243.4941,-35.0252 239.9322,-25.0817"/>
<polygon fill="#191970" stroke="#191970" points="250.3941,-64.6666 257.0614,-72.9005 256.984,-62.306 250.3941,-64.6666"/>
</g>
<!-- Node72&#45;&gt;Node74 -->
<g id="edge3" class="edge">
<title>Node72&#45;&gt;Node74</title>
<path fill="none" stroke="#191970" d="M284.3965,-67.5368C305.1197,-54.5605 334.4918,-36.1687 352.1979,-25.0817"/>
<polygon fill="#191970" stroke="#191970" points="282.4485,-64.6269 275.8305,-72.9005 286.1635,-70.5598 282.4485,-64.6269"/>
</g>
<!-- Node75 -->
<g id="node5" class="node">
<title>Node75</title>
<g id="a_node5"><a xlink:href="../../de/d4c/pcbsketchwidget_8cpp.html" target="_top" xlink:title=" ">
<polygon fill="#ffffff" stroke="#000000" points="0,-6 0,-25 153,-25 153,-6 0,-6"/>
<text text-anchor="middle" x="76.5" y="-13" font-family="Helvetica,sans-Serif" font-size="10.00" fill="#000000">sketch/pcbsketchwidget.cpp</text>
</a>
</g>
</g>
<!-- Node72&#45;&gt;Node75 -->
<g id="edge4" class="edge">
<title>Node72&#45;&gt;Node75</title>
<path fill="none" stroke="#191970" d="M224.5678,-69.416C188.8025,-56.3928 134.7637,-36.7156 102.8138,-25.0817"/>
<polygon fill="#191970" stroke="#191970" points="223.5433,-72.7677 234.1373,-72.9005 225.9384,-66.1902 223.5433,-72.7677"/>
</g>
<!-- Node78&#45;&gt;Node77 -->
<g id="edge9" class="edge">
<title>Node78&#45;&gt;Node77</title>
<path fill="none" stroke="#191970" d="M660.0861,-69.2487C626.2627,-56.2247 575.4681,-36.6659 545.3837,-25.0817"/>
<polygon fill="#191970" stroke="#191970" points="658.9803,-72.5733 669.57,-72.9005 661.4957,-66.0409 658.9803,-72.5733"/>
</g>
<!-- Node78&#45;&gt;Node79 -->
<g id="edge10" class="edge">
<title>Node78&#45;&gt;Node79</title>
<path fill="none" stroke="#191970" d="M693.9112,-62.7758C693.6034,-52.4641 693.2326,-40.0437 692.9484,-30.5218"/>
<polygon fill="#191970" stroke="#191970" points="690.4165,-63.0095 694.2134,-72.9005 697.4134,-62.8005 690.4165,-63.0095"/>
</g>
<!-- Node80 -->
<g id="node10" class="node">
<title>Node80</title>
<g id="a_node10"><a xlink:href="../../d3/d01/pecommands_8cpp.html" target="_top" xlink:title=" ">
<polygon fill="#ffffff" stroke="#000000" points="968,-6 968,-25 1127,-25 1127,-6 968,-6"/>
<text text-anchor="middle" x="1047.5" y="-13" font-family="Helvetica,sans-Serif" font-size="10.00" fill="#000000">partseditor/pecommands.cpp</text>
</a>
</g>
</g>
<!-- Node78&#45;&gt;Node80 -->
<g id="edge11" class="edge">
<title>Node78&#45;&gt;Node80</title>
<path fill="none" stroke="#191970" d="M754.8839,-71.039C823.2228,-58.0682 933.3114,-37.1732 997.1863,-25.0496"/>
<polygon fill="#191970" stroke="#191970" points="753.8733,-67.6683 744.7014,-72.9717 755.1787,-74.5455 753.8733,-67.6683"/>
</g>
<!-- Node81 -->
<g id="node11" class="node">
<title>Node81</title>
<g id="a_node11"><a xlink:href="../../d3/de2/pemainwindow_8cpp.html" target="_top" xlink:title=" ">
<polygon fill="#ffffff" stroke="#000000" points="783,-6 783,-25 950,-25 950,-6 783,-6"/>
<text text-anchor="middle" x="866.5" y="-13" font-family="Helvetica,sans-Serif" font-size="10.00" fill="#000000">partseditor/pemainwindow.cpp</text>
</a>
</g>
</g>
<!-- Node78&#45;&gt;Node81 -->
<g id="edge12" class="edge">
<title>Node78&#45;&gt;Node81</title>
<path fill="none" stroke="#191970" d="M728.5184,-69.2487C761.9529,-56.2247 812.1637,-36.6659 841.9023,-25.0817"/>
<polygon fill="#191970" stroke="#191970" points="727.191,-66.0095 719.1434,-72.9005 729.7318,-72.5321 727.191,-66.0095"/>
</g>
</g>
</svg>
