<?xml version="1.0" encoding="UTF-8" standalone="no"?>
<!DOCTYPE svg PUBLIC "-//W3C//DTD SVG 1.1//EN"
 "http://www.w3.org/Graphics/SVG/1.1/DTD/svg11.dtd">
<!-- Generated by graphviz version 2.40.1 (0)
 -->
<!-- Title: ChangeLegCurveCommand::getParamString Pages: 1 -->
<svg width="543pt" height="104pt"
 viewBox="0.00 0.00 543.00 104.00" xmlns="http://www.w3.org/2000/svg" xmlns:xlink="http://www.w3.org/1999/xlink">
<g id="graph0" class="graph" transform="scale(1 1) rotate(0) translate(4 100)">
<title>ChangeLegCurveCommand::getParamString</title>
<polygon fill="#ffffff" stroke="transparent" points="-4,4 -4,-100 539,-100 539,4 -4,4"/>
<!-- Node4 -->
<g id="node1" class="node">
<title>Node4</title>
<g id="a_node1"><a xlink:title=" ">
<polygon fill="#bfbfbf" stroke="#000000" points="0,-33 0,-63 149,-63 149,-33 0,-33"/>
<text text-anchor="start" x="8" y="-51" font-family="Helvetica,sans-Serif" font-size="10.00" fill="#000000">ChangeLegCurveCommand</text>
<text text-anchor="middle" x="74.5" y="-40" font-family="Helvetica,sans-Serif" font-size="10.00" fill="#000000">::getParamString</text>
</a>
</g>
</g>
<!-- Node5 -->
<g id="node2" class="node">
<title>Node5</title>
<g id="a_node2"><a xlink:href="../../d8/d3c/classBezier.html#a2414f8c161c4a4fed536113237cb35ec" target="_top" xlink:title=" ">
<polygon fill="#ffffff" stroke="#000000" points="235.5,-76.5 235.5,-95.5 306.5,-95.5 306.5,-76.5 235.5,-76.5"/>
<text text-anchor="middle" x="271" y="-83.5" font-family="Helvetica,sans-Serif" font-size="10.00" fill="#000000">Bezier::cp0</text>
</a>
</g>
</g>
<!-- Node4&#45;&gt;Node5 -->
<g id="edge1" class="edge">
<title>Node4&#45;&gt;Node5</title>
<path fill="none" stroke="#191970" d="M149.0684,-62.4204C174.7718,-67.391 202.7745,-72.8063 225.4548,-77.1923"/>
<polygon fill="#191970" stroke="#191970" points="224.9909,-80.6673 235.4736,-79.1298 226.32,-73.7947 224.9909,-80.6673"/>
</g>
<!-- Node6 -->
<g id="node3" class="node">
<title>Node6</title>
<g id="a_node3"><a xlink:href="../../d8/d3c/classBezier.html#ab31ae58e9814f75281175355a1b1abe1" target="_top" xlink:title=" ">
<polygon fill="#ffffff" stroke="#000000" points="235.5,-38.5 235.5,-57.5 306.5,-57.5 306.5,-38.5 235.5,-38.5"/>
<text text-anchor="middle" x="271" y="-45.5" font-family="Helvetica,sans-Serif" font-size="10.00" fill="#000000">Bezier::cp1</text>
</a>
</g>
</g>
<!-- Node4&#45;&gt;Node6 -->
<g id="edge2" class="edge">
<title>Node4&#45;&gt;Node6</title>
<path fill="none" stroke="#191970" d="M149.0684,-48C174.7718,-48 202.7745,-48 225.4548,-48"/>
<polygon fill="#191970" stroke="#191970" points="225.4736,-51.5001 235.4736,-48 225.4735,-44.5001 225.4736,-51.5001"/>
</g>
<!-- Node7 -->
<g id="node4" class="node">
<title>Node7</title>
<g id="a_node4"><a xlink:href="../../d8/d6e/classBaseCommand.html#aca69868889f793ce1399fd0c752cfa05" target="_top" xlink:title=" ">
<polygon fill="#ffffff" stroke="#000000" points="185,-.5 185,-19.5 357,-19.5 357,-.5 185,-.5"/>
<text text-anchor="middle" x="271" y="-7.5" font-family="Helvetica,sans-Serif" font-size="10.00" fill="#000000">BaseCommand::getParamString</text>
</a>
</g>
</g>
<!-- Node4&#45;&gt;Node7 -->
<g id="edge3" class="edge">
<title>Node4&#45;&gt;Node7</title>
<path fill="none" stroke="#191970" d="M149.0684,-33.5796C169.7783,-29.5747 191.981,-25.281 211.6897,-21.4697"/>
<polygon fill="#191970" stroke="#191970" points="212.594,-24.8597 221.7476,-19.5246 211.2649,-17.9871 212.594,-24.8597"/>
</g>
<!-- Node8 -->
<g id="node5" class="node">
<title>Node8</title>
<g id="a_node5"><a xlink:href="../../d8/d37/classSketchWidget.html#a4319a31c3a619e166f0e7dac865e2ea3" target="_top" xlink:title=" ">
<polygon fill="#ffffff" stroke="#000000" points="393,-.5 393,-19.5 535,-19.5 535,-.5 393,-.5"/>
<text text-anchor="middle" x="464" y="-7.5" font-family="Helvetica,sans-Serif" font-size="10.00" fill="#000000">SketchWidget::viewName</text>
</a>
</g>
</g>
<!-- Node7&#45;&gt;Node8 -->
<g id="edge4" class="edge">
<title>Node7&#45;&gt;Node8</title>
<path fill="none" stroke="#191970" d="M357.0578,-10C365.562,-10 374.1756,-10 382.6304,-10"/>
<polygon fill="#191970" stroke="#191970" points="382.8465,-13.5001 392.8465,-10 382.8465,-6.5001 382.8465,-13.5001"/>
</g>
</g>
</svg>
