<?xml version="1.0" encoding="UTF-8" standalone="no"?>
<!DOCTYPE svg PUBLIC "-//W3C//DTD SVG 1.1//EN"
 "http://www.w3.org/Graphics/SVG/1.1/DTD/svg11.dtd">
<!-- Generated by graphviz version 2.40.1 (0)
 -->
<!-- Title: SchematicSubpart::simpleHoverLeaveEvent Pages: 1 -->
<svg width="974pt" height="154pt"
 viewBox="0.00 0.00 974.00 153.50" xmlns="http://www.w3.org/2000/svg" xmlns:xlink="http://www.w3.org/1999/xlink">
<g id="graph0" class="graph" transform="scale(1 1) rotate(0) translate(4 149.5)">
<title>SchematicSubpart::simpleHoverLeaveEvent</title>
<polygon fill="#ffffff" stroke="transparent" points="-4,4 -4,-149.5 970,-149.5 970,4 -4,4"/>
<!-- Node70 -->
<g id="node1" class="node">
<title>Node70</title>
<g id="a_node1"><a xlink:title=" ">
<polygon fill="#bfbfbf" stroke="#000000" points="0,-52 0,-82 144,-82 144,-52 0,-52"/>
<text text-anchor="start" x="8" y="-70" font-family="Helvetica,sans-Serif" font-size="10.00" fill="#000000">SchematicSubpart::simple</text>
<text text-anchor="middle" x="72" y="-59" font-family="Helvetica,sans-Serif" font-size="10.00" fill="#000000">HoverLeaveEvent</text>
</a>
</g>
</g>
<!-- Node71 -->
<g id="node2" class="node">
<title>Node71</title>
<g id="a_node2"><a xlink:href="../../d7/de7/classPaletteItemBase.html#ab4022482d711507eb94117cdc4ca60f1" target="_top" xlink:title=" ">
<polygon fill="#ffffff" stroke="#000000" points="180,-52 180,-82 340,-82 340,-52 180,-52"/>
<text text-anchor="start" x="188" y="-70" font-family="Helvetica,sans-Serif" font-size="10.00" fill="#000000">PaletteItemBase::hoverLeave</text>
<text text-anchor="middle" x="260" y="-59" font-family="Helvetica,sans-Serif" font-size="10.00" fill="#000000">Event</text>
</a>
</g>
</g>
<!-- Node70&#45;&gt;Node71 -->
<g id="edge1" class="edge">
<title>Node70&#45;&gt;Node71</title>
<path fill="none" stroke="#191970" d="M144.148,-67C152.5581,-67 161.2153,-67 169.8295,-67"/>
<polygon fill="#191970" stroke="#191970" points="169.9048,-70.5001 179.9047,-67 169.9047,-63.5001 169.9048,-70.5001"/>
</g>
<!-- Node72 -->
<g id="node3" class="node">
<title>Node72</title>
<g id="a_node3"><a xlink:href="../../d4/d4f/classItemBase.html#af04d5720eead42b15b100b923cd9a00d" target="_top" xlink:title=" ">
<polygon fill="#ffffff" stroke="#000000" points="376,-114.5 376,-133.5 539,-133.5 539,-114.5 376,-114.5"/>
<text text-anchor="middle" x="457.5" y="-121.5" font-family="Helvetica,sans-Serif" font-size="10.00" fill="#000000">ItemBase::hasRubberBandLeg</text>
</a>
</g>
</g>
<!-- Node71&#45;&gt;Node72 -->
<g id="edge2" class="edge">
<title>Node71&#45;&gt;Node72</title>
<path fill="none" stroke="#191970" d="M302.968,-82.0702C324.7163,-89.4435 351.6121,-98.1768 376,-105 384.8365,-107.4723 394.2733,-109.8811 403.4764,-112.1073"/>
<polygon fill="#191970" stroke="#191970" points="402.7937,-115.5424 413.3316,-114.4457 404.4098,-108.7315 402.7937,-115.5424"/>
</g>
<!-- Node73 -->
<g id="node4" class="node">
<title>Node73</title>
<g id="a_node4"><a xlink:href="../../d4/d4f/classItemBase.html#a438e841a429659f984dbbd383205e6f6" target="_top" xlink:title=" ">
<polygon fill="#ffffff" stroke="#000000" points="380.5,-76.5 380.5,-95.5 534.5,-95.5 534.5,-76.5 380.5,-76.5"/>
<text text-anchor="middle" x="457.5" y="-83.5" font-family="Helvetica,sans-Serif" font-size="10.00" fill="#000000">ItemBase::hoverLeaveEvent</text>
</a>
</g>
</g>
<!-- Node71&#45;&gt;Node73 -->
<g id="edge3" class="edge">
<title>Node71&#45;&gt;Node73</title>
<path fill="none" stroke="#191970" d="M340.0461,-74.7006C349.9903,-75.6573 360.1971,-76.6392 370.2431,-77.6057"/>
<polygon fill="#191970" stroke="#191970" points="369.9306,-81.0917 380.2198,-78.5655 370.601,-74.1238 369.9306,-81.0917"/>
</g>
<!-- Node79 -->
<g id="node10" class="node">
<title>Node79</title>
<g id="a_node10"><a xlink:href="../../de/dba/classCursorMaster.html#a828b685cd457a3b0f6c908094eb26f35" target="_top" xlink:title=" ">
<polygon fill="#ffffff" stroke="#000000" points="393,-38.5 393,-57.5 522,-57.5 522,-38.5 393,-38.5"/>
<text text-anchor="middle" x="457.5" y="-45.5" font-family="Helvetica,sans-Serif" font-size="10.00" fill="#000000">CursorMaster::instance</text>
</a>
</g>
</g>
<!-- Node71&#45;&gt;Node79 -->
<g id="edge9" class="edge">
<title>Node71&#45;&gt;Node79</title>
<path fill="none" stroke="#191970" d="M340.0461,-59.2994C354.1571,-57.9418 368.797,-56.5335 382.7556,-55.1906"/>
<polygon fill="#191970" stroke="#191970" points="383.1631,-58.6676 392.782,-54.226 382.4927,-51.6998 383.1631,-58.6676"/>
</g>
<!-- Node80 -->
<g id="node11" class="node">
<title>Node80</title>
<g id="a_node11"><a xlink:href="../../de/dba/classCursorMaster.html#a4592411b139069d6f90721f959956650" target="_top" xlink:title=" ">
<polygon fill="#ffffff" stroke="#000000" points="379,-.5 379,-19.5 536,-19.5 536,-.5 379,-.5"/>
<text text-anchor="middle" x="457.5" y="-7.5" font-family="Helvetica,sans-Serif" font-size="10.00" fill="#000000">CursorMaster::removeCursor</text>
</a>
</g>
</g>
<!-- Node71&#45;&gt;Node80 -->
<g id="edge10" class="edge">
<title>Node71&#45;&gt;Node80</title>
<path fill="none" stroke="#191970" d="M302.968,-51.9298C324.7163,-44.5565 351.6121,-35.8232 376,-29 384.8365,-26.5277 394.2733,-24.1189 403.4764,-21.8927"/>
<polygon fill="#191970" stroke="#191970" points="404.4098,-25.2685 413.3316,-19.5543 402.7937,-18.4576 404.4098,-25.2685"/>
</g>
<!-- Node74 -->
<g id="node5" class="node">
<title>Node74</title>
<g id="a_node5"><a xlink:href="../../d8/d86/classInfoGraphicsView.html#a606fdf5fe1049e99851ba1050a9516e6" target="_top" xlink:title=" ">
<polygon fill="#ffffff" stroke="#000000" points="597.5,-115 597.5,-145 739.5,-145 739.5,-115 597.5,-115"/>
<text text-anchor="start" x="605.5" y="-133" font-family="Helvetica,sans-Serif" font-size="10.00" fill="#000000">InfoGraphicsView::getInfo</text>
<text text-anchor="middle" x="668.5" y="-122" font-family="Helvetica,sans-Serif" font-size="10.00" fill="#000000">GraphicsView</text>
</a>
</g>
</g>
<!-- Node73&#45;&gt;Node74 -->
<g id="edge4" class="edge">
<title>Node73&#45;&gt;Node74</title>
<path fill="none" stroke="#191970" d="M503.2839,-95.5473C527.8955,-100.6796 558.9722,-107.1601 587.5147,-113.1121"/>
<polygon fill="#191970" stroke="#191970" points="586.9862,-116.5771 597.4901,-115.1922 588.4152,-109.7245 586.9862,-116.5771"/>
</g>
<!-- Node75 -->
<g id="node6" class="node">
<title>Node75</title>
<g id="a_node6"><a xlink:href="../../d8/d86/classInfoGraphicsView.html#a1dd92a9bf4edda18449f602dacba5105" target="_top" xlink:title=" ">
<polygon fill="#ffffff" stroke="#000000" points="575,-76.5 575,-95.5 762,-95.5 762,-76.5 575,-76.5"/>
<text text-anchor="middle" x="668.5" y="-83.5" font-family="Helvetica,sans-Serif" font-size="10.00" fill="#000000">InfoGraphicsView::hoverLeaveItem</text>
</a>
</g>
</g>
<!-- Node73&#45;&gt;Node75 -->
<g id="edge5" class="edge">
<title>Node73&#45;&gt;Node75</title>
<path fill="none" stroke="#191970" d="M534.5715,-86C544.3721,-86 554.5264,-86 564.6602,-86"/>
<polygon fill="#191970" stroke="#191970" points="564.7734,-89.5001 574.7734,-86 564.7733,-82.5001 564.7734,-89.5001"/>
</g>
<!-- Node78 -->
<g id="node9" class="node">
<title>Node78</title>
<g id="a_node9"><a xlink:href="../../d4/d4f/classItemBase.html#a0dc00dd5fae3c515c72daa4216f8eef4" target="_top" xlink:title=" ">
<polygon fill="#ffffff" stroke="#000000" points="602.5,-38.5 602.5,-57.5 734.5,-57.5 734.5,-38.5 602.5,-38.5"/>
<text text-anchor="middle" x="668.5" y="-45.5" font-family="Helvetica,sans-Serif" font-size="10.00" fill="#000000">ItemBase::hoverUpdate</text>
</a>
</g>
</g>
<!-- Node73&#45;&gt;Node78 -->
<g id="edge8" class="edge">
<title>Node73&#45;&gt;Node78</title>
<path fill="none" stroke="#191970" d="M510.4719,-76.46C539.3168,-71.2652 575.1952,-64.8037 605.4717,-59.3511"/>
<polygon fill="#191970" stroke="#191970" points="606.2851,-62.761 615.5063,-57.5439 605.0443,-55.8718 606.2851,-62.761"/>
</g>
<!-- Node76 -->
<g id="node7" class="node">
<title>Node76</title>
<g id="a_node7"><a xlink:href="../../db/d71/classHtmlInfoView.html#a13ad74fbef803eed7d55de1cfe3cebe4" target="_top" xlink:title=" ">
<polygon fill="#ffffff" stroke="#000000" points="798,-95.5 798,-114.5 966,-114.5 966,-95.5 798,-95.5"/>
<text text-anchor="middle" x="882" y="-102.5" font-family="Helvetica,sans-Serif" font-size="10.00" fill="#000000">HtmlInfoView::hoverLeaveItem</text>
</a>
</g>
</g>
<!-- Node75&#45;&gt;Node76 -->
<g id="edge6" class="edge">
<title>Node75&#45;&gt;Node76</title>
<path fill="none" stroke="#191970" d="M762.1442,-94.3337C770.6803,-95.0933 779.3299,-95.8631 787.8702,-96.6231"/>
<polygon fill="#191970" stroke="#191970" points="787.5613,-100.1094 797.8323,-97.5097 788.1819,-93.1369 787.5613,-100.1094"/>
</g>
<!-- Node77 -->
<g id="node8" class="node">
<title>Node77</title>
<g id="a_node8"><a xlink:href="../../d4/d4f/classItemBase.html#abf6d16e250a353043cd4953ddc049bd0" target="_top" xlink:title=" ">
<polygon fill="#ffffff" stroke="#000000" points="814.5,-57.5 814.5,-76.5 949.5,-76.5 949.5,-57.5 814.5,-57.5"/>
<text text-anchor="middle" x="882" y="-64.5" font-family="Helvetica,sans-Serif" font-size="10.00" fill="#000000">ItemBase::layerKinChief</text>
</a>
</g>
</g>
<!-- Node75&#45;&gt;Node77 -->
<g id="edge7" class="edge">
<title>Node75&#45;&gt;Node77</title>
<path fill="none" stroke="#191970" d="M762.1442,-77.6663C776.1615,-76.4189 790.4849,-75.1442 804.1279,-73.9301"/>
<polygon fill="#191970" stroke="#191970" points="804.7614,-77.3876 814.4118,-73.0149 804.1408,-70.4152 804.7614,-77.3876"/>
</g>
<!-- Node81 -->
<g id="node12" class="node">
<title>Node81</title>
<g id="a_node12"><a xlink:href="../../de/dba/classCursorMaster.html#a0f97a63c61fd8ccf6f6c30ad18c7fa76" target="_top" xlink:title=" ">
<polygon fill="#ffffff" stroke="#000000" points="593.5,-.5 593.5,-19.5 743.5,-19.5 743.5,-.5 593.5,-.5"/>
<text text-anchor="middle" x="668.5" y="-7.5" font-family="Helvetica,sans-Serif" font-size="10.00" fill="#000000">CursorMaster::deleteCursor</text>
</a>
</g>
</g>
<!-- Node80&#45;&gt;Node81 -->
<g id="edge11" class="edge">
<title>Node80&#45;&gt;Node81</title>
<path fill="none" stroke="#191970" d="M536.0686,-3.4494C551.447,-3.2171 567.6435,-3.1878 583.2282,-3.3615"/>
<polygon fill="#191970" stroke="#191970" points="583.318,-6.863 593.3665,-3.5049 583.417,.1363 583.318,-6.863"/>
</g>
<!-- Node81&#45;&gt;Node80 -->
<g id="edge12" class="edge">
<title>Node81&#45;&gt;Node80</title>
<path fill="none" stroke="#191970" d="M593.3665,-16.4951C578.1185,-16.7578 561.9453,-16.8174 546.2771,-16.6741"/>
<polygon fill="#191970" stroke="#191970" points="546.1102,-13.1719 536.0686,-16.5506 546.0255,-20.1714 546.1102,-13.1719"/>
</g>
</g>
</svg>
