<?xml version="1.0" encoding="UTF-8" standalone="no"?>
<!DOCTYPE svg PUBLIC "-//W3C//DTD SVG 1.1//EN"
 "http://www.w3.org/Graphics/SVG/1.1/DTD/svg11.dtd">
<!-- Generated by graphviz version 2.40.1 (0)
 -->
<!-- Title: AddRemoveConnectorButton::AddRemoveConnectorButton Pages: 1 -->
<svg width="484pt" height="137pt"
 viewBox="0.00 0.00 484.00 137.00" xmlns="http://www.w3.org/2000/svg" xmlns:xlink="http://www.w3.org/1999/xlink">
<g id="graph0" class="graph" transform="scale(1 1) rotate(0) translate(4 133)">
<title>AddRemoveConnectorButton::AddRemoveConnectorButton</title>
<polygon fill="#ffffff" stroke="transparent" points="-4,4 -4,-133 480,-133 480,4 -4,4"/>
<!-- Node0 -->
<g id="node1" class="node">
<title>Node0</title>
<g id="a_node1"><a xlink:title=" ">
<polygon fill="#bfbfbf" stroke="#000000" points="0,-73.5 0,-103.5 164,-103.5 164,-73.5 0,-73.5"/>
<text text-anchor="start" x="8" y="-91.5" font-family="Helvetica,sans-Serif" font-size="10.00" fill="#000000">AddRemoveConnectorButton</text>
<text text-anchor="middle" x="82" y="-80.5" font-family="Helvetica,sans-Serif" font-size="10.00" fill="#000000">::AddRemoveConnectorButton</text>
</a>
</g>
</g>
<!-- Node1 -->
<g id="node2" class="node">
<title>Node1</title>
<g id="a_node2"><a xlink:href="../../d2/dad/classAbstractStatesButton.html#af88b2b0742ab1353d4405ce2484857b8" target="_top" xlink:title=" ">
<polygon fill="#ffffff" stroke="#000000" points="200,-98.5 200,-128.5 320,-128.5 320,-98.5 200,-98.5"/>
<text text-anchor="start" x="208" y="-116.5" font-family="Helvetica,sans-Serif" font-size="10.00" fill="#000000">AbstractStatesButton</text>
<text text-anchor="middle" x="260" y="-105.5" font-family="Helvetica,sans-Serif" font-size="10.00" fill="#000000">::setEnabledIcon</text>
</a>
</g>
</g>
<!-- Node0&#45;&gt;Node1 -->
<g id="edge1" class="edge">
<title>Node0&#45;&gt;Node1</title>
<path fill="none" stroke="#191970" d="M164.2265,-100.0487C172.775,-101.2493 181.4072,-102.4617 189.8054,-103.6412"/>
<polygon fill="#191970" stroke="#191970" points="189.5222,-107.1357 199.9118,-105.0606 190.4958,-100.2037 189.5222,-107.1357"/>
</g>
<!-- Node3 -->
<g id="node4" class="node">
<title>Node3</title>
<g id="a_node4"><a xlink:href="../../d2/dad/classAbstractStatesButton.html#ad59c2e8837a695c26145ebdea40ea4ab" target="_top" xlink:title=" ">
<polygon fill="#ffffff" stroke="#000000" points="200,-49.5 200,-79.5 320,-79.5 320,-49.5 200,-49.5"/>
<text text-anchor="start" x="208" y="-67.5" font-family="Helvetica,sans-Serif" font-size="10.00" fill="#000000">AbstractStatesButton</text>
<text text-anchor="middle" x="260" y="-56.5" font-family="Helvetica,sans-Serif" font-size="10.00" fill="#000000">::setupIcons</text>
</a>
</g>
</g>
<!-- Node0&#45;&gt;Node3 -->
<g id="edge3" class="edge">
<title>Node0&#45;&gt;Node3</title>
<path fill="none" stroke="#191970" d="M164.2265,-77.4133C172.775,-76.2607 181.4072,-75.0968 189.8054,-73.9644"/>
<polygon fill="#191970" stroke="#191970" points="190.4692,-77.4067 199.9118,-72.6018 189.5338,-70.4695 190.4692,-77.4067"/>
</g>
<!-- Node2 -->
<g id="node3" class="node">
<title>Node2</title>
<g id="a_node3"><a xlink:href="../../d2/dad/classAbstractStatesButton.html#a03557fcac1738cd9df1560ef716f34b0" target="_top" xlink:title=" ">
<polygon fill="#ffffff" stroke="#000000" points="356,-98.5 356,-128.5 476,-128.5 476,-98.5 356,-98.5"/>
<text text-anchor="start" x="364" y="-116.5" font-family="Helvetica,sans-Serif" font-size="10.00" fill="#000000">AbstractStatesButton</text>
<text text-anchor="middle" x="416" y="-105.5" font-family="Helvetica,sans-Serif" font-size="10.00" fill="#000000">::setImage</text>
</a>
</g>
</g>
<!-- Node1&#45;&gt;Node2 -->
<g id="edge2" class="edge">
<title>Node1&#45;&gt;Node2</title>
<path fill="none" stroke="#191970" d="M320.3137,-113.5C328.6036,-113.5 337.1748,-113.5 345.6255,-113.5"/>
<polygon fill="#191970" stroke="#191970" points="345.8468,-117.0001 355.8467,-113.5 345.8467,-110.0001 345.8468,-117.0001"/>
</g>
<!-- Node4 -->
<g id="node5" class="node">
<title>Node4</title>
<g id="a_node5"><a xlink:href="../../d2/dad/classAbstractStatesButton.html#ad5b28f82d54070b06f9325fe4a6cd623" target="_top" xlink:title=" ">
<polygon fill="#ffffff" stroke="#000000" points="356,-49.5 356,-79.5 476,-79.5 476,-49.5 356,-49.5"/>
<text text-anchor="start" x="364" y="-67.5" font-family="Helvetica,sans-Serif" font-size="10.00" fill="#000000">AbstractStatesButton</text>
<text text-anchor="middle" x="416" y="-56.5" font-family="Helvetica,sans-Serif" font-size="10.00" fill="#000000">::imagePrefix</text>
</a>
</g>
</g>
<!-- Node3&#45;&gt;Node4 -->
<g id="edge4" class="edge">
<title>Node3&#45;&gt;Node4</title>
<path fill="none" stroke="#191970" d="M320.3137,-64.5C328.6036,-64.5 337.1748,-64.5 345.6255,-64.5"/>
<polygon fill="#191970" stroke="#191970" points="345.8468,-68.0001 355.8467,-64.5 345.8467,-61.0001 345.8468,-68.0001"/>
</g>
<!-- Node5 -->
<g id="node6" class="node">
<title>Node5</title>
<g id="a_node6"><a xlink:href="../../d2/dad/classAbstractStatesButton.html#a2bb040a8d5e6129bf165d893d95749f6" target="_top" xlink:title=" ">
<polygon fill="#ffffff" stroke="#000000" points="356,-.5 356,-30.5 476,-30.5 476,-.5 356,-.5"/>
<text text-anchor="start" x="364" y="-18.5" font-family="Helvetica,sans-Serif" font-size="10.00" fill="#000000">AbstractStatesButton</text>
<text text-anchor="middle" x="416" y="-7.5" font-family="Helvetica,sans-Serif" font-size="10.00" fill="#000000">::imageSubfix</text>
</a>
</g>
</g>
<!-- Node3&#45;&gt;Node5 -->
<g id="edge5" class="edge">
<title>Node3&#45;&gt;Node5</title>
<path fill="none" stroke="#191970" d="M308.0781,-49.3986C324.0183,-44.3917 341.9237,-38.7676 358.4996,-33.561"/>
<polygon fill="#191970" stroke="#191970" points="359.5891,-36.8875 368.0807,-30.5516 357.4914,-30.2092 359.5891,-36.8875"/>
</g>
</g>
</svg>
