<?xml version="1.0" encoding="UTF-8" standalone="no"?>
<!DOCTYPE svg PUBLIC "-//W3C//DTD SVG 1.1//EN"
 "http://www.w3.org/Graphics/SVG/1.1/DTD/svg11.dtd">
<!-- Generated by graphviz version 2.40.1 (0)
 -->
<!-- Title: DRC::generateCollisionData Pages: 1 -->
<svg width="1561pt" height="75pt"
 viewBox="0.00 0.00 1561.00 74.50" xmlns="http://www.w3.org/2000/svg" xmlns:xlink="http://www.w3.org/1999/xlink">
<g id="graph0" class="graph" transform="scale(1 1) rotate(0) translate(4 70.5)">
<title>DRC::generateCollisionData</title>
<polygon fill="#ffffff" stroke="transparent" points="-4,4 -4,-70.5 1557,-70.5 1557,4 -4,4"/>
<!-- Node756 -->
<g id="node1" class="node">
<title>Node756</title>
<g id="a_node1"><a xlink:title="generate record of part collision location">
<polygon fill="#bfbfbf" stroke="#000000" points="1401,-19.5 1401,-38.5 1553,-38.5 1553,-19.5 1401,-19.5"/>
<text text-anchor="middle" x="1477" y="-26.5" font-family="Helvetica,sans-Serif" font-size="10.00" fill="#000000">DRC::generateCollisionData</text>
</a>
</g>
</g>
<!-- Node757 -->
<g id="node2" class="node">
<title>Node757</title>
<g id="a_node2"><a xlink:href="../../dc/d8c/classDRC.html#a18c8548fbe2f26d430d1e91a928a02e0" target="_top" xlink:title="locate part (mounting) holes that are too close to the edge of the board">
<polygon fill="#ffffff" stroke="#000000" points="1250.5,-38.5 1250.5,-57.5 1350.5,-57.5 1350.5,-38.5 1250.5,-38.5"/>
<text text-anchor="middle" x="1300.5" y="-45.5" font-family="Helvetica,sans-Serif" font-size="10.00" fill="#000000">DRC::checkHoles</text>
</a>
</g>
</g>
<!-- Node756&#45;&gt;Node757 -->
<g id="edge1" class="edge">
<title>Node756&#45;&gt;Node757</title>
<path fill="none" stroke="#191970" d="M1390.8673,-38.2721C1377.0906,-39.7551 1363.2451,-41.2456 1350.6748,-42.5987"/>
<polygon fill="#191970" stroke="#191970" points="1391.2996,-41.7459 1400.8675,-37.1956 1390.5503,-34.7861 1391.2996,-41.7459"/>
</g>
<!-- Node767 -->
<g id="node12" class="node">
<title>Node767</title>
<g id="a_node12"><a xlink:href="../../dc/d8c/classDRC.html#a35bf4a1f2215f811175fc3d5758c0606" target="_top" xlink:title="locate embedded (not core) parts that are missing copper layer information">
<polygon fill="#ffffff" stroke="#000000" points="1236,-.5 1236,-19.5 1365,-19.5 1365,-.5 1236,-.5"/>
<text text-anchor="middle" x="1300.5" y="-7.5" font-family="Helvetica,sans-Serif" font-size="10.00" fill="#000000">DRC::checkCopperBoth</text>
</a>
</g>
</g>
<!-- Node756&#45;&gt;Node767 -->
<g id="edge12" class="edge">
<title>Node756&#45;&gt;Node767</title>
<path fill="none" stroke="#191970" d="M1390.7394,-19.7142C1382.0848,-18.7825 1373.4047,-17.8481 1365.0323,-16.9468"/>
<polygon fill="#191970" stroke="#191970" points="1390.5503,-23.2139 1400.8675,-20.8044 1391.2996,-16.2541 1390.5503,-23.2139"/>
</g>
<!-- Node758 -->
<g id="node3" class="node">
<title>Node758</title>
<g id="a_node3"><a xlink:href="../../dc/d8c/classDRC.html#a3278b784f80fe4db30e4618cd910627b" target="_top" xlink:title="do the actual rule check processing for a single PCB">
<polygon fill="#ffffff" stroke="#000000" points="1115,-19.5 1115,-38.5 1200,-38.5 1200,-19.5 1115,-19.5"/>
<text text-anchor="middle" x="1157.5" y="-26.5" font-family="Helvetica,sans-Serif" font-size="10.00" fill="#000000">DRC::startAux</text>
</a>
</g>
</g>
<!-- Node757&#45;&gt;Node758 -->
<g id="edge2" class="edge">
<title>Node757&#45;&gt;Node758</title>
<path fill="none" stroke="#191970" d="M1240.2997,-40.0014C1226.796,-38.2072 1212.7406,-36.3397 1200.1263,-34.6636"/>
<polygon fill="#191970" stroke="#191970" points="1240.1116,-43.5071 1250.4855,-41.3547 1241.0337,-36.568 1240.1116,-43.5071"/>
</g>
<!-- Node759 -->
<g id="node4" class="node">
<title>Node759</title>
<g id="a_node4"><a xlink:href="../../dc/d8c/classDRC.html#afafd7b4217ebc10c0f3b8904903277ec" target="_top" xlink:title=" ">
<polygon fill="#ffffff" stroke="#000000" points="1013,-19.5 1013,-38.5 1079,-38.5 1079,-19.5 1013,-19.5"/>
<text text-anchor="middle" x="1046" y="-26.5" font-family="Helvetica,sans-Serif" font-size="10.00" fill="#000000">DRC::start</text>
</a>
</g>
</g>
<!-- Node758&#45;&gt;Node759 -->
<g id="edge3" class="edge">
<title>Node758&#45;&gt;Node759</title>
<path fill="none" stroke="#191970" d="M1104.6174,-29C1095.9405,-29 1087.1707,-29 1079.1518,-29"/>
<polygon fill="#191970" stroke="#191970" points="1104.7101,-32.5001 1114.7101,-29 1104.71,-25.5001 1104.7101,-32.5001"/>
</g>
<!-- Node760 -->
<g id="node5" class="node">
<title>Node760</title>
<g id="a_node5"><a xlink:href="../../d6/d1a/classMainWindow.html#a515ccc1e117dfba77f0bab954a7c6523" target="_top" xlink:title=" ">
<polygon fill="#ffffff" stroke="#000000" points="811,-14 811,-44 977,-44 977,-14 811,-14"/>
<text text-anchor="start" x="819" y="-32" font-family="Helvetica,sans-Serif" font-size="10.00" fill="#000000">MainWindow::newDesignRules</text>
<text text-anchor="middle" x="894" y="-21" font-family="Helvetica,sans-Serif" font-size="10.00" fill="#000000">Check</text>
</a>
</g>
</g>
<!-- Node759&#45;&gt;Node760 -->
<g id="edge4" class="edge">
<title>Node759&#45;&gt;Node760</title>
<path fill="none" stroke="#191970" d="M1002.476,-29C994.4515,-29 985.832,-29 977.0863,-29"/>
<polygon fill="#191970" stroke="#191970" points="1002.643,-32.5001 1012.643,-29 1002.6429,-25.5001 1002.643,-32.5001"/>
</g>
<!-- Node761 -->
<g id="node6" class="node">
<title>Node761</title>
<g id="a_node6"><a xlink:href="../../d1/dec/classPanelizer.html#a746666008f0498b0b2d533eb542538a2" target="_top" xlink:title=" ">
<polygon fill="#ffffff" stroke="#000000" points="641,-38.5 641,-57.5 775,-57.5 775,-38.5 641,-38.5"/>
<text text-anchor="middle" x="708" y="-45.5" font-family="Helvetica,sans-Serif" font-size="10.00" fill="#000000">Panelizer::inscribeBoard</text>
</a>
</g>
</g>
<!-- Node760&#45;&gt;Node761 -->
<g id="edge5" class="edge">
<title>Node760&#45;&gt;Node761</title>
<path fill="none" stroke="#191970" d="M800.7204,-38.5286C792.1268,-39.4064 783.5364,-40.2839 775.2427,-41.1311"/>
<polygon fill="#191970" stroke="#191970" points="801.1999,-41.9979 810.7924,-37.4997 800.4885,-35.0341 801.1999,-41.9979"/>
</g>
<!-- Node766 -->
<g id="node11" class="node">
<title>Node766</title>
<g id="a_node11"><a xlink:href="../../dc/dc7/classFApplication.html#ad221f960da2ad821517d29ef4d91eb67" target="_top" xlink:title=" ">
<polygon fill="#ffffff" stroke="#000000" points="450,-.5 450,-19.5 605,-19.5 605,-.5 450,-.5"/>
<text text-anchor="middle" x="527.5" y="-7.5" font-family="Helvetica,sans-Serif" font-size="10.00" fill="#000000">FApplication::runDRCService</text>
</a>
</g>
</g>
<!-- Node760&#45;&gt;Node766 -->
<g id="edge10" class="edge">
<title>Node760&#45;&gt;Node766</title>
<path fill="none" stroke="#191970" d="M800.5115,-24.1534C739.9792,-21.0153 662.0934,-16.9776 605.0134,-14.0184"/>
<polygon fill="#191970" stroke="#191970" points="800.6677,-27.6661 810.8355,-24.6886 801.0301,-20.6755 800.6677,-27.6661"/>
</g>
<!-- Node762 -->
<g id="node7" class="node">
<title>Node762</title>
<g id="a_node7"><a xlink:href="../../d1/dec/classPanelizer.html#a17e70d92a6673b55cbe831bf41f51764" target="_top" xlink:title=" ">
<polygon fill="#ffffff" stroke="#000000" points="475,-39.5 475,-58.5 580,-58.5 580,-39.5 475,-39.5"/>
<text text-anchor="middle" x="527.5" y="-46.5" font-family="Helvetica,sans-Serif" font-size="10.00" fill="#000000">Panelizer::inscribe</text>
</a>
</g>
</g>
<!-- Node761&#45;&gt;Node762 -->
<g id="edge6" class="edge">
<title>Node761&#45;&gt;Node762</title>
<path fill="none" stroke="#191970" d="M630.33,-48.4303C613.3723,-48.5243 595.8103,-48.6215 580.1022,-48.7086"/>
<polygon fill="#191970" stroke="#191970" points="630.808,-51.9278 640.7885,-48.3724 630.7692,-44.9279 630.808,-51.9278"/>
</g>
<!-- Node763 -->
<g id="node8" class="node">
<title>Node763</title>
<g id="a_node8"><a xlink:href="../../dc/dc7/classFApplication.html#acf8b4e0eaaa72bb5ac8da5ac4350a8a4" target="_top" xlink:title=" ">
<polygon fill="#ffffff" stroke="#000000" points="265,-36 265,-66 414,-66 414,-36 265,-36"/>
<text text-anchor="start" x="273" y="-54" font-family="Helvetica,sans-Serif" font-size="10.00" fill="#000000">FApplication::runInscription</text>
<text text-anchor="middle" x="339.5" y="-43" font-family="Helvetica,sans-Serif" font-size="10.00" fill="#000000">Service</text>
</a>
</g>
</g>
<!-- Node762&#45;&gt;Node763 -->
<g id="edge7" class="edge">
<title>Node762&#45;&gt;Node763</title>
<path fill="none" stroke="#191970" d="M464.5074,-49.6701C448.3852,-49.8416 430.8924,-50.0277 414.242,-50.2049"/>
<polygon fill="#191970" stroke="#191970" points="464.9194,-53.166 474.8815,-49.5598 464.8448,-46.1664 464.9194,-53.166"/>
</g>
<!-- Node764 -->
<g id="node9" class="node">
<title>Node764</title>
<g id="a_node9"><a xlink:href="../../dc/dc7/classFApplication.html#ac5e0b62634df1a581eee3c3a36980754" target="_top" xlink:title=" ">
<polygon fill="#ffffff" stroke="#000000" points="77,-19.5 77,-38.5 229,-38.5 229,-19.5 77,-19.5"/>
<text text-anchor="middle" x="153" y="-26.5" font-family="Helvetica,sans-Serif" font-size="10.00" fill="#000000">FApplication::serviceStartup</text>
</a>
</g>
</g>
<!-- Node763&#45;&gt;Node764 -->
<g id="edge8" class="edge">
<title>Node763&#45;&gt;Node764</title>
<path fill="none" stroke="#191970" d="M254.9749,-41.0292C246.3928,-40.0168 237.7113,-38.9927 229.2245,-37.9916"/>
<polygon fill="#191970" stroke="#191970" points="254.645,-44.5145 264.9862,-42.2102 255.4651,-37.5627 254.645,-44.5145"/>
</g>
<!-- Node765 -->
<g id="node10" class="node">
<title>Node765</title>
<g id="a_node10"><a xlink:href="../../df/d0a/main_8cpp.html#a0ddf1224851353fc92bfbff6f499fa97" target="_top" xlink:title=" ">
<polygon fill="#ffffff" stroke="#000000" points="0,-19.5 0,-38.5 41,-38.5 41,-19.5 0,-19.5"/>
<text text-anchor="middle" x="20.5" y="-26.5" font-family="Helvetica,sans-Serif" font-size="10.00" fill="#000000">main</text>
</a>
</g>
</g>
<!-- Node764&#45;&gt;Node765 -->
<g id="edge9" class="edge">
<title>Node764&#45;&gt;Node765</title>
<path fill="none" stroke="#191970" d="M66.6912,-29C57.2673,-29 48.4413,-29 41.0804,-29"/>
<polygon fill="#191970" stroke="#191970" points="66.692,-32.5001 76.6919,-29 66.6919,-25.5001 66.692,-32.5001"/>
</g>
<!-- Node766&#45;&gt;Node764 -->
<g id="edge11" class="edge">
<title>Node766&#45;&gt;Node764</title>
<path fill="none" stroke="#191970" d="M439.8449,-14.4471C375.9616,-17.6882 290.2643,-22.036 229.2159,-25.1332"/>
<polygon fill="#191970" stroke="#191970" points="440.0936,-17.9391 449.9034,-13.9368 439.7388,-10.9481 440.0936,-17.9391"/>
</g>
<!-- Node767&#45;&gt;Node758 -->
<g id="edge13" class="edge">
<title>Node767&#45;&gt;Node758</title>
<path fill="none" stroke="#191970" d="M1225.5637,-19.9566C1216.9343,-21.1031 1208.3718,-22.2408 1200.3805,-23.3026"/>
<polygon fill="#191970" stroke="#191970" points="1226.2425,-23.3972 1235.6944,-18.6105 1225.3205,-16.4582 1226.2425,-23.3972"/>
</g>
</g>
</svg>
