<?xml version="1.0" encoding="UTF-8" standalone="no"?>
<!DOCTYPE svg PUBLIC "-//W3C//DTD SVG 1.1//EN"
 "http://www.w3.org/Graphics/SVG/1.1/DTD/svg11.dtd">
<!-- Generated by graphviz version 2.40.1 (0)
 -->
<!-- Title: DRC::start Pages: 1 -->
<!--zoomable 75 -->
<svg id="main" version="1.1" xmlns="http://www.w3.org/2000/svg" xmlns:xlink="http://www.w3.org/1999/xlink" xml:space="preserve" onload="init(evt)">
<style type="text/css"><![CDATA[
.edge:hover path { stroke: red; }
.edge:hover polygon { stroke: red; fill: red; }
]]></style>
<script type="text/javascript"><![CDATA[
var edges = document.getElementsByTagName('g');
if (edges && edges.length) {
  for (var i=0;i<edges.length;i++) {
    if (edges[i].id.substr(0,4)=='edge') {
      edges[i].setAttribute('class','edge');
    }
  }
}
]]></script>
        <defs>
                <circle id="rim" cx="0" cy="0" r="7"/>
                <circle id="rim2" cx="0" cy="0" r="3.5"/>
                <g id="zoomPlus">
                        <use xlink:href="#rim" fill="#404040">
                                <set attributeName="fill" to="#808080" begin="zoomplus.mouseover" end="zoomplus.mouseout"/>
                        </use>
                        <path d="M-4,0h8M0,-4v8" fill="none" stroke="white" stroke-width="1.5" pointer-events="none"/>
                </g>
                <g id="zoomMin">
                        <use xlink:href="#rim" fill="#404040">
                                <set attributeName="fill" to="#808080" begin="zoomminus.mouseover" end="zoomminus.mouseout"/>
                        </use>
                        <path d="M-4,0h8" fill="none" stroke="white" stroke-width="1.5" pointer-events="none"/>
                </g>
                <g id="dirArrow">
                        <path fill="none" stroke="white" stroke-width="1.5" d="M0,-3.0v7 M-2.5,-0.5L0,-3.0L2.5,-0.5"/>
                </g>
               <g id="resetDef">
                       <use xlink:href="#rim2" fill="#404040">
                               <set attributeName="fill" to="#808080" begin="reset.mouseover" end="reset.mouseout"/>
                       </use>
               </g>
        </defs>

<script type="text/javascript">
var viewWidth = 1087;
var viewHeight = 75;
var sectionId = 'dynsection-22';
</script>
<script xlink:href="../../svgpan.js"/>
<svg id="graph" class="graph">
<g id="viewport">
<title>DRC::start</title>
<polygon fill="#ffffff" stroke="transparent" points="-4,4 -4,-70.5 1083,-70.5 1083,4 -4,4"/>
<!-- Node1348 -->
<g id="node1" class="node">
<title>Node1348</title>
<g id="a_node1"><a xlink:title=" ">
<polygon fill="#bfbfbf" stroke="#000000" points="1013,-19.5 1013,-38.5 1079,-38.5 1079,-19.5 1013,-19.5"/>
<text text-anchor="middle" x="1046" y="-26.5" font-family="Helvetica,sans-Serif" font-size="10.00" fill="#000000">DRC::start</text>
</a>
</g>
</g>
<!-- Node1349 -->
<g id="node2" class="node">
<title>Node1349</title>
<g id="a_node2"><a xlink:href="../../d6/d1a/classMainWindow.html#a515ccc1e117dfba77f0bab954a7c6523" target="_top" xlink:title=" ">
<polygon fill="#ffffff" stroke="#000000" points="811,-14 811,-44 977,-44 977,-14 811,-14"/>
<text text-anchor="start" x="819" y="-32" font-family="Helvetica,sans-Serif" font-size="10.00" fill="#000000">MainWindow::newDesignRules</text>
<text text-anchor="middle" x="894" y="-21" font-family="Helvetica,sans-Serif" font-size="10.00" fill="#000000">Check</text>
</a>
</g>
</g>
<!-- Node1348&#45;&gt;Node1349 -->
<g id="edge1" class="edge">
<title>Node1348&#45;&gt;Node1349</title>
<path fill="none" stroke="#191970" d="M1002.476,-29C994.4515,-29 985.832,-29 977.0863,-29"/>
<polygon fill="#191970" stroke="#191970" points="1002.643,-32.5001 1012.643,-29 1002.6429,-25.5001 1002.643,-32.5001"/>
</g>
<!-- Node1350 -->
<g id="node3" class="node">
<title>Node1350</title>
<g id="a_node3"><a xlink:href="../../d1/dec/classPanelizer.html#a746666008f0498b0b2d533eb542538a2" target="_top" xlink:title=" ">
<polygon fill="#ffffff" stroke="#000000" points="641,-38.5 641,-57.5 775,-57.5 775,-38.5 641,-38.5"/>
<text text-anchor="middle" x="708" y="-45.5" font-family="Helvetica,sans-Serif" font-size="10.00" fill="#000000">Panelizer::inscribeBoard</text>
</a>
</g>
</g>
<!-- Node1349&#45;&gt;Node1350 -->
<g id="edge2" class="edge">
<title>Node1349&#45;&gt;Node1350</title>
<path fill="none" stroke="#191970" d="M800.7204,-38.5286C792.1268,-39.4064 783.5364,-40.2839 775.2427,-41.1311"/>
<polygon fill="#191970" stroke="#191970" points="801.1999,-41.9979 810.7924,-37.4997 800.4885,-35.0341 801.1999,-41.9979"/>
</g>
<!-- Node1355 -->
<g id="node8" class="node">
<title>Node1355</title>
<g id="a_node8"><a xlink:href="../../dc/dc7/classFApplication.html#ad221f960da2ad821517d29ef4d91eb67" target="_top" xlink:title=" ">
<polygon fill="#ffffff" stroke="#000000" points="450,-.5 450,-19.5 605,-19.5 605,-.5 450,-.5"/>
<text text-anchor="middle" x="527.5" y="-7.5" font-family="Helvetica,sans-Serif" font-size="10.00" fill="#000000">FApplication::runDRCService</text>
</a>
</g>
</g>
<!-- Node1349&#45;&gt;Node1355 -->
<g id="edge7" class="edge">
<title>Node1349&#45;&gt;Node1355</title>
<path fill="none" stroke="#191970" d="M800.5115,-24.1534C739.9792,-21.0153 662.0934,-16.9776 605.0134,-14.0184"/>
<polygon fill="#191970" stroke="#191970" points="800.6677,-27.6661 810.8355,-24.6886 801.0301,-20.6755 800.6677,-27.6661"/>
</g>
<!-- Node1351 -->
<g id="node4" class="node">
<title>Node1351</title>
<g id="a_node4"><a xlink:href="../../d1/dec/classPanelizer.html#a17e70d92a6673b55cbe831bf41f51764" target="_top" xlink:title=" ">
<polygon fill="#ffffff" stroke="#000000" points="475,-39.5 475,-58.5 580,-58.5 580,-39.5 475,-39.5"/>
<text text-anchor="middle" x="527.5" y="-46.5" font-family="Helvetica,sans-Serif" font-size="10.00" fill="#000000">Panelizer::inscribe</text>
</a>
</g>
</g>
<!-- Node1350&#45;&gt;Node1351 -->
<g id="edge3" class="edge">
<title>Node1350&#45;&gt;Node1351</title>
<path fill="none" stroke="#191970" d="M630.33,-48.4303C613.3723,-48.5243 595.8103,-48.6215 580.1022,-48.7086"/>
<polygon fill="#191970" stroke="#191970" points="630.808,-51.9278 640.7885,-48.3724 630.7692,-44.9279 630.808,-51.9278"/>
</g>
<!-- Node1352 -->
<g id="node5" class="node">
<title>Node1352</title>
<g id="a_node5"><a xlink:href="../../dc/dc7/classFApplication.html#acf8b4e0eaaa72bb5ac8da5ac4350a8a4" target="_top" xlink:title=" ">
<polygon fill="#ffffff" stroke="#000000" points="265,-36 265,-66 414,-66 414,-36 265,-36"/>
<text text-anchor="start" x="273" y="-54" font-family="Helvetica,sans-Serif" font-size="10.00" fill="#000000">FApplication::runInscription</text>
<text text-anchor="middle" x="339.5" y="-43" font-family="Helvetica,sans-Serif" font-size="10.00" fill="#000000">Service</text>
</a>
</g>
</g>
<!-- Node1351&#45;&gt;Node1352 -->
<g id="edge4" class="edge">
<title>Node1351&#45;&gt;Node1352</title>
<path fill="none" stroke="#191970" d="M464.5074,-49.6701C448.3852,-49.8416 430.8924,-50.0277 414.242,-50.2049"/>
<polygon fill="#191970" stroke="#191970" points="464.9194,-53.166 474.8815,-49.5598 464.8448,-46.1664 464.9194,-53.166"/>
</g>
<!-- Node1353 -->
<g id="node6" class="node">
<title>Node1353</title>
<g id="a_node6"><a xlink:href="../../dc/dc7/classFApplication.html#ac5e0b62634df1a581eee3c3a36980754" target="_top" xlink:title=" ">
<polygon fill="#ffffff" stroke="#000000" points="77,-19.5 77,-38.5 229,-38.5 229,-19.5 77,-19.5"/>
<text text-anchor="middle" x="153" y="-26.5" font-family="Helvetica,sans-Serif" font-size="10.00" fill="#000000">FApplication::serviceStartup</text>
</a>
</g>
</g>
<!-- Node1352&#45;&gt;Node1353 -->
<g id="edge5" class="edge">
<title>Node1352&#45;&gt;Node1353</title>
<path fill="none" stroke="#191970" d="M254.9749,-41.0292C246.3928,-40.0168 237.7113,-38.9927 229.2245,-37.9916"/>
<polygon fill="#191970" stroke="#191970" points="254.645,-44.5145 264.9862,-42.2102 255.4651,-37.5627 254.645,-44.5145"/>
</g>
<!-- Node1354 -->
<g id="node7" class="node">
<title>Node1354</title>
<g id="a_node7"><a xlink:href="../../df/d0a/main_8cpp.html#a0ddf1224851353fc92bfbff6f499fa97" target="_top" xlink:title=" ">
<polygon fill="#ffffff" stroke="#000000" points="0,-19.5 0,-38.5 41,-38.5 41,-19.5 0,-19.5"/>
<text text-anchor="middle" x="20.5" y="-26.5" font-family="Helvetica,sans-Serif" font-size="10.00" fill="#000000">main</text>
</a>
</g>
</g>
<!-- Node1353&#45;&gt;Node1354 -->
<g id="edge6" class="edge">
<title>Node1353&#45;&gt;Node1354</title>
<path fill="none" stroke="#191970" d="M66.6912,-29C57.2673,-29 48.4413,-29 41.0804,-29"/>
<polygon fill="#191970" stroke="#191970" points="66.692,-32.5001 76.6919,-29 66.6919,-25.5001 66.692,-32.5001"/>
</g>
<!-- Node1355&#45;&gt;Node1353 -->
<g id="edge8" class="edge">
<title>Node1355&#45;&gt;Node1353</title>
<path fill="none" stroke="#191970" d="M439.8449,-14.4471C375.9616,-17.6882 290.2643,-22.036 229.2159,-25.1332"/>
<polygon fill="#191970" stroke="#191970" points="440.0936,-17.9391 449.9034,-13.9368 439.7388,-10.9481 440.0936,-17.9391"/>
</g>
</g>
</svg>
        <g id="navigator" transform="translate(0 0)" fill="#404254">
                <rect fill="#f2f5e9" fill-opacity="0.5" stroke="#606060" stroke-width=".5" x="0" y="0" width="60" height="60"/>
                <use id="zoomplus" xlink:href="#zoomPlus" x="17" y="9" onmousedown="handleZoom(evt,'in')"/>
                <use id="zoomminus" xlink:href="#zoomMin" x="42" y="9" onmousedown="handleZoom(evt,'out')"/>
                <use id="reset" xlink:href="#resetDef" x="30" y="36" onmousedown="handleReset()"/>
                <g id="arrowUp" xlink:href="#dirArrow" transform="translate(30 24)" onmousedown="handlePan(0,-1)">
                  <use xlink:href="#rim" fill="#404040">
                        <set attributeName="fill" to="#808080" begin="arrowUp.mouseover" end="arrowUp.mouseout"/>
                  </use>
                  <path fill="none" stroke="white" stroke-width="1.5" d="M0,-3.0v7 M-2.5,-0.5L0,-3.0L2.5,-0.5"/>
                </g>
                <g id="arrowRight" xlink:href="#dirArrow" transform="rotate(90) translate(36 -43)" onmousedown="handlePan(1,0)">
                  <use xlink:href="#rim" fill="#404040">
                        <set attributeName="fill" to="#808080" begin="arrowRight.mouseover" end="arrowRight.mouseout"/>
                  </use>
                  <path fill="none" stroke="white" stroke-width="1.5" d="M0,-3.0v7 M-2.5,-0.5L0,-3.0L2.5,-0.5"/>
                </g>
                <g id="arrowDown" xlink:href="#dirArrow" transform="rotate(180) translate(-30 -48)" onmousedown="handlePan(0,1)">
                  <use xlink:href="#rim" fill="#404040">
                        <set attributeName="fill" to="#808080" begin="arrowDown.mouseover" end="arrowDown.mouseout"/>
                  </use>
                  <path fill="none" stroke="white" stroke-width="1.5" d="M0,-3.0v7 M-2.5,-0.5L0,-3.0L2.5,-0.5"/>
                </g>
                <g id="arrowLeft" xlink:href="#dirArrow" transform="rotate(270) translate(-36 17)" onmousedown="handlePan(-1,0)">
                  <use xlink:href="#rim" fill="#404040">
                        <set attributeName="fill" to="#808080" begin="arrowLeft.mouseover" end="arrowLeft.mouseout"/>
                  </use>
                  <path fill="none" stroke="white" stroke-width="1.5" d="M0,-3.0v7 M-2.5,-0.5L0,-3.0L2.5,-0.5"/>
                </g>
        </g>
        <svg viewBox="0 0 15 15" width="100%" height="30px" preserveAspectRatio="xMaxYMin meet">
         <g id="arrow_out" transform="scale(0.3 0.3)">
          <a xlink:href="classDRC_afafd7b4217ebc10c0f3b8904903277ec_icgraph_org.svg" target="_base">
           <rect id="button" ry="5" rx="5" y="6" x="6" height="38" width="38"
                fill="#f2f5e9" fill-opacity="0.5" stroke="#606060" stroke-width="1.0"/>
           <path id="arrow"
             d="M 11.500037,31.436501 C 11.940474,20.09759 22.043105,11.32322 32.158766,21.979434 L 37.068811,17.246167 C 37.068811,17.246167 37.088388,32 37.088388,32 L 22.160133,31.978069 C 22.160133,31.978069 26.997745,27.140456 26.997745,27.140456 C 18.528582,18.264221 13.291696,25.230495 11.500037,31.436501 z"
             style="fill:#404040;"/>
          </a>
         </g>
        </svg>
</svg>
