<?xml version="1.0" encoding="UTF-8" standalone="no"?>
<!DOCTYPE svg PUBLIC "-//W3C//DTD SVG 1.1//EN"
 "http://www.w3.org/Graphics/SVG/1.1/DTD/svg11.dtd">
<!-- Generated by graphviz version 2.40.1 (0)
 -->
<!-- Title: ItemBase::hidePartLabel Pages: 1 -->
<svg width="326pt" height="88pt"
 viewBox="0.00 0.00 326.00 88.00" xmlns="http://www.w3.org/2000/svg" xmlns:xlink="http://www.w3.org/1999/xlink">
<g id="graph0" class="graph" transform="scale(1 1) rotate(0) translate(4 84)">
<title>ItemBase::hidePartLabel</title>
<polygon fill="#ffffff" stroke="transparent" points="-4,4 -4,-84 322,-84 322,4 -4,4"/>
<!-- Node5577 -->
<g id="node1" class="node">
<title>Node5577</title>
<g id="a_node1"><a xlink:title=" ">
<polygon fill="#bfbfbf" stroke="#000000" points="0,-30 0,-49 135,-49 135,-30 0,-30"/>
<text text-anchor="middle" x="67.5" y="-37" font-family="Helvetica,sans-Serif" font-size="10.00" fill="#000000">ItemBase::hidePartLabel</text>
</a>
</g>
</g>
<!-- Node5578 -->
<g id="node2" class="node">
<title>Node5578</title>
<g id="a_node2"><a xlink:href="../../d8/d86/classInfoGraphicsView.html#a606fdf5fe1049e99851ba1050a9516e6" target="_top" xlink:title=" ">
<polygon fill="#ffffff" stroke="#000000" points="173.5,-49.5 173.5,-79.5 315.5,-79.5 315.5,-49.5 173.5,-49.5"/>
<text text-anchor="start" x="181.5" y="-67.5" font-family="Helvetica,sans-Serif" font-size="10.00" fill="#000000">InfoGraphicsView::getInfo</text>
<text text-anchor="middle" x="244.5" y="-56.5" font-family="Helvetica,sans-Serif" font-size="10.00" fill="#000000">GraphicsView</text>
</a>
</g>
</g>
<!-- Node5577&#45;&gt;Node5578 -->
<g id="edge1" class="edge">
<title>Node5577&#45;&gt;Node5578</title>
<path fill="none" stroke="#191970" d="M134.921,-49.0227C144.2746,-50.3439 153.9618,-51.7121 163.5306,-53.0636"/>
<polygon fill="#191970" stroke="#191970" points="163.0494,-56.5303 173.4406,-54.4634 164.0284,-49.5991 163.0494,-56.5303"/>
</g>
<!-- Node5579 -->
<g id="node3" class="node">
<title>Node5579</title>
<g id="a_node3"><a xlink:href="../../d8/d86/classInfoGraphicsView.html#a89195b579301b219d97df8c67471c548" target="_top" xlink:title=" ">
<polygon fill="#ffffff" stroke="#000000" points="171,-.5 171,-30.5 318,-30.5 318,-.5 171,-.5"/>
<text text-anchor="start" x="179" y="-18.5" font-family="Helvetica,sans-Serif" font-size="10.00" fill="#000000">InfoGraphicsView::hidePart</text>
<text text-anchor="middle" x="244.5" y="-7.5" font-family="Helvetica,sans-Serif" font-size="10.00" fill="#000000">Label</text>
</a>
</g>
</g>
<!-- Node5577&#45;&gt;Node5579 -->
<g id="edge2" class="edge">
<title>Node5577&#45;&gt;Node5579</title>
<path fill="none" stroke="#191970" d="M135.1737,-30.3239C143.5912,-29.1826 152.2751,-28.0051 160.8968,-26.836"/>
<polygon fill="#191970" stroke="#191970" points="161.5307,-30.2822 170.9698,-25.4702 160.5901,-23.3457 161.5307,-30.2822"/>
</g>
</g>
</svg>
