<?xml version="1.0" encoding="UTF-8" standalone="no"?>
<!DOCTYPE svg PUBLIC "-//W3C//DTD SVG 1.1//EN"
 "http://www.w3.org/Graphics/SVG/1.1/DTD/svg11.dtd">
<!-- Generated by graphviz version 2.40.1 (0)
 -->
<!-- Title: ItemBase::hoverLeaveEvent Pages: 1 -->
<svg width="589pt" height="116pt"
 viewBox="0.00 0.00 589.00 115.50" xmlns="http://www.w3.org/2000/svg" xmlns:xlink="http://www.w3.org/1999/xlink">
<g id="graph0" class="graph" transform="scale(1 1) rotate(0) translate(4 111.5)">
<title>ItemBase::hoverLeaveEvent</title>
<polygon fill="#ffffff" stroke="transparent" points="-4,4 -4,-111.5 585,-111.5 585,4 -4,4"/>
<!-- Node5621 -->
<g id="node1" class="node">
<title>Node5621</title>
<g id="a_node1"><a xlink:title=" ">
<polygon fill="#bfbfbf" stroke="#000000" points="0,-38.5 0,-57.5 154,-57.5 154,-38.5 0,-38.5"/>
<text text-anchor="middle" x="77" y="-45.5" font-family="Helvetica,sans-Serif" font-size="10.00" fill="#000000">ItemBase::hoverLeaveEvent</text>
</a>
</g>
</g>
<!-- Node5622 -->
<g id="node2" class="node">
<title>Node5622</title>
<g id="a_node2"><a xlink:href="../../d8/d86/classInfoGraphicsView.html#a606fdf5fe1049e99851ba1050a9516e6" target="_top" xlink:title=" ">
<polygon fill="#ffffff" stroke="#000000" points="212.5,-77 212.5,-107 354.5,-107 354.5,-77 212.5,-77"/>
<text text-anchor="start" x="220.5" y="-95" font-family="Helvetica,sans-Serif" font-size="10.00" fill="#000000">InfoGraphicsView::getInfo</text>
<text text-anchor="middle" x="283.5" y="-84" font-family="Helvetica,sans-Serif" font-size="10.00" fill="#000000">GraphicsView</text>
</a>
</g>
</g>
<!-- Node5621&#45;&gt;Node5622 -->
<g id="edge1" class="edge">
<title>Node5621&#45;&gt;Node5622</title>
<path fill="none" stroke="#191970" d="M121.8074,-57.5473C145.4721,-62.5897 175.244,-68.9334 202.771,-74.7987"/>
<polygon fill="#191970" stroke="#191970" points="202.2856,-78.2737 212.7955,-76.9346 203.7445,-71.4274 202.2856,-78.2737"/>
</g>
<!-- Node5623 -->
<g id="node3" class="node">
<title>Node5623</title>
<g id="a_node3"><a xlink:href="../../d8/d86/classInfoGraphicsView.html#a1dd92a9bf4edda18449f602dacba5105" target="_top" xlink:title=" ">
<polygon fill="#ffffff" stroke="#000000" points="190,-38.5 190,-57.5 377,-57.5 377,-38.5 190,-38.5"/>
<text text-anchor="middle" x="283.5" y="-45.5" font-family="Helvetica,sans-Serif" font-size="10.00" fill="#000000">InfoGraphicsView::hoverLeaveItem</text>
</a>
</g>
</g>
<!-- Node5621&#45;&gt;Node5623 -->
<g id="edge2" class="edge">
<title>Node5621&#45;&gt;Node5623</title>
<path fill="none" stroke="#191970" d="M154.1866,-48C162.5028,-48 171.0603,-48 179.6236,-48"/>
<polygon fill="#191970" stroke="#191970" points="179.6646,-51.5001 189.6646,-48 179.6646,-44.5001 179.6646,-51.5001"/>
</g>
<!-- Node5626 -->
<g id="node6" class="node">
<title>Node5626</title>
<g id="a_node6"><a xlink:href="../../d4/d4f/classItemBase.html#a0dc00dd5fae3c515c72daa4216f8eef4" target="_top" xlink:title=" ">
<polygon fill="#ffffff" stroke="#000000" points="217.5,-.5 217.5,-19.5 349.5,-19.5 349.5,-.5 217.5,-.5"/>
<text text-anchor="middle" x="283.5" y="-7.5" font-family="Helvetica,sans-Serif" font-size="10.00" fill="#000000">ItemBase::hoverUpdate</text>
</a>
</g>
</g>
<!-- Node5621&#45;&gt;Node5626 -->
<g id="edge5" class="edge">
<title>Node5621&#45;&gt;Node5626</title>
<path fill="none" stroke="#191970" d="M128.8421,-38.46C156.9491,-33.2878 191.8799,-26.8599 221.4291,-21.4222"/>
<polygon fill="#191970" stroke="#191970" points="222.4351,-24.796 231.6365,-19.5439 221.1682,-17.9116 222.4351,-24.796"/>
</g>
<!-- Node5624 -->
<g id="node4" class="node">
<title>Node5624</title>
<g id="a_node4"><a xlink:href="../../db/d71/classHtmlInfoView.html#a13ad74fbef803eed7d55de1cfe3cebe4" target="_top" xlink:title=" ">
<polygon fill="#ffffff" stroke="#000000" points="413,-57.5 413,-76.5 581,-76.5 581,-57.5 413,-57.5"/>
<text text-anchor="middle" x="497" y="-64.5" font-family="Helvetica,sans-Serif" font-size="10.00" fill="#000000">HtmlInfoView::hoverLeaveItem</text>
</a>
</g>
</g>
<!-- Node5623&#45;&gt;Node5624 -->
<g id="edge3" class="edge">
<title>Node5623&#45;&gt;Node5624</title>
<path fill="none" stroke="#191970" d="M377.1442,-56.3337C385.6803,-57.0933 394.3299,-57.8631 402.8702,-58.6231"/>
<polygon fill="#191970" stroke="#191970" points="402.5613,-62.1094 412.8323,-59.5097 403.1819,-55.1369 402.5613,-62.1094"/>
</g>
<!-- Node5625 -->
<g id="node5" class="node">
<title>Node5625</title>
<g id="a_node5"><a xlink:href="../../d4/d4f/classItemBase.html#abf6d16e250a353043cd4953ddc049bd0" target="_top" xlink:title=" ">
<polygon fill="#ffffff" stroke="#000000" points="429.5,-19.5 429.5,-38.5 564.5,-38.5 564.5,-19.5 429.5,-19.5"/>
<text text-anchor="middle" x="497" y="-26.5" font-family="Helvetica,sans-Serif" font-size="10.00" fill="#000000">ItemBase::layerKinChief</text>
</a>
</g>
</g>
<!-- Node5623&#45;&gt;Node5625 -->
<g id="edge4" class="edge">
<title>Node5623&#45;&gt;Node5625</title>
<path fill="none" stroke="#191970" d="M377.1442,-39.6663C391.1615,-38.4189 405.4849,-37.1442 419.1279,-35.9301"/>
<polygon fill="#191970" stroke="#191970" points="419.7614,-39.3876 429.4118,-35.0149 419.1408,-32.4152 419.7614,-39.3876"/>
</g>
</g>
</svg>
