<?xml version="1.0" encoding="UTF-8" standalone="no"?>
<!DOCTYPE svg PUBLIC "-//W3C//DTD SVG 1.1//EN"
 "http://www.w3.org/Graphics/SVG/1.1/DTD/svg11.dtd">
<!-- Generated by graphviz version 2.40.1 (0)
 -->
<!-- Title: ItemBase::rotateFlipPartLabel Pages: 1 -->
<svg width="321pt" height="88pt"
 viewBox="0.00 0.00 321.00 88.00" xmlns="http://www.w3.org/2000/svg" xmlns:xlink="http://www.w3.org/1999/xlink">
<g id="graph0" class="graph" transform="scale(1 1) rotate(0) translate(4 84)">
<title>ItemBase::rotateFlipPartLabel</title>
<polygon fill="#ffffff" stroke="transparent" points="-4,4 -4,-84 317,-84 317,4 -4,4"/>
<!-- Node11614 -->
<g id="node1" class="node">
<title>Node11614</title>
<g id="a_node1"><a xlink:title=" ">
<polygon fill="#bfbfbf" stroke="#000000" points="0,-24.5 0,-54.5 135,-54.5 135,-24.5 0,-24.5"/>
<text text-anchor="start" x="8" y="-42.5" font-family="Helvetica,sans-Serif" font-size="10.00" fill="#000000">ItemBase::rotateFlipPart</text>
<text text-anchor="middle" x="67.5" y="-31.5" font-family="Helvetica,sans-Serif" font-size="10.00" fill="#000000">Label</text>
</a>
</g>
</g>
<!-- Node11615 -->
<g id="node2" class="node">
<title>Node11615</title>
<g id="a_node2"><a xlink:href="../../d8/d86/classInfoGraphicsView.html#a606fdf5fe1049e99851ba1050a9516e6" target="_top" xlink:title=" ">
<polygon fill="#ffffff" stroke="#000000" points="171,-49.5 171,-79.5 313,-79.5 313,-49.5 171,-49.5"/>
<text text-anchor="start" x="179" y="-67.5" font-family="Helvetica,sans-Serif" font-size="10.00" fill="#000000">InfoGraphicsView::getInfo</text>
<text text-anchor="middle" x="242" y="-56.5" font-family="Helvetica,sans-Serif" font-size="10.00" fill="#000000">GraphicsView</text>
</a>
</g>
</g>
<!-- Node11614&#45;&gt;Node11615 -->
<g id="edge1" class="edge">
<title>Node11614&#45;&gt;Node11615</title>
<path fill="none" stroke="#191970" d="M135.4659,-49.2372C143.7885,-50.4296 152.3576,-51.6572 160.8492,-52.8738"/>
<polygon fill="#191970" stroke="#191970" points="160.3673,-56.3404 170.7627,-54.2941 161.3601,-49.4112 160.3673,-56.3404"/>
</g>
<!-- Node11616 -->
<g id="node3" class="node">
<title>Node11616</title>
<g id="a_node3"><a xlink:href="../../d8/d86/classInfoGraphicsView.html#a5c077c6587c2c7cf3997fb2695affedb" target="_top" xlink:title=" ">
<polygon fill="#ffffff" stroke="#000000" points="173.5,-.5 173.5,-30.5 310.5,-30.5 310.5,-.5 173.5,-.5"/>
<text text-anchor="start" x="181.5" y="-18.5" font-family="Helvetica,sans-Serif" font-size="10.00" fill="#000000">InfoGraphicsView::rotate</text>
<text text-anchor="middle" x="242" y="-7.5" font-family="Helvetica,sans-Serif" font-size="10.00" fill="#000000">FlipPartLabel</text>
</a>
</g>
</g>
<!-- Node11614&#45;&gt;Node11616 -->
<g id="edge2" class="edge">
<title>Node11614&#45;&gt;Node11616</title>
<path fill="none" stroke="#191970" d="M135.4659,-30.1523C144.602,-28.8957 154.0349,-27.5983 163.3365,-26.319"/>
<polygon fill="#191970" stroke="#191970" points="163.928,-29.7707 173.3578,-24.9408 162.9741,-22.836 163.928,-29.7707"/>
</g>
</g>
</svg>
