<?xml version="1.0" encoding="UTF-8" standalone="no"?>
<!DOCTYPE svg PUBLIC "-//W3C//DTD SVG 1.1//EN"
 "http://www.w3.org/Graphics/SVG/1.1/DTD/svg11.dtd">
<!-- Generated by graphviz version 2.40.1 (0)
 -->
<!-- Title: ItemBase::getConnectedColor Pages: 1 -->
<svg width="346pt" height="78pt"
 viewBox="0.00 0.00 346.00 77.50" xmlns="http://www.w3.org/2000/svg" xmlns:xlink="http://www.w3.org/1999/xlink">
<g id="graph0" class="graph" transform="scale(1 1) rotate(0) translate(4 73.5)">
<title>ItemBase::getConnectedColor</title>
<polygon fill="#ffffff" stroke="transparent" points="-4,4 -4,-73.5 342,-73.5 342,4 -4,4"/>
<!-- Node3976 -->
<g id="node1" class="node">
<title>Node3976</title>
<g id="a_node1"><a xlink:title=" ">
<polygon fill="#bfbfbf" stroke="#000000" points="176,-22.5 176,-41.5 338,-41.5 338,-22.5 176,-22.5"/>
<text text-anchor="middle" x="257" y="-29.5" font-family="Helvetica,sans-Serif" font-size="10.00" fill="#000000">ItemBase::getConnectedColor</text>
</a>
</g>
</g>
<!-- Node3977 -->
<g id="node2" class="node">
<title>Node3977</title>
<g id="a_node2"><a xlink:href="../../d3/dee/classStripboard.html#a42f11e4f0b2bedf08b57bef5d9ff3853" target="_top" xlink:title=" ">
<polygon fill="#ffffff" stroke="#000000" points="0,-39 0,-69 140,-69 140,-39 0,-39"/>
<text text-anchor="start" x="8" y="-57" font-family="Helvetica,sans-Serif" font-size="10.00" fill="#000000">Stripboard::getConnected</text>
<text text-anchor="middle" x="70" y="-46" font-family="Helvetica,sans-Serif" font-size="10.00" fill="#000000">Color</text>
</a>
</g>
</g>
<!-- Node3976&#45;&gt;Node3977 -->
<g id="edge1" class="edge">
<title>Node3976&#45;&gt;Node3977</title>
<path fill="none" stroke="#191970" d="M165.9408,-42.7128C157.289,-43.7307 148.6092,-44.7519 140.1982,-45.7414"/>
<polygon fill="#191970" stroke="#191970" points="166.5442,-46.1661 176.0667,-41.5216 165.7262,-39.214 166.5442,-46.1661"/>
</g>
<!-- Node3978 -->
<g id="node3" class="node">
<title>Node3978</title>
<g id="a_node3"><a xlink:href="../../d7/d64/classWire.html#a8d70d1211dbf8ebe32a0b1d4932b251e" target="_top" xlink:title=" ">
<polygon fill="#ffffff" stroke="#000000" points="1,-.5 1,-19.5 139,-19.5 139,-.5 1,-.5"/>
<text text-anchor="middle" x="70" y="-7.5" font-family="Helvetica,sans-Serif" font-size="10.00" fill="#000000">Wire::getConnectedColor</text>
</a>
</g>
</g>
<!-- Node3976&#45;&gt;Node3978 -->
<g id="edge2" class="edge">
<title>Node3976&#45;&gt;Node3978</title>
<path fill="none" stroke="#191970" d="M165.8965,-21.2819C156.8614,-20.219 147.7965,-19.1525 139.0394,-18.1223"/>
<polygon fill="#191970" stroke="#191970" points="165.7262,-24.786 176.0667,-22.4784 166.5442,-17.8339 165.7262,-24.786"/>
</g>
</g>
</svg>
