<?xml version="1.0" encoding="UTF-8" standalone="no"?>
<!DOCTYPE svg PUBLIC "-//W3C//DTD SVG 1.1//EN"
 "http://www.w3.org/Graphics/SVG/1.1/DTD/svg11.dtd">
<!-- Generated by graphviz version 2.40.1 (0)
 -->
<!-- Title: ItemBase::setSquashShape Pages: 1 -->
<svg width="991pt" height="290pt"
 viewBox="0.00 0.00 991.00 290.28" xmlns="http://www.w3.org/2000/svg" xmlns:xlink="http://www.w3.org/1999/xlink">
<g id="graph0" class="graph" transform="scale(1 1) rotate(0) translate(4 286.281)">
<title>ItemBase::setSquashShape</title>
<polygon fill="#ffffff" stroke="transparent" points="-4,4 -4,-286.281 987,-286.281 987,4 -4,4"/>
<!-- Node13786 -->
<g id="node1" class="node">
<title>Node13786</title>
<g id="a_node1"><a xlink:title=" ">
<polygon fill="#bfbfbf" stroke="#000000" points="834,-90.5 834,-109.5 983,-109.5 983,-90.5 834,-90.5"/>
<text text-anchor="middle" x="908.5" y="-97.5" font-family="Helvetica,sans-Serif" font-size="10.00" fill="#000000">ItemBase::setSquashShape</text>
</a>
</g>
</g>
<!-- Node13787 -->
<g id="node2" class="node">
<title>Node13787</title>
<g id="a_node2"><a xlink:href="../../d8/d37/classSketchWidget.html#afe422b82037595e5df7de5949df2b469" target="_top" xlink:title=" ">
<polygon fill="#ffffff" stroke="#000000" points="419.5,-68.5 419.5,-87.5 578.5,-87.5 578.5,-68.5 419.5,-68.5"/>
<text text-anchor="middle" x="499" y="-75.5" font-family="Helvetica,sans-Serif" font-size="10.00" fill="#000000">SketchWidget::squashShapes</text>
</a>
</g>
</g>
<!-- Node13786&#45;&gt;Node13787 -->
<g id="edge1" class="edge">
<title>Node13786&#45;&gt;Node13787</title>
<path fill="none" stroke="#191970" d="M823.478,-95.4323C751.5132,-91.566 649.128,-86.0655 578.7139,-82.2826"/>
<polygon fill="#191970" stroke="#191970" points="823.6942,-98.9488 833.8675,-95.9904 824.0697,-91.9589 823.6942,-98.9488"/>
</g>
<!-- Node13794 -->
<g id="node9" class="node">
<title>Node13794</title>
<g id="a_node9"><a xlink:href="../../d8/d37/classSketchWidget.html#ac1e809fcf1c3e12730dbd2021f452ff2" target="_top" xlink:title=" ">
<polygon fill="#ffffff" stroke="#000000" points="627,-112.5 627,-131.5 798,-131.5 798,-112.5 627,-112.5"/>
<text text-anchor="middle" x="712.5" y="-119.5" font-family="Helvetica,sans-Serif" font-size="10.00" fill="#000000">SketchWidget::unsquashShapes</text>
</a>
</g>
</g>
<!-- Node13786&#45;&gt;Node13794 -->
<g id="edge8" class="edge">
<title>Node13786&#45;&gt;Node13794</title>
<path fill="none" stroke="#191970" d="M823.7022,-109.5181C814.995,-110.4955 806.1462,-111.4887 797.4375,-112.4662"/>
<polygon fill="#191970" stroke="#191970" points="824.2945,-112.9737 833.8417,-108.38 823.5136,-106.0174 824.2945,-112.9737"/>
</g>
<!-- Node13788 -->
<g id="node3" class="node">
<title>Node13788</title>
<g id="a_node3"><a xlink:href="../../d8/d37/classSketchWidget.html#a19e4694aab6edaeb9c3108d827757d1b" target="_top" xlink:title=" ">
<polygon fill="#ffffff" stroke="#000000" points="208,-47 208,-77 357,-77 357,-47 208,-47"/>
<text text-anchor="start" x="216" y="-65" font-family="Helvetica,sans-Serif" font-size="10.00" fill="#000000">SketchWidget::mousePress</text>
<text text-anchor="middle" x="282.5" y="-54" font-family="Helvetica,sans-Serif" font-size="10.00" fill="#000000">Event</text>
</a>
</g>
</g>
<!-- Node13787&#45;&gt;Node13788 -->
<g id="edge2" class="edge">
<title>Node13787&#45;&gt;Node13788</title>
<path fill="none" stroke="#191970" d="M409.234,-71.366C391.9778,-70.0907 374.0759,-68.7677 357.3528,-67.5318"/>
<polygon fill="#191970" stroke="#191970" points="409.0749,-74.8637 419.3057,-72.1104 409.5909,-67.8828 409.0749,-74.8637"/>
</g>
<!-- Node13790 -->
<g id="node5" class="node">
<title>Node13790</title>
<g id="a_node5"><a xlink:href="../../d8/d37/classSketchWidget.html#a4890b9b77b688bb9238082de4223d7bd" target="_top" xlink:title=" ">
<polygon fill="#ffffff" stroke="#000000" points="194,-232.5 194,-251.5 371,-251.5 371,-232.5 194,-232.5"/>
<text text-anchor="middle" x="282.5" y="-239.5" font-family="Helvetica,sans-Serif" font-size="10.00" fill="#000000">SketchWidget::mouseMoveEvent</text>
</a>
</g>
</g>
<!-- Node13787&#45;&gt;Node13790 -->
<g id="edge4" class="edge">
<title>Node13787&#45;&gt;Node13790</title>
<path fill="none" stroke="#191970" d="M413.3678,-92.9414C411.134,-94.4816 409.0031,-96.1637 407,-98 367.2083,-134.4773 409.0654,-175.7247 371,-214 362.5908,-222.4556 351.6483,-228.3624 340.3398,-232.4874"/>
<polygon fill="#191970" stroke="#191970" points="415.5467,-95.7237 422.44,-87.678 412.0339,-89.6689 415.5467,-95.7237"/>
</g>
<!-- Node13791 -->
<g id="node6" class="node">
<title>Node13791</title>
<g id="a_node6"><a xlink:href="../../d8/d37/classSketchWidget.html#a5823673c9766bec1b4051911afbe4d38" target="_top" xlink:title=" ">
<polygon fill="#ffffff" stroke="#000000" points="206,-174 206,-204 359,-204 359,-174 206,-174"/>
<text text-anchor="start" x="214" y="-192" font-family="Helvetica,sans-Serif" font-size="10.00" fill="#000000">SketchWidget::contextMenu</text>
<text text-anchor="middle" x="282.5" y="-181" font-family="Helvetica,sans-Serif" font-size="10.00" fill="#000000">Event</text>
</a>
</g>
</g>
<!-- Node13787&#45;&gt;Node13791 -->
<g id="edge5" class="edge">
<title>Node13787&#45;&gt;Node13791</title>
<path fill="none" stroke="#191970" d="M419.376,-91.3844C415.0573,-93.3061 410.8966,-95.4987 407,-98 384.5591,-112.4054 391.5701,-129.03 371,-146 357.0325,-157.5229 339.4588,-166.8757 323.6598,-173.8798"/>
<polygon fill="#191970" stroke="#191970" points="421.0086,-94.5038 429.0417,-87.5958 418.4541,-87.9866 421.0086,-94.5038"/>
</g>
<!-- Node13792 -->
<g id="node7" class="node">
<title>Node13792</title>
<g id="a_node7"><a xlink:href="../../d8/d37/classSketchWidget.html#a2e0c67f6a62fc2621e7125c5a323fee1" target="_top" xlink:title=" ">
<polygon fill="#ffffff" stroke="#000000" points="204,-106 204,-136 361,-136 361,-106 204,-106"/>
<text text-anchor="start" x="212" y="-124" font-family="Helvetica,sans-Serif" font-size="10.00" fill="#000000">SketchWidget::mouseDouble</text>
<text text-anchor="middle" x="282.5" y="-113" font-family="Helvetica,sans-Serif" font-size="10.00" fill="#000000">ClickEvent</text>
</a>
</g>
</g>
<!-- Node13787&#45;&gt;Node13792 -->
<g id="edge6" class="edge">
<title>Node13787&#45;&gt;Node13792</title>
<path fill="none" stroke="#191970" d="M441.0704,-89.5056C415.5758,-94.5692 385.2916,-100.5841 358.055,-105.9937"/>
<polygon fill="#191970" stroke="#191970" points="441.8251,-92.9242 450.9516,-87.5431 440.4614,-86.0583 441.8251,-92.9242"/>
</g>
<!-- Node13793 -->
<g id="node8" class="node">
<title>Node13793</title>
<g id="a_node8"><a xlink:href="../../d8/d37/classSketchWidget.html#a365ab308c56d4342d93712a28000060e" target="_top" xlink:title=" ">
<polygon fill="#ffffff" stroke="#000000" points="202.5,-.5 202.5,-19.5 362.5,-19.5 362.5,-.5 202.5,-.5"/>
<text text-anchor="middle" x="282.5" y="-7.5" font-family="Helvetica,sans-Serif" font-size="10.00" fill="#000000">SketchWidget::viewportEvent</text>
</a>
</g>
</g>
<!-- Node13787&#45;&gt;Node13793 -->
<g id="edge7" class="edge">
<title>Node13787&#45;&gt;Node13793</title>
<path fill="none" stroke="#191970" d="M459.9362,-65.3325C434.6089,-57.1577 400.885,-46.3445 371,-37 352.142,-31.1034 330.9751,-24.6402 314.0714,-19.5159"/>
<polygon fill="#191970" stroke="#191970" points="458.958,-68.6945 469.5498,-68.4388 461.1103,-62.0336 458.958,-68.6945"/>
</g>
<!-- Node13789 -->
<g id="node4" class="node">
<title>Node13789</title>
<g id="a_node4"><a xlink:href="../../d8/d37/classPartsEditorView.html#a55fa6bfc6aaa8305f6078f83b392b926" target="_top" xlink:title=" ">
<polygon fill="#ffffff" stroke="#000000" points="0,-47 0,-77 158,-77 158,-47 0,-47"/>
<text text-anchor="start" x="8" y="-65" font-family="Helvetica,sans-Serif" font-size="10.00" fill="#000000">PartsEditorView::mousePress</text>
<text text-anchor="middle" x="79" y="-54" font-family="Helvetica,sans-Serif" font-size="10.00" fill="#000000">Event</text>
</a>
</g>
</g>
<!-- Node13788&#45;&gt;Node13789 -->
<g id="edge3" class="edge">
<title>Node13788&#45;&gt;Node13789</title>
<path fill="none" stroke="#191970" d="M197.4993,-62C184.4332,-62 170.9883,-62 158.0585,-62"/>
<polygon fill="#191970" stroke="#191970" points="197.8797,-65.5001 207.8796,-62 197.8796,-58.5001 197.8797,-65.5001"/>
</g>
<!-- Node13794&#45;&gt;Node13787 -->
<g id="edge14" class="edge">
<title>Node13794&#45;&gt;Node13787</title>
<path fill="none" stroke="#191970" d="M656.2135,-110.4C621.6065,-103.2678 577.8089,-94.2416 545.2359,-87.5287"/>
<polygon fill="#191970" stroke="#191970" points="655.673,-113.8621 666.1737,-112.4527 657.086,-107.0061 655.673,-113.8621"/>
</g>
<!-- Node13794&#45;&gt;Node13788 -->
<g id="edge9" class="edge">
<title>Node13794&#45;&gt;Node13788</title>
<path fill="none" stroke="#191970" d="M690.7012,-106.5696C667.3273,-91.0485 628.4977,-68.1436 591,-59 512.9447,-39.9667 420.4454,-44.268 357.2268,-51.0933"/>
<polygon fill="#191970" stroke="#191970" points="688.9144,-109.587 699.1532,-112.3108 692.8478,-103.7965 688.9144,-109.587"/>
</g>
<!-- Node13794&#45;&gt;Node13790 -->
<g id="edge12" class="edge">
<title>Node13794&#45;&gt;Node13790</title>
<path fill="none" stroke="#191970" d="M703.1116,-140.6396C685.9227,-172.4038 646.0376,-236.0088 591,-261 494.747,-304.7061 363.9464,-269.8944 308.768,-251.5269"/>
<polygon fill="#191970" stroke="#191970" points="706.3416,-142.0165 707.8854,-131.5347 700.142,-138.766 706.3416,-142.0165"/>
</g>
<!-- Node13794&#45;&gt;Node13791 -->
<g id="edge15" class="edge">
<title>Node13794&#45;&gt;Node13791</title>
<path fill="none" stroke="#191970" d="M680.7698,-135.4415C656.6114,-145.0634 622.2923,-157.4336 591,-164 513.0365,-180.36 421.9124,-186.1558 359.0161,-188.1363"/>
<polygon fill="#191970" stroke="#191970" points="682.1888,-138.643 690.1422,-131.6434 679.5597,-132.1555 682.1888,-138.643"/>
</g>
<!-- Node13794&#45;&gt;Node13792 -->
<g id="edge16" class="edge">
<title>Node13794&#45;&gt;Node13792</title>
<path fill="none" stroke="#191970" d="M666.1493,-133.8408C643.633,-139 616.0822,-144.4463 591,-147 509.6428,-155.2833 488.3449,-155.4032 407,-147 385.5851,-144.7878 362.4231,-140.4892 341.9512,-136.0145"/>
<polygon fill="#191970" stroke="#191970" points="667.1778,-137.1946 676.1134,-131.502 665.5781,-130.3798 667.1778,-137.1946"/>
</g>
<!-- Node13794&#45;&gt;Node13793 -->
<g id="edge17" class="edge">
<title>Node13794&#45;&gt;Node13793</title>
<path fill="none" stroke="#191970" d="M694.0137,-105.6544C671.4451,-86.7464 631.2848,-56.3782 591,-42 516.7053,-15.4832 426.4132,-8.8361 362.7638,-8.0011"/>
<polygon fill="#191970" stroke="#191970" points="691.8906,-108.444 701.7656,-112.2827 696.4397,-103.1237 691.8906,-108.444"/>
</g>
<!-- Node13795 -->
<g id="node10" class="node">
<title>Node13795</title>
<g id="a_node10"><a xlink:href="../../d8/d37/classSketchWidget.html#a48c37dfd68235697e44abb138e5bc814" target="_top" xlink:title=" ">
<polygon fill="#ffffff" stroke="#000000" points="407,-232.5 407,-251.5 591,-251.5 591,-232.5 407,-232.5"/>
<text text-anchor="middle" x="499" y="-239.5" font-family="Helvetica,sans-Serif" font-size="10.00" fill="#000000">SketchWidget::prepDragBendpoint</text>
</a>
</g>
</g>
<!-- Node13794&#45;&gt;Node13795 -->
<g id="edge10" class="edge">
<title>Node13794&#45;&gt;Node13795</title>
<path fill="none" stroke="#191970" d="M695.8525,-138.9436C673.801,-160.4337 632.7957,-197.1915 591,-218 578.5876,-224.1797 564.4155,-228.8879 550.975,-232.425"/>
<polygon fill="#191970" stroke="#191970" points="698.4468,-141.3002 703.0855,-131.7748 693.5191,-136.3284 698.4468,-141.3002"/>
</g>
<!-- Node13796 -->
<g id="node11" class="node">
<title>Node13796</title>
<g id="a_node11"><a xlink:href="../../d8/d37/classSketchWidget.html#a6d22726e97e4d0aa640678da8c95930c" target="_top" xlink:title=" ">
<polygon fill="#ffffff" stroke="#000000" points="424.5,-107 424.5,-137 573.5,-137 573.5,-107 424.5,-107"/>
<text text-anchor="start" x="432.5" y="-125" font-family="Helvetica,sans-Serif" font-size="10.00" fill="#000000">SketchWidget::mousePress</text>
<text text-anchor="middle" x="499" y="-114" font-family="Helvetica,sans-Serif" font-size="10.00" fill="#000000">ConnectorEvent</text>
</a>
</g>
</g>
<!-- Node13794&#45;&gt;Node13796 -->
<g id="edge13" class="edge">
<title>Node13794&#45;&gt;Node13796</title>
<path fill="none" stroke="#191970" d="M616.4828,-122C602.1035,-122 587.4619,-122 573.6157,-122"/>
<polygon fill="#191970" stroke="#191970" points="616.8916,-125.5001 626.8916,-122 616.8915,-118.5001 616.8916,-125.5001"/>
</g>
<!-- Node13795&#45;&gt;Node13790 -->
<g id="edge11" class="edge">
<title>Node13795&#45;&gt;Node13790</title>
<path fill="none" stroke="#191970" d="M396.819,-242C388.2254,-242 379.5807,-242 371.1023,-242"/>
<polygon fill="#191970" stroke="#191970" points="396.8706,-245.5001 406.8706,-242 396.8705,-238.5001 396.8706,-245.5001"/>
</g>
</g>
</svg>
