<?xml version="1.0" encoding="UTF-8" standalone="no"?>
<!DOCTYPE svg PUBLIC "-//W3C//DTD SVG 1.1//EN"
 "http://www.w3.org/Graphics/SVG/1.1/DTD/svg11.dtd">
<!-- Generated by graphviz version 2.40.1 (0)
 -->
<!-- Title: ItemBase::isObsolete Pages: 1 -->
<svg width="1107pt" height="115pt"
 viewBox="0.00 0.00 1107.00 115.00" xmlns="http://www.w3.org/2000/svg" xmlns:xlink="http://www.w3.org/1999/xlink">
<g id="graph0" class="graph" transform="scale(1 1) rotate(0) translate(4 111)">
<title>ItemBase::isObsolete</title>
<polygon fill="#ffffff" stroke="transparent" points="-4,4 -4,-111 1103,-111 1103,4 -4,4"/>
<!-- Node7450 -->
<g id="node1" class="node">
<title>Node7450</title>
<g id="a_node1"><a xlink:title=" ">
<polygon fill="#bfbfbf" stroke="#000000" points="978,-44 978,-63 1099,-63 1099,-44 978,-44"/>
<text text-anchor="middle" x="1038.5" y="-51" font-family="Helvetica,sans-Serif" font-size="10.00" fill="#000000">ItemBase::isObsolete</text>
</a>
</g>
</g>
<!-- Node7451 -->
<g id="node2" class="node">
<title>Node7451</title>
<g id="a_node2"><a xlink:href="../../d6/d1a/classMainWindow.html#a0fcde07a92cc04cc127bc9eeb779b749" target="_top" xlink:title=" ">
<polygon fill="#ffffff" stroke="#000000" points="777.5,-82 777.5,-101 931.5,-101 931.5,-82 777.5,-82"/>
<text text-anchor="middle" x="854.5" y="-89" font-family="Helvetica,sans-Serif" font-size="10.00" fill="#000000">MainWindow::swapObsolete</text>
</a>
</g>
</g>
<!-- Node7450&#45;&gt;Node7451 -->
<g id="edge1" class="edge">
<title>Node7450&#45;&gt;Node7451</title>
<path fill="none" stroke="#191970" d="M981.9394,-65.181C955.8458,-70.5699 925.2622,-76.8861 900.5971,-81.9799"/>
<polygon fill="#191970" stroke="#191970" points="982.9836,-68.5393 992.069,-63.089 981.5678,-61.684 982.9836,-68.5393"/>
</g>
<!-- Node7453 -->
<g id="node4" class="node">
<title>Node7453</title>
<g id="a_node4"><a xlink:href="../../d8/d37/classSketchWidget.html#a6b89ab2e5a40f46ed64cba9789668fa4" target="_top" xlink:title=" ">
<polygon fill="#ffffff" stroke="#000000" points="774.5,-44 774.5,-63 934.5,-63 934.5,-44 774.5,-44"/>
<text text-anchor="middle" x="854.5" y="-51" font-family="Helvetica,sans-Serif" font-size="10.00" fill="#000000">SketchWidget::calcItemCount</text>
</a>
</g>
</g>
<!-- Node7450&#45;&gt;Node7453 -->
<g id="edge3" class="edge">
<title>Node7450&#45;&gt;Node7453</title>
<path fill="none" stroke="#191970" d="M967.7821,-53.5C956.9738,-53.5 945.7509,-53.5 934.7555,-53.5"/>
<polygon fill="#191970" stroke="#191970" points="967.9967,-57.0001 977.9967,-53.5 967.9966,-50.0001 967.9967,-57.0001"/>
</g>
<!-- Node7454 -->
<g id="node5" class="node">
<title>Node7454</title>
<g id="a_node5"><a xlink:href="../../d8/d37/classSketchWidget.html#a9634b720940984d02da6597f742fab21" target="_top" xlink:title=" ">
<polygon fill="#ffffff" stroke="#000000" points="767,-6 767,-25 942,-25 942,-6 767,-6"/>
<text text-anchor="middle" x="854.5" y="-13" font-family="Helvetica,sans-Serif" font-size="10.00" fill="#000000">SketchWidget::selectAllObsolete</text>
</a>
</g>
</g>
<!-- Node7450&#45;&gt;Node7454 -->
<g id="edge4" class="edge">
<title>Node7450&#45;&gt;Node7454</title>
<path fill="none" stroke="#191970" d="M981.9394,-41.819C955.8458,-36.4301 925.2622,-30.1139 900.5971,-25.0201"/>
<polygon fill="#191970" stroke="#191970" points="981.5678,-45.316 992.069,-43.911 982.9836,-38.4607 981.5678,-45.316"/>
</g>
<!-- Node7452 -->
<g id="node3" class="node">
<title>Node7452</title>
<g id="a_node3"><a xlink:href="../../dc/dc7/classFApplication.html#a0455361ca72c560951029a37f55646c8" target="_top" xlink:title=" ">
<polygon fill="#ffffff" stroke="#000000" points="591,-76.5 591,-106.5 731,-106.5 731,-76.5 591,-76.5"/>
<text text-anchor="start" x="599" y="-94.5" font-family="Helvetica,sans-Serif" font-size="10.00" fill="#000000">FApplication::runExample</text>
<text text-anchor="middle" x="661" y="-83.5" font-family="Helvetica,sans-Serif" font-size="10.00" fill="#000000">Service</text>
</a>
</g>
</g>
<!-- Node7451&#45;&gt;Node7452 -->
<g id="edge2" class="edge">
<title>Node7451&#45;&gt;Node7452</title>
<path fill="none" stroke="#191970" d="M767.3574,-91.5C755.2445,-91.5 742.9287,-91.5 731.1796,-91.5"/>
<polygon fill="#191970" stroke="#191970" points="767.4677,-95.0001 777.4677,-91.5 767.4676,-88.0001 767.4677,-95.0001"/>
</g>
<!-- Node7455 -->
<g id="node6" class="node">
<title>Node7455</title>
<g id="a_node6"><a xlink:href="../../d1/dec/classPanelizer.html#a746666008f0498b0b2d533eb542538a2" target="_top" xlink:title=" ">
<polygon fill="#ffffff" stroke="#000000" points="594,-6 594,-25 728,-25 728,-6 594,-6"/>
<text text-anchor="middle" x="661" y="-13" font-family="Helvetica,sans-Serif" font-size="10.00" fill="#000000">Panelizer::inscribeBoard</text>
</a>
</g>
</g>
<!-- Node7454&#45;&gt;Node7455 -->
<g id="edge5" class="edge">
<title>Node7454&#45;&gt;Node7455</title>
<path fill="none" stroke="#191970" d="M756.7267,-15.5C747.0413,-15.5 737.3696,-15.5 728.0999,-15.5"/>
<polygon fill="#191970" stroke="#191970" points="756.8085,-19.0001 766.8085,-15.5 756.8085,-12.0001 756.8085,-19.0001"/>
</g>
<!-- Node7456 -->
<g id="node7" class="node">
<title>Node7456</title>
<g id="a_node7"><a xlink:href="../../d1/dec/classPanelizer.html#a17e70d92a6673b55cbe831bf41f51764" target="_top" xlink:title=" ">
<polygon fill="#ffffff" stroke="#000000" points="450,-6 450,-25 555,-25 555,-6 450,-6"/>
<text text-anchor="middle" x="502.5" y="-13" font-family="Helvetica,sans-Serif" font-size="10.00" fill="#000000">Panelizer::inscribe</text>
</a>
</g>
</g>
<!-- Node7455&#45;&gt;Node7456 -->
<g id="edge6" class="edge">
<title>Node7455&#45;&gt;Node7456</title>
<path fill="none" stroke="#191970" d="M583.4969,-15.5C573.9826,-15.5 564.4347,-15.5 555.4021,-15.5"/>
<polygon fill="#191970" stroke="#191970" points="583.7818,-19.0001 593.7817,-15.5 583.7817,-12.0001 583.7818,-19.0001"/>
</g>
<!-- Node7457 -->
<g id="node8" class="node">
<title>Node7457</title>
<g id="a_node8"><a xlink:href="../../dc/dc7/classFApplication.html#acf8b4e0eaaa72bb5ac8da5ac4350a8a4" target="_top" xlink:title=" ">
<polygon fill="#ffffff" stroke="#000000" points="265,-.5 265,-30.5 414,-30.5 414,-.5 265,-.5"/>
<text text-anchor="start" x="273" y="-18.5" font-family="Helvetica,sans-Serif" font-size="10.00" fill="#000000">FApplication::runInscription</text>
<text text-anchor="middle" x="339.5" y="-7.5" font-family="Helvetica,sans-Serif" font-size="10.00" fill="#000000">Service</text>
</a>
</g>
</g>
<!-- Node7456&#45;&gt;Node7457 -->
<g id="edge7" class="edge">
<title>Node7456&#45;&gt;Node7457</title>
<path fill="none" stroke="#191970" d="M439.5572,-15.5C431.2092,-15.5 422.5869,-15.5 414.0664,-15.5"/>
<polygon fill="#191970" stroke="#191970" points="439.5786,-19.0001 449.5786,-15.5 439.5785,-12.0001 439.5786,-19.0001"/>
</g>
<!-- Node7458 -->
<g id="node9" class="node">
<title>Node7458</title>
<g id="a_node9"><a xlink:href="../../dc/dc7/classFApplication.html#ac5e0b62634df1a581eee3c3a36980754" target="_top" xlink:title=" ">
<polygon fill="#ffffff" stroke="#000000" points="77,-6 77,-25 229,-25 229,-6 77,-6"/>
<text text-anchor="middle" x="153" y="-13" font-family="Helvetica,sans-Serif" font-size="10.00" fill="#000000">FApplication::serviceStartup</text>
</a>
</g>
</g>
<!-- Node7457&#45;&gt;Node7458 -->
<g id="edge8" class="edge">
<title>Node7457&#45;&gt;Node7458</title>
<path fill="none" stroke="#191970" d="M254.9749,-15.5C246.3928,-15.5 237.7113,-15.5 229.2245,-15.5"/>
<polygon fill="#191970" stroke="#191970" points="254.9863,-19.0001 264.9862,-15.5 254.9862,-12.0001 254.9863,-19.0001"/>
</g>
<!-- Node7459 -->
<g id="node10" class="node">
<title>Node7459</title>
<g id="a_node10"><a xlink:href="../../df/d0a/main_8cpp.html#a0ddf1224851353fc92bfbff6f499fa97" target="_top" xlink:title=" ">
<polygon fill="#ffffff" stroke="#000000" points="0,-6 0,-25 41,-25 41,-6 0,-6"/>
<text text-anchor="middle" x="20.5" y="-13" font-family="Helvetica,sans-Serif" font-size="10.00" fill="#000000">main</text>
</a>
</g>
</g>
<!-- Node7458&#45;&gt;Node7459 -->
<g id="edge9" class="edge">
<title>Node7458&#45;&gt;Node7459</title>
<path fill="none" stroke="#191970" d="M66.6912,-15.5C57.2673,-15.5 48.4413,-15.5 41.0804,-15.5"/>
<polygon fill="#191970" stroke="#191970" points="66.692,-19.0001 76.6919,-15.5 66.6919,-12.0001 66.692,-19.0001"/>
</g>
</g>
</svg>
