<?xml version="1.0" encoding="UTF-8" standalone="no"?>
<!DOCTYPE svg PUBLIC "-//W3C//DTD SVG 1.1//EN"
 "http://www.w3.org/Graphics/SVG/1.1/DTD/svg11.dtd">
<!-- Generated by graphviz version 2.40.1 (0)
 -->
<!-- Title: ItemBase::mouseReleaseEvent Pages: 1 -->
<svg width="782pt" height="137pt"
 viewBox="0.00 0.00 782.00 137.00" xmlns="http://www.w3.org/2000/svg" xmlns:xlink="http://www.w3.org/1999/xlink">
<g id="graph0" class="graph" transform="scale(1 1) rotate(0) translate(4 133)">
<title>ItemBase::mouseReleaseEvent</title>
<polygon fill="#ffffff" stroke="transparent" points="-4,4 -4,-133 778,-133 778,4 -4,4"/>
<!-- Node10084 -->
<g id="node1" class="node">
<title>Node10084</title>
<g id="a_node1"><a xlink:title=" ">
<polygon fill="#bfbfbf" stroke="#000000" points="605,-55 605,-74 774,-74 774,-55 605,-55"/>
<text text-anchor="middle" x="689.5" y="-62" font-family="Helvetica,sans-Serif" font-size="10.00" fill="#000000">ItemBase::mouseReleaseEvent</text>
</a>
</g>
</g>
<!-- Node10085 -->
<g id="node2" class="node">
<title>Node10085</title>
<g id="a_node2"><a xlink:href="../../dc/d2c/classNote.html#a861d0e88993209918d7aab40329e2f6e" target="_top" xlink:title=" ">
<polygon fill="#ffffff" stroke="#000000" points="408.5,-99 408.5,-118 554.5,-118 554.5,-99 408.5,-99"/>
<text text-anchor="middle" x="481.5" y="-106" font-family="Helvetica,sans-Serif" font-size="10.00" fill="#000000">Note::mouseReleaseEvent</text>
</a>
</g>
</g>
<!-- Node10084&#45;&gt;Node10085 -->
<g id="edge1" class="edge">
<title>Node10084&#45;&gt;Node10085</title>
<path fill="none" stroke="#191970" d="M634.2289,-76.192C600.5819,-83.3096 558.1425,-92.2872 526.5448,-98.9713"/>
<polygon fill="#191970" stroke="#191970" points="635.308,-79.5412 644.3671,-74.0473 633.8592,-72.6928 635.308,-79.5412"/>
</g>
<!-- Node10086 -->
<g id="node3" class="node">
<title>Node10086</title>
<g id="a_node3"><a xlink:href="../../d7/de7/classPaletteItemBase.html#ae78c0e4df9c0668731b1013602172721" target="_top" xlink:title=" ">
<polygon fill="#ffffff" stroke="#000000" points="394,-49.5 394,-79.5 569,-79.5 569,-49.5 394,-49.5"/>
<text text-anchor="start" x="402" y="-67.5" font-family="Helvetica,sans-Serif" font-size="10.00" fill="#000000">PaletteItemBase::mouseRelease</text>
<text text-anchor="middle" x="481.5" y="-56.5" font-family="Helvetica,sans-Serif" font-size="10.00" fill="#000000">Event</text>
</a>
</g>
</g>
<!-- Node10084&#45;&gt;Node10086 -->
<g id="edge2" class="edge">
<title>Node10084&#45;&gt;Node10086</title>
<path fill="none" stroke="#191970" d="M594.8662,-64.5C586.2744,-64.5 577.5968,-64.5 569.0702,-64.5"/>
<polygon fill="#191970" stroke="#191970" points="594.8985,-68.0001 604.8984,-64.5 594.8984,-61.0001 594.8985,-68.0001"/>
</g>
<!-- Node10091 -->
<g id="node8" class="node">
<title>Node10091</title>
<g id="a_node8"><a xlink:href="../../d7/d64/classWire.html#a46654332c0c33b6f4c605b3d7f1d3cbb" target="_top" xlink:title=" ">
<polygon fill="#ffffff" stroke="#000000" points="409,-11 409,-30 554,-30 554,-11 409,-11"/>
<text text-anchor="middle" x="481.5" y="-18" font-family="Helvetica,sans-Serif" font-size="10.00" fill="#000000">Wire::mouseReleaseEvent</text>
</a>
</g>
</g>
<!-- Node10084&#45;&gt;Node10091 -->
<g id="edge7" class="edge">
<title>Node10084&#45;&gt;Node10091</title>
<path fill="none" stroke="#191970" d="M634.2289,-52.808C600.5819,-45.6904 558.1425,-36.7128 526.5448,-30.0287"/>
<polygon fill="#191970" stroke="#191970" points="633.8592,-56.3072 644.3671,-54.9527 635.308,-49.4588 633.8592,-56.3072"/>
</g>
<!-- Node10087 -->
<g id="node4" class="node">
<title>Node10087</title>
<g id="a_node4"><a xlink:href="../../d6/d39/classJumperItem.html#ac3305979e508e74a7b4a963449dbd052" target="_top" xlink:title=" ">
<polygon fill="#ffffff" stroke="#000000" points="197,-98.5 197,-128.5 349,-128.5 349,-98.5 197,-98.5"/>
<text text-anchor="start" x="205" y="-116.5" font-family="Helvetica,sans-Serif" font-size="10.00" fill="#000000">JumperItem::mouseRelease</text>
<text text-anchor="middle" x="273" y="-105.5" font-family="Helvetica,sans-Serif" font-size="10.00" fill="#000000">Event</text>
</a>
</g>
</g>
<!-- Node10086&#45;&gt;Node10087 -->
<g id="edge3" class="edge">
<title>Node10086&#45;&gt;Node10087</title>
<path fill="none" stroke="#191970" d="M407.755,-81.8309C384.6064,-87.2712 359.2572,-93.2285 336.8529,-98.4938"/>
<polygon fill="#191970" stroke="#191970" points="408.5921,-85.2297 417.5262,-79.5346 406.9906,-78.4153 408.5921,-85.2297"/>
</g>
<!-- Node10089 -->
<g id="node6" class="node">
<title>Node10089</title>
<g id="a_node6"><a xlink:href="../../d8/d7f/classLayerKinPaletteItem.html#a4ff7169f6586222f6e010b5ec960b2ac" target="_top" xlink:title=" ">
<polygon fill="#ffffff" stroke="#000000" points="212,-49.5 212,-79.5 334,-79.5 334,-49.5 212,-49.5"/>
<text text-anchor="start" x="220" y="-67.5" font-family="Helvetica,sans-Serif" font-size="10.00" fill="#000000">LayerKinPaletteItem</text>
<text text-anchor="middle" x="273" y="-56.5" font-family="Helvetica,sans-Serif" font-size="10.00" fill="#000000">::mouseReleaseEvent</text>
</a>
</g>
</g>
<!-- Node10086&#45;&gt;Node10089 -->
<g id="edge5" class="edge">
<title>Node10086&#45;&gt;Node10089</title>
<path fill="none" stroke="#191970" d="M383.5226,-64.5C366.6508,-64.5 349.559,-64.5 334.0236,-64.5"/>
<polygon fill="#191970" stroke="#191970" points="383.9835,-68.0001 393.9835,-64.5 383.9834,-61.0001 383.9835,-68.0001"/>
</g>
<!-- Node10090 -->
<g id="node7" class="node">
<title>Node10090</title>
<g id="a_node7"><a xlink:href="../../d7/dde/classResizableBoard.html#a48ee73fa4ba774ba560c0ef849c75a0f" target="_top" xlink:title=" ">
<polygon fill="#ffffff" stroke="#000000" points="188,-.5 188,-30.5 358,-30.5 358,-.5 188,-.5"/>
<text text-anchor="start" x="196" y="-18.5" font-family="Helvetica,sans-Serif" font-size="10.00" fill="#000000">ResizableBoard::mouseRelease</text>
<text text-anchor="middle" x="273" y="-7.5" font-family="Helvetica,sans-Serif" font-size="10.00" fill="#000000">Event</text>
</a>
</g>
</g>
<!-- Node10086&#45;&gt;Node10090 -->
<g id="edge6" class="edge">
<title>Node10086&#45;&gt;Node10090</title>
<path fill="none" stroke="#191970" d="M407.755,-47.1691C384.6064,-41.7288 359.2572,-35.7715 336.8529,-30.5062"/>
<polygon fill="#191970" stroke="#191970" points="406.9906,-50.5847 417.5262,-49.4654 408.5921,-43.7703 406.9906,-50.5847"/>
</g>
<!-- Node10088 -->
<g id="node5" class="node">
<title>Node10088</title>
<g id="a_node5"><a xlink:href="../../d6/d39/classJumperItem.html#a1f37d15d8a1b3325b11079246e2b39f7" target="_top" xlink:title=" ">
<polygon fill="#ffffff" stroke="#000000" points="0,-98.5 0,-128.5 152,-128.5 152,-98.5 0,-98.5"/>
<text text-anchor="start" x="8" y="-116.5" font-family="Helvetica,sans-Serif" font-size="10.00" fill="#000000">JumperItem::mouseRelease</text>
<text text-anchor="middle" x="76" y="-105.5" font-family="Helvetica,sans-Serif" font-size="10.00" fill="#000000">EventK</text>
</a>
</g>
</g>
<!-- Node10087&#45;&gt;Node10088 -->
<g id="edge4" class="edge">
<title>Node10087&#45;&gt;Node10088</title>
<path fill="none" stroke="#191970" d="M186.8092,-113.5C175.316,-113.5 163.5958,-113.5 152.2876,-113.5"/>
<polygon fill="#191970" stroke="#191970" points="186.8347,-117.0001 196.8347,-113.5 186.8346,-110.0001 186.8347,-117.0001"/>
</g>
</g>
</svg>
