<?xml version="1.0" encoding="UTF-8" standalone="no"?>
<!DOCTYPE svg PUBLIC "-//W3C//DTD SVG 1.1//EN"
 "http://www.w3.org/Graphics/SVG/1.1/DTD/svg11.dtd">
<!-- Generated by graphviz version 2.40.1 (0)
 -->
<!-- Title: ItemBase::useViewIDForPixmap Pages: 1 -->
<svg width="383pt" height="104pt"
 viewBox="0.00 0.00 383.00 104.00" xmlns="http://www.w3.org/2000/svg" xmlns:xlink="http://www.w3.org/1999/xlink">
<g id="graph0" class="graph" transform="scale(1 1) rotate(0) translate(4 100)">
<title>ItemBase::useViewIDForPixmap</title>
<polygon fill="#ffffff" stroke="transparent" points="-4,4 -4,-100 379,-100 379,4 -4,4"/>
<!-- Node17083 -->
<g id="node1" class="node">
<title>Node17083</title>
<g id="a_node1"><a xlink:title=" ">
<polygon fill="#bfbfbf" stroke="#000000" points="202,-38.5 202,-57.5 375,-57.5 375,-38.5 202,-38.5"/>
<text text-anchor="middle" x="288.5" y="-45.5" font-family="Helvetica,sans-Serif" font-size="10.00" fill="#000000">ItemBase::useViewIDForPixmap</text>
</a>
</g>
</g>
<!-- Node17084 -->
<g id="node2" class="node">
<title>Node17084</title>
<g id="a_node2"><a xlink:href="../../d4/d4f/classItemBase.html#aac2299779b00d7e9f0132d85d429d7f7" target="_top" xlink:title=" ">
<polygon fill="#ffffff" stroke="#000000" points="22,-76.5 22,-95.5 144,-95.5 144,-76.5 22,-76.5"/>
<text text-anchor="middle" x="83" y="-83.5" font-family="Helvetica,sans-Serif" font-size="10.00" fill="#000000">ItemBase::getPixmap</text>
</a>
</g>
</g>
<!-- Node17083&#45;&gt;Node17084 -->
<g id="edge1" class="edge">
<title>Node17083&#45;&gt;Node17084</title>
<path fill="none" stroke="#191970" d="M226.752,-59.4181C197.3486,-64.8552 162.5866,-71.2832 134.6123,-76.4561"/>
<polygon fill="#191970" stroke="#191970" points="227.7121,-62.8 236.9089,-57.54 226.4392,-55.9167 227.7121,-62.8"/>
</g>
<!-- Node17085 -->
<g id="node3" class="node">
<title>Node17085</title>
<g id="a_node3"><a xlink:href="../../d9/d6b/classLED.html#ab532ecaeeb7230fc2e9c0a9524b1e034" target="_top" xlink:title=" ">
<polygon fill="#ffffff" stroke="#000000" points="10.5,-38.5 10.5,-57.5 155.5,-57.5 155.5,-38.5 10.5,-38.5"/>
<text text-anchor="middle" x="83" y="-45.5" font-family="Helvetica,sans-Serif" font-size="10.00" fill="#000000">LED::useViewIDForPixmap</text>
</a>
</g>
</g>
<!-- Node17083&#45;&gt;Node17085 -->
<g id="edge2" class="edge">
<title>Node17083&#45;&gt;Node17085</title>
<path fill="none" stroke="#191970" d="M191.811,-48C179.6974,-48 167.4711,-48 155.8086,-48"/>
<polygon fill="#191970" stroke="#191970" points="191.9451,-51.5001 201.9451,-48 191.9451,-44.5001 191.9451,-51.5001"/>
</g>
<!-- Node17086 -->
<g id="node4" class="node">
<title>Node17086</title>
<g id="a_node4"><a xlink:href="../../dd/df8/classResistor.html#a7f9c1c7cc664539510fd64d39e9d0faf" target="_top" xlink:title=" ">
<polygon fill="#ffffff" stroke="#000000" points="0,-.5 0,-19.5 166,-19.5 166,-.5 0,-.5"/>
<text text-anchor="middle" x="83" y="-7.5" font-family="Helvetica,sans-Serif" font-size="10.00" fill="#000000">Resistor::useViewIDForPixmap</text>
</a>
</g>
</g>
<!-- Node17083&#45;&gt;Node17086 -->
<g id="edge3" class="edge">
<title>Node17083&#45;&gt;Node17086</title>
<path fill="none" stroke="#191970" d="M226.752,-36.5819C197.3486,-31.1448 162.5866,-24.7168 134.6123,-19.5439"/>
<polygon fill="#191970" stroke="#191970" points="226.4392,-40.0833 236.9089,-38.46 227.7121,-33.2 226.4392,-40.0833"/>
</g>
</g>
</svg>
