<?xml version="1.0" encoding="UTF-8" standalone="no"?>
<!DOCTYPE svg PUBLIC "-//W3C//DTD SVG 1.1//EN"
 "http://www.w3.org/Graphics/SVG/1.1/DTD/svg11.dtd">
<!-- Generated by graphviz version 2.40.1 (0)
 -->
<!-- Title: ItemBase::inRotation Pages: 1 -->
<svg width="732pt" height="235pt"
 viewBox="0.00 0.00 732.00 235.00" xmlns="http://www.w3.org/2000/svg" xmlns:xlink="http://www.w3.org/1999/xlink">
<g id="graph0" class="graph" transform="scale(1 1) rotate(0) translate(4 231)">
<title>ItemBase::inRotation</title>
<polygon fill="#ffffff" stroke="transparent" points="-4,4 -4,-231 728,-231 728,4 -4,4"/>
<!-- Node6438 -->
<g id="node1" class="node">
<title>Node6438</title>
<g id="a_node1"><a xlink:title=" ">
<polygon fill="#bfbfbf" stroke="#000000" points="605,-153 605,-172 724,-172 724,-153 605,-153"/>
<text text-anchor="middle" x="664.5" y="-160" font-family="Helvetica,sans-Serif" font-size="10.00" fill="#000000">ItemBase::inRotation</text>
</a>
</g>
</g>
<!-- Node6439 -->
<g id="node2" class="node">
<title>Node6439</title>
<g id="a_node2"><a xlink:href="../../d8/d7f/classLayerKinPaletteItem.html#a24cb8683d92b3af0373c86b86a2cc87f" target="_top" xlink:title=" ">
<polygon fill="#ffffff" stroke="#000000" points="423.5,-196.5 423.5,-226.5 539.5,-226.5 539.5,-196.5 423.5,-196.5"/>
<text text-anchor="start" x="431.5" y="-214.5" font-family="Helvetica,sans-Serif" font-size="10.00" fill="#000000">LayerKinPaletteItem</text>
<text text-anchor="middle" x="481.5" y="-203.5" font-family="Helvetica,sans-Serif" font-size="10.00" fill="#000000">::inRotation</text>
</a>
</g>
</g>
<!-- Node6438&#45;&gt;Node6439 -->
<g id="edge1" class="edge">
<title>Node6438&#45;&gt;Node6439</title>
<path fill="none" stroke="#191970" d="M618.9757,-174.6896C594.3593,-181.2808 563.7447,-189.4782 537.6585,-196.463"/>
<polygon fill="#191970" stroke="#191970" points="620.0269,-178.0315 628.7813,-172.064 618.2163,-171.2697 620.0269,-178.0315"/>
</g>
<!-- Node6440 -->
<g id="node3" class="node">
<title>Node6440</title>
<g id="a_node3"><a xlink:href="../../d7/de7/classPaletteItemBase.html#a93c4f80148df079c8fee7dda62876f2a" target="_top" xlink:title=" ">
<polygon fill="#ffffff" stroke="#000000" points="400,-147.5 400,-177.5 563,-177.5 563,-147.5 400,-147.5"/>
<text text-anchor="start" x="408" y="-165.5" font-family="Helvetica,sans-Serif" font-size="10.00" fill="#000000">PaletteItemBase::mouseMove</text>
<text text-anchor="middle" x="481.5" y="-154.5" font-family="Helvetica,sans-Serif" font-size="10.00" fill="#000000">Event</text>
</a>
</g>
</g>
<!-- Node6438&#45;&gt;Node6440 -->
<g id="edge2" class="edge">
<title>Node6438&#45;&gt;Node6440</title>
<path fill="none" stroke="#191970" d="M594.6466,-162.5C584.3095,-162.5 573.5814,-162.5 563.0321,-162.5"/>
<polygon fill="#191970" stroke="#191970" points="594.8322,-166.0001 604.8322,-162.5 594.8321,-159.0001 594.8322,-166.0001"/>
</g>
<!-- Node6443 -->
<g id="node6" class="node">
<title>Node6443</title>
<g id="a_node6"><a xlink:href="../../d7/de7/classPaletteItemBase.html#ae78c0e4df9c0668731b1013602172721" target="_top" xlink:title=" ">
<polygon fill="#ffffff" stroke="#000000" points="394,-74.5 394,-104.5 569,-104.5 569,-74.5 394,-74.5"/>
<text text-anchor="start" x="402" y="-92.5" font-family="Helvetica,sans-Serif" font-size="10.00" fill="#000000">PaletteItemBase::mouseRelease</text>
<text text-anchor="middle" x="481.5" y="-81.5" font-family="Helvetica,sans-Serif" font-size="10.00" fill="#000000">Event</text>
</a>
</g>
</g>
<!-- Node6438&#45;&gt;Node6443 -->
<g id="edge5" class="edge">
<title>Node6438&#45;&gt;Node6443</title>
<path fill="none" stroke="#191970" d="M630.9269,-149.1075C599.4057,-136.5334 552.3067,-117.7453 519.4385,-104.634"/>
<polygon fill="#191970" stroke="#191970" points="629.9909,-152.5022 640.5759,-152.9565 632.5845,-146.0004 629.9909,-152.5022"/>
</g>
<!-- Node6441 -->
<g id="node4" class="node">
<title>Node6441</title>
<g id="a_node4"><a xlink:href="../../d8/d7f/classLayerKinPaletteItem.html#a87752369732409019921a2221ec2a2c9" target="_top" xlink:title=" ">
<polygon fill="#ffffff" stroke="#000000" points="215,-196.5 215,-226.5 331,-226.5 331,-196.5 215,-196.5"/>
<text text-anchor="start" x="223" y="-214.5" font-family="Helvetica,sans-Serif" font-size="10.00" fill="#000000">LayerKinPaletteItem</text>
<text text-anchor="middle" x="273" y="-203.5" font-family="Helvetica,sans-Serif" font-size="10.00" fill="#000000">::mouseMoveEvent</text>
</a>
</g>
</g>
<!-- Node6440&#45;&gt;Node6441 -->
<g id="edge3" class="edge">
<title>Node6440&#45;&gt;Node6441</title>
<path fill="none" stroke="#191970" d="M407.6797,-179.8487C382.573,-185.749 354.8854,-192.2559 331.1774,-197.8276"/>
<polygon fill="#191970" stroke="#191970" points="408.5921,-183.2297 417.5262,-177.5346 406.9906,-176.4153 408.5921,-183.2297"/>
</g>
<!-- Node6442 -->
<g id="node5" class="node">
<title>Node6442</title>
<g id="a_node5"><a xlink:href="../../d7/dde/classResizableBoard.html#a2a5d6e308014227afeeae2c04863990d" target="_top" xlink:title=" ">
<polygon fill="#ffffff" stroke="#000000" points="194,-147.5 194,-177.5 352,-177.5 352,-147.5 194,-147.5"/>
<text text-anchor="start" x="202" y="-165.5" font-family="Helvetica,sans-Serif" font-size="10.00" fill="#000000">ResizableBoard::mouseMove</text>
<text text-anchor="middle" x="273" y="-154.5" font-family="Helvetica,sans-Serif" font-size="10.00" fill="#000000">Event</text>
</a>
</g>
</g>
<!-- Node6440&#45;&gt;Node6442 -->
<g id="edge4" class="edge">
<title>Node6440&#45;&gt;Node6442</title>
<path fill="none" stroke="#191970" d="M389.9356,-162.5C377.3099,-162.5 364.4323,-162.5 352.0583,-162.5"/>
<polygon fill="#191970" stroke="#191970" points="389.9927,-166.0001 399.9927,-162.5 389.9926,-159.0001 389.9927,-166.0001"/>
</g>
<!-- Node6444 -->
<g id="node7" class="node">
<title>Node6444</title>
<g id="a_node7"><a xlink:href="../../d6/d39/classJumperItem.html#ac3305979e508e74a7b4a963449dbd052" target="_top" xlink:title=" ">
<polygon fill="#ffffff" stroke="#000000" points="197,-98.5 197,-128.5 349,-128.5 349,-98.5 197,-98.5"/>
<text text-anchor="start" x="205" y="-116.5" font-family="Helvetica,sans-Serif" font-size="10.00" fill="#000000">JumperItem::mouseRelease</text>
<text text-anchor="middle" x="273" y="-105.5" font-family="Helvetica,sans-Serif" font-size="10.00" fill="#000000">Event</text>
</a>
</g>
</g>
<!-- Node6443&#45;&gt;Node6444 -->
<g id="edge6" class="edge">
<title>Node6443&#45;&gt;Node6444</title>
<path fill="none" stroke="#191970" d="M383.7759,-100.7488C372.1115,-102.0915 360.3378,-103.4467 349.0418,-104.747"/>
<polygon fill="#191970" stroke="#191970" points="384.4493,-104.1945 393.9835,-99.5738 383.6488,-97.2404 384.4493,-104.1945"/>
</g>
<!-- Node6446 -->
<g id="node9" class="node">
<title>Node6446</title>
<g id="a_node9"><a xlink:href="../../d8/d7f/classLayerKinPaletteItem.html#a4ff7169f6586222f6e010b5ec960b2ac" target="_top" xlink:title=" ">
<polygon fill="#ffffff" stroke="#000000" points="212,-49.5 212,-79.5 334,-79.5 334,-49.5 212,-49.5"/>
<text text-anchor="start" x="220" y="-67.5" font-family="Helvetica,sans-Serif" font-size="10.00" fill="#000000">LayerKinPaletteItem</text>
<text text-anchor="middle" x="273" y="-56.5" font-family="Helvetica,sans-Serif" font-size="10.00" fill="#000000">::mouseReleaseEvent</text>
</a>
</g>
</g>
<!-- Node6443&#45;&gt;Node6446 -->
<g id="edge8" class="edge">
<title>Node6443&#45;&gt;Node6446</title>
<path fill="none" stroke="#191970" d="M384.0001,-77.8094C366.9734,-75.7678 349.7056,-73.6973 334.0236,-71.817"/>
<polygon fill="#191970" stroke="#191970" points="383.6379,-81.2909 393.9835,-79.0064 384.4713,-74.3407 383.6379,-81.2909"/>
</g>
<!-- Node6447 -->
<g id="node10" class="node">
<title>Node6447</title>
<g id="a_node10"><a xlink:href="../../d7/dde/classResizableBoard.html#a48ee73fa4ba774ba560c0ef849c75a0f" target="_top" xlink:title=" ">
<polygon fill="#ffffff" stroke="#000000" points="188,-.5 188,-30.5 358,-30.5 358,-.5 188,-.5"/>
<text text-anchor="start" x="196" y="-18.5" font-family="Helvetica,sans-Serif" font-size="10.00" fill="#000000">ResizableBoard::mouseRelease</text>
<text text-anchor="middle" x="273" y="-7.5" font-family="Helvetica,sans-Serif" font-size="10.00" fill="#000000">Event</text>
</a>
</g>
</g>
<!-- Node6443&#45;&gt;Node6447 -->
<g id="edge9" class="edge">
<title>Node6443&#45;&gt;Node6447</title>
<path fill="none" stroke="#191970" d="M436.8711,-70.6475C413.5601,-61.0928 384.451,-49.6157 358,-40.5 348.111,-37.092 337.4783,-33.7306 327.1946,-30.6314"/>
<polygon fill="#191970" stroke="#191970" points="435.575,-73.8988 446.1541,-74.4761 438.2439,-67.4276 435.575,-73.8988"/>
</g>
<!-- Node6445 -->
<g id="node8" class="node">
<title>Node6445</title>
<g id="a_node8"><a xlink:href="../../d6/d39/classJumperItem.html#a1f37d15d8a1b3325b11079246e2b39f7" target="_top" xlink:title=" ">
<polygon fill="#ffffff" stroke="#000000" points="0,-98.5 0,-128.5 152,-128.5 152,-98.5 0,-98.5"/>
<text text-anchor="start" x="8" y="-116.5" font-family="Helvetica,sans-Serif" font-size="10.00" fill="#000000">JumperItem::mouseRelease</text>
<text text-anchor="middle" x="76" y="-105.5" font-family="Helvetica,sans-Serif" font-size="10.00" fill="#000000">EventK</text>
</a>
</g>
</g>
<!-- Node6444&#45;&gt;Node6445 -->
<g id="edge7" class="edge">
<title>Node6444&#45;&gt;Node6445</title>
<path fill="none" stroke="#191970" d="M186.8092,-113.5C175.316,-113.5 163.5958,-113.5 152.2876,-113.5"/>
<polygon fill="#191970" stroke="#191970" points="186.8347,-117.0001 196.8347,-113.5 186.8346,-110.0001 186.8347,-117.0001"/>
</g>
</g>
</svg>
