<?xml version="1.0" encoding="UTF-8" standalone="no"?>
<!DOCTYPE svg PUBLIC "-//W3C//DTD SVG 1.1//EN"
 "http://www.w3.org/Graphics/SVG/1.1/DTD/svg11.dtd">
<!-- Generated by graphviz version 2.40.1 (0)
 -->
<!-- Title: SimpleMoveItemCommand::undo Pages: 1 -->
<svg width="902pt" height="218pt"
 viewBox="0.00 0.00 902.00 218.00" xmlns="http://www.w3.org/2000/svg" xmlns:xlink="http://www.w3.org/1999/xlink">
<g id="graph0" class="graph" transform="scale(1 1) rotate(0) translate(4 214)">
<title>SimpleMoveItemCommand::undo</title>
<polygon fill="#ffffff" stroke="transparent" points="-4,4 -4,-214 898,-214 898,4 -4,4"/>
<!-- Node20 -->
<g id="node1" class="node">
<title>Node20</title>
<g id="a_node1"><a xlink:title=" ">
<polygon fill="#bfbfbf" stroke="#000000" points="0,-52 0,-82 150,-82 150,-52 0,-52"/>
<text text-anchor="start" x="8" y="-70" font-family="Helvetica,sans-Serif" font-size="10.00" fill="#000000">SimpleMoveItemCommand</text>
<text text-anchor="middle" x="75" y="-59" font-family="Helvetica,sans-Serif" font-size="10.00" fill="#000000">::undo</text>
</a>
</g>
</g>
<!-- Node21 -->
<g id="node2" class="node">
<title>Node21</title>
<g id="a_node2"><a xlink:href="../../d8/d37/classSketchWidget.html#aee5e318a0766b9908ba8ba2275793ef1" target="_top" xlink:title=" ">
<polygon fill="#ffffff" stroke="#000000" points="186,-95.5 186,-114.5 358,-114.5 358,-95.5 186,-95.5"/>
<text text-anchor="middle" x="272" y="-102.5" font-family="Helvetica,sans-Serif" font-size="10.00" fill="#000000">SketchWidget::simpleMoveItem</text>
</a>
</g>
</g>
<!-- Node20&#45;&gt;Node21 -->
<g id="edge1" class="edge">
<title>Node20&#45;&gt;Node21</title>
<path fill="none" stroke="#191970" d="M150.0392,-81.4746C170.6878,-85.4575 192.7967,-89.7222 212.4423,-93.5117"/>
<polygon fill="#191970" stroke="#191970" points="211.9885,-96.9886 222.4704,-95.4461 213.3143,-90.1153 211.9885,-96.9886"/>
</g>
<!-- Node30 -->
<g id="node11" class="node">
<title>Node30</title>
<g id="a_node11"><a xlink:href="../../d8/d6e/classBaseCommand.html#ac2747a4ea6258544b1721c742dc3d4db" target="_top" xlink:title=" ">
<polygon fill="#ffffff" stroke="#000000" points="211.5,-38.5 211.5,-57.5 332.5,-57.5 332.5,-38.5 211.5,-38.5"/>
<text text-anchor="middle" x="272" y="-45.5" font-family="Helvetica,sans-Serif" font-size="10.00" fill="#000000">BaseCommand::undo</text>
</a>
</g>
</g>
<!-- Node20&#45;&gt;Node30 -->
<g id="edge10" class="edge">
<title>Node20&#45;&gt;Node30</title>
<path fill="none" stroke="#191970" d="M150.0392,-59.7627C166.7878,-58.1474 184.4971,-56.4394 201.0734,-54.8406"/>
<polygon fill="#191970" stroke="#191970" points="201.6116,-58.3051 211.2293,-53.8611 200.9395,-51.3374 201.6116,-58.3051"/>
</g>
<!-- Node22 -->
<g id="node3" class="node">
<title>Node22</title>
<g id="a_node3"><a xlink:href="../../d8/d37/classSketchWidget.html#a8e2ae23ef1e4c2ad993e0c3985e5c3ba" target="_top" xlink:title=" ">
<polygon fill="#ffffff" stroke="#000000" points="411,-152.5 411,-171.5 541,-171.5 541,-152.5 411,-152.5"/>
<text text-anchor="middle" x="476" y="-159.5" font-family="Helvetica,sans-Serif" font-size="10.00" fill="#000000">SketchWidget::findItem</text>
</a>
</g>
</g>
<!-- Node21&#45;&gt;Node22 -->
<g id="edge2" class="edge">
<title>Node21&#45;&gt;Node22</title>
<path fill="none" stroke="#191970" d="M300.4189,-114.5091C325.0333,-122.587 361.6696,-134.2323 394,-143 403.011,-145.4437 412.6318,-147.8511 421.9966,-150.0881"/>
<polygon fill="#191970" stroke="#191970" points="421.4815,-153.5623 432.017,-152.4422 423.0825,-146.7478 421.4815,-153.5623"/>
</g>
<!-- Node26 -->
<g id="node7" class="node">
<title>Node26</title>
<g id="a_node7"><a xlink:href="../../d4/d4f/classItemBase.html#a3fc9619f53568414fa37f254f5538d22" target="_top" xlink:title=" ">
<polygon fill="#ffffff" stroke="#000000" points="414,-114.5 414,-133.5 538,-133.5 538,-114.5 414,-114.5"/>
<text text-anchor="middle" x="476" y="-121.5" font-family="Helvetica,sans-Serif" font-size="10.00" fill="#000000">ItemBase::setItemPos</text>
</a>
</g>
</g>
<!-- Node21&#45;&gt;Node26 -->
<g id="edge6" class="edge">
<title>Node21&#45;&gt;Node26</title>
<path fill="none" stroke="#191970" d="M358.2187,-113.0302C373.4155,-114.4456 389.0912,-115.9056 403.8523,-117.2804"/>
<polygon fill="#191970" stroke="#191970" points="403.6267,-120.7744 413.9082,-118.2169 404.2759,-113.8046 403.6267,-120.7744"/>
</g>
<!-- Node27 -->
<g id="node8" class="node">
<title>Node27</title>
<g id="a_node8"><a xlink:href="../../db/d71/classHtmlInfoView.html#ac0543007278f2bb49ecf7fa158c27ca3" target="_top" xlink:title=" ">
<polygon fill="#ffffff" stroke="#000000" points="394,-76.5 394,-95.5 558,-95.5 558,-76.5 394,-76.5"/>
<text text-anchor="middle" x="476" y="-83.5" font-family="Helvetica,sans-Serif" font-size="10.00" fill="#000000">HtmlInfoView::updateLocation</text>
</a>
</g>
</g>
<!-- Node21&#45;&gt;Node27 -->
<g id="edge7" class="edge">
<title>Node21&#45;&gt;Node27</title>
<path fill="none" stroke="#191970" d="M358.2187,-96.9698C366.738,-96.1764 375.4078,-95.3689 383.9826,-94.5702"/>
<polygon fill="#191970" stroke="#191970" points="384.3581,-98.0505 393.9904,-93.6382 383.7089,-91.0807 384.3581,-98.0505"/>
</g>
<!-- Node23 -->
<g id="node4" class="node">
<title>Node23</title>
<g id="a_node4"><a xlink:href="../../d4/d4f/classItemBase.html#a27afd199a7ae3c3fd14e88ed0be14420" target="_top" xlink:title=" ">
<polygon fill="#ffffff" stroke="#000000" points="627.5,-190.5 627.5,-209.5 705.5,-209.5 705.5,-190.5 627.5,-190.5"/>
<text text-anchor="middle" x="666.5" y="-197.5" font-family="Helvetica,sans-Serif" font-size="10.00" fill="#000000">ItemBase::id</text>
</a>
</g>
</g>
<!-- Node22&#45;&gt;Node23 -->
<g id="edge3" class="edge">
<title>Node22&#45;&gt;Node23</title>
<path fill="none" stroke="#191970" d="M524.0712,-171.589C552.6645,-177.2927 588.8465,-184.5101 617.5869,-190.2431"/>
<polygon fill="#191970" stroke="#191970" points="616.9263,-193.6802 627.4178,-192.2041 618.2957,-186.8154 616.9263,-193.6802"/>
</g>
<!-- Node24 -->
<g id="node5" class="node">
<title>Node24</title>
<g id="a_node5"><a xlink:href="../../d4/d4f/classItemBase.html#abf6d16e250a353043cd4953ddc049bd0" target="_top" xlink:title=" ">
<polygon fill="#ffffff" stroke="#000000" points="599,-152.5 599,-171.5 734,-171.5 734,-152.5 599,-152.5"/>
<text text-anchor="middle" x="666.5" y="-159.5" font-family="Helvetica,sans-Serif" font-size="10.00" fill="#000000">ItemBase::layerKinChief</text>
</a>
</g>
</g>
<!-- Node22&#45;&gt;Node24 -->
<g id="edge4" class="edge">
<title>Node22&#45;&gt;Node24</title>
<path fill="none" stroke="#191970" d="M541.0265,-162C556.3228,-162 572.7793,-162 588.5776,-162"/>
<polygon fill="#191970" stroke="#191970" points="588.8456,-165.5001 598.8455,-162 588.8455,-158.5001 588.8456,-165.5001"/>
</g>
<!-- Node25 -->
<g id="node6" class="node">
<title>Node25</title>
<g id="a_node6"><a xlink:href="../../d4/d4f/classItemBase.html#acc32076e751f0e21ffb9050f275d3b87" target="_top" xlink:title=" ">
<polygon fill="#ffffff" stroke="#000000" points="611.5,-114.5 611.5,-133.5 721.5,-133.5 721.5,-114.5 611.5,-114.5"/>
<text text-anchor="middle" x="666.5" y="-121.5" font-family="Helvetica,sans-Serif" font-size="10.00" fill="#000000">ItemBase::layerKin</text>
</a>
</g>
</g>
<!-- Node22&#45;&gt;Node25 -->
<g id="edge5" class="edge">
<title>Node22&#45;&gt;Node25</title>
<path fill="none" stroke="#191970" d="M524.0712,-152.411C549.7759,-147.2835 581.6134,-140.9328 608.6642,-135.5368"/>
<polygon fill="#191970" stroke="#191970" points="609.6524,-138.9087 618.7745,-133.5201 608.283,-132.044 609.6524,-138.9087"/>
</g>
<!-- Node28 -->
<g id="node9" class="node">
<title>Node28</title>
<g id="a_node9"><a xlink:href="../../db/d71/classHtmlInfoView.html#aa95a8c80ce0dc5c10ac1013ef2cd8e8f" target="_top" xlink:title=" ">
<polygon fill="#ffffff" stroke="#000000" points="594,-76.5 594,-95.5 739,-95.5 739,-76.5 594,-76.5"/>
<text text-anchor="middle" x="666.5" y="-83.5" font-family="Helvetica,sans-Serif" font-size="10.00" fill="#000000">HtmlInfoView::setLocation</text>
</a>
</g>
</g>
<!-- Node27&#45;&gt;Node28 -->
<g id="edge8" class="edge">
<title>Node27&#45;&gt;Node28</title>
<path fill="none" stroke="#191970" d="M558.1714,-86C566.6192,-86 575.2069,-86 583.6619,-86"/>
<polygon fill="#191970" stroke="#191970" points="583.891,-89.5001 593.891,-86 583.891,-82.5001 583.891,-89.5001"/>
</g>
<!-- Node29 -->
<g id="node10" class="node">
<title>Node29</title>
<g id="a_node10"><a xlink:href="../../d4/d4f/classItemBase.html#a45decb22da6b671358bc8c782cff22ea" target="_top" xlink:title=" ">
<polygon fill="#ffffff" stroke="#000000" points="775,-76.5 775,-95.5 894,-95.5 894,-76.5 775,-76.5"/>
<text text-anchor="middle" x="834.5" y="-83.5" font-family="Helvetica,sans-Serif" font-size="10.00" fill="#000000">ItemBase::moveLock</text>
</a>
</g>
</g>
<!-- Node28&#45;&gt;Node29 -->
<g id="edge9" class="edge">
<title>Node28&#45;&gt;Node29</title>
<path fill="none" stroke="#191970" d="M739.2101,-86C747.6583,-86 756.2615,-86 764.6698,-86"/>
<polygon fill="#191970" stroke="#191970" points="764.8057,-89.5001 774.8057,-86 764.8057,-82.5001 764.8057,-89.5001"/>
</g>
<!-- Node31 -->
<g id="node12" class="node">
<title>Node31</title>
<g id="a_node12"><a xlink:href="../../df/d8b/classCommandProgress.html#aebf23a39ab6caf18a3e7b3351ad4f49d" target="_top" xlink:title=" ">
<polygon fill="#ffffff" stroke="#000000" points="403.5,-38.5 403.5,-57.5 548.5,-57.5 548.5,-38.5 403.5,-38.5"/>
<text text-anchor="middle" x="476" y="-45.5" font-family="Helvetica,sans-Serif" font-size="10.00" fill="#000000">CommandProgress::active</text>
</a>
</g>
</g>
<!-- Node30&#45;&gt;Node31 -->
<g id="edge11" class="edge">
<title>Node30&#45;&gt;Node31</title>
<path fill="none" stroke="#191970" d="M332.6544,-48C351.6439,-48 372.9348,-48 393.18,-48"/>
<polygon fill="#191970" stroke="#191970" points="393.3355,-51.5001 403.3355,-48 393.3355,-44.5001 393.3355,-51.5001"/>
</g>
<!-- Node32 -->
<g id="node13" class="node">
<title>Node32</title>
<g id="a_node13"><a xlink:href="../../df/d8b/classCommandProgress.html#aaed608918684247a483fd5466be7b551" target="_top" xlink:title=" ">
<polygon fill="#ffffff" stroke="#000000" points="394.5,-.5 394.5,-19.5 557.5,-19.5 557.5,-.5 394.5,-.5"/>
<text text-anchor="middle" x="476" y="-7.5" font-family="Helvetica,sans-Serif" font-size="10.00" fill="#000000">CommandProgress::emitUndo</text>
</a>
</g>
</g>
<!-- Node30&#45;&gt;Node32 -->
<g id="edge12" class="edge">
<title>Node30&#45;&gt;Node32</title>
<path fill="none" stroke="#191970" d="M323.2145,-38.46C350.9812,-33.2878 385.4891,-26.8599 414.6806,-21.4222"/>
<polygon fill="#191970" stroke="#191970" points="415.5745,-24.816 424.7644,-19.5439 414.2926,-17.9344 415.5745,-24.816"/>
</g>
</g>
</svg>
