<?xml version="1.0" encoding="UTF-8" standalone="no"?>
<!DOCTYPE svg PUBLIC "-//W3C//DTD SVG 1.1//EN"
 "http://www.w3.org/Graphics/SVG/1.1/DTD/svg11.dtd">
<!-- Generated by graphviz version 2.40.1 (0)
 -->
<!-- Title: IconSketchWidget::IconSketchWidget Pages: 1 -->
<svg width="784pt" height="104pt"
 viewBox="0.00 0.00 784.00 104.00" xmlns="http://www.w3.org/2000/svg" xmlns:xlink="http://www.w3.org/1999/xlink">
<g id="graph0" class="graph" transform="scale(1 1) rotate(0) translate(4 100)">
<title>IconSketchWidget::IconSketchWidget</title>
<polygon fill="#ffffff" stroke="transparent" points="-4,4 -4,-100 780,-100 780,4 -4,4"/>
<!-- Node0 -->
<g id="node1" class="node">
<title>Node0</title>
<g id="a_node1"><a xlink:title=" ">
<polygon fill="#bfbfbf" stroke="#000000" points="0,-33 0,-63 162,-63 162,-33 0,-33"/>
<text text-anchor="start" x="8" y="-51" font-family="Helvetica,sans-Serif" font-size="10.00" fill="#000000">IconSketchWidget::IconSketch</text>
<text text-anchor="middle" x="81" y="-40" font-family="Helvetica,sans-Serif" font-size="10.00" fill="#000000">Widget</text>
</a>
</g>
</g>
<!-- Node1 -->
<g id="node2" class="node">
<title>Node1</title>
<g id="a_node2"><a xlink:href="../../d8/d37/classSketchWidget.html#ace59bc806c8d3defbd0c6ae157876aaf" target="_top" xlink:title=" ">
<polygon fill="#ffffff" stroke="#000000" points="198,-33 198,-63 361,-63 361,-33 198,-33"/>
<text text-anchor="start" x="206" y="-51" font-family="Helvetica,sans-Serif" font-size="10.00" fill="#000000">SketchWidget::initBackground</text>
<text text-anchor="middle" x="279.5" y="-40" font-family="Helvetica,sans-Serif" font-size="10.00" fill="#000000">Color</text>
</a>
</g>
</g>
<!-- Node0&#45;&gt;Node1 -->
<g id="edge1" class="edge">
<title>Node0&#45;&gt;Node1</title>
<path fill="none" stroke="#191970" d="M162.0238,-48C170.4995,-48 179.1588,-48 187.7429,-48"/>
<polygon fill="#191970" stroke="#191970" points="187.7699,-51.5001 197.7699,-48 187.7698,-44.5001 187.7699,-51.5001"/>
</g>
<!-- Node2 -->
<g id="node3" class="node">
<title>Node2</title>
<g id="a_node3"><a xlink:href="../../d8/d37/classSketchWidget.html#ac483ccccb3d08d709bbb924eac9cdeaf" target="_top" xlink:title=" ">
<polygon fill="#ffffff" stroke="#000000" points="411,-76.5 411,-95.5 573,-95.5 573,-76.5 411,-76.5"/>
<text text-anchor="middle" x="492" y="-83.5" font-family="Helvetica,sans-Serif" font-size="10.00" fill="#000000">SketchWidget::setBackground</text>
</a>
</g>
</g>
<!-- Node1&#45;&gt;Node2 -->
<g id="edge2" class="edge">
<title>Node1&#45;&gt;Node2</title>
<path fill="none" stroke="#191970" d="M361.0503,-62.5831C383.4815,-66.5943 407.4675,-70.8836 428.7015,-74.6807"/>
<polygon fill="#191970" stroke="#191970" points="428.1059,-78.1297 438.5659,-76.4447 429.3382,-71.239 428.1059,-78.1297"/>
</g>
<!-- Node3 -->
<g id="node4" class="node">
<title>Node3</title>
<g id="a_node4"><a xlink:href="../../d8/d37/classSketchWidget.html#aaebec2e699bdf2855979bc62bb6338cd" target="_top" xlink:title=" ">
<polygon fill="#ffffff" stroke="#000000" points="397,-38.5 397,-57.5 587,-57.5 587,-38.5 397,-38.5"/>
<text text-anchor="middle" x="492" y="-45.5" font-family="Helvetica,sans-Serif" font-size="10.00" fill="#000000">SketchWidget::standardBackground</text>
</a>
</g>
</g>
<!-- Node1&#45;&gt;Node3 -->
<g id="edge3" class="edge">
<title>Node1&#45;&gt;Node3</title>
<path fill="none" stroke="#191970" d="M361.0503,-48C369.4628,-48 378.094,-48 386.7167,-48"/>
<polygon fill="#191970" stroke="#191970" points="386.8215,-51.5001 396.8214,-48 386.8214,-44.5001 386.8215,-51.5001"/>
</g>
<!-- Node5 -->
<g id="node6" class="node">
<title>Node5</title>
<g id="a_node6"><a xlink:href="../../d8/d37/classSketchWidget.html#abad7a8845b77406c24fb4b509a9fe74b" target="_top" xlink:title=" ">
<polygon fill="#ffffff" stroke="#000000" points="412,-.5 412,-19.5 572,-19.5 572,-.5 412,-.5"/>
<text text-anchor="middle" x="492" y="-7.5" font-family="Helvetica,sans-Serif" font-size="10.00" fill="#000000">SketchWidget::getShortName</text>
</a>
</g>
</g>
<!-- Node1&#45;&gt;Node5 -->
<g id="edge5" class="edge">
<title>Node1&#45;&gt;Node5</title>
<path fill="none" stroke="#191970" d="M361.0503,-33.4169C383.4815,-29.4057 407.4675,-25.1164 428.7015,-21.3193"/>
<polygon fill="#191970" stroke="#191970" points="429.3382,-24.761 438.5659,-19.5553 428.1059,-17.8703 429.3382,-24.761"/>
</g>
<!-- Node4 -->
<g id="node5" class="node">
<title>Node4</title>
<g id="a_node5"><a xlink:href="../../d1/db9/classRatsnestColors.html#ae24dd044cfa689bb053aa46e5ff28a7a" target="_top" xlink:title=" ">
<polygon fill="#ffffff" stroke="#000000" points="623,-33 623,-63 776,-63 776,-33 623,-33"/>
<text text-anchor="start" x="631" y="-51" font-family="Helvetica,sans-Serif" font-size="10.00" fill="#000000">RatsnestColors::background</text>
<text text-anchor="middle" x="699.5" y="-40" font-family="Helvetica,sans-Serif" font-size="10.00" fill="#000000">Color</text>
</a>
</g>
</g>
<!-- Node3&#45;&gt;Node4 -->
<g id="edge4" class="edge">
<title>Node3&#45;&gt;Node4</title>
<path fill="none" stroke="#191970" d="M587.2477,-48C595.731,-48 604.2905,-48 612.6975,-48"/>
<polygon fill="#191970" stroke="#191970" points="612.8611,-51.5001 622.861,-48 612.861,-44.5001 612.8611,-51.5001"/>
</g>
</g>
</svg>
