<?xml version="1.0" encoding="UTF-8" standalone="no"?>
<!DOCTYPE svg PUBLIC "-//W3C//DTD SVG 1.1//EN"
 "http://www.w3.org/Graphics/SVG/1.1/DTD/svg11.dtd">
<!-- Generated by graphviz version 2.40.1 (0)
 -->
<!-- Title: PrefsDialog::initViewInfo Pages: 1 -->
<svg width="497pt" height="39pt"
 viewBox="0.00 0.00 497.00 39.00" xmlns="http://www.w3.org/2000/svg" xmlns:xlink="http://www.w3.org/1999/xlink">
<g id="graph0" class="graph" transform="scale(1 1) rotate(0) translate(4 35)">
<title>PrefsDialog::initViewInfo</title>
<polygon fill="#ffffff" stroke="transparent" points="-4,4 -4,-35 493,-35 493,4 -4,4"/>
<!-- Node251 -->
<g id="node1" class="node">
<title>Node251</title>
<g id="a_node1"><a xlink:title=" ">
<polygon fill="#bfbfbf" stroke="#000000" points="352,-6 352,-25 489,-25 489,-6 352,-6"/>
<text text-anchor="middle" x="420.5" y="-13" font-family="Helvetica,sans-Serif" font-size="10.00" fill="#000000">PrefsDialog::initViewInfo</text>
</a>
</g>
</g>
<!-- Node252 -->
<g id="node2" class="node">
<title>Node252</title>
<g id="a_node2"><a xlink:href="../../dc/dc7/classFApplication.html#a94d95b7d62b2d23d316cdef716b126b9" target="_top" xlink:title=" ">
<polygon fill="#ffffff" stroke="#000000" points="176,-.5 176,-30.5 316,-30.5 316,-.5 176,-.5"/>
<text text-anchor="start" x="184" y="-18.5" font-family="Helvetica,sans-Serif" font-size="10.00" fill="#000000">FApplication::preferences</text>
<text text-anchor="middle" x="246" y="-7.5" font-family="Helvetica,sans-Serif" font-size="10.00" fill="#000000">After</text>
</a>
</g>
</g>
<!-- Node251&#45;&gt;Node252 -->
<g id="edge1" class="edge">
<title>Node251&#45;&gt;Node252</title>
<path fill="none" stroke="#191970" d="M341.5148,-15.5C333.0357,-15.5 324.4516,-15.5 316.0866,-15.5"/>
<polygon fill="#191970" stroke="#191970" points="341.7835,-19.0001 351.7835,-15.5 341.7834,-12.0001 341.7835,-19.0001"/>
</g>
<!-- Node253 -->
<g id="node3" class="node">
<title>Node253</title>
<g id="a_node3"><a xlink:href="../../dc/dc7/classFApplication.html#abd250bca1fd30e3b4d8c3b8aabfb5311" target="_top" xlink:title=" ">
<polygon fill="#ffffff" stroke="#000000" points="0,-6 0,-25 140,-25 140,-6 0,-6"/>
<text text-anchor="middle" x="70" y="-13" font-family="Helvetica,sans-Serif" font-size="10.00" fill="#000000">FApplication::preferences</text>
</a>
</g>
</g>
<!-- Node252&#45;&gt;Node253 -->
<g id="edge2" class="edge">
<title>Node252&#45;&gt;Node253</title>
<path fill="none" stroke="#191970" d="M165.8994,-15.5C157.2942,-15.5 148.5876,-15.5 140.112,-15.5"/>
<polygon fill="#191970" stroke="#191970" points="165.9345,-19.0001 175.9344,-15.5 165.9344,-12.0001 165.9345,-19.0001"/>
</g>
</g>
</svg>
