<?xml version="1.0" encoding="UTF-8" standalone="no"?>
<!DOCTYPE svg PUBLIC "-//W3C//DTD SVG 1.1//EN"
 "http://www.w3.org/Graphics/SVG/1.1/DTD/svg11.dtd">
<!-- Generated by graphviz version 2.40.1 (0)
 -->
<!-- Title: SVG2gerber::path2gerbCommandSlot Pages: 1 -->
<svg width="359pt" height="104pt"
 viewBox="0.00 0.00 359.00 104.00" xmlns="http://www.w3.org/2000/svg" xmlns:xlink="http://www.w3.org/1999/xlink">
<g id="graph0" class="graph" transform="scale(1 1) rotate(0) translate(4 100)">
<title>SVG2gerber::path2gerbCommandSlot</title>
<polygon fill="#ffffff" stroke="transparent" points="-4,4 -4,-100 355,-100 355,4 -4,4"/>
<!-- Node968 -->
<g id="node1" class="node">
<title>Node968</title>
<g id="a_node1"><a xlink:title=" ">
<polygon fill="#bfbfbf" stroke="#000000" points="0,-38.5 0,-57.5 199,-57.5 199,-38.5 0,-38.5"/>
<text text-anchor="middle" x="99.5" y="-45.5" font-family="Helvetica,sans-Serif" font-size="10.00" fill="#000000">SVG2gerber::path2gerbCommandSlot</text>
</a>
</g>
</g>
<!-- Node969 -->
<g id="node2" class="node">
<title>Node969</title>
<g id="a_node2"><a xlink:href="../../da/d3a/classDebugDialog.html#ad26216d18945d7d7188420707b76f241" target="_top" xlink:title=" ">
<polygon fill="#ffffff" stroke="#000000" points="235,-76.5 235,-95.5 351,-95.5 351,-76.5 235,-76.5"/>
<text text-anchor="middle" x="293" y="-83.5" font-family="Helvetica,sans-Serif" font-size="10.00" fill="#000000">DebugDialog::debug</text>
</a>
</g>
</g>
<!-- Node968&#45;&gt;Node969 -->
<g id="edge1" class="edge">
<title>Node968&#45;&gt;Node969</title>
<path fill="none" stroke="#191970" d="M148.3282,-57.589C174.5528,-62.739 207.0617,-69.1232 234.6162,-74.5344"/>
<polygon fill="#191970" stroke="#191970" points="234.0358,-77.9873 244.5229,-76.4799 235.3848,-71.1185 234.0358,-77.9873"/>
</g>
<!-- Node970 -->
<g id="node3" class="node">
<title>Node970</title>
<g id="a_node3"><a xlink:href="../../d5/da9/classSVG2gerber.html#a074f9c5c7a41b473f054835077ebe183" target="_top" xlink:title=" ">
<polygon fill="#ffffff" stroke="#000000" points="242.5,-38.5 242.5,-57.5 343.5,-57.5 343.5,-38.5 242.5,-38.5"/>
<text text-anchor="middle" x="293" y="-45.5" font-family="Helvetica,sans-Serif" font-size="10.00" fill="#000000">SVG2gerber::flipx</text>
</a>
</g>
</g>
<!-- Node968&#45;&gt;Node970 -->
<g id="edge2" class="edge">
<title>Node968&#45;&gt;Node970</title>
<path fill="none" stroke="#191970" d="M199.0841,-48C210.3352,-48 221.5352,-48 232.0747,-48"/>
<polygon fill="#191970" stroke="#191970" points="232.3715,-51.5001 242.3715,-48 232.3714,-44.5001 232.3715,-51.5001"/>
</g>
<!-- Node971 -->
<g id="node4" class="node">
<title>Node971</title>
<g id="a_node4"><a xlink:href="../../d5/da9/classSVG2gerber.html#a6f8e836e37567c18fec2aa5bc012eb6c" target="_top" xlink:title=" ">
<polygon fill="#ffffff" stroke="#000000" points="242.5,-.5 242.5,-19.5 343.5,-19.5 343.5,-.5 242.5,-.5"/>
<text text-anchor="middle" x="293" y="-7.5" font-family="Helvetica,sans-Serif" font-size="10.00" fill="#000000">SVG2gerber::flipy</text>
</a>
</g>
</g>
<!-- Node968&#45;&gt;Node971 -->
<g id="edge3" class="edge">
<title>Node968&#45;&gt;Node971</title>
<path fill="none" stroke="#191970" d="M148.3282,-38.411C174.5528,-33.261 207.0617,-26.8768 234.6162,-21.4656"/>
<polygon fill="#191970" stroke="#191970" points="235.3848,-24.8815 244.5229,-19.5201 234.0358,-18.0127 235.3848,-24.8815"/>
</g>
</g>
</svg>
