<?xml version="1.0" encoding="UTF-8" standalone="no"?>
<!DOCTYPE svg PUBLIC "-//W3C//DTD SVG 1.1//EN"
 "http://www.w3.org/Graphics/SVG/1.1/DTD/svg11.dtd">
<!-- Generated by graphviz version 2.40.1 (0)
 -->
<!-- Title: SerialPortComboBox Pages: 1 -->
<svg width="144pt" height="171pt"
 viewBox="0.00 0.00 144.00 171.00" xmlns="http://www.w3.org/2000/svg" xmlns:xlink="http://www.w3.org/1999/xlink">
<g id="graph0" class="graph" transform="scale(1 1) rotate(0) translate(4 167)">
<title>SerialPortComboBox</title>
<polygon fill="#ffffff" stroke="transparent" points="-4,4 -4,-167 140,-167 140,4 -4,4"/>
<!-- Node0 -->
<g id="node1" class="node">
<title>Node0</title>
<g id="a_node1"><a xlink:title=" ">
<polygon fill="#bfbfbf" stroke="#000000" points="0,-.5 0,-68.5 136,-68.5 136,-.5 0,-.5"/>
<text text-anchor="middle" x="68" y="-56.5" font-family="Helvetica,sans-Serif" font-size="10.00" fill="#000000">SerialPortComboBox</text>
<polyline fill="none" stroke="#000000" points="0,-49.5 136,-49.5 "/>
<text text-anchor="middle" x="68" y="-37.5" font-family="Helvetica,sans-Serif" font-size="10.00" fill="#000000"> </text>
<polyline fill="none" stroke="#000000" points="0,-30.5 136,-30.5 "/>
<text text-anchor="start" x="8" y="-18.5" font-family="Helvetica,sans-Serif" font-size="10.00" fill="#000000">+ SerialPortComboBox()</text>
<text text-anchor="start" x="8" y="-7.5" font-family="Helvetica,sans-Serif" font-size="10.00" fill="#000000"># showPopup()</text>
</a>
</g>
</g>
<!-- Node1 -->
<g id="node2" class="node">
<title>Node1</title>
<g id="a_node2"><a xlink:href="../../d6/d16/classQComboBox.html" target="_top" xlink:title=" ">
<polygon fill="#ffffff" stroke="#000000" points="29.5,-105.5 29.5,-162.5 106.5,-162.5 106.5,-105.5 29.5,-105.5"/>
<text text-anchor="middle" x="68" y="-150.5" font-family="Helvetica,sans-Serif" font-size="10.00" fill="#000000">QComboBox</text>
<polyline fill="none" stroke="#000000" points="29.5,-143.5 106.5,-143.5 "/>
<text text-anchor="middle" x="68" y="-131.5" font-family="Helvetica,sans-Serif" font-size="10.00" fill="#000000"> </text>
<polyline fill="none" stroke="#000000" points="29.5,-124.5 106.5,-124.5 "/>
<text text-anchor="middle" x="68" y="-112.5" font-family="Helvetica,sans-Serif" font-size="10.00" fill="#000000"> </text>
</a>
</g>
</g>
<!-- Node1&#45;&gt;Node0 -->
<g id="edge1" class="edge">
<title>Node1&#45;&gt;Node0</title>
<path fill="none" stroke="#191970" d="M68,-95.4268C68,-86.6025 68,-77.2834 68,-68.6596"/>
<polygon fill="none" stroke="#191970" points="64.5001,-95.4873 68,-105.4873 71.5001,-95.4873 64.5001,-95.4873"/>
</g>
</g>
</svg>
