<?xml version="1.0" encoding="UTF-8" standalone="no"?>
<!DOCTYPE svg PUBLIC "-//W3C//DTD SVG 1.1//EN"
 "http://www.w3.org/Graphics/SVG/1.1/DTD/svg11.dtd">
<!-- Generated by graphviz version 2.40.1 (0)
 -->
<!-- Title: LockManager::checkLockedFiles Pages: 1 -->
<!--zoomable 165 -->
<svg id="main" version="1.1" xmlns="http://www.w3.org/2000/svg" xmlns:xlink="http://www.w3.org/1999/xlink" xml:space="preserve" onload="init(evt)">
<style type="text/css"><![CDATA[
.edge:hover path { stroke: red; }
.edge:hover polygon { stroke: red; fill: red; }
]]></style>
<script type="text/javascript"><![CDATA[
var edges = document.getElementsByTagName('g');
if (edges && edges.length) {
  for (var i=0;i<edges.length;i++) {
    if (edges[i].id.substr(0,4)=='edge') {
      edges[i].setAttribute('class','edge');
    }
  }
}
]]></script>
        <defs>
                <circle id="rim" cx="0" cy="0" r="7"/>
                <circle id="rim2" cx="0" cy="0" r="3.5"/>
                <g id="zoomPlus">
                        <use xlink:href="#rim" fill="#404040">
                                <set attributeName="fill" to="#808080" begin="zoomplus.mouseover" end="zoomplus.mouseout"/>
                        </use>
                        <path d="M-4,0h8M0,-4v8" fill="none" stroke="white" stroke-width="1.5" pointer-events="none"/>
                </g>
                <g id="zoomMin">
                        <use xlink:href="#rim" fill="#404040">
                                <set attributeName="fill" to="#808080" begin="zoomminus.mouseover" end="zoomminus.mouseout"/>
                        </use>
                        <path d="M-4,0h8" fill="none" stroke="white" stroke-width="1.5" pointer-events="none"/>
                </g>
                <g id="dirArrow">
                        <path fill="none" stroke="white" stroke-width="1.5" d="M0,-3.0v7 M-2.5,-0.5L0,-3.0L2.5,-0.5"/>
                </g>
               <g id="resetDef">
                       <use xlink:href="#rim2" fill="#404040">
                               <set attributeName="fill" to="#808080" begin="reset.mouseover" end="reset.mouseout"/>
                       </use>
               </g>
        </defs>

<script type="text/javascript">
var viewWidth = 670;
var viewHeight = 165;
var sectionId = 'dynsection-2';
</script>
<script xlink:href="../../svgpan.js"/>
<svg id="graph" class="graph">
<g id="viewport">
<title>LockManager::checkLockedFiles</title>
<polygon fill="#ffffff" stroke="transparent" points="-4,4 -4,-160.5 666,-160.5 666,4 -4,4"/>
<!-- Node4 -->
<g id="node1" class="node">
<title>Node4</title>
<g id="a_node1"><a xlink:title=" ">
<polygon fill="#bfbfbf" stroke="#000000" points="0,-55 0,-85 150,-85 150,-55 0,-55"/>
<text text-anchor="start" x="8" y="-73" font-family="Helvetica,sans-Serif" font-size="10.00" fill="#000000">LockManager::checkLocked</text>
<text text-anchor="middle" x="75" y="-62" font-family="Helvetica,sans-Serif" font-size="10.00" fill="#000000">Files</text>
</a>
</g>
</g>
<!-- Node5 -->
<g id="node2" class="node">
<title>Node5</title>
<g id="a_node2"><a xlink:href="../../d9/dc6/classLockManager.html#a0062afe21af04b7fc89cb4ca822ec0f2" target="_top" xlink:title=" ">
<polygon fill="#ffffff" stroke="#000000" points="194,-126 194,-156 344,-156 344,-126 194,-126"/>
<text text-anchor="start" x="202" y="-144" font-family="Helvetica,sans-Serif" font-size="10.00" fill="#000000">LockManager::checkLocked</text>
<text text-anchor="middle" x="269" y="-133" font-family="Helvetica,sans-Serif" font-size="10.00" fill="#000000">FilesAux</text>
</a>
</g>
</g>
<!-- Node4&#45;&gt;Node5 -->
<g id="edge1" class="edge">
<title>Node4&#45;&gt;Node5</title>
<path fill="none" stroke="#191970" d="M107.6231,-85.0254C129.5271,-94.8119 159.1779,-107.4816 186,-117 191.6148,-118.9925 197.4852,-120.9445 203.3969,-122.8205"/>
<polygon fill="#191970" stroke="#191970" points="202.759,-126.2868 213.3468,-125.8998 204.8286,-119.5997 202.759,-126.2868"/>
</g>
<!-- Node6 -->
<g id="node3" class="node">
<title>Node6</title>
<g id="a_node3"><a xlink:href="../../dd/d63/classFolderUtils.html#a0d2abc6f2d60de8fbef3040aee803080" target="_top" xlink:title=" ">
<polygon fill="#ffffff" stroke="#000000" points="202,-77 202,-107 336,-107 336,-77 202,-77"/>
<text text-anchor="start" x="210" y="-95" font-family="Helvetica,sans-Serif" font-size="10.00" fill="#000000">FolderUtils::getTopLevel</text>
<text text-anchor="middle" x="269" y="-84" font-family="Helvetica,sans-Serif" font-size="10.00" fill="#000000">UserDataStorePath</text>
</a>
</g>
</g>
<!-- Node4&#45;&gt;Node6 -->
<g id="edge2" class="edge">
<title>Node4&#45;&gt;Node6</title>
<path fill="none" stroke="#191970" d="M150.0055,-78.5058C163.6,-80.0474 177.8031,-81.6581 191.4684,-83.2078"/>
<polygon fill="#191970" stroke="#191970" points="191.4639,-86.7296 201.7947,-84.3788 192.2527,-79.7742 191.4639,-86.7296"/>
</g>
<!-- Node7 -->
<g id="node4" class="node">
<title>Node7</title>
<g id="a_node4"><a xlink:href="../../d9/dc6/classLockManager.html#af2d00c0d8ed33bcd024aaa24096208b2" target="_top" xlink:title=" ">
<polygon fill="#ffffff" stroke="#000000" points="186,-38.5 186,-57.5 352,-57.5 352,-38.5 186,-38.5"/>
<text text-anchor="middle" x="269" y="-45.5" font-family="Helvetica,sans-Serif" font-size="10.00" fill="#000000">LockManager::makeLockedFile</text>
</a>
</g>
</g>
<!-- Node4&#45;&gt;Node7 -->
<g id="edge3" class="edge">
<title>Node4&#45;&gt;Node7</title>
<path fill="none" stroke="#191970" d="M150.0055,-61.4942C158.4354,-60.5382 167.0994,-59.5557 175.724,-58.5777"/>
<polygon fill="#191970" stroke="#191970" points="176.2722,-62.038 185.8141,-57.4335 175.4834,-55.0826 176.2722,-62.038"/>
</g>
<!-- Node10 -->
<g id="node7" class="node">
<title>Node10</title>
<g id="a_node7"><a xlink:href="../../dd/d63/classFolderUtils.html#a714dffeb9966767ba34d521fafb0f219" target="_top" xlink:title=" ">
<polygon fill="#ffffff" stroke="#000000" points="218.5,-.5 218.5,-19.5 319.5,-19.5 319.5,-.5 218.5,-.5"/>
<text text-anchor="middle" x="269" y="-7.5" font-family="Helvetica,sans-Serif" font-size="10.00" fill="#000000">FolderUtils::rmdir</text>
</a>
</g>
</g>
<!-- Node4&#45;&gt;Node10 -->
<g id="edge7" class="edge">
<title>Node4&#45;&gt;Node10</title>
<path fill="none" stroke="#191970" d="M112.1025,-54.9321C133.4816,-46.595 160.9951,-36.4463 186,-29 194.5437,-26.4557 203.668,-24.0558 212.6252,-21.8734"/>
<polygon fill="#191970" stroke="#191970" points="213.7025,-25.2152 222.6273,-19.5058 212.09,-18.4035 213.7025,-25.2152"/>
</g>
<!-- Node8 -->
<g id="node5" class="node">
<title>Node8</title>
<g id="a_node5"><a xlink:href="../../d2/dfb/structLockedFile.html#a1cc1f64365e500f59da6b98822fddcf9" target="_top" xlink:title=" ">
<polygon fill="#ffffff" stroke="#000000" points="561,-38.5 561,-57.5 662,-57.5 662,-38.5 561,-38.5"/>
<text text-anchor="middle" x="611.5" y="-45.5" font-family="Helvetica,sans-Serif" font-size="10.00" fill="#000000">LockedFile::touch</text>
</a>
</g>
</g>
<!-- Node7&#45;&gt;Node8 -->
<g id="edge4" class="edge">
<title>Node7&#45;&gt;Node8</title>
<path fill="none" stroke="#191970" d="M352.347,-48C413.5478,-48 495.2987,-48 550.4859,-48"/>
<polygon fill="#191970" stroke="#191970" points="550.8125,-51.5001 560.8125,-48 550.8125,-44.5001 550.8125,-51.5001"/>
</g>
<!-- Node9 -->
<g id="node6" class="node">
<title>Node9</title>
<g id="a_node6"><a xlink:href="../../d9/dc6/classLockManager.html#ad613c0d86cd9dea15a3a7287092842e3" target="_top" xlink:title=" ">
<polygon fill="#ffffff" stroke="#000000" points="388,-19.5 388,-38.5 525,-38.5 525,-19.5 388,-19.5"/>
<text text-anchor="middle" x="456.5" y="-26.5" font-family="Helvetica,sans-Serif" font-size="10.00" fill="#000000">LockManager::touchFiles</text>
</a>
</g>
</g>
<!-- Node7&#45;&gt;Node9 -->
<g id="edge5" class="edge">
<title>Node7&#45;&gt;Node9</title>
<path fill="none" stroke="#191970" d="M352.059,-39.5833C360.5551,-38.7224 369.1698,-37.8495 377.6192,-36.9933"/>
<polygon fill="#191970" stroke="#191970" points="378.2283,-40.4495 387.8245,-35.9591 377.5225,-33.4852 378.2283,-40.4495"/>
</g>
<!-- Node9&#45;&gt;Node8 -->
<g id="edge6" class="edge">
<title>Node9&#45;&gt;Node8</title>
<path fill="none" stroke="#191970" d="M525.3879,-37.4443C533.8952,-38.4871 542.5426,-39.5472 550.9132,-40.5732"/>
<polygon fill="#191970" stroke="#191970" points="550.6067,-44.0618 560.9583,-41.8046 551.4585,-37.1138 550.6067,-44.0618"/>
</g>
</g>
</svg>
        <g id="navigator" transform="translate(0 0)" fill="#404254">
                <rect fill="#f2f5e9" fill-opacity="0.5" stroke="#606060" stroke-width=".5" x="0" y="0" width="60" height="60"/>
                <use id="zoomplus" xlink:href="#zoomPlus" x="17" y="9" onmousedown="handleZoom(evt,'in')"/>
                <use id="zoomminus" xlink:href="#zoomMin" x="42" y="9" onmousedown="handleZoom(evt,'out')"/>
                <use id="reset" xlink:href="#resetDef" x="30" y="36" onmousedown="handleReset()"/>
                <g id="arrowUp" xlink:href="#dirArrow" transform="translate(30 24)" onmousedown="handlePan(0,-1)">
                  <use xlink:href="#rim" fill="#404040">
                        <set attributeName="fill" to="#808080" begin="arrowUp.mouseover" end="arrowUp.mouseout"/>
                  </use>
                  <path fill="none" stroke="white" stroke-width="1.5" d="M0,-3.0v7 M-2.5,-0.5L0,-3.0L2.5,-0.5"/>
                </g>
                <g id="arrowRight" xlink:href="#dirArrow" transform="rotate(90) translate(36 -43)" onmousedown="handlePan(1,0)">
                  <use xlink:href="#rim" fill="#404040">
                        <set attributeName="fill" to="#808080" begin="arrowRight.mouseover" end="arrowRight.mouseout"/>
                  </use>
                  <path fill="none" stroke="white" stroke-width="1.5" d="M0,-3.0v7 M-2.5,-0.5L0,-3.0L2.5,-0.5"/>
                </g>
                <g id="arrowDown" xlink:href="#dirArrow" transform="rotate(180) translate(-30 -48)" onmousedown="handlePan(0,1)">
                  <use xlink:href="#rim" fill="#404040">
                        <set attributeName="fill" to="#808080" begin="arrowDown.mouseover" end="arrowDown.mouseout"/>
                  </use>
                  <path fill="none" stroke="white" stroke-width="1.5" d="M0,-3.0v7 M-2.5,-0.5L0,-3.0L2.5,-0.5"/>
                </g>
                <g id="arrowLeft" xlink:href="#dirArrow" transform="rotate(270) translate(-36 17)" onmousedown="handlePan(-1,0)">
                  <use xlink:href="#rim" fill="#404040">
                        <set attributeName="fill" to="#808080" begin="arrowLeft.mouseover" end="arrowLeft.mouseout"/>
                  </use>
                  <path fill="none" stroke="white" stroke-width="1.5" d="M0,-3.0v7 M-2.5,-0.5L0,-3.0L2.5,-0.5"/>
                </g>
        </g>
        <svg viewBox="0 0 15 15" width="100%" height="30px" preserveAspectRatio="xMaxYMin meet">
         <g id="arrow_out" transform="scale(0.3 0.3)">
          <a xlink:href="classLockManager_a5ce8dd66443e872d56aefb998636af6d_cgraph_org.svg" target="_base">
           <rect id="button" ry="5" rx="5" y="6" x="6" height="38" width="38"
                fill="#f2f5e9" fill-opacity="0.5" stroke="#606060" stroke-width="1.0"/>
           <path id="arrow"
             d="M 11.500037,31.436501 C 11.940474,20.09759 22.043105,11.32322 32.158766,21.979434 L 37.068811,17.246167 C 37.068811,17.246167 37.088388,32 37.088388,32 L 22.160133,31.978069 C 22.160133,31.978069 26.997745,27.140456 26.997745,27.140456 C 18.528582,18.264221 13.291696,25.230495 11.500037,31.436501 z"
             style="fill:#404040;"/>
          </a>
         </g>
        </svg>
</svg>
