<?xml version="1.0" encoding="UTF-8" standalone="no"?>
<!DOCTYPE svg PUBLIC "-//W3C//DTD SVG 1.1//EN"
 "http://www.w3.org/Graphics/SVG/1.1/DTD/svg11.dtd">
<!-- Generated by graphviz version 2.40.1 (0)
 -->
<!-- Title: PartsBinIconView::setPaletteModel Pages: 1 -->
<!--zoomable 192 -->
<svg id="main" version="1.1" xmlns="http://www.w3.org/2000/svg" xmlns:xlink="http://www.w3.org/1999/xlink" xml:space="preserve" onload="init(evt)">
<style type="text/css"><![CDATA[
.edge:hover path { stroke: red; }
.edge:hover polygon { stroke: red; fill: red; }
]]></style>
<script type="text/javascript"><![CDATA[
var edges = document.getElementsByTagName('g');
if (edges && edges.length) {
  for (var i=0;i<edges.length;i++) {
    if (edges[i].id.substr(0,4)=='edge') {
      edges[i].setAttribute('class','edge');
    }
  }
}
]]></script>
        <defs>
                <circle id="rim" cx="0" cy="0" r="7"/>
                <circle id="rim2" cx="0" cy="0" r="3.5"/>
                <g id="zoomPlus">
                        <use xlink:href="#rim" fill="#404040">
                                <set attributeName="fill" to="#808080" begin="zoomplus.mouseover" end="zoomplus.mouseout"/>
                        </use>
                        <path d="M-4,0h8M0,-4v8" fill="none" stroke="white" stroke-width="1.5" pointer-events="none"/>
                </g>
                <g id="zoomMin">
                        <use xlink:href="#rim" fill="#404040">
                                <set attributeName="fill" to="#808080" begin="zoomminus.mouseover" end="zoomminus.mouseout"/>
                        </use>
                        <path d="M-4,0h8" fill="none" stroke="white" stroke-width="1.5" pointer-events="none"/>
                </g>
                <g id="dirArrow">
                        <path fill="none" stroke="white" stroke-width="1.5" d="M0,-3.0v7 M-2.5,-0.5L0,-3.0L2.5,-0.5"/>
                </g>
               <g id="resetDef">
                       <use xlink:href="#rim2" fill="#404040">
                               <set attributeName="fill" to="#808080" begin="reset.mouseover" end="reset.mouseout"/>
                       </use>
               </g>
        </defs>

<script type="text/javascript">
var viewWidth = 945;
var viewHeight = 192;
var sectionId = 'dynsection-38';
</script>
<script xlink:href="../../svgpan.js"/>
<svg id="graph" class="graph">
<g id="viewport">
<title>PartsBinIconView::setPaletteModel</title>
<polygon fill="#ffffff" stroke="transparent" points="-4,4 -4,-187.5 941,-187.5 941,4 -4,4"/>
<!-- Node357 -->
<g id="node1" class="node">
<title>Node357</title>
<g id="a_node1"><a xlink:title=" ">
<polygon fill="#bfbfbf" stroke="#000000" points="0,-41.5 0,-71.5 155,-71.5 155,-41.5 0,-41.5"/>
<text text-anchor="start" x="8" y="-59.5" font-family="Helvetica,sans-Serif" font-size="10.00" fill="#000000">PartsBinIconView::setPalette</text>
<text text-anchor="middle" x="77.5" y="-48.5" font-family="Helvetica,sans-Serif" font-size="10.00" fill="#000000">Model</text>
</a>
</g>
</g>
<!-- Node358 -->
<g id="node2" class="node">
<title>Node358</title>
<g id="a_node2"><a xlink:href="../../d8/da3/classPartsBinView.html#a29a536728b4d16f92c8d7b71412c5553" target="_top" xlink:title=" ">
<polygon fill="#ffffff" stroke="#000000" points="204,-82.5 204,-112.5 338,-112.5 338,-82.5 204,-82.5"/>
<text text-anchor="start" x="212" y="-100.5" font-family="Helvetica,sans-Serif" font-size="10.00" fill="#000000">PartsBinView::setPalette</text>
<text text-anchor="middle" x="271" y="-89.5" font-family="Helvetica,sans-Serif" font-size="10.00" fill="#000000">Model</text>
</a>
</g>
</g>
<!-- Node357&#45;&gt;Node358 -->
<g id="edge1" class="edge">
<title>Node357&#45;&gt;Node358</title>
<path fill="none" stroke="#191970" d="M148.4535,-71.5341C163.3181,-74.6837 179.0591,-78.019 194.1278,-81.2118"/>
<polygon fill="#191970" stroke="#191970" points="193.4087,-84.6371 203.917,-83.286 194.8597,-77.7891 193.4087,-84.6371"/>
</g>
<!-- Node363 -->
<g id="node7" class="node">
<title>Node363</title>
<g id="a_node7"><a xlink:href="../../d8/dee/classPartsBinIconView.html#a818cc13f88ad2d3c2b07596a9afc070e" target="_top" xlink:title=" ">
<polygon fill="#ffffff" stroke="#000000" points="191,-25 191,-44 351,-44 351,-25 191,-25"/>
<text text-anchor="middle" x="271" y="-32" font-family="Helvetica,sans-Serif" font-size="10.00" fill="#000000">PartsBinIconView::updateSize</text>
</a>
</g>
</g>
<!-- Node357&#45;&gt;Node363 -->
<g id="edge7" class="edge">
<title>Node357&#45;&gt;Node363</title>
<path fill="none" stroke="#191970" d="M155.0889,-47.6785C163.5529,-46.7162 172.2207,-45.7307 180.819,-44.7531"/>
<polygon fill="#191970" stroke="#191970" points="181.3238,-48.2184 190.8644,-43.611 180.533,-41.2632 181.3238,-48.2184"/>
</g>
<!-- Node359 -->
<g id="node3" class="node">
<title>Node359</title>
<g id="a_node3"><a xlink:href="../../d8/da3/classPartsBinView.html#a1481470d0e423fcc21b98122e6dfbb22" target="_top" xlink:title=" ">
<polygon fill="#ffffff" stroke="#000000" points="395.5,-164 395.5,-183 518.5,-183 518.5,-164 395.5,-164"/>
<text text-anchor="middle" x="457" y="-171" font-family="Helvetica,sans-Serif" font-size="10.00" fill="#000000">PartsBinView::doClear</text>
</a>
</g>
</g>
<!-- Node358&#45;&gt;Node359 -->
<g id="edge2" class="edge">
<title>Node358&#45;&gt;Node359</title>
<path fill="none" stroke="#191970" d="M297.9974,-112.6118C321.0968,-125.0885 355.5098,-142.6152 387,-154.5 393.3325,-156.89 400.0917,-159.1139 406.8192,-161.1362"/>
<polygon fill="#191970" stroke="#191970" points="406.0219,-164.5487 416.5998,-163.9507 407.9577,-157.8217 406.0219,-164.5487"/>
</g>
<!-- Node360 -->
<g id="node4" class="node">
<title>Node360</title>
<g id="a_node4"><a xlink:href="../../d0/d49/classModelBase.html#aa720e23b5ac99421022c412380c9ace3" target="_top" xlink:title=" ">
<polygon fill="#ffffff" stroke="#000000" points="409,-126 409,-145 505,-145 505,-126 409,-126"/>
<text text-anchor="middle" x="457" y="-133" font-family="Helvetica,sans-Serif" font-size="10.00" fill="#000000">ModelBase::root</text>
</a>
</g>
</g>
<!-- Node358&#45;&gt;Node360 -->
<g id="edge3" class="edge">
<title>Node358&#45;&gt;Node360</title>
<path fill="none" stroke="#191970" d="M338.1503,-111.2189C358.5309,-115.3827 380.7107,-119.914 400.3308,-123.9224"/>
<polygon fill="#191970" stroke="#191970" points="399.8362,-127.3936 410.3344,-125.9662 401.2374,-120.5353 399.8362,-127.3936"/>
</g>
<!-- Node361 -->
<g id="node5" class="node">
<title>Node361</title>
<g id="a_node5"><a xlink:href="../../d8/da3/classPartsBinView.html#a01dd8201caaf3868eadbc9bd72cea067" target="_top" xlink:title=" ">
<polygon fill="#ffffff" stroke="#000000" points="563,-69 563,-88 705,-88 705,-69 563,-69"/>
<text text-anchor="middle" x="634" y="-76" font-family="Helvetica,sans-Serif" font-size="10.00" fill="#000000">PartsBinView::setItemAux</text>
</a>
</g>
</g>
<!-- Node358&#45;&gt;Node361 -->
<g id="edge4" class="edge">
<title>Node358&#45;&gt;Node361</title>
<path fill="none" stroke="#191970" d="M338.0028,-93.993C398.5753,-90.8225 487.9042,-86.1469 552.5741,-82.762"/>
<polygon fill="#191970" stroke="#191970" points="552.93,-86.2482 562.7333,-82.2302 552.564,-79.2578 552.93,-86.2482"/>
</g>
<!-- Node362 -->
<g id="node6" class="node">
<title>Node362</title>
<g id="a_node6"><a xlink:href="../../d8/da3/classPartsBinView.html#af6249c9078388649566d5911a6639b43" target="_top" xlink:title=" ">
<polygon fill="#ffffff" stroke="#000000" points="395.5,-50 395.5,-69 518.5,-69 518.5,-50 395.5,-50"/>
<text text-anchor="middle" x="457" y="-57" font-family="Helvetica,sans-Serif" font-size="10.00" fill="#000000">PartsBinView::setItem</text>
</a>
</g>
</g>
<!-- Node358&#45;&gt;Node362 -->
<g id="edge5" class="edge">
<title>Node358&#45;&gt;Node362</title>
<path fill="none" stroke="#191970" d="M338.1503,-83.7811C358.5309,-79.6173 380.7107,-75.086 400.3308,-71.0776"/>
<polygon fill="#191970" stroke="#191970" points="401.2374,-74.4647 410.3344,-69.0338 399.8362,-67.6064 401.2374,-74.4647"/>
</g>
<!-- Node362&#45;&gt;Node361 -->
<g id="edge6" class="edge">
<title>Node362&#45;&gt;Node361</title>
<path fill="none" stroke="#191970" d="M518.906,-66.1453C529.8549,-67.3206 541.4024,-68.5601 552.7879,-69.7823"/>
<polygon fill="#191970" stroke="#191970" points="552.4161,-73.2624 562.7326,-70.8498 553.1633,-66.3024 552.4161,-73.2624"/>
</g>
<!-- Node364 -->
<g id="node8" class="node">
<title>Node364</title>
<g id="a_node8"><a xlink:href="../../d8/dee/classPartsBinIconView.html#a52cb4d6ad8545cf34df3c8de06afcd0c" target="_top" xlink:title=" ">
<polygon fill="#ffffff" stroke="#000000" points="387,-.5 387,-30.5 527,-30.5 527,-.5 387,-.5"/>
<text text-anchor="start" x="395" y="-18.5" font-family="Helvetica,sans-Serif" font-size="10.00" fill="#000000">PartsBinIconView::update</text>
<text text-anchor="middle" x="457" y="-7.5" font-family="Helvetica,sans-Serif" font-size="10.00" fill="#000000">SizeAux</text>
</a>
</g>
</g>
<!-- Node363&#45;&gt;Node364 -->
<g id="edge8" class="edge">
<title>Node363&#45;&gt;Node364</title>
<path fill="none" stroke="#191970" d="M351.2303,-26.3044C359.6883,-25.4404 368.2899,-24.5618 376.7481,-23.6978"/>
<polygon fill="#191970" stroke="#191970" points="377.3824,-27.1513 386.9749,-22.6531 376.6709,-20.1875 377.3824,-27.1513"/>
</g>
<!-- Node365 -->
<g id="node9" class="node">
<title>Node365</title>
<g id="a_node9"><a xlink:href="../../d4/d68/classGraphicsFlowLayout.html#a638700c37415a199eb80aaa32f1741a4" target="_top" xlink:title=" ">
<polygon fill="#ffffff" stroke="#000000" points="576,-.5 576,-30.5 692,-30.5 692,-.5 576,-.5"/>
<text text-anchor="start" x="584" y="-18.5" font-family="Helvetica,sans-Serif" font-size="10.00" fill="#000000">GraphicsFlowLayout</text>
<text text-anchor="middle" x="634" y="-7.5" font-family="Helvetica,sans-Serif" font-size="10.00" fill="#000000">::heightForWidth</text>
</a>
</g>
</g>
<!-- Node364&#45;&gt;Node365 -->
<g id="edge9" class="edge">
<title>Node364&#45;&gt;Node365</title>
<path fill="none" stroke="#191970" d="M527.2093,-15.5C539.9278,-15.5 553.1734,-15.5 565.8322,-15.5"/>
<polygon fill="#191970" stroke="#191970" points="565.8373,-19.0001 575.8372,-15.5 565.8372,-12.0001 565.8373,-19.0001"/>
</g>
<!-- Node366 -->
<g id="node10" class="node">
<title>Node366</title>
<g id="a_node10"><a xlink:href="../../d4/d68/classGraphicsFlowLayout.html#a6ea0fadc3f302b08fd5a22d64d427076" target="_top" xlink:title=" ">
<polygon fill="#ffffff" stroke="#000000" points="741,-.5 741,-30.5 857,-30.5 857,-.5 741,-.5"/>
<text text-anchor="start" x="749" y="-18.5" font-family="Helvetica,sans-Serif" font-size="10.00" fill="#000000">GraphicsFlowLayout</text>
<text text-anchor="middle" x="799" y="-7.5" font-family="Helvetica,sans-Serif" font-size="10.00" fill="#000000">::doLayout</text>
</a>
</g>
</g>
<!-- Node365&#45;&gt;Node366 -->
<g id="edge10" class="edge">
<title>Node365&#45;&gt;Node366</title>
<path fill="none" stroke="#191970" d="M692.1728,-15.5C704.6187,-15.5 717.8758,-15.5 730.6647,-15.5"/>
<polygon fill="#191970" stroke="#191970" points="730.7964,-19.0001 740.7963,-15.5 730.7963,-12.0001 730.7964,-19.0001"/>
</g>
<!-- Node367 -->
<g id="node11" class="node">
<title>Node367</title>
<g id="a_node11"><a xlink:href="../../d4/d08/misc_8h.html#ae7cc352fa1dc81e57ff53ebbc762f27d" target="_top" xlink:title=" ">
<polygon fill="#ffffff" stroke="#000000" points="893,-6 893,-25 937,-25 937,-6 893,-6"/>
<text text-anchor="middle" x="915" y="-13" font-family="Helvetica,sans-Serif" font-size="10.00" fill="#000000">qMax</text>
</a>
</g>
</g>
<!-- Node366&#45;&gt;Node367 -->
<g id="edge11" class="edge">
<title>Node366&#45;&gt;Node367</title>
<path fill="none" stroke="#191970" d="M857.3398,-15.5C866.0283,-15.5 874.7066,-15.5 882.5948,-15.5"/>
<polygon fill="#191970" stroke="#191970" points="882.7885,-19.0001 892.7884,-15.5 882.7884,-12.0001 882.7885,-19.0001"/>
</g>
</g>
</svg>
        <g id="navigator" transform="translate(0 0)" fill="#404254">
                <rect fill="#f2f5e9" fill-opacity="0.5" stroke="#606060" stroke-width=".5" x="0" y="0" width="60" height="60"/>
                <use id="zoomplus" xlink:href="#zoomPlus" x="17" y="9" onmousedown="handleZoom(evt,'in')"/>
                <use id="zoomminus" xlink:href="#zoomMin" x="42" y="9" onmousedown="handleZoom(evt,'out')"/>
                <use id="reset" xlink:href="#resetDef" x="30" y="36" onmousedown="handleReset()"/>
                <g id="arrowUp" xlink:href="#dirArrow" transform="translate(30 24)" onmousedown="handlePan(0,-1)">
                  <use xlink:href="#rim" fill="#404040">
                        <set attributeName="fill" to="#808080" begin="arrowUp.mouseover" end="arrowUp.mouseout"/>
                  </use>
                  <path fill="none" stroke="white" stroke-width="1.5" d="M0,-3.0v7 M-2.5,-0.5L0,-3.0L2.5,-0.5"/>
                </g>
                <g id="arrowRight" xlink:href="#dirArrow" transform="rotate(90) translate(36 -43)" onmousedown="handlePan(1,0)">
                  <use xlink:href="#rim" fill="#404040">
                        <set attributeName="fill" to="#808080" begin="arrowRight.mouseover" end="arrowRight.mouseout"/>
                  </use>
                  <path fill="none" stroke="white" stroke-width="1.5" d="M0,-3.0v7 M-2.5,-0.5L0,-3.0L2.5,-0.5"/>
                </g>
                <g id="arrowDown" xlink:href="#dirArrow" transform="rotate(180) translate(-30 -48)" onmousedown="handlePan(0,1)">
                  <use xlink:href="#rim" fill="#404040">
                        <set attributeName="fill" to="#808080" begin="arrowDown.mouseover" end="arrowDown.mouseout"/>
                  </use>
                  <path fill="none" stroke="white" stroke-width="1.5" d="M0,-3.0v7 M-2.5,-0.5L0,-3.0L2.5,-0.5"/>
                </g>
                <g id="arrowLeft" xlink:href="#dirArrow" transform="rotate(270) translate(-36 17)" onmousedown="handlePan(-1,0)">
                  <use xlink:href="#rim" fill="#404040">
                        <set attributeName="fill" to="#808080" begin="arrowLeft.mouseover" end="arrowLeft.mouseout"/>
                  </use>
                  <path fill="none" stroke="white" stroke-width="1.5" d="M0,-3.0v7 M-2.5,-0.5L0,-3.0L2.5,-0.5"/>
                </g>
        </g>
        <svg viewBox="0 0 15 15" width="100%" height="30px" preserveAspectRatio="xMaxYMin meet">
         <g id="arrow_out" transform="scale(0.3 0.3)">
          <a xlink:href="classPartsBinIconView_ae4a73b0dd232365c26369ed7ce5055f5_cgraph_org.svg" target="_base">
           <rect id="button" ry="5" rx="5" y="6" x="6" height="38" width="38"
                fill="#f2f5e9" fill-opacity="0.5" stroke="#606060" stroke-width="1.0"/>
           <path id="arrow"
             d="M 11.500037,31.436501 C 11.940474,20.09759 22.043105,11.32322 32.158766,21.979434 L 37.068811,17.246167 C 37.068811,17.246167 37.088388,32 37.088388,32 L 22.160133,31.978069 C 22.160133,31.978069 26.997745,27.140456 26.997745,27.140456 C 18.528582,18.264221 13.291696,25.230495 11.500037,31.436501 z"
             style="fill:#404040;"/>
          </a>
         </g>
        </svg>
</svg>
