<?xml version="1.0" encoding="UTF-8" standalone="no"?>
<!DOCTYPE svg PUBLIC "-//W3C//DTD SVG 1.1//EN"
 "http://www.w3.org/Graphics/SVG/1.1/DTD/svg11.dtd">
<!-- Generated by graphviz version 2.40.1 (0)
 -->
<!-- Title: PartsBinIconView::selectedIndex Pages: 1 -->
<svg width="530pt" height="39pt"
 viewBox="0.00 0.00 530.00 39.00" xmlns="http://www.w3.org/2000/svg" xmlns:xlink="http://www.w3.org/1999/xlink">
<g id="graph0" class="graph" transform="scale(1 1) rotate(0) translate(4 35)">
<title>PartsBinIconView::selectedIndex</title>
<polygon fill="#ffffff" stroke="transparent" points="-4,4 -4,-35 526,-35 526,4 -4,4"/>
<!-- Node317 -->
<g id="node1" class="node">
<title>Node317</title>
<g id="a_node1"><a xlink:title=" ">
<polygon fill="#bfbfbf" stroke="#000000" points="375,-.5 375,-30.5 522,-30.5 522,-.5 375,-.5"/>
<text text-anchor="start" x="383" y="-18.5" font-family="Helvetica,sans-Serif" font-size="10.00" fill="#000000">PartsBinIconView::selected</text>
<text text-anchor="middle" x="448.5" y="-7.5" font-family="Helvetica,sans-Serif" font-size="10.00" fill="#000000">Index</text>
</a>
</g>
</g>
<!-- Node318 -->
<g id="node2" class="node">
<title>Node318</title>
<g id="a_node2"><a xlink:href="../../d8/dee/classPartsBinIconView.html#ae0ed330d7c0ef22a3a8b0d443c79251b" target="_top" xlink:title=" ">
<polygon fill="#ffffff" stroke="#000000" points="201,-.5 201,-30.5 339,-30.5 339,-.5 201,-.5"/>
<text text-anchor="start" x="209" y="-18.5" font-family="Helvetica,sans-Serif" font-size="10.00" fill="#000000">PartsBinIconView::inform</text>
<text text-anchor="middle" x="270" y="-7.5" font-family="Helvetica,sans-Serif" font-size="10.00" fill="#000000">NewSelection</text>
</a>
</g>
</g>
<!-- Node317&#45;&gt;Node318 -->
<g id="edge1" class="edge">
<title>Node317&#45;&gt;Node318</title>
<path fill="none" stroke="#191970" d="M364.8298,-15.5C356.2365,-15.5 347.5739,-15.5 339.1624,-15.5"/>
<polygon fill="#191970" stroke="#191970" points="364.8667,-19.0001 374.8667,-15.5 364.8666,-12.0001 364.8667,-19.0001"/>
</g>
<!-- Node319 -->
<g id="node3" class="node">
<title>Node319</title>
<g id="a_node3"><a xlink:href="../../d8/dee/classPartsBinIconView.html#a4e2e63e3efdb5a5d372f968cff85124f" target="_top" xlink:title=" ">
<polygon fill="#ffffff" stroke="#000000" points="0,-.5 0,-30.5 165,-30.5 165,-.5 0,-.5"/>
<text text-anchor="start" x="8" y="-18.5" font-family="Helvetica,sans-Serif" font-size="10.00" fill="#000000">PartsBinIconView::mousePress</text>
<text text-anchor="middle" x="82.5" y="-7.5" font-family="Helvetica,sans-Serif" font-size="10.00" fill="#000000">Event</text>
</a>
</g>
</g>
<!-- Node318&#45;&gt;Node319 -->
<g id="edge2" class="edge">
<title>Node318&#45;&gt;Node319</title>
<path fill="none" stroke="#191970" d="M190.7198,-15.5C182.2258,-15.5 173.5694,-15.5 165.0387,-15.5"/>
<polygon fill="#191970" stroke="#191970" points="190.9807,-19.0001 200.9807,-15.5 190.9807,-12.0001 190.9807,-19.0001"/>
</g>
</g>
</svg>
