<?xml version="1.0" encoding="UTF-8" standalone="no"?>
<!DOCTYPE svg PUBLIC "-//W3C//DTD SVG 1.1//EN"
 "http://www.w3.org/Graphics/SVG/1.1/DTD/svg11.dtd">
<!-- Generated by graphviz version 2.40.1 (0)
 -->
<!-- Title: PartsBinIconView::setSelected Pages: 1 -->
<!--zoomable 127 -->
<svg id="main" version="1.1" xmlns="http://www.w3.org/2000/svg" xmlns:xlink="http://www.w3.org/1999/xlink" xml:space="preserve" onload="init(evt)">
<style type="text/css"><![CDATA[
.edge:hover path { stroke: red; }
.edge:hover polygon { stroke: red; fill: red; }
]]></style>
<script type="text/javascript"><![CDATA[
var edges = document.getElementsByTagName('g');
if (edges && edges.length) {
  for (var i=0;i<edges.length;i++) {
    if (edges[i].id.substr(0,4)=='edge') {
      edges[i].setAttribute('class','edge');
    }
  }
}
]]></script>
        <defs>
                <circle id="rim" cx="0" cy="0" r="7"/>
                <circle id="rim2" cx="0" cy="0" r="3.5"/>
                <g id="zoomPlus">
                        <use xlink:href="#rim" fill="#404040">
                                <set attributeName="fill" to="#808080" begin="zoomplus.mouseover" end="zoomplus.mouseout"/>
                        </use>
                        <path d="M-4,0h8M0,-4v8" fill="none" stroke="white" stroke-width="1.5" pointer-events="none"/>
                </g>
                <g id="zoomMin">
                        <use xlink:href="#rim" fill="#404040">
                                <set attributeName="fill" to="#808080" begin="zoomminus.mouseover" end="zoomminus.mouseout"/>
                        </use>
                        <path d="M-4,0h8" fill="none" stroke="white" stroke-width="1.5" pointer-events="none"/>
                </g>
                <g id="dirArrow">
                        <path fill="none" stroke="white" stroke-width="1.5" d="M0,-3.0v7 M-2.5,-0.5L0,-3.0L2.5,-0.5"/>
                </g>
               <g id="resetDef">
                       <use xlink:href="#rim2" fill="#404040">
                               <set attributeName="fill" to="#808080" begin="reset.mouseover" end="reset.mouseout"/>
                       </use>
               </g>
        </defs>

<script type="text/javascript">
var viewWidth = 1184;
var viewHeight = 127;
var sectionId = 'dynsection-40';
</script>
<script xlink:href="../../svgpan.js"/>
<svg id="graph" class="graph">
<g id="viewport">
<title>PartsBinIconView::setSelected</title>
<polygon fill="#ffffff" stroke="transparent" points="-4,4 -4,-122.5 1180,-122.5 1180,4 -4,4"/>
<!-- Node401 -->
<g id="node1" class="node">
<title>Node401</title>
<g id="a_node1"><a xlink:title=" ">
<polygon fill="#bfbfbf" stroke="#000000" points="1013,-33 1013,-52 1176,-52 1176,-33 1013,-33"/>
<text text-anchor="middle" x="1094.5" y="-40" font-family="Helvetica,sans-Serif" font-size="10.00" fill="#000000">PartsBinIconView::setSelected</text>
</a>
</g>
</g>
<!-- Node402 -->
<g id="node2" class="node">
<title>Node402</title>
<g id="a_node2"><a xlink:href="../../d8/dee/classPartsBinIconView.html#a9484c13d29b4ea9f8c54401d7839fcfb" target="_top" xlink:title=" ">
<polygon fill="#ffffff" stroke="#000000" points="815,-53 815,-72 977,-72 977,-53 815,-53"/>
<text text-anchor="middle" x="896" y="-60" font-family="Helvetica,sans-Serif" font-size="10.00" fill="#000000">PartsBinIconView::removePart</text>
</a>
</g>
</g>
<!-- Node401&#45;&gt;Node402 -->
<g id="edge1" class="edge">
<title>Node401&#45;&gt;Node402</title>
<path fill="none" stroke="#191970" d="M1002.9128,-51.7279C994.3595,-52.5897 985.7299,-53.4592 977.2801,-54.3106"/>
<polygon fill="#191970" stroke="#191970" points="1003.3044,-55.2063 1012.9031,-50.7213 1002.6026,-48.2415 1003.3044,-55.2063"/>
</g>
<!-- Node411 -->
<g id="node11" class="node">
<title>Node411</title>
<g id="a_node11"><a xlink:href="../../d8/dee/classPartsBinIconView.html#a777fafcfe523f97b6df104355316e977" target="_top" xlink:title=" ">
<polygon fill="#ffffff" stroke="#000000" points="815.5,-14 815.5,-33 976.5,-33 976.5,-14 815.5,-14"/>
<text text-anchor="middle" x="896" y="-21" font-family="Helvetica,sans-Serif" font-size="10.00" fill="#000000">PartsBinIconView::itemMoved</text>
</a>
</g>
</g>
<!-- Node401&#45;&gt;Node411 -->
<g id="edge10" class="edge">
<title>Node401&#45;&gt;Node411</title>
<path fill="none" stroke="#191970" d="M1002.7302,-33.716C994.0203,-32.8823 985.2332,-32.0412 976.6392,-31.2186"/>
<polygon fill="#191970" stroke="#191970" points="1002.6151,-37.2209 1012.9031,-34.6897 1003.2822,-30.2527 1002.6151,-37.2209"/>
</g>
<!-- Node403 -->
<g id="node3" class="node">
<title>Node403</title>
<g id="a_node3"><a xlink:href="../../de/d4e/classPartsBinPaletteWidget.html#aec9e93a8099b8c01b808efd42c608526" target="_top" xlink:title=" ">
<polygon fill="#ffffff" stroke="#000000" points="638.5,-49.5 638.5,-79.5 763.5,-79.5 763.5,-49.5 638.5,-49.5"/>
<text text-anchor="start" x="646.5" y="-67.5" font-family="Helvetica,sans-Serif" font-size="10.00" fill="#000000">PartsBinPaletteWidget</text>
<text text-anchor="middle" x="701" y="-56.5" font-family="Helvetica,sans-Serif" font-size="10.00" fill="#000000">::removePart</text>
</a>
</g>
</g>
<!-- Node402&#45;&gt;Node403 -->
<g id="edge2" class="edge">
<title>Node402&#45;&gt;Node403</title>
<path fill="none" stroke="#191970" d="M804.8773,-63.4346C790.9151,-63.5778 776.7778,-63.7228 763.6172,-63.8578"/>
<polygon fill="#191970" stroke="#191970" points="805.033,-66.9333 814.9965,-63.3308 804.9611,-59.9336 805.033,-66.9333"/>
</g>
<!-- Node404 -->
<g id="node4" class="node">
<title>Node404</title>
<g id="a_node4"><a xlink:href="../../d3/d50/classBinManager.html#aa8d76984cc7bc8e4e09c3e9b1d2a8733" target="_top" xlink:title=" ">
<polygon fill="#ffffff" stroke="#000000" points="423.5,-99 423.5,-118 584.5,-118 584.5,-99 423.5,-99"/>
<text text-anchor="middle" x="504" y="-106" font-family="Helvetica,sans-Serif" font-size="10.00" fill="#000000">BinManager::removeSelected</text>
</a>
</g>
</g>
<!-- Node403&#45;&gt;Node404 -->
<g id="edge3" class="edge">
<title>Node403&#45;&gt;Node404</title>
<path fill="none" stroke="#191970" d="M628.4351,-80.7074C600.9928,-86.8366 570.6587,-93.6118 546.811,-98.9381"/>
<polygon fill="#191970" stroke="#191970" points="629.4007,-84.078 638.3973,-78.4823 627.8748,-77.2464 629.4007,-84.078"/>
</g>
<!-- Node407 -->
<g id="node7" class="node">
<title>Node407</title>
<g id="a_node7"><a xlink:href="../../d9/d6b/classPartsBinAddRemoveCommand.html#a15c176add96aebf7b3f981bb409d6ef4" target="_top" xlink:title=" ">
<polygon fill="#ffffff" stroke="#000000" points="421,-49.5 421,-79.5 587,-79.5 587,-49.5 421,-49.5"/>
<text text-anchor="start" x="429" y="-67.5" font-family="Helvetica,sans-Serif" font-size="10.00" fill="#000000">PartsBinAddRemoveCommand</text>
<text text-anchor="middle" x="504" y="-56.5" font-family="Helvetica,sans-Serif" font-size="10.00" fill="#000000">::remove</text>
</a>
</g>
</g>
<!-- Node403&#45;&gt;Node407 -->
<g id="edge6" class="edge">
<title>Node403&#45;&gt;Node407</title>
<path fill="none" stroke="#191970" d="M628.3425,-64.5C614.9969,-64.5 600.9703,-64.5 587.3405,-64.5"/>
<polygon fill="#191970" stroke="#191970" points="628.3973,-68.0001 638.3973,-64.5 628.3973,-61.0001 628.3973,-68.0001"/>
</g>
<!-- Node410 -->
<g id="node10" class="node">
<title>Node410</title>
<g id="a_node10"><a xlink:href="../../de/d4e/classPartsBinPaletteWidget.html#af4e1fe6ace56a58b2c4116a55b32387e" target="_top" xlink:title=" ">
<polygon fill="#ffffff" stroke="#000000" points="441.5,-.5 441.5,-30.5 566.5,-30.5 566.5,-.5 441.5,-.5"/>
<text text-anchor="start" x="449.5" y="-18.5" font-family="Helvetica,sans-Serif" font-size="10.00" fill="#000000">PartsBinPaletteWidget</text>
<text text-anchor="middle" x="504" y="-7.5" font-family="Helvetica,sans-Serif" font-size="10.00" fill="#000000">::removeAlienParts</text>
</a>
</g>
</g>
<!-- Node403&#45;&gt;Node410 -->
<g id="edge9" class="edge">
<title>Node403&#45;&gt;Node410</title>
<path fill="none" stroke="#191970" d="M630.7362,-47.0232C609.0231,-41.6225 585.3106,-35.7245 564.331,-30.5062"/>
<polygon fill="#191970" stroke="#191970" points="630.0055,-50.4481 640.5547,-49.4654 631.6952,-43.655 630.0055,-50.4481"/>
</g>
<!-- Node405 -->
<g id="node5" class="node">
<title>Node405</title>
<g id="a_node5"><a xlink:href="../../d3/d50/classBinManager.html#a5c081f39071fd8cfc7b0d76bc7e0bb84" target="_top" xlink:title=" ">
<polygon fill="#ffffff" stroke="#000000" points="197,-99 197,-118 385,-118 385,-99 197,-99"/>
<text text-anchor="middle" x="291" y="-106" font-family="Helvetica,sans-Serif" font-size="10.00" fill="#000000">BinManager::createCombinedMenu</text>
</a>
</g>
</g>
<!-- Node404&#45;&gt;Node405 -->
<g id="edge4" class="edge">
<title>Node404&#45;&gt;Node405</title>
<path fill="none" stroke="#191970" d="M413.4293,-108.5C404.0993,-108.5 394.6024,-108.5 385.2339,-108.5"/>
<polygon fill="#191970" stroke="#191970" points="413.4739,-112.0001 423.4738,-108.5 413.4738,-105.0001 413.4739,-112.0001"/>
</g>
<!-- Node406 -->
<g id="node6" class="node">
<title>Node406</title>
<g id="a_node6"><a xlink:href="../../d3/d50/classBinManager.html#a2d5d445330cf9de93768d92ea7ce8d5a" target="_top" xlink:title=" ">
<polygon fill="#ffffff" stroke="#000000" points="0,-99 0,-118 161,-118 161,-99 0,-99"/>
<text text-anchor="middle" x="80.5" y="-106" font-family="Helvetica,sans-Serif" font-size="10.00" fill="#000000">BinManager::initStandardBins</text>
</a>
</g>
</g>
<!-- Node405&#45;&gt;Node406 -->
<g id="edge5" class="edge">
<title>Node405&#45;&gt;Node406</title>
<path fill="none" stroke="#191970" d="M186.7331,-108.5C178.1148,-108.5 169.4877,-108.5 161.0831,-108.5"/>
<polygon fill="#191970" stroke="#191970" points="186.8323,-112.0001 196.8323,-108.5 186.8323,-105.0001 186.8323,-112.0001"/>
</g>
<!-- Node408 -->
<g id="node8" class="node">
<title>Node408</title>
<g id="a_node8"><a xlink:href="../../dd/dc0/classPartsBinAddCommand.html#aec6578bd206611c7da389450389eaceb" target="_top" xlink:title=" ">
<polygon fill="#ffffff" stroke="#000000" points="228.5,-49.5 228.5,-79.5 353.5,-79.5 353.5,-49.5 228.5,-49.5"/>
<text text-anchor="start" x="236.5" y="-67.5" font-family="Helvetica,sans-Serif" font-size="10.00" fill="#000000">PartsBinAddCommand</text>
<text text-anchor="middle" x="291" y="-56.5" font-family="Helvetica,sans-Serif" font-size="10.00" fill="#000000">::undo</text>
</a>
</g>
</g>
<!-- Node407&#45;&gt;Node408 -->
<g id="edge7" class="edge">
<title>Node407&#45;&gt;Node408</title>
<path fill="none" stroke="#191970" d="M410.7286,-64.5C391.4682,-64.5 371.6215,-64.5 353.7612,-64.5"/>
<polygon fill="#191970" stroke="#191970" points="410.7335,-68.0001 420.7335,-64.5 410.7335,-61.0001 410.7335,-68.0001"/>
</g>
<!-- Node409 -->
<g id="node9" class="node">
<title>Node409</title>
<g id="a_node9"><a xlink:href="../../d4/dcf/classPartsBinRemoveCommand.html#a1d4c09fad7cd729d80fad3e04586fae1" target="_top" xlink:title=" ">
<polygon fill="#ffffff" stroke="#000000" points="217.5,-.5 217.5,-30.5 364.5,-30.5 364.5,-.5 217.5,-.5"/>
<text text-anchor="start" x="225.5" y="-18.5" font-family="Helvetica,sans-Serif" font-size="10.00" fill="#000000">PartsBinRemoveCommand</text>
<text text-anchor="middle" x="291" y="-7.5" font-family="Helvetica,sans-Serif" font-size="10.00" fill="#000000">::redo</text>
</a>
</g>
</g>
<!-- Node407&#45;&gt;Node409 -->
<g id="edge8" class="edge">
<title>Node407&#45;&gt;Node409</title>
<path fill="none" stroke="#191970" d="M428.6634,-47.1691C405.0151,-41.7288 379.1189,-35.7715 356.231,-30.5062"/>
<polygon fill="#191970" stroke="#191970" points="428.1153,-50.6343 438.6454,-49.4654 429.6847,-43.8125 428.1153,-50.6343"/>
</g>
<!-- Node412 -->
<g id="node12" class="node">
<title>Node412</title>
<g id="a_node12"><a xlink:href="../../d8/dee/classPartsBinIconView.html#ab09e07c36e81101b4e4682de45866e3e" target="_top" xlink:title=" ">
<polygon fill="#ffffff" stroke="#000000" points="623,-11 623,-30 779,-30 779,-11 623,-11"/>
<text text-anchor="middle" x="701" y="-18" font-family="Helvetica,sans-Serif" font-size="10.00" fill="#000000">PartsBinIconView::moveItem</text>
</a>
</g>
</g>
<!-- Node411&#45;&gt;Node412 -->
<g id="edge11" class="edge">
<title>Node411&#45;&gt;Node412</title>
<path fill="none" stroke="#191970" d="M805.1346,-22.1021C796.4519,-21.9685 787.6986,-21.8338 779.152,-21.7023"/>
<polygon fill="#191970" stroke="#191970" points="805.2257,-25.6038 815.2784,-22.2581 805.3335,-18.6046 805.2257,-25.6038"/>
</g>
</g>
</svg>
        <g id="navigator" transform="translate(0 0)" fill="#404254">
                <rect fill="#f2f5e9" fill-opacity="0.5" stroke="#606060" stroke-width=".5" x="0" y="0" width="60" height="60"/>
                <use id="zoomplus" xlink:href="#zoomPlus" x="17" y="9" onmousedown="handleZoom(evt,'in')"/>
                <use id="zoomminus" xlink:href="#zoomMin" x="42" y="9" onmousedown="handleZoom(evt,'out')"/>
                <use id="reset" xlink:href="#resetDef" x="30" y="36" onmousedown="handleReset()"/>
                <g id="arrowUp" xlink:href="#dirArrow" transform="translate(30 24)" onmousedown="handlePan(0,-1)">
                  <use xlink:href="#rim" fill="#404040">
                        <set attributeName="fill" to="#808080" begin="arrowUp.mouseover" end="arrowUp.mouseout"/>
                  </use>
                  <path fill="none" stroke="white" stroke-width="1.5" d="M0,-3.0v7 M-2.5,-0.5L0,-3.0L2.5,-0.5"/>
                </g>
                <g id="arrowRight" xlink:href="#dirArrow" transform="rotate(90) translate(36 -43)" onmousedown="handlePan(1,0)">
                  <use xlink:href="#rim" fill="#404040">
                        <set attributeName="fill" to="#808080" begin="arrowRight.mouseover" end="arrowRight.mouseout"/>
                  </use>
                  <path fill="none" stroke="white" stroke-width="1.5" d="M0,-3.0v7 M-2.5,-0.5L0,-3.0L2.5,-0.5"/>
                </g>
                <g id="arrowDown" xlink:href="#dirArrow" transform="rotate(180) translate(-30 -48)" onmousedown="handlePan(0,1)">
                  <use xlink:href="#rim" fill="#404040">
                        <set attributeName="fill" to="#808080" begin="arrowDown.mouseover" end="arrowDown.mouseout"/>
                  </use>
                  <path fill="none" stroke="white" stroke-width="1.5" d="M0,-3.0v7 M-2.5,-0.5L0,-3.0L2.5,-0.5"/>
                </g>
                <g id="arrowLeft" xlink:href="#dirArrow" transform="rotate(270) translate(-36 17)" onmousedown="handlePan(-1,0)">
                  <use xlink:href="#rim" fill="#404040">
                        <set attributeName="fill" to="#808080" begin="arrowLeft.mouseover" end="arrowLeft.mouseout"/>
                  </use>
                  <path fill="none" stroke="white" stroke-width="1.5" d="M0,-3.0v7 M-2.5,-0.5L0,-3.0L2.5,-0.5"/>
                </g>
        </g>
        <svg viewBox="0 0 15 15" width="100%" height="30px" preserveAspectRatio="xMaxYMin meet">
         <g id="arrow_out" transform="scale(0.3 0.3)">
          <a xlink:href="classPartsBinIconView_a9360380adf8df21ad0ffa974f2e09d54_icgraph_org.svg" target="_base">
           <rect id="button" ry="5" rx="5" y="6" x="6" height="38" width="38"
                fill="#f2f5e9" fill-opacity="0.5" stroke="#606060" stroke-width="1.0"/>
           <path id="arrow"
             d="M 11.500037,31.436501 C 11.940474,20.09759 22.043105,11.32322 32.158766,21.979434 L 37.068811,17.246167 C 37.068811,17.246167 37.088388,32 37.088388,32 L 22.160133,31.978069 C 22.160133,31.978069 26.997745,27.140456 26.997745,27.140456 C 18.528582,18.264221 13.291696,25.230495 11.500037,31.436501 z"
             style="fill:#404040;"/>
          </a>
         </g>
        </svg>
</svg>
