<?xml version="1.0" encoding="UTF-8" standalone="no"?>
<!DOCTYPE svg PUBLIC "-//W3C//DTD SVG 1.1//EN"
 "http://www.w3.org/Graphics/SVG/1.1/DTD/svg11.dtd">
<!-- Generated by graphviz version 2.40.1 (0)
 -->
<!-- Title: PEToolView Pages: 1 -->
<svg width="1805pt" height="435pt"
 viewBox="0.00 0.00 1804.50 435.00" xmlns="http://www.w3.org/2000/svg" xmlns:xlink="http://www.w3.org/1999/xlink">
<g id="graph0" class="graph" transform="scale(1 1) rotate(0) translate(4 431)">
<title>PEToolView</title>
<polygon fill="#ffffff" stroke="transparent" points="-4,4 -4,-431 1800.5,-431 1800.5,4 -4,4"/>
<!-- Node2 -->
<g id="node1" class="node">
<title>Node2</title>
<g id="a_node1"><a xlink:title=" ">
<polygon fill="#bfbfbf" stroke="#000000" points="800.5,-.5 800.5,-299.5 970.5,-299.5 970.5,-.5 800.5,-.5"/>
<text text-anchor="middle" x="885.5" y="-287.5" font-family="Helvetica,sans-Serif" font-size="10.00" fill="#000000">PEToolView</text>
<polyline fill="none" stroke="#000000" points="800.5,-280.5 970.5,-280.5 "/>
<text text-anchor="middle" x="885.5" y="-268.5" font-family="Helvetica,sans-Serif" font-size="10.00" fill="#000000"> </text>
<polyline fill="none" stroke="#000000" points="800.5,-261.5 970.5,-261.5 "/>
<text text-anchor="start" x="808.5" y="-249.5" font-family="Helvetica,sans-Serif" font-size="10.00" fill="#000000">+ PEToolView()</text>
<text text-anchor="start" x="808.5" y="-238.5" font-family="Helvetica,sans-Serif" font-size="10.00" fill="#000000">+ ~PEToolView()</text>
<text text-anchor="start" x="808.5" y="-227.5" font-family="Helvetica,sans-Serif" font-size="10.00" fill="#000000">+ currentConnectorIndex()</text>
<text text-anchor="start" x="808.5" y="-216.5" font-family="Helvetica,sans-Serif" font-size="10.00" fill="#000000">+ enableConnectorChanges()</text>
<text text-anchor="start" x="808.5" y="-205.5" font-family="Helvetica,sans-Serif" font-size="10.00" fill="#000000">+ initConnectors()</text>
<text text-anchor="start" x="808.5" y="-194.5" font-family="Helvetica,sans-Serif" font-size="10.00" fill="#000000">+ setChildrenVisible()</text>
<text text-anchor="start" x="808.5" y="-183.5" font-family="Helvetica,sans-Serif" font-size="10.00" fill="#000000">+ setCurrentConnector()</text>
<text text-anchor="start" x="808.5" y="-172.5" font-family="Helvetica,sans-Serif" font-size="10.00" fill="#000000">+ setCurrentConnector()</text>
<text text-anchor="start" x="808.5" y="-161.5" font-family="Helvetica,sans-Serif" font-size="10.00" fill="#000000">+ setTerminalPointCoords()</text>
<text text-anchor="start" x="808.5" y="-150.5" font-family="Helvetica,sans-Serif" font-size="10.00" fill="#000000">+ setTerminalPointLimits()</text>
<text text-anchor="start" x="808.5" y="-139.5" font-family="Helvetica,sans-Serif" font-size="10.00" fill="#000000">+ showAssignedConnectors()</text>
<text text-anchor="start" x="808.5" y="-128.5" font-family="Helvetica,sans-Serif" font-size="10.00" fill="#000000"># changeConnector()</text>
<text text-anchor="start" x="808.5" y="-117.5" font-family="Helvetica,sans-Serif" font-size="10.00" fill="#000000"># hideConnectorListStuff()</text>
<text text-anchor="start" x="808.5" y="-106.5" font-family="Helvetica,sans-Serif" font-size="10.00" fill="#000000"># busModeChangedSlot()</text>
<text text-anchor="start" x="808.5" y="-95.5" font-family="Helvetica,sans-Serif" font-size="10.00" fill="#000000"># buttonChangeTerminalPoint()</text>
<text text-anchor="start" x="808.5" y="-84.5" font-family="Helvetica,sans-Serif" font-size="10.00" fill="#000000"># descriptionEntry()</text>
<text text-anchor="start" x="808.5" y="-73.5" font-family="Helvetica,sans-Serif" font-size="10.00" fill="#000000"># getSpinAmountSlot()</text>
<text text-anchor="start" x="808.5" y="-62.5" font-family="Helvetica,sans-Serif" font-size="10.00" fill="#000000"># nameEntry()</text>
<text text-anchor="start" x="808.5" y="-51.5" font-family="Helvetica,sans-Serif" font-size="10.00" fill="#000000"># pickModeChangedSlot()</text>
<text text-anchor="start" x="808.5" y="-40.5" font-family="Helvetica,sans-Serif" font-size="10.00" fill="#000000"># removeConnector()</text>
<text text-anchor="start" x="808.5" y="-29.5" font-family="Helvetica,sans-Serif" font-size="10.00" fill="#000000"># switchConnector()</text>
<text text-anchor="start" x="808.5" y="-18.5" font-family="Helvetica,sans-Serif" font-size="10.00" fill="#000000"># terminalPointEntry()</text>
<text text-anchor="start" x="808.5" y="-7.5" font-family="Helvetica,sans-Serif" font-size="10.00" fill="#000000"># typeEntry()</text>
</a>
</g>
</g>
<!-- Node3 -->
<g id="node2" class="node">
<title>Node3</title>
<g id="a_node2"><a xlink:href="../../da/d79/classQFrame.html" target="_top" xlink:title=" ">
<polygon fill="#ffffff" stroke="#000000" points="0,-364 0,-421 55,-421 55,-364 0,-364"/>
<text text-anchor="middle" x="27.5" y="-409" font-family="Helvetica,sans-Serif" font-size="10.00" fill="#000000">QFrame</text>
<polyline fill="none" stroke="#000000" points="0,-402 55,-402 "/>
<text text-anchor="middle" x="27.5" y="-390" font-family="Helvetica,sans-Serif" font-size="10.00" fill="#000000"> </text>
<polyline fill="none" stroke="#000000" points="0,-383 55,-383 "/>
<text text-anchor="middle" x="27.5" y="-371" font-family="Helvetica,sans-Serif" font-size="10.00" fill="#000000"> </text>
</a>
</g>
</g>
<!-- Node3&#45;&gt;Node2 -->
<g id="edge1" class="edge">
<title>Node3&#45;&gt;Node2</title>
<path fill="none" stroke="#191970" d="M63.2163,-358.1583C63.3108,-358.1052 63.4054,-358.0524 63.5,-358 309.1119,-221.9076 645.0786,-173.1433 800.3866,-157.1261"/>
<polygon fill="none" stroke="#191970" points="61.054,-355.393 54.6692,-363.8479 64.933,-361.22 61.054,-355.393"/>
</g>
<!-- Node4 -->
<g id="node3" class="node">
<title>Node4</title>
<g id="a_node3"><a xlink:title=" ">
<polygon fill="#ffffff" stroke="#bfbfbf" points="73,-364 73,-421 210,-421 210,-364 73,-364"/>
<text text-anchor="middle" x="141.5" y="-409" font-family="Helvetica,sans-Serif" font-size="10.00" fill="#000000">QPointer&lt; QCheckBox &gt;</text>
<polyline fill="none" stroke="#bfbfbf" points="73,-402 210,-402 "/>
<text text-anchor="middle" x="141.5" y="-390" font-family="Helvetica,sans-Serif" font-size="10.00" fill="#000000"> </text>
<polyline fill="none" stroke="#bfbfbf" points="73,-383 210,-383 "/>
<text text-anchor="middle" x="141.5" y="-371" font-family="Helvetica,sans-Serif" font-size="10.00" fill="#000000"> </text>
</a>
</g>
</g>
<!-- Node4&#45;&gt;Node2 -->
<g id="edge2" class="edge">
<title>Node4&#45;&gt;Node2</title>
<path fill="none" stroke="#404040" d="M203.9001,-363.9328C208.8165,-361.8686 213.7251,-359.8671 218.5,-358 270.4652,-337.68 284.3777,-335.0676 337.5,-318 494.9518,-267.4126 678.9273,-211.7029 788.6292,-178.842"/>
<polygon fill="none" stroke="#404040" points="788.8243,-178.7837 793.4251,-173.231 800.3202,-175.3423 795.7194,-180.895 788.8243,-178.7837"/>
<text text-anchor="middle" x="382.5" y="-326.5" font-family="Helvetica,sans-Serif" font-size="10.00" fill="#000000"> #m_busModeBox</text>
</g>
<!-- Node5 -->
<g id="node4" class="node">
<title>Node5</title>
<g id="a_node4"><a xlink:title=" ">
<polygon fill="#ffffff" stroke="#bfbfbf" points="228,-364 228,-421 391,-421 391,-364 228,-364"/>
<text text-anchor="middle" x="309.5" y="-409" font-family="Helvetica,sans-Serif" font-size="10.00" fill="#000000">QPointer&lt; QDoubleSpinBox &gt;</text>
<polyline fill="none" stroke="#bfbfbf" points="228,-402 391,-402 "/>
<text text-anchor="middle" x="309.5" y="-390" font-family="Helvetica,sans-Serif" font-size="10.00" fill="#000000"> </text>
<polyline fill="none" stroke="#bfbfbf" points="228,-383 391,-383 "/>
<text text-anchor="middle" x="309.5" y="-371" font-family="Helvetica,sans-Serif" font-size="10.00" fill="#000000"> </text>
</a>
</g>
</g>
<!-- Node5&#45;&gt;Node2 -->
<g id="edge3" class="edge">
<title>Node5&#45;&gt;Node2</title>
<path fill="none" stroke="#404040" d="M373.5446,-363.8396C405.0748,-349.839 443.6998,-332.8503 478.5,-318 584.3699,-272.822 706.5074,-222.6671 789.1468,-189.0207"/>
<polygon fill="none" stroke="#404040" points="789.1717,-189.0106 793.2215,-183.0442 800.2867,-184.4877 796.2368,-190.4542 789.1717,-189.0106"/>
<text text-anchor="middle" x="528" y="-332" font-family="Helvetica,sans-Serif" font-size="10.00" fill="#000000"> #m_terminalPointY</text>
<text text-anchor="middle" x="528" y="-321" font-family="Helvetica,sans-Serif" font-size="10.00" fill="#000000">#m_terminalPointX</text>
</g>
<!-- Node6 -->
<g id="node5" class="node">
<title>Node6</title>
<g id="a_node5"><a xlink:title=" ">
<polygon fill="#ffffff" stroke="#bfbfbf" points="409.5,-358.5 409.5,-426.5 561.5,-426.5 561.5,-358.5 409.5,-358.5"/>
<text text-anchor="start" x="417.5" y="-414.5" font-family="Helvetica,sans-Serif" font-size="10.00" fill="#000000">QPointer&lt; class PEGraphics</text>
<text text-anchor="middle" x="485.5" y="-403.5" font-family="Helvetica,sans-Serif" font-size="10.00" fill="#000000">Item &gt;</text>
<polyline fill="none" stroke="#bfbfbf" points="409.5,-396.5 561.5,-396.5 "/>
<text text-anchor="middle" x="485.5" y="-384.5" font-family="Helvetica,sans-Serif" font-size="10.00" fill="#000000"> </text>
<polyline fill="none" stroke="#bfbfbf" points="409.5,-377.5 561.5,-377.5 "/>
<text text-anchor="middle" x="485.5" y="-365.5" font-family="Helvetica,sans-Serif" font-size="10.00" fill="#000000"> </text>
</a>
</g>
</g>
<!-- Node6&#45;&gt;Node2 -->
<g id="edge4" class="edge">
<title>Node6&#45;&gt;Node2</title>
<path fill="none" stroke="#404040" d="M541.9619,-358.27C606.2362,-319.3037 712.3134,-254.9944 789.6157,-208.1298"/>
<polygon fill="none" stroke="#404040" points="790.0636,-207.8584 793.1206,-201.3273 800.3251,-201.6373 797.268,-208.1683 790.0636,-207.8584"/>
<text text-anchor="middle" x="627.5" y="-326.5" font-family="Helvetica,sans-Serif" font-size="10.00" fill="#000000"> #m_pegi</text>
</g>
<!-- Node7 -->
<g id="node6" class="node">
<title>Node7</title>
<g id="a_node6"><a xlink:title=" ">
<polygon fill="#ffffff" stroke="#bfbfbf" points="580,-364 580,-421 717,-421 717,-364 580,-364"/>
<text text-anchor="middle" x="648.5" y="-409" font-family="Helvetica,sans-Serif" font-size="10.00" fill="#000000">QPointer&lt; QGroupBox &gt;</text>
<polyline fill="none" stroke="#bfbfbf" points="580,-402 717,-402 "/>
<text text-anchor="middle" x="648.5" y="-390" font-family="Helvetica,sans-Serif" font-size="10.00" fill="#000000"> </text>
<polyline fill="none" stroke="#bfbfbf" points="580,-383 717,-383 "/>
<text text-anchor="middle" x="648.5" y="-371" font-family="Helvetica,sans-Serif" font-size="10.00" fill="#000000"> </text>
</a>
</g>
</g>
<!-- Node7&#45;&gt;Node2 -->
<g id="edge5" class="edge">
<title>Node7&#45;&gt;Node2</title>
<path fill="none" stroke="#404040" d="M655.3584,-363.8563C659.7923,-349.2145 666.6148,-331.6546 676.5,-318 707.0148,-275.8493 750.7272,-238.4786 790.2948,-209.7496"/>
<polygon fill="none" stroke="#404040" points="790.4903,-209.61 793.0471,-202.8673 800.2545,-202.6342 797.6976,-209.3768 790.4903,-209.61"/>
<text text-anchor="middle" x="747.5" y="-332" font-family="Helvetica,sans-Serif" font-size="10.00" fill="#000000"> #m_connectorInfoGroupBox</text>
<text text-anchor="middle" x="747.5" y="-321" font-family="Helvetica,sans-Serif" font-size="10.00" fill="#000000">#m_terminalPointGroupBox</text>
</g>
<!-- Node8 -->
<g id="node7" class="node">
<title>Node8</title>
<g id="a_node7"><a xlink:title=" ">
<polygon fill="#ffffff" stroke="#bfbfbf" points="735,-364 735,-421 870,-421 870,-364 735,-364"/>
<text text-anchor="middle" x="802.5" y="-409" font-family="Helvetica,sans-Serif" font-size="10.00" fill="#000000">QList&lt; QPushButton * &gt;</text>
<polyline fill="none" stroke="#bfbfbf" points="735,-402 870,-402 "/>
<text text-anchor="middle" x="802.5" y="-390" font-family="Helvetica,sans-Serif" font-size="10.00" fill="#000000"> </text>
<polyline fill="none" stroke="#bfbfbf" points="735,-383 870,-383 "/>
<text text-anchor="middle" x="802.5" y="-371" font-family="Helvetica,sans-Serif" font-size="10.00" fill="#000000"> </text>
</a>
</g>
</g>
<!-- Node8&#45;&gt;Node2 -->
<g id="edge6" class="edge">
<title>Node8&#45;&gt;Node2</title>
<path fill="none" stroke="#404040" d="M812.3471,-363.7298C817.1977,-349.5579 823.4687,-331.2361 830.2972,-311.2854"/>
<polygon fill="none" stroke="#404040" points="830.3726,-311.0648 828.5311,-304.0928 834.2586,-299.7114 836.1,-306.6835 830.3726,-311.0648"/>
<text text-anchor="middle" x="858.5" y="-326.5" font-family="Helvetica,sans-Serif" font-size="10.00" fill="#000000"> #m_buttons</text>
</g>
<!-- Node9 -->
<g id="node8" class="node">
<title>Node9</title>
<g id="a_node8"><a xlink:title=" ">
<polygon fill="#ffffff" stroke="#bfbfbf" points="888.5,-364 888.5,-421 1028.5,-421 1028.5,-364 888.5,-364"/>
<text text-anchor="middle" x="958.5" y="-409" font-family="Helvetica,sans-Serif" font-size="10.00" fill="#000000">QPointer&lt; QBoxLayout &gt;</text>
<polyline fill="none" stroke="#bfbfbf" points="888.5,-402 1028.5,-402 "/>
<text text-anchor="middle" x="958.5" y="-390" font-family="Helvetica,sans-Serif" font-size="10.00" fill="#000000"> </text>
<polyline fill="none" stroke="#bfbfbf" points="888.5,-383 1028.5,-383 "/>
<text text-anchor="middle" x="958.5" y="-371" font-family="Helvetica,sans-Serif" font-size="10.00" fill="#000000"> </text>
</a>
</g>
</g>
<!-- Node9&#45;&gt;Node2 -->
<g id="edge7" class="edge">
<title>Node9&#45;&gt;Node2</title>
<path fill="none" stroke="#404040" d="M949.8393,-363.7298C945.5731,-349.5579 940.0577,-331.2361 934.0519,-311.2854"/>
<polygon fill="none" stroke="#404040" points="934.0269,-311.2021 928.4671,-306.6098 930.5678,-299.7114 936.1275,-304.3037 934.0269,-311.2021"/>
<text text-anchor="middle" x="1004" y="-326.5" font-family="Helvetica,sans-Serif" font-size="10.00" fill="#000000"> #m_connectorInfoLayout</text>
</g>
<!-- Node10 -->
<g id="node9" class="node">
<title>Node10</title>
<g id="a_node9"><a xlink:title=" ">
<polygon fill="#ffffff" stroke="#bfbfbf" points="1047,-364 1047,-421 1182,-421 1182,-364 1047,-364"/>
<text text-anchor="middle" x="1114.5" y="-409" font-family="Helvetica,sans-Serif" font-size="10.00" fill="#000000">QList&lt; QDomElement &gt;</text>
<polyline fill="none" stroke="#bfbfbf" points="1047,-402 1182,-402 "/>
<text text-anchor="middle" x="1114.5" y="-390" font-family="Helvetica,sans-Serif" font-size="10.00" fill="#000000"> </text>
<polyline fill="none" stroke="#bfbfbf" points="1047,-383 1182,-383 "/>
<text text-anchor="middle" x="1114.5" y="-371" font-family="Helvetica,sans-Serif" font-size="10.00" fill="#000000"> </text>
</a>
</g>
</g>
<!-- Node10&#45;&gt;Node2 -->
<g id="edge8" class="edge">
<title>Node10&#45;&gt;Node2</title>
<path fill="none" stroke="#404040" d="M1100.7154,-363.9211C1093.0876,-349.4646 1082.86,-332.0525 1071.5,-318 1044.7348,-284.8908 1011.2591,-252.5497 980.112,-225.2259"/>
<polygon fill="none" stroke="#404040" points="980.0267,-225.1518 972.8735,-224.239 970.9649,-217.2851 978.1181,-218.1979 980.0267,-225.1518"/>
<text text-anchor="middle" x="1131.5" y="-326.5" font-family="Helvetica,sans-Serif" font-size="10.00" fill="#000000"> #m_connectorList</text>
</g>
<!-- Node11 -->
<g id="node10" class="node">
<title>Node11</title>
<g id="a_node10"><a xlink:title=" ">
<polygon fill="#ffffff" stroke="#bfbfbf" points="1200,-364 1200,-421 1323,-421 1323,-364 1200,-364"/>
<text text-anchor="middle" x="1261.5" y="-409" font-family="Helvetica,sans-Serif" font-size="10.00" fill="#000000">QPointer&lt; QWidget &gt;</text>
<polyline fill="none" stroke="#bfbfbf" points="1200,-402 1323,-402 "/>
<text text-anchor="middle" x="1261.5" y="-390" font-family="Helvetica,sans-Serif" font-size="10.00" fill="#000000"> </text>
<polyline fill="none" stroke="#bfbfbf" points="1200,-383 1323,-383 "/>
<text text-anchor="middle" x="1261.5" y="-371" font-family="Helvetica,sans-Serif" font-size="10.00" fill="#000000"> </text>
</a>
</g>
</g>
<!-- Node11&#45;&gt;Node2 -->
<g id="edge9" class="edge">
<title>Node11&#45;&gt;Node2</title>
<path fill="none" stroke="#404040" d="M1234.0337,-363.8916C1219.2117,-349.2594 1200.1677,-331.6975 1181.5,-318 1118.3755,-271.6821 1041.298,-228.3045 981.6225,-197.232"/>
<polygon fill="none" stroke="#404040" points="981.3475,-197.0897 974.1803,-197.8852 970.6895,-191.5753 977.8566,-190.7799 981.3475,-197.0897"/>
<text text-anchor="middle" x="1270.5" y="-326.5" font-family="Helvetica,sans-Serif" font-size="10.00" fill="#000000"> #m_connectorInfoWidget</text>
</g>
<!-- Node12 -->
<g id="node11" class="node">
<title>Node12</title>
<g id="a_node11"><a xlink:title=" ">
<polygon fill="#ffffff" stroke="#bfbfbf" points="1341.5,-364 1341.5,-421 1485.5,-421 1485.5,-364 1341.5,-364"/>
<text text-anchor="middle" x="1413.5" y="-409" font-family="Helvetica,sans-Serif" font-size="10.00" fill="#000000">QPointer&lt; QPushButton &gt;</text>
<polyline fill="none" stroke="#bfbfbf" points="1341.5,-402 1485.5,-402 "/>
<text text-anchor="middle" x="1413.5" y="-390" font-family="Helvetica,sans-Serif" font-size="10.00" fill="#000000"> </text>
<polyline fill="none" stroke="#bfbfbf" points="1341.5,-383 1485.5,-383 "/>
<text text-anchor="middle" x="1413.5" y="-371" font-family="Helvetica,sans-Serif" font-size="10.00" fill="#000000"> </text>
</a>
</g>
</g>
<!-- Node12&#45;&gt;Node2 -->
<g id="edge10" class="edge">
<title>Node12&#45;&gt;Node2</title>
<path fill="none" stroke="#404040" d="M1389.8682,-363.6445C1376.1661,-348.4044 1357.8316,-330.3527 1338.5,-318 1225.8654,-246.0278 1077.9291,-198.5616 982.283,-172.9801"/>
<polygon fill="none" stroke="#404040" points="982.1966,-172.9573 975.3741,-175.2926 970.5944,-169.8931 977.4169,-167.5578 982.1966,-172.9573"/>
<text text-anchor="middle" x="1411" y="-326.5" font-family="Helvetica,sans-Serif" font-size="10.00" fill="#000000"> #m_assignButton</text>
</g>
<!-- Node13 -->
<g id="node12" class="node">
<title>Node13</title>
<g id="a_node12"><a xlink:title=" ">
<polygon fill="#ffffff" stroke="#bfbfbf" points="1504,-364 1504,-421 1619,-421 1619,-364 1504,-364"/>
<text text-anchor="middle" x="1561.5" y="-409" font-family="Helvetica,sans-Serif" font-size="10.00" fill="#000000">QPointer&lt; QLabel &gt;</text>
<polyline fill="none" stroke="#bfbfbf" points="1504,-402 1619,-402 "/>
<text text-anchor="middle" x="1561.5" y="-390" font-family="Helvetica,sans-Serif" font-size="10.00" fill="#000000"> </text>
<polyline fill="none" stroke="#bfbfbf" points="1504,-383 1619,-383 "/>
<text text-anchor="middle" x="1561.5" y="-371" font-family="Helvetica,sans-Serif" font-size="10.00" fill="#000000"> </text>
</a>
</g>
</g>
<!-- Node13&#45;&gt;Node2 -->
<g id="edge11" class="edge">
<title>Node13&#45;&gt;Node2</title>
<path fill="none" stroke="#404040" d="M1528.8487,-363.8041C1509.953,-348.4235 1485.1015,-330.1856 1460.5,-318 1301.9242,-239.4541 1100.1212,-191.1021 982.6121,-167.5067"/>
<polygon fill="none" stroke="#404040" points="982.5788,-167.5002 975.9146,-170.255 970.8086,-165.1631 977.4727,-162.4082 982.5788,-167.5002"/>
<text text-anchor="middle" x="1566.5" y="-332" font-family="Helvetica,sans-Serif" font-size="10.00" fill="#000000"> #m_terminalPointDragState</text>
<text text-anchor="middle" x="1566.5" y="-321" font-family="Helvetica,sans-Serif" font-size="10.00" fill="#000000">#m_units</text>
</g>
<!-- Node14 -->
<g id="node13" class="node">
<title>Node14</title>
<g id="a_node13"><a xlink:title=" ">
<polygon fill="#ffffff" stroke="#bfbfbf" points="1646,-364 1646,-421 1789,-421 1789,-364 1646,-364"/>
<text text-anchor="middle" x="1717.5" y="-409" font-family="Helvetica,sans-Serif" font-size="10.00" fill="#000000">QPointer&lt; QTreeWidget &gt;</text>
<polyline fill="none" stroke="#bfbfbf" points="1646,-402 1789,-402 "/>
<text text-anchor="middle" x="1717.5" y="-390" font-family="Helvetica,sans-Serif" font-size="10.00" fill="#000000"> </text>
<polyline fill="none" stroke="#bfbfbf" points="1646,-383 1789,-383 "/>
<text text-anchor="middle" x="1717.5" y="-371" font-family="Helvetica,sans-Serif" font-size="10.00" fill="#000000"> </text>
</a>
</g>
</g>
<!-- Node14&#45;&gt;Node2 -->
<g id="edge12" class="edge">
<title>Node14&#45;&gt;Node2</title>
<path fill="none" stroke="#404040" d="M1695.0911,-363.7078C1681.2882,-347.9021 1662.2882,-329.2771 1641.5,-318 1425.6804,-200.9225 1133.0697,-165.3896 983.0471,-154.6387"/>
<polygon fill="none" stroke="#404040" points="982.709,-154.6154 976.4479,-158.193 970.7375,-153.7895 976.9986,-150.2119 982.709,-154.6154"/>
<text text-anchor="middle" x="1733" y="-326.5" font-family="Helvetica,sans-Serif" font-size="10.00" fill="#000000"> #m_connectorListWidget</text>
</g>
</g>
</svg>
