<?xml version="1.0" encoding="UTF-8" standalone="no"?>
<!DOCTYPE svg PUBLIC "-//W3C//DTD SVG 1.1//EN"
 "http://www.w3.org/Graphics/SVG/1.1/DTD/svg11.dtd">
<!-- Generated by graphviz version 2.40.1 (0)
 -->
<!-- Title: MainWindow::anyUsePart Pages: 1 -->
<svg width="766pt" height="28pt"
 viewBox="0.00 0.00 766.00 28.00" xmlns="http://www.w3.org/2000/svg" xmlns:xlink="http://www.w3.org/1999/xlink">
<g id="graph0" class="graph" transform="scale(1 1) rotate(0) translate(4 24)">
<title>MainWindow::anyUsePart</title>
<polygon fill="#ffffff" stroke="transparent" points="-4,4 -4,-24 762,-24 762,4 -4,4"/>
<!-- Node1661 -->
<g id="node1" class="node">
<title>Node1661</title>
<g id="a_node1"><a xlink:title=" ">
<polygon fill="#bfbfbf" stroke="#000000" points="618,-.5 618,-19.5 758,-19.5 758,-.5 618,-.5"/>
<text text-anchor="middle" x="688" y="-7.5" font-family="Helvetica,sans-Serif" font-size="10.00" fill="#000000">MainWindow::anyUsePart</text>
</a>
</g>
</g>
<!-- Node1662 -->
<g id="node2" class="node">
<title>Node1662</title>
<g id="a_node2"><a xlink:href="../../d3/d50/classBinManager.html#aa8d76984cc7bc8e4e09c3e9b1d2a8733" target="_top" xlink:title=" ">
<polygon fill="#ffffff" stroke="#000000" points="421,-.5 421,-19.5 582,-19.5 582,-.5 421,-.5"/>
<text text-anchor="middle" x="501.5" y="-7.5" font-family="Helvetica,sans-Serif" font-size="10.00" fill="#000000">BinManager::removeSelected</text>
</a>
</g>
</g>
<!-- Node1661&#45;&gt;Node1662 -->
<g id="edge1" class="edge">
<title>Node1661&#45;&gt;Node1662</title>
<path fill="none" stroke="#191970" d="M607.5305,-10C599.0718,-10 590.4702,-10 582.0111,-10"/>
<polygon fill="#191970" stroke="#191970" points="607.7581,-13.5001 617.7581,-10 607.7581,-6.5001 607.7581,-13.5001"/>
</g>
<!-- Node1663 -->
<g id="node3" class="node">
<title>Node1663</title>
<g id="a_node3"><a xlink:href="../../d3/d50/classBinManager.html#a5c081f39071fd8cfc7b0d76bc7e0bb84" target="_top" xlink:title=" ">
<polygon fill="#ffffff" stroke="#000000" points="197,-.5 197,-19.5 385,-19.5 385,-.5 197,-.5"/>
<text text-anchor="middle" x="291" y="-7.5" font-family="Helvetica,sans-Serif" font-size="10.00" fill="#000000">BinManager::createCombinedMenu</text>
</a>
</g>
</g>
<!-- Node1662&#45;&gt;Node1663 -->
<g id="edge2" class="edge">
<title>Node1662&#45;&gt;Node1663</title>
<path fill="none" stroke="#191970" d="M410.5724,-10C402.1933,-10 393.6909,-10 385.2828,-10"/>
<polygon fill="#191970" stroke="#191970" points="410.7173,-13.5001 420.7172,-10 410.7172,-6.5001 410.7173,-13.5001"/>
</g>
<!-- Node1664 -->
<g id="node4" class="node">
<title>Node1664</title>
<g id="a_node4"><a xlink:href="../../d3/d50/classBinManager.html#a2d5d445330cf9de93768d92ea7ce8d5a" target="_top" xlink:title=" ">
<polygon fill="#ffffff" stroke="#000000" points="0,-.5 0,-19.5 161,-19.5 161,-.5 0,-.5"/>
<text text-anchor="middle" x="80.5" y="-7.5" font-family="Helvetica,sans-Serif" font-size="10.00" fill="#000000">BinManager::initStandardBins</text>
</a>
</g>
</g>
<!-- Node1663&#45;&gt;Node1664 -->
<g id="edge3" class="edge">
<title>Node1663&#45;&gt;Node1664</title>
<path fill="none" stroke="#191970" d="M186.7331,-10C178.1148,-10 169.4877,-10 161.0831,-10"/>
<polygon fill="#191970" stroke="#191970" points="186.8323,-13.5001 196.8323,-10 186.8323,-6.5001 186.8323,-13.5001"/>
</g>
</g>
</svg>
