<?xml version="1.0" encoding="UTF-8" standalone="no"?>
<!DOCTYPE svg PUBLIC "-//W3C//DTD SVG 1.1//EN"
 "http://www.w3.org/Graphics/SVG/1.1/DTD/svg11.dtd">
<!-- Generated by graphviz version 2.40.1 (0)
 -->
<!-- Title: MainWindow::hideAllLayers Pages: 1 -->
<!--zoomable 192 -->
<svg id="main" version="1.1" xmlns="http://www.w3.org/2000/svg" xmlns:xlink="http://www.w3.org/1999/xlink" xml:space="preserve" onload="init(evt)">
<style type="text/css"><![CDATA[
.edge:hover path { stroke: red; }
.edge:hover polygon { stroke: red; fill: red; }
]]></style>
<script type="text/javascript"><![CDATA[
var edges = document.getElementsByTagName('g');
if (edges && edges.length) {
  for (var i=0;i<edges.length;i++) {
    if (edges[i].id.substr(0,4)=='edge') {
      edges[i].setAttribute('class','edge');
    }
  }
}
]]></script>
        <defs>
                <circle id="rim" cx="0" cy="0" r="7"/>
                <circle id="rim2" cx="0" cy="0" r="3.5"/>
                <g id="zoomPlus">
                        <use xlink:href="#rim" fill="#404040">
                                <set attributeName="fill" to="#808080" begin="zoomplus.mouseover" end="zoomplus.mouseout"/>
                        </use>
                        <path d="M-4,0h8M0,-4v8" fill="none" stroke="white" stroke-width="1.5" pointer-events="none"/>
                </g>
                <g id="zoomMin">
                        <use xlink:href="#rim" fill="#404040">
                                <set attributeName="fill" to="#808080" begin="zoomminus.mouseover" end="zoomminus.mouseout"/>
                        </use>
                        <path d="M-4,0h8" fill="none" stroke="white" stroke-width="1.5" pointer-events="none"/>
                </g>
                <g id="dirArrow">
                        <path fill="none" stroke="white" stroke-width="1.5" d="M0,-3.0v7 M-2.5,-0.5L0,-3.0L2.5,-0.5"/>
                </g>
               <g id="resetDef">
                       <use xlink:href="#rim2" fill="#404040">
                               <set attributeName="fill" to="#808080" begin="reset.mouseover" end="reset.mouseout"/>
                       </use>
               </g>
        </defs>

<script type="text/javascript">
var viewWidth = 565;
var viewHeight = 192;
var sectionId = 'dynsection-278';
</script>
<script xlink:href="../../svgpan.js"/>
<svg id="graph" class="graph">
<g id="viewport">
<title>MainWindow::hideAllLayers</title>
<polygon fill="#ffffff" stroke="transparent" points="-4,4 -4,-188 561,-188 561,4 -4,4"/>
<!-- Node22050 -->
<g id="node1" class="node">
<title>Node22050</title>
<g id="a_node1"><a xlink:title=" ">
<polygon fill="#bfbfbf" stroke="#000000" points="0,-76.5 0,-95.5 151,-95.5 151,-76.5 0,-76.5"/>
<text text-anchor="middle" x="75.5" y="-83.5" font-family="Helvetica,sans-Serif" font-size="10.00" fill="#000000">MainWindow::hideAllLayers</text>
</a>
</g>
</g>
<!-- Node22051 -->
<g id="node2" class="node">
<title>Node22051</title>
<g id="a_node2"><a xlink:href="../../d6/d1a/classMainWindow.html#ac30e462df8ccdd1402dae4570c0d9fe0" target="_top" xlink:title=" ">
<polygon fill="#ffffff" stroke="#000000" points="187,-76.5 187,-95.5 360,-95.5 360,-76.5 187,-76.5"/>
<text text-anchor="middle" x="273.5" y="-83.5" font-family="Helvetica,sans-Serif" font-size="10.00" fill="#000000">MainWindow::updateLayerMenu</text>
</a>
</g>
</g>
<!-- Node22050&#45;&gt;Node22051 -->
<g id="edge1" class="edge">
<title>Node22050&#45;&gt;Node22051</title>
<path fill="none" stroke="#191970" d="M151.2028,-86C159.5989,-86 168.2319,-86 176.8413,-86"/>
<polygon fill="#191970" stroke="#191970" points="176.9216,-89.5001 186.9215,-86 176.9215,-82.5001 176.9216,-89.5001"/>
</g>
<!-- Node22052 -->
<g id="node3" class="node">
<title>Node22052</title>
<g id="a_node3"><a xlink:href="../../d6/d1a/classMainWindow.html#ab784187d6ece2a347ba489a7eb0793b7" target="_top" xlink:title=" ">
<polygon fill="#ffffff" stroke="#000000" points="396,-164.5 396,-183.5 557,-183.5 557,-164.5 396,-164.5"/>
<text text-anchor="middle" x="476.5" y="-171.5" font-family="Helvetica,sans-Serif" font-size="10.00" fill="#000000">MainWindow::setActionsIcons</text>
</a>
</g>
</g>
<!-- Node22051&#45;&gt;Node22052 -->
<g id="edge2" class="edge">
<title>Node22051&#45;&gt;Node22052</title>
<path fill="none" stroke="#191970" d="M287.5523,-95.6677C309.6732,-110.4723 354.3928,-138.7482 396,-155 402.4704,-157.5273 409.37,-159.778 416.3054,-161.7662"/>
<polygon fill="#191970" stroke="#191970" points="415.8806,-165.2763 426.4465,-164.4932 417.6984,-158.5164 415.8806,-165.2763"/>
</g>
<!-- Node22053 -->
<g id="node4" class="node">
<title>Node22053</title>
<g id="a_node4"><a xlink:href="../../d6/d1a/classMainWindow.html#aee367ddc5562edf1ab82e4c3f7ebf6bf" target="_top" xlink:title=" ">
<polygon fill="#ffffff" stroke="#000000" points="397.5,-115 397.5,-145 555.5,-145 555.5,-115 397.5,-115"/>
<text text-anchor="start" x="405.5" y="-133" font-family="Helvetica,sans-Serif" font-size="10.00" fill="#000000">MainWindow::removeActions</text>
<text text-anchor="middle" x="476.5" y="-122" font-family="Helvetica,sans-Serif" font-size="10.00" fill="#000000">StartingAt</text>
</a>
</g>
</g>
<!-- Node22051&#45;&gt;Node22053 -->
<g id="edge3" class="edge">
<title>Node22051&#45;&gt;Node22053</title>
<path fill="none" stroke="#191970" d="M317.548,-95.5473C340.8115,-100.5897 370.0789,-106.9334 397.1393,-112.7987"/>
<polygon fill="#191970" stroke="#191970" points="396.4794,-116.2368 406.9939,-114.9346 397.9623,-109.3957 396.4794,-116.2368"/>
</g>
<!-- Node22054 -->
<g id="node5" class="node">
<title>Node22054</title>
<g id="a_node5"><a xlink:href="../../d5/d9d/classViewLayer.html#a668887013153d682a303bd6088f75897" target="_top" xlink:title=" ">
<polygon fill="#ffffff" stroke="#000000" points="410.5,-76.5 410.5,-95.5 542.5,-95.5 542.5,-76.5 410.5,-76.5"/>
<text text-anchor="middle" x="476.5" y="-83.5" font-family="Helvetica,sans-Serif" font-size="10.00" fill="#000000">ViewLayer::parentLayer</text>
</a>
</g>
</g>
<!-- Node22051&#45;&gt;Node22054 -->
<g id="edge4" class="edge">
<title>Node22051&#45;&gt;Node22054</title>
<path fill="none" stroke="#191970" d="M360.1791,-86C373.4441,-86 387.0542,-86 400.0768,-86"/>
<polygon fill="#191970" stroke="#191970" points="400.3769,-89.5001 410.3769,-86 400.3769,-82.5001 400.3769,-89.5001"/>
</g>
<!-- Node22055 -->
<g id="node6" class="node">
<title>Node22055</title>
<g id="a_node6"><a xlink:href="../../d5/d9d/classViewLayer.html#a90addd3f5189b67fc65694efacd246d6" target="_top" xlink:title=" ">
<polygon fill="#ffffff" stroke="#000000" points="424.5,-38.5 424.5,-57.5 528.5,-57.5 528.5,-38.5 424.5,-38.5"/>
<text text-anchor="middle" x="476.5" y="-45.5" font-family="Helvetica,sans-Serif" font-size="10.00" fill="#000000">ViewLayer::action</text>
</a>
</g>
</g>
<!-- Node22051&#45;&gt;Node22055 -->
<g id="edge5" class="edge">
<title>Node22051&#45;&gt;Node22055</title>
<path fill="none" stroke="#191970" d="M324.4634,-76.46C352.0941,-71.2878 386.4328,-64.8599 415.4811,-59.4222"/>
<polygon fill="#191970" stroke="#191970" points="416.3303,-62.8242 425.5156,-57.5439 415.0423,-55.9437 416.3303,-62.8242"/>
</g>
<!-- Node22056 -->
<g id="node7" class="node">
<title>Node22056</title>
<g id="a_node7"><a xlink:href="../../da/d3a/classDebugDialog.html#ad26216d18945d7d7188420707b76f241" target="_top" xlink:title=" ">
<polygon fill="#ffffff" stroke="#000000" points="418.5,-.5 418.5,-19.5 534.5,-19.5 534.5,-.5 418.5,-.5"/>
<text text-anchor="middle" x="476.5" y="-7.5" font-family="Helvetica,sans-Serif" font-size="10.00" fill="#000000">DebugDialog::debug</text>
</a>
</g>
</g>
<!-- Node22051&#45;&gt;Node22056 -->
<g id="edge6" class="edge">
<title>Node22051&#45;&gt;Node22056</title>
<path fill="none" stroke="#191970" d="M291.2837,-76.3161C314.7028,-63.8955 357.4357,-42.3665 396,-29 403.3457,-26.454 411.1849,-24.135 418.9802,-22.061"/>
<polygon fill="#191970" stroke="#191970" points="419.9616,-25.4229 428.7905,-19.5662 418.2363,-18.6388 419.9616,-25.4229"/>
</g>
</g>
</svg>
        <g id="navigator" transform="translate(0 0)" fill="#404254">
                <rect fill="#f2f5e9" fill-opacity="0.5" stroke="#606060" stroke-width=".5" x="0" y="0" width="60" height="60"/>
                <use id="zoomplus" xlink:href="#zoomPlus" x="17" y="9" onmousedown="handleZoom(evt,'in')"/>
                <use id="zoomminus" xlink:href="#zoomMin" x="42" y="9" onmousedown="handleZoom(evt,'out')"/>
                <use id="reset" xlink:href="#resetDef" x="30" y="36" onmousedown="handleReset()"/>
                <g id="arrowUp" xlink:href="#dirArrow" transform="translate(30 24)" onmousedown="handlePan(0,-1)">
                  <use xlink:href="#rim" fill="#404040">
                        <set attributeName="fill" to="#808080" begin="arrowUp.mouseover" end="arrowUp.mouseout"/>
                  </use>
                  <path fill="none" stroke="white" stroke-width="1.5" d="M0,-3.0v7 M-2.5,-0.5L0,-3.0L2.5,-0.5"/>
                </g>
                <g id="arrowRight" xlink:href="#dirArrow" transform="rotate(90) translate(36 -43)" onmousedown="handlePan(1,0)">
                  <use xlink:href="#rim" fill="#404040">
                        <set attributeName="fill" to="#808080" begin="arrowRight.mouseover" end="arrowRight.mouseout"/>
                  </use>
                  <path fill="none" stroke="white" stroke-width="1.5" d="M0,-3.0v7 M-2.5,-0.5L0,-3.0L2.5,-0.5"/>
                </g>
                <g id="arrowDown" xlink:href="#dirArrow" transform="rotate(180) translate(-30 -48)" onmousedown="handlePan(0,1)">
                  <use xlink:href="#rim" fill="#404040">
                        <set attributeName="fill" to="#808080" begin="arrowDown.mouseover" end="arrowDown.mouseout"/>
                  </use>
                  <path fill="none" stroke="white" stroke-width="1.5" d="M0,-3.0v7 M-2.5,-0.5L0,-3.0L2.5,-0.5"/>
                </g>
                <g id="arrowLeft" xlink:href="#dirArrow" transform="rotate(270) translate(-36 17)" onmousedown="handlePan(-1,0)">
                  <use xlink:href="#rim" fill="#404040">
                        <set attributeName="fill" to="#808080" begin="arrowLeft.mouseover" end="arrowLeft.mouseout"/>
                  </use>
                  <path fill="none" stroke="white" stroke-width="1.5" d="M0,-3.0v7 M-2.5,-0.5L0,-3.0L2.5,-0.5"/>
                </g>
        </g>
        <svg viewBox="0 0 15 15" width="100%" height="30px" preserveAspectRatio="xMaxYMin meet">
         <g id="arrow_out" transform="scale(0.3 0.3)">
          <a xlink:href="classMainWindow_abbd05668e60a6b3b9f180fbbdd19aba2_cgraph_org.svg" target="_base">
           <rect id="button" ry="5" rx="5" y="6" x="6" height="38" width="38"
                fill="#f2f5e9" fill-opacity="0.5" stroke="#606060" stroke-width="1.0"/>
           <path id="arrow"
             d="M 11.500037,31.436501 C 11.940474,20.09759 22.043105,11.32322 32.158766,21.979434 L 37.068811,17.246167 C 37.068811,17.246167 37.088388,32 37.088388,32 L 22.160133,31.978069 C 22.160133,31.978069 26.997745,27.140456 26.997745,27.140456 C 18.528582,18.264221 13.291696,25.230495 11.500037,31.436501 z"
             style="fill:#404040;"/>
          </a>
         </g>
        </svg>
</svg>
