<?xml version="1.0" encoding="UTF-8" standalone="no"?>
<!DOCTYPE svg PUBLIC "-//W3C//DTD SVG 1.1//EN"
 "http://www.w3.org/Graphics/SVG/1.1/DTD/svg11.dtd">
<!-- Generated by graphviz version 2.40.1 (0)
 -->
<!-- Title: MainWindow::doDelete Pages: 1 -->
<svg width="452pt" height="28pt"
 viewBox="0.00 0.00 452.00 28.00" xmlns="http://www.w3.org/2000/svg" xmlns:xlink="http://www.w3.org/1999/xlink">
<g id="graph0" class="graph" transform="scale(1 1) rotate(0) translate(4 24)">
<title>MainWindow::doDelete</title>
<polygon fill="#ffffff" stroke="transparent" points="-4,4 -4,-24 448,-24 448,4 -4,4"/>
<!-- Node14815 -->
<g id="node1" class="node">
<title>Node14815</title>
<g id="a_node1"><a xlink:title=" ">
<polygon fill="#bfbfbf" stroke="#000000" points="0,-.5 0,-19.5 129,-19.5 129,-.5 0,-.5"/>
<text text-anchor="middle" x="64.5" y="-7.5" font-family="Helvetica,sans-Serif" font-size="10.00" fill="#000000">MainWindow::doDelete</text>
</a>
</g>
</g>
<!-- Node14816 -->
<g id="node2" class="node">
<title>Node14816</title>
<g id="a_node2"><a xlink:href="../../d6/d1a/classMainWindow.html#a22712d816af5ae2fc3a1fd5e68251def" target="_top" xlink:title=" ">
<polygon fill="#ffffff" stroke="#000000" points="165,-.5 165,-19.5 311,-19.5 311,-.5 165,-.5"/>
<text text-anchor="middle" x="238" y="-7.5" font-family="Helvetica,sans-Serif" font-size="10.00" fill="#000000">MainWindow::retrieveWire</text>
</a>
</g>
</g>
<!-- Node14815&#45;&gt;Node14816 -->
<g id="edge1" class="edge">
<title>Node14815&#45;&gt;Node14816</title>
<path fill="none" stroke="#191970" d="M129.105,-10C137.484,-10 146.1584,-10 154.786,-10"/>
<polygon fill="#191970" stroke="#191970" points="154.8722,-13.5001 164.8722,-10 154.8721,-6.5001 154.8722,-13.5001"/>
</g>
<!-- Node14817 -->
<g id="node3" class="node">
<title>Node14817</title>
<g id="a_node3"><a xlink:href="../../d6/d47/classWireAction.html#a385020c1b6bee2d42844b55c02002118" target="_top" xlink:title=" ">
<polygon fill="#ffffff" stroke="#000000" points="347,-.5 347,-19.5 444,-19.5 444,-.5 347,-.5"/>
<text text-anchor="middle" x="395.5" y="-7.5" font-family="Helvetica,sans-Serif" font-size="10.00" fill="#000000">WireAction::wire</text>
</a>
</g>
</g>
<!-- Node14816&#45;&gt;Node14817 -->
<g id="edge2" class="edge">
<title>Node14816&#45;&gt;Node14817</title>
<path fill="none" stroke="#191970" d="M311.2169,-10C319.6895,-10 328.2479,-10 336.4972,-10"/>
<polygon fill="#191970" stroke="#191970" points="336.7514,-13.5001 346.7514,-10 336.7513,-6.5001 336.7514,-13.5001"/>
</g>
</g>
</svg>
