<?xml version="1.0" encoding="UTF-8" standalone="no"?>
<!DOCTYPE svg PUBLIC "-//W3C//DTD SVG 1.1//EN"
 "http://www.w3.org/Graphics/SVG/1.1/DTD/svg11.dtd">
<!-- Generated by graphviz version 2.40.1 (0)
 -->
<!-- Title: MainWindow::initLockedFiles Pages: 1 -->
<!--zoomable 204 -->
<svg id="main" version="1.1" xmlns="http://www.w3.org/2000/svg" xmlns:xlink="http://www.w3.org/1999/xlink" xml:space="preserve" onload="init(evt)">
<style type="text/css"><![CDATA[
.edge:hover path { stroke: red; }
.edge:hover polygon { stroke: red; fill: red; }
]]></style>
<script type="text/javascript"><![CDATA[
var edges = document.getElementsByTagName('g');
if (edges && edges.length) {
  for (var i=0;i<edges.length;i++) {
    if (edges[i].id.substr(0,4)=='edge') {
      edges[i].setAttribute('class','edge');
    }
  }
}
]]></script>
        <defs>
                <circle id="rim" cx="0" cy="0" r="7"/>
                <circle id="rim2" cx="0" cy="0" r="3.5"/>
                <g id="zoomPlus">
                        <use xlink:href="#rim" fill="#404040">
                                <set attributeName="fill" to="#808080" begin="zoomplus.mouseover" end="zoomplus.mouseout"/>
                        </use>
                        <path d="M-4,0h8M0,-4v8" fill="none" stroke="white" stroke-width="1.5" pointer-events="none"/>
                </g>
                <g id="zoomMin">
                        <use xlink:href="#rim" fill="#404040">
                                <set attributeName="fill" to="#808080" begin="zoomminus.mouseover" end="zoomminus.mouseout"/>
                        </use>
                        <path d="M-4,0h8" fill="none" stroke="white" stroke-width="1.5" pointer-events="none"/>
                </g>
                <g id="dirArrow">
                        <path fill="none" stroke="white" stroke-width="1.5" d="M0,-3.0v7 M-2.5,-0.5L0,-3.0L2.5,-0.5"/>
                </g>
               <g id="resetDef">
                       <use xlink:href="#rim2" fill="#404040">
                               <set attributeName="fill" to="#808080" begin="reset.mouseover" end="reset.mouseout"/>
                       </use>
               </g>
        </defs>

<script type="text/javascript">
var viewWidth = 873;
var viewHeight = 204;
var sectionId = 'dynsection-291';
</script>
<script xlink:href="../../svgpan.js"/>
<svg id="graph" class="graph">
<g id="viewport">
<title>MainWindow::initLockedFiles</title>
<polygon fill="#ffffff" stroke="transparent" points="-4,4 -4,-200 869,-200 869,4 -4,4"/>
<!-- Node23866 -->
<g id="node1" class="node">
<title>Node23866</title>
<g id="a_node1"><a xlink:title=" ">
<polygon fill="#bfbfbf" stroke="#000000" points="0,-66.5 0,-85.5 157,-85.5 157,-66.5 0,-66.5"/>
<text text-anchor="middle" x="78.5" y="-73.5" font-family="Helvetica,sans-Serif" font-size="10.00" fill="#000000">MainWindow::initLockedFiles</text>
</a>
</g>
</g>
<!-- Node23867 -->
<g id="node2" class="node">
<title>Node23867</title>
<g id="a_node2"><a xlink:href="../../d9/dc6/classLockManager.html#a5ce8dd66443e872d56aefb998636af6d" target="_top" xlink:title=" ">
<polygon fill="#ffffff" stroke="#000000" points="198,-83 198,-113 348,-113 348,-83 198,-83"/>
<text text-anchor="start" x="206" y="-101" font-family="Helvetica,sans-Serif" font-size="10.00" fill="#000000">LockManager::checkLocked</text>
<text text-anchor="middle" x="273" y="-90" font-family="Helvetica,sans-Serif" font-size="10.00" fill="#000000">Files</text>
</a>
</g>
</g>
<!-- Node23866&#45;&gt;Node23867 -->
<g id="edge1" class="edge">
<title>Node23866&#45;&gt;Node23867</title>
<path fill="none" stroke="#191970" d="M157.05,-84.8848C167.1714,-86.0297 177.5736,-87.2063 187.7956,-88.3625"/>
<polygon fill="#191970" stroke="#191970" points="187.6103,-91.8638 197.9404,-89.51 188.3971,-84.9081 187.6103,-91.8638"/>
</g>
<!-- Node23874 -->
<g id="node9" class="node">
<title>Node23874</title>
<g id="a_node9"><a xlink:href="../../d9/dc6/classLockManager.html#a43bbb25747e67485efbdb81a74473cf5" target="_top" xlink:title=" ">
<polygon fill="#ffffff" stroke="#000000" points="193,-44.5 193,-63.5 353,-63.5 353,-44.5 193,-44.5"/>
<text text-anchor="middle" x="273" y="-51.5" font-family="Helvetica,sans-Serif" font-size="10.00" fill="#000000">LockManager::initLockedFiles</text>
</a>
</g>
</g>
<!-- Node23866&#45;&gt;Node23874 -->
<g id="edge9" class="edge">
<title>Node23866&#45;&gt;Node23874</title>
<path fill="none" stroke="#191970" d="M157.05,-67.1152C165.5372,-66.1552 174.2219,-65.1728 182.8322,-64.1989"/>
<polygon fill="#191970" stroke="#191970" points="183.3462,-67.6632 192.8894,-63.0614 182.5594,-60.7076 183.3462,-67.6632"/>
</g>
<!-- Node23868 -->
<g id="node3" class="node">
<title>Node23868</title>
<g id="a_node3"><a xlink:href="../../d9/dc6/classLockManager.html#a0062afe21af04b7fc89cb4ca822ec0f2" target="_top" xlink:title=" ">
<polygon fill="#ffffff" stroke="#000000" points="397,-127 397,-157 547,-157 547,-127 397,-127"/>
<text text-anchor="start" x="405" y="-145" font-family="Helvetica,sans-Serif" font-size="10.00" fill="#000000">LockManager::checkLocked</text>
<text text-anchor="middle" x="472" y="-134" font-family="Helvetica,sans-Serif" font-size="10.00" fill="#000000">FilesAux</text>
</a>
</g>
</g>
<!-- Node23867&#45;&gt;Node23868 -->
<g id="edge2" class="edge">
<title>Node23867&#45;&gt;Node23868</title>
<path fill="none" stroke="#191970" d="M340.9279,-113.0192C357.9641,-116.786 376.3779,-120.8574 393.8673,-124.7244"/>
<polygon fill="#191970" stroke="#191970" points="393.5208,-128.2323 404.0406,-126.9738 395.032,-121.3973 393.5208,-128.2323"/>
</g>
<!-- Node23869 -->
<g id="node4" class="node">
<title>Node23869</title>
<g id="a_node4"><a xlink:href="../../dd/d63/classFolderUtils.html#a0d2abc6f2d60de8fbef3040aee803080" target="_top" xlink:title=" ">
<polygon fill="#ffffff" stroke="#000000" points="405,-39 405,-69 539,-69 539,-39 405,-39"/>
<text text-anchor="start" x="413" y="-57" font-family="Helvetica,sans-Serif" font-size="10.00" fill="#000000">FolderUtils::getTopLevel</text>
<text text-anchor="middle" x="472" y="-46" font-family="Helvetica,sans-Serif" font-size="10.00" fill="#000000">UserDataStorePath</text>
</a>
</g>
</g>
<!-- Node23867&#45;&gt;Node23869 -->
<g id="edge3" class="edge">
<title>Node23867&#45;&gt;Node23869</title>
<path fill="none" stroke="#191970" d="M340.9279,-82.9808C358.3133,-79.1367 377.1334,-74.9755 394.9416,-71.038"/>
<polygon fill="#191970" stroke="#191970" points="395.707,-74.4534 404.7155,-68.877 394.1957,-67.6185 395.707,-74.4534"/>
</g>
<!-- Node23870 -->
<g id="node5" class="node">
<title>Node23870</title>
<g id="a_node5"><a xlink:href="../../d9/dc6/classLockManager.html#af2d00c0d8ed33bcd024aaa24096208b2" target="_top" xlink:title=" ">
<polygon fill="#ffffff" stroke="#000000" points="389,-88.5 389,-107.5 555,-107.5 555,-88.5 389,-88.5"/>
<text text-anchor="middle" x="472" y="-95.5" font-family="Helvetica,sans-Serif" font-size="10.00" fill="#000000">LockManager::makeLockedFile</text>
</a>
</g>
</g>
<!-- Node23867&#45;&gt;Node23870 -->
<g id="edge4" class="edge">
<title>Node23867&#45;&gt;Node23870</title>
<path fill="none" stroke="#191970" d="M348.2334,-98C358.1392,-98 368.3868,-98 378.5499,-98"/>
<polygon fill="#191970" stroke="#191970" points="378.6691,-101.5001 388.6691,-98 378.6691,-94.5001 378.6691,-101.5001"/>
</g>
<!-- Node23873 -->
<g id="node8" class="node">
<title>Node23873</title>
<g id="a_node8"><a xlink:href="../../dd/d63/classFolderUtils.html#a714dffeb9966767ba34d521fafb0f219" target="_top" xlink:title=" ">
<polygon fill="#ffffff" stroke="#000000" points="421.5,-176.5 421.5,-195.5 522.5,-195.5 522.5,-176.5 421.5,-176.5"/>
<text text-anchor="middle" x="472" y="-183.5" font-family="Helvetica,sans-Serif" font-size="10.00" fill="#000000">FolderUtils::rmdir</text>
</a>
</g>
</g>
<!-- Node23867&#45;&gt;Node23873 -->
<g id="edge8" class="edge">
<title>Node23867&#45;&gt;Node23873</title>
<path fill="none" stroke="#191970" d="M293.7651,-113.0816C316.2096,-128.7121 353.5416,-152.8036 389,-167 396.1405,-169.8588 403.8071,-172.3404 411.4909,-174.48"/>
<polygon fill="#191970" stroke="#191970" points="410.6352,-177.8739 421.1948,-177.01 412.4013,-171.1003 410.6352,-177.8739"/>
</g>
<!-- Node23871 -->
<g id="node6" class="node">
<title>Node23871</title>
<g id="a_node6"><a xlink:href="../../d2/dfb/structLockedFile.html#a1cc1f64365e500f59da6b98822fddcf9" target="_top" xlink:title=" ">
<polygon fill="#ffffff" stroke="#000000" points="764,-88.5 764,-107.5 865,-107.5 865,-88.5 764,-88.5"/>
<text text-anchor="middle" x="814.5" y="-95.5" font-family="Helvetica,sans-Serif" font-size="10.00" fill="#000000">LockedFile::touch</text>
</a>
</g>
</g>
<!-- Node23870&#45;&gt;Node23871 -->
<g id="edge5" class="edge">
<title>Node23870&#45;&gt;Node23871</title>
<path fill="none" stroke="#191970" d="M555.347,-98C616.5478,-98 698.2987,-98 753.4859,-98"/>
<polygon fill="#191970" stroke="#191970" points="753.8125,-101.5001 763.8125,-98 753.8125,-94.5001 753.8125,-101.5001"/>
</g>
<!-- Node23872 -->
<g id="node7" class="node">
<title>Node23872</title>
<g id="a_node7"><a xlink:href="../../d9/dc6/classLockManager.html#ad613c0d86cd9dea15a3a7287092842e3" target="_top" xlink:title=" ">
<polygon fill="#ffffff" stroke="#000000" points="591,-69.5 591,-88.5 728,-88.5 728,-69.5 591,-69.5"/>
<text text-anchor="middle" x="659.5" y="-76.5" font-family="Helvetica,sans-Serif" font-size="10.00" fill="#000000">LockManager::touchFiles</text>
</a>
</g>
</g>
<!-- Node23870&#45;&gt;Node23872 -->
<g id="edge6" class="edge">
<title>Node23870&#45;&gt;Node23872</title>
<path fill="none" stroke="#191970" d="M555.059,-89.5833C563.5551,-88.7224 572.1698,-87.8495 580.6192,-86.9933"/>
<polygon fill="#191970" stroke="#191970" points="581.2283,-90.4495 590.8245,-85.9591 580.5225,-83.4852 581.2283,-90.4495"/>
</g>
<!-- Node23872&#45;&gt;Node23871 -->
<g id="edge7" class="edge">
<title>Node23872&#45;&gt;Node23871</title>
<path fill="none" stroke="#191970" d="M728.3879,-87.4443C736.8952,-88.4871 745.5426,-89.5472 753.9132,-90.5732"/>
<polygon fill="#191970" stroke="#191970" points="753.6067,-94.0618 763.9583,-91.8046 754.4585,-87.1138 753.6067,-94.0618"/>
</g>
<!-- Node23874&#45;&gt;Node23869 -->
<g id="edge11" class="edge">
<title>Node23874&#45;&gt;Node23869</title>
<path fill="none" stroke="#191970" d="M353.0807,-54C366.7649,-54 380.9589,-54 394.5724,-54"/>
<polygon fill="#191970" stroke="#191970" points="394.8515,-57.5001 404.8515,-54 394.8514,-50.5001 394.8515,-57.5001"/>
</g>
<!-- Node23874&#45;&gt;Node23870 -->
<g id="edge12" class="edge">
<title>Node23874&#45;&gt;Node23870</title>
<path fill="none" stroke="#191970" d="M316.18,-63.5473C346.2993,-70.2069 386.6848,-79.1363 418.7936,-86.2358"/>
<polygon fill="#191970" stroke="#191970" points="418.3844,-89.7298 428.9042,-88.4713 419.8957,-82.8948 418.3844,-89.7298"/>
</g>
<!-- Node23875 -->
<g id="node10" class="node">
<title>Node23875</title>
<g id="a_node10"><a xlink:href="../../de/db8/classTextUtils.html#ad35d662d2ca478c32b715c6d276de55e" target="_top" xlink:title=" ">
<polygon fill="#ffffff" stroke="#000000" points="409,-.5 409,-19.5 535,-19.5 535,-.5 409,-.5"/>
<text text-anchor="middle" x="472" y="-7.5" font-family="Helvetica,sans-Serif" font-size="10.00" fill="#000000">TextUtils::getRandText</text>
</a>
</g>
</g>
<!-- Node23874&#45;&gt;Node23875 -->
<g id="edge10" class="edge">
<title>Node23874&#45;&gt;Node23875</title>
<path fill="none" stroke="#191970" d="M316.18,-44.4527C346.2993,-37.7931 386.6848,-28.8637 418.7936,-21.7642"/>
<polygon fill="#191970" stroke="#191970" points="419.8957,-25.1052 428.9042,-19.5287 418.3844,-18.2702 419.8957,-25.1052"/>
</g>
</g>
</svg>
        <g id="navigator" transform="translate(0 0)" fill="#404254">
                <rect fill="#f2f5e9" fill-opacity="0.5" stroke="#606060" stroke-width=".5" x="0" y="0" width="60" height="60"/>
                <use id="zoomplus" xlink:href="#zoomPlus" x="17" y="9" onmousedown="handleZoom(evt,'in')"/>
                <use id="zoomminus" xlink:href="#zoomMin" x="42" y="9" onmousedown="handleZoom(evt,'out')"/>
                <use id="reset" xlink:href="#resetDef" x="30" y="36" onmousedown="handleReset()"/>
                <g id="arrowUp" xlink:href="#dirArrow" transform="translate(30 24)" onmousedown="handlePan(0,-1)">
                  <use xlink:href="#rim" fill="#404040">
                        <set attributeName="fill" to="#808080" begin="arrowUp.mouseover" end="arrowUp.mouseout"/>
                  </use>
                  <path fill="none" stroke="white" stroke-width="1.5" d="M0,-3.0v7 M-2.5,-0.5L0,-3.0L2.5,-0.5"/>
                </g>
                <g id="arrowRight" xlink:href="#dirArrow" transform="rotate(90) translate(36 -43)" onmousedown="handlePan(1,0)">
                  <use xlink:href="#rim" fill="#404040">
                        <set attributeName="fill" to="#808080" begin="arrowRight.mouseover" end="arrowRight.mouseout"/>
                  </use>
                  <path fill="none" stroke="white" stroke-width="1.5" d="M0,-3.0v7 M-2.5,-0.5L0,-3.0L2.5,-0.5"/>
                </g>
                <g id="arrowDown" xlink:href="#dirArrow" transform="rotate(180) translate(-30 -48)" onmousedown="handlePan(0,1)">
                  <use xlink:href="#rim" fill="#404040">
                        <set attributeName="fill" to="#808080" begin="arrowDown.mouseover" end="arrowDown.mouseout"/>
                  </use>
                  <path fill="none" stroke="white" stroke-width="1.5" d="M0,-3.0v7 M-2.5,-0.5L0,-3.0L2.5,-0.5"/>
                </g>
                <g id="arrowLeft" xlink:href="#dirArrow" transform="rotate(270) translate(-36 17)" onmousedown="handlePan(-1,0)">
                  <use xlink:href="#rim" fill="#404040">
                        <set attributeName="fill" to="#808080" begin="arrowLeft.mouseover" end="arrowLeft.mouseout"/>
                  </use>
                  <path fill="none" stroke="white" stroke-width="1.5" d="M0,-3.0v7 M-2.5,-0.5L0,-3.0L2.5,-0.5"/>
                </g>
        </g>
        <svg viewBox="0 0 15 15" width="100%" height="30px" preserveAspectRatio="xMaxYMin meet">
         <g id="arrow_out" transform="scale(0.3 0.3)">
          <a xlink:href="classMainWindow_a35030ce3b79f54618848687913fc7a5b_cgraph_org.svg" target="_base">
           <rect id="button" ry="5" rx="5" y="6" x="6" height="38" width="38"
                fill="#f2f5e9" fill-opacity="0.5" stroke="#606060" stroke-width="1.0"/>
           <path id="arrow"
             d="M 11.500037,31.436501 C 11.940474,20.09759 22.043105,11.32322 32.158766,21.979434 L 37.068811,17.246167 C 37.068811,17.246167 37.088388,32 37.088388,32 L 22.160133,31.978069 C 22.160133,31.978069 26.997745,27.140456 26.997745,27.140456 C 18.528582,18.264221 13.291696,25.230495 11.500037,31.436501 z"
             style="fill:#404040;"/>
          </a>
         </g>
        </svg>
</svg>
