<?xml version="1.0" encoding="UTF-8" standalone="no"?>
<!DOCTYPE svg PUBLIC "-//W3C//DTD SVG 1.1//EN"
 "http://www.w3.org/Graphics/SVG/1.1/DTD/svg11.dtd">
<!-- Generated by graphviz version 2.40.1 (0)
 -->
<!-- Title: MainWindow::launchExternalProcess Pages: 1 -->
<svg width="579pt" height="215pt"
 viewBox="0.00 0.00 579.00 215.23" xmlns="http://www.w3.org/2000/svg" xmlns:xlink="http://www.w3.org/1999/xlink">
<g id="graph0" class="graph" transform="scale(1 1) rotate(0) translate(4 211.227)">
<title>MainWindow::launchExternalProcess</title>
<polygon fill="#ffffff" stroke="transparent" points="-4,4 -4,-211.227 575,-211.227 575,4 -4,4"/>
<!-- Node25725 -->
<g id="node1" class="node">
<title>Node25725</title>
<g id="a_node1"><a xlink:title=" ">
<polygon fill="#bfbfbf" stroke="#000000" points="0,-101.5 0,-131.5 158,-131.5 158,-101.5 0,-101.5"/>
<text text-anchor="start" x="8" y="-119.5" font-family="Helvetica,sans-Serif" font-size="10.00" fill="#000000">MainWindow::launchExternal</text>
<text text-anchor="middle" x="79" y="-108.5" font-family="Helvetica,sans-Serif" font-size="10.00" fill="#000000">Process</text>
</a>
</g>
</g>
<!-- Node25726 -->
<g id="node2" class="node">
<title>Node25726</title>
<g id="a_node2"><a xlink:href="../../d6/d1a/classMainWindow.html#ae18dffb28f38463d98383f4791e03af1" target="_top" xlink:title=" ">
<polygon fill="#ffffff" stroke="#000000" points="408,-135 408,-154 571,-154 571,-135 408,-135"/>
<text text-anchor="middle" x="489.5" y="-142" font-family="Helvetica,sans-Serif" font-size="10.00" fill="#000000">MainWindow::externalProcess</text>
</a>
</g>
</g>
<!-- Node25725&#45;&gt;Node25726 -->
<g id="edge1" class="edge">
<title>Node25725&#45;&gt;Node25726</title>
<path fill="none" stroke="#191970" d="M94.9236,-131.5283C115.772,-150.0645 154.3513,-180.5824 194,-192.5 269.7626,-215.2728 294.3716,-207.7445 372,-192.5 404.7315,-186.0722 439.8376,-170.4631 463.0655,-158.778"/>
<polygon fill="#191970" stroke="#191970" points="464.9629,-161.7379 472.2516,-154.0486 461.7586,-155.5143 464.9629,-161.7379"/>
</g>
<!-- Node25727 -->
<g id="node3" class="node">
<title>Node25727</title>
<g id="a_node3"><a xlink:href="../../d3/d1c/classFritzingWindow.html#aa47767f58c66caeff225b25a5454c390" target="_top" xlink:title=" ">
<polygon fill="#ffffff" stroke="#000000" points="212.5,-164 212.5,-183 353.5,-183 353.5,-164 212.5,-164"/>
<text text-anchor="middle" x="283" y="-171" font-family="Helvetica,sans-Serif" font-size="10.00" fill="#000000">FritzingWindow::fileName</text>
</a>
</g>
</g>
<!-- Node25725&#45;&gt;Node25727 -->
<g id="edge2" class="edge">
<title>Node25725&#45;&gt;Node25727</title>
<path fill="none" stroke="#191970" d="M120.7254,-131.5032C142.4093,-138.9895 169.4437,-147.8429 194,-154.5 203.607,-157.1044 213.8755,-159.5776 223.8982,-161.8265"/>
<polygon fill="#191970" stroke="#191970" points="223.288,-165.2758 233.8054,-163.9972 224.7862,-158.438 223.288,-165.2758"/>
</g>
<!-- Node25728 -->
<g id="node4" class="node">
<title>Node25728</title>
<g id="a_node4"><a xlink:href="../../d6/d1a/classMainWindow.html#a0ee6ebba94231c8a46e73582e2aff944" target="_top" xlink:title=" ">
<polygon fill="#ffffff" stroke="#000000" points="210,-88 210,-107 356,-107 356,-88 210,-88"/>
<text text-anchor="middle" x="283" y="-95" font-family="Helvetica,sans-Serif" font-size="10.00" fill="#000000">MainWindow::processError</text>
</a>
</g>
</g>
<!-- Node25725&#45;&gt;Node25728 -->
<g id="edge3" class="edge">
<title>Node25725&#45;&gt;Node25728</title>
<path fill="none" stroke="#191970" d="M158.1637,-109.1269C171.7295,-107.8634 185.8633,-106.547 199.5372,-105.2735"/>
<polygon fill="#191970" stroke="#191970" points="200.2547,-108.7219 209.887,-104.3095 199.6055,-101.7521 200.2547,-108.7219"/>
</g>
<!-- Node25730 -->
<g id="node6" class="node">
<title>Node25730</title>
<g id="a_node6"><a xlink:href="../../d6/d1a/classMainWindow.html#a5956643693baee11ff99555d6d2dc289" target="_top" xlink:title=" ">
<polygon fill="#ffffff" stroke="#000000" points="201.5,-126 201.5,-145 364.5,-145 364.5,-126 201.5,-126"/>
<text text-anchor="middle" x="283" y="-133" font-family="Helvetica,sans-Serif" font-size="10.00" fill="#000000">MainWindow::processFinished</text>
</a>
</g>
</g>
<!-- Node25725&#45;&gt;Node25730 -->
<g id="edge5" class="edge">
<title>Node25725&#45;&gt;Node25730</title>
<path fill="none" stroke="#191970" d="M158.1637,-123.8731C168.968,-124.8794 180.1327,-125.9192 191.1383,-126.9443"/>
<polygon fill="#191970" stroke="#191970" points="190.9044,-130.4375 201.1859,-127.8801 191.5536,-123.4677 190.9044,-130.4375"/>
</g>
<!-- Node25731 -->
<g id="node7" class="node">
<title>Node25731</title>
<g id="a_node7"><a xlink:href="../../d6/d1a/classMainWindow.html#a19931ee2868bcad6ff4b4b02609d9b27" target="_top" xlink:title=" ">
<polygon fill="#ffffff" stroke="#000000" points="194,-50 194,-69 372,-69 372,-50 194,-50"/>
<text text-anchor="middle" x="283" y="-57" font-family="Helvetica,sans-Serif" font-size="10.00" fill="#000000">MainWindow::processReadyRead</text>
</a>
</g>
</g>
<!-- Node25725&#45;&gt;Node25731 -->
<g id="edge8" class="edge">
<title>Node25725&#45;&gt;Node25731</title>
<path fill="none" stroke="#191970" d="M120.7254,-101.4968C142.4093,-94.0105 169.4437,-85.1571 194,-78.5 203.607,-75.8956 213.8755,-73.4224 223.8982,-71.1735"/>
<polygon fill="#191970" stroke="#191970" points="224.7862,-74.562 233.8054,-69.0028 223.288,-67.7242 224.7862,-74.562"/>
</g>
<!-- Node25732 -->
<g id="node8" class="node">
<title>Node25732</title>
<g id="a_node8"><a xlink:href="../../d6/d1a/classMainWindow.html#aa2119a94325d78f221069363c33804d7" target="_top" xlink:title=" ">
<polygon fill="#ffffff" stroke="#000000" points="209,-.5 209,-30.5 357,-30.5 357,-.5 209,-.5"/>
<text text-anchor="start" x="217" y="-18.5" font-family="Helvetica,sans-Serif" font-size="10.00" fill="#000000">MainWindow::processState</text>
<text text-anchor="middle" x="283" y="-7.5" font-family="Helvetica,sans-Serif" font-size="10.00" fill="#000000">Changed</text>
</a>
</g>
</g>
<!-- Node25725&#45;&gt;Node25732 -->
<g id="edge10" class="edge">
<title>Node25725&#45;&gt;Node25732</title>
<path fill="none" stroke="#191970" d="M97.8554,-101.3564C119.7902,-84.3986 157.6548,-57.1207 194,-40.5 199.2362,-38.1055 204.7526,-35.8911 210.3679,-33.8535"/>
<polygon fill="#191970" stroke="#191970" points="211.5563,-37.1461 219.8794,-30.5904 209.2847,-30.5249 211.5563,-37.1461"/>
</g>
<!-- Node25729 -->
<g id="node5" class="node">
<title>Node25729</title>
<g id="a_node5"><a xlink:href="../../da/d3a/classDebugDialog.html#ad26216d18945d7d7188420707b76f241" target="_top" xlink:title=" ">
<polygon fill="#ffffff" stroke="#000000" points="431.5,-78 431.5,-97 547.5,-97 547.5,-78 431.5,-78"/>
<text text-anchor="middle" x="489.5" y="-85" font-family="Helvetica,sans-Serif" font-size="10.00" fill="#000000">DebugDialog::debug</text>
</a>
</g>
</g>
<!-- Node25728&#45;&gt;Node25729 -->
<g id="edge4" class="edge">
<title>Node25728&#45;&gt;Node25729</title>
<path fill="none" stroke="#191970" d="M356.0948,-93.9603C377.3324,-92.9318 400.4358,-91.813 421.3565,-90.7999"/>
<polygon fill="#191970" stroke="#191970" points="421.6146,-94.2916 431.4335,-90.3119 421.2759,-87.2998 421.6146,-94.2916"/>
</g>
<!-- Node25730&#45;&gt;Node25726 -->
<g id="edge7" class="edge">
<title>Node25730&#45;&gt;Node25726</title>
<path fill="none" stroke="#191970" d="M364.6143,-139.057C375.4897,-139.531 386.7004,-140.0196 397.734,-140.5005"/>
<polygon fill="#191970" stroke="#191970" points="397.6594,-144.0005 407.8023,-140.9393 397.9642,-137.0071 397.6594,-144.0005"/>
</g>
<!-- Node25730&#45;&gt;Node25729 -->
<g id="edge6" class="edge">
<title>Node25730&#45;&gt;Node25729</title>
<path fill="none" stroke="#191970" d="M329.2542,-125.9157C343.0284,-122.9833 358.1425,-119.6884 372,-116.5 395.2451,-111.1516 420.9799,-104.8441 442.4253,-99.4797"/>
<polygon fill="#191970" stroke="#191970" points="443.4179,-102.8392 452.2646,-97.0095 441.7133,-96.0499 443.4179,-102.8392"/>
</g>
<!-- Node25731&#45;&gt;Node25729 -->
<g id="edge9" class="edge">
<title>Node25731&#45;&gt;Node25729</title>
<path fill="none" stroke="#191970" d="M353.1996,-69.0186C375.1031,-71.9886 399.2249,-75.2593 421.0096,-78.2132"/>
<polygon fill="#191970" stroke="#191970" points="420.7862,-81.7148 431.1658,-79.5903 421.7268,-74.7783 420.7862,-81.7148"/>
</g>
<!-- Node25732&#45;&gt;Node25729 -->
<g id="edge11" class="edge">
<title>Node25732&#45;&gt;Node25729</title>
<path fill="none" stroke="#191970" d="M340.2518,-30.6084C350.8684,-33.685 361.8173,-37.0443 372,-40.5 401.6735,-50.5703 434.7542,-64.0082 458.2352,-73.9355"/>
<polygon fill="#191970" stroke="#191970" points="457.101,-77.2566 467.6728,-77.9551 459.844,-70.8164 457.101,-77.2566"/>
</g>
</g>
</svg>
