<?xml version="1.0" encoding="UTF-8" standalone="no"?>
<!DOCTYPE svg PUBLIC "-//W3C//DTD SVG 1.1//EN"
 "http://www.w3.org/Graphics/SVG/1.1/DTD/svg11.dtd">
<!-- Generated by graphviz version 2.40.1 (0)
 -->
<!-- Title: MainWindow::addBendpoint Pages: 1 -->
<svg width="358pt" height="127pt"
 viewBox="0.00 0.00 358.00 126.50" xmlns="http://www.w3.org/2000/svg" xmlns:xlink="http://www.w3.org/1999/xlink">
<g id="graph0" class="graph" transform="scale(1 1) rotate(0) translate(4 122.5)">
<title>MainWindow::addBendpoint</title>
<polygon fill="#ffffff" stroke="transparent" points="-4,4 -4,-122.5 354,-122.5 354,4 -4,4"/>
<!-- Node764 -->
<g id="node1" class="node">
<title>Node764</title>
<g id="a_node1"><a xlink:title=" ">
<polygon fill="#bfbfbf" stroke="#000000" points="0,-44.5 0,-63.5 152,-63.5 152,-44.5 0,-44.5"/>
<text text-anchor="middle" x="76" y="-51.5" font-family="Helvetica,sans-Serif" font-size="10.00" fill="#000000">MainWindow::addBendpoint</text>
</a>
</g>
</g>
<!-- Node765 -->
<g id="node2" class="node">
<title>Node765</title>
<g id="a_node2"><a xlink:href="../../da/ddc/classBendpointAction.html#aae9c1668b102727333b4350f83a28530" target="_top" xlink:title=" ">
<polygon fill="#ffffff" stroke="#000000" points="194,-88 194,-118 344,-118 344,-88 194,-88"/>
<text text-anchor="start" x="202" y="-106" font-family="Helvetica,sans-Serif" font-size="10.00" fill="#000000">BendpointAction::lastHover</text>
<text text-anchor="middle" x="269" y="-95" font-family="Helvetica,sans-Serif" font-size="10.00" fill="#000000">EnterConnectorItem</text>
</a>
</g>
</g>
<!-- Node764&#45;&gt;Node765 -->
<g id="edge1" class="edge">
<title>Node764&#45;&gt;Node765</title>
<path fill="none" stroke="#191970" d="M113.6705,-63.564C138.2117,-69.7947 170.9614,-78.1094 200.0612,-85.4974"/>
<polygon fill="#191970" stroke="#191970" points="199.219,-88.8945 209.7728,-87.963 200.9416,-82.1098 199.219,-88.8945"/>
</g>
<!-- Node766 -->
<g id="node3" class="node">
<title>Node766</title>
<g id="a_node3"><a xlink:href="../../da/ddc/classBendpointAction.html#a4fde261c2adab0df63c2daf96e6cf315" target="_top" xlink:title=" ">
<polygon fill="#ffffff" stroke="#000000" points="194,-39 194,-69 344,-69 344,-39 194,-39"/>
<text text-anchor="start" x="202" y="-57" font-family="Helvetica,sans-Serif" font-size="10.00" fill="#000000">BendpointAction::lastHover</text>
<text text-anchor="middle" x="269" y="-46" font-family="Helvetica,sans-Serif" font-size="10.00" fill="#000000">EnterItem</text>
</a>
</g>
</g>
<!-- Node764&#45;&gt;Node766 -->
<g id="edge2" class="edge">
<title>Node764&#45;&gt;Node766</title>
<path fill="none" stroke="#191970" d="M152.0017,-54C162.3937,-54 173.1182,-54 183.6624,-54"/>
<polygon fill="#191970" stroke="#191970" points="183.7,-57.5001 193.7,-54 183.6999,-50.5001 183.7,-57.5001"/>
</g>
<!-- Node767 -->
<g id="node4" class="node">
<title>Node767</title>
<g id="a_node4"><a xlink:href="../../da/ddc/classBendpointAction.html#a3e7693a3310386cbb0a675e0fdbd3f06" target="_top" xlink:title=" ">
<polygon fill="#ffffff" stroke="#000000" points="188,-.5 188,-19.5 350,-19.5 350,-.5 188,-.5"/>
<text text-anchor="middle" x="269" y="-7.5" font-family="Helvetica,sans-Serif" font-size="10.00" fill="#000000">BendpointAction::lastLocation</text>
</a>
</g>
</g>
<!-- Node764&#45;&gt;Node767 -->
<g id="edge3" class="edge">
<title>Node764&#45;&gt;Node767</title>
<path fill="none" stroke="#191970" d="M117.8781,-44.4527C147.0893,-37.7931 186.2571,-28.8637 217.3978,-21.7642"/>
<polygon fill="#191970" stroke="#191970" points="218.2318,-25.164 227.2036,-19.5287 216.6758,-18.3391 218.2318,-25.164"/>
</g>
</g>
</svg>
