<?xml version="1.0" encoding="UTF-8" standalone="no"?>
<!DOCTYPE svg PUBLIC "-//W3C//DTD SVG 1.1//EN"
 "http://www.w3.org/Graphics/SVG/1.1/DTD/svg11.dtd">
<!-- Generated by graphviz version 2.40.1 (0)
 -->
<!-- Title: svg/svgfilesplitter.cpp Pages: 1 -->
<svg width="1846pt" height="196pt"
 viewBox="0.00 0.00 1846.00 196.00" xmlns="http://www.w3.org/2000/svg" xmlns:xlink="http://www.w3.org/1999/xlink">
<g id="graph0" class="graph" transform="scale(1 1) rotate(0) translate(4 192)">
<title>svg/svgfilesplitter.cpp</title>
<polygon fill="#ffffff" stroke="transparent" points="-4,4 -4,-192 1842,-192 1842,4 -4,4"/>
<!-- Node0 -->
<g id="node1" class="node">
<title>Node0</title>
<g id="a_node1"><a xlink:title=" ">
<polygon fill="#bfbfbf" stroke="#000000" points="1251,-168.5 1251,-187.5 1374,-187.5 1374,-168.5 1251,-168.5"/>
<text text-anchor="middle" x="1312.5" y="-175.5" font-family="Helvetica,sans-Serif" font-size="10.00" fill="#000000">svg/svgfilesplitter.cpp</text>
</a>
</g>
</g>
<!-- Node1 -->
<g id="node2" class="node">
<title>Node1</title>
<g id="a_node2"><a xlink:href="../../da/da3/svgfilesplitter_8h.html" target="_top" xlink:title=" ">
<polygon fill="#ffffff" stroke="#000000" points="827.5,-112.5 827.5,-131.5 919.5,-131.5 919.5,-112.5 827.5,-112.5"/>
<text text-anchor="middle" x="873.5" y="-119.5" font-family="Helvetica,sans-Serif" font-size="10.00" fill="#000000">svgfilesplitter.h</text>
</a>
</g>
</g>
<!-- Node0&#45;&gt;Node1 -->
<g id="edge1" class="edge">
<title>Node0&#45;&gt;Node1</title>
<path fill="none" stroke="#191970" d="M1250.9967,-170.1545C1165.483,-159.2461 1011.9098,-139.6559 929.4587,-129.1382"/>
<polygon fill="#191970" stroke="#191970" points="929.8856,-125.6644 919.5231,-127.8708 928.9998,-132.6082 929.8856,-125.6644"/>
</g>
<!-- Node9 -->
<g id="node10" class="node">
<title>Node9</title>
<g id="a_node10"><a xlink:title=" ">
<polygon fill="#ffffff" stroke="#bfbfbf" points="1394,-56.5 1394,-75.5 1435,-75.5 1435,-56.5 1394,-56.5"/>
<text text-anchor="middle" x="1414.5" y="-63.5" font-family="Helvetica,sans-Serif" font-size="10.00" fill="#000000">QFile</text>
</a>
</g>
</g>
<!-- Node0&#45;&gt;Node9 -->
<g id="edge48" class="edge">
<title>Node0&#45;&gt;Node9</title>
<path fill="none" stroke="#191970" d="M1326.2914,-168.3475C1338.2128,-159.6293 1355.5216,-146.0462 1368.5,-132 1382.2081,-117.164 1395.109,-98.0265 1403.7396,-84.1827"/>
<polygon fill="#191970" stroke="#191970" points="1406.7774,-85.9234 1408.9899,-75.5622 1400.799,-82.2823 1406.7774,-85.9234"/>
</g>
<!-- Node10 -->
<g id="node11" class="node">
<title>Node10</title>
<g id="a_node11"><a xlink:href="../../d4/d08/misc_8h.html" target="_top" xlink:title=" ">
<polygon fill="#ffffff" stroke="#000000" points="1453.5,-56.5 1453.5,-75.5 1535.5,-75.5 1535.5,-56.5 1453.5,-56.5"/>
<text text-anchor="middle" x="1494.5" y="-63.5" font-family="Helvetica,sans-Serif" font-size="10.00" fill="#000000">../utils/misc.h</text>
</a>
</g>
</g>
<!-- Node0&#45;&gt;Node10 -->
<g id="edge10" class="edge">
<title>Node0&#45;&gt;Node10</title>
<path fill="none" stroke="#191970" d="M1329.0274,-168.4629C1344.88,-159.2658 1369.447,-144.8835 1390.5,-132 1418.4644,-114.887 1450.2343,-94.6 1471.2221,-81.0784"/>
<polygon fill="#191970" stroke="#191970" points="1473.2802,-83.9158 1479.784,-75.5521 1469.484,-78.0345 1473.2802,-83.9158"/>
</g>
<!-- Node18 -->
<g id="node19" class="node">
<title>Node18</title>
<g id="a_node19"><a xlink:href="../../dd/d5f/textutils_8h.html" target="_top" xlink:title=" ">
<polygon fill="#ffffff" stroke="#000000" points="424,-112.5 424,-131.5 523,-131.5 523,-112.5 424,-112.5"/>
<text text-anchor="middle" x="473.5" y="-119.5" font-family="Helvetica,sans-Serif" font-size="10.00" fill="#000000">../utils/textutils.h</text>
</a>
</g>
</g>
<!-- Node0&#45;&gt;Node18 -->
<g id="edge20" class="edge">
<title>Node0&#45;&gt;Node18</title>
<path fill="none" stroke="#191970" d="M1250.8063,-173.8822C1094.9728,-163.4809 686.9991,-136.2502 533.2669,-125.9892"/>
<polygon fill="#191970" stroke="#191970" points="533.2897,-122.483 523.0787,-125.3092 532.8234,-129.4675 533.2897,-122.483"/>
</g>
<!-- Node21 -->
<g id="node22" class="node">
<title>Node21</title>
<g id="a_node22"><a xlink:title=" ">
<polygon fill="#ffffff" stroke="#bfbfbf" points="629,-56.5 629,-75.5 742,-75.5 742,-56.5 629,-56.5"/>
<text text-anchor="middle" x="685.5" y="-63.5" font-family="Helvetica,sans-Serif" font-size="10.00" fill="#000000">QXmlStreamReader</text>
</a>
</g>
</g>
<!-- Node0&#45;&gt;Node21 -->
<g id="edge50" class="edge">
<title>Node0&#45;&gt;Node21</title>
<path fill="none" stroke="#191970" d="M1250.6718,-175.0716C1136.7669,-169.2093 898.1468,-154.6221 818.5,-132 777.8652,-120.4585 734.754,-96.6481 708.988,-81.0058"/>
<polygon fill="#191970" stroke="#191970" points="710.664,-77.9272 700.3167,-75.6503 706.9856,-83.8829 710.664,-77.9272"/>
</g>
<!-- Node22 -->
<g id="node23" class="node">
<title>Node22</title>
<g id="a_node23"><a xlink:href="../../df/db5/debugdialog_8h.html" target="_top" xlink:title=" ">
<polygon fill="#ffffff" stroke="#000000" points="1455,-112.5 1455,-131.5 1550,-131.5 1550,-112.5 1455,-112.5"/>
<text text-anchor="middle" x="1502.5" y="-119.5" font-family="Helvetica,sans-Serif" font-size="10.00" fill="#000000">../debugdialog.h</text>
</a>
</g>
</g>
<!-- Node0&#45;&gt;Node22 -->
<g id="edge27" class="edge">
<title>Node0&#45;&gt;Node22</title>
<path fill="none" stroke="#191970" d="M1345.1622,-168.3733C1377.0298,-158.9807 1425.6531,-144.6496 1460.407,-134.4064"/>
<polygon fill="#191970" stroke="#191970" points="1461.6615,-137.6855 1470.264,-131.5011 1459.6825,-130.9711 1461.6615,-137.6855"/>
</g>
<!-- Node27 -->
<g id="node28" class="node">
<title>Node27</title>
<g id="a_node28"><a xlink:href="../../d1/dbb/svgpathparser_8h.html" target="_top" xlink:title=" ">
<polygon fill="#ffffff" stroke="#000000" points="1152,-112.5 1152,-131.5 1247,-131.5 1247,-112.5 1152,-112.5"/>
<text text-anchor="middle" x="1199.5" y="-119.5" font-family="Helvetica,sans-Serif" font-size="10.00" fill="#000000">svgpathparser.h</text>
</a>
</g>
</g>
<!-- Node0&#45;&gt;Node27 -->
<g id="edge34" class="edge">
<title>Node0&#45;&gt;Node27</title>
<path fill="none" stroke="#191970" d="M1293.0746,-168.3733C1275.0979,-159.4644 1248.1559,-146.1127 1227.791,-136.0203"/>
<polygon fill="#191970" stroke="#191970" points="1229.1861,-132.8055 1218.6719,-131.5011 1226.0778,-139.0776 1229.1861,-132.8055"/>
</g>
<!-- Node30 -->
<g id="node31" class="node">
<title>Node30</title>
<g id="a_node31"><a xlink:href="../../db/daa/svgpathlexer_8h.html" target="_top" xlink:title=" ">
<polygon fill="#ffffff" stroke="#000000" points="205.5,-112.5 205.5,-131.5 293.5,-131.5 293.5,-112.5 205.5,-112.5"/>
<text text-anchor="middle" x="249.5" y="-119.5" font-family="Helvetica,sans-Serif" font-size="10.00" fill="#000000">svgpathlexer.h</text>
</a>
</g>
</g>
<!-- Node0&#45;&gt;Node30 -->
<g id="edge38" class="edge">
<title>Node0&#45;&gt;Node30</title>
<path fill="none" stroke="#191970" d="M1250.975,-175.047C1105.5042,-168.0216 728.9551,-149.5825 414.5,-132 377.5267,-129.9327 335.9059,-127.4088 303.716,-125.4138"/>
<polygon fill="#191970" stroke="#191970" points="303.8119,-121.9131 293.614,-124.7859 303.3776,-128.8996 303.8119,-121.9131"/>
</g>
<!-- Node33 -->
<g id="node34" class="node">
<title>Node33</title>
<g id="a_node34"><a xlink:href="../../d2/d03/svgpathrunner_8h.html" target="_top" xlink:title=" ">
<polygon fill="#ffffff" stroke="#000000" points="1265,-112.5 1265,-131.5 1360,-131.5 1360,-112.5 1265,-112.5"/>
<text text-anchor="middle" x="1312.5" y="-119.5" font-family="Helvetica,sans-Serif" font-size="10.00" fill="#000000">svgpathrunner.h</text>
</a>
</g>
</g>
<!-- Node0&#45;&gt;Node33 -->
<g id="edge44" class="edge">
<title>Node0&#45;&gt;Node33</title>
<path fill="none" stroke="#191970" d="M1312.5,-168.2455C1312.5,-160.9382 1312.5,-150.6944 1312.5,-141.7046"/>
<polygon fill="#191970" stroke="#191970" points="1316.0001,-141.6426 1312.5,-131.6427 1309.0001,-141.6427 1316.0001,-141.6426"/>
</g>
<!-- Node34 -->
<g id="node35" class="node">
<title>Node34</title>
<g id="a_node35"><a xlink:title=" ">
<polygon fill="#ffffff" stroke="#bfbfbf" points="1568.5,-112.5 1568.5,-131.5 1666.5,-131.5 1666.5,-112.5 1568.5,-112.5"/>
<text text-anchor="middle" x="1617.5" y="-119.5" font-family="Helvetica,sans-Serif" font-size="10.00" fill="#000000">QDomDocument</text>
</a>
</g>
</g>
<!-- Node0&#45;&gt;Node34 -->
<g id="edge47" class="edge">
<title>Node0&#45;&gt;Node34</title>
<path fill="none" stroke="#191970" d="M1364.5848,-168.4369C1418.3221,-158.5704 1502.0048,-143.2057 1558.2383,-132.8808"/>
<polygon fill="#191970" stroke="#191970" points="1559.202,-136.2625 1568.4055,-131.0141 1557.9378,-129.3776 1559.202,-136.2625"/>
</g>
<!-- Node35 -->
<g id="node36" class="node">
<title>Node35</title>
<g id="a_node36"><a xlink:title=" ">
<polygon fill="#ffffff" stroke="#bfbfbf" points="1685,-112.5 1685,-131.5 1744,-131.5 1744,-112.5 1685,-112.5"/>
<text text-anchor="middle" x="1714.5" y="-119.5" font-family="Helvetica,sans-Serif" font-size="10.00" fill="#000000">QtDebug</text>
</a>
</g>
</g>
<!-- Node0&#45;&gt;Node35 -->
<g id="edge49" class="edge">
<title>Node0&#45;&gt;Node35</title>
<path fill="none" stroke="#191970" d="M1374.206,-172.5515C1444.6053,-165.8051 1563.3043,-152.8201 1674.7101,-131.9415"/>
<polygon fill="#191970" stroke="#191970" points="1675.6046,-135.3343 1684.7757,-130.0295 1674.2982,-128.4572 1675.6046,-135.3343"/>
</g>
<!-- Node2 -->
<g id="node3" class="node">
<title>Node2</title>
<g id="a_node3"><a xlink:title=" ">
<polygon fill="#ffffff" stroke="#bfbfbf" points="983,-.5 983,-19.5 1036,-19.5 1036,-.5 983,-.5"/>
<text text-anchor="middle" x="1009.5" y="-7.5" font-family="Helvetica,sans-Serif" font-size="10.00" fill="#000000">QString</text>
</a>
</g>
</g>
<!-- Node1&#45;&gt;Node2 -->
<g id="edge2" class="edge">
<title>Node1&#45;&gt;Node2</title>
<path fill="none" stroke="#191970" d="M858.4064,-112.3745C839.803,-99.3171 812.3973,-75.3948 827.5,-56 845.1754,-33.3013 925.0297,-20.0329 972.8954,-13.9832"/>
<polygon fill="#191970" stroke="#191970" points="973.3746,-17.4508 982.878,-12.7672 972.5281,-10.5021 973.3746,-17.4508"/>
</g>
<!-- Node3 -->
<g id="node4" class="node">
<title>Node3</title>
<g id="a_node4"><a xlink:title=" ">
<polygon fill="#ffffff" stroke="#bfbfbf" points="837,-56.5 837,-75.5 910,-75.5 910,-56.5 837,-56.5"/>
<text text-anchor="middle" x="873.5" y="-63.5" font-family="Helvetica,sans-Serif" font-size="10.00" fill="#000000">QByteArray</text>
</a>
</g>
</g>
<!-- Node1&#45;&gt;Node3 -->
<g id="edge3" class="edge">
<title>Node1&#45;&gt;Node3</title>
<path fill="none" stroke="#191970" d="M873.5,-112.2455C873.5,-104.9382 873.5,-94.6944 873.5,-85.7046"/>
<polygon fill="#191970" stroke="#191970" points="877.0001,-85.6426 873.5,-75.6427 870.0001,-85.6427 877.0001,-85.6426"/>
</g>
<!-- Node4 -->
<g id="node5" class="node">
<title>Node4</title>
<g id="a_node5"><a xlink:title=" ">
<polygon fill="#ffffff" stroke="#bfbfbf" points="532.5,-.5 532.5,-19.5 620.5,-19.5 620.5,-.5 532.5,-.5"/>
<text text-anchor="middle" x="576.5" y="-7.5" font-family="Helvetica,sans-Serif" font-size="10.00" fill="#000000">QDomElement</text>
</a>
</g>
</g>
<!-- Node1&#45;&gt;Node4 -->
<g id="edge4" class="edge">
<title>Node1&#45;&gt;Node4</title>
<path fill="none" stroke="#191970" d="M858.5221,-112.4666C835.8978,-98.4179 791.308,-72.0853 750.5,-56 711.4749,-40.6175 665.5295,-28.7183 630.6538,-20.8792"/>
<polygon fill="#191970" stroke="#191970" points="631.1858,-17.4125 620.6667,-18.677 629.6785,-24.2483 631.1858,-17.4125"/>
</g>
<!-- Node5 -->
<g id="node6" class="node">
<title>Node5</title>
<g id="a_node6"><a xlink:title=" ">
<polygon fill="#ffffff" stroke="#bfbfbf" points="928.5,-56.5 928.5,-75.5 984.5,-75.5 984.5,-56.5 928.5,-56.5"/>
<text text-anchor="middle" x="956.5" y="-63.5" font-family="Helvetica,sans-Serif" font-size="10.00" fill="#000000">QObject</text>
</a>
</g>
</g>
<!-- Node1&#45;&gt;Node5 -->
<g id="edge5" class="edge">
<title>Node1&#45;&gt;Node5</title>
<path fill="none" stroke="#191970" d="M887.9575,-112.2455C900.5732,-103.7337 919.0944,-91.2375 933.7045,-81.3801"/>
<polygon fill="#191970" stroke="#191970" points="935.8761,-84.1371 942.2082,-75.6427 931.9609,-78.3343 935.8761,-84.1371"/>
</g>
<!-- Node6 -->
<g id="node7" class="node">
<title>Node6</title>
<g id="a_node7"><a xlink:title=" ">
<polygon fill="#ffffff" stroke="#bfbfbf" points="249.5,-56.5 249.5,-75.5 305.5,-75.5 305.5,-56.5 249.5,-56.5"/>
<text text-anchor="middle" x="277.5" y="-63.5" font-family="Helvetica,sans-Serif" font-size="10.00" fill="#000000">QMatrix</text>
</a>
</g>
</g>
<!-- Node1&#45;&gt;Node6 -->
<g id="edge6" class="edge">
<title>Node1&#45;&gt;Node6</title>
<path fill="none" stroke="#191970" d="M827.4338,-118.6249C736.5079,-111.81 527.5877,-95.3922 352.5,-76 340.4832,-74.6691 327.4126,-73.0025 315.5993,-71.4138"/>
<polygon fill="#191970" stroke="#191970" points="315.9813,-67.9335 305.5996,-70.048 315.034,-74.8691 315.9813,-67.9335"/>
</g>
<!-- Node7 -->
<g id="node8" class="node">
<title>Node7</title>
<g id="a_node8"><a xlink:title=" ">
<polygon fill="#ffffff" stroke="#bfbfbf" points="1003,-56.5 1003,-75.5 1082,-75.5 1082,-56.5 1003,-56.5"/>
<text text-anchor="middle" x="1042.5" y="-63.5" font-family="Helvetica,sans-Serif" font-size="10.00" fill="#000000">QPainterPath</text>
</a>
</g>
</g>
<!-- Node1&#45;&gt;Node7 -->
<g id="edge7" class="edge">
<title>Node1&#45;&gt;Node7</title>
<path fill="none" stroke="#191970" d="M902.5521,-112.3733C930.6543,-103.0613 973.4054,-88.8953 1004.2607,-78.671"/>
<polygon fill="#191970" stroke="#191970" points="1005.4355,-81.969 1013.827,-75.5011 1003.2336,-75.3243 1005.4355,-81.969"/>
</g>
<!-- Node8 -->
<g id="node9" class="node">
<title>Node8</title>
<g id="a_node9"><a xlink:title=" ">
<polygon fill="#ffffff" stroke="#bfbfbf" points="550,-56.5 550,-75.5 611,-75.5 611,-56.5 550,-56.5"/>
<text text-anchor="middle" x="580.5" y="-63.5" font-family="Helvetica,sans-Serif" font-size="10.00" fill="#000000">QRegExp</text>
</a>
</g>
</g>
<!-- Node1&#45;&gt;Node8 -->
<g id="edge8" class="edge">
<title>Node1&#45;&gt;Node8</title>
<path fill="none" stroke="#191970" d="M827.4171,-114.6773C778.4686,-106.6715 698.6264,-92.9646 621.0465,-76.2327"/>
<polygon fill="#191970" stroke="#191970" points="621.6229,-72.7762 611.1073,-74.0694 620.1341,-79.6161 621.6229,-72.7762"/>
</g>
<!-- Node1&#45;&gt;Node9 -->
<g id="edge9" class="edge">
<title>Node1&#45;&gt;Node9</title>
<path fill="none" stroke="#191970" d="M919.8061,-118.2109C1004.4547,-111.1232 1189.7943,-94.8599 1345.5,-76 1358.0469,-74.4803 1371.8374,-72.5367 1383.7698,-70.7678"/>
<polygon fill="#191970" stroke="#191970" points="1384.3319,-74.2227 1393.6996,-69.2733 1383.2901,-67.3007 1384.3319,-74.2227"/>
</g>
<!-- Node10&#45;&gt;Node2 -->
<g id="edge13" class="edge">
<title>Node10&#45;&gt;Node2</title>
<path fill="none" stroke="#191970" d="M1453.3582,-57.6103C1450.029,-57.0299 1446.7119,-56.4841 1443.5,-56 1297.1077,-33.9335 1121.3583,-18.7543 1046.3448,-12.8037"/>
<polygon fill="#191970" stroke="#191970" points="1046.2671,-9.2869 1036.0237,-11.993 1045.7188,-16.2654 1046.2671,-9.2869"/>
</g>
<!-- Node10&#45;&gt;Node4 -->
<g id="edge15" class="edge">
<title>Node10&#45;&gt;Node4</title>
<path fill="none" stroke="#191970" d="M1453.3866,-57.4015C1450.051,-56.8679 1446.7247,-56.3899 1443.5,-56 1105.5847,-15.1436 1017.9852,-44.6134 678.5,-20 663.0715,-18.8814 646.3586,-17.3693 631.013,-15.8599"/>
<polygon fill="#191970" stroke="#191970" points="630.9393,-12.3351 620.6401,-14.8203 630.2412,-19.3002 630.9393,-12.3351"/>
</g>
<!-- Node11 -->
<g id="node12" class="node">
<title>Node11</title>
<g id="a_node12"><a xlink:title=" ">
<polygon fill="#ffffff" stroke="#bfbfbf" points="1630,-.5 1630,-19.5 1679,-19.5 1679,-.5 1630,-.5"/>
<text text-anchor="middle" x="1654.5" y="-7.5" font-family="Helvetica,sans-Serif" font-size="10.00" fill="#000000">QHash</text>
</a>
</g>
</g>
<!-- Node10&#45;&gt;Node11 -->
<g id="edge11" class="edge">
<title>Node10&#45;&gt;Node11</title>
<path fill="none" stroke="#191970" d="M1522.005,-56.3733C1549.1794,-46.8622 1590.8222,-32.2872 1620.1553,-22.0207"/>
<polygon fill="#191970" stroke="#191970" points="1621.6911,-25.1914 1629.9735,-18.5843 1619.3786,-18.5843 1621.6911,-25.1914"/>
</g>
<!-- Node12 -->
<g id="node13" class="node">
<title>Node12</title>
<g id="a_node13"><a xlink:title=" ">
<polygon fill="#ffffff" stroke="#bfbfbf" points="1293,-.5 1293,-19.5 1348,-19.5 1348,-.5 1293,-.5"/>
<text text-anchor="middle" x="1320.5" y="-7.5" font-family="Helvetica,sans-Serif" font-size="10.00" fill="#000000">QVector</text>
</a>
</g>
</g>
<!-- Node10&#45;&gt;Node12 -->
<g id="edge12" class="edge">
<title>Node10&#45;&gt;Node12</title>
<path fill="none" stroke="#191970" d="M1464.5883,-56.3733C1435.041,-46.8638 1389.7647,-32.2921 1357.8659,-22.0258"/>
<polygon fill="#191970" stroke="#191970" points="1358.6075,-18.5877 1348.016,-18.8557 1356.4629,-25.2511 1358.6075,-18.5877"/>
</g>
<!-- Node13 -->
<g id="node14" class="node">
<title>Node13</title>
<g id="a_node14"><a xlink:title=" ">
<polygon fill="#ffffff" stroke="#bfbfbf" points="1366.5,-.5 1366.5,-19.5 1404.5,-19.5 1404.5,-.5 1366.5,-.5"/>
<text text-anchor="middle" x="1385.5" y="-7.5" font-family="Helvetica,sans-Serif" font-size="10.00" fill="#000000">QDir</text>
</a>
</g>
</g>
<!-- Node10&#45;&gt;Node13 -->
<g id="edge14" class="edge">
<title>Node10&#45;&gt;Node13</title>
<path fill="none" stroke="#191970" d="M1475.5136,-56.2455C1458.3208,-47.4125 1432.7762,-34.2887 1413.2868,-24.2758"/>
<polygon fill="#191970" stroke="#191970" points="1414.763,-21.0993 1404.2688,-19.6427 1411.5641,-27.3257 1414.763,-21.0993"/>
</g>
<!-- Node14 -->
<g id="node15" class="node">
<title>Node14</title>
<g id="a_node15"><a xlink:title=" ">
<polygon fill="#ffffff" stroke="#bfbfbf" points="1422.5,-.5 1422.5,-19.5 1492.5,-19.5 1492.5,-.5 1422.5,-.5"/>
<text text-anchor="middle" x="1457.5" y="-7.5" font-family="Helvetica,sans-Serif" font-size="10.00" fill="#000000">QStringList</text>
</a>
</g>
</g>
<!-- Node10&#45;&gt;Node14 -->
<g id="edge16" class="edge">
<title>Node10&#45;&gt;Node14</title>
<path fill="none" stroke="#191970" d="M1488.0551,-56.2455C1482.9618,-48.5367 1475.7092,-37.5598 1469.548,-28.2348"/>
<polygon fill="#191970" stroke="#191970" points="1472.3038,-26.0566 1463.8711,-19.6427 1466.4635,-29.9155 1472.3038,-26.0566"/>
</g>
<!-- Node15 -->
<g id="node16" class="node">
<title>Node15</title>
<g id="a_node16"><a xlink:title=" ">
<polygon fill="#ffffff" stroke="#bfbfbf" points="1510.5,-.5 1510.5,-19.5 1552.5,-19.5 1552.5,-.5 1510.5,-.5"/>
<text text-anchor="middle" x="1531.5" y="-7.5" font-family="Helvetica,sans-Serif" font-size="10.00" fill="#000000">QPair</text>
</a>
</g>
</g>
<!-- Node10&#45;&gt;Node15 -->
<g id="edge17" class="edge">
<title>Node10&#45;&gt;Node15</title>
<path fill="none" stroke="#191970" d="M1500.9449,-56.2455C1506.0382,-48.5367 1513.2908,-37.5598 1519.452,-28.2348"/>
<polygon fill="#191970" stroke="#191970" points="1522.5365,-29.9155 1525.1289,-19.6427 1516.6962,-26.0566 1522.5365,-29.9155"/>
</g>
<!-- Node16 -->
<g id="node17" class="node">
<title>Node16</title>
<g id="a_node17"><a xlink:title=" ">
<polygon fill="#ffffff" stroke="#bfbfbf" points="1571,-.5 1571,-19.5 1612,-19.5 1612,-.5 1571,-.5"/>
<text text-anchor="middle" x="1591.5" y="-7.5" font-family="Helvetica,sans-Serif" font-size="10.00" fill="#000000">QList</text>
</a>
</g>
</g>
<!-- Node10&#45;&gt;Node16 -->
<g id="edge18" class="edge">
<title>Node10&#45;&gt;Node16</title>
<path fill="none" stroke="#191970" d="M1511.3961,-56.2455C1526.418,-47.5731 1548.6043,-34.7645 1565.821,-24.825"/>
<polygon fill="#191970" stroke="#191970" points="1567.8871,-27.6737 1574.7975,-19.6427 1564.3872,-21.6114 1567.8871,-27.6737"/>
</g>
<!-- Node17 -->
<g id="node18" class="node">
<title>Node17</title>
<g id="a_node18"><a xlink:title=" ">
<polygon fill="#ffffff" stroke="#bfbfbf" points="688,-.5 688,-19.5 743,-19.5 743,-.5 688,-.5"/>
<text text-anchor="middle" x="715.5" y="-7.5" font-family="Helvetica,sans-Serif" font-size="10.00" fill="#000000">QPointF</text>
</a>
</g>
</g>
<!-- Node10&#45;&gt;Node17 -->
<g id="edge19" class="edge">
<title>Node10&#45;&gt;Node17</title>
<path fill="none" stroke="#191970" d="M1453.3794,-57.4589C1450.0455,-56.9124 1446.7215,-56.4158 1443.5,-56 1307.8972,-38.4975 883.1136,-17.7941 753.4576,-11.7418"/>
<polygon fill="#191970" stroke="#191970" points="753.3873,-8.2348 743.2355,-11.2664 753.0621,-15.2272 753.3873,-8.2348"/>
</g>
<!-- Node18&#45;&gt;Node4 -->
<g id="edge22" class="edge">
<title>Node18&#45;&gt;Node4</title>
<path fill="none" stroke="#191970" d="M423.784,-113.3621C380.6253,-103.6888 328.5302,-85.3924 352.5,-56 373.4908,-30.2606 462.7324,-18.5169 522.041,-13.4694"/>
<polygon fill="#191970" stroke="#191970" points="522.331,-16.9575 532.0147,-12.6592 521.7641,-9.9804 522.331,-16.9575"/>
</g>
<!-- Node18&#45;&gt;Node6 -->
<g id="edge24" class="edge">
<title>Node18&#45;&gt;Node6</title>
<path fill="none" stroke="#191970" d="M439.8064,-112.3733C405.1906,-102.483 351.4098,-87.1171 315.3487,-76.8139"/>
<polygon fill="#191970" stroke="#191970" points="316.255,-73.4329 305.6782,-74.0509 314.3319,-80.1635 316.255,-73.4329"/>
</g>
<!-- Node18&#45;&gt;Node17 -->
<g id="edge21" class="edge">
<title>Node18&#45;&gt;Node17</title>
<path fill="none" stroke="#191970" d="M480.5846,-112.3288C491.7054,-97.857 514.674,-70.7 540.5,-56 583.7362,-31.3902 640.4499,-19.6248 677.4201,-14.2302"/>
<polygon fill="#191970" stroke="#191970" points="678.3273,-17.6386 687.7592,-12.8127 677.3764,-10.7035 678.3273,-17.6386"/>
</g>
<!-- Node19 -->
<g id="node20" class="node">
<title>Node19</title>
<g id="a_node20"><a xlink:title=" ">
<polygon fill="#ffffff" stroke="#bfbfbf" points="453.5,-56.5 453.5,-75.5 493.5,-75.5 493.5,-56.5 453.5,-56.5"/>
<text text-anchor="middle" x="473.5" y="-63.5" font-family="Helvetica,sans-Serif" font-size="10.00" fill="#000000">QSet</text>
</a>
</g>
</g>
<!-- Node18&#45;&gt;Node19 -->
<g id="edge23" class="edge">
<title>Node18&#45;&gt;Node19</title>
<path fill="none" stroke="#191970" d="M473.5,-112.2455C473.5,-104.9382 473.5,-94.6944 473.5,-85.7046"/>
<polygon fill="#191970" stroke="#191970" points="477.0001,-85.6426 473.5,-75.6427 470.0001,-85.6427 477.0001,-85.6426"/>
</g>
<!-- Node20 -->
<g id="node21" class="node">
<title>Node20</title>
<g id="a_node21"><a xlink:title=" ">
<polygon fill="#ffffff" stroke="#bfbfbf" points="362,-56.5 362,-75.5 435,-75.5 435,-56.5 362,-56.5"/>
<text text-anchor="middle" x="398.5" y="-63.5" font-family="Helvetica,sans-Serif" font-size="10.00" fill="#000000">QTransform</text>
</a>
</g>
</g>
<!-- Node18&#45;&gt;Node20 -->
<g id="edge25" class="edge">
<title>Node18&#45;&gt;Node20</title>
<path fill="none" stroke="#191970" d="M460.436,-112.2455C449.1438,-103.814 432.6155,-91.4729 419.4729,-81.6598"/>
<polygon fill="#191970" stroke="#191970" points="421.5211,-78.8211 411.4143,-75.6427 417.3331,-84.4301 421.5211,-78.8211"/>
</g>
<!-- Node18&#45;&gt;Node21 -->
<g id="edge26" class="edge">
<title>Node18&#45;&gt;Node21</title>
<path fill="none" stroke="#191970" d="M509.9441,-112.3733C545.8069,-102.9001 600.6878,-88.4032 639.5282,-78.1435"/>
<polygon fill="#191970" stroke="#191970" points="640.757,-81.439 649.5315,-75.5011 638.9692,-74.6712 640.757,-81.439"/>
</g>
<!-- Node22&#45;&gt;Node9 -->
<g id="edge31" class="edge">
<title>Node22&#45;&gt;Node9</title>
<path fill="none" stroke="#191970" d="M1487.1716,-112.2455C1473.6697,-103.6534 1453.7878,-91.0014 1438.2314,-81.1018"/>
<polygon fill="#191970" stroke="#191970" points="1439.9685,-78.0587 1429.6528,-75.6427 1436.2103,-83.9643 1439.9685,-78.0587"/>
</g>
<!-- Node22&#45;&gt;Node10 -->
<g id="edge33" class="edge">
<title>Node22&#45;&gt;Node10</title>
<path fill="none" stroke="#191970" d="M1501.1065,-112.2455C1500.0626,-104.9382 1498.5992,-94.6944 1497.3149,-85.7046"/>
<polygon fill="#191970" stroke="#191970" points="1500.7566,-85.0472 1495.8775,-75.6427 1493.827,-86.0372 1500.7566,-85.0472"/>
</g>
<!-- Node23 -->
<g id="node24" class="node">
<title>Node23</title>
<g id="a_node24"><a xlink:title=" ">
<polygon fill="#ffffff" stroke="#bfbfbf" points="1553.5,-56.5 1553.5,-75.5 1609.5,-75.5 1609.5,-56.5 1553.5,-56.5"/>
<text text-anchor="middle" x="1581.5" y="-63.5" font-family="Helvetica,sans-Serif" font-size="10.00" fill="#000000">QDialog</text>
</a>
</g>
</g>
<!-- Node22&#45;&gt;Node23 -->
<g id="edge28" class="edge">
<title>Node22&#45;&gt;Node23</title>
<path fill="none" stroke="#191970" d="M1516.2607,-112.2455C1528.1552,-103.814 1545.565,-91.4729 1559.4085,-81.6598"/>
<polygon fill="#191970" stroke="#191970" points="1561.7628,-84.2811 1567.8969,-75.6427 1557.7146,-78.5704 1561.7628,-84.2811"/>
</g>
<!-- Node24 -->
<g id="node25" class="node">
<title>Node24</title>
<g id="a_node25"><a xlink:title=" ">
<polygon fill="#ffffff" stroke="#bfbfbf" points="1627.5,-56.5 1627.5,-75.5 1679.5,-75.5 1679.5,-56.5 1627.5,-56.5"/>
<text text-anchor="middle" x="1653.5" y="-63.5" font-family="Helvetica,sans-Serif" font-size="10.00" fill="#000000">QEvent</text>
</a>
</g>
</g>
<!-- Node22&#45;&gt;Node24 -->
<g id="edge29" class="edge">
<title>Node22&#45;&gt;Node24</title>
<path fill="none" stroke="#191970" d="M1528.4578,-112.3733C1553.2407,-103.1822 1590.7746,-89.2624 1618.254,-79.0713"/>
<polygon fill="#191970" stroke="#191970" points="1619.7219,-82.26 1627.8809,-75.5011 1617.2879,-75.6968 1619.7219,-82.26"/>
</g>
<!-- Node25 -->
<g id="node26" class="node">
<title>Node25</title>
<g id="a_node26"><a xlink:title=" ">
<polygon fill="#ffffff" stroke="#bfbfbf" points="1698,-56.5 1698,-75.5 1761,-75.5 1761,-56.5 1698,-56.5"/>
<text text-anchor="middle" x="1729.5" y="-63.5" font-family="Helvetica,sans-Serif" font-size="10.00" fill="#000000">QTextEdit</text>
</a>
</g>
</g>
<!-- Node22&#45;&gt;Node25 -->
<g id="edge30" class="edge">
<title>Node22&#45;&gt;Node25</title>
<path fill="none" stroke="#191970" d="M1541.2648,-112.4369C1582.0919,-102.365 1646.1437,-86.5637 1687.9803,-76.2427"/>
<polygon fill="#191970" stroke="#191970" points="1688.9797,-79.6012 1697.8503,-73.8078 1687.3031,-72.8049 1688.9797,-79.6012"/>
</g>
<!-- Node26 -->
<g id="node27" class="node">
<title>Node26</title>
<g id="a_node27"><a xlink:title=" ">
<polygon fill="#ffffff" stroke="#bfbfbf" points="1779,-56.5 1779,-75.5 1838,-75.5 1838,-56.5 1779,-56.5"/>
<text text-anchor="middle" x="1808.5" y="-63.5" font-family="Helvetica,sans-Serif" font-size="10.00" fill="#000000">QPointer</text>
</a>
</g>
</g>
<!-- Node22&#45;&gt;Node26 -->
<g id="edge32" class="edge">
<title>Node22&#45;&gt;Node26</title>
<path fill="none" stroke="#191970" d="M1550.0828,-113.635C1553.2695,-113.0801 1556.431,-112.531 1559.5,-112 1650.1276,-96.319 1675.8312,-96.1204 1768.8608,-76.2313"/>
<polygon fill="#191970" stroke="#191970" points="1769.6522,-79.6412 1778.6893,-74.111 1768.176,-72.7986 1769.6522,-79.6412"/>
</g>
<!-- Node27&#45;&gt;Node12 -->
<g id="edge36" class="edge">
<title>Node27&#45;&gt;Node12</title>
<path fill="none" stroke="#191970" d="M1175.6277,-112.4238C1148.9959,-100.3472 1111.8256,-78.4364 1129.5,-56 1148.2195,-32.2369 1232.699,-19.3196 1282.8206,-13.6269"/>
<polygon fill="#191970" stroke="#191970" points="1283.3972,-17.0849 1292.9584,-12.5205 1282.6377,-10.1262 1283.3972,-17.0849"/>
</g>
<!-- Node28 -->
<g id="node29" class="node">
<title>Node28</title>
<g id="a_node29"><a xlink:title=" ">
<polygon fill="#ffffff" stroke="#bfbfbf" points="1278,-56.5 1278,-75.5 1337,-75.5 1337,-56.5 1278,-56.5"/>
<text text-anchor="middle" x="1307.5" y="-63.5" font-family="Helvetica,sans-Serif" font-size="10.00" fill="#000000">QVariant</text>
</a>
</g>
</g>
<!-- Node27&#45;&gt;Node28 -->
<g id="edge35" class="edge">
<title>Node27&#45;&gt;Node28</title>
<path fill="none" stroke="#191970" d="M1218.3122,-112.2455C1235.3473,-103.4125 1260.6575,-90.2887 1279.9681,-80.2758"/>
<polygon fill="#191970" stroke="#191970" points="1281.637,-83.353 1288.9034,-75.6427 1278.4147,-77.1388 1281.637,-83.353"/>
</g>
<!-- Node29 -->
<g id="node30" class="node">
<title>Node29</title>
<g id="a_node30"><a xlink:href="../../d3/d80/svgpathgrammar__p_8h.html" target="_top" xlink:title=" ">
<polygon fill="#ffffff" stroke="#000000" points="1139,-56.5 1139,-75.5 1260,-75.5 1260,-56.5 1139,-56.5"/>
<text text-anchor="middle" x="1199.5" y="-63.5" font-family="Helvetica,sans-Serif" font-size="10.00" fill="#000000">svgpathgrammar_p.h</text>
</a>
</g>
</g>
<!-- Node27&#45;&gt;Node29 -->
<g id="edge37" class="edge">
<title>Node27&#45;&gt;Node29</title>
<path fill="none" stroke="#191970" d="M1199.5,-112.2455C1199.5,-104.9382 1199.5,-94.6944 1199.5,-85.7046"/>
<polygon fill="#191970" stroke="#191970" points="1203.0001,-85.6426 1199.5,-75.6427 1196.0001,-85.6427 1203.0001,-85.6426"/>
</g>
<!-- Node30&#45;&gt;Node4 -->
<g id="edge42" class="edge">
<title>Node30&#45;&gt;Node4</title>
<path fill="none" stroke="#191970" d="M243.9731,-112.1504C236.8243,-97.9427 226.8156,-71.6856 240.5,-56 258.7157,-35.1206 431.8221,-20.075 522.1773,-13.5734"/>
<polygon fill="#191970" stroke="#191970" points="522.5143,-17.0583 532.2418,-12.8599 522.0193,-10.0759 522.5143,-17.0583"/>
</g>
<!-- Node30&#45;&gt;Node6 -->
<g id="edge43" class="edge">
<title>Node30&#45;&gt;Node6</title>
<path fill="none" stroke="#191970" d="M254.3772,-112.2455C258.1513,-104.6973 263.4921,-94.0158 268.0901,-84.8197"/>
<polygon fill="#191970" stroke="#191970" points="271.337,-86.1522 272.6787,-75.6427 265.076,-83.0217 271.337,-86.1522"/>
</g>
<!-- Node30&#45;&gt;Node8 -->
<g id="edge41" class="edge">
<title>Node30&#45;&gt;Node8</title>
<path fill="none" stroke="#191970" d="M293.7967,-114.5057C358.3759,-103.5799 477.4577,-83.4331 539.8876,-72.871"/>
<polygon fill="#191970" stroke="#191970" points="540.4921,-76.3185 549.7681,-71.1993 539.3244,-69.4166 540.4921,-76.3185"/>
</g>
<!-- Node31 -->
<g id="node32" class="node">
<title>Node31</title>
<g id="a_node32"><a xlink:title=" ">
<polygon fill="#ffffff" stroke="#bfbfbf" points="0,-56.5 0,-75.5 89,-75.5 89,-56.5 0,-56.5"/>
<text text-anchor="middle" x="44.5" y="-63.5" font-family="Helvetica,sans-Serif" font-size="10.00" fill="#000000">QtCore/QString</text>
</a>
</g>
</g>
<!-- Node30&#45;&gt;Node31 -->
<g id="edge39" class="edge">
<title>Node30&#45;&gt;Node31</title>
<path fill="none" stroke="#191970" d="M214.2592,-112.3733C179.5806,-102.9001 126.5117,-88.4032 88.9538,-78.1435"/>
<polygon fill="#191970" stroke="#191970" points="89.8498,-74.7601 79.2809,-75.5011 88.0051,-81.5126 89.8498,-74.7601"/>
</g>
<!-- Node32 -->
<g id="node33" class="node">
<title>Node32</title>
<g id="a_node33"><a xlink:title=" ">
<polygon fill="#ffffff" stroke="#bfbfbf" points="107.5,-56.5 107.5,-75.5 193.5,-75.5 193.5,-56.5 107.5,-56.5"/>
<text text-anchor="middle" x="150.5" y="-63.5" font-family="Helvetica,sans-Serif" font-size="10.00" fill="#000000">QtCore/QHash</text>
</a>
</g>
</g>
<!-- Node30&#45;&gt;Node32 -->
<g id="edge40" class="edge">
<title>Node30&#45;&gt;Node32</title>
<path fill="none" stroke="#191970" d="M232.2555,-112.2455C216.9239,-103.5731 194.2801,-90.7645 176.7084,-80.825"/>
<polygon fill="#191970" stroke="#191970" points="177.9741,-77.5198 167.5469,-75.6427 174.5276,-83.6126 177.9741,-77.5198"/>
</g>
<!-- Node33&#45;&gt;Node12 -->
<g id="edge46" class="edge">
<title>Node33&#45;&gt;Node12</title>
<path fill="none" stroke="#191970" d="M1322.1492,-112.4346C1330.15,-103.7723 1340.9262,-90.2221 1345.5,-76 1350.7523,-59.6679 1342.7808,-41.4579 1334.4795,-28.3097"/>
<polygon fill="#191970" stroke="#191970" points="1337.1201,-25.9738 1328.5609,-19.7296 1331.358,-29.9485 1337.1201,-25.9738"/>
</g>
<!-- Node33&#45;&gt;Node28 -->
<g id="edge45" class="edge">
<title>Node33&#45;&gt;Node28</title>
<path fill="none" stroke="#191970" d="M1311.6291,-112.2455C1310.9766,-104.9382 1310.062,-94.6944 1309.2593,-85.7046"/>
<polygon fill="#191970" stroke="#191970" points="1312.7365,-85.2918 1308.361,-75.6427 1305.7642,-85.9143 1312.7365,-85.2918"/>
</g>
</g>
</svg>
