<?xml version="1.0" encoding="UTF-8" standalone="no"?>
<!DOCTYPE svg PUBLIC "-//W3C//DTD SVG 1.1//EN"
 "http://www.w3.org/Graphics/SVG/1.1/DTD/svg11.dtd">
<!-- Generated by graphviz version 2.40.1 (0)
 -->
<!-- Title: Grid::setAt Pages: 1 -->
<!--zoomable 290 -->
<svg id="main" version="1.1" xmlns="http://www.w3.org/2000/svg" xmlns:xlink="http://www.w3.org/1999/xlink" xml:space="preserve" onload="init(evt)">
<style type="text/css"><![CDATA[
.edge:hover path { stroke: red; }
.edge:hover polygon { stroke: red; fill: red; }
]]></style>
<script type="text/javascript"><![CDATA[
var edges = document.getElementsByTagName('g');
if (edges && edges.length) {
  for (var i=0;i<edges.length;i++) {
    if (edges[i].id.substr(0,4)=='edge') {
      edges[i].setAttribute('class','edge');
    }
  }
}
]]></script>
        <defs>
                <circle id="rim" cx="0" cy="0" r="7"/>
                <circle id="rim2" cx="0" cy="0" r="3.5"/>
                <g id="zoomPlus">
                        <use xlink:href="#rim" fill="#404040">
                                <set attributeName="fill" to="#808080" begin="zoomplus.mouseover" end="zoomplus.mouseout"/>
                        </use>
                        <path d="M-4,0h8M0,-4v8" fill="none" stroke="white" stroke-width="1.5" pointer-events="none"/>
                </g>
                <g id="zoomMin">
                        <use xlink:href="#rim" fill="#404040">
                                <set attributeName="fill" to="#808080" begin="zoomminus.mouseover" end="zoomminus.mouseout"/>
                        </use>
                        <path d="M-4,0h8" fill="none" stroke="white" stroke-width="1.5" pointer-events="none"/>
                </g>
                <g id="dirArrow">
                        <path fill="none" stroke="white" stroke-width="1.5" d="M0,-3.0v7 M-2.5,-0.5L0,-3.0L2.5,-0.5"/>
                </g>
               <g id="resetDef">
                       <use xlink:href="#rim2" fill="#404040">
                               <set attributeName="fill" to="#808080" begin="reset.mouseover" end="reset.mouseout"/>
                       </use>
               </g>
        </defs>

<script type="text/javascript">
var viewWidth = 1308;
var viewHeight = 290;
var sectionId = 'dynsection-7';
</script>
<script xlink:href="../../svgpan.js"/>
<svg id="graph" class="graph">
<g id="viewport">
<title>Grid::setAt</title>
<polygon fill="#ffffff" stroke="transparent" points="-4,4 -4,-286.2101 1304,-286.2101 1304,4 -4,4"/>
<!-- Node47 -->
<g id="node1" class="node">
<title>Node47</title>
<g id="a_node1"><a xlink:title=" ">
<polygon fill="#bfbfbf" stroke="#000000" points="1232,-129.7101 1232,-148.7101 1300,-148.7101 1300,-129.7101 1232,-129.7101"/>
<text text-anchor="middle" x="1266" y="-136.7101" font-family="Helvetica,sans-Serif" font-size="10.00" fill="#000000">Grid::setAt</text>
</a>
</g>
</g>
<!-- Node48 -->
<g id="node2" class="node">
<title>Node48</title>
<g id="a_node2"><a xlink:href="../../d5/d78/structGrid.html#a82cf8a3bafc6b388f8684183b2555437" target="_top" xlink:title=" ">
<polygon fill="#ffffff" stroke="#000000" points="1098,-262.7101 1098,-281.7101 1157,-281.7101 1157,-262.7101 1098,-262.7101"/>
<text text-anchor="middle" x="1127.5" y="-269.7101" font-family="Helvetica,sans-Serif" font-size="10.00" fill="#000000">Grid::init</text>
</a>
</g>
</g>
<!-- Node47&#45;&gt;Node48 -->
<g id="edge1" class="edge">
<title>Node47&#45;&gt;Node48</title>
<path fill="none" stroke="#191970" d="M1258.389,-158.4035C1247.8521,-182.6294 1226.595,-224.0476 1196,-248.2101 1184.8253,-257.0353 1170.1693,-262.7457 1157.2825,-266.3715"/>
<polygon fill="#191970" stroke="#191970" points="1261.738,-159.4663 1262.3581,-148.8896 1255.2776,-156.7711 1261.738,-159.4663"/>
</g>
<!-- Node49 -->
<g id="node3" class="node">
<title>Node49</title>
<g id="a_node3"><a xlink:href="../../d5/d78/structGrid.html#a05d72a46e1ab1311805a886201b41164" target="_top" xlink:title=" ">
<polygon fill="#ffffff" stroke="#000000" points="913,-224.7101 913,-243.7101 978,-243.7101 978,-224.7101 913,-224.7101"/>
<text text-anchor="middle" x="945.5" y="-231.7101" font-family="Helvetica,sans-Serif" font-size="10.00" fill="#000000">Grid::init4</text>
</a>
</g>
</g>
<!-- Node47&#45;&gt;Node49 -->
<g id="edge2" class="edge">
<title>Node47&#45;&gt;Node49</title>
<path fill="none" stroke="#191970" d="M1253.886,-157.3633C1241.5158,-174.2373 1220.6635,-198.4781 1196,-210.2101 1124.1962,-244.3658 1027.8777,-242.0867 978.1933,-237.9152"/>
<polygon fill="#191970" stroke="#191970" points="1256.967,-159.0665 1259.856,-148.8731 1251.2409,-155.0401 1256.967,-159.0665"/>
</g>
<!-- Node52 -->
<g id="node6" class="node">
<title>Node52</title>
<g id="a_node6"><a xlink:href="../../d1/d67/classMazeRouter.html#a7bcb79136fa9596bc425b92e2e2ae032" target="_top" xlink:title=" ">
<polygon fill="#ffffff" stroke="#000000" points="686,-192.7101 686,-211.7101 832,-211.7101 832,-192.7101 686,-192.7101"/>
<text text-anchor="middle" x="759" y="-199.7101" font-family="Helvetica,sans-Serif" font-size="10.00" fill="#000000">MazeRouter::renderSource</text>
</a>
</g>
</g>
<!-- Node47&#45;&gt;Node52 -->
<g id="edge11" class="edge">
<title>Node47&#45;&gt;Node52</title>
<path fill="none" stroke="#191970" d="M1241.4214,-153.5607C1228.3704,-160.4566 1211.7992,-168.0995 1196,-172.2101 1071.2541,-204.6664 920.1231,-207.2951 832.2339,-205.366"/>
<polygon fill="#191970" stroke="#191970" points="1243.15,-156.6046 1250.241,-148.7326 1239.7887,-150.4644 1243.15,-156.6046"/>
</g>
<!-- Node54 -->
<g id="node8" class="node">
<title>Node54</title>
<g id="a_node8"><a xlink:href="../../d1/d67/classMazeRouter.html#ac528668d7d8b599ac0f86e78ba93bc59" target="_top" xlink:title=" ">
<polygon fill="#ffffff" stroke="#000000" points="317,-148.7101 317,-167.7101 447,-167.7101 447,-148.7101 317,-148.7101"/>
<text text-anchor="middle" x="382" y="-155.7101" font-family="Helvetica,sans-Serif" font-size="10.00" fill="#000000">MazeRouter::routeNext</text>
</a>
</g>
</g>
<!-- Node47&#45;&gt;Node54 -->
<g id="edge10" class="edge">
<title>Node47&#45;&gt;Node54</title>
<path fill="none" stroke="#191970" d="M1221.7175,-143.4981C1159.9254,-149.102 1044.2971,-158.2101 945.5,-158.2101 945.5,-158.2101 945.5,-158.2101 759,-158.2101 649.5326,-158.2101 522.1858,-158.2101 447.0452,-158.2101"/>
<polygon fill="#191970" stroke="#191970" points="1222.2499,-146.964 1231.8875,-142.5632 1221.609,-139.9934 1222.2499,-146.964"/>
</g>
<!-- Node55 -->
<g id="node9" class="node">
<title>Node55</title>
<g id="a_node9"><a xlink:href="../../d1/d67/classMazeRouter.html#aa8f01e4a331c8bacc51c1bd7fb25158b" target="_top" xlink:title=" ">
<polygon fill="#ffffff" stroke="#000000" points="1059,-72.7101 1059,-91.7101 1196,-91.7101 1196,-72.7101 1059,-72.7101"/>
<text text-anchor="middle" x="1127.5" y="-79.7101" font-family="Helvetica,sans-Serif" font-size="10.00" fill="#000000">MazeRouter::expandOne</text>
</a>
</g>
</g>
<!-- Node47&#45;&gt;Node55 -->
<g id="edge12" class="edge">
<title>Node47&#45;&gt;Node55</title>
<path fill="none" stroke="#191970" d="M1238.0797,-125.2353C1225.3766,-119.0886 1210.0686,-111.9728 1196,-106.2101 1183.2897,-101.0038 1168.9847,-95.88 1156.7472,-91.7124"/>
<polygon fill="#191970" stroke="#191970" points="1236.7016,-128.4575 1247.2223,-129.7085 1239.778,-122.1697 1236.7016,-128.4575"/>
</g>
<!-- Node59 -->
<g id="node13" class="node">
<title>Node59</title>
<g id="a_node13"><a xlink:href="../../d1/d67/classMazeRouter.html#a32342dbb61a3fdc1568c7899c702bb6d" target="_top" xlink:title=" ">
<polygon fill="#ffffff" stroke="#000000" points="868,-110.7101 868,-129.7101 1023,-129.7101 1023,-110.7101 868,-110.7101"/>
<text text-anchor="middle" x="945.5" y="-117.7101" font-family="Helvetica,sans-Serif" font-size="10.00" fill="#000000">MazeRouter::clearExpansion</text>
</a>
</g>
</g>
<!-- Node47&#45;&gt;Node59 -->
<g id="edge18" class="edge">
<title>Node47&#45;&gt;Node59</title>
<path fill="none" stroke="#191970" d="M1221.6268,-136.5795C1170.461,-133.5463 1085.4229,-128.505 1023.2119,-124.817"/>
<polygon fill="#191970" stroke="#191970" points="1221.5113,-140.0787 1231.7009,-137.1768 1221.9256,-133.091 1221.5113,-140.0787"/>
</g>
<!-- Node61 -->
<g id="node15" class="node">
<title>Node61</title>
<g id="a_node15"><a xlink:href="../../d1/d67/classMazeRouter.html#a9afd35e591f81815d800219a7c52b798" target="_top" xlink:title=" ">
<polygon fill="#ffffff" stroke="#000000" points="305,-15.7101 305,-34.7101 459,-34.7101 459,-15.7101 305,-15.7101"/>
<text text-anchor="middle" x="382" y="-22.7101" font-family="Helvetica,sans-Serif" font-size="10.00" fill="#000000">MazeRouter::traceObstacles</text>
</a>
</g>
</g>
<!-- Node47&#45;&gt;Node61 -->
<g id="edge22" class="edge">
<title>Node47&#45;&gt;Node61</title>
<path fill="none" stroke="#191970" d="M1255.4947,-120.4281C1240.3518,-94.0639 1212.4107,-48.1791 1196,-38.2101 1100.0744,20.0622 1057.7381,-6.2101 945.5,-6.2101 945.5,-6.2101 945.5,-6.2101 759,-6.2101 655.1279,-6.2101 535.3613,-13.4935 459.1999,-19.0413"/>
<polygon fill="#191970" stroke="#191970" points="1252.6414,-122.4915 1260.6211,-129.4611 1258.7293,-119.0365 1252.6414,-122.4915"/>
</g>
<!-- Node62 -->
<g id="node16" class="node">
<title>Node62</title>
<g id="a_node16"><a xlink:href="../../d1/d67/classMazeRouter.html#abc7646bdf1e826888e623072834e822f" target="_top" xlink:title=" ">
<polygon fill="#ffffff" stroke="#000000" points="503.5,-72.7101 503.5,-91.7101 641.5,-91.7101 641.5,-72.7101 503.5,-72.7101"/>
<text text-anchor="middle" x="572.5" y="-79.7101" font-family="Helvetica,sans-Serif" font-size="10.00" fill="#000000">MazeRouter::traceAvoids</text>
</a>
</g>
</g>
<!-- Node47&#45;&gt;Node62 -->
<g id="edge24" class="edge">
<title>Node47&#45;&gt;Node62</title>
<path fill="none" stroke="#191970" d="M1255.5235,-120.9365C1243.744,-102.4335 1222.7205,-74.9266 1196,-63.2101 1092.2063,-17.6983 798.9438,-53.822 686,-63.2101 663.7004,-65.0637 639.1883,-68.9321 618.668,-72.6976"/>
<polygon fill="#191970" stroke="#191970" points="1252.6393,-122.9302 1260.822,-129.6604 1258.6223,-119.2964 1252.6393,-122.9302"/>
</g>
<!-- Node50 -->
<g id="node4" class="node">
<title>Node50</title>
<g id="a_node4"><a xlink:href="../../d1/d67/classMazeRouter.html#aa7feb522a36ed474fef76324f76fa909" target="_top" xlink:title=" ">
<polygon fill="#ffffff" stroke="#000000" points="140,-129.7101 140,-148.7101 269,-148.7101 269,-129.7101 140,-129.7101"/>
<text text-anchor="middle" x="204.5" y="-136.7101" font-family="Helvetica,sans-Serif" font-size="10.00" fill="#000000">MazeRouter::routeNets</text>
</a>
</g>
</g>
<!-- Node49&#45;&gt;Node50 -->
<g id="edge3" class="edge">
<title>Node49&#45;&gt;Node50</title>
<path fill="none" stroke="#191970" d="M902.9701,-240.3598C797.7669,-253.8395 518.4167,-278.9986 305,-202.2101 269.7346,-189.5214 233.8163,-163.0322 215.9976,-148.7784"/>
<polygon fill="#191970" stroke="#191970" points="903.4328,-243.8292 912.8917,-239.0563 902.5209,-236.8889 903.4328,-243.8292"/>
</g>
<!-- Node49&#45;&gt;Node52 -->
<g id="edge5" class="edge">
<title>Node49&#45;&gt;Node52</title>
<path fill="none" stroke="#191970" d="M902.6054,-226.8502C876.463,-222.3646 842.7784,-216.5849 814.6039,-211.7507"/>
<polygon fill="#191970" stroke="#191970" points="902.139,-230.3212 912.5869,-228.5628 903.3228,-223.422 902.139,-230.3212"/>
</g>
<!-- Node51 -->
<g id="node5" class="node">
<title>Node51</title>
<g id="a_node5"><a xlink:href="../../d1/d67/classMazeRouter.html#a0e1c56746b837fa3e83bd6b9e9fcd309" target="_top" xlink:title=" ">
<polygon fill="#ffffff" stroke="#000000" points="0,-129.7101 0,-148.7101 104,-148.7101 104,-129.7101 0,-129.7101"/>
<text text-anchor="middle" x="52" y="-136.7101" font-family="Helvetica,sans-Serif" font-size="10.00" fill="#000000">MazeRouter::start</text>
</a>
</g>
</g>
<!-- Node50&#45;&gt;Node51 -->
<g id="edge4" class="edge">
<title>Node50&#45;&gt;Node51</title>
<path fill="none" stroke="#191970" d="M129.7616,-139.2101C121.1556,-139.2101 112.5238,-139.2101 104.3051,-139.2101"/>
<polygon fill="#191970" stroke="#191970" points="129.8263,-142.7102 139.8263,-139.2101 129.8262,-135.7102 129.8263,-142.7102"/>
</g>
<!-- Node53 -->
<g id="node7" class="node">
<title>Node53</title>
<g id="a_node7"><a xlink:href="../../d1/d67/classMazeRouter.html#acd2bb7b60e4cb71b590fe8791533713a" target="_top" xlink:title=" ">
<polygon fill="#ffffff" stroke="#000000" points="495,-187.2101 495,-217.2101 650,-217.2101 650,-187.2101 495,-187.2101"/>
<text text-anchor="start" x="503" y="-205.2101" font-family="Helvetica,sans-Serif" font-size="10.00" fill="#000000">MazeRouter::prepSourceAnd</text>
<text text-anchor="middle" x="572.5" y="-194.2101" font-family="Helvetica,sans-Serif" font-size="10.00" fill="#000000">Target</text>
</a>
</g>
</g>
<!-- Node52&#45;&gt;Node53 -->
<g id="edge6" class="edge">
<title>Node52&#45;&gt;Node53</title>
<path fill="none" stroke="#191970" d="M675.5561,-202.2101C667.0768,-202.2101 658.4881,-202.2101 650.0748,-202.2101"/>
<polygon fill="#191970" stroke="#191970" points="675.8256,-205.7102 685.8255,-202.2101 675.8255,-198.7102 675.8256,-205.7102"/>
</g>
<!-- Node53&#45;&gt;Node50 -->
<g id="edge7" class="edge">
<title>Node53&#45;&gt;Node50</title>
<path fill="none" stroke="#191970" d="M484.9567,-199.9427C432.2539,-197.121 364.1281,-190.8888 305,-177.2101 276.2858,-170.5674 244.7332,-157.6493 224.7837,-148.7323"/>
<polygon fill="#191970" stroke="#191970" points="484.7842,-203.4383 494.9479,-200.4468 485.137,-196.4472 484.7842,-203.4383"/>
</g>
<!-- Node53&#45;&gt;Node54 -->
<g id="edge8" class="edge">
<title>Node53&#45;&gt;Node54</title>
<path fill="none" stroke="#191970" d="M497.5177,-184.8913C472.2071,-179.0453 444.8944,-172.7369 423.1844,-167.7225"/>
<polygon fill="#191970" stroke="#191970" points="496.9423,-188.3505 507.4735,-187.1908 498.5177,-181.5301 496.9423,-188.3505"/>
</g>
<!-- Node54&#45;&gt;Node50 -->
<g id="edge9" class="edge">
<title>Node54&#45;&gt;Node50</title>
<path fill="none" stroke="#191970" d="M306.9638,-150.178C294.433,-148.8367 281.5284,-147.4554 269.282,-146.1445"/>
<polygon fill="#191970" stroke="#191970" points="306.5977,-153.6588 316.9134,-151.2431 307.3428,-146.6985 306.5977,-153.6588"/>
</g>
<!-- Node56 -->
<g id="node10" class="node">
<title>Node56</title>
<g id="a_node10"><a xlink:href="../../d1/d67/classMazeRouter.html#ad804f2fa42ac5e32231e123143cfe6b3" target="_top" xlink:title=" ">
<polygon fill="#ffffff" stroke="#000000" points="887,-72.7101 887,-91.7101 1004,-91.7101 1004,-72.7101 887,-72.7101"/>
<text text-anchor="middle" x="945.5" y="-79.7101" font-family="Helvetica,sans-Serif" font-size="10.00" fill="#000000">MazeRouter::expand</text>
</a>
</g>
</g>
<!-- Node55&#45;&gt;Node56 -->
<g id="edge13" class="edge">
<title>Node55&#45;&gt;Node56</title>
<path fill="none" stroke="#191970" d="M1048.6951,-82.2101C1033.7458,-82.2101 1018.3492,-82.2101 1004.1588,-82.2101"/>
<polygon fill="#191970" stroke="#191970" points="1048.953,-85.7102 1058.9529,-82.2101 1048.9529,-78.7102 1048.953,-85.7102"/>
</g>
<!-- Node57 -->
<g id="node11" class="node">
<title>Node57</title>
<g id="a_node11"><a xlink:href="../../d1/d67/classMazeRouter.html#a1646d5ffdba6db33fe7facb9e72214ec" target="_top" xlink:title=" ">
<polygon fill="#ffffff" stroke="#000000" points="705.5,-72.7101 705.5,-91.7101 812.5,-91.7101 812.5,-72.7101 705.5,-72.7101"/>
<text text-anchor="middle" x="759" y="-79.7101" font-family="Helvetica,sans-Serif" font-size="10.00" fill="#000000">MazeRouter::route</text>
</a>
</g>
</g>
<!-- Node56&#45;&gt;Node57 -->
<g id="edge14" class="edge">
<title>Node56&#45;&gt;Node57</title>
<path fill="none" stroke="#191970" d="M876.5618,-82.2101C855.482,-82.2101 832.6202,-82.2101 812.7099,-82.2101"/>
<polygon fill="#191970" stroke="#191970" points="876.7463,-85.7102 886.7462,-82.2101 876.7462,-78.7102 876.7463,-85.7102"/>
</g>
<!-- Node58 -->
<g id="node12" class="node">
<title>Node58</title>
<g id="a_node12"><a xlink:href="../../d1/d67/classMazeRouter.html#addd030cb22d8352f92d11d137b9cc4b8" target="_top" xlink:title=" ">
<polygon fill="#ffffff" stroke="#000000" points="509.5,-110.7101 509.5,-129.7101 635.5,-129.7101 635.5,-110.7101 509.5,-110.7101"/>
<text text-anchor="middle" x="572.5" y="-117.7101" font-family="Helvetica,sans-Serif" font-size="10.00" fill="#000000">MazeRouter::routeOne</text>
</a>
</g>
</g>
<!-- Node57&#45;&gt;Node58 -->
<g id="edge15" class="edge">
<title>Node57&#45;&gt;Node58</title>
<path fill="none" stroke="#191970" d="M702.0218,-93.8196C675.4972,-99.2241 644.3343,-105.5736 619.2234,-110.69"/>
<polygon fill="#191970" stroke="#191970" points="702.8383,-97.2252 711.9382,-91.7991 701.4407,-90.3661 702.8383,-97.2252"/>
</g>
<!-- Node58&#45;&gt;Node50 -->
<g id="edge16" class="edge">
<title>Node58&#45;&gt;Node50</title>
<path fill="none" stroke="#191970" d="M499.1446,-123.9975C431.9352,-127.4675 333.3957,-132.5551 269.0968,-135.8749"/>
<polygon fill="#191970" stroke="#191970" points="499.4323,-127.4874 509.2385,-123.4763 499.0713,-120.4967 499.4323,-127.4874"/>
</g>
<!-- Node58&#45;&gt;Node54 -->
<g id="edge17" class="edge">
<title>Node58&#45;&gt;Node54</title>
<path fill="none" stroke="#191970" d="M514.2997,-131.8196C487.2062,-137.2241 455.375,-143.5736 429.7255,-148.69"/>
<polygon fill="#191970" stroke="#191970" points="515.3067,-135.1878 524.4288,-129.7991 513.9373,-128.323 515.3067,-135.1878"/>
</g>
<!-- Node59&#45;&gt;Node57 -->
<g id="edge19" class="edge">
<title>Node59&#45;&gt;Node57</title>
<path fill="none" stroke="#191970" d="M888.5218,-108.6006C861.9972,-103.1961 830.8343,-96.8466 805.7234,-91.7301"/>
<polygon fill="#191970" stroke="#191970" points="887.9407,-112.054 898.4382,-110.6211 889.3383,-105.195 887.9407,-112.054"/>
</g>
<!-- Node60 -->
<g id="node14" class="node">
<title>Node60</title>
<g id="a_node14"><a xlink:href="../../d1/d67/classMazeRouter.html#acd12254cbfae94cd56cec7fca8414f60" target="_top" xlink:title=" ">
<polygon fill="#ffffff" stroke="#000000" points="688.5,-110.7101 688.5,-129.7101 829.5,-129.7101 829.5,-110.7101 688.5,-110.7101"/>
<text text-anchor="middle" x="759" y="-117.7101" font-family="Helvetica,sans-Serif" font-size="10.00" fill="#000000">MazeRouter::routeJumper</text>
</a>
</g>
</g>
<!-- Node59&#45;&gt;Node60 -->
<g id="edge20" class="edge">
<title>Node59&#45;&gt;Node60</title>
<path fill="none" stroke="#191970" d="M857.658,-120.2101C848.3076,-120.2101 838.8844,-120.2101 829.7663,-120.2101"/>
<polygon fill="#191970" stroke="#191970" points="857.7577,-123.7102 867.7577,-120.2101 857.7577,-116.7102 857.7577,-123.7102"/>
</g>
<!-- Node60&#45;&gt;Node58 -->
<g id="edge21" class="edge">
<title>Node60&#45;&gt;Node58</title>
<path fill="none" stroke="#191970" d="M678.23,-120.2101C664.0142,-120.2101 649.4043,-120.2101 635.7542,-120.2101"/>
<polygon fill="#191970" stroke="#191970" points="678.4924,-123.7102 688.4923,-120.2101 678.4923,-116.7102 678.4924,-123.7102"/>
</g>
<!-- Node61&#45;&gt;Node50 -->
<g id="edge23" class="edge">
<title>Node61&#45;&gt;Node50</title>
<path fill="none" stroke="#191970" d="M354.4608,-39.6715C339.5919,-47.7074 321.0468,-58.1008 305,-68.2101 272.465,-88.7067 235.9967,-115.4813 217.2111,-129.5722"/>
<polygon fill="#191970" stroke="#191970" points="356.474,-42.5638 363.6378,-34.758 353.1698,-36.3927 356.474,-42.5638"/>
</g>
<!-- Node62&#45;&gt;Node50 -->
<g id="edge25" class="edge">
<title>Node62&#45;&gt;Node50</title>
<path fill="none" stroke="#191970" d="M499.6582,-93.2582C445.8601,-101.4462 370.8504,-112.9219 305,-123.2101 291.7335,-125.2828 277.4865,-127.535 264.0103,-129.6774"/>
<polygon fill="#191970" stroke="#191970" points="500.4276,-96.6815 509.7874,-91.7172 499.3747,-89.7611 500.4276,-96.6815"/>
</g>
<!-- Node62&#45;&gt;Node54 -->
<g id="edge26" class="edge">
<title>Node62&#45;&gt;Node54</title>
<path fill="none" stroke="#191970" d="M516.271,-94.3929C509.0368,-96.4266 501.79,-98.7022 495,-101.2101 458.9295,-114.5324 419.3692,-136.2767 397.9461,-148.7031"/>
<polygon fill="#191970" stroke="#191970" points="517.3267,-97.7337 526.084,-91.7705 515.5194,-90.971 517.3267,-97.7337"/>
</g>
</g>
</svg>
        <g id="navigator" transform="translate(0 0)" fill="#404254">
                <rect fill="#f2f5e9" fill-opacity="0.5" stroke="#606060" stroke-width=".5" x="0" y="0" width="60" height="60"/>
                <use id="zoomplus" xlink:href="#zoomPlus" x="17" y="9" onmousedown="handleZoom(evt,'in')"/>
                <use id="zoomminus" xlink:href="#zoomMin" x="42" y="9" onmousedown="handleZoom(evt,'out')"/>
                <use id="reset" xlink:href="#resetDef" x="30" y="36" onmousedown="handleReset()"/>
                <g id="arrowUp" xlink:href="#dirArrow" transform="translate(30 24)" onmousedown="handlePan(0,-1)">
                  <use xlink:href="#rim" fill="#404040">
                        <set attributeName="fill" to="#808080" begin="arrowUp.mouseover" end="arrowUp.mouseout"/>
                  </use>
                  <path fill="none" stroke="white" stroke-width="1.5" d="M0,-3.0v7 M-2.5,-0.5L0,-3.0L2.5,-0.5"/>
                </g>
                <g id="arrowRight" xlink:href="#dirArrow" transform="rotate(90) translate(36 -43)" onmousedown="handlePan(1,0)">
                  <use xlink:href="#rim" fill="#404040">
                        <set attributeName="fill" to="#808080" begin="arrowRight.mouseover" end="arrowRight.mouseout"/>
                  </use>
                  <path fill="none" stroke="white" stroke-width="1.5" d="M0,-3.0v7 M-2.5,-0.5L0,-3.0L2.5,-0.5"/>
                </g>
                <g id="arrowDown" xlink:href="#dirArrow" transform="rotate(180) translate(-30 -48)" onmousedown="handlePan(0,1)">
                  <use xlink:href="#rim" fill="#404040">
                        <set attributeName="fill" to="#808080" begin="arrowDown.mouseover" end="arrowDown.mouseout"/>
                  </use>
                  <path fill="none" stroke="white" stroke-width="1.5" d="M0,-3.0v7 M-2.5,-0.5L0,-3.0L2.5,-0.5"/>
                </g>
                <g id="arrowLeft" xlink:href="#dirArrow" transform="rotate(270) translate(-36 17)" onmousedown="handlePan(-1,0)">
                  <use xlink:href="#rim" fill="#404040">
                        <set attributeName="fill" to="#808080" begin="arrowLeft.mouseover" end="arrowLeft.mouseout"/>
                  </use>
                  <path fill="none" stroke="white" stroke-width="1.5" d="M0,-3.0v7 M-2.5,-0.5L0,-3.0L2.5,-0.5"/>
                </g>
        </g>
        <svg viewBox="0 0 15 15" width="100%" height="30px" preserveAspectRatio="xMaxYMin meet">
         <g id="arrow_out" transform="scale(0.3 0.3)">
          <a xlink:href="structGrid_ad0343baab84bd96758d6819404d690b9_icgraph_org.svg" target="_base">
           <rect id="button" ry="5" rx="5" y="6" x="6" height="38" width="38"
                fill="#f2f5e9" fill-opacity="0.5" stroke="#606060" stroke-width="1.0"/>
           <path id="arrow"
             d="M 11.500037,31.436501 C 11.940474,20.09759 22.043105,11.32322 32.158766,21.979434 L 37.068811,17.246167 C 37.068811,17.246167 37.088388,32 37.088388,32 L 22.160133,31.978069 C 22.160133,31.978069 26.997745,27.140456 26.997745,27.140456 C 18.528582,18.264221 13.291696,25.230495 11.500037,31.436501 z"
             style="fill:#404040;"/>
          </a>
         </g>
        </svg>
</svg>
