<?xml version="1.0" encoding="UTF-8" standalone="no"?>
<!DOCTYPE svg PUBLIC "-//W3C//DTD SVG 1.1//EN"
 "http://www.w3.org/Graphics/SVG/1.1/DTD/svg11.dtd">
<!-- Generated by graphviz version 2.40.1 (0)
 -->
<!-- Title: Highlighter::highlightBlock Pages: 1 -->
<svg width="519pt" height="142pt"
 viewBox="0.00 0.00 519.00 142.00" xmlns="http://www.w3.org/2000/svg" xmlns:xlink="http://www.w3.org/1999/xlink">
<g id="graph0" class="graph" transform="scale(1 1) rotate(0) translate(4 138)">
<title>Highlighter::highlightBlock</title>
<polygon fill="#ffffff" stroke="transparent" points="-4,4 -4,-138 515,-138 515,4 -4,4"/>
<!-- Node4 -->
<g id="node1" class="node">
<title>Node4</title>
<g id="a_node1"><a xlink:title=" ">
<polygon fill="#bfbfbf" stroke="#000000" points="0,-76.5 0,-95.5 146,-95.5 146,-76.5 0,-76.5"/>
<text text-anchor="middle" x="73" y="-83.5" font-family="Helvetica,sans-Serif" font-size="10.00" fill="#000000">Highlighter::highlightBlock</text>
</a>
</g>
</g>
<!-- Node5 -->
<g id="node2" class="node">
<title>Node5</title>
<g id="a_node2"><a xlink:href="../../dc/d3c/classHighlighter.html#abac08c9bc217c8a1078167ed6172d081" target="_top" xlink:title=" ">
<polygon fill="#ffffff" stroke="#000000" points="182,-104.5 182,-123.5 335,-123.5 335,-104.5 182,-104.5"/>
<text text-anchor="middle" x="258.5" y="-111.5" font-family="Helvetica,sans-Serif" font-size="10.00" fill="#000000">Highlighter::highlightStrings</text>
</a>
</g>
</g>
<!-- Node4&#45;&gt;Node5 -->
<g id="edge1" class="edge">
<title>Node4&#45;&gt;Node5</title>
<path fill="none" stroke="#191970" d="M136.0607,-95.5186C151.8911,-97.9081 169.0114,-100.4923 185.2904,-102.9495"/>
<polygon fill="#191970" stroke="#191970" points="184.8883,-106.4284 195.2987,-104.4602 185.9331,-99.5068 184.8883,-106.4284"/>
</g>
<!-- Node7 -->
<g id="node4" class="node">
<title>Node7</title>
<g id="a_node4"><a xlink:href="../../dc/d3c/classHighlighter.html#a221fd6b4f862e9bd4973eb890ca0d315" target="_top" xlink:title=" ">
<polygon fill="#ffffff" stroke="#000000" points="184,-57.5 184,-76.5 333,-76.5 333,-57.5 184,-57.5"/>
<text text-anchor="middle" x="258.5" y="-64.5" font-family="Helvetica,sans-Serif" font-size="10.00" fill="#000000">Highlighter::highlightTerms</text>
</a>
</g>
</g>
<!-- Node4&#45;&gt;Node7 -->
<g id="edge3" class="edge">
<title>Node4&#45;&gt;Node7</title>
<path fill="none" stroke="#191970" d="M146.0482,-78.518C155.2063,-77.5799 164.633,-76.6144 173.9486,-75.6603"/>
<polygon fill="#191970" stroke="#191970" points="174.404,-79.132 183.9953,-74.6312 173.6907,-72.1684 174.404,-79.132"/>
</g>
<!-- Node6 -->
<g id="node3" class="node">
<title>Node6</title>
<g id="a_node3"><a xlink:href="../../da/dad/highlighter_8cpp.html#a91db93adc5cfedab414576fff7ad2a08" target="_top" xlink:title=" ">
<polygon fill="#ffffff" stroke="#000000" points="401,-114.5 401,-133.5 481,-133.5 481,-114.5 401,-114.5"/>
<text text-anchor="middle" x="441" y="-121.5" font-family="Helvetica,sans-Serif" font-size="10.00" fill="#000000">CEscapeChar</text>
</a>
</g>
</g>
<!-- Node5&#45;&gt;Node6 -->
<g id="edge2" class="edge">
<title>Node5&#45;&gt;Node6</title>
<path fill="none" stroke="#191970" d="M335.1032,-118.1974C353.844,-119.2243 373.4312,-120.2976 390.5907,-121.2378"/>
<polygon fill="#191970" stroke="#191970" points="390.7554,-124.752 400.932,-121.8045 391.1385,-117.7625 390.7554,-124.752"/>
</g>
<!-- Node8 -->
<g id="node5" class="node">
<title>Node8</title>
<g id="a_node5"><a xlink:href="../../dc/d3c/classHighlighter.html#a64d2fb498ac5f7b8f0133738e9f644d9" target="_top" xlink:title=" ">
<polygon fill="#ffffff" stroke="#000000" points="375,-76.5 375,-95.5 507,-95.5 507,-76.5 375,-76.5"/>
<text text-anchor="middle" x="441" y="-83.5" font-family="Helvetica,sans-Serif" font-size="10.00" fill="#000000">Highlighter::isWordChar</text>
</a>
</g>
</g>
<!-- Node7&#45;&gt;Node8 -->
<g id="edge4" class="edge">
<title>Node7&#45;&gt;Node8</title>
<path fill="none" stroke="#191970" d="M333.2563,-74.7828C343.5922,-75.8589 354.2202,-76.9654 364.5857,-78.0445"/>
<polygon fill="#191970" stroke="#191970" points="364.5345,-81.558 374.8432,-79.1124 365.2594,-74.5957 364.5345,-81.558"/>
</g>
<!-- Node9 -->
<g id="node6" class="node">
<title>Node9</title>
<g id="a_node6"><a xlink:href="../../d3/da3/classSyntaxer.html#a5684f4b000e8847e05191a517eb7229b" target="_top" xlink:title=" ">
<polygon fill="#ffffff" stroke="#000000" points="371,-38.5 371,-57.5 511,-57.5 511,-38.5 371,-38.5"/>
<text text-anchor="middle" x="441" y="-45.5" font-family="Helvetica,sans-Serif" font-size="10.00" fill="#000000">Syntaxer::formatFromList</text>
</a>
</g>
</g>
<!-- Node7&#45;&gt;Node9 -->
<g id="edge5" class="edge">
<title>Node7&#45;&gt;Node9</title>
<path fill="none" stroke="#191970" d="M333.2563,-59.2172C342.2679,-58.279 351.5015,-57.3176 360.5897,-56.3715"/>
<polygon fill="#191970" stroke="#191970" points="361.1853,-59.8285 370.7691,-55.3117 360.4604,-52.8661 361.1853,-59.8285"/>
</g>
<!-- Node10 -->
<g id="node7" class="node">
<title>Node10</title>
<g id="a_node7"><a xlink:href="../../df/d8c/classSyntaxerTrieLeaf.html#abbce427b1c18ace1f52e34dd4ea743ed" target="_top" xlink:title=" ">
<polygon fill="#ffffff" stroke="#000000" points="375.5,-.5 375.5,-19.5 506.5,-19.5 506.5,-.5 375.5,-.5"/>
<text text-anchor="middle" x="441" y="-7.5" font-family="Helvetica,sans-Serif" font-size="10.00" fill="#000000">SyntaxerTrieLeaf::name</text>
</a>
</g>
</g>
<!-- Node7&#45;&gt;Node10 -->
<g id="edge6" class="edge">
<title>Node7&#45;&gt;Node10</title>
<path fill="none" stroke="#191970" d="M285.1747,-57.4804C307.8772,-49.5012 341.4163,-38.0022 371,-29 378.5388,-26.706 386.5748,-24.3981 394.4143,-22.2203"/>
<polygon fill="#191970" stroke="#191970" points="395.4677,-25.5608 404.1871,-19.5422 393.6176,-18.8097 395.4677,-25.5608"/>
</g>
</g>
</svg>
