<?xml version="1.0" encoding="UTF-8" standalone="no"?>
<!DOCTYPE svg PUBLIC "-//W3C//DTD SVG 1.1//EN"
 "http://www.w3.org/Graphics/SVG/1.1/DTD/svg11.dtd">
<!-- Generated by graphviz version 2.40.1 (0)
 -->
<!-- Title: GedaElement2Svg::convertPad Pages: 1 -->
<svg width="494pt" height="192pt"
 viewBox="0.00 0.00 494.00 191.50" xmlns="http://www.w3.org/2000/svg" xmlns:xlink="http://www.w3.org/1999/xlink">
<g id="graph0" class="graph" transform="scale(1 1) rotate(0) translate(4 187.5)">
<title>GedaElement2Svg::convertPad</title>
<polygon fill="#ffffff" stroke="transparent" points="-4,4 -4,-187.5 490,-187.5 490,4 -4,4"/>
<!-- Node77 -->
<g id="node1" class="node">
<title>Node77</title>
<g id="a_node1"><a xlink:title=" ">
<polygon fill="#bfbfbf" stroke="#000000" points="0,-88 0,-107 167,-107 167,-88 0,-88"/>
<text text-anchor="middle" x="83.5" y="-95" font-family="Helvetica,sans-Serif" font-size="10.00" fill="#000000">GedaElement2Svg::convertPad</text>
</a>
</g>
</g>
<!-- Node78 -->
<g id="node2" class="node">
<title>Node78</title>
<g id="a_node2"><a xlink:href="../../d7/d2f/classX2Svg.html#a316531cb3067bf8c016a226d0256192a" target="_top" xlink:title=" ">
<polygon fill="#ffffff" stroke="#000000" points="223.5,-164 223.5,-183 336.5,-183 336.5,-164 223.5,-164"/>
<text text-anchor="middle" x="280" y="-171" font-family="Helvetica,sans-Serif" font-size="10.00" fill="#000000">X2Svg::checkXLimit</text>
</a>
</g>
</g>
<!-- Node77&#45;&gt;Node78 -->
<g id="edge1" class="edge">
<title>Node77&#45;&gt;Node78</title>
<path fill="none" stroke="#191970" d="M100.8362,-107.1522C123.6688,-119.5385 165.3411,-141.0304 203,-154.5 210.0313,-157.0149 217.5393,-159.317 225.0064,-161.3836"/>
<polygon fill="#191970" stroke="#191970" points="224.1931,-164.7887 234.7557,-163.9627 225.9834,-158.0215 224.1931,-164.7887"/>
</g>
<!-- Node79 -->
<g id="node3" class="node">
<title>Node79</title>
<g id="a_node3"><a xlink:href="../../d7/d2f/classX2Svg.html#a6a4c7a105bd250ed9362170d2115c942" target="_top" xlink:title=" ">
<polygon fill="#ffffff" stroke="#000000" points="223.5,-126 223.5,-145 336.5,-145 336.5,-126 223.5,-126"/>
<text text-anchor="middle" x="280" y="-133" font-family="Helvetica,sans-Serif" font-size="10.00" fill="#000000">X2Svg::checkYLimit</text>
</a>
</g>
</g>
<!-- Node77&#45;&gt;Node79 -->
<g id="edge2" class="edge">
<title>Node77&#45;&gt;Node79</title>
<path fill="none" stroke="#191970" d="M132.8316,-107.04C159.4607,-112.1896 192.5266,-118.584 220.5663,-124.0065"/>
<polygon fill="#191970" stroke="#191970" points="220.1654,-127.4937 230.6481,-125.9561 221.4946,-120.621 220.1654,-127.4937"/>
</g>
<!-- Node80 -->
<g id="node4" class="node">
<title>Node80</title>
<g id="a_node4"><a xlink:href="../../de/db8/classTextUtils.html#a8330785617dee0cc6461a1b595d98c64" target="_top" xlink:title=" ">
<polygon fill="#ffffff" stroke="#000000" points="220.5,-88 220.5,-107 339.5,-107 339.5,-88 220.5,-88"/>
<text text-anchor="middle" x="280" y="-95" font-family="Helvetica,sans-Serif" font-size="10.00" fill="#000000">TextUtils::escapeAnd</text>
</a>
</g>
</g>
<!-- Node77&#45;&gt;Node80 -->
<g id="edge3" class="edge">
<title>Node77&#45;&gt;Node80</title>
<path fill="none" stroke="#191970" d="M167.1186,-97.5C181.3526,-97.5 196.0057,-97.5 209.8466,-97.5"/>
<polygon fill="#191970" stroke="#191970" points="210.2521,-101.0001 220.2521,-97.5 210.252,-94.0001 210.2521,-101.0001"/>
</g>
<!-- Node81 -->
<g id="node5" class="node">
<title>Node81</title>
<g id="a_node5"><a xlink:href="../../d9/dd1/classGedaElement2Svg.html#adf45a4226bbf3ae018471f9cbfee9231" target="_top" xlink:title=" ">
<polygon fill="#ffffff" stroke="#000000" points="203,-50 203,-69 357,-69 357,-50 203,-50"/>
<text text-anchor="middle" x="280" y="-57" font-family="Helvetica,sans-Serif" font-size="10.00" fill="#000000">GedaElement2Svg::getPinID</text>
</a>
</g>
</g>
<!-- Node77&#45;&gt;Node81 -->
<g id="edge4" class="edge">
<title>Node77&#45;&gt;Node81</title>
<path fill="none" stroke="#191970" d="M132.8316,-87.96C159.4607,-82.8104 192.5266,-76.416 220.5663,-70.9935"/>
<polygon fill="#191970" stroke="#191970" points="221.4946,-74.379 230.6481,-69.0439 220.1654,-67.5063 221.4946,-74.379"/>
</g>
<!-- Node83 -->
<g id="node7" class="node">
<title>Node83</title>
<g id="a_node7"><a xlink:href="../../de/db8/classTextUtils.html#a8d994e7eb0f3fb2487a66eb1bc876073" target="_top" xlink:title=" ">
<polygon fill="#ffffff" stroke="#000000" points="214.5,-.5 214.5,-30.5 345.5,-30.5 345.5,-.5 214.5,-.5"/>
<text text-anchor="start" x="222.5" y="-18.5" font-family="Helvetica,sans-Serif" font-size="10.00" fill="#000000">TextUtils::stripNonValid</text>
<text text-anchor="middle" x="280" y="-7.5" font-family="Helvetica,sans-Serif" font-size="10.00" fill="#000000">XMLCharacters</text>
</a>
</g>
</g>
<!-- Node77&#45;&gt;Node83 -->
<g id="edge6" class="edge">
<title>Node77&#45;&gt;Node83</title>
<path fill="none" stroke="#191970" d="M101.7936,-87.8472C124.9566,-75.8424 166.2775,-55.1463 203,-40.5 208.7401,-38.2106 214.7799,-35.9702 220.8471,-33.8294"/>
<polygon fill="#191970" stroke="#191970" points="222.0475,-37.1179 230.3646,-30.5547 219.7699,-30.4987 222.0475,-37.1179"/>
</g>
<!-- Node82 -->
<g id="node6" class="node">
<title>Node82</title>
<g id="a_node6"><a xlink:href="../../d7/d2f/classX2Svg.html#a6db3c582094dce1d148bd3c985ef4700" target="_top" xlink:title=" ">
<polygon fill="#ffffff" stroke="#000000" points="393,-50 393,-69 486,-69 486,-50 393,-50"/>
<text text-anchor="middle" x="439.5" y="-57" font-family="Helvetica,sans-Serif" font-size="10.00" fill="#000000">X2Svg::unquote</text>
</a>
</g>
</g>
<!-- Node81&#45;&gt;Node82 -->
<g id="edge5" class="edge">
<title>Node81&#45;&gt;Node82</title>
<path fill="none" stroke="#191970" d="M357.4139,-59.5C365.8967,-59.5 374.4148,-59.5 382.5839,-59.5"/>
<polygon fill="#191970" stroke="#191970" points="382.7158,-63.0001 392.7157,-59.5 382.7157,-56.0001 382.7158,-63.0001"/>
</g>
</g>
</svg>
