<?xml version="1.0" encoding="UTF-8" standalone="no"?>
<!DOCTYPE svg PUBLIC "-//W3C//DTD SVG 1.1//EN"
 "http://www.w3.org/Graphics/SVG/1.1/DTD/svg11.dtd">
<!-- Generated by graphviz version 2.40.1 (0)
 -->
<!-- Title: MazeRouter::displayTrace Pages: 1 -->
<svg width="1130pt" height="94pt"
 viewBox="0.00 0.00 1130.00 94.00" xmlns="http://www.w3.org/2000/svg" xmlns:xlink="http://www.w3.org/1999/xlink">
<g id="graph0" class="graph" transform="scale(1 1) rotate(0) translate(4 90)">
<title>MazeRouter::displayTrace</title>
<polygon fill="#ffffff" stroke="transparent" points="-4,4 -4,-90 1126,-90 1126,4 -4,4"/>
<!-- Node1322 -->
<g id="node1" class="node">
<title>Node1322</title>
<g id="a_node1"><a xlink:title=" ">
<polygon fill="#bfbfbf" stroke="#000000" points="980,-57.5 980,-76.5 1122,-76.5 1122,-57.5 980,-57.5"/>
<text text-anchor="middle" x="1051" y="-64.5" font-family="Helvetica,sans-Serif" font-size="10.00" fill="#000000">MazeRouter::displayTrace</text>
</a>
</g>
</g>
<!-- Node1323 -->
<g id="node2" class="node">
<title>Node1323</title>
<g id="a_node2"><a xlink:href="../../d1/d67/classMazeRouter.html#aa7feb522a36ed474fef76324f76fa909" target="_top" xlink:title=" ">
<polygon fill="#ffffff" stroke="#000000" points="140,-38.5 140,-57.5 269,-57.5 269,-38.5 140,-38.5"/>
<text text-anchor="middle" x="204.5" y="-45.5" font-family="Helvetica,sans-Serif" font-size="10.00" fill="#000000">MazeRouter::routeNets</text>
</a>
</g>
</g>
<!-- Node1322&#45;&gt;Node1323 -->
<g id="edge1" class="edge">
<title>Node1322&#45;&gt;Node1323</title>
<path fill="none" stroke="#191970" d="M969.7198,-73.9594C899.3385,-79.3834 794.7766,-86 703.5,-86 703.5,-86 703.5,-86 534,-86 434.8115,-86 319.927,-68.7963 255.3742,-57.54"/>
<polygon fill="#191970" stroke="#191970" points="970.1529,-77.4364 979.8502,-73.1688 969.6082,-70.4576 970.1529,-77.4364"/>
</g>
<!-- Node1325 -->
<g id="node4" class="node">
<title>Node1325</title>
<g id="a_node4"><a xlink:href="../../d1/d67/classMazeRouter.html#a0343f01253ff83d5974d3297e09f1e49" target="_top" xlink:title=" ">
<polygon fill="#ffffff" stroke="#000000" points="810,-38.5 810,-57.5 944,-57.5 944,-38.5 810,-38.5"/>
<text text-anchor="middle" x="877" y="-45.5" font-family="Helvetica,sans-Serif" font-size="10.00" fill="#000000">MazeRouter::insertTrace</text>
</a>
</g>
</g>
<!-- Node1322&#45;&gt;Node1325 -->
<g id="edge3" class="edge">
<title>Node1322&#45;&gt;Node1325</title>
<path fill="none" stroke="#191970" d="M969.9097,-58.1453C961.2865,-57.2037 952.5854,-56.2536 944.1475,-55.3322"/>
<polygon fill="#191970" stroke="#191970" points="969.6557,-61.6383 979.9766,-59.2446 970.4156,-54.6797 969.6557,-61.6383"/>
</g>
<!-- Node1324 -->
<g id="node3" class="node">
<title>Node1324</title>
<g id="a_node3"><a xlink:href="../../d1/d67/classMazeRouter.html#a0e1c56746b837fa3e83bd6b9e9fcd309" target="_top" xlink:title=" ">
<polygon fill="#ffffff" stroke="#000000" points="0,-38.5 0,-57.5 104,-57.5 104,-38.5 0,-38.5"/>
<text text-anchor="middle" x="52" y="-45.5" font-family="Helvetica,sans-Serif" font-size="10.00" fill="#000000">MazeRouter::start</text>
</a>
</g>
</g>
<!-- Node1323&#45;&gt;Node1324 -->
<g id="edge2" class="edge">
<title>Node1323&#45;&gt;Node1324</title>
<path fill="none" stroke="#191970" d="M129.7616,-48C121.1556,-48 112.5238,-48 104.3051,-48"/>
<polygon fill="#191970" stroke="#191970" points="129.8263,-51.5001 139.8263,-48 129.8262,-44.5001 129.8263,-51.5001"/>
</g>
<!-- Node1326 -->
<g id="node5" class="node">
<title>Node1326</title>
<g id="a_node5"><a xlink:href="../../d1/d67/classMazeRouter.html#addd030cb22d8352f92d11d137b9cc4b8" target="_top" xlink:title=" ">
<polygon fill="#ffffff" stroke="#000000" points="471,-.5 471,-19.5 597,-19.5 597,-.5 471,-.5"/>
<text text-anchor="middle" x="534" y="-7.5" font-family="Helvetica,sans-Serif" font-size="10.00" fill="#000000">MazeRouter::routeOne</text>
</a>
</g>
</g>
<!-- Node1325&#45;&gt;Node1326 -->
<g id="edge4" class="edge">
<title>Node1325&#45;&gt;Node1326</title>
<path fill="none" stroke="#191970" d="M799.9545,-44.2129C751.8197,-41.2998 688.6293,-36.4802 633,-29 614.9611,-26.5744 595.24,-22.9839 578.1805,-19.5752"/>
<polygon fill="#191970" stroke="#191970" points="799.8002,-47.7098 809.9892,-44.8058 800.2131,-40.7219 799.8002,-47.7098"/>
</g>
<!-- Node1328 -->
<g id="node7" class="node">
<title>Node1328</title>
<g id="a_node7"><a xlink:href="../../d1/d67/classMazeRouter.html#acd12254cbfae94cd56cec7fca8414f60" target="_top" xlink:title=" ">
<polygon fill="#ffffff" stroke="#000000" points="633,-.5 633,-19.5 774,-19.5 774,-.5 633,-.5"/>
<text text-anchor="middle" x="703.5" y="-7.5" font-family="Helvetica,sans-Serif" font-size="10.00" fill="#000000">MazeRouter::routeJumper</text>
</a>
</g>
</g>
<!-- Node1325&#45;&gt;Node1328 -->
<g id="edge8" class="edge">
<title>Node1325&#45;&gt;Node1328</title>
<path fill="none" stroke="#191970" d="M823.3402,-36.2474C798.8073,-30.8742 770.1213,-24.5914 746.9665,-19.5201"/>
<polygon fill="#191970" stroke="#191970" points="822.7013,-39.6904 833.2186,-38.411 824.199,-32.8525 822.7013,-39.6904"/>
</g>
<!-- Node1326&#45;&gt;Node1323 -->
<g id="edge5" class="edge">
<title>Node1326&#45;&gt;Node1323</title>
<path fill="none" stroke="#191970" d="M479.9654,-21.4582C465.4177,-24.2449 449.6521,-26.996 435,-29 379.3042,-36.6176 315.5895,-41.5858 269.2837,-44.5242"/>
<polygon fill="#191970" stroke="#191970" points="480.6714,-24.8865 489.8136,-19.532 479.3277,-18.0167 480.6714,-24.8865"/>
</g>
<!-- Node1327 -->
<g id="node6" class="node">
<title>Node1327</title>
<g id="a_node6"><a xlink:href="../../d1/d67/classMazeRouter.html#ac528668d7d8b599ac0f86e78ba93bc59" target="_top" xlink:title=" ">
<polygon fill="#ffffff" stroke="#000000" points="305,-.5 305,-19.5 435,-19.5 435,-.5 305,-.5"/>
<text text-anchor="middle" x="370" y="-7.5" font-family="Helvetica,sans-Serif" font-size="10.00" fill="#000000">MazeRouter::routeNext</text>
</a>
</g>
</g>
<!-- Node1326&#45;&gt;Node1327 -->
<g id="edge6" class="edge">
<title>Node1326&#45;&gt;Node1327</title>
<path fill="none" stroke="#191970" d="M460.4023,-10C451.9791,-10 443.4363,-10 435.1346,-10"/>
<polygon fill="#191970" stroke="#191970" points="460.5934,-13.5001 470.5933,-10 460.5933,-6.5001 460.5934,-13.5001"/>
</g>
<!-- Node1327&#45;&gt;Node1323 -->
<g id="edge7" class="edge">
<title>Node1327&#45;&gt;Node1323</title>
<path fill="none" stroke="#191970" d="M318.1895,-21.8961C294.9267,-27.2374 267.8531,-33.4537 245.9623,-38.4799"/>
<polygon fill="#191970" stroke="#191970" points="319.2742,-25.2382 328.2374,-19.589 317.7077,-18.4157 319.2742,-25.2382"/>
</g>
<!-- Node1328&#45;&gt;Node1326 -->
<g id="edge9" class="edge">
<title>Node1328&#45;&gt;Node1326</title>
<path fill="none" stroke="#191970" d="M622.5821,-10C614.0108,-10 605.3872,-10 597.0628,-10"/>
<polygon fill="#191970" stroke="#191970" points="622.5989,-13.5001 632.5989,-10 622.5988,-6.5001 622.5989,-13.5001"/>
</g>
</g>
</svg>
