<?xml version="1.0" encoding="UTF-8" standalone="no"?>
<!DOCTYPE svg PUBLIC "-//W3C//DTD SVG 1.1//EN"
 "http://www.w3.org/Graphics/SVG/1.1/DTD/svg11.dtd">
<!-- Generated by graphviz version 2.40.1 (0)
 -->
<!-- Title: MazeRouter::reducePoints Pages: 1 -->
<!--zoomable 417 -->
<svg id="main" version="1.1" xmlns="http://www.w3.org/2000/svg" xmlns:xlink="http://www.w3.org/1999/xlink" xml:space="preserve" onload="init(evt)">
<style type="text/css"><![CDATA[
.edge:hover path { stroke: red; }
.edge:hover polygon { stroke: red; fill: red; }
]]></style>
<script type="text/javascript"><![CDATA[
var edges = document.getElementsByTagName('g');
if (edges && edges.length) {
  for (var i=0;i<edges.length;i++) {
    if (edges[i].id.substr(0,4)=='edge') {
      edges[i].setAttribute('class','edge');
    }
  }
}
]]></script>
        <defs>
                <circle id="rim" cx="0" cy="0" r="7"/>
                <circle id="rim2" cx="0" cy="0" r="3.5"/>
                <g id="zoomPlus">
                        <use xlink:href="#rim" fill="#404040">
                                <set attributeName="fill" to="#808080" begin="zoomplus.mouseover" end="zoomplus.mouseout"/>
                        </use>
                        <path d="M-4,0h8M0,-4v8" fill="none" stroke="white" stroke-width="1.5" pointer-events="none"/>
                </g>
                <g id="zoomMin">
                        <use xlink:href="#rim" fill="#404040">
                                <set attributeName="fill" to="#808080" begin="zoomminus.mouseover" end="zoomminus.mouseout"/>
                        </use>
                        <path d="M-4,0h8" fill="none" stroke="white" stroke-width="1.5" pointer-events="none"/>
                </g>
                <g id="dirArrow">
                        <path fill="none" stroke="white" stroke-width="1.5" d="M0,-3.0v7 M-2.5,-0.5L0,-3.0L2.5,-0.5"/>
                </g>
               <g id="resetDef">
                       <use xlink:href="#rim2" fill="#404040">
                               <set attributeName="fill" to="#808080" begin="reset.mouseover" end="reset.mouseout"/>
                       </use>
               </g>
        </defs>

<script type="text/javascript">
var viewWidth = 709;
var viewHeight = 417;
var sectionId = 'dynsection-48';
</script>
<script xlink:href="../../svgpan.js"/>
<svg id="graph" class="graph">
<g id="viewport">
<title>MazeRouter::reducePoints</title>
<polygon fill="#ffffff" stroke="transparent" points="-4,4 -4,-412.5 705,-412.5 705,4 -4,4"/>
<!-- Node1967 -->
<g id="node1" class="node">
<title>Node1967</title>
<g id="a_node1"><a xlink:title=" ">
<polygon fill="#bfbfbf" stroke="#000000" points="0,-218 0,-237 144,-237 144,-218 0,-218"/>
<text text-anchor="middle" x="72" y="-225" font-family="Helvetica,sans-Serif" font-size="10.00" fill="#000000">MazeRouter::reducePoints</text>
</a>
</g>
</g>
<!-- Node1968 -->
<g id="node2" class="node">
<title>Node1968</title>
<g id="a_node2"><a xlink:href="../../d8/d4a/structConnectionThing.html#aa5d202b60d8b1a2185b7f4b9b76a9056" target="_top" xlink:title=" ">
<polygon fill="#ffffff" stroke="#000000" points="190,-389 190,-408 312,-408 312,-389 190,-389"/>
<text text-anchor="middle" x="251" y="-396" font-family="Helvetica,sans-Serif" font-size="10.00" fill="#000000">ConnectionThing::add</text>
</a>
</g>
</g>
<!-- Node1967&#45;&gt;Node1968 -->
<g id="edge1" class="edge">
<title>Node1967&#45;&gt;Node1968</title>
<path fill="none" stroke="#191970" d="M75.9659,-237.0851C87.6146,-264.0133 124.439,-340.8935 180,-379.5 182.8637,-381.4898 185.925,-383.2713 189.1092,-384.8663"/>
<polygon fill="#191970" stroke="#191970" points="187.7801,-388.1049 198.3461,-388.8856 190.5731,-381.6862 187.7801,-388.1049"/>
</g>
<!-- Node1969 -->
<g id="node3" class="node">
<title>Node1969</title>
<g id="a_node3"><a xlink:href="../../d7/d64/classWire.html#a45f4d43eb8d9c12df32f8431b22ae04a" target="_top" xlink:title=" ">
<polygon fill="#ffffff" stroke="#000000" points="201.5,-351 201.5,-370 300.5,-370 300.5,-351 201.5,-351"/>
<text text-anchor="middle" x="251" y="-358" font-family="Helvetica,sans-Serif" font-size="10.00" fill="#000000">Wire::connector0</text>
</a>
</g>
</g>
<!-- Node1967&#45;&gt;Node1969 -->
<g id="edge2" class="edge">
<title>Node1967&#45;&gt;Node1969</title>
<path fill="none" stroke="#191970" d="M78.2928,-237.1435C93.1885,-259.1781 132.9129,-313.4696 180,-341.5 183.7005,-343.7029 187.6593,-345.6551 191.744,-347.3846"/>
<polygon fill="#191970" stroke="#191970" points="190.849,-350.7872 201.4411,-351.0287 193.3115,-344.2346 190.849,-350.7872"/>
</g>
<!-- Node1970 -->
<g id="node4" class="node">
<title>Node1970</title>
<g id="a_node4"><a xlink:href="../../d7/d64/classWire.html#a866a8602d73cc8004d133cb8780048f3" target="_top" xlink:title=" ">
<polygon fill="#ffffff" stroke="#000000" points="201.5,-313 201.5,-332 300.5,-332 300.5,-313 201.5,-313"/>
<text text-anchor="middle" x="251" y="-320" font-family="Helvetica,sans-Serif" font-size="10.00" fill="#000000">Wire::connector1</text>
</a>
</g>
</g>
<!-- Node1967&#45;&gt;Node1970 -->
<g id="edge3" class="edge">
<title>Node1967&#45;&gt;Node1970</title>
<path fill="none" stroke="#191970" d="M82.8437,-237.1298C101.4365,-253.159 141.1614,-285.3415 180,-303.5 185.0571,-305.8644 190.4594,-307.9756 195.9411,-309.851"/>
<polygon fill="#191970" stroke="#191970" points="195.2469,-313.3021 205.8367,-312.976 197.3549,-306.627 195.2469,-313.3021"/>
</g>
<!-- Node1971 -->
<g id="node5" class="node">
<title>Node1971</title>
<g id="a_node5"><a xlink:href="../../d4/d4f/classItemBase.html#acc2f5bad42928e7178c28fa0771b1f60" target="_top" xlink:title=" ">
<polygon fill="#ffffff" stroke="#000000" points="191.5,-275 191.5,-294 310.5,-294 310.5,-275 191.5,-275"/>
<text text-anchor="middle" x="251" y="-282" font-family="Helvetica,sans-Serif" font-size="10.00" fill="#000000">ItemBase::modelPart</text>
</a>
</g>
</g>
<!-- Node1967&#45;&gt;Node1971 -->
<g id="edge4" class="edge">
<title>Node1967&#45;&gt;Node1971</title>
<path fill="none" stroke="#191970" d="M97.5645,-237.1194C119.3325,-245.1595 151.5156,-256.6918 180,-265.5 187.5429,-267.8325 195.5873,-270.1474 203.4501,-272.317"/>
<polygon fill="#191970" stroke="#191970" points="202.6937,-275.7382 213.2612,-274.9778 204.526,-268.9822 202.6937,-275.7382"/>
</g>
<!-- Node1972 -->
<g id="node6" class="node">
<title>Node1972</title>
<g id="a_node6"><a xlink:href="../../d4/d08/misc_8h.html#ae7cc352fa1dc81e57ff53ebbc762f27d" target="_top" xlink:title=" ">
<polygon fill="#ffffff" stroke="#000000" points="229,-237 229,-256 273,-256 273,-237 229,-237"/>
<text text-anchor="middle" x="251" y="-244" font-family="Helvetica,sans-Serif" font-size="10.00" fill="#000000">qMax</text>
</a>
</g>
</g>
<!-- Node1967&#45;&gt;Node1972 -->
<g id="edge5" class="edge">
<title>Node1967&#45;&gt;Node1972</title>
<path fill="none" stroke="#191970" d="M144.0324,-235.1459C169.8432,-237.8856 197.6706,-240.8393 218.4714,-243.0472"/>
<polygon fill="#191970" stroke="#191970" points="218.3468,-246.5536 228.6604,-244.1288 219.0858,-239.5927 218.3468,-246.5536"/>
</g>
<!-- Node1973 -->
<g id="node7" class="node">
<title>Node1973</title>
<g id="a_node7"><a xlink:href="../../d4/d08/misc_8h.html#aec6ff9c887dc8733e787bf81a01492fd" target="_top" xlink:title=" ">
<polygon fill="#ffffff" stroke="#000000" points="230.5,-199 230.5,-218 271.5,-218 271.5,-199 230.5,-199"/>
<text text-anchor="middle" x="251" y="-206" font-family="Helvetica,sans-Serif" font-size="10.00" fill="#000000">qMin</text>
</a>
</g>
</g>
<!-- Node1967&#45;&gt;Node1973 -->
<g id="edge6" class="edge">
<title>Node1967&#45;&gt;Node1973</title>
<path fill="none" stroke="#191970" d="M144.0324,-219.8541C170.505,-217.0442 199.099,-214.009 220.0574,-211.7844"/>
<polygon fill="#191970" stroke="#191970" points="220.695,-215.2365 230.2697,-210.7004 219.9561,-208.2756 220.695,-215.2365"/>
</g>
<!-- Node1974 -->
<g id="node8" class="node">
<title>Node1974</title>
<g id="a_node8"><a xlink:href="../../d8/d4a/structConnectionThing.html#a8ad32c0214ef714dc4bbf6f052bd05e4" target="_top" xlink:title=" ">
<polygon fill="#ffffff" stroke="#000000" points="180,-161 180,-180 322,-180 322,-161 180,-161"/>
<text text-anchor="middle" x="251" y="-168" font-family="Helvetica,sans-Serif" font-size="10.00" fill="#000000">ConnectionThing::remove</text>
</a>
</g>
</g>
<!-- Node1967&#45;&gt;Node1974 -->
<g id="edge7" class="edge">
<title>Node1967&#45;&gt;Node1974</title>
<path fill="none" stroke="#191970" d="M97.5645,-217.8806C119.3325,-209.8405 151.5156,-198.3082 180,-189.5 187.5429,-187.1675 195.5873,-184.8526 203.4501,-182.683"/>
<polygon fill="#191970" stroke="#191970" points="204.526,-186.0178 213.2612,-180.0222 202.6937,-179.2618 204.526,-186.0178"/>
</g>
<!-- Node1975 -->
<g id="node9" class="node">
<title>Node1975</title>
<g id="a_node9"><a xlink:href="../../d7/d64/classWire.html#aaf43c433566d52977c3a1655a2f17c28" target="_top" xlink:title=" ">
<polygon fill="#ffffff" stroke="#000000" points="192.5,-123 192.5,-142 309.5,-142 309.5,-123 192.5,-123"/>
<text text-anchor="middle" x="251" y="-130" font-family="Helvetica,sans-Serif" font-size="10.00" fill="#000000">Wire::saveGeometry</text>
</a>
</g>
</g>
<!-- Node1967&#45;&gt;Node1975 -->
<g id="edge8" class="edge">
<title>Node1967&#45;&gt;Node1975</title>
<path fill="none" stroke="#191970" d="M82.8437,-217.8702C101.4365,-201.841 141.1614,-169.6585 180,-151.5 185.0571,-149.1356 190.4594,-147.0244 195.9411,-145.149"/>
<polygon fill="#191970" stroke="#191970" points="197.3549,-148.373 205.8367,-142.024 195.2469,-141.6979 197.3549,-148.373"/>
</g>
<!-- Node1983 -->
<g id="node17" class="node">
<title>Node1983</title>
<g id="a_node17"><a xlink:href="../../d7/d64/classWire.html#a18ebebc1b4204bef0e4d2c460e24cf9b" target="_top" xlink:title=" ">
<polygon fill="#ffffff" stroke="#000000" points="201.5,-66 201.5,-85 300.5,-85 300.5,-66 201.5,-66"/>
<text text-anchor="middle" x="251" y="-73" font-family="Helvetica,sans-Serif" font-size="10.00" fill="#000000">Wire::setLineAnd</text>
</a>
</g>
</g>
<!-- Node1967&#45;&gt;Node1983 -->
<g id="edge17" class="edge">
<title>Node1967&#45;&gt;Node1983</title>
<path fill="none" stroke="#191970" d="M79.2641,-217.9574C95.5345,-197.044 136.8728,-146.4162 180,-113.5 192.0444,-104.3073 206.6155,-96.0876 219.4153,-89.6646"/>
<polygon fill="#191970" stroke="#191970" points="221.3184,-92.6315 228.787,-85.1168 218.2623,-86.3338 221.3184,-92.6315"/>
</g>
<!-- Node1987 -->
<g id="node21" class="node">
<title>Node1987</title>
<g id="a_node21"><a xlink:href="../../d8/d4a/structConnectionThing.html#aac88c36d75447c241016a803ad667ba1" target="_top" xlink:title=" ">
<polygon fill="#ffffff" stroke="#000000" points="182.5,-28 182.5,-47 319.5,-47 319.5,-28 182.5,-28"/>
<text text-anchor="middle" x="251" y="-35" font-family="Helvetica,sans-Serif" font-size="10.00" fill="#000000">ConnectionThing::values</text>
</a>
</g>
</g>
<!-- Node1967&#45;&gt;Node1987 -->
<g id="edge23" class="edge">
<title>Node1967&#45;&gt;Node1987</title>
<path fill="none" stroke="#191970" d="M75.1615,-217.9924C85.3261,-188.938 120.0481,-100.6244 180,-56.5 182.5387,-54.6315 185.2485,-52.9468 188.0729,-51.4276"/>
<polygon fill="#191970" stroke="#191970" points="189.8001,-54.4853 197.4135,-47.1174 186.8671,-48.1294 189.8001,-54.4853"/>
</g>
<!-- Node1976 -->
<g id="node10" class="node">
<title>Node1976</title>
<g id="a_node10"><a xlink:href="../../d3/de8/classViewGeometry.html#ab605ed2ca5e1cb4209b147a66596b1d0" target="_top" xlink:title=" ">
<polygon fill="#ffffff" stroke="#000000" points="358,-237 358,-256 510,-256 510,-237 358,-237"/>
<text text-anchor="middle" x="434" y="-244" font-family="Helvetica,sans-Serif" font-size="10.00" fill="#000000">ViewGeometry::setSelected</text>
</a>
</g>
</g>
<!-- Node1975&#45;&gt;Node1976 -->
<g id="edge9" class="edge">
<title>Node1975&#45;&gt;Node1976</title>
<path fill="none" stroke="#191970" d="M306.4885,-142.1349C312.0854,-144.589 317.3936,-147.6597 322,-151.5 350.7077,-175.4334 329.0958,-203.8043 358,-227.5 360.0707,-229.1976 362.2724,-230.7464 364.5727,-232.1594"/>
<polygon fill="#191970" stroke="#191970" points="363.3748,-235.48 373.8654,-236.9627 366.5891,-229.2616 363.3748,-235.48"/>
</g>
<!-- Node1978 -->
<g id="node12" class="node">
<title>Node1978</title>
<g id="a_node12"><a xlink:href="../../d3/de8/classViewGeometry.html#a295c030cfa23e54b7815df05340cf713" target="_top" xlink:title=" ">
<polygon fill="#ffffff" stroke="#000000" points="369,-199 369,-218 499,-218 499,-199 369,-199"/>
<text text-anchor="middle" x="434" y="-206" font-family="Helvetica,sans-Serif" font-size="10.00" fill="#000000">ViewGeometry::setLine</text>
</a>
</g>
</g>
<!-- Node1975&#45;&gt;Node1978 -->
<g id="edge11" class="edge">
<title>Node1975&#45;&gt;Node1978</title>
<path fill="none" stroke="#191970" d="M300.9322,-142.0963C308.2726,-144.564 315.531,-147.6491 322,-151.5 341.9905,-163.4001 337.912,-177.7652 358,-189.5 361.8699,-191.7607 366.0028,-193.7542 370.2668,-195.5118"/>
<polygon fill="#191970" stroke="#191970" points="369.1663,-198.8361 379.76,-198.995 371.5776,-192.2645 369.1663,-198.8361"/>
</g>
<!-- Node1980 -->
<g id="node14" class="node">
<title>Node1980</title>
<g id="a_node14"><a xlink:href="../../d7/d64/classWire.html#aeeab152819f6e13d4f41614ba7e72761" target="_top" xlink:title=" ">
<polygon fill="#ffffff" stroke="#000000" points="592,-50 592,-69 655,-69 655,-50 592,-50"/>
<text text-anchor="middle" x="623.5" y="-57" font-family="Helvetica,sans-Serif" font-size="10.00" fill="#000000">Wire::line</text>
</a>
</g>
</g>
<!-- Node1975&#45;&gt;Node1980 -->
<g id="edge13" class="edge">
<title>Node1975&#45;&gt;Node1980</title>
<path fill="none" stroke="#191970" d="M309.6178,-134.3127C362.7851,-134.5276 442.877,-131.2593 510,-113.5 542.4871,-104.9046 576.9612,-87.1092 599.2754,-74.293"/>
<polygon fill="#191970" stroke="#191970" points="601.1967,-77.2238 608.0529,-69.1465 597.6561,-71.1852 601.1967,-77.2238"/>
</g>
<!-- Node1981 -->
<g id="node15" class="node">
<title>Node1981</title>
<g id="a_node15"><a xlink:href="../../d3/de8/classViewGeometry.html#ada2d98e4a6be92bd84acd810face3433" target="_top" xlink:title=" ">
<polygon fill="#ffffff" stroke="#000000" points="371,-161 371,-180 497,-180 497,-161 371,-161"/>
<text text-anchor="middle" x="434" y="-168" font-family="Helvetica,sans-Serif" font-size="10.00" fill="#000000">ViewGeometry::setLoc</text>
</a>
</g>
</g>
<!-- Node1975&#45;&gt;Node1981 -->
<g id="edge14" class="edge">
<title>Node1975&#45;&gt;Node1981</title>
<path fill="none" stroke="#191970" d="M297.1786,-142.089C321.7626,-147.1939 352.1861,-153.5113 378.0975,-158.8918"/>
<polygon fill="#191970" stroke="#191970" points="377.6507,-162.3736 388.1534,-160.9799 379.0739,-155.5198 377.6507,-162.3736"/>
</g>
<!-- Node1982 -->
<g id="node16" class="node">
<title>Node1982</title>
<g id="a_node16"><a xlink:href="../../d3/de8/classViewGeometry.html#a909cee1c4f18d707469538e169da2668" target="_top" xlink:title=" ">
<polygon fill="#ffffff" stroke="#000000" points="376,-85 376,-104 492,-104 492,-85 376,-85"/>
<text text-anchor="middle" x="434" y="-92" font-family="Helvetica,sans-Serif" font-size="10.00" fill="#000000">ViewGeometry::setZ</text>
</a>
</g>
</g>
<!-- Node1975&#45;&gt;Node1982 -->
<g id="edge16" class="edge">
<title>Node1975&#45;&gt;Node1982</title>
<path fill="none" stroke="#191970" d="M297.1786,-122.911C321.7626,-117.8061 352.1861,-111.4887 378.0975,-106.1082"/>
<polygon fill="#191970" stroke="#191970" points="379.0739,-109.4802 388.1534,-104.0201 377.6507,-102.6264 379.0739,-109.4802"/>
</g>
<!-- Node1977 -->
<g id="node11" class="node">
<title>Node1977</title>
<g id="a_node11"><a xlink:href="../../d3/de8/classViewGeometry.html#a72654cc7bb8e2519ceb5e1d8480d8a65" target="_top" xlink:title=" ">
<polygon fill="#ffffff" stroke="#000000" points="555.5,-237 555.5,-256 691.5,-256 691.5,-237 555.5,-237"/>
<text text-anchor="middle" x="623.5" y="-244" font-family="Helvetica,sans-Serif" font-size="10.00" fill="#000000">ViewGeometry::selected</text>
</a>
</g>
</g>
<!-- Node1976&#45;&gt;Node1977 -->
<g id="edge10" class="edge">
<title>Node1976&#45;&gt;Node1977</title>
<path fill="none" stroke="#191970" d="M510.2578,-246.5C521.7918,-246.5 533.7061,-246.5 545.2809,-246.5"/>
<polygon fill="#191970" stroke="#191970" points="545.3471,-250.0001 555.3471,-246.5 545.347,-243.0001 545.3471,-250.0001"/>
</g>
<!-- Node1979 -->
<g id="node13" class="node">
<title>Node1979</title>
<g id="a_node13"><a xlink:href="../../d3/de8/classViewGeometry.html#aea2ab7d8389a1a1149d5682dd5bd7117" target="_top" xlink:title=" ">
<polygon fill="#ffffff" stroke="#000000" points="569,-180 569,-199 678,-199 678,-180 569,-180"/>
<text text-anchor="middle" x="623.5" y="-187" font-family="Helvetica,sans-Serif" font-size="10.00" fill="#000000">ViewGeometry::loc</text>
</a>
</g>
</g>
<!-- Node1978&#45;&gt;Node1979 -->
<g id="edge12" class="edge">
<title>Node1978&#45;&gt;Node1979</title>
<path fill="none" stroke="#191970" d="M499.2151,-201.9613C518.4545,-200.0323 539.499,-197.9223 558.7114,-195.996"/>
<polygon fill="#191970" stroke="#191970" points="559.2706,-199.4575 568.8715,-194.9773 558.5722,-192.4924 559.2706,-199.4575"/>
</g>
<!-- Node1981&#45;&gt;Node1979 -->
<g id="edge15" class="edge">
<title>Node1981&#45;&gt;Node1979</title>
<path fill="none" stroke="#191970" d="M497.1008,-176.8267C516.9048,-178.8124 538.793,-181.0069 558.7118,-183.0041"/>
<polygon fill="#191970" stroke="#191970" points="558.6278,-186.5131 568.9271,-184.0283 559.3262,-179.548 558.6278,-186.5131"/>
</g>
<!-- Node1984 -->
<g id="node18" class="node">
<title>Node1984</title>
<g id="a_node18"><a xlink:href="../../d7/d64/classWire.html#a05b5f7ebb0ee82dc75ca8913d7ddf07a" target="_top" xlink:title=" ">
<polygon fill="#ffffff" stroke="#000000" points="394,-9 394,-28 474,-28 474,-9 394,-9"/>
<text text-anchor="middle" x="434" y="-16" font-family="Helvetica,sans-Serif" font-size="10.00" fill="#000000">Wire::setLine</text>
</a>
</g>
</g>
<!-- Node1983&#45;&gt;Node1984 -->
<g id="edge18" class="edge">
<title>Node1983&#45;&gt;Node1984</title>
<path fill="none" stroke="#191970" d="M292.8028,-65.9846C302.5225,-63.3147 312.7335,-60.132 322,-56.5 338.844,-49.8979 341.1021,-43.9629 358,-37.5 366.3066,-34.323 375.3284,-31.5293 384.1579,-29.1305"/>
<polygon fill="#191970" stroke="#191970" points="385.1891,-32.4791 393.9968,-26.5905 383.4393,-25.7013 385.1891,-32.4791"/>
</g>
<!-- Node1986 -->
<g id="node20" class="node">
<title>Node1986</title>
<g id="a_node20"><a xlink:href="../../d7/d64/classWire.html#abc61eb96d8830c10eb55b280a447ae90" target="_top" xlink:title=" ">
<polygon fill="#ffffff" stroke="#000000" points="365.5,-47 365.5,-66 502.5,-66 502.5,-47 365.5,-47"/>
<text text-anchor="middle" x="434" y="-54" font-family="Helvetica,sans-Serif" font-size="10.00" fill="#000000">Wire::setConnector1Rect</text>
</a>
</g>
</g>
<!-- Node1983&#45;&gt;Node1986 -->
<g id="edge21" class="edge">
<title>Node1983&#45;&gt;Node1986</title>
<path fill="none" stroke="#191970" d="M300.5224,-70.3583C317.3132,-68.615 336.5118,-66.6217 355.0145,-64.7007"/>
<polygon fill="#191970" stroke="#191970" points="355.6175,-68.157 365.2026,-63.6429 354.8945,-61.1944 355.6175,-68.157"/>
</g>
<!-- Node1984&#45;&gt;Node1980 -->
<g id="edge19" class="edge">
<title>Node1984&#45;&gt;Node1980</title>
<path fill="none" stroke="#191970" d="M474.1881,-27.195C505.8533,-34.0461 549.8517,-43.5655 581.8809,-50.4953"/>
<polygon fill="#191970" stroke="#191970" points="581.3146,-53.9537 591.8287,-52.6476 582.795,-47.112 581.3146,-53.9537"/>
</g>
<!-- Node1985 -->
<g id="node19" class="node">
<title>Node1985</title>
<g id="a_node19"><a xlink:href="../../d4/d4f/classItemBase.html#ab1484692ebea9a39e103002ea06421ab" target="_top" xlink:title=" ">
<polygon fill="#ffffff" stroke="#000000" points="546,-.5 546,-30.5 701,-30.5 701,-.5 546,-.5"/>
<text text-anchor="start" x="554" y="-18.5" font-family="Helvetica,sans-Serif" font-size="10.00" fill="#000000">ItemBase::prepareGeometry</text>
<text text-anchor="middle" x="623.5" y="-7.5" font-family="Helvetica,sans-Serif" font-size="10.00" fill="#000000">Change</text>
</a>
</g>
</g>
<!-- Node1984&#45;&gt;Node1985 -->
<g id="edge20" class="edge">
<title>Node1984&#45;&gt;Node1985</title>
<path fill="none" stroke="#191970" d="M474.1881,-17.8638C492.1959,-17.5787 514.1925,-17.2305 535.708,-16.8898"/>
<polygon fill="#191970" stroke="#191970" points="535.933,-20.3868 545.8763,-16.7289 535.8221,-13.3877 535.933,-20.3868"/>
</g>
<!-- Node1986&#45;&gt;Node1980 -->
<g id="edge22" class="edge">
<title>Node1986&#45;&gt;Node1980</title>
<path fill="none" stroke="#191970" d="M502.6818,-57.5873C529.1356,-58.0061 558.5292,-58.4714 581.7,-58.8383"/>
<polygon fill="#191970" stroke="#191970" points="581.8211,-62.3405 591.8753,-58.9993 581.932,-55.3414 581.8211,-62.3405"/>
</g>
</g>
</svg>
        <g id="navigator" transform="translate(0 0)" fill="#404254">
                <rect fill="#f2f5e9" fill-opacity="0.5" stroke="#606060" stroke-width=".5" x="0" y="0" width="60" height="60"/>
                <use id="zoomplus" xlink:href="#zoomPlus" x="17" y="9" onmousedown="handleZoom(evt,'in')"/>
                <use id="zoomminus" xlink:href="#zoomMin" x="42" y="9" onmousedown="handleZoom(evt,'out')"/>
                <use id="reset" xlink:href="#resetDef" x="30" y="36" onmousedown="handleReset()"/>
                <g id="arrowUp" xlink:href="#dirArrow" transform="translate(30 24)" onmousedown="handlePan(0,-1)">
                  <use xlink:href="#rim" fill="#404040">
                        <set attributeName="fill" to="#808080" begin="arrowUp.mouseover" end="arrowUp.mouseout"/>
                  </use>
                  <path fill="none" stroke="white" stroke-width="1.5" d="M0,-3.0v7 M-2.5,-0.5L0,-3.0L2.5,-0.5"/>
                </g>
                <g id="arrowRight" xlink:href="#dirArrow" transform="rotate(90) translate(36 -43)" onmousedown="handlePan(1,0)">
                  <use xlink:href="#rim" fill="#404040">
                        <set attributeName="fill" to="#808080" begin="arrowRight.mouseover" end="arrowRight.mouseout"/>
                  </use>
                  <path fill="none" stroke="white" stroke-width="1.5" d="M0,-3.0v7 M-2.5,-0.5L0,-3.0L2.5,-0.5"/>
                </g>
                <g id="arrowDown" xlink:href="#dirArrow" transform="rotate(180) translate(-30 -48)" onmousedown="handlePan(0,1)">
                  <use xlink:href="#rim" fill="#404040">
                        <set attributeName="fill" to="#808080" begin="arrowDown.mouseover" end="arrowDown.mouseout"/>
                  </use>
                  <path fill="none" stroke="white" stroke-width="1.5" d="M0,-3.0v7 M-2.5,-0.5L0,-3.0L2.5,-0.5"/>
                </g>
                <g id="arrowLeft" xlink:href="#dirArrow" transform="rotate(270) translate(-36 17)" onmousedown="handlePan(-1,0)">
                  <use xlink:href="#rim" fill="#404040">
                        <set attributeName="fill" to="#808080" begin="arrowLeft.mouseover" end="arrowLeft.mouseout"/>
                  </use>
                  <path fill="none" stroke="white" stroke-width="1.5" d="M0,-3.0v7 M-2.5,-0.5L0,-3.0L2.5,-0.5"/>
                </g>
        </g>
        <svg viewBox="0 0 15 15" width="100%" height="30px" preserveAspectRatio="xMaxYMin meet">
         <g id="arrow_out" transform="scale(0.3 0.3)">
          <a xlink:href="classMazeRouter_afe437e192363d4a4e22f713af6d18797_cgraph_org.svg" target="_base">
           <rect id="button" ry="5" rx="5" y="6" x="6" height="38" width="38"
                fill="#f2f5e9" fill-opacity="0.5" stroke="#606060" stroke-width="1.0"/>
           <path id="arrow"
             d="M 11.500037,31.436501 C 11.940474,20.09759 22.043105,11.32322 32.158766,21.979434 L 37.068811,17.246167 C 37.068811,17.246167 37.088388,32 37.088388,32 L 22.160133,31.978069 C 22.160133,31.978069 26.997745,27.140456 26.997745,27.140456 C 18.528582,18.264221 13.291696,25.230495 11.500037,31.436501 z"
             style="fill:#404040;"/>
          </a>
         </g>
        </svg>
</svg>
