<?xml version="1.0" encoding="UTF-8" standalone="no"?>
<!DOCTYPE svg PUBLIC "-//W3C//DTD SVG 1.1//EN"
 "http://www.w3.org/Graphics/SVG/1.1/DTD/svg11.dtd">
<!-- Generated by graphviz version 2.40.1 (0)
 -->
<!-- Title: MazeRouter::traceAvoids Pages: 1 -->
<svg width="250pt" height="66pt"
 viewBox="0.00 0.00 250.00 66.00" xmlns="http://www.w3.org/2000/svg" xmlns:xlink="http://www.w3.org/1999/xlink">
<g id="graph0" class="graph" transform="scale(1 1) rotate(0) translate(4 62)">
<title>MazeRouter::traceAvoids</title>
<polygon fill="#ffffff" stroke="transparent" points="-4,4 -4,-62 246,-62 246,4 -4,4"/>
<!-- Node4157 -->
<g id="node1" class="node">
<title>Node4157</title>
<g id="a_node1"><a xlink:title=" ">
<polygon fill="#bfbfbf" stroke="#000000" points="0,-19.5 0,-38.5 138,-38.5 138,-19.5 0,-19.5"/>
<text text-anchor="middle" x="69" y="-26.5" font-family="Helvetica,sans-Serif" font-size="10.00" fill="#000000">MazeRouter::traceAvoids</text>
</a>
</g>
</g>
<!-- Node4158 -->
<g id="node2" class="node">
<title>Node4158</title>
<g id="a_node2"><a xlink:href="../../d5/d78/structGrid.html#abaa75317af57191e1343db3231237ea3" target="_top" xlink:title=" ">
<polygon fill="#ffffff" stroke="#000000" points="181.5,-38.5 181.5,-57.5 234.5,-57.5 234.5,-38.5 181.5,-38.5"/>
<text text-anchor="middle" x="208" y="-45.5" font-family="Helvetica,sans-Serif" font-size="10.00" fill="#000000">Grid::at</text>
</a>
</g>
</g>
<!-- Node4157&#45;&gt;Node4158 -->
<g id="edge1" class="edge">
<title>Node4157&#45;&gt;Node4158</title>
<path fill="none" stroke="#191970" d="M138.0928,-38.4443C149.5214,-40.0065 160.9647,-41.5707 171.1865,-42.9679"/>
<polygon fill="#191970" stroke="#191970" points="170.9627,-46.4698 181.3446,-44.3565 171.9108,-39.5343 170.9627,-46.4698"/>
</g>
<!-- Node4159 -->
<g id="node3" class="node">
<title>Node4159</title>
<g id="a_node3"><a xlink:href="../../d5/d78/structGrid.html#ad0343baab84bd96758d6819404d690b9" target="_top" xlink:title=" ">
<polygon fill="#ffffff" stroke="#000000" points="174,-.5 174,-19.5 242,-19.5 242,-.5 174,-.5"/>
<text text-anchor="middle" x="208" y="-7.5" font-family="Helvetica,sans-Serif" font-size="10.00" fill="#000000">Grid::setAt</text>
</a>
</g>
</g>
<!-- Node4157&#45;&gt;Node4159 -->
<g id="edge2" class="edge">
<title>Node4157&#45;&gt;Node4159</title>
<path fill="none" stroke="#191970" d="M138.0928,-19.5557C146.8119,-18.3638 155.5397,-17.1708 163.727,-16.0517"/>
<polygon fill="#191970" stroke="#191970" points="164.3334,-19.5015 173.7672,-14.6793 163.3853,-12.5659 164.3334,-19.5015"/>
</g>
</g>
</svg>
