<?xml version="1.0" encoding="UTF-8" standalone="no"?>
<!DOCTYPE svg PUBLIC "-//W3C//DTD SVG 1.1//EN"
 "http://www.w3.org/Graphics/SVG/1.1/DTD/svg11.dtd">
<!-- Generated by graphviz version 2.40.1 (0)
 -->
<!-- Title: CMRouter::initPlane Pages: 1 -->
<svg width="1150pt" height="2568pt"
 viewBox="0.00 0.00 1150.00 2567.70" xmlns="http://www.w3.org/2000/svg" xmlns:xlink="http://www.w3.org/1999/xlink">
<g id="graph0" class="graph" transform="scale(1 1) rotate(0) translate(4 2563.7049)">
<title>CMRouter::initPlane</title>
<polygon fill="#ffffff" stroke="transparent" points="-4,4 -4,-2563.7049 1146,-2563.7049 1146,4 -4,4"/>
<!-- Node1518 -->
<g id="node1" class="node">
<title>Node1518</title>
<g id="a_node1"><a xlink:title=" ">
<polygon fill="#bfbfbf" stroke="#000000" points="0,-2137.5 0,-2156.5 113,-2156.5 113,-2137.5 0,-2137.5"/>
<text text-anchor="middle" x="56.5" y="-2144.5" font-family="Helvetica,sans-Serif" font-size="10.00" fill="#000000">CMRouter::initPlane</text>
</a>
</g>
</g>
<!-- Node1519 -->
<g id="node2" class="node">
<title>Node1519</title>
<g id="a_node2"><a xlink:href="../../d2/d59/tileutils_8h.html#a6b8bcc94e276ac03e556e67e5df474ea" target="_top" xlink:title=" ">
<polygon fill="#ffffff" stroke="#000000" points="368,-2517.5 368,-2536.5 463,-2536.5 463,-2517.5 368,-2517.5"/>
<text text-anchor="middle" x="415.5" y="-2524.5" font-family="Helvetica,sans-Serif" font-size="10.00" fill="#000000">fasterRealToTile</text>
</a>
</g>
</g>
<!-- Node1518&#45;&gt;Node1519 -->
<g id="edge1" class="edge">
<title>Node1518&#45;&gt;Node1519</title>
<path fill="none" stroke="#191970" d="M57.299,-2156.8251C61.9758,-2211.6337 87.737,-2478.8608 149,-2527 215.6125,-2579.3428 323.2721,-2556.8094 379.1835,-2539.7324"/>
<polygon fill="#191970" stroke="#191970" points="380.5213,-2542.9802 388.9996,-2536.6266 378.4096,-2536.3063 380.5213,-2542.9802"/>
</g>
<!-- Node1520 -->
<g id="node3" class="node">
<title>Node1520</title>
<g id="a_node3"><a xlink:href="../../d2/d59/tileutils_8h.html#aa3874b29613611f6ece5bcae351374f2" target="_top" xlink:title=" ">
<polygon fill="#ffffff" stroke="#000000" points="149.5,-2498.5 149.5,-2517.5 219.5,-2517.5 219.5,-2498.5 149.5,-2498.5"/>
<text text-anchor="middle" x="184.5" y="-2505.5" font-family="Helvetica,sans-Serif" font-size="10.00" fill="#000000">qrectToTile</text>
</a>
</g>
</g>
<!-- Node1518&#45;&gt;Node1520 -->
<g id="edge2" class="edge">
<title>Node1518&#45;&gt;Node1520</title>
<path fill="none" stroke="#191970" d="M56.7733,-2156.5872C58.4319,-2199.1556 69.9801,-2373.8045 149,-2484 151.211,-2487.0833 153.95,-2489.8907 156.9189,-2492.4096"/>
<polygon fill="#191970" stroke="#191970" points="154.9707,-2495.3208 165.1097,-2498.3952 159.1008,-2489.6691 154.9707,-2495.3208"/>
</g>
<!-- Node1522 -->
<g id="node5" class="node">
<title>Node1522</title>
<g id="a_node5"><a xlink:href="../../da/dce/tile_8h.html#af7be9835f30167cd17e9baa1bbf0ede2" target="_top" xlink:title=" ">
<polygon fill="#ffffff" stroke="#000000" points="969,-1244.5 969,-1263.5 1026,-1263.5 1026,-1244.5 969,-1244.5"/>
<text text-anchor="middle" x="997.5" y="-1251.5" font-family="Helvetica,sans-Serif" font-size="10.00" fill="#000000">SETLEFT</text>
</a>
</g>
</g>
<!-- Node1518&#45;&gt;Node1522 -->
<g id="edge5" class="edge">
<title>Node1518&#45;&gt;Node1522</title>
<path fill="none" stroke="#191970" d="M65.4929,-2137.2644C80.9832,-2121.0793 114.3839,-2088.673 149,-2071 208.3351,-2040.7069 227.3793,-2033 294,-2033 294,-2033 294,-2033 415.5,-2033 745.0681,-2033 645.6814,-1691.1868 840,-1425 891.4162,-1354.5676 889.3334,-1321.4492 959,-1269 959.3725,-1268.7196 959.7509,-1268.4437 960.1347,-1268.1723"/>
<polygon fill="#191970" stroke="#191970" points="961.922,-1271.1818 968.7972,-1263.1207 958.3956,-1265.1349 961.922,-1271.1818"/>
</g>
<!-- Node1523 -->
<g id="node6" class="node">
<title>Node1523</title>
<g id="a_node6"><a xlink:href="../../da/dce/tile_8h.html#a42dc2fc25bb7dd29aeeedfe5acb40d0f" target="_top" xlink:title=" ">
<polygon fill="#ffffff" stroke="#000000" points="849,-902.5 849,-921.5 914,-921.5 914,-902.5 849,-902.5"/>
<text text-anchor="middle" x="881.5" y="-909.5" font-family="Helvetica,sans-Serif" font-size="10.00" fill="#000000">SETRIGHT</text>
</a>
</g>
</g>
<!-- Node1518&#45;&gt;Node1523 -->
<g id="edge6" class="edge">
<title>Node1518&#45;&gt;Node1523</title>
<path fill="none" stroke="#191970" d="M57.9511,-2137.1513C69.9708,-2057.3835 156.064,-1520 294,-1520 294,-1520 294,-1520 415.5,-1520 738.1805,-1520 590.6879,-1135.8565 840,-931 841.9821,-929.3713 844.1266,-927.8507 846.3607,-926.4369"/>
<polygon fill="#191970" stroke="#191970" points="848.2111,-929.4132 855.2678,-921.5104 844.8231,-923.2877 848.2111,-929.4132"/>
</g>
<!-- Node1525 -->
<g id="node8" class="node">
<title>Node1525</title>
<g id="a_node8"><a xlink:href="../../da/dce/tile_8h.html#a7ad578d4fd996dad23874a785423b4d8" target="_top" xlink:title=" ">
<polygon fill="#ffffff" stroke="#000000" points="850,-2061.5 850,-2080.5 913,-2080.5 913,-2061.5 850,-2061.5"/>
<text text-anchor="middle" x="881.5" y="-2068.5" font-family="Helvetica,sans-Serif" font-size="10.00" fill="#000000">SETYMAX</text>
</a>
</g>
</g>
<!-- Node1518&#45;&gt;Node1525 -->
<g id="edge9" class="edge">
<title>Node1518&#45;&gt;Node1525</title>
<path fill="none" stroke="#191970" d="M69.8834,-2137.4796C87.2605,-2125.602 118.933,-2105.5709 149,-2095 210.6236,-2073.3344 228.6788,-2071 294,-2071 294,-2071 294,-2071 647.5,-2071 714.728,-2071 792.8205,-2071 839.6392,-2071"/>
<polygon fill="#191970" stroke="#191970" points="839.7071,-2074.5001 849.7071,-2071 839.7071,-2067.5001 839.7071,-2074.5001"/>
</g>
<!-- Node1527 -->
<g id="node10" class="node">
<title>Node1527</title>
<g id="a_node10"><a xlink:href="../../da/dce/tile_8h.html#a902505cacd17d1a2537f6b1723c87af6" target="_top" xlink:title=" ">
<polygon fill="#ffffff" stroke="#000000" points="967.5,-2080.5 967.5,-2099.5 1027.5,-2099.5 1027.5,-2080.5 967.5,-2080.5"/>
<text text-anchor="middle" x="997.5" y="-2087.5" font-family="Helvetica,sans-Serif" font-size="10.00" fill="#000000">SETYMIN</text>
</a>
</g>
</g>
<!-- Node1518&#45;&gt;Node1527 -->
<g id="edge12" class="edge">
<title>Node1518&#45;&gt;Node1527</title>
<path fill="none" stroke="#191970" d="M93.2329,-2137.411C139.6554,-2126.1538 222.1778,-2109 294,-2109 294,-2109 294,-2109 764.5,-2109 832.4176,-2109 911.1038,-2100.8812 957.4585,-2095.2579"/>
<polygon fill="#191970" stroke="#191970" points="957.9071,-2098.7292 967.4025,-2094.0294 957.0488,-2091.782 957.9071,-2098.7292"/>
</g>
<!-- Node1528 -->
<g id="node11" class="node">
<title>Node1528</title>
<g id="a_node11"><a xlink:href="../../d7/d2f/tile_8cpp.html#a79a727a6e892b91bc972f7a52be6d5bf" target="_top" xlink:title=" ">
<polygon fill="#ffffff" stroke="#000000" points="972.5,-2194.5 972.5,-2213.5 1022.5,-2213.5 1022.5,-2194.5 972.5,-2194.5"/>
<text text-anchor="middle" x="997.5" y="-2201.5" font-family="Helvetica,sans-Serif" font-size="10.00" fill="#000000">TiAlloc</text>
</a>
</g>
</g>
<!-- Node1518&#45;&gt;Node1528 -->
<g id="edge13" class="edge">
<title>Node1518&#45;&gt;Node1528</title>
<path fill="none" stroke="#191970" d="M67.4457,-2156.7196C99.6664,-2184.288 197.953,-2261 294,-2261 294,-2261 294,-2261 764.5,-2261 837.8671,-2261 920.6027,-2234.0048 965.0655,-2217.1698"/>
<polygon fill="#191970" stroke="#191970" points="966.4055,-2220.4043 974.4763,-2213.5405 963.8867,-2213.8732 966.4055,-2220.4043"/>
</g>
<!-- Node1533 -->
<g id="node16" class="node">
<title>Node1533</title>
<g id="a_node16"><a xlink:href="../../da/dce/tile_8h.html#a89bd358791aafdf2230bc314bdb5ef85" target="_top" xlink:title=" ">
<polygon fill="#ffffff" stroke="#000000" points="1074,-2346.5 1074,-2365.5 1140,-2365.5 1140,-2346.5 1074,-2346.5"/>
<text text-anchor="middle" x="1107" y="-2353.5" font-family="Helvetica,sans-Serif" font-size="10.00" fill="#000000">TiSetBody</text>
</a>
</g>
</g>
<!-- Node1518&#45;&gt;Node1533 -->
<g id="edge139" class="edge">
<title>Node1518&#45;&gt;Node1533</title>
<path fill="none" stroke="#191970" d="M57.7187,-2156.6124C62.653,-2191.9636 84.0911,-2316.5658 149,-2391 197.2336,-2446.3118 220.6115,-2470 294,-2470 294,-2470 294,-2470 881.5,-2470 966.785,-2470 1052.5875,-2404.2523 1088.9348,-2372.6185"/>
<polygon fill="#191970" stroke="#191970" points="1091.5477,-2374.9788 1096.6972,-2365.7196 1086.8975,-2369.7466 1091.5477,-2374.9788"/>
</g>
<!-- Node1535 -->
<g id="node18" class="node">
<title>Node1535</title>
<g id="a_node18"><a xlink:href="../../da/dce/tile_8h.html#a911c55bd3c5cfeb36f3ddd57354f6805" target="_top" xlink:title=" ">
<polygon fill="#ffffff" stroke="#000000" points="1075,-2270.5 1075,-2289.5 1139,-2289.5 1139,-2270.5 1075,-2270.5"/>
<text text-anchor="middle" x="1107" y="-2277.5" font-family="Helvetica,sans-Serif" font-size="10.00" fill="#000000">TiSetType</text>
</a>
</g>
</g>
<!-- Node1518&#45;&gt;Node1535 -->
<g id="edge140" class="edge">
<title>Node1518&#45;&gt;Node1535</title>
<path fill="none" stroke="#191970" d="M59.2271,-2156.8103C73.8122,-2206.9248 147.4731,-2432 294,-2432 294,-2432 294,-2432 881.5,-2432 976.748,-2432 1061.9172,-2337.6032 1093.7409,-2297.5895"/>
<polygon fill="#191970" stroke="#191970" points="1096.6498,-2299.5504 1100.0272,-2289.5083 1091.1246,-2295.2523 1096.6498,-2299.5504"/>
</g>
<!-- Node1536 -->
<g id="node19" class="node">
<title>Node1536</title>
<g id="a_node19"><a xlink:href="../../d5/d65/DBcell_8cpp.html#a3a7ffc93fc47db1455c4d76547c2e850" target="_top" xlink:title=" ">
<polygon fill="#ffffff" stroke="#000000" points="149,-104.5 149,-123.5 220,-123.5 220,-104.5 149,-104.5"/>
<text text-anchor="middle" x="184.5" y="-111.5" font-family="Helvetica,sans-Serif" font-size="10.00" fill="#000000">TiInsertTile</text>
</a>
</g>
</g>
<!-- Node1518&#45;&gt;Node1536 -->
<g id="edge21" class="edge">
<title>Node1518&#45;&gt;Node1536</title>
<path fill="none" stroke="#191970" d="M57.0992,-2137.4835C65.9714,-1996.5672 170.5793,-335.0997 183.2467,-133.9059"/>
<polygon fill="#191970" stroke="#191970" points="186.7574,-133.8445 183.8928,-123.6443 179.7712,-133.4046 186.7574,-133.8445"/>
</g>
<!-- Node1560 -->
<g id="node43" class="node">
<title>Node1560</title>
<g id="a_node43"><a xlink:href="../../d7/d2f/tile_8cpp.html#a62a19e37d0b44cfc96bab0575dff07a4" target="_top" xlink:title=" ">
<polygon fill="#ffffff" stroke="#000000" points="844.5,-2137.5 844.5,-2156.5 918.5,-2156.5 918.5,-2137.5 844.5,-2137.5"/>
<text text-anchor="middle" x="881.5" y="-2144.5" font-family="Helvetica,sans-Serif" font-size="10.00" fill="#000000">TiNewPlane</text>
</a>
</g>
</g>
<!-- Node1518&#45;&gt;Node1560 -->
<g id="edge129" class="edge">
<title>Node1518&#45;&gt;Node1560</title>
<path fill="none" stroke="#191970" d="M113.1246,-2147C161.2422,-2147 232.151,-2147 294,-2147 294,-2147 294,-2147 647.5,-2147 712.0842,-2147 786.6952,-2147 833.9731,-2147"/>
<polygon fill="#191970" stroke="#191970" points="834.2149,-2150.5001 844.2149,-2147 834.2148,-2143.5001 834.2149,-2150.5001"/>
</g>
<!-- Node1521 -->
<g id="node4" class="node">
<title>Node1521</title>
<g id="a_node4"><a xlink:href="../../d2/d59/tileutils_8h.html#ad3f29b54ef0b052ce9b36245f378733c" target="_top" xlink:title=" ">
<polygon fill="#ffffff" stroke="#000000" points="259.5,-2498.5 259.5,-2517.5 328.5,-2517.5 328.5,-2498.5 259.5,-2498.5"/>
<text text-anchor="middle" x="294" y="-2505.5" font-family="Helvetica,sans-Serif" font-size="10.00" fill="#000000">realsToTile</text>
</a>
</g>
</g>
<!-- Node1520&#45;&gt;Node1521 -->
<g id="edge3" class="edge">
<title>Node1520&#45;&gt;Node1521</title>
<path fill="none" stroke="#191970" d="M219.7492,-2508C229.1224,-2508 239.3727,-2508 249.1827,-2508"/>
<polygon fill="#191970" stroke="#191970" points="249.1913,-2511.5001 259.1913,-2508 249.1913,-2504.5001 249.1913,-2511.5001"/>
</g>
<!-- Node1521&#45;&gt;Node1519 -->
<g id="edge4" class="edge">
<title>Node1521&#45;&gt;Node1519</title>
<path fill="none" stroke="#191970" d="M328.817,-2513.4446C337.9681,-2514.8757 348.0856,-2516.4578 358.0825,-2518.0211"/>
<polygon fill="#191970" stroke="#191970" points="357.5781,-2521.4847 367.9988,-2519.5718 358.6597,-2514.5688 357.5781,-2521.4847"/>
</g>
<!-- Node1523&#45;&gt;Node1522 -->
<g id="edge7" class="edge">
<title>Node1523&#45;&gt;Node1522</title>
<path fill="none" stroke="#191970" d="M911.5276,-921.6367C915.8602,-924.1147 919.8953,-927.1924 923,-931 961.859,-978.6557 987.7556,-1171.8246 995.2529,-1234.3609"/>
<polygon fill="#191970" stroke="#191970" points="991.7955,-1234.9294 996.4376,-1244.4531 998.7477,-1234.1132 991.7955,-1234.9294"/>
</g>
<!-- Node1524 -->
<g id="node7" class="node">
<title>Node1524</title>
<g id="a_node7"><a xlink:href="../../da/dce/tile_8h.html#ad5887af538fa75ba5befb2a55f3891f6" target="_top" xlink:title=" ">
<polygon fill="#ffffff" stroke="#000000" points="1092.5,-598.5 1092.5,-617.5 1121.5,-617.5 1121.5,-598.5 1092.5,-598.5"/>
<text text-anchor="middle" x="1107" y="-605.5" font-family="Helvetica,sans-Serif" font-size="10.00" fill="#000000">TR</text>
</a>
</g>
</g>
<!-- Node1523&#45;&gt;Node1524 -->
<g id="edge8" class="edge">
<title>Node1523&#45;&gt;Node1524</title>
<path fill="none" stroke="#191970" d="M883.009,-902.4612C888.3271,-871.4087 908.6638,-771.5587 959,-708 993.0226,-665.0403 1050.5987,-633.739 1082.9974,-618.4716"/>
<polygon fill="#191970" stroke="#191970" points="1084.5611,-621.6051 1092.1899,-614.2531 1081.6414,-615.243 1084.5611,-621.6051"/>
</g>
<!-- Node1526 -->
<g id="node9" class="node">
<title>Node1526</title>
<g id="a_node9"><a xlink:href="../../da/dce/tile_8h.html#a80a2cd9ad52a4b260f35e3b0d789cfe7" target="_top" xlink:title=" ">
<polygon fill="#ffffff" stroke="#000000" points="1092.5,-940.5 1092.5,-959.5 1121.5,-959.5 1121.5,-940.5 1092.5,-940.5"/>
<text text-anchor="middle" x="1107" y="-947.5" font-family="Helvetica,sans-Serif" font-size="10.00" fill="#000000">RT</text>
</a>
</g>
</g>
<!-- Node1525&#45;&gt;Node1526 -->
<g id="edge10" class="edge">
<title>Node1525&#45;&gt;Node1526</title>
<path fill="none" stroke="#191970" d="M881.9452,-2061.3173C884.2318,-2019.0017 897.091,-1846.9444 959,-1724 982.5241,-1677.2836 1015.2344,-1683.0062 1036,-1635 1089.8777,-1510.4449 1104.0327,-1068.1412 1106.5475,-969.5694"/>
<polygon fill="#191970" stroke="#191970" points="1110.0477,-969.6011 1106.7933,-959.5185 1103.0498,-969.4299 1110.0477,-969.6011"/>
</g>
<!-- Node1525&#45;&gt;Node1527 -->
<g id="edge11" class="edge">
<title>Node1525&#45;&gt;Node1527</title>
<path fill="none" stroke="#191970" d="M913.1975,-2076.1918C926.8003,-2078.4199 942.8519,-2081.049 957.2788,-2083.4121"/>
<polygon fill="#191970" stroke="#191970" points="957.0042,-2086.9136 967.4385,-2085.0761 958.1358,-2080.0057 957.0042,-2086.9136"/>
</g>
<!-- Node1529 -->
<g id="node12" class="node">
<title>Node1529</title>
<g id="a_node12"><a xlink:href="../../da/dce/tile_8h.html#abea9d47b48c294aec71560da3983441d" target="_top" xlink:title=" ">
<polygon fill="#ffffff" stroke="#000000" points="1083.5,-2023.5 1083.5,-2042.5 1130.5,-2042.5 1130.5,-2023.5 1083.5,-2023.5"/>
<text text-anchor="middle" x="1107" y="-2030.5" font-family="Helvetica,sans-Serif" font-size="10.00" fill="#000000">SETBL</text>
</a>
</g>
</g>
<!-- Node1528&#45;&gt;Node1529 -->
<g id="edge14" class="edge">
<title>Node1528&#45;&gt;Node1529</title>
<path fill="none" stroke="#191970" d="M1017.5004,-2194.4218C1023.9923,-2190.6065 1030.843,-2185.7434 1036,-2180 1070.7402,-2141.3098 1092.1528,-2082.5736 1101.4975,-2052.3966"/>
<polygon fill="#191970" stroke="#191970" points="1104.897,-2053.2439 1104.3966,-2042.6608 1098.1881,-2051.246 1104.897,-2053.2439"/>
</g>
<!-- Node1530 -->
<g id="node13" class="node">
<title>Node1530</title>
<g id="a_node13"><a xlink:href="../../da/dce/tile_8h.html#a5ad229e314b9911101e7cc2157726f4b" target="_top" xlink:title=" ">
<polygon fill="#ffffff" stroke="#000000" points="1083.5,-1719.5 1083.5,-1738.5 1130.5,-1738.5 1130.5,-1719.5 1083.5,-1719.5"/>
<text text-anchor="middle" x="1107" y="-1726.5" font-family="Helvetica,sans-Serif" font-size="10.00" fill="#000000">SETLB</text>
</a>
</g>
</g>
<!-- Node1528&#45;&gt;Node1530 -->
<g id="edge15" class="edge">
<title>Node1528&#45;&gt;Node1530</title>
<path fill="none" stroke="#191970" d="M1005.5877,-2194.2012C1014.7017,-2182.5541 1029.1379,-2162.1497 1036,-2142 1087.2671,-1991.4611 1021.1109,-1936.6671 1072,-1786 1076.7611,-1771.9038 1085.5236,-1757.6398 1093.0895,-1746.9068"/>
<polygon fill="#191970" stroke="#191970" points="1095.9444,-1748.9324 1099.0494,-1738.8028 1090.3051,-1744.7852 1095.9444,-1748.9324"/>
</g>
<!-- Node1531 -->
<g id="node14" class="node">
<title>Node1531</title>
<g id="a_node14"><a xlink:href="../../da/dce/tile_8h.html#a12097ebef1c5ecb3b20021e60ce64d8f" target="_top" xlink:title=" ">
<polygon fill="#ffffff" stroke="#000000" points="1083.5,-1548.5 1083.5,-1567.5 1130.5,-1567.5 1130.5,-1548.5 1083.5,-1548.5"/>
<text text-anchor="middle" x="1107" y="-1555.5" font-family="Helvetica,sans-Serif" font-size="10.00" fill="#000000">SETRT</text>
</a>
</g>
</g>
<!-- Node1528&#45;&gt;Node1531 -->
<g id="edge16" class="edge">
<title>Node1528&#45;&gt;Node1531</title>
<path fill="none" stroke="#191970" d="M1002.54,-2194.3352C1011.0549,-2177.5089 1028.1283,-2141.5172 1036,-2109 1077.8928,-1935.9448 1043.958,-1885.8316 1072,-1710 1079.6806,-1661.8402 1093.8762,-1606.2156 1101.6192,-1577.4633"/>
<polygon fill="#191970" stroke="#191970" points="1105.0781,-1578.0827 1104.3313,-1567.5142 1098.3245,-1576.2416 1105.0781,-1578.0827"/>
</g>
<!-- Node1532 -->
<g id="node15" class="node">
<title>Node1532</title>
<g id="a_node15"><a xlink:href="../../da/dce/tile_8h.html#ad3a67d759b908d75aa6a46a0c56ce741" target="_top" xlink:title=" ">
<polygon fill="#ffffff" stroke="#000000" points="1083.5,-1909.5 1083.5,-1928.5 1130.5,-1928.5 1130.5,-1909.5 1083.5,-1909.5"/>
<text text-anchor="middle" x="1107" y="-1916.5" font-family="Helvetica,sans-Serif" font-size="10.00" fill="#000000">SETTR</text>
</a>
</g>
</g>
<!-- Node1528&#45;&gt;Node1532 -->
<g id="edge17" class="edge">
<title>Node1528&#45;&gt;Node1532</title>
<path fill="none" stroke="#191970" d="M1019.5208,-2194.3658C1025.6827,-2190.691 1031.8283,-2185.925 1036,-2180 1079.4614,-2118.2726 1050.8996,-2086.484 1072,-2014 1079.8343,-1987.0876 1091.4895,-1956.8407 1099.1653,-1937.8565"/>
<polygon fill="#191970" stroke="#191970" points="1102.421,-1939.1417 1102.9707,-1928.5611 1095.9429,-1936.4896 1102.421,-1939.1417"/>
</g>
<!-- Node1528&#45;&gt;Node1533 -->
<g id="edge18" class="edge">
<title>Node1528&#45;&gt;Node1533</title>
<path fill="none" stroke="#191970" d="M1004.3497,-2213.5083C1022.2477,-2238.3529 1070.6403,-2305.5281 1094.0154,-2337.9757"/>
<polygon fill="#191970" stroke="#191970" points="1091.4678,-2340.4273 1100.1529,-2346.4953 1097.1475,-2336.3357 1091.4678,-2340.4273"/>
</g>
<!-- Node1534 -->
<g id="node17" class="node">
<title>Node1534</title>
<g id="a_node17"><a xlink:href="../../da/dce/tile_8h.html#a9568ca475aab3004d62135f354ad94c5" target="_top" xlink:title=" ">
<polygon fill="#ffffff" stroke="#000000" points="1072,-2194.5 1072,-2213.5 1142,-2213.5 1142,-2194.5 1072,-2194.5"/>
<text text-anchor="middle" x="1107" y="-2201.5" font-family="Helvetica,sans-Serif" font-size="10.00" fill="#000000">TiSetClient</text>
</a>
</g>
</g>
<!-- Node1528&#45;&gt;Node1534 -->
<g id="edge19" class="edge">
<title>Node1528&#45;&gt;Node1534</title>
<path fill="none" stroke="#191970" d="M1022.6215,-2204C1034.0806,-2204 1048.0176,-2204 1061.2362,-2204"/>
<polygon fill="#191970" stroke="#191970" points="1061.6222,-2207.5001 1071.6221,-2204 1061.6221,-2200.5001 1061.6222,-2207.5001"/>
</g>
<!-- Node1528&#45;&gt;Node1535 -->
<g id="edge20" class="edge">
<title>Node1528&#45;&gt;Node1535</title>
<path fill="none" stroke="#191970" d="M1011.3683,-2213.6255C1029.8805,-2226.4741 1062.8803,-2249.3781 1084.8557,-2264.6305"/>
<polygon fill="#191970" stroke="#191970" points="1083.0335,-2267.6261 1093.2444,-2270.4527 1087.0248,-2261.8755 1083.0335,-2267.6261"/>
</g>
<!-- Node1537 -->
<g id="node20" class="node">
<title>Node1537</title>
<g id="a_node20"><a xlink:href="../../d5/d65/DBcell_8cpp.html#a43511f13ba1c7deaa85fe94960e64bf3" target="_top" xlink:title=" ">
<polygon fill="#ffffff" stroke="#000000" points="256,-66.5 256,-85.5 332,-85.5 332,-66.5 256,-66.5"/>
<text text-anchor="middle" x="294" y="-73.5" font-family="Helvetica,sans-Serif" font-size="10.00" fill="#000000">DBPlaceCell</text>
</a>
</g>
</g>
<!-- Node1536&#45;&gt;Node1537 -->
<g id="edge22" class="edge">
<title>Node1536&#45;&gt;Node1537</title>
<path fill="none" stroke="#191970" d="M212.1315,-104.411C225.6185,-99.7306 242.0427,-94.0308 256.6303,-88.9685"/>
<polygon fill="#191970" stroke="#191970" points="258.0776,-92.1711 266.3774,-85.5859 255.7826,-85.558 258.0776,-92.1711"/>
</g>
<!-- Node1554 -->
<g id="node37" class="node">
<title>Node1554</title>
<g id="a_node37"><a xlink:href="../../d9/def/search_8cpp.html#a3d227d3231a4b1aa9f575fd7ea33f800" target="_top" xlink:title=" ">
<polygon fill="#ffffff" stroke="#000000" points="734.5,-484.5 734.5,-503.5 794.5,-503.5 794.5,-484.5 734.5,-484.5"/>
<text text-anchor="middle" x="764.5" y="-491.5" font-family="Helvetica,sans-Serif" font-size="10.00" fill="#000000">TiSrPoint</text>
</a>
</g>
</g>
<!-- Node1536&#45;&gt;Node1554 -->
<g id="edge128" class="edge">
<title>Node1536&#45;&gt;Node1554</title>
<path fill="none" stroke="#191970" d="M220.1155,-114C265.4868,-114 346.3203,-114 415.5,-114 415.5,-114 415.5,-114 534.5,-114 555.8564,-114 712.5144,-398.6151 754.2874,-475.2105"/>
<polygon fill="#191970" stroke="#191970" points="751.3401,-477.1166 759.1966,-484.2248 757.4876,-473.7687 751.3401,-477.1166"/>
</g>
<!-- Node1538 -->
<g id="node21" class="node">
<title>Node1538</title>
<g id="a_node21"><a xlink:href="../../d5/d65/DBcell_8cpp.html#a838b2056c8a2f454081c2a2f407f180c" target="_top" xlink:title=" ">
<polygon fill="#ffffff" stroke="#000000" points="373.5,-522.5 373.5,-541.5 457.5,-541.5 457.5,-522.5 373.5,-522.5"/>
<text text-anchor="middle" x="415.5" y="-529.5" font-family="Helvetica,sans-Serif" font-size="10.00" fill="#000000">placeCellFunc</text>
</a>
</g>
</g>
<!-- Node1537&#45;&gt;Node1538 -->
<g id="edge23" class="edge">
<title>Node1537&#45;&gt;Node1538</title>
<path fill="none" stroke="#191970" d="M296.5377,-85.5242C311.5761,-141.9646 389.0664,-432.7925 410.1812,-512.0382"/>
<polygon fill="#191970" stroke="#191970" points="406.9166,-513.3802 412.8733,-522.1419 413.6806,-511.5779 406.9166,-513.3802"/>
</g>
<!-- Node1558 -->
<g id="node41" class="node">
<title>Node1558</title>
<g id="a_node41"><a xlink:href="../../d7/d8d/search2_8cpp.html#a8d3676cefae8fe3f354bdbc7f7e0fcc7" target="_top" xlink:title=" ">
<polygon fill="#ffffff" stroke="#000000" points="735.5,-389.5 735.5,-408.5 793.5,-408.5 793.5,-389.5 735.5,-389.5"/>
<text text-anchor="middle" x="764.5" y="-396.5" font-family="Helvetica,sans-Serif" font-size="10.00" fill="#000000">TiSrArea</text>
</a>
</g>
</g>
<!-- Node1537&#45;&gt;Node1558 -->
<g id="edge117" class="edge">
<title>Node1537&#45;&gt;Node1558</title>
<path fill="none" stroke="#191970" d="M326.9694,-66.4281C401.173,-47.077 583.0756,-12.2072 689,-100 732.7596,-136.269 755.8661,-318.0419 762.4776,-379.0209"/>
<polygon fill="#191970" stroke="#191970" points="759.025,-379.6553 763.5515,-389.2345 765.9866,-378.9233 759.025,-379.6553"/>
</g>
<!-- Node1538&#45;&gt;Node1533 -->
<g id="edge114" class="edge">
<title>Node1538&#45;&gt;Node1533</title>
<path fill="none" stroke="#191970" d="M416.3117,-541.796C421.5171,-603.6846 451.5051,-946.7084 499,-1223 562.6822,-1593.4573 552.4441,-1704.0562 725,-2038 798.515,-2180.2722 820.009,-2232.4555 959,-2312 991.7123,-2330.7212 1033.1372,-2342.1508 1063.8359,-2348.6509"/>
<polygon fill="#191970" stroke="#191970" points="1063.3118,-2352.1158 1073.8074,-2350.6698 1064.7008,-2345.255 1063.3118,-2352.1158"/>
</g>
<!-- Node1538&#45;&gt;Node1535 -->
<g id="edge115" class="edge">
<title>Node1538&#45;&gt;Node1535</title>
<path fill="none" stroke="#191970" d="M416.8995,-541.6822C434.5839,-662.9531 617.6589,-1887.3566 840,-2166 865.9125,-2198.4741 893.0248,-2180.2335 923,-2209 946.2678,-2231.3296 931.5547,-2255.0662 959,-2272 990.4799,-2291.4231 1033.272,-2291.5556 1064.7464,-2287.9375"/>
<polygon fill="#191970" stroke="#191970" points="1065.4982,-2291.3687 1074.9537,-2286.5891 1064.5815,-2284.429 1065.4982,-2291.3687"/>
</g>
<!-- Node1539 -->
<g id="node22" class="node">
<title>Node1539</title>
<g id="a_node22"><a xlink:href="../../d5/d65/DBcell_8cpp.html#a7820c8f9a364814a5b27ec81dfc2fc40" target="_top" xlink:title=" ">
<polygon fill="#ffffff" stroke="#000000" points="606,-560.5 606,-579.5 689,-579.5 689,-560.5 606,-560.5"/>
<text text-anchor="middle" x="647.5" y="-567.5" font-family="Helvetica,sans-Serif" font-size="10.00" fill="#000000">cellTileMerge</text>
</a>
</g>
</g>
<!-- Node1538&#45;&gt;Node1539 -->
<g id="edge24" class="edge">
<title>Node1538&#45;&gt;Node1539</title>
<path fill="none" stroke="#191970" d="M454.0037,-541.578C468.099,-544.8679 484.2149,-548.3783 499,-551 530.9103,-556.6583 566.9644,-561.3121 595.5558,-564.5975"/>
<polygon fill="#191970" stroke="#191970" points="595.401,-568.1022 605.7303,-565.7454 596.1858,-561.1463 595.401,-568.1022"/>
</g>
<!-- Node1543 -->
<g id="node26" class="node">
<title>Node1543</title>
<g id="a_node26"><a xlink:href="../../da/dce/tile_8h.html#a52b4c95b89a7d1a998cb5ea9db6a3def" target="_top" xlink:title=" ">
<polygon fill="#ffffff" stroke="#000000" points="974,-256.5 974,-275.5 1021,-275.5 1021,-256.5 974,-256.5"/>
<text text-anchor="middle" x="997.5" y="-263.5" font-family="Helvetica,sans-Serif" font-size="10.00" fill="#000000">RIGHT</text>
</a>
</g>
</g>
<!-- Node1538&#45;&gt;Node1543 -->
<g id="edge113" class="edge">
<title>Node1538&#45;&gt;Node1543</title>
<path fill="none" stroke="#191970" d="M424.6496,-522.1226C450.8645,-494.2117 529.2993,-413.3901 606,-361 654.9106,-327.5919 669.5036,-321.7 725,-301 774.3875,-282.5786 787.8235,-279.4886 840,-272 882.3431,-265.9228 931.704,-265.0303 963.722,-265.2566"/>
<polygon fill="#191970" stroke="#191970" points="963.8416,-268.7581 973.8802,-265.3704 963.92,-261.7585 963.8416,-268.7581"/>
</g>
<!-- Node1548 -->
<g id="node31" class="node">
<title>Node1548</title>
<g id="a_node31"><a xlink:href="../../da/dce/tile_8h.html#a9ba4203204abc4c4fb4c8bd6cd3662c3" target="_top" xlink:title=" ">
<polygon fill="#ffffff" stroke="#000000" points="1086,-332.5 1086,-351.5 1128,-351.5 1128,-332.5 1086,-332.5"/>
<text text-anchor="middle" x="1107" y="-339.5" font-family="Helvetica,sans-Serif" font-size="10.00" fill="#000000">YMIN</text>
</a>
</g>
</g>
<!-- Node1538&#45;&gt;Node1548 -->
<g id="edge116" class="edge">
<title>Node1538&#45;&gt;Node1548</title>
<path fill="none" stroke="#191970" d="M416.8511,-522.312C427.494,-450.2083 504.363,0 764.5,0 764.5,0 764.5,0 881.5,0 963.295,0 987.0954,-34.435 1036,-100 1088.2585,-170.0614 1102.1887,-278.007 1105.7898,-322.1533"/>
<polygon fill="#191970" stroke="#191970" points="1102.3016,-322.4431 1106.5139,-332.1645 1109.2833,-321.9381 1102.3016,-322.4431"/>
</g>
<!-- Node1556 -->
<g id="node39" class="node">
<title>Node1556</title>
<g id="a_node39"><a xlink:href="../../d5/d65/DBcell_8cpp.html#a98c8b9e8fe9f988173b90b00c700a0e0" target="_top" xlink:title=" ">
<polygon fill="#ffffff" stroke="#000000" points="499,-522.5 499,-541.5 570,-541.5 570,-522.5 499,-522.5"/>
<text text-anchor="middle" x="534.5" y="-529.5" font-family="Helvetica,sans-Serif" font-size="10.00" fill="#000000">clipCellTile</text>
</a>
</g>
</g>
<!-- Node1538&#45;&gt;Node1556 -->
<g id="edge90" class="edge">
<title>Node1538&#45;&gt;Node1556</title>
<path fill="none" stroke="#191970" d="M457.79,-532C467.7063,-532 478.3205,-532 488.3943,-532"/>
<polygon fill="#191970" stroke="#191970" points="488.6448,-535.5001 498.6448,-532 488.6448,-528.5001 488.6448,-535.5001"/>
</g>
<!-- Node1539&#45;&gt;Node1526 -->
<g id="edge31" class="edge">
<title>Node1539&#45;&gt;Node1526</title>
<path fill="none" stroke="#191970" d="M655.7595,-579.8536C669.1215,-595.3605 696.8366,-625.7728 725,-646 850.9249,-736.4403 927.3316,-693.4209 1036,-804 1072.2456,-840.8829 1093.0058,-899.8886 1101.86,-930.3635"/>
<polygon fill="#191970" stroke="#191970" points="1098.5446,-931.5057 1104.5901,-940.2065 1105.29,-929.6348 1098.5446,-931.5057"/>
</g>
<!-- Node1540 -->
<g id="node23" class="node">
<title>Node1540</title>
<g id="a_node23"><a xlink:href="../../da/dce/tile_8h.html#a3fd8545e72ebeb8fd1b6a6d2dd3d3b77" target="_top" xlink:title=" ">
<polygon fill="#ffffff" stroke="#000000" points="983,-940.5 983,-959.5 1012,-959.5 1012,-940.5 983,-940.5"/>
<text text-anchor="middle" x="997.5" y="-947.5" font-family="Helvetica,sans-Serif" font-size="10.00" fill="#000000">BL</text>
</a>
</g>
</g>
<!-- Node1539&#45;&gt;Node1540 -->
<g id="edge25" class="edge">
<title>Node1539&#45;&gt;Node1540</title>
<path fill="none" stroke="#191970" d="M689.0919,-564.5606C723.1797,-562.3794 771.0109,-564.7931 804,-589 938.5457,-687.7276 842.9543,-811.0705 959,-931 963.0817,-935.2183 968.2954,-938.6393 973.5584,-941.3543"/>
<polygon fill="#191970" stroke="#191970" points="972.2926,-944.6221 982.8511,-945.4987 975.1438,-938.2291 972.2926,-944.6221"/>
</g>
<!-- Node1541 -->
<g id="node24" class="node">
<title>Node1541</title>
<g id="a_node24"><a xlink:href="../../d5/d65/DBcell_8cpp.html#a924274e8aa568d037acbc02941f23703" target="_top" xlink:title=" ">
<polygon fill="#ffffff" stroke="#000000" points="725,-598.5 725,-617.5 804,-617.5 804,-598.5 725,-598.5"/>
<text text-anchor="middle" x="764.5" y="-605.5" font-family="Helvetica,sans-Serif" font-size="10.00" fill="#000000">ctbListMatch</text>
</a>
</g>
</g>
<!-- Node1539&#45;&gt;Node1541 -->
<g id="edge26" class="edge">
<title>Node1539&#45;&gt;Node1541</title>
<path fill="none" stroke="#191970" d="M677.024,-579.589C691.7119,-584.3594 709.6601,-590.1888 725.4678,-595.3229"/>
<polygon fill="#191970" stroke="#191970" points="724.3933,-598.6538 734.9854,-598.4141 726.5556,-591.9961 724.3933,-598.6538"/>
</g>
<!-- Node1542 -->
<g id="node25" class="node">
<title>Node1542</title>
<g id="a_node25"><a xlink:href="../../da/dce/tile_8h.html#aa6602689c00ed8c7e08f79a73d0bf014" target="_top" xlink:title=" ">
<polygon fill="#ffffff" stroke="#000000" points="1087.5,-446.5 1087.5,-465.5 1126.5,-465.5 1126.5,-446.5 1087.5,-446.5"/>
<text text-anchor="middle" x="1107" y="-453.5" font-family="Helvetica,sans-Serif" font-size="10.00" fill="#000000">LEFT</text>
</a>
</g>
</g>
<!-- Node1539&#45;&gt;Node1542 -->
<g id="edge27" class="edge">
<title>Node1539&#45;&gt;Node1542</title>
<path fill="none" stroke="#191970" d="M647.9452,-560.1827C650.0477,-525.2518 661.7651,-405.5383 725,-339 801.9822,-257.9961 849.2051,-267.8084 959,-247 992.6237,-240.6276 1008.3972,-226.7702 1036,-247 1078.8558,-278.4085 1054.8111,-310.7242 1072,-361 1081.0678,-387.5222 1092.4197,-417.8651 1099.6914,-436.9771"/>
<polygon fill="#191970" stroke="#191970" points="1096.4318,-438.2522 1103.2711,-446.3439 1102.9706,-435.7533 1096.4318,-438.2522"/>
</g>
<!-- Node1539&#45;&gt;Node1543 -->
<g id="edge28" class="edge">
<title>Node1539&#45;&gt;Node1543</title>
<path fill="none" stroke="#191970" d="M648.5973,-560.0663C652.5842,-528.7862 669.1431,-431.3601 725,-380 792.8798,-317.5849 840.2258,-358.6416 923,-318 942.9325,-308.2133 963.4724,-293.4647 977.9237,-282.1713"/>
<polygon fill="#191970" stroke="#191970" points="980.4453,-284.6367 986.075,-275.6613 976.077,-279.167 980.4453,-284.6367"/>
</g>
<!-- Node1544 -->
<g id="node27" class="node">
<title>Node1544</title>
<g id="a_node27"><a xlink:href="../../d7/d2f/tile_8cpp.html#ae0723ed9e38ab8061c5712af051a9bb7" target="_top" xlink:title=" ">
<polygon fill="#ffffff" stroke="#000000" points="856.5,-1434.5 856.5,-1453.5 906.5,-1453.5 906.5,-1434.5 856.5,-1434.5"/>
<text text-anchor="middle" x="881.5" y="-1441.5" font-family="Helvetica,sans-Serif" font-size="10.00" fill="#000000">TiJoinX</text>
</a>
</g>
</g>
<!-- Node1539&#45;&gt;Node1544 -->
<g id="edge32" class="edge">
<title>Node1539&#45;&gt;Node1544</title>
<path fill="none" stroke="#191970" d="M649.8251,-579.6335C659.0335,-617.7067 693.9572,-761.3503 725,-879 781.5695,-1093.3938 855.189,-1352.0415 875.877,-1424.377"/>
<polygon fill="#191970" stroke="#191970" points="872.6152,-1425.7007 878.7321,-1434.3514 879.3449,-1423.7743 872.6152,-1425.7007"/>
</g>
<!-- Node1547 -->
<g id="node30" class="node">
<title>Node1547</title>
<g id="a_node30"><a xlink:href="../../d7/d2f/tile_8cpp.html#a7d13144a74b0ebdf920423f3ac2a43c3" target="_top" xlink:title=" ">
<polygon fill="#ffffff" stroke="#000000" points="856.5,-1605.5 856.5,-1624.5 906.5,-1624.5 906.5,-1605.5 856.5,-1605.5"/>
<text text-anchor="middle" x="881.5" y="-1612.5" font-family="Helvetica,sans-Serif" font-size="10.00" fill="#000000">TiJoinY</text>
</a>
</g>
</g>
<!-- Node1539&#45;&gt;Node1547 -->
<g id="edge44" class="edge">
<title>Node1539&#45;&gt;Node1547</title>
<path fill="none" stroke="#191970" d="M648.7486,-579.5179C655.1794,-627.9941 685.7849,-852.1984 725,-1033 766.933,-1226.3324 788.3918,-1272.0225 840,-1463 852.8518,-1510.5583 868.1597,-1566.4277 876.1076,-1595.378"/>
<polygon fill="#191970" stroke="#191970" points="872.8371,-1596.6856 878.8607,-1605.4015 879.5871,-1594.8316 872.8371,-1596.6856"/>
</g>
<!-- Node1539&#45;&gt;Node1548 -->
<g id="edge89" class="edge">
<title>Node1539&#45;&gt;Node1548</title>
<path fill="none" stroke="#191970" d="M648.7269,-560.2753C654.732,-514.1977 682.4674,-318.359 725,-277 825.0823,-179.6792 913.2722,-166.4741 1036,-233 1071.0933,-252.0227 1091.5729,-296.7373 1100.8895,-322.5989"/>
<polygon fill="#191970" stroke="#191970" points="1097.6856,-324.0499 1104.209,-332.3983 1104.3156,-321.804 1097.6856,-324.0499"/>
</g>
<!-- Node1549 -->
<g id="node32" class="node">
<title>Node1549</title>
<g id="a_node32"><a xlink:href="../../d7/d2f/tile_8cpp.html#abc7162b5adb12a6ee68eaf9a8fa10461" target="_top" xlink:title=" ">
<polygon fill="#ffffff" stroke="#000000" points="855,-1130.5 855,-1149.5 908,-1149.5 908,-1130.5 855,-1130.5"/>
<text text-anchor="middle" x="881.5" y="-1137.5" font-family="Helvetica,sans-Serif" font-size="10.00" fill="#000000">TiSplitY</text>
</a>
</g>
</g>
<!-- Node1539&#45;&gt;Node1549 -->
<g id="edge56" class="edge">
<title>Node1539&#45;&gt;Node1549</title>
<path fill="none" stroke="#191970" d="M651.069,-579.8224C661.8341,-609.3535 695.0842,-699.8686 725,-774 779.0672,-907.9784 849.199,-1067.2217 873.0988,-1121.1121"/>
<polygon fill="#191970" stroke="#191970" points="869.9866,-1122.7278 877.2438,-1130.4468 876.3842,-1119.8869 869.9866,-1122.7278"/>
</g>
<!-- Node1553 -->
<g id="node36" class="node">
<title>Node1553</title>
<g id="a_node36"><a xlink:href="../../da/dce/tile_8h.html#af6d9b1552f9bcf833e7f219992f27027" target="_top" xlink:title=" ">
<polygon fill="#ffffff" stroke="#000000" points="975,-560.5 975,-579.5 1020,-579.5 1020,-560.5 975,-560.5"/>
<text text-anchor="middle" x="997.5" y="-567.5" font-family="Helvetica,sans-Serif" font-size="10.00" fill="#000000">YMAX</text>
</a>
</g>
</g>
<!-- Node1539&#45;&gt;Node1553 -->
<g id="edge88" class="edge">
<title>Node1539&#45;&gt;Node1553</title>
<path fill="none" stroke="#191970" d="M656.383,-579.6098C669.7246,-593.2546 696.4348,-617.6265 725,-627 813.2595,-655.9618 922.5812,-609.3133 971.598,-584.2579"/>
<polygon fill="#191970" stroke="#191970" points="973.3342,-587.2997 980.5732,-579.5635 970.0899,-581.0969 973.3342,-587.2997"/>
</g>
<!-- Node1539&#45;&gt;Node1554 -->
<g id="edge78" class="edge">
<title>Node1539&#45;&gt;Node1554</title>
<path fill="none" stroke="#191970" d="M662.3181,-560.3745C682.1862,-547.4688 717.6721,-524.4181 741.1514,-509.1666"/>
<polygon fill="#191970" stroke="#191970" points="743.3227,-511.9298 749.8022,-503.5473 739.5095,-506.0596 743.3227,-511.9298"/>
</g>
<!-- Node1543&#45;&gt;Node1524 -->
<g id="edge30" class="edge">
<title>Node1543&#45;&gt;Node1524</title>
<path fill="none" stroke="#191970" d="M1004.7895,-275.5671C1013.4143,-287.3182 1027.6531,-308.1434 1036,-328 1062.0657,-390.0083 1055.4403,-409.8063 1072,-475 1082.2867,-515.4977 1094.8651,-562.7784 1101.795,-588.6439"/>
<polygon fill="#191970" stroke="#191970" points="1098.4236,-589.5847 1104.396,-598.3357 1105.1843,-587.7703 1098.4236,-589.5847"/>
</g>
<!-- Node1543&#45;&gt;Node1542 -->
<g id="edge29" class="edge">
<title>Node1543&#45;&gt;Node1542</title>
<path fill="none" stroke="#191970" d="M1003.6502,-275.5756C1011.3774,-287.6803 1024.9629,-309.2086 1036,-328 1058.5098,-366.3245 1083.403,-412.0291 1096.9157,-437.1405"/>
<polygon fill="#191970" stroke="#191970" points="1094.0044,-439.1174 1101.8169,-446.2739 1100.1724,-435.8075 1094.0044,-439.1174"/>
</g>
<!-- Node1544&#45;&gt;Node1522 -->
<g id="edge39" class="edge">
<title>Node1544&#45;&gt;Node1522</title>
<path fill="none" stroke="#191970" d="M905.5202,-1434.3502C912.012,-1430.7152 918.4824,-1425.975 923,-1420 962.2665,-1368.0659 920.5986,-1330.577 959,-1278 961.2705,-1274.8913 964.0774,-1272.0948 967.1331,-1269.6047"/>
<polygon fill="#191970" stroke="#191970" points="969.3857,-1272.3017 975.6051,-1263.7245 965.3943,-1266.5511 969.3857,-1272.3017"/>
</g>
<!-- Node1544&#45;&gt;Node1524 -->
<g id="edge43" class="edge">
<title>Node1544&#45;&gt;Node1524</title>
<path fill="none" stroke="#191970" d="M903.5251,-1434.4802C910.397,-1430.7206 917.5864,-1425.8765 923,-1420 948.3238,-1392.5111 932.7846,-1370.64 959,-1344 985.7675,-1316.799 1014.3249,-1337.4099 1036,-1306 1083.5481,-1237.097 1063.4905,-1014.2829 1072,-931 1083.755,-815.9529 1099.1311,-678.0041 1104.788,-627.6325"/>
<polygon fill="#191970" stroke="#191970" points="1108.2871,-627.8363 1105.9267,-617.5078 1101.331,-627.0539 1108.2871,-627.8363"/>
</g>
<!-- Node1544&#45;&gt;Node1526 -->
<g id="edge36" class="edge">
<title>Node1544&#45;&gt;Node1526</title>
<path fill="none" stroke="#191970" d="M906.5369,-1435.2982C941.6522,-1421.6973 1004.7286,-1391.8863 1036,-1344 1077.309,-1280.743 1099.6601,-1040.7875 1105.4615,-969.8595"/>
<polygon fill="#191970" stroke="#191970" points="1108.97,-969.8918 1106.277,-959.6449 1101.9922,-969.3347 1108.97,-969.8918"/>
</g>
<!-- Node1544&#45;&gt;Node1529 -->
<g id="edge37" class="edge">
<title>Node1544&#45;&gt;Node1529</title>
<path fill="none" stroke="#191970" d="M884.8297,-1453.8209C892.815,-1477.7962 913.1227,-1541.3553 923,-1596 938.6386,-1682.5183 903.064,-1922.1683 959,-1990 973.5328,-2007.6235 1034.516,-2020.8666 1073.5235,-2027.7329"/>
<polygon fill="#191970" stroke="#191970" points="1072.9593,-2031.1871 1083.4056,-2029.4194 1074.137,-2024.2869 1072.9593,-2031.1871"/>
</g>
<!-- Node1544&#45;&gt;Node1530 -->
<g id="edge38" class="edge">
<title>Node1544&#45;&gt;Node1530</title>
<path fill="none" stroke="#191970" d="M906.7835,-1451.972C948.1808,-1465.2224 1026.771,-1491.2825 1036,-1501 1065.268,-1531.8171 1093.1966,-1659.5186 1103.1577,-1709.1487"/>
<polygon fill="#191970" stroke="#191970" points="1099.7799,-1710.11 1105.1506,-1719.2427 1106.6473,-1708.7541 1099.7799,-1710.11"/>
</g>
<!-- Node1544&#45;&gt;Node1531 -->
<g id="edge40" class="edge">
<title>Node1544&#45;&gt;Node1531</title>
<path fill="none" stroke="#191970" d="M906.6234,-1442.4723C938.821,-1441.6705 995.3294,-1444.2529 1036,-1468 1064.9319,-1484.893 1086.5148,-1518.4858 1097.9035,-1539.5109"/>
<polygon fill="#191970" stroke="#191970" points="1094.8234,-1541.1743 1102.536,-1548.4383 1101.0367,-1537.9501 1094.8234,-1541.1743"/>
</g>
<!-- Node1544&#45;&gt;Node1532 -->
<g id="edge41" class="edge">
<title>Node1544&#45;&gt;Node1532</title>
<path fill="none" stroke="#191970" d="M884.7008,-1453.8454C892.3999,-1477.8751 912.1203,-1541.546 923,-1596 935.2912,-1657.5185 918.205,-1828.3411 959,-1876 973.8542,-1893.3535 1034.73,-1906.6868 1073.6305,-1913.643"/>
<polygon fill="#191970" stroke="#191970" points="1073.0328,-1917.0915 1083.4841,-1915.3534 1074.2301,-1910.1947 1073.0328,-1917.0915"/>
</g>
<!-- Node1544&#45;&gt;Node1540 -->
<g id="edge33" class="edge">
<title>Node1544&#45;&gt;Node1540</title>
<path fill="none" stroke="#191970" d="M883.8171,-1434.1322C898.0129,-1373.6779 973.2655,-1053.2054 992.8421,-969.8364"/>
<polygon fill="#191970" stroke="#191970" points="996.2986,-970.4267 995.1773,-959.8913 989.4839,-968.8264 996.2986,-970.4267"/>
</g>
<!-- Node1544&#45;&gt;Node1542 -->
<g id="edge35" class="edge">
<title>Node1544&#45;&gt;Node1542</title>
<path fill="none" stroke="#191970" d="M904.8733,-1434.4241C911.5006,-1430.7516 918.2081,-1425.9723 923,-1420 956.2515,-1378.5578 923.3346,-1345.3839 959,-1306 983.9924,-1278.4019 1014.6937,-1303.5338 1036,-1273 1079.551,-1210.5876 1060.2544,-664.1934 1072,-589 1078.4487,-547.7169 1092.4363,-500.7246 1100.6423,-475.1202"/>
<polygon fill="#191970" stroke="#191970" points="1103.995,-476.1278 1103.7663,-465.5354 1097.3396,-473.9585 1103.995,-476.1278"/>
</g>
<!-- Node1545 -->
<g id="node28" class="node">
<title>Node1545</title>
<g id="a_node28"><a xlink:href="../../da/dce/tile_8h.html#ac129d7f1975b2dc92b7e1200ca0df246" target="_top" xlink:title=" ">
<polygon fill="#ffffff" stroke="#000000" points="983,-902.5 983,-921.5 1012,-921.5 1012,-902.5 983,-902.5"/>
<text text-anchor="middle" x="997.5" y="-909.5" font-family="Helvetica,sans-Serif" font-size="10.00" fill="#000000">LB</text>
</a>
</g>
</g>
<!-- Node1544&#45;&gt;Node1545 -->
<g id="edge34" class="edge">
<title>Node1544&#45;&gt;Node1545</title>
<path fill="none" stroke="#191970" d="M882.9002,-1434.318C893.053,-1364.1641 955.0968,-936.3404 959,-931 962.6629,-925.9884 968.0171,-922.2267 973.5745,-919.4321"/>
<polygon fill="#191970" stroke="#191970" points="974.954,-922.6491 982.8564,-915.592 972.2779,-916.1808 974.954,-922.6491"/>
</g>
<!-- Node1546 -->
<g id="node29" class="node">
<title>Node1546</title>
<g id="a_node29"><a xlink:href="../../d7/d2f/tile_8cpp.html#aed7c2f3d30d00b11cdc9564904fcbc4a" target="_top" xlink:title=" ">
<polygon fill="#ffffff" stroke="#000000" points="974,-1510.5 974,-1529.5 1021,-1529.5 1021,-1510.5 974,-1510.5"/>
<text text-anchor="middle" x="997.5" y="-1517.5" font-family="Helvetica,sans-Serif" font-size="10.00" fill="#000000">TiFree</text>
</a>
</g>
</g>
<!-- Node1544&#45;&gt;Node1546 -->
<g id="edge42" class="edge">
<title>Node1544&#45;&gt;Node1546</title>
<path fill="none" stroke="#191970" d="M895.4071,-1453.5359C910.8463,-1464.0743 936.5528,-1481.4786 959,-1496 963.5135,-1498.9199 968.3569,-1501.9887 973.0333,-1504.9195"/>
<polygon fill="#191970" stroke="#191970" points="971.3512,-1507.9951 981.6901,-1510.31 975.0514,-1502.0529 971.3512,-1507.9951"/>
</g>
<!-- Node1547&#45;&gt;Node1524 -->
<g id="edge54" class="edge">
<title>Node1547&#45;&gt;Node1524</title>
<path fill="none" stroke="#191970" d="M906.5141,-1611.5898C945.9601,-1605.6575 1019.8079,-1592.1168 1036,-1572 1080.7284,-1516.4304 1066.1557,-1002.0946 1072,-931 1081.4533,-816.0035 1098.1474,-678.5439 1104.474,-627.9503"/>
<polygon fill="#191970" stroke="#191970" points="1107.9803,-628.1188 1105.7554,-617.7602 1101.035,-627.2454 1107.9803,-628.1188"/>
</g>
<!-- Node1547&#45;&gt;Node1526 -->
<g id="edge47" class="edge">
<title>Node1547&#45;&gt;Node1526</title>
<path fill="none" stroke="#191970" d="M906.6104,-1623.0958C940.6512,-1632.3309 1001.1788,-1642.3089 1036,-1610 1084.2462,-1565.2347 1102.9233,-1074.8332 1106.3859,-969.7492"/>
<polygon fill="#191970" stroke="#191970" points="1109.889,-969.7068 1106.7119,-959.5995 1102.8926,-969.482 1109.889,-969.7068"/>
</g>
<!-- Node1547&#45;&gt;Node1527 -->
<g id="edge52" class="edge">
<title>Node1547&#45;&gt;Node1527</title>
<path fill="none" stroke="#191970" d="M882.0841,-1624.5045C885.8055,-1682.585 907.7023,-1989.6783 959,-2066 961.1474,-2069.195 963.8782,-2072.0448 966.8913,-2074.5648"/>
<polygon fill="#191970" stroke="#191970" points="965.1228,-2077.5994 975.3198,-2080.4755 969.142,-2071.8682 965.1228,-2077.5994"/>
</g>
<!-- Node1547&#45;&gt;Node1529 -->
<g id="edge48" class="edge">
<title>Node1547&#45;&gt;Node1529</title>
<path fill="none" stroke="#191970" d="M881.755,-1624.8466C883.4629,-1682.2672 895.2129,-1973.2246 959,-2028 990.1517,-2054.7507 1040.0398,-2050.0688 1073.1602,-2042.7627"/>
<polygon fill="#191970" stroke="#191970" points="1074.3719,-2046.0714 1083.2794,-2040.3349 1072.7388,-2039.2646 1074.3719,-2046.0714"/>
</g>
<!-- Node1547&#45;&gt;Node1530 -->
<g id="edge49" class="edge">
<title>Node1547&#45;&gt;Node1530</title>
<path fill="none" stroke="#191970" d="M894.4928,-1624.597C909.5373,-1635.458 935.295,-1653.288 959,-1666 997.0304,-1686.3942 1043.0757,-1705.1228 1073.6022,-1716.7655"/>
<polygon fill="#191970" stroke="#191970" points="1072.7339,-1720.1787 1083.3257,-1720.4344 1075.2052,-1713.6294 1072.7339,-1720.1787"/>
</g>
<!-- Node1547&#45;&gt;Node1531 -->
<g id="edge50" class="edge">
<title>Node1547&#45;&gt;Node1531</title>
<path fill="none" stroke="#191970" d="M897.2061,-1624.7222C926.0587,-1641.2361 988.8607,-1670.8543 1036,-1648 1066.301,-1633.3093 1087.5638,-1598.7213 1098.4989,-1576.956"/>
<polygon fill="#191970" stroke="#191970" points="1101.7632,-1578.2421 1102.912,-1567.7098 1095.4459,-1575.2269 1101.7632,-1578.2421"/>
</g>
<!-- Node1547&#45;&gt;Node1532 -->
<g id="edge51" class="edge">
<title>Node1547&#45;&gt;Node1532</title>
<path fill="none" stroke="#191970" d="M882.4952,-1624.7951C887.5162,-1672.0917 911.71,-1876.111 959,-1914 990.9541,-1939.6018 1040.431,-1935.2838 1073.2606,-1928.3648"/>
<polygon fill="#191970" stroke="#191970" points="1074.3282,-1931.7108 1083.2912,-1926.0616 1072.7616,-1924.8884 1074.3282,-1931.7108"/>
</g>
<!-- Node1547&#45;&gt;Node1540 -->
<g id="edge45" class="edge">
<title>Node1547&#45;&gt;Node1540</title>
<path fill="none" stroke="#191970" d="M884.5326,-1605.4955C892.0239,-1581.7153 911.6198,-1517.631 923,-1463 933.2858,-1413.6226 982.6851,-1057.3473 994.8089,-969.5254"/>
<polygon fill="#191970" stroke="#191970" points="998.2824,-969.9573 996.1818,-959.5728 991.348,-969.0006 998.2824,-969.9573"/>
</g>
<!-- Node1547&#45;&gt;Node1545 -->
<g id="edge46" class="edge">
<title>Node1547&#45;&gt;Node1545</title>
<path fill="none" stroke="#191970" d="M884.9125,-1605.1936C893.0817,-1581.2504 913.7669,-1517.7572 923,-1463 942.7021,-1346.1568 893.0791,-1029.4628 959,-931 962.4534,-925.8418 967.7344,-922.0289 973.2885,-919.2319"/>
<polygon fill="#191970" stroke="#191970" points="974.6816,-922.4437 982.6188,-915.4257 972.0375,-915.9622 974.6816,-922.4437"/>
</g>
<!-- Node1547&#45;&gt;Node1546 -->
<g id="edge53" class="edge">
<title>Node1547&#45;&gt;Node1546</title>
<path fill="none" stroke="#191970" d="M891.0198,-1605.1953C905.1545,-1590.8966 932.8431,-1563.8658 959,-1544 963.0222,-1540.9452 967.445,-1537.9149 971.8154,-1535.0886"/>
<polygon fill="#191970" stroke="#191970" points="973.9341,-1537.8922 980.5674,-1529.6309 970.2301,-1531.9524 973.9341,-1537.8922"/>
</g>
<!-- Node1547&#45;&gt;Node1548 -->
<g id="edge55" class="edge">
<title>Node1547&#45;&gt;Node1548</title>
<path fill="none" stroke="#191970" d="M897.574,-1605.4518C913.0735,-1596.3962 937.3077,-1582.6321 959,-1572 992.4328,-1555.6135 1014.999,-1569.7446 1036,-1539 1105.1014,-1437.8386 1048.5234,-557.2393 1072,-437 1077.3429,-409.6355 1089.5025,-379.7084 1097.9797,-360.9007"/>
<polygon fill="#191970" stroke="#191970" points="1101.2219,-362.2283 1102.2438,-351.6829 1094.8687,-359.2894 1101.2219,-362.2283"/>
</g>
<!-- Node1549&#45;&gt;Node1522 -->
<g id="edge68" class="edge">
<title>Node1549&#45;&gt;Node1522</title>
<path fill="none" stroke="#191970" d="M888.1686,-1149.5028C900.6748,-1166.8849 929.0985,-1204.3684 959,-1230 962.5955,-1233.0821 966.6258,-1236.0402 970.6883,-1238.7627"/>
<polygon fill="#191970" stroke="#191970" points="969.151,-1241.931 979.4769,-1244.3028 972.8838,-1236.0093 969.151,-1241.931"/>
</g>
<!-- Node1549&#45;&gt;Node1524 -->
<g id="edge73" class="edge">
<title>Node1549&#45;&gt;Node1524</title>
<path fill="none" stroke="#191970" d="M891.9786,-1130.389C906.3772,-1117.4782 933.4129,-1094.2777 959,-1078 991.1993,-1057.5158 1013.2821,-1070.6642 1036,-1040 1061.0124,-1006.2387 1095.7878,-708.4871 1104.7986,-627.988"/>
<polygon fill="#191970" stroke="#191970" points="1108.3109,-628.0702 1105.9369,-617.7447 1101.3538,-627.297 1108.3109,-628.0702"/>
</g>
<!-- Node1549&#45;&gt;Node1526 -->
<g id="edge65" class="edge">
<title>Node1549&#45;&gt;Node1526</title>
<path fill="none" stroke="#191970" d="M908.1568,-1135.0428C941.4632,-1127.6692 998.6164,-1110.9863 1036,-1078 1070.148,-1047.8687 1091.2801,-997.1961 1100.8852,-969.508"/>
<polygon fill="#191970" stroke="#191970" points="1104.2794,-970.3919 1104.1043,-959.7985 1097.635,-968.189 1104.2794,-970.3919"/>
</g>
<!-- Node1549&#45;&gt;Node1527 -->
<g id="edge71" class="edge">
<title>Node1549&#45;&gt;Node1527</title>
<path fill="none" stroke="#191970" d="M883.2229,-1149.8084C889.5429,-1186.145 911.6718,-1316.5881 923,-1425 949.15,-1675.2578 905.1774,-1744.2035 959,-1990 965.4384,-2019.403 979.1172,-2051.5843 988.3124,-2071.287"/>
<polygon fill="#191970" stroke="#191970" points="985.1829,-2072.8559 992.6501,-2080.372 991.4999,-2069.8398 985.1829,-2072.8559"/>
</g>
<!-- Node1549&#45;&gt;Node1528 -->
<g id="edge72" class="edge">
<title>Node1549&#45;&gt;Node1528</title>
<path fill="none" stroke="#191970" d="M883.2625,-1149.8044C889.7207,-1186.1269 912.2708,-1316.5272 923,-1425 952.9644,-1727.9425 892.9202,-1811.8377 959,-2109 965.1559,-2136.6834 978.5666,-2166.7139 987.8145,-2185.442"/>
<polygon fill="#191970" stroke="#191970" points="984.6922,-2187.0236 992.331,-2194.3651 990.9377,-2183.8623 984.6922,-2187.0236"/>
</g>
<!-- Node1549&#45;&gt;Node1529 -->
<g id="edge66" class="edge">
<title>Node1549&#45;&gt;Node1529</title>
<path fill="none" stroke="#191970" d="M883.1636,-1149.8149C889.2766,-1186.1739 910.7749,-1316.6856 923,-1425 934.2016,-1524.2463 918.8843,-1781.5339 959,-1873 986.903,-1936.6205 1050.9038,-1991.2801 1084.8752,-2017.1102"/>
<polygon fill="#191970" stroke="#191970" points="1083.1071,-2020.1577 1093.2159,-2023.33 1087.2917,-2014.5462 1083.1071,-2020.1577"/>
</g>
<!-- Node1549&#45;&gt;Node1530 -->
<g id="edge67" class="edge">
<title>Node1549&#45;&gt;Node1530</title>
<path fill="none" stroke="#191970" d="M894.6712,-1149.6079C909.8795,-1160.5593 935.7871,-1178.7814 959,-1193 992.2417,-1213.3616 1014.3714,-1202.5684 1036,-1235 1078.4003,-1298.5784 1059.4028,-1501.6255 1072,-1577 1080.0391,-1625.1012 1094.0888,-1680.7497 1101.7138,-1709.5212"/>
<polygon fill="#191970" stroke="#191970" points="1098.4126,-1710.7242 1104.3815,-1719.4776 1105.1741,-1708.9125 1098.4126,-1710.7242"/>
</g>
<!-- Node1549&#45;&gt;Node1531 -->
<g id="edge69" class="edge">
<title>Node1549&#45;&gt;Node1531</title>
<path fill="none" stroke="#191970" d="M908.1107,-1142.9605C943.0093,-1148.3201 1003.595,-1162.9775 1036,-1202 1079.4845,-1254.3646 1100.1353,-1471.8129 1105.5266,-1538.4807"/>
<polygon fill="#191970" stroke="#191970" points="1102.0393,-1538.7804 1106.3106,-1548.4761 1109.0179,-1538.233 1102.0393,-1538.7804"/>
</g>
<!-- Node1549&#45;&gt;Node1532 -->
<g id="edge70" class="edge">
<title>Node1549&#45;&gt;Node1532</title>
<path fill="none" stroke="#191970" d="M883.1431,-1149.8172C889.1845,-1186.1845 910.4647,-1316.721 923,-1425 933.7218,-1517.6142 904.3811,-1767.4413 959,-1843 980.8122,-1873.1745 1002.8845,-1858.9813 1036,-1876 1052.4541,-1884.4561 1070.2601,-1895.2444 1083.9244,-1903.8995"/>
<polygon fill="#191970" stroke="#191970" points="1082.3474,-1907.0459 1092.6551,-1909.4957 1086.1249,-1901.1526 1082.3474,-1907.0459"/>
</g>
<!-- Node1549&#45;&gt;Node1540 -->
<g id="edge57" class="edge">
<title>Node1549&#45;&gt;Node1540</title>
<path fill="none" stroke="#191970" d="M883.9197,-1130.2995C891.1573,-1102.9105 914.9151,-1023.752 959,-974 963.2164,-969.2416 968.6015,-965.0978 973.9991,-961.6542"/>
<polygon fill="#191970" stroke="#191970" points="975.9707,-964.5578 982.8906,-956.535 972.478,-958.4914 975.9707,-964.5578"/>
</g>
<!-- Node1549&#45;&gt;Node1542 -->
<g id="edge64" class="edge">
<title>Node1549&#45;&gt;Node1542</title>
<path fill="none" stroke="#191970" d="M886.9539,-1130.2879C898.2257,-1110.9348 925.8299,-1067.0967 959,-1040 988.5549,-1015.8566 1014.4627,-1033.5046 1036,-1002 1087.9917,-925.9472 1056.2201,-679.7643 1072,-589 1079.157,-547.8338 1092.8846,-500.7985 1100.855,-475.1553"/>
<polygon fill="#191970" stroke="#191970" points="1104.213,-476.1443 1103.8825,-465.5546 1097.5371,-474.039 1104.213,-476.1443"/>
</g>
<!-- Node1549&#45;&gt;Node1545 -->
<g id="edge63" class="edge">
<title>Node1549&#45;&gt;Node1545</title>
<path fill="none" stroke="#191970" d="M882.5395,-1130.3896C886.4898,-1098.2088 903.2839,-992.7935 959,-931 962.9306,-926.6406 968.0862,-923.1653 973.3411,-920.4428"/>
<polygon fill="#191970" stroke="#191970" points="974.9297,-923.5674 982.6642,-916.3266 972.1025,-917.1637 974.9297,-923.5674"/>
</g>
<!-- Node1549&#45;&gt;Node1548 -->
<g id="edge77" class="edge">
<title>Node1549&#45;&gt;Node1548</title>
<path fill="none" stroke="#191970" d="M884.5131,-1130.2339C892.6084,-1105.493 917.0995,-1039.6482 959,-1002 986.6953,-977.1154 1014.4656,-999.3733 1036,-969 1104.5332,-872.3372 1047.2668,-552.8825 1072,-437 1077.8197,-409.733 1089.8652,-379.7825 1098.1867,-360.943"/>
<polygon fill="#191970" stroke="#191970" points="1101.4318,-362.2611 1102.3634,-351.7073 1095.0537,-359.3766 1101.4318,-362.2611"/>
</g>
<!-- Node1550 -->
<g id="node33" class="node">
<title>Node1550</title>
<g id="a_node33"><a xlink:href="../../d7/d2f/tile_8cpp.html#aad8b1e502af75d671817fde3823553e2" target="_top" xlink:title=" ">
<polygon fill="#ffffff" stroke="#000000" points="959,-1814.5 959,-1833.5 1036,-1833.5 1036,-1814.5 959,-1814.5"/>
<text text-anchor="middle" x="997.5" y="-1821.5" font-family="Helvetica,sans-Serif" font-size="10.00" fill="#000000">dupTileBody</text>
</a>
</g>
</g>
<!-- Node1549&#45;&gt;Node1550 -->
<g id="edge58" class="edge">
<title>Node1549&#45;&gt;Node1550</title>
<path fill="none" stroke="#191970" d="M883.1398,-1149.6692C895.6944,-1223.6981 976.5664,-1700.5641 994.1352,-1804.1593"/>
<polygon fill="#191970" stroke="#191970" points="990.7144,-1804.9212 995.8372,-1814.1952 997.6158,-1803.7508 990.7144,-1804.9212"/>
</g>
<!-- Node1549&#45;&gt;Node1553 -->
<g id="edge74" class="edge">
<title>Node1549&#45;&gt;Node1553</title>
<path fill="none" stroke="#191970" d="M884.0212,-1130.3995C890.7882,-1104.4732 909.7348,-1030.83 923,-969 954.1115,-823.9867 984.4228,-647.7248 994.2208,-589.6134"/>
<polygon fill="#191970" stroke="#191970" points="997.696,-590.0524 995.901,-579.6107 990.7927,-588.8927 997.696,-590.0524"/>
</g>
<!-- Node1550&#45;&gt;Node1533 -->
<g id="edge61" class="edge">
<title>Node1550&#45;&gt;Node1533</title>
<path fill="none" stroke="#191970" d="M999.0443,-1833.8893C1009.6638,-1901.8865 1071.4723,-2297.5682 1072,-2299 1077.1455,-2312.9605 1085.9075,-2327.2247 1093.3772,-2337.9916"/>
<polygon fill="#191970" stroke="#191970" points="1090.5549,-2340.0619 1099.24,-2346.1299 1096.2346,-2335.9703 1090.5549,-2340.0619"/>
</g>
<!-- Node1550&#45;&gt;Node1535 -->
<g id="edge62" class="edge">
<title>Node1550&#45;&gt;Node1535</title>
<path fill="none" stroke="#191970" d="M998.7954,-1833.5155C1006.1087,-1886.7076 1042.9375,-2147.5411 1072,-2223 1077.4127,-2237.0537 1086.3235,-2251.4966 1093.7992,-2262.3277"/>
<polygon fill="#191970" stroke="#191970" points="1090.9702,-2264.3887 1099.6329,-2270.4886 1096.6648,-2260.3179 1090.9702,-2264.3887"/>
</g>
<!-- Node1551 -->
<g id="node34" class="node">
<title>Node1551</title>
<g id="a_node34"><a xlink:href="../../da/dce/tile_8h.html#a223732fbc999c2302a4afb27a7490285" target="_top" xlink:title=" ">
<polygon fill="#ffffff" stroke="#000000" points="1073,-1833.5 1073,-1852.5 1141,-1852.5 1141,-1833.5 1073,-1833.5"/>
<text text-anchor="middle" x="1107" y="-1840.5" font-family="Helvetica,sans-Serif" font-size="10.00" fill="#000000">TiGetBody</text>
</a>
</g>
</g>
<!-- Node1550&#45;&gt;Node1551 -->
<g id="edge59" class="edge">
<title>Node1550&#45;&gt;Node1551</title>
<path fill="none" stroke="#191970" d="M1036.1056,-1830.6987C1044.6913,-1832.1884 1053.8587,-1833.7791 1062.6541,-1835.3053"/>
<polygon fill="#191970" stroke="#191970" points="1062.3001,-1838.7961 1072.7512,-1837.0573 1063.4968,-1831.8991 1062.3001,-1838.7961"/>
</g>
<!-- Node1552 -->
<g id="node35" class="node">
<title>Node1552</title>
<g id="a_node35"><a xlink:href="../../da/dce/tile_8h.html#a89d98699304ed2074013f1d71d48075a" target="_top" xlink:title=" ">
<polygon fill="#ffffff" stroke="#000000" points="1074.5,-1795.5 1074.5,-1814.5 1139.5,-1814.5 1139.5,-1795.5 1074.5,-1795.5"/>
<text text-anchor="middle" x="1107" y="-1802.5" font-family="Helvetica,sans-Serif" font-size="10.00" fill="#000000">TiGetType</text>
</a>
</g>
</g>
<!-- Node1550&#45;&gt;Node1552 -->
<g id="edge60" class="edge">
<title>Node1550&#45;&gt;Node1552</title>
<path fill="none" stroke="#191970" d="M1036.1056,-1817.3013C1045.1425,-1815.7333 1054.8238,-1814.0534 1064.0376,-1812.4547"/>
<polygon fill="#191970" stroke="#191970" points="1064.9279,-1815.8526 1074.1823,-1810.6944 1063.7312,-1808.9556 1064.9279,-1815.8526"/>
</g>
<!-- Node1553&#45;&gt;Node1526 -->
<g id="edge75" class="edge">
<title>Node1553&#45;&gt;Node1526</title>
<path fill="none" stroke="#191970" d="M1000.3168,-579.7752C1014.8399,-630.175 1081.3508,-860.989 1101.317,-930.2782"/>
<polygon fill="#191970" stroke="#191970" points="1098.0697,-931.6496 1104.2018,-940.2895 1104.796,-929.7113 1098.0697,-931.6496"/>
</g>
<!-- Node1553&#45;&gt;Node1548 -->
<g id="edge76" class="edge">
<title>Node1553&#45;&gt;Node1548</title>
<path fill="none" stroke="#191970" d="M1002.0657,-560.4934C1018.6229,-526.0181 1075.7051,-407.1619 1097.9886,-360.7634"/>
<polygon fill="#191970" stroke="#191970" points="1101.2406,-362.0767 1102.4148,-351.5472 1094.9305,-359.0462 1101.2406,-362.0767"/>
</g>
<!-- Node1555 -->
<g id="node38" class="node">
<title>Node1555</title>
<g id="a_node38"><a xlink:href="../../d7/d2f/tile_8cpp.html#a3b13b17e13c8aece74e59b3778750a7b" target="_top" xlink:title=" ">
<polygon fill="#ffffff" stroke="#000000" points="850,-484.5 850,-503.5 913,-503.5 913,-484.5 850,-484.5"/>
<text text-anchor="middle" x="881.5" y="-491.5" font-family="Helvetica,sans-Serif" font-size="10.00" fill="#000000">gotoPoint</text>
</a>
</g>
</g>
<!-- Node1554&#45;&gt;Node1555 -->
<g id="edge79" class="edge">
<title>Node1554&#45;&gt;Node1555</title>
<path fill="none" stroke="#191970" d="M794.6304,-494C808.3835,-494 824.8968,-494 839.8156,-494"/>
<polygon fill="#191970" stroke="#191970" points="839.8357,-497.5001 849.8357,-494 839.8357,-490.5001 839.8357,-497.5001"/>
</g>
<!-- Node1555&#45;&gt;Node1524 -->
<g id="edge85" class="edge">
<title>Node1555&#45;&gt;Node1524</title>
<path fill="none" stroke="#191970" d="M913.0304,-492.3651C945.9226,-492.083 997.9079,-495.7585 1036,-518 1064.9319,-534.893 1086.5148,-568.4858 1097.9035,-589.5109"/>
<polygon fill="#191970" stroke="#191970" points="1094.8234,-591.1743 1102.536,-598.4383 1101.0367,-587.9501 1094.8234,-591.1743"/>
</g>
<!-- Node1555&#45;&gt;Node1526 -->
<g id="edge84" class="edge">
<title>Node1555&#45;&gt;Node1526</title>
<path fill="none" stroke="#191970" d="M912.4385,-503.5919C955.1208,-517.0956 1027.7669,-541.1602 1036,-551 1085.1847,-609.7833 1102.0766,-857.5067 1106.0174,-929.9951"/>
<polygon fill="#191970" stroke="#191970" points="1102.5442,-930.6044 1106.5584,-940.4093 1109.5348,-930.2412 1102.5442,-930.6044"/>
</g>
<!-- Node1555&#45;&gt;Node1540 -->
<g id="edge80" class="edge">
<title>Node1555&#45;&gt;Node1540</title>
<path fill="none" stroke="#191970" d="M884.9994,-503.5562C892.9973,-525.7763 912.7154,-582.7763 923,-632 936.6873,-697.5097 920.3278,-876.3801 959,-931 962.587,-936.0662 967.9147,-939.847 973.4709,-942.6425"/>
<polygon fill="#191970" stroke="#191970" points="972.1908,-945.9004 982.7703,-946.4699 974.8551,-939.4272 972.1908,-945.9004"/>
</g>
<!-- Node1555&#45;&gt;Node1542 -->
<g id="edge82" class="edge">
<title>Node1555&#45;&gt;Node1542</title>
<path fill="none" stroke="#191970" d="M913.151,-488.1498C927.1861,-485.5899 943.9067,-482.5868 959,-480 999.9013,-472.99 1047.2562,-465.4034 1077.165,-460.677"/>
<polygon fill="#191970" stroke="#191970" points="1078.0174,-464.0859 1087.3504,-459.0714 1076.9274,-457.1713 1078.0174,-464.0859"/>
</g>
<!-- Node1555&#45;&gt;Node1543 -->
<g id="edge83" class="edge">
<title>Node1555&#45;&gt;Node1543</title>
<path fill="none" stroke="#191970" d="M910.8071,-484.3447C915.332,-481.855 919.6172,-478.7783 923,-475 957.031,-436.9901 941.8297,-414.0421 959,-366 969.1367,-337.6378 981.8507,-305.1529 989.8277,-285.1041"/>
<polygon fill="#191970" stroke="#191970" points="993.1666,-286.1803 993.6271,-275.5955 986.6664,-283.5828 993.1666,-286.1803"/>
</g>
<!-- Node1555&#45;&gt;Node1545 -->
<g id="edge81" class="edge">
<title>Node1555&#45;&gt;Node1545</title>
<path fill="none" stroke="#191970" d="M884.5254,-503.6727C891.5265,-526.1378 909.2924,-583.6177 923,-632 950.6151,-729.4698 980.8882,-846.8711 992.5465,-892.5204"/>
<polygon fill="#191970" stroke="#191970" points="989.177,-893.4717 995.0387,-902.2973 995.9601,-891.7426 989.177,-893.4717"/>
</g>
<!-- Node1555&#45;&gt;Node1548 -->
<g id="edge87" class="edge">
<title>Node1555&#45;&gt;Node1548</title>
<path fill="none" stroke="#191970" d="M904.7395,-484.3329C910.8039,-481.5489 917.249,-478.3512 923,-475 986.462,-438.0196 1055.0292,-384.4043 1087.6427,-357.9666"/>
<polygon fill="#191970" stroke="#191970" points="1089.9585,-360.5944 1095.4953,-351.5614 1085.5339,-355.17 1089.9585,-360.5944"/>
</g>
<!-- Node1555&#45;&gt;Node1553 -->
<g id="edge86" class="edge">
<title>Node1555&#45;&gt;Node1553</title>
<path fill="none" stroke="#191970" d="M899.1883,-503.5245C906.6762,-507.7357 915.4062,-512.886 923,-518 939.8127,-529.3224 942.3771,-534.4008 959,-546 963.3297,-549.0212 968.0317,-552.1058 972.614,-555.0133"/>
<polygon fill="#191970" stroke="#191970" points="970.8095,-558.0126 981.1493,-560.3232 974.5071,-552.0689 970.8095,-558.0126"/>
</g>
<!-- Node1556&#45;&gt;Node1539 -->
<g id="edge91" class="edge">
<title>Node1556&#45;&gt;Node1539</title>
<path fill="none" stroke="#191970" d="M563.0147,-541.589C577.0666,-546.3144 594.2082,-552.0789 609.3696,-557.1774"/>
<polygon fill="#191970" stroke="#191970" points="608.4004,-560.544 618.9945,-560.4141 610.6317,-553.9091 608.4004,-560.544"/>
</g>
<!-- Node1556&#45;&gt;Node1542 -->
<g id="edge92" class="edge">
<title>Node1556&#45;&gt;Node1542</title>
<path fill="none" stroke="#191970" d="M536.3902,-522.195C545.978,-475.6301 594.0179,-276.4879 725,-214 790.577,-182.7151 958.3453,-169.0169 1036,-233 1081.6088,-270.5791 1053.7709,-304.7857 1072,-361 1080.6461,-387.6626 1092.1017,-417.971 1099.5116,-437.037"/>
<polygon fill="#191970" stroke="#191970" points="1096.2638,-438.3421 1103.1684,-446.3781 1102.7821,-435.7903 1096.2638,-438.3421"/>
</g>
<!-- Node1556&#45;&gt;Node1543 -->
<g id="edge93" class="edge">
<title>Node1556&#45;&gt;Node1543</title>
<path fill="none" stroke="#191970" d="M541.1678,-522.2105C563.3038,-490.4887 637.91,-389.6574 725,-339 802.9911,-293.6351 909.8455,-275.7582 963.6368,-269.2996"/>
<polygon fill="#191970" stroke="#191970" points="964.1246,-272.7667 973.6632,-268.1553 963.3308,-265.8118 964.1246,-272.7667"/>
</g>
<!-- Node1556&#45;&gt;Node1548 -->
<g id="edge112" class="edge">
<title>Node1556&#45;&gt;Node1548</title>
<path fill="none" stroke="#191970" d="M534.707,-522.4758C536.6719,-456.9927 557.0196,-76 764.5,-76 764.5,-76 764.5,-76 881.5,-76 1010.8602,-76 1081.3721,-261.3073 1101.1534,-322.5877"/>
<polygon fill="#191970" stroke="#191970" points="1097.8406,-323.7208 1104.1696,-332.2175 1104.5206,-321.6284 1097.8406,-323.7208"/>
</g>
<!-- Node1556&#45;&gt;Node1549 -->
<g id="edge110" class="edge">
<title>Node1556&#45;&gt;Node1549</title>
<path fill="none" stroke="#191970" d="M537.1452,-541.7219C545.2686,-570.8898 571.4147,-659.8464 606,-728 688.6221,-890.8148 823.5501,-1066.775 867.314,-1122.2347"/>
<polygon fill="#191970" stroke="#191970" points="864.7955,-1124.6919 873.7506,-1130.3537 870.2808,-1120.3431 864.7955,-1124.6919"/>
</g>
<!-- Node1556&#45;&gt;Node1553 -->
<g id="edge111" class="edge">
<title>Node1556&#45;&gt;Node1553</title>
<path fill="none" stroke="#191970" d="M570.062,-534.9187C657.2794,-542.0769 880.7903,-560.4212 964.8658,-567.3216"/>
<polygon fill="#191970" stroke="#191970" points="964.614,-570.8126 974.8668,-568.1424 965.1866,-563.8361 964.614,-570.8126"/>
</g>
<!-- Node1557 -->
<g id="node40" class="node">
<title>Node1557</title>
<g id="a_node40"><a xlink:href="../../d7/d2f/tile_8cpp.html#a79da0e7fc81c38c3cbdc78f756e78564" target="_top" xlink:title=" ">
<polygon fill="#ffffff" stroke="#000000" points="854.5,-940.5 854.5,-959.5 908.5,-959.5 908.5,-940.5 854.5,-940.5"/>
<text text-anchor="middle" x="881.5" y="-947.5" font-family="Helvetica,sans-Serif" font-size="10.00" fill="#000000">TiSplitX</text>
</a>
</g>
</g>
<!-- Node1556&#45;&gt;Node1557 -->
<g id="edge94" class="edge">
<title>Node1556&#45;&gt;Node1557</title>
<path fill="none" stroke="#191970" d="M539.5813,-541.7648C565.2492,-590.2583 685.5225,-807.7709 840,-931 842.0055,-932.5998 844.1675,-934.0989 846.4142,-935.497"/>
<polygon fill="#191970" stroke="#191970" points="844.8967,-938.6564 855.3488,-940.3896 848.2588,-932.5167 844.8967,-938.6564"/>
</g>
<!-- Node1557&#45;&gt;Node1522 -->
<g id="edge103" class="edge">
<title>Node1557&#45;&gt;Node1522</title>
<path fill="none" stroke="#191970" d="M885.1951,-959.7729C896.3122,-989.1656 930.4441,-1079.3341 959,-1154 969.7591,-1182.132 982.3082,-1214.6778 990.0799,-1234.8026"/>
<polygon fill="#191970" stroke="#191970" points="986.9005,-1236.2852 993.7691,-1244.352 993.4302,-1233.7626 986.9005,-1236.2852"/>
</g>
<!-- Node1557&#45;&gt;Node1524 -->
<g id="edge108" class="edge">
<title>Node1557&#45;&gt;Node1524</title>
<path fill="none" stroke="#191970" d="M908.8141,-941.5945C914.105,-938.9168 919.183,-935.4513 923,-931 961.1901,-886.4636 932.8761,-856.5311 959,-804 968.7676,-784.3589 1058.462,-669.6492 1093.2763,-625.4005"/>
<polygon fill="#191970" stroke="#191970" points="1096.0299,-627.561 1099.4675,-617.5393 1090.5306,-623.2299 1096.0299,-627.561"/>
</g>
<!-- Node1557&#45;&gt;Node1526 -->
<g id="edge100" class="edge">
<title>Node1557&#45;&gt;Node1526</title>
<path fill="none" stroke="#191970" d="M908.6711,-941.4692C913.9709,-938.7993 919.0886,-935.3687 923,-931 957.031,-892.9901 917.653,-851.8879 959,-822 986.7349,-801.9517 1006.5106,-804.6352 1036,-822 1075.9989,-845.5534 1095.0649,-900.6629 1102.706,-930.3043"/>
<polygon fill="#191970" stroke="#191970" points="1099.366,-931.3864 1105.095,-940.2987 1106.1742,-929.759 1099.366,-931.3864"/>
</g>
<!-- Node1557&#45;&gt;Node1527 -->
<g id="edge106" class="edge">
<title>Node1557&#45;&gt;Node1527</title>
<path fill="none" stroke="#191970" d="M884.4821,-959.5178C892.3935,-985.2386 913.9282,-1058.4171 923,-1121 969.0909,-1438.9643 926.2141,-1523.3897 959,-1843 967.7221,-1928.0267 985.81,-2028.4136 993.6912,-2070.2051"/>
<polygon fill="#191970" stroke="#191970" points="990.2788,-2070.9959 995.5864,-2080.1654 997.1554,-2069.6874 990.2788,-2070.9959"/>
</g>
<!-- Node1557&#45;&gt;Node1528 -->
<g id="edge107" class="edge">
<title>Node1557&#45;&gt;Node1528</title>
<path fill="none" stroke="#191970" d="M884.5282,-959.5112C892.5541,-985.2159 914.3477,-1058.3577 923,-1121 953.0603,-1338.6351 913.0446,-1894.1588 959,-2109 964.932,-2136.7322 978.3976,-2166.7508 987.7188,-2185.4629"/>
<polygon fill="#191970" stroke="#191970" points="984.6074,-2187.0659 992.2751,-2194.3773 990.8404,-2183.8801 984.6074,-2187.0659"/>
</g>
<!-- Node1557&#45;&gt;Node1529 -->
<g id="edge101" class="edge">
<title>Node1557&#45;&gt;Node1529</title>
<path fill="none" stroke="#191970" d="M883.8587,-959.6374C890.2221,-985.6554 908.2559,-1059.5059 923,-1121 939.1867,-1188.5111 939.8726,-1206.2625 959,-1273 988.4679,-1375.8166 1014.3379,-1396.2605 1036,-1501 1075.4696,-1691.8414 1029.9294,-1747.7151 1072,-1938 1078.019,-1965.2237 1090.0168,-1995.1845 1098.2732,-2014.0382"/>
<polygon fill="#191970" stroke="#191970" points="1095.1314,-2015.5862 1102.4134,-2023.2818 1101.5199,-2012.7247 1095.1314,-2015.5862"/>
</g>
<!-- Node1557&#45;&gt;Node1530 -->
<g id="edge102" class="edge">
<title>Node1557&#45;&gt;Node1530</title>
<path fill="none" stroke="#191970" d="M906.4984,-940.4318C912.1564,-937.7641 917.9728,-934.5957 923,-931 941.9225,-917.4658 937.6287,-902.1925 959,-893 990.4374,-879.4778 1011.1734,-869.4457 1036,-893 1091.2106,-945.3812 1061.4214,-1501.6336 1072,-1577 1078.7754,-1625.2709 1093.3269,-1680.8091 1101.3693,-1709.5293"/>
<polygon fill="#191970" stroke="#191970" points="1098.0036,-1710.4896 1104.1032,-1719.1525 1104.7371,-1708.5766 1098.0036,-1710.4896"/>
</g>
<!-- Node1557&#45;&gt;Node1531 -->
<g id="edge104" class="edge">
<title>Node1557&#45;&gt;Node1531</title>
<path fill="none" stroke="#191970" d="M908.6225,-940.7897C913.8034,-938.1853 918.886,-934.953 923,-931 948.5118,-906.4868 928.8517,-878.5158 959,-860 988.1616,-842.0902 1010.6063,-837.0583 1036,-860 1087.7781,-906.7785 1103.749,-1429.0762 1106.5295,-1538.1201"/>
<polygon fill="#191970" stroke="#191970" points="1103.0362,-1538.4403 1106.782,-1548.3509 1110.0341,-1538.2675 1103.0362,-1538.4403"/>
</g>
<!-- Node1557&#45;&gt;Node1532 -->
<g id="edge105" class="edge">
<title>Node1557&#45;&gt;Node1532</title>
<path fill="none" stroke="#191970" d="M888.8387,-959.6488C914.81,-994.4285 1002.5937,-1117.5258 1036,-1235 1112.3483,-1503.481 988.4429,-1595.6744 1072,-1862 1076.4539,-1876.1962 1085.2167,-1890.4602 1092.8596,-1901.1681"/>
<polygon fill="#191970" stroke="#191970" points="1090.1071,-1903.3318 1098.897,-1909.2468 1095.7143,-1899.1414 1090.1071,-1903.3318"/>
</g>
<!-- Node1557&#45;&gt;Node1540 -->
<g id="edge95" class="edge">
<title>Node1557&#45;&gt;Node1540</title>
<path fill="none" stroke="#191970" d="M908.6968,-950C928.0654,-950 953.8902,-950 972.6959,-950"/>
<polygon fill="#191970" stroke="#191970" points="972.8554,-953.5001 982.8554,-950 972.8553,-946.5001 972.8554,-953.5001"/>
</g>
<!-- Node1557&#45;&gt;Node1542 -->
<g id="edge98" class="edge">
<title>Node1557&#45;&gt;Node1542</title>
<path fill="none" stroke="#191970" d="M908.8098,-942.1525C914.2327,-939.4283 919.3664,-935.8026 923,-931 985.9568,-847.7873 897.6981,-783.4392 959,-699 981.5371,-667.9567 1010.7498,-688.8796 1036,-660 1060.9695,-631.4414 1090.8174,-520.6078 1102.2372,-475.3813"/>
<polygon fill="#191970" stroke="#191970" points="1105.6489,-476.165 1104.6731,-465.6152 1098.857,-474.4708 1105.6489,-476.165"/>
</g>
<!-- Node1557&#45;&gt;Node1543 -->
<g id="edge99" class="edge">
<title>Node1557&#45;&gt;Node1543</title>
<path fill="none" stroke="#191970" d="M908.5961,-942.5233C914.1676,-939.7695 919.4191,-936.0377 923,-931 972.1434,-861.864 949.3204,-635.2684 959,-551 970.4747,-451.1034 987.7226,-331.9992 994.5585,-285.7337"/>
<polygon fill="#191970" stroke="#191970" points="998.0228,-286.2322 996.028,-275.8268 991.0985,-285.205 998.0228,-286.2322"/>
</g>
<!-- Node1557&#45;&gt;Node1545 -->
<g id="edge97" class="edge">
<title>Node1557&#45;&gt;Node1545</title>
<path fill="none" stroke="#191970" d="M908.6968,-941.0907C928.2465,-934.6865 954.3735,-926.1276 973.2213,-919.9534"/>
<polygon fill="#191970" stroke="#191970" points="974.4419,-923.2366 982.8554,-916.7974 972.2627,-916.5844 974.4419,-923.2366"/>
</g>
<!-- Node1557&#45;&gt;Node1548 -->
<g id="edge109" class="edge">
<title>Node1557&#45;&gt;Node1548</title>
<path fill="none" stroke="#191970" d="M908.888,-942.211C914.3069,-939.4837 919.4192,-935.8421 923,-931 995.2445,-833.3086 903.0013,-767.8286 959,-660 980.4543,-618.6886 1012.498,-629.1817 1036,-589 1071.0506,-529.0733 1051.9635,-503.4702 1072,-437 1080.0896,-410.1633 1091.682,-379.8977 1099.2742,-360.8887"/>
<polygon fill="#191970" stroke="#191970" points="1102.5343,-362.1626 1103.0329,-351.5795 1096.0434,-359.5418 1102.5343,-362.1626"/>
</g>
<!-- Node1557&#45;&gt;Node1550 -->
<g id="edge96" class="edge">
<title>Node1557&#45;&gt;Node1550</title>
<path fill="none" stroke="#191970" d="M884.3582,-959.5369C891.9618,-985.3052 912.8004,-1058.591 923,-1121 953.0754,-1305.0241 938.5128,-1353.6634 959,-1539 970.0479,-1638.9447 987.5405,-1758.0214 994.5002,-1804.2728"/>
<polygon fill="#191970" stroke="#191970" points="991.0419,-1804.8122 995.9974,-1814.1766 997.9633,-1803.7658 991.0419,-1804.8122"/>
</g>
<!-- Node1558&#45;&gt;Node1524 -->
<g id="edge126" class="edge">
<title>Node1558&#45;&gt;Node1524</title>
<path fill="none" stroke="#191970" d="M793.7463,-397.4062C847.6305,-396.0314 963.6749,-400.5414 1036,-458 1078.1757,-491.5064 1096.6166,-556.0742 1103.4958,-588.4648"/>
<polygon fill="#191970" stroke="#191970" points="1100.101,-589.3406 1105.4669,-598.4761 1106.9691,-587.9884 1100.101,-589.3406"/>
</g>
<!-- Node1558&#45;&gt;Node1543 -->
<g id="edge119" class="edge">
<title>Node1558&#45;&gt;Node1543</title>
<path fill="none" stroke="#191970" d="M793.5347,-396.4436C827.0527,-392.3484 882.728,-381.9344 923,-356 951.5607,-337.6075 974.6371,-304.7613 987.1814,-284.2445"/>
<polygon fill="#191970" stroke="#191970" points="990.2561,-285.921 992.3288,-275.5308 984.2292,-282.3606 990.2561,-285.921"/>
</g>
<!-- Node1558&#45;&gt;Node1548 -->
<g id="edge127" class="edge">
<title>Node1558&#45;&gt;Node1548</title>
<path fill="none" stroke="#191970" d="M772.4914,-389.2907C796.8115,-360.6109 873.5029,-276.4451 959,-247 991.357,-235.8563 1005.4036,-231.6696 1036,-247 1067.6084,-262.8375 1088.7563,-300.1667 1099.2564,-323.0333"/>
<polygon fill="#191970" stroke="#191970" points="1096.1302,-324.6209 1103.3309,-332.3928 1102.5484,-321.8269 1096.1302,-324.6209"/>
</g>
<!-- Node1558&#45;&gt;Node1555 -->
<g id="edge118" class="edge">
<title>Node1558&#45;&gt;Node1555</title>
<path fill="none" stroke="#191970" d="M771.9836,-408.5007C784.6273,-424.0577 811.6264,-455.2104 840,-475 842.3763,-476.6574 844.9204,-478.229 847.5358,-479.7054"/>
<polygon fill="#191970" stroke="#191970" points="846.0689,-482.8866 856.5629,-484.345 849.2688,-476.6608 846.0689,-482.8866"/>
</g>
<!-- Node1559 -->
<g id="node42" class="node">
<title>Node1559</title>
<g id="a_node42"><a xlink:href="../../d7/d8d/search2_8cpp.html#a0ab70d6a7faffc1117669aa1eca0929e" target="_top" xlink:title=" ">
<polygon fill="#ffffff" stroke="#000000" points="840,-446.5 840,-465.5 923,-465.5 923,-446.5 840,-446.5"/>
<text text-anchor="middle" x="881.5" y="-453.5" font-family="Helvetica,sans-Serif" font-size="10.00" fill="#000000">tiSrAreaEnum</text>
</a>
</g>
</g>
<!-- Node1558&#45;&gt;Node1559 -->
<g id="edge120" class="edge">
<title>Node1558&#45;&gt;Node1559</title>
<path fill="none" stroke="#191970" d="M784.0832,-408.5405C802.8123,-417.665 831.2812,-431.5344 852.6141,-441.9274"/>
<polygon fill="#191970" stroke="#191970" points="851.3301,-445.1951 861.8529,-446.4284 854.3959,-438.9021 851.3301,-445.1951"/>
</g>
<!-- Node1559&#45;&gt;Node1524 -->
<g id="edge123" class="edge">
<title>Node1559&#45;&gt;Node1524</title>
<path fill="none" stroke="#191970" d="M923.1552,-456.7322C956.4914,-459.2334 1002.9686,-467.215 1036,-491 1070.232,-515.6495 1091.1315,-562.3818 1100.7268,-588.712"/>
<polygon fill="#191970" stroke="#191970" points="1097.475,-590.0179 1104.0544,-598.3223 1104.0897,-587.7275 1097.475,-590.0179"/>
</g>
<!-- Node1559&#45;&gt;Node1543 -->
<g id="edge122" class="edge">
<title>Node1559&#45;&gt;Node1543</title>
<path fill="none" stroke="#191970" d="M889.0836,-446.3851C898.1109,-434.587 913.1939,-413.7154 923,-394 944.7829,-350.205 928.4991,-328.2386 959,-290 961.5248,-286.8347 964.5881,-283.9728 967.8717,-281.4202"/>
<polygon fill="#191970" stroke="#191970" points="969.9843,-284.2168 976.3069,-275.7153 966.0627,-278.4184 969.9843,-284.2168"/>
</g>
<!-- Node1559&#45;&gt;Node1545 -->
<g id="edge121" class="edge">
<title>Node1559&#45;&gt;Node1545</title>
<path fill="none" stroke="#191970" d="M912.1355,-465.7283C916.2846,-468.1834 920.1032,-471.2299 923,-475 948.9224,-508.737 985.6471,-810.2368 995.1721,-891.7575"/>
<polygon fill="#191970" stroke="#191970" points="991.7464,-892.601 996.3755,-902.131 998.6997,-891.7942 991.7464,-892.601"/>
</g>
<!-- Node1559&#45;&gt;Node1548 -->
<g id="edge125" class="edge">
<title>Node1559&#45;&gt;Node1548</title>
<path fill="none" stroke="#191970" d="M886.6276,-446.4506C897.3129,-427.5792 923.9146,-385.6403 959,-366 995.3691,-345.6411 1044.1425,-341.3609 1075.5748,-341.0105"/>
<polygon fill="#191970" stroke="#191970" points="1075.9141,-344.5111 1085.9209,-341.0306 1075.9277,-337.5111 1075.9141,-344.5111"/>
</g>
<!-- Node1559&#45;&gt;Node1553 -->
<g id="edge124" class="edge">
<title>Node1559&#45;&gt;Node1553</title>
<path fill="none" stroke="#191970" d="M907.6192,-465.6508C912.9845,-468.2509 918.3949,-471.3699 923,-475 950.5675,-496.7308 973.9502,-530.6873 986.8251,-551.5729"/>
<polygon fill="#191970" stroke="#191970" points="983.9814,-553.6362 992.1264,-560.4119 989.9845,-550.0358 983.9814,-553.6362"/>
</g>
<!-- Node1560&#45;&gt;Node1522 -->
<g id="edge132" class="edge">
<title>Node1560&#45;&gt;Node1522</title>
<path fill="none" stroke="#191970" d="M891.4629,-2137.1362C901.4537,-2126.5295 916.2901,-2108.6604 923,-2090 967.3711,-1966.6019 944.8866,-1631.3714 959,-1501 968.1992,-1416.0236 986.0301,-1315.6096 993.7673,-1273.8029"/>
<polygon fill="#191970" stroke="#191970" points="997.2328,-1274.3112 995.6265,-1263.8388 990.3516,-1273.0272 997.2328,-1274.3112"/>
</g>
<!-- Node1560&#45;&gt;Node1527 -->
<g id="edge135" class="edge">
<title>Node1560&#45;&gt;Node1527</title>
<path fill="none" stroke="#191970" d="M900.9158,-2137.4595C919.4848,-2128.335 947.7105,-2114.4656 968.861,-2104.0726"/>
<polygon fill="#191970" stroke="#191970" points="970.5894,-2107.1231 978.0209,-2099.5716 967.5023,-2100.8406 970.5894,-2107.1231"/>
</g>
<!-- Node1560&#45;&gt;Node1528 -->
<g id="edge136" class="edge">
<title>Node1560&#45;&gt;Node1528</title>
<path fill="none" stroke="#191970" d="M900.9158,-2156.5405C919.4848,-2165.665 947.7105,-2179.5344 968.861,-2189.9274"/>
<polygon fill="#191970" stroke="#191970" points="967.5023,-2193.1594 978.0209,-2194.4284 970.5894,-2186.8769 967.5023,-2193.1594"/>
</g>
<!-- Node1560&#45;&gt;Node1529 -->
<g id="edge130" class="edge">
<title>Node1560&#45;&gt;Node1529</title>
<path fill="none" stroke="#191970" d="M902.133,-2156.5901C909.2097,-2160.4624 916.8807,-2165.3586 923,-2171 943.6668,-2190.0528 934.1015,-2209.9544 959,-2223 989.3133,-2238.8828 1007.8831,-2242.509 1036,-2223 1065.0718,-2202.8284 1092.2547,-2097.2346 1102.598,-2052.7687"/>
<polygon fill="#191970" stroke="#191970" points="1106.0443,-2053.398 1104.8558,-2042.87 1099.2196,-2051.8413 1106.0443,-2053.398"/>
</g>
<!-- Node1560&#45;&gt;Node1530 -->
<g id="edge131" class="edge">
<title>Node1560&#45;&gt;Node1530</title>
<path fill="none" stroke="#191970" d="M918.6558,-2142.7496C959.3074,-2137.2896 1020.7406,-2126.3873 1036,-2109 1083.6392,-2054.7178 1048.5398,-1854.3057 1072,-1786 1076.833,-1771.9283 1085.5954,-1757.6642 1093.1433,-1746.9251"/>
<polygon fill="#191970" stroke="#191970" points="1095.9985,-1748.9502 1099.085,-1738.8149 1090.3517,-1744.8133 1095.9985,-1748.9502"/>
</g>
<!-- Node1560&#45;&gt;Node1531 -->
<g id="edge133" class="edge">
<title>Node1560&#45;&gt;Node1531</title>
<path fill="none" stroke="#191970" d="M890.8601,-2137.4369C900.6502,-2126.8058 915.6007,-2108.6616 923,-2090 970.0581,-1971.3156 904.2878,-1920.3561 959,-1805 980.2855,-1760.1214 1008.6911,-1765.4896 1036,-1724 1068.065,-1675.2847 1091.0255,-1609.6935 1101.1776,-1577.4911"/>
<polygon fill="#191970" stroke="#191970" points="1104.6329,-1578.1627 1104.2283,-1567.5756 1097.9424,-1576.1042 1104.6329,-1578.1627"/>
</g>
<!-- Node1560&#45;&gt;Node1532 -->
<g id="edge134" class="edge">
<title>Node1560&#45;&gt;Node1532</title>
<path fill="none" stroke="#191970" d="M915.8043,-2156.5209C949.9716,-2163.7827 1002.0913,-2168.5615 1036,-2142 1082.5223,-2105.5579 1053.7709,-2070.2143 1072,-2014 1080.6461,-1987.3374 1092.1017,-1957.029 1099.5116,-1937.963"/>
<polygon fill="#191970" stroke="#191970" points="1102.7821,-1939.2097 1103.1684,-1928.6219 1096.2638,-1936.6579 1102.7821,-1939.2097"/>
</g>
<!-- Node1560&#45;&gt;Node1533 -->
<g id="edge137" class="edge">
<title>Node1560&#45;&gt;Node1533</title>
<path fill="none" stroke="#191970" d="M888.1834,-2156.5275C896.5683,-2168.5826 911.2699,-2190.0596 923,-2209 939.9798,-2236.4169 936.1633,-2249.2298 959,-2272 991.6115,-2304.5165 1039.3795,-2328.5777 1071.7564,-2342.425"/>
<polygon fill="#191970" stroke="#191970" points="1070.6996,-2345.7763 1081.2765,-2346.3925 1073.3924,-2339.3149 1070.6996,-2345.7763"/>
</g>
<!-- Node1560&#45;&gt;Node1535 -->
<g id="edge138" class="edge">
<title>Node1560&#45;&gt;Node1535</title>
<path fill="none" stroke="#191970" d="M903.4522,-2156.5876C910.3193,-2160.3518 917.5242,-2165.1814 923,-2171 947.5192,-2197.0539 931.0924,-2220.6133 959,-2243 989.0137,-2267.0761 1032.6251,-2275.742 1064.7353,-2278.7343"/>
<polygon fill="#191970" stroke="#191970" points="1064.4813,-2282.2251 1074.7247,-2279.5189 1065.0295,-2275.2466 1064.4813,-2282.2251"/>
</g>
</g>
</svg>
