<?xml version="1.0" encoding="UTF-8" standalone="no"?>
<!DOCTYPE svg PUBLIC "-//W3C//DTD SVG 1.1//EN"
 "http://www.w3.org/Graphics/SVG/1.1/DTD/svg11.dtd">
<!-- Generated by graphviz version 2.40.1 (0)
 -->
<!-- Title: partseditor/pesvgview.h Pages: 1 -->
<svg width="942pt" height="84pt"
 viewBox="0.00 0.00 941.50 84.00" xmlns="http://www.w3.org/2000/svg" xmlns:xlink="http://www.w3.org/1999/xlink">
<g id="graph0" class="graph" transform="scale(1 1) rotate(0) translate(4 80)">
<title>partseditor/pesvgview.h</title>
<polygon fill="#ffffff" stroke="transparent" points="-4,4 -4,-80 937.5,-80 937.5,4 -4,4"/>
<!-- Node0 -->
<g id="node1" class="node">
<title>Node0</title>
<g id="a_node1"><a xlink:title=" ">
<polygon fill="#bfbfbf" stroke="#000000" points="389.5,-56.5 389.5,-75.5 523.5,-75.5 523.5,-56.5 389.5,-56.5"/>
<text text-anchor="middle" x="456.5" y="-63.5" font-family="Helvetica,sans-Serif" font-size="10.00" fill="#000000">partseditor/pesvgview.h</text>
</a>
</g>
</g>
<!-- Node1 -->
<g id="node2" class="node">
<title>Node1</title>
<g id="a_node2"><a xlink:title=" ">
<polygon fill="#ffffff" stroke="#bfbfbf" points="0,-.5 0,-19.5 55,-19.5 55,-.5 0,-.5"/>
<text text-anchor="middle" x="27.5" y="-7.5" font-family="Helvetica,sans-Serif" font-size="10.00" fill="#000000">QFrame</text>
</a>
</g>
</g>
<!-- Node0&#45;&gt;Node1 -->
<g id="edge1" class="edge">
<title>Node0&#45;&gt;Node1</title>
<path fill="none" stroke="#191970" d="M389.4553,-61.1529C313.1781,-54.9617 184.7971,-42.491 65.3309,-19.9068"/>
<polygon fill="#191970" stroke="#191970" points="65.7583,-16.4251 55.2779,-17.9781 64.4393,-23.2997 65.7583,-16.4251"/>
</g>
<!-- Node2 -->
<g id="node3" class="node">
<title>Node2</title>
<g id="a_node3"><a xlink:title=" ">
<polygon fill="#ffffff" stroke="#bfbfbf" points="73.5,-.5 73.5,-19.5 157.5,-19.5 157.5,-.5 73.5,-.5"/>
<text text-anchor="middle" x="115.5" y="-7.5" font-family="Helvetica,sans-Serif" font-size="10.00" fill="#000000">QRadioButton</text>
</a>
</g>
</g>
<!-- Node0&#45;&gt;Node2 -->
<g id="edge2" class="edge">
<title>Node0&#45;&gt;Node2</title>
<path fill="none" stroke="#191970" d="M392.1725,-56.4813C335.5726,-47.9497 250.6901,-34.7769 167.3877,-20.1101"/>
<polygon fill="#191970" stroke="#191970" points="167.959,-16.6569 157.5021,-18.3611 166.7394,-23.5498 167.959,-16.6569"/>
</g>
<!-- Node3 -->
<g id="node4" class="node">
<title>Node3</title>
<g id="a_node4"><a xlink:title=" ">
<polygon fill="#ffffff" stroke="#bfbfbf" points="175.5,-.5 175.5,-19.5 255.5,-19.5 255.5,-.5 175.5,-.5"/>
<text text-anchor="middle" x="215.5" y="-7.5" font-family="Helvetica,sans-Serif" font-size="10.00" fill="#000000">QPushButton</text>
</a>
</g>
</g>
<!-- Node0&#45;&gt;Node3 -->
<g id="edge3" class="edge">
<title>Node0&#45;&gt;Node3</title>
<path fill="none" stroke="#191970" d="M415.3445,-56.4369C373.9364,-46.8151 310.0258,-31.9645 265.6721,-21.6583"/>
<polygon fill="#191970" stroke="#191970" points="266.2159,-18.1914 255.6832,-19.3372 264.6315,-25.0098 266.2159,-18.1914"/>
</g>
<!-- Node4 -->
<g id="node5" class="node">
<title>Node4</title>
<g id="a_node5"><a xlink:title=" ">
<polygon fill="#ffffff" stroke="#bfbfbf" points="274,-.5 274,-19.5 357,-19.5 357,-.5 274,-.5"/>
<text text-anchor="middle" x="315.5" y="-7.5" font-family="Helvetica,sans-Serif" font-size="10.00" fill="#000000">QVBoxLayout</text>
</a>
</g>
</g>
<!-- Node0&#45;&gt;Node4 -->
<g id="edge4" class="edge">
<title>Node0&#45;&gt;Node4</title>
<path fill="none" stroke="#191970" d="M432.2612,-56.3733C409.2211,-47.2226 374.3786,-33.3844 348.7499,-23.2057"/>
<polygon fill="#191970" stroke="#191970" points="350.0082,-19.9395 339.4225,-19.5011 347.4244,-26.4452 350.0082,-19.9395"/>
</g>
<!-- Node5 -->
<g id="node6" class="node">
<title>Node5</title>
<g id="a_node6"><a xlink:title=" ">
<polygon fill="#ffffff" stroke="#bfbfbf" points="375.5,-.5 375.5,-19.5 447.5,-19.5 447.5,-.5 375.5,-.5"/>
<text text-anchor="middle" x="411.5" y="-7.5" font-family="Helvetica,sans-Serif" font-size="10.00" fill="#000000">QGroupBox</text>
</a>
</g>
</g>
<!-- Node0&#45;&gt;Node5 -->
<g id="edge5" class="edge">
<title>Node0&#45;&gt;Node5</title>
<path fill="none" stroke="#191970" d="M448.6616,-56.2455C442.338,-48.3761 433.2776,-37.101 425.6864,-27.6542"/>
<polygon fill="#191970" stroke="#191970" points="428.2408,-25.2454 419.2486,-19.6427 422.7842,-29.6302 428.2408,-25.2454"/>
</g>
<!-- Node6 -->
<g id="node7" class="node">
<title>Node6</title>
<g id="a_node7"><a xlink:title=" ">
<polygon fill="#ffffff" stroke="#bfbfbf" points="466,-.5 466,-19.5 539,-19.5 539,-.5 466,-.5"/>
<text text-anchor="middle" x="502.5" y="-7.5" font-family="Helvetica,sans-Serif" font-size="10.00" fill="#000000">QCheckBox</text>
</a>
</g>
</g>
<!-- Node0&#45;&gt;Node6 -->
<g id="edge6" class="edge">
<title>Node0&#45;&gt;Node6</title>
<path fill="none" stroke="#191970" d="M464.5126,-56.2455C470.9768,-48.3761 480.2385,-37.101 487.9983,-27.6542"/>
<polygon fill="#191970" stroke="#191970" points="490.9364,-29.5916 494.5792,-19.6427 485.5273,-25.1484 490.9364,-29.5916"/>
</g>
<!-- Node7 -->
<g id="node8" class="node">
<title>Node7</title>
<g id="a_node8"><a xlink:title=" ">
<polygon fill="#ffffff" stroke="#bfbfbf" points="557.5,-.5 557.5,-19.5 607.5,-19.5 607.5,-.5 557.5,-.5"/>
<text text-anchor="middle" x="582.5" y="-7.5" font-family="Helvetica,sans-Serif" font-size="10.00" fill="#000000">QLabel</text>
</a>
</g>
</g>
<!-- Node0&#45;&gt;Node7 -->
<g id="edge7" class="edge">
<title>Node0&#45;&gt;Node7</title>
<path fill="none" stroke="#191970" d="M478.1602,-56.3733C498.4772,-47.3435 529.064,-33.7494 551.875,-23.6111"/>
<polygon fill="#191970" stroke="#191970" points="553.4059,-26.7609 561.1225,-19.5011 550.5628,-20.3642 553.4059,-26.7609"/>
</g>
<!-- Node8 -->
<g id="node9" class="node">
<title>Node8</title>
<g id="a_node9"><a xlink:title=" ">
<polygon fill="#ffffff" stroke="#bfbfbf" points="625.5,-.5 625.5,-19.5 701.5,-19.5 701.5,-.5 625.5,-.5"/>
<text text-anchor="middle" x="663.5" y="-7.5" font-family="Helvetica,sans-Serif" font-size="10.00" fill="#000000">QListWidget</text>
</a>
</g>
</g>
<!-- Node0&#45;&gt;Node8 -->
<g id="edge8" class="edge">
<title>Node0&#45;&gt;Node8</title>
<path fill="none" stroke="#191970" d="M492.0846,-56.3733C527.1016,-46.9001 580.6881,-32.4032 618.6125,-22.1435"/>
<polygon fill="#191970" stroke="#191970" points="619.6408,-25.4912 628.3798,-19.5011 617.8127,-18.7341 619.6408,-25.4912"/>
</g>
<!-- Node9 -->
<g id="node10" class="node">
<title>Node9</title>
<g id="a_node10"><a xlink:title=" ">
<polygon fill="#ffffff" stroke="#bfbfbf" points="719.5,-.5 719.5,-19.5 817.5,-19.5 817.5,-.5 719.5,-.5"/>
<text text-anchor="middle" x="768.5" y="-7.5" font-family="Helvetica,sans-Serif" font-size="10.00" fill="#000000">QDomDocument</text>
</a>
</g>
</g>
<!-- Node0&#45;&gt;Node9 -->
<g id="edge9" class="edge">
<title>Node0&#45;&gt;Node9</title>
<path fill="none" stroke="#191970" d="M509.7802,-56.4369C565.1932,-46.491 651.734,-30.958 709.2616,-20.6325"/>
<polygon fill="#191970" stroke="#191970" points="710.0726,-24.043 719.297,-18.8313 708.8359,-17.1531 710.0726,-24.043"/>
</g>
<!-- Node10 -->
<g id="node11" class="node">
<title>Node10</title>
<g id="a_node11"><a xlink:title=" ">
<polygon fill="#ffffff" stroke="#bfbfbf" points="835.5,-.5 835.5,-19.5 933.5,-19.5 933.5,-.5 835.5,-.5"/>
<text text-anchor="middle" x="884.5" y="-7.5" font-family="Helvetica,sans-Serif" font-size="10.00" fill="#000000">QDoubleSpinBox</text>
</a>
</g>
</g>
<!-- Node0&#45;&gt;Node10 -->
<g id="edge10" class="edge">
<title>Node0&#45;&gt;Node10</title>
<path fill="none" stroke="#191970" d="M523.8077,-58.5954C595.8815,-50.4488 713.8473,-36.4905 825.3972,-20.1086"/>
<polygon fill="#191970" stroke="#191970" points="826.0975,-23.5432 835.4783,-18.6188 825.0741,-16.6185 826.0975,-23.5432"/>
</g>
</g>
</svg>
