<?xml version="1.0" encoding="UTF-8" standalone="no"?>
<!DOCTYPE svg PUBLIC "-//W3C//DTD SVG 1.1//EN"
 "http://www.w3.org/Graphics/SVG/1.1/DTD/svg11.dtd">
<!-- Generated by graphviz version 2.40.1 (0)
 -->
<!-- Title: SketchModel Pages: 1 -->
<svg width="769pt" height="563pt"
 viewBox="0.00 0.00 769.00 563.00" xmlns="http://www.w3.org/2000/svg" xmlns:xlink="http://www.w3.org/1999/xlink">
<g id="graph0" class="graph" transform="scale(1 1) rotate(0) translate(4 559)">
<title>SketchModel</title>
<polygon fill="#ffffff" stroke="transparent" points="-4,4 -4,-559 765,-559 765,4 -4,4"/>
<!-- Node3 -->
<g id="node1" class="node">
<title>Node3</title>
<g id="a_node1"><a xlink:title=" ">
<polygon fill="#bfbfbf" stroke="#000000" points="285,-.5 285,-101.5 407,-101.5 407,-.5 285,-.5"/>
<text text-anchor="middle" x="346" y="-89.5" font-family="Helvetica,sans-Serif" font-size="10.00" fill="#000000">SketchModel</text>
<polyline fill="none" stroke="#000000" points="285,-82.5 407,-82.5 "/>
<text text-anchor="middle" x="346" y="-70.5" font-family="Helvetica,sans-Serif" font-size="10.00" fill="#000000"> </text>
<polyline fill="none" stroke="#000000" points="285,-63.5 407,-63.5 "/>
<text text-anchor="start" x="293" y="-51.5" font-family="Helvetica,sans-Serif" font-size="10.00" fill="#000000">+ SketchModel()</text>
<text text-anchor="start" x="293" y="-40.5" font-family="Helvetica,sans-Serif" font-size="10.00" fill="#000000">+ SketchModel()</text>
<text text-anchor="start" x="293" y="-29.5" font-family="Helvetica,sans-Serif" font-size="10.00" fill="#000000">+ findModelPart()</text>
<text text-anchor="start" x="293" y="-18.5" font-family="Helvetica,sans-Serif" font-size="10.00" fill="#000000">+ removeModelPart()</text>
<text text-anchor="start" x="293" y="-7.5" font-family="Helvetica,sans-Serif" font-size="10.00" fill="#000000"># findModelPartAux()</text>
</a>
</g>
</g>
<!-- Node4 -->
<g id="node2" class="node">
<title>Node4</title>
<g id="a_node2"><a xlink:href="../../d0/d49/classModelBase.html" target="_top" xlink:title=" ">
<polygon fill="#ffffff" stroke="#000000" points="260.5,-139.5 260.5,-427.5 431.5,-427.5 431.5,-139.5 260.5,-139.5"/>
<text text-anchor="middle" x="346" y="-415.5" font-family="Helvetica,sans-Serif" font-size="10.00" fill="#000000">ModelBase</text>
<polyline fill="none" stroke="#000000" points="260.5,-408.5 431.5,-408.5 "/>
<text text-anchor="middle" x="346" y="-396.5" font-family="Helvetica,sans-Serif" font-size="10.00" fill="#000000"> </text>
<polyline fill="none" stroke="#000000" points="260.5,-389.5 431.5,-389.5 "/>
<text text-anchor="start" x="268.5" y="-377.5" font-family="Helvetica,sans-Serif" font-size="10.00" fill="#000000">+ ModelBase()</text>
<text text-anchor="start" x="268.5" y="-366.5" font-family="Helvetica,sans-Serif" font-size="10.00" fill="#000000">+ ~ModelBase()</text>
<text text-anchor="start" x="268.5" y="-355.5" font-family="Helvetica,sans-Serif" font-size="10.00" fill="#000000">+ addModelPart()</text>
<text text-anchor="start" x="268.5" y="-344.5" font-family="Helvetica,sans-Serif" font-size="10.00" fill="#000000">+ addPart()</text>
<text text-anchor="start" x="268.5" y="-333.5" font-family="Helvetica,sans-Serif" font-size="10.00" fill="#000000">+ addPart()</text>
<text text-anchor="start" x="268.5" y="-322.5" font-family="Helvetica,sans-Serif" font-size="10.00" fill="#000000">+ addPart()</text>
<text text-anchor="start" x="268.5" y="-311.5" font-family="Helvetica,sans-Serif" font-size="10.00" fill="#000000">+ checkForReversedWires()</text>
<text text-anchor="start" x="268.5" y="-300.5" font-family="Helvetica,sans-Serif" font-size="10.00" fill="#000000">+ fritzingVersion()</text>
<text text-anchor="start" x="268.5" y="-289.5" font-family="Helvetica,sans-Serif" font-size="10.00" fill="#000000">+ genFZP()</text>
<text text-anchor="start" x="268.5" y="-278.5" font-family="Helvetica,sans-Serif" font-size="10.00" fill="#000000">+ loadFromFile()</text>
<text text-anchor="start" x="268.5" y="-267.5" font-family="Helvetica,sans-Serif" font-size="10.00" fill="#000000">and 8 more...</text>
<text text-anchor="start" x="268.5" y="-256.5" font-family="Helvetica,sans-Serif" font-size="10.00" fill="#000000">+ onCoreList()</text>
<text text-anchor="start" x="268.5" y="-245.5" font-family="Helvetica,sans-Serif" font-size="10.00" fill="#000000"># createOldSchematicPart()</text>
<text text-anchor="start" x="268.5" y="-234.5" font-family="Helvetica,sans-Serif" font-size="10.00" fill="#000000"># createOldSchematicPartAux()</text>
<text text-anchor="start" x="268.5" y="-223.5" font-family="Helvetica,sans-Serif" font-size="10.00" fill="#000000"># fixObsoleteModuleID()</text>
<text text-anchor="start" x="268.5" y="-212.5" font-family="Helvetica,sans-Serif" font-size="10.00" fill="#000000"># loadInstances()</text>
<text text-anchor="start" x="268.5" y="-201.5" font-family="Helvetica,sans-Serif" font-size="10.00" fill="#000000"># renewModelIndexes()</text>
<text text-anchor="start" x="268.5" y="-190.5" font-family="Helvetica,sans-Serif" font-size="10.00" fill="#000000"># checkMystery()</text>
<text text-anchor="start" x="268.5" y="-179.5" font-family="Helvetica,sans-Serif" font-size="10.00" fill="#000000"># checkObsoleteOrientation()</text>
<text text-anchor="start" x="268.5" y="-168.5" font-family="Helvetica,sans-Serif" font-size="10.00" fill="#000000"># checkOldSchematics()</text>
<text text-anchor="start" x="268.5" y="-157.5" font-family="Helvetica,sans-Serif" font-size="10.00" fill="#000000"># checkTraces()</text>
<text text-anchor="start" x="268.5" y="-146.5" font-family="Helvetica,sans-Serif" font-size="10.00" fill="#000000"># isRatsnest()</text>
</a>
</g>
</g>
<!-- Node4&#45;&gt;Node3 -->
<g id="edge1" class="edge">
<title>Node4&#45;&gt;Node3</title>
<path fill="none" stroke="#191970" d="M346,-129.0314C346,-119.3702 346,-110.1052 346,-101.5476"/>
<polygon fill="none" stroke="#191970" points="342.5001,-129.2298 346,-139.2298 349.5001,-129.2298 342.5001,-129.2298"/>
</g>
<!-- Node5 -->
<g id="node3" class="node">
<title>Node5</title>
<g id="a_node3"><a xlink:href="../../d9/d5b/classQObject.html" target="_top" xlink:title=" ">
<polygon fill="#ffffff" stroke="#000000" points="0,-497.5 0,-554.5 56,-554.5 56,-497.5 0,-497.5"/>
<text text-anchor="middle" x="28" y="-542.5" font-family="Helvetica,sans-Serif" font-size="10.00" fill="#000000">QObject</text>
<polyline fill="none" stroke="#000000" points="0,-535.5 56,-535.5 "/>
<text text-anchor="middle" x="28" y="-523.5" font-family="Helvetica,sans-Serif" font-size="10.00" fill="#000000"> </text>
<polyline fill="none" stroke="#000000" points="0,-516.5 56,-516.5 "/>
<text text-anchor="middle" x="28" y="-504.5" font-family="Helvetica,sans-Serif" font-size="10.00" fill="#000000"> </text>
</a>
</g>
</g>
<!-- Node5&#45;&gt;Node4 -->
<g id="edge2" class="edge">
<title>Node5&#45;&gt;Node4</title>
<path fill="none" stroke="#191970" d="M64.1975,-497.6197C64.4659,-497.4123 64.7335,-497.2057 65,-497 130.2387,-446.6543 204.4917,-390.2774 260.2788,-348.1039"/>
<polygon fill="none" stroke="#191970" points="62.0018,-494.8933 56.2476,-503.7894 66.2935,-500.4233 62.0018,-494.8933"/>
</g>
<!-- Node6 -->
<g id="node4" class="node">
<title>Node6</title>
<g id="a_node4"><a xlink:title=" ">
<polygon fill="#ffffff" stroke="#bfbfbf" points="74,-497.5 74,-554.5 204,-554.5 204,-497.5 74,-497.5"/>
<text text-anchor="middle" x="139" y="-542.5" font-family="Helvetica,sans-Serif" font-size="10.00" fill="#000000">static QList&lt; QString &gt;</text>
<polyline fill="none" stroke="#bfbfbf" points="74,-535.5 204,-535.5 "/>
<text text-anchor="middle" x="139" y="-523.5" font-family="Helvetica,sans-Serif" font-size="10.00" fill="#000000"> </text>
<polyline fill="none" stroke="#bfbfbf" points="74,-516.5 204,-516.5 "/>
<text text-anchor="middle" x="139" y="-504.5" font-family="Helvetica,sans-Serif" font-size="10.00" fill="#000000"> </text>
</a>
</g>
</g>
<!-- Node6&#45;&gt;Node4 -->
<g id="edge3" class="edge">
<title>Node6&#45;&gt;Node4</title>
<path fill="none" stroke="#404040" d="M163.5585,-497.2298C185.7175,-471.2705 219.7624,-431.3871 252.4673,-393.0733"/>
<polygon fill="none" stroke="#404040" points="252.5095,-393.0239 253.3626,-385.8634 260.3004,-383.8968 259.4473,-391.0573 252.5095,-393.0239"/>
<text text-anchor="middle" x="231" y="-460" font-family="Helvetica,sans-Serif" font-size="10.00" fill="#000000"> #CoreList</text>
</g>
<!-- Node7 -->
<g id="node5" class="node">
<title>Node7</title>
<g id="a_node5"><a xlink:title=" ">
<polygon fill="#ffffff" stroke="#bfbfbf" points="222.5,-497.5 222.5,-554.5 357.5,-554.5 357.5,-497.5 222.5,-497.5"/>
<text text-anchor="middle" x="290" y="-542.5" font-family="Helvetica,sans-Serif" font-size="10.00" fill="#000000">QPointer&lt; ModelBase &gt;</text>
<polyline fill="none" stroke="#bfbfbf" points="222.5,-535.5 357.5,-535.5 "/>
<text text-anchor="middle" x="290" y="-523.5" font-family="Helvetica,sans-Serif" font-size="10.00" fill="#000000"> </text>
<polyline fill="none" stroke="#bfbfbf" points="222.5,-516.5 357.5,-516.5 "/>
<text text-anchor="middle" x="290" y="-504.5" font-family="Helvetica,sans-Serif" font-size="10.00" fill="#000000"> </text>
</a>
</g>
</g>
<!-- Node7&#45;&gt;Node4 -->
<g id="edge4" class="edge">
<title>Node7&#45;&gt;Node4</title>
<path fill="none" stroke="#404040" d="M284.3102,-497.2996C282.159,-481.9737 280.8952,-462.8476 284,-446 284.4032,-443.8123 284.8345,-441.6159 285.292,-439.4132"/>
<polygon fill="none" stroke="#404040" points="285.3203,-439.2881 282.7481,-432.5513 287.9772,-427.5859 290.5495,-434.3226 285.3203,-439.2881"/>
<text text-anchor="middle" x="335.5" y="-460" font-family="Helvetica,sans-Serif" font-size="10.00" fill="#000000"> #m_referenceModel</text>
</g>
<!-- Node8 -->
<g id="node6" class="node">
<title>Node8</title>
<g id="a_node6"><a xlink:title=" ">
<polygon fill="#ffffff" stroke="#bfbfbf" points="382.5,-497.5 382.5,-554.5 435.5,-554.5 435.5,-497.5 382.5,-497.5"/>
<text text-anchor="middle" x="409" y="-542.5" font-family="Helvetica,sans-Serif" font-size="10.00" fill="#000000">QString</text>
<polyline fill="none" stroke="#bfbfbf" points="382.5,-535.5 435.5,-535.5 "/>
<text text-anchor="middle" x="409" y="-523.5" font-family="Helvetica,sans-Serif" font-size="10.00" fill="#000000"> </text>
<polyline fill="none" stroke="#bfbfbf" points="382.5,-516.5 435.5,-516.5 "/>
<text text-anchor="middle" x="409" y="-504.5" font-family="Helvetica,sans-Serif" font-size="10.00" fill="#000000"> </text>
</a>
</g>
</g>
<!-- Node8&#45;&gt;Node4 -->
<g id="edge5" class="edge">
<title>Node8&#45;&gt;Node4</title>
<path fill="none" stroke="#404040" d="M401.5257,-497.2298C397.515,-481.7918 392.2249,-461.4292 386.5021,-439.4009"/>
<polygon fill="none" stroke="#404040" points="386.4919,-439.3614 381.1117,-434.56 383.4745,-427.747 388.8547,-432.5484 386.4919,-439.3614"/>
<text text-anchor="middle" x="443.5" y="-460" font-family="Helvetica,sans-Serif" font-size="10.00" fill="#000000"> #m_fritzingVersion</text>
</g>
<!-- Node9 -->
<g id="node7" class="node">
<title>Node9</title>
<g id="a_node7"><a xlink:title=" ">
<polygon fill="#ffffff" stroke="#bfbfbf" points="510,-497.5 510,-554.5 548,-554.5 548,-497.5 510,-497.5"/>
<text text-anchor="middle" x="529" y="-542.5" font-family="Helvetica,sans-Serif" font-size="10.00" fill="#000000">bool</text>
<polyline fill="none" stroke="#bfbfbf" points="510,-535.5 548,-535.5 "/>
<text text-anchor="middle" x="529" y="-523.5" font-family="Helvetica,sans-Serif" font-size="10.00" fill="#000000"> </text>
<polyline fill="none" stroke="#bfbfbf" points="510,-516.5 548,-516.5 "/>
<text text-anchor="middle" x="529" y="-504.5" font-family="Helvetica,sans-Serif" font-size="10.00" fill="#000000"> </text>
</a>
</g>
</g>
<!-- Node9&#45;&gt;Node4 -->
<g id="edge6" class="edge">
<title>Node9&#45;&gt;Node4</title>
<path fill="none" stroke="#404040" d="M519.9956,-497.4054C514.3422,-481.5838 506.1888,-461.9546 496,-446 480.0174,-420.9729 460.0004,-396.2355 439.8457,-373.8973"/>
<polygon fill="none" stroke="#404040" points="439.6234,-373.6547 432.621,-371.9325 431.5174,-364.8063 438.5199,-366.5285 439.6234,-373.6547"/>
<text text-anchor="middle" x="584" y="-471" font-family="Helvetica,sans-Serif" font-size="10.00" fill="#000000"> #m_checkForReversedWires</text>
<text text-anchor="middle" x="584" y="-460" font-family="Helvetica,sans-Serif" font-size="10.00" fill="#000000">#m_useOldSchematics</text>
<text text-anchor="middle" x="584" y="-449" font-family="Helvetica,sans-Serif" font-size="10.00" fill="#000000">#m_reportMissingModules</text>
</g>
<!-- Node10 -->
<g id="node8" class="node">
<title>Node10</title>
<g id="a_node8"><a xlink:title=" ">
<polygon fill="#ffffff" stroke="#bfbfbf" points="631,-497.5 631,-554.5 761,-554.5 761,-497.5 631,-497.5"/>
<text text-anchor="middle" x="696" y="-542.5" font-family="Helvetica,sans-Serif" font-size="10.00" fill="#000000">QPointer&lt; ModelPart &gt;</text>
<polyline fill="none" stroke="#bfbfbf" points="631,-535.5 761,-535.5 "/>
<text text-anchor="middle" x="696" y="-523.5" font-family="Helvetica,sans-Serif" font-size="10.00" fill="#000000"> </text>
<polyline fill="none" stroke="#bfbfbf" points="631,-516.5 761,-516.5 "/>
<text text-anchor="middle" x="696" y="-504.5" font-family="Helvetica,sans-Serif" font-size="10.00" fill="#000000"> </text>
</a>
</g>
</g>
<!-- Node10&#45;&gt;Node4 -->
<g id="edge7" class="edge">
<title>Node10&#45;&gt;Node4</title>
<path fill="none" stroke="#404040" d="M688.3144,-497.3866C682.6829,-480.7832 673.6122,-460.378 660,-446 600.5609,-383.2168 511.4742,-340.3281 443.3576,-314.4478"/>
<polygon fill="none" stroke="#404040" points="443.0013,-314.3152 435.9825,-315.9692 431.7561,-310.1264 438.775,-308.4724 443.0013,-314.3152"/>
<text text-anchor="middle" x="703" y="-460" font-family="Helvetica,sans-Serif" font-size="10.00" fill="#000000"> #m_root</text>
</g>
</g>
</svg>
