<?xml version="1.0" encoding="UTF-8" standalone="no"?>
<!DOCTYPE svg PUBLIC "-//W3C//DTD SVG 1.1//EN"
 "http://www.w3.org/Graphics/SVG/1.1/DTD/svg11.dtd">
<!-- Generated by graphviz version 2.40.1 (0)
 -->
<!-- Title: MismatchingConnectorWidget::views Pages: 1 -->
<svg width="957pt" height="225pt"
 viewBox="0.00 0.00 957.00 225.00" xmlns="http://www.w3.org/2000/svg" xmlns:xlink="http://www.w3.org/1999/xlink">
<g id="graph0" class="graph" transform="scale(1 1) rotate(0) translate(4 221)">
<title>MismatchingConnectorWidget::views</title>
<polygon fill="#ffffff" stroke="transparent" points="-4,4 -4,-221 953,-221 953,4 -4,4"/>
<!-- Node78 -->
<g id="node1" class="node">
<title>Node78</title>
<g id="a_node1"><a xlink:title=" ">
<polygon fill="#bfbfbf" stroke="#000000" points="785,-109.5 785,-139.5 949,-139.5 949,-109.5 785,-109.5"/>
<text text-anchor="start" x="793" y="-127.5" font-family="Helvetica,sans-Serif" font-size="10.00" fill="#000000">MismatchingConnectorWidget</text>
<text text-anchor="middle" x="867" y="-116.5" font-family="Helvetica,sans-Serif" font-size="10.00" fill="#000000">::views</text>
</a>
</g>
</g>
<!-- Node79 -->
<g id="node2" class="node">
<title>Node79</title>
<g id="a_node2"><a xlink:href="../../db/d0e/classConnectorsInfoWidget.html#aa0be9b6661b686c486345e6a1bee2e6b" target="_top" xlink:title=" ">
<polygon fill="#ffffff" stroke="#000000" points="373,-186.5 373,-216.5 522,-216.5 522,-186.5 373,-186.5"/>
<text text-anchor="start" x="381" y="-204.5" font-family="Helvetica,sans-Serif" font-size="10.00" fill="#000000">ConnectorsInfoWidget</text>
<text text-anchor="middle" x="447.5" y="-193.5" font-family="Helvetica,sans-Serif" font-size="10.00" fill="#000000">::clearMismatchingForView</text>
</a>
</g>
</g>
<!-- Node78&#45;&gt;Node79 -->
<g id="edge1" class="edge">
<title>Node78&#45;&gt;Node79</title>
<path fill="none" stroke="#191970" d="M788.224,-141.6235C775.1404,-144.3428 761.7004,-147.0603 749,-149.5 671.9294,-164.3049 583.3914,-179.3418 522.295,-189.4113"/>
<polygon fill="#191970" stroke="#191970" points="789.0703,-145.0223 798.1414,-139.5482 787.6365,-138.1707 789.0703,-145.0223"/>
</g>
<!-- Node81 -->
<g id="node4" class="node">
<title>Node81</title>
<g id="a_node4"><a xlink:href="../../db/d0e/classConnectorsInfoWidget.html#a668775120d963cc9765c3f9ac67413e0" target="_top" xlink:title=" ">
<polygon fill="#ffffff" stroke="#000000" points="558,-109.5 558,-139.5 749,-139.5 749,-109.5 558,-109.5"/>
<text text-anchor="start" x="566" y="-127.5" font-family="Helvetica,sans-Serif" font-size="10.00" fill="#000000">ConnectorsInfoWidget</text>
<text text-anchor="middle" x="653.5" y="-116.5" font-family="Helvetica,sans-Serif" font-size="10.00" fill="#000000">::removeMismatchingConnectorInfo</text>
</a>
</g>
</g>
<!-- Node78&#45;&gt;Node81 -->
<g id="edge3" class="edge">
<title>Node78&#45;&gt;Node81</title>
<path fill="none" stroke="#191970" d="M774.5874,-124.5C766.1862,-124.5 757.6645,-124.5 749.2353,-124.5"/>
<polygon fill="#191970" stroke="#191970" points="774.7608,-128.0001 784.7607,-124.5 774.7607,-121.0001 774.7608,-128.0001"/>
</g>
<!-- Node84 -->
<g id="node7" class="node">
<title>Node84</title>
<g id="a_node7"><a xlink:href="../../db/d0e/classConnectorsInfoWidget.html#af91a6bbf085b69431a78d587a4cde9f0" target="_top" xlink:title=" ">
<polygon fill="#ffffff" stroke="#000000" points="385,-49.5 385,-79.5 510,-79.5 510,-49.5 385,-49.5"/>
<text text-anchor="start" x="393" y="-67.5" font-family="Helvetica,sans-Serif" font-size="10.00" fill="#000000">ConnectorsInfoWidget</text>
<text text-anchor="middle" x="447.5" y="-56.5" font-family="Helvetica,sans-Serif" font-size="10.00" fill="#000000">::completeConn</text>
</a>
</g>
</g>
<!-- Node78&#45;&gt;Node84 -->
<g id="edge12" class="edge">
<title>Node78&#45;&gt;Node84</title>
<path fill="none" stroke="#191970" d="M791.27,-107.3659C777.2588,-104.5063 762.7195,-101.7447 749,-99.5 666.8339,-86.0568 571.2441,-75.8754 510.0992,-70.0502"/>
<polygon fill="#191970" stroke="#191970" points="790.8572,-110.8548 801.3598,-109.4595 792.2794,-104.0008 790.8572,-110.8548"/>
</g>
<!-- Node80 -->
<g id="node3" class="node">
<title>Node80</title>
<g id="a_node3"><a xlink:href="../../db/d0e/classConnectorsInfoWidget.html#a969bd2f4e4f354da9ff6c03abd97d93e" target="_top" xlink:title=" ">
<polygon fill="#ffffff" stroke="#000000" points="0,-142.5 0,-172.5 125,-172.5 125,-142.5 0,-142.5"/>
<text text-anchor="start" x="8" y="-160.5" font-family="Helvetica,sans-Serif" font-size="10.00" fill="#000000">ConnectorsInfoWidget</text>
<text text-anchor="middle" x="62.5" y="-149.5" font-family="Helvetica,sans-Serif" font-size="10.00" fill="#000000">::syncNewConnectors</text>
</a>
</g>
</g>
<!-- Node79&#45;&gt;Node80 -->
<g id="edge2" class="edge">
<title>Node79&#45;&gt;Node80</title>
<path fill="none" stroke="#191970" d="M362.8517,-193.4627C305.7642,-187.8393 228.7775,-179.8623 161,-171.5 149.4288,-170.0723 137.1115,-168.4242 125.2462,-166.7712"/>
<polygon fill="#191970" stroke="#191970" points="362.6191,-196.9566 372.9131,-194.4497 363.3026,-189.99 362.6191,-196.9566"/>
</g>
<!-- Node81&#45;&gt;Node79 -->
<g id="edge4" class="edge">
<title>Node81&#45;&gt;Node79</title>
<path fill="none" stroke="#191970" d="M603.6151,-143.1463C568.1428,-156.4053 521.0995,-173.9895 487.958,-186.3774"/>
<polygon fill="#191970" stroke="#191970" points="605.1505,-146.309 613.2921,-139.5292 602.6996,-139.752 605.1505,-146.309"/>
</g>
<!-- Node81&#45;&gt;Node80 -->
<g id="edge5" class="edge">
<title>Node81&#45;&gt;Node80</title>
<path fill="none" stroke="#191970" d="M547.5444,-136.3797C538.9083,-137.1654 530.3107,-137.8864 522,-138.5 380.2661,-148.964 213.4813,-154.0623 125.0046,-156.1976"/>
<polygon fill="#191970" stroke="#191970" points="548.055,-139.8473 557.6851,-135.4303 547.4024,-132.8778 548.055,-139.8473"/>
</g>
<!-- Node82 -->
<g id="node5" class="node">
<title>Node82</title>
<g id="a_node5"><a xlink:href="../../db/d0e/classConnectorsInfoWidget.html#a235a6f12e8c768cc5130c8292b8f531c" target="_top" xlink:title=" ">
<polygon fill="#ffffff" stroke="#000000" points="385,-98.5 385,-128.5 510,-128.5 510,-98.5 385,-98.5"/>
<text text-anchor="start" x="393" y="-116.5" font-family="Helvetica,sans-Serif" font-size="10.00" fill="#000000">ConnectorsInfoWidget</text>
<text text-anchor="middle" x="447.5" y="-105.5" font-family="Helvetica,sans-Serif" font-size="10.00" fill="#000000">::removeConnector</text>
</a>
</g>
</g>
<!-- Node81&#45;&gt;Node82 -->
<g id="edge6" class="edge">
<title>Node81&#45;&gt;Node82</title>
<path fill="none" stroke="#191970" d="M547.4807,-118.8388C534.6899,-118.1558 521.9612,-117.4761 510.0845,-116.8419"/>
<polygon fill="#191970" stroke="#191970" points="547.5644,-122.3481 557.7369,-119.3864 547.9378,-115.3581 547.5644,-122.3481"/>
</g>
<!-- Node81&#45;&gt;Node84 -->
<g id="edge8" class="edge">
<title>Node81&#45;&gt;Node84</title>
<path fill="none" stroke="#191970" d="M591.9876,-106.5838C562.4313,-97.9751 527.4027,-87.7726 499.2379,-79.5693"/>
<polygon fill="#191970" stroke="#191970" points="591.2036,-110.0008 601.7834,-109.4369 593.1611,-103.2801 591.2036,-110.0008"/>
</g>
<!-- Node83 -->
<g id="node6" class="node">
<title>Node83</title>
<g id="a_node6"><a xlink:href="../../db/d0e/classConnectorsInfoWidget.html#a966182da46f0fdff9905e45edce40ec6" target="_top" xlink:title=" ">
<polygon fill="#ffffff" stroke="#000000" points="173,-98.5 173,-128.5 325,-128.5 325,-98.5 173,-98.5"/>
<text text-anchor="start" x="181" y="-116.5" font-family="Helvetica,sans-Serif" font-size="10.00" fill="#000000">ConnectorsInfoWidget</text>
<text text-anchor="middle" x="249" y="-105.5" font-family="Helvetica,sans-Serif" font-size="10.00" fill="#000000">::removeSelectedConnector</text>
</a>
</g>
</g>
<!-- Node82&#45;&gt;Node83 -->
<g id="edge7" class="edge">
<title>Node82&#45;&gt;Node83</title>
<path fill="none" stroke="#191970" d="M374.5531,-113.5C358.46,-113.5 341.3726,-113.5 325.156,-113.5"/>
<polygon fill="#191970" stroke="#191970" points="374.9658,-117.0001 384.9658,-113.5 374.9658,-110.0001 374.9658,-117.0001"/>
</g>
<!-- Node85 -->
<g id="node8" class="node">
<title>Node85</title>
<g id="a_node8"><a xlink:href="../../db/d0e/classConnectorsInfoWidget.html#a16078b612943e526e643242788055509" target="_top" xlink:title=" ">
<polygon fill="#ffffff" stroke="#000000" points="163,-49.5 163,-79.5 335,-79.5 335,-49.5 163,-49.5"/>
<text text-anchor="start" x="171" y="-67.5" font-family="Helvetica,sans-Serif" font-size="10.00" fill="#000000">ConnectorsInfoWidget</text>
<text text-anchor="middle" x="249" y="-56.5" font-family="Helvetica,sans-Serif" font-size="10.00" fill="#000000">::addMismatchingConnectorInfo</text>
</a>
</g>
</g>
<!-- Node84&#45;&gt;Node85 -->
<g id="edge9" class="edge">
<title>Node84&#45;&gt;Node85</title>
<path fill="none" stroke="#191970" d="M374.7953,-64.5C361.9188,-64.5 348.3989,-64.5 335.1928,-64.5"/>
<polygon fill="#191970" stroke="#191970" points="374.9658,-68.0001 384.9658,-64.5 374.9658,-61.0001 374.9658,-68.0001"/>
</g>
<!-- Node86 -->
<g id="node9" class="node">
<title>Node86</title>
<g id="a_node9"><a xlink:href="../../db/d0e/classConnectorsInfoWidget.html#a147532410986de2b99a0697357911b57" target="_top" xlink:title=" ">
<polygon fill="#ffffff" stroke="#000000" points="161,-.5 161,-30.5 337,-30.5 337,-.5 161,-.5"/>
<text text-anchor="start" x="169" y="-18.5" font-family="Helvetica,sans-Serif" font-size="10.00" fill="#000000">ConnectorsInfoWidget</text>
<text text-anchor="middle" x="249" y="-7.5" font-family="Helvetica,sans-Serif" font-size="10.00" fill="#000000">::singleToMismatchingNotInView</text>
</a>
</g>
</g>
<!-- Node84&#45;&gt;Node86 -->
<g id="edge10" class="edge">
<title>Node84&#45;&gt;Node86</title>
<path fill="none" stroke="#191970" d="M376.7012,-47.0232C354.8228,-41.6225 330.9297,-35.7245 309.7904,-30.5062"/>
<polygon fill="#191970" stroke="#191970" points="376.0471,-50.4667 386.5945,-49.4654 377.7247,-43.6707 376.0471,-50.4667"/>
</g>
<!-- Node86&#45;&gt;Node80 -->
<g id="edge11" class="edge">
<title>Node86&#45;&gt;Node80</title>
<path fill="none" stroke="#191970" d="M169.0535,-34.8598C166.277,-36.2982 163.5819,-37.8424 161,-39.5 119.0075,-66.4597 85.8053,-116.9959 70.9579,-142.2796"/>
<polygon fill="#191970" stroke="#191970" points="170.5727,-38.0133 178.1581,-30.6165 167.6157,-31.6685 170.5727,-38.0133"/>
</g>
</g>
</svg>
