<?xml version="1.0" encoding="UTF-8" standalone="no"?>
<!DOCTYPE svg PUBLIC "-//W3C//DTD SVG 1.1//EN"
 "http://www.w3.org/Graphics/SVG/1.1/DTD/svg11.dtd">
<!-- Generated by graphviz version 2.40.1 (0)
 -->
<!-- Title: MismatchingConnectorWidget::addViewPresence Pages: 1 -->
<svg width="378pt" height="88pt"
 viewBox="0.00 0.00 378.00 88.00" xmlns="http://www.w3.org/2000/svg" xmlns:xlink="http://www.w3.org/1999/xlink">
<g id="graph0" class="graph" transform="scale(1 1) rotate(0) translate(4 84)">
<title>MismatchingConnectorWidget::addViewPresence</title>
<polygon fill="#ffffff" stroke="transparent" points="-4,4 -4,-84 374,-84 374,4 -4,4"/>
<!-- Node11 -->
<g id="node1" class="node">
<title>Node11</title>
<g id="a_node1"><a xlink:title=" ">
<polygon fill="#bfbfbf" stroke="#000000" points="206,-24.5 206,-54.5 370,-54.5 370,-24.5 206,-24.5"/>
<text text-anchor="start" x="214" y="-42.5" font-family="Helvetica,sans-Serif" font-size="10.00" fill="#000000">MismatchingConnectorWidget</text>
<text text-anchor="middle" x="288" y="-31.5" font-family="Helvetica,sans-Serif" font-size="10.00" fill="#000000">::addViewPresence</text>
</a>
</g>
</g>
<!-- Node12 -->
<g id="node2" class="node">
<title>Node12</title>
<g id="a_node2"><a xlink:href="../../db/d0e/classConnectorsInfoWidget.html#a969bd2f4e4f354da9ff6c03abd97d93e" target="_top" xlink:title=" ">
<polygon fill="#ffffff" stroke="#000000" points="22.5,-49.5 22.5,-79.5 147.5,-79.5 147.5,-49.5 22.5,-49.5"/>
<text text-anchor="start" x="30.5" y="-67.5" font-family="Helvetica,sans-Serif" font-size="10.00" fill="#000000">ConnectorsInfoWidget</text>
<text text-anchor="middle" x="85" y="-56.5" font-family="Helvetica,sans-Serif" font-size="10.00" fill="#000000">::syncNewConnectors</text>
</a>
</g>
</g>
<!-- Node11&#45;&gt;Node12 -->
<g id="edge1" class="edge">
<title>Node11&#45;&gt;Node12</title>
<path fill="none" stroke="#191970" d="M195.6802,-50.8694C179.4586,-52.8672 162.9216,-54.9037 147.745,-56.7728"/>
<polygon fill="#191970" stroke="#191970" points="196.2276,-54.3286 205.7248,-49.6324 195.3719,-47.381 196.2276,-54.3286"/>
</g>
<!-- Node13 -->
<g id="node3" class="node">
<title>Node13</title>
<g id="a_node3"><a xlink:href="../../d3/d4a/classMismatchingConnectorWidget.html#af96797dab5a7096d66049ca73d172734" target="_top" xlink:title=" ">
<polygon fill="#ffffff" stroke="#000000" points="0,-.5 0,-30.5 170,-30.5 170,-.5 0,-.5"/>
<text text-anchor="start" x="8" y="-18.5" font-family="Helvetica,sans-Serif" font-size="10.00" fill="#000000">MismatchingConnectorWidget</text>
<text text-anchor="middle" x="85" y="-7.5" font-family="Helvetica,sans-Serif" font-size="10.00" fill="#000000">::MismatchingConnectorWidget</text>
</a>
</g>
</g>
<!-- Node11&#45;&gt;Node13 -->
<g id="edge2" class="edge">
<title>Node11&#45;&gt;Node13</title>
<path fill="none" stroke="#191970" d="M195.7324,-28.5915C187.1733,-27.5796 178.5258,-26.5572 170.0363,-25.5536"/>
<polygon fill="#191970" stroke="#191970" points="195.383,-32.0745 205.7248,-29.7729 196.2049,-25.1229 195.383,-32.0745"/>
</g>
</g>
</svg>
