<?xml version="1.0" encoding="UTF-8" standalone="no"?>
<!DOCTYPE svg PUBLIC "-//W3C//DTD SVG 1.1//EN"
 "http://www.w3.org/Graphics/SVG/1.1/DTD/svg11.dtd">
<!-- Generated by graphviz version 2.40.1 (0)
 -->
<!-- Title: unzOpenCurrentFile2 Pages: 1 -->
<!--zoomable 254 -->
<svg id="main" version="1.1" xmlns="http://www.w3.org/2000/svg" xmlns:xlink="http://www.w3.org/1999/xlink" xml:space="preserve" onload="init(evt)">
<style type="text/css"><![CDATA[
.edge:hover path { stroke: red; }
.edge:hover polygon { stroke: red; fill: red; }
]]></style>
<script type="text/javascript"><![CDATA[
var edges = document.getElementsByTagName('g');
if (edges && edges.length) {
  for (var i=0;i<edges.length;i++) {
    if (edges[i].id.substr(0,4)=='edge') {
      edges[i].setAttribute('class','edge');
    }
  }
}
]]></script>
        <defs>
                <circle id="rim" cx="0" cy="0" r="7"/>
                <circle id="rim2" cx="0" cy="0" r="3.5"/>
                <g id="zoomPlus">
                        <use xlink:href="#rim" fill="#404040">
                                <set attributeName="fill" to="#808080" begin="zoomplus.mouseover" end="zoomplus.mouseout"/>
                        </use>
                        <path d="M-4,0h8M0,-4v8" fill="none" stroke="white" stroke-width="1.5" pointer-events="none"/>
                </g>
                <g id="zoomMin">
                        <use xlink:href="#rim" fill="#404040">
                                <set attributeName="fill" to="#808080" begin="zoomminus.mouseover" end="zoomminus.mouseout"/>
                        </use>
                        <path d="M-4,0h8" fill="none" stroke="white" stroke-width="1.5" pointer-events="none"/>
                </g>
                <g id="dirArrow">
                        <path fill="none" stroke="white" stroke-width="1.5" d="M0,-3.0v7 M-2.5,-0.5L0,-3.0L2.5,-0.5"/>
                </g>
               <g id="resetDef">
                       <use xlink:href="#rim2" fill="#404040">
                               <set attributeName="fill" to="#808080" begin="reset.mouseover" end="reset.mouseout"/>
                       </use>
               </g>
        </defs>

<script type="text/javascript">
var viewWidth = 806;
var viewHeight = 254;
var sectionId = 'dynsection-35';
</script>
<script xlink:href="../../svgpan.js"/>
<svg id="graph" class="graph">
<g id="viewport">
<title>unzOpenCurrentFile2</title>
<polygon fill="#ffffff" stroke="transparent" points="-4,4 -4,-250.2723 802,-250.2723 802,4 -4,4"/>
<!-- Node1481 -->
<g id="node1" class="node">
<title>Node1481</title>
<g id="a_node1"><a xlink:title=" ">
<polygon fill="#bfbfbf" stroke="#000000" points="0,-95.5 0,-114.5 119,-114.5 119,-95.5 0,-95.5"/>
<text text-anchor="middle" x="59.5" y="-102.5" font-family="Helvetica,sans-Serif" font-size="10.00" fill="#000000">unzOpenCurrentFile2</text>
</a>
</g>
</g>
<!-- Node1482 -->
<g id="node2" class="node">
<title>Node1482</title>
<g id="a_node2"><a xlink:href="../../d6/da7/unzip_8c.html#a5eb86267fb9a5e4f52a123df606b2af5" target="_top" xlink:title=" ">
<polygon fill="#ffffff" stroke="#000000" points="155,-95.5 155,-114.5 274,-114.5 274,-95.5 155,-95.5"/>
<text text-anchor="middle" x="214.5" y="-102.5" font-family="Helvetica,sans-Serif" font-size="10.00" fill="#000000">unzOpenCurrentFile3</text>
</a>
</g>
</g>
<!-- Node1481&#45;&gt;Node1482 -->
<g id="edge1" class="edge">
<title>Node1481&#45;&gt;Node1482</title>
<path fill="none" stroke="#191970" d="M119.427,-105C127.7244,-105 136.3054,-105 144.7618,-105"/>
<polygon fill="#191970" stroke="#191970" points="144.9877,-108.5001 154.9877,-105 144.9877,-101.5001 144.9877,-108.5001"/>
</g>
<!-- Node1483 -->
<g id="node3" class="node">
<title>Node1483</title>
<g id="a_node3"><a xlink:href="../../d2/db7/ioapi_8h.html#a50e9e9d5c30e481de822ad68fe537986" target="_top" xlink:title=" ">
<polygon fill="#ffffff" stroke="#000000" points="659.5,-209.5 659.5,-228.5 705.5,-228.5 705.5,-209.5 659.5,-209.5"/>
<text text-anchor="middle" x="682.5" y="-216.5" font-family="Helvetica,sans-Serif" font-size="10.00" fill="#000000">uLong</text>
</a>
</g>
</g>
<!-- Node1482&#45;&gt;Node1483 -->
<g id="edge2" class="edge">
<title>Node1482&#45;&gt;Node1483</title>
<path fill="none" stroke="#191970" d="M220.1765,-114.7897C233.0745,-136.0304 266.8431,-186.2605 310,-209 422.1875,-268.112 580.959,-242.5651 649.2064,-227.347"/>
<polygon fill="#191970" stroke="#191970" points="650.4023,-230.6633 659.3614,-225.0079 648.831,-223.8419 650.4023,-230.6633"/>
</g>
<!-- Node1484 -->
<g id="node4" class="node">
<title>Node1484</title>
<g id="a_node4"><a xlink:href="../../d6/da7/unzip_8c.html#ac48279e5325cfdabbc67a312b1d32700" target="_top" xlink:title=" ">
<polygon fill="#ffffff" stroke="#000000" points="326,-38.5 326,-57.5 440,-57.5 440,-38.5 326,-38.5"/>
<text text-anchor="middle" x="383" y="-45.5" font-family="Helvetica,sans-Serif" font-size="10.00" fill="#000000">unzCloseCurrentFile</text>
</a>
</g>
</g>
<!-- Node1482&#45;&gt;Node1484 -->
<g id="edge3" class="edge">
<title>Node1482&#45;&gt;Node1484</title>
<path fill="none" stroke="#191970" d="M242.0445,-95.359C261.1018,-88.7189 287.0609,-79.7336 310,-72 320.9372,-68.3127 332.8193,-64.3765 343.7585,-60.7809"/>
<polygon fill="#191970" stroke="#191970" points="345.0739,-64.0331 353.4856,-57.5915 342.8928,-57.3815 345.0739,-64.0331"/>
</g>
<!-- Node1485 -->
<g id="node5" class="node">
<title>Node1485</title>
<g id="a_node5"><a xlink:href="../../d6/da7/unzip_8c.html#a2bcb543c18d44ff234d01f725d7a54ee" target="_top" xlink:title=" ">
<polygon fill="#ffffff" stroke="#000000" points="310,-169 310,-199 456,-199 456,-169 310,-169"/>
<text text-anchor="start" x="318" y="-187" font-family="Helvetica,sans-Serif" font-size="10.00" fill="#000000">unzlocal_CheckCurrentFile</text>
<text text-anchor="middle" x="383" y="-176" font-family="Helvetica,sans-Serif" font-size="10.00" fill="#000000">CoherencyHeader</text>
</a>
</g>
</g>
<!-- Node1482&#45;&gt;Node1485 -->
<g id="edge4" class="edge">
<title>Node1482&#45;&gt;Node1485</title>
<path fill="none" stroke="#191970" d="M234.825,-114.5292C261.1479,-126.8705 307.6675,-148.6809 341.5774,-164.5793"/>
<polygon fill="#191970" stroke="#191970" points="340.24,-167.8178 350.7801,-168.8939 343.2116,-161.4798 340.24,-167.8178"/>
</g>
<!-- Node1488 -->
<g id="node8" class="node">
<title>Node1488</title>
<g id="a_node8"><a xlink:href="../../d2/db7/ioapi_8h.html#a787fa3cf048117ba7123753c1e74fcd6" target="_top" xlink:title=" ">
<polygon fill="#ffffff" stroke="#000000" points="769,-114.5 769,-133.5 798,-133.5 798,-114.5 769,-114.5"/>
<text text-anchor="middle" x="783.5" y="-121.5" font-family="Helvetica,sans-Serif" font-size="10.00" fill="#000000">int</text>
</a>
</g>
</g>
<!-- Node1482&#45;&gt;Node1488 -->
<g id="edge13" class="edge">
<title>Node1482&#45;&gt;Node1488</title>
<path fill="none" stroke="#191970" d="M274.2175,-98.1229C371.3406,-88.469 569.1563,-75.1977 733,-105 741.9109,-106.6208 751.2944,-109.7276 759.5224,-112.9667"/>
<polygon fill="#191970" stroke="#191970" points="758.3009,-116.2498 768.8762,-116.8923 761.0098,-109.7951 758.3009,-116.2498"/>
</g>
<!-- Node1490 -->
<g id="node10" class="node">
<title>Node1490</title>
<g id="a_node10"><a xlink:href="../../d2/db7/ioapi_8h.html#a39ab6d73c1cd44bc17064c2dcbb3e753" target="_top" xlink:title=" ">
<polygon fill="#ffffff" stroke="#000000" points="359.5,-.5 359.5,-19.5 406.5,-19.5 406.5,-.5 359.5,-.5"/>
<text text-anchor="middle" x="383" y="-7.5" font-family="Helvetica,sans-Serif" font-size="10.00" fill="#000000">voidpf</text>
</a>
</g>
</g>
<!-- Node1482&#45;&gt;Node1490 -->
<g id="edge14" class="edge">
<title>Node1482&#45;&gt;Node1490</title>
<path fill="none" stroke="#191970" d="M223.8485,-95.2728C239.9356,-79.1001 274.5549,-46.7117 310,-29 322.294,-22.8567 336.7762,-18.5572 349.5865,-15.6222"/>
<polygon fill="#191970" stroke="#191970" points="350.3627,-19.0356 359.4279,-13.5518 348.9215,-12.1856 350.3627,-19.0356"/>
</g>
<!-- Node1491 -->
<g id="node11" class="node">
<title>Node1491</title>
<g id="a_node11"><a xlink:href="../../df/d4d/crypt_8h.html#a94fdfecb4e9befa8cebfca6a04ed67b3" target="_top" xlink:title=" ">
<polygon fill="#ffffff" stroke="#000000" points="514,-114.5 514,-133.5 574,-133.5 574,-114.5 514,-114.5"/>
<text text-anchor="middle" x="544" y="-121.5" font-family="Helvetica,sans-Serif" font-size="10.00" fill="#000000">init_keys</text>
</a>
</g>
</g>
<!-- Node1482&#45;&gt;Node1491 -->
<g id="edge15" class="edge">
<title>Node1482&#45;&gt;Node1491</title>
<path fill="none" stroke="#191970" d="M274.17,-108.4408C340.6881,-112.2764 446.4295,-118.3738 503.7952,-121.6817"/>
<polygon fill="#191970" stroke="#191970" points="503.7384,-125.1841 513.9233,-122.2657 504.1414,-118.1957 503.7384,-125.1841"/>
</g>
<!-- Node1485&#45;&gt;Node1483 -->
<g id="edge5" class="edge">
<title>Node1485&#45;&gt;Node1483</title>
<path fill="none" stroke="#191970" d="M420.134,-199.0954C440.8922,-206.7212 467.4551,-215.156 492,-219 546.656,-227.5598 611.2196,-224.9335 649.4082,-222.0847"/>
<polygon fill="#191970" stroke="#191970" points="649.7595,-225.5679 659.4498,-221.2844 649.2033,-218.59 649.7595,-225.5679"/>
</g>
<!-- Node1486 -->
<g id="node6" class="node">
<title>Node1486</title>
<g id="a_node6"><a xlink:href="../../d6/da7/unzip_8c.html#adf85ae30e9d93b75f7980750f9696a9a" target="_top" xlink:title=" ">
<polygon fill="#ffffff" stroke="#000000" points="493.5,-190.5 493.5,-209.5 594.5,-209.5 594.5,-190.5 493.5,-190.5"/>
<text text-anchor="middle" x="544" y="-197.5" font-family="Helvetica,sans-Serif" font-size="10.00" fill="#000000">unzlocal_getLong</text>
</a>
</g>
</g>
<!-- Node1485&#45;&gt;Node1486 -->
<g id="edge6" class="edge">
<title>Node1485&#45;&gt;Node1486</title>
<path fill="none" stroke="#191970" d="M456.4329,-191.2977C465.3742,-192.1863 474.4327,-193.0865 483.1626,-193.954"/>
<polygon fill="#191970" stroke="#191970" points="482.9358,-197.4487 493.233,-194.9548 483.6282,-190.483 482.9358,-197.4487"/>
</g>
<!-- Node1489 -->
<g id="node9" class="node">
<title>Node1489</title>
<g id="a_node9"><a xlink:href="../../d6/da7/unzip_8c.html#a6e42c868757990ea103d34619e3f5fa2" target="_top" xlink:title=" ">
<polygon fill="#ffffff" stroke="#000000" points="492,-152.5 492,-171.5 596,-171.5 596,-152.5 492,-152.5"/>
<text text-anchor="middle" x="544" y="-159.5" font-family="Helvetica,sans-Serif" font-size="10.00" fill="#000000">unzlocal_getShort</text>
</a>
</g>
</g>
<!-- Node1485&#45;&gt;Node1489 -->
<g id="edge10" class="edge">
<title>Node1485&#45;&gt;Node1489</title>
<path fill="none" stroke="#191970" d="M456.4329,-173.9657C464.9233,-172.8055 473.5193,-171.6309 481.8392,-170.494"/>
<polygon fill="#191970" stroke="#191970" points="482.3912,-173.9512 491.8252,-169.1295 481.4434,-167.0157 482.3912,-173.9512"/>
</g>
<!-- Node1486&#45;&gt;Node1483 -->
<g id="edge7" class="edge">
<title>Node1486&#45;&gt;Node1483</title>
<path fill="none" stroke="#191970" d="M594.7858,-206.967C612.8983,-209.4518 632.8288,-212.1859 649.1082,-214.4192"/>
<polygon fill="#191970" stroke="#191970" points="648.8401,-217.9151 659.2231,-215.8068 649.7916,-210.9801 648.8401,-217.9151"/>
</g>
<!-- Node1487 -->
<g id="node7" class="node">
<title>Node1487</title>
<g id="a_node7"><a xlink:href="../../d6/da7/unzip_8c.html#a5ebba7e31a1d05c7283915a397b4b3d0" target="_top" xlink:title=" ">
<polygon fill="#ffffff" stroke="#000000" points="632,-152.5 632,-171.5 733,-171.5 733,-152.5 632,-152.5"/>
<text text-anchor="middle" x="682.5" y="-159.5" font-family="Helvetica,sans-Serif" font-size="10.00" fill="#000000">unzlocal_getByte</text>
</a>
</g>
</g>
<!-- Node1486&#45;&gt;Node1487 -->
<g id="edge8" class="edge">
<title>Node1486&#45;&gt;Node1487</title>
<path fill="none" stroke="#191970" d="M578.9494,-190.411C596.8284,-185.5056 618.7884,-179.4804 637.8778,-174.2429"/>
<polygon fill="#191970" stroke="#191970" points="638.8443,-177.6072 647.5618,-171.5859 636.9921,-170.8566 638.8443,-177.6072"/>
</g>
<!-- Node1487&#45;&gt;Node1488 -->
<g id="edge9" class="edge">
<title>Node1487&#45;&gt;Node1488</title>
<path fill="none" stroke="#191970" d="M707.9866,-152.411C723.806,-146.4591 744.0066,-138.8589 759.5333,-133.0172"/>
<polygon fill="#191970" stroke="#191970" points="760.8417,-136.2645 768.9687,-129.4672 758.3767,-129.7129 760.8417,-136.2645"/>
</g>
<!-- Node1489&#45;&gt;Node1483 -->
<g id="edge11" class="edge">
<title>Node1489&#45;&gt;Node1483</title>
<path fill="none" stroke="#191970" d="M571.1133,-171.5373C579.1637,-174.4684 587.9735,-177.7744 596,-181 614.9567,-188.6182 635.9435,-197.8187 652.4974,-205.2584"/>
<polygon fill="#191970" stroke="#191970" points="651.129,-208.4808 661.683,-209.4101 654.0121,-202.102 651.129,-208.4808"/>
</g>
<!-- Node1489&#45;&gt;Node1487 -->
<g id="edge12" class="edge">
<title>Node1489&#45;&gt;Node1487</title>
<path fill="none" stroke="#191970" d="M596.3609,-162C604.6388,-162 613.2596,-162 621.7099,-162"/>
<polygon fill="#191970" stroke="#191970" points="621.8982,-165.5001 631.8982,-162 621.8981,-158.5001 621.8982,-165.5001"/>
</g>
<!-- Node1492 -->
<g id="node12" class="node">
<title>Node1492</title>
<g id="a_node12"><a xlink:href="../../df/d4d/crypt_8h.html#a02bf289cd0d1f899311675e0b3e508d0" target="_top" xlink:title=" ">
<polygon fill="#ffffff" stroke="#000000" points="643.5,-114.5 643.5,-133.5 721.5,-133.5 721.5,-114.5 643.5,-114.5"/>
<text text-anchor="middle" x="682.5" y="-121.5" font-family="Helvetica,sans-Serif" font-size="10.00" fill="#000000">update_keys</text>
</a>
</g>
</g>
<!-- Node1491&#45;&gt;Node1492 -->
<g id="edge16" class="edge">
<title>Node1491&#45;&gt;Node1492</title>
<path fill="none" stroke="#191970" d="M574.0524,-124C591.3284,-124 613.4574,-124 633.2154,-124"/>
<polygon fill="#191970" stroke="#191970" points="633.2932,-127.5001 643.2932,-124 633.2931,-120.5001 633.2932,-127.5001"/>
</g>
<!-- Node1492&#45;&gt;Node1488 -->
<g id="edge17" class="edge">
<title>Node1492&#45;&gt;Node1488</title>
<path fill="none" stroke="#191970" d="M721.5492,-124C734.0391,-124 747.5154,-124 758.6992,-124"/>
<polygon fill="#191970" stroke="#191970" points="758.9973,-127.5001 768.9973,-124 758.9972,-120.5001 758.9973,-127.5001"/>
</g>
</g>
</svg>
        <g id="navigator" transform="translate(0 0)" fill="#404254">
                <rect fill="#f2f5e9" fill-opacity="0.5" stroke="#606060" stroke-width=".5" x="0" y="0" width="60" height="60"/>
                <use id="zoomplus" xlink:href="#zoomPlus" x="17" y="9" onmousedown="handleZoom(evt,'in')"/>
                <use id="zoomminus" xlink:href="#zoomMin" x="42" y="9" onmousedown="handleZoom(evt,'out')"/>
                <use id="reset" xlink:href="#resetDef" x="30" y="36" onmousedown="handleReset()"/>
                <g id="arrowUp" xlink:href="#dirArrow" transform="translate(30 24)" onmousedown="handlePan(0,-1)">
                  <use xlink:href="#rim" fill="#404040">
                        <set attributeName="fill" to="#808080" begin="arrowUp.mouseover" end="arrowUp.mouseout"/>
                  </use>
                  <path fill="none" stroke="white" stroke-width="1.5" d="M0,-3.0v7 M-2.5,-0.5L0,-3.0L2.5,-0.5"/>
                </g>
                <g id="arrowRight" xlink:href="#dirArrow" transform="rotate(90) translate(36 -43)" onmousedown="handlePan(1,0)">
                  <use xlink:href="#rim" fill="#404040">
                        <set attributeName="fill" to="#808080" begin="arrowRight.mouseover" end="arrowRight.mouseout"/>
                  </use>
                  <path fill="none" stroke="white" stroke-width="1.5" d="M0,-3.0v7 M-2.5,-0.5L0,-3.0L2.5,-0.5"/>
                </g>
                <g id="arrowDown" xlink:href="#dirArrow" transform="rotate(180) translate(-30 -48)" onmousedown="handlePan(0,1)">
                  <use xlink:href="#rim" fill="#404040">
                        <set attributeName="fill" to="#808080" begin="arrowDown.mouseover" end="arrowDown.mouseout"/>
                  </use>
                  <path fill="none" stroke="white" stroke-width="1.5" d="M0,-3.0v7 M-2.5,-0.5L0,-3.0L2.5,-0.5"/>
                </g>
                <g id="arrowLeft" xlink:href="#dirArrow" transform="rotate(270) translate(-36 17)" onmousedown="handlePan(-1,0)">
                  <use xlink:href="#rim" fill="#404040">
                        <set attributeName="fill" to="#808080" begin="arrowLeft.mouseover" end="arrowLeft.mouseout"/>
                  </use>
                  <path fill="none" stroke="white" stroke-width="1.5" d="M0,-3.0v7 M-2.5,-0.5L0,-3.0L2.5,-0.5"/>
                </g>
        </g>
        <svg viewBox="0 0 15 15" width="100%" height="30px" preserveAspectRatio="xMaxYMin meet">
         <g id="arrow_out" transform="scale(0.3 0.3)">
          <a xlink:href="unzip_8c_a5881cddc4d4941ff604508ee4a564c25_cgraph_org.svg" target="_base">
           <rect id="button" ry="5" rx="5" y="6" x="6" height="38" width="38"
                fill="#f2f5e9" fill-opacity="0.5" stroke="#606060" stroke-width="1.0"/>
           <path id="arrow"
             d="M 11.500037,31.436501 C 11.940474,20.09759 22.043105,11.32322 32.158766,21.979434 L 37.068811,17.246167 C 37.068811,17.246167 37.088388,32 37.088388,32 L 22.160133,31.978069 C 22.160133,31.978069 26.997745,27.140456 26.997745,27.140456 C 18.528582,18.264221 13.291696,25.230495 11.500037,31.436501 z"
             style="fill:#404040;"/>
          </a>
         </g>
        </svg>
</svg>
