<?xml version="1.0" encoding="UTF-8" standalone="no"?>
<!DOCTYPE svg PUBLIC "-//W3C//DTD SVG 1.1//EN"
 "http://www.w3.org/Graphics/SVG/1.1/DTD/svg11.dtd">
<!-- Generated by graphviz version 2.40.1 (0)
 -->
<!-- Title: unzLocateFile Pages: 1 -->
<!--zoomable 165 -->
<svg id="main" version="1.1" xmlns="http://www.w3.org/2000/svg" xmlns:xlink="http://www.w3.org/1999/xlink" xml:space="preserve" onload="init(evt)">
<style type="text/css"><![CDATA[
.edge:hover path { stroke: red; }
.edge:hover polygon { stroke: red; fill: red; }
]]></style>
<script type="text/javascript"><![CDATA[
var edges = document.getElementsByTagName('g');
if (edges && edges.length) {
  for (var i=0;i<edges.length;i++) {
    if (edges[i].id.substr(0,4)=='edge') {
      edges[i].setAttribute('class','edge');
    }
  }
}
]]></script>
        <defs>
                <circle id="rim" cx="0" cy="0" r="7"/>
                <circle id="rim2" cx="0" cy="0" r="3.5"/>
                <g id="zoomPlus">
                        <use xlink:href="#rim" fill="#404040">
                                <set attributeName="fill" to="#808080" begin="zoomplus.mouseover" end="zoomplus.mouseout"/>
                        </use>
                        <path d="M-4,0h8M0,-4v8" fill="none" stroke="white" stroke-width="1.5" pointer-events="none"/>
                </g>
                <g id="zoomMin">
                        <use xlink:href="#rim" fill="#404040">
                                <set attributeName="fill" to="#808080" begin="zoomminus.mouseover" end="zoomminus.mouseout"/>
                        </use>
                        <path d="M-4,0h8" fill="none" stroke="white" stroke-width="1.5" pointer-events="none"/>
                </g>
                <g id="dirArrow">
                        <path fill="none" stroke="white" stroke-width="1.5" d="M0,-3.0v7 M-2.5,-0.5L0,-3.0L2.5,-0.5"/>
                </g>
               <g id="resetDef">
                       <use xlink:href="#rim2" fill="#404040">
                               <set attributeName="fill" to="#808080" begin="reset.mouseover" end="reset.mouseout"/>
                       </use>
               </g>
        </defs>

<script type="text/javascript">
var viewWidth = 866;
var viewHeight = 165;
var sectionId = 'dynsection-30';
</script>
<script xlink:href="../../svgpan.js"/>
<svg id="graph" class="graph">
<g id="viewport">
<title>unzLocateFile</title>
<polygon fill="#ffffff" stroke="transparent" points="-4,4 -4,-161.2533 862,-161.2533 862,4 -4,4"/>
<!-- Node1329 -->
<g id="node1" class="node">
<title>Node1329</title>
<g id="a_node1"><a xlink:title=" ">
<polygon fill="#bfbfbf" stroke="#000000" points="0,-76.5 0,-95.5 83,-95.5 83,-76.5 0,-76.5"/>
<text text-anchor="middle" x="41.5" y="-83.5" font-family="Helvetica,sans-Serif" font-size="10.00" fill="#000000">unzLocateFile</text>
</a>
</g>
</g>
<!-- Node1330 -->
<g id="node2" class="node">
<title>Node1330</title>
<g id="a_node2"><a xlink:href="../../d2/db7/ioapi_8h.html#a50e9e9d5c30e481de822ad68fe537986" target="_top" xlink:title=" ">
<polygon fill="#ffffff" stroke="#000000" points="719.5,-76.5 719.5,-95.5 765.5,-95.5 765.5,-76.5 719.5,-76.5"/>
<text text-anchor="middle" x="742.5" y="-83.5" font-family="Helvetica,sans-Serif" font-size="10.00" fill="#000000">uLong</text>
</a>
</g>
</g>
<!-- Node1329&#45;&gt;Node1330 -->
<g id="edge1" class="edge">
<title>Node1329&#45;&gt;Node1330</title>
<path fill="none" stroke="#191970" d="M50.383,-95.6098C63.7246,-109.2546 90.4348,-133.6265 119,-143 201.5244,-170.0799 500.7629,-155.8539 656,-121 676.3485,-116.4313 698.1056,-107.6069 714.709,-99.9621"/>
<polygon fill="#191970" stroke="#191970" points="716.2997,-103.0815 723.8396,-95.6384 713.3038,-96.755 716.2997,-103.0815"/>
</g>
<!-- Node1331 -->
<g id="node3" class="node">
<title>Node1331</title>
<g id="a_node3"><a xlink:href="../../d6/da7/unzip_8c.html#ac99166540260b60340f4787af0a90029" target="_top" xlink:title=" ">
<polygon fill="#ffffff" stroke="#000000" points="134,-114.5 134,-133.5 257,-133.5 257,-114.5 134,-114.5"/>
<text text-anchor="middle" x="195.5" y="-121.5" font-family="Helvetica,sans-Serif" font-size="10.00" fill="#000000">unzGetCurrentFileInfo</text>
</a>
</g>
</g>
<!-- Node1329&#45;&gt;Node1331 -->
<g id="edge2" class="edge">
<title>Node1329&#45;&gt;Node1331</title>
<path fill="none" stroke="#191970" d="M80.3607,-95.589C100.5911,-100.5809 125.5207,-106.7324 147.0036,-112.0334"/>
<polygon fill="#191970" stroke="#191970" points="146.3714,-115.4823 156.9187,-114.4799 148.0485,-108.6861 146.3714,-115.4823"/>
</g>
<!-- Node1338 -->
<g id="node10" class="node">
<title>Node1338</title>
<g id="a_node10"><a xlink:href="../../d6/da7/unzip_8c.html#a54821c0b6da683800164a56f2ae14f33" target="_top" xlink:title=" ">
<polygon fill="#ffffff" stroke="#000000" points="147.5,-76.5 147.5,-95.5 243.5,-95.5 243.5,-76.5 147.5,-76.5"/>
<text text-anchor="middle" x="195.5" y="-83.5" font-family="Helvetica,sans-Serif" font-size="10.00" fill="#000000">unzGoToFirstFile</text>
</a>
</g>
</g>
<!-- Node1329&#45;&gt;Node1338 -->
<g id="edge14" class="edge">
<title>Node1329&#45;&gt;Node1338</title>
<path fill="none" stroke="#191970" d="M83.1746,-86C99.7827,-86 119.1901,-86 137.1558,-86"/>
<polygon fill="#191970" stroke="#191970" points="137.2471,-89.5001 147.2471,-86 137.247,-82.5001 137.2471,-89.5001"/>
</g>
<!-- Node1339 -->
<g id="node11" class="node">
<title>Node1339</title>
<g id="a_node11"><a xlink:href="../../d6/da7/unzip_8c.html#acb457ebeaee7cb850c11a4a3d4b58201" target="_top" xlink:title=" ">
<polygon fill="#ffffff" stroke="#000000" points="146.5,-38.5 146.5,-57.5 244.5,-57.5 244.5,-38.5 146.5,-38.5"/>
<text text-anchor="middle" x="195.5" y="-45.5" font-family="Helvetica,sans-Serif" font-size="10.00" fill="#000000">unzGoToNextFile</text>
</a>
</g>
</g>
<!-- Node1329&#45;&gt;Node1339 -->
<g id="edge16" class="edge">
<title>Node1329&#45;&gt;Node1339</title>
<path fill="none" stroke="#191970" d="M80.3607,-76.411C100.5911,-71.4191 125.5207,-65.2676 147.0036,-59.9666"/>
<polygon fill="#191970" stroke="#191970" points="148.0485,-63.3139 156.9187,-57.5201 146.3714,-56.5177 148.0485,-63.3139"/>
</g>
<!-- Node1340 -->
<g id="node12" class="node">
<title>Node1340</title>
<g id="a_node12"><a xlink:href="../../d6/da7/unzip_8c.html#aaf81e433f9a497102e477a59d783ae18" target="_top" xlink:title=" ">
<polygon fill="#ffffff" stroke="#000000" points="119,-.5 119,-19.5 272,-19.5 272,-.5 119,-.5"/>
<text text-anchor="middle" x="195.5" y="-7.5" font-family="Helvetica,sans-Serif" font-size="10.00" fill="#000000">unzStringFileNameCompare</text>
</a>
</g>
</g>
<!-- Node1329&#45;&gt;Node1340 -->
<g id="edge18" class="edge">
<title>Node1329&#45;&gt;Node1340</title>
<path fill="none" stroke="#191970" d="M51.6787,-76.4386C65.7373,-63.7468 92.3891,-41.4887 119,-29 124.2379,-26.5418 129.8325,-24.3773 135.5229,-22.4766"/>
<polygon fill="#191970" stroke="#191970" points="136.6124,-25.8034 145.144,-19.5215 134.5571,-19.1119 136.6124,-25.8034"/>
</g>
<!-- Node1332 -->
<g id="node4" class="node">
<title>Node1332</title>
<g id="a_node4"><a xlink:href="../../d6/da7/unzip_8c.html#a604f8ca20c251b1ae520a40cd1a688ad" target="_top" xlink:title=" ">
<polygon fill="#ffffff" stroke="#000000" points="308,-71 308,-101 460,-101 460,-71 308,-71"/>
<text text-anchor="start" x="316" y="-89" font-family="Helvetica,sans-Serif" font-size="10.00" fill="#000000">unzlocal_GetCurrentFileInfo</text>
<text text-anchor="middle" x="384" y="-78" font-family="Helvetica,sans-Serif" font-size="10.00" fill="#000000">Internal</text>
</a>
</g>
</g>
<!-- Node1331&#45;&gt;Node1332 -->
<g id="edge3" class="edge">
<title>Node1331&#45;&gt;Node1332</title>
<path fill="none" stroke="#191970" d="M243.0665,-114.411C260.1557,-110.966 279.9844,-106.9687 299.2752,-103.0798"/>
<polygon fill="#191970" stroke="#191970" points="300.1857,-106.4668 309.2968,-101.0595 298.8023,-99.6048 300.1857,-106.4668"/>
</g>
<!-- Node1332&#45;&gt;Node1330 -->
<g id="edge4" class="edge">
<title>Node1332&#45;&gt;Node1330</title>
<path fill="none" stroke="#191970" d="M460.2961,-100.7027C472.2055,-102.4879 484.4049,-104.0235 496,-105 566.8603,-110.9678 585.304,-112.6728 656,-105 673.8053,-103.0675 693.3162,-98.9599 709.2941,-95.0567"/>
<polygon fill="#191970" stroke="#191970" points="710.3924,-98.3893 719.2303,-92.5462 708.6775,-91.6026 710.3924,-98.3893"/>
</g>
<!-- Node1333 -->
<g id="node5" class="node">
<title>Node1333</title>
<g id="a_node5"><a xlink:href="../../d6/da7/unzip_8c.html#a2adf50ee682fe99e90f76e3b5c5aff19" target="_top" xlink:title=" ">
<polygon fill="#ffffff" stroke="#000000" points="496,-76.5 496,-95.5 656,-95.5 656,-76.5 496,-76.5"/>
<text text-anchor="middle" x="576" y="-83.5" font-family="Helvetica,sans-Serif" font-size="10.00" fill="#000000">unzlocal_DosDateToTmuDate</text>
</a>
</g>
</g>
<!-- Node1332&#45;&gt;Node1333 -->
<g id="edge5" class="edge">
<title>Node1332&#45;&gt;Node1333</title>
<path fill="none" stroke="#191970" d="M460.1592,-86C468.5874,-86 477.2289,-86 485.8083,-86"/>
<polygon fill="#191970" stroke="#191970" points="485.8348,-89.5001 495.8348,-86 485.8348,-82.5001 485.8348,-89.5001"/>
</g>
<!-- Node1334 -->
<g id="node6" class="node">
<title>Node1334</title>
<g id="a_node6"><a xlink:href="../../d6/da7/unzip_8c.html#adf85ae30e9d93b75f7980750f9696a9a" target="_top" xlink:title=" ">
<polygon fill="#ffffff" stroke="#000000" points="525.5,-38.5 525.5,-57.5 626.5,-57.5 626.5,-38.5 525.5,-38.5"/>
<text text-anchor="middle" x="576" y="-45.5" font-family="Helvetica,sans-Serif" font-size="10.00" fill="#000000">unzlocal_getLong</text>
</a>
</g>
</g>
<!-- Node1332&#45;&gt;Node1334 -->
<g id="edge7" class="edge">
<title>Node1332&#45;&gt;Node1334</title>
<path fill="none" stroke="#191970" d="M459.8835,-70.9814C479.2521,-67.148 499.7645,-63.0883 518.0724,-59.4648"/>
<polygon fill="#191970" stroke="#191970" points="518.8652,-62.8759 527.9953,-57.5009 517.5061,-56.0091 518.8652,-62.8759"/>
</g>
<!-- Node1337 -->
<g id="node9" class="node">
<title>Node1337</title>
<g id="a_node9"><a xlink:href="../../d6/da7/unzip_8c.html#a6e42c868757990ea103d34619e3f5fa2" target="_top" xlink:title=" ">
<polygon fill="#ffffff" stroke="#000000" points="524,-.5 524,-19.5 628,-19.5 628,-.5 524,-.5"/>
<text text-anchor="middle" x="576" y="-7.5" font-family="Helvetica,sans-Serif" font-size="10.00" fill="#000000">unzlocal_getShort</text>
</a>
</g>
</g>
<!-- Node1332&#45;&gt;Node1337 -->
<g id="edge11" class="edge">
<title>Node1332&#45;&gt;Node1337</title>
<path fill="none" stroke="#191970" d="M409.4613,-70.831C431.6652,-58.1481 465.0749,-40.3577 496,-29 502.9879,-26.4336 510.4486,-24.1243 517.8993,-22.074"/>
<polygon fill="#191970" stroke="#191970" points="518.857,-25.4413 527.6479,-19.5278 517.088,-18.6685 518.857,-25.4413"/>
</g>
<!-- Node1333&#45;&gt;Node1330 -->
<g id="edge6" class="edge">
<title>Node1333&#45;&gt;Node1330</title>
<path fill="none" stroke="#191970" d="M656.3238,-86C674.9266,-86 693.7245,-86 708.9958,-86"/>
<polygon fill="#191970" stroke="#191970" points="709.4391,-89.5001 719.4391,-86 709.4391,-82.5001 709.4391,-89.5001"/>
</g>
<!-- Node1334&#45;&gt;Node1330 -->
<g id="edge8" class="edge">
<title>Node1334&#45;&gt;Node1330</title>
<path fill="none" stroke="#191970" d="M618.015,-57.589C646.4207,-64.072 683.3953,-72.5106 709.6482,-78.5023"/>
<polygon fill="#191970" stroke="#191970" points="708.9628,-81.9358 719.491,-80.7487 710.5204,-75.1113 708.9628,-81.9358"/>
</g>
<!-- Node1335 -->
<g id="node7" class="node">
<title>Node1335</title>
<g id="a_node7"><a xlink:href="../../d6/da7/unzip_8c.html#a5ebba7e31a1d05c7283915a397b4b3d0" target="_top" xlink:title=" ">
<polygon fill="#ffffff" stroke="#000000" points="692,-19.5 692,-38.5 793,-38.5 793,-19.5 692,-19.5"/>
<text text-anchor="middle" x="742.5" y="-26.5" font-family="Helvetica,sans-Serif" font-size="10.00" fill="#000000">unzlocal_getByte</text>
</a>
</g>
</g>
<!-- Node1334&#45;&gt;Node1335 -->
<g id="edge9" class="edge">
<title>Node1334&#45;&gt;Node1335</title>
<path fill="none" stroke="#191970" d="M626.8602,-42.1961C644.2088,-40.2164 663.7807,-37.983 681.8226,-35.9242"/>
<polygon fill="#191970" stroke="#191970" points="682.4126,-39.3796 691.9513,-34.7683 681.6189,-32.4248 682.4126,-39.3796"/>
</g>
<!-- Node1336 -->
<g id="node8" class="node">
<title>Node1336</title>
<g id="a_node8"><a xlink:href="../../d2/db7/ioapi_8h.html#a787fa3cf048117ba7123753c1e74fcd6" target="_top" xlink:title=" ">
<polygon fill="#ffffff" stroke="#000000" points="829,-19.5 829,-38.5 858,-38.5 858,-19.5 829,-19.5"/>
<text text-anchor="middle" x="843.5" y="-26.5" font-family="Helvetica,sans-Serif" font-size="10.00" fill="#000000">int</text>
</a>
</g>
</g>
<!-- Node1335&#45;&gt;Node1336 -->
<g id="edge10" class="edge">
<title>Node1335&#45;&gt;Node1336</title>
<path fill="none" stroke="#191970" d="M793.2959,-29C802.1104,-29 810.9129,-29 818.6292,-29"/>
<polygon fill="#191970" stroke="#191970" points="818.7022,-32.5001 828.7022,-29 818.7021,-25.5001 818.7022,-32.5001"/>
</g>
<!-- Node1337&#45;&gt;Node1330 -->
<g id="edge12" class="edge">
<title>Node1337&#45;&gt;Node1330</title>
<path fill="none" stroke="#191970" d="M628.0728,-19.5728C637.5566,-22.0963 647.2204,-25.2058 656,-29 680.7429,-39.6927 706.1623,-57.4022 722.9855,-70.2475"/>
<polygon fill="#191970" stroke="#191970" points="720.9122,-73.0691 730.9502,-76.4585 725.2168,-67.549 720.9122,-73.0691"/>
</g>
<!-- Node1337&#45;&gt;Node1335 -->
<g id="edge13" class="edge">
<title>Node1337&#45;&gt;Node1335</title>
<path fill="none" stroke="#191970" d="M628.2248,-15.9596C645.2057,-17.8974 664.1963,-20.0644 681.7451,-22.067"/>
<polygon fill="#191970" stroke="#191970" points="681.5526,-25.5677 691.8849,-23.2241 682.3463,-18.6128 681.5526,-25.5677"/>
</g>
<!-- Node1338&#45;&gt;Node1332 -->
<g id="edge15" class="edge">
<title>Node1338&#45;&gt;Node1332</title>
<path fill="none" stroke="#191970" d="M243.5542,-86C260.0284,-86 279.0042,-86 297.5724,-86"/>
<polygon fill="#191970" stroke="#191970" points="297.8276,-89.5001 307.8276,-86 297.8275,-82.5001 297.8276,-89.5001"/>
</g>
<!-- Node1339&#45;&gt;Node1332 -->
<g id="edge17" class="edge">
<title>Node1339&#45;&gt;Node1332</title>
<path fill="none" stroke="#191970" d="M243.0665,-57.589C260.1557,-61.034 279.9844,-65.0313 299.2752,-68.9202"/>
<polygon fill="#191970" stroke="#191970" points="298.8023,-72.3952 309.2968,-70.9405 300.1857,-65.5332 298.8023,-72.3952"/>
</g>
</g>
</svg>
        <g id="navigator" transform="translate(0 0)" fill="#404254">
                <rect fill="#f2f5e9" fill-opacity="0.5" stroke="#606060" stroke-width=".5" x="0" y="0" width="60" height="60"/>
                <use id="zoomplus" xlink:href="#zoomPlus" x="17" y="9" onmousedown="handleZoom(evt,'in')"/>
                <use id="zoomminus" xlink:href="#zoomMin" x="42" y="9" onmousedown="handleZoom(evt,'out')"/>
                <use id="reset" xlink:href="#resetDef" x="30" y="36" onmousedown="handleReset()"/>
                <g id="arrowUp" xlink:href="#dirArrow" transform="translate(30 24)" onmousedown="handlePan(0,-1)">
                  <use xlink:href="#rim" fill="#404040">
                        <set attributeName="fill" to="#808080" begin="arrowUp.mouseover" end="arrowUp.mouseout"/>
                  </use>
                  <path fill="none" stroke="white" stroke-width="1.5" d="M0,-3.0v7 M-2.5,-0.5L0,-3.0L2.5,-0.5"/>
                </g>
                <g id="arrowRight" xlink:href="#dirArrow" transform="rotate(90) translate(36 -43)" onmousedown="handlePan(1,0)">
                  <use xlink:href="#rim" fill="#404040">
                        <set attributeName="fill" to="#808080" begin="arrowRight.mouseover" end="arrowRight.mouseout"/>
                  </use>
                  <path fill="none" stroke="white" stroke-width="1.5" d="M0,-3.0v7 M-2.5,-0.5L0,-3.0L2.5,-0.5"/>
                </g>
                <g id="arrowDown" xlink:href="#dirArrow" transform="rotate(180) translate(-30 -48)" onmousedown="handlePan(0,1)">
                  <use xlink:href="#rim" fill="#404040">
                        <set attributeName="fill" to="#808080" begin="arrowDown.mouseover" end="arrowDown.mouseout"/>
                  </use>
                  <path fill="none" stroke="white" stroke-width="1.5" d="M0,-3.0v7 M-2.5,-0.5L0,-3.0L2.5,-0.5"/>
                </g>
                <g id="arrowLeft" xlink:href="#dirArrow" transform="rotate(270) translate(-36 17)" onmousedown="handlePan(-1,0)">
                  <use xlink:href="#rim" fill="#404040">
                        <set attributeName="fill" to="#808080" begin="arrowLeft.mouseover" end="arrowLeft.mouseout"/>
                  </use>
                  <path fill="none" stroke="white" stroke-width="1.5" d="M0,-3.0v7 M-2.5,-0.5L0,-3.0L2.5,-0.5"/>
                </g>
        </g>
        <svg viewBox="0 0 15 15" width="100%" height="30px" preserveAspectRatio="xMaxYMin meet">
         <g id="arrow_out" transform="scale(0.3 0.3)">
          <a xlink:href="unzip_8c_a22730edef5a8a98b367bb30a0d619608_cgraph_org.svg" target="_base">
           <rect id="button" ry="5" rx="5" y="6" x="6" height="38" width="38"
                fill="#f2f5e9" fill-opacity="0.5" stroke="#606060" stroke-width="1.0"/>
           <path id="arrow"
             d="M 11.500037,31.436501 C 11.940474,20.09759 22.043105,11.32322 32.158766,21.979434 L 37.068811,17.246167 C 37.068811,17.246167 37.088388,32 37.088388,32 L 22.160133,31.978069 C 22.160133,31.978069 26.997745,27.140456 26.997745,27.140456 C 18.528582,18.264221 13.291696,25.230495 11.500037,31.436501 z"
             style="fill:#404040;"/>
          </a>
         </g>
        </svg>
</svg>
