<?xml version="1.0" encoding="UTF-8" standalone="no"?>
<!DOCTYPE svg PUBLIC "-//W3C//DTD SVG 1.1//EN"
 "http://www.w3.org/Graphics/SVG/1.1/DTD/svg11.dtd">
<!-- Generated by graphviz version 2.40.1 (0)
 -->
<!-- Title: unzlocal_GetCurrentFileInfoInternal Pages: 1 -->
<!--zoomable 123 -->
<svg id="main" version="1.1" xmlns="http://www.w3.org/2000/svg" xmlns:xlink="http://www.w3.org/1999/xlink" xml:space="preserve" onload="init(evt)">
<style type="text/css"><![CDATA[
.edge:hover path { stroke: red; }
.edge:hover polygon { stroke: red; fill: red; }
]]></style>
<script type="text/javascript"><![CDATA[
var edges = document.getElementsByTagName('g');
if (edges && edges.length) {
  for (var i=0;i<edges.length;i++) {
    if (edges[i].id.substr(0,4)=='edge') {
      edges[i].setAttribute('class','edge');
    }
  }
}
]]></script>
        <defs>
                <circle id="rim" cx="0" cy="0" r="7"/>
                <circle id="rim2" cx="0" cy="0" r="3.5"/>
                <g id="zoomPlus">
                        <use xlink:href="#rim" fill="#404040">
                                <set attributeName="fill" to="#808080" begin="zoomplus.mouseover" end="zoomplus.mouseout"/>
                        </use>
                        <path d="M-4,0h8M0,-4v8" fill="none" stroke="white" stroke-width="1.5" pointer-events="none"/>
                </g>
                <g id="zoomMin">
                        <use xlink:href="#rim" fill="#404040">
                                <set attributeName="fill" to="#808080" begin="zoomminus.mouseover" end="zoomminus.mouseout"/>
                        </use>
                        <path d="M-4,0h8" fill="none" stroke="white" stroke-width="1.5" pointer-events="none"/>
                </g>
                <g id="dirArrow">
                        <path fill="none" stroke="white" stroke-width="1.5" d="M0,-3.0v7 M-2.5,-0.5L0,-3.0L2.5,-0.5"/>
                </g>
               <g id="resetDef">
                       <use xlink:href="#rim2" fill="#404040">
                               <set attributeName="fill" to="#808080" begin="reset.mouseover" end="reset.mouseout"/>
                       </use>
               </g>
        </defs>

<script type="text/javascript">
var viewWidth = 558;
var viewHeight = 123;
var sectionId = 'dynsection-22';
</script>
<script xlink:href="../../svgpan.js"/>
<svg id="graph" class="graph">
<g id="viewport">
<title>unzlocal_GetCurrentFileInfoInternal</title>
<polygon fill="#ffffff" stroke="transparent" points="-4,4 -4,-119.0112 554,-119.0112 554,4 -4,4"/>
<!-- Node896 -->
<g id="node1" class="node">
<title>Node896</title>
<g id="a_node1"><a xlink:title=" ">
<polygon fill="#bfbfbf" stroke="#000000" points="0,-52 0,-82 152,-82 152,-52 0,-52"/>
<text text-anchor="start" x="8" y="-70" font-family="Helvetica,sans-Serif" font-size="10.00" fill="#000000">unzlocal_GetCurrentFileInfo</text>
<text text-anchor="middle" x="76" y="-59" font-family="Helvetica,sans-Serif" font-size="10.00" fill="#000000">Internal</text>
</a>
</g>
</g>
<!-- Node897 -->
<g id="node2" class="node">
<title>Node897</title>
<g id="a_node2"><a xlink:href="../../d2/db7/ioapi_8h.html#a50e9e9d5c30e481de822ad68fe537986" target="_top" xlink:title=" ">
<polygon fill="#ffffff" stroke="#000000" points="411.5,-57.5 411.5,-76.5 457.5,-76.5 457.5,-57.5 411.5,-57.5"/>
<text text-anchor="middle" x="434.5" y="-64.5" font-family="Helvetica,sans-Serif" font-size="10.00" fill="#000000">uLong</text>
</a>
</g>
</g>
<!-- Node896&#45;&gt;Node897 -->
<g id="edge1" class="edge">
<title>Node896&#45;&gt;Node897</title>
<path fill="none" stroke="#191970" d="M110.5533,-82.0035C132.3163,-90.6218 161.2579,-100.5869 188,-105 258.1622,-116.5784 278.4064,-119.6125 348,-105 369.6045,-100.4637 392.4004,-90.1944 409.1639,-81.4738"/>
<polygon fill="#191970" stroke="#191970" points="411.1307,-84.3903 418.2822,-76.5732 407.8168,-78.2243 411.1307,-84.3903"/>
</g>
<!-- Node898 -->
<g id="node3" class="node">
<title>Node898</title>
<g id="a_node3"><a xlink:href="../../d6/da7/unzip_8c.html#a2adf50ee682fe99e90f76e3b5c5aff19" target="_top" xlink:title=" ">
<polygon fill="#ffffff" stroke="#000000" points="188,-76.5 188,-95.5 348,-95.5 348,-76.5 188,-76.5"/>
<text text-anchor="middle" x="268" y="-83.5" font-family="Helvetica,sans-Serif" font-size="10.00" fill="#000000">unzlocal_DosDateToTmuDate</text>
</a>
</g>
</g>
<!-- Node896&#45;&gt;Node898 -->
<g id="edge2" class="edge">
<title>Node896&#45;&gt;Node898</title>
<path fill="none" stroke="#191970" d="M152.1592,-74.5366C160.5874,-75.3706 169.2289,-76.2258 177.8083,-77.0748"/>
<polygon fill="#191970" stroke="#191970" points="177.5387,-80.5651 187.8348,-78.067 178.2281,-73.5991 177.5387,-80.5651"/>
</g>
<!-- Node899 -->
<g id="node4" class="node">
<title>Node899</title>
<g id="a_node4"><a xlink:href="../../d6/da7/unzip_8c.html#adf85ae30e9d93b75f7980750f9696a9a" target="_top" xlink:title=" ">
<polygon fill="#ffffff" stroke="#000000" points="217.5,-38.5 217.5,-57.5 318.5,-57.5 318.5,-38.5 217.5,-38.5"/>
<text text-anchor="middle" x="268" y="-45.5" font-family="Helvetica,sans-Serif" font-size="10.00" fill="#000000">unzlocal_getLong</text>
</a>
</g>
</g>
<!-- Node896&#45;&gt;Node899 -->
<g id="edge4" class="edge">
<title>Node896&#45;&gt;Node899</title>
<path fill="none" stroke="#191970" d="M152.1592,-59.4634C170.4511,-57.6533 189.7478,-55.7437 207.2338,-54.0133"/>
<polygon fill="#191970" stroke="#191970" points="207.692,-57.4852 217.2987,-53.0173 207.0026,-50.5192 207.692,-57.4852"/>
</g>
<!-- Node902 -->
<g id="node7" class="node">
<title>Node902</title>
<g id="a_node7"><a xlink:href="../../d6/da7/unzip_8c.html#a6e42c868757990ea103d34619e3f5fa2" target="_top" xlink:title=" ">
<polygon fill="#ffffff" stroke="#000000" points="216,-.5 216,-19.5 320,-19.5 320,-.5 216,-.5"/>
<text text-anchor="middle" x="268" y="-7.5" font-family="Helvetica,sans-Serif" font-size="10.00" fill="#000000">unzlocal_getShort</text>
</a>
</g>
</g>
<!-- Node896&#45;&gt;Node902 -->
<g id="edge8" class="edge">
<title>Node896&#45;&gt;Node902</title>
<path fill="none" stroke="#191970" d="M117.1944,-51.9892C138.2314,-44.588 164.3208,-35.8126 188,-29 196.5721,-26.5338 205.7256,-24.1395 214.666,-21.9291"/>
<polygon fill="#191970" stroke="#191970" points="215.7316,-25.2723 224.6272,-19.5174 214.0844,-18.4688 215.7316,-25.2723"/>
</g>
<!-- Node898&#45;&gt;Node897 -->
<g id="edge3" class="edge">
<title>Node898&#45;&gt;Node897</title>
<path fill="none" stroke="#191970" d="M348.3238,-76.8339C367.1072,-74.6905 386.0895,-72.5243 401.4395,-70.7727"/>
<polygon fill="#191970" stroke="#191970" points="401.9004,-74.2429 411.4391,-69.6316 401.1067,-67.288 401.9004,-74.2429"/>
</g>
<!-- Node899&#45;&gt;Node897 -->
<g id="edge5" class="edge">
<title>Node899&#45;&gt;Node897</title>
<path fill="none" stroke="#191970" d="M318.8602,-53.8039C345.5645,-56.8512 377.5366,-60.4997 401.0877,-63.1872"/>
<polygon fill="#191970" stroke="#191970" points="400.9344,-66.6923 411.2668,-64.3488 401.7281,-59.7375 400.9344,-66.6923"/>
</g>
<!-- Node900 -->
<g id="node5" class="node">
<title>Node900</title>
<g id="a_node5"><a xlink:href="../../d6/da7/unzip_8c.html#a5ebba7e31a1d05c7283915a397b4b3d0" target="_top" xlink:title=" ">
<polygon fill="#ffffff" stroke="#000000" points="384,-10.5 384,-29.5 485,-29.5 485,-10.5 384,-10.5"/>
<text text-anchor="middle" x="434.5" y="-17.5" font-family="Helvetica,sans-Serif" font-size="10.00" fill="#000000">unzlocal_getByte</text>
</a>
</g>
</g>
<!-- Node899&#45;&gt;Node900 -->
<g id="edge6" class="edge">
<title>Node899&#45;&gt;Node900</title>
<path fill="none" stroke="#191970" d="M318.8602,-39.4469C336.2895,-36.5159 355.9628,-33.2075 374.0742,-30.1617"/>
<polygon fill="#191970" stroke="#191970" points="374.6702,-33.6107 383.9513,-28.5007 373.5093,-26.7076 374.6702,-33.6107"/>
</g>
<!-- Node901 -->
<g id="node6" class="node">
<title>Node901</title>
<g id="a_node6"><a xlink:href="../../d2/db7/ioapi_8h.html#a787fa3cf048117ba7123753c1e74fcd6" target="_top" xlink:title=" ">
<polygon fill="#ffffff" stroke="#000000" points="521,-10.5 521,-29.5 550,-29.5 550,-10.5 521,-10.5"/>
<text text-anchor="middle" x="535.5" y="-17.5" font-family="Helvetica,sans-Serif" font-size="10.00" fill="#000000">int</text>
</a>
</g>
</g>
<!-- Node900&#45;&gt;Node901 -->
<g id="edge7" class="edge">
<title>Node900&#45;&gt;Node901</title>
<path fill="none" stroke="#191970" d="M485.2959,-20C494.1104,-20 502.9129,-20 510.6292,-20"/>
<polygon fill="#191970" stroke="#191970" points="510.7022,-23.5001 520.7022,-20 510.7021,-16.5001 510.7022,-23.5001"/>
</g>
<!-- Node902&#45;&gt;Node897 -->
<g id="edge9" class="edge">
<title>Node902&#45;&gt;Node897</title>
<path fill="none" stroke="#191970" d="M314.5127,-19.5465C325.5962,-22.2325 337.3077,-25.4145 348,-29 367.8901,-35.6699 389.4966,-45.1601 406.1398,-52.9877"/>
<polygon fill="#191970" stroke="#191970" points="404.783,-56.2184 415.315,-57.3705 407.8002,-49.902 404.783,-56.2184"/>
</g>
<!-- Node902&#45;&gt;Node900 -->
<g id="edge10" class="edge">
<title>Node902&#45;&gt;Node900</title>
<path fill="none" stroke="#191970" d="M320.2248,-13.1366C337.2057,-14.1565 356.1963,-15.2971 373.7451,-16.3511"/>
<polygon fill="#191970" stroke="#191970" points="373.6931,-19.8541 383.8849,-16.9601 374.1128,-12.8667 373.6931,-19.8541"/>
</g>
</g>
</svg>
        <g id="navigator" transform="translate(0 0)" fill="#404254">
                <rect fill="#f2f5e9" fill-opacity="0.5" stroke="#606060" stroke-width=".5" x="0" y="0" width="60" height="60"/>
                <use id="zoomplus" xlink:href="#zoomPlus" x="17" y="9" onmousedown="handleZoom(evt,'in')"/>
                <use id="zoomminus" xlink:href="#zoomMin" x="42" y="9" onmousedown="handleZoom(evt,'out')"/>
                <use id="reset" xlink:href="#resetDef" x="30" y="36" onmousedown="handleReset()"/>
                <g id="arrowUp" xlink:href="#dirArrow" transform="translate(30 24)" onmousedown="handlePan(0,-1)">
                  <use xlink:href="#rim" fill="#404040">
                        <set attributeName="fill" to="#808080" begin="arrowUp.mouseover" end="arrowUp.mouseout"/>
                  </use>
                  <path fill="none" stroke="white" stroke-width="1.5" d="M0,-3.0v7 M-2.5,-0.5L0,-3.0L2.5,-0.5"/>
                </g>
                <g id="arrowRight" xlink:href="#dirArrow" transform="rotate(90) translate(36 -43)" onmousedown="handlePan(1,0)">
                  <use xlink:href="#rim" fill="#404040">
                        <set attributeName="fill" to="#808080" begin="arrowRight.mouseover" end="arrowRight.mouseout"/>
                  </use>
                  <path fill="none" stroke="white" stroke-width="1.5" d="M0,-3.0v7 M-2.5,-0.5L0,-3.0L2.5,-0.5"/>
                </g>
                <g id="arrowDown" xlink:href="#dirArrow" transform="rotate(180) translate(-30 -48)" onmousedown="handlePan(0,1)">
                  <use xlink:href="#rim" fill="#404040">
                        <set attributeName="fill" to="#808080" begin="arrowDown.mouseover" end="arrowDown.mouseout"/>
                  </use>
                  <path fill="none" stroke="white" stroke-width="1.5" d="M0,-3.0v7 M-2.5,-0.5L0,-3.0L2.5,-0.5"/>
                </g>
                <g id="arrowLeft" xlink:href="#dirArrow" transform="rotate(270) translate(-36 17)" onmousedown="handlePan(-1,0)">
                  <use xlink:href="#rim" fill="#404040">
                        <set attributeName="fill" to="#808080" begin="arrowLeft.mouseover" end="arrowLeft.mouseout"/>
                  </use>
                  <path fill="none" stroke="white" stroke-width="1.5" d="M0,-3.0v7 M-2.5,-0.5L0,-3.0L2.5,-0.5"/>
                </g>
        </g>
        <svg viewBox="0 0 15 15" width="100%" height="30px" preserveAspectRatio="xMaxYMin meet">
         <g id="arrow_out" transform="scale(0.3 0.3)">
          <a xlink:href="unzip_8c_a604f8ca20c251b1ae520a40cd1a688ad_cgraph_org.svg" target="_base">
           <rect id="button" ry="5" rx="5" y="6" x="6" height="38" width="38"
                fill="#f2f5e9" fill-opacity="0.5" stroke="#606060" stroke-width="1.0"/>
           <path id="arrow"
             d="M 11.500037,31.436501 C 11.940474,20.09759 22.043105,11.32322 32.158766,21.979434 L 37.068811,17.246167 C 37.068811,17.246167 37.088388,32 37.088388,32 L 22.160133,31.978069 C 22.160133,31.978069 26.997745,27.140456 26.997745,27.140456 C 18.528582,18.264221 13.291696,25.230495 11.500037,31.436501 z"
             style="fill:#404040;"/>
          </a>
         </g>
        </svg>
</svg>
