<?xml version="1.0" encoding="UTF-8" standalone="no"?>
<!DOCTYPE svg PUBLIC "-//W3C//DTD SVG 1.1//EN"
 "http://www.w3.org/Graphics/SVG/1.1/DTD/svg11.dtd">
<!-- Generated by graphviz version 2.40.1 (0)
 -->
<!-- Title: items/clipablewire.h Pages: 1 -->
<svg width="1450pt" height="252pt"
 viewBox="0.00 0.00 1450.01 252.00" xmlns="http://www.w3.org/2000/svg" xmlns:xlink="http://www.w3.org/1999/xlink">
<g id="graph0" class="graph" transform="scale(1 1) rotate(0) translate(4 248)">
<title>items/clipablewire.h</title>
<polygon fill="#ffffff" stroke="transparent" points="-4,4 -4,-248 1446.0058,-248 1446.0058,4 -4,4"/>
<!-- Node0 -->
<g id="node1" class="node">
<title>Node0</title>
<g id="a_node1"><a xlink:title=" ">
<polygon fill="#bfbfbf" stroke="#000000" points="917.5,-224.5 917.5,-243.5 1033.5,-243.5 1033.5,-224.5 917.5,-224.5"/>
<text text-anchor="middle" x="975.5" y="-231.5" font-family="Helvetica,sans-Serif" font-size="10.00" fill="#000000">items/clipablewire.h</text>
</a>
</g>
</g>
<!-- Node1 -->
<g id="node2" class="node">
<title>Node1</title>
<g id="a_node2"><a xlink:href="../../d9/d9b/wire_8h.html" target="_top" xlink:title=" ">
<polygon fill="#ffffff" stroke="#000000" points="735,-168.5 735,-187.5 782,-187.5 782,-168.5 735,-168.5"/>
<text text-anchor="middle" x="758.5" y="-175.5" font-family="Helvetica,sans-Serif" font-size="10.00" fill="#000000">wire.h</text>
</a>
</g>
</g>
<!-- Node0&#45;&gt;Node1 -->
<g id="edge1" class="edge">
<title>Node0&#45;&gt;Node1</title>
<path fill="none" stroke="#191970" d="M938.1964,-224.3733C897.0621,-213.758 831.4844,-196.8347 791.9556,-186.6337"/>
<polygon fill="#191970" stroke="#191970" points="792.8157,-183.2411 782.2583,-184.1312 791.0665,-190.019 792.8157,-183.2411"/>
</g>
<!-- Node18 -->
<g id="node19" class="node">
<title>Node18</title>
<g id="a_node19"><a xlink:title=" ">
<polygon fill="#ffffff" stroke="#bfbfbf" points="1295,-56.5 1295,-75.5 1354,-75.5 1354,-56.5 1295,-56.5"/>
<text text-anchor="middle" x="1324.5" y="-63.5" font-family="Helvetica,sans-Serif" font-size="10.00" fill="#000000">QPointer</text>
</a>
</g>
</g>
<!-- Node0&#45;&gt;Node18 -->
<g id="edge49" class="edge">
<title>Node0&#45;&gt;Node18</title>
<path fill="none" stroke="#191970" d="M1019.8918,-224.4204C1078.0205,-210.4937 1181.5617,-180.8457 1258.5,-132 1279.0847,-118.9314 1298.2725,-98.4243 1310.594,-83.7377"/>
<polygon fill="#191970" stroke="#191970" points="1313.4077,-85.8255 1317.014,-75.8633 1307.9823,-81.4022 1313.4077,-85.8255"/>
</g>
<!-- Node2 -->
<g id="node3" class="node">
<title>Node2</title>
<g id="a_node3"><a xlink:title=" ">
<polygon fill="#ffffff" stroke="#bfbfbf" points="851.5,-112.5 851.5,-131.5 961.5,-131.5 961.5,-112.5 851.5,-112.5"/>
<text text-anchor="middle" x="906.5" y="-119.5" font-family="Helvetica,sans-Serif" font-size="10.00" fill="#000000">QGraphicsLineItem</text>
</a>
</g>
</g>
<!-- Node1&#45;&gt;Node2 -->
<g id="edge2" class="edge">
<title>Node1&#45;&gt;Node2</title>
<path fill="none" stroke="#191970" d="M782.2788,-169.0026C806.4398,-159.8606 844.1248,-145.6014 871.6549,-135.1846"/>
<polygon fill="#191970" stroke="#191970" points="873.18,-138.3498 881.2943,-131.5373 870.7027,-131.8028 873.18,-138.3498"/>
</g>
<!-- Node3 -->
<g id="node4" class="node">
<title>Node3</title>
<g id="a_node4"><a xlink:title=" ">
<polygon fill="#ffffff" stroke="#bfbfbf" points="1356.5,-.5 1356.5,-19.5 1406.5,-19.5 1406.5,-.5 1356.5,-.5"/>
<text text-anchor="middle" x="1381.5" y="-7.5" font-family="Helvetica,sans-Serif" font-size="10.00" fill="#000000">QLineF</text>
</a>
</g>
</g>
<!-- Node1&#45;&gt;Node3 -->
<g id="edge3" class="edge">
<title>Node1&#45;&gt;Node3</title>
<path fill="none" stroke="#191970" d="M782.1839,-177.5923C854.3686,-175.9731 1077.714,-168.1716 1258.5,-132 1340.2379,-115.6459 1388.1347,-143.1686 1437.5,-76 1450.911,-57.7524 1429.127,-38.1173 1408.9371,-25.0517"/>
<polygon fill="#191970" stroke="#191970" points="1410.5552,-21.9387 1400.1978,-19.7086 1406.9039,-27.911 1410.5552,-21.9387"/>
</g>
<!-- Node4 -->
<g id="node5" class="node">
<title>Node4</title>
<g id="a_node5"><a xlink:title=" ">
<polygon fill="#ffffff" stroke="#bfbfbf" points="1165.5,-112.5 1165.5,-131.5 1249.5,-131.5 1249.5,-112.5 1165.5,-112.5"/>
<text text-anchor="middle" x="1207.5" y="-119.5" font-family="Helvetica,sans-Serif" font-size="10.00" fill="#000000">QMouseEvent</text>
</a>
</g>
</g>
<!-- Node1&#45;&gt;Node4 -->
<g id="edge4" class="edge">
<title>Node1&#45;&gt;Node4</title>
<path fill="none" stroke="#191970" d="M782.364,-175.9015C842.9204,-170.4368 1007.6349,-154.703 1155.1076,-132.1184"/>
<polygon fill="#191970" stroke="#191970" points="1155.8967,-135.5381 1165.2443,-130.5508 1154.8268,-128.6203 1155.8967,-135.5381"/>
</g>
<!-- Node5 -->
<g id="node6" class="node">
<title>Node5</title>
<g id="a_node6"><a xlink:title=" ">
<polygon fill="#ffffff" stroke="#bfbfbf" points="162.5,-112.5 162.5,-131.5 318.5,-131.5 318.5,-112.5 162.5,-112.5"/>
<text text-anchor="middle" x="240.5" y="-119.5" font-family="Helvetica,sans-Serif" font-size="10.00" fill="#000000">QGraphicsSceneMouseEvent</text>
</a>
</g>
</g>
<!-- Node1&#45;&gt;Node5 -->
<g id="edge5" class="edge">
<title>Node1&#45;&gt;Node5</title>
<path fill="none" stroke="#191970" d="M734.6637,-175.5246C670.803,-168.8781 490.3056,-149.997 328.8652,-132.1446"/>
<polygon fill="#191970" stroke="#191970" points="329.0757,-128.6466 318.7512,-131.0247 328.3053,-135.6041 329.0757,-128.6466"/>
</g>
<!-- Node6 -->
<g id="node7" class="node">
<title>Node6</title>
<g id="a_node7"><a xlink:title=" ">
<polygon fill="#ffffff" stroke="#bfbfbf" points="336.5,-112.5 336.5,-131.5 394.5,-131.5 394.5,-112.5 336.5,-112.5"/>
<text text-anchor="middle" x="365.5" y="-119.5" font-family="Helvetica,sans-Serif" font-size="10.00" fill="#000000">QPainter</text>
</a>
</g>
</g>
<!-- Node1&#45;&gt;Node6 -->
<g id="edge6" class="edge">
<title>Node1&#45;&gt;Node6</title>
<path fill="none" stroke="#191970" d="M734.6497,-175.9768C678.706,-171.0057 534.5788,-156.8911 404.9706,-132.0885"/>
<polygon fill="#191970" stroke="#191970" points="405.356,-128.598 394.8723,-130.1282 404.0221,-135.4698 405.356,-128.598"/>
</g>
<!-- Node7 -->
<g id="node8" class="node">
<title>Node7</title>
<g id="a_node8"><a xlink:title=" ">
<polygon fill="#ffffff" stroke="#bfbfbf" points="412.5,-112.5 412.5,-131.5 558.5,-131.5 558.5,-112.5 412.5,-112.5"/>
<text text-anchor="middle" x="485.5" y="-119.5" font-family="Helvetica,sans-Serif" font-size="10.00" fill="#000000">QStyleOptionGraphicsItem</text>
</a>
</g>
</g>
<!-- Node1&#45;&gt;Node7 -->
<g id="edge7" class="edge">
<title>Node1&#45;&gt;Node7</title>
<path fill="none" stroke="#191970" d="M734.7506,-173.1283C692.0751,-164.3744 601.3414,-145.7623 541.9236,-133.5741"/>
<polygon fill="#191970" stroke="#191970" points="542.4405,-130.1073 531.9412,-131.5264 541.0339,-136.9645 542.4405,-130.1073"/>
</g>
<!-- Node8 -->
<g id="node9" class="node">
<title>Node8</title>
<g id="a_node9"><a xlink:title=" ">
<polygon fill="#ffffff" stroke="#bfbfbf" points="577,-112.5 577,-131.5 636,-131.5 636,-112.5 577,-112.5"/>
<text text-anchor="middle" x="606.5" y="-119.5" font-family="Helvetica,sans-Serif" font-size="10.00" fill="#000000">QWidget</text>
</a>
</g>
</g>
<!-- Node1&#45;&gt;Node8 -->
<g id="edge8" class="edge">
<title>Node1&#45;&gt;Node8</title>
<path fill="none" stroke="#191970" d="M734.75,-169.25C709.8783,-160.0867 670.5363,-145.5923 641.9802,-135.0717"/>
<polygon fill="#191970" stroke="#191970" points="642.9643,-131.7043 632.3708,-131.5314 640.5443,-138.2727 642.9643,-131.7043"/>
</g>
<!-- Node9 -->
<g id="node10" class="node">
<title>Node9</title>
<g id="a_node10"><a xlink:title=" ">
<polygon fill="#ffffff" stroke="#bfbfbf" points="338,-.5 338,-19.5 387,-19.5 387,-.5 338,-.5"/>
<text text-anchor="middle" x="362.5" y="-7.5" font-family="Helvetica,sans-Serif" font-size="10.00" fill="#000000">QHash</text>
</a>
</g>
</g>
<!-- Node1&#45;&gt;Node9 -->
<g id="edge9" class="edge">
<title>Node1&#45;&gt;Node9</title>
<path fill="none" stroke="#191970" d="M742.6499,-168.3081C713.8582,-150.78 654.9663,-115.3099 644.5,-112 557.5063,-84.4885 297.1233,-143.2856 235.5,-76 229.4965,-69.4448 230.3959,-63.2774 235.5,-56 241.0695,-48.0591 292.4838,-31.1695 328.1603,-20.2144"/>
<polygon fill="#191970" stroke="#191970" points="329.2069,-23.5545 337.7545,-17.2943 327.1686,-16.8578 329.2069,-23.5545"/>
</g>
<!-- Node10 -->
<g id="node11" class="node">
<title>Node10</title>
<g id="a_node11"><a xlink:title=" ">
<polygon fill="#ffffff" stroke="#bfbfbf" points="693,-112.5 693,-131.5 744,-131.5 744,-112.5 693,-112.5"/>
<text text-anchor="middle" x="718.5" y="-119.5" font-family="Helvetica,sans-Serif" font-size="10.00" fill="#000000">QMenu</text>
</a>
</g>
</g>
<!-- Node1&#45;&gt;Node10 -->
<g id="edge10" class="edge">
<title>Node1&#45;&gt;Node10</title>
<path fill="none" stroke="#191970" d="M751.5325,-168.2455C745.9689,-160.4564 738.022,-149.3308 731.3171,-139.9439"/>
<polygon fill="#191970" stroke="#191970" points="734.0481,-137.7457 725.3876,-131.6427 728.352,-141.8144 734.0481,-137.7457"/>
</g>
<!-- Node11 -->
<g id="node12" class="node">
<title>Node11</title>
<g id="a_node12"><a xlink:href="../../d9/dbd/itembase_8h.html" target="_top" xlink:title=" ">
<polygon fill="#ffffff" stroke="#000000" points="762,-112.5 762,-131.5 833,-131.5 833,-112.5 762,-112.5"/>
<text text-anchor="middle" x="797.5" y="-119.5" font-family="Helvetica,sans-Serif" font-size="10.00" fill="#000000">itembase.h</text>
</a>
</g>
</g>
<!-- Node1&#45;&gt;Node11 -->
<g id="edge11" class="edge">
<title>Node1&#45;&gt;Node11</title>
<path fill="none" stroke="#191970" d="M765.2933,-168.2455C770.7178,-160.4564 778.4661,-149.3308 785.0033,-139.9439"/>
<polygon fill="#191970" stroke="#191970" points="787.9417,-141.849 790.7846,-131.6427 782.1975,-137.8485 787.9417,-141.849"/>
</g>
<!-- Node36 -->
<g id="node37" class="node">
<title>Node36</title>
<g id="a_node37"><a xlink:href="../../d3/d73/cursormaster_8h.html" target="_top" xlink:title=" ">
<polygon fill="#ffffff" stroke="#000000" points="1025.5,-112.5 1025.5,-131.5 1147.5,-131.5 1147.5,-112.5 1025.5,-112.5"/>
<text text-anchor="middle" x="1086.5" y="-119.5" font-family="Helvetica,sans-Serif" font-size="10.00" fill="#000000">../utils/cursormaster.h</text>
</a>
</g>
</g>
<!-- Node1&#45;&gt;Node36 -->
<g id="edge46" class="edge">
<title>Node1&#45;&gt;Node36</title>
<path fill="none" stroke="#191970" d="M782.089,-173.9726C831.4012,-165.5534 946.9197,-145.8308 1020.6233,-133.2472"/>
<polygon fill="#191970" stroke="#191970" points="1021.4662,-136.6541 1030.7345,-131.5209 1020.288,-129.7539 1021.4662,-136.6541"/>
</g>
<!-- Node11&#45;&gt;Node9 -->
<g id="edge15" class="edge">
<title>Node11&#45;&gt;Node9</title>
<path fill="none" stroke="#191970" d="M761.6994,-113.7234C758.5952,-113.1032 755.4967,-112.5184 752.5,-112 624.9573,-89.9358 585.0289,-120.55 463.5,-76 446.86,-69.9001 408.088,-43.0267 383.7136,-25.508"/>
<polygon fill="#191970" stroke="#191970" points="385.6065,-22.5576 375.4526,-19.5329 381.504,-28.2295 385.6065,-22.5576"/>
</g>
<!-- Node12 -->
<g id="node13" class="node">
<title>Node12</title>
<g id="a_node13"><a xlink:title=" ">
<polygon fill="#ffffff" stroke="#bfbfbf" points="245,-56.5 245,-75.5 354,-75.5 354,-56.5 245,-56.5"/>
<text text-anchor="middle" x="299.5" y="-63.5" font-family="Helvetica,sans-Serif" font-size="10.00" fill="#000000">QXmlStreamWriter</text>
</a>
</g>
</g>
<!-- Node11&#45;&gt;Node12 -->
<g id="edge12" class="edge">
<title>Node11&#45;&gt;Node12</title>
<path fill="none" stroke="#191970" d="M761.7164,-113.6201C758.6085,-113.0224 755.5045,-112.4709 752.5,-112 584.1494,-85.6126 537.5218,-96.9697 364.2461,-76.0145"/>
<polygon fill="#191970" stroke="#191970" points="364.6331,-72.5358 354.281,-74.7908 363.7799,-79.4836 364.6331,-72.5358"/>
</g>
<!-- Node13 -->
<g id="node14" class="node">
<title>Node13</title>
<g id="a_node14"><a xlink:title=" ">
<polygon fill="#ffffff" stroke="#bfbfbf" points="1043,-.5 1043,-19.5 1098,-19.5 1098,-.5 1043,-.5"/>
<text text-anchor="middle" x="1070.5" y="-7.5" font-family="Helvetica,sans-Serif" font-size="10.00" fill="#000000">QPointF</text>
</a>
</g>
</g>
<!-- Node11&#45;&gt;Node13 -->
<g id="edge13" class="edge">
<title>Node11&#45;&gt;Node13</title>
<path fill="none" stroke="#191970" d="M833.3292,-113.8777C836.4272,-113.2241 839.5165,-112.5893 842.5,-112 934.5403,-93.8188 980.2126,-138.1423 1050.5,-76 1063.5091,-64.4984 1068.1972,-44.8458 1069.8172,-29.9692"/>
<polygon fill="#191970" stroke="#191970" points="1073.3265,-29.9612 1070.5449,-19.7381 1066.3442,-29.4645 1073.3265,-29.9612"/>
</g>
<!-- Node14 -->
<g id="node15" class="node">
<title>Node14</title>
<g id="a_node15"><a xlink:title=" ">
<polygon fill="#ffffff" stroke="#bfbfbf" points="372.5,-56.5 372.5,-75.5 416.5,-75.5 416.5,-56.5 372.5,-56.5"/>
<text text-anchor="middle" x="394.5" y="-63.5" font-family="Helvetica,sans-Serif" font-size="10.00" fill="#000000">QSize</text>
</a>
</g>
</g>
<!-- Node11&#45;&gt;Node14 -->
<g id="edge14" class="edge">
<title>Node11&#45;&gt;Node14</title>
<path fill="none" stroke="#191970" d="M761.7063,-113.6823C758.6007,-113.0711 755.4999,-112.4995 752.5,-112 610.4531,-88.3467 571.8801,-103.3578 430.5,-76 429.2462,-75.7574 427.9723,-75.4929 426.6889,-75.2115"/>
<polygon fill="#191970" stroke="#191970" points="427.3825,-71.778 416.8371,-72.7997 425.718,-78.5772 427.3825,-71.778"/>
</g>
<!-- Node15 -->
<g id="node16" class="node">
<title>Node15</title>
<g id="a_node16"><a xlink:title=" ">
<polygon fill="#ffffff" stroke="#bfbfbf" points="0,-.5 0,-19.5 41,-19.5 41,-.5 0,-.5"/>
<text text-anchor="middle" x="20.5" y="-7.5" font-family="Helvetica,sans-Serif" font-size="10.00" fill="#000000">QList</text>
</a>
</g>
</g>
<!-- Node11&#45;&gt;Node15 -->
<g id="edge16" class="edge">
<title>Node11&#45;&gt;Node15</title>
<path fill="none" stroke="#191970" d="M761.7344,-113.4978C758.6226,-112.9266 755.5128,-112.4147 752.5,-112 608.0864,-92.1219 232.7806,-130.3101 97.5,-76 72.1334,-65.8162 49.2149,-43.7111 35.1045,-27.8892"/>
<polygon fill="#191970" stroke="#191970" points="37.3817,-25.1685 28.212,-19.8613 32.0707,-29.7285 37.3817,-25.1685"/>
</g>
<!-- Node16 -->
<g id="node17" class="node">
<title>Node16</title>
<g id="a_node17"><a xlink:title=" ">
<polygon fill="#ffffff" stroke="#bfbfbf" points="573,-56.5 573,-75.5 726,-75.5 726,-56.5 573,-56.5"/>
<text text-anchor="middle" x="649.5" y="-63.5" font-family="Helvetica,sans-Serif" font-size="10.00" fill="#000000">QGraphicsSceneHoverEvent</text>
</a>
</g>
</g>
<!-- Node11&#45;&gt;Node16 -->
<g id="edge17" class="edge">
<title>Node11&#45;&gt;Node16</title>
<path fill="none" stroke="#191970" d="M772.0579,-112.3733C747.7674,-103.1822 710.9792,-89.2624 684.0457,-79.0713"/>
<polygon fill="#191970" stroke="#191970" points="685.2016,-75.7666 674.6101,-75.5011 682.7243,-82.3136 685.2016,-75.7666"/>
</g>
<!-- Node17 -->
<g id="node18" class="node">
<title>Node17</title>
<g id="a_node18"><a xlink:title=" ">
<polygon fill="#ffffff" stroke="#bfbfbf" points="744,-56.5 744,-75.5 851,-75.5 851,-56.5 744,-56.5"/>
<text text-anchor="middle" x="797.5" y="-63.5" font-family="Helvetica,sans-Serif" font-size="10.00" fill="#000000">QGraphicsSvgItem</text>
</a>
</g>
</g>
<!-- Node11&#45;&gt;Node17 -->
<g id="edge18" class="edge">
<title>Node11&#45;&gt;Node17</title>
<path fill="none" stroke="#191970" d="M797.5,-112.2455C797.5,-104.9382 797.5,-94.6944 797.5,-85.7046"/>
<polygon fill="#191970" stroke="#191970" points="801.0001,-85.6426 797.5,-75.6427 794.0001,-85.6427 801.0001,-85.6426"/>
</g>
<!-- Node11&#45;&gt;Node18 -->
<g id="edge19" class="edge">
<title>Node11&#45;&gt;Node18</title>
<path fill="none" stroke="#191970" d="M833.278,-113.5835C836.3871,-112.9937 839.4929,-112.4541 842.5,-112 1034.5807,-82.9939 1088.8847,-107.7968 1284.7583,-75.8372"/>
<polygon fill="#191970" stroke="#191970" points="1285.5093,-79.2605 1294.8008,-74.1695 1284.3625,-72.355 1285.5093,-79.2605"/>
</g>
<!-- Node19 -->
<g id="node20" class="node">
<title>Node19</title>
<g id="a_node20"><a xlink:title=" ">
<polygon fill="#ffffff" stroke="#bfbfbf" points="869.5,-56.5 869.5,-75.5 907.5,-75.5 907.5,-56.5 869.5,-56.5"/>
<text text-anchor="middle" x="888.5" y="-63.5" font-family="Helvetica,sans-Serif" font-size="10.00" fill="#000000">QUrl</text>
</a>
</g>
</g>
<!-- Node11&#45;&gt;Node19 -->
<g id="edge20" class="edge">
<title>Node11&#45;&gt;Node19</title>
<path fill="none" stroke="#191970" d="M813.351,-112.2455C827.3132,-103.6534 847.8728,-91.0014 863.9596,-81.1018"/>
<polygon fill="#191970" stroke="#191970" points="866.1484,-83.8645 872.8307,-75.6427 862.4797,-77.9029 866.1484,-83.8645"/>
</g>
<!-- Node20 -->
<g id="node21" class="node">
<title>Node20</title>
<g id="a_node21"><a xlink:title=" ">
<polygon fill="#ffffff" stroke="#bfbfbf" points="926,-56.5 926,-75.5 971,-75.5 971,-56.5 926,-56.5"/>
<text text-anchor="middle" x="948.5" y="-63.5" font-family="Helvetica,sans-Serif" font-size="10.00" fill="#000000">QMap</text>
</a>
</g>
</g>
<!-- Node11&#45;&gt;Node20 -->
<g id="edge21" class="edge">
<title>Node11&#45;&gt;Node20</title>
<path fill="none" stroke="#191970" d="M823.4578,-112.3733C849.1419,-102.848 888.5212,-88.2438 916.2108,-77.9748"/>
<polygon fill="#191970" stroke="#191970" points="917.6774,-81.1639 925.8363,-74.4051 915.2433,-74.6007 917.6774,-81.1639"/>
</g>
<!-- Node21 -->
<g id="node22" class="node">
<title>Node21</title>
<g id="a_node22"><a xlink:title=" ">
<polygon fill="#ffffff" stroke="#bfbfbf" points="989,-56.5 989,-75.5 1042,-75.5 1042,-56.5 989,-56.5"/>
<text text-anchor="middle" x="1015.5" y="-63.5" font-family="Helvetica,sans-Serif" font-size="10.00" fill="#000000">QTimer</text>
</a>
</g>
</g>
<!-- Node11&#45;&gt;Node21 -->
<g id="edge22" class="edge">
<title>Node11&#45;&gt;Node21</title>
<path fill="none" stroke="#191970" d="M833.1352,-113.2547C867.8637,-104.674 922.4054,-91.0453 978.952,-76.1022"/>
<polygon fill="#191970" stroke="#191970" points="980.0132,-79.4419 988.7826,-73.4963 978.2196,-72.6756 980.0132,-79.4419"/>
</g>
<!-- Node22 -->
<g id="node23" class="node">
<title>Node22</title>
<g id="a_node23"><a xlink:title=" ">
<polygon fill="#ffffff" stroke="#bfbfbf" points="1220.5,-56.5 1220.5,-75.5 1276.5,-75.5 1276.5,-56.5 1220.5,-56.5"/>
<text text-anchor="middle" x="1248.5" y="-63.5" font-family="Helvetica,sans-Serif" font-size="10.00" fill="#000000">QCursor</text>
</a>
</g>
</g>
<!-- Node11&#45;&gt;Node22 -->
<g id="edge23" class="edge">
<title>Node11&#45;&gt;Node22</title>
<path fill="none" stroke="#191970" d="M833.2862,-113.6363C836.3935,-113.0351 839.4967,-112.4784 842.5,-112 1002.0489,-86.5858 1047.6308,-104.8537 1210.4569,-75.9194"/>
<polygon fill="#191970" stroke="#191970" points="1211.1118,-79.3578 1220.3289,-74.1333 1209.8655,-72.4696 1211.1118,-79.3578"/>
</g>
<!-- Node23 -->
<g id="node24" class="node">
<title>Node23</title>
<g id="a_node24"><a xlink:href="../../db/d39/viewgeometry_8h.html" target="_top" xlink:title=" ">
<polygon fill="#ffffff" stroke="#000000" points="1098.5,-56.5 1098.5,-75.5 1202.5,-75.5 1202.5,-56.5 1098.5,-56.5"/>
<text text-anchor="middle" x="1150.5" y="-63.5" font-family="Helvetica,sans-Serif" font-size="10.00" fill="#000000">../viewgeometry.h</text>
</a>
</g>
</g>
<!-- Node11&#45;&gt;Node23 -->
<g id="edge24" class="edge">
<title>Node11&#45;&gt;Node23</title>
<path fill="none" stroke="#191970" d="M833.3145,-113.8007C836.4156,-113.1638 839.5097,-112.554 842.5,-112 949.42,-92.1931 976.9661,-92.1449 1084.5,-76 1085.7571,-75.8113 1087.0276,-75.6203 1088.3081,-75.4278"/>
<polygon fill="#191970" stroke="#191970" points="1088.8963,-78.8787 1098.2632,-73.9279 1087.8534,-71.9569 1088.8963,-78.8787"/>
</g>
<!-- Node27 -->
<g id="node28" class="node">
<title>Node27</title>
<g id="a_node28"><a xlink:href="../../da/d85/viewlayer_8h.html" target="_top" xlink:title=" ">
<polygon fill="#ffffff" stroke="#000000" points="472.5,-56.5 472.5,-75.5 554.5,-75.5 554.5,-56.5 472.5,-56.5"/>
<text text-anchor="middle" x="513.5" y="-63.5" font-family="Helvetica,sans-Serif" font-size="10.00" fill="#000000">../viewlayer.h</text>
</a>
</g>
</g>
<!-- Node11&#45;&gt;Node27 -->
<g id="edge30" class="edge">
<title>Node11&#45;&gt;Node27</title>
<path fill="none" stroke="#191970" d="M761.6597,-113.9323C758.5642,-113.2668 755.4784,-112.6145 752.5,-112 671.8611,-95.3642 649.0946,-92.5792 564.7302,-76.2232"/>
<polygon fill="#191970" stroke="#191970" points="565.1793,-72.745 554.6948,-74.2701 563.842,-79.6161 565.1793,-72.745"/>
</g>
<!-- Node31 -->
<g id="node32" class="node">
<title>Node31</title>
<g id="a_node32"><a xlink:href="../../d4/d08/misc_8h.html" target="_top" xlink:title=" ">
<polygon fill="#ffffff" stroke="#000000" points="106.5,-56.5 106.5,-75.5 188.5,-75.5 188.5,-56.5 106.5,-56.5"/>
<text text-anchor="middle" x="147.5" y="-63.5" font-family="Helvetica,sans-Serif" font-size="10.00" fill="#000000">../utils/misc.h</text>
</a>
</g>
</g>
<!-- Node11&#45;&gt;Node31 -->
<g id="edge36" class="edge">
<title>Node11&#45;&gt;Node31</title>
<path fill="none" stroke="#191970" d="M761.7276,-113.5456C758.6173,-112.9641 755.5097,-112.4367 752.5,-112 524.5529,-78.9248 464.8741,-97.0085 235.5,-76 223.5375,-74.9043 210.6807,-73.5461 198.5895,-72.1876"/>
<polygon fill="#191970" stroke="#191970" points="198.9821,-68.7098 188.6494,-71.0521 198.1876,-75.6645 198.9821,-68.7098"/>
</g>
<!-- Node23&#45;&gt;Node3 -->
<g id="edge27" class="edge">
<title>Node23&#45;&gt;Node3</title>
<path fill="none" stroke="#191970" d="M1189.9478,-56.4369C1233.9943,-45.759 1304.6045,-28.6413 1346.6783,-18.4416"/>
<polygon fill="#191970" stroke="#191970" points="1347.5788,-21.8248 1356.4727,-16.0672 1345.9295,-15.0218 1347.5788,-21.8248"/>
</g>
<!-- Node23&#45;&gt;Node13 -->
<g id="edge25" class="edge">
<title>Node23&#45;&gt;Node13</title>
<path fill="none" stroke="#191970" d="M1136.5651,-56.2455C1124.4053,-47.7337 1106.5536,-35.2375 1092.4715,-25.3801"/>
<polygon fill="#191970" stroke="#191970" points="1094.4747,-22.51 1084.2752,-19.6427 1090.4605,-28.2447 1094.4747,-22.51"/>
</g>
<!-- Node24 -->
<g id="node25" class="node">
<title>Node24</title>
<g id="a_node25"><a xlink:title=" ">
<polygon fill="#ffffff" stroke="#bfbfbf" points="642.5,-.5 642.5,-19.5 730.5,-19.5 730.5,-.5 642.5,-.5"/>
<text text-anchor="middle" x="686.5" y="-7.5" font-family="Helvetica,sans-Serif" font-size="10.00" fill="#000000">QDomElement</text>
</a>
</g>
</g>
<!-- Node23&#45;&gt;Node24 -->
<g id="edge26" class="edge">
<title>Node23&#45;&gt;Node24</title>
<path fill="none" stroke="#191970" d="M1098.1753,-59.6849C1009.5148,-48.9845 830.6494,-27.3973 740.7209,-16.5439"/>
<polygon fill="#191970" stroke="#191970" points="741.0774,-13.0616 730.7301,-15.3381 740.2386,-20.0112 741.0774,-13.0616"/>
</g>
<!-- Node25 -->
<g id="node26" class="node">
<title>Node25</title>
<g id="a_node26"><a xlink:title=" ">
<polygon fill="#ffffff" stroke="#bfbfbf" points="1120.5,-.5 1120.5,-19.5 1172.5,-19.5 1172.5,-.5 1120.5,-.5"/>
<text text-anchor="middle" x="1146.5" y="-7.5" font-family="Helvetica,sans-Serif" font-size="10.00" fill="#000000">QRectF</text>
</a>
</g>
</g>
<!-- Node23&#45;&gt;Node25 -->
<g id="edge28" class="edge">
<title>Node23&#45;&gt;Node25</title>
<path fill="none" stroke="#191970" d="M1149.8033,-56.2455C1149.2813,-48.9382 1148.5496,-38.6944 1147.9075,-29.7046"/>
<polygon fill="#191970" stroke="#191970" points="1151.3924,-29.3679 1147.1888,-19.6427 1144.4102,-29.8667 1151.3924,-29.3679"/>
</g>
<!-- Node26 -->
<g id="node27" class="node">
<title>Node26</title>
<g id="a_node27"><a xlink:title=" ">
<polygon fill="#ffffff" stroke="#bfbfbf" points="1191,-.5 1191,-19.5 1264,-19.5 1264,-.5 1191,-.5"/>
<text text-anchor="middle" x="1227.5" y="-7.5" font-family="Helvetica,sans-Serif" font-size="10.00" fill="#000000">QTransform</text>
</a>
</g>
</g>
<!-- Node23&#45;&gt;Node26 -->
<g id="edge29" class="edge">
<title>Node23&#45;&gt;Node26</title>
<path fill="none" stroke="#191970" d="M1163.9124,-56.2455C1175.5057,-47.814 1192.4748,-35.4729 1205.9678,-25.6598"/>
<polygon fill="#191970" stroke="#191970" points="1208.2126,-28.355 1214.2413,-19.6427 1204.0953,-22.6938 1208.2126,-28.355"/>
</g>
<!-- Node27&#45;&gt;Node9 -->
<g id="edge33" class="edge">
<title>Node27&#45;&gt;Node9</title>
<path fill="none" stroke="#191970" d="M487.5422,-56.3733C462.4589,-47.0708 424.3136,-32.9242 396.7512,-22.7024"/>
<polygon fill="#191970" stroke="#191970" points="397.7122,-19.326 387.1192,-19.1303 395.2782,-25.8892 397.7122,-19.326"/>
</g>
<!-- Node27&#45;&gt;Node24 -->
<g id="edge35" class="edge">
<title>Node27&#45;&gt;Node24</title>
<path fill="none" stroke="#191970" d="M543.2398,-56.3733C572.007,-47.0613 615.77,-32.8953 647.3556,-22.671"/>
<polygon fill="#191970" stroke="#191970" points="648.7122,-25.9107 657.1483,-19.5011 646.5564,-19.251 648.7122,-25.9107"/>
</g>
<!-- Node28 -->
<g id="node29" class="node">
<title>Node28</title>
<g id="a_node29"><a xlink:title=" ">
<polygon fill="#ffffff" stroke="#bfbfbf" points="405,-.5 405,-19.5 458,-19.5 458,-.5 405,-.5"/>
<text text-anchor="middle" x="431.5" y="-7.5" font-family="Helvetica,sans-Serif" font-size="10.00" fill="#000000">QString</text>
</a>
</g>
</g>
<!-- Node27&#45;&gt;Node28 -->
<g id="edge31" class="edge">
<title>Node27&#45;&gt;Node28</title>
<path fill="none" stroke="#191970" d="M499.2167,-56.2455C486.753,-47.7337 468.4549,-35.2375 454.0208,-25.3801"/>
<polygon fill="#191970" stroke="#191970" points="455.8515,-22.392 445.6196,-19.6427 451.9038,-28.1726 455.8515,-22.392"/>
</g>
<!-- Node29 -->
<g id="node30" class="node">
<title>Node29</title>
<g id="a_node30"><a xlink:title=" ">
<polygon fill="#ffffff" stroke="#bfbfbf" points="569,-.5 569,-19.5 624,-19.5 624,-.5 569,-.5"/>
<text text-anchor="middle" x="596.5" y="-7.5" font-family="Helvetica,sans-Serif" font-size="10.00" fill="#000000">QAction</text>
</a>
</g>
</g>
<!-- Node27&#45;&gt;Node29 -->
<g id="edge32" class="edge">
<title>Node27&#45;&gt;Node29</title>
<path fill="none" stroke="#191970" d="M527.9575,-56.2455C540.5732,-47.7337 559.0944,-35.2375 573.7045,-25.3801"/>
<polygon fill="#191970" stroke="#191970" points="575.8761,-28.1371 582.2082,-19.6427 571.9609,-22.3343 575.8761,-28.1371"/>
</g>
<!-- Node30 -->
<g id="node31" class="node">
<title>Node30</title>
<g id="a_node31"><a xlink:title=" ">
<polygon fill="#ffffff" stroke="#bfbfbf" points="476.5,-.5 476.5,-19.5 550.5,-19.5 550.5,-.5 476.5,-.5"/>
<text text-anchor="middle" x="513.5" y="-7.5" font-family="Helvetica,sans-Serif" font-size="10.00" fill="#000000">QMultiHash</text>
</a>
</g>
</g>
<!-- Node27&#45;&gt;Node30 -->
<g id="edge34" class="edge">
<title>Node27&#45;&gt;Node30</title>
<path fill="none" stroke="#191970" d="M513.5,-56.2455C513.5,-48.9382 513.5,-38.6944 513.5,-29.7046"/>
<polygon fill="#191970" stroke="#191970" points="517.0001,-29.6426 513.5,-19.6427 510.0001,-29.6427 517.0001,-29.6426"/>
</g>
<!-- Node31&#45;&gt;Node9 -->
<g id="edge37" class="edge">
<title>Node31&#45;&gt;Node9</title>
<path fill="none" stroke="#191970" d="M186.802,-56.4587C221.4593,-47.9452 273.5567,-34.9065 327.8483,-20.109"/>
<polygon fill="#191970" stroke="#191970" points="328.9276,-23.4424 337.648,-17.4252 327.0786,-16.691 328.9276,-23.4424"/>
</g>
<!-- Node31&#45;&gt;Node13 -->
<g id="edge45" class="edge">
<title>Node31&#45;&gt;Node13</title>
<path fill="none" stroke="#191970" d="M188.6386,-60.8243C203.3989,-59.0999 220.1782,-57.2915 235.5,-56 542.3895,-30.1319 914.0126,-15.5492 1032.3741,-11.3107"/>
<polygon fill="#191970" stroke="#191970" points="1032.8396,-14.7965 1042.7091,-10.944 1032.5913,-7.8009 1032.8396,-14.7965"/>
</g>
<!-- Node31&#45;&gt;Node15 -->
<g id="edge44" class="edge">
<title>Node31&#45;&gt;Node15</title>
<path fill="none" stroke="#191970" d="M125.6679,-56.3733C104.9415,-47.234 73.6112,-33.4191 50.5355,-23.244"/>
<polygon fill="#191970" stroke="#191970" points="51.7683,-19.9625 41.2062,-19.1303 48.944,-26.3675 51.7683,-19.9625"/>
</g>
<!-- Node31&#45;&gt;Node24 -->
<g id="edge41" class="edge">
<title>Node31&#45;&gt;Node24</title>
<path fill="none" stroke="#191970" d="M188.6667,-61.1261C203.4296,-59.4301 220.2035,-57.5625 235.5,-56 408.5671,-38.3221 455.3089,-43.9415 632.4387,-19.8792"/>
<polygon fill="#191970" stroke="#191970" points="632.9177,-23.3463 642.3496,-18.5205 631.9669,-16.4112 632.9177,-23.3463"/>
</g>
<!-- Node31&#45;&gt;Node28 -->
<g id="edge39" class="edge">
<title>Node31&#45;&gt;Node28</title>
<path fill="none" stroke="#191970" d="M188.5391,-59.5194C235.8842,-51.7934 316.2484,-37.9154 394.7682,-20.008"/>
<polygon fill="#191970" stroke="#191970" points="395.8721,-23.3454 404.8302,-17.6883 394.2995,-16.5243 395.8721,-23.3454"/>
</g>
<!-- Node32 -->
<g id="node33" class="node">
<title>Node32</title>
<g id="a_node33"><a xlink:title=" ">
<polygon fill="#ffffff" stroke="#bfbfbf" points="120,-.5 120,-19.5 175,-19.5 175,-.5 120,-.5"/>
<text text-anchor="middle" x="147.5" y="-7.5" font-family="Helvetica,sans-Serif" font-size="10.00" fill="#000000">QVector</text>
</a>
</g>
</g>
<!-- Node31&#45;&gt;Node32 -->
<g id="edge38" class="edge">
<title>Node31&#45;&gt;Node32</title>
<path fill="none" stroke="#191970" d="M147.5,-56.2455C147.5,-48.9382 147.5,-38.6944 147.5,-29.7046"/>
<polygon fill="#191970" stroke="#191970" points="151.0001,-29.6426 147.5,-19.6427 144.0001,-29.6427 151.0001,-29.6426"/>
</g>
<!-- Node33 -->
<g id="node34" class="node">
<title>Node33</title>
<g id="a_node34"><a xlink:title=" ">
<polygon fill="#ffffff" stroke="#bfbfbf" points="193.5,-.5 193.5,-19.5 231.5,-19.5 231.5,-.5 193.5,-.5"/>
<text text-anchor="middle" x="212.5" y="-7.5" font-family="Helvetica,sans-Serif" font-size="10.00" fill="#000000">QDir</text>
</a>
</g>
</g>
<!-- Node31&#45;&gt;Node33 -->
<g id="edge40" class="edge">
<title>Node31&#45;&gt;Node33</title>
<path fill="none" stroke="#191970" d="M158.8221,-56.2455C168.4223,-47.9746 182.3892,-35.9416 193.6695,-26.2232"/>
<polygon fill="#191970" stroke="#191970" points="196.016,-28.8214 201.3076,-19.6427 191.447,-23.5182 196.016,-28.8214"/>
</g>
<!-- Node34 -->
<g id="node35" class="node">
<title>Node34</title>
<g id="a_node35"><a xlink:title=" ">
<polygon fill="#ffffff" stroke="#bfbfbf" points="249.5,-.5 249.5,-19.5 319.5,-19.5 319.5,-.5 249.5,-.5"/>
<text text-anchor="middle" x="284.5" y="-7.5" font-family="Helvetica,sans-Serif" font-size="10.00" fill="#000000">QStringList</text>
</a>
</g>
</g>
<!-- Node31&#45;&gt;Node34 -->
<g id="edge42" class="edge">
<title>Node31&#45;&gt;Node34</title>
<path fill="none" stroke="#191970" d="M171.0511,-56.3733C193.3391,-47.2629 226.9937,-33.5062 251.8637,-23.3404"/>
<polygon fill="#191970" stroke="#191970" points="253.3239,-26.5247 261.2562,-19.5011 250.6753,-20.0451 253.3239,-26.5247"/>
</g>
<!-- Node35 -->
<g id="node36" class="node">
<title>Node35</title>
<g id="a_node36"><a xlink:title=" ">
<polygon fill="#ffffff" stroke="#bfbfbf" points="59.5,-.5 59.5,-19.5 101.5,-19.5 101.5,-.5 59.5,-.5"/>
<text text-anchor="middle" x="80.5" y="-7.5" font-family="Helvetica,sans-Serif" font-size="10.00" fill="#000000">QPair</text>
</a>
</g>
</g>
<!-- Node31&#45;&gt;Node35 -->
<g id="edge43" class="edge">
<title>Node31&#45;&gt;Node35</title>
<path fill="none" stroke="#191970" d="M135.8295,-56.2455C125.9339,-47.9746 111.5373,-35.9416 99.9099,-26.2232"/>
<polygon fill="#191970" stroke="#191970" points="101.9542,-23.3703 92.0368,-19.6427 97.465,-28.7413 101.9542,-23.3703"/>
</g>
<!-- Node36&#45;&gt;Node22 -->
<g id="edge47" class="edge">
<title>Node36&#45;&gt;Node22</title>
<path fill="none" stroke="#191970" d="M1114.3488,-112.3733C1141.1703,-103.1016 1181.9127,-89.0178 1211.4598,-78.804"/>
<polygon fill="#191970" stroke="#191970" points="1212.7069,-82.0762 1221.0146,-75.5011 1210.4198,-75.4603 1212.7069,-82.0762"/>
</g>
<!-- Node37 -->
<g id="node38" class="node">
<title>Node37</title>
<g id="a_node38"><a xlink:title=" ">
<polygon fill="#ffffff" stroke="#bfbfbf" points="1372.5,-56.5 1372.5,-75.5 1428.5,-75.5 1428.5,-56.5 1372.5,-56.5"/>
<text text-anchor="middle" x="1400.5" y="-63.5" font-family="Helvetica,sans-Serif" font-size="10.00" fill="#000000">QObject</text>
</a>
</g>
</g>
<!-- Node36&#45;&gt;Node37 -->
<g id="edge48" class="edge">
<title>Node36&#45;&gt;Node37</title>
<path fill="none" stroke="#191970" d="M1147.7009,-112.5646C1212.087,-102.5173 1310.1966,-86.8358 1362.4693,-76.028"/>
<polygon fill="#191970" stroke="#191970" points="1363.2387,-79.4427 1372.2892,-73.9345 1361.7792,-72.5966 1363.2387,-79.4427"/>
</g>
</g>
</svg>
