<?xml version="1.0" encoding="UTF-8" standalone="no"?>
<!DOCTYPE svg PUBLIC "-//W3C//DTD SVG 1.1//EN"
 "http://www.w3.org/Graphics/SVG/1.1/DTD/svg11.dtd">
<!-- Generated by graphviz version 2.40.1 (0)
 -->
<!-- Title: Autorouter::addUndoConnection Pages: 1 -->
<svg width="530pt" height="104pt"
 viewBox="0.00 0.00 530.00 104.00" xmlns="http://www.w3.org/2000/svg" xmlns:xlink="http://www.w3.org/1999/xlink">
<g id="graph0" class="graph" transform="scale(1 1) rotate(0) translate(4 100)">
<title>Autorouter::addUndoConnection</title>
<polygon fill="#ffffff" stroke="transparent" points="-4,4 -4,-100 526,-100 526,4 -4,4"/>
<!-- Node21 -->
<g id="node1" class="node">
<title>Node21</title>
<g id="a_node1"><a xlink:title=" ">
<polygon fill="#bfbfbf" stroke="#000000" points="349,-38.5 349,-57.5 522,-57.5 522,-38.5 349,-38.5"/>
<text text-anchor="middle" x="435.5" y="-45.5" font-family="Helvetica,sans-Serif" font-size="10.00" fill="#000000">Autorouter::addUndoConnection</text>
</a>
</g>
</g>
<!-- Node22 -->
<g id="node2" class="node">
<title>Node22</title>
<g id="a_node2"><a xlink:href="../../dc/d90/classAutorouter.html#a452840327cffb52a6c2a62f8b2ddd162" target="_top" xlink:title=" ">
<polygon fill="#ffffff" stroke="#000000" points="168.5,-76.5 168.5,-95.5 284.5,-95.5 284.5,-76.5 168.5,-76.5"/>
<text text-anchor="middle" x="226.5" y="-83.5" font-family="Helvetica,sans-Serif" font-size="10.00" fill="#000000">Autorouter::initUndo</text>
</a>
</g>
</g>
<!-- Node21&#45;&gt;Node22 -->
<g id="edge1" class="edge">
<title>Node21&#45;&gt;Node22</title>
<path fill="none" stroke="#191970" d="M373.0918,-59.347C343.1051,-64.7991 307.5664,-71.2607 278.9913,-76.4561"/>
<polygon fill="#191970" stroke="#191970" points="373.8177,-62.7724 383.0302,-57.54 372.5654,-55.8853 373.8177,-62.7724"/>
</g>
<!-- Node24 -->
<g id="node4" class="node">
<title>Node24</title>
<g id="a_node4"><a xlink:href="../../dc/d90/classAutorouter.html#a98066194bc27102e868625cf9468fa04" target="_top" xlink:title=" ">
<polygon fill="#ffffff" stroke="#000000" points="140,-38.5 140,-57.5 313,-57.5 313,-38.5 140,-38.5"/>
<text text-anchor="middle" x="226.5" y="-45.5" font-family="Helvetica,sans-Serif" font-size="10.00" fill="#000000">Autorouter::addUndoConnection</text>
</a>
</g>
</g>
<!-- Node21&#45;&gt;Node24 -->
<g id="edge3" class="edge">
<title>Node21&#45;&gt;Node24</title>
<path fill="none" stroke="#191970" d="M338.9732,-48C330.4063,-48 321.7676,-48 313.289,-48"/>
<polygon fill="#191970" stroke="#191970" points="338.9831,-51.5001 348.983,-48 338.983,-44.5001 338.9831,-51.5001"/>
</g>
<!-- Node25 -->
<g id="node5" class="node">
<title>Node25</title>
<g id="a_node5"><a xlink:href="../../dc/d90/classAutorouter.html#acb2d1cdd431de051dda1890d30d7627c" target="_top" xlink:title=" ">
<polygon fill="#ffffff" stroke="#000000" points="162.5,-.5 162.5,-19.5 290.5,-19.5 290.5,-.5 162.5,-.5"/>
<text text-anchor="middle" x="226.5" y="-7.5" font-family="Helvetica,sans-Serif" font-size="10.00" fill="#000000">Autorouter::addToUndo</text>
</a>
</g>
</g>
<!-- Node21&#45;&gt;Node25 -->
<g id="edge4" class="edge">
<title>Node21&#45;&gt;Node25</title>
<path fill="none" stroke="#191970" d="M373.0918,-36.653C343.1051,-31.2009 307.5664,-24.7393 278.9913,-19.5439"/>
<polygon fill="#191970" stroke="#191970" points="372.5654,-40.1147 383.0302,-38.46 373.8177,-33.2276 372.5654,-40.1147"/>
</g>
<!-- Node23 -->
<g id="node3" class="node">
<title>Node23</title>
<g id="a_node3"><a xlink:href="../../d1/d67/classMazeRouter.html#a0e1c56746b837fa3e83bd6b9e9fcd309" target="_top" xlink:title=" ">
<polygon fill="#ffffff" stroke="#000000" points="0,-76.5 0,-95.5 104,-95.5 104,-76.5 0,-76.5"/>
<text text-anchor="middle" x="52" y="-83.5" font-family="Helvetica,sans-Serif" font-size="10.00" fill="#000000">MazeRouter::start</text>
</a>
</g>
</g>
<!-- Node22&#45;&gt;Node23 -->
<g id="edge2" class="edge">
<title>Node22&#45;&gt;Node23</title>
<path fill="none" stroke="#191970" d="M158.2699,-86C140.3187,-86 121.2384,-86 104.2726,-86"/>
<polygon fill="#191970" stroke="#191970" points="158.3941,-89.5001 168.394,-86 158.394,-82.5001 158.3941,-89.5001"/>
</g>
</g>
</svg>
