<?xml version="1.0" encoding="UTF-8" standalone="no"?>
<!DOCTYPE svg PUBLIC "-//W3C//DTD SVG 1.1//EN"
 "http://www.w3.org/Graphics/SVG/1.1/DTD/svg11.dtd">
<!-- Generated by graphviz version 2.40.1 (0)
 -->
<!-- Title: PartsEditorViewsWidget::connectorSelectedInView Pages: 1 -->
<svg width="693pt" height="137pt"
 viewBox="0.00 0.00 693.00 137.00" xmlns="http://www.w3.org/2000/svg" xmlns:xlink="http://www.w3.org/1999/xlink">
<g id="graph0" class="graph" transform="scale(1 1) rotate(0) translate(4 133)">
<title>PartsEditorViewsWidget::connectorSelectedInView</title>
<polygon fill="#ffffff" stroke="transparent" points="-4,4 -4,-133 689,-133 689,4 -4,4"/>
<!-- Node56 -->
<g id="node1" class="node">
<title>Node56</title>
<g id="a_node1"><a xlink:title=" ">
<polygon fill="#bfbfbf" stroke="#000000" points="539,-49.5 539,-79.5 685,-79.5 685,-49.5 539,-49.5"/>
<text text-anchor="start" x="547" y="-67.5" font-family="Helvetica,sans-Serif" font-size="10.00" fill="#000000">PartsEditorViewsWidget</text>
<text text-anchor="middle" x="612" y="-56.5" font-family="Helvetica,sans-Serif" font-size="10.00" fill="#000000">::connectorSelectedInView</text>
</a>
</g>
</g>
<!-- Node57 -->
<g id="node2" class="node">
<title>Node57</title>
<g id="a_node2"><a xlink:href="../../d7/d71/classPartsEditorViewsWidget.html#a1430c1a75cb64c274ad4c19d0fa319fe" target="_top" xlink:title=" ">
<polygon fill="#ffffff" stroke="#000000" points="354,-49.5 354,-79.5 503,-79.5 503,-49.5 354,-49.5"/>
<text text-anchor="start" x="362" y="-67.5" font-family="Helvetica,sans-Serif" font-size="10.00" fill="#000000">PartsEditorViewsWidget</text>
<text text-anchor="middle" x="428.5" y="-56.5" font-family="Helvetica,sans-Serif" font-size="10.00" fill="#000000">::informConnectorSelection</text>
</a>
</g>
</g>
<!-- Node56&#45;&gt;Node57 -->
<g id="edge1" class="edge">
<title>Node56&#45;&gt;Node57</title>
<path fill="none" stroke="#191970" d="M528.914,-64.5C520.3102,-64.5 511.6039,-64.5 503.1013,-64.5"/>
<polygon fill="#191970" stroke="#191970" points="528.9487,-68.0001 538.9487,-64.5 528.9486,-61.0001 528.9487,-68.0001"/>
</g>
<!-- Node58 -->
<g id="node3" class="node">
<title>Node58</title>
<g id="a_node3"><a xlink:href="../../d7/d71/classPartsEditorViewsWidget.html#a7cbaddf667d040415d7490f013ed57ed" target="_top" xlink:title=" ">
<polygon fill="#ffffff" stroke="#000000" points="175,-98.5 175,-128.5 318,-128.5 318,-98.5 175,-98.5"/>
<text text-anchor="start" x="183" y="-116.5" font-family="Helvetica,sans-Serif" font-size="10.00" fill="#000000">PartsEditorViewsWidget</text>
<text text-anchor="middle" x="246.5" y="-105.5" font-family="Helvetica,sans-Serif" font-size="10.00" fill="#000000">::createViewImageWidget</text>
</a>
</g>
</g>
<!-- Node57&#45;&gt;Node58 -->
<g id="edge2" class="edge">
<title>Node57&#45;&gt;Node58</title>
<path fill="none" stroke="#191970" d="M362.5771,-82.2485C342.8519,-87.5591 321.4217,-93.3288 302.4059,-98.4484"/>
<polygon fill="#191970" stroke="#191970" points="363.6627,-85.5809 372.4089,-79.6014 361.8428,-78.8216 363.6627,-85.5809"/>
</g>
<!-- Node60 -->
<g id="node5" class="node">
<title>Node60</title>
<g id="a_node5"><a xlink:href="../../d7/d71/classPartsEditorViewsWidget.html#a5a810ff8a2e988d60e2d41bc74b6a677" target="_top" xlink:title=" ">
<polygon fill="#ffffff" stroke="#000000" points="180,-49.5 180,-79.5 313,-79.5 313,-49.5 180,-49.5"/>
<text text-anchor="start" x="188" y="-67.5" font-family="Helvetica,sans-Serif" font-size="10.00" fill="#000000">PartsEditorViewsWidget</text>
<text text-anchor="middle" x="246.5" y="-56.5" font-family="Helvetica,sans-Serif" font-size="10.00" fill="#000000">::connectPair</text>
</a>
</g>
</g>
<!-- Node57&#45;&gt;Node60 -->
<g id="edge4" class="edge">
<title>Node57&#45;&gt;Node60</title>
<path fill="none" stroke="#191970" d="M343.7135,-64.5C333.4233,-64.5 323.0267,-64.5 313.0533,-64.5"/>
<polygon fill="#191970" stroke="#191970" points="343.9485,-68.0001 353.9485,-64.5 343.9485,-61.0001 343.9485,-68.0001"/>
</g>
<!-- Node61 -->
<g id="node6" class="node">
<title>Node61</title>
<g id="a_node6"><a xlink:href="../../d7/d71/classPartsEditorViewsWidget.html#a2e90fd7fe11ceda15456627df5775fa6" target="_top" xlink:title=" ">
<polygon fill="#ffffff" stroke="#000000" points="180,-.5 180,-30.5 313,-30.5 313,-.5 180,-.5"/>
<text text-anchor="start" x="188" y="-18.5" font-family="Helvetica,sans-Serif" font-size="10.00" fill="#000000">PartsEditorViewsWidget</text>
<text text-anchor="middle" x="246.5" y="-7.5" font-family="Helvetica,sans-Serif" font-size="10.00" fill="#000000">::connectToThis</text>
</a>
</g>
</g>
<!-- Node57&#45;&gt;Node61 -->
<g id="edge6" class="edge">
<title>Node57&#45;&gt;Node61</title>
<path fill="none" stroke="#191970" d="M362.5771,-46.7515C342.8519,-41.4409 321.4217,-35.6712 302.4059,-30.5516"/>
<polygon fill="#191970" stroke="#191970" points="361.8428,-50.1784 372.4089,-49.3986 363.6627,-43.4191 361.8428,-50.1784"/>
</g>
<!-- Node59 -->
<g id="node4" class="node">
<title>Node59</title>
<g id="a_node4"><a xlink:href="../../d7/d71/classPartsEditorViewsWidget.html#ab89632dde0436769dd665dbea19edfce" target="_top" xlink:title=" ">
<polygon fill="#ffffff" stroke="#000000" points="0,-49.5 0,-79.5 139,-79.5 139,-49.5 0,-49.5"/>
<text text-anchor="start" x="8" y="-67.5" font-family="Helvetica,sans-Serif" font-size="10.00" fill="#000000">PartsEditorViewsWidget</text>
<text text-anchor="middle" x="69.5" y="-56.5" font-family="Helvetica,sans-Serif" font-size="10.00" fill="#000000">::PartsEditorViewsWidget</text>
</a>
</g>
</g>
<!-- Node58&#45;&gt;Node59 -->
<g id="edge3" class="edge">
<title>Node58&#45;&gt;Node59</title>
<path fill="none" stroke="#191970" d="M182.1253,-95.6788C163.0146,-90.3882 142.279,-84.6478 123.87,-79.5516"/>
<polygon fill="#191970" stroke="#191970" points="181.3786,-99.1036 191.9499,-98.3986 183.2462,-92.3573 181.3786,-99.1036"/>
</g>
<!-- Node60&#45;&gt;Node59 -->
<g id="edge5" class="edge">
<title>Node60&#45;&gt;Node59</title>
<path fill="none" stroke="#191970" d="M169.7289,-64.5C159.5306,-64.5 149.1208,-64.5 139.0542,-64.5"/>
<polygon fill="#191970" stroke="#191970" points="169.8361,-68.0001 179.8361,-64.5 169.8361,-61.0001 169.8361,-68.0001"/>
</g>
<!-- Node61&#45;&gt;Node59 -->
<g id="edge7" class="edge">
<title>Node61&#45;&gt;Node59</title>
<path fill="none" stroke="#191970" d="M182.1253,-33.3212C163.0146,-38.6118 142.279,-44.3522 123.87,-49.4484"/>
<polygon fill="#191970" stroke="#191970" points="183.2462,-36.6427 191.9499,-30.6014 181.3786,-29.8964 183.2462,-36.6427"/>
</g>
</g>
</svg>
