<?xml version="1.0" encoding="UTF-8" standalone="no"?>
<!DOCTYPE svg PUBLIC "-//W3C//DTD SVG 1.1//EN"
 "http://www.w3.org/Graphics/SVG/1.1/DTD/svg11.dtd">
<!-- Generated by graphviz version 2.40.1 (0)
 -->
<!-- Title: PartsEditorViewsWidget::drawConnector Pages: 1 -->
<svg width="481pt" height="39pt"
 viewBox="0.00 0.00 481.00 39.00" xmlns="http://www.w3.org/2000/svg" xmlns:xlink="http://www.w3.org/1999/xlink">
<g id="graph0" class="graph" transform="scale(1 1) rotate(0) translate(4 35)">
<title>PartsEditorViewsWidget::drawConnector</title>
<polygon fill="#ffffff" stroke="transparent" points="-4,4 -4,-35 477,-35 477,4 -4,4"/>
<!-- Node111 -->
<g id="node1" class="node">
<title>Node111</title>
<g id="a_node1"><a xlink:title=" ">
<polygon fill="#bfbfbf" stroke="#000000" points="0,-.5 0,-30.5 133,-30.5 133,-.5 0,-.5"/>
<text text-anchor="start" x="8" y="-18.5" font-family="Helvetica,sans-Serif" font-size="10.00" fill="#000000">PartsEditorViewsWidget</text>
<text text-anchor="middle" x="66.5" y="-7.5" font-family="Helvetica,sans-Serif" font-size="10.00" fill="#000000">::drawConnector</text>
</a>
</g>
</g>
<!-- Node112 -->
<g id="node2" class="node">
<title>Node112</title>
<g id="a_node2"><a xlink:href="../../d7/d71/classPartsEditorViewsWidget.html#a07b5eb1655f1ab70790176e490bcecf0" target="_top" xlink:title=" ">
<polygon fill="#ffffff" stroke="#000000" points="169,-.5 169,-30.5 304,-30.5 304,-.5 169,-.5"/>
<text text-anchor="start" x="177" y="-18.5" font-family="Helvetica,sans-Serif" font-size="10.00" fill="#000000">PartsEditorViewsWidget</text>
<text text-anchor="middle" x="236.5" y="-7.5" font-family="Helvetica,sans-Serif" font-size="10.00" fill="#000000">::showingTerminalPoints</text>
</a>
</g>
</g>
<!-- Node111&#45;&gt;Node112 -->
<g id="edge1" class="edge">
<title>Node111&#45;&gt;Node112</title>
<path fill="none" stroke="#191970" d="M133.2006,-15.5C141.5332,-15.5 150.1121,-15.5 158.596,-15.5"/>
<polygon fill="#191970" stroke="#191970" points="158.8746,-19.0001 168.8746,-15.5 158.8745,-12.0001 158.8746,-19.0001"/>
</g>
<!-- Node113 -->
<g id="node3" class="node">
<title>Node113</title>
<g id="a_node3"><a xlink:href="../../d7/d71/classPartsEditorViewsWidget.html#a0596441266e808509026095086e60f82" target="_top" xlink:title=" ">
<polygon fill="#ffffff" stroke="#000000" points="340,-.5 340,-30.5 473,-30.5 473,-.5 340,-.5"/>
<text text-anchor="start" x="348" y="-18.5" font-family="Helvetica,sans-Serif" font-size="10.00" fill="#000000">PartsEditorViewsWidget</text>
<text text-anchor="middle" x="406.5" y="-7.5" font-family="Helvetica,sans-Serif" font-size="10.00" fill="#000000">::checkStateToBool</text>
</a>
</g>
</g>
<!-- Node112&#45;&gt;Node113 -->
<g id="edge2" class="edge">
<title>Node112&#45;&gt;Node113</title>
<path fill="none" stroke="#191970" d="M304.177,-15.5C312.5371,-15.5 321.1307,-15.5 329.6154,-15.5"/>
<polygon fill="#191970" stroke="#191970" points="329.888,-19.0001 339.888,-15.5 329.888,-12.0001 329.888,-19.0001"/>
</g>
</g>
</svg>
