<?xml version="1.0" encoding="UTF-8" standalone="no"?>
<!DOCTYPE svg PUBLIC "-//W3C//DTD SVG 1.1//EN"
 "http://www.w3.org/Graphics/SVG/1.1/DTD/svg11.dtd">
<!-- Generated by graphviz version 2.40.1 (0)
 -->
<!-- Title: TiAlloc Pages: 1 -->
<svg width="164pt" height="256pt"
 viewBox="0.00 0.00 164.00 256.00" xmlns="http://www.w3.org/2000/svg" xmlns:xlink="http://www.w3.org/1999/xlink">
<g id="graph0" class="graph" transform="scale(1 1) rotate(0) translate(4 252)">
<title>TiAlloc</title>
<polygon fill="#ffffff" stroke="transparent" points="-4,4 -4,-252 160,-252 160,4 -4,4"/>
<!-- Node73 -->
<g id="node1" class="node">
<title>Node73</title>
<g id="a_node1"><a xlink:title=" ">
<polygon fill="#bfbfbf" stroke="#000000" points="0,-114.5 0,-133.5 50,-133.5 50,-114.5 0,-114.5"/>
<text text-anchor="middle" x="25" y="-121.5" font-family="Helvetica,sans-Serif" font-size="10.00" fill="#000000">TiAlloc</text>
</a>
</g>
</g>
<!-- Node74 -->
<g id="node2" class="node">
<title>Node74</title>
<g id="a_node2"><a xlink:href="../../da/dce/tile_8h.html#abea9d47b48c294aec71560da3983441d" target="_top" xlink:title=" ">
<polygon fill="#ffffff" stroke="#000000" points="97.5,-228.5 97.5,-247.5 144.5,-247.5 144.5,-228.5 97.5,-228.5"/>
<text text-anchor="middle" x="121" y="-235.5" font-family="Helvetica,sans-Serif" font-size="10.00" fill="#000000">SETBL</text>
</a>
</g>
</g>
<!-- Node73&#45;&gt;Node74 -->
<g id="edge1" class="edge">
<title>Node73&#45;&gt;Node74</title>
<path fill="none" stroke="#191970" d="M29.2295,-133.7503C37.6891,-152.3313 58.2868,-193.2514 86,-219 87.4436,-220.3412 88.9995,-221.6193 90.6249,-222.8317"/>
<polygon fill="#191970" stroke="#191970" points="88.8345,-225.8419 99.132,-228.3341 92.6362,-219.9642 88.8345,-225.8419"/>
</g>
<!-- Node75 -->
<g id="node3" class="node">
<title>Node75</title>
<g id="a_node3"><a xlink:href="../../da/dce/tile_8h.html#a5ad229e314b9911101e7cc2157726f4b" target="_top" xlink:title=" ">
<polygon fill="#ffffff" stroke="#000000" points="97.5,-190.5 97.5,-209.5 144.5,-209.5 144.5,-190.5 97.5,-190.5"/>
<text text-anchor="middle" x="121" y="-197.5" font-family="Helvetica,sans-Serif" font-size="10.00" fill="#000000">SETLB</text>
</a>
</g>
</g>
<!-- Node73&#45;&gt;Node75 -->
<g id="edge2" class="edge">
<title>Node73&#45;&gt;Node75</title>
<path fill="none" stroke="#191970" d="M33.86,-133.6758C45.1905,-145.7045 65.7743,-166.4251 86,-181 88.0614,-182.4855 90.2523,-183.936 92.4929,-185.3311"/>
<polygon fill="#191970" stroke="#191970" points="90.8073,-188.3995 101.213,-190.3927 94.3214,-182.3455 90.8073,-188.3995"/>
</g>
<!-- Node76 -->
<g id="node4" class="node">
<title>Node76</title>
<g id="a_node4"><a xlink:href="../../da/dce/tile_8h.html#a12097ebef1c5ecb3b20021e60ce64d8f" target="_top" xlink:title=" ">
<polygon fill="#ffffff" stroke="#000000" points="97.5,-152.5 97.5,-171.5 144.5,-171.5 144.5,-152.5 97.5,-152.5"/>
<text text-anchor="middle" x="121" y="-159.5" font-family="Helvetica,sans-Serif" font-size="10.00" fill="#000000">SETRT</text>
</a>
</g>
</g>
<!-- Node73&#45;&gt;Node76 -->
<g id="edge3" class="edge">
<title>Node73&#45;&gt;Node76</title>
<path fill="none" stroke="#191970" d="M49.2249,-133.589C60.9987,-138.2495 75.3259,-143.9207 88.0741,-148.9668"/>
<polygon fill="#191970" stroke="#191970" points="86.8604,-152.2506 97.4466,-152.6768 89.4367,-145.7419 86.8604,-152.2506"/>
</g>
<!-- Node77 -->
<g id="node5" class="node">
<title>Node77</title>
<g id="a_node5"><a xlink:href="../../da/dce/tile_8h.html#ad3a67d759b908d75aa6a46a0c56ce741" target="_top" xlink:title=" ">
<polygon fill="#ffffff" stroke="#000000" points="97.5,-114.5 97.5,-133.5 144.5,-133.5 144.5,-114.5 97.5,-114.5"/>
<text text-anchor="middle" x="121" y="-121.5" font-family="Helvetica,sans-Serif" font-size="10.00" fill="#000000">SETTR</text>
</a>
</g>
</g>
<!-- Node73&#45;&gt;Node77 -->
<g id="edge4" class="edge">
<title>Node73&#45;&gt;Node77</title>
<path fill="none" stroke="#191970" d="M50.2229,-124C61.4802,-124 74.9134,-124 87.0367,-124"/>
<polygon fill="#191970" stroke="#191970" points="87.2658,-127.5001 97.2658,-124 87.2658,-120.5001 87.2658,-127.5001"/>
</g>
<!-- Node78 -->
<g id="node6" class="node">
<title>Node78</title>
<g id="a_node6"><a xlink:href="../../da/dce/tile_8h.html#a89bd358791aafdf2230bc314bdb5ef85" target="_top" xlink:title=" ">
<polygon fill="#ffffff" stroke="#000000" points="88,-76.5 88,-95.5 154,-95.5 154,-76.5 88,-76.5"/>
<text text-anchor="middle" x="121" y="-83.5" font-family="Helvetica,sans-Serif" font-size="10.00" fill="#000000">TiSetBody</text>
</a>
</g>
</g>
<!-- Node73&#45;&gt;Node78 -->
<g id="edge5" class="edge">
<title>Node73&#45;&gt;Node78</title>
<path fill="none" stroke="#191970" d="M49.2249,-114.411C60.708,-109.8656 74.6198,-104.3588 87.1269,-99.4081"/>
<polygon fill="#191970" stroke="#191970" points="88.773,-102.5208 96.7829,-95.5859 86.1966,-96.0122 88.773,-102.5208"/>
</g>
<!-- Node79 -->
<g id="node7" class="node">
<title>Node79</title>
<g id="a_node7"><a xlink:href="../../da/dce/tile_8h.html#a9568ca475aab3004d62135f354ad94c5" target="_top" xlink:title=" ">
<polygon fill="#ffffff" stroke="#000000" points="86,-38.5 86,-57.5 156,-57.5 156,-38.5 86,-38.5"/>
<text text-anchor="middle" x="121" y="-45.5" font-family="Helvetica,sans-Serif" font-size="10.00" fill="#000000">TiSetClient</text>
</a>
</g>
</g>
<!-- Node73&#45;&gt;Node79 -->
<g id="edge6" class="edge">
<title>Node73&#45;&gt;Node79</title>
<path fill="none" stroke="#191970" d="M33.86,-114.3242C45.1905,-102.2955 65.7743,-81.5749 86,-67 88.0614,-65.5145 90.2523,-64.064 92.4929,-62.6689"/>
<polygon fill="#191970" stroke="#191970" points="94.3214,-65.6545 101.213,-57.6073 90.8073,-59.6005 94.3214,-65.6545"/>
</g>
<!-- Node80 -->
<g id="node8" class="node">
<title>Node80</title>
<g id="a_node8"><a xlink:href="../../da/dce/tile_8h.html#a911c55bd3c5cfeb36f3ddd57354f6805" target="_top" xlink:title=" ">
<polygon fill="#ffffff" stroke="#000000" points="89,-.5 89,-19.5 153,-19.5 153,-.5 89,-.5"/>
<text text-anchor="middle" x="121" y="-7.5" font-family="Helvetica,sans-Serif" font-size="10.00" fill="#000000">TiSetType</text>
</a>
</g>
</g>
<!-- Node73&#45;&gt;Node80 -->
<g id="edge7" class="edge">
<title>Node73&#45;&gt;Node80</title>
<path fill="none" stroke="#191970" d="M29.2295,-114.2497C37.6891,-95.6687 58.2868,-54.7486 86,-29 87.4436,-27.6588 88.9995,-26.3807 90.6249,-25.1683"/>
<polygon fill="#191970" stroke="#191970" points="92.6362,-28.0358 99.132,-19.6659 88.8345,-22.1581 92.6362,-28.0358"/>
</g>
</g>
</svg>
