<?xml version="1.0" encoding="UTF-8" standalone="no"?>
<!DOCTYPE svg PUBLIC "-//W3C//DTD SVG 1.1//EN"
 "http://www.w3.org/Graphics/SVG/1.1/DTD/svg11.dtd">
<!-- Generated by graphviz version 2.40.1 (0)
 -->
<!-- Title: RatsnestColors::netColor Pages: 1 -->
<svg width="443pt" height="47pt"
 viewBox="0.00 0.00 443.00 47.00" xmlns="http://www.w3.org/2000/svg" xmlns:xlink="http://www.w3.org/1999/xlink">
<g id="graph0" class="graph" transform="scale(1 1) rotate(0) translate(4 43)">
<title>RatsnestColors::netColor</title>
<polygon fill="#ffffff" stroke="transparent" points="-4,4 -4,-43 439,-43 439,4 -4,4"/>
<!-- Node39 -->
<g id="node1" class="node">
<title>Node39</title>
<g id="a_node1"><a xlink:title=" ">
<polygon fill="#bfbfbf" stroke="#000000" points="0,-19.5 0,-38.5 137,-38.5 137,-19.5 0,-19.5"/>
<text text-anchor="middle" x="68.5" y="-26.5" font-family="Helvetica,sans-Serif" font-size="10.00" fill="#000000">RatsnestColors::netColor</text>
</a>
</g>
</g>
<!-- Node40 -->
<g id="node2" class="node">
<title>Node40</title>
<g id="a_node2"><a xlink:href="../../d7/ddc/ratsnestcolors_8cpp.html#a2b300670ca909d8e6055bce049c6445c" target="_top" xlink:title=" ">
<polygon fill="#ffffff" stroke="#000000" points="370,-19.5 370,-38.5 435,-38.5 435,-19.5 370,-19.5"/>
<text text-anchor="middle" x="402.5" y="-26.5" font-family="Helvetica,sans-Serif" font-size="10.00" fill="#000000">ErrorColor</text>
</a>
</g>
</g>
<!-- Node39&#45;&gt;Node40 -->
<g id="edge1" class="edge">
<title>Node39&#45;&gt;Node40</title>
<path fill="none" stroke="#191970" d="M137.3,-29C204.0378,-29 303.2267,-29 359.4728,-29"/>
<polygon fill="#191970" stroke="#191970" points="359.7926,-32.5001 369.7926,-29 359.7925,-25.5001 359.7926,-32.5001"/>
</g>
<!-- Node41 -->
<g id="node3" class="node">
<title>Node41</title>
<g id="a_node3"><a xlink:href="../../d1/db9/classRatsnestColors.html#a19c4c6816acd54586fbf533866380fc8" target="_top" xlink:title=" ">
<polygon fill="#ffffff" stroke="#000000" points="173,-.5 173,-19.5 334,-19.5 334,-.5 173,-.5"/>
<text text-anchor="middle" x="253.5" y="-7.5" font-family="Helvetica,sans-Serif" font-size="10.00" fill="#000000">RatsnestColors::getNextColor</text>
</a>
</g>
</g>
<!-- Node39&#45;&gt;Node41 -->
<g id="edge2" class="edge">
<title>Node39&#45;&gt;Node41</title>
<path fill="none" stroke="#191970" d="M137.1243,-21.9521C145.476,-21.0944 154.1065,-20.208 162.7172,-19.3236"/>
<polygon fill="#191970" stroke="#191970" points="163.2083,-22.7917 172.7983,-18.2883 162.493,-15.8283 163.2083,-22.7917"/>
</g>
<!-- Node41&#45;&gt;Node40 -->
<g id="edge3" class="edge">
<title>Node41&#45;&gt;Node40</title>
<path fill="none" stroke="#191970" d="M328.4365,-19.5557C339.0803,-20.9129 349.7123,-22.2687 359.4633,-23.5121"/>
<polygon fill="#191970" stroke="#191970" points="359.2948,-27.0189 369.6572,-24.812 360.1803,-20.0751 359.2948,-27.0189"/>
</g>
</g>
</svg>
