<?xml version="1.0" encoding="UTF-8" standalone="no"?>
<!DOCTYPE svg PUBLIC "-//W3C//DTD SVG 1.1//EN"
 "http://www.w3.org/Graphics/SVG/1.1/DTD/svg11.dtd">
<!-- Generated by graphviz version 2.40.1 (0)
 -->
<!-- Title: SqliteReferenceModel::propValues Pages: 1 -->
<svg width="392pt" height="66pt"
 viewBox="0.00 0.00 392.00 66.00" xmlns="http://www.w3.org/2000/svg" xmlns:xlink="http://www.w3.org/1999/xlink">
<g id="graph0" class="graph" transform="scale(1 1) rotate(0) translate(4 62)">
<title>SqliteReferenceModel::propValues</title>
<polygon fill="#ffffff" stroke="transparent" points="-4,4 -4,-62 388,-62 388,4 -4,4"/>
<!-- Node864 -->
<g id="node1" class="node">
<title>Node864</title>
<g id="a_node1"><a xlink:title=" ">
<polygon fill="#bfbfbf" stroke="#000000" points="0,-14 0,-44 124,-44 124,-14 0,-14"/>
<text text-anchor="start" x="8" y="-32" font-family="Helvetica,sans-Serif" font-size="10.00" fill="#000000">SqliteReferenceModel</text>
<text text-anchor="middle" x="62" y="-21" font-family="Helvetica,sans-Serif" font-size="10.00" fill="#000000">::propValues</text>
</a>
</g>
</g>
<!-- Node865 -->
<g id="node2" class="node">
<title>Node865</title>
<g id="a_node2"><a xlink:href="../../d4/dd0/sqlitereferencemodel_8cpp.html#a59b42b2f9d864abc732c7659eb43bd6d" target="_top" xlink:title=" ">
<polygon fill="#ffffff" stroke="#000000" points="160,-19.5 160,-38.5 229,-38.5 229,-19.5 160,-19.5"/>
<text text-anchor="middle" x="194.5" y="-26.5" font-family="Helvetica,sans-Serif" font-size="10.00" fill="#000000">debugExec</text>
</a>
</g>
</g>
<!-- Node864&#45;&gt;Node865 -->
<g id="edge1" class="edge">
<title>Node864&#45;&gt;Node865</title>
<path fill="none" stroke="#191970" d="M124.3701,-29C132.9596,-29 141.6364,-29 149.8203,-29"/>
<polygon fill="#191970" stroke="#191970" points="149.8792,-32.5001 159.8792,-29 149.8791,-25.5001 149.8792,-32.5001"/>
</g>
<!-- Node866 -->
<g id="node3" class="node">
<title>Node866</title>
<g id="a_node3"><a xlink:href="../../da/d3a/classDebugDialog.html#ad26216d18945d7d7188420707b76f241" target="_top" xlink:title=" ">
<polygon fill="#ffffff" stroke="#000000" points="266.5,-38.5 266.5,-57.5 382.5,-57.5 382.5,-38.5 266.5,-38.5"/>
<text text-anchor="middle" x="324.5" y="-45.5" font-family="Helvetica,sans-Serif" font-size="10.00" fill="#000000">DebugDialog::debug</text>
</a>
</g>
</g>
<!-- Node865&#45;&gt;Node866 -->
<g id="edge2" class="edge">
<title>Node865&#45;&gt;Node866</title>
<path fill="none" stroke="#191970" d="M229.3376,-34.0917C237.7329,-35.3187 246.9908,-36.6717 256.3361,-38.0376"/>
<polygon fill="#191970" stroke="#191970" points="256.0734,-41.5363 266.4744,-39.5193 257.0857,-34.6099 256.0734,-41.5363"/>
</g>
<!-- Node867 -->
<g id="node4" class="node">
<title>Node867</title>
<g id="a_node4"><a xlink:href="../../d4/d72/classModelPart.html#affa1c5cf5ca90387b030ec2f8311823f" target="_top" xlink:title=" ">
<polygon fill="#ffffff" stroke="#000000" points="265,-.5 265,-19.5 384,-19.5 384,-.5 265,-.5"/>
<text text-anchor="middle" x="324.5" y="-7.5" font-family="Helvetica,sans-Serif" font-size="10.00" fill="#000000">ModelPart::moduleID</text>
</a>
</g>
</g>
<!-- Node865&#45;&gt;Node867 -->
<g id="edge3" class="edge">
<title>Node865&#45;&gt;Node867</title>
<path fill="none" stroke="#191970" d="M229.3376,-23.9083C237.3158,-22.7423 246.0729,-21.4624 254.9437,-20.1659"/>
<polygon fill="#191970" stroke="#191970" points="255.5834,-23.6097 264.9721,-18.7002 254.571,-16.6833 255.5834,-23.6097"/>
</g>
</g>
</svg>
