<?xml version="1.0" encoding="UTF-8" standalone="no"?>
<!DOCTYPE svg PUBLIC "-//W3C//DTD SVG 1.1//EN"
 "http://www.w3.org/Graphics/SVG/1.1/DTD/svg11.dtd">
<!-- Generated by graphviz version 2.40.1 (0)
 -->
<!-- Title: SqliteReferenceModel::removex Pages: 1 -->
<!--zoomable 333 -->
<svg id="main" version="1.1" xmlns="http://www.w3.org/2000/svg" xmlns:xlink="http://www.w3.org/1999/xlink" xml:space="preserve" onload="init(evt)">
<style type="text/css"><![CDATA[
.edge:hover path { stroke: red; }
.edge:hover polygon { stroke: red; fill: red; }
]]></style>
<script type="text/javascript"><![CDATA[
var edges = document.getElementsByTagName('g');
if (edges && edges.length) {
  for (var i=0;i<edges.length;i++) {
    if (edges[i].id.substr(0,4)=='edge') {
      edges[i].setAttribute('class','edge');
    }
  }
}
]]></script>
        <defs>
                <circle id="rim" cx="0" cy="0" r="7"/>
                <circle id="rim2" cx="0" cy="0" r="3.5"/>
                <g id="zoomPlus">
                        <use xlink:href="#rim" fill="#404040">
                                <set attributeName="fill" to="#808080" begin="zoomplus.mouseover" end="zoomplus.mouseout"/>
                        </use>
                        <path d="M-4,0h8M0,-4v8" fill="none" stroke="white" stroke-width="1.5" pointer-events="none"/>
                </g>
                <g id="zoomMin">
                        <use xlink:href="#rim" fill="#404040">
                                <set attributeName="fill" to="#808080" begin="zoomminus.mouseover" end="zoomminus.mouseout"/>
                        </use>
                        <path d="M-4,0h8" fill="none" stroke="white" stroke-width="1.5" pointer-events="none"/>
                </g>
                <g id="dirArrow">
                        <path fill="none" stroke="white" stroke-width="1.5" d="M0,-3.0v7 M-2.5,-0.5L0,-3.0L2.5,-0.5"/>
                </g>
               <g id="resetDef">
                       <use xlink:href="#rim2" fill="#404040">
                               <set attributeName="fill" to="#808080" begin="reset.mouseover" end="reset.mouseout"/>
                       </use>
               </g>
        </defs>

<script type="text/javascript">
var viewWidth = 989;
var viewHeight = 333;
var sectionId = 'dynsection-79';
</script>
<script xlink:href="../../svgpan.js"/>
<svg id="graph" class="graph">
<g id="viewport">
<title>SqliteReferenceModel::removex</title>
<polygon fill="#ffffff" stroke="transparent" points="-4,4 -4,-329 985,-329 985,4 -4,4"/>
<!-- Node1090 -->
<g id="node1" class="node">
<title>Node1090</title>
<g id="a_node1"><a xlink:title=" ">
<polygon fill="#bfbfbf" stroke="#000000" points="857,-147.5 857,-177.5 981,-177.5 981,-147.5 857,-147.5"/>
<text text-anchor="start" x="865" y="-165.5" font-family="Helvetica,sans-Serif" font-size="10.00" fill="#000000">SqliteReferenceModel</text>
<text text-anchor="middle" x="919" y="-154.5" font-family="Helvetica,sans-Serif" font-size="10.00" fill="#000000">::removex</text>
</a>
</g>
</g>
<!-- Node1091 -->
<g id="node2" class="node">
<title>Node1091</title>
<g id="a_node2"><a xlink:href="../../d8/d0a/classSqliteReferenceModel.html#add697f05c89ed9a7a0bd382bf13ff1c4" target="_top" xlink:title=" ">
<polygon fill="#ffffff" stroke="#000000" points="682,-294.5 682,-324.5 806,-324.5 806,-294.5 682,-294.5"/>
<text text-anchor="start" x="690" y="-312.5" font-family="Helvetica,sans-Serif" font-size="10.00" fill="#000000">SqliteReferenceModel</text>
<text text-anchor="middle" x="744" y="-301.5" font-family="Helvetica,sans-Serif" font-size="10.00" fill="#000000">::removePart</text>
</a>
</g>
</g>
<!-- Node1090&#45;&gt;Node1091 -->
<g id="edge1" class="edge">
<title>Node1090&#45;&gt;Node1091</title>
<path fill="none" stroke="#191970" d="M905.9049,-186.4795C889.5582,-214.235 859.0596,-259.4568 821,-285.5 816.031,-288.9002 810.5588,-291.8352 804.8926,-294.3655"/>
<polygon fill="#191970" stroke="#191970" points="908.9506,-188.2039 910.8965,-177.7892 902.8807,-184.7173 908.9506,-188.2039"/>
</g>
<!-- Node1098 -->
<g id="node9" class="node">
<title>Node1098</title>
<g id="a_node9"><a xlink:href="../../d8/d0a/classSqliteReferenceModel.html#a4479b70f5851ac7db9b27f214bd3fc0a" target="_top" xlink:title=" ">
<polygon fill="#ffffff" stroke="#000000" points="682,-245.5 682,-275.5 806,-275.5 806,-245.5 682,-245.5"/>
<text text-anchor="start" x="690" y="-263.5" font-family="Helvetica,sans-Serif" font-size="10.00" fill="#000000">SqliteReferenceModel</text>
<text text-anchor="middle" x="744" y="-252.5" font-family="Helvetica,sans-Serif" font-size="10.00" fill="#000000">::removeProperties</text>
</a>
</g>
</g>
<!-- Node1090&#45;&gt;Node1098 -->
<g id="edge8" class="edge">
<title>Node1090&#45;&gt;Node1098</title>
<path fill="none" stroke="#191970" d="M895.3117,-184.1225C876.3824,-200.4371 848.5462,-222.3529 821,-236.5 814.523,-239.8264 807.5003,-242.7917 800.4208,-245.4054"/>
<polygon fill="#191970" stroke="#191970" points="897.6396,-186.7364 902.8522,-177.5125 893.0252,-181.4725 897.6396,-186.7364"/>
</g>
<!-- Node1099 -->
<g id="node10" class="node">
<title>Node1099</title>
<g id="a_node10"><a xlink:href="../../d8/d0a/classSqliteReferenceModel.html#a57bf4e84ce9ecad56e4132018e24e22d" target="_top" xlink:title=" ">
<polygon fill="#ffffff" stroke="#000000" points="682,-196.5 682,-226.5 806,-226.5 806,-196.5 682,-196.5"/>
<text text-anchor="start" x="690" y="-214.5" font-family="Helvetica,sans-Serif" font-size="10.00" fill="#000000">SqliteReferenceModel</text>
<text text-anchor="middle" x="744" y="-203.5" font-family="Helvetica,sans-Serif" font-size="10.00" fill="#000000">::removeViewImages</text>
</a>
</g>
</g>
<!-- Node1090&#45;&gt;Node1099 -->
<g id="edge10" class="edge">
<title>Node1090&#45;&gt;Node1099</title>
<path fill="none" stroke="#191970" d="M855.3527,-180.3212C836.458,-185.6118 815.9566,-191.3522 797.7556,-196.4484"/>
<polygon fill="#191970" stroke="#191970" points="856.3804,-183.6682 865.0663,-177.6014 854.4929,-176.9274 856.3804,-183.6682"/>
</g>
<!-- Node1100 -->
<g id="node11" class="node">
<title>Node1100</title>
<g id="a_node11"><a xlink:href="../../d8/d0a/classSqliteReferenceModel.html#a52bf68c8beab0b6201a8849104f3a0d8" target="_top" xlink:title=" ">
<polygon fill="#ffffff" stroke="#000000" points="682,-147.5 682,-177.5 806,-177.5 806,-147.5 682,-147.5"/>
<text text-anchor="start" x="690" y="-165.5" font-family="Helvetica,sans-Serif" font-size="10.00" fill="#000000">SqliteReferenceModel</text>
<text text-anchor="middle" x="744" y="-154.5" font-family="Helvetica,sans-Serif" font-size="10.00" fill="#000000">::removeConnectors</text>
</a>
</g>
</g>
<!-- Node1090&#45;&gt;Node1100 -->
<g id="edge12" class="edge">
<title>Node1090&#45;&gt;Node1100</title>
<path fill="none" stroke="#191970" d="M846.6721,-162.5C833.2629,-162.5 819.3635,-162.5 806.2856,-162.5"/>
<polygon fill="#191970" stroke="#191970" points="846.8088,-166.0001 856.8088,-162.5 846.8088,-159.0001 846.8088,-166.0001"/>
</g>
<!-- Node1101 -->
<g id="node12" class="node">
<title>Node1101</title>
<g id="a_node12"><a xlink:href="../../d8/d0a/classSqliteReferenceModel.html#a0bebc1456ccde21dbe04c601009d2ceb" target="_top" xlink:title=" ">
<polygon fill="#ffffff" stroke="#000000" points="682,-98.5 682,-128.5 806,-128.5 806,-98.5 682,-98.5"/>
<text text-anchor="start" x="690" y="-116.5" font-family="Helvetica,sans-Serif" font-size="10.00" fill="#000000">SqliteReferenceModel</text>
<text text-anchor="middle" x="744" y="-105.5" font-family="Helvetica,sans-Serif" font-size="10.00" fill="#000000">::removeBuses</text>
</a>
</g>
</g>
<!-- Node1090&#45;&gt;Node1101 -->
<g id="edge14" class="edge">
<title>Node1090&#45;&gt;Node1101</title>
<path fill="none" stroke="#191970" d="M855.3527,-144.6788C836.458,-139.3882 815.9566,-133.6478 797.7556,-128.5516"/>
<polygon fill="#191970" stroke="#191970" points="854.4929,-148.0726 865.0663,-147.3986 856.3804,-141.3318 854.4929,-148.0726"/>
</g>
<!-- Node1102 -->
<g id="node13" class="node">
<title>Node1102</title>
<g id="a_node13"><a xlink:href="../../d8/d0a/classSqliteReferenceModel.html#a6de293517ee8a69b43f2ce0be2e89f61" target="_top" xlink:title=" ">
<polygon fill="#ffffff" stroke="#000000" points="667,-49.5 667,-79.5 821,-79.5 821,-49.5 667,-49.5"/>
<text text-anchor="start" x="675" y="-67.5" font-family="Helvetica,sans-Serif" font-size="10.00" fill="#000000">SqliteReferenceModel</text>
<text text-anchor="middle" x="744" y="-56.5" font-family="Helvetica,sans-Serif" font-size="10.00" fill="#000000">::removeSchematicSubparts</text>
</a>
</g>
</g>
<!-- Node1090&#45;&gt;Node1102 -->
<g id="edge16" class="edge">
<title>Node1090&#45;&gt;Node1102</title>
<path fill="none" stroke="#191970" d="M894.6167,-140.7736C875.651,-124.7926 848.0881,-103.5021 821,-89.5 813.7584,-85.7567 805.8456,-82.4264 797.9376,-79.514"/>
<polygon fill="#191970" stroke="#191970" points="892.5712,-143.63 902.4423,-147.4787 897.1257,-138.3143 892.5712,-143.63"/>
</g>
<!-- Node1103 -->
<g id="node14" class="node">
<title>Node1103</title>
<g id="a_node14"><a xlink:href="../../d8/d0a/classSqliteReferenceModel.html#a088f90ff3f8636dcc68d1bc19acc5513" target="_top" xlink:title=" ">
<polygon fill="#ffffff" stroke="#000000" points="682,-.5 682,-30.5 806,-30.5 806,-.5 682,-.5"/>
<text text-anchor="start" x="690" y="-18.5" font-family="Helvetica,sans-Serif" font-size="10.00" fill="#000000">SqliteReferenceModel</text>
<text text-anchor="middle" x="744" y="-7.5" font-family="Helvetica,sans-Serif" font-size="10.00" fill="#000000">::removeTags</text>
</a>
</g>
</g>
<!-- Node1090&#45;&gt;Node1103 -->
<g id="edge18" class="edge">
<title>Node1090&#45;&gt;Node1103</title>
<path fill="none" stroke="#191970" d="M905.9049,-138.5205C889.5582,-110.765 859.0596,-65.5432 821,-39.5 816.031,-36.0998 810.5588,-33.1648 804.8926,-30.6345"/>
<polygon fill="#191970" stroke="#191970" points="902.8807,-140.2827 910.8965,-147.2108 908.9506,-136.7961 902.8807,-140.2827"/>
</g>
<!-- Node1092 -->
<g id="node3" class="node">
<title>Node1092</title>
<g id="a_node3"><a xlink:href="../../d8/d0a/classSqliteReferenceModel.html#ab9b5e2312f71572863ebde4429f51d02" target="_top" xlink:title=" ">
<polygon fill="#ffffff" stroke="#000000" points="480,-147.5 480,-177.5 631,-177.5 631,-147.5 480,-147.5"/>
<text text-anchor="start" x="488" y="-165.5" font-family="Helvetica,sans-Serif" font-size="10.00" fill="#000000">SqliteReferenceModel</text>
<text text-anchor="middle" x="555.5" y="-154.5" font-family="Helvetica,sans-Serif" font-size="10.00" fill="#000000">::removePartFromDataBase</text>
</a>
</g>
</g>
<!-- Node1091&#45;&gt;Node1092 -->
<g id="edge2" class="edge">
<title>Node1091&#45;&gt;Node1092</title>
<path fill="none" stroke="#191970" d="M675.0385,-290.1166C672.2649,-288.6794 669.5724,-287.1426 667,-285.5 621.3305,-256.3385 582.6054,-203.6732 565.255,-177.7524"/>
<polygon fill="#191970" stroke="#191970" points="673.5844,-293.3004 684.1246,-294.3751 676.5551,-286.962 673.5844,-293.3004"/>
</g>
<!-- Node1093 -->
<g id="node4" class="node">
<title>Node1093</title>
<g id="a_node4"><a xlink:href="../../d8/d0a/classSqliteReferenceModel.html#a2e8745266d2922e16905a4d4d738f38c" target="_top" xlink:title=" ">
<polygon fill="#ffffff" stroke="#000000" points="320,-172.5 320,-202.5 444,-202.5 444,-172.5 320,-172.5"/>
<text text-anchor="start" x="328" y="-190.5" font-family="Helvetica,sans-Serif" font-size="10.00" fill="#000000">SqliteReferenceModel</text>
<text text-anchor="middle" x="382" y="-179.5" font-family="Helvetica,sans-Serif" font-size="10.00" fill="#000000">::removePart</text>
</a>
</g>
</g>
<!-- Node1092&#45;&gt;Node1093 -->
<g id="edge3" class="edge">
<title>Node1092&#45;&gt;Node1093</title>
<path fill="none" stroke="#191970" d="M469.764,-174.8539C461.1025,-176.102 452.4274,-177.352 444.0843,-178.5541"/>
<polygon fill="#191970" stroke="#191970" points="470.5065,-178.2831 479.9051,-173.3926 469.5081,-171.3547 470.5065,-178.2831"/>
</g>
<!-- Node1094 -->
<g id="node5" class="node">
<title>Node1094</title>
<g id="a_node5"><a xlink:href="../../d8/d0a/classSqliteReferenceModel.html#a51f200ea90a21478b0116eba822e800f" target="_top" xlink:title=" ">
<polygon fill="#ffffff" stroke="#000000" points="320,-123.5 320,-153.5 444,-153.5 444,-123.5 320,-123.5"/>
<text text-anchor="start" x="328" y="-141.5" font-family="Helvetica,sans-Serif" font-size="10.00" fill="#000000">SqliteReferenceModel</text>
<text text-anchor="middle" x="382" y="-130.5" font-family="Helvetica,sans-Serif" font-size="10.00" fill="#000000">::updatePart</text>
</a>
</g>
</g>
<!-- Node1092&#45;&gt;Node1094 -->
<g id="edge4" class="edge">
<title>Node1092&#45;&gt;Node1094</title>
<path fill="none" stroke="#191970" d="M469.764,-150.6403C461.1025,-149.4421 452.4274,-148.2421 444.0843,-147.088"/>
<polygon fill="#191970" stroke="#191970" points="469.5198,-154.1397 479.9051,-152.0431 470.479,-147.2058 469.5198,-154.1397"/>
</g>
<!-- Node1095 -->
<g id="node6" class="node">
<title>Node1095</title>
<g id="a_node6"><a xlink:href="../../d8/d0a/classSqliteReferenceModel.html#ae97517169faa56f9b07b361e93020fb6" target="_top" xlink:title=" ">
<polygon fill="#ffffff" stroke="#000000" points="160,-148.5 160,-178.5 284,-178.5 284,-148.5 160,-148.5"/>
<text text-anchor="start" x="168" y="-166.5" font-family="Helvetica,sans-Serif" font-size="10.00" fill="#000000">SqliteReferenceModel</text>
<text text-anchor="middle" x="222" y="-155.5" font-family="Helvetica,sans-Serif" font-size="10.00" fill="#000000">::addPart</text>
</a>
</g>
</g>
<!-- Node1094&#45;&gt;Node1095 -->
<g id="edge5" class="edge">
<title>Node1094&#45;&gt;Node1095</title>
<path fill="none" stroke="#191970" d="M309.7333,-149.7917C301.1922,-151.1262 292.5324,-152.4793 284.1482,-153.7893"/>
<polygon fill="#191970" stroke="#191970" points="310.3419,-153.2391 319.6817,-148.2372 309.2612,-146.323 310.3419,-153.2391"/>
</g>
<!-- Node1097 -->
<g id="node8" class="node">
<title>Node1097</title>
<g id="a_node8"><a xlink:href="../../d8/d0a/classSqliteReferenceModel.html#aa1da56fc5df4ca446b9671595750f31b" target="_top" xlink:title=" ">
<polygon fill="#ffffff" stroke="#000000" points="160,-99.5 160,-129.5 284,-129.5 284,-99.5 160,-99.5"/>
<text text-anchor="start" x="168" y="-117.5" font-family="Helvetica,sans-Serif" font-size="10.00" fill="#000000">SqliteReferenceModel</text>
<text text-anchor="middle" x="222" y="-106.5" font-family="Helvetica,sans-Serif" font-size="10.00" fill="#000000">::reloadPart</text>
</a>
</g>
</g>
<!-- Node1094&#45;&gt;Node1097 -->
<g id="edge7" class="edge">
<title>Node1094&#45;&gt;Node1097</title>
<path fill="none" stroke="#191970" d="M309.7333,-127.66C301.1922,-126.3788 292.5324,-125.0799 284.1482,-123.8222"/>
<polygon fill="#191970" stroke="#191970" points="309.2731,-131.13 319.6817,-129.1523 310.3115,-124.2075 309.2731,-131.13"/>
</g>
<!-- Node1096 -->
<g id="node7" class="node">
<title>Node1096</title>
<g id="a_node7"><a xlink:href="../../d8/d0a/classSqliteReferenceModel.html#ae998db3e9160ab3b9e0cfc7774b7c802" target="_top" xlink:title=" ">
<polygon fill="#ffffff" stroke="#000000" points="0,-148.5 0,-178.5 124,-178.5 124,-148.5 0,-148.5"/>
<text text-anchor="start" x="8" y="-166.5" font-family="Helvetica,sans-Serif" font-size="10.00" fill="#000000">SqliteReferenceModel</text>
<text text-anchor="middle" x="62" y="-155.5" font-family="Helvetica,sans-Serif" font-size="10.00" fill="#000000">::loadPart</text>
</a>
</g>
</g>
<!-- Node1095&#45;&gt;Node1096 -->
<g id="edge6" class="edge">
<title>Node1095&#45;&gt;Node1096</title>
<path fill="none" stroke="#191970" d="M149.4547,-163.5C141.004,-163.5 132.4413,-163.5 124.1482,-163.5"/>
<polygon fill="#191970" stroke="#191970" points="149.6817,-167.0001 159.6817,-163.5 149.6816,-160.0001 149.6817,-167.0001"/>
</g>
<!-- Node1098&#45;&gt;Node1092 -->
<g id="edge9" class="edge">
<title>Node1098&#45;&gt;Node1092</title>
<path fill="none" stroke="#191970" d="M679.5201,-241.9199C675.2302,-240.2205 671.0205,-238.4127 667,-236.5 632.3831,-220.032 596.0702,-194.0512 574.6281,-177.6613"/>
<polygon fill="#191970" stroke="#191970" points="678.4045,-245.2394 688.9969,-245.4659 680.8577,-238.6834 678.4045,-245.2394"/>
</g>
<!-- Node1099&#45;&gt;Node1092 -->
<g id="edge11" class="edge">
<title>Node1099&#45;&gt;Node1092</title>
<path fill="none" stroke="#191970" d="M676.2059,-193.8771C655.5831,-188.5163 633.1215,-182.6775 613.2279,-177.5062"/>
<polygon fill="#191970" stroke="#191970" points="675.6038,-197.3369 686.1628,-196.4654 677.365,-190.562 675.6038,-197.3369"/>
</g>
<!-- Node1100&#45;&gt;Node1092 -->
<g id="edge13" class="edge">
<title>Node1100&#45;&gt;Node1092</title>
<path fill="none" stroke="#191970" d="M671.7299,-162.5C658.4372,-162.5 644.5267,-162.5 631.1381,-162.5"/>
<polygon fill="#191970" stroke="#191970" points="671.7557,-166.0001 681.7556,-162.5 671.7556,-159.0001 671.7557,-166.0001"/>
</g>
<!-- Node1101&#45;&gt;Node1092 -->
<g id="edge15" class="edge">
<title>Node1101&#45;&gt;Node1092</title>
<path fill="none" stroke="#191970" d="M676.2059,-131.1229C655.5831,-136.4837 633.1215,-142.3225 613.2279,-147.4938"/>
<polygon fill="#191970" stroke="#191970" points="677.365,-134.438 686.1628,-128.5346 675.6038,-127.6631 677.365,-134.438"/>
</g>
<!-- Node1102&#45;&gt;Node1092 -->
<g id="edge17" class="edge">
<title>Node1102&#45;&gt;Node1092</title>
<path fill="none" stroke="#191970" d="M681.4787,-83.2214C676.5156,-85.1834 671.6344,-87.2796 667,-89.5 632.7797,-105.8958 596.6445,-131.2437 575.0919,-147.345"/>
<polygon fill="#191970" stroke="#191970" points="682.949,-86.408 691.0805,-79.6161 680.4883,-79.8547 682.949,-86.408"/>
</g>
<!-- Node1103&#45;&gt;Node1092 -->
<g id="edge19" class="edge">
<title>Node1103&#45;&gt;Node1092</title>
<path fill="none" stroke="#191970" d="M675.0385,-34.8834C672.2649,-36.3206 669.5724,-37.8574 667,-39.5 621.3305,-68.6615 582.6054,-121.3268 565.255,-147.2476"/>
<polygon fill="#191970" stroke="#191970" points="676.5551,-38.038 684.1246,-30.6249 673.5844,-31.6996 676.5551,-38.038"/>
</g>
</g>
</svg>
        <g id="navigator" transform="translate(0 0)" fill="#404254">
                <rect fill="#f2f5e9" fill-opacity="0.5" stroke="#606060" stroke-width=".5" x="0" y="0" width="60" height="60"/>
                <use id="zoomplus" xlink:href="#zoomPlus" x="17" y="9" onmousedown="handleZoom(evt,'in')"/>
                <use id="zoomminus" xlink:href="#zoomMin" x="42" y="9" onmousedown="handleZoom(evt,'out')"/>
                <use id="reset" xlink:href="#resetDef" x="30" y="36" onmousedown="handleReset()"/>
                <g id="arrowUp" xlink:href="#dirArrow" transform="translate(30 24)" onmousedown="handlePan(0,-1)">
                  <use xlink:href="#rim" fill="#404040">
                        <set attributeName="fill" to="#808080" begin="arrowUp.mouseover" end="arrowUp.mouseout"/>
                  </use>
                  <path fill="none" stroke="white" stroke-width="1.5" d="M0,-3.0v7 M-2.5,-0.5L0,-3.0L2.5,-0.5"/>
                </g>
                <g id="arrowRight" xlink:href="#dirArrow" transform="rotate(90) translate(36 -43)" onmousedown="handlePan(1,0)">
                  <use xlink:href="#rim" fill="#404040">
                        <set attributeName="fill" to="#808080" begin="arrowRight.mouseover" end="arrowRight.mouseout"/>
                  </use>
                  <path fill="none" stroke="white" stroke-width="1.5" d="M0,-3.0v7 M-2.5,-0.5L0,-3.0L2.5,-0.5"/>
                </g>
                <g id="arrowDown" xlink:href="#dirArrow" transform="rotate(180) translate(-30 -48)" onmousedown="handlePan(0,1)">
                  <use xlink:href="#rim" fill="#404040">
                        <set attributeName="fill" to="#808080" begin="arrowDown.mouseover" end="arrowDown.mouseout"/>
                  </use>
                  <path fill="none" stroke="white" stroke-width="1.5" d="M0,-3.0v7 M-2.5,-0.5L0,-3.0L2.5,-0.5"/>
                </g>
                <g id="arrowLeft" xlink:href="#dirArrow" transform="rotate(270) translate(-36 17)" onmousedown="handlePan(-1,0)">
                  <use xlink:href="#rim" fill="#404040">
                        <set attributeName="fill" to="#808080" begin="arrowLeft.mouseover" end="arrowLeft.mouseout"/>
                  </use>
                  <path fill="none" stroke="white" stroke-width="1.5" d="M0,-3.0v7 M-2.5,-0.5L0,-3.0L2.5,-0.5"/>
                </g>
        </g>
        <svg viewBox="0 0 15 15" width="100%" height="30px" preserveAspectRatio="xMaxYMin meet">
         <g id="arrow_out" transform="scale(0.3 0.3)">
          <a xlink:href="classSqliteReferenceModel_a9af958133d01022d2ba3f14e4e2eecdd_icgraph_org.svg" target="_base">
           <rect id="button" ry="5" rx="5" y="6" x="6" height="38" width="38"
                fill="#f2f5e9" fill-opacity="0.5" stroke="#606060" stroke-width="1.0"/>
           <path id="arrow"
             d="M 11.500037,31.436501 C 11.940474,20.09759 22.043105,11.32322 32.158766,21.979434 L 37.068811,17.246167 C 37.068811,17.246167 37.088388,32 37.088388,32 L 22.160133,31.978069 C 22.160133,31.978069 26.997745,27.140456 26.997745,27.140456 C 18.528582,18.264221 13.291696,25.230495 11.500037,31.436501 z"
             style="fill:#404040;"/>
          </a>
         </g>
        </svg>
</svg>
