<?xml version="1.0" encoding="UTF-8" standalone="no"?>
<!DOCTYPE svg PUBLIC "-//W3C//DTD SVG 1.1//EN"
 "http://www.w3.org/Graphics/SVG/1.1/DTD/svg11.dtd">
<!-- Generated by graphviz version 2.40.1 (0)
 -->
<!-- Title: SqliteReferenceModel::removePartFromDataBase Pages: 1 -->
<!--zoomable 112 -->
<svg id="main" version="1.1" xmlns="http://www.w3.org/2000/svg" xmlns:xlink="http://www.w3.org/1999/xlink" xml:space="preserve" onload="init(evt)">
<style type="text/css"><![CDATA[
.edge:hover path { stroke: red; }
.edge:hover polygon { stroke: red; fill: red; }
]]></style>
<script type="text/javascript"><![CDATA[
var edges = document.getElementsByTagName('g');
if (edges && edges.length) {
  for (var i=0;i<edges.length;i++) {
    if (edges[i].id.substr(0,4)=='edge') {
      edges[i].setAttribute('class','edge');
    }
  }
}
]]></script>
        <defs>
                <circle id="rim" cx="0" cy="0" r="7"/>
                <circle id="rim2" cx="0" cy="0" r="3.5"/>
                <g id="zoomPlus">
                        <use xlink:href="#rim" fill="#404040">
                                <set attributeName="fill" to="#808080" begin="zoomplus.mouseover" end="zoomplus.mouseout"/>
                        </use>
                        <path d="M-4,0h8M0,-4v8" fill="none" stroke="white" stroke-width="1.5" pointer-events="none"/>
                </g>
                <g id="zoomMin">
                        <use xlink:href="#rim" fill="#404040">
                                <set attributeName="fill" to="#808080" begin="zoomminus.mouseover" end="zoomminus.mouseout"/>
                        </use>
                        <path d="M-4,0h8" fill="none" stroke="white" stroke-width="1.5" pointer-events="none"/>
                </g>
                <g id="dirArrow">
                        <path fill="none" stroke="white" stroke-width="1.5" d="M0,-3.0v7 M-2.5,-0.5L0,-3.0L2.5,-0.5"/>
                </g>
               <g id="resetDef">
                       <use xlink:href="#rim2" fill="#404040">
                               <set attributeName="fill" to="#808080" begin="reset.mouseover" end="reset.mouseout"/>
                       </use>
               </g>
        </defs>

<script type="text/javascript">
var viewWidth = 639;
var viewHeight = 112;
var sectionId = 'dynsection-69';
</script>
<script xlink:href="../../svgpan.js"/>
<svg id="graph" class="graph">
<g id="viewport">
<title>SqliteReferenceModel::removePartFromDataBase</title>
<polygon fill="#ffffff" stroke="transparent" points="-4,4 -4,-108 635,-108 635,4 -4,4"/>
<!-- Node1030 -->
<g id="node1" class="node">
<title>Node1030</title>
<g id="a_node1"><a xlink:title=" ">
<polygon fill="#bfbfbf" stroke="#000000" points="480,-48.5 480,-78.5 631,-78.5 631,-48.5 480,-48.5"/>
<text text-anchor="start" x="488" y="-66.5" font-family="Helvetica,sans-Serif" font-size="10.00" fill="#000000">SqliteReferenceModel</text>
<text text-anchor="middle" x="555.5" y="-55.5" font-family="Helvetica,sans-Serif" font-size="10.00" fill="#000000">::removePartFromDataBase</text>
</a>
</g>
</g>
<!-- Node1031 -->
<g id="node2" class="node">
<title>Node1031</title>
<g id="a_node2"><a xlink:href="../../d8/d0a/classSqliteReferenceModel.html#a2e8745266d2922e16905a4d4d738f38c" target="_top" xlink:title=" ">
<polygon fill="#ffffff" stroke="#000000" points="320,-73.5 320,-103.5 444,-103.5 444,-73.5 320,-73.5"/>
<text text-anchor="start" x="328" y="-91.5" font-family="Helvetica,sans-Serif" font-size="10.00" fill="#000000">SqliteReferenceModel</text>
<text text-anchor="middle" x="382" y="-80.5" font-family="Helvetica,sans-Serif" font-size="10.00" fill="#000000">::removePart</text>
</a>
</g>
</g>
<!-- Node1030&#45;&gt;Node1031 -->
<g id="edge1" class="edge">
<title>Node1030&#45;&gt;Node1031</title>
<path fill="none" stroke="#191970" d="M469.764,-75.8539C461.1025,-77.102 452.4274,-78.352 444.0843,-79.5541"/>
<polygon fill="#191970" stroke="#191970" points="470.5065,-79.2831 479.9051,-74.3926 469.5081,-72.3547 470.5065,-79.2831"/>
</g>
<!-- Node1032 -->
<g id="node3" class="node">
<title>Node1032</title>
<g id="a_node3"><a xlink:href="../../d8/d0a/classSqliteReferenceModel.html#a51f200ea90a21478b0116eba822e800f" target="_top" xlink:title=" ">
<polygon fill="#ffffff" stroke="#000000" points="320,-24.5 320,-54.5 444,-54.5 444,-24.5 320,-24.5"/>
<text text-anchor="start" x="328" y="-42.5" font-family="Helvetica,sans-Serif" font-size="10.00" fill="#000000">SqliteReferenceModel</text>
<text text-anchor="middle" x="382" y="-31.5" font-family="Helvetica,sans-Serif" font-size="10.00" fill="#000000">::updatePart</text>
</a>
</g>
</g>
<!-- Node1030&#45;&gt;Node1032 -->
<g id="edge2" class="edge">
<title>Node1030&#45;&gt;Node1032</title>
<path fill="none" stroke="#191970" d="M469.764,-51.6403C461.1025,-50.4421 452.4274,-49.2421 444.0843,-48.088"/>
<polygon fill="#191970" stroke="#191970" points="469.5198,-55.1397 479.9051,-53.0431 470.479,-48.2058 469.5198,-55.1397"/>
</g>
<!-- Node1033 -->
<g id="node4" class="node">
<title>Node1033</title>
<g id="a_node4"><a xlink:href="../../d8/d0a/classSqliteReferenceModel.html#ae97517169faa56f9b07b361e93020fb6" target="_top" xlink:title=" ">
<polygon fill="#ffffff" stroke="#000000" points="160,-49.5 160,-79.5 284,-79.5 284,-49.5 160,-49.5"/>
<text text-anchor="start" x="168" y="-67.5" font-family="Helvetica,sans-Serif" font-size="10.00" fill="#000000">SqliteReferenceModel</text>
<text text-anchor="middle" x="222" y="-56.5" font-family="Helvetica,sans-Serif" font-size="10.00" fill="#000000">::addPart</text>
</a>
</g>
</g>
<!-- Node1032&#45;&gt;Node1033 -->
<g id="edge3" class="edge">
<title>Node1032&#45;&gt;Node1033</title>
<path fill="none" stroke="#191970" d="M309.7333,-50.7917C301.1922,-52.1262 292.5324,-53.4793 284.1482,-54.7893"/>
<polygon fill="#191970" stroke="#191970" points="310.3419,-54.2391 319.6817,-49.2372 309.2612,-47.323 310.3419,-54.2391"/>
</g>
<!-- Node1035 -->
<g id="node6" class="node">
<title>Node1035</title>
<g id="a_node6"><a xlink:href="../../d8/d0a/classSqliteReferenceModel.html#aa1da56fc5df4ca446b9671595750f31b" target="_top" xlink:title=" ">
<polygon fill="#ffffff" stroke="#000000" points="160,-.5 160,-30.5 284,-30.5 284,-.5 160,-.5"/>
<text text-anchor="start" x="168" y="-18.5" font-family="Helvetica,sans-Serif" font-size="10.00" fill="#000000">SqliteReferenceModel</text>
<text text-anchor="middle" x="222" y="-7.5" font-family="Helvetica,sans-Serif" font-size="10.00" fill="#000000">::reloadPart</text>
</a>
</g>
</g>
<!-- Node1032&#45;&gt;Node1035 -->
<g id="edge5" class="edge">
<title>Node1032&#45;&gt;Node1035</title>
<path fill="none" stroke="#191970" d="M309.7333,-28.66C301.1922,-27.3788 292.5324,-26.0799 284.1482,-24.8222"/>
<polygon fill="#191970" stroke="#191970" points="309.2731,-32.13 319.6817,-30.1523 310.3115,-25.2075 309.2731,-32.13"/>
</g>
<!-- Node1034 -->
<g id="node5" class="node">
<title>Node1034</title>
<g id="a_node5"><a xlink:href="../../d8/d0a/classSqliteReferenceModel.html#ae998db3e9160ab3b9e0cfc7774b7c802" target="_top" xlink:title=" ">
<polygon fill="#ffffff" stroke="#000000" points="0,-49.5 0,-79.5 124,-79.5 124,-49.5 0,-49.5"/>
<text text-anchor="start" x="8" y="-67.5" font-family="Helvetica,sans-Serif" font-size="10.00" fill="#000000">SqliteReferenceModel</text>
<text text-anchor="middle" x="62" y="-56.5" font-family="Helvetica,sans-Serif" font-size="10.00" fill="#000000">::loadPart</text>
</a>
</g>
</g>
<!-- Node1033&#45;&gt;Node1034 -->
<g id="edge4" class="edge">
<title>Node1033&#45;&gt;Node1034</title>
<path fill="none" stroke="#191970" d="M149.4547,-64.5C141.004,-64.5 132.4413,-64.5 124.1482,-64.5"/>
<polygon fill="#191970" stroke="#191970" points="149.6817,-68.0001 159.6817,-64.5 149.6816,-61.0001 149.6817,-68.0001"/>
</g>
</g>
</svg>
        <g id="navigator" transform="translate(0 0)" fill="#404254">
                <rect fill="#f2f5e9" fill-opacity="0.5" stroke="#606060" stroke-width=".5" x="0" y="0" width="60" height="60"/>
                <use id="zoomplus" xlink:href="#zoomPlus" x="17" y="9" onmousedown="handleZoom(evt,'in')"/>
                <use id="zoomminus" xlink:href="#zoomMin" x="42" y="9" onmousedown="handleZoom(evt,'out')"/>
                <use id="reset" xlink:href="#resetDef" x="30" y="36" onmousedown="handleReset()"/>
                <g id="arrowUp" xlink:href="#dirArrow" transform="translate(30 24)" onmousedown="handlePan(0,-1)">
                  <use xlink:href="#rim" fill="#404040">
                        <set attributeName="fill" to="#808080" begin="arrowUp.mouseover" end="arrowUp.mouseout"/>
                  </use>
                  <path fill="none" stroke="white" stroke-width="1.5" d="M0,-3.0v7 M-2.5,-0.5L0,-3.0L2.5,-0.5"/>
                </g>
                <g id="arrowRight" xlink:href="#dirArrow" transform="rotate(90) translate(36 -43)" onmousedown="handlePan(1,0)">
                  <use xlink:href="#rim" fill="#404040">
                        <set attributeName="fill" to="#808080" begin="arrowRight.mouseover" end="arrowRight.mouseout"/>
                  </use>
                  <path fill="none" stroke="white" stroke-width="1.5" d="M0,-3.0v7 M-2.5,-0.5L0,-3.0L2.5,-0.5"/>
                </g>
                <g id="arrowDown" xlink:href="#dirArrow" transform="rotate(180) translate(-30 -48)" onmousedown="handlePan(0,1)">
                  <use xlink:href="#rim" fill="#404040">
                        <set attributeName="fill" to="#808080" begin="arrowDown.mouseover" end="arrowDown.mouseout"/>
                  </use>
                  <path fill="none" stroke="white" stroke-width="1.5" d="M0,-3.0v7 M-2.5,-0.5L0,-3.0L2.5,-0.5"/>
                </g>
                <g id="arrowLeft" xlink:href="#dirArrow" transform="rotate(270) translate(-36 17)" onmousedown="handlePan(-1,0)">
                  <use xlink:href="#rim" fill="#404040">
                        <set attributeName="fill" to="#808080" begin="arrowLeft.mouseover" end="arrowLeft.mouseout"/>
                  </use>
                  <path fill="none" stroke="white" stroke-width="1.5" d="M0,-3.0v7 M-2.5,-0.5L0,-3.0L2.5,-0.5"/>
                </g>
        </g>
        <svg viewBox="0 0 15 15" width="100%" height="30px" preserveAspectRatio="xMaxYMin meet">
         <g id="arrow_out" transform="scale(0.3 0.3)">
          <a xlink:href="classSqliteReferenceModel_ab9b5e2312f71572863ebde4429f51d02_icgraph_org.svg" target="_base">
           <rect id="button" ry="5" rx="5" y="6" x="6" height="38" width="38"
                fill="#f2f5e9" fill-opacity="0.5" stroke="#606060" stroke-width="1.0"/>
           <path id="arrow"
             d="M 11.500037,31.436501 C 11.940474,20.09759 22.043105,11.32322 32.158766,21.979434 L 37.068811,17.246167 C 37.068811,17.246167 37.088388,32 37.088388,32 L 22.160133,31.978069 C 22.160133,31.978069 26.997745,27.140456 26.997745,27.140456 C 18.528582,18.264221 13.291696,25.230495 11.500037,31.436501 z"
             style="fill:#404040;"/>
          </a>
         </g>
        </svg>
</svg>
