<?xml version="1.0" encoding="UTF-8" standalone="no"?>
<!DOCTYPE svg PUBLIC "-//W3C//DTD SVG 1.1//EN"
 "http://www.w3.org/Graphics/SVG/1.1/DTD/svg11.dtd">
<!-- Generated by graphviz version 2.40.1 (0)
 -->
<!-- Title: SqliteReferenceModel::removePart Pages: 1 -->
<svg width="929pt" height="365pt"
 viewBox="0.00 0.00 929.00 365.15" xmlns="http://www.w3.org/2000/svg" xmlns:xlink="http://www.w3.org/1999/xlink">
<g id="graph0" class="graph" transform="scale(1 1) rotate(0) translate(4 361.1472)">
<title>SqliteReferenceModel::removePart</title>
<polygon fill="#ffffff" stroke="transparent" points="-4,4 -4,-361.1472 925,-361.1472 925,4 -4,4"/>
<!-- Node1002 -->
<g id="node1" class="node">
<title>Node1002</title>
<g id="a_node1"><a xlink:title=" ">
<polygon fill="#bfbfbf" stroke="#000000" points="0,-171.5 0,-201.5 124,-201.5 124,-171.5 0,-171.5"/>
<text text-anchor="start" x="8" y="-189.5" font-family="Helvetica,sans-Serif" font-size="10.00" fill="#000000">SqliteReferenceModel</text>
<text text-anchor="middle" x="62" y="-178.5" font-family="Helvetica,sans-Serif" font-size="10.00" fill="#000000">::removePart</text>
</a>
</g>
</g>
<!-- Node1003 -->
<g id="node2" class="node">
<title>Node1003</title>
<g id="a_node2"><a xlink:href="../../d8/d0a/classSqliteReferenceModel.html#ab9b5e2312f71572863ebde4429f51d02" target="_top" xlink:title=" ">
<polygon fill="#ffffff" stroke="#000000" points="160,-171.5 160,-201.5 311,-201.5 311,-171.5 160,-171.5"/>
<text text-anchor="start" x="168" y="-189.5" font-family="Helvetica,sans-Serif" font-size="10.00" fill="#000000">SqliteReferenceModel</text>
<text text-anchor="middle" x="235.5" y="-178.5" font-family="Helvetica,sans-Serif" font-size="10.00" fill="#000000">::removePartFromDataBase</text>
</a>
</g>
</g>
<!-- Node1002&#45;&gt;Node1003 -->
<g id="edge1" class="edge">
<title>Node1002&#45;&gt;Node1003</title>
<path fill="none" stroke="#191970" d="M124.1474,-186.5C132.464,-186.5 141.1094,-186.5 149.7418,-186.5"/>
<polygon fill="#191970" stroke="#191970" points="149.849,-190.0001 159.8489,-186.5 149.8489,-183.0001 149.849,-190.0001"/>
</g>
<!-- Node1004 -->
<g id="node3" class="node">
<title>Node1004</title>
<g id="a_node3"><a xlink:href="../../d8/d0a/classSqliteReferenceModel.html#a45b6c2d19ece71cb68007c4927876020" target="_top" xlink:title=" ">
<polygon fill="#ffffff" stroke="#000000" points="537,-196.5 537,-226.5 661,-226.5 661,-196.5 537,-196.5"/>
<text text-anchor="start" x="545" y="-214.5" font-family="Helvetica,sans-Serif" font-size="10.00" fill="#000000">SqliteReferenceModel</text>
<text text-anchor="middle" x="599" y="-203.5" font-family="Helvetica,sans-Serif" font-size="10.00" fill="#000000">::partId</text>
</a>
</g>
</g>
<!-- Node1003&#45;&gt;Node1004 -->
<g id="edge2" class="edge">
<title>Node1003&#45;&gt;Node1004</title>
<path fill="none" stroke="#191970" d="M241.5,-201.9534C254.83,-233.8218 290.2848,-306.2189 347,-334.5 408.2516,-365.0432 439.3403,-364.2106 501,-334.5 543.2086,-314.1619 572.8648,-265.8226 587.8314,-236.16"/>
<polygon fill="#191970" stroke="#191970" points="591.1164,-237.4078 592.3408,-226.8839 584.8209,-234.3473 591.1164,-237.4078"/>
</g>
<!-- Node1008 -->
<g id="node7" class="node">
<title>Node1008</title>
<g id="a_node7"><a xlink:href="../../d8/d0a/classSqliteReferenceModel.html#add697f05c89ed9a7a0bd382bf13ff1c4" target="_top" xlink:title=" ">
<polygon fill="#ffffff" stroke="#000000" points="362,-196.5 362,-226.5 486,-226.5 486,-196.5 362,-196.5"/>
<text text-anchor="start" x="370" y="-214.5" font-family="Helvetica,sans-Serif" font-size="10.00" fill="#000000">SqliteReferenceModel</text>
<text text-anchor="middle" x="424" y="-203.5" font-family="Helvetica,sans-Serif" font-size="10.00" fill="#000000">::removePart</text>
</a>
</g>
</g>
<!-- Node1003&#45;&gt;Node1008 -->
<g id="edge6" class="edge">
<title>Node1003&#45;&gt;Node1008</title>
<path fill="none" stroke="#191970" d="M311.084,-196.5244C324.5515,-198.3105 338.5486,-200.1669 351.9151,-201.9397"/>
<polygon fill="#191970" stroke="#191970" points="351.6211,-205.4312 361.9945,-203.2765 352.5415,-198.492 351.6211,-205.4312"/>
</g>
<!-- Node1010 -->
<g id="node9" class="node">
<title>Node1010</title>
<g id="a_node9"><a xlink:href="../../d8/d0a/classSqliteReferenceModel.html#a4479b70f5851ac7db9b27f214bd3fc0a" target="_top" xlink:title=" ">
<polygon fill="#ffffff" stroke="#000000" points="362,-147.5 362,-177.5 486,-177.5 486,-147.5 362,-147.5"/>
<text text-anchor="start" x="370" y="-165.5" font-family="Helvetica,sans-Serif" font-size="10.00" fill="#000000">SqliteReferenceModel</text>
<text text-anchor="middle" x="424" y="-154.5" font-family="Helvetica,sans-Serif" font-size="10.00" fill="#000000">::removeProperties</text>
</a>
</g>
</g>
<!-- Node1003&#45;&gt;Node1010 -->
<g id="edge10" class="edge">
<title>Node1003&#45;&gt;Node1010</title>
<path fill="none" stroke="#191970" d="M311.084,-176.8766C324.5515,-175.1619 338.5486,-173.3798 351.9151,-171.6779"/>
<polygon fill="#191970" stroke="#191970" points="352.5167,-175.1297 361.9945,-170.3946 351.6325,-168.1857 352.5167,-175.1297"/>
</g>
<!-- Node1011 -->
<g id="node10" class="node">
<title>Node1011</title>
<g id="a_node10"><a xlink:href="../../d8/d0a/classSqliteReferenceModel.html#a57bf4e84ce9ecad56e4132018e24e22d" target="_top" xlink:title=" ">
<polygon fill="#ffffff" stroke="#000000" points="362,-98.5 362,-128.5 486,-128.5 486,-98.5 362,-98.5"/>
<text text-anchor="start" x="370" y="-116.5" font-family="Helvetica,sans-Serif" font-size="10.00" fill="#000000">SqliteReferenceModel</text>
<text text-anchor="middle" x="424" y="-105.5" font-family="Helvetica,sans-Serif" font-size="10.00" fill="#000000">::removeViewImages</text>
</a>
</g>
</g>
<!-- Node1003&#45;&gt;Node1011 -->
<g id="edge13" class="edge">
<title>Node1003&#45;&gt;Node1011</title>
<path fill="none" stroke="#191970" d="M267.3113,-171.384C289.4061,-161.1671 319.6717,-147.7272 347,-137.5 352.1637,-135.5676 357.5605,-133.6618 362.9966,-131.8202"/>
<polygon fill="#191970" stroke="#191970" points="364.3876,-135.0467 372.7822,-128.5829 362.1889,-128.401 364.3876,-135.0467"/>
</g>
<!-- Node1012 -->
<g id="node11" class="node">
<title>Node1012</title>
<g id="a_node11"><a xlink:href="../../d8/d0a/classSqliteReferenceModel.html#a52bf68c8beab0b6201a8849104f3a0d8" target="_top" xlink:title=" ">
<polygon fill="#ffffff" stroke="#000000" points="362,-49.5 362,-79.5 486,-79.5 486,-49.5 362,-49.5"/>
<text text-anchor="start" x="370" y="-67.5" font-family="Helvetica,sans-Serif" font-size="10.00" fill="#000000">SqliteReferenceModel</text>
<text text-anchor="middle" x="424" y="-56.5" font-family="Helvetica,sans-Serif" font-size="10.00" fill="#000000">::removeConnectors</text>
</a>
</g>
</g>
<!-- Node1003&#45;&gt;Node1012 -->
<g id="edge16" class="edge">
<title>Node1003&#45;&gt;Node1012</title>
<path fill="none" stroke="#191970" d="M248.7764,-171.3651C268.2889,-149.999 306.7748,-111.0847 347,-88.5 350.0848,-86.768 353.3108,-85.1441 356.6199,-83.6239"/>
<polygon fill="#191970" stroke="#191970" points="358.269,-86.7267 366.1179,-79.6102 355.5442,-80.2788 358.269,-86.7267"/>
</g>
<!-- Node1013 -->
<g id="node12" class="node">
<title>Node1013</title>
<g id="a_node12"><a xlink:href="../../d8/d0a/classSqliteReferenceModel.html#a0bebc1456ccde21dbe04c601009d2ceb" target="_top" xlink:title=" ">
<polygon fill="#ffffff" stroke="#000000" points="362,-.5 362,-30.5 486,-30.5 486,-.5 362,-.5"/>
<text text-anchor="start" x="370" y="-18.5" font-family="Helvetica,sans-Serif" font-size="10.00" fill="#000000">SqliteReferenceModel</text>
<text text-anchor="middle" x="424" y="-7.5" font-family="Helvetica,sans-Serif" font-size="10.00" fill="#000000">::removeBuses</text>
</a>
</g>
</g>
<!-- Node1003&#45;&gt;Node1013 -->
<g id="edge19" class="edge">
<title>Node1003&#45;&gt;Node1013</title>
<path fill="none" stroke="#191970" d="M243.0022,-171.0918C258.3313,-141.2119 296.1375,-75.2012 347,-39.5 349.1561,-37.9866 351.4111,-36.5661 353.7388,-35.2328"/>
<polygon fill="#191970" stroke="#191970" points="355.6952,-38.1646 363.0225,-30.512 352.5223,-31.925 355.6952,-38.1646"/>
</g>
<!-- Node1014 -->
<g id="node13" class="node">
<title>Node1014</title>
<g id="a_node13"><a xlink:href="../../d8/d0a/classSqliteReferenceModel.html#a6de293517ee8a69b43f2ce0be2e89f61" target="_top" xlink:title=" ">
<polygon fill="#ffffff" stroke="#000000" points="347,-294.5 347,-324.5 501,-324.5 501,-294.5 347,-294.5"/>
<text text-anchor="start" x="355" y="-312.5" font-family="Helvetica,sans-Serif" font-size="10.00" fill="#000000">SqliteReferenceModel</text>
<text text-anchor="middle" x="424" y="-301.5" font-family="Helvetica,sans-Serif" font-size="10.00" fill="#000000">::removeSchematicSubparts</text>
</a>
</g>
</g>
<!-- Node1003&#45;&gt;Node1014 -->
<g id="edge22" class="edge">
<title>Node1003&#45;&gt;Node1014</title>
<path fill="none" stroke="#191970" d="M248.7433,-201.7969C268.2155,-223.3903 306.6527,-262.7129 347,-285.5 350.0804,-287.2398 353.3029,-288.8699 356.6092,-290.3951"/>
<polygon fill="#191970" stroke="#191970" points="355.5284,-293.7383 366.1013,-294.4194 358.2608,-287.2936 355.5284,-293.7383"/>
</g>
<!-- Node1015 -->
<g id="node14" class="node">
<title>Node1015</title>
<g id="a_node14"><a xlink:href="../../d8/d0a/classSqliteReferenceModel.html#a088f90ff3f8636dcc68d1bc19acc5513" target="_top" xlink:title=" ">
<polygon fill="#ffffff" stroke="#000000" points="362,-245.5 362,-275.5 486,-275.5 486,-245.5 362,-245.5"/>
<text text-anchor="start" x="370" y="-263.5" font-family="Helvetica,sans-Serif" font-size="10.00" fill="#000000">SqliteReferenceModel</text>
<text text-anchor="middle" x="424" y="-252.5" font-family="Helvetica,sans-Serif" font-size="10.00" fill="#000000">::removeTags</text>
</a>
</g>
</g>
<!-- Node1003&#45;&gt;Node1015 -->
<g id="edge25" class="edge">
<title>Node1003&#45;&gt;Node1015</title>
<path fill="none" stroke="#191970" d="M266.3231,-201.5183C288.4801,-212.0179 319.2225,-225.9859 347,-236.5 352.1564,-238.4518 357.5482,-240.3709 362.981,-242.2213"/>
<polygon fill="#191970" stroke="#191970" points="362.1689,-245.6395 372.7623,-245.4699 364.3753,-238.9963 362.1689,-245.6395"/>
</g>
<!-- Node1005 -->
<g id="node4" class="node">
<title>Node1005</title>
<g id="a_node4"><a xlink:href="../../d4/dd0/sqlitereferencemodel_8cpp.html#a59b42b2f9d864abc732c7659eb43bd6d" target="_top" xlink:title=" ">
<polygon fill="#ffffff" stroke="#000000" points="697,-199 697,-218 766,-218 766,-199 697,-199"/>
<text text-anchor="middle" x="731.5" y="-206" font-family="Helvetica,sans-Serif" font-size="10.00" fill="#000000">debugExec</text>
</a>
</g>
</g>
<!-- Node1004&#45;&gt;Node1005 -->
<g id="edge3" class="edge">
<title>Node1004&#45;&gt;Node1005</title>
<path fill="none" stroke="#191970" d="M661.3701,-210.0878C669.9596,-209.8934 678.6364,-209.6969 686.8203,-209.5116"/>
<polygon fill="#191970" stroke="#191970" points="686.961,-213.0094 696.8792,-209.2839 686.8025,-206.0112 686.961,-213.0094"/>
</g>
<!-- Node1006 -->
<g id="node5" class="node">
<title>Node1006</title>
<g id="a_node5"><a xlink:href="../../da/d3a/classDebugDialog.html#ad26216d18945d7d7188420707b76f241" target="_top" xlink:title=" ">
<polygon fill="#ffffff" stroke="#000000" points="803.5,-161 803.5,-180 919.5,-180 919.5,-161 803.5,-161"/>
<text text-anchor="middle" x="861.5" y="-168" font-family="Helvetica,sans-Serif" font-size="10.00" fill="#000000">DebugDialog::debug</text>
</a>
</g>
</g>
<!-- Node1005&#45;&gt;Node1006 -->
<g id="edge4" class="edge">
<title>Node1005&#45;&gt;Node1006</title>
<path fill="none" stroke="#191970" d="M764.3045,-198.911C780.7783,-194.0956 800.9434,-188.2012 818.6273,-183.032"/>
<polygon fill="#191970" stroke="#191970" points="820.0897,-186.2511 828.706,-180.0859 818.1256,-179.5323 820.0897,-186.2511"/>
</g>
<!-- Node1007 -->
<g id="node6" class="node">
<title>Node1007</title>
<g id="a_node6"><a xlink:href="../../d4/d72/classModelPart.html#affa1c5cf5ca90387b030ec2f8311823f" target="_top" xlink:title=" ">
<polygon fill="#ffffff" stroke="#000000" points="802,-199 802,-218 921,-218 921,-199 802,-199"/>
<text text-anchor="middle" x="861.5" y="-206" font-family="Helvetica,sans-Serif" font-size="10.00" fill="#000000">ModelPart::moduleID</text>
</a>
</g>
</g>
<!-- Node1005&#45;&gt;Node1007 -->
<g id="edge5" class="edge">
<title>Node1005&#45;&gt;Node1007</title>
<path fill="none" stroke="#191970" d="M766.3376,-208.5C774.3158,-208.5 783.0729,-208.5 791.9437,-208.5"/>
<polygon fill="#191970" stroke="#191970" points="791.9721,-212.0001 801.9721,-208.5 791.972,-205.0001 791.9721,-212.0001"/>
</g>
<!-- Node1008&#45;&gt;Node1004 -->
<g id="edge7" class="edge">
<title>Node1008&#45;&gt;Node1004</title>
<path fill="none" stroke="#191970" d="M486.1912,-211.5C499.2651,-211.5 513.1638,-211.5 526.5753,-211.5"/>
<polygon fill="#191970" stroke="#191970" points="526.7144,-215.0001 536.7144,-211.5 526.7144,-208.0001 526.7144,-215.0001"/>
</g>
<!-- Node1009 -->
<g id="node8" class="node">
<title>Node1009</title>
<g id="a_node8"><a xlink:href="../../d8/d0a/classSqliteReferenceModel.html#a9af958133d01022d2ba3f14e4e2eecdd" target="_top" xlink:title=" ">
<polygon fill="#ffffff" stroke="#000000" points="537,-147.5 537,-177.5 661,-177.5 661,-147.5 537,-147.5"/>
<text text-anchor="start" x="545" y="-165.5" font-family="Helvetica,sans-Serif" font-size="10.00" fill="#000000">SqliteReferenceModel</text>
<text text-anchor="middle" x="599" y="-154.5" font-family="Helvetica,sans-Serif" font-size="10.00" fill="#000000">::removex</text>
</a>
</g>
</g>
<!-- Node1008&#45;&gt;Node1009 -->
<g id="edge8" class="edge">
<title>Node1008&#45;&gt;Node1009</title>
<path fill="none" stroke="#191970" d="M477.9337,-196.3986C496.1496,-191.2981 516.6532,-185.5571 535.5374,-180.2695"/>
<polygon fill="#191970" stroke="#191970" points="536.5585,-183.6183 545.2444,-177.5516 534.671,-176.8776 536.5585,-183.6183"/>
</g>
<!-- Node1009&#45;&gt;Node1006 -->
<g id="edge9" class="edge">
<title>Node1009&#45;&gt;Node1006</title>
<path fill="none" stroke="#191970" d="M661.2088,-164.3959C700.9025,-165.6056 752.3736,-167.1742 793.1983,-168.4184"/>
<polygon fill="#191970" stroke="#191970" points="793.2324,-171.921 803.3344,-168.7273 793.4457,-164.9242 793.2324,-171.921"/>
</g>
<!-- Node1010&#45;&gt;Node1004 -->
<g id="edge12" class="edge">
<title>Node1010&#45;&gt;Node1004</title>
<path fill="none" stroke="#191970" d="M477.9337,-177.6014C496.1496,-182.7019 516.6532,-188.4429 535.5374,-193.7305"/>
<polygon fill="#191970" stroke="#191970" points="534.671,-197.1224 545.2444,-196.4484 536.5585,-190.3817 534.671,-197.1224"/>
</g>
<!-- Node1010&#45;&gt;Node1009 -->
<g id="edge11" class="edge">
<title>Node1010&#45;&gt;Node1009</title>
<path fill="none" stroke="#191970" d="M486.1912,-162.5C499.2651,-162.5 513.1638,-162.5 526.5753,-162.5"/>
<polygon fill="#191970" stroke="#191970" points="526.7144,-166.0001 536.7144,-162.5 526.7144,-159.0001 526.7144,-166.0001"/>
</g>
<!-- Node1011&#45;&gt;Node1004 -->
<g id="edge15" class="edge">
<title>Node1011&#45;&gt;Node1004</title>
<path fill="none" stroke="#191970" d="M485.4258,-128.614C490.9232,-131.1439 496.2124,-134.0846 501,-137.5 522.9993,-153.194 515.6553,-169.9266 537,-186.5 539.2774,-188.2684 541.6968,-189.9289 544.209,-191.486"/>
<polygon fill="#191970" stroke="#191970" points="542.5953,-194.5933 553.0371,-196.3874 545.9931,-188.4732 542.5953,-194.5933"/>
</g>
<!-- Node1011&#45;&gt;Node1009 -->
<g id="edge14" class="edge">
<title>Node1011&#45;&gt;Node1009</title>
<path fill="none" stroke="#191970" d="M477.9337,-128.6014C496.1496,-133.7019 516.6532,-139.4429 535.5374,-144.7305"/>
<polygon fill="#191970" stroke="#191970" points="534.671,-148.1224 545.2444,-147.4484 536.5585,-141.3817 534.671,-148.1224"/>
</g>
<!-- Node1012&#45;&gt;Node1004 -->
<g id="edge17" class="edge">
<title>Node1012&#45;&gt;Node1004</title>
<path fill="none" stroke="#191970" d="M486.1526,-78.0773C491.5683,-80.9171 496.6376,-84.35 501,-88.5 534.619,-120.482 504.7058,-153.1808 537,-186.5 538.3934,-187.9376 539.8805,-189.295 541.4423,-190.5764"/>
<polygon fill="#191970" stroke="#191970" points="539.5767,-193.5419 549.787,-196.3705 543.5691,-187.7921 539.5767,-193.5419"/>
</g>
<!-- Node1012&#45;&gt;Node1009 -->
<g id="edge18" class="edge">
<title>Node1012&#45;&gt;Node1009</title>
<path fill="none" stroke="#191970" d="M480.4208,-79.5946C487.5003,-82.2083 494.523,-85.1736 501,-88.5 528.5462,-102.6471 556.3824,-124.5629 575.3117,-140.8775"/>
<polygon fill="#191970" stroke="#191970" points="573.0252,-143.5275 582.8522,-147.4875 577.6396,-138.2636 573.0252,-143.5275"/>
</g>
<!-- Node1013&#45;&gt;Node1004 -->
<g id="edge20" class="edge">
<title>Node1013&#45;&gt;Node1004</title>
<path fill="none" stroke="#191970" d="M486.277,-28.3804C491.7369,-31.3555 496.7806,-35.0106 501,-39.5 547.0664,-88.5136 492.9594,-135.6584 537,-186.5 538.1493,-187.8268 539.3793,-189.0841 540.6763,-190.2755"/>
<polygon fill="#191970" stroke="#191970" points="538.6635,-193.1418 548.7439,-196.4029 542.8973,-187.5673 538.6635,-193.1418"/>
</g>
<!-- Node1013&#45;&gt;Node1009 -->
<g id="edge21" class="edge">
<title>Node1013&#45;&gt;Node1009</title>
<path fill="none" stroke="#191970" d="M484.8926,-30.6345C490.5588,-33.1648 496.031,-36.0998 501,-39.5 539.0596,-65.5432 569.5582,-110.765 585.9049,-138.5205"/>
<polygon fill="#191970" stroke="#191970" points="582.8807,-140.2827 590.8965,-147.2108 588.9506,-136.7961 582.8807,-140.2827"/>
</g>
<!-- Node1014&#45;&gt;Node1004 -->
<g id="edge24" class="edge">
<title>Node1014&#45;&gt;Node1004</title>
<path fill="none" stroke="#191970" d="M480.4208,-294.4054C487.5003,-291.7917 494.523,-288.8264 501,-285.5 528.5462,-271.3529 556.3824,-249.4371 575.3117,-233.1225"/>
<polygon fill="#191970" stroke="#191970" points="577.6396,-235.7364 582.8522,-226.5125 573.0252,-230.4725 577.6396,-235.7364"/>
</g>
<!-- Node1014&#45;&gt;Node1009 -->
<g id="edge23" class="edge">
<title>Node1014&#45;&gt;Node1009</title>
<path fill="none" stroke="#191970" d="M489.1494,-294.2883C493.4396,-291.7907 497.4548,-288.8837 501,-285.5 534.8686,-253.1748 504.2362,-219.9445 537,-186.5 538.0601,-185.4178 539.1745,-184.3836 540.3349,-183.3951"/>
<polygon fill="#191970" stroke="#191970" points="542.4663,-186.1739 548.5707,-177.5144 538.3985,-180.4771 542.4663,-186.1739"/>
</g>
<!-- Node1015&#45;&gt;Node1004 -->
<g id="edge27" class="edge">
<title>Node1015&#45;&gt;Node1004</title>
<path fill="none" stroke="#191970" d="M477.9337,-245.3986C496.1496,-240.2981 516.6532,-234.5571 535.5374,-229.2695"/>
<polygon fill="#191970" stroke="#191970" points="536.5585,-232.6183 545.2444,-226.5516 534.671,-225.8776 536.5585,-232.6183"/>
</g>
<!-- Node1015&#45;&gt;Node1009 -->
<g id="edge26" class="edge">
<title>Node1015&#45;&gt;Node1009</title>
<path fill="none" stroke="#191970" d="M485.4603,-245.4341C490.9507,-242.8945 496.2289,-239.9384 501,-236.5 523.2152,-220.4903 515.335,-203.2468 537,-186.5 538.7807,-185.1235 540.6499,-183.8175 542.5838,-182.5791"/>
<polygon fill="#191970" stroke="#191970" points="544.4329,-185.5541 551.4028,-177.5747 540.9781,-179.466 544.4329,-185.5541"/>
</g>
</g>
</svg>
