<?xml version="1.0" encoding="UTF-8" standalone="no"?>
<!DOCTYPE svg PUBLIC "-//W3C//DTD SVG 1.1//EN"
 "http://www.w3.org/Graphics/SVG/1.1/DTD/svg11.dtd">
<!-- Generated by graphviz version 2.40.1 (0)
 -->
<!-- Title: PinHeader::collectValues Pages: 1 -->
<!--zoomable 573 -->
<svg id="main" version="1.1" xmlns="http://www.w3.org/2000/svg" xmlns:xlink="http://www.w3.org/1999/xlink" xml:space="preserve" onload="init(evt)">
<style type="text/css"><![CDATA[
.edge:hover path { stroke: red; }
.edge:hover polygon { stroke: red; fill: red; }
]]></style>
<script type="text/javascript"><![CDATA[
var edges = document.getElementsByTagName('g');
if (edges && edges.length) {
  for (var i=0;i<edges.length;i++) {
    if (edges[i].id.substr(0,4)=='edge') {
      edges[i].setAttribute('class','edge');
    }
  }
}
]]></script>
        <defs>
                <circle id="rim" cx="0" cy="0" r="7"/>
                <circle id="rim2" cx="0" cy="0" r="3.5"/>
                <g id="zoomPlus">
                        <use xlink:href="#rim" fill="#404040">
                                <set attributeName="fill" to="#808080" begin="zoomplus.mouseover" end="zoomplus.mouseout"/>
                        </use>
                        <path d="M-4,0h8M0,-4v8" fill="none" stroke="white" stroke-width="1.5" pointer-events="none"/>
                </g>
                <g id="zoomMin">
                        <use xlink:href="#rim" fill="#404040">
                                <set attributeName="fill" to="#808080" begin="zoomminus.mouseover" end="zoomminus.mouseout"/>
                        </use>
                        <path d="M-4,0h8" fill="none" stroke="white" stroke-width="1.5" pointer-events="none"/>
                </g>
                <g id="dirArrow">
                        <path fill="none" stroke="white" stroke-width="1.5" d="M0,-3.0v7 M-2.5,-0.5L0,-3.0L2.5,-0.5"/>
                </g>
               <g id="resetDef">
                       <use xlink:href="#rim2" fill="#404040">
                               <set attributeName="fill" to="#808080" begin="reset.mouseover" end="reset.mouseout"/>
                       </use>
               </g>
        </defs>

<script type="text/javascript">
var viewWidth = 909;
var viewHeight = 573;
var sectionId = 'dynsection-5';
</script>
<script xlink:href="../../svgpan.js"/>
<svg id="graph" class="graph">
<g id="viewport">
<title>PinHeader::collectValues</title>
<polygon fill="#ffffff" stroke="transparent" points="-4,4 -4,-569.2743 905,-569.2743 905,4 -4,4"/>
<!-- Node95 -->
<g id="node1" class="node">
<title>Node95</title>
<g id="a_node1"><a xlink:title=" ">
<polygon fill="#bfbfbf" stroke="#000000" points="0,-133.5 0,-152.5 137,-152.5 137,-133.5 0,-133.5"/>
<text text-anchor="middle" x="68.5" y="-140.5" font-family="Helvetica,sans-Serif" font-size="10.00" fill="#000000">PinHeader::collectValues</text>
</a>
</g>
</g>
<!-- Node96 -->
<g id="node2" class="node">
<title>Node96</title>
<g id="a_node2"><a xlink:href="../../d3/d04/classPaletteItem.html#ae6c0145b57ffbcc512a708c9e8278e55" target="_top" xlink:title=" ">
<polygon fill="#ffffff" stroke="#000000" points="173,-323.5 173,-342.5 316,-342.5 316,-323.5 173,-323.5"/>
<text text-anchor="middle" x="244.5" y="-330.5" font-family="Helvetica,sans-Serif" font-size="10.00" fill="#000000">PaletteItem::collectValues</text>
</a>
</g>
</g>
<!-- Node95&#45;&gt;Node96 -->
<g id="edge1" class="edge">
<title>Node95&#45;&gt;Node96</title>
<path fill="none" stroke="#191970" d="M77.4698,-152.6833C105.5909,-183.0413 192.2992,-276.6469 228.4334,-315.6554"/>
<polygon fill="#191970" stroke="#191970" points="225.9739,-318.1506 235.3372,-323.1083 231.1092,-313.3936 225.9739,-318.1506"/>
</g>
<!-- Node100 -->
<g id="node6" class="node">
<title>Node100</title>
<g id="a_node6"><a xlink:href="../../d4/d4f/classItemBase.html#a2f0bd0e76df9bbdaa080933ebcc64cac" target="_top" xlink:title=" ">
<polygon fill="#ffffff" stroke="#000000" points="587,-456.5 587,-475.5 688,-475.5 688,-456.5 587,-456.5"/>
<text text-anchor="middle" x="637.5" y="-463.5" font-family="Helvetica,sans-Serif" font-size="10.00" fill="#000000">ItemBase::family</text>
</a>
</g>
</g>
<!-- Node95&#45;&gt;Node100 -->
<g id="edge18" class="edge">
<title>Node95&#45;&gt;Node100</title>
<path fill="none" stroke="#191970" d="M71.423,-152.7342C81.3153,-184.43 116.1285,-286.4073 173,-352 236.3996,-425.1219 259.6266,-447.13 352,-476 431.4894,-500.8433 529.5345,-488.7933 587.593,-477.5601"/>
<polygon fill="#191970" stroke="#191970" points="588.4882,-480.9503 597.6056,-475.5537 587.1128,-474.0868 588.4882,-480.9503"/>
</g>
<!-- Node102 -->
<g id="node8" class="node">
<title>Node102</title>
<g id="a_node8"><a xlink:href="../../d4/d4f/classItemBase.html#acc2f5bad42928e7178c28fa0771b1f60" target="_top" xlink:title=" ">
<polygon fill="#ffffff" stroke="#000000" points="767,-494.5 767,-513.5 886,-513.5 886,-494.5 767,-494.5"/>
<text text-anchor="middle" x="826.5" y="-501.5" font-family="Helvetica,sans-Serif" font-size="10.00" fill="#000000">ItemBase::modelPart</text>
</a>
</g>
</g>
<!-- Node95&#45;&gt;Node102 -->
<g id="edge21" class="edge">
<title>Node95&#45;&gt;Node102</title>
<path fill="none" stroke="#191970" d="M69.4033,-152.5562C73.5557,-191.3297 94.1331,-338.7527 173,-421 343.9297,-599.2561 471.933,-576.7294 716,-539 742.9036,-534.8411 772.2304,-525.3039 793.9066,-517.234"/>
<polygon fill="#191970" stroke="#191970" points="795.1955,-520.4884 803.2914,-513.654 792.7006,-513.9481 795.1955,-520.4884"/>
</g>
<!-- Node104 -->
<g id="node10" class="node">
<title>Node104</title>
<g id="a_node10"><a xlink:href="../../d4/d4f/classItemBase.html#a6728938e08a09a903e8ccc3bf62cedcb" target="_top" xlink:title=" ">
<polygon fill="#ffffff" stroke="#000000" points="592,-190.5 592,-209.5 683,-209.5 683,-190.5 592,-190.5"/>
<text text-anchor="middle" x="637.5" y="-197.5" font-family="Helvetica,sans-Serif" font-size="10.00" fill="#000000">ItemBase::prop</text>
</a>
</g>
</g>
<!-- Node95&#45;&gt;Node104 -->
<g id="edge23" class="edge">
<title>Node95&#45;&gt;Node104</title>
<path fill="none" stroke="#191970" d="M137.112,-148.5206C226.1709,-155.8744 386.3636,-169.7424 523,-185 542.1649,-187.1401 563.0925,-189.7896 581.7527,-192.2636"/>
<polygon fill="#191970" stroke="#191970" points="581.4848,-195.7588 591.8606,-193.6156 582.4129,-188.8206 581.4848,-195.7588"/>
</g>
<!-- Node110 -->
<g id="node16" class="node">
<title>Node110</title>
<g id="a_node16"><a xlink:href="../../d9/d10/classPinHeader.html#a2e444c678587d89817a09d94cf4e59d6" target="_top" xlink:title=" ">
<polygon fill="#ffffff" stroke="#000000" points="194,-114.5 194,-133.5 295,-133.5 295,-114.5 194,-114.5"/>
<text text-anchor="middle" x="244.5" y="-121.5" font-family="Helvetica,sans-Serif" font-size="10.00" fill="#000000">PinHeader::forms</text>
</a>
</g>
</g>
<!-- Node95&#45;&gt;Node110 -->
<g id="edge19" class="edge">
<title>Node95&#45;&gt;Node110</title>
<path fill="none" stroke="#191970" d="M137.0502,-135.5997C152.4208,-133.9404 168.6249,-132.1911 183.6569,-130.5683"/>
<polygon fill="#191970" stroke="#191970" points="184.2852,-134.0209 193.8518,-129.4677 183.5338,-127.0613 184.2852,-134.0209"/>
</g>
<!-- Node111 -->
<g id="node17" class="node">
<title>Node111</title>
<g id="a_node17"><a xlink:href="../../d9/d10/classPinHeader.html#ae338500aefddbeaedc965cb01146499a" target="_top" xlink:title=" ">
<polygon fill="#ffffff" stroke="#000000" points="178.5,-76.5 178.5,-95.5 310.5,-95.5 310.5,-76.5 178.5,-76.5"/>
<text text-anchor="middle" x="244.5" y="-83.5" font-family="Helvetica,sans-Serif" font-size="10.00" fill="#000000">PinHeader::initSpacings</text>
</a>
</g>
</g>
<!-- Node95&#45;&gt;Node111 -->
<g id="edge20" class="edge">
<title>Node95&#45;&gt;Node111</title>
<path fill="none" stroke="#191970" d="M92.7827,-133.4732C113.829,-125.3844 145.1888,-113.7327 173,-105 180.4961,-102.6462 188.4922,-100.3325 196.3215,-98.174"/>
<polygon fill="#191970" stroke="#191970" points="197.3586,-101.5194 206.0992,-95.5317 195.5323,-94.7618 197.3586,-101.5194"/>
</g>
<!-- Node112 -->
<g id="node18" class="node">
<title>Node112</title>
<g id="a_node18"><a xlink:href="../../d4/d4f/classItemBase.html#a97277bb1a43bcb78bcc5522290c63477" target="_top" xlink:title=" ">
<polygon fill="#ffffff" stroke="#000000" points="186.5,-38.5 186.5,-57.5 302.5,-57.5 302.5,-38.5 186.5,-38.5"/>
<text text-anchor="middle" x="244.5" y="-45.5" font-family="Helvetica,sans-Serif" font-size="10.00" fill="#000000">ItemBase::moduleID</text>
</a>
</g>
</g>
<!-- Node95&#45;&gt;Node112 -->
<g id="edge22" class="edge">
<title>Node95&#45;&gt;Node112</title>
<path fill="none" stroke="#191970" d="M78.9274,-133.3421C96.8221,-117.2716 135.1225,-85.0297 173,-67 178.0013,-64.6194 183.3466,-62.5017 188.7781,-60.6258"/>
<polygon fill="#191970" stroke="#191970" points="190.1224,-63.8711 198.5921,-57.5059 188.0017,-57.2001 190.1224,-63.8711"/>
</g>
<!-- Node113 -->
<g id="node19" class="node">
<title>Node113</title>
<g id="a_node19"><a xlink:href="../../d4/d72/classModelPart.html#a59262909e61b1889d251eadb4bf844db" target="_top" xlink:title=" ">
<polygon fill="#ffffff" stroke="#000000" points="184,-.5 184,-19.5 305,-19.5 305,-.5 184,-.5"/>
<text text-anchor="middle" x="244.5" y="-7.5" font-family="Helvetica,sans-Serif" font-size="10.00" fill="#000000">ModelPart::properties</text>
</a>
</g>
</g>
<!-- Node95&#45;&gt;Node113 -->
<g id="edge24" class="edge">
<title>Node95&#45;&gt;Node113</title>
<path fill="none" stroke="#191970" d="M74.5049,-133.3446C88.7412,-111.2849 126.8324,-56.9442 173,-29 176.5848,-26.8302 180.4172,-24.9048 184.3758,-23.1969"/>
<polygon fill="#191970" stroke="#191970" points="185.6978,-26.4386 193.7845,-19.5934 183.1942,-19.9016 185.6978,-26.4386"/>
</g>
<!-- Node97 -->
<g id="node3" class="node">
<title>Node97</title>
<g id="a_node3"><a xlink:href="../../d4/d4f/classItemBase.html#abd8a54aaf724a2713e9f8f22f1950df2" target="_top" xlink:title=" ">
<polygon fill="#ffffff" stroke="#000000" points="370.5,-266.5 370.5,-285.5 504.5,-285.5 504.5,-266.5 370.5,-266.5"/>
<text text-anchor="middle" x="437.5" y="-273.5" font-family="Helvetica,sans-Serif" font-size="10.00" fill="#000000">ItemBase::collectValues</text>
</a>
</g>
</g>
<!-- Node96&#45;&gt;Node97 -->
<g id="edge2" class="edge">
<title>Node96&#45;&gt;Node97</title>
<path fill="none" stroke="#191970" d="M268.9897,-323.3869C290.6022,-315.1342 323.0771,-303.2926 352,-295 360.9095,-292.4455 370.4233,-290.0304 379.7487,-287.833"/>
<polygon fill="#191970" stroke="#191970" points="380.7917,-291.1847 389.7562,-285.5378 379.2269,-284.3619 380.7917,-291.1847"/>
</g>
<!-- Node96&#45;&gt;Node100 -->
<g id="edge10" class="edge">
<title>Node96&#45;&gt;Node100</title>
<path fill="none" stroke="#191970" d="M249.9924,-342.6072C263.722,-365.5652 302.051,-423.4487 352,-447 423.5693,-480.7453 516.6058,-479.8532 576.6879,-474.3627"/>
<polygon fill="#191970" stroke="#191970" points="577.1651,-477.8327 586.7739,-473.3694 576.479,-470.8664 577.1651,-477.8327"/>
</g>
<!-- Node96&#45;&gt;Node102 -->
<g id="edge13" class="edge">
<title>Node96&#45;&gt;Node102</title>
<path fill="none" stroke="#191970" d="M248.2562,-342.5863C259.3472,-369.4164 294.8031,-445.3036 352,-476 486.9131,-548.4052 675.5205,-530.563 769.1176,-515.2577"/>
<polygon fill="#191970" stroke="#191970" points="769.9563,-518.6658 779.2353,-513.552 768.7926,-511.7632 769.9563,-518.6658"/>
</g>
<!-- Node96&#45;&gt;Node104 -->
<g id="edge14" class="edge">
<title>Node96&#45;&gt;Node104</title>
<path fill="none" stroke="#191970" d="M249.9924,-323.3928C263.722,-300.4348 302.051,-242.5513 352,-219 425.693,-184.2533 522.1461,-186.2303 581.948,-192.1375"/>
<polygon fill="#191970" stroke="#191970" points="581.6344,-195.6237 591.9473,-193.1958 582.3713,-188.6626 581.6344,-195.6237"/>
</g>
<!-- Node105 -->
<g id="node11" class="node">
<title>Node105</title>
<g id="a_node11"><a xlink:href="../../d4/d72/classModelPart.html#ae641e5a6bc2ccb547068f54b331a25e0" target="_top" xlink:title=" ">
<polygon fill="#ffffff" stroke="#000000" points="374,-418.5 374,-437.5 501,-437.5 501,-418.5 374,-418.5"/>
<text text-anchor="middle" x="437.5" y="-425.5" font-family="Helvetica,sans-Serif" font-size="10.00" fill="#000000">ModelPart::flippedSMD</text>
</a>
</g>
</g>
<!-- Node96&#45;&gt;Node105 -->
<g id="edge11" class="edge">
<title>Node96&#45;&gt;Node105</title>
<path fill="none" stroke="#191970" d="M254.9092,-342.5541C273.1533,-358.7664 312.7129,-391.5952 352,-409 357.6566,-411.506 363.675,-413.6953 369.7971,-415.6054"/>
<polygon fill="#191970" stroke="#191970" points="368.8884,-418.9858 379.4661,-418.3824 370.8208,-412.2578 368.8884,-418.9858"/>
</g>
<!-- Node106 -->
<g id="node12" class="node">
<title>Node106</title>
<g id="a_node12"><a xlink:href="../../d4/d4f/classItemBase.html#a353296ecaba8bac3acb8e36fc44b312d" target="_top" xlink:title=" ">
<polygon fill="#ffffff" stroke="#000000" points="380.5,-380.5 380.5,-399.5 494.5,-399.5 494.5,-380.5 380.5,-380.5"/>
<text text-anchor="middle" x="437.5" y="-387.5" font-family="Helvetica,sans-Serif" font-size="10.00" fill="#000000">ItemBase::itemType</text>
</a>
</g>
</g>
<!-- Node96&#45;&gt;Node106 -->
<g id="edge12" class="edge">
<title>Node96&#45;&gt;Node106</title>
<path fill="none" stroke="#191970" d="M268.9897,-342.6131C290.6022,-350.8658 323.0771,-362.7074 352,-371 360.9095,-373.5545 370.4233,-375.9696 379.7487,-378.167"/>
<polygon fill="#191970" stroke="#191970" points="379.2269,-381.6381 389.7562,-380.4622 380.7917,-374.8153 379.2269,-381.6381"/>
</g>
<!-- Node107 -->
<g id="node13" class="node">
<title>Node107</title>
<g id="a_node13"><a xlink:href="../../d4/d72/classModelPart.html#a12a30c81302224d01273b58f35d7fb18" target="_top" xlink:title=" ">
<polygon fill="#ffffff" stroke="#000000" points="379,-342.5 379,-361.5 496,-361.5 496,-342.5 379,-342.5"/>
<text text-anchor="middle" x="437.5" y="-349.5" font-family="Helvetica,sans-Serif" font-size="10.00" fill="#000000">ModelPart::viewItem</text>
</a>
</g>
</g>
<!-- Node96&#45;&gt;Node107 -->
<g id="edge15" class="edge">
<title>Node96&#45;&gt;Node107</title>
<path fill="none" stroke="#191970" d="M316.0918,-340.0479C333.2377,-341.7358 351.5097,-343.5346 368.534,-345.2106"/>
<polygon fill="#191970" stroke="#191970" points="368.6567,-348.7395 378.9516,-346.2362 369.3426,-341.7732 368.6567,-348.7395"/>
</g>
<!-- Node108 -->
<g id="node14" class="node">
<title>Node108</title>
<g id="a_node14"><a xlink:href="../../d4/d4f/classItemBase.html#a8f16baa26ee92ac6cd8dda5c69d759d4" target="_top" xlink:title=" ">
<polygon fill="#ffffff" stroke="#000000" points="372.5,-304.5 372.5,-323.5 502.5,-323.5 502.5,-304.5 372.5,-304.5"/>
<text text-anchor="middle" x="437.5" y="-311.5" font-family="Helvetica,sans-Serif" font-size="10.00" fill="#000000">ItemBase::viewLayerID</text>
</a>
</g>
</g>
<!-- Node96&#45;&gt;Node108 -->
<g id="edge16" class="edge">
<title>Node96&#45;&gt;Node108</title>
<path fill="none" stroke="#191970" d="M316.0918,-325.9521C331.0838,-324.4762 346.9367,-322.9156 362.0637,-321.4264"/>
<polygon fill="#191970" stroke="#191970" points="362.7918,-324.8717 372.4008,-320.4087 362.1059,-317.9054 362.7918,-324.8717"/>
</g>
<!-- Node109 -->
<g id="node15" class="node">
<title>Node109</title>
<g id="a_node15"><a xlink:href="../../d4/d4f/classItemBase.html#a3dd3d84b0fdadf869b2bbd87f42ec156" target="_top" xlink:title=" ">
<polygon fill="#ffffff" stroke="#000000" points="352,-228.5 352,-247.5 523,-247.5 523,-228.5 352,-228.5"/>
<text text-anchor="middle" x="437.5" y="-235.5" font-family="Helvetica,sans-Serif" font-size="10.00" fill="#000000">ItemBase::viewLayerPlacement</text>
</a>
</g>
</g>
<!-- Node96&#45;&gt;Node109 -->
<g id="edge17" class="edge">
<title>Node96&#45;&gt;Node109</title>
<path fill="none" stroke="#191970" d="M254.9092,-323.4459C273.1533,-307.2336 312.7129,-274.4048 352,-257 357.6566,-254.494 363.675,-252.3047 369.7971,-250.3946"/>
<polygon fill="#191970" stroke="#191970" points="370.8208,-253.7422 379.4661,-247.6176 368.8884,-247.0142 370.8208,-253.7422"/>
</g>
<!-- Node98 -->
<g id="node4" class="node">
<title>Node98</title>
<g id="a_node4"><a xlink:href="../../de/db8/classTextUtils.html#a76aaffd8ac18c90c1d829e7bdde11556" target="_top" xlink:title=" ">
<polygon fill="#ffffff" stroke="#000000" points="559,-245 559,-275 716,-275 716,-245 559,-245"/>
<text text-anchor="start" x="567" y="-263" font-family="Helvetica,sans-Serif" font-size="10.00" fill="#000000">TextUtils::convertFromPower</text>
<text text-anchor="middle" x="637.5" y="-252" font-family="Helvetica,sans-Serif" font-size="10.00" fill="#000000">Prefix</text>
</a>
</g>
</g>
<!-- Node97&#45;&gt;Node98 -->
<g id="edge3" class="edge">
<title>Node97&#45;&gt;Node98</title>
<path fill="none" stroke="#191970" d="M504.6535,-270.6277C518.7605,-269.4992 533.8487,-268.2921 548.6099,-267.1112"/>
<polygon fill="#191970" stroke="#191970" points="549.0718,-270.5855 558.7609,-266.2991 548.5136,-263.6078 549.0718,-270.5855"/>
</g>
<!-- Node97&#45;&gt;Node100 -->
<g id="edge5" class="edge">
<title>Node97&#45;&gt;Node100</title>
<path fill="none" stroke="#191970" d="M504.4914,-285.5742C511.0469,-288.0466 517.3515,-291.1379 523,-295 579.6641,-333.7428 615.7669,-410.6463 630.2553,-446.611"/>
<polygon fill="#191970" stroke="#191970" points="627.1658,-448.3228 634.0566,-456.3706 633.6885,-445.7822 627.1658,-448.3228"/>
</g>
<!-- Node103 -->
<g id="node9" class="node">
<title>Node103</title>
<g id="a_node9"><a xlink:href="../../d9/dfa/itembase_8cpp.html#a6613b1cb650eccee58aad1798669bb98" target="_top" xlink:title=" ">
<polygon fill="#ffffff" stroke="#000000" points="574,-294.5 574,-313.5 701,-313.5 701,-294.5 574,-294.5"/>
<text text-anchor="middle" x="637.5" y="-301.5" font-family="Helvetica,sans-Serif" font-size="10.00" fill="#000000">numberValueLessThan</text>
</a>
</g>
</g>
<!-- Node97&#45;&gt;Node103 -->
<g id="edge8" class="edge">
<title>Node97&#45;&gt;Node103</title>
<path fill="none" stroke="#191970" d="M504.6535,-285.4015C523.6907,-288.0667 544.5147,-290.9821 563.9107,-293.6975"/>
<polygon fill="#191970" stroke="#191970" points="563.5176,-297.1765 573.9064,-295.0969 564.4882,-290.2441 563.5176,-297.1765"/>
</g>
<!-- Node97&#45;&gt;Node104 -->
<g id="edge9" class="edge">
<title>Node97&#45;&gt;Node104</title>
<path fill="none" stroke="#191970" d="M493.0478,-266.4581C503.1938,-263.9316 513.5525,-260.813 523,-257 540.3883,-249.982 542.4024,-243.725 559,-235 573.5948,-227.3278 590.2158,-219.7579 604.3946,-213.6314"/>
<polygon fill="#191970" stroke="#191970" points="605.9389,-216.778 613.7656,-209.6371 603.194,-210.3385 605.9389,-216.778"/>
</g>
<!-- Node99 -->
<g id="node5" class="node">
<title>Node99</title>
<g id="a_node5"><a xlink:href="../../de/db8/classTextUtils.html#a6d3d27199572ef69fc3d13417c08cc5e" target="_top" xlink:title=" ">
<polygon fill="#ffffff" stroke="#000000" points="752,-250.5 752,-269.5 901,-269.5 901,-250.5 752,-250.5"/>
<text text-anchor="middle" x="826.5" y="-257.5" font-family="Helvetica,sans-Serif" font-size="10.00" fill="#000000">TextUtils::initPowerPrefixes</text>
</a>
</g>
</g>
<!-- Node98&#45;&gt;Node99 -->
<g id="edge4" class="edge">
<title>Node98&#45;&gt;Node99</title>
<path fill="none" stroke="#191970" d="M716.0111,-260C724.5399,-260 733.2478,-260 741.8457,-260"/>
<polygon fill="#191970" stroke="#191970" points="741.8711,-263.5001 751.8711,-260 741.8711,-256.5001 741.8711,-263.5001"/>
</g>
<!-- Node101 -->
<g id="node7" class="node">
<title>Node101</title>
<g id="a_node7"><a xlink:href="../../d4/d72/classModelPart.html#a21ecb2edba2b75d35f9c00636f1c3d30" target="_top" xlink:title=" ">
<polygon fill="#ffffff" stroke="#000000" points="775,-456.5 775,-475.5 878,-475.5 878,-456.5 775,-456.5"/>
<text text-anchor="middle" x="826.5" y="-463.5" font-family="Helvetica,sans-Serif" font-size="10.00" fill="#000000">ModelPart::family</text>
</a>
</g>
</g>
<!-- Node100&#45;&gt;Node101 -->
<g id="edge6" class="edge">
<title>Node100&#45;&gt;Node101</title>
<path fill="none" stroke="#191970" d="M688.1485,-466C711.6938,-466 739.9057,-466 764.6943,-466"/>
<polygon fill="#191970" stroke="#191970" points="764.7241,-469.5001 774.7241,-466 764.7241,-462.5001 764.7241,-469.5001"/>
</g>
<!-- Node100&#45;&gt;Node102 -->
<g id="edge7" class="edge">
<title>Node100&#45;&gt;Node102</title>
<path fill="none" stroke="#191970" d="M685.1927,-475.589C710.695,-480.7165 742.2818,-487.0672 769.1196,-492.4632"/>
<polygon fill="#191970" stroke="#191970" points="768.6565,-495.9401 779.1503,-494.4799 770.0364,-489.0774 768.6565,-495.9401"/>
</g>
</g>
</svg>
        <g id="navigator" transform="translate(0 0)" fill="#404254">
                <rect fill="#f2f5e9" fill-opacity="0.5" stroke="#606060" stroke-width=".5" x="0" y="0" width="60" height="60"/>
                <use id="zoomplus" xlink:href="#zoomPlus" x="17" y="9" onmousedown="handleZoom(evt,'in')"/>
                <use id="zoomminus" xlink:href="#zoomMin" x="42" y="9" onmousedown="handleZoom(evt,'out')"/>
                <use id="reset" xlink:href="#resetDef" x="30" y="36" onmousedown="handleReset()"/>
                <g id="arrowUp" xlink:href="#dirArrow" transform="translate(30 24)" onmousedown="handlePan(0,-1)">
                  <use xlink:href="#rim" fill="#404040">
                        <set attributeName="fill" to="#808080" begin="arrowUp.mouseover" end="arrowUp.mouseout"/>
                  </use>
                  <path fill="none" stroke="white" stroke-width="1.5" d="M0,-3.0v7 M-2.5,-0.5L0,-3.0L2.5,-0.5"/>
                </g>
                <g id="arrowRight" xlink:href="#dirArrow" transform="rotate(90) translate(36 -43)" onmousedown="handlePan(1,0)">
                  <use xlink:href="#rim" fill="#404040">
                        <set attributeName="fill" to="#808080" begin="arrowRight.mouseover" end="arrowRight.mouseout"/>
                  </use>
                  <path fill="none" stroke="white" stroke-width="1.5" d="M0,-3.0v7 M-2.5,-0.5L0,-3.0L2.5,-0.5"/>
                </g>
                <g id="arrowDown" xlink:href="#dirArrow" transform="rotate(180) translate(-30 -48)" onmousedown="handlePan(0,1)">
                  <use xlink:href="#rim" fill="#404040">
                        <set attributeName="fill" to="#808080" begin="arrowDown.mouseover" end="arrowDown.mouseout"/>
                  </use>
                  <path fill="none" stroke="white" stroke-width="1.5" d="M0,-3.0v7 M-2.5,-0.5L0,-3.0L2.5,-0.5"/>
                </g>
                <g id="arrowLeft" xlink:href="#dirArrow" transform="rotate(270) translate(-36 17)" onmousedown="handlePan(-1,0)">
                  <use xlink:href="#rim" fill="#404040">
                        <set attributeName="fill" to="#808080" begin="arrowLeft.mouseover" end="arrowLeft.mouseout"/>
                  </use>
                  <path fill="none" stroke="white" stroke-width="1.5" d="M0,-3.0v7 M-2.5,-0.5L0,-3.0L2.5,-0.5"/>
                </g>
        </g>
        <svg viewBox="0 0 15 15" width="100%" height="30px" preserveAspectRatio="xMaxYMin meet">
         <g id="arrow_out" transform="scale(0.3 0.3)">
          <a xlink:href="classPinHeader_a51fec433e2b3c199d8031d2768c27ecb_cgraph_org.svg" target="_base">
           <rect id="button" ry="5" rx="5" y="6" x="6" height="38" width="38"
                fill="#f2f5e9" fill-opacity="0.5" stroke="#606060" stroke-width="1.0"/>
           <path id="arrow"
             d="M 11.500037,31.436501 C 11.940474,20.09759 22.043105,11.32322 32.158766,21.979434 L 37.068811,17.246167 C 37.068811,17.246167 37.088388,32 37.088388,32 L 22.160133,31.978069 C 22.160133,31.978069 26.997745,27.140456 26.997745,27.140456 C 18.528582,18.264221 13.291696,25.230495 11.500037,31.436501 z"
             style="fill:#404040;"/>
          </a>
         </g>
        </svg>
</svg>
