<?xml version="1.0" encoding="UTF-8" standalone="no"?>
<!DOCTYPE svg PUBLIC "-//W3C//DTD SVG 1.1//EN"
 "http://www.w3.org/Graphics/SVG/1.1/DTD/svg11.dtd">
<!-- Generated by graphviz version 2.40.1 (0)
 -->
<!-- Title: PinHeader::makeBreadboardShroudedSvg Pages: 1 -->
<svg width="360pt" height="313pt"
 viewBox="0.00 0.00 360.00 312.50" xmlns="http://www.w3.org/2000/svg" xmlns:xlink="http://www.w3.org/1999/xlink">
<g id="graph0" class="graph" transform="scale(1 1) rotate(0) translate(4 308.5)">
<title>PinHeader::makeBreadboardShroudedSvg</title>
<polygon fill="#ffffff" stroke="transparent" points="-4,4 -4,-308.5 356,-308.5 356,4 -4,4"/>
<!-- Node277 -->
<g id="node1" class="node">
<title>Node277</title>
<g id="a_node1"><a xlink:title=" ">
<polygon fill="#bfbfbf" stroke="#000000" points="0,-137.5 0,-167.5 156,-167.5 156,-137.5 0,-137.5"/>
<text text-anchor="start" x="8" y="-155.5" font-family="Helvetica,sans-Serif" font-size="10.00" fill="#000000">PinHeader::makeBreadboard</text>
<text text-anchor="middle" x="78" y="-144.5" font-family="Helvetica,sans-Serif" font-size="10.00" fill="#000000">ShroudedSvg</text>
</a>
</g>
</g>
<!-- Node278 -->
<g id="node2" class="node">
<title>Node278</title>
<g id="a_node2"><a xlink:href="../../de/db8/classTextUtils.html#ab87ac0d5f3754fc92075353504161537" target="_top" xlink:title=" ">
<polygon fill="#ffffff" stroke="#000000" points="196,-285 196,-304 348,-304 348,-285 196,-285"/>
<text text-anchor="middle" x="272" y="-292" font-family="Helvetica,sans-Serif" font-size="10.00" fill="#000000">TextUtils::getViewBoxCoord</text>
</a>
</g>
</g>
<!-- Node277&#45;&gt;Node278 -->
<g id="edge1" class="edge">
<title>Node277&#45;&gt;Node278</title>
<path fill="none" stroke="#191970" d="M87.5722,-167.6657C104.9859,-193.9395 144.4731,-247.7637 192,-275.5 195.849,-277.7463 199.949,-279.7272 204.1815,-281.4742"/>
<polygon fill="#191970" stroke="#191970" points="203.0192,-284.7759 213.6128,-284.937 205.4319,-278.2048 203.0192,-284.7759"/>
</g>
<!-- Node279 -->
<g id="node3" class="node">
<title>Node279</title>
<g id="a_node3"><a xlink:href="../../de/db8/classTextUtils.html#a31919c349d6462cbcb8742f08d6e7c9c" target="_top" xlink:title=" ">
<polygon fill="#ffffff" stroke="#000000" points="205,-235.5 205,-265.5 339,-265.5 339,-235.5 205,-235.5"/>
<text text-anchor="start" x="213" y="-253.5" font-family="Helvetica,sans-Serif" font-size="10.00" fill="#000000">TextUtils::incMultiplyPin</text>
<text text-anchor="middle" x="272" y="-242.5" font-family="Helvetica,sans-Serif" font-size="10.00" fill="#000000">Function</text>
</a>
</g>
</g>
<!-- Node277&#45;&gt;Node279 -->
<g id="edge2" class="edge">
<title>Node277&#45;&gt;Node279</title>
<path fill="none" stroke="#191970" d="M97.5808,-167.7031C119.5246,-184.1296 156.67,-210.1424 192,-226.5 196.1079,-228.4019 200.4036,-230.1969 204.7803,-231.8827"/>
<polygon fill="#191970" stroke="#191970" points="203.8552,-235.2705 214.4493,-235.3981 206.247,-228.6918 203.8552,-235.2705"/>
</g>
<!-- Node280 -->
<g id="node4" class="node">
<title>Node280</title>
<g id="a_node4"><a xlink:href="../../de/db8/classTextUtils.html#ad908775b15b7557b17705ed20e7d8a35" target="_top" xlink:title=" ">
<polygon fill="#ffffff" stroke="#000000" points="192,-186.5 192,-216.5 352,-216.5 352,-186.5 192,-186.5"/>
<text text-anchor="start" x="200" y="-204.5" font-family="Helvetica,sans-Serif" font-size="10.00" fill="#000000">TextUtils::incrementTemplate</text>
<text text-anchor="middle" x="272" y="-193.5" font-family="Helvetica,sans-Serif" font-size="10.00" fill="#000000">String</text>
</a>
</g>
</g>
<!-- Node277&#45;&gt;Node280 -->
<g id="edge3" class="edge">
<title>Node277&#45;&gt;Node280</title>
<path fill="none" stroke="#191970" d="M137.5248,-167.5346C158.1016,-172.7318 181.3371,-178.6006 202.6336,-183.9796"/>
<polygon fill="#191970" stroke="#191970" points="202.0351,-187.4383 212.5878,-186.4938 203.7494,-180.6514 202.0351,-187.4383"/>
</g>
<!-- Node281 -->
<g id="node5" class="node">
<title>Node281</title>
<g id="a_node5"><a xlink:href="../../de/db8/classTextUtils.html#affbc293e98807a9ff25096a219bd6fd0" target="_top" xlink:title=" ">
<polygon fill="#ffffff" stroke="#000000" points="203.5,-137.5 203.5,-167.5 340.5,-167.5 340.5,-137.5 203.5,-137.5"/>
<text text-anchor="start" x="211.5" y="-155.5" font-family="Helvetica,sans-Serif" font-size="10.00" fill="#000000">TextUtils::negIncCopyPin</text>
<text text-anchor="middle" x="272" y="-144.5" font-family="Helvetica,sans-Serif" font-size="10.00" fill="#000000">Function</text>
</a>
</g>
</g>
<!-- Node277&#45;&gt;Node281 -->
<g id="edge4" class="edge">
<title>Node277&#45;&gt;Node281</title>
<path fill="none" stroke="#191970" d="M156.0686,-152.5C168.3248,-152.5 181.0006,-152.5 193.2715,-152.5"/>
<polygon fill="#191970" stroke="#191970" points="193.4659,-156.0001 203.4658,-152.5 193.4658,-149.0001 193.4659,-156.0001"/>
</g>
<!-- Node282 -->
<g id="node6" class="node">
<title>Node282</title>
<g id="a_node6"><a xlink:href="../../de/db8/classTextUtils.html#ac237cced8514f5457a974d9ca6d611be" target="_top" xlink:title=" ">
<polygon fill="#ffffff" stroke="#000000" points="193,-99 193,-118 351,-118 351,-99 193,-99"/>
<text text-anchor="middle" x="272" y="-106" font-family="Helvetica,sans-Serif" font-size="10.00" fill="#000000">TextUtils::noCopyPinFunction</text>
</a>
</g>
</g>
<!-- Node277&#45;&gt;Node282 -->
<g id="edge5" class="edge">
<title>Node277&#45;&gt;Node282</title>
<path fill="none" stroke="#191970" d="M144.2212,-137.4808C168.9859,-131.864 196.7367,-125.57 220.0332,-120.2863"/>
<polygon fill="#191970" stroke="#191970" points="221.0807,-123.6377 230.0589,-118.0124 219.5324,-116.811 221.0807,-123.6377"/>
</g>
<!-- Node283 -->
<g id="node7" class="node">
<title>Node283</title>
<g id="a_node7"><a xlink:href="../../de/db8/classTextUtils.html#a58843cfaf8e44ba98f07f4a412f7b388" target="_top" xlink:title=" ">
<polygon fill="#ffffff" stroke="#000000" points="198,-49.5 198,-79.5 346,-79.5 346,-49.5 198,-49.5"/>
<text text-anchor="start" x="206" y="-67.5" font-family="Helvetica,sans-Serif" font-size="10.00" fill="#000000">TextUtils::standardCopyPin</text>
<text text-anchor="middle" x="272" y="-56.5" font-family="Helvetica,sans-Serif" font-size="10.00" fill="#000000">Function</text>
</a>
</g>
</g>
<!-- Node277&#45;&gt;Node283 -->
<g id="edge6" class="edge">
<title>Node277&#45;&gt;Node283</title>
<path fill="none" stroke="#191970" d="M102.1821,-137.2509C124.777,-123.4639 159.7701,-103.274 192,-89.5 197.4003,-87.1921 203.0862,-84.9905 208.8335,-82.9191"/>
<polygon fill="#191970" stroke="#191970" points="210.2218,-86.1423 218.524,-79.5602 207.9293,-79.5283 210.2218,-86.1423"/>
</g>
<!-- Node284 -->
<g id="node8" class="node">
<title>Node284</title>
<g id="a_node8"><a xlink:href="../../de/db8/classTextUtils.html#a99d956c2a8102e284cd548761a50fee9" target="_top" xlink:title=" ">
<polygon fill="#ffffff" stroke="#000000" points="198,-.5 198,-30.5 346,-30.5 346,-.5 198,-.5"/>
<text text-anchor="start" x="206" y="-18.5" font-family="Helvetica,sans-Serif" font-size="10.00" fill="#000000">TextUtils::standardMultiply</text>
<text text-anchor="middle" x="272" y="-7.5" font-family="Helvetica,sans-Serif" font-size="10.00" fill="#000000">PinFunction</text>
</a>
</g>
</g>
<!-- Node277&#45;&gt;Node284 -->
<g id="edge7" class="edge">
<title>Node277&#45;&gt;Node284</title>
<path fill="none" stroke="#191970" d="M89.5877,-137.1309C108.473,-113.1165 148.2055,-66.7348 192,-40.5 195.581,-38.3548 199.3641,-36.3765 203.2589,-34.5545"/>
<polygon fill="#191970" stroke="#191970" points="204.7002,-37.7447 212.5072,-30.5822 201.9376,-31.3129 204.7002,-37.7447"/>
</g>
</g>
</svg>
