<?xml version="1.0" encoding="UTF-8" standalone="no"?>
<!DOCTYPE svg PUBLIC "-//W3C//DTD SVG 1.1//EN"
 "http://www.w3.org/Graphics/SVG/1.1/DTD/svg11.dtd">
<!-- Generated by graphviz version 2.40.1 (0)
 -->
<!-- Title: PinHeader::makeBreadboardShroudedSvg Pages: 1 -->
<!--zoomable 66 -->
<svg id="main" version="1.1" xmlns="http://www.w3.org/2000/svg" xmlns:xlink="http://www.w3.org/1999/xlink" xml:space="preserve" onload="init(evt)">
<style type="text/css"><![CDATA[
.edge:hover path { stroke: red; }
.edge:hover polygon { stroke: red; fill: red; }
]]></style>
<script type="text/javascript"><![CDATA[
var edges = document.getElementsByTagName('g');
if (edges && edges.length) {
  for (var i=0;i<edges.length;i++) {
    if (edges[i].id.substr(0,4)=='edge') {
      edges[i].setAttribute('class','edge');
    }
  }
}
]]></script>
        <defs>
                <circle id="rim" cx="0" cy="0" r="7"/>
                <circle id="rim2" cx="0" cy="0" r="3.5"/>
                <g id="zoomPlus">
                        <use xlink:href="#rim" fill="#404040">
                                <set attributeName="fill" to="#808080" begin="zoomplus.mouseover" end="zoomplus.mouseout"/>
                        </use>
                        <path d="M-4,0h8M0,-4v8" fill="none" stroke="white" stroke-width="1.5" pointer-events="none"/>
                </g>
                <g id="zoomMin">
                        <use xlink:href="#rim" fill="#404040">
                                <set attributeName="fill" to="#808080" begin="zoomminus.mouseover" end="zoomminus.mouseout"/>
                        </use>
                        <path d="M-4,0h8" fill="none" stroke="white" stroke-width="1.5" pointer-events="none"/>
                </g>
                <g id="dirArrow">
                        <path fill="none" stroke="white" stroke-width="1.5" d="M0,-3.0v7 M-2.5,-0.5L0,-3.0L2.5,-0.5"/>
                </g>
               <g id="resetDef">
                       <use xlink:href="#rim2" fill="#404040">
                               <set attributeName="fill" to="#808080" begin="reset.mouseover" end="reset.mouseout"/>
                       </use>
               </g>
        </defs>

<script type="text/javascript">
var viewWidth = 565;
var viewHeight = 66;
var sectionId = 'dynsection-17';
</script>
<script xlink:href="../../svgpan.js"/>
<svg id="graph" class="graph">
<g id="viewport">
<title>PinHeader::makeBreadboardShroudedSvg</title>
<polygon fill="#ffffff" stroke="transparent" points="-4,4 -4,-62 561,-62 561,4 -4,4"/>
<!-- Node285 -->
<g id="node1" class="node">
<title>Node285</title>
<g id="a_node1"><a xlink:title=" ">
<polygon fill="#bfbfbf" stroke="#000000" points="401,-14 401,-44 557,-44 557,-14 401,-14"/>
<text text-anchor="start" x="409" y="-32" font-family="Helvetica,sans-Serif" font-size="10.00" fill="#000000">PinHeader::makeBreadboard</text>
<text text-anchor="middle" x="479" y="-21" font-family="Helvetica,sans-Serif" font-size="10.00" fill="#000000">ShroudedSvg</text>
</a>
</g>
</g>
<!-- Node286 -->
<g id="node2" class="node">
<title>Node286</title>
<g id="a_node2"><a xlink:href="../../d9/d10/classPinHeader.html#aacf2829eda2687b3e0fefee99e1387ad" target="_top" xlink:title=" ">
<polygon fill="#ffffff" stroke="#000000" points="191,-19.5 191,-38.5 365,-38.5 365,-19.5 191,-19.5"/>
<text text-anchor="middle" x="278" y="-26.5" font-family="Helvetica,sans-Serif" font-size="10.00" fill="#000000">PinHeader::makeBreadboardSvg</text>
</a>
</g>
</g>
<!-- Node285&#45;&gt;Node286 -->
<g id="edge1" class="edge">
<title>Node285&#45;&gt;Node286</title>
<path fill="none" stroke="#191970" d="M390.4907,-29C382.0507,-29 373.4963,-29 365.0701,-29"/>
<polygon fill="#191970" stroke="#191970" points="390.7126,-32.5001 400.7126,-29 390.7126,-25.5001 390.7126,-32.5001"/>
</g>
<!-- Node287 -->
<g id="node3" class="node">
<title>Node287</title>
<g id="a_node3"><a xlink:href="../../d0/d85/classPartFactory.html#ad0fbb8e06dce6c1030aea570ac31602f" target="_top" xlink:title=" ">
<polygon fill="#ffffff" stroke="#000000" points="0,-38.5 0,-57.5 155,-57.5 155,-38.5 0,-38.5"/>
<text text-anchor="middle" x="77.5" y="-45.5" font-family="Helvetica,sans-Serif" font-size="10.00" fill="#000000">PartFactory::getSvgFilename</text>
</a>
</g>
</g>
<!-- Node286&#45;&gt;Node287 -->
<g id="edge2" class="edge">
<title>Node286&#45;&gt;Node287</title>
<path fill="none" stroke="#191970" d="M180.8116,-38.2099C172.1649,-39.0293 163.4879,-39.8515 155.0381,-40.6522"/>
<polygon fill="#191970" stroke="#191970" points="181.3073,-41.6787 190.9325,-37.2508 180.6469,-34.7099 181.3073,-41.6787"/>
</g>
<!-- Node288 -->
<g id="node4" class="node">
<title>Node288</title>
<g id="a_node4"><a xlink:href="../../d9/d10/classPinHeader.html#aabee4a72749b77a79d8ce10e6727f20d" target="_top" xlink:title=" ">
<polygon fill="#ffffff" stroke="#000000" points="15.5,-.5 15.5,-19.5 139.5,-19.5 139.5,-.5 15.5,-.5"/>
<text text-anchor="middle" x="77.5" y="-7.5" font-family="Helvetica,sans-Serif" font-size="10.00" fill="#000000">PinHeader::swapEntry</text>
</a>
</g>
</g>
<!-- Node286&#45;&gt;Node288 -->
<g id="edge3" class="edge">
<title>Node286&#45;&gt;Node288</title>
<path fill="none" stroke="#191970" d="M180.7941,-19.7885C166.8302,-18.4652 152.7875,-17.1345 139.751,-15.8991"/>
<polygon fill="#191970" stroke="#191970" points="180.6469,-23.2901 190.9325,-20.7492 181.3073,-16.3213 180.6469,-23.2901"/>
</g>
</g>
</svg>
        <g id="navigator" transform="translate(0 0)" fill="#404254">
                <rect fill="#f2f5e9" fill-opacity="0.5" stroke="#606060" stroke-width=".5" x="0" y="0" width="60" height="60"/>
                <use id="zoomplus" xlink:href="#zoomPlus" x="17" y="9" onmousedown="handleZoom(evt,'in')"/>
                <use id="zoomminus" xlink:href="#zoomMin" x="42" y="9" onmousedown="handleZoom(evt,'out')"/>
                <use id="reset" xlink:href="#resetDef" x="30" y="36" onmousedown="handleReset()"/>
                <g id="arrowUp" xlink:href="#dirArrow" transform="translate(30 24)" onmousedown="handlePan(0,-1)">
                  <use xlink:href="#rim" fill="#404040">
                        <set attributeName="fill" to="#808080" begin="arrowUp.mouseover" end="arrowUp.mouseout"/>
                  </use>
                  <path fill="none" stroke="white" stroke-width="1.5" d="M0,-3.0v7 M-2.5,-0.5L0,-3.0L2.5,-0.5"/>
                </g>
                <g id="arrowRight" xlink:href="#dirArrow" transform="rotate(90) translate(36 -43)" onmousedown="handlePan(1,0)">
                  <use xlink:href="#rim" fill="#404040">
                        <set attributeName="fill" to="#808080" begin="arrowRight.mouseover" end="arrowRight.mouseout"/>
                  </use>
                  <path fill="none" stroke="white" stroke-width="1.5" d="M0,-3.0v7 M-2.5,-0.5L0,-3.0L2.5,-0.5"/>
                </g>
                <g id="arrowDown" xlink:href="#dirArrow" transform="rotate(180) translate(-30 -48)" onmousedown="handlePan(0,1)">
                  <use xlink:href="#rim" fill="#404040">
                        <set attributeName="fill" to="#808080" begin="arrowDown.mouseover" end="arrowDown.mouseout"/>
                  </use>
                  <path fill="none" stroke="white" stroke-width="1.5" d="M0,-3.0v7 M-2.5,-0.5L0,-3.0L2.5,-0.5"/>
                </g>
                <g id="arrowLeft" xlink:href="#dirArrow" transform="rotate(270) translate(-36 17)" onmousedown="handlePan(-1,0)">
                  <use xlink:href="#rim" fill="#404040">
                        <set attributeName="fill" to="#808080" begin="arrowLeft.mouseover" end="arrowLeft.mouseout"/>
                  </use>
                  <path fill="none" stroke="white" stroke-width="1.5" d="M0,-3.0v7 M-2.5,-0.5L0,-3.0L2.5,-0.5"/>
                </g>
        </g>
        <svg viewBox="0 0 15 15" width="100%" height="30px" preserveAspectRatio="xMaxYMin meet">
         <g id="arrow_out" transform="scale(0.3 0.3)">
          <a xlink:href="classPinHeader_a9f78c6e6a62b1a48dd7d92b69da241fb_icgraph_org.svg" target="_base">
           <rect id="button" ry="5" rx="5" y="6" x="6" height="38" width="38"
                fill="#f2f5e9" fill-opacity="0.5" stroke="#606060" stroke-width="1.0"/>
           <path id="arrow"
             d="M 11.500037,31.436501 C 11.940474,20.09759 22.043105,11.32322 32.158766,21.979434 L 37.068811,17.246167 C 37.068811,17.246167 37.088388,32 37.088388,32 L 22.160133,31.978069 C 22.160133,31.978069 26.997745,27.140456 26.997745,27.140456 C 18.528582,18.264221 13.291696,25.230495 11.500037,31.436501 z"
             style="fill:#404040;"/>
          </a>
         </g>
        </svg>
</svg>
