<?xml version="1.0" encoding="UTF-8" standalone="no"?>
<!DOCTYPE svg PUBLIC "-//W3C//DTD SVG 1.1//EN"
 "http://www.w3.org/Graphics/SVG/1.1/DTD/svg11.dtd">
<!-- Generated by graphviz version 2.40.1 (0)
 -->
<!-- Title: ConnectorsInfoWidget::drawConnector Pages: 1 -->
<svg width="673pt" height="137pt"
 viewBox="0.00 0.00 673.00 137.00" xmlns="http://www.w3.org/2000/svg" xmlns:xlink="http://www.w3.org/1999/xlink">
<g id="graph0" class="graph" transform="scale(1 1) rotate(0) translate(4 133)">
<title>ConnectorsInfoWidget::drawConnector</title>
<polygon fill="#ffffff" stroke="transparent" points="-4,4 -4,-133 669,-133 669,4 -4,4"/>
<!-- Node220 -->
<g id="node1" class="node">
<title>Node220</title>
<g id="a_node1"><a xlink:title=" ">
<polygon fill="#bfbfbf" stroke="#000000" points="540,-73.5 540,-103.5 665,-103.5 665,-73.5 540,-73.5"/>
<text text-anchor="start" x="548" y="-91.5" font-family="Helvetica,sans-Serif" font-size="10.00" fill="#000000">ConnectorsInfoWidget</text>
<text text-anchor="middle" x="602.5" y="-80.5" font-family="Helvetica,sans-Serif" font-size="10.00" fill="#000000">::drawConnector</text>
</a>
</g>
</g>
<!-- Node221 -->
<g id="node2" class="node">
<title>Node221</title>
<g id="a_node2"><a xlink:href="../../db/d0e/classConnectorsInfoWidget.html#a8ba901fa6d06c68c382e66978c2892df" target="_top" xlink:title=" ">
<polygon fill="#ffffff" stroke="#000000" points="379,-98.5 379,-128.5 504,-128.5 504,-98.5 379,-98.5"/>
<text text-anchor="start" x="387" y="-116.5" font-family="Helvetica,sans-Serif" font-size="10.00" fill="#000000">ConnectorsInfoWidget</text>
<text text-anchor="middle" x="441.5" y="-105.5" font-family="Helvetica,sans-Serif" font-size="10.00" fill="#000000">::addConnector</text>
</a>
</g>
</g>
<!-- Node220&#45;&gt;Node221 -->
<g id="edge1" class="edge">
<title>Node220&#45;&gt;Node221</title>
<path fill="none" stroke="#191970" d="M529.7816,-99.7917C521.1871,-101.1262 512.4732,-102.4793 504.0367,-103.7893"/>
<polygon fill="#191970" stroke="#191970" points="530.4477,-103.2303 539.7922,-98.2372 529.3735,-96.3132 530.4477,-103.2303"/>
</g>
<!-- Node224 -->
<g id="node5" class="node">
<title>Node224</title>
<g id="a_node5"><a xlink:href="../../db/d0e/classConnectorsInfoWidget.html#af91a6bbf085b69431a78d587a4cde9f0" target="_top" xlink:title=" ">
<polygon fill="#ffffff" stroke="#000000" points="379,-49.5 379,-79.5 504,-79.5 504,-49.5 379,-49.5"/>
<text text-anchor="start" x="387" y="-67.5" font-family="Helvetica,sans-Serif" font-size="10.00" fill="#000000">ConnectorsInfoWidget</text>
<text text-anchor="middle" x="441.5" y="-56.5" font-family="Helvetica,sans-Serif" font-size="10.00" fill="#000000">::completeConn</text>
</a>
</g>
</g>
<!-- Node220&#45;&gt;Node224 -->
<g id="edge4" class="edge">
<title>Node220&#45;&gt;Node224</title>
<path fill="none" stroke="#191970" d="M529.7816,-77.66C521.1871,-76.3788 512.4732,-75.0799 504.0367,-73.8222"/>
<polygon fill="#191970" stroke="#191970" points="529.3854,-81.1395 539.7922,-79.1523 530.4175,-74.216 529.3854,-81.1395"/>
</g>
<!-- Node222 -->
<g id="node3" class="node">
<title>Node222</title>
<g id="a_node3"><a xlink:href="../../db/d0e/classConnectorsInfoWidget.html#a28d31d60bd05154ca97f4aaaddb68254" target="_top" xlink:title=" ">
<polygon fill="#ffffff" stroke="#000000" points="192.5,-98.5 192.5,-128.5 317.5,-128.5 317.5,-98.5 192.5,-98.5"/>
<text text-anchor="start" x="200.5" y="-116.5" font-family="Helvetica,sans-Serif" font-size="10.00" fill="#000000">ConnectorsInfoWidget</text>
<text text-anchor="middle" x="255" y="-105.5" font-family="Helvetica,sans-Serif" font-size="10.00" fill="#000000">::createToolsArea</text>
</a>
</g>
</g>
<!-- Node221&#45;&gt;Node222 -->
<g id="edge2" class="edge">
<title>Node221&#45;&gt;Node222</title>
<path fill="none" stroke="#191970" d="M368.5697,-113.5C351.787,-113.5 334.0812,-113.5 317.7728,-113.5"/>
<polygon fill="#191970" stroke="#191970" points="368.8794,-117.0001 378.8794,-113.5 368.8793,-110.0001 368.8794,-117.0001"/>
</g>
<!-- Node223 -->
<g id="node4" class="node">
<title>Node223</title>
<g id="a_node4"><a xlink:href="../../db/d0e/classConnectorsInfoWidget.html#af8c27dec60dd952f5b56ad7cdeca900d" target="_top" xlink:title=" ">
<polygon fill="#ffffff" stroke="#000000" points="0,-98.5 0,-128.5 131,-128.5 131,-98.5 0,-98.5"/>
<text text-anchor="start" x="8" y="-116.5" font-family="Helvetica,sans-Serif" font-size="10.00" fill="#000000">ConnectorsInfoWidget</text>
<text text-anchor="middle" x="65.5" y="-105.5" font-family="Helvetica,sans-Serif" font-size="10.00" fill="#000000">::ConnectorsInfoWidget</text>
</a>
</g>
</g>
<!-- Node222&#45;&gt;Node223 -->
<g id="edge3" class="edge">
<title>Node222&#45;&gt;Node223</title>
<path fill="none" stroke="#191970" d="M182.1434,-113.5C165.3973,-113.5 147.6859,-113.5 131.2606,-113.5"/>
<polygon fill="#191970" stroke="#191970" points="182.4255,-117.0001 192.4254,-113.5 182.4254,-110.0001 182.4255,-117.0001"/>
</g>
<!-- Node225 -->
<g id="node6" class="node">
<title>Node225</title>
<g id="a_node6"><a xlink:href="../../db/d0e/classConnectorsInfoWidget.html#a16078b612943e526e643242788055509" target="_top" xlink:title=" ">
<polygon fill="#ffffff" stroke="#000000" points="169,-49.5 169,-79.5 341,-79.5 341,-49.5 169,-49.5"/>
<text text-anchor="start" x="177" y="-67.5" font-family="Helvetica,sans-Serif" font-size="10.00" fill="#000000">ConnectorsInfoWidget</text>
<text text-anchor="middle" x="255" y="-56.5" font-family="Helvetica,sans-Serif" font-size="10.00" fill="#000000">::addMismatchingConnectorInfo</text>
</a>
</g>
</g>
<!-- Node224&#45;&gt;Node225 -->
<g id="edge5" class="edge">
<title>Node224&#45;&gt;Node225</title>
<path fill="none" stroke="#191970" d="M368.8301,-64.5C359.8106,-64.5 350.5207,-64.5 341.3213,-64.5"/>
<polygon fill="#191970" stroke="#191970" points="368.8794,-68.0001 378.8794,-64.5 368.8793,-61.0001 368.8794,-68.0001"/>
</g>
<!-- Node226 -->
<g id="node7" class="node">
<title>Node226</title>
<g id="a_node7"><a xlink:href="../../db/d0e/classConnectorsInfoWidget.html#a147532410986de2b99a0697357911b57" target="_top" xlink:title=" ">
<polygon fill="#ffffff" stroke="#000000" points="167,-.5 167,-30.5 343,-30.5 343,-.5 167,-.5"/>
<text text-anchor="start" x="175" y="-18.5" font-family="Helvetica,sans-Serif" font-size="10.00" fill="#000000">ConnectorsInfoWidget</text>
<text text-anchor="middle" x="255" y="-7.5" font-family="Helvetica,sans-Serif" font-size="10.00" fill="#000000">::singleToMismatchingNotInView</text>
</a>
</g>
</g>
<!-- Node224&#45;&gt;Node226 -->
<g id="edge6" class="edge">
<title>Node224&#45;&gt;Node226</title>
<path fill="none" stroke="#191970" d="M374.4252,-46.8771C354.0212,-41.5163 331.7979,-35.6775 312.1154,-30.5062"/>
<polygon fill="#191970" stroke="#191970" points="373.7152,-50.3093 384.2764,-49.4654 375.4941,-43.5391 373.7152,-50.3093"/>
</g>
<!-- Node227 -->
<g id="node8" class="node">
<title>Node227</title>
<g id="a_node8"><a xlink:href="../../db/d0e/classConnectorsInfoWidget.html#a969bd2f4e4f354da9ff6c03abd97d93e" target="_top" xlink:title=" ">
<polygon fill="#ffffff" stroke="#000000" points="3,-.5 3,-30.5 128,-30.5 128,-.5 3,-.5"/>
<text text-anchor="start" x="11" y="-18.5" font-family="Helvetica,sans-Serif" font-size="10.00" fill="#000000">ConnectorsInfoWidget</text>
<text text-anchor="middle" x="65.5" y="-7.5" font-family="Helvetica,sans-Serif" font-size="10.00" fill="#000000">::syncNewConnectors</text>
</a>
</g>
</g>
<!-- Node226&#45;&gt;Node227 -->
<g id="edge7" class="edge">
<title>Node226&#45;&gt;Node227</title>
<path fill="none" stroke="#191970" d="M156.7986,-15.5C147.0987,-15.5 137.4471,-15.5 128.2512,-15.5"/>
<polygon fill="#191970" stroke="#191970" points="156.9073,-19.0001 166.9072,-15.5 156.9072,-12.0001 156.9073,-19.0001"/>
</g>
</g>
</svg>
