<?xml version="1.0" encoding="UTF-8" standalone="no"?>
<!DOCTYPE svg PUBLIC "-//W3C//DTD SVG 1.1//EN"
 "http://www.w3.org/Graphics/SVG/1.1/DTD/svg11.dtd">
<!-- Generated by graphviz version 2.40.1 (0)
 -->
<!-- Title: ConnectorsInfoWidget::addConnector Pages: 1 -->
<svg width="898pt" height="374pt"
 viewBox="0.00 0.00 898.00 374.00" xmlns="http://www.w3.org/2000/svg" xmlns:xlink="http://www.w3.org/1999/xlink">
<g id="graph0" class="graph" transform="scale(1 1) rotate(0) translate(4 370)">
<title>ConnectorsInfoWidget::addConnector</title>
<polygon fill="#ffffff" stroke="transparent" points="-4,4 -4,-370 894,-370 894,4 -4,4"/>
<!-- Node19 -->
<g id="node1" class="node">
<title>Node19</title>
<g id="a_node1"><a xlink:title=" ">
<polygon fill="#bfbfbf" stroke="#000000" points="0,-174.5 0,-204.5 125,-204.5 125,-174.5 0,-174.5"/>
<text text-anchor="start" x="8" y="-192.5" font-family="Helvetica,sans-Serif" font-size="10.00" fill="#000000">ConnectorsInfoWidget</text>
<text text-anchor="middle" x="62.5" y="-181.5" font-family="Helvetica,sans-Serif" font-size="10.00" fill="#000000">::addConnector</text>
</a>
</g>
</g>
<!-- Node20 -->
<g id="node2" class="node">
<title>Node20</title>
<g id="a_node2"><a xlink:href="../../db/d0e/classConnectorsInfoWidget.html#a2e39f5fe4ee3d231c00260201620b708" target="_top" xlink:title=" ">
<polygon fill="#ffffff" stroke="#000000" points="167,-311.5 167,-341.5 292,-341.5 292,-311.5 167,-311.5"/>
<text text-anchor="start" x="175" y="-329.5" font-family="Helvetica,sans-Serif" font-size="10.00" fill="#000000">ConnectorsInfoWidget</text>
<text text-anchor="middle" x="229.5" y="-318.5" font-family="Helvetica,sans-Serif" font-size="10.00" fill="#000000">::addConnectorInfo</text>
</a>
</g>
</g>
<!-- Node19&#45;&gt;Node20 -->
<g id="edge1" class="edge">
<title>Node19&#45;&gt;Node20</title>
<path fill="none" stroke="#191970" d="M71.8289,-204.5232C87.4498,-228.5094 121.1392,-275.4967 161,-302.5 163.2691,-304.0372 165.6471,-305.4864 168.0991,-306.8515"/>
<polygon fill="#191970" stroke="#191970" points="166.7309,-310.0808 177.2391,-311.4334 169.8679,-303.823 166.7309,-310.0808"/>
</g>
<!-- Node23 -->
<g id="node5" class="node">
<title>Node23</title>
<g id="a_node5"><a xlink:href="../../d7/d71/classPartsEditorViewsWidget.html#a3d2e57768482e371f6366c00f62d6357" target="_top" xlink:title=" ">
<polygon fill="#ffffff" stroke="#000000" points="163,-262.5 163,-292.5 296,-292.5 296,-262.5 163,-262.5"/>
<text text-anchor="start" x="171" y="-280.5" font-family="Helvetica,sans-Serif" font-size="10.00" fill="#000000">PartsEditorViewsWidget</text>
<text text-anchor="middle" x="229.5" y="-269.5" font-family="Helvetica,sans-Serif" font-size="10.00" fill="#000000">::breadboardView</text>
</a>
</g>
</g>
<!-- Node19&#45;&gt;Node23 -->
<g id="edge4" class="edge">
<title>Node19&#45;&gt;Node23</title>
<path fill="none" stroke="#191970" d="M83.2294,-204.6651C102.6386,-218.3943 132.7994,-238.5462 161,-252.5 165.3117,-254.6335 169.8527,-256.6844 174.4599,-258.6303"/>
<polygon fill="#191970" stroke="#191970" points="173.3746,-261.9667 183.9574,-262.4698 175.9981,-255.4769 173.3746,-261.9667"/>
</g>
<!-- Node24 -->
<g id="node6" class="node">
<title>Node24</title>
<g id="a_node6"><a xlink:href="../../d8/d37/classPartsEditorView.html#ad1bcdc9d11c6fd0ba3f37a2d8d7287c3" target="_top" xlink:title=" ">
<polygon fill="#ffffff" stroke="#000000" points="161,-224 161,-243 298,-243 298,-224 161,-224"/>
<text text-anchor="middle" x="229.5" y="-231" font-family="Helvetica,sans-Serif" font-size="10.00" fill="#000000">PartsEditorView::myItem</text>
</a>
</g>
</g>
<!-- Node19&#45;&gt;Node24 -->
<g id="edge5" class="edge">
<title>Node19&#45;&gt;Node24</title>
<path fill="none" stroke="#191970" d="M119.5048,-204.5192C140.3597,-210.0139 163.6745,-216.1568 183.4531,-221.3679"/>
<polygon fill="#191970" stroke="#191970" points="182.5843,-224.7584 193.1461,-223.9217 184.3678,-217.9894 182.5843,-224.7584"/>
</g>
<!-- Node25 -->
<g id="node7" class="node">
<title>Node25</title>
<g id="a_node7"><a xlink:href="../../db/d0e/classConnectorsInfoWidget.html#a26a7f5341a4cf176fcdf3601bf65e443" target="_top" xlink:title=" ">
<polygon fill="#ffffff" stroke="#000000" points="167,-174.5 167,-204.5 292,-204.5 292,-174.5 167,-174.5"/>
<text text-anchor="start" x="175" y="-192.5" font-family="Helvetica,sans-Serif" font-size="10.00" fill="#000000">ConnectorsInfoWidget</text>
<text text-anchor="middle" x="229.5" y="-181.5" font-family="Helvetica,sans-Serif" font-size="10.00" fill="#000000">::nextConnId</text>
</a>
</g>
</g>
<!-- Node19&#45;&gt;Node25 -->
<g id="edge6" class="edge">
<title>Node19&#45;&gt;Node25</title>
<path fill="none" stroke="#191970" d="M125.1598,-189.5C135.47,-189.5 146.2331,-189.5 156.7639,-189.5"/>
<polygon fill="#191970" stroke="#191970" points="156.7669,-193.0001 166.7669,-189.5 156.7668,-186.0001 156.7669,-193.0001"/>
</g>
<!-- Node26 -->
<g id="node8" class="node">
<title>Node26</title>
<g id="a_node8"><a xlink:href="../../d7/d71/classPartsEditorViewsWidget.html#af8ff5d4cdcab862ed44affa8cdd9ad57" target="_top" xlink:title=" ">
<polygon fill="#ffffff" stroke="#000000" points="163,-125.5 163,-155.5 296,-155.5 296,-125.5 163,-125.5"/>
<text text-anchor="start" x="171" y="-143.5" font-family="Helvetica,sans-Serif" font-size="10.00" fill="#000000">PartsEditorViewsWidget</text>
<text text-anchor="middle" x="229.5" y="-132.5" font-family="Helvetica,sans-Serif" font-size="10.00" fill="#000000">::pcbView</text>
</a>
</g>
</g>
<!-- Node19&#45;&gt;Node26 -->
<g id="edge7" class="edge">
<title>Node19&#45;&gt;Node26</title>
<path fill="none" stroke="#191970" d="M113.9682,-174.3986C131.1919,-169.3449 150.5588,-163.6624 168.4422,-158.4152"/>
<polygon fill="#191970" stroke="#191970" points="169.5917,-161.7255 178.2018,-155.5516 167.6209,-155.0087 169.5917,-161.7255"/>
</g>
<!-- Node27 -->
<g id="node9" class="node">
<title>Node27</title>
<g id="a_node9"><a xlink:href="../../d7/d71/classPartsEditorViewsWidget.html#ad26da71ed09e338d924a5118dc979fd9" target="_top" xlink:title=" ">
<polygon fill="#ffffff" stroke="#000000" points="163,-76.5 163,-106.5 296,-106.5 296,-76.5 163,-76.5"/>
<text text-anchor="start" x="171" y="-94.5" font-family="Helvetica,sans-Serif" font-size="10.00" fill="#000000">PartsEditorViewsWidget</text>
<text text-anchor="middle" x="229.5" y="-83.5" font-family="Helvetica,sans-Serif" font-size="10.00" fill="#000000">::schematicView</text>
</a>
</g>
</g>
<!-- Node19&#45;&gt;Node27 -->
<g id="edge8" class="edge">
<title>Node19&#45;&gt;Node27</title>
<path fill="none" stroke="#191970" d="M79.6117,-174.4037C98.4839,-158.3526 130.2637,-133.0474 161,-116.5 164.931,-114.3837 169.0789,-112.376 173.3093,-110.4872"/>
<polygon fill="#191970" stroke="#191970" points="174.7972,-113.6583 182.6501,-106.5462 172.076,-107.2088 174.7972,-113.6583"/>
</g>
<!-- Node28 -->
<g id="node10" class="node">
<title>Node28</title>
<g id="a_node10"><a xlink:href="../../db/d0e/classConnectorsInfoWidget.html#a31792f87fc3f90c5827b1a88aa639851" target="_top" xlink:title=" ">
<polygon fill="#ffffff" stroke="#000000" points="167,-27.5 167,-57.5 292,-57.5 292,-27.5 167,-27.5"/>
<text text-anchor="start" x="175" y="-45.5" font-family="Helvetica,sans-Serif" font-size="10.00" fill="#000000">ConnectorsInfoWidget</text>
<text text-anchor="middle" x="229.5" y="-34.5" font-family="Helvetica,sans-Serif" font-size="10.00" fill="#000000">::setSelected</text>
</a>
</g>
</g>
<!-- Node19&#45;&gt;Node28 -->
<g id="edge9" class="edge">
<title>Node19&#45;&gt;Node28</title>
<path fill="none" stroke="#191970" d="M71.0852,-174.1419C86.1201,-148.5586 119.5915,-97.1093 161,-67.5 163.6774,-65.5855 166.5176,-63.802 169.4598,-62.1426"/>
<polygon fill="#191970" stroke="#191970" points="171.2041,-65.1822 178.5319,-57.5302 168.0316,-58.9424 171.2041,-65.1822"/>
</g>
<!-- Node21 -->
<g id="node3" class="node">
<title>Node21</title>
<g id="a_node3"><a xlink:href="../../d3/d4a/classMismatchingConnectorWidget.html#a1bcca3866ab31727950865b559909476" target="_top" xlink:title=" ">
<polygon fill="#ffffff" stroke="#000000" points="334,-335.5 334,-365.5 498,-365.5 498,-335.5 334,-335.5"/>
<text text-anchor="start" x="342" y="-353.5" font-family="Helvetica,sans-Serif" font-size="10.00" fill="#000000">MismatchingConnectorWidget</text>
<text text-anchor="middle" x="416" y="-342.5" font-family="Helvetica,sans-Serif" font-size="10.00" fill="#000000">::prevConn</text>
</a>
</g>
</g>
<!-- Node20&#45;&gt;Node21 -->
<g id="edge2" class="edge">
<title>Node20&#45;&gt;Node21</title>
<path fill="none" stroke="#191970" d="M292.1206,-334.5584C302.2248,-335.8587 312.8688,-337.2284 323.4998,-338.5965"/>
<polygon fill="#191970" stroke="#191970" points="323.3054,-342.1003 333.6704,-339.9053 324.1989,-335.1575 323.3054,-342.1003"/>
</g>
<!-- Node22 -->
<g id="node4" class="node">
<title>Node22</title>
<g id="a_node4"><a xlink:href="../../d3/d4a/classMismatchingConnectorWidget.html#a48c1196ddb407818b22c9560925fc7e3" target="_top" xlink:title=" ">
<polygon fill="#ffffff" stroke="#000000" points="334,-286.5 334,-316.5 498,-316.5 498,-286.5 334,-286.5"/>
<text text-anchor="start" x="342" y="-304.5" font-family="Helvetica,sans-Serif" font-size="10.00" fill="#000000">MismatchingConnectorWidget</text>
<text text-anchor="middle" x="416" y="-293.5" font-family="Helvetica,sans-Serif" font-size="10.00" fill="#000000">::connId</text>
</a>
</g>
</g>
<!-- Node20&#45;&gt;Node22 -->
<g id="edge3" class="edge">
<title>Node20&#45;&gt;Node22</title>
<path fill="none" stroke="#191970" d="M292.1206,-318.1058C302.2248,-316.7514 312.8688,-315.3246 323.4998,-313.8995"/>
<polygon fill="#191970" stroke="#191970" points="324.224,-317.3338 333.6704,-312.5361 323.294,-310.3959 324.224,-317.3338"/>
</g>
<!-- Node29 -->
<g id="node11" class="node">
<title>Node29</title>
<g id="a_node11"><a xlink:href="../../db/da8/classAbstractConnectorInfoWidget.html#a3be68aaebb9ac0bb2f384b0ad82777f6" target="_top" xlink:title=" ">
<polygon fill="#ffffff" stroke="#000000" points="534,-49.5 534,-79.5 694,-79.5 694,-49.5 534,-49.5"/>
<text text-anchor="start" x="542" y="-67.5" font-family="Helvetica,sans-Serif" font-size="10.00" fill="#000000">AbstractConnectorInfoWidget</text>
<text text-anchor="middle" x="614" y="-56.5" font-family="Helvetica,sans-Serif" font-size="10.00" fill="#000000">::setSelected</text>
</a>
</g>
</g>
<!-- Node28&#45;&gt;Node29 -->
<g id="edge10" class="edge">
<title>Node28&#45;&gt;Node29</title>
<path fill="none" stroke="#191970" d="M292.1323,-46.0836C354.9061,-49.6754 452.1909,-55.2417 523.381,-59.315"/>
<polygon fill="#191970" stroke="#191970" points="523.5043,-62.8277 533.6879,-59.9048 523.9042,-55.8392 523.5043,-62.8277"/>
</g>
<!-- Node31 -->
<g id="node13" class="node">
<title>Node31</title>
<g id="a_node13"><a xlink:href="../../db/d0e/classConnectorsInfoWidget.html#adee8b450e465e04a8c46a1a58ff276b3" target="_top" xlink:title=" ">
<polygon fill="#ffffff" stroke="#000000" points="353.5,-5.5 353.5,-35.5 478.5,-35.5 478.5,-5.5 353.5,-5.5"/>
<text text-anchor="start" x="361.5" y="-23.5" font-family="Helvetica,sans-Serif" font-size="10.00" fill="#000000">ConnectorsInfoWidget</text>
<text text-anchor="middle" x="416" y="-12.5" font-family="Helvetica,sans-Serif" font-size="10.00" fill="#000000">::selectionChanged</text>
</a>
</g>
</g>
<!-- Node28&#45;&gt;Node31 -->
<g id="edge12" class="edge">
<title>Node28&#45;&gt;Node31</title>
<path fill="none" stroke="#191970" d="M292.1206,-35.1131C308.4203,-33.1904 326.1246,-31.1019 342.9131,-29.1215"/>
<polygon fill="#191970" stroke="#191970" points="343.7061,-32.5523 353.2272,-27.9048 342.886,-25.6005 343.7061,-32.5523"/>
</g>
<!-- Node30 -->
<g id="node12" class="node">
<title>Node30</title>
<g id="a_node12"><a xlink:href="../../db/da8/classAbstractConnectorInfoWidget.html#aab0e1502844e351c7f465ce104aa6b3b" target="_top" xlink:title=" ">
<polygon fill="#ffffff" stroke="#000000" points="730,-49.5 730,-79.5 890,-79.5 890,-49.5 730,-49.5"/>
<text text-anchor="start" x="738" y="-67.5" font-family="Helvetica,sans-Serif" font-size="10.00" fill="#000000">AbstractConnectorInfoWidget</text>
<text text-anchor="middle" x="810" y="-56.5" font-family="Helvetica,sans-Serif" font-size="10.00" fill="#000000">::reapplyStyle</text>
</a>
</g>
</g>
<!-- Node29&#45;&gt;Node30 -->
<g id="edge11" class="edge">
<title>Node29&#45;&gt;Node30</title>
<path fill="none" stroke="#191970" d="M694.0034,-64.5C702.5245,-64.5 711.2335,-64.5 719.8608,-64.5"/>
<polygon fill="#191970" stroke="#191970" points="719.9348,-68.0001 729.9347,-64.5 719.9347,-61.0001 719.9348,-68.0001"/>
</g>
<!-- Node31&#45;&gt;Node29 -->
<g id="edge13" class="edge">
<title>Node31&#45;&gt;Node29</title>
<path fill="none" stroke="#191970" d="M478.6484,-34.4219C496.9795,-38.4954 517.2414,-42.9981 536.3833,-47.2518"/>
<polygon fill="#191970" stroke="#191970" points="535.7539,-50.6973 546.2751,-49.45 537.2725,-43.864 535.7539,-50.6973"/>
</g>
<!-- Node32 -->
<g id="node14" class="node">
<title>Node32</title>
<g id="a_node14"><a xlink:href="../../db/d0e/classConnectorsInfoWidget.html#a2da02c00a5b1d297728ff4bfac2bfc00" target="_top" xlink:title=" ">
<polygon fill="#ffffff" stroke="#000000" points="551.5,-.5 551.5,-30.5 676.5,-30.5 676.5,-.5 551.5,-.5"/>
<text text-anchor="start" x="559.5" y="-18.5" font-family="Helvetica,sans-Serif" font-size="10.00" fill="#000000">ConnectorsInfoWidget</text>
<text text-anchor="middle" x="614" y="-7.5" font-family="Helvetica,sans-Serif" font-size="10.00" fill="#000000">::emitPaintNeeded</text>
</a>
</g>
</g>
<!-- Node31&#45;&gt;Node32 -->
<g id="edge14" class="edge">
<title>Node31&#45;&gt;Node32</title>
<path fill="none" stroke="#191970" d="M478.6484,-18.918C498.5174,-18.4162 520.6548,-17.8572 541.1757,-17.339"/>
<polygon fill="#191970" stroke="#191970" points="541.5111,-20.8317 551.4195,-17.0803 541.3343,-13.834 541.5111,-20.8317"/>
</g>
</g>
</svg>
