<?xml version="1.0" encoding="UTF-8" standalone="no"?>
<!DOCTYPE svg PUBLIC "-//W3C//DTD SVG 1.1//EN"
 "http://www.w3.org/Graphics/SVG/1.1/DTD/svg11.dtd">
<!-- Generated by graphviz version 2.40.1 (0)
 -->
<!-- Title: ConnectorsInfoWidget::editionCompleted Pages: 1 -->
<svg width="311pt" height="88pt"
 viewBox="0.00 0.00 311.00 88.00" xmlns="http://www.w3.org/2000/svg" xmlns:xlink="http://www.w3.org/1999/xlink">
<g id="graph0" class="graph" transform="scale(1 1) rotate(0) translate(4 84)">
<title>ConnectorsInfoWidget::editionCompleted</title>
<polygon fill="#ffffff" stroke="transparent" points="-4,4 -4,-84 307,-84 307,4 -4,4"/>
<!-- Node231 -->
<g id="node1" class="node">
<title>Node231</title>
<g id="a_node1"><a xlink:title=" ">
<polygon fill="#bfbfbf" stroke="#000000" points="178,-24.5 178,-54.5 303,-54.5 303,-24.5 178,-24.5"/>
<text text-anchor="start" x="186" y="-42.5" font-family="Helvetica,sans-Serif" font-size="10.00" fill="#000000">ConnectorsInfoWidget</text>
<text text-anchor="middle" x="240.5" y="-31.5" font-family="Helvetica,sans-Serif" font-size="10.00" fill="#000000">::editionCompleted</text>
</a>
</g>
</g>
<!-- Node232 -->
<g id="node2" class="node">
<title>Node232</title>
<g id="a_node2"><a xlink:href="../../db/d0e/classConnectorsInfoWidget.html#ac4d69e47dc3ce566c7fc48340db3d581" target="_top" xlink:title=" ">
<polygon fill="#ffffff" stroke="#000000" points="8.5,-49.5 8.5,-79.5 133.5,-79.5 133.5,-49.5 8.5,-49.5"/>
<text text-anchor="start" x="16.5" y="-67.5" font-family="Helvetica,sans-Serif" font-size="10.00" fill="#000000">ConnectorsInfoWidget</text>
<text text-anchor="middle" x="71" y="-56.5" font-family="Helvetica,sans-Serif" font-size="10.00" fill="#000000">::addConnectorInfo</text>
</a>
</g>
</g>
<!-- Node231&#45;&gt;Node232 -->
<g id="edge1" class="edge">
<title>Node231&#45;&gt;Node232</title>
<path fill="none" stroke="#191970" d="M167.9388,-50.2022C156.5298,-51.885 144.8199,-53.6121 133.6593,-55.2582"/>
<polygon fill="#191970" stroke="#191970" points="168.4838,-53.6598 177.866,-48.738 167.4623,-46.7347 168.4838,-53.6598"/>
</g>
<!-- Node233 -->
<g id="node3" class="node">
<title>Node233</title>
<g id="a_node3"><a xlink:href="../../db/d0e/classConnectorsInfoWidget.html#aed75a0fbaeb74e6c4743570f7976f1fe" target="_top" xlink:title=" ">
<polygon fill="#ffffff" stroke="#000000" points="0,-.5 0,-30.5 142,-30.5 142,-.5 0,-.5"/>
<text text-anchor="start" x="8" y="-18.5" font-family="Helvetica,sans-Serif" font-size="10.00" fill="#000000">ConnectorsInfoWidget</text>
<text text-anchor="middle" x="71" y="-7.5" font-family="Helvetica,sans-Serif" font-size="10.00" fill="#000000">::informEditionCompleted</text>
</a>
</g>
</g>
<!-- Node231&#45;&gt;Node233 -->
<g id="edge2" class="edge">
<title>Node231&#45;&gt;Node233</title>
<path fill="none" stroke="#191970" d="M167.9591,-29.2287C159.436,-28.0219 150.7446,-26.7913 142.2395,-25.587"/>
<polygon fill="#191970" stroke="#191970" points="167.4741,-32.6949 177.866,-30.6315 168.4555,-25.764 167.4741,-32.6949"/>
</g>
</g>
</svg>
