<?xml version="1.0" encoding="UTF-8" standalone="no"?>
<!DOCTYPE svg PUBLIC "-//W3C//DTD SVG 1.1//EN"
 "http://www.w3.org/Graphics/SVG/1.1/DTD/svg11.dtd">
<!-- Generated by graphviz version 2.40.1 (0)
 -->
<!-- Title: ConnectorsInfoWidget::updateLayout Pages: 1 -->
<svg width="918pt" height="316pt"
 viewBox="0.00 0.00 918.00 316.00" xmlns="http://www.w3.org/2000/svg" xmlns:xlink="http://www.w3.org/1999/xlink">
<g id="graph0" class="graph" transform="scale(1 1) rotate(0) translate(4 312)">
<title>ConnectorsInfoWidget::updateLayout</title>
<polygon fill="#ffffff" stroke="transparent" points="-4,4 -4,-312 914,-312 914,4 -4,4"/>
<!-- Node550 -->
<g id="node1" class="node">
<title>Node550</title>
<g id="a_node1"><a xlink:title=" ">
<polygon fill="#bfbfbf" stroke="#000000" points="785,-206.5 785,-236.5 910,-236.5 910,-206.5 785,-206.5"/>
<text text-anchor="start" x="793" y="-224.5" font-family="Helvetica,sans-Serif" font-size="10.00" fill="#000000">ConnectorsInfoWidget</text>
<text text-anchor="middle" x="847.5" y="-213.5" font-family="Helvetica,sans-Serif" font-size="10.00" fill="#000000">::updateLayout</text>
</a>
</g>
</g>
<!-- Node551 -->
<g id="node2" class="node">
<title>Node551</title>
<g id="a_node2"><a xlink:href="../../db/d0e/classConnectorsInfoWidget.html#ac4d69e47dc3ce566c7fc48340db3d581" target="_top" xlink:title=" ">
<polygon fill="#ffffff" stroke="#000000" points="591,-277.5 591,-307.5 716,-307.5 716,-277.5 591,-277.5"/>
<text text-anchor="start" x="599" y="-295.5" font-family="Helvetica,sans-Serif" font-size="10.00" fill="#000000">ConnectorsInfoWidget</text>
<text text-anchor="middle" x="653.5" y="-284.5" font-family="Helvetica,sans-Serif" font-size="10.00" fill="#000000">::addConnectorInfo</text>
</a>
</g>
</g>
<!-- Node550&#45;&gt;Node551 -->
<g id="edge1" class="edge">
<title>Node550&#45;&gt;Node551</title>
<path fill="none" stroke="#191970" d="M810.6036,-241.2569C792.4212,-250.4327 769.9491,-260.9547 749,-268.5 738.5454,-272.2655 727.2431,-275.666 716.1975,-278.6442"/>
<polygon fill="#191970" stroke="#191970" points="812.3843,-244.2773 819.69,-236.6041 809.1939,-238.0466 812.3843,-244.2773"/>
</g>
<!-- Node552 -->
<g id="node3" class="node">
<title>Node552</title>
<g id="a_node3"><a xlink:href="../../db/d0e/classConnectorsInfoWidget.html#ae917da31e4fb55ae3acf55b34de3e877" target="_top" xlink:title=" ">
<polygon fill="#ffffff" stroke="#000000" points="591,-228.5 591,-258.5 716,-258.5 716,-228.5 591,-228.5"/>
<text text-anchor="start" x="599" y="-246.5" font-family="Helvetica,sans-Serif" font-size="10.00" fill="#000000">ConnectorsInfoWidget</text>
<text text-anchor="middle" x="653.5" y="-235.5" font-family="Helvetica,sans-Serif" font-size="10.00" fill="#000000">::connectorsFound</text>
</a>
</g>
</g>
<!-- Node550&#45;&gt;Node552 -->
<g id="edge2" class="edge">
<title>Node550&#45;&gt;Node552</title>
<path fill="none" stroke="#191970" d="M774.8103,-229.7432C755.468,-231.9366 734.7471,-234.2864 716.0024,-236.4121"/>
<polygon fill="#191970" stroke="#191970" points="775.2398,-233.217 784.7817,-228.6124 774.4509,-226.2616 775.2398,-233.217"/>
</g>
<!-- Node553 -->
<g id="node4" class="node">
<title>Node553</title>
<g id="a_node4"><a xlink:href="../../db/d0e/classConnectorsInfoWidget.html#a147532410986de2b99a0697357911b57" target="_top" xlink:title=" ">
<polygon fill="#ffffff" stroke="#000000" points="161,-186.5 161,-216.5 337,-216.5 337,-186.5 161,-186.5"/>
<text text-anchor="start" x="169" y="-204.5" font-family="Helvetica,sans-Serif" font-size="10.00" fill="#000000">ConnectorsInfoWidget</text>
<text text-anchor="middle" x="249" y="-193.5" font-family="Helvetica,sans-Serif" font-size="10.00" fill="#000000">::singleToMismatchingNotInView</text>
</a>
</g>
</g>
<!-- Node550&#45;&gt;Node553 -->
<g id="edge3" class="edge">
<title>Node550&#45;&gt;Node553</title>
<path fill="none" stroke="#191970" d="M774.8434,-219.072C664.7187,-215.392 455.839,-208.4119 337.1744,-204.4465"/>
<polygon fill="#191970" stroke="#191970" points="774.7514,-222.5708 784.8627,-219.4069 774.9852,-215.5747 774.7514,-222.5708"/>
</g>
<!-- Node555 -->
<g id="node6" class="node">
<title>Node555</title>
<g id="a_node6"><a xlink:href="../../db/d0e/classConnectorsInfoWidget.html#a668775120d963cc9765c3f9ac67413e0" target="_top" xlink:title=" ">
<polygon fill="#ffffff" stroke="#000000" points="558,-93.5 558,-123.5 749,-123.5 749,-93.5 558,-93.5"/>
<text text-anchor="start" x="566" y="-111.5" font-family="Helvetica,sans-Serif" font-size="10.00" fill="#000000">ConnectorsInfoWidget</text>
<text text-anchor="middle" x="653.5" y="-100.5" font-family="Helvetica,sans-Serif" font-size="10.00" fill="#000000">::removeMismatchingConnectorInfo</text>
</a>
</g>
</g>
<!-- Node550&#45;&gt;Node555 -->
<g id="edge5" class="edge">
<title>Node550&#45;&gt;Node555</title>
<path fill="none" stroke="#191970" d="M812.9897,-201.3986C774.6949,-179.0929 713.7744,-143.6083 679.3682,-123.5676"/>
<polygon fill="#191970" stroke="#191970" points="811.3356,-204.4856 821.7383,-206.4945 814.8589,-198.4369 811.3356,-204.4856"/>
</g>
<!-- Node554 -->
<g id="node5" class="node">
<title>Node554</title>
<g id="a_node5"><a xlink:href="../../db/d0e/classConnectorsInfoWidget.html#a969bd2f4e4f354da9ff6c03abd97d93e" target="_top" xlink:title=" ">
<polygon fill="#ffffff" stroke="#000000" points="0,-93.5 0,-123.5 125,-123.5 125,-93.5 0,-93.5"/>
<text text-anchor="start" x="8" y="-111.5" font-family="Helvetica,sans-Serif" font-size="10.00" fill="#000000">ConnectorsInfoWidget</text>
<text text-anchor="middle" x="62.5" y="-100.5" font-family="Helvetica,sans-Serif" font-size="10.00" fill="#000000">::syncNewConnectors</text>
</a>
</g>
</g>
<!-- Node553&#45;&gt;Node554 -->
<g id="edge4" class="edge">
<title>Node553&#45;&gt;Node554</title>
<path fill="none" stroke="#191970" d="M174.2546,-183.0749C169.7086,-181.3531 165.2561,-179.4967 161,-177.5 130.3784,-163.134 99.0677,-139.3188 80.2026,-123.7665"/>
<polygon fill="#191970" stroke="#191970" points="173.0895,-186.3752 183.6843,-186.4217 175.4309,-179.7784 173.0895,-186.3752"/>
</g>
<!-- Node555&#45;&gt;Node554 -->
<g id="edge8" class="edge">
<title>Node555&#45;&gt;Node554</title>
<path fill="none" stroke="#191970" d="M547.7052,-108.5C424.7778,-108.5 225.9736,-108.5 125.2675,-108.5"/>
<polygon fill="#191970" stroke="#191970" points="547.8888,-112.0001 557.8888,-108.5 547.8888,-105.0001 547.8888,-112.0001"/>
</g>
<!-- Node556 -->
<g id="node7" class="node">
<title>Node556</title>
<g id="a_node7"><a xlink:href="../../db/d0e/classConnectorsInfoWidget.html#aa0be9b6661b686c486345e6a1bee2e6b" target="_top" xlink:title=" ">
<polygon fill="#ffffff" stroke="#000000" points="373,-49.5 373,-79.5 522,-79.5 522,-49.5 373,-49.5"/>
<text text-anchor="start" x="381" y="-67.5" font-family="Helvetica,sans-Serif" font-size="10.00" fill="#000000">ConnectorsInfoWidget</text>
<text text-anchor="middle" x="447.5" y="-56.5" font-family="Helvetica,sans-Serif" font-size="10.00" fill="#000000">::clearMismatchingForView</text>
</a>
</g>
</g>
<!-- Node555&#45;&gt;Node556 -->
<g id="edge6" class="edge">
<title>Node555&#45;&gt;Node556</title>
<path fill="none" stroke="#191970" d="M573.1597,-91.3399C554.9054,-87.441 535.652,-83.3286 517.85,-79.5262"/>
<polygon fill="#191970" stroke="#191970" points="572.6721,-94.8147 583.1826,-93.4808 574.1343,-87.9691 572.6721,-94.8147"/>
</g>
<!-- Node557 -->
<g id="node8" class="node">
<title>Node557</title>
<g id="a_node8"><a xlink:href="../../db/d0e/classConnectorsInfoWidget.html#a235a6f12e8c768cc5130c8292b8f531c" target="_top" xlink:title=" ">
<polygon fill="#ffffff" stroke="#000000" points="385,-.5 385,-30.5 510,-30.5 510,-.5 385,-.5"/>
<text text-anchor="start" x="393" y="-18.5" font-family="Helvetica,sans-Serif" font-size="10.00" fill="#000000">ConnectorsInfoWidget</text>
<text text-anchor="middle" x="447.5" y="-7.5" font-family="Helvetica,sans-Serif" font-size="10.00" fill="#000000">::removeConnector</text>
</a>
</g>
</g>
<!-- Node555&#45;&gt;Node557 -->
<g id="edge9" class="edge">
<title>Node555&#45;&gt;Node557</title>
<path fill="none" stroke="#191970" d="M619.1934,-88.4164C593.107,-73.6623 556.0241,-53.7825 522,-39.5 514.4823,-36.3443 506.3962,-33.3494 498.4209,-30.6134"/>
<polygon fill="#191970" stroke="#191970" points="617.5183,-91.4902 627.9389,-93.4038 620.986,-85.4095 617.5183,-91.4902"/>
</g>
<!-- Node559 -->
<g id="node10" class="node">
<title>Node559</title>
<g id="a_node10"><a xlink:href="../../db/d0e/classConnectorsInfoWidget.html#af91a6bbf085b69431a78d587a4cde9f0" target="_top" xlink:title=" ">
<polygon fill="#ffffff" stroke="#000000" points="385,-137.5 385,-167.5 510,-167.5 510,-137.5 385,-137.5"/>
<text text-anchor="start" x="393" y="-155.5" font-family="Helvetica,sans-Serif" font-size="10.00" fill="#000000">ConnectorsInfoWidget</text>
<text text-anchor="middle" x="447.5" y="-144.5" font-family="Helvetica,sans-Serif" font-size="10.00" fill="#000000">::completeConn</text>
</a>
</g>
</g>
<!-- Node555&#45;&gt;Node559 -->
<g id="edge11" class="edge">
<title>Node555&#45;&gt;Node559</title>
<path fill="none" stroke="#191970" d="M573.3488,-125.6197C552.4097,-130.0921 530.144,-134.8479 510.2542,-139.0962"/>
<polygon fill="#191970" stroke="#191970" points="574.1343,-129.0309 583.1826,-123.5192 572.6721,-122.1853 574.1343,-129.0309"/>
</g>
<!-- Node556&#45;&gt;Node554 -->
<g id="edge7" class="edge">
<title>Node556&#45;&gt;Node554</title>
<path fill="none" stroke="#191970" d="M362.8517,-72.5373C305.7642,-78.1607 228.7775,-86.1377 161,-94.5 149.4288,-95.9277 137.1115,-97.5758 125.2462,-99.2288"/>
<polygon fill="#191970" stroke="#191970" points="363.3026,-76.01 372.9131,-71.5503 362.6191,-69.0434 363.3026,-76.01"/>
</g>
<!-- Node558 -->
<g id="node9" class="node">
<title>Node558</title>
<g id="a_node9"><a xlink:href="../../db/d0e/classConnectorsInfoWidget.html#a966182da46f0fdff9905e45edce40ec6" target="_top" xlink:title=" ">
<polygon fill="#ffffff" stroke="#000000" points="173,-.5 173,-30.5 325,-30.5 325,-.5 173,-.5"/>
<text text-anchor="start" x="181" y="-18.5" font-family="Helvetica,sans-Serif" font-size="10.00" fill="#000000">ConnectorsInfoWidget</text>
<text text-anchor="middle" x="249" y="-7.5" font-family="Helvetica,sans-Serif" font-size="10.00" fill="#000000">::removeSelectedConnector</text>
</a>
</g>
</g>
<!-- Node557&#45;&gt;Node558 -->
<g id="edge10" class="edge">
<title>Node557&#45;&gt;Node558</title>
<path fill="none" stroke="#191970" d="M374.5531,-15.5C358.46,-15.5 341.3726,-15.5 325.156,-15.5"/>
<polygon fill="#191970" stroke="#191970" points="374.9658,-19.0001 384.9658,-15.5 374.9658,-12.0001 374.9658,-19.0001"/>
</g>
<!-- Node559&#45;&gt;Node553 -->
<g id="edge13" class="edge">
<title>Node559&#45;&gt;Node553</title>
<path fill="none" stroke="#191970" d="M376.7012,-169.9768C354.8228,-175.3775 330.9297,-181.2755 309.7904,-186.4938"/>
<polygon fill="#191970" stroke="#191970" points="377.7247,-173.3293 386.5945,-167.5346 376.0471,-166.5333 377.7247,-173.3293"/>
</g>
<!-- Node560 -->
<g id="node11" class="node">
<title>Node560</title>
<g id="a_node11"><a xlink:href="../../db/d0e/classConnectorsInfoWidget.html#a16078b612943e526e643242788055509" target="_top" xlink:title=" ">
<polygon fill="#ffffff" stroke="#000000" points="163,-137.5 163,-167.5 335,-167.5 335,-137.5 163,-137.5"/>
<text text-anchor="start" x="171" y="-155.5" font-family="Helvetica,sans-Serif" font-size="10.00" fill="#000000">ConnectorsInfoWidget</text>
<text text-anchor="middle" x="249" y="-144.5" font-family="Helvetica,sans-Serif" font-size="10.00" fill="#000000">::addMismatchingConnectorInfo</text>
</a>
</g>
</g>
<!-- Node559&#45;&gt;Node560 -->
<g id="edge12" class="edge">
<title>Node559&#45;&gt;Node560</title>
<path fill="none" stroke="#191970" d="M374.7953,-152.5C361.9188,-152.5 348.3989,-152.5 335.1928,-152.5"/>
<polygon fill="#191970" stroke="#191970" points="374.9658,-156.0001 384.9658,-152.5 374.9658,-149.0001 374.9658,-156.0001"/>
</g>
</g>
</svg>
