<?xml version="1.0" encoding="UTF-8" standalone="no"?>
<!DOCTYPE svg PUBLIC "-//W3C//DTD SVG 1.1//EN"
 "http://www.w3.org/Graphics/SVG/1.1/DTD/svg11.dtd">
<!-- Generated by graphviz version 2.40.1 (0)
 -->
<!-- Title: QuaZip::getMode Pages: 1 -->
<svg width="403pt" height="142pt"
 viewBox="0.00 0.00 403.00 142.00" xmlns="http://www.w3.org/2000/svg" xmlns:xlink="http://www.w3.org/1999/xlink">
<g id="graph0" class="graph" transform="scale(1 1) rotate(0) translate(4 138)">
<title>QuaZip::getMode</title>
<polygon fill="#ffffff" stroke="transparent" points="-4,4 -4,-138 399,-138 399,4 -4,4"/>
<!-- Node395 -->
<g id="node1" class="node">
<title>Node395</title>
<g id="a_node1"><a xlink:title="Returns the mode in which ZIP file was opened.">
<polygon fill="#bfbfbf" stroke="#000000" points="294,-57.5 294,-76.5 395,-76.5 395,-57.5 294,-57.5"/>
<text text-anchor="middle" x="344.5" y="-64.5" font-family="Helvetica,sans-Serif" font-size="10.00" fill="#000000">QuaZip::getMode</text>
</a>
</g>
</g>
<!-- Node396 -->
<g id="node2" class="node">
<title>Node396</title>
<g id="a_node2"><a xlink:href="../../da/da8/classQuaZipFile.html#aed75bace51f2bb4c3e4f656ab4493aac" target="_top" xlink:title="Opens a file for reading.">
<polygon fill="#ffffff" stroke="#000000" points="145,-114.5 145,-133.5 244,-133.5 244,-114.5 145,-114.5"/>
<text text-anchor="middle" x="194.5" y="-121.5" font-family="Helvetica,sans-Serif" font-size="10.00" fill="#000000">QuaZipFile::open</text>
</a>
</g>
</g>
<!-- Node395&#45;&gt;Node396 -->
<g id="edge1" class="edge">
<title>Node395&#45;&gt;Node396</title>
<path fill="none" stroke="#191970" d="M315.3323,-80.8867C298.7317,-88.5176 277.4326,-97.8552 258,-105 248.8197,-108.3753 238.7352,-111.6039 229.3589,-114.411"/>
<polygon fill="#191970" stroke="#191970" points="316.9199,-84.0085 324.5139,-76.6205 313.9702,-77.6603 316.9199,-84.0085"/>
</g>
<!-- Node397 -->
<g id="node3" class="node">
<title>Node397</title>
<g id="a_node3"><a xlink:href="../../da/da8/classQuaZipFile.html#a9d63f6358a84b86593f1715e142f27dd" target="_top" xlink:title="Returns compressed file size.">
<polygon fill="#ffffff" stroke="#000000" points="144.5,-76.5 144.5,-95.5 244.5,-95.5 244.5,-76.5 144.5,-76.5"/>
<text text-anchor="middle" x="194.5" y="-83.5" font-family="Helvetica,sans-Serif" font-size="10.00" fill="#000000">QuaZipFile::csize</text>
</a>
</g>
</g>
<!-- Node395&#45;&gt;Node397 -->
<g id="edge2" class="edge">
<title>Node395&#45;&gt;Node397</title>
<path fill="none" stroke="#191970" d="M283.5289,-74.723C270.6339,-76.3564 257.1651,-78.0624 244.7216,-79.6386"/>
<polygon fill="#191970" stroke="#191970" points="284.236,-78.1615 293.7168,-73.4325 283.3563,-71.217 284.236,-78.1615"/>
</g>
<!-- Node399 -->
<g id="node5" class="node">
<title>Node399</title>
<g id="a_node5"><a xlink:href="../../da/da8/classQuaZipFile.html#ae49a4c2b07359d6e1801e13cc92b55e2" target="_top" xlink:title="Returns uncompressed file size.">
<polygon fill="#ffffff" stroke="#000000" points="144,-38.5 144,-57.5 245,-57.5 245,-38.5 144,-38.5"/>
<text text-anchor="middle" x="194.5" y="-45.5" font-family="Helvetica,sans-Serif" font-size="10.00" fill="#000000">QuaZipFile::usize</text>
</a>
</g>
</g>
<!-- Node395&#45;&gt;Node399 -->
<g id="edge4" class="edge">
<title>Node395&#45;&gt;Node399</title>
<path fill="none" stroke="#191970" d="M283.64,-59.2911C270.887,-57.6757 257.5679,-55.9886 245.2309,-54.4259"/>
<polygon fill="#191970" stroke="#191970" points="283.3563,-62.783 293.7168,-60.5675 284.236,-55.8385 283.3563,-62.783"/>
</g>
<!-- Node400 -->
<g id="node6" class="node">
<title>Node400</title>
<g id="a_node6"><a xlink:href="../../da/da8/classQuaZipFile.html#ad3f5807329321be21b12c1ba5798b359" target="_top" xlink:title="Gets information about current file.">
<polygon fill="#ffffff" stroke="#000000" points="131,-.5 131,-19.5 258,-19.5 258,-.5 131,-.5"/>
<text text-anchor="middle" x="194.5" y="-7.5" font-family="Helvetica,sans-Serif" font-size="10.00" fill="#000000">QuaZipFile::getFileInfo</text>
</a>
</g>
</g>
<!-- Node395&#45;&gt;Node400 -->
<g id="edge6" class="edge">
<title>Node395&#45;&gt;Node400</title>
<path fill="none" stroke="#191970" d="M315.3323,-53.1133C298.7317,-45.4824 277.4326,-36.1448 258,-29 248.8197,-25.6247 238.7352,-22.3961 229.3589,-19.589"/>
<polygon fill="#191970" stroke="#191970" points="313.9702,-56.3397 324.5139,-57.3795 316.9199,-49.9915 313.9702,-56.3397"/>
</g>
<!-- Node398 -->
<g id="node4" class="node">
<title>Node398</title>
<g id="a_node4"><a xlink:href="../../da/da8/classQuaZipFile.html#a97c0c68e726993fbd7719048ba8678a5" target="_top" xlink:title="Returns file size.">
<polygon fill="#ffffff" stroke="#000000" points="0,-57.5 0,-76.5 95,-76.5 95,-57.5 0,-57.5"/>
<text text-anchor="middle" x="47.5" y="-64.5" font-family="Helvetica,sans-Serif" font-size="10.00" fill="#000000">QuaZipFile::size</text>
</a>
</g>
</g>
<!-- Node397&#45;&gt;Node398 -->
<g id="edge3" class="edge">
<title>Node397&#45;&gt;Node398</title>
<path fill="none" stroke="#191970" d="M134.1392,-78.1983C121.2537,-76.5328 107.8114,-74.7953 95.4664,-73.1997"/>
<polygon fill="#191970" stroke="#191970" points="133.9559,-81.7036 144.3221,-79.5144 134.8533,-74.7614 133.9559,-81.7036"/>
</g>
<!-- Node399&#45;&gt;Node398 -->
<g id="edge5" class="edge">
<title>Node399&#45;&gt;Node398</title>
<path fill="none" stroke="#191970" d="M133.7478,-55.8523C120.8927,-57.5139 107.5009,-59.2448 95.2108,-60.8333"/>
<polygon fill="#191970" stroke="#191970" points="134.4421,-59.2918 143.9109,-54.5387 133.5448,-52.3495 134.4421,-59.2918"/>
</g>
</g>
</svg>
