<?xml version="1.0" encoding="UTF-8" standalone="no"?>
<!DOCTYPE svg PUBLIC "-//W3C//DTD SVG 1.1//EN"
 "http://www.w3.org/Graphics/SVG/1.1/DTD/svg11.dtd">
<!-- Generated by graphviz version 2.40.1 (0)
 -->
<!-- Title: QuaZip::goToNextFile Pages: 1 -->
<svg width="849pt" height="123pt"
 viewBox="0.00 0.00 849.00 123.01" xmlns="http://www.w3.org/2000/svg" xmlns:xlink="http://www.w3.org/1999/xlink">
<g id="graph0" class="graph" transform="scale(1 1) rotate(0) translate(4 119.0112)">
<title>QuaZip::goToNextFile</title>
<polygon fill="#ffffff" stroke="transparent" points="-4,4 -4,-119.0112 845,-119.0112 845,4 -4,4"/>
<!-- Node768 -->
<g id="node1" class="node">
<title>Node768</title>
<g id="a_node1"><a xlink:title="Sets the current file to the next file in the archive.">
<polygon fill="#bfbfbf" stroke="#000000" points="0,-57.5 0,-76.5 121,-76.5 121,-57.5 0,-57.5"/>
<text text-anchor="middle" x="60.5" y="-64.5" font-family="Helvetica,sans-Serif" font-size="10.00" fill="#000000">QuaZip::goToNextFile</text>
</a>
</g>
</g>
<!-- Node769 -->
<g id="node2" class="node">
<title>Node769</title>
<g id="a_node2"><a xlink:href="../../d6/da7/unzip_8c.html#acb457ebeaee7cb850c11a4a3d4b58201" target="_top" xlink:title=" ">
<polygon fill="#ffffff" stroke="#000000" points="157,-57.5 157,-76.5 255,-76.5 255,-57.5 157,-57.5"/>
<text text-anchor="middle" x="206" y="-64.5" font-family="Helvetica,sans-Serif" font-size="10.00" fill="#000000">unzGoToNextFile</text>
</a>
</g>
</g>
<!-- Node768&#45;&gt;Node769 -->
<g id="edge1" class="edge">
<title>Node768&#45;&gt;Node769</title>
<path fill="none" stroke="#191970" d="M121.362,-67C129.7772,-67 138.4104,-67 146.7948,-67"/>
<polygon fill="#191970" stroke="#191970" points="146.8672,-70.5001 156.8671,-67 146.8671,-63.5001 146.8672,-70.5001"/>
</g>
<!-- Node770 -->
<g id="node3" class="node">
<title>Node770</title>
<g id="a_node3"><a xlink:href="../../d6/da7/unzip_8c.html#a604f8ca20c251b1ae520a40cd1a688ad" target="_top" xlink:title=" ">
<polygon fill="#ffffff" stroke="#000000" points="291,-52 291,-82 443,-82 443,-52 291,-52"/>
<text text-anchor="start" x="299" y="-70" font-family="Helvetica,sans-Serif" font-size="10.00" fill="#000000">unzlocal_GetCurrentFileInfo</text>
<text text-anchor="middle" x="367" y="-59" font-family="Helvetica,sans-Serif" font-size="10.00" fill="#000000">Internal</text>
</a>
</g>
</g>
<!-- Node769&#45;&gt;Node770 -->
<g id="edge2" class="edge">
<title>Node769&#45;&gt;Node770</title>
<path fill="none" stroke="#191970" d="M255.1801,-67C263.289,-67 271.9002,-67 280.6039,-67"/>
<polygon fill="#191970" stroke="#191970" points="280.8391,-70.5001 290.8391,-67 280.839,-63.5001 280.8391,-70.5001"/>
</g>
<!-- Node771 -->
<g id="node4" class="node">
<title>Node771</title>
<g id="a_node4"><a xlink:href="../../d2/db7/ioapi_8h.html#a50e9e9d5c30e481de822ad68fe537986" target="_top" xlink:title=" ">
<polygon fill="#ffffff" stroke="#000000" points="702.5,-57.5 702.5,-76.5 748.5,-76.5 748.5,-57.5 702.5,-57.5"/>
<text text-anchor="middle" x="725.5" y="-64.5" font-family="Helvetica,sans-Serif" font-size="10.00" fill="#000000">uLong</text>
</a>
</g>
</g>
<!-- Node770&#45;&gt;Node771 -->
<g id="edge3" class="edge">
<title>Node770&#45;&gt;Node771</title>
<path fill="none" stroke="#191970" d="M401.5533,-82.0035C423.3163,-90.6218 452.2579,-100.5869 479,-105 549.1622,-116.5784 569.4064,-119.6125 639,-105 660.6045,-100.4637 683.4004,-90.1944 700.1639,-81.4738"/>
<polygon fill="#191970" stroke="#191970" points="702.1307,-84.3903 709.2822,-76.5732 698.8168,-78.2243 702.1307,-84.3903"/>
</g>
<!-- Node772 -->
<g id="node5" class="node">
<title>Node772</title>
<g id="a_node5"><a xlink:href="../../d6/da7/unzip_8c.html#a2adf50ee682fe99e90f76e3b5c5aff19" target="_top" xlink:title=" ">
<polygon fill="#ffffff" stroke="#000000" points="479,-76.5 479,-95.5 639,-95.5 639,-76.5 479,-76.5"/>
<text text-anchor="middle" x="559" y="-83.5" font-family="Helvetica,sans-Serif" font-size="10.00" fill="#000000">unzlocal_DosDateToTmuDate</text>
</a>
</g>
</g>
<!-- Node770&#45;&gt;Node772 -->
<g id="edge4" class="edge">
<title>Node770&#45;&gt;Node772</title>
<path fill="none" stroke="#191970" d="M443.1592,-74.5366C451.5874,-75.3706 460.2289,-76.2258 468.8083,-77.0748"/>
<polygon fill="#191970" stroke="#191970" points="468.5387,-80.5651 478.8348,-78.067 469.2281,-73.5991 468.5387,-80.5651"/>
</g>
<!-- Node773 -->
<g id="node6" class="node">
<title>Node773</title>
<g id="a_node6"><a xlink:href="../../d6/da7/unzip_8c.html#adf85ae30e9d93b75f7980750f9696a9a" target="_top" xlink:title=" ">
<polygon fill="#ffffff" stroke="#000000" points="508.5,-38.5 508.5,-57.5 609.5,-57.5 609.5,-38.5 508.5,-38.5"/>
<text text-anchor="middle" x="559" y="-45.5" font-family="Helvetica,sans-Serif" font-size="10.00" fill="#000000">unzlocal_getLong</text>
</a>
</g>
</g>
<!-- Node770&#45;&gt;Node773 -->
<g id="edge6" class="edge">
<title>Node770&#45;&gt;Node773</title>
<path fill="none" stroke="#191970" d="M443.1592,-59.4634C461.4511,-57.6533 480.7478,-55.7437 498.2338,-54.0133"/>
<polygon fill="#191970" stroke="#191970" points="498.692,-57.4852 508.2987,-53.0173 498.0026,-50.5192 498.692,-57.4852"/>
</g>
<!-- Node776 -->
<g id="node9" class="node">
<title>Node776</title>
<g id="a_node9"><a xlink:href="../../d6/da7/unzip_8c.html#a6e42c868757990ea103d34619e3f5fa2" target="_top" xlink:title=" ">
<polygon fill="#ffffff" stroke="#000000" points="507,-.5 507,-19.5 611,-19.5 611,-.5 507,-.5"/>
<text text-anchor="middle" x="559" y="-7.5" font-family="Helvetica,sans-Serif" font-size="10.00" fill="#000000">unzlocal_getShort</text>
</a>
</g>
</g>
<!-- Node770&#45;&gt;Node776 -->
<g id="edge10" class="edge">
<title>Node770&#45;&gt;Node776</title>
<path fill="none" stroke="#191970" d="M408.1944,-51.9892C429.2314,-44.588 455.3208,-35.8126 479,-29 487.5721,-26.5338 496.7256,-24.1395 505.666,-21.9291"/>
<polygon fill="#191970" stroke="#191970" points="506.7316,-25.2723 515.6272,-19.5174 505.0844,-18.4688 506.7316,-25.2723"/>
</g>
<!-- Node772&#45;&gt;Node771 -->
<g id="edge5" class="edge">
<title>Node772&#45;&gt;Node771</title>
<path fill="none" stroke="#191970" d="M639.3238,-76.8339C658.1072,-74.6905 677.0895,-72.5243 692.4395,-70.7727"/>
<polygon fill="#191970" stroke="#191970" points="692.9004,-74.2429 702.4391,-69.6316 692.1067,-67.288 692.9004,-74.2429"/>
</g>
<!-- Node773&#45;&gt;Node771 -->
<g id="edge7" class="edge">
<title>Node773&#45;&gt;Node771</title>
<path fill="none" stroke="#191970" d="M609.8602,-53.8039C636.5645,-56.8512 668.5366,-60.4997 692.0877,-63.1872"/>
<polygon fill="#191970" stroke="#191970" points="691.9344,-66.6923 702.2668,-64.3488 692.7281,-59.7375 691.9344,-66.6923"/>
</g>
<!-- Node774 -->
<g id="node7" class="node">
<title>Node774</title>
<g id="a_node7"><a xlink:href="../../d6/da7/unzip_8c.html#a5ebba7e31a1d05c7283915a397b4b3d0" target="_top" xlink:title=" ">
<polygon fill="#ffffff" stroke="#000000" points="675,-10.5 675,-29.5 776,-29.5 776,-10.5 675,-10.5"/>
<text text-anchor="middle" x="725.5" y="-17.5" font-family="Helvetica,sans-Serif" font-size="10.00" fill="#000000">unzlocal_getByte</text>
</a>
</g>
</g>
<!-- Node773&#45;&gt;Node774 -->
<g id="edge8" class="edge">
<title>Node773&#45;&gt;Node774</title>
<path fill="none" stroke="#191970" d="M609.8602,-39.4469C627.2895,-36.5159 646.9628,-33.2075 665.0742,-30.1617"/>
<polygon fill="#191970" stroke="#191970" points="665.6702,-33.6107 674.9513,-28.5007 664.5093,-26.7076 665.6702,-33.6107"/>
</g>
<!-- Node775 -->
<g id="node8" class="node">
<title>Node775</title>
<g id="a_node8"><a xlink:href="../../d2/db7/ioapi_8h.html#a787fa3cf048117ba7123753c1e74fcd6" target="_top" xlink:title=" ">
<polygon fill="#ffffff" stroke="#000000" points="812,-10.5 812,-29.5 841,-29.5 841,-10.5 812,-10.5"/>
<text text-anchor="middle" x="826.5" y="-17.5" font-family="Helvetica,sans-Serif" font-size="10.00" fill="#000000">int</text>
</a>
</g>
</g>
<!-- Node774&#45;&gt;Node775 -->
<g id="edge9" class="edge">
<title>Node774&#45;&gt;Node775</title>
<path fill="none" stroke="#191970" d="M776.2959,-20C785.1104,-20 793.9129,-20 801.6292,-20"/>
<polygon fill="#191970" stroke="#191970" points="801.7022,-23.5001 811.7022,-20 801.7021,-16.5001 801.7022,-23.5001"/>
</g>
<!-- Node776&#45;&gt;Node771 -->
<g id="edge11" class="edge">
<title>Node776&#45;&gt;Node771</title>
<path fill="none" stroke="#191970" d="M605.5127,-19.5465C616.5962,-22.2325 628.3077,-25.4145 639,-29 658.8901,-35.6699 680.4966,-45.1601 697.1398,-52.9877"/>
<polygon fill="#191970" stroke="#191970" points="695.783,-56.2184 706.315,-57.3705 698.8002,-49.902 695.783,-56.2184"/>
</g>
<!-- Node776&#45;&gt;Node774 -->
<g id="edge12" class="edge">
<title>Node776&#45;&gt;Node774</title>
<path fill="none" stroke="#191970" d="M611.2248,-13.1366C628.2057,-14.1565 647.1963,-15.2971 664.7451,-16.3511"/>
<polygon fill="#191970" stroke="#191970" points="664.6931,-19.8541 674.8849,-16.9601 665.1128,-12.8667 664.6931,-19.8541"/>
</g>
</g>
</svg>
