<?xml version="1.0" encoding="UTF-8" standalone="no"?>
<!DOCTYPE svg PUBLIC "-//W3C//DTD SVG 1.1//EN"
 "http://www.w3.org/Graphics/SVG/1.1/DTD/svg11.dtd">
<!-- Generated by graphviz version 2.40.1 (0)
 -->
<!-- Title: Ruler::Ruler Pages: 1 -->
<svg width="239pt" height="104pt"
 viewBox="0.00 0.00 239.00 104.00" xmlns="http://www.w3.org/2000/svg" xmlns:xlink="http://www.w3.org/1999/xlink">
<g id="graph0" class="graph" transform="scale(1 1) rotate(0) translate(4 100)">
<title>Ruler::Ruler</title>
<polygon fill="#ffffff" stroke="transparent" points="-4,4 -4,-100 235,-100 235,4 -4,4"/>
<!-- Node0 -->
<g id="node1" class="node">
<title>Node0</title>
<g id="a_node1"><a xlink:title=" ">
<polygon fill="#bfbfbf" stroke="#000000" points="0,-38.5 0,-57.5 74,-57.5 74,-38.5 0,-38.5"/>
<text text-anchor="middle" x="37" y="-45.5" font-family="Helvetica,sans-Serif" font-size="10.00" fill="#000000">Ruler::Ruler</text>
</a>
</g>
</g>
<!-- Node1 -->
<g id="node2" class="node">
<title>Node1</title>
<g id="a_node2"><a xlink:href="../../d4/d72/classModelPart.html#a47369e86cac97b2139fbed138cf3e6c2" target="_top" xlink:title=" ">
<polygon fill="#ffffff" stroke="#000000" points="112.5,-76.5 112.5,-95.5 228.5,-95.5 228.5,-76.5 112.5,-76.5"/>
<text text-anchor="middle" x="170.5" y="-83.5" font-family="Helvetica,sans-Serif" font-size="10.00" fill="#000000">ModelPart::localProp</text>
</a>
</g>
</g>
<!-- Node0&#45;&gt;Node1 -->
<g id="edge1" class="edge">
<title>Node0&#45;&gt;Node1</title>
<path fill="none" stroke="#191970" d="M70.6877,-57.589C87.7632,-62.4494 108.7004,-68.4091 126.9816,-73.6127"/>
<polygon fill="#191970" stroke="#191970" points="126.2469,-77.0426 136.8231,-76.4141 128.1634,-70.31 126.2469,-77.0426"/>
</g>
<!-- Node2 -->
<g id="node3" class="node">
<title>Node2</title>
<g id="a_node3"><a xlink:href="../../d4/d4f/classItemBase.html#acc2f5bad42928e7178c28fa0771b1f60" target="_top" xlink:title=" ">
<polygon fill="#ffffff" stroke="#000000" points="111,-38.5 111,-57.5 230,-57.5 230,-38.5 111,-38.5"/>
<text text-anchor="middle" x="170.5" y="-45.5" font-family="Helvetica,sans-Serif" font-size="10.00" fill="#000000">ItemBase::modelPart</text>
</a>
</g>
</g>
<!-- Node0&#45;&gt;Node2 -->
<g id="edge2" class="edge">
<title>Node0&#45;&gt;Node2</title>
<path fill="none" stroke="#191970" d="M74.1872,-48C82.5726,-48 91.738,-48 100.9744,-48"/>
<polygon fill="#191970" stroke="#191970" points="100.9913,-51.5001 110.9912,-48 100.9912,-44.5001 100.9913,-51.5001"/>
</g>
<!-- Node3 -->
<g id="node4" class="node">
<title>Node3</title>
<g id="a_node4"><a xlink:href="../../d4/d72/classModelPart.html#a59262909e61b1889d251eadb4bf844db" target="_top" xlink:title=" ">
<polygon fill="#ffffff" stroke="#000000" points="110,-.5 110,-19.5 231,-19.5 231,-.5 110,-.5"/>
<text text-anchor="middle" x="170.5" y="-7.5" font-family="Helvetica,sans-Serif" font-size="10.00" fill="#000000">ModelPart::properties</text>
</a>
</g>
</g>
<!-- Node0&#45;&gt;Node3 -->
<g id="edge3" class="edge">
<title>Node0&#45;&gt;Node3</title>
<path fill="none" stroke="#191970" d="M70.6877,-38.411C87.7632,-33.5506 108.7004,-27.5909 126.9816,-22.3873"/>
<polygon fill="#191970" stroke="#191970" points="128.1634,-25.69 136.8231,-19.5859 126.2469,-18.9574 128.1634,-25.69"/>
</g>
</g>
</svg>
