<?xml version="1.0" encoding="UTF-8" standalone="no"?>
<!DOCTYPE svg PUBLIC "-//W3C//DTD SVG 1.1//EN"
 "http://www.w3.org/Graphics/SVG/1.1/DTD/svg11.dtd">
<!-- Generated by graphviz version 2.40.1 (0)
 -->
<!-- Title: Ruler::widthEntry Pages: 1 -->
<svg width="287pt" height="127pt"
 viewBox="0.00 0.00 287.00 127.00" xmlns="http://www.w3.org/2000/svg" xmlns:xlink="http://www.w3.org/1999/xlink">
<g id="graph0" class="graph" transform="scale(1 1) rotate(0) translate(4 123)">
<title>Ruler::widthEntry</title>
<polygon fill="#ffffff" stroke="transparent" points="-4,4 -4,-123 283,-123 283,4 -4,4"/>
<!-- Node192 -->
<g id="node1" class="node">
<title>Node192</title>
<g id="a_node1"><a xlink:title=" ">
<polygon fill="#bfbfbf" stroke="#000000" points="0,-50 0,-69 101,-69 101,-50 0,-50"/>
<text text-anchor="middle" x="50.5" y="-57" font-family="Helvetica,sans-Serif" font-size="10.00" fill="#000000">Ruler::widthEntry</text>
</a>
</g>
</g>
<!-- Node193 -->
<g id="node2" class="node">
<title>Node193</title>
<g id="a_node2"><a xlink:href="../../d8/d86/classInfoGraphicsView.html#a606fdf5fe1049e99851ba1050a9516e6" target="_top" xlink:title=" ">
<polygon fill="#ffffff" stroke="#000000" points="137,-88.5 137,-118.5 279,-118.5 279,-88.5 137,-88.5"/>
<text text-anchor="start" x="145" y="-106.5" font-family="Helvetica,sans-Serif" font-size="10.00" fill="#000000">InfoGraphicsView::getInfo</text>
<text text-anchor="middle" x="208" y="-95.5" font-family="Helvetica,sans-Serif" font-size="10.00" fill="#000000">GraphicsView</text>
</a>
</g>
</g>
<!-- Node192&#45;&gt;Node193 -->
<g id="edge1" class="edge">
<title>Node192&#45;&gt;Node193</title>
<path fill="none" stroke="#191970" d="M84.6752,-69.0473C102.0911,-73.9128 123.8441,-79.9898 144.211,-85.6796"/>
<polygon fill="#191970" stroke="#191970" points="143.4999,-89.1149 154.0728,-88.4346 145.3834,-82.373 143.4999,-89.1149"/>
</g>
<!-- Node194 -->
<g id="node3" class="node">
<title>Node194</title>
<g id="a_node3"><a xlink:href="../../d4/d4f/classItemBase.html#a6728938e08a09a903e8ccc3bf62cedcb" target="_top" xlink:title=" ">
<polygon fill="#ffffff" stroke="#000000" points="162.5,-50 162.5,-69 253.5,-69 253.5,-50 162.5,-50"/>
<text text-anchor="middle" x="208" y="-57" font-family="Helvetica,sans-Serif" font-size="10.00" fill="#000000">ItemBase::prop</text>
</a>
</g>
</g>
<!-- Node192&#45;&gt;Node194 -->
<g id="edge2" class="edge">
<title>Node192&#45;&gt;Node194</title>
<path fill="none" stroke="#191970" d="M101.2009,-59.5C117.5099,-59.5 135.6651,-59.5 152.3123,-59.5"/>
<polygon fill="#191970" stroke="#191970" points="152.4528,-63.0001 162.4527,-59.5 152.4527,-56.0001 152.4528,-63.0001"/>
</g>
<!-- Node195 -->
<g id="node4" class="node">
<title>Node195</title>
<g id="a_node4"><a xlink:href="../../d8/d86/classInfoGraphicsView.html#a9d19e1c44f209027c9d55c0676dd120c" target="_top" xlink:title=" ">
<polygon fill="#ffffff" stroke="#000000" points="139.5,-.5 139.5,-30.5 276.5,-30.5 276.5,-.5 139.5,-.5"/>
<text text-anchor="start" x="147.5" y="-18.5" font-family="Helvetica,sans-Serif" font-size="10.00" fill="#000000">InfoGraphicsView::resize</text>
<text text-anchor="middle" x="208" y="-7.5" font-family="Helvetica,sans-Serif" font-size="10.00" fill="#000000">Board</text>
</a>
</g>
</g>
<!-- Node192&#45;&gt;Node195 -->
<g id="edge3" class="edge">
<title>Node192&#45;&gt;Node195</title>
<path fill="none" stroke="#191970" d="M84.6752,-49.9527C102.0911,-45.0872 123.8441,-39.0102 144.211,-33.3204"/>
<polygon fill="#191970" stroke="#191970" points="145.3834,-36.627 154.0728,-30.5654 143.4999,-29.8851 145.3834,-36.627"/>
</g>
</g>
</svg>
