<?xml version="1.0" encoding="UTF-8" standalone="no"?>
<!DOCTYPE svg PUBLIC "-//W3C//DTD SVG 1.1//EN"
 "http://www.w3.org/Graphics/SVG/1.1/DTD/svg11.dtd">
<!-- Generated by graphviz version 2.40.1 (0)
 -->
<!-- Title: ErcData::ErcData Pages: 1 -->
<svg width="408pt" height="104pt"
 viewBox="0.00 0.00 408.00 104.00" xmlns="http://www.w3.org/2000/svg" xmlns:xlink="http://www.w3.org/1999/xlink">
<g id="graph0" class="graph" transform="scale(1 1) rotate(0) translate(4 100)">
<title>ErcData::ErcData</title>
<polygon fill="#ffffff" stroke="transparent" points="-4,4 -4,-100 404,-100 404,4 -4,4"/>
<!-- Node0 -->
<g id="node1" class="node">
<title>Node0</title>
<g id="a_node1"><a xlink:title=" ">
<polygon fill="#bfbfbf" stroke="#000000" points="0,-38.5 0,-57.5 99,-57.5 99,-38.5 0,-38.5"/>
<text text-anchor="middle" x="49.5" y="-45.5" font-family="Helvetica,sans-Serif" font-size="10.00" fill="#000000">ErcData::ErcData</text>
</a>
</g>
</g>
<!-- Node1 -->
<g id="node2" class="node">
<title>Node1</title>
<g id="a_node2"><a xlink:href="../../d6/d27/classErcData.html#a0f3d339f28ee2d67a5f153d0ad2b20a6" target="_top" xlink:title=" ">
<polygon fill="#ffffff" stroke="#000000" points="150,-76.5 150,-95.5 239,-95.5 239,-76.5 150,-76.5"/>
<text text-anchor="middle" x="194.5" y="-83.5" font-family="Helvetica,sans-Serif" font-size="10.00" fill="#000000">ErcData::eType</text>
</a>
</g>
</g>
<!-- Node0&#45;&gt;Node1 -->
<g id="edge1" class="edge">
<title>Node0&#45;&gt;Node1</title>
<path fill="none" stroke="#191970" d="M86.0896,-57.589C104.9654,-62.5358 128.1859,-68.6211 148.2879,-73.8892"/>
<polygon fill="#191970" stroke="#191970" points="147.6129,-77.3305 158.1735,-76.4799 149.3875,-70.5591 147.6129,-77.3305"/>
</g>
<!-- Node2 -->
<g id="node3" class="node">
<title>Node2</title>
<g id="a_node3"><a xlink:href="../../d6/d27/classErcData.html#a81a205a5b7e2f4c4b4bca65e0884821c" target="_top" xlink:title=" ">
<polygon fill="#ffffff" stroke="#000000" points="135,-38.5 135,-57.5 254,-57.5 254,-38.5 135,-38.5"/>
<text text-anchor="middle" x="194.5" y="-45.5" font-family="Helvetica,sans-Serif" font-size="10.00" fill="#000000">ErcData::readCurrent</text>
</a>
</g>
</g>
<!-- Node0&#45;&gt;Node2 -->
<g id="edge2" class="edge">
<title>Node0&#45;&gt;Node2</title>
<path fill="none" stroke="#191970" d="M99.4008,-48C107.4962,-48 116.0093,-48 124.4773,-48"/>
<polygon fill="#191970" stroke="#191970" points="124.7529,-51.5001 134.7529,-48 124.7529,-44.5001 124.7529,-51.5001"/>
</g>
<!-- Node4 -->
<g id="node5" class="node">
<title>Node4</title>
<g id="a_node5"><a xlink:href="../../d6/d27/classErcData.html#ad503d88b73e79d0438c5999b59fffe13" target="_top" xlink:title=" ">
<polygon fill="#ffffff" stroke="#000000" points="135,-.5 135,-19.5 254,-19.5 254,-.5 135,-.5"/>
<text text-anchor="middle" x="194.5" y="-7.5" font-family="Helvetica,sans-Serif" font-size="10.00" fill="#000000">ErcData::readVoltage</text>
</a>
</g>
</g>
<!-- Node0&#45;&gt;Node4 -->
<g id="edge4" class="edge">
<title>Node0&#45;&gt;Node4</title>
<path fill="none" stroke="#191970" d="M86.0896,-38.411C104.9654,-33.4642 128.1859,-27.3789 148.2879,-22.1108"/>
<polygon fill="#191970" stroke="#191970" points="149.3875,-25.4409 158.1735,-19.5201 147.6129,-18.6695 149.3875,-25.4409"/>
</g>
<!-- Node3 -->
<g id="node4" class="node">
<title>Node3</title>
<g id="a_node4"><a xlink:href="../../d3/d89/classValidReal.html#ad71aeb570bdc6a68d596d7a2d03977c9" target="_top" xlink:title=" ">
<polygon fill="#ffffff" stroke="#000000" points="290,-19.5 290,-38.5 400,-38.5 400,-19.5 290,-19.5"/>
<text text-anchor="middle" x="345" y="-26.5" font-family="Helvetica,sans-Serif" font-size="10.00" fill="#000000">ValidReal::setValue</text>
</a>
</g>
</g>
<!-- Node2&#45;&gt;Node3 -->
<g id="edge3" class="edge">
<title>Node2&#45;&gt;Node3</title>
<path fill="none" stroke="#191970" d="M254.414,-40.4361C262.6893,-39.3914 271.2231,-38.314 279.5916,-37.2575"/>
<polygon fill="#191970" stroke="#191970" points="280.2061,-40.7078 289.6889,-35.9828 279.3292,-33.763 280.2061,-40.7078"/>
</g>
<!-- Node4&#45;&gt;Node3 -->
<g id="edge5" class="edge">
<title>Node4&#45;&gt;Node3</title>
<path fill="none" stroke="#191970" d="M254.414,-17.5639C262.6893,-18.6086 271.2231,-19.686 279.5916,-20.7425"/>
<polygon fill="#191970" stroke="#191970" points="279.3292,-24.237 289.6889,-22.0172 280.2061,-17.2922 279.3292,-24.237"/>
</g>
</g>
</svg>
