<?xml version="1.0" encoding="UTF-8" standalone="no"?>
<!DOCTYPE svg PUBLIC "-//W3C//DTD SVG 1.1//EN"
 "http://www.w3.org/Graphics/SVG/1.1/DTD/svg11.dtd">
<!-- Generated by graphviz version 2.40.1 (0)
 -->
<!-- Title: partseditor/hashpopulatewidget.cpp Pages: 1 -->
<svg width="1100pt" height="196pt"
 viewBox="0.00 0.00 1099.50 196.00" xmlns="http://www.w3.org/2000/svg" xmlns:xlink="http://www.w3.org/1999/xlink">
<g id="graph0" class="graph" transform="scale(1 1) rotate(0) translate(4 192)">
<title>partseditor/hashpopulatewidget.cpp</title>
<polygon fill="#ffffff" stroke="transparent" points="-4,4 -4,-192 1095.5,-192 1095.5,4 -4,4"/>
<!-- Node0 -->
<g id="node1" class="node">
<title>Node0</title>
<g id="a_node1"><a xlink:title=" ">
<polygon fill="#bfbfbf" stroke="#000000" points="364,-168.5 364,-187.5 556,-187.5 556,-168.5 364,-168.5"/>
<text text-anchor="middle" x="460" y="-175.5" font-family="Helvetica,sans-Serif" font-size="10.00" fill="#000000">partseditor/hashpopulatewidget.cpp</text>
</a>
</g>
</g>
<!-- Node1 -->
<g id="node2" class="node">
<title>Node1</title>
<g id="a_node2"><a xlink:title=" ">
<polygon fill="#ffffff" stroke="#bfbfbf" points="161.5,-112.5 161.5,-131.5 242.5,-131.5 242.5,-112.5 161.5,-112.5"/>
<text text-anchor="middle" x="202" y="-119.5" font-family="Helvetica,sans-Serif" font-size="10.00" fill="#000000">QtAlgorithms</text>
</a>
</g>
</g>
<!-- Node0&#45;&gt;Node1 -->
<g id="edge1" class="edge">
<title>Node0&#45;&gt;Node1</title>
<path fill="none" stroke="#191970" d="M415.9414,-168.4369C370.6606,-158.6085 300.2444,-143.3244 252.6821,-133.0008"/>
<polygon fill="#191970" stroke="#191970" points="253.4119,-129.5777 242.897,-130.8769 251.927,-136.4185 253.4119,-129.5777"/>
</g>
<!-- Node2 -->
<g id="node3" class="node">
<title>Node2</title>
<g id="a_node3"><a xlink:href="../../dc/df6/hashpopulatewidget_8h.html" target="_top" xlink:title=" ">
<polygon fill="#ffffff" stroke="#000000" points="260.5,-112.5 260.5,-131.5 385.5,-131.5 385.5,-112.5 260.5,-112.5"/>
<text text-anchor="middle" x="323" y="-119.5" font-family="Helvetica,sans-Serif" font-size="10.00" fill="#000000">hashpopulatewidget.h</text>
</a>
</g>
</g>
<!-- Node0&#45;&gt;Node2 -->
<g id="edge2" class="edge">
<title>Node0&#45;&gt;Node2</title>
<path fill="none" stroke="#191970" d="M436.4489,-168.3733C414.1609,-159.2629 380.5063,-145.5062 355.6363,-135.3404"/>
<polygon fill="#191970" stroke="#191970" points="356.8247,-132.0451 346.2438,-131.5011 354.1761,-138.5247 356.8247,-132.0451"/>
</g>
<!-- Node9 -->
<g id="node10" class="node">
<title>Node9</title>
<g id="a_node10"><a xlink:href="../../df/db5/debugdialog_8h.html" target="_top" xlink:title=" ">
<polygon fill="#ffffff" stroke="#000000" points="549.5,-112.5 549.5,-131.5 644.5,-131.5 644.5,-112.5 549.5,-112.5"/>
<text text-anchor="middle" x="597" y="-119.5" font-family="Helvetica,sans-Serif" font-size="10.00" fill="#000000">../debugdialog.h</text>
</a>
</g>
</g>
<!-- Node0&#45;&gt;Node9 -->
<g id="edge9" class="edge">
<title>Node0&#45;&gt;Node9</title>
<path fill="none" stroke="#191970" d="M483.5511,-168.3733C505.8391,-159.2629 539.4937,-145.5062 564.3637,-135.3404"/>
<polygon fill="#191970" stroke="#191970" points="565.8239,-138.5247 573.7562,-131.5011 563.1753,-132.0451 565.8239,-138.5247"/>
</g>
<!-- Node15 -->
<g id="node16" class="node">
<title>Node15</title>
<g id="a_node16"><a xlink:href="../../d4/d08/misc_8h.html" target="_top" xlink:title=" ">
<polygon fill="#ffffff" stroke="#000000" points="787.5,-56.5 787.5,-75.5 860.5,-75.5 860.5,-56.5 787.5,-56.5"/>
<text text-anchor="middle" x="824" y="-63.5" font-family="Helvetica,sans-Serif" font-size="10.00" fill="#000000">utils/misc.h</text>
</a>
</g>
</g>
<!-- Node0&#45;&gt;Node15 -->
<g id="edge25" class="edge">
<title>Node0&#45;&gt;Node15</title>
<path fill="none" stroke="#191970" d="M508.3319,-168.4711C547.8856,-160.2131 605.0826,-147.2161 654,-132 703.5275,-116.5942 759.2863,-93.8767 793.0174,-79.5151"/>
<polygon fill="#191970" stroke="#191970" points="794.5228,-82.6779 802.3353,-75.5215 791.7651,-76.244 794.5228,-82.6779"/>
</g>
<!-- Node3 -->
<g id="node4" class="node">
<title>Node3</title>
<g id="a_node4"><a xlink:title=" ">
<polygon fill="#ffffff" stroke="#bfbfbf" points="351.5,-56.5 351.5,-75.5 406.5,-75.5 406.5,-56.5 351.5,-56.5"/>
<text text-anchor="middle" x="379" y="-63.5" font-family="Helvetica,sans-Serif" font-size="10.00" fill="#000000">QFrame</text>
</a>
</g>
</g>
<!-- Node2&#45;&gt;Node3 -->
<g id="edge3" class="edge">
<title>Node2&#45;&gt;Node3</title>
<path fill="none" stroke="#191970" d="M332.7545,-112.2455C340.8648,-104.1352 352.5925,-92.4075 362.2081,-82.7919"/>
<polygon fill="#191970" stroke="#191970" points="364.7611,-85.1887 369.3573,-75.6427 359.8113,-80.2389 364.7611,-85.1887"/>
</g>
<!-- Node4 -->
<g id="node5" class="node">
<title>Node4</title>
<g id="a_node5"><a xlink:title=" ">
<polygon fill="#ffffff" stroke="#bfbfbf" points="361.5,-.5 361.5,-19.5 410.5,-19.5 410.5,-.5 361.5,-.5"/>
<text text-anchor="middle" x="386" y="-7.5" font-family="Helvetica,sans-Serif" font-size="10.00" fill="#000000">QHash</text>
</a>
</g>
</g>
<!-- Node2&#45;&gt;Node4 -->
<g id="edge4" class="edge">
<title>Node2&#45;&gt;Node4</title>
<path fill="none" stroke="#191970" d="M324.4742,-112.4945C326.8445,-99.1593 332.3558,-74.4632 343,-56 349.2065,-45.2343 358.3793,-34.9597 366.6604,-26.8627"/>
<polygon fill="#191970" stroke="#191970" points="369.2805,-29.2048 374.2009,-19.8218 364.5031,-24.0885 369.2805,-29.2048"/>
</g>
<!-- Node5 -->
<g id="node6" class="node">
<title>Node5</title>
<g id="a_node6"><a xlink:title=" ">
<polygon fill="#ffffff" stroke="#bfbfbf" points="136.5,-56.5 136.5,-75.5 199.5,-75.5 199.5,-56.5 136.5,-56.5"/>
<text text-anchor="middle" x="168" y="-63.5" font-family="Helvetica,sans-Serif" font-size="10.00" fill="#000000">QLineEdit</text>
</a>
</g>
</g>
<!-- Node2&#45;&gt;Node5 -->
<g id="edge5" class="edge">
<title>Node2&#45;&gt;Node5</title>
<path fill="none" stroke="#191970" d="M296.3546,-112.3733C270.8036,-103.1419 232.0488,-89.1402 203.8091,-78.9375"/>
<polygon fill="#191970" stroke="#191970" points="204.8921,-75.6074 194.2978,-75.5011 202.5135,-82.1909 204.8921,-75.6074"/>
</g>
<!-- Node6 -->
<g id="node7" class="node">
<title>Node6</title>
<g id="a_node7"><a xlink:title=" ">
<polygon fill="#ffffff" stroke="#bfbfbf" points="217.5,-56.5 217.5,-75.5 294.5,-75.5 294.5,-56.5 217.5,-56.5"/>
<text text-anchor="middle" x="256" y="-63.5" font-family="Helvetica,sans-Serif" font-size="10.00" fill="#000000">QGridLayout</text>
</a>
</g>
</g>
<!-- Node2&#45;&gt;Node6 -->
<g id="edge6" class="edge">
<title>Node2&#45;&gt;Node6</title>
<path fill="none" stroke="#191970" d="M311.3295,-112.2455C301.4339,-103.9746 287.0373,-91.9416 275.4099,-82.2232"/>
<polygon fill="#191970" stroke="#191970" points="277.4542,-79.3703 267.5368,-75.6427 272.965,-84.7413 277.4542,-79.3703"/>
</g>
<!-- Node7 -->
<g id="node8" class="node">
<title>Node7</title>
<g id="a_node8"><a xlink:href="../../de/da8/baseremovebutton_8h.html" target="_top" xlink:title=" ">
<polygon fill="#ffffff" stroke="#000000" points="0,-56.5 0,-75.5 118,-75.5 118,-56.5 0,-56.5"/>
<text text-anchor="middle" x="59" y="-63.5" font-family="Helvetica,sans-Serif" font-size="10.00" fill="#000000">baseremovebutton.h</text>
</a>
</g>
</g>
<!-- Node2&#45;&gt;Node7 -->
<g id="edge7" class="edge">
<title>Node2&#45;&gt;Node7</title>
<path fill="none" stroke="#191970" d="M277.9167,-112.4369C232.5454,-102.8127 162.5114,-87.957 113.9234,-77.6504"/>
<polygon fill="#191970" stroke="#191970" points="114.4059,-74.175 103.8973,-75.5237 112.9534,-81.0226 114.4059,-74.175"/>
</g>
<!-- Node8 -->
<g id="node9" class="node">
<title>Node8</title>
<g id="a_node9"><a xlink:title=" ">
<polygon fill="#ffffff" stroke="#bfbfbf" points="34,-.5 34,-19.5 84,-19.5 84,-.5 34,-.5"/>
<text text-anchor="middle" x="59" y="-7.5" font-family="Helvetica,sans-Serif" font-size="10.00" fill="#000000">QLabel</text>
</a>
</g>
</g>
<!-- Node7&#45;&gt;Node8 -->
<g id="edge8" class="edge">
<title>Node7&#45;&gt;Node8</title>
<path fill="none" stroke="#191970" d="M59,-56.2455C59,-48.9382 59,-38.6944 59,-29.7046"/>
<polygon fill="#191970" stroke="#191970" points="62.5001,-29.6426 59,-19.6427 55.5001,-29.6427 62.5001,-29.6426"/>
</g>
<!-- Node10 -->
<g id="node11" class="node">
<title>Node10</title>
<g id="a_node11"><a xlink:title=" ">
<polygon fill="#ffffff" stroke="#bfbfbf" points="713,-56.5 713,-75.5 769,-75.5 769,-56.5 713,-56.5"/>
<text text-anchor="middle" x="741" y="-63.5" font-family="Helvetica,sans-Serif" font-size="10.00" fill="#000000">QDialog</text>
</a>
</g>
</g>
<!-- Node9&#45;&gt;Node10 -->
<g id="edge10" class="edge">
<title>Node9&#45;&gt;Node10</title>
<path fill="none" stroke="#191970" d="M621.7545,-112.3733C645.2849,-103.2226 680.8687,-89.3844 707.0426,-79.2057"/>
<polygon fill="#191970" stroke="#191970" points="708.5171,-82.3877 716.5685,-75.5011 705.9799,-75.8636 708.5171,-82.3877"/>
</g>
<!-- Node11 -->
<g id="node12" class="node">
<title>Node11</title>
<g id="a_node12"><a xlink:title=" ">
<polygon fill="#ffffff" stroke="#bfbfbf" points="425,-56.5 425,-75.5 477,-75.5 477,-56.5 425,-56.5"/>
<text text-anchor="middle" x="451" y="-63.5" font-family="Helvetica,sans-Serif" font-size="10.00" fill="#000000">QEvent</text>
</a>
</g>
</g>
<!-- Node9&#45;&gt;Node11 -->
<g id="edge11" class="edge">
<title>Node9&#45;&gt;Node11</title>
<path fill="none" stroke="#191970" d="M571.9017,-112.3733C548.0445,-103.2226 511.9665,-89.3844 485.429,-79.2057"/>
<polygon fill="#191970" stroke="#191970" points="486.361,-75.8145 475.7708,-75.5011 483.8541,-82.3503 486.361,-75.8145"/>
</g>
<!-- Node12 -->
<g id="node13" class="node">
<title>Node12</title>
<g id="a_node13"><a xlink:title=" ">
<polygon fill="#ffffff" stroke="#bfbfbf" points="495.5,-56.5 495.5,-75.5 558.5,-75.5 558.5,-56.5 495.5,-56.5"/>
<text text-anchor="middle" x="527" y="-63.5" font-family="Helvetica,sans-Serif" font-size="10.00" fill="#000000">QTextEdit</text>
</a>
</g>
</g>
<!-- Node9&#45;&gt;Node12 -->
<g id="edge12" class="edge">
<title>Node9&#45;&gt;Node12</title>
<path fill="none" stroke="#191970" d="M584.8069,-112.2455C574.3679,-103.8943 559.1345,-91.7076 546.926,-81.9408"/>
<polygon fill="#191970" stroke="#191970" points="549.0485,-79.1566 539.0533,-75.6427 544.6756,-84.6227 549.0485,-79.1566"/>
</g>
<!-- Node13 -->
<g id="node14" class="node">
<title>Node13</title>
<g id="a_node14"><a xlink:title=" ">
<polygon fill="#ffffff" stroke="#bfbfbf" points="576.5,-56.5 576.5,-75.5 617.5,-75.5 617.5,-56.5 576.5,-56.5"/>
<text text-anchor="middle" x="597" y="-63.5" font-family="Helvetica,sans-Serif" font-size="10.00" fill="#000000">QFile</text>
</a>
</g>
</g>
<!-- Node9&#45;&gt;Node13 -->
<g id="edge13" class="edge">
<title>Node9&#45;&gt;Node13</title>
<path fill="none" stroke="#191970" d="M597,-112.2455C597,-104.9382 597,-94.6944 597,-85.7046"/>
<polygon fill="#191970" stroke="#191970" points="600.5001,-85.6426 597,-75.6427 593.5001,-85.6427 600.5001,-85.6426"/>
</g>
<!-- Node14 -->
<g id="node15" class="node">
<title>Node14</title>
<g id="a_node15"><a xlink:title=" ">
<polygon fill="#ffffff" stroke="#bfbfbf" points="635.5,-56.5 635.5,-75.5 694.5,-75.5 694.5,-56.5 635.5,-56.5"/>
<text text-anchor="middle" x="665" y="-63.5" font-family="Helvetica,sans-Serif" font-size="10.00" fill="#000000">QPointer</text>
</a>
</g>
</g>
<!-- Node9&#45;&gt;Node14 -->
<g id="edge14" class="edge">
<title>Node9&#45;&gt;Node14</title>
<path fill="none" stroke="#191970" d="M608.8447,-112.2455C618.888,-103.9746 633.4995,-91.9416 645.3004,-82.2232"/>
<polygon fill="#191970" stroke="#191970" points="647.7967,-84.7015 653.291,-75.6427 643.3467,-79.298 647.7967,-84.7015"/>
</g>
<!-- Node9&#45;&gt;Node15 -->
<g id="edge15" class="edge">
<title>Node9&#45;&gt;Node15</title>
<path fill="none" stroke="#191970" d="M635.7648,-112.4369C674.9541,-102.769 735.5422,-87.8222 777.3412,-77.5105"/>
<polygon fill="#191970" stroke="#191970" points="778.4042,-80.8533 787.2748,-75.06 776.7275,-74.0571 778.4042,-80.8533"/>
</g>
<!-- Node15&#45;&gt;Node4 -->
<g id="edge16" class="edge">
<title>Node15&#45;&gt;Node4</title>
<path fill="none" stroke="#191970" d="M787.4037,-57.7082C784.2306,-57.0914 781.0632,-56.5114 778,-56 647.1242,-34.1486 489.9552,-19.0353 421.1509,-12.9689"/>
<polygon fill="#191970" stroke="#191970" points="421.1509,-9.4557 410.8845,-12.0734 420.5425,-16.4292 421.1509,-9.4557"/>
</g>
<!-- Node16 -->
<g id="node17" class="node">
<title>Node16</title>
<g id="a_node17"><a xlink:title=" ">
<polygon fill="#ffffff" stroke="#bfbfbf" points="965.5,-.5 965.5,-19.5 1020.5,-19.5 1020.5,-.5 965.5,-.5"/>
<text text-anchor="middle" x="993" y="-7.5" font-family="Helvetica,sans-Serif" font-size="10.00" fill="#000000">QVector</text>
</a>
</g>
</g>
<!-- Node15&#45;&gt;Node16 -->
<g id="edge17" class="edge">
<title>Node15&#45;&gt;Node16</title>
<path fill="none" stroke="#191970" d="M853.0521,-56.3733C881.4949,-46.9484 924.9439,-32.5511 955.8774,-22.301"/>
<polygon fill="#191970" stroke="#191970" points="957.0545,-25.5981 965.4461,-19.1303 954.8527,-18.9534 957.0545,-25.5981"/>
</g>
<!-- Node17 -->
<g id="node18" class="node">
<title>Node17</title>
<g id="a_node18"><a xlink:title=" ">
<polygon fill="#ffffff" stroke="#bfbfbf" points="1038.5,-.5 1038.5,-19.5 1091.5,-19.5 1091.5,-.5 1038.5,-.5"/>
<text text-anchor="middle" x="1065" y="-7.5" font-family="Helvetica,sans-Serif" font-size="10.00" fill="#000000">QString</text>
</a>
</g>
</g>
<!-- Node15&#45;&gt;Node17 -->
<g id="edge18" class="edge">
<title>Node15&#45;&gt;Node17</title>
<path fill="none" stroke="#191970" d="M860.6208,-58.4996C899.9137,-50.3027 964.3626,-36.4299 1028.4304,-20.306"/>
<polygon fill="#191970" stroke="#191970" points="1029.4579,-23.6563 1038.2907,-17.8055 1027.7371,-16.8711 1029.4579,-23.6563"/>
</g>
<!-- Node18 -->
<g id="node19" class="node">
<title>Node18</title>
<g id="a_node19"><a xlink:title=" ">
<polygon fill="#ffffff" stroke="#bfbfbf" points="523,-.5 523,-19.5 561,-19.5 561,-.5 523,-.5"/>
<text text-anchor="middle" x="542" y="-7.5" font-family="Helvetica,sans-Serif" font-size="10.00" fill="#000000">QDir</text>
</a>
</g>
</g>
<!-- Node15&#45;&gt;Node18 -->
<g id="edge19" class="edge">
<title>Node15&#45;&gt;Node18</title>
<path fill="none" stroke="#191970" d="M787.3708,-57.8896C784.2049,-57.2334 781.0481,-56.5948 778,-56 688.9754,-38.6276 662.4789,-43.504 570.8225,-19.8645"/>
<polygon fill="#191970" stroke="#191970" points="571.7042,-16.4774 561.1434,-17.326 569.9283,-23.2484 571.7042,-16.4774"/>
</g>
<!-- Node19 -->
<g id="node20" class="node">
<title>Node19</title>
<g id="a_node20"><a xlink:title=" ">
<polygon fill="#ffffff" stroke="#bfbfbf" points="579,-.5 579,-19.5 667,-19.5 667,-.5 579,-.5"/>
<text text-anchor="middle" x="623" y="-7.5" font-family="Helvetica,sans-Serif" font-size="10.00" fill="#000000">QDomElement</text>
</a>
</g>
</g>
<!-- Node15&#45;&gt;Node19 -->
<g id="edge20" class="edge">
<title>Node15&#45;&gt;Node19</title>
<path fill="none" stroke="#191970" d="M789.4469,-56.3733C755.5896,-46.9404 703.854,-32.5265 667.0574,-22.2747"/>
<polygon fill="#191970" stroke="#191970" points="667.6747,-18.8135 657.1022,-19.5011 665.796,-25.5566 667.6747,-18.8135"/>
</g>
<!-- Node20 -->
<g id="node21" class="node">
<title>Node20</title>
<g id="a_node21"><a xlink:title=" ">
<polygon fill="#ffffff" stroke="#bfbfbf" points="685,-.5 685,-19.5 755,-19.5 755,-.5 685,-.5"/>
<text text-anchor="middle" x="720" y="-7.5" font-family="Helvetica,sans-Serif" font-size="10.00" fill="#000000">QStringList</text>
</a>
</g>
</g>
<!-- Node15&#45;&gt;Node20 -->
<g id="edge21" class="edge">
<title>Node15&#45;&gt;Node20</title>
<path fill="none" stroke="#191970" d="M805.8846,-56.2455C789.555,-47.4527 765.329,-34.4079 746.7661,-24.4125"/>
<polygon fill="#191970" stroke="#191970" points="748.3719,-21.3021 737.9078,-19.6427 745.0532,-27.4654 748.3719,-21.3021"/>
</g>
<!-- Node21 -->
<g id="node22" class="node">
<title>Node21</title>
<g id="a_node22"><a xlink:title=" ">
<polygon fill="#ffffff" stroke="#bfbfbf" points="773,-.5 773,-19.5 815,-19.5 815,-.5 773,-.5"/>
<text text-anchor="middle" x="794" y="-7.5" font-family="Helvetica,sans-Serif" font-size="10.00" fill="#000000">QPair</text>
</a>
</g>
</g>
<!-- Node15&#45;&gt;Node21 -->
<g id="edge22" class="edge">
<title>Node15&#45;&gt;Node21</title>
<path fill="none" stroke="#191970" d="M818.7744,-56.2455C814.6877,-48.617 808.8865,-37.7881 803.925,-28.5267"/>
<polygon fill="#191970" stroke="#191970" points="806.9732,-26.8047 799.1657,-19.6427 800.8028,-30.1103 806.9732,-26.8047"/>
</g>
<!-- Node22 -->
<g id="node23" class="node">
<title>Node22</title>
<g id="a_node23"><a xlink:title=" ">
<polygon fill="#ffffff" stroke="#bfbfbf" points="833.5,-.5 833.5,-19.5 874.5,-19.5 874.5,-.5 833.5,-.5"/>
<text text-anchor="middle" x="854" y="-7.5" font-family="Helvetica,sans-Serif" font-size="10.00" fill="#000000">QList</text>
</a>
</g>
</g>
<!-- Node15&#45;&gt;Node22 -->
<g id="edge23" class="edge">
<title>Node15&#45;&gt;Node22</title>
<path fill="none" stroke="#191970" d="M829.2256,-56.2455C833.3123,-48.617 839.1135,-37.7881 844.075,-28.5267"/>
<polygon fill="#191970" stroke="#191970" points="847.1972,-30.1103 848.8343,-19.6427 841.0268,-26.8047 847.1972,-30.1103"/>
</g>
<!-- Node23 -->
<g id="node24" class="node">
<title>Node23</title>
<g id="a_node24"><a xlink:title=" ">
<polygon fill="#ffffff" stroke="#bfbfbf" points="892.5,-.5 892.5,-19.5 947.5,-19.5 947.5,-.5 892.5,-.5"/>
<text text-anchor="middle" x="920" y="-7.5" font-family="Helvetica,sans-Serif" font-size="10.00" fill="#000000">QPointF</text>
</a>
</g>
</g>
<!-- Node15&#45;&gt;Node23 -->
<g id="edge24" class="edge">
<title>Node15&#45;&gt;Node23</title>
<path fill="none" stroke="#191970" d="M840.7219,-56.2455C855.5889,-47.5731 877.5466,-34.7645 894.5858,-24.825"/>
<polygon fill="#191970" stroke="#191970" points="896.5955,-27.7047 903.4697,-19.6427 893.0683,-21.6582 896.5955,-27.7047"/>
</g>
</g>
</svg>
