<?xml version="1.0" encoding="UTF-8" standalone="no"?>
<!DOCTYPE svg PUBLIC "-//W3C//DTD SVG 1.1//EN"
 "http://www.w3.org/Graphics/SVG/1.1/DTD/svg11.dtd">
<!-- Generated by graphviz version 2.40.1 (0)
 -->
<!-- Title: fastCopy Pages: 1 -->
<svg width="578pt" height="28pt"
 viewBox="0.00 0.00 578.00 28.00" xmlns="http://www.w3.org/2000/svg" xmlns:xlink="http://www.w3.org/1999/xlink">
<g id="graph0" class="graph" transform="scale(1 1) rotate(0) translate(4 24)">
<title>fastCopy</title>
<polygon fill="#ffffff" stroke="transparent" points="-4,4 -4,-24 574,-24 574,4 -4,4"/>
<!-- Node17 -->
<g id="node1" class="node">
<title>Node17</title>
<g id="a_node1"><a xlink:title=" ">
<polygon fill="#bfbfbf" stroke="#000000" points="510,-.5 510,-19.5 570,-19.5 570,-.5 510,-.5"/>
<text text-anchor="middle" x="540" y="-7.5" font-family="Helvetica,sans-Serif" font-size="10.00" fill="#000000">fastCopy</text>
</a>
</g>
</g>
<!-- Node18 -->
<g id="node2" class="node">
<title>Node18</title>
<g id="a_node2"><a xlink:href="../../d1/d67/classMazeRouter.html#a8a3528662be91963efa08d15497a548b" target="_top" xlink:title=" ">
<polygon fill="#ffffff" stroke="#000000" points="319,-.5 319,-19.5 474,-19.5 474,-.5 319,-.5"/>
<text text-anchor="middle" x="396.5" y="-7.5" font-family="Helvetica,sans-Serif" font-size="10.00" fill="#000000">MazeRouter::optimizeTraces</text>
</a>
</g>
</g>
<!-- Node17&#45;&gt;Node18 -->
<g id="edge1" class="edge">
<title>Node17&#45;&gt;Node18</title>
<path fill="none" stroke="#191970" d="M499.7551,-10C491.7003,-10 482.9846,-10 474.1487,-10"/>
<polygon fill="#191970" stroke="#191970" points="499.9177,-13.5001 509.9177,-10 499.9177,-6.5001 499.9177,-13.5001"/>
</g>
<!-- Node19 -->
<g id="node3" class="node">
<title>Node19</title>
<g id="a_node3"><a xlink:href="../../d1/d67/classMazeRouter.html#ad3096b9a4a1a5d2f7ffd05578924d4db" target="_top" xlink:title=" ">
<polygon fill="#ffffff" stroke="#000000" points="140,-.5 140,-19.5 283,-19.5 283,-.5 140,-.5"/>
<text text-anchor="middle" x="211.5" y="-7.5" font-family="Helvetica,sans-Serif" font-size="10.00" fill="#000000">MazeRouter::createTraces</text>
</a>
</g>
</g>
<!-- Node18&#45;&gt;Node19 -->
<g id="edge2" class="edge">
<title>Node18&#45;&gt;Node19</title>
<path fill="none" stroke="#191970" d="M308.7743,-10C300.1564,-10 291.4832,-10 283.0548,-10"/>
<polygon fill="#191970" stroke="#191970" points="308.8475,-13.5001 318.8475,-10 308.8474,-6.5001 308.8475,-13.5001"/>
</g>
<!-- Node20 -->
<g id="node4" class="node">
<title>Node20</title>
<g id="a_node4"><a xlink:href="../../d1/d67/classMazeRouter.html#a0e1c56746b837fa3e83bd6b9e9fcd309" target="_top" xlink:title=" ">
<polygon fill="#ffffff" stroke="#000000" points="0,-.5 0,-19.5 104,-19.5 104,-.5 0,-.5"/>
<text text-anchor="middle" x="52" y="-7.5" font-family="Helvetica,sans-Serif" font-size="10.00" fill="#000000">MazeRouter::start</text>
</a>
</g>
</g>
<!-- Node19&#45;&gt;Node20 -->
<g id="edge3" class="edge">
<title>Node19&#45;&gt;Node20</title>
<path fill="none" stroke="#191970" d="M129.6032,-10C121.01,-10 112.4501,-10 104.3229,-10"/>
<polygon fill="#191970" stroke="#191970" points="129.6822,-13.5001 139.6822,-10 129.6821,-6.5001 129.6822,-13.5001"/>
</g>
</g>
</svg>
