<?xml version="1.0" encoding="UTF-8" standalone="no"?>
<!DOCTYPE svg PUBLIC "-//W3C//DTD SVG 1.1//EN"
 "http://www.w3.org/Graphics/SVG/1.1/DTD/svg11.dtd">
<!-- Generated by graphviz version 2.40.1 (0)
 -->
<!-- Title: DistanceThing Pages: 1 -->
<svg width="172pt" height="171pt"
 viewBox="0.00 0.00 171.50 171.00" xmlns="http://www.w3.org/2000/svg" xmlns:xlink="http://www.w3.org/1999/xlink">
<g id="graph0" class="graph" transform="scale(1 1) rotate(0) translate(4 167)">
<title>DistanceThing</title>
<polygon fill="#ffffff" stroke="transparent" points="-4,4 -4,-167 167.5,-167 167.5,4 -4,4"/>
<!-- Node1 -->
<g id="node1" class="node">
<title>Node1</title>
<g id="a_node1"><a xlink:title=" ">
<polygon fill="#bfbfbf" stroke="#000000" points="9.5,-.5 9.5,-57.5 95.5,-57.5 95.5,-.5 9.5,-.5"/>
<text text-anchor="middle" x="52.5" y="-45.5" font-family="Helvetica,sans-Serif" font-size="10.00" fill="#000000">DistanceThing</text>
<polyline fill="none" stroke="#000000" points="9.5,-38.5 95.5,-38.5 "/>
<text text-anchor="middle" x="52.5" y="-26.5" font-family="Helvetica,sans-Serif" font-size="10.00" fill="#000000"> </text>
<polyline fill="none" stroke="#000000" points="9.5,-19.5 95.5,-19.5 "/>
<text text-anchor="middle" x="52.5" y="-7.5" font-family="Helvetica,sans-Serif" font-size="10.00" fill="#000000"> </text>
</a>
</g>
</g>
<!-- Node2 -->
<g id="node2" class="node">
<title>Node2</title>
<g id="a_node2"><a xlink:title=" ">
<polygon fill="#ffffff" stroke="#bfbfbf" points="0,-105.5 0,-162.5 29,-162.5 29,-105.5 0,-105.5"/>
<text text-anchor="middle" x="14.5" y="-150.5" font-family="Helvetica,sans-Serif" font-size="10.00" fill="#000000">int</text>
<polyline fill="none" stroke="#bfbfbf" points="0,-143.5 29,-143.5 "/>
<text text-anchor="middle" x="14.5" y="-131.5" font-family="Helvetica,sans-Serif" font-size="10.00" fill="#000000"> </text>
<polyline fill="none" stroke="#bfbfbf" points="0,-124.5 29,-124.5 "/>
<text text-anchor="middle" x="14.5" y="-112.5" font-family="Helvetica,sans-Serif" font-size="10.00" fill="#000000"> </text>
</a>
</g>
</g>
<!-- Node2&#45;&gt;Node1 -->
<g id="edge1" class="edge">
<title>Node2&#45;&gt;Node1</title>
<path fill="none" stroke="#404040" d="M11.3859,-105.321C11.2859,-95.7587 12.2231,-85.2028 15.5,-76 16.4699,-73.276 17.6666,-70.5886 19.0291,-67.962"/>
<polygon fill="none" stroke="#404040" points="19.1312,-67.7956 18.8612,-60.5896 25.4091,-57.5688 25.6791,-64.7749 19.1312,-67.7956"/>
<text text-anchor="middle" x="42" y="-79" font-family="Helvetica,sans-Serif" font-size="10.00" fill="#000000"> +distance</text>
</g>
<!-- Node3 -->
<g id="node3" class="node">
<title>Node3</title>
<g id="a_node3"><a xlink:title=" ">
<polygon fill="#ffffff" stroke="#bfbfbf" points="71.5,-105.5 71.5,-162.5 109.5,-162.5 109.5,-105.5 71.5,-105.5"/>
<text text-anchor="middle" x="90.5" y="-150.5" font-family="Helvetica,sans-Serif" font-size="10.00" fill="#000000">bool</text>
<polyline fill="none" stroke="#bfbfbf" points="71.5,-143.5 109.5,-143.5 "/>
<text text-anchor="middle" x="90.5" y="-131.5" font-family="Helvetica,sans-Serif" font-size="10.00" fill="#000000"> </text>
<polyline fill="none" stroke="#bfbfbf" points="71.5,-124.5 109.5,-124.5 "/>
<text text-anchor="middle" x="90.5" y="-112.5" font-family="Helvetica,sans-Serif" font-size="10.00" fill="#000000"> </text>
</a>
</g>
</g>
<!-- Node3&#45;&gt;Node1 -->
<g id="edge2" class="edge">
<title>Node3&#45;&gt;Node1</title>
<path fill="none" stroke="#404040" d="M80.1163,-105.3083C76.0949,-94.1966 71.4202,-81.2796 67.0729,-69.2673"/>
<polygon fill="none" stroke="#404040" points="66.9548,-68.9408 61.1517,-64.6602 62.8711,-57.657 68.6742,-61.9377 66.9548,-68.9408"/>
<text text-anchor="middle" x="118" y="-79" font-family="Helvetica,sans-Serif" font-size="10.00" fill="#000000"> +fromConnector0</text>
</g>
</g>
</svg>
