<?xml version="1.0" encoding="UTF-8" standalone="no"?>
<!DOCTYPE svg PUBLIC "-//W3C//DTD SVG 1.1//EN"
 "http://www.w3.org/Graphics/SVG/1.1/DTD/svg11.dtd">
<!-- Generated by graphviz version 2.40.1 (0)
 -->
<!-- Title: sketch/infographicsview.h Pages: 1 -->
<!--zoomable 196 -->
<svg id="main" version="1.1" xmlns="http://www.w3.org/2000/svg" xmlns:xlink="http://www.w3.org/1999/xlink" xml:space="preserve" onload="init(evt)">
<style type="text/css"><![CDATA[
.edge:hover path { stroke: red; }
.edge:hover polygon { stroke: red; fill: red; }
]]></style>
<script type="text/javascript"><![CDATA[
var edges = document.getElementsByTagName('g');
if (edges && edges.length) {
  for (var i=0;i<edges.length;i++) {
    if (edges[i].id.substr(0,4)=='edge') {
      edges[i].setAttribute('class','edge');
    }
  }
}
]]></script>
        <defs>
                <circle id="rim" cx="0" cy="0" r="7"/>
                <circle id="rim2" cx="0" cy="0" r="3.5"/>
                <g id="zoomPlus">
                        <use xlink:href="#rim" fill="#404040">
                                <set attributeName="fill" to="#808080" begin="zoomplus.mouseover" end="zoomplus.mouseout"/>
                        </use>
                        <path d="M-4,0h8M0,-4v8" fill="none" stroke="white" stroke-width="1.5" pointer-events="none"/>
                </g>
                <g id="zoomMin">
                        <use xlink:href="#rim" fill="#404040">
                                <set attributeName="fill" to="#808080" begin="zoomminus.mouseover" end="zoomminus.mouseout"/>
                        </use>
                        <path d="M-4,0h8" fill="none" stroke="white" stroke-width="1.5" pointer-events="none"/>
                </g>
                <g id="dirArrow">
                        <path fill="none" stroke="white" stroke-width="1.5" d="M0,-3.0v7 M-2.5,-0.5L0,-3.0L2.5,-0.5"/>
                </g>
               <g id="resetDef">
                       <use xlink:href="#rim2" fill="#404040">
                               <set attributeName="fill" to="#808080" begin="reset.mouseover" end="reset.mouseout"/>
                       </use>
               </g>
        </defs>

<script type="text/javascript">
var viewWidth = 1613;
var viewHeight = 196;
var sectionId = 'dynsection-0';
</script>
<script xlink:href="../../svgpan.js"/>
<svg id="graph" class="graph">
<g id="viewport">
<title>sketch/infographicsview.h</title>
<polygon fill="#ffffff" stroke="transparent" points="-4,4 -4,-192 1608.8812,-192 1608.8812,4 -4,4"/>
<!-- Node0 -->
<g id="node1" class="node">
<title>Node0</title>
<g id="a_node1"><a xlink:title=" ">
<polygon fill="#bfbfbf" stroke="#000000" points="153,-168.5 153,-187.5 296,-187.5 296,-168.5 153,-168.5"/>
<text text-anchor="middle" x="224.5" y="-175.5" font-family="Helvetica,sans-Serif" font-size="10.00" fill="#000000">sketch/infographicsview.h</text>
</a>
</g>
</g>
<!-- Node1 -->
<g id="node2" class="node">
<title>Node1</title>
<g id="a_node2"><a xlink:title=" ">
<polygon fill="#ffffff" stroke="#bfbfbf" points="0,-56.5 0,-75.5 91,-75.5 91,-56.5 0,-56.5"/>
<text text-anchor="middle" x="45.5" y="-63.5" font-family="Helvetica,sans-Serif" font-size="10.00" fill="#000000">QGraphicsView</text>
</a>
</g>
</g>
<!-- Node0&#45;&gt;Node1 -->
<g id="edge1" class="edge">
<title>Node0&#45;&gt;Node1</title>
<path fill="none" stroke="#191970" d="M174.1565,-168.4989C147.6226,-161.6391 115.6631,-150.2756 91.5,-132 75.0275,-119.5412 62.2367,-99.4539 54.3705,-84.7081"/>
<polygon fill="#191970" stroke="#191970" points="57.3587,-82.861 49.7267,-75.5123 51.1103,-86.0164 57.3587,-82.861"/>
</g>
<!-- Node2 -->
<g id="node3" class="node">
<title>Node2</title>
<g id="a_node3"><a xlink:title=" ">
<polygon fill="#ffffff" stroke="#bfbfbf" points="123,-56.5 123,-75.5 174,-75.5 174,-56.5 123,-56.5"/>
<text text-anchor="middle" x="148.5" y="-63.5" font-family="Helvetica,sans-Serif" font-size="10.00" fill="#000000">QMenu</text>
</a>
</g>
</g>
<!-- Node0&#45;&gt;Node2 -->
<g id="edge2" class="edge">
<title>Node0&#45;&gt;Node2</title>
<path fill="none" stroke="#191970" d="M183.709,-168.4886C150.8827,-159.9113 108.6108,-146.4548 98.5,-132 86.1794,-114.386 105.3109,-94.831 123.3553,-81.612"/>
<polygon fill="#191970" stroke="#191970" points="125.7341,-84.2234 131.9835,-75.668 121.7629,-78.4589 125.7341,-84.2234"/>
</g>
<!-- Node3 -->
<g id="node4" class="node">
<title>Node3</title>
<g id="a_node4"><a xlink:title=" ">
<polygon fill="#ffffff" stroke="#bfbfbf" points="378,-.5 378,-19.5 427,-19.5 427,-.5 378,-.5"/>
<text text-anchor="middle" x="402.5" y="-7.5" font-family="Helvetica,sans-Serif" font-size="10.00" fill="#000000">QHash</text>
</a>
</g>
</g>
<!-- Node0&#45;&gt;Node3 -->
<g id="edge3" class="edge">
<title>Node0&#45;&gt;Node3</title>
<path fill="none" stroke="#191970" d="M234.5801,-168.4862C263.5704,-141.1246 347.4548,-61.9528 384.5238,-26.9663"/>
<polygon fill="#191970" stroke="#191970" points="387.2171,-29.2371 392.0871,-19.8279 382.4123,-24.1464 387.2171,-29.2371"/>
</g>
<!-- Node4 -->
<g id="node5" class="node">
<title>Node4</title>
<g id="a_node5"><a xlink:title=" ">
<polygon fill="#ffffff" stroke="#bfbfbf" points="275,-.5 275,-19.5 316,-19.5 316,-.5 275,-.5"/>
<text text-anchor="middle" x="295.5" y="-7.5" font-family="Helvetica,sans-Serif" font-size="10.00" fill="#000000">QList</text>
</a>
</g>
</g>
<!-- Node0&#45;&gt;Node4 -->
<g id="edge4" class="edge">
<title>Node0&#45;&gt;Node4</title>
<path fill="none" stroke="#191970" d="M231.6496,-168.1552C237.9973,-159.0934 247.2152,-145.11 253.5,-132 270.1268,-97.317 283.344,-54.276 290.2456,-29.6912"/>
<polygon fill="#191970" stroke="#191970" points="293.6913,-30.3602 292.9617,-19.7905 286.9407,-28.5082 293.6913,-30.3602"/>
</g>
<!-- Node5 -->
<g id="node6" class="node">
<title>Node5</title>
<g id="a_node6"><a xlink:href="../../d9/dbd/itembase_8h.html" target="_top" xlink:title=" ">
<polygon fill="#ffffff" stroke="#000000" points="941,-112.5 941,-131.5 1052,-131.5 1052,-112.5 941,-112.5"/>
<text text-anchor="middle" x="996.5" y="-119.5" font-family="Helvetica,sans-Serif" font-size="10.00" fill="#000000">../items/itembase.h</text>
</a>
</g>
</g>
<!-- Node0&#45;&gt;Node5 -->
<g id="edge5" class="edge">
<title>Node0&#45;&gt;Node5</title>
<path fill="none" stroke="#191970" d="M296.089,-172.807C445.2052,-161.9903 787.157,-137.1855 930.9228,-126.7569"/>
<polygon fill="#191970" stroke="#191970" points="931.2055,-130.2457 940.926,-126.0313 930.699,-123.264 931.2055,-130.2457"/>
</g>
<!-- Node30 -->
<g id="node31" class="node">
<title>Node30</title>
<g id="a_node31"><a xlink:href="../../dc/d67/zoomablegraphicsview_8h.html" target="_top" xlink:title=" ">
<polygon fill="#ffffff" stroke="#000000" points="108,-112.5 108,-131.5 245,-131.5 245,-112.5 108,-112.5"/>
<text text-anchor="middle" x="176.5" y="-119.5" font-family="Helvetica,sans-Serif" font-size="10.00" fill="#000000">zoomablegraphicsview.h</text>
</a>
</g>
</g>
<!-- Node0&#45;&gt;Node30 -->
<g id="edge40" class="edge">
<title>Node0&#45;&gt;Node30</title>
<path fill="none" stroke="#191970" d="M216.139,-168.2455C209.325,-160.2958 199.5319,-148.8706 191.3848,-139.3656"/>
<polygon fill="#191970" stroke="#191970" points="193.9305,-136.9575 184.7651,-131.6427 188.6157,-141.513 193.9305,-136.9575"/>
</g>
<!-- Node5&#45;&gt;Node3 -->
<g id="edge9" class="edge">
<title>Node5&#45;&gt;Node3</title>
<path fill="none" stroke="#191970" d="M940.9887,-121.0577C804.797,-118.2566 462.2981,-108.0691 422.5,-76 408.979,-65.1048 404.359,-45.3715 402.8942,-30.311"/>
<polygon fill="#191970" stroke="#191970" points="406.3654,-29.7101 402.294,-19.9288 399.3771,-30.1142 406.3654,-29.7101"/>
</g>
<!-- Node5&#45;&gt;Node4 -->
<g id="edge10" class="edge">
<title>Node5&#45;&gt;Node4</title>
<path fill="none" stroke="#191970" d="M940.9782,-120.9211C813.705,-117.9265 504.274,-107.5365 405.5,-76 371.1568,-65.0349 336.2639,-41.5478 315.2481,-25.7588"/>
<polygon fill="#191970" stroke="#191970" points="317.1948,-22.8407 307.133,-19.5223 312.9294,-28.391 317.1948,-22.8407"/>
</g>
<!-- Node6 -->
<g id="node7" class="node">
<title>Node6</title>
<g id="a_node7"><a xlink:title=" ">
<polygon fill="#ffffff" stroke="#bfbfbf" points="532,-56.5 532,-75.5 641,-75.5 641,-56.5 532,-56.5"/>
<text text-anchor="middle" x="586.5" y="-63.5" font-family="Helvetica,sans-Serif" font-size="10.00" fill="#000000">QXmlStreamWriter</text>
</a>
</g>
</g>
<!-- Node5&#45;&gt;Node6 -->
<g id="edge6" class="edge">
<title>Node5&#45;&gt;Node6</title>
<path fill="none" stroke="#191970" d="M940.7145,-114.9815C874.3533,-106.5433 759.9464,-91.7162 651.4434,-76.1104"/>
<polygon fill="#191970" stroke="#191970" points="651.6978,-72.611 641.3004,-74.6467 650.6979,-79.5392 651.6978,-72.611"/>
</g>
<!-- Node7 -->
<g id="node8" class="node">
<title>Node7</title>
<g id="a_node8"><a xlink:title=" ">
<polygon fill="#ffffff" stroke="#bfbfbf" points="1324,-.5 1324,-19.5 1379,-19.5 1379,-.5 1324,-.5"/>
<text text-anchor="middle" x="1351.5" y="-7.5" font-family="Helvetica,sans-Serif" font-size="10.00" fill="#000000">QPointF</text>
</a>
</g>
</g>
<!-- Node5&#45;&gt;Node7 -->
<g id="edge7" class="edge">
<title>Node5&#45;&gt;Node7</title>
<path fill="none" stroke="#191970" d="M1052.1825,-119.5851C1193.4626,-113.19 1555.9553,-94.9991 1573.5,-76 1615.358,-30.6721 1659.0479,-81.7718 1389.4649,-20.0891"/>
<polygon fill="#191970" stroke="#191970" points="1389.8572,-16.5878 1379.3263,-17.7503 1388.2836,-23.4086 1389.8572,-16.5878"/>
</g>
<!-- Node8 -->
<g id="node9" class="node">
<title>Node8</title>
<g id="a_node9"><a xlink:title=" ">
<polygon fill="#ffffff" stroke="#bfbfbf" points="659.5,-56.5 659.5,-75.5 703.5,-75.5 703.5,-56.5 659.5,-56.5"/>
<text text-anchor="middle" x="681.5" y="-63.5" font-family="Helvetica,sans-Serif" font-size="10.00" fill="#000000">QSize</text>
</a>
</g>
</g>
<!-- Node5&#45;&gt;Node8 -->
<g id="edge8" class="edge">
<title>Node5&#45;&gt;Node8</title>
<path fill="none" stroke="#191970" d="M940.997,-115.3449C883.6039,-107.9121 791.6144,-94.4557 713.5,-76 713.4009,-75.9766 713.3016,-75.953 713.2022,-75.9293"/>
<polygon fill="#191970" stroke="#191970" points="714.3329,-72.6089 703.7678,-73.4015 712.5212,-79.3704 714.3329,-72.6089"/>
</g>
<!-- Node9 -->
<g id="node10" class="node">
<title>Node9</title>
<g id="a_node10"><a xlink:title=" ">
<polygon fill="#ffffff" stroke="#bfbfbf" points="722,-56.5 722,-75.5 875,-75.5 875,-56.5 722,-56.5"/>
<text text-anchor="middle" x="798.5" y="-63.5" font-family="Helvetica,sans-Serif" font-size="10.00" fill="#000000">QGraphicsSceneHoverEvent</text>
</a>
</g>
</g>
<!-- Node5&#45;&gt;Node9 -->
<g id="edge11" class="edge">
<title>Node5&#45;&gt;Node9</title>
<path fill="none" stroke="#191970" d="M962.4626,-112.3733C929.1106,-102.9404 878.1473,-88.5265 841.8998,-78.2747"/>
<polygon fill="#191970" stroke="#191970" points="842.6684,-74.8548 832.0933,-75.5011 840.7632,-81.5906 842.6684,-74.8548"/>
</g>
<!-- Node10 -->
<g id="node11" class="node">
<title>Node10</title>
<g id="a_node11"><a xlink:title=" ">
<polygon fill="#ffffff" stroke="#bfbfbf" points="893,-56.5 893,-75.5 1000,-75.5 1000,-56.5 893,-56.5"/>
<text text-anchor="middle" x="946.5" y="-63.5" font-family="Helvetica,sans-Serif" font-size="10.00" fill="#000000">QGraphicsSvgItem</text>
</a>
</g>
</g>
<!-- Node5&#45;&gt;Node10 -->
<g id="edge12" class="edge">
<title>Node5&#45;&gt;Node10</title>
<path fill="none" stroke="#191970" d="M987.7907,-112.2455C980.6927,-104.2958 970.4916,-92.8706 962.005,-83.3656"/>
<polygon fill="#191970" stroke="#191970" points="964.3805,-80.771 955.1095,-75.6427 959.1589,-85.4331 964.3805,-80.771"/>
</g>
<!-- Node11 -->
<g id="node12" class="node">
<title>Node11</title>
<g id="a_node12"><a xlink:title=" ">
<polygon fill="#ffffff" stroke="#bfbfbf" points="1018,-56.5 1018,-75.5 1077,-75.5 1077,-56.5 1018,-56.5"/>
<text text-anchor="middle" x="1047.5" y="-63.5" font-family="Helvetica,sans-Serif" font-size="10.00" fill="#000000">QPointer</text>
</a>
</g>
</g>
<!-- Node5&#45;&gt;Node11 -->
<g id="edge13" class="edge">
<title>Node5&#45;&gt;Node11</title>
<path fill="none" stroke="#191970" d="M1005.3835,-112.2455C1012.6966,-104.2155 1023.2391,-92.6394 1031.9467,-83.0781"/>
<polygon fill="#191970" stroke="#191970" points="1034.5727,-85.3928 1038.7183,-75.6427 1029.3972,-80.6795 1034.5727,-85.3928"/>
</g>
<!-- Node12 -->
<g id="node13" class="node">
<title>Node12</title>
<g id="a_node13"><a xlink:title=" ">
<polygon fill="#ffffff" stroke="#bfbfbf" points="1317.5,-56.5 1317.5,-75.5 1355.5,-75.5 1355.5,-56.5 1317.5,-56.5"/>
<text text-anchor="middle" x="1336.5" y="-63.5" font-family="Helvetica,sans-Serif" font-size="10.00" fill="#000000">QUrl</text>
</a>
</g>
</g>
<!-- Node5&#45;&gt;Node12 -->
<g id="edge14" class="edge">
<title>Node5&#45;&gt;Node12</title>
<path fill="none" stroke="#191970" d="M1052.0915,-117.1342C1112.9058,-111.0709 1213.2474,-98.896 1307.6679,-75.8085"/>
<polygon fill="#191970" stroke="#191970" points="1308.5158,-79.2044 1317.3733,-73.391 1306.8238,-72.4119 1308.5158,-79.2044"/>
</g>
<!-- Node13 -->
<g id="node14" class="node">
<title>Node13</title>
<g id="a_node14"><a xlink:title=" ">
<polygon fill="#ffffff" stroke="#bfbfbf" points="1374,-56.5 1374,-75.5 1419,-75.5 1419,-56.5 1374,-56.5"/>
<text text-anchor="middle" x="1396.5" y="-63.5" font-family="Helvetica,sans-Serif" font-size="10.00" fill="#000000">QMap</text>
</a>
</g>
</g>
<!-- Node5&#45;&gt;Node13 -->
<g id="edge15" class="edge">
<title>Node5&#45;&gt;Node13</title>
<path fill="none" stroke="#191970" d="M1052.1957,-118.1505C1122.6754,-112.5916 1247.8301,-100.431 1363.7937,-75.7944"/>
<polygon fill="#191970" stroke="#191970" points="1364.8733,-79.1419 1373.9082,-73.6083 1363.3944,-72.2999 1364.8733,-79.1419"/>
</g>
<!-- Node14 -->
<g id="node15" class="node">
<title>Node14</title>
<g id="a_node15"><a xlink:title=" ">
<polygon fill="#ffffff" stroke="#bfbfbf" points="1437,-56.5 1437,-75.5 1490,-75.5 1490,-56.5 1437,-56.5"/>
<text text-anchor="middle" x="1463.5" y="-63.5" font-family="Helvetica,sans-Serif" font-size="10.00" fill="#000000">QTimer</text>
</a>
</g>
</g>
<!-- Node5&#45;&gt;Node14 -->
<g id="edge16" class="edge">
<title>Node5&#45;&gt;Node14</title>
<path fill="none" stroke="#191970" d="M1052.1914,-119.1423C1132.9758,-114.3223 1287.411,-102.5721 1426.8494,-76.0573"/>
<polygon fill="#191970" stroke="#191970" points="1427.7074,-79.4563 1436.8618,-74.1226 1426.3794,-72.5834 1427.7074,-79.4563"/>
</g>
<!-- Node15 -->
<g id="node16" class="node">
<title>Node15</title>
<g id="a_node16"><a xlink:title=" ">
<polygon fill="#ffffff" stroke="#bfbfbf" points="1508.5,-56.5 1508.5,-75.5 1564.5,-75.5 1564.5,-56.5 1508.5,-56.5"/>
<text text-anchor="middle" x="1536.5" y="-63.5" font-family="Helvetica,sans-Serif" font-size="10.00" fill="#000000">QCursor</text>
</a>
</g>
</g>
<!-- Node5&#45;&gt;Node15 -->
<g id="edge17" class="edge">
<title>Node5&#45;&gt;Node15</title>
<path fill="none" stroke="#191970" d="M1052.372,-120.0416C1143.8343,-116.1475 1331.2399,-105.2865 1498.3694,-75.9279"/>
<polygon fill="#191970" stroke="#191970" points="1499.1019,-79.3525 1508.3322,-74.1513 1497.873,-72.4613 1499.1019,-79.3525"/>
</g>
<!-- Node16 -->
<g id="node17" class="node">
<title>Node16</title>
<g id="a_node17"><a xlink:href="../../db/d39/viewgeometry_8h.html" target="_top" xlink:title=" ">
<polygon fill="#ffffff" stroke="#000000" points="1095.5,-56.5 1095.5,-75.5 1199.5,-75.5 1199.5,-56.5 1095.5,-56.5"/>
<text text-anchor="middle" x="1147.5" y="-63.5" font-family="Helvetica,sans-Serif" font-size="10.00" fill="#000000">../viewgeometry.h</text>
</a>
</g>
</g>
<!-- Node5&#45;&gt;Node16 -->
<g id="edge18" class="edge">
<title>Node5&#45;&gt;Node16</title>
<path fill="none" stroke="#191970" d="M1022.4578,-112.3733C1047.2407,-103.1822 1084.7746,-89.2624 1112.254,-79.0713"/>
<polygon fill="#191970" stroke="#191970" points="1113.7219,-82.26 1121.8809,-75.5011 1111.2879,-75.6968 1113.7219,-82.26"/>
</g>
<!-- Node21 -->
<g id="node22" class="node">
<title>Node21</title>
<g id="a_node22"><a xlink:href="../../da/d85/viewlayer_8h.html" target="_top" xlink:title=" ">
<polygon fill="#ffffff" stroke="#000000" points="431.5,-56.5 431.5,-75.5 513.5,-75.5 513.5,-56.5 431.5,-56.5"/>
<text text-anchor="middle" x="472.5" y="-63.5" font-family="Helvetica,sans-Serif" font-size="10.00" fill="#000000">../viewlayer.h</text>
</a>
</g>
</g>
<!-- Node5&#45;&gt;Node21 -->
<g id="edge24" class="edge">
<title>Node5&#45;&gt;Node21</title>
<path fill="none" stroke="#191970" d="M940.9465,-118.3462C854.2496,-112.26 681.3449,-98.5824 523.9791,-75.9258"/>
<polygon fill="#191970" stroke="#191970" points="524.0371,-72.3975 513.6372,-74.4205 523.0288,-79.3245 524.0371,-72.3975"/>
</g>
<!-- Node25 -->
<g id="node26" class="node">
<title>Node25</title>
<g id="a_node26"><a xlink:href="../../d4/d08/misc_8h.html" target="_top" xlink:title=" ">
<polygon fill="#ffffff" stroke="#000000" points="1217.5,-56.5 1217.5,-75.5 1299.5,-75.5 1299.5,-56.5 1217.5,-56.5"/>
<text text-anchor="middle" x="1258.5" y="-63.5" font-family="Helvetica,sans-Serif" font-size="10.00" fill="#000000">../utils/misc.h</text>
</a>
</g>
</g>
<!-- Node5&#45;&gt;Node25 -->
<g id="edge30" class="edge">
<title>Node5&#45;&gt;Node25</title>
<path fill="none" stroke="#191970" d="M1041.2417,-112.4369C1087.361,-102.5793 1159.157,-87.2336 1207.4615,-76.909"/>
<polygon fill="#191970" stroke="#191970" points="1208.3473,-80.2988 1217.3948,-74.7858 1206.8841,-73.4534 1208.3473,-80.2988"/>
</g>
<!-- Node16&#45;&gt;Node7 -->
<g id="edge19" class="edge">
<title>Node16&#45;&gt;Node7</title>
<path fill="none" stroke="#191970" d="M1182.583,-56.4344C1214.5191,-47.7178 1263.2365,-34.3987 1314.1235,-20.3736"/>
<polygon fill="#191970" stroke="#191970" points="1315.2758,-23.6866 1323.9855,-17.6541 1313.4149,-16.9385 1315.2758,-23.6866"/>
</g>
<!-- Node17 -->
<g id="node18" class="node">
<title>Node17</title>
<g id="a_node18"><a xlink:title=" ">
<polygon fill="#ffffff" stroke="#bfbfbf" points="853.5,-.5 853.5,-19.5 941.5,-19.5 941.5,-.5 853.5,-.5"/>
<text text-anchor="middle" x="897.5" y="-7.5" font-family="Helvetica,sans-Serif" font-size="10.00" fill="#000000">QDomElement</text>
</a>
</g>
</g>
<!-- Node16&#45;&gt;Node17 -->
<g id="edge20" class="edge">
<title>Node16&#45;&gt;Node17</title>
<path fill="none" stroke="#191970" d="M1104.8075,-56.4369C1061.9321,-46.8328 995.7995,-32.0191 949.7998,-21.7152"/>
<polygon fill="#191970" stroke="#191970" points="950.5396,-18.2942 940.0164,-19.5237 949.0095,-25.1249 950.5396,-18.2942"/>
</g>
<!-- Node18 -->
<g id="node19" class="node">
<title>Node18</title>
<g id="a_node19"><a xlink:title=" ">
<polygon fill="#ffffff" stroke="#bfbfbf" points="1122.5,-.5 1122.5,-19.5 1172.5,-19.5 1172.5,-.5 1122.5,-.5"/>
<text text-anchor="middle" x="1147.5" y="-7.5" font-family="Helvetica,sans-Serif" font-size="10.00" fill="#000000">QLineF</text>
</a>
</g>
</g>
<!-- Node16&#45;&gt;Node18 -->
<g id="edge21" class="edge">
<title>Node16&#45;&gt;Node18</title>
<path fill="none" stroke="#191970" d="M1147.5,-56.2455C1147.5,-48.9382 1147.5,-38.6944 1147.5,-29.7046"/>
<polygon fill="#191970" stroke="#191970" points="1151.0001,-29.6426 1147.5,-19.6427 1144.0001,-29.6427 1151.0001,-29.6426"/>
</g>
<!-- Node19 -->
<g id="node20" class="node">
<title>Node19</title>
<g id="a_node20"><a xlink:title=" ">
<polygon fill="#ffffff" stroke="#bfbfbf" points="783.5,-.5 783.5,-19.5 835.5,-19.5 835.5,-.5 783.5,-.5"/>
<text text-anchor="middle" x="809.5" y="-7.5" font-family="Helvetica,sans-Serif" font-size="10.00" fill="#000000">QRectF</text>
</a>
</g>
</g>
<!-- Node16&#45;&gt;Node19 -->
<g id="edge22" class="edge">
<title>Node16&#45;&gt;Node19</title>
<path fill="none" stroke="#191970" d="M1095.2647,-57.3846C1092.3002,-56.912 1089.3628,-56.4476 1086.5,-56 982.2134,-39.696 952.5072,-42.7816 845.6685,-20.038"/>
<polygon fill="#191970" stroke="#191970" points="846.293,-16.5923 835.7801,-17.9069 844.8182,-23.4352 846.293,-16.5923"/>
</g>
<!-- Node20 -->
<g id="node21" class="node">
<title>Node20</title>
<g id="a_node21"><a xlink:title=" ">
<polygon fill="#ffffff" stroke="#bfbfbf" points="960,-.5 960,-19.5 1033,-19.5 1033,-.5 960,-.5"/>
<text text-anchor="middle" x="996.5" y="-7.5" font-family="Helvetica,sans-Serif" font-size="10.00" fill="#000000">QTransform</text>
</a>
</g>
</g>
<!-- Node16&#45;&gt;Node20 -->
<g id="edge23" class="edge">
<title>Node16&#45;&gt;Node20</title>
<path fill="none" stroke="#191970" d="M1121.5422,-56.3733C1096.7593,-47.1822 1059.2254,-33.2624 1031.746,-23.0713"/>
<polygon fill="#191970" stroke="#191970" points="1032.7121,-19.6968 1022.1191,-19.5011 1030.2781,-26.26 1032.7121,-19.6968"/>
</g>
<!-- Node21&#45;&gt;Node3 -->
<g id="edge27" class="edge">
<title>Node21&#45;&gt;Node3</title>
<path fill="none" stroke="#191970" d="M460.3069,-56.2455C449.8679,-47.8943 434.6345,-35.7076 422.426,-25.9408"/>
<polygon fill="#191970" stroke="#191970" points="424.5485,-23.1566 414.5533,-19.6427 420.1756,-28.6227 424.5485,-23.1566"/>
</g>
<!-- Node21&#45;&gt;Node17 -->
<g id="edge29" class="edge">
<title>Node21&#45;&gt;Node17</title>
<path fill="none" stroke="#191970" d="M513.6451,-57.632C516.9735,-57.0467 520.2896,-56.4939 523.5,-56 662.2046,-34.6604 700.8102,-41.0169 843.3062,-20.0833"/>
<polygon fill="#191970" stroke="#191970" points="843.9199,-23.5306 853.2956,-18.5964 842.8893,-16.6069 843.9199,-23.5306"/>
</g>
<!-- Node22 -->
<g id="node23" class="node">
<title>Node22</title>
<g id="a_node23"><a xlink:title=" ">
<polygon fill="#ffffff" stroke="#bfbfbf" points="1051,-.5 1051,-19.5 1104,-19.5 1104,-.5 1051,-.5"/>
<text text-anchor="middle" x="1077.5" y="-7.5" font-family="Helvetica,sans-Serif" font-size="10.00" fill="#000000">QString</text>
</a>
</g>
</g>
<!-- Node21&#45;&gt;Node22 -->
<g id="edge25" class="edge">
<title>Node21&#45;&gt;Node22</title>
<path fill="none" stroke="#191970" d="M513.6235,-57.4808C516.9568,-56.9294 520.2798,-56.4257 523.5,-56 749.4806,-26.1254 812.9712,-59.0209 1040.9542,-19.9545"/>
<polygon fill="#191970" stroke="#191970" points="1041.6295,-23.3897 1050.881,-18.2262 1040.4288,-16.4934 1041.6295,-23.3897"/>
</g>
<!-- Node23 -->
<g id="node24" class="node">
<title>Node23</title>
<g id="a_node24"><a xlink:title=" ">
<polygon fill="#ffffff" stroke="#bfbfbf" points="445,-.5 445,-19.5 500,-19.5 500,-.5 445,-.5"/>
<text text-anchor="middle" x="472.5" y="-7.5" font-family="Helvetica,sans-Serif" font-size="10.00" fill="#000000">QAction</text>
</a>
</g>
</g>
<!-- Node21&#45;&gt;Node23 -->
<g id="edge26" class="edge">
<title>Node21&#45;&gt;Node23</title>
<path fill="none" stroke="#191970" d="M472.5,-56.2455C472.5,-48.9382 472.5,-38.6944 472.5,-29.7046"/>
<polygon fill="#191970" stroke="#191970" points="476.0001,-29.6426 472.5,-19.6427 469.0001,-29.6427 476.0001,-29.6426"/>
</g>
<!-- Node24 -->
<g id="node25" class="node">
<title>Node24</title>
<g id="a_node25"><a xlink:title=" ">
<polygon fill="#ffffff" stroke="#bfbfbf" points="518.5,-.5 518.5,-19.5 592.5,-19.5 592.5,-.5 518.5,-.5"/>
<text text-anchor="middle" x="555.5" y="-7.5" font-family="Helvetica,sans-Serif" font-size="10.00" fill="#000000">QMultiHash</text>
</a>
</g>
</g>
<!-- Node21&#45;&gt;Node24 -->
<g id="edge28" class="edge">
<title>Node21&#45;&gt;Node24</title>
<path fill="none" stroke="#191970" d="M486.9575,-56.2455C499.5732,-47.7337 518.0944,-35.2375 532.7045,-25.3801"/>
<polygon fill="#191970" stroke="#191970" points="534.8761,-28.1371 541.2082,-19.6427 530.9609,-22.3343 534.8761,-28.1371"/>
</g>
<!-- Node25&#45;&gt;Node3 -->
<g id="edge31" class="edge">
<title>Node25&#45;&gt;Node3</title>
<path fill="none" stroke="#191970" d="M1217.379,-57.2649C1214.3825,-56.7855 1211.3996,-56.3555 1208.5,-56 870.8151,-14.5979 777.0245,-75.683 437.094,-19.6634"/>
<polygon fill="#191970" stroke="#191970" points="437.6619,-16.2099 427.222,-18.0152 436.5091,-23.1143 437.6619,-16.2099"/>
</g>
<!-- Node25&#45;&gt;Node4 -->
<g id="edge38" class="edge">
<title>Node25&#45;&gt;Node4</title>
<path fill="none" stroke="#191970" d="M1217.3805,-57.2525C1214.3836,-56.776 1211.4003,-56.35 1208.5,-56 837.5163,-11.2244 740.6809,-53.3938 368.5,-20 354.6643,-18.7586 339.431,-16.771 326.4754,-14.8936"/>
<polygon fill="#191970" stroke="#191970" points="326.6162,-11.3759 316.209,-13.3613 325.5828,-18.2992 326.6162,-11.3759"/>
</g>
<!-- Node25&#45;&gt;Node7 -->
<g id="edge39" class="edge">
<title>Node25&#45;&gt;Node7</title>
<path fill="none" stroke="#191970" d="M1274.6994,-56.2455C1289.1018,-47.5731 1310.3732,-34.7645 1326.8799,-24.825"/>
<polygon fill="#191970" stroke="#191970" points="1328.725,-27.7996 1335.4863,-19.6427 1325.114,-21.8028 1328.725,-27.7996"/>
</g>
<!-- Node25&#45;&gt;Node17 -->
<g id="edge35" class="edge">
<title>Node25&#45;&gt;Node17</title>
<path fill="none" stroke="#191970" d="M1217.3345,-57.5695C1214.3484,-57.0186 1211.38,-56.4893 1208.5,-56 1097.9011,-37.2103 1067.0167,-38.4214 951.6136,-19.9497"/>
<polygon fill="#191970" stroke="#191970" points="952.1071,-16.4841 941.6768,-18.3443 950.9906,-23.3945 952.1071,-16.4841"/>
</g>
<!-- Node25&#45;&gt;Node22 -->
<g id="edge33" class="edge">
<title>Node25&#45;&gt;Node22</title>
<path fill="none" stroke="#191970" d="M1227.385,-56.3733C1195.8748,-46.6242 1147.168,-31.5547 1113.8884,-21.2583"/>
<polygon fill="#191970" stroke="#191970" points="1114.6794,-17.8394 1104.0917,-18.2273 1112.6104,-24.5267 1114.6794,-17.8394"/>
</g>
<!-- Node26 -->
<g id="node27" class="node">
<title>Node26</title>
<g id="a_node27"><a xlink:title=" ">
<polygon fill="#ffffff" stroke="#bfbfbf" points="1251,-.5 1251,-19.5 1306,-19.5 1306,-.5 1251,-.5"/>
<text text-anchor="middle" x="1278.5" y="-7.5" font-family="Helvetica,sans-Serif" font-size="10.00" fill="#000000">QVector</text>
</a>
</g>
</g>
<!-- Node25&#45;&gt;Node26 -->
<g id="edge32" class="edge">
<title>Node25&#45;&gt;Node26</title>
<path fill="none" stroke="#191970" d="M1261.9837,-56.2455C1264.6508,-48.7776 1268.4133,-38.2427 1271.6737,-29.1137"/>
<polygon fill="#191970" stroke="#191970" points="1274.9889,-30.2373 1275.0562,-19.6427 1268.3967,-27.8829 1274.9889,-30.2373"/>
</g>
<!-- Node27 -->
<g id="node28" class="node">
<title>Node27</title>
<g id="a_node28"><a xlink:title=" ">
<polygon fill="#ffffff" stroke="#bfbfbf" points="1397.5,-.5 1397.5,-19.5 1435.5,-19.5 1435.5,-.5 1397.5,-.5"/>
<text text-anchor="middle" x="1416.5" y="-7.5" font-family="Helvetica,sans-Serif" font-size="10.00" fill="#000000">QDir</text>
</a>
</g>
</g>
<!-- Node25&#45;&gt;Node27 -->
<g id="edge34" class="edge">
<title>Node25&#45;&gt;Node27</title>
<path fill="none" stroke="#191970" d="M1285.6478,-56.4199C1310.0521,-47.8022 1347.1199,-34.6987 1387.6844,-20.2839"/>
<polygon fill="#191970" stroke="#191970" points="1388.973,-23.5405 1397.223,-16.893 1386.6283,-16.9448 1388.973,-23.5405"/>
</g>
<!-- Node28 -->
<g id="node29" class="node">
<title>Node28</title>
<g id="a_node29"><a xlink:title=" ">
<polygon fill="#ffffff" stroke="#bfbfbf" points="1453.5,-.5 1453.5,-19.5 1523.5,-19.5 1523.5,-.5 1453.5,-.5"/>
<text text-anchor="middle" x="1488.5" y="-7.5" font-family="Helvetica,sans-Serif" font-size="10.00" fill="#000000">QStringList</text>
</a>
</g>
</g>
<!-- Node25&#45;&gt;Node28 -->
<g id="edge36" class="edge">
<title>Node25&#45;&gt;Node28</title>
<path fill="none" stroke="#191970" d="M1297.7771,-56.4369C1338.1622,-46.604 1400.9755,-31.3103 1443.3767,-20.9865"/>
<polygon fill="#191970" stroke="#191970" points="1444.2707,-24.3712 1453.1588,-18.6048 1442.6146,-17.5699 1444.2707,-24.3712"/>
</g>
<!-- Node29 -->
<g id="node30" class="node">
<title>Node29</title>
<g id="a_node30"><a xlink:title=" ">
<polygon fill="#ffffff" stroke="#bfbfbf" points="1190.5,-.5 1190.5,-19.5 1232.5,-19.5 1232.5,-.5 1190.5,-.5"/>
<text text-anchor="middle" x="1211.5" y="-7.5" font-family="Helvetica,sans-Serif" font-size="10.00" fill="#000000">QPair</text>
</a>
</g>
</g>
<!-- Node25&#45;&gt;Node29 -->
<g id="edge37" class="edge">
<title>Node25&#45;&gt;Node29</title>
<path fill="none" stroke="#191970" d="M1250.3132,-56.2455C1243.6411,-48.2958 1234.0521,-36.8706 1226.0747,-27.3656"/>
<polygon fill="#191970" stroke="#191970" points="1228.7026,-25.0524 1219.593,-19.6427 1223.3408,-29.5525 1228.7026,-25.0524"/>
</g>
<!-- Node30&#45;&gt;Node1 -->
<g id="edge41" class="edge">
<title>Node30&#45;&gt;Node1</title>
<path fill="none" stroke="#191970" d="M153.9803,-112.3733C132.7628,-103.3032 100.7724,-89.6279 77.0231,-79.4755"/>
<polygon fill="#191970" stroke="#191970" points="78.2967,-76.2136 67.7258,-75.5011 75.5452,-82.6502 78.2967,-76.2136"/>
</g>
<!-- Node30&#45;&gt;Node2 -->
<g id="edge42" class="edge">
<title>Node30&#45;&gt;Node2</title>
<path fill="none" stroke="#191970" d="M171.6228,-112.2455C167.8487,-104.6973 162.5079,-94.0158 157.9099,-84.8197"/>
<polygon fill="#191970" stroke="#191970" points="160.924,-83.0217 153.3213,-75.6427 154.663,-86.1522 160.924,-83.0217"/>
</g>
<!-- Node30&#45;&gt;Node3 -->
<g id="edge43" class="edge">
<title>Node30&#45;&gt;Node3</title>
<path fill="none" stroke="#191970" d="M195.7686,-112.4509C235.631,-92.6961 327.3216,-47.2565 374.0305,-24.1088"/>
<polygon fill="#191970" stroke="#191970" points="375.8742,-27.1014 383.2801,-19.5249 372.7659,-20.8293 375.8742,-27.1014"/>
</g>
<!-- Node30&#45;&gt;Node4 -->
<g id="edge44" class="edge">
<title>Node30&#45;&gt;Node4</title>
<path fill="none" stroke="#191970" d="M184.7484,-112.1624C196.0823,-98.8646 217.3629,-74.6709 237.5,-56 249.0654,-45.2767 262.8707,-34.2637 274.1108,-25.7028"/>
<polygon fill="#191970" stroke="#191970" points="276.2345,-28.4851 282.1265,-19.6797 272.0294,-22.8889 276.2345,-28.4851"/>
</g>
</g>
</svg>
        <g id="navigator" transform="translate(0 0)" fill="#404254">
                <rect fill="#f2f5e9" fill-opacity="0.5" stroke="#606060" stroke-width=".5" x="0" y="0" width="60" height="60"/>
                <use id="zoomplus" xlink:href="#zoomPlus" x="17" y="9" onmousedown="handleZoom(evt,'in')"/>
                <use id="zoomminus" xlink:href="#zoomMin" x="42" y="9" onmousedown="handleZoom(evt,'out')"/>
                <use id="reset" xlink:href="#resetDef" x="30" y="36" onmousedown="handleReset()"/>
                <g id="arrowUp" xlink:href="#dirArrow" transform="translate(30 24)" onmousedown="handlePan(0,-1)">
                  <use xlink:href="#rim" fill="#404040">
                        <set attributeName="fill" to="#808080" begin="arrowUp.mouseover" end="arrowUp.mouseout"/>
                  </use>
                  <path fill="none" stroke="white" stroke-width="1.5" d="M0,-3.0v7 M-2.5,-0.5L0,-3.0L2.5,-0.5"/>
                </g>
                <g id="arrowRight" xlink:href="#dirArrow" transform="rotate(90) translate(36 -43)" onmousedown="handlePan(1,0)">
                  <use xlink:href="#rim" fill="#404040">
                        <set attributeName="fill" to="#808080" begin="arrowRight.mouseover" end="arrowRight.mouseout"/>
                  </use>
                  <path fill="none" stroke="white" stroke-width="1.5" d="M0,-3.0v7 M-2.5,-0.5L0,-3.0L2.5,-0.5"/>
                </g>
                <g id="arrowDown" xlink:href="#dirArrow" transform="rotate(180) translate(-30 -48)" onmousedown="handlePan(0,1)">
                  <use xlink:href="#rim" fill="#404040">
                        <set attributeName="fill" to="#808080" begin="arrowDown.mouseover" end="arrowDown.mouseout"/>
                  </use>
                  <path fill="none" stroke="white" stroke-width="1.5" d="M0,-3.0v7 M-2.5,-0.5L0,-3.0L2.5,-0.5"/>
                </g>
                <g id="arrowLeft" xlink:href="#dirArrow" transform="rotate(270) translate(-36 17)" onmousedown="handlePan(-1,0)">
                  <use xlink:href="#rim" fill="#404040">
                        <set attributeName="fill" to="#808080" begin="arrowLeft.mouseover" end="arrowLeft.mouseout"/>
                  </use>
                  <path fill="none" stroke="white" stroke-width="1.5" d="M0,-3.0v7 M-2.5,-0.5L0,-3.0L2.5,-0.5"/>
                </g>
        </g>
        <svg viewBox="0 0 15 15" width="100%" height="30px" preserveAspectRatio="xMaxYMin meet">
         <g id="arrow_out" transform="scale(0.3 0.3)">
          <a xlink:href="infographicsview_8h__incl_org.svg" target="_base">
           <rect id="button" ry="5" rx="5" y="6" x="6" height="38" width="38"
                fill="#f2f5e9" fill-opacity="0.5" stroke="#606060" stroke-width="1.0"/>
           <path id="arrow"
             d="M 11.500037,31.436501 C 11.940474,20.09759 22.043105,11.32322 32.158766,21.979434 L 37.068811,17.246167 C 37.068811,17.246167 37.088388,32 37.088388,32 L 22.160133,31.978069 C 22.160133,31.978069 26.997745,27.140456 26.997745,27.140456 C 18.528582,18.264221 13.291696,25.230495 11.500037,31.436501 z"
             style="fill:#404040;"/>
          </a>
         </g>
        </svg>
</svg>
