<?xml version="1.0" encoding="UTF-8" standalone="no"?>
<!DOCTYPE svg PUBLIC "-//W3C//DTD SVG 1.1//EN"
 "http://www.w3.org/Graphics/SVG/1.1/DTD/svg11.dtd">
<!-- Generated by graphviz version 2.40.1 (0)
 -->
<!-- Title: partseditor/pegraphicsitem.h Pages: 1 -->
<svg width="683pt" height="84pt"
 viewBox="0.00 0.00 682.50 84.00" xmlns="http://www.w3.org/2000/svg" xmlns:xlink="http://www.w3.org/1999/xlink">
<g id="graph0" class="graph" transform="scale(1 1) rotate(0) translate(4 80)">
<title>partseditor/pegraphicsitem.h</title>
<polygon fill="#ffffff" stroke="transparent" points="-4,4 -4,-80 678.5,-80 678.5,4 -4,4"/>
<!-- Node0 -->
<g id="node1" class="node">
<title>Node0</title>
<g id="a_node1"><a xlink:title=" ">
<polygon fill="#bfbfbf" stroke="#000000" points="354.5,-56.5 354.5,-75.5 512.5,-75.5 512.5,-56.5 354.5,-56.5"/>
<text text-anchor="middle" x="433.5" y="-63.5" font-family="Helvetica,sans-Serif" font-size="10.00" fill="#000000">partseditor/pegraphicsitem.h</text>
</a>
</g>
</g>
<!-- Node1 -->
<g id="node2" class="node">
<title>Node1</title>
<g id="a_node2"><a xlink:title=" ">
<polygon fill="#ffffff" stroke="#bfbfbf" points="0,-.5 0,-19.5 111,-19.5 111,-.5 0,-.5"/>
<text text-anchor="middle" x="55.5" y="-7.5" font-family="Helvetica,sans-Serif" font-size="10.00" fill="#000000">QGraphicsRectItem</text>
</a>
</g>
</g>
<!-- Node0&#45;&gt;Node1 -->
<g id="edge1" class="edge">
<title>Node0&#45;&gt;Node1</title>
<path fill="none" stroke="#191970" d="M367.8354,-56.4807C306.7163,-47.5905 212.7953,-33.8531 121.1703,-20.0931"/>
<polygon fill="#191970" stroke="#191970" points="121.5747,-16.6146 111.1655,-18.5891 120.534,-23.5369 121.5747,-16.6146"/>
</g>
<!-- Node2 -->
<g id="node3" class="node">
<title>Node2</title>
<g id="a_node3"><a xlink:title=" ">
<polygon fill="#ffffff" stroke="#bfbfbf" points="129.5,-.5 129.5,-19.5 217.5,-19.5 217.5,-.5 129.5,-.5"/>
<text text-anchor="middle" x="173.5" y="-7.5" font-family="Helvetica,sans-Serif" font-size="10.00" fill="#000000">QDomElement</text>
</a>
</g>
</g>
<!-- Node0&#45;&gt;Node2 -->
<g id="edge2" class="edge">
<title>Node0&#45;&gt;Node2</title>
<path fill="none" stroke="#191970" d="M389.0998,-56.4369C344.4159,-46.8127 275.443,-31.957 227.5912,-21.6504"/>
<polygon fill="#191970" stroke="#191970" points="228.2298,-18.2078 217.717,-19.5237 226.7559,-25.0508 228.2298,-18.2078"/>
</g>
<!-- Node3 -->
<g id="node4" class="node">
<title>Node3</title>
<g id="a_node4"><a xlink:title=" ">
<polygon fill="#ffffff" stroke="#bfbfbf" points="236,-.5 236,-19.5 389,-19.5 389,-.5 236,-.5"/>
<text text-anchor="middle" x="312.5" y="-7.5" font-family="Helvetica,sans-Serif" font-size="10.00" fill="#000000">QGraphicsSceneHoverEvent</text>
</a>
</g>
</g>
<!-- Node0&#45;&gt;Node3 -->
<g id="edge3" class="edge">
<title>Node0&#45;&gt;Node3</title>
<path fill="none" stroke="#191970" d="M412.6994,-56.3733C393.2757,-47.3838 364.0776,-33.8706 342.2036,-23.7471"/>
<polygon fill="#191970" stroke="#191970" points="343.5745,-20.5249 333.0292,-19.5011 340.6344,-26.8776 343.5745,-20.5249"/>
</g>
<!-- Node4 -->
<g id="node5" class="node">
<title>Node4</title>
<g id="a_node5"><a xlink:title=" ">
<polygon fill="#ffffff" stroke="#bfbfbf" points="407,-.5 407,-19.5 460,-19.5 460,-.5 407,-.5"/>
<text text-anchor="middle" x="433.5" y="-7.5" font-family="Helvetica,sans-Serif" font-size="10.00" fill="#000000">QTimer</text>
</a>
</g>
</g>
<!-- Node0&#45;&gt;Node4 -->
<g id="edge4" class="edge">
<title>Node0&#45;&gt;Node4</title>
<path fill="none" stroke="#191970" d="M433.5,-56.2455C433.5,-48.9382 433.5,-38.6944 433.5,-29.7046"/>
<polygon fill="#191970" stroke="#191970" points="437.0001,-29.6426 433.5,-19.6427 430.0001,-29.6427 437.0001,-29.6426"/>
</g>
<!-- Node5 -->
<g id="node6" class="node">
<title>Node5</title>
<g id="a_node6"><a xlink:title=" ">
<polygon fill="#ffffff" stroke="#bfbfbf" points="478,-.5 478,-19.5 537,-19.5 537,-.5 478,-.5"/>
<text text-anchor="middle" x="507.5" y="-7.5" font-family="Helvetica,sans-Serif" font-size="10.00" fill="#000000">QPointer</text>
</a>
</g>
</g>
<!-- Node0&#45;&gt;Node5 -->
<g id="edge5" class="edge">
<title>Node0&#45;&gt;Node5</title>
<path fill="none" stroke="#191970" d="M446.3898,-56.2455C457.4254,-47.8943 473.5292,-35.7076 486.4353,-25.9408"/>
<polygon fill="#191970" stroke="#191970" points="488.8959,-28.4681 494.7579,-19.6427 484.6717,-22.8862 488.8959,-28.4681"/>
</g>
<!-- Node6 -->
<g id="node7" class="node">
<title>Node6</title>
<g id="a_node7"><a xlink:title=" ">
<polygon fill="#ffffff" stroke="#bfbfbf" points="555,-.5 555,-19.5 604,-19.5 604,-.5 555,-.5"/>
<text text-anchor="middle" x="579.5" y="-7.5" font-family="Helvetica,sans-Serif" font-size="10.00" fill="#000000">QTime</text>
</a>
</g>
</g>
<!-- Node0&#45;&gt;Node6 -->
<g id="edge6" class="edge">
<title>Node0&#45;&gt;Node6</title>
<path fill="none" stroke="#191970" d="M458.5983,-56.3733C482.4555,-47.2226 518.5335,-33.3844 545.071,-23.2057"/>
<polygon fill="#191970" stroke="#191970" points="546.6459,-26.3503 554.7292,-19.5011 544.139,-19.8145 546.6459,-26.3503"/>
</g>
<!-- Node7 -->
<g id="node8" class="node">
<title>Node7</title>
<g id="a_node8"><a xlink:title=" ">
<polygon fill="#ffffff" stroke="#bfbfbf" points="622.5,-.5 622.5,-19.5 674.5,-19.5 674.5,-.5 622.5,-.5"/>
<text text-anchor="middle" x="648.5" y="-7.5" font-family="Helvetica,sans-Serif" font-size="10.00" fill="#000000">QBrush</text>
</a>
</g>
</g>
<!-- Node0&#45;&gt;Node7 -->
<g id="edge7" class="edge">
<title>Node0&#45;&gt;Node7</title>
<path fill="none" stroke="#191970" d="M472.2061,-56.4424C506.6459,-47.8638 558.6248,-34.7349 612.4391,-20.2397"/>
<polygon fill="#191970" stroke="#191970" points="613.4089,-23.6033 622.1488,-17.6147 611.5819,-16.8458 613.4089,-23.6033"/>
</g>
</g>
</svg>
