<?xml version="1.0" encoding="UTF-8" standalone="no"?>
<!DOCTYPE svg PUBLIC "-//W3C//DTD SVG 1.1//EN"
 "http://www.w3.org/Graphics/SVG/1.1/DTD/svg11.dtd">
<!-- Generated by graphviz version 2.40.1 (0)
 -->
<!-- Title: HashRemoveButton Pages: 1 -->
<svg width="141pt" height="353pt"
 viewBox="0.00 0.00 141.00 353.00" xmlns="http://www.w3.org/2000/svg" xmlns:xlink="http://www.w3.org/1999/xlink">
<g id="graph0" class="graph" transform="scale(1 1) rotate(0) translate(4 349)">
<title>HashRemoveButton</title>
<polygon fill="#ffffff" stroke="transparent" points="-4,4 -4,-349 137,-349 137,4 -4,4"/>
<!-- Node0 -->
<g id="node1" class="node">
<title>Node0</title>
<g id="a_node1"><a xlink:title=" ">
<polygon fill="#bfbfbf" stroke="#000000" points="0,-.5 0,-101.5 133,-101.5 133,-.5 0,-.5"/>
<text text-anchor="middle" x="66.5" y="-89.5" font-family="Helvetica,sans-Serif" font-size="10.00" fill="#000000">HashRemoveButton</text>
<polyline fill="none" stroke="#000000" points="0,-82.5 133,-82.5 "/>
<text text-anchor="start" x="8" y="-70.5" font-family="Helvetica,sans-Serif" font-size="10.00" fill="#000000"># m_label</text>
<text text-anchor="start" x="8" y="-59.5" font-family="Helvetica,sans-Serif" font-size="10.00" fill="#000000"># m_value</text>
<polyline fill="none" stroke="#000000" points="0,-52.5 133,-52.5 "/>
<text text-anchor="start" x="8" y="-40.5" font-family="Helvetica,sans-Serif" font-size="10.00" fill="#000000">+ HashRemoveButton()</text>
<text text-anchor="start" x="8" y="-29.5" font-family="Helvetica,sans-Serif" font-size="10.00" fill="#000000">+ label()</text>
<text text-anchor="start" x="8" y="-18.5" font-family="Helvetica,sans-Serif" font-size="10.00" fill="#000000">+ value()</text>
<text text-anchor="start" x="8" y="-7.5" font-family="Helvetica,sans-Serif" font-size="10.00" fill="#000000"># clicked()</text>
</a>
</g>
</g>
<!-- Node1 -->
<g id="node2" class="node">
<title>Node1</title>
<g id="a_node2"><a xlink:href="../../de/d69/classBaseRemoveButton.html" target="_top" xlink:title=" ">
<polygon fill="#ffffff" stroke="#000000" points=".5,-138.5 .5,-250.5 132.5,-250.5 132.5,-138.5 .5,-138.5"/>
<text text-anchor="middle" x="66.5" y="-238.5" font-family="Helvetica,sans-Serif" font-size="10.00" fill="#000000">BaseRemoveButton</text>
<polyline fill="none" stroke="#000000" points=".5,-231.5 132.5,-231.5 "/>
<text text-anchor="start" x="8.5" y="-219.5" font-family="Helvetica,sans-Serif" font-size="10.00" fill="#000000"># m_enterIcon</text>
<text text-anchor="start" x="8.5" y="-208.5" font-family="Helvetica,sans-Serif" font-size="10.00" fill="#000000"># m_leaveIcon</text>
<polyline fill="none" stroke="#000000" points=".5,-201.5 132.5,-201.5 "/>
<text text-anchor="start" x="8.5" y="-189.5" font-family="Helvetica,sans-Serif" font-size="10.00" fill="#000000">+ BaseRemoveButton()</text>
<text text-anchor="start" x="8.5" y="-178.5" font-family="Helvetica,sans-Serif" font-size="10.00" fill="#000000"># clicked()</text>
<text text-anchor="start" x="8.5" y="-167.5" font-family="Helvetica,sans-Serif" font-size="10.00" fill="#000000"># enterEvent()</text>
<text text-anchor="start" x="8.5" y="-156.5" font-family="Helvetica,sans-Serif" font-size="10.00" fill="#000000"># leaveEvent()</text>
<text text-anchor="start" x="8.5" y="-145.5" font-family="Helvetica,sans-Serif" font-size="10.00" fill="#000000"># mousePressEvent()</text>
</a>
</g>
</g>
<!-- Node1&#45;&gt;Node0 -->
<g id="edge1" class="edge">
<title>Node1&#45;&gt;Node0</title>
<path fill="none" stroke="#191970" d="M66.5,-128.1696C66.5,-119.2193 66.5,-110.1559 66.5,-101.5407"/>
<polygon fill="none" stroke="#191970" points="63.0001,-128.1968 66.5,-138.1969 70.0001,-128.1969 63.0001,-128.1968"/>
</g>
<!-- Node2 -->
<g id="node3" class="node">
<title>Node2</title>
<g id="a_node3"><a xlink:href="../../dd/d4a/classQLabel.html" target="_top" xlink:title=" ">
<polygon fill="#ffffff" stroke="#000000" points="41.5,-287.5 41.5,-344.5 91.5,-344.5 91.5,-287.5 41.5,-287.5"/>
<text text-anchor="middle" x="66.5" y="-332.5" font-family="Helvetica,sans-Serif" font-size="10.00" fill="#000000">QLabel</text>
<polyline fill="none" stroke="#000000" points="41.5,-325.5 91.5,-325.5 "/>
<text text-anchor="middle" x="66.5" y="-313.5" font-family="Helvetica,sans-Serif" font-size="10.00" fill="#000000"> </text>
<polyline fill="none" stroke="#000000" points="41.5,-306.5 91.5,-306.5 "/>
<text text-anchor="middle" x="66.5" y="-294.5" font-family="Helvetica,sans-Serif" font-size="10.00" fill="#000000"> </text>
</a>
</g>
</g>
<!-- Node2&#45;&gt;Node1 -->
<g id="edge2" class="edge">
<title>Node2&#45;&gt;Node1</title>
<path fill="none" stroke="#191970" d="M66.5,-277.0021C66.5,-268.6329 66.5,-259.6292 66.5,-250.7541"/>
<polygon fill="none" stroke="#191970" points="63.0001,-277.2062 66.5,-287.2062 70.0001,-277.2062 63.0001,-277.2062"/>
</g>
</g>
</svg>
