<?xml version="1.0" encoding="UTF-8" standalone="no"?>
<!DOCTYPE svg PUBLIC "-//W3C//DTD SVG 1.1//EN"
 "http://www.w3.org/Graphics/SVG/1.1/DTD/svg11.dtd">
<!-- Generated by graphviz version 2.40.1 (0)
 -->
<!-- Title: QuoteDialog Pages: 1 -->
<svg width="412pt" height="270pt"
 viewBox="0.00 0.00 412.00 270.00" xmlns="http://www.w3.org/2000/svg" xmlns:xlink="http://www.w3.org/1999/xlink">
<g id="graph0" class="graph" transform="scale(1 1) rotate(0) translate(4 266)">
<title>QuoteDialog</title>
<polygon fill="#ffffff" stroke="transparent" points="-4,4 -4,-266 408,-266 408,4 -4,4"/>
<!-- Node2 -->
<g id="node1" class="node">
<title>Node2</title>
<g id="a_node1"><a xlink:title=" ">
<polygon fill="#bfbfbf" stroke="#000000" points="108,-.5 108,-156.5 240,-156.5 240,-.5 108,-.5"/>
<text text-anchor="middle" x="174" y="-144.5" font-family="Helvetica,sans-Serif" font-size="10.00" fill="#000000">QuoteDialog</text>
<polyline fill="none" stroke="#000000" points="108,-137.5 240,-137.5 "/>
<text text-anchor="middle" x="174" y="-125.5" font-family="Helvetica,sans-Serif" font-size="10.00" fill="#000000"> </text>
<polyline fill="none" stroke="#000000" points="108,-118.5 240,-118.5 "/>
<text text-anchor="start" x="116" y="-106.5" font-family="Helvetica,sans-Serif" font-size="10.00" fill="#000000">+ QuoteDialog()</text>
<text text-anchor="start" x="116" y="-95.5" font-family="Helvetica,sans-Serif" font-size="10.00" fill="#000000">+ ~QuoteDialog()</text>
<text text-anchor="start" x="116" y="-84.5" font-family="Helvetica,sans-Serif" font-size="10.00" fill="#000000">+ setText()</text>
<text text-anchor="start" x="116" y="-73.5" font-family="Helvetica,sans-Serif" font-size="10.00" fill="#000000">+ countArgs()</text>
<text text-anchor="start" x="116" y="-62.5" font-family="Helvetica,sans-Serif" font-size="10.00" fill="#000000">+ quoteSucceeded()</text>
<text text-anchor="start" x="116" y="-51.5" font-family="Helvetica,sans-Serif" font-size="10.00" fill="#000000">+ setArea()</text>
<text text-anchor="start" x="116" y="-40.5" font-family="Helvetica,sans-Serif" font-size="10.00" fill="#000000">+ setCountCost()</text>
<text text-anchor="start" x="116" y="-29.5" font-family="Helvetica,sans-Serif" font-size="10.00" fill="#000000">+ setQuoteSucceeded()</text>
<text text-anchor="start" x="116" y="-18.5" font-family="Helvetica,sans-Serif" font-size="10.00" fill="#000000"># initCounts()</text>
<text text-anchor="start" x="116" y="-7.5" font-family="Helvetica,sans-Serif" font-size="10.00" fill="#000000"># visitFritzingFab()</text>
</a>
</g>
</g>
<!-- Node3 -->
<g id="node2" class="node">
<title>Node3</title>
<g id="a_node2"><a xlink:href="../../d9/d46/classQDialog.html" target="_top" xlink:title=" ">
<polygon fill="#ffffff" stroke="#000000" points="0,-204.5 0,-261.5 56,-261.5 56,-204.5 0,-204.5"/>
<text text-anchor="middle" x="28" y="-249.5" font-family="Helvetica,sans-Serif" font-size="10.00" fill="#000000">QDialog</text>
<polyline fill="none" stroke="#000000" points="0,-242.5 56,-242.5 "/>
<text text-anchor="middle" x="28" y="-230.5" font-family="Helvetica,sans-Serif" font-size="10.00" fill="#000000"> </text>
<polyline fill="none" stroke="#000000" points="0,-223.5 56,-223.5 "/>
<text text-anchor="middle" x="28" y="-211.5" font-family="Helvetica,sans-Serif" font-size="10.00" fill="#000000"> </text>
</a>
</g>
</g>
<!-- Node3&#45;&gt;Node2 -->
<g id="edge1" class="edge">
<title>Node3&#45;&gt;Node2</title>
<path fill="none" stroke="#191970" d="M62.0346,-196.984C75.741,-182.4795 92.04,-165.2317 107.9006,-148.4477"/>
<polygon fill="none" stroke="#191970" points="59.4438,-194.6297 55.1193,-204.3018 64.5315,-199.4375 59.4438,-194.6297"/>
</g>
<!-- Node4 -->
<g id="node3" class="node">
<title>Node4</title>
<g id="a_node3"><a xlink:title=" ">
<polygon fill="#ffffff" stroke="#bfbfbf" points="74,-204.5 74,-261.5 166,-261.5 166,-204.5 74,-204.5"/>
<text text-anchor="middle" x="120" y="-249.5" font-family="Helvetica,sans-Serif" font-size="10.00" fill="#000000">QTableWidget *</text>
<polyline fill="none" stroke="#bfbfbf" points="74,-242.5 166,-242.5 "/>
<text text-anchor="middle" x="120" y="-230.5" font-family="Helvetica,sans-Serif" font-size="10.00" fill="#000000"> </text>
<polyline fill="none" stroke="#bfbfbf" points="74,-223.5 166,-223.5 "/>
<text text-anchor="middle" x="120" y="-211.5" font-family="Helvetica,sans-Serif" font-size="10.00" fill="#000000"> </text>
</a>
</g>
</g>
<!-- Node4&#45;&gt;Node2 -->
<g id="edge2" class="edge">
<title>Node4&#45;&gt;Node2</title>
<path fill="none" stroke="#404040" d="M117.7737,-204.3013C117.7555,-194.836 118.5169,-184.3438 121,-175 121.6075,-172.714 122.2801,-170.4235 123.0101,-168.1343"/>
<polygon fill="none" stroke="#404040" points="123.0507,-168.0209 121.3117,-161.0227 127.1028,-156.7258 128.8418,-163.724 123.0507,-168.0209"/>
<text text-anchor="middle" x="164" y="-178" font-family="Helvetica,sans-Serif" font-size="10.00" fill="#000000"> #m_tableWidget</text>
</g>
<!-- Node5 -->
<g id="node4" class="node">
<title>Node5</title>
<g id="a_node4"><a xlink:title=" ">
<polygon fill="#ffffff" stroke="#bfbfbf" points="199.5,-204.5 199.5,-261.5 258.5,-261.5 258.5,-204.5 199.5,-204.5"/>
<text text-anchor="middle" x="229" y="-249.5" font-family="Helvetica,sans-Serif" font-size="10.00" fill="#000000">QLabel *</text>
<polyline fill="none" stroke="#bfbfbf" points="199.5,-242.5 258.5,-242.5 "/>
<text text-anchor="middle" x="229" y="-230.5" font-family="Helvetica,sans-Serif" font-size="10.00" fill="#000000"> </text>
<polyline fill="none" stroke="#bfbfbf" points="199.5,-223.5 258.5,-223.5 "/>
<text text-anchor="middle" x="229" y="-211.5" font-family="Helvetica,sans-Serif" font-size="10.00" fill="#000000"> </text>
</a>
</g>
</g>
<!-- Node5&#45;&gt;Node2 -->
<g id="edge3" class="edge">
<title>Node5&#45;&gt;Node2</title>
<path fill="none" stroke="#404040" d="M218.7838,-204.3018C215.0356,-193.7726 210.5669,-181.2197 205.9255,-168.1816"/>
<polygon fill="none" stroke="#404040" points="205.8405,-167.9426 200.0599,-163.6316 201.816,-156.6376 207.5966,-160.9486 205.8405,-167.9426"/>
<text text-anchor="middle" x="259.5" y="-178" font-family="Helvetica,sans-Serif" font-size="10.00" fill="#000000"> #m_messageLabel</text>
</g>
<!-- Node6 -->
<g id="node5" class="node">
<title>Node6</title>
<g id="a_node5"><a xlink:title=" ">
<polygon fill="#ffffff" stroke="#bfbfbf" points="334.5,-204.5 334.5,-261.5 363.5,-261.5 363.5,-204.5 334.5,-204.5"/>
<text text-anchor="middle" x="349" y="-249.5" font-family="Helvetica,sans-Serif" font-size="10.00" fill="#000000">int</text>
<polyline fill="none" stroke="#bfbfbf" points="334.5,-242.5 363.5,-242.5 "/>
<text text-anchor="middle" x="349" y="-230.5" font-family="Helvetica,sans-Serif" font-size="10.00" fill="#000000"> </text>
<polyline fill="none" stroke="#bfbfbf" points="334.5,-223.5 363.5,-223.5 "/>
<text text-anchor="middle" x="349" y="-211.5" font-family="Helvetica,sans-Serif" font-size="10.00" fill="#000000"> </text>
</a>
</g>
</g>
<!-- Node6&#45;&gt;Node2 -->
<g id="edge4" class="edge">
<title>Node6&#45;&gt;Node2</title>
<path fill="none" stroke="#404040" d="M334.4484,-205.4237C328.3133,-195.2213 320.5953,-183.9676 312,-175 293.9251,-156.1421 271.6566,-138.6926 250.3237,-123.9655"/>
<polygon fill="none" stroke="#404040" points="250.222,-123.8968 243.011,-123.8521 240.2789,-117.1786 247.4899,-117.2233 250.222,-123.8968"/>
<text text-anchor="middle" x="362" y="-178" font-family="Helvetica,sans-Serif" font-size="10.00" fill="#000000"> +MessageCount</text>
</g>
</g>
</svg>
