<?xml version="1.0" encoding="UTF-8" standalone="no"?>
<!DOCTYPE svg PUBLIC "-//W3C//DTD SVG 1.1//EN"
 "http://www.w3.org/Graphics/SVG/1.1/DTD/svg11.dtd">
<!-- Generated by graphviz version 2.40.1 (0)
 -->
<!-- Title: utils/fileprogressdialog.h Pages: 1 -->
<svg width="412pt" height="84pt"
 viewBox="0.00 0.00 411.50 84.00" xmlns="http://www.w3.org/2000/svg" xmlns:xlink="http://www.w3.org/1999/xlink">
<g id="graph0" class="graph" transform="scale(1 1) rotate(0) translate(4 80)">
<title>utils/fileprogressdialog.h</title>
<polygon fill="#ffffff" stroke="transparent" points="-4,4 -4,-80 407.5,-80 407.5,4 -4,4"/>
<!-- Node0 -->
<g id="node1" class="node">
<title>Node0</title>
<g id="a_node1"><a xlink:title=" ">
<polygon fill="#bfbfbf" stroke="#000000" points="132.5,-56.5 132.5,-75.5 269.5,-75.5 269.5,-56.5 132.5,-56.5"/>
<text text-anchor="middle" x="201" y="-63.5" font-family="Helvetica,sans-Serif" font-size="10.00" fill="#000000">utils/fileprogressdialog.h</text>
</a>
</g>
</g>
<!-- Node1 -->
<g id="node2" class="node">
<title>Node1</title>
<g id="a_node2"><a xlink:title=" ">
<polygon fill="#ffffff" stroke="#bfbfbf" points="0,-.5 0,-19.5 56,-19.5 56,-.5 0,-.5"/>
<text text-anchor="middle" x="28" y="-7.5" font-family="Helvetica,sans-Serif" font-size="10.00" fill="#000000">QDialog</text>
</a>
</g>
</g>
<!-- Node0&#45;&gt;Node1 -->
<g id="edge1" class="edge">
<title>Node0&#45;&gt;Node1</title>
<path fill="none" stroke="#191970" d="M171.2602,-56.3733C142.1443,-46.9484 97.6669,-32.5511 66.0013,-22.301"/>
<polygon fill="#191970" stroke="#191970" points="66.798,-18.8801 56.2061,-19.1303 64.6422,-25.5399 66.798,-18.8801"/>
</g>
<!-- Node2 -->
<g id="node3" class="node">
<title>Node2</title>
<g id="a_node3"><a xlink:title=" ">
<polygon fill="#ffffff" stroke="#bfbfbf" points="74.5,-.5 74.5,-19.5 157.5,-19.5 157.5,-.5 74.5,-.5"/>
<text text-anchor="middle" x="116" y="-7.5" font-family="Helvetica,sans-Serif" font-size="10.00" fill="#000000">QProgressBar</text>
</a>
</g>
</g>
<!-- Node0&#45;&gt;Node2 -->
<g id="edge2" class="edge">
<title>Node0&#45;&gt;Node2</title>
<path fill="none" stroke="#191970" d="M186.1941,-56.2455C173.2744,-47.7337 154.3069,-35.2375 139.3448,-25.3801"/>
<polygon fill="#191970" stroke="#191970" points="140.9124,-22.2216 130.6362,-19.6427 137.0613,-28.067 140.9124,-22.2216"/>
</g>
<!-- Node3 -->
<g id="node4" class="node">
<title>Node3</title>
<g id="a_node4"><a xlink:title=" ">
<polygon fill="#ffffff" stroke="#bfbfbf" points="176,-.5 176,-19.5 226,-19.5 226,-.5 176,-.5"/>
<text text-anchor="middle" x="201" y="-7.5" font-family="Helvetica,sans-Serif" font-size="10.00" fill="#000000">QLabel</text>
</a>
</g>
</g>
<!-- Node0&#45;&gt;Node3 -->
<g id="edge3" class="edge">
<title>Node0&#45;&gt;Node3</title>
<path fill="none" stroke="#191970" d="M201,-56.2455C201,-48.9382 201,-38.6944 201,-29.7046"/>
<polygon fill="#191970" stroke="#191970" points="204.5001,-29.6426 201,-19.6427 197.5001,-29.6427 204.5001,-29.6426"/>
</g>
<!-- Node4 -->
<g id="node5" class="node">
<title>Node4</title>
<g id="a_node5"><a xlink:title=" ">
<polygon fill="#ffffff" stroke="#bfbfbf" points="244,-.5 244,-19.5 332,-19.5 332,-.5 244,-.5"/>
<text text-anchor="middle" x="288" y="-7.5" font-family="Helvetica,sans-Serif" font-size="10.00" fill="#000000">QDomElement</text>
</a>
</g>
</g>
<!-- Node0&#45;&gt;Node4 -->
<g id="edge4" class="edge">
<title>Node0&#45;&gt;Node4</title>
<path fill="none" stroke="#191970" d="M216.1542,-56.2455C229.5027,-47.6534 249.1586,-35.0014 264.5383,-25.1018"/>
<polygon fill="#191970" stroke="#191970" points="266.5051,-27.9982 273.0194,-19.6427 262.7164,-22.1121 266.5051,-27.9982"/>
</g>
<!-- Node5 -->
<g id="node6" class="node">
<title>Node5</title>
<g id="a_node6"><a xlink:title=" ">
<polygon fill="#ffffff" stroke="#bfbfbf" points="350.5,-.5 350.5,-19.5 403.5,-19.5 403.5,-.5 350.5,-.5"/>
<text text-anchor="middle" x="377" y="-7.5" font-family="Helvetica,sans-Serif" font-size="10.00" fill="#000000">QTimer</text>
</a>
</g>
</g>
<!-- Node0&#45;&gt;Node5 -->
<g id="edge5" class="edge">
<title>Node0&#45;&gt;Node5</title>
<path fill="none" stroke="#191970" d="M231.2555,-56.3733C261.6281,-46.7093 308.4317,-31.8172 340.7667,-21.5288"/>
<polygon fill="#191970" stroke="#191970" points="341.835,-24.8618 350.303,-18.4945 339.7125,-18.1914 341.835,-24.8618"/>
</g>
</g>
</svg>
