<?xml version="1.0" encoding="UTF-8" standalone="no"?>
<!DOCTYPE svg PUBLIC "-//W3C//DTD SVG 1.1//EN"
 "http://www.w3.org/Graphics/SVG/1.1/DTD/svg11.dtd">
<!-- Generated by graphviz version 2.40.1 (0)
 -->
<!-- Title: RenamePinsCommand::redo Pages: 1 -->
<!--zoomable 229 -->
<svg id="main" version="1.1" xmlns="http://www.w3.org/2000/svg" xmlns:xlink="http://www.w3.org/1999/xlink" xml:space="preserve" onload="init(evt)">
<style type="text/css"><![CDATA[
.edge:hover path { stroke: red; }
.edge:hover polygon { stroke: red; fill: red; }
]]></style>
<script type="text/javascript"><![CDATA[
var edges = document.getElementsByTagName('g');
if (edges && edges.length) {
  for (var i=0;i<edges.length;i++) {
    if (edges[i].id.substr(0,4)=='edge') {
      edges[i].setAttribute('class','edge');
    }
  }
}
]]></script>
        <defs>
                <circle id="rim" cx="0" cy="0" r="7"/>
                <circle id="rim2" cx="0" cy="0" r="3.5"/>
                <g id="zoomPlus">
                        <use xlink:href="#rim" fill="#404040">
                                <set attributeName="fill" to="#808080" begin="zoomplus.mouseover" end="zoomplus.mouseout"/>
                        </use>
                        <path d="M-4,0h8M0,-4v8" fill="none" stroke="white" stroke-width="1.5" pointer-events="none"/>
                </g>
                <g id="zoomMin">
                        <use xlink:href="#rim" fill="#404040">
                                <set attributeName="fill" to="#808080" begin="zoomminus.mouseover" end="zoomminus.mouseout"/>
                        </use>
                        <path d="M-4,0h8" fill="none" stroke="white" stroke-width="1.5" pointer-events="none"/>
                </g>
                <g id="dirArrow">
                        <path fill="none" stroke="white" stroke-width="1.5" d="M0,-3.0v7 M-2.5,-0.5L0,-3.0L2.5,-0.5"/>
                </g>
               <g id="resetDef">
                       <use xlink:href="#rim2" fill="#404040">
                               <set attributeName="fill" to="#808080" begin="reset.mouseover" end="reset.mouseout"/>
                       </use>
               </g>
        </defs>

<script type="text/javascript">
var viewWidth = 1494;
var viewHeight = 229;
var sectionId = 'dynsection-3';
</script>
<script xlink:href="../../svgpan.js"/>
<svg id="graph" class="graph">
<g id="viewport">
<title>RenamePinsCommand::redo</title>
<polygon fill="#ffffff" stroke="transparent" points="-4,4 -4,-225 1490,-225 1490,4 -4,4"/>
<!-- Node6 -->
<g id="node1" class="node">
<title>Node6</title>
<g id="a_node1"><a xlink:title=" ">
<polygon fill="#bfbfbf" stroke="#000000" points="0,-144.5 0,-163.5 155,-163.5 155,-144.5 0,-144.5"/>
<text text-anchor="middle" x="77.5" y="-151.5" font-family="Helvetica,sans-Serif" font-size="10.00" fill="#000000">RenamePinsCommand::redo</text>
</a>
</g>
</g>
<!-- Node7 -->
<g id="node2" class="node">
<title>Node7</title>
<g id="a_node2"><a xlink:href="../../d8/d6e/classBaseCommand.html#a165c99f7028014fa735ee7f0c74afeaf" target="_top" xlink:title=" ">
<polygon fill="#ffffff" stroke="#000000" points="205,-163.5 205,-182.5 324,-182.5 324,-163.5 205,-163.5"/>
<text text-anchor="middle" x="264.5" y="-170.5" font-family="Helvetica,sans-Serif" font-size="10.00" fill="#000000">BaseCommand::redo</text>
</a>
</g>
</g>
<!-- Node6&#45;&gt;Node7 -->
<g id="edge1" class="edge">
<title>Node6&#45;&gt;Node7</title>
<path fill="none" stroke="#191970" d="M155.1803,-161.8926C168.2451,-163.2201 181.7343,-164.5906 194.5873,-165.8966"/>
<polygon fill="#191970" stroke="#191970" points="194.4359,-169.3991 204.7385,-166.928 195.1435,-162.435 194.4359,-169.3991"/>
</g>
<!-- Node10 -->
<g id="node5" class="node">
<title>Node10</title>
<g id="a_node5"><a xlink:href="../../d8/d37/classSketchWidget.html#a47698c52e3592e59a4128f6370bf5172" target="_top" xlink:title=" ">
<polygon fill="#ffffff" stroke="#000000" points="191,-125.5 191,-144.5 338,-144.5 338,-125.5 191,-125.5"/>
<text text-anchor="middle" x="264.5" y="-132.5" font-family="Helvetica,sans-Serif" font-size="10.00" fill="#000000">SketchWidget::renamePins</text>
</a>
</g>
</g>
<!-- Node6&#45;&gt;Node10 -->
<g id="edge4" class="edge">
<title>Node6&#45;&gt;Node10</title>
<path fill="none" stroke="#191970" d="M155.1803,-146.1074C163.691,-145.2426 172.3818,-144.3596 180.9596,-143.4881"/>
<polygon fill="#191970" stroke="#191970" points="181.3647,-146.965 190.9596,-142.472 180.657,-140.0009 181.3647,-146.965"/>
</g>
<!-- Node8 -->
<g id="node3" class="node">
<title>Node8</title>
<g id="a_node3"><a xlink:href="../../df/d8b/classCommandProgress.html#aebf23a39ab6caf18a3e7b3351ad4f49d" target="_top" xlink:title=" ">
<polygon fill="#ffffff" stroke="#000000" points="382.5,-201.5 382.5,-220.5 527.5,-220.5 527.5,-201.5 382.5,-201.5"/>
<text text-anchor="middle" x="455" y="-208.5" font-family="Helvetica,sans-Serif" font-size="10.00" fill="#000000">CommandProgress::active</text>
</a>
</g>
</g>
<!-- Node7&#45;&gt;Node8 -->
<g id="edge2" class="edge">
<title>Node7&#45;&gt;Node8</title>
<path fill="none" stroke="#191970" d="M312.5712,-182.589C338.2759,-187.7165 370.1134,-194.0672 397.1642,-199.4632"/>
<polygon fill="#191970" stroke="#191970" points="396.783,-202.956 407.2745,-201.4799 398.1524,-196.0913 396.783,-202.956"/>
</g>
<!-- Node9 -->
<g id="node4" class="node">
<title>Node9</title>
<g id="a_node4"><a xlink:href="../../df/d8b/classCommandProgress.html#af6c9106bc35e189ceb59132c1ac065b6" target="_top" xlink:title=" ">
<polygon fill="#ffffff" stroke="#000000" points="374,-163.5 374,-182.5 536,-182.5 536,-163.5 374,-163.5"/>
<text text-anchor="middle" x="455" y="-170.5" font-family="Helvetica,sans-Serif" font-size="10.00" fill="#000000">CommandProgress::emitRedo</text>
</a>
</g>
</g>
<!-- Node7&#45;&gt;Node9 -->
<g id="edge3" class="edge">
<title>Node7&#45;&gt;Node9</title>
<path fill="none" stroke="#191970" d="M324.2527,-173C336.7738,-173 350.2498,-173 363.6239,-173"/>
<polygon fill="#191970" stroke="#191970" points="363.8138,-176.5001 373.8137,-173 363.8137,-169.5001 363.8138,-176.5001"/>
</g>
<!-- Node11 -->
<g id="node6" class="node">
<title>Node11</title>
<g id="a_node6"><a xlink:href="../../d4/d4f/classItemBase.html#a27afd199a7ae3c3fd14e88ed0be14420" target="_top" xlink:title=" ">
<polygon fill="#ffffff" stroke="#000000" points="416,-125.5 416,-144.5 494,-144.5 494,-125.5 416,-125.5"/>
<text text-anchor="middle" x="455" y="-132.5" font-family="Helvetica,sans-Serif" font-size="10.00" fill="#000000">ItemBase::id</text>
</a>
</g>
</g>
<!-- Node10&#45;&gt;Node11 -->
<g id="edge5" class="edge">
<title>Node10&#45;&gt;Node11</title>
<path fill="none" stroke="#191970" d="M338.1523,-135C360.813,-135 385.1953,-135 405.7944,-135"/>
<polygon fill="#191970" stroke="#191970" points="405.8845,-138.5001 415.8845,-135 405.8845,-131.5001 405.8845,-138.5001"/>
</g>
<!-- Node12 -->
<g id="node7" class="node">
<title>Node12</title>
<g id="a_node7"><a xlink:href="../../d0/dbb/classWaitPushUndoStack.html#a963a743dc56214fc3f5929cf271be8ce" target="_top" xlink:title=" ">
<polygon fill="#ffffff" stroke="#000000" points="395,-76 395,-106 515,-106 515,-76 395,-76"/>
<text text-anchor="start" x="403" y="-94" font-family="Helvetica,sans-Serif" font-size="10.00" fill="#000000">WaitPushUndoStack::</text>
<text text-anchor="middle" x="455" y="-83" font-family="Helvetica,sans-Serif" font-size="10.00" fill="#000000">waitPush</text>
</a>
</g>
</g>
<!-- Node10&#45;&gt;Node12 -->
<g id="edge6" class="edge">
<title>Node10&#45;&gt;Node12</title>
<path fill="none" stroke="#191970" d="M305.8357,-125.4527C328.9294,-120.1187 358.3279,-113.3285 384.9102,-107.1887"/>
<polygon fill="#191970" stroke="#191970" points="385.9854,-110.5326 394.9412,-104.8719 384.41,-103.7122 385.9854,-110.5326"/>
</g>
<!-- Node13 -->
<g id="node8" class="node">
<title>Node13</title>
<g id="a_node8"><a xlink:href="../../d0/dbb/classWaitPushUndoStack.html#adb61406582da1e42263b223b11b7d1c0" target="_top" xlink:title=" ">
<polygon fill="#ffffff" stroke="#000000" points="583.5,-99 583.5,-129 703.5,-129 703.5,-99 583.5,-99"/>
<text text-anchor="start" x="591.5" y="-117" font-family="Helvetica,sans-Serif" font-size="10.00" fill="#000000">WaitPushUndoStack::</text>
<text text-anchor="middle" x="643.5" y="-106" font-family="Helvetica,sans-Serif" font-size="10.00" fill="#000000">clearDeadTimers</text>
</a>
</g>
</g>
<!-- Node12&#45;&gt;Node13 -->
<g id="edge7" class="edge">
<title>Node12&#45;&gt;Node13</title>
<path fill="none" stroke="#191970" d="M515.1608,-98.3406C533.6098,-100.5916 554.0727,-103.0884 573.1392,-105.4149"/>
<polygon fill="#191970" stroke="#191970" points="572.9138,-108.9132 583.2642,-106.6503 573.7617,-101.9648 572.9138,-108.9132"/>
</g>
<!-- Node15 -->
<g id="node10" class="node">
<title>Node15</title>
<g id="a_node10"><a xlink:href="../../d0/dbb/classWaitPushUndoStack.html#a279fdca551f05e81111de92ea5b2145c" target="_top" xlink:title=" ">
<polygon fill="#ffffff" stroke="#000000" points="572,-59.5 572,-78.5 715,-78.5 715,-59.5 572,-59.5"/>
<text text-anchor="middle" x="643.5" y="-66.5" font-family="Helvetica,sans-Serif" font-size="10.00" fill="#000000">WaitPushUndoStack::push</text>
</a>
</g>
</g>
<!-- Node12&#45;&gt;Node15 -->
<g id="edge9" class="edge">
<title>Node12&#45;&gt;Node15</title>
<path fill="none" stroke="#191970" d="M515.1608,-83.9786C529.9212,-82.2559 545.9707,-80.3827 561.5627,-78.563"/>
<polygon fill="#191970" stroke="#191970" points="562.198,-82.0127 571.7248,-77.3769 561.3864,-75.0599 562.198,-82.0127"/>
</g>
<!-- Node14 -->
<g id="node9" class="node">
<title>Node14</title>
<g id="a_node9"><a xlink:href="../../d0/dbb/classWaitPushUndoStack.html#a23e51cedbc43383a4f967180c64dd040" target="_top" xlink:title=" ">
<polygon fill="#ffffff" stroke="#000000" points="751,-101 751,-131 871,-131 871,-101 751,-101"/>
<text text-anchor="start" x="759" y="-119" font-family="Helvetica,sans-Serif" font-size="10.00" fill="#000000">WaitPushUndoStack::</text>
<text text-anchor="middle" x="811" y="-108" font-family="Helvetica,sans-Serif" font-size="10.00" fill="#000000">clearTimers</text>
</a>
</g>
</g>
<!-- Node13&#45;&gt;Node14 -->
<g id="edge8" class="edge">
<title>Node13&#45;&gt;Node14</title>
<path fill="none" stroke="#191970" d="M703.9713,-114.722C715.9044,-114.8645 728.5225,-115.0152 740.7465,-115.1612"/>
<polygon fill="#191970" stroke="#191970" points="740.8572,-118.6626 750.8983,-115.2824 740.9409,-111.6631 740.8572,-118.6626"/>
</g>
<!-- Node16 -->
<g id="node11" class="node">
<title>Node16</title>
<g id="a_node11"><a xlink:href="../../d0/dbb/classWaitPushUndoStack.html#a2b0322812e333fec2b4d0d12b12e634c" target="_top" xlink:title=" ">
<polygon fill="#ffffff" stroke="#000000" points="751,-52 751,-82 871,-82 871,-52 751,-52"/>
<text text-anchor="start" x="759" y="-70" font-family="Helvetica,sans-Serif" font-size="10.00" fill="#000000">WaitPushUndoStack::</text>
<text text-anchor="middle" x="811" y="-59" font-family="Helvetica,sans-Serif" font-size="10.00" fill="#000000">writeUndo</text>
</a>
</g>
</g>
<!-- Node15&#45;&gt;Node16 -->
<g id="edge10" class="edge">
<title>Node15&#45;&gt;Node16</title>
<path fill="none" stroke="#191970" d="M715.0209,-68.146C723.4918,-68.0449 732.1332,-67.9417 740.5884,-67.8407"/>
<polygon fill="#191970" stroke="#191970" points="740.8282,-71.3382 750.7856,-67.719 740.7445,-64.3387 740.8282,-71.3382"/>
</g>
<!-- Node17 -->
<g id="node12" class="node">
<title>Node17</title>
<g id="a_node12"><a xlink:href="../../d8/d6e/classBaseCommand.html#a2d7619b36325bfec9111724045c24b8e" target="_top" xlink:title=" ">
<polygon fill="#ffffff" stroke="#000000" points="917,-114.5 917,-133.5 1090,-133.5 1090,-114.5 917,-114.5"/>
<text text-anchor="middle" x="1003.5" y="-121.5" font-family="Helvetica,sans-Serif" font-size="10.00" fill="#000000">BaseCommand::getDebugString</text>
</a>
</g>
</g>
<!-- Node16&#45;&gt;Node17 -->
<g id="edge11" class="edge">
<title>Node16&#45;&gt;Node17</title>
<path fill="none" stroke="#191970" d="M847.2859,-82.1579C869.3291,-91.2095 895.391,-101.5906 907,-105 916.2411,-107.714 926.0949,-110.1545 935.8426,-112.3101"/>
<polygon fill="#191970" stroke="#191970" points="935.4233,-115.7991 945.9322,-114.453 936.8776,-108.9518 935.4233,-115.7991"/>
</g>
<!-- Node20 -->
<g id="node15" class="node">
<title>Node20</title>
<g id="a_node15"><a xlink:href="../../d8/d6e/classBaseCommand.html#af34b4e2829ad3b7b718499916fd87cbb" target="_top" xlink:title=" ">
<polygon fill="#ffffff" stroke="#000000" points="941.5,-76.5 941.5,-95.5 1065.5,-95.5 1065.5,-76.5 941.5,-76.5"/>
<text text-anchor="middle" x="1003.5" y="-83.5" font-family="Helvetica,sans-Serif" font-size="10.00" fill="#000000">BaseCommand::index</text>
</a>
</g>
</g>
<!-- Node16&#45;&gt;Node20 -->
<g id="edge14" class="edge">
<title>Node16&#45;&gt;Node20</title>
<path fill="none" stroke="#191970" d="M871.1164,-72.9336C890.0924,-74.8065 911.2605,-76.8958 931.0058,-78.8447"/>
<polygon fill="#191970" stroke="#191970" points="930.8871,-82.3499 941.1825,-79.8492 931.5747,-75.3838 930.8871,-82.3499"/>
</g>
<!-- Node21 -->
<g id="node16" class="node">
<title>Node21</title>
<g id="a_node16"><a xlink:href="../../d8/d6e/classBaseCommand.html#ad7114bcb3cf27232facaf0cbcd7e3b58" target="_top" xlink:title=" ">
<polygon fill="#ffffff" stroke="#000000" points="907,-38.5 907,-57.5 1100,-57.5 1100,-38.5 907,-38.5"/>
<text text-anchor="middle" x="1003.5" y="-45.5" font-family="Helvetica,sans-Serif" font-size="10.00" fill="#000000">BaseCommand::subCommandCount</text>
</a>
</g>
</g>
<!-- Node16&#45;&gt;Node21 -->
<g id="edge15" class="edge">
<title>Node16&#45;&gt;Node21</title>
<path fill="none" stroke="#191970" d="M871.1164,-61.0664C879.4521,-60.2437 888.2108,-59.3792 897.0861,-58.5032"/>
<polygon fill="#191970" stroke="#191970" points="897.532,-61.9763 907.1399,-57.5109 896.8444,-55.0101 897.532,-61.9763"/>
</g>
<!-- Node22 -->
<g id="node17" class="node">
<title>Node22</title>
<g id="a_node17"><a xlink:href="../../d8/d6e/classBaseCommand.html#a2717e1d5a234ba427175907b2dc58c23" target="_top" xlink:title=" ">
<polygon fill="#ffffff" stroke="#000000" points="921.5,-.5 921.5,-19.5 1085.5,-19.5 1085.5,-.5 921.5,-.5"/>
<text text-anchor="middle" x="1003.5" y="-7.5" font-family="Helvetica,sans-Serif" font-size="10.00" fill="#000000">BaseCommand::subCommand</text>
</a>
</g>
</g>
<!-- Node16&#45;&gt;Node22 -->
<g id="edge16" class="edge">
<title>Node16&#45;&gt;Node22</title>
<path fill="none" stroke="#191970" d="M844.6817,-51.918C862.8579,-44.2277 885.8458,-35.2127 907,-29 916.2411,-26.286 926.0949,-23.8455 935.8426,-21.6899"/>
<polygon fill="#191970" stroke="#191970" points="936.8776,-25.0482 945.9322,-19.547 935.4233,-18.2009 936.8776,-25.0482"/>
</g>
<!-- Node18 -->
<g id="node13" class="node">
<title>Node18</title>
<g id="a_node13"><a xlink:href="../../d8/d6e/classBaseCommand.html#aca69868889f793ce1399fd0c752cfa05" target="_top" xlink:title=" ">
<polygon fill="#ffffff" stroke="#000000" points="1136,-114.5 1136,-133.5 1308,-133.5 1308,-114.5 1136,-114.5"/>
<text text-anchor="middle" x="1222" y="-121.5" font-family="Helvetica,sans-Serif" font-size="10.00" fill="#000000">BaseCommand::getParamString</text>
</a>
</g>
</g>
<!-- Node17&#45;&gt;Node18 -->
<g id="edge12" class="edge">
<title>Node17&#45;&gt;Node18</title>
<path fill="none" stroke="#191970" d="M1090.1708,-124C1101.7822,-124 1113.7493,-124 1125.5162,-124"/>
<polygon fill="#191970" stroke="#191970" points="1125.7913,-127.5001 1135.7913,-124 1125.7913,-120.5001 1125.7913,-127.5001"/>
</g>
<!-- Node19 -->
<g id="node14" class="node">
<title>Node19</title>
<g id="a_node14"><a xlink:href="../../d8/d37/classSketchWidget.html#a4319a31c3a619e166f0e7dac865e2ea3" target="_top" xlink:title=" ">
<polygon fill="#ffffff" stroke="#000000" points="1344,-114.5 1344,-133.5 1486,-133.5 1486,-114.5 1344,-114.5"/>
<text text-anchor="middle" x="1415" y="-121.5" font-family="Helvetica,sans-Serif" font-size="10.00" fill="#000000">SketchWidget::viewName</text>
</a>
</g>
</g>
<!-- Node18&#45;&gt;Node19 -->
<g id="edge13" class="edge">
<title>Node18&#45;&gt;Node19</title>
<path fill="none" stroke="#191970" d="M1308.0578,-124C1316.562,-124 1325.1756,-124 1333.6304,-124"/>
<polygon fill="#191970" stroke="#191970" points="1333.8465,-127.5001 1343.8465,-124 1333.8465,-120.5001 1333.8465,-127.5001"/>
</g>
</g>
</svg>
        <g id="navigator" transform="translate(0 0)" fill="#404254">
                <rect fill="#f2f5e9" fill-opacity="0.5" stroke="#606060" stroke-width=".5" x="0" y="0" width="60" height="60"/>
                <use id="zoomplus" xlink:href="#zoomPlus" x="17" y="9" onmousedown="handleZoom(evt,'in')"/>
                <use id="zoomminus" xlink:href="#zoomMin" x="42" y="9" onmousedown="handleZoom(evt,'out')"/>
                <use id="reset" xlink:href="#resetDef" x="30" y="36" onmousedown="handleReset()"/>
                <g id="arrowUp" xlink:href="#dirArrow" transform="translate(30 24)" onmousedown="handlePan(0,-1)">
                  <use xlink:href="#rim" fill="#404040">
                        <set attributeName="fill" to="#808080" begin="arrowUp.mouseover" end="arrowUp.mouseout"/>
                  </use>
                  <path fill="none" stroke="white" stroke-width="1.5" d="M0,-3.0v7 M-2.5,-0.5L0,-3.0L2.5,-0.5"/>
                </g>
                <g id="arrowRight" xlink:href="#dirArrow" transform="rotate(90) translate(36 -43)" onmousedown="handlePan(1,0)">
                  <use xlink:href="#rim" fill="#404040">
                        <set attributeName="fill" to="#808080" begin="arrowRight.mouseover" end="arrowRight.mouseout"/>
                  </use>
                  <path fill="none" stroke="white" stroke-width="1.5" d="M0,-3.0v7 M-2.5,-0.5L0,-3.0L2.5,-0.5"/>
                </g>
                <g id="arrowDown" xlink:href="#dirArrow" transform="rotate(180) translate(-30 -48)" onmousedown="handlePan(0,1)">
                  <use xlink:href="#rim" fill="#404040">
                        <set attributeName="fill" to="#808080" begin="arrowDown.mouseover" end="arrowDown.mouseout"/>
                  </use>
                  <path fill="none" stroke="white" stroke-width="1.5" d="M0,-3.0v7 M-2.5,-0.5L0,-3.0L2.5,-0.5"/>
                </g>
                <g id="arrowLeft" xlink:href="#dirArrow" transform="rotate(270) translate(-36 17)" onmousedown="handlePan(-1,0)">
                  <use xlink:href="#rim" fill="#404040">
                        <set attributeName="fill" to="#808080" begin="arrowLeft.mouseover" end="arrowLeft.mouseout"/>
                  </use>
                  <path fill="none" stroke="white" stroke-width="1.5" d="M0,-3.0v7 M-2.5,-0.5L0,-3.0L2.5,-0.5"/>
                </g>
        </g>
        <svg viewBox="0 0 15 15" width="100%" height="30px" preserveAspectRatio="xMaxYMin meet">
         <g id="arrow_out" transform="scale(0.3 0.3)">
          <a xlink:href="classRenamePinsCommand_a3bf7cd42ba81f6193f5cd24ec1bfb3be_cgraph_org.svg" target="_base">
           <rect id="button" ry="5" rx="5" y="6" x="6" height="38" width="38"
                fill="#f2f5e9" fill-opacity="0.5" stroke="#606060" stroke-width="1.0"/>
           <path id="arrow"
             d="M 11.500037,31.436501 C 11.940474,20.09759 22.043105,11.32322 32.158766,21.979434 L 37.068811,17.246167 C 37.068811,17.246167 37.088388,32 37.088388,32 L 22.160133,31.978069 C 22.160133,31.978069 26.997745,27.140456 26.997745,27.140456 C 18.528582,18.264221 13.291696,25.230495 11.500037,31.436501 z"
             style="fill:#404040;"/>
          </a>
         </g>
        </svg>
</svg>
