<?xml version="1.0" encoding="UTF-8" standalone="no"?>
<!DOCTYPE svg PUBLIC "-//W3C//DTD SVG 1.1//EN"
 "http://www.w3.org/Graphics/SVG/1.1/DTD/svg11.dtd">
<!-- Generated by graphviz version 2.40.1 (0)
 -->
<!-- Title: ModelPart::author Pages: 1 -->
<svg width="927pt" height="177pt"
 viewBox="0.00 0.00 927.00 176.50" xmlns="http://www.w3.org/2000/svg" xmlns:xlink="http://www.w3.org/1999/xlink">
<g id="graph0" class="graph" transform="scale(1 1) rotate(0) translate(4 172.5)">
<title>ModelPart::author</title>
<polygon fill="#ffffff" stroke="transparent" points="-4,4 -4,-172.5 923,-172.5 923,4 -4,4"/>
<!-- Node176 -->
<g id="node1" class="node">
<title>Node176</title>
<g id="a_node1"><a xlink:title=" ">
<polygon fill="#bfbfbf" stroke="#000000" points="816,-105 816,-124 919,-124 919,-105 816,-105"/>
<text text-anchor="middle" x="867.5" y="-112" font-family="Helvetica,sans-Serif" font-size="10.00" fill="#000000">ModelPart::author</text>
</a>
</g>
</g>
<!-- Node177 -->
<g id="node2" class="node">
<title>Node177</title>
<g id="a_node2"><a xlink:href="../../db/d45/classPaletteModel.html#a001a71703d613a4c64475759ee1af0fd" target="_top" xlink:title=" ">
<polygon fill="#ffffff" stroke="#000000" points="654.5,-149 654.5,-168 773.5,-168 773.5,-149 654.5,-149"/>
<text text-anchor="middle" x="714" y="-156" font-family="Helvetica,sans-Serif" font-size="10.00" fill="#000000">PaletteModel::search</text>
</a>
</g>
</g>
<!-- Node176&#45;&gt;Node177 -->
<g id="edge1" class="edge">
<title>Node176&#45;&gt;Node177</title>
<path fill="none" stroke="#191970" d="M824.4461,-126.8412C799.9975,-133.8493 769.8571,-142.4888 747.2422,-148.9713"/>
<polygon fill="#191970" stroke="#191970" points="825.5444,-130.1674 834.1928,-124.0473 823.6155,-123.4384 825.5444,-130.1674"/>
</g>
<!-- Node178 -->
<g id="node3" class="node">
<title>Node178</title>
<g id="a_node3"><a xlink:href="../../d8/d1e/classPartsEditorMainWindow.html#a42a77222a2774a85f279d12d06701b46" target="_top" xlink:title=" ">
<polygon fill="#ffffff" stroke="#000000" points="648,-99.5 648,-129.5 780,-129.5 780,-99.5 648,-99.5"/>
<text text-anchor="start" x="656" y="-117.5" font-family="Helvetica,sans-Serif" font-size="10.00" fill="#000000">PartsEditorMainWindow</text>
<text text-anchor="middle" x="714" y="-106.5" font-family="Helvetica,sans-Serif" font-size="10.00" fill="#000000">::createCenter</text>
</a>
</g>
</g>
<!-- Node176&#45;&gt;Node178 -->
<g id="edge2" class="edge">
<title>Node176&#45;&gt;Node178</title>
<path fill="none" stroke="#191970" d="M805.8061,-114.5C797.3551,-114.5 788.6506,-114.5 780.1245,-114.5"/>
<polygon fill="#191970" stroke="#191970" points="805.9597,-118.0001 815.9597,-114.5 805.9597,-111.0001 805.9597,-118.0001"/>
</g>
<!-- Node180 -->
<g id="node5" class="node">
<title>Node180</title>
<g id="a_node5"><a xlink:href="../../d8/d0a/classSqliteReferenceModel.html#ab483166fc443a1d319b5b97032c47335" target="_top" xlink:title=" ">
<polygon fill="#ffffff" stroke="#000000" points="652,-50.5 652,-80.5 776,-80.5 776,-50.5 652,-50.5"/>
<text text-anchor="start" x="660" y="-68.5" font-family="Helvetica,sans-Serif" font-size="10.00" fill="#000000">SqliteReferenceModel</text>
<text text-anchor="middle" x="714" y="-57.5" font-family="Helvetica,sans-Serif" font-size="10.00" fill="#000000">::insertPart</text>
</a>
</g>
</g>
<!-- Node176&#45;&gt;Node180 -->
<g id="edge4" class="edge">
<title>Node176&#45;&gt;Node180</title>
<path fill="none" stroke="#191970" d="M827.9304,-101.8687C807.5267,-95.3554 782.5004,-87.3666 761.1056,-80.537"/>
<polygon fill="#191970" stroke="#191970" points="826.9485,-105.2292 837.5393,-104.936 829.0772,-98.5607 826.9485,-105.2292"/>
</g>
<!-- Node179 -->
<g id="node4" class="node">
<title>Node179</title>
<g id="a_node4"><a xlink:href="../../d8/d1e/classPartsEditorMainWindow.html#a885a6806433861f0e94147c3a40ddd57" target="_top" xlink:title=" ">
<polygon fill="#ffffff" stroke="#000000" points="480,-99.5 480,-129.5 612,-129.5 612,-99.5 480,-99.5"/>
<text text-anchor="start" x="488" y="-117.5" font-family="Helvetica,sans-Serif" font-size="10.00" fill="#000000">PartsEditorMainWindow</text>
<text text-anchor="middle" x="546" y="-106.5" font-family="Helvetica,sans-Serif" font-size="10.00" fill="#000000">::setup</text>
</a>
</g>
</g>
<!-- Node178&#45;&gt;Node179 -->
<g id="edge3" class="edge">
<title>Node178&#45;&gt;Node179</title>
<path fill="none" stroke="#191970" d="M637.4054,-114.5C628.9866,-114.5 620.4678,-114.5 612.1908,-114.5"/>
<polygon fill="#191970" stroke="#191970" points="637.602,-118.0001 647.602,-114.5 637.6019,-111.0001 637.602,-118.0001"/>
</g>
<!-- Node181 -->
<g id="node6" class="node">
<title>Node181</title>
<g id="a_node6"><a xlink:href="../../d8/d0a/classSqliteReferenceModel.html#afeee7099590c32d0617167e548ef7e0a" target="_top" xlink:title=" ">
<polygon fill="#ffffff" stroke="#000000" points="484,-50.5 484,-80.5 608,-80.5 608,-50.5 484,-50.5"/>
<text text-anchor="start" x="492" y="-68.5" font-family="Helvetica,sans-Serif" font-size="10.00" fill="#000000">SqliteReferenceModel</text>
<text text-anchor="middle" x="546" y="-57.5" font-family="Helvetica,sans-Serif" font-size="10.00" fill="#000000">::addPartAux</text>
</a>
</g>
</g>
<!-- Node180&#45;&gt;Node181 -->
<g id="edge5" class="edge">
<title>Node180&#45;&gt;Node181</title>
<path fill="none" stroke="#191970" d="M641.7382,-65.5C630.5385,-65.5 619.0549,-65.5 608.1048,-65.5"/>
<polygon fill="#191970" stroke="#191970" points="641.9203,-69.0001 651.9203,-65.5 641.9203,-62.0001 641.9203,-69.0001"/>
</g>
<!-- Node182 -->
<g id="node7" class="node">
<title>Node182</title>
<g id="a_node7"><a xlink:href="../../d8/d0a/classSqliteReferenceModel.html#abc9adafe41e252f96e24ad1dca67e1b1" target="_top" xlink:title=" ">
<polygon fill="#ffffff" stroke="#000000" points="320,-96.5 320,-126.5 444,-126.5 444,-96.5 320,-96.5"/>
<text text-anchor="start" x="328" y="-114.5" font-family="Helvetica,sans-Serif" font-size="10.00" fill="#000000">SqliteReferenceModel</text>
<text text-anchor="middle" x="382" y="-103.5" font-family="Helvetica,sans-Serif" font-size="10.00" fill="#000000">::createDatabase</text>
</a>
</g>
</g>
<!-- Node181&#45;&gt;Node182 -->
<g id="edge6" class="edge">
<title>Node181&#45;&gt;Node182</title>
<path fill="none" stroke="#191970" d="M482.2996,-83.3672C466.8433,-87.7025 450.473,-92.2942 435.5402,-96.4826"/>
<polygon fill="#191970" stroke="#191970" points="483.6171,-86.6328 492.3003,-80.5621 481.7266,-79.8929 483.6171,-86.6328"/>
</g>
<!-- Node184 -->
<g id="node9" class="node">
<title>Node184</title>
<g id="a_node9"><a xlink:href="../../d8/d0a/classSqliteReferenceModel.html#ae97517169faa56f9b07b361e93020fb6" target="_top" xlink:title=" ">
<polygon fill="#ffffff" stroke="#000000" points="160,-49.5 160,-79.5 284,-79.5 284,-49.5 160,-49.5"/>
<text text-anchor="start" x="168" y="-67.5" font-family="Helvetica,sans-Serif" font-size="10.00" fill="#000000">SqliteReferenceModel</text>
<text text-anchor="middle" x="222" y="-56.5" font-family="Helvetica,sans-Serif" font-size="10.00" fill="#000000">::addPart</text>
</a>
</g>
</g>
<!-- Node181&#45;&gt;Node184 -->
<g id="edge8" class="edge">
<title>Node181&#45;&gt;Node184</title>
<path fill="none" stroke="#191970" d="M473.9013,-65.2775C416.9626,-65.1017 338.341,-64.8591 284.1526,-64.6918"/>
<polygon fill="#191970" stroke="#191970" points="473.9021,-68.7774 483.9129,-65.3084 473.9238,-61.7774 473.9021,-68.7774"/>
</g>
<!-- Node186 -->
<g id="node11" class="node">
<title>Node186</title>
<g id="a_node11"><a xlink:href="../../d8/d0a/classSqliteReferenceModel.html#a51f200ea90a21478b0116eba822e800f" target="_top" xlink:title=" ">
<polygon fill="#ffffff" stroke="#000000" points="320,-6.5 320,-36.5 444,-36.5 444,-6.5 320,-6.5"/>
<text text-anchor="start" x="328" y="-24.5" font-family="Helvetica,sans-Serif" font-size="10.00" fill="#000000">SqliteReferenceModel</text>
<text text-anchor="middle" x="382" y="-13.5" font-family="Helvetica,sans-Serif" font-size="10.00" fill="#000000">::updatePart</text>
</a>
</g>
</g>
<!-- Node181&#45;&gt;Node186 -->
<g id="edge10" class="edge">
<title>Node181&#45;&gt;Node186</title>
<path fill="none" stroke="#191970" d="M480.0164,-47.7971C466.0904,-44.0608 451.5231,-40.1525 438.0068,-36.5262"/>
<polygon fill="#191970" stroke="#191970" points="479.4538,-51.2699 490.0192,-50.4808 481.2677,-44.509 479.4538,-51.2699"/>
</g>
<!-- Node183 -->
<g id="node8" class="node">
<title>Node183</title>
<g id="a_node8"><a xlink:href="../../d8/d0a/classSqliteReferenceModel.html#a495378ed31683dd343bd56441005a7f1" target="_top" xlink:title=" ">
<polygon fill="#ffffff" stroke="#000000" points="160,-98.5 160,-128.5 284,-128.5 284,-98.5 160,-98.5"/>
<text text-anchor="start" x="168" y="-116.5" font-family="Helvetica,sans-Serif" font-size="10.00" fill="#000000">SqliteReferenceModel</text>
<text text-anchor="middle" x="222" y="-105.5" font-family="Helvetica,sans-Serif" font-size="10.00" fill="#000000">::loadAll</text>
</a>
</g>
</g>
<!-- Node182&#45;&gt;Node183 -->
<g id="edge7" class="edge">
<title>Node182&#45;&gt;Node183</title>
<path fill="none" stroke="#191970" d="M309.4547,-112.4068C301.004,-112.5125 292.4413,-112.6195 284.1482,-112.7231"/>
<polygon fill="#191970" stroke="#191970" points="309.7262,-115.9038 319.6817,-112.279 309.6387,-108.9043 309.7262,-115.9038"/>
</g>
<!-- Node185 -->
<g id="node10" class="node">
<title>Node185</title>
<g id="a_node10"><a xlink:href="../../d8/d0a/classSqliteReferenceModel.html#ae998db3e9160ab3b9e0cfc7774b7c802" target="_top" xlink:title=" ">
<polygon fill="#ffffff" stroke="#000000" points="0,-49.5 0,-79.5 124,-79.5 124,-49.5 0,-49.5"/>
<text text-anchor="start" x="8" y="-67.5" font-family="Helvetica,sans-Serif" font-size="10.00" fill="#000000">SqliteReferenceModel</text>
<text text-anchor="middle" x="62" y="-56.5" font-family="Helvetica,sans-Serif" font-size="10.00" fill="#000000">::loadPart</text>
</a>
</g>
</g>
<!-- Node184&#45;&gt;Node185 -->
<g id="edge9" class="edge">
<title>Node184&#45;&gt;Node185</title>
<path fill="none" stroke="#191970" d="M149.4547,-64.5C141.004,-64.5 132.4413,-64.5 124.1482,-64.5"/>
<polygon fill="#191970" stroke="#191970" points="149.6817,-68.0001 159.6817,-64.5 149.6816,-61.0001 149.6817,-68.0001"/>
</g>
<!-- Node186&#45;&gt;Node184 -->
<g id="edge11" class="edge">
<title>Node186&#45;&gt;Node184</title>
<path fill="none" stroke="#191970" d="M316.0202,-39.2321C303.366,-42.6329 290.2287,-46.1635 277.9286,-49.4692"/>
<polygon fill="#191970" stroke="#191970" points="317.2909,-42.5149 326.0398,-36.5393 315.474,-35.7547 317.2909,-42.5149"/>
</g>
<!-- Node187 -->
<g id="node12" class="node">
<title>Node187</title>
<g id="a_node12"><a xlink:href="../../d8/d0a/classSqliteReferenceModel.html#aa1da56fc5df4ca446b9671595750f31b" target="_top" xlink:title=" ">
<polygon fill="#ffffff" stroke="#000000" points="160,-.5 160,-30.5 284,-30.5 284,-.5 160,-.5"/>
<text text-anchor="start" x="168" y="-18.5" font-family="Helvetica,sans-Serif" font-size="10.00" fill="#000000">SqliteReferenceModel</text>
<text text-anchor="middle" x="222" y="-7.5" font-family="Helvetica,sans-Serif" font-size="10.00" fill="#000000">::reloadPart</text>
</a>
</g>
</g>
<!-- Node186&#45;&gt;Node187 -->
<g id="edge12" class="edge">
<title>Node186&#45;&gt;Node187</title>
<path fill="none" stroke="#191970" d="M309.4547,-18.7796C301.004,-18.4626 292.4413,-18.1415 284.1482,-17.8306"/>
<polygon fill="#191970" stroke="#191970" points="309.5575,-22.2858 319.6817,-19.1631 309.8199,-15.2907 309.5575,-22.2858"/>
</g>
</g>
</svg>
