<?xml version="1.0" encoding="UTF-8" standalone="no"?>
<!DOCTYPE svg PUBLIC "-//W3C//DTD SVG 1.1//EN"
 "http://www.w3.org/Graphics/SVG/1.1/DTD/svg11.dtd">
<!-- Generated by graphviz version 2.40.1 (0)
 -->
<!-- Title: ModelPart::uri Pages: 1 -->
<svg width="428pt" height="39pt"
 viewBox="0.00 0.00 428.00 39.00" xmlns="http://www.w3.org/2000/svg" xmlns:xlink="http://www.w3.org/1999/xlink">
<g id="graph0" class="graph" transform="scale(1 1) rotate(0) translate(4 35)">
<title>ModelPart::uri</title>
<polygon fill="#ffffff" stroke="transparent" points="-4,4 -4,-35 424,-35 424,4 -4,4"/>
<!-- Node7670 -->
<g id="node1" class="node">
<title>Node7670</title>
<g id="a_node1"><a xlink:title=" ">
<polygon fill="#bfbfbf" stroke="#000000" points="336,-6 336,-25 420,-25 420,-6 336,-6"/>
<text text-anchor="middle" x="378" y="-13" font-family="Helvetica,sans-Serif" font-size="10.00" fill="#000000">ModelPart::uri</text>
</a>
</g>
</g>
<!-- Node7671 -->
<g id="node2" class="node">
<title>Node7671</title>
<g id="a_node2"><a xlink:href="../../d8/d1e/classPartsEditorMainWindow.html#a42a77222a2774a85f279d12d06701b46" target="_top" xlink:title=" ">
<polygon fill="#ffffff" stroke="#000000" points="168,-.5 168,-30.5 300,-30.5 300,-.5 168,-.5"/>
<text text-anchor="start" x="176" y="-18.5" font-family="Helvetica,sans-Serif" font-size="10.00" fill="#000000">PartsEditorMainWindow</text>
<text text-anchor="middle" x="234" y="-7.5" font-family="Helvetica,sans-Serif" font-size="10.00" fill="#000000">::createCenter</text>
</a>
</g>
</g>
<!-- Node7670&#45;&gt;Node7671 -->
<g id="edge1" class="edge">
<title>Node7670&#45;&gt;Node7671</title>
<path fill="none" stroke="#191970" d="M325.7059,-15.5C317.4207,-15.5 308.7583,-15.5 300.2056,-15.5"/>
<polygon fill="#191970" stroke="#191970" points="325.9622,-19.0001 335.9621,-15.5 325.9621,-12.0001 325.9622,-19.0001"/>
</g>
<!-- Node7672 -->
<g id="node3" class="node">
<title>Node7672</title>
<g id="a_node3"><a xlink:href="../../d8/d1e/classPartsEditorMainWindow.html#a885a6806433861f0e94147c3a40ddd57" target="_top" xlink:title=" ">
<polygon fill="#ffffff" stroke="#000000" points="0,-.5 0,-30.5 132,-30.5 132,-.5 0,-.5"/>
<text text-anchor="start" x="8" y="-18.5" font-family="Helvetica,sans-Serif" font-size="10.00" fill="#000000">PartsEditorMainWindow</text>
<text text-anchor="middle" x="66" y="-7.5" font-family="Helvetica,sans-Serif" font-size="10.00" fill="#000000">::setup</text>
</a>
</g>
</g>
<!-- Node7671&#45;&gt;Node7672 -->
<g id="edge2" class="edge">
<title>Node7671&#45;&gt;Node7672</title>
<path fill="none" stroke="#191970" d="M157.4054,-15.5C148.9866,-15.5 140.4678,-15.5 132.1908,-15.5"/>
<polygon fill="#191970" stroke="#191970" points="157.602,-19.0001 167.602,-15.5 157.6019,-12.0001 157.602,-19.0001"/>
</g>
</g>
</svg>
