<?xml version="1.0" encoding="UTF-8" standalone="no"?>
<!DOCTYPE svg PUBLIC "-//W3C//DTD SVG 1.1//EN"
 "http://www.w3.org/Graphics/SVG/1.1/DTD/svg11.dtd">
<!-- Generated by graphviz version 2.40.1 (0)
 -->
<!-- Title: ModelPart::description Pages: 1 -->
<!--zoomable 275 -->
<svg id="main" version="1.1" xmlns="http://www.w3.org/2000/svg" xmlns:xlink="http://www.w3.org/1999/xlink" xml:space="preserve" onload="init(evt)">
<style type="text/css"><![CDATA[
.edge:hover path { stroke: red; }
.edge:hover polygon { stroke: red; fill: red; }
]]></style>
<script type="text/javascript"><![CDATA[
var edges = document.getElementsByTagName('g');
if (edges && edges.length) {
  for (var i=0;i<edges.length;i++) {
    if (edges[i].id.substr(0,4)=='edge') {
      edges[i].setAttribute('class','edge');
    }
  }
}
]]></script>
        <defs>
                <circle id="rim" cx="0" cy="0" r="7"/>
                <circle id="rim2" cx="0" cy="0" r="3.5"/>
                <g id="zoomPlus">
                        <use xlink:href="#rim" fill="#404040">
                                <set attributeName="fill" to="#808080" begin="zoomplus.mouseover" end="zoomplus.mouseout"/>
                        </use>
                        <path d="M-4,0h8M0,-4v8" fill="none" stroke="white" stroke-width="1.5" pointer-events="none"/>
                </g>
                <g id="zoomMin">
                        <use xlink:href="#rim" fill="#404040">
                                <set attributeName="fill" to="#808080" begin="zoomminus.mouseover" end="zoomminus.mouseout"/>
                        </use>
                        <path d="M-4,0h8" fill="none" stroke="white" stroke-width="1.5" pointer-events="none"/>
                </g>
                <g id="dirArrow">
                        <path fill="none" stroke="white" stroke-width="1.5" d="M0,-3.0v7 M-2.5,-0.5L0,-3.0L2.5,-0.5"/>
                </g>
               <g id="resetDef">
                       <use xlink:href="#rim2" fill="#404040">
                               <set attributeName="fill" to="#808080" begin="reset.mouseover" end="reset.mouseout"/>
                       </use>
               </g>
        </defs>

<script type="text/javascript">
var viewWidth = 1028;
var viewHeight = 275;
var sectionId = 'dynsection-28';
</script>
<script xlink:href="../../svgpan.js"/>
<svg id="graph" class="graph">
<g id="viewport">
<title>ModelPart::description</title>
<polygon fill="#ffffff" stroke="transparent" points="-4,4 -4,-271 1024,-271 1024,4 -4,4"/>
<!-- Node1297 -->
<g id="node1" class="node">
<title>Node1297</title>
<g id="a_node1"><a xlink:title=" ">
<polygon fill="#bfbfbf" stroke="#000000" points="895,-149 895,-168 1020,-168 1020,-149 895,-149"/>
<text text-anchor="middle" x="957.5" y="-156" font-family="Helvetica,sans-Serif" font-size="10.00" fill="#000000">ModelPart::description</text>
</a>
</g>
</g>
<!-- Node1298 -->
<g id="node2" class="node">
<title>Node1298</title>
<g id="a_node2"><a xlink:href="../../db/d71/classHtmlInfoView.html#a92544e455aeabe80fe06518e8f4fb101" target="_top" xlink:title=" ">
<polygon fill="#ffffff" stroke="#000000" points="712,-236.5 712,-266.5 859,-266.5 859,-236.5 712,-236.5"/>
<text text-anchor="start" x="720" y="-254.5" font-family="Helvetica,sans-Serif" font-size="10.00" fill="#000000">HtmlInfoView::appendWire</text>
<text text-anchor="middle" x="785.5" y="-243.5" font-family="Helvetica,sans-Serif" font-size="10.00" fill="#000000">Stuff</text>
</a>
</g>
</g>
<!-- Node1297&#45;&gt;Node1298 -->
<g id="edge1" class="edge">
<title>Node1297&#45;&gt;Node1298</title>
<path fill="none" stroke="#191970" d="M938.159,-174.6612C919.0482,-189.9777 888.4786,-212.772 859,-227.5 852.3955,-230.7997 845.2363,-233.7894 838.0656,-236.4499"/>
<polygon fill="#191970" stroke="#191970" points="940.5429,-177.2336 946.0882,-168.2059 936.1235,-171.8051 940.5429,-177.2336"/>
</g>
<!-- Node1302 -->
<g id="node6" class="node">
<title>Node1302</title>
<g id="a_node6"><a xlink:href="../../db/d71/classHtmlInfoView.html#ac19b66c0d3fe4e3d0a63ad62517a7918" target="_top" xlink:title=" ">
<polygon fill="#ffffff" stroke="#000000" points="712,-187.5 712,-217.5 859,-217.5 859,-187.5 712,-187.5"/>
<text text-anchor="start" x="720" y="-205.5" font-family="Helvetica,sans-Serif" font-size="10.00" fill="#000000">HtmlInfoView::appendItem</text>
<text text-anchor="middle" x="785.5" y="-194.5" font-family="Helvetica,sans-Serif" font-size="10.00" fill="#000000">Stuff</text>
</a>
</g>
</g>
<!-- Node1297&#45;&gt;Node1302 -->
<g id="edge5" class="edge">
<title>Node1297&#45;&gt;Node1302</title>
<path fill="none" stroke="#191970" d="M910.4887,-170.5261C890.0866,-175.7453 865.971,-181.9144 844.3919,-187.4346"/>
<polygon fill="#191970" stroke="#191970" points="911.358,-173.9166 920.1786,-168.0473 909.6231,-167.1349 911.358,-173.9166"/>
</g>
<!-- Node1303 -->
<g id="node7" class="node">
<title>Node1303</title>
<g id="a_node7"><a xlink:href="../../db/d45/classPaletteModel.html#a001a71703d613a4c64475759ee1af0fd" target="_top" xlink:title=" ">
<polygon fill="#ffffff" stroke="#000000" points="726,-149 726,-168 845,-168 845,-149 726,-149"/>
<text text-anchor="middle" x="785.5" y="-156" font-family="Helvetica,sans-Serif" font-size="10.00" fill="#000000">PaletteModel::search</text>
</a>
</g>
</g>
<!-- Node1297&#45;&gt;Node1303 -->
<g id="edge6" class="edge">
<title>Node1297&#45;&gt;Node1303</title>
<path fill="none" stroke="#191970" d="M884.8979,-158.5C871.6565,-158.5 857.9807,-158.5 845.1679,-158.5"/>
<polygon fill="#191970" stroke="#191970" points="884.9175,-162.0001 894.9175,-158.5 884.9175,-155.0001 884.9175,-162.0001"/>
</g>
<!-- Node1304 -->
<g id="node8" class="node">
<title>Node1304</title>
<g id="a_node8"><a xlink:href="../../d8/d1e/classPartsEditorMainWindow.html#a42a77222a2774a85f279d12d06701b46" target="_top" xlink:title=" ">
<polygon fill="#ffffff" stroke="#000000" points="719.5,-99.5 719.5,-129.5 851.5,-129.5 851.5,-99.5 719.5,-99.5"/>
<text text-anchor="start" x="727.5" y="-117.5" font-family="Helvetica,sans-Serif" font-size="10.00" fill="#000000">PartsEditorMainWindow</text>
<text text-anchor="middle" x="785.5" y="-106.5" font-family="Helvetica,sans-Serif" font-size="10.00" fill="#000000">::createCenter</text>
</a>
</g>
</g>
<!-- Node1297&#45;&gt;Node1304 -->
<g id="edge7" class="edge">
<title>Node1297&#45;&gt;Node1304</title>
<path fill="none" stroke="#191970" d="M910.4887,-146.4739C890.0866,-141.2547 865.971,-135.0856 844.3919,-129.5654"/>
<polygon fill="#191970" stroke="#191970" points="909.6231,-149.8651 920.1786,-148.9527 911.358,-143.0834 909.6231,-149.8651"/>
</g>
<!-- Node1306 -->
<g id="node10" class="node">
<title>Node1306</title>
<g id="a_node10"><a xlink:href="../../d8/d0a/classSqliteReferenceModel.html#ab483166fc443a1d319b5b97032c47335" target="_top" xlink:title=" ">
<polygon fill="#ffffff" stroke="#000000" points="723.5,-50.5 723.5,-80.5 847.5,-80.5 847.5,-50.5 723.5,-50.5"/>
<text text-anchor="start" x="731.5" y="-68.5" font-family="Helvetica,sans-Serif" font-size="10.00" fill="#000000">SqliteReferenceModel</text>
<text text-anchor="middle" x="785.5" y="-57.5" font-family="Helvetica,sans-Serif" font-size="10.00" fill="#000000">::insertPart</text>
</a>
</g>
</g>
<!-- Node1297&#45;&gt;Node1306 -->
<g id="edge9" class="edge">
<title>Node1297&#45;&gt;Node1306</title>
<path fill="none" stroke="#191970" d="M938.0797,-142.6713C918.9104,-127.6493 888.2989,-105.2373 859,-90.5 851.7754,-86.8661 843.8999,-83.5622 836.0754,-80.6334"/>
<polygon fill="#191970" stroke="#191970" points="936.0311,-145.5139 946.0363,-148.9992 940.3883,-140.0353 936.0311,-145.5139"/>
</g>
<!-- Node1299 -->
<g id="node3" class="node">
<title>Node1299</title>
<g id="a_node3"><a xlink:href="../../db/d71/classHtmlInfoView.html#a557a8f00664ae9261205249cbd742968" target="_top" xlink:title=" ">
<polygon fill="#ffffff" stroke="#000000" points="529,-242 529,-261 676,-261 676,-242 529,-242"/>
<text text-anchor="middle" x="602.5" y="-249" font-family="Helvetica,sans-Serif" font-size="10.00" fill="#000000">HtmlInfoView::appendStuff</text>
</a>
</g>
</g>
<!-- Node1298&#45;&gt;Node1299 -->
<g id="edge2" class="edge">
<title>Node1298&#45;&gt;Node1299</title>
<path fill="none" stroke="#191970" d="M701.6125,-251.5C693.1616,-251.5 684.6235,-251.5 676.2893,-251.5"/>
<polygon fill="#191970" stroke="#191970" points="701.858,-255.0001 711.8579,-251.5 701.8579,-248.0001 701.858,-255.0001"/>
</g>
<!-- Node1300 -->
<g id="node4" class="node">
<title>Node1300</title>
<g id="a_node4"><a xlink:href="../../db/d71/classHtmlInfoView.html#a55e312abad38351736ffcb5d453f3a62" target="_top" xlink:title=" ">
<polygon fill="#ffffff" stroke="#000000" points="351,-242 351,-261 493,-261 493,-242 351,-242"/>
<text text-anchor="middle" x="422" y="-249" font-family="Helvetica,sans-Serif" font-size="10.00" fill="#000000">HtmlInfoView::setContent</text>
</a>
</g>
</g>
<!-- Node1299&#45;&gt;Node1300 -->
<g id="edge3" class="edge">
<title>Node1299&#45;&gt;Node1300</title>
<path fill="none" stroke="#191970" d="M518.7972,-251.5C510.2092,-251.5 501.5418,-251.5 493.1081,-251.5"/>
<polygon fill="#191970" stroke="#191970" points="518.8234,-255.0001 528.8234,-251.5 518.8234,-248.0001 518.8234,-255.0001"/>
</g>
<!-- Node1301 -->
<g id="node5" class="node">
<title>Node1301</title>
<g id="a_node5"><a xlink:href="../../db/d71/classHtmlInfoView.html#a692c7ff4ce8b8d1a44306219d7ecc1f0" target="_top" xlink:title=" ">
<polygon fill="#ffffff" stroke="#000000" points="160,-242 160,-261 315,-261 315,-242 160,-242"/>
<text text-anchor="middle" x="237.5" y="-249" font-family="Helvetica,sans-Serif" font-size="10.00" fill="#000000">HtmlInfoView::HtmlInfoView</text>
</a>
</g>
</g>
<!-- Node1300&#45;&gt;Node1301 -->
<g id="edge4" class="edge">
<title>Node1300&#45;&gt;Node1301</title>
<path fill="none" stroke="#191970" d="M340.7074,-251.5C332.2591,-251.5 323.6864,-251.5 315.2783,-251.5"/>
<polygon fill="#191970" stroke="#191970" points="340.9314,-255.0001 350.9314,-251.5 340.9314,-248.0001 340.9314,-255.0001"/>
</g>
<!-- Node1305 -->
<g id="node9" class="node">
<title>Node1305</title>
<g id="a_node9"><a xlink:href="../../d8/d1e/classPartsEditorMainWindow.html#a885a6806433861f0e94147c3a40ddd57" target="_top" xlink:title=" ">
<polygon fill="#ffffff" stroke="#000000" points="536.5,-99.5 536.5,-129.5 668.5,-129.5 668.5,-99.5 536.5,-99.5"/>
<text text-anchor="start" x="544.5" y="-117.5" font-family="Helvetica,sans-Serif" font-size="10.00" fill="#000000">PartsEditorMainWindow</text>
<text text-anchor="middle" x="602.5" y="-106.5" font-family="Helvetica,sans-Serif" font-size="10.00" fill="#000000">::setup</text>
</a>
</g>
</g>
<!-- Node1304&#45;&gt;Node1305 -->
<g id="edge8" class="edge">
<title>Node1304&#45;&gt;Node1305</title>
<path fill="none" stroke="#191970" d="M709.2604,-114.5C695.8165,-114.5 681.9204,-114.5 668.7774,-114.5"/>
<polygon fill="#191970" stroke="#191970" points="709.4328,-118.0001 719.4328,-114.5 709.4328,-111.0001 709.4328,-118.0001"/>
</g>
<!-- Node1307 -->
<g id="node11" class="node">
<title>Node1307</title>
<g id="a_node11"><a xlink:href="../../d8/d0a/classSqliteReferenceModel.html#afeee7099590c32d0617167e548ef7e0a" target="_top" xlink:title=" ">
<polygon fill="#ffffff" stroke="#000000" points="540.5,-50.5 540.5,-80.5 664.5,-80.5 664.5,-50.5 540.5,-50.5"/>
<text text-anchor="start" x="548.5" y="-68.5" font-family="Helvetica,sans-Serif" font-size="10.00" fill="#000000">SqliteReferenceModel</text>
<text text-anchor="middle" x="602.5" y="-57.5" font-family="Helvetica,sans-Serif" font-size="10.00" fill="#000000">::addPartAux</text>
</a>
</g>
</g>
<!-- Node1306&#45;&gt;Node1307 -->
<g id="edge10" class="edge">
<title>Node1306&#45;&gt;Node1307</title>
<path fill="none" stroke="#191970" d="M712.9076,-65.5C696.8995,-65.5 680.0841,-65.5 664.5387,-65.5"/>
<polygon fill="#191970" stroke="#191970" points="713.2892,-69.0001 723.2892,-65.5 713.2892,-62.0001 713.2892,-69.0001"/>
</g>
<!-- Node1308 -->
<g id="node12" class="node">
<title>Node1308</title>
<g id="a_node12"><a xlink:href="../../d8/d0a/classSqliteReferenceModel.html#abc9adafe41e252f96e24ad1dca67e1b1" target="_top" xlink:title=" ">
<polygon fill="#ffffff" stroke="#000000" points="360,-96.5 360,-126.5 484,-126.5 484,-96.5 360,-96.5"/>
<text text-anchor="start" x="368" y="-114.5" font-family="Helvetica,sans-Serif" font-size="10.00" fill="#000000">SqliteReferenceModel</text>
<text text-anchor="middle" x="422" y="-103.5" font-family="Helvetica,sans-Serif" font-size="10.00" fill="#000000">::createDatabase</text>
</a>
</g>
</g>
<!-- Node1307&#45;&gt;Node1308 -->
<g id="edge11" class="edge">
<title>Node1307&#45;&gt;Node1308</title>
<path fill="none" stroke="#191970" d="M533.3616,-83.1197C516.0663,-87.5274 497.6751,-92.2144 480.9268,-96.4826"/>
<polygon fill="#191970" stroke="#191970" points="534.5716,-86.4233 543.3975,-80.5621 532.8429,-79.6401 534.5716,-86.4233"/>
</g>
<!-- Node1310 -->
<g id="node14" class="node">
<title>Node1310</title>
<g id="a_node14"><a xlink:href="../../d8/d0a/classSqliteReferenceModel.html#ae97517169faa56f9b07b361e93020fb6" target="_top" xlink:title=" ">
<polygon fill="#ffffff" stroke="#000000" points="175.5,-49.5 175.5,-79.5 299.5,-79.5 299.5,-49.5 175.5,-49.5"/>
<text text-anchor="start" x="183.5" y="-67.5" font-family="Helvetica,sans-Serif" font-size="10.00" fill="#000000">SqliteReferenceModel</text>
<text text-anchor="middle" x="237.5" y="-56.5" font-family="Helvetica,sans-Serif" font-size="10.00" fill="#000000">::addPart</text>
</a>
</g>
</g>
<!-- Node1307&#45;&gt;Node1310 -->
<g id="edge13" class="edge">
<title>Node1307&#45;&gt;Node1310</title>
<path fill="none" stroke="#191970" d="M530.0558,-65.3015C462.6891,-65.117 363.3893,-64.8449 299.5739,-64.6701"/>
<polygon fill="#191970" stroke="#191970" points="530.1594,-68.8017 540.169,-65.3292 530.1787,-61.8017 530.1594,-68.8017"/>
</g>
<!-- Node1312 -->
<g id="node16" class="node">
<title>Node1312</title>
<g id="a_node16"><a xlink:href="../../d8/d0a/classSqliteReferenceModel.html#a51f200ea90a21478b0116eba822e800f" target="_top" xlink:title=" ">
<polygon fill="#ffffff" stroke="#000000" points="360,-6.5 360,-36.5 484,-36.5 484,-6.5 360,-6.5"/>
<text text-anchor="start" x="368" y="-24.5" font-family="Helvetica,sans-Serif" font-size="10.00" fill="#000000">SqliteReferenceModel</text>
<text text-anchor="middle" x="422" y="-13.5" font-family="Helvetica,sans-Serif" font-size="10.00" fill="#000000">::updatePart</text>
</a>
</g>
</g>
<!-- Node1307&#45;&gt;Node1312 -->
<g id="edge15" class="edge">
<title>Node1307&#45;&gt;Node1312</title>
<path fill="none" stroke="#191970" d="M530.7699,-48.0145C515.1738,-44.2127 498.8067,-40.223 483.6416,-36.5262"/>
<polygon fill="#191970" stroke="#191970" points="530.3425,-51.5128 540.887,-50.4808 532.0004,-44.7119 530.3425,-51.5128"/>
</g>
<!-- Node1309 -->
<g id="node13" class="node">
<title>Node1309</title>
<g id="a_node13"><a xlink:href="../../d8/d0a/classSqliteReferenceModel.html#a495378ed31683dd343bd56441005a7f1" target="_top" xlink:title=" ">
<polygon fill="#ffffff" stroke="#000000" points="175.5,-98.5 175.5,-128.5 299.5,-128.5 299.5,-98.5 175.5,-98.5"/>
<text text-anchor="start" x="183.5" y="-116.5" font-family="Helvetica,sans-Serif" font-size="10.00" fill="#000000">SqliteReferenceModel</text>
<text text-anchor="middle" x="237.5" y="-105.5" font-family="Helvetica,sans-Serif" font-size="10.00" fill="#000000">::loadAll</text>
</a>
</g>
</g>
<!-- Node1308&#45;&gt;Node1309 -->
<g id="edge12" class="edge">
<title>Node1308&#45;&gt;Node1309</title>
<path fill="none" stroke="#191970" d="M349.6593,-112.2842C333.1652,-112.463 315.7794,-112.6514 299.7498,-112.8252"/>
<polygon fill="#191970" stroke="#191970" points="349.8325,-115.7826 359.7939,-112.1743 349.7565,-108.783 349.8325,-115.7826"/>
</g>
<!-- Node1311 -->
<g id="node15" class="node">
<title>Node1311</title>
<g id="a_node15"><a xlink:href="../../d8/d0a/classSqliteReferenceModel.html#ae998db3e9160ab3b9e0cfc7774b7c802" target="_top" xlink:title=" ">
<polygon fill="#ffffff" stroke="#000000" points="0,-49.5 0,-79.5 124,-79.5 124,-49.5 0,-49.5"/>
<text text-anchor="start" x="8" y="-67.5" font-family="Helvetica,sans-Serif" font-size="10.00" fill="#000000">SqliteReferenceModel</text>
<text text-anchor="middle" x="62" y="-56.5" font-family="Helvetica,sans-Serif" font-size="10.00" fill="#000000">::loadPart</text>
</a>
</g>
</g>
<!-- Node1310&#45;&gt;Node1311 -->
<g id="edge14" class="edge">
<title>Node1310&#45;&gt;Node1311</title>
<path fill="none" stroke="#191970" d="M164.9038,-64.5C151.3744,-64.5 137.3493,-64.5 124.168,-64.5"/>
<polygon fill="#191970" stroke="#191970" points="165.1311,-68.0001 175.1311,-64.5 165.1311,-61.0001 165.1311,-68.0001"/>
</g>
<!-- Node1312&#45;&gt;Node1310 -->
<g id="edge16" class="edge">
<title>Node1312&#45;&gt;Node1310</title>
<path fill="none" stroke="#191970" d="M349.6593,-38.3599C333.1652,-42.204 315.7794,-46.256 299.7498,-49.9919"/>
<polygon fill="#191970" stroke="#191970" points="350.8494,-41.6764 359.7939,-35.9979 349.2605,-34.8591 350.8494,-41.6764"/>
</g>
<!-- Node1313 -->
<g id="node17" class="node">
<title>Node1313</title>
<g id="a_node17"><a xlink:href="../../d8/d0a/classSqliteReferenceModel.html#aa1da56fc5df4ca446b9671595750f31b" target="_top" xlink:title=" ">
<polygon fill="#ffffff" stroke="#000000" points="175.5,-.5 175.5,-30.5 299.5,-30.5 299.5,-.5 175.5,-.5"/>
<text text-anchor="start" x="183.5" y="-18.5" font-family="Helvetica,sans-Serif" font-size="10.00" fill="#000000">SqliteReferenceModel</text>
<text text-anchor="middle" x="237.5" y="-7.5" font-family="Helvetica,sans-Serif" font-size="10.00" fill="#000000">::reloadPart</text>
</a>
</g>
</g>
<!-- Node1312&#45;&gt;Node1313 -->
<g id="edge17" class="edge">
<title>Node1312&#45;&gt;Node1313</title>
<path fill="none" stroke="#191970" d="M349.6593,-19.1475C333.1652,-18.6111 315.7794,-18.0457 299.7498,-17.5244"/>
<polygon fill="#191970" stroke="#191970" points="349.6854,-22.6501 359.7939,-19.477 349.913,-15.6538 349.6854,-22.6501"/>
</g>
</g>
</svg>
        <g id="navigator" transform="translate(0 0)" fill="#404254">
                <rect fill="#f2f5e9" fill-opacity="0.5" stroke="#606060" stroke-width=".5" x="0" y="0" width="60" height="60"/>
                <use id="zoomplus" xlink:href="#zoomPlus" x="17" y="9" onmousedown="handleZoom(evt,'in')"/>
                <use id="zoomminus" xlink:href="#zoomMin" x="42" y="9" onmousedown="handleZoom(evt,'out')"/>
                <use id="reset" xlink:href="#resetDef" x="30" y="36" onmousedown="handleReset()"/>
                <g id="arrowUp" xlink:href="#dirArrow" transform="translate(30 24)" onmousedown="handlePan(0,-1)">
                  <use xlink:href="#rim" fill="#404040">
                        <set attributeName="fill" to="#808080" begin="arrowUp.mouseover" end="arrowUp.mouseout"/>
                  </use>
                  <path fill="none" stroke="white" stroke-width="1.5" d="M0,-3.0v7 M-2.5,-0.5L0,-3.0L2.5,-0.5"/>
                </g>
                <g id="arrowRight" xlink:href="#dirArrow" transform="rotate(90) translate(36 -43)" onmousedown="handlePan(1,0)">
                  <use xlink:href="#rim" fill="#404040">
                        <set attributeName="fill" to="#808080" begin="arrowRight.mouseover" end="arrowRight.mouseout"/>
                  </use>
                  <path fill="none" stroke="white" stroke-width="1.5" d="M0,-3.0v7 M-2.5,-0.5L0,-3.0L2.5,-0.5"/>
                </g>
                <g id="arrowDown" xlink:href="#dirArrow" transform="rotate(180) translate(-30 -48)" onmousedown="handlePan(0,1)">
                  <use xlink:href="#rim" fill="#404040">
                        <set attributeName="fill" to="#808080" begin="arrowDown.mouseover" end="arrowDown.mouseout"/>
                  </use>
                  <path fill="none" stroke="white" stroke-width="1.5" d="M0,-3.0v7 M-2.5,-0.5L0,-3.0L2.5,-0.5"/>
                </g>
                <g id="arrowLeft" xlink:href="#dirArrow" transform="rotate(270) translate(-36 17)" onmousedown="handlePan(-1,0)">
                  <use xlink:href="#rim" fill="#404040">
                        <set attributeName="fill" to="#808080" begin="arrowLeft.mouseover" end="arrowLeft.mouseout"/>
                  </use>
                  <path fill="none" stroke="white" stroke-width="1.5" d="M0,-3.0v7 M-2.5,-0.5L0,-3.0L2.5,-0.5"/>
                </g>
        </g>
        <svg viewBox="0 0 15 15" width="100%" height="30px" preserveAspectRatio="xMaxYMin meet">
         <g id="arrow_out" transform="scale(0.3 0.3)">
          <a xlink:href="classModelPart_a0fc95a3eea642f53736aa9d0510e9ab6_icgraph_org.svg" target="_base">
           <rect id="button" ry="5" rx="5" y="6" x="6" height="38" width="38"
                fill="#f2f5e9" fill-opacity="0.5" stroke="#606060" stroke-width="1.0"/>
           <path id="arrow"
             d="M 11.500037,31.436501 C 11.940474,20.09759 22.043105,11.32322 32.158766,21.979434 L 37.068811,17.246167 C 37.068811,17.246167 37.088388,32 37.088388,32 L 22.160133,31.978069 C 22.160133,31.978069 26.997745,27.140456 26.997745,27.140456 C 18.528582,18.264221 13.291696,25.230495 11.500037,31.436501 z"
             style="fill:#404040;"/>
          </a>
         </g>
        </svg>
</svg>
