<?xml version="1.0" encoding="UTF-8" standalone="no"?>
<!DOCTYPE svg PUBLIC "-//W3C//DTD SVG 1.1//EN"
 "http://www.w3.org/Graphics/SVG/1.1/DTD/svg11.dtd">
<!-- Generated by graphviz version 2.40.1 (0)
 -->
<!-- Title: ModelPartShared::date Pages: 1 -->
<svg width="1338pt" height="176pt"
 viewBox="0.00 0.00 1338.00 175.50" xmlns="http://www.w3.org/2000/svg" xmlns:xlink="http://www.w3.org/1999/xlink">
<g id="graph0" class="graph" transform="scale(1 1) rotate(0) translate(4 171.5)">
<title>ModelPartShared::date</title>
<polygon fill="#ffffff" stroke="transparent" points="-4,4 -4,-171.5 1334,-171.5 1334,4 -4,4"/>
<!-- Node300 -->
<g id="node1" class="node">
<title>Node300</title>
<g id="a_node1"><a xlink:title=" ">
<polygon fill="#bfbfbf" stroke="#000000" points="1203,-104 1203,-123 1330,-123 1330,-104 1203,-104"/>
<text text-anchor="middle" x="1266.5" y="-111" font-family="Helvetica,sans-Serif" font-size="10.00" fill="#000000">ModelPartShared::date</text>
</a>
</g>
</g>
<!-- Node301 -->
<g id="node2" class="node">
<title>Node301</title>
<g id="a_node2"><a xlink:href="../../d9/d6c/classModelPartShared.html#a8f72a4083b8c8946eedb8c1b900d61d9" target="_top" xlink:title=" ">
<polygon fill="#ffffff" stroke="#000000" points="1022,-104 1022,-123 1165,-123 1165,-104 1022,-104"/>
<text text-anchor="middle" x="1093.5" y="-111" font-family="Helvetica,sans-Serif" font-size="10.00" fill="#000000">ModelPartShared::setDate</text>
</a>
</g>
</g>
<!-- Node300&#45;&gt;Node301 -->
<g id="edge1" class="edge">
<title>Node300&#45;&gt;Node301</title>
<path fill="none" stroke="#191970" d="M1192.422,-113.5C1183.3418,-113.5 1174.0751,-113.5 1165.0335,-113.5"/>
<polygon fill="#191970" stroke="#191970" points="1192.5727,-117.0001 1202.5727,-113.5 1192.5727,-110.0001 1192.5727,-117.0001"/>
</g>
<!-- Node302 -->
<g id="node3" class="node">
<title>Node302</title>
<g id="a_node3"><a xlink:href="../../d9/d6c/classModelPartShared.html#a505b28d93bdc76a5572f3b01a073ff44" target="_top" xlink:title=" ">
<polygon fill="#ffffff" stroke="#000000" points="848,-148 848,-167 976,-167 976,-148 848,-148"/>
<text text-anchor="middle" x="912" y="-155" font-family="Helvetica,sans-Serif" font-size="10.00" fill="#000000">ModelPartShared::copy</text>
</a>
</g>
</g>
<!-- Node300&#45;&gt;Node302 -->
<g id="edge13" class="edge">
<title>Node300&#45;&gt;Node302</title>
<path fill="none" stroke="#191970" d="M1210.9086,-125.0405C1196.6406,-127.7478 1181.2869,-130.4399 1167,-132.5 1102.2792,-141.8322 1027.8058,-148.6902 976.1202,-152.8383"/>
<polygon fill="#191970" stroke="#191970" points="1211.9211,-128.4097 1221.0752,-123.0754 1210.5926,-121.5369 1211.9211,-128.4097"/>
</g>
<!-- Node312 -->
<g id="node13" class="node">
<title>Node312</title>
<g id="a_node13"><a xlink:href="../../d1/dd3/classPartInfoWidget.html#a731b9ebad0fce31213078573e2d40f22" target="_top" xlink:title=" ">
<polygon fill="#ffffff" stroke="#000000" points="1020,-66 1020,-85 1167,-85 1167,-66 1020,-66"/>
<text text-anchor="middle" x="1093.5" y="-73" font-family="Helvetica,sans-Serif" font-size="10.00" fill="#000000">PartInfoWidget::updateInfo</text>
</a>
</g>
</g>
<!-- Node300&#45;&gt;Node312 -->
<g id="edge14" class="edge">
<title>Node300&#45;&gt;Node312</title>
<path fill="none" stroke="#191970" d="M1212.9949,-101.7474C1188.5327,-96.3742 1159.9293,-90.0914 1136.8413,-85.0201"/>
<polygon fill="#191970" stroke="#191970" points="1212.3267,-105.184 1222.8448,-103.911 1213.8286,-98.347 1212.3267,-105.184"/>
</g>
<!-- Node301&#45;&gt;Node302 -->
<g id="edge2" class="edge">
<title>Node301&#45;&gt;Node302</title>
<path fill="none" stroke="#191970" d="M1044.1279,-125.469C1014.9543,-132.5414 978.5214,-141.3736 951.3059,-147.9713"/>
<polygon fill="#191970" stroke="#191970" points="1045.2233,-128.8049 1054.1172,-123.0473 1043.5741,-122.0019 1045.2233,-128.8049"/>
</g>
<!-- Node304 -->
<g id="node5" class="node">
<title>Node304</title>
<g id="a_node5"><a xlink:href="../../d1/dd3/classPartInfoWidget.html#aa0e8d9592431529c64a524ed67dc61ae" target="_top" xlink:title=" ">
<polygon fill="#ffffff" stroke="#000000" points="840,-98.5 840,-128.5 984,-128.5 984,-98.5 840,-98.5"/>
<text text-anchor="start" x="848" y="-116.5" font-family="Helvetica,sans-Serif" font-size="10.00" fill="#000000">PartInfoWidget::modelPart</text>
<text text-anchor="middle" x="912" y="-105.5" font-family="Helvetica,sans-Serif" font-size="10.00" fill="#000000">Shared</text>
</a>
</g>
</g>
<!-- Node301&#45;&gt;Node304 -->
<g id="edge4" class="edge">
<title>Node301&#45;&gt;Node304</title>
<path fill="none" stroke="#191970" d="M1011.5152,-113.5C1002.3727,-113.5 993.1105,-113.5 984.1043,-113.5"/>
<polygon fill="#191970" stroke="#191970" points="1011.7664,-117.0001 1021.7664,-113.5 1011.7664,-110.0001 1011.7664,-117.0001"/>
</g>
<!-- Node305 -->
<g id="node6" class="node">
<title>Node305</title>
<g id="a_node6"><a xlink:href="../../d8/d1e/classPartsEditorMainWindow.html#abab1ddbae83a21c9cb1aeea61d874e62" target="_top" xlink:title=" ">
<polygon fill="#ffffff" stroke="#000000" points="844,-49.5 844,-79.5 980,-79.5 980,-49.5 844,-49.5"/>
<text text-anchor="start" x="852" y="-67.5" font-family="Helvetica,sans-Serif" font-size="10.00" fill="#000000">PartsEditorMainWindow</text>
<text text-anchor="middle" x="912" y="-56.5" font-family="Helvetica,sans-Serif" font-size="10.00" fill="#000000">::createModelPartShared</text>
</a>
</g>
</g>
<!-- Node301&#45;&gt;Node305 -->
<g id="edge5" class="edge">
<title>Node301&#45;&gt;Node305</title>
<path fill="none" stroke="#191970" d="M1046.3537,-101.4465C1037.5861,-99.167 1028.5094,-96.7815 1020,-94.5 1002.2377,-89.7376 982.8724,-84.4033 965.5079,-79.5682"/>
<polygon fill="#191970" stroke="#191970" points="1045.5164,-104.8451 1056.0745,-103.964 1047.2714,-98.0686 1045.5164,-104.8451"/>
</g>
<!-- Node311 -->
<g id="node12" class="node">
<title>Node311</title>
<g id="a_node12"><a xlink:href="../../d8/d0a/classSqliteReferenceModel.html#a1ac2032bc655c193c0352776b4446b37" target="_top" xlink:title=" ">
<polygon fill="#ffffff" stroke="#000000" points="850,-.5 850,-30.5 974,-30.5 974,-.5 850,-.5"/>
<text text-anchor="start" x="858" y="-18.5" font-family="Helvetica,sans-Serif" font-size="10.00" fill="#000000">SqliteReferenceModel</text>
<text text-anchor="middle" x="912" y="-7.5" font-family="Helvetica,sans-Serif" font-size="10.00" fill="#000000">::loadFromDB</text>
</a>
</g>
</g>
<!-- Node301&#45;&gt;Node311 -->
<g id="edge12" class="edge">
<title>Node301&#45;&gt;Node311</title>
<path fill="none" stroke="#191970" d="M1028.7052,-99.7633C1025.6625,-98.1946 1022.7395,-96.447 1020,-94.5 996.4887,-77.7902 1006.8134,-58.1507 984,-40.5 979.0812,-36.6944 973.5417,-33.4435 967.7751,-30.6718"/>
<polygon fill="#191970" stroke="#191970" points="1027.5695,-103.0886 1038.1291,-103.9528 1030.4132,-96.6922 1027.5695,-103.0886"/>
</g>
<!-- Node303 -->
<g id="node4" class="node">
<title>Node303</title>
<g id="a_node4"><a xlink:href="../../d4/d72/classModelPart.html#adf7da7f6e9d337041488778723bc8cda" target="_top" xlink:title=" ">
<polygon fill="#ffffff" stroke="#000000" points="679.5,-148 679.5,-167 796.5,-167 796.5,-148 679.5,-148"/>
<text text-anchor="middle" x="738" y="-155" font-family="Helvetica,sans-Serif" font-size="10.00" fill="#000000">ModelPart::copyStuff</text>
</a>
</g>
</g>
<!-- Node302&#45;&gt;Node303 -->
<g id="edge3" class="edge">
<title>Node302&#45;&gt;Node303</title>
<path fill="none" stroke="#191970" d="M837.3709,-157.5C823.7239,-157.5 809.6623,-157.5 796.5665,-157.5"/>
<polygon fill="#191970" stroke="#191970" points="837.7032,-161.0001 847.7032,-157.5 837.7032,-154.0001 837.7032,-161.0001"/>
</g>
<!-- Node306 -->
<g id="node7" class="node">
<title>Node306</title>
<g id="a_node7"><a xlink:href="../../d8/d1e/classPartsEditorMainWindow.html#a3d0a26dee240861e2fb072d78fd6c2e5" target="_top" xlink:title=" ">
<polygon fill="#ffffff" stroke="#000000" points="672,-49.5 672,-79.5 804,-79.5 804,-49.5 672,-49.5"/>
<text text-anchor="start" x="680" y="-67.5" font-family="Helvetica,sans-Serif" font-size="10.00" fill="#000000">PartsEditorMainWindow</text>
<text text-anchor="middle" x="738" y="-56.5" font-family="Helvetica,sans-Serif" font-size="10.00" fill="#000000">::saveAsAux</text>
</a>
</g>
</g>
<!-- Node305&#45;&gt;Node306 -->
<g id="edge6" class="edge">
<title>Node305&#45;&gt;Node306</title>
<path fill="none" stroke="#191970" d="M833.5454,-64.5C823.7005,-64.5 813.7083,-64.5 804.0795,-64.5"/>
<polygon fill="#191970" stroke="#191970" points="833.73,-68.0001 843.73,-64.5 833.73,-61.0001 833.73,-68.0001"/>
</g>
<!-- Node307 -->
<g id="node8" class="node">
<title>Node307</title>
<g id="a_node8"><a xlink:href="../../d8/d1e/classPartsEditorMainWindow.html#afd37d85939cef741cafde39167576d92" target="_top" xlink:title=" ">
<polygon fill="#ffffff" stroke="#000000" points="504,-49.5 504,-79.5 636,-79.5 636,-49.5 504,-49.5"/>
<text text-anchor="start" x="512" y="-67.5" font-family="Helvetica,sans-Serif" font-size="10.00" fill="#000000">PartsEditorMainWindow</text>
<text text-anchor="middle" x="570" y="-56.5" font-family="Helvetica,sans-Serif" font-size="10.00" fill="#000000">::saveAs</text>
</a>
</g>
</g>
<!-- Node306&#45;&gt;Node307 -->
<g id="edge7" class="edge">
<title>Node306&#45;&gt;Node307</title>
<path fill="none" stroke="#191970" d="M661.4054,-64.5C652.9866,-64.5 644.4678,-64.5 636.1908,-64.5"/>
<polygon fill="#191970" stroke="#191970" points="661.602,-68.0001 671.602,-64.5 661.6019,-61.0001 661.602,-68.0001"/>
</g>
<!-- Node308 -->
<g id="node9" class="node">
<title>Node308</title>
<g id="a_node9"><a xlink:href="../../d8/d1e/classPartsEditorMainWindow.html#a1147fc07e5a6fe06f916151f99abdf7f" target="_top" xlink:title=" ">
<polygon fill="#ffffff" stroke="#000000" points="168,-49.5 168,-79.5 300,-79.5 300,-49.5 168,-49.5"/>
<text text-anchor="start" x="176" y="-67.5" font-family="Helvetica,sans-Serif" font-size="10.00" fill="#000000">PartsEditorMainWindow</text>
<text text-anchor="middle" x="234" y="-56.5" font-family="Helvetica,sans-Serif" font-size="10.00" fill="#000000">::createFooter</text>
</a>
</g>
</g>
<!-- Node307&#45;&gt;Node308 -->
<g id="edge8" class="edge">
<title>Node307&#45;&gt;Node308</title>
<path fill="none" stroke="#191970" d="M493.7426,-66.988C485.0612,-67.1984 476.3395,-67.3774 468,-67.5 409.3397,-68.3625 394.6603,-68.3625 336,-67.5 324.3973,-67.3294 312.0546,-67.0497 300.1101,-66.7279"/>
<polygon fill="#191970" stroke="#191970" points="493.9829,-70.483 503.8899,-66.7279 493.8035,-63.4853 493.9829,-70.483"/>
</g>
<!-- Node310 -->
<g id="node11" class="node">
<title>Node310</title>
<g id="a_node11"><a xlink:href="../../d8/d1e/classPartsEditorMainWindow.html#a85d13fc0258c3c30d929cdbe51b588d3" target="_top" xlink:title=" ">
<polygon fill="#ffffff" stroke="#000000" points="336,-27.5 336,-57.5 468,-57.5 468,-27.5 336,-27.5"/>
<text text-anchor="start" x="344" y="-45.5" font-family="Helvetica,sans-Serif" font-size="10.00" fill="#000000">PartsEditorMainWindow</text>
<text text-anchor="middle" x="402" y="-34.5" font-family="Helvetica,sans-Serif" font-size="10.00" fill="#000000">::save</text>
</a>
</g>
</g>
<!-- Node307&#45;&gt;Node310 -->
<g id="edge10" class="edge">
<title>Node307&#45;&gt;Node310</title>
<path fill="none" stroke="#191970" d="M493.6829,-54.5061C485.1738,-53.3918 476.5587,-52.2636 468.1908,-51.1678"/>
<polygon fill="#191970" stroke="#191970" points="493.2321,-57.9769 503.602,-55.805 494.1411,-51.0361 493.2321,-57.9769"/>
</g>
<!-- Node309 -->
<g id="node10" class="node">
<title>Node309</title>
<g id="a_node10"><a xlink:href="../../d8/d1e/classPartsEditorMainWindow.html#a885a6806433861f0e94147c3a40ddd57" target="_top" xlink:title=" ">
<polygon fill="#ffffff" stroke="#000000" points="0,-49.5 0,-79.5 132,-79.5 132,-49.5 0,-49.5"/>
<text text-anchor="start" x="8" y="-67.5" font-family="Helvetica,sans-Serif" font-size="10.00" fill="#000000">PartsEditorMainWindow</text>
<text text-anchor="middle" x="66" y="-56.5" font-family="Helvetica,sans-Serif" font-size="10.00" fill="#000000">::setup</text>
</a>
</g>
</g>
<!-- Node308&#45;&gt;Node309 -->
<g id="edge9" class="edge">
<title>Node308&#45;&gt;Node309</title>
<path fill="none" stroke="#191970" d="M157.4054,-64.5C148.9866,-64.5 140.4678,-64.5 132.1908,-64.5"/>
<polygon fill="#191970" stroke="#191970" points="157.602,-68.0001 167.602,-64.5 157.6019,-61.0001 157.602,-68.0001"/>
</g>
<!-- Node310&#45;&gt;Node308 -->
<g id="edge11" class="edge">
<title>Node310&#45;&gt;Node308</title>
<path fill="none" stroke="#191970" d="M325.6829,-52.4939C317.1738,-53.6082 308.5587,-54.7364 300.1908,-55.8322"/>
<polygon fill="#191970" stroke="#191970" points="326.1411,-55.9639 335.602,-51.195 325.2321,-49.0231 326.1411,-55.9639"/>
</g>
</g>
</svg>
