<?xml version="1.0" encoding="UTF-8" standalone="no"?>
<!DOCTYPE svg PUBLIC "-//W3C//DTD SVG 1.1//EN"
 "http://www.w3.org/Graphics/SVG/1.1/DTD/svg11.dtd">
<!-- Generated by graphviz version 2.40.1 (0)
 -->
<!-- Title: ModelPartShared::setTitle Pages: 1 -->
<svg width="2385pt" height="746pt"
 viewBox="0.00 0.00 2385.00 745.50" xmlns="http://www.w3.org/2000/svg" xmlns:xlink="http://www.w3.org/1999/xlink">
<g id="graph0" class="graph" transform="scale(1 1) rotate(0) translate(4 741.5)">
<title>ModelPartShared::setTitle</title>
<polygon fill="#ffffff" stroke="transparent" points="-4,4 -4,-741.5 2381,-741.5 2381,4 -4,4"/>
<!-- Node1797 -->
<g id="node1" class="node">
<title>Node1797</title>
<g id="a_node1"><a xlink:title=" ">
<polygon fill="#bfbfbf" stroke="#000000" points="2235,-128 2235,-147 2377,-147 2377,-128 2235,-128"/>
<text text-anchor="middle" x="2306" y="-135" font-family="Helvetica,sans-Serif" font-size="10.00" fill="#000000">ModelPartShared::setTitle</text>
</a>
</g>
</g>
<!-- Node1798 -->
<g id="node2" class="node">
<title>Node1798</title>
<g id="a_node2"><a xlink:href="../../d0/d49/classModelBase.html#a7d443891255ff57a785ccb5b908071d2" target="_top" xlink:title=" ">
<polygon fill="#ffffff" stroke="#000000" points="2057,-274 2057,-293 2197,-293 2197,-274 2057,-274"/>
<text text-anchor="middle" x="2127" y="-281" font-family="Helvetica,sans-Serif" font-size="10.00" fill="#000000">ModelBase::loadFromFile</text>
</a>
</g>
</g>
<!-- Node1797&#45;&gt;Node1798 -->
<g id="edge1" class="edge">
<title>Node1797&#45;&gt;Node1798</title>
<path fill="none" stroke="#191970" d="M2286.7519,-153.4289C2265.3687,-171.1017 2229.7946,-200.4345 2199,-225.5 2178.0861,-242.523 2153.6139,-262.1818 2139.2605,-273.6858"/>
<polygon fill="#191970" stroke="#191970" points="2288.9965,-156.1145 2294.4729,-147.0447 2284.5358,-150.7198 2288.9965,-156.1145"/>
</g>
<!-- Node1830 -->
<g id="node34" class="node">
<title>Node1830</title>
<g id="a_node34"><a xlink:href="../../d9/d6c/classModelPartShared.html#a505b28d93bdc76a5572f3b01a073ff44" target="_top" xlink:title=" ">
<polygon fill="#ffffff" stroke="#000000" points="2063,-197 2063,-216 2191,-216 2191,-197 2063,-197"/>
<text text-anchor="middle" x="2127" y="-204" font-family="Helvetica,sans-Serif" font-size="10.00" fill="#000000">ModelPartShared::copy</text>
</a>
</g>
</g>
<!-- Node1797&#45;&gt;Node1830 -->
<g id="edge48" class="edge">
<title>Node1797&#45;&gt;Node1830</title>
<path fill="none" stroke="#191970" d="M2279.1639,-151.6831C2257.8587,-162.5377 2227.0862,-177.3249 2199,-187.5 2189.2761,-191.0228 2178.5984,-194.1993 2168.5126,-196.9019"/>
<polygon fill="#191970" stroke="#191970" points="2280.9579,-154.6961 2288.243,-147.0033 2277.7507,-148.474 2280.9579,-154.6961"/>
</g>
<!-- Node1832 -->
<g id="node36" class="node">
<title>Node1832</title>
<g id="a_node36"><a xlink:href="../../de/d4e/classPartsBinPaletteWidget.html#af51c1e8020c2dbc55eb25ca20b5dd648" target="_top" xlink:title=" ">
<polygon fill="#ffffff" stroke="#000000" points="2064.5,-147.5 2064.5,-177.5 2189.5,-177.5 2189.5,-147.5 2064.5,-147.5"/>
<text text-anchor="start" x="2072.5" y="-165.5" font-family="Helvetica,sans-Serif" font-size="10.00" fill="#000000">PartsBinPaletteWidget</text>
<text text-anchor="middle" x="2127" y="-154.5" font-family="Helvetica,sans-Serif" font-size="10.00" fill="#000000">::changeIconColor</text>
</a>
</g>
</g>
<!-- Node1797&#45;&gt;Node1832 -->
<g id="edge50" class="edge">
<title>Node1797&#45;&gt;Node1832</title>
<path fill="none" stroke="#191970" d="M2227.708,-148.4346C2214.9958,-150.2101 2201.9772,-152.0283 2189.6998,-153.743"/>
<polygon fill="#191970" stroke="#191970" points="2228.3974,-151.8724 2237.8171,-147.0227 2227.4291,-144.9397 2228.3974,-151.8724"/>
</g>
<!-- Node1836 -->
<g id="node40" class="node">
<title>Node1836</title>
<g id="a_node40"><a xlink:href="../../d1/dd3/classPartInfoWidget.html#aa0e8d9592431529c64a524ed67dc61ae" target="_top" xlink:title=" ">
<polygon fill="#ffffff" stroke="#000000" points="2055,-98.5 2055,-128.5 2199,-128.5 2199,-98.5 2055,-98.5"/>
<text text-anchor="start" x="2063" y="-116.5" font-family="Helvetica,sans-Serif" font-size="10.00" fill="#000000">PartInfoWidget::modelPart</text>
<text text-anchor="middle" x="2127" y="-105.5" font-family="Helvetica,sans-Serif" font-size="10.00" fill="#000000">Shared</text>
</a>
</g>
</g>
<!-- Node1797&#45;&gt;Node1836 -->
<g id="edge54" class="edge">
<title>Node1797&#45;&gt;Node1836</title>
<path fill="none" stroke="#191970" d="M2224.9449,-126.6323C2216.3239,-125.4764 2207.5974,-124.3064 2199.0893,-123.1656"/>
<polygon fill="#191970" stroke="#191970" points="2224.6209,-130.1201 2234.9974,-127.9801 2225.5512,-123.1822 2224.6209,-130.1201"/>
</g>
<!-- Node1837 -->
<g id="node41" class="node">
<title>Node1837</title>
<g id="a_node41"><a xlink:href="../../d8/d1e/classPartsEditorMainWindow.html#abab1ddbae83a21c9cb1aeea61d874e62" target="_top" xlink:title=" ">
<polygon fill="#ffffff" stroke="#000000" points="2059,-49.5 2059,-79.5 2195,-79.5 2195,-49.5 2059,-49.5"/>
<text text-anchor="start" x="2067" y="-67.5" font-family="Helvetica,sans-Serif" font-size="10.00" fill="#000000">PartsEditorMainWindow</text>
<text text-anchor="middle" x="2127" y="-56.5" font-family="Helvetica,sans-Serif" font-size="10.00" fill="#000000">::createModelPartShared</text>
</a>
</g>
</g>
<!-- Node1797&#45;&gt;Node1837 -->
<g id="edge55" class="edge">
<title>Node1797&#45;&gt;Node1837</title>
<path fill="none" stroke="#191970" d="M2276.9346,-123.6314C2255.5795,-113.646 2225.748,-100.1197 2199,-89.5 2190.3912,-86.0821 2181.1071,-82.6641 2172.1606,-79.5017"/>
<polygon fill="#191970" stroke="#191970" points="2275.5698,-126.8572 2286.1084,-127.9469 2278.5495,-120.5231 2275.5698,-126.8572"/>
</g>
<!-- Node1843 -->
<g id="node47" class="node">
<title>Node1843</title>
<g id="a_node47"><a xlink:href="../../d8/d0a/classSqliteReferenceModel.html#a1ac2032bc655c193c0352776b4446b37" target="_top" xlink:title=" ">
<polygon fill="#ffffff" stroke="#000000" points="2065,-.5 2065,-30.5 2189,-30.5 2189,-.5 2065,-.5"/>
<text text-anchor="start" x="2073" y="-18.5" font-family="Helvetica,sans-Serif" font-size="10.00" fill="#000000">SqliteReferenceModel</text>
<text text-anchor="middle" x="2127" y="-7.5" font-family="Helvetica,sans-Serif" font-size="10.00" fill="#000000">::loadFromDB</text>
</a>
</g>
</g>
<!-- Node1797&#45;&gt;Node1843 -->
<g id="edge62" class="edge">
<title>Node1797&#45;&gt;Node1843</title>
<path fill="none" stroke="#191970" d="M2291.407,-120.2539C2272.2359,-98.5935 2236.5712,-61.5963 2199,-39.5 2193.3212,-36.1602 2187.1141,-33.2095 2180.8017,-30.6233"/>
<polygon fill="#191970" stroke="#191970" points="2288.9348,-122.745 2298.1355,-127.9982 2294.219,-118.1539 2288.9348,-122.745"/>
</g>
<!-- Node1799 -->
<g id="node3" class="node">
<title>Node1799</title>
<g id="a_node3"><a xlink:href="../../db/d45/classPaletteModel.html#af56a40d13dac4b054ae4b075dd052662" target="_top" xlink:title=" ">
<polygon fill="#ffffff" stroke="#000000" points="1870,-313 1870,-332 2019,-332 2019,-313 1870,-313"/>
<text text-anchor="middle" x="1944.5" y="-320" font-family="Helvetica,sans-Serif" font-size="10.00" fill="#000000">PaletteModel::loadFromFile</text>
</a>
</g>
</g>
<!-- Node1798&#45;&gt;Node1799 -->
<g id="edge2" class="edge">
<title>Node1798&#45;&gt;Node1799</title>
<path fill="none" stroke="#191970" d="M2072.4159,-295.1646C2045.7803,-300.8565 2014.1453,-307.6169 1988.9995,-312.9905"/>
<polygon fill="#191970" stroke="#191970" points="2073.3077,-298.5531 2082.3555,-293.0405 2071.8448,-291.7076 2073.3077,-298.5531"/>
</g>
<!-- Node1800 -->
<g id="node4" class="node">
<title>Node1800</title>
<g id="a_node4"><a xlink:href="../../de/d4e/classPartsBinPaletteWidget.html#a124eecfe4b267f5ab8e414be35a0e37c" target="_top" xlink:title=" ">
<polygon fill="#ffffff" stroke="#000000" points="1685,-327.5 1685,-357.5 1810,-357.5 1810,-327.5 1685,-327.5"/>
<text text-anchor="start" x="1693" y="-345.5" font-family="Helvetica,sans-Serif" font-size="10.00" fill="#000000">PartsBinPaletteWidget</text>
<text text-anchor="middle" x="1747.5" y="-334.5" font-family="Helvetica,sans-Serif" font-size="10.00" fill="#000000">::load</text>
</a>
</g>
</g>
<!-- Node1799&#45;&gt;Node1800 -->
<g id="edge3" class="edge">
<title>Node1799&#45;&gt;Node1800</title>
<path fill="none" stroke="#191970" d="M1859.4813,-331.1313C1842.866,-332.8182 1825.7292,-334.5579 1810.0102,-336.1538"/>
<polygon fill="#191970" stroke="#191970" points="1860.1465,-334.5819 1869.7418,-330.0897 1859.4394,-327.6177 1860.1465,-334.5819"/>
</g>
<!-- Node1801 -->
<g id="node5" class="node">
<title>Node1801</title>
<g id="a_node5"><a xlink:href="../../d3/d50/classBinManager.html#a2d5d445330cf9de93768d92ea7ce8d5a" target="_top" xlink:title=" ">
<polygon fill="#ffffff" stroke="#000000" points="489,-279 489,-298 650,-298 650,-279 489,-279"/>
<text text-anchor="middle" x="569.5" y="-286" font-family="Helvetica,sans-Serif" font-size="10.00" fill="#000000">BinManager::initStandardBins</text>
</a>
</g>
</g>
<!-- Node1800&#45;&gt;Node1801 -->
<g id="edge4" class="edge">
<title>Node1800&#45;&gt;Node1801</title>
<path fill="none" stroke="#191970" d="M1728.7599,-319.5851C1706.6481,-294.1124 1667.4807,-253.6514 1625,-231.5 1519.0768,-176.2668 1482.4589,-171.5 1363,-171.5 1363,-171.5 1363,-171.5 991.5,-171.5 853.2133,-171.5 816.9876,-186.1665 686,-230.5 648.3341,-243.2482 607.3943,-265.8817 585.4853,-278.7827"/>
<polygon fill="#191970" stroke="#191970" points="1726.1726,-321.9451 1735.3224,-327.2866 1731.5006,-317.405 1726.1726,-321.9451"/>
</g>
<!-- Node1802 -->
<g id="node6" class="node">
<title>Node1802</title>
<g id="a_node6"><a xlink:href="../../d3/d50/classBinManager.html#abb4428a6888d62abb97157f18e5ee60c" target="_top" xlink:title=" ">
<polygon fill="#ffffff" stroke="#000000" points="917,-554 917,-573 1066,-573 1066,-554 917,-554"/>
<text text-anchor="middle" x="991.5" y="-561" font-family="Helvetica,sans-Serif" font-size="10.00" fill="#000000">BinManager::getOrOpenBin</text>
</a>
</g>
</g>
<!-- Node1800&#45;&gt;Node1802 -->
<g id="edge5" class="edge">
<title>Node1800&#45;&gt;Node1802</title>
<path fill="none" stroke="#191970" d="M1723.3843,-364.5436C1699.9546,-384.7539 1662.5138,-413.9744 1625,-430.5 1434.4821,-514.4271 1187.9655,-546.5341 1066.2588,-557.8705"/>
<polygon fill="#191970" stroke="#191970" points="1725.8551,-367.032 1731.0645,-357.8063 1721.2389,-361.7697 1725.8551,-367.032"/>
</g>
<!-- Node1814 -->
<g id="node18" class="node">
<title>Node1814</title>
<g id="a_node18"><a xlink:href="../../d3/d50/classBinManager.html#a3019bdd65722ab76f6bfee3a592c3468" target="_top" xlink:title=" ">
<polygon fill="#ffffff" stroke="#000000" points="910,-671 910,-690 1073,-690 1073,-671 910,-671"/>
<text text-anchor="middle" x="991.5" y="-678" font-family="Helvetica,sans-Serif" font-size="10.00" fill="#000000">BinManager::addPartToBinAux</text>
</a>
</g>
</g>
<!-- Node1800&#45;&gt;Node1814 -->
<g id="edge17" class="edge">
<title>Node1800&#45;&gt;Node1814</title>
<path fill="none" stroke="#191970" d="M1731.1499,-365.7721C1709.8297,-394.4978 1669.9164,-443.0288 1625,-471.5 1434.7447,-592.0974 1167.9043,-650.0872 1050.676,-670.9896"/>
<polygon fill="#191970" stroke="#191970" points="1734.0908,-367.6794 1737.1546,-357.5372 1728.4347,-363.5552 1734.0908,-367.6794"/>
</g>
<!-- Node1815 -->
<g id="node19" class="node">
<title>Node1815</title>
<g id="a_node19"><a xlink:href="../../d3/d50/classBinManager.html#a38979f06eeb31b95279d497505934ca3" target="_top" xlink:title=" ">
<polygon fill="#ffffff" stroke="#000000" points="1109,-241 1109,-260 1261,-260 1261,-241 1109,-241"/>
<text text-anchor="middle" x="1185" y="-248" font-family="Helvetica,sans-Serif" font-size="10.00" fill="#000000">BinManager::openCoreBinIn</text>
</a>
</g>
</g>
<!-- Node1800&#45;&gt;Node1815 -->
<g id="edge21" class="edge">
<title>Node1800&#45;&gt;Node1815</title>
<path fill="none" stroke="#191970" d="M1707.4747,-323.0947C1648.28,-295.5835 1533.1461,-246.5769 1429,-228.5 1371.1976,-218.4671 1355.391,-222.8194 1297,-228.5 1272.3464,-230.8984 1245.0657,-236.1998 1223.6013,-240.9975"/>
<polygon fill="#191970" stroke="#191970" points="1706.2892,-326.4044 1716.8292,-327.4804 1709.2607,-320.0664 1706.2892,-326.4044"/>
</g>
<!-- Node1816 -->
<g id="node20" class="node">
<title>Node1816</title>
<g id="a_node20"><a xlink:href="../../d3/d50/classBinManager.html#ab1f93090b054ce73e91b9152d3735766" target="_top" xlink:title=" ">
<polygon fill="#ffffff" stroke="#000000" points="1465,-314 1465,-333 1625,-333 1625,-314 1465,-314"/>
<text text-anchor="middle" x="1545" y="-321" font-family="Helvetica,sans-Serif" font-size="10.00" fill="#000000">BinManager::setAsCurrentBin</text>
</a>
</g>
</g>
<!-- Node1800&#45;&gt;Node1816 -->
<g id="edge23" class="edge">
<title>Node1800&#45;&gt;Node1816</title>
<path fill="none" stroke="#191970" d="M1674.487,-335.6494C1658.5199,-334.1512 1641.5344,-332.5575 1625.3003,-331.0344"/>
<polygon fill="#191970" stroke="#191970" points="1674.5313,-339.1688 1684.8145,-336.6184 1675.1852,-332.1994 1674.5313,-339.1688"/>
</g>
<!-- Node1828 -->
<g id="node32" class="node">
<title>Node1828</title>
<g id="a_node32"><a xlink:href="../../de/d4e/classPartsBinPaletteWidget.html#a60e9d875c5de2a342920107712433103" target="_top" xlink:title=" ">
<polygon fill="#ffffff" stroke="#000000" points="1482.5,-390.5 1482.5,-420.5 1607.5,-420.5 1607.5,-390.5 1482.5,-390.5"/>
<text text-anchor="start" x="1490.5" y="-408.5" font-family="Helvetica,sans-Serif" font-size="10.00" fill="#000000">PartsBinPaletteWidget</text>
<text text-anchor="middle" x="1545" y="-397.5" font-family="Helvetica,sans-Serif" font-size="10.00" fill="#000000">::loadBundledAux</text>
</a>
</g>
</g>
<!-- Node1800&#45;&gt;Node1828 -->
<g id="edge45" class="edge">
<title>Node1800&#45;&gt;Node1828</title>
<path fill="none" stroke="#191970" d="M1689.5989,-360.5137C1659.1062,-370.0003 1622.1471,-381.4987 1593.2274,-390.4959"/>
<polygon fill="#191970" stroke="#191970" points="1690.7447,-363.8228 1699.2535,-357.51 1688.6651,-357.1388 1690.7447,-363.8228"/>
</g>
<!-- Node1829 -->
<g id="node33" class="node">
<title>Node1829</title>
<g id="a_node33"><a xlink:href="../../de/d4e/classPartsBinPaletteWidget.html#a639a2fef2288de9d847976da5d3d81c8" target="_top" xlink:title=" ">
<polygon fill="#ffffff" stroke="#000000" points="1300.5,-428.5 1300.5,-458.5 1425.5,-458.5 1425.5,-428.5 1300.5,-428.5"/>
<text text-anchor="start" x="1308.5" y="-446.5" font-family="Helvetica,sans-Serif" font-size="10.00" fill="#000000">PartsBinPaletteWidget</text>
<text text-anchor="middle" x="1363" y="-435.5" font-family="Helvetica,sans-Serif" font-size="10.00" fill="#000000">::open</text>
</a>
</g>
</g>
<!-- Node1800&#45;&gt;Node1829 -->
<g id="edge46" class="edge">
<title>Node1800&#45;&gt;Node1829</title>
<path fill="none" stroke="#191970" d="M1674.4636,-341.093C1615.422,-342.5984 1531.4884,-350.8529 1465,-381.5 1445.5586,-390.4613 1446.9458,-401.8286 1429,-413.5 1420.4535,-419.0584 1410.7078,-424.1028 1401.3775,-428.4019"/>
<polygon fill="#191970" stroke="#191970" points="1674.8901,-344.5854 1684.8201,-340.8914 1674.7538,-337.5868 1674.8901,-344.5854"/>
</g>
<!-- Node1803 -->
<g id="node7" class="node">
<title>Node1803</title>
<g id="a_node7"><a xlink:href="../../d3/d50/classBinManager.html#aaccd5835b3682b3e22d9b106f79506e3" target="_top" xlink:title=" ">
<polygon fill="#ffffff" stroke="#000000" points="686,-614 686,-633 874,-633 874,-614 686,-614"/>
<text text-anchor="middle" x="780" y="-621" font-family="Helvetica,sans-Serif" font-size="10.00" fill="#000000">BinManager::getOrOpenMyPartsBin</text>
</a>
</g>
</g>
<!-- Node1802&#45;&gt;Node1803 -->
<g id="edge6" class="edge">
<title>Node1802&#45;&gt;Node1803</title>
<path fill="none" stroke="#191970" d="M957.6316,-576.6967C934.3634,-585.4207 902.6243,-596.6524 874,-604.5 861.1544,-608.0217 847.1577,-611.1978 833.9836,-613.9004"/>
<polygon fill="#191970" stroke="#191970" points="958.9395,-579.944 967.0513,-573.1286 956.4598,-573.3979 958.9395,-579.944"/>
</g>
<!-- Node1807 -->
<g id="node11" class="node">
<title>Node1807</title>
<g id="a_node11"><a xlink:href="../../d3/d50/classBinManager.html#a9fe34d7451b2841258b3ca0c28e51118" target="_top" xlink:title=" ">
<polygon fill="#ffffff" stroke="#000000" points="689,-576 689,-595 871,-595 871,-576 689,-576"/>
<text text-anchor="middle" x="780" y="-583" font-family="Helvetica,sans-Serif" font-size="10.00" fill="#000000">BinManager::getOrOpenSearchBin</text>
</a>
</g>
</g>
<!-- Node1802&#45;&gt;Node1807 -->
<g id="edge10" class="edge">
<title>Node1802&#45;&gt;Node1807</title>
<path fill="none" stroke="#191970" d="M906.7877,-572.3117C895.1216,-573.5252 883.0995,-574.7757 871.3208,-576.0009"/>
<polygon fill="#191970" stroke="#191970" points="907.3488,-575.7723 916.933,-571.2564 906.6245,-568.8099 907.3488,-575.7723"/>
</g>
<!-- Node1812 -->
<g id="node16" class="node">
<title>Node1812</title>
<g id="a_node16"><a xlink:href="../../d3/d50/classBinManager.html#a1bece8b3f44dfefe2c3824c053ca3c5d" target="_top" xlink:title=" ">
<polygon fill="#ffffff" stroke="#000000" points="692,-652 692,-671 868,-671 868,-652 692,-652"/>
<text text-anchor="middle" x="780" y="-659" font-family="Helvetica,sans-Serif" font-size="10.00" fill="#000000">BinManager::addToTempPartsBin</text>
</a>
</g>
</g>
<!-- Node1802&#45;&gt;Node1812 -->
<g id="edge15" class="edge">
<title>Node1802&#45;&gt;Node1812</title>
<path fill="none" stroke="#191970" d="M972.4453,-579.8171C950.2718,-597.931 911.8453,-626.6916 874,-642.5 864.7822,-646.3504 854.7216,-649.4396 844.7197,-651.9129"/>
<polygon fill="#191970" stroke="#191970" points="974.9257,-582.3065 980.3769,-573.2216 970.4501,-576.9242 974.9257,-582.3065"/>
</g>
<!-- Node1813 -->
<g id="node17" class="node">
<title>Node1813</title>
<g id="a_node17"><a xlink:href="../../d3/d50/classBinManager.html#a1c416320d43308fb1dedfd7373868259" target="_top" xlink:title=" ">
<polygon fill="#ffffff" stroke="#000000" points="708.5,-526.5 708.5,-556.5 851.5,-556.5 851.5,-526.5 708.5,-526.5"/>
<text text-anchor="start" x="716.5" y="-544.5" font-family="Helvetica,sans-Serif" font-size="10.00" fill="#000000">BinManager::importPartTo</text>
<text text-anchor="middle" x="780" y="-533.5" font-family="Helvetica,sans-Serif" font-size="10.00" fill="#000000">MineBin</text>
</a>
</g>
</g>
<!-- Node1802&#45;&gt;Node1813 -->
<g id="edge16" class="edge">
<title>Node1802&#45;&gt;Node1813</title>
<path fill="none" stroke="#191970" d="M906.8903,-554.699C888.6247,-552.799 869.4818,-550.8078 851.7633,-548.9647"/>
<polygon fill="#191970" stroke="#191970" points="906.6245,-558.1901 916.933,-555.7436 907.3488,-551.2277 906.6245,-558.1901"/>
</g>
<!-- Node1804 -->
<g id="node8" class="node">
<title>Node1804</title>
<g id="a_node8"><a xlink:href="../../d3/d50/classBinManager.html#af6ffd6b423aa7e1a3093e5a855c8cfe0" target="_top" xlink:title=" ">
<polygon fill="#ffffff" stroke="#000000" points="499.5,-614 499.5,-633 639.5,-633 639.5,-614 499.5,-614"/>
<text text-anchor="middle" x="569.5" y="-621" font-family="Helvetica,sans-Serif" font-size="10.00" fill="#000000">BinManager::addNewPart</text>
</a>
</g>
</g>
<!-- Node1803&#45;&gt;Node1804 -->
<g id="edge7" class="edge">
<title>Node1803&#45;&gt;Node1804</title>
<path fill="none" stroke="#191970" d="M675.599,-623.5C663.3951,-623.5 651.176,-623.5 639.598,-623.5"/>
<polygon fill="#191970" stroke="#191970" points="675.8323,-627.0001 685.8323,-623.5 675.8323,-620.0001 675.8323,-627.0001"/>
</g>
<!-- Node1805 -->
<g id="node9" class="node">
<title>Node1805</title>
<g id="a_node9"><a xlink:href="../../d3/d50/classBinManager.html#abf417e9df45dacb191424c9c6e2d9dcd" target="_top" xlink:title=" ">
<polygon fill="#ffffff" stroke="#000000" points="497.5,-718 497.5,-737 641.5,-737 641.5,-718 497.5,-718"/>
<text text-anchor="middle" x="569.5" y="-725" font-family="Helvetica,sans-Serif" font-size="10.00" fill="#000000">BinManager::addPartToBin</text>
</a>
</g>
</g>
<!-- Node1803&#45;&gt;Node1805 -->
<g id="edge8" class="edge">
<title>Node1803&#45;&gt;Node1805</title>
<path fill="none" stroke="#191970" d="M694.6218,-637.3523C691.6288,-638.8999 688.7418,-640.6103 686,-642.5 661.3292,-659.5038 673.465,-680.8674 650,-699.5 639.5708,-707.7814 626.5251,-713.7006 613.9917,-717.8951"/>
<polygon fill="#191970" stroke="#191970" points="696.1994,-640.4805 703.879,-633.1815 693.3239,-634.0983 696.1994,-640.4805"/>
</g>
<!-- Node1806 -->
<g id="node10" class="node">
<title>Node1806</title>
<g id="a_node10"><a xlink:href="../../d3/d50/classBinManager.html#a48fcd52391e11dd8df90437f318a78d0" target="_top" xlink:title=" ">
<polygon fill="#ffffff" stroke="#000000" points="495,-671 495,-690 644,-690 644,-671 495,-671"/>
<text text-anchor="middle" x="569.5" y="-678" font-family="Helvetica,sans-Serif" font-size="10.00" fill="#000000">BinManager::addToMyParts</text>
</a>
</g>
</g>
<!-- Node1803&#45;&gt;Node1806 -->
<g id="edge9" class="edge">
<title>Node1803&#45;&gt;Node1806</title>
<path fill="none" stroke="#191970" d="M717.1395,-635.1545C706.6919,-637.392 696.0053,-639.8665 686,-642.5 654.7279,-650.731 619.5206,-662.5842 596.0758,-670.8565"/>
<polygon fill="#191970" stroke="#191970" points="717.9796,-638.5547 727.053,-633.0844 716.5487,-631.7025 717.9796,-638.5547"/>
</g>
<!-- Node1808 -->
<g id="node12" class="node">
<title>Node1808</title>
<g id="a_node12"><a xlink:href="../../d3/d50/classBinManager.html#a4a19150070924847fa48546117c68860" target="_top" xlink:title=" ">
<polygon fill="#ffffff" stroke="#000000" points="513,-571 513,-590 626,-590 626,-571 513,-571"/>
<text text-anchor="middle" x="569.5" y="-578" font-family="Helvetica,sans-Serif" font-size="10.00" fill="#000000">BinManager::search</text>
</a>
</g>
</g>
<!-- Node1807&#45;&gt;Node1808 -->
<g id="edge11" class="edge">
<title>Node1807&#45;&gt;Node1808</title>
<path fill="none" stroke="#191970" d="M678.8516,-583.0974C660.717,-582.6667 642.4198,-582.2321 626.1178,-581.8448"/>
<polygon fill="#191970" stroke="#191970" points="678.8156,-586.5975 688.8959,-583.336 678.9819,-579.5994 678.8156,-586.5975"/>
</g>
<!-- Node1809 -->
<g id="node13" class="node">
<title>Node1809</title>
<g id="a_node13"><a xlink:href="../../de/d4e/classPartsBinPaletteWidget.html#adfaebf7818593d2210d457572054f04b" target="_top" xlink:title=" ">
<polygon fill="#ffffff" stroke="#000000" points="328,-560.5 328,-590.5 453,-590.5 453,-560.5 328,-560.5"/>
<text text-anchor="start" x="336" y="-578.5" font-family="Helvetica,sans-Serif" font-size="10.00" fill="#000000">PartsBinPaletteWidget</text>
<text text-anchor="middle" x="390.5" y="-567.5" font-family="Helvetica,sans-Serif" font-size="10.00" fill="#000000">::search</text>
</a>
</g>
</g>
<!-- Node1808&#45;&gt;Node1809 -->
<g id="edge12" class="edge">
<title>Node1808&#45;&gt;Node1809</title>
<path fill="none" stroke="#191970" d="M502.4517,-578.6271C486.3444,-578.1772 469.1998,-577.6983 453.2941,-577.254"/>
<polygon fill="#191970" stroke="#191970" points="502.7694,-582.1373 512.8633,-578.918 502.9649,-575.14 502.7694,-582.1373"/>
</g>
<!-- Node1810 -->
<g id="node14" class="node">
<title>Node1810</title>
<g id="a_node14"><a xlink:href="../../de/d4e/classPartsBinPaletteWidget.html#a7f150e3d1e0a41af7ebffbc9aa664941" target="_top" xlink:title=" ">
<polygon fill="#ffffff" stroke="#000000" points="167,-548.5 167,-578.5 292,-578.5 292,-548.5 167,-548.5"/>
<text text-anchor="start" x="175" y="-566.5" font-family="Helvetica,sans-Serif" font-size="10.00" fill="#000000">PartsBinPaletteWidget</text>
<text text-anchor="middle" x="229.5" y="-555.5" font-family="Helvetica,sans-Serif" font-size="10.00" fill="#000000">::setupHeader</text>
</a>
</g>
</g>
<!-- Node1809&#45;&gt;Node1810 -->
<g id="edge13" class="edge">
<title>Node1809&#45;&gt;Node1810</title>
<path fill="none" stroke="#191970" d="M317.7816,-570.08C309.1871,-569.4394 300.4732,-568.7899 292.0367,-568.1611"/>
<polygon fill="#191970" stroke="#191970" points="317.5597,-573.5731 327.7922,-570.8261 318.08,-566.5924 317.5597,-573.5731"/>
</g>
<!-- Node1811 -->
<g id="node15" class="node">
<title>Node1811</title>
<g id="a_node15"><a xlink:href="../../de/d4e/classPartsBinPaletteWidget.html#ae89a19e1aed252826037a32886643cd4" target="_top" xlink:title=" ">
<polygon fill="#ffffff" stroke="#000000" points="0,-525.5 0,-555.5 131,-555.5 131,-525.5 0,-525.5"/>
<text text-anchor="start" x="8" y="-543.5" font-family="Helvetica,sans-Serif" font-size="10.00" fill="#000000">PartsBinPaletteWidget</text>
<text text-anchor="middle" x="65.5" y="-532.5" font-family="Helvetica,sans-Serif" font-size="10.00" fill="#000000">::PartsBinPaletteWidget</text>
</a>
</g>
</g>
<!-- Node1810&#45;&gt;Node1811 -->
<g id="edge14" class="edge">
<title>Node1810&#45;&gt;Node1811</title>
<path fill="none" stroke="#191970" d="M156.4255,-553.2517C148.0443,-552.0763 139.5372,-550.8833 131.2601,-549.7225"/>
<polygon fill="#191970" stroke="#191970" points="156.1731,-556.7505 166.5623,-554.6734 157.1454,-549.8184 156.1731,-556.7505"/>
</g>
<!-- Node1814&#45;&gt;Node1805 -->
<g id="edge18" class="edge">
<title>Node1814&#45;&gt;Node1805</title>
<path fill="none" stroke="#191970" d="M902.5097,-691.2044C892.8887,-692.3314 883.2412,-693.4487 874,-694.5 794.4858,-703.5454 703.223,-713.3607 641.5067,-719.9144"/>
<polygon fill="#191970" stroke="#191970" points="902.9854,-694.6726 912.5082,-690.0286 902.1678,-687.7205 902.9854,-694.6726"/>
</g>
<!-- Node1814&#45;&gt;Node1806 -->
<g id="edge19" class="edge">
<title>Node1814&#45;&gt;Node1806</title>
<path fill="none" stroke="#191970" d="M899.769,-680.5C823.2266,-680.5 715.503,-680.5 644.156,-680.5"/>
<polygon fill="#191970" stroke="#191970" points="899.8841,-684.0001 909.8841,-680.5 899.8841,-677.0001 899.8841,-684.0001"/>
</g>
<!-- Node1814&#45;&gt;Node1812 -->
<g id="edge20" class="edge">
<title>Node1814&#45;&gt;Node1812</title>
<path fill="none" stroke="#191970" d="M899.7625,-672.2588C889.2939,-671.3184 878.6388,-670.3612 868.2173,-669.425"/>
<polygon fill="#191970" stroke="#191970" points="899.4555,-675.7452 909.7286,-673.1541 900.0819,-668.7733 899.4555,-675.7452"/>
</g>
<!-- Node1815&#45;&gt;Node1801 -->
<g id="edge22" class="edge">
<title>Node1815&#45;&gt;Node1801</title>
<path fill="none" stroke="#191970" d="M1098.7016,-242.3317C998.7039,-234.7484 829.3069,-227.7187 686,-250.5 652.1729,-255.8774 614.8155,-269.521 591.7477,-278.9065"/>
<polygon fill="#191970" stroke="#191970" points="1098.5136,-245.8276 1108.755,-243.1138 1099.0566,-238.8487 1098.5136,-245.8276"/>
</g>
<!-- Node1816&#45;&gt;Node1815 -->
<g id="edge34" class="edge">
<title>Node1816&#45;&gt;Node1815</title>
<path fill="none" stroke="#191970" d="M1487.8581,-311.9129C1417.0844,-297.5616 1297.8412,-273.3817 1232.0753,-260.0458"/>
<polygon fill="#191970" stroke="#191970" points="1487.4402,-315.3993 1497.9363,-313.9565 1488.8313,-308.5389 1487.4402,-315.3993"/>
</g>
<!-- Node1817 -->
<g id="node21" class="node">
<title>Node1817</title>
<g id="a_node21"><a xlink:href="../../d3/d50/classBinManager.html#a5de5d6a2d1532dcad6c87fda0b8e8ea4" target="_top" xlink:title=" ">
<polygon fill="#ffffff" stroke="#000000" points="1305.5,-238 1305.5,-257 1420.5,-257 1420.5,-238 1305.5,-238"/>
<text text-anchor="middle" x="1363" y="-245" font-family="Helvetica,sans-Serif" font-size="10.00" fill="#000000">BinManager::addBin</text>
</a>
</g>
</g>
<!-- Node1816&#45;&gt;Node1817 -->
<g id="edge24" class="edge">
<title>Node1816&#45;&gt;Node1817</title>
<path fill="none" stroke="#191970" d="M1515.3342,-309.4852C1492.048,-298.6591 1458.7086,-283.5419 1429,-271.5 1416.5706,-266.462 1402.637,-261.3223 1390.7868,-257.0986"/>
<polygon fill="#191970" stroke="#191970" points="1514.1171,-312.7797 1524.6586,-313.8408 1517.0797,-306.4375 1514.1171,-312.7797"/>
</g>
<!-- Node1818 -->
<g id="node22" class="node">
<title>Node1818</title>
<g id="a_node22"><a xlink:href="../../d3/d50/classBinManager.html#afc14f415cc0d760eddd342cdea779f5d" target="_top" xlink:title=" ">
<polygon fill="#ffffff" stroke="#000000" points="1120,-434 1120,-453 1250,-453 1250,-434 1120,-434"/>
<text text-anchor="middle" x="1185" y="-441" font-family="Helvetica,sans-Serif" font-size="10.00" fill="#000000">BinManager::openBinIn</text>
</a>
</g>
</g>
<!-- Node1816&#45;&gt;Node1818 -->
<g id="edge25" class="edge">
<title>Node1816&#45;&gt;Node1818</title>
<path fill="none" stroke="#191970" d="M1469.1135,-337.2846C1467.7143,-337.9872 1466.3415,-338.7251 1465,-339.5 1444.0018,-351.6295 1449.655,-367.7948 1429,-380.5 1411.8116,-391.0729 1292.6619,-419.129 1227.4464,-433.9762"/>
<polygon fill="#191970" stroke="#191970" points="1470.8912,-340.3288 1478.6746,-333.1407 1468.1074,-333.9061 1470.8912,-340.3288"/>
</g>
<!-- Node1824 -->
<g id="node28" class="node">
<title>Node1824</title>
<g id="a_node28"><a xlink:href="../../d3/d50/classBinManager.html#a769816f8c3555b53873e778b98d1ca0a" target="_top" xlink:title=" ">
<polygon fill="#ffffff" stroke="#000000" points="1304.5,-352 1304.5,-371 1421.5,-371 1421.5,-352 1304.5,-352"/>
<text text-anchor="middle" x="1363" y="-359" font-family="Helvetica,sans-Serif" font-size="10.00" fill="#000000">BinManager::newBin</text>
</a>
</g>
</g>
<!-- Node1816&#45;&gt;Node1824 -->
<g id="edge35" class="edge">
<title>Node1816&#45;&gt;Node1824</title>
<path fill="none" stroke="#191970" d="M1489.0542,-335.181C1463.2442,-340.5699 1432.9931,-346.8861 1408.596,-351.9799"/>
<polygon fill="#191970" stroke="#191970" points="1490.0002,-338.559 1499.0737,-333.089 1488.5694,-331.7068 1490.0002,-338.559"/>
</g>
<!-- Node1826 -->
<g id="node30" class="node">
<title>Node1826</title>
<g id="a_node30"><a xlink:href="../../d3/d50/classBinManager.html#ac4a40bc221fbfffbe02a38600f57763a" target="_top" xlink:title=" ">
<polygon fill="#ffffff" stroke="#000000" points="912.5,-298 912.5,-317 1070.5,-317 1070.5,-298 912.5,-298"/>
<text text-anchor="middle" x="991.5" y="-305" font-family="Helvetica,sans-Serif" font-size="10.00" fill="#000000">BinManager::currentChanged</text>
</a>
</g>
</g>
<!-- Node1816&#45;&gt;Node1826 -->
<g id="edge41" class="edge">
<title>Node1816&#45;&gt;Node1826</title>
<path fill="none" stroke="#191970" d="M1454.7141,-320.8901C1348.0916,-317.808 1172.431,-312.7302 1070.8275,-309.7931"/>
<polygon fill="#191970" stroke="#191970" points="1454.7151,-324.3915 1464.8121,-321.182 1454.9175,-317.3944 1454.7151,-324.3915"/>
</g>
<!-- Node1818&#45;&gt;Node1802 -->
<g id="edge26" class="edge">
<title>Node1818&#45;&gt;Node1802</title>
<path fill="none" stroke="#191970" d="M1160.8374,-458.4846C1120.5509,-483.4684 1040.7622,-532.9498 1007.0817,-553.8369"/>
<polygon fill="#191970" stroke="#191970" points="1162.8384,-461.3621 1169.4922,-453.1173 1159.1491,-455.4132 1162.8384,-461.3621"/>
</g>
<!-- Node1819 -->
<g id="node23" class="node">
<title>Node1819</title>
<g id="a_node23"><a xlink:href="../../d3/d50/classBinManager.html#a32006d8b928a03103babf268a2ec782c" target="_top" xlink:title=" ">
<polygon fill="#ffffff" stroke="#000000" points="931,-450 931,-469 1052,-469 1052,-450 931,-450"/>
<text text-anchor="middle" x="991.5" y="-457" font-family="Helvetica,sans-Serif" font-size="10.00" fill="#000000">BinManager::openBin</text>
</a>
</g>
</g>
<!-- Node1818&#45;&gt;Node1819 -->
<g id="edge27" class="edge">
<title>Node1818&#45;&gt;Node1819</title>
<path fill="none" stroke="#191970" d="M1109.6317,-449.732C1090.6052,-451.3053 1070.4174,-452.9745 1052.2149,-454.4796"/>
<polygon fill="#191970" stroke="#191970" points="1110.082,-453.2068 1119.7595,-448.8946 1109.505,-446.2306 1110.082,-453.2068"/>
</g>
<!-- Node1821 -->
<g id="node25" class="node">
<title>Node1821</title>
<g id="a_node25"><a xlink:href="../../d3/d50/classBinManager.html#a2d9ef85a41aecb6bacd17b19289f4d3b" target="_top" xlink:title=" ">
<polygon fill="#ffffff" stroke="#000000" points="927,-412 927,-431 1056,-431 1056,-412 927,-412"/>
<text text-anchor="middle" x="991.5" y="-419" font-family="Helvetica,sans-Serif" font-size="10.00" fill="#000000">BinManager::mainLoad</text>
</a>
</g>
</g>
<!-- Node1818&#45;&gt;Node1821 -->
<g id="edge29" class="edge">
<title>Node1818&#45;&gt;Node1821</title>
<path fill="none" stroke="#191970" d="M1109.5088,-434.917C1091.8721,-432.9118 1073.244,-430.7939 1056.1287,-428.848"/>
<polygon fill="#191970" stroke="#191970" points="1109.4281,-438.4303 1119.7595,-436.0825 1110.2189,-431.4751 1109.4281,-438.4303"/>
</g>
<!-- Node1823 -->
<g id="node27" class="node">
<title>Node1823</title>
<g id="a_node27"><a xlink:href="../../de/d4e/classPartsBinPaletteWidget.html#af30433fbe82fe3d9ae373b082ceb7761" target="_top" xlink:title=" ">
<polygon fill="#ffffff" stroke="#000000" points="328,-501.5 328,-531.5 453,-531.5 453,-501.5 328,-501.5"/>
<text text-anchor="start" x="336" y="-519.5" font-family="Helvetica,sans-Serif" font-size="10.00" fill="#000000">PartsBinPaletteWidget</text>
<text text-anchor="middle" x="390.5" y="-508.5" font-family="Helvetica,sans-Serif" font-size="10.00" fill="#000000">::addSketchPartToMe</text>
</a>
</g>
</g>
<!-- Node1818&#45;&gt;Node1823 -->
<g id="edge32" class="edge">
<title>Node1818&#45;&gt;Node1823</title>
<path fill="none" stroke="#191970" d="M1151.0129,-456.5337C1129.0892,-464.3348 1099.7699,-473.6494 1073,-478.5 847.6308,-519.3363 574.1604,-520.1974 453.2105,-518.148"/>
<polygon fill="#191970" stroke="#191970" points="1152.3253,-459.7808 1160.5298,-453.0773 1149.9357,-453.2012 1152.3253,-459.7808"/>
</g>
<!-- Node1820 -->
<g id="node24" class="node">
<title>Node1820</title>
<g id="a_node24"><a xlink:href="../../d3/d50/classBinManager.html#a5fa7574872d2c3c36154f10cfdb2cda2" target="_top" xlink:title=" ">
<polygon fill="#ffffff" stroke="#000000" points="729,-450 729,-469 831,-469 831,-450 729,-450"/>
<text text-anchor="middle" x="780" y="-457" font-family="Helvetica,sans-Serif" font-size="10.00" fill="#000000">BinManager::load</text>
</a>
</g>
</g>
<!-- Node1819&#45;&gt;Node1820 -->
<g id="edge28" class="edge">
<title>Node1819&#45;&gt;Node1820</title>
<path fill="none" stroke="#191970" d="M920.7257,-459.5C891.4589,-459.5 858.1645,-459.5 831.31,-459.5"/>
<polygon fill="#191970" stroke="#191970" points="920.8926,-463.0001 930.8926,-459.5 920.8926,-456.0001 920.8926,-463.0001"/>
</g>
<!-- Node1822 -->
<g id="node26" class="node">
<title>Node1822</title>
<g id="a_node26"><a xlink:href="../../d3/d50/classBinManager.html#a5c081f39071fd8cfc7b0d76bc7e0bb84" target="_top" xlink:title=" ">
<polygon fill="#ffffff" stroke="#000000" points="686,-374 686,-393 874,-393 874,-374 686,-374"/>
<text text-anchor="middle" x="780" y="-381" font-family="Helvetica,sans-Serif" font-size="10.00" fill="#000000">BinManager::createCombinedMenu</text>
</a>
</g>
</g>
<!-- Node1821&#45;&gt;Node1822 -->
<g id="edge30" class="edge">
<title>Node1821&#45;&gt;Node1822</title>
<path fill="none" stroke="#191970" d="M928.3453,-410.153C897.9999,-404.7009 862.0361,-398.2393 833.1192,-393.0439"/>
<polygon fill="#191970" stroke="#191970" points="927.9413,-413.6364 938.4026,-411.96 929.1792,-406.7467 927.9413,-413.6364"/>
</g>
<!-- Node1822&#45;&gt;Node1801 -->
<g id="edge31" class="edge">
<title>Node1822&#45;&gt;Node1801</title>
<path fill="none" stroke="#191970" d="M721.3825,-371.4061C709.4582,-368.1516 697.1566,-364.1993 686,-359.5 645.8356,-342.5824 603.2234,-313.3051 582.4312,-298.1749"/>
<polygon fill="#191970" stroke="#191970" points="720.7179,-374.8495 731.2768,-373.9767 722.4782,-368.0745 720.7179,-374.8495"/>
</g>
<!-- Node1823&#45;&gt;Node1811 -->
<g id="edge33" class="edge">
<title>Node1823&#45;&gt;Node1811</title>
<path fill="none" stroke="#191970" d="M317.6381,-521.8806C261.6785,-526.013 185.0787,-531.6696 131.0364,-535.6604"/>
<polygon fill="#191970" stroke="#191970" points="318.1217,-525.3545 327.8367,-521.1274 317.6061,-518.3735 318.1217,-525.3545"/>
</g>
<!-- Node1824&#45;&gt;Node1801 -->
<g id="edge36" class="edge">
<title>Node1824&#45;&gt;Node1801</title>
<path fill="none" stroke="#191970" d="M1294.3429,-359.1799C1171.7344,-354.4252 907.2354,-341.3963 686,-311.5 661.0749,-308.1318 633.448,-302.7503 611.3553,-298.0395"/>
<polygon fill="#191970" stroke="#191970" points="1294.2167,-362.6776 1304.3429,-359.5615 1294.4837,-355.6826 1294.2167,-362.6776"/>
</g>
<!-- Node1824&#45;&gt;Node1815 -->
<g id="edge40" class="edge">
<title>Node1824&#45;&gt;Node1815</title>
<path fill="none" stroke="#191970" d="M1338.8052,-346.4123C1301.5732,-323.1945 1231.2973,-279.3708 1200.3224,-260.055"/>
<polygon fill="#191970" stroke="#191970" points="1337.1777,-349.5221 1347.5151,-351.8437 1340.8817,-343.5823 1337.1777,-349.5221"/>
</g>
<!-- Node1824&#45;&gt;Node1818 -->
<g id="edge39" class="edge">
<title>Node1824&#45;&gt;Node1818</title>
<path fill="none" stroke="#191970" d="M1324.4803,-374.5599C1315.3798,-377.9052 1305.7739,-381.6521 1297,-385.5 1278.7515,-393.5031 1229.8417,-419.4419 1203.0905,-433.769"/>
<polygon fill="#191970" stroke="#191970" points="1325.8688,-377.7801 1334.0937,-371.1017 1323.4992,-371.1933 1325.8688,-377.7801"/>
</g>
<!-- Node1825 -->
<g id="node29" class="node">
<title>Node1825</title>
<g id="a_node29"><a xlink:href="../../d3/d50/classBinManager.html#a82f16115763739023e2d56a85bf9d5b5" target="_top" xlink:title=" ">
<polygon fill="#ffffff" stroke="#000000" points="1122,-374 1122,-393 1248,-393 1248,-374 1122,-374"/>
<text text-anchor="middle" x="1185" y="-381" font-family="Helvetica,sans-Serif" font-size="10.00" fill="#000000">BinManager::newBinIn</text>
</a>
</g>
</g>
<!-- Node1824&#45;&gt;Node1825 -->
<g id="edge37" class="edge">
<title>Node1824&#45;&gt;Node1825</title>
<path fill="none" stroke="#191970" d="M1293.9087,-370.0394C1278.791,-371.9079 1262.8655,-373.8762 1248.0008,-375.7134"/>
<polygon fill="#191970" stroke="#191970" points="1294.7277,-373.4649 1304.2228,-368.7646 1293.869,-366.5177 1294.7277,-373.4649"/>
</g>
<!-- Node1825&#45;&gt;Node1822 -->
<g id="edge38" class="edge">
<title>Node1825&#45;&gt;Node1822</title>
<path fill="none" stroke="#191970" d="M1111.3112,-383.5C1044.7086,-383.5 946.32,-383.5 874.0606,-383.5"/>
<polygon fill="#191970" stroke="#191970" points="1111.7188,-387.0001 1121.7188,-383.5 1111.7187,-380.0001 1111.7188,-387.0001"/>
</g>
<!-- Node1826&#45;&gt;Node1801 -->
<g id="edge42" class="edge">
<title>Node1826&#45;&gt;Node1801</title>
<path fill="none" stroke="#191970" d="M901.8217,-303.4624C827.3178,-300.1079 722.2477,-295.3773 650.3139,-292.1385"/>
<polygon fill="#191970" stroke="#191970" points="901.9777,-306.9728 912.125,-303.9262 902.2926,-299.9799 901.9777,-306.9728"/>
</g>
<!-- Node1827 -->
<g id="node31" class="node">
<title>Node1827</title>
<g id="a_node31"><a xlink:href="../../d3/d50/classBinManager.html#aaeb2ef7a4866cf66d08ca116436b0f41" target="_top" xlink:title=" ">
<polygon fill="#ffffff" stroke="#000000" points="695,-260 695,-279 865,-279 865,-260 695,-260"/>
<text text-anchor="middle" x="780" y="-267" font-family="Helvetica,sans-Serif" font-size="10.00" fill="#000000">BinManager::connectTabWidget</text>
</a>
</g>
</g>
<!-- Node1826&#45;&gt;Node1827 -->
<g id="edge43" class="edge">
<title>Node1826&#45;&gt;Node1827</title>
<path fill="none" stroke="#191970" d="M928.3453,-296.153C897.9999,-290.7009 862.0361,-284.2393 833.1192,-279.0439"/>
<polygon fill="#191970" stroke="#191970" points="927.9413,-299.6364 938.4026,-297.96 929.1792,-292.7467 927.9413,-299.6364"/>
</g>
<!-- Node1827&#45;&gt;Node1801 -->
<g id="edge44" class="edge">
<title>Node1827&#45;&gt;Node1801</title>
<path fill="none" stroke="#191970" d="M684.8347,-278.0897C673.2158,-279.1385 661.4313,-280.2022 650.0549,-281.229"/>
<polygon fill="#191970" stroke="#191970" points="685.3435,-281.5581 694.9884,-277.1733 684.7142,-274.5865 685.3435,-281.5581"/>
</g>
<!-- Node1829&#45;&gt;Node1818 -->
<g id="edge47" class="edge">
<title>Node1829&#45;&gt;Node1818</title>
<path fill="none" stroke="#191970" d="M1290.4029,-443.5C1277.0493,-443.5 1263.1854,-443.5 1250.0704,-443.5"/>
<polygon fill="#191970" stroke="#191970" points="1290.4942,-447.0001 1300.4942,-443.5 1290.4941,-440.0001 1290.4942,-447.0001"/>
</g>
<!-- Node1831 -->
<g id="node35" class="node">
<title>Node1831</title>
<g id="a_node35"><a xlink:href="../../d4/d72/classModelPart.html#adf7da7f6e9d337041488778723bc8cda" target="_top" xlink:title=" ">
<polygon fill="#ffffff" stroke="#000000" points="1886,-197 1886,-216 2003,-216 2003,-197 1886,-197"/>
<text text-anchor="middle" x="1944.5" y="-204" font-family="Helvetica,sans-Serif" font-size="10.00" fill="#000000">ModelPart::copyStuff</text>
</a>
</g>
</g>
<!-- Node1830&#45;&gt;Node1831 -->
<g id="edge49" class="edge">
<title>Node1830&#45;&gt;Node1831</title>
<path fill="none" stroke="#191970" d="M2052.7652,-206.5C2036.2737,-206.5 2019.0134,-206.5 2003.2433,-206.5"/>
<polygon fill="#191970" stroke="#191970" points="2052.914,-210.0001 2062.9139,-206.5 2052.9139,-203.0001 2052.914,-210.0001"/>
</g>
<!-- Node1833 -->
<g id="node37" class="node">
<title>Node1833</title>
<g id="a_node37"><a xlink:href="../../de/d4e/classPartsBinPaletteWidget.html#af7772081cf99727bbabb44a1eb72c62d" target="_top" xlink:title=" ">
<polygon fill="#ffffff" stroke="#000000" points="1882,-142.5 1882,-172.5 2007,-172.5 2007,-142.5 1882,-142.5"/>
<text text-anchor="start" x="1890" y="-160.5" font-family="Helvetica,sans-Serif" font-size="10.00" fill="#000000">PartsBinPaletteWidget</text>
<text text-anchor="middle" x="1944.5" y="-149.5" font-family="Helvetica,sans-Serif" font-size="10.00" fill="#000000">::binContextMenu</text>
</a>
</g>
</g>
<!-- Node1832&#45;&gt;Node1833 -->
<g id="edge51" class="edge">
<title>Node1832&#45;&gt;Node1833</title>
<path fill="none" stroke="#191970" d="M2054.3438,-160.5094C2038.77,-160.0827 2022.4415,-159.6354 2007.2787,-159.22"/>
<polygon fill="#191970" stroke="#191970" points="2054.357,-164.011 2064.4492,-160.7863 2054.5488,-157.0136 2054.357,-164.011"/>
</g>
<!-- Node1834 -->
<g id="node38" class="node">
<title>Node1834</title>
<g id="a_node38"><a xlink:href="../../df/d74/classStackTabBar.html#aed2a5ced492d28ec3d6d524cd78f3cec" target="_top" xlink:title=" ">
<polygon fill="#ffffff" stroke="#000000" points="1661,-129 1661,-148 1834,-148 1834,-129 1661,-129"/>
<text text-anchor="middle" x="1747.5" y="-136" font-family="Helvetica,sans-Serif" font-size="10.00" fill="#000000">StackTabBar::showContextMenu</text>
</a>
</g>
</g>
<!-- Node1833&#45;&gt;Node1834 -->
<g id="edge52" class="edge">
<title>Node1833&#45;&gt;Node1834</title>
<path fill="none" stroke="#191970" d="M1871.7443,-150.483C1859.4752,-149.2996 1846.6329,-148.061 1834.0543,-146.8479"/>
<polygon fill="#191970" stroke="#191970" points="1871.6074,-153.9859 1881.8973,-151.4622 1872.2795,-147.0182 1871.6074,-153.9859"/>
</g>
<!-- Node1835 -->
<g id="node39" class="node">
<title>Node1835</title>
<g id="a_node39"><a xlink:href="../../df/d74/classStackTabBar.html#a397461bbb6b6f14bfcf1ee857130e065" target="_top" xlink:title=" ">
<polygon fill="#ffffff" stroke="#000000" points="1473.5,-124 1473.5,-143 1616.5,-143 1616.5,-124 1473.5,-124"/>
<text text-anchor="middle" x="1545" y="-131" font-family="Helvetica,sans-Serif" font-size="10.00" fill="#000000">StackTabBar::StackTabBar</text>
</a>
</g>
</g>
<!-- Node1834&#45;&gt;Node1835 -->
<g id="edge53" class="edge">
<title>Node1834&#45;&gt;Node1835</title>
<path fill="none" stroke="#191970" d="M1650.6953,-136.1098C1639.2254,-135.8266 1627.6792,-135.5415 1616.6472,-135.2691"/>
<polygon fill="#191970" stroke="#191970" points="1650.6572,-139.6098 1660.7405,-136.3578 1650.83,-132.6119 1650.6572,-139.6098"/>
</g>
<!-- Node1838 -->
<g id="node42" class="node">
<title>Node1838</title>
<g id="a_node42"><a xlink:href="../../d8/d1e/classPartsEditorMainWindow.html#a3d0a26dee240861e2fb072d78fd6c2e5" target="_top" xlink:title=" ">
<polygon fill="#ffffff" stroke="#000000" points="1878.5,-49.5 1878.5,-79.5 2010.5,-79.5 2010.5,-49.5 1878.5,-49.5"/>
<text text-anchor="start" x="1886.5" y="-67.5" font-family="Helvetica,sans-Serif" font-size="10.00" fill="#000000">PartsEditorMainWindow</text>
<text text-anchor="middle" x="1944.5" y="-56.5" font-family="Helvetica,sans-Serif" font-size="10.00" fill="#000000">::saveAsAux</text>
</a>
</g>
</g>
<!-- Node1837&#45;&gt;Node1838 -->
<g id="edge56" class="edge">
<title>Node1837&#45;&gt;Node1838</title>
<path fill="none" stroke="#191970" d="M2048.6775,-64.5C2035.9597,-64.5 2022.9,-64.5 2010.5137,-64.5"/>
<polygon fill="#191970" stroke="#191970" points="2048.7842,-68.0001 2058.7842,-64.5 2048.7842,-61.0001 2048.7842,-68.0001"/>
</g>
<!-- Node1839 -->
<g id="node43" class="node">
<title>Node1839</title>
<g id="a_node43"><a xlink:href="../../d8/d1e/classPartsEditorMainWindow.html#afd37d85939cef741cafde39167576d92" target="_top" xlink:title=" ">
<polygon fill="#ffffff" stroke="#000000" points="1681.5,-49.5 1681.5,-79.5 1813.5,-79.5 1813.5,-49.5 1681.5,-49.5"/>
<text text-anchor="start" x="1689.5" y="-67.5" font-family="Helvetica,sans-Serif" font-size="10.00" fill="#000000">PartsEditorMainWindow</text>
<text text-anchor="middle" x="1747.5" y="-56.5" font-family="Helvetica,sans-Serif" font-size="10.00" fill="#000000">::saveAs</text>
</a>
</g>
</g>
<!-- Node1838&#45;&gt;Node1839 -->
<g id="edge57" class="edge">
<title>Node1838&#45;&gt;Node1839</title>
<path fill="none" stroke="#191970" d="M1868.2158,-64.5C1850.2657,-64.5 1831.2773,-64.5 1813.8069,-64.5"/>
<polygon fill="#191970" stroke="#191970" points="1868.3539,-68.0001 1878.3538,-64.5 1868.3538,-61.0001 1868.3539,-68.0001"/>
</g>
<!-- Node1840 -->
<g id="node44" class="node">
<title>Node1840</title>
<g id="a_node44"><a xlink:href="../../d8/d1e/classPartsEditorMainWindow.html#a1147fc07e5a6fe06f916151f99abdf7f" target="_top" xlink:title=" ">
<polygon fill="#ffffff" stroke="#000000" points="1297,-49.5 1297,-79.5 1429,-79.5 1429,-49.5 1297,-49.5"/>
<text text-anchor="start" x="1305" y="-67.5" font-family="Helvetica,sans-Serif" font-size="10.00" fill="#000000">PartsEditorMainWindow</text>
<text text-anchor="middle" x="1363" y="-56.5" font-family="Helvetica,sans-Serif" font-size="10.00" fill="#000000">::createFooter</text>
</a>
</g>
</g>
<!-- Node1839&#45;&gt;Node1840 -->
<g id="edge58" class="edge">
<title>Node1839&#45;&gt;Node1840</title>
<path fill="none" stroke="#191970" d="M1670.9655,-65.942C1655.7373,-66.1746 1639.8621,-66.3787 1625,-66.5 1553.8913,-67.0804 1536.1077,-67.1971 1465,-66.5 1453.3994,-66.3863 1441.0577,-66.1998 1429.1135,-65.9853"/>
<polygon fill="#191970" stroke="#191970" points="1671.441,-69.435 1681.3843,-65.777 1671.3301,-62.4358 1671.441,-69.435"/>
</g>
<!-- Node1842 -->
<g id="node46" class="node">
<title>Node1842</title>
<g id="a_node46"><a xlink:href="../../d8/d1e/classPartsEditorMainWindow.html#a85d13fc0258c3c30d929cdbe51b588d3" target="_top" xlink:title=" ">
<polygon fill="#ffffff" stroke="#000000" points="1479,-27.5 1479,-57.5 1611,-57.5 1611,-27.5 1479,-27.5"/>
<text text-anchor="start" x="1487" y="-45.5" font-family="Helvetica,sans-Serif" font-size="10.00" fill="#000000">PartsEditorMainWindow</text>
<text text-anchor="middle" x="1545" y="-34.5" font-family="Helvetica,sans-Serif" font-size="10.00" fill="#000000">::save</text>
</a>
</g>
</g>
<!-- Node1839&#45;&gt;Node1842 -->
<g id="edge60" class="edge">
<title>Node1839&#45;&gt;Node1842</title>
<path fill="none" stroke="#191970" d="M1671.2937,-56.2208C1651.5568,-54.0765 1630.4651,-51.7851 1611.2825,-49.7011"/>
<polygon fill="#191970" stroke="#191970" points="1671.1546,-59.7262 1681.4741,-57.3268 1671.9107,-52.7671 1671.1546,-59.7262"/>
</g>
<!-- Node1841 -->
<g id="node45" class="node">
<title>Node1841</title>
<g id="a_node45"><a xlink:href="../../d8/d1e/classPartsEditorMainWindow.html#a885a6806433861f0e94147c3a40ddd57" target="_top" xlink:title=" ">
<polygon fill="#ffffff" stroke="#000000" points="1119,-49.5 1119,-79.5 1251,-79.5 1251,-49.5 1119,-49.5"/>
<text text-anchor="start" x="1127" y="-67.5" font-family="Helvetica,sans-Serif" font-size="10.00" fill="#000000">PartsEditorMainWindow</text>
<text text-anchor="middle" x="1185" y="-56.5" font-family="Helvetica,sans-Serif" font-size="10.00" fill="#000000">::setup</text>
</a>
</g>
</g>
<!-- Node1840&#45;&gt;Node1841 -->
<g id="edge59" class="edge">
<title>Node1840&#45;&gt;Node1841</title>
<path fill="none" stroke="#191970" d="M1286.6966,-64.5C1274.89,-64.5 1262.779,-64.5 1251.2179,-64.5"/>
<polygon fill="#191970" stroke="#191970" points="1286.9724,-68.0001 1296.9723,-64.5 1286.9723,-61.0001 1286.9724,-68.0001"/>
</g>
<!-- Node1842&#45;&gt;Node1840 -->
<g id="edge61" class="edge">
<title>Node1842&#45;&gt;Node1840</title>
<path fill="none" stroke="#191970" d="M1468.8105,-51.7097C1455.6417,-53.3016 1442.0476,-54.9448 1429.1717,-56.5012"/>
<polygon fill="#191970" stroke="#191970" points="1469.2713,-55.1796 1478.779,-50.5047 1468.4312,-48.2302 1469.2713,-55.1796"/>
</g>
</g>
</svg>
