<?xml version="1.0" encoding="UTF-8" standalone="no"?>
<!DOCTYPE svg PUBLIC "-//W3C//DTD SVG 1.1//EN"
 "http://www.w3.org/Graphics/SVG/1.1/DTD/svg11.dtd">
<!-- Generated by graphviz version 2.40.1 (0)
 -->
<!-- Title: ModelPartShared::taxonomy Pages: 1 -->
<svg width="685pt" height="78pt"
 viewBox="0.00 0.00 685.00 77.50" xmlns="http://www.w3.org/2000/svg" xmlns:xlink="http://www.w3.org/1999/xlink">
<g id="graph0" class="graph" transform="scale(1 1) rotate(0) translate(4 73.5)">
<title>ModelPartShared::taxonomy</title>
<polygon fill="#ffffff" stroke="transparent" points="-4,4 -4,-73.5 681,-73.5 681,4 -4,4"/>
<!-- Node2569 -->
<g id="node1" class="node">
<title>Node2569</title>
<g id="a_node1"><a xlink:title=" ">
<polygon fill="#bfbfbf" stroke="#000000" points="523,-31 523,-50 677,-50 677,-31 523,-31"/>
<text text-anchor="middle" x="600" y="-38" font-family="Helvetica,sans-Serif" font-size="10.00" fill="#000000">ModelPartShared::taxonomy</text>
</a>
</g>
</g>
<!-- Node2570 -->
<g id="node2" class="node">
<title>Node2570</title>
<g id="a_node2"><a xlink:href="../../d9/d6c/classModelPartShared.html#a5858d6fef1643e0ed810404fa2c60582" target="_top" xlink:title=" ">
<polygon fill="#ffffff" stroke="#000000" points="317,-12 317,-31 487,-31 487,-12 317,-12"/>
<text text-anchor="middle" x="402" y="-19" font-family="Helvetica,sans-Serif" font-size="10.00" fill="#000000">ModelPartShared::setTaxonomy</text>
</a>
</g>
</g>
<!-- Node2569&#45;&gt;Node2570 -->
<g id="edge1" class="edge">
<title>Node2569&#45;&gt;Node2570</title>
<path fill="none" stroke="#191970" d="M512.8997,-32.1419C504.3365,-31.3202 495.6528,-30.4869 487.1099,-29.6671"/>
<polygon fill="#191970" stroke="#191970" points="512.5924,-35.6284 522.8811,-33.0997 513.2612,-28.6604 512.5924,-35.6284"/>
</g>
<!-- Node2571 -->
<g id="node3" class="node">
<title>Node2571</title>
<g id="a_node3"><a xlink:href="../../d9/d6c/classModelPartShared.html#a505b28d93bdc76a5572f3b01a073ff44" target="_top" xlink:title=" ">
<polygon fill="#ffffff" stroke="#000000" points="153,-50 153,-69 281,-69 281,-50 153,-50"/>
<text text-anchor="middle" x="217" y="-57" font-family="Helvetica,sans-Serif" font-size="10.00" fill="#000000">ModelPartShared::copy</text>
</a>
</g>
</g>
<!-- Node2569&#45;&gt;Node2571 -->
<g id="edge5" class="edge">
<title>Node2569&#45;&gt;Node2571</title>
<path fill="none" stroke="#191970" d="M512.7602,-44.8278C442.2804,-48.3242 344.6967,-53.1652 281.216,-56.3143"/>
<polygon fill="#191970" stroke="#191970" points="513.1407,-48.3133 522.955,-44.3221 512.7938,-41.3219 513.1407,-48.3133"/>
</g>
<!-- Node2570&#45;&gt;Node2571 -->
<g id="edge2" class="edge">
<title>Node2570&#45;&gt;Node2571</title>
<path fill="none" stroke="#191970" d="M345.48,-33.1095C319.1688,-38.514 288.2565,-44.8635 263.3476,-49.9799"/>
<polygon fill="#191970" stroke="#191970" points="346.2254,-36.5296 355.3167,-31.089 344.817,-29.6727 346.2254,-36.5296"/>
</g>
<!-- Node2573 -->
<g id="node5" class="node">
<title>Node2573</title>
<g id="a_node5"><a xlink:href="../../d8/d0a/classSqliteReferenceModel.html#a1ac2032bc655c193c0352776b4446b37" target="_top" xlink:title=" ">
<polygon fill="#ffffff" stroke="#000000" points="155,-.5 155,-30.5 279,-30.5 279,-.5 155,-.5"/>
<text text-anchor="start" x="163" y="-18.5" font-family="Helvetica,sans-Serif" font-size="10.00" fill="#000000">SqliteReferenceModel</text>
<text text-anchor="middle" x="217" y="-7.5" font-family="Helvetica,sans-Serif" font-size="10.00" fill="#000000">::loadFromDB</text>
</a>
</g>
</g>
<!-- Node2570&#45;&gt;Node2573 -->
<g id="edge4" class="edge">
<title>Node2570&#45;&gt;Node2573</title>
<path fill="none" stroke="#191970" d="M306.6629,-18.408C297.3088,-18.1046 287.9934,-17.8025 279.0999,-17.514"/>
<polygon fill="#191970" stroke="#191970" points="306.7019,-21.911 316.8101,-18.7371 306.9289,-14.9147 306.7019,-21.911"/>
</g>
<!-- Node2572 -->
<g id="node4" class="node">
<title>Node2572</title>
<g id="a_node4"><a xlink:href="../../d4/d72/classModelPart.html#adf7da7f6e9d337041488778723bc8cda" target="_top" xlink:title=" ">
<polygon fill="#ffffff" stroke="#000000" points="0,-50 0,-69 117,-69 117,-50 0,-50"/>
<text text-anchor="middle" x="58.5" y="-57" font-family="Helvetica,sans-Serif" font-size="10.00" fill="#000000">ModelPart::copyStuff</text>
</a>
</g>
</g>
<!-- Node2571&#45;&gt;Node2572 -->
<g id="edge3" class="edge">
<title>Node2571&#45;&gt;Node2572</title>
<path fill="none" stroke="#191970" d="M142.8975,-59.5C134.2478,-59.5 125.5161,-59.5 117.1167,-59.5"/>
<polygon fill="#191970" stroke="#191970" points="142.9889,-63.0001 152.9889,-59.5 142.9888,-56.0001 142.9889,-63.0001"/>
</g>
</g>
</svg>
