<?xml version="1.0" encoding="UTF-8" standalone="no"?>
<!DOCTYPE svg PUBLIC "-//W3C//DTD SVG 1.1//EN"
 "http://www.w3.org/Graphics/SVG/1.1/DTD/svg11.dtd">
<!-- Generated by graphviz version 2.40.1 (0)
 -->
<!-- Title: processeventblocker.h Pages: 1 -->
<!--zoomable 95 -->
<svg id="main" version="1.1" xmlns="http://www.w3.org/2000/svg" xmlns:xlink="http://www.w3.org/1999/xlink" xml:space="preserve" onload="init(evt)">
<style type="text/css"><![CDATA[
.edge:hover path { stroke: red; }
.edge:hover polygon { stroke: red; fill: red; }
]]></style>
<script type="text/javascript"><![CDATA[
var edges = document.getElementsByTagName('g');
if (edges && edges.length) {
  for (var i=0;i<edges.length;i++) {
    if (edges[i].id.substr(0,4)=='edge') {
      edges[i].setAttribute('class','edge');
    }
  }
}
]]></script>
        <defs>
                <circle id="rim" cx="0" cy="0" r="7"/>
                <circle id="rim2" cx="0" cy="0" r="3.5"/>
                <g id="zoomPlus">
                        <use xlink:href="#rim" fill="#404040">
                                <set attributeName="fill" to="#808080" begin="zoomplus.mouseover" end="zoomplus.mouseout"/>
                        </use>
                        <path d="M-4,0h8M0,-4v8" fill="none" stroke="white" stroke-width="1.5" pointer-events="none"/>
                </g>
                <g id="zoomMin">
                        <use xlink:href="#rim" fill="#404040">
                                <set attributeName="fill" to="#808080" begin="zoomminus.mouseover" end="zoomminus.mouseout"/>
                        </use>
                        <path d="M-4,0h8" fill="none" stroke="white" stroke-width="1.5" pointer-events="none"/>
                </g>
                <g id="dirArrow">
                        <path fill="none" stroke="white" stroke-width="1.5" d="M0,-3.0v7 M-2.5,-0.5L0,-3.0L2.5,-0.5"/>
                </g>
               <g id="resetDef">
                       <use xlink:href="#rim2" fill="#404040">
                               <set attributeName="fill" to="#808080" begin="reset.mouseover" end="reset.mouseout"/>
                       </use>
               </g>
        </defs>

<script type="text/javascript">
var viewWidth = 2124;
var viewHeight = 95;
var sectionId = 'dynsection-1';
</script>
<script xlink:href="../../svgpan.js"/>
<svg id="graph" class="graph">
<g id="viewport">
<title>processeventblocker.h</title>
<polygon fill="#ffffff" stroke="transparent" points="-4,4 -4,-91 2119.5,-91 2119.5,4 -4,4"/>
<!-- Node2 -->
<g id="node1" class="node">
<title>Node2</title>
<g id="a_node1"><a xlink:title=" ">
<polygon fill="#bfbfbf" stroke="#000000" points="914,-67.5 914,-86.5 1039,-86.5 1039,-67.5 914,-67.5"/>
<text text-anchor="middle" x="976.5" y="-74.5" font-family="Helvetica,sans-Serif" font-size="10.00" fill="#000000">processeventblocker.h</text>
</a>
</g>
</g>
<!-- Node3 -->
<g id="node2" class="node">
<title>Node3</title>
<g id="a_node2"><a xlink:href="../../d5/d7f/autorouter_8cpp.html" target="_top" xlink:title=" ">
<polygon fill="#ffffff" stroke="#000000" points="0,-6 0,-25 137,-25 137,-6 0,-6"/>
<text text-anchor="middle" x="68.5" y="-13" font-family="Helvetica,sans-Serif" font-size="10.00" fill="#000000">autoroute/autorouter.cpp</text>
</a>
</g>
</g>
<!-- Node2&#45;&gt;Node3 -->
<g id="edge1" class="edge">
<title>Node2&#45;&gt;Node3</title>
<path fill="none" stroke="#191970" d="M903.6214,-74.3094C729.1407,-67.6505 291.1233,-49.59 145.5,-31 134.0025,-29.5323 121.6512,-27.3304 110.2807,-25.0437"/>
<polygon fill="#191970" stroke="#191970" points="903.6046,-77.8112 913.7304,-74.6937 903.8706,-70.8162 903.6046,-77.8112"/>
</g>
<!-- Node4 -->
<g id="node3" class="node">
<title>Node4</title>
<g id="a_node3"><a xlink:href="../../df/d02/cmrouter_8cpp.html" target="_top" xlink:title=" ">
<polygon fill="#ffffff" stroke="#000000" points="155,-.5 155,-30.5 266,-30.5 266,-.5 155,-.5"/>
<text text-anchor="start" x="163" y="-18.5" font-family="Helvetica,sans-Serif" font-size="10.00" fill="#000000">autoroute/cmrouter</text>
<text text-anchor="middle" x="210.5" y="-7.5" font-family="Helvetica,sans-Serif" font-size="10.00" fill="#000000">/cmrouter.cpp</text>
</a>
</g>
</g>
<!-- Node2&#45;&gt;Node4 -->
<g id="edge2" class="edge">
<title>Node2&#45;&gt;Node4</title>
<path fill="none" stroke="#191970" d="M903.6995,-73.7823C749.6426,-66.7181 395.0094,-49.0386 275.5,-31 272.4028,-30.5325 269.2358,-29.9912 266.0483,-29.3969"/>
<polygon fill="#191970" stroke="#191970" points="903.8466,-77.2926 913.9958,-74.2524 904.1659,-70.2999 903.8466,-77.2926"/>
</g>
<!-- Node5 -->
<g id="node4" class="node">
<title>Node5</title>
<g id="a_node4"><a xlink:href="../../df/da0/drc_8cpp.html" target="_top" xlink:title=" ">
<polygon fill="#ffffff" stroke="#000000" points="284.5,-6 284.5,-25 386.5,-25 386.5,-6 284.5,-6"/>
<text text-anchor="middle" x="335.5" y="-13" font-family="Helvetica,sans-Serif" font-size="10.00" fill="#000000">autoroute/drc.cpp</text>
</a>
</g>
</g>
<!-- Node2&#45;&gt;Node5 -->
<g id="edge3" class="edge">
<title>Node2&#45;&gt;Node5</title>
<path fill="none" stroke="#191970" d="M903.6914,-75.2906C793.16,-71.7841 576.7079,-61.3427 395.5,-31 386.5868,-29.5075 377.063,-27.3257 368.2888,-25.0675"/>
<polygon fill="#191970" stroke="#191970" points="903.6265,-78.7902 913.7293,-75.5992 903.8416,-71.7935 903.6265,-78.7902"/>
</g>
<!-- Node6 -->
<g id="node5" class="node">
<title>Node6</title>
<g id="a_node5"><a xlink:href="../../dc/d77/mazerouter_8cpp.html" target="_top" xlink:title=" ">
<polygon fill="#ffffff" stroke="#000000" points="405,-.5 405,-30.5 528,-30.5 528,-.5 405,-.5"/>
<text text-anchor="start" x="413" y="-18.5" font-family="Helvetica,sans-Serif" font-size="10.00" fill="#000000">autoroute/mazerouter</text>
<text text-anchor="middle" x="466.5" y="-7.5" font-family="Helvetica,sans-Serif" font-size="10.00" fill="#000000">/mazerouter.cpp</text>
</a>
</g>
</g>
<!-- Node2&#45;&gt;Node6 -->
<g id="edge4" class="edge">
<title>Node2&#45;&gt;Node6</title>
<path fill="none" stroke="#191970" d="M903.8138,-71.9477C816.2959,-65.2783 665.0287,-51.879 536.5,-31 533.7971,-30.5609 531.0417,-30.0828 528.2629,-29.5757"/>
<polygon fill="#191970" stroke="#191970" points="903.6693,-75.4467 913.9042,-72.7083 904.1956,-68.4665 903.6693,-75.4467"/>
</g>
<!-- Node7 -->
<g id="node6" class="node">
<title>Node7</title>
<g id="a_node6"><a xlink:href="../../da/d99/panelizer_8cpp.html" target="_top" xlink:title=" ">
<polygon fill="#ffffff" stroke="#000000" points="546,-6 546,-25 677,-25 677,-6 546,-6"/>
<text text-anchor="middle" x="611.5" y="-13" font-family="Helvetica,sans-Serif" font-size="10.00" fill="#000000">autoroute/panelizer.cpp</text>
</a>
</g>
</g>
<!-- Node2&#45;&gt;Node7 -->
<g id="edge5" class="edge">
<title>Node2&#45;&gt;Node7</title>
<path fill="none" stroke="#191970" d="M903.9414,-66.5533C844.9666,-57.8165 759.6868,-44.6244 685.5,-31 675.6883,-29.1981 665.1803,-27.1 655.2543,-25.0403"/>
<polygon fill="#191970" stroke="#191970" points="903.5014,-70.0262 913.9053,-68.0241 904.5237,-63.1012 903.5014,-70.0262"/>
</g>
<!-- Node8 -->
<g id="node7" class="node">
<title>Node8</title>
<g id="a_node7"><a xlink:href="../../d6/dbb/fapplication_8cpp.html" target="_top" xlink:title=" ">
<polygon fill="#ffffff" stroke="#000000" points="695,-6 695,-25 790,-25 790,-6 695,-6"/>
<text text-anchor="middle" x="742.5" y="-13" font-family="Helvetica,sans-Serif" font-size="10.00" fill="#000000">fapplication.cpp</text>
</a>
</g>
</g>
<!-- Node2&#45;&gt;Node8 -->
<g id="edge6" class="edge">
<title>Node2&#45;&gt;Node8</title>
<path fill="none" stroke="#191970" d="M929.0539,-64.8237C893.3908,-55.6339 843.3454,-42.6585 799.5,-31 792.3642,-29.1026 784.7335,-27.0464 777.4508,-25.0708"/>
<polygon fill="#191970" stroke="#191970" points="928.6179,-68.3256 939.1748,-67.4296 930.3634,-61.5467 928.6179,-68.3256"/>
</g>
<!-- Node9 -->
<g id="node8" class="node">
<title>Node9</title>
<g id="a_node8"><a xlink:href="../../d8/dd9/mainwindow_8cpp.html" target="_top" xlink:title=" ">
<polygon fill="#ffffff" stroke="#000000" points="808.5,-6 808.5,-25 972.5,-25 972.5,-6 808.5,-6"/>
<text text-anchor="middle" x="890.5" y="-13" font-family="Helvetica,sans-Serif" font-size="10.00" fill="#000000">mainwindow/mainwindow.cpp</text>
</a>
</g>
</g>
<!-- Node2&#45;&gt;Node9 -->
<g id="edge7" class="edge">
<title>Node2&#45;&gt;Node9</title>
<path fill="none" stroke="#191970" d="M954.7812,-61.4685C938.7491,-50.0037 917.4396,-34.765 903.8431,-25.0419"/>
<polygon fill="#191970" stroke="#191970" points="952.8924,-64.4207 963.0625,-67.3906 956.9643,-58.7268 952.8924,-64.4207"/>
</g>
<!-- Node10 -->
<g id="node9" class="node">
<title>Node10</title>
<g id="a_node9"><a xlink:href="../../d8/dfb/mainwindow__export_8cpp.html" target="_top" xlink:title=" ">
<polygon fill="#ffffff" stroke="#000000" points="990.5,-.5 990.5,-30.5 1134.5,-30.5 1134.5,-.5 990.5,-.5"/>
<text text-anchor="start" x="998.5" y="-18.5" font-family="Helvetica,sans-Serif" font-size="10.00" fill="#000000">mainwindow/mainwindow</text>
<text text-anchor="middle" x="1062.5" y="-7.5" font-family="Helvetica,sans-Serif" font-size="10.00" fill="#000000">_export.cpp</text>
</a>
</g>
</g>
<!-- Node2&#45;&gt;Node10 -->
<g id="edge8" class="edge">
<title>Node2&#45;&gt;Node10</title>
<path fill="none" stroke="#191970" d="M998.4379,-61.3119C1011.6584,-51.8577 1028.4064,-39.8809 1041.462,-30.5446"/>
<polygon fill="#191970" stroke="#191970" points="996.0357,-58.7268 989.9375,-67.3906 1000.1076,-64.4207 996.0357,-58.7268"/>
</g>
<!-- Node11 -->
<g id="node10" class="node">
<title>Node11</title>
<g id="a_node10"><a xlink:href="../../d2/de1/mainwindow__menu_8cpp.html" target="_top" xlink:title=" ">
<polygon fill="#ffffff" stroke="#000000" points="1152.5,-.5 1152.5,-30.5 1296.5,-30.5 1296.5,-.5 1152.5,-.5"/>
<text text-anchor="start" x="1160.5" y="-18.5" font-family="Helvetica,sans-Serif" font-size="10.00" fill="#000000">mainwindow/mainwindow</text>
<text text-anchor="middle" x="1224.5" y="-7.5" font-family="Helvetica,sans-Serif" font-size="10.00" fill="#000000">_menu.cpp</text>
</a>
</g>
</g>
<!-- Node2&#45;&gt;Node11 -->
<g id="edge9" class="edge">
<title>Node2&#45;&gt;Node11</title>
<path fill="none" stroke="#191970" d="M1024.6885,-65.05C1064.3819,-55.2067 1120.8941,-41.1926 1163.696,-30.5784"/>
<polygon fill="#191970" stroke="#191970" points="1023.8415,-61.654 1014.9779,-67.4581 1025.5264,-68.4482 1023.8415,-61.654"/>
</g>
<!-- Node12 -->
<g id="node11" class="node">
<title>Node12</title>
<g id="a_node11"><a xlink:href="../../d3/d9c/processeventblocker_8cpp.html" target="_top" xlink:title=" ">
<polygon fill="#ffffff" stroke="#000000" points="1315,-6 1315,-25 1452,-25 1452,-6 1315,-6"/>
<text text-anchor="middle" x="1383.5" y="-13" font-family="Helvetica,sans-Serif" font-size="10.00" fill="#000000">processeventblocker.cpp</text>
</a>
</g>
</g>
<!-- Node2&#45;&gt;Node12 -->
<g id="edge10" class="edge">
<title>Node2&#45;&gt;Node12</title>
<path fill="none" stroke="#191970" d="M1049.1262,-68.0588C1115.9131,-59.549 1217.6047,-45.8653 1305.5,-31 1315.9821,-29.2272 1327.2152,-27.1186 1337.7992,-25.0365"/>
<polygon fill="#191970" stroke="#191970" points="1048.6032,-64.5971 1039.1233,-69.328 1049.4843,-71.5414 1048.6032,-64.5971"/>
</g>
<!-- Node13 -->
<g id="node12" class="node">
<title>Node13</title>
<g id="a_node12"><a xlink:href="../../de/d4c/pcbsketchwidget_8cpp.html" target="_top" xlink:title=" ">
<polygon fill="#ffffff" stroke="#000000" points="1470,-6 1470,-25 1623,-25 1623,-6 1470,-6"/>
<text text-anchor="middle" x="1546.5" y="-13" font-family="Helvetica,sans-Serif" font-size="10.00" fill="#000000">sketch/pcbsketchwidget.cpp</text>
</a>
</g>
</g>
<!-- Node2&#45;&gt;Node13 -->
<g id="edge11" class="edge">
<title>Node2&#45;&gt;Node13</title>
<path fill="none" stroke="#191970" d="M1049.1764,-72.0618C1144.2235,-65.1564 1315.7932,-51.157 1461.5,-31 1473.387,-29.3556 1486.1454,-27.2252 1498.0698,-25.0733"/>
<polygon fill="#191970" stroke="#191970" points="1048.8189,-68.5784 1039.0964,-72.7883 1049.3222,-75.5602 1048.8189,-68.5784"/>
</g>
<!-- Node14 -->
<g id="node13" class="node">
<title>Node14</title>
<g id="a_node13"><a xlink:href="../../d5/d1f/groundplanegenerator_8cpp.html" target="_top" xlink:title=" ">
<polygon fill="#ffffff" stroke="#000000" points="1641.5,-6 1641.5,-25 1805.5,-25 1805.5,-6 1641.5,-6"/>
<text text-anchor="middle" x="1723.5" y="-13" font-family="Helvetica,sans-Serif" font-size="10.00" fill="#000000">svg/groundplanegenerator.cpp</text>
</a>
</g>
</g>
<!-- Node2&#45;&gt;Node14 -->
<g id="edge12" class="edge">
<title>Node2&#45;&gt;Node14</title>
<path fill="none" stroke="#191970" d="M1049.3776,-74.241C1170.6909,-69.122 1421.5705,-56.2966 1632.5,-31 1645.5479,-29.4352 1659.5737,-27.2825 1672.612,-25.0791"/>
<polygon fill="#191970" stroke="#191970" points="1048.9503,-70.7557 1039.1047,-74.6691 1049.2418,-77.7496 1048.9503,-70.7557"/>
</g>
<!-- Node15 -->
<g id="node14" class="node">
<title>Node15</title>
<g id="a_node14"><a xlink:href="../../d0/d26/bezierdisplay_8cpp.html" target="_top" xlink:title=" ">
<polygon fill="#ffffff" stroke="#000000" points="1824,-6 1824,-25 1949,-25 1949,-6 1824,-6"/>
<text text-anchor="middle" x="1886.5" y="-13" font-family="Helvetica,sans-Serif" font-size="10.00" fill="#000000">utils/bezierdisplay.cpp</text>
</a>
</g>
</g>
<!-- Node2&#45;&gt;Node15 -->
<g id="edge13" class="edge">
<title>Node2&#45;&gt;Node15</title>
<path fill="none" stroke="#191970" d="M1049.3732,-74.4734C1224.9295,-68.1485 1667.6011,-50.7193 1814.5,-31 1825.2718,-29.554 1836.8281,-27.3595 1847.4603,-25.0729"/>
<polygon fill="#191970" stroke="#191970" points="1049.0723,-70.9818 1039.2042,-74.8381 1049.3233,-77.9773 1049.0723,-70.9818"/>
</g>
<!-- Node16 -->
<g id="node15" class="node">
<title>Node16</title>
<g id="a_node15"><a xlink:href="../../db/dc5/fileprogressdialog_8cpp.html" target="_top" xlink:title=" ">
<polygon fill="#ffffff" stroke="#000000" points="1967.5,-6 1967.5,-25 2115.5,-25 2115.5,-6 1967.5,-6"/>
<text text-anchor="middle" x="2041.5" y="-13" font-family="Helvetica,sans-Serif" font-size="10.00" fill="#000000">utils/fileprogressdialog.cpp</text>
</a>
</g>
</g>
<!-- Node2&#45;&gt;Node16 -->
<g id="edge14" class="edge">
<title>Node2&#45;&gt;Node16</title>
<path fill="none" stroke="#191970" d="M1049.492,-74.8874C1245.8703,-68.9948 1782.4757,-51.46 1958.5,-31 1971.0223,-29.5445 1984.4981,-27.3177 1996.8735,-25.002"/>
<polygon fill="#191970" stroke="#191970" points="1049.1726,-71.3953 1039.2816,-75.1925 1049.3817,-78.3922 1049.1726,-71.3953"/>
</g>
</g>
</svg>
        <g id="navigator" transform="translate(0 0)" fill="#404254">
                <rect fill="#f2f5e9" fill-opacity="0.5" stroke="#606060" stroke-width=".5" x="0" y="0" width="60" height="60"/>
                <use id="zoomplus" xlink:href="#zoomPlus" x="17" y="9" onmousedown="handleZoom(evt,'in')"/>
                <use id="zoomminus" xlink:href="#zoomMin" x="42" y="9" onmousedown="handleZoom(evt,'out')"/>
                <use id="reset" xlink:href="#resetDef" x="30" y="36" onmousedown="handleReset()"/>
                <g id="arrowUp" xlink:href="#dirArrow" transform="translate(30 24)" onmousedown="handlePan(0,-1)">
                  <use xlink:href="#rim" fill="#404040">
                        <set attributeName="fill" to="#808080" begin="arrowUp.mouseover" end="arrowUp.mouseout"/>
                  </use>
                  <path fill="none" stroke="white" stroke-width="1.5" d="M0,-3.0v7 M-2.5,-0.5L0,-3.0L2.5,-0.5"/>
                </g>
                <g id="arrowRight" xlink:href="#dirArrow" transform="rotate(90) translate(36 -43)" onmousedown="handlePan(1,0)">
                  <use xlink:href="#rim" fill="#404040">
                        <set attributeName="fill" to="#808080" begin="arrowRight.mouseover" end="arrowRight.mouseout"/>
                  </use>
                  <path fill="none" stroke="white" stroke-width="1.5" d="M0,-3.0v7 M-2.5,-0.5L0,-3.0L2.5,-0.5"/>
                </g>
                <g id="arrowDown" xlink:href="#dirArrow" transform="rotate(180) translate(-30 -48)" onmousedown="handlePan(0,1)">
                  <use xlink:href="#rim" fill="#404040">
                        <set attributeName="fill" to="#808080" begin="arrowDown.mouseover" end="arrowDown.mouseout"/>
                  </use>
                  <path fill="none" stroke="white" stroke-width="1.5" d="M0,-3.0v7 M-2.5,-0.5L0,-3.0L2.5,-0.5"/>
                </g>
                <g id="arrowLeft" xlink:href="#dirArrow" transform="rotate(270) translate(-36 17)" onmousedown="handlePan(-1,0)">
                  <use xlink:href="#rim" fill="#404040">
                        <set attributeName="fill" to="#808080" begin="arrowLeft.mouseover" end="arrowLeft.mouseout"/>
                  </use>
                  <path fill="none" stroke="white" stroke-width="1.5" d="M0,-3.0v7 M-2.5,-0.5L0,-3.0L2.5,-0.5"/>
                </g>
        </g>
        <svg viewBox="0 0 15 15" width="100%" height="30px" preserveAspectRatio="xMaxYMin meet">
         <g id="arrow_out" transform="scale(0.3 0.3)">
          <a xlink:href="processeventblocker_8h__dep__incl_org.svg" target="_base">
           <rect id="button" ry="5" rx="5" y="6" x="6" height="38" width="38"
                fill="#f2f5e9" fill-opacity="0.5" stroke="#606060" stroke-width="1.0"/>
           <path id="arrow"
             d="M 11.500037,31.436501 C 11.940474,20.09759 22.043105,11.32322 32.158766,21.979434 L 37.068811,17.246167 C 37.068811,17.246167 37.088388,32 37.088388,32 L 22.160133,31.978069 C 22.160133,31.978069 26.997745,27.140456 26.997745,27.140456 C 18.528582,18.264221 13.291696,25.230495 11.500037,31.436501 z"
             style="fill:#404040;"/>
          </a>
         </g>
        </svg>
</svg>
