<?xml version="1.0" encoding="UTF-8" standalone="no"?>
<!DOCTYPE svg PUBLIC "-//W3C//DTD SVG 1.1//EN"
 "http://www.w3.org/Graphics/SVG/1.1/DTD/svg11.dtd">
<!-- Generated by graphviz version 2.40.1 (0)
 -->
<!-- Title: Capacitor::propertyEntry Pages: 1 -->
<svg width="715pt" height="127pt"
 viewBox="0.00 0.00 715.00 126.50" xmlns="http://www.w3.org/2000/svg" xmlns:xlink="http://www.w3.org/1999/xlink">
<g id="graph0" class="graph" transform="scale(1 1) rotate(0) translate(4 122.5)">
<title>Capacitor::propertyEntry</title>
<polygon fill="#ffffff" stroke="transparent" points="-4,4 -4,-122.5 711,-122.5 711,4 -4,4"/>
<!-- Node89 -->
<g id="node1" class="node">
<title>Node89</title>
<g id="a_node1"><a xlink:title=" ">
<polygon fill="#bfbfbf" stroke="#000000" points="0,-44.5 0,-63.5 136,-63.5 136,-44.5 0,-44.5"/>
<text text-anchor="middle" x="68" y="-51.5" font-family="Helvetica,sans-Serif" font-size="10.00" fill="#000000">Capacitor::propertyEntry</text>
</a>
</g>
</g>
<!-- Node90 -->
<g id="node2" class="node">
<title>Node90</title>
<g id="a_node2"><a xlink:href="../../de/db8/classTextUtils.html#a49357f63d33b43321ab11453587f7337" target="_top" xlink:title=" ">
<polygon fill="#ffffff" stroke="#000000" points="172,-88 172,-118 329,-118 329,-88 172,-88"/>
<text text-anchor="start" x="180" y="-106" font-family="Helvetica,sans-Serif" font-size="10.00" fill="#000000">TextUtils::convertFromPower</text>
<text text-anchor="middle" x="250.5" y="-95" font-family="Helvetica,sans-Serif" font-size="10.00" fill="#000000">PrefixU</text>
</a>
</g>
</g>
<!-- Node89&#45;&gt;Node90 -->
<g id="edge1" class="edge">
<title>Node89&#45;&gt;Node90</title>
<path fill="none" stroke="#191970" d="M103.6211,-63.564C126.6253,-69.7405 157.2571,-77.9649 184.5931,-85.3045"/>
<polygon fill="#191970" stroke="#191970" points="183.9294,-88.7502 194.495,-87.963 185.7446,-81.9896 183.9294,-88.7502"/>
</g>
<!-- Node93 -->
<g id="node5" class="node">
<title>Node93</title>
<g id="a_node5"><a xlink:href="../../d8/d86/classInfoGraphicsView.html#a606fdf5fe1049e99851ba1050a9516e6" target="_top" xlink:title=" ">
<polygon fill="#ffffff" stroke="#000000" points="179.5,-39 179.5,-69 321.5,-69 321.5,-39 179.5,-39"/>
<text text-anchor="start" x="187.5" y="-57" font-family="Helvetica,sans-Serif" font-size="10.00" fill="#000000">InfoGraphicsView::getInfo</text>
<text text-anchor="middle" x="250.5" y="-46" font-family="Helvetica,sans-Serif" font-size="10.00" fill="#000000">GraphicsView</text>
</a>
</g>
</g>
<!-- Node89&#45;&gt;Node93 -->
<g id="edge4" class="edge">
<title>Node89&#45;&gt;Node93</title>
<path fill="none" stroke="#191970" d="M136.2158,-54C146.9903,-54 158.2232,-54 169.2585,-54"/>
<polygon fill="#191970" stroke="#191970" points="169.3186,-57.5001 179.3186,-54 169.3185,-50.5001 169.3186,-57.5001"/>
</g>
<!-- Node94 -->
<g id="node6" class="node">
<title>Node94</title>
<g id="a_node6"><a xlink:href="../../d8/d86/classInfoGraphicsView.html#a8145c2506e83be0479c1fda2f6abda4f" target="_top" xlink:title=" ">
<polygon fill="#ffffff" stroke="#000000" points="178.5,-.5 178.5,-19.5 322.5,-19.5 322.5,-.5 178.5,-.5"/>
<text text-anchor="middle" x="250.5" y="-7.5" font-family="Helvetica,sans-Serif" font-size="10.00" fill="#000000">InfoGraphicsView::setProp</text>
</a>
</g>
</g>
<!-- Node89&#45;&gt;Node94 -->
<g id="edge5" class="edge">
<title>Node89&#45;&gt;Node94</title>
<path fill="none" stroke="#191970" d="M107.5998,-44.4527C134.9826,-37.8508 171.6181,-29.0181 200.9387,-21.949"/>
<polygon fill="#191970" stroke="#191970" points="202.0764,-25.2751 210.9775,-19.5287 200.4357,-18.4701 202.0764,-25.2751"/>
</g>
<!-- Node91 -->
<g id="node3" class="node">
<title>Node91</title>
<g id="a_node3"><a xlink:href="../../de/db8/classTextUtils.html#a76aaffd8ac18c90c1d829e7bdde11556" target="_top" xlink:title=" ">
<polygon fill="#ffffff" stroke="#000000" points="365,-88 365,-118 522,-118 522,-88 365,-88"/>
<text text-anchor="start" x="373" y="-106" font-family="Helvetica,sans-Serif" font-size="10.00" fill="#000000">TextUtils::convertFromPower</text>
<text text-anchor="middle" x="443.5" y="-95" font-family="Helvetica,sans-Serif" font-size="10.00" fill="#000000">Prefix</text>
</a>
</g>
</g>
<!-- Node90&#45;&gt;Node91 -->
<g id="edge2" class="edge">
<title>Node90&#45;&gt;Node91</title>
<path fill="none" stroke="#191970" d="M329.0005,-103C337.4766,-103 346.1448,-103 354.7308,-103"/>
<polygon fill="#191970" stroke="#191970" points="354.756,-106.5001 364.7559,-103 354.7559,-99.5001 354.756,-106.5001"/>
</g>
<!-- Node92 -->
<g id="node4" class="node">
<title>Node92</title>
<g id="a_node4"><a xlink:href="../../de/db8/classTextUtils.html#a6d3d27199572ef69fc3d13417c08cc5e" target="_top" xlink:title=" ">
<polygon fill="#ffffff" stroke="#000000" points="558,-93.5 558,-112.5 707,-112.5 707,-93.5 558,-93.5"/>
<text text-anchor="middle" x="632.5" y="-100.5" font-family="Helvetica,sans-Serif" font-size="10.00" fill="#000000">TextUtils::initPowerPrefixes</text>
</a>
</g>
</g>
<!-- Node91&#45;&gt;Node92 -->
<g id="edge3" class="edge">
<title>Node91&#45;&gt;Node92</title>
<path fill="none" stroke="#191970" d="M522.0111,-103C530.5399,-103 539.2478,-103 547.8457,-103"/>
<polygon fill="#191970" stroke="#191970" points="547.8711,-106.5001 557.8711,-103 547.8711,-99.5001 547.8711,-106.5001"/>
</g>
</g>
</svg>
