<?xml version="1.0" encoding="UTF-8" standalone="no"?>
<!DOCTYPE svg PUBLIC "-//W3C//DTD SVG 1.1//EN"
 "http://www.w3.org/Graphics/SVG/1.1/DTD/svg11.dtd">
<!-- Generated by graphviz version 2.40.1 (0)
 -->
<!-- Title: partseditor/pemetadataview.h Pages: 1 -->
<svg width="368pt" height="84pt"
 viewBox="0.00 0.00 368.00 84.00" xmlns="http://www.w3.org/2000/svg" xmlns:xlink="http://www.w3.org/1999/xlink">
<g id="graph0" class="graph" transform="scale(1 1) rotate(0) translate(4 80)">
<title>partseditor/pemetadataview.h</title>
<polygon fill="#ffffff" stroke="transparent" points="-4,4 -4,-80 364,-80 364,4 -4,4"/>
<!-- Node67 -->
<g id="node1" class="node">
<title>Node67</title>
<g id="a_node1"><a xlink:title=" ">
<polygon fill="#bfbfbf" stroke="#000000" points="95.5,-56.5 95.5,-75.5 259.5,-75.5 259.5,-56.5 95.5,-56.5"/>
<text text-anchor="middle" x="177.5" y="-63.5" font-family="Helvetica,sans-Serif" font-size="10.00" fill="#000000">partseditor/pemetadataview.h</text>
</a>
</g>
</g>
<!-- Node68 -->
<g id="node2" class="node">
<title>Node68</title>
<g id="a_node2"><a xlink:href="../../d3/de2/pemainwindow_8cpp.html" target="_top" xlink:title=" ">
<polygon fill="#ffffff" stroke="#000000" points="0,-.5 0,-19.5 167,-19.5 167,-.5 0,-.5"/>
<text text-anchor="middle" x="83.5" y="-7.5" font-family="Helvetica,sans-Serif" font-size="10.00" fill="#000000">partseditor/pemainwindow.cpp</text>
</a>
</g>
</g>
<!-- Node67&#45;&gt;Node68 -->
<g id="edge1" class="edge">
<title>Node67&#45;&gt;Node68</title>
<path fill="none" stroke="#191970" d="M152.3995,-51.0465C135.674,-41.0824 114.1832,-28.2794 99.6859,-19.6427"/>
<polygon fill="#191970" stroke="#191970" points="150.7441,-54.1343 161.1264,-56.2455 154.3268,-48.1206 150.7441,-54.1343"/>
</g>
<!-- Node69 -->
<g id="node3" class="node">
<title>Node69</title>
<g id="a_node3"><a xlink:href="../../d9/d0b/pemetadataview_8cpp.html" target="_top" xlink:title=" ">
<polygon fill="#ffffff" stroke="#000000" points="185,-.5 185,-19.5 360,-19.5 360,-.5 185,-.5"/>
<text text-anchor="middle" x="272.5" y="-7.5" font-family="Helvetica,sans-Serif" font-size="10.00" fill="#000000">partseditor/pemetadataview.cpp</text>
</a>
</g>
</g>
<!-- Node67&#45;&gt;Node69 -->
<g id="edge2" class="edge">
<title>Node67&#45;&gt;Node69</title>
<path fill="none" stroke="#191970" d="M202.8676,-51.0465C219.771,-41.0824 241.4904,-28.2794 256.1419,-19.6427"/>
<polygon fill="#191970" stroke="#191970" points="200.8851,-48.1522 194.0477,-56.2455 204.4398,-54.1825 200.8851,-48.1522"/>
</g>
</g>
</svg>
