<?xml version="1.0" encoding="UTF-8" standalone="no"?>
<!DOCTYPE svg PUBLIC "-//W3C//DTD SVG 1.1//EN"
 "http://www.w3.org/Graphics/SVG/1.1/DTD/svg11.dtd">
<!-- Generated by graphviz version 2.40.1 (0)
 -->
<!-- Title: FileProgressDialog Pages: 1 -->
<!--zoomable 446 -->
<svg id="main" version="1.1" xmlns="http://www.w3.org/2000/svg" xmlns:xlink="http://www.w3.org/1999/xlink" xml:space="preserve" onload="init(evt)">
<style type="text/css"><![CDATA[
.edge:hover path { stroke: red; }
.edge:hover polygon { stroke: red; fill: red; }
]]></style>
<script type="text/javascript"><![CDATA[
var edges = document.getElementsByTagName('g');
if (edges && edges.length) {
  for (var i=0;i<edges.length;i++) {
    if (edges[i].id.substr(0,4)=='edge') {
      edges[i].setAttribute('class','edge');
    }
  }
}
]]></script>
        <defs>
                <circle id="rim" cx="0" cy="0" r="7"/>
                <circle id="rim2" cx="0" cy="0" r="3.5"/>
                <g id="zoomPlus">
                        <use xlink:href="#rim" fill="#404040">
                                <set attributeName="fill" to="#808080" begin="zoomplus.mouseover" end="zoomplus.mouseout"/>
                        </use>
                        <path d="M-4,0h8M0,-4v8" fill="none" stroke="white" stroke-width="1.5" pointer-events="none"/>
                </g>
                <g id="zoomMin">
                        <use xlink:href="#rim" fill="#404040">
                                <set attributeName="fill" to="#808080" begin="zoomminus.mouseover" end="zoomminus.mouseout"/>
                        </use>
                        <path d="M-4,0h8" fill="none" stroke="white" stroke-width="1.5" pointer-events="none"/>
                </g>
                <g id="dirArrow">
                        <path fill="none" stroke="white" stroke-width="1.5" d="M0,-3.0v7 M-2.5,-0.5L0,-3.0L2.5,-0.5"/>
                </g>
               <g id="resetDef">
                       <use xlink:href="#rim2" fill="#404040">
                               <set attributeName="fill" to="#808080" begin="reset.mouseover" end="reset.mouseout"/>
                       </use>
               </g>
        </defs>

<script type="text/javascript">
var viewWidth = 636;
var viewHeight = 446;
var sectionId = 'dynsection-1';
</script>
<script xlink:href="../../svgpan.js"/>
<svg id="graph" class="graph">
<g id="viewport">
<title>FileProgressDialog</title>
<polygon fill="#ffffff" stroke="transparent" points="-4,4 -4,-442 632,-442 632,4 -4,4"/>
<!-- Node2 -->
<g id="node1" class="node">
<title>Node2</title>
<g id="a_node1"><a xlink:title=" ">
<polygon fill="#bfbfbf" stroke="#000000" points="224,-.5 224,-288.5 362,-288.5 362,-.5 224,-.5"/>
<text text-anchor="middle" x="293" y="-276.5" font-family="Helvetica,sans-Serif" font-size="10.00" fill="#000000">FileProgressDialog</text>
<polyline fill="none" stroke="#000000" points="224,-269.5 362,-269.5 "/>
<text text-anchor="middle" x="293" y="-257.5" font-family="Helvetica,sans-Serif" font-size="10.00" fill="#000000"> </text>
<polyline fill="none" stroke="#000000" points="224,-250.5 362,-250.5 "/>
<text text-anchor="start" x="232" y="-238.5" font-family="Helvetica,sans-Serif" font-size="10.00" fill="#000000">+ FileProgressDialog()</text>
<text text-anchor="start" x="232" y="-227.5" font-family="Helvetica,sans-Serif" font-size="10.00" fill="#000000">+ FileProgressDialog()</text>
<text text-anchor="start" x="232" y="-216.5" font-family="Helvetica,sans-Serif" font-size="10.00" fill="#000000">+ ~FileProgressDialog()</text>
<text text-anchor="start" x="232" y="-205.5" font-family="Helvetica,sans-Serif" font-size="10.00" fill="#000000">+ setBinLoadingChunk()</text>
<text text-anchor="start" x="232" y="-194.5" font-family="Helvetica,sans-Serif" font-size="10.00" fill="#000000">+ setBinLoadingCount()</text>
<text text-anchor="start" x="232" y="-183.5" font-family="Helvetica,sans-Serif" font-size="10.00" fill="#000000">+ setIncValueMod()</text>
<text text-anchor="start" x="232" y="-172.5" font-family="Helvetica,sans-Serif" font-size="10.00" fill="#000000">+ setIndeterminate()</text>
<text text-anchor="start" x="232" y="-161.5" font-family="Helvetica,sans-Serif" font-size="10.00" fill="#000000">+ value()</text>
<text text-anchor="start" x="232" y="-150.5" font-family="Helvetica,sans-Serif" font-size="10.00" fill="#000000">+ addMaximum()</text>
<text text-anchor="start" x="232" y="-139.5" font-family="Helvetica,sans-Serif" font-size="10.00" fill="#000000">+ incValue()</text>
<text text-anchor="start" x="232" y="-128.5" font-family="Helvetica,sans-Serif" font-size="10.00" fill="#000000">+ loadingInstanceSlot()</text>
<text text-anchor="start" x="232" y="-117.5" font-family="Helvetica,sans-Serif" font-size="10.00" fill="#000000">+ loadingInstancesSlot()</text>
<text text-anchor="start" x="232" y="-106.5" font-family="Helvetica,sans-Serif" font-size="10.00" fill="#000000">+ sendCancel()</text>
<text text-anchor="start" x="232" y="-95.5" font-family="Helvetica,sans-Serif" font-size="10.00" fill="#000000">+ setMaximum()</text>
<text text-anchor="start" x="232" y="-84.5" font-family="Helvetica,sans-Serif" font-size="10.00" fill="#000000">+ setMessage()</text>
<text text-anchor="start" x="232" y="-73.5" font-family="Helvetica,sans-Serif" font-size="10.00" fill="#000000">+ setMinimum()</text>
<text text-anchor="start" x="232" y="-62.5" font-family="Helvetica,sans-Serif" font-size="10.00" fill="#000000">+ settingItemSlot()</text>
<text text-anchor="start" x="232" y="-51.5" font-family="Helvetica,sans-Serif" font-size="10.00" fill="#000000">+ setValue()</text>
<text text-anchor="start" x="232" y="-40.5" font-family="Helvetica,sans-Serif" font-size="10.00" fill="#000000"># closeEvent()</text>
<text text-anchor="start" x="232" y="-29.5" font-family="Helvetica,sans-Serif" font-size="10.00" fill="#000000"># init()</text>
<text text-anchor="start" x="232" y="-18.5" font-family="Helvetica,sans-Serif" font-size="10.00" fill="#000000"># resizeEvent()</text>
<text text-anchor="start" x="232" y="-7.5" font-family="Helvetica,sans-Serif" font-size="10.00" fill="#000000"># updateIndeterminate()</text>
</a>
</g>
</g>
<!-- Node3 -->
<g id="node2" class="node">
<title>Node3</title>
<g id="a_node2"><a xlink:href="../../d9/d46/classQDialog.html" target="_top" xlink:title=" ">
<polygon fill="#ffffff" stroke="#000000" points="0,-380.5 0,-437.5 56,-437.5 56,-380.5 0,-380.5"/>
<text text-anchor="middle" x="28" y="-425.5" font-family="Helvetica,sans-Serif" font-size="10.00" fill="#000000">QDialog</text>
<polyline fill="none" stroke="#000000" points="0,-418.5 56,-418.5 "/>
<text text-anchor="middle" x="28" y="-406.5" font-family="Helvetica,sans-Serif" font-size="10.00" fill="#000000"> </text>
<polyline fill="none" stroke="#000000" points="0,-399.5 56,-399.5 "/>
<text text-anchor="middle" x="28" y="-387.5" font-family="Helvetica,sans-Serif" font-size="10.00" fill="#000000"> </text>
</a>
</g>
</g>
<!-- Node3&#45;&gt;Node2 -->
<g id="edge1" class="edge">
<title>Node3&#45;&gt;Node2</title>
<path fill="none" stroke="#191970" d="M58.412,-372.2398C75.1947,-352.4487 96.6971,-327.8815 117,-307 150.9195,-272.1138 190.5969,-235.1732 223.6841,-205.3429"/>
<polygon fill="none" stroke="#191970" points="55.532,-370.2257 51.7593,-380.1261 60.8825,-374.7393 55.532,-370.2257"/>
</g>
<!-- Node4 -->
<g id="node3" class="node">
<title>Node4</title>
<g id="a_node3"><a xlink:title=" ">
<polygon fill="#ffffff" stroke="#bfbfbf" points="74.5,-380.5 74.5,-437.5 165.5,-437.5 165.5,-380.5 74.5,-380.5"/>
<text text-anchor="middle" x="120" y="-425.5" font-family="Helvetica,sans-Serif" font-size="10.00" fill="#000000">QProgressBar *</text>
<polyline fill="none" stroke="#bfbfbf" points="74.5,-418.5 165.5,-418.5 "/>
<text text-anchor="middle" x="120" y="-406.5" font-family="Helvetica,sans-Serif" font-size="10.00" fill="#000000"> </text>
<polyline fill="none" stroke="#bfbfbf" points="74.5,-399.5 165.5,-399.5 "/>
<text text-anchor="middle" x="120" y="-387.5" font-family="Helvetica,sans-Serif" font-size="10.00" fill="#000000"> </text>
</a>
</g>
</g>
<!-- Node4&#45;&gt;Node2 -->
<g id="edge2" class="edge">
<title>Node4&#45;&gt;Node2</title>
<path fill="none" stroke="#404040" d="M119.5634,-380.3383C120.3148,-359.087 123.6672,-329.9496 135,-307 153.8681,-268.791 185.0478,-233.8288 214.7462,-206.2041"/>
<polygon fill="none" stroke="#404040" points="215.0263,-205.9492 216.7705,-198.9522 223.9001,-197.871 222.1559,-204.868 215.0263,-205.9492"/>
<text text-anchor="middle" x="177.5" y="-332" font-family="Helvetica,sans-Serif" font-size="10.00" fill="#000000"> #m_progressBar</text>
</g>
<!-- Node5 -->
<g id="node4" class="node">
<title>Node5</title>
<g id="a_node4"><a xlink:title=" ">
<polygon fill="#ffffff" stroke="#bfbfbf" points="203,-380.5 203,-437.5 253,-437.5 253,-380.5 203,-380.5"/>
<text text-anchor="middle" x="228" y="-425.5" font-family="Helvetica,sans-Serif" font-size="10.00" fill="#000000">double</text>
<polyline fill="none" stroke="#bfbfbf" points="203,-418.5 253,-418.5 "/>
<text text-anchor="middle" x="228" y="-406.5" font-family="Helvetica,sans-Serif" font-size="10.00" fill="#000000"> </text>
<polyline fill="none" stroke="#bfbfbf" points="203,-399.5 253,-399.5 "/>
<text text-anchor="middle" x="228" y="-387.5" font-family="Helvetica,sans-Serif" font-size="10.00" fill="#000000"> </text>
</a>
</g>
</g>
<!-- Node5&#45;&gt;Node2 -->
<g id="edge3" class="edge">
<title>Node5&#45;&gt;Node2</title>
<path fill="none" stroke="#404040" d="M225.5083,-380.1404C224.4025,-359.5589 224.2569,-331.3349 229,-307 229.4273,-304.8075 229.8831,-302.6065 230.3653,-300.3995"/>
<polygon fill="none" stroke="#404040" points="230.4065,-300.2258 227.9041,-293.4628 233.1844,-288.5518 235.6868,-295.3148 230.4065,-300.2258"/>
<text text-anchor="middle" x="282.5" y="-337.5" font-family="Helvetica,sans-Serif" font-size="10.00" fill="#000000"> #m_binLoadingValue</text>
<text text-anchor="middle" x="282.5" y="-326.5" font-family="Helvetica,sans-Serif" font-size="10.00" fill="#000000">#m_binLoadingInc</text>
</g>
<!-- Node6 -->
<g id="node5" class="node">
<title>Node6</title>
<g id="a_node5"><a xlink:title=" ">
<polygon fill="#ffffff" stroke="#bfbfbf" points="331.5,-380.5 331.5,-437.5 384.5,-437.5 384.5,-380.5 331.5,-380.5"/>
<text text-anchor="middle" x="358" y="-425.5" font-family="Helvetica,sans-Serif" font-size="10.00" fill="#000000">QTimer</text>
<polyline fill="none" stroke="#bfbfbf" points="331.5,-418.5 384.5,-418.5 "/>
<text text-anchor="middle" x="358" y="-406.5" font-family="Helvetica,sans-Serif" font-size="10.00" fill="#000000"> </text>
<polyline fill="none" stroke="#bfbfbf" points="331.5,-399.5 384.5,-399.5 "/>
<text text-anchor="middle" x="358" y="-387.5" font-family="Helvetica,sans-Serif" font-size="10.00" fill="#000000"> </text>
</a>
</g>
</g>
<!-- Node6&#45;&gt;Node2 -->
<g id="edge4" class="edge">
<title>Node6&#45;&gt;Node2</title>
<path fill="none" stroke="#404040" d="M352.1883,-380.3415C347.9438,-359.8547 341.9191,-331.6614 336,-307 335.486,-304.8584 334.9649,-302.7019 334.4376,-300.5332"/>
<polygon fill="none" stroke="#404040" points="334.4266,-300.4877 329.1106,-295.6153 331.5637,-288.8342 336.8796,-293.7067 334.4266,-300.4877"/>
<text text-anchor="middle" x="373.5" y="-332" font-family="Helvetica,sans-Serif" font-size="10.00" fill="#000000"> #m_timer</text>
</g>
<!-- Node7 -->
<g id="node6" class="node">
<title>Node7</title>
<g id="a_node6"><a xlink:title=" ">
<polygon fill="#ffffff" stroke="#bfbfbf" points="419.5,-380.5 419.5,-437.5 448.5,-437.5 448.5,-380.5 419.5,-380.5"/>
<text text-anchor="middle" x="434" y="-425.5" font-family="Helvetica,sans-Serif" font-size="10.00" fill="#000000">int</text>
<polyline fill="none" stroke="#bfbfbf" points="419.5,-418.5 448.5,-418.5 "/>
<text text-anchor="middle" x="434" y="-406.5" font-family="Helvetica,sans-Serif" font-size="10.00" fill="#000000"> </text>
<polyline fill="none" stroke="#bfbfbf" points="419.5,-399.5 448.5,-399.5 "/>
<text text-anchor="middle" x="434" y="-387.5" font-family="Helvetica,sans-Serif" font-size="10.00" fill="#000000"> </text>
</a>
</g>
</g>
<!-- Node7&#45;&gt;Node2 -->
<g id="edge5" class="edge">
<title>Node7&#45;&gt;Node2</title>
<path fill="none" stroke="#404040" d="M428.1304,-380.424C423.2298,-359.4772 415.2274,-330.6845 404,-307 394.1547,-286.2312 381.8186,-265.1561 368.9805,-245.3701"/>
<polygon fill="none" stroke="#404040" points="368.844,-245.1632 362.1999,-242.3602 362.2319,-235.1492 368.8759,-237.9521 368.844,-245.1632"/>
<text text-anchor="middle" x="477" y="-354" font-family="Helvetica,sans-Serif" font-size="10.00" fill="#000000"> #m_binLoadingIndex</text>
<text text-anchor="middle" x="477" y="-343" font-family="Helvetica,sans-Serif" font-size="10.00" fill="#000000">#m_incValueMod</text>
<text text-anchor="middle" x="477" y="-332" font-family="Helvetica,sans-Serif" font-size="10.00" fill="#000000">#m_binLoadingChunk</text>
<text text-anchor="middle" x="477" y="-321" font-family="Helvetica,sans-Serif" font-size="10.00" fill="#000000">#m_binLoadingStart</text>
<text text-anchor="middle" x="477" y="-310" font-family="Helvetica,sans-Serif" font-size="10.00" fill="#000000">#m_binLoadingCount</text>
</g>
<!-- Node8 -->
<g id="node7" class="node">
<title>Node8</title>
<g id="a_node7"><a xlink:title=" ">
<polygon fill="#ffffff" stroke="#bfbfbf" points="535.5,-380.5 535.5,-437.5 594.5,-437.5 594.5,-380.5 535.5,-380.5"/>
<text text-anchor="middle" x="565" y="-425.5" font-family="Helvetica,sans-Serif" font-size="10.00" fill="#000000">QLabel *</text>
<polyline fill="none" stroke="#bfbfbf" points="535.5,-418.5 594.5,-418.5 "/>
<text text-anchor="middle" x="565" y="-406.5" font-family="Helvetica,sans-Serif" font-size="10.00" fill="#000000"> </text>
<polyline fill="none" stroke="#bfbfbf" points="535.5,-399.5 594.5,-399.5 "/>
<text text-anchor="middle" x="565" y="-387.5" font-family="Helvetica,sans-Serif" font-size="10.00" fill="#000000"> </text>
</a>
</g>
</g>
<!-- Node8&#45;&gt;Node2 -->
<g id="edge6" class="edge">
<title>Node8&#45;&gt;Node2</title>
<path fill="none" stroke="#404040" d="M561.8978,-380.2735C558.3502,-358.4398 550.8278,-328.583 535,-307 493.5621,-250.4948 426.1557,-207.5761 372.9936,-180.0768"/>
<polygon fill="none" stroke="#404040" points="372.9241,-180.0416 365.7636,-180.8948 362.222,-174.6133 369.3824,-173.7601 372.9241,-180.0416"/>
<text text-anchor="middle" x="592.5" y="-332" font-family="Helvetica,sans-Serif" font-size="10.00" fill="#000000"> #m_message</text>
</g>
</g>
</svg>
        <g id="navigator" transform="translate(0 0)" fill="#404254">
                <rect fill="#f2f5e9" fill-opacity="0.5" stroke="#606060" stroke-width=".5" x="0" y="0" width="60" height="60"/>
                <use id="zoomplus" xlink:href="#zoomPlus" x="17" y="9" onmousedown="handleZoom(evt,'in')"/>
                <use id="zoomminus" xlink:href="#zoomMin" x="42" y="9" onmousedown="handleZoom(evt,'out')"/>
                <use id="reset" xlink:href="#resetDef" x="30" y="36" onmousedown="handleReset()"/>
                <g id="arrowUp" xlink:href="#dirArrow" transform="translate(30 24)" onmousedown="handlePan(0,-1)">
                  <use xlink:href="#rim" fill="#404040">
                        <set attributeName="fill" to="#808080" begin="arrowUp.mouseover" end="arrowUp.mouseout"/>
                  </use>
                  <path fill="none" stroke="white" stroke-width="1.5" d="M0,-3.0v7 M-2.5,-0.5L0,-3.0L2.5,-0.5"/>
                </g>
                <g id="arrowRight" xlink:href="#dirArrow" transform="rotate(90) translate(36 -43)" onmousedown="handlePan(1,0)">
                  <use xlink:href="#rim" fill="#404040">
                        <set attributeName="fill" to="#808080" begin="arrowRight.mouseover" end="arrowRight.mouseout"/>
                  </use>
                  <path fill="none" stroke="white" stroke-width="1.5" d="M0,-3.0v7 M-2.5,-0.5L0,-3.0L2.5,-0.5"/>
                </g>
                <g id="arrowDown" xlink:href="#dirArrow" transform="rotate(180) translate(-30 -48)" onmousedown="handlePan(0,1)">
                  <use xlink:href="#rim" fill="#404040">
                        <set attributeName="fill" to="#808080" begin="arrowDown.mouseover" end="arrowDown.mouseout"/>
                  </use>
                  <path fill="none" stroke="white" stroke-width="1.5" d="M0,-3.0v7 M-2.5,-0.5L0,-3.0L2.5,-0.5"/>
                </g>
                <g id="arrowLeft" xlink:href="#dirArrow" transform="rotate(270) translate(-36 17)" onmousedown="handlePan(-1,0)">
                  <use xlink:href="#rim" fill="#404040">
                        <set attributeName="fill" to="#808080" begin="arrowLeft.mouseover" end="arrowLeft.mouseout"/>
                  </use>
                  <path fill="none" stroke="white" stroke-width="1.5" d="M0,-3.0v7 M-2.5,-0.5L0,-3.0L2.5,-0.5"/>
                </g>
        </g>
        <svg viewBox="0 0 15 15" width="100%" height="30px" preserveAspectRatio="xMaxYMin meet">
         <g id="arrow_out" transform="scale(0.3 0.3)">
          <a xlink:href="classFileProgressDialog__coll__graph_org.svg" target="_base">
           <rect id="button" ry="5" rx="5" y="6" x="6" height="38" width="38"
                fill="#f2f5e9" fill-opacity="0.5" stroke="#606060" stroke-width="1.0"/>
           <path id="arrow"
             d="M 11.500037,31.436501 C 11.940474,20.09759 22.043105,11.32322 32.158766,21.979434 L 37.068811,17.246167 C 37.068811,17.246167 37.088388,32 37.088388,32 L 22.160133,31.978069 C 22.160133,31.978069 26.997745,27.140456 26.997745,27.140456 C 18.528582,18.264221 13.291696,25.230495 11.500037,31.436501 z"
             style="fill:#404040;"/>
          </a>
         </g>
        </svg>
</svg>
