<?xml version="1.0" encoding="UTF-8" standalone="no"?>
<!DOCTYPE svg PUBLIC "-//W3C//DTD SVG 1.1//EN"
 "http://www.w3.org/Graphics/SVG/1.1/DTD/svg11.dtd">
<!-- Generated by graphviz version 2.40.1 (0)
 -->
<!-- Title: PropertyDef Pages: 1 -->
<!--zoomable 193 -->
<svg id="main" version="1.1" xmlns="http://www.w3.org/2000/svg" xmlns:xlink="http://www.w3.org/1999/xlink" xml:space="preserve" onload="init(evt)">
<style type="text/css"><![CDATA[
.edge:hover path { stroke: red; }
.edge:hover polygon { stroke: red; fill: red; }
]]></style>
<script type="text/javascript"><![CDATA[
var edges = document.getElementsByTagName('g');
if (edges && edges.length) {
  for (var i=0;i<edges.length;i++) {
    if (edges[i].id.substr(0,4)=='edge') {
      edges[i].setAttribute('class','edge');
    }
  }
}
]]></script>
        <defs>
                <circle id="rim" cx="0" cy="0" r="7"/>
                <circle id="rim2" cx="0" cy="0" r="3.5"/>
                <g id="zoomPlus">
                        <use xlink:href="#rim" fill="#404040">
                                <set attributeName="fill" to="#808080" begin="zoomplus.mouseover" end="zoomplus.mouseout"/>
                        </use>
                        <path d="M-4,0h8M0,-4v8" fill="none" stroke="white" stroke-width="1.5" pointer-events="none"/>
                </g>
                <g id="zoomMin">
                        <use xlink:href="#rim" fill="#404040">
                                <set attributeName="fill" to="#808080" begin="zoomminus.mouseover" end="zoomminus.mouseout"/>
                        </use>
                        <path d="M-4,0h8" fill="none" stroke="white" stroke-width="1.5" pointer-events="none"/>
                </g>
                <g id="dirArrow">
                        <path fill="none" stroke="white" stroke-width="1.5" d="M0,-3.0v7 M-2.5,-0.5L0,-3.0L2.5,-0.5"/>
                </g>
               <g id="resetDef">
                       <use xlink:href="#rim2" fill="#404040">
                               <set attributeName="fill" to="#808080" begin="reset.mouseover" end="reset.mouseout"/>
                       </use>
               </g>
        </defs>

<script type="text/javascript">
var viewWidth = 586;
var viewHeight = 193;
var sectionId = 'dynsection-0';
</script>
<script xlink:href="../../svgpan.js"/>
<svg id="graph" class="graph">
<g id="viewport">
<title>PropertyDef</title>
<polygon fill="#ffffff" stroke="transparent" points="-4,4 -4,-189 582,-189 582,4 -4,4"/>
<!-- Node1 -->
<g id="node1" class="node">
<title>Node1</title>
<g id="a_node1"><a xlink:title=" ">
<polygon fill="#bfbfbf" stroke="#000000" points="270.5,-.5 270.5,-57.5 345.5,-57.5 345.5,-.5 270.5,-.5"/>
<text text-anchor="middle" x="308" y="-45.5" font-family="Helvetica,sans-Serif" font-size="10.00" fill="#000000">PropertyDef</text>
<polyline fill="none" stroke="#000000" points="270.5,-38.5 345.5,-38.5 "/>
<text text-anchor="middle" x="308" y="-26.5" font-family="Helvetica,sans-Serif" font-size="10.00" fill="#000000"> </text>
<polyline fill="none" stroke="#000000" points="270.5,-19.5 345.5,-19.5 "/>
<text text-anchor="middle" x="308" y="-7.5" font-family="Helvetica,sans-Serif" font-size="10.00" fill="#000000"> </text>
</a>
</g>
</g>
<!-- Node2 -->
<g id="node2" class="node">
<title>Node2</title>
<g id="a_node2"><a xlink:title=" ">
<polygon fill="#ffffff" stroke="#bfbfbf" points="0,-127.5 0,-184.5 50,-184.5 50,-127.5 0,-127.5"/>
<text text-anchor="middle" x="25" y="-172.5" font-family="Helvetica,sans-Serif" font-size="10.00" fill="#000000">double</text>
<polyline fill="none" stroke="#bfbfbf" points="0,-165.5 50,-165.5 "/>
<text text-anchor="middle" x="25" y="-153.5" font-family="Helvetica,sans-Serif" font-size="10.00" fill="#000000"> </text>
<polyline fill="none" stroke="#bfbfbf" points="0,-146.5 50,-146.5 "/>
<text text-anchor="middle" x="25" y="-134.5" font-family="Helvetica,sans-Serif" font-size="10.00" fill="#000000"> </text>
</a>
</g>
</g>
<!-- Node2&#45;&gt;Node1 -->
<g id="edge1" class="edge">
<title>Node2&#45;&gt;Node1</title>
<path fill="none" stroke="#404040" d="M46.8366,-127.1187C61.455,-109.7702 82.1557,-88.6722 105,-76 152.9387,-49.4075 215.256,-37.8288 258.1305,-32.8073"/>
<polygon fill="none" stroke="#404040" points="258.2954,-32.7896 263.8323,-28.1697 270.2263,-31.5037 264.6895,-36.1236 258.2954,-32.7896"/>
<text text-anchor="middle" x="135.5" y="-95.5" font-family="Helvetica,sans-Serif" font-size="10.00" fill="#000000"> +maxValue</text>
<text text-anchor="middle" x="135.5" y="-84.5" font-family="Helvetica,sans-Serif" font-size="10.00" fill="#000000">+minValue</text>
</g>
<!-- Node3 -->
<g id="node3" class="node">
<title>Node3</title>
<g id="a_node3"><a xlink:title=" ">
<polygon fill="#ffffff" stroke="#bfbfbf" points="68.5,-127.5 68.5,-184.5 217.5,-184.5 217.5,-127.5 68.5,-127.5"/>
<text text-anchor="middle" x="143" y="-172.5" font-family="Helvetica,sans-Serif" font-size="10.00" fill="#000000">QHash&lt; QString, QString &gt;</text>
<polyline fill="none" stroke="#bfbfbf" points="68.5,-165.5 217.5,-165.5 "/>
<text text-anchor="middle" x="143" y="-153.5" font-family="Helvetica,sans-Serif" font-size="10.00" fill="#000000"> </text>
<polyline fill="none" stroke="#bfbfbf" points="68.5,-146.5 217.5,-146.5 "/>
<text text-anchor="middle" x="143" y="-134.5" font-family="Helvetica,sans-Serif" font-size="10.00" fill="#000000"> </text>
</a>
</g>
</g>
<!-- Node3&#45;&gt;Node1 -->
<g id="edge2" class="edge">
<title>Node3&#45;&gt;Node1</title>
<path fill="none" stroke="#404040" d="M157.6998,-127.4388C167.5206,-110.6466 181.781,-90.0268 199,-76 216.4966,-61.747 238.9695,-51.0877 258.9597,-43.5556"/>
<polygon fill="none" stroke="#404040" points="259.0842,-43.5113 263.3911,-37.7276 270.3864,-39.4787 266.0795,-45.2624 259.0842,-43.5113"/>
<text text-anchor="middle" x="225.5" y="-90" font-family="Helvetica,sans-Serif" font-size="10.00" fill="#000000"> +adjuncts</text>
</g>
<!-- Node4 -->
<g id="node4" class="node">
<title>Node4</title>
<g id="a_node4"><a xlink:title=" ">
<polygon fill="#ffffff" stroke="#bfbfbf" points="235.5,-127.5 235.5,-184.5 288.5,-184.5 288.5,-127.5 235.5,-127.5"/>
<text text-anchor="middle" x="262" y="-172.5" font-family="Helvetica,sans-Serif" font-size="10.00" fill="#000000">QString</text>
<polyline fill="none" stroke="#bfbfbf" points="235.5,-165.5 288.5,-165.5 "/>
<text text-anchor="middle" x="262" y="-153.5" font-family="Helvetica,sans-Serif" font-size="10.00" fill="#000000"> </text>
<polyline fill="none" stroke="#bfbfbf" points="235.5,-146.5 288.5,-146.5 "/>
<text text-anchor="middle" x="262" y="-134.5" font-family="Helvetica,sans-Serif" font-size="10.00" fill="#000000"> </text>
</a>
</g>
</g>
<!-- Node4&#45;&gt;Node1 -->
<g id="edge3" class="edge">
<title>Node4&#45;&gt;Node1</title>
<path fill="none" stroke="#404040" d="M257.3563,-127.2191C256.0374,-111.5215 256.4298,-92.0713 263,-76 264.1782,-73.1179 265.6244,-70.3115 267.2672,-67.5981"/>
<polygon fill="none" stroke="#404040" points="267.4268,-67.3758 267.6778,-60.169 274.4267,-57.6289 274.1757,-64.8356 267.4268,-67.3758"/>
<text text-anchor="middle" x="298" y="-101" font-family="Helvetica,sans-Serif" font-size="10.00" fill="#000000"> +symbol</text>
<text text-anchor="middle" x="298" y="-90" font-family="Helvetica,sans-Serif" font-size="10.00" fill="#000000">+name</text>
<text text-anchor="middle" x="298" y="-79" font-family="Helvetica,sans-Serif" font-size="10.00" fill="#000000">+defaultValue</text>
</g>
<!-- Node5 -->
<g id="node5" class="node">
<title>Node5</title>
<g id="a_node5"><a xlink:title=" ">
<polygon fill="#ffffff" stroke="#bfbfbf" points="306.5,-127.5 306.5,-184.5 403.5,-184.5 403.5,-127.5 306.5,-127.5"/>
<text text-anchor="middle" x="355" y="-172.5" font-family="Helvetica,sans-Serif" font-size="10.00" fill="#000000">QList&lt; double &gt;</text>
<polyline fill="none" stroke="#bfbfbf" points="306.5,-165.5 403.5,-165.5 "/>
<text text-anchor="middle" x="355" y="-153.5" font-family="Helvetica,sans-Serif" font-size="10.00" fill="#000000"> </text>
<polyline fill="none" stroke="#bfbfbf" points="306.5,-146.5 403.5,-146.5 "/>
<text text-anchor="middle" x="355" y="-134.5" font-family="Helvetica,sans-Serif" font-size="10.00" fill="#000000"> </text>
</a>
</g>
</g>
<!-- Node5&#45;&gt;Node1 -->
<g id="edge4" class="edge">
<title>Node5&#45;&gt;Node1</title>
<path fill="none" stroke="#404040" d="M348.7505,-127.3632C344.9701,-111.8848 339.6021,-92.5966 333,-76 332.0146,-73.523 330.934,-71.0075 329.7919,-68.4936"/>
<polygon fill="none" stroke="#404040" points="329.7458,-68.3987 323.5245,-64.7522 324.4977,-57.6071 330.7189,-61.2535 329.7458,-68.3987"/>
<text text-anchor="middle" x="376.5" y="-90" font-family="Helvetica,sans-Serif" font-size="10.00" fill="#000000"> +menuItems</text>
</g>
<!-- Node6 -->
<g id="node6" class="node">
<title>Node6</title>
<g id="a_node6"><a xlink:title=" ">
<polygon fill="#ffffff" stroke="#bfbfbf" points="426,-127.5 426,-184.5 464,-184.5 464,-127.5 426,-127.5"/>
<text text-anchor="middle" x="445" y="-172.5" font-family="Helvetica,sans-Serif" font-size="10.00" fill="#000000">bool</text>
<polyline fill="none" stroke="#bfbfbf" points="426,-165.5 464,-165.5 "/>
<text text-anchor="middle" x="445" y="-153.5" font-family="Helvetica,sans-Serif" font-size="10.00" fill="#000000"> </text>
<polyline fill="none" stroke="#bfbfbf" points="426,-146.5 464,-146.5 "/>
<text text-anchor="middle" x="445" y="-134.5" font-family="Helvetica,sans-Serif" font-size="10.00" fill="#000000"> </text>
</a>
</g>
</g>
<!-- Node6&#45;&gt;Node1 -->
<g id="edge5" class="edge">
<title>Node6&#45;&gt;Node1</title>
<path fill="none" stroke="#404040" d="M439.5741,-127.1225C435.1474,-110.4255 427.3621,-90.0146 414,-76 398.6718,-59.9233 376.8641,-48.9736 357.0102,-41.7181"/>
<polygon fill="none" stroke="#404040" points="356.9775,-41.7071 350.0122,-43.5738 345.6102,-37.8622 352.5755,-35.9955 356.9775,-41.7071"/>
<text text-anchor="middle" x="459" y="-95.5" font-family="Helvetica,sans-Serif" font-size="10.00" fill="#000000"> +numeric</text>
<text text-anchor="middle" x="459" y="-84.5" font-family="Helvetica,sans-Serif" font-size="10.00" fill="#000000">+editable</text>
</g>
<!-- Node7 -->
<g id="node7" class="node">
<title>Node7</title>
<g id="a_node7"><a xlink:title=" ">
<polygon fill="#ffffff" stroke="#bfbfbf" points="485,-127.5 485,-184.5 555,-184.5 555,-127.5 485,-127.5"/>
<text text-anchor="middle" x="520" y="-172.5" font-family="Helvetica,sans-Serif" font-size="10.00" fill="#000000">QStringList</text>
<polyline fill="none" stroke="#bfbfbf" points="485,-165.5 555,-165.5 "/>
<text text-anchor="middle" x="520" y="-153.5" font-family="Helvetica,sans-Serif" font-size="10.00" fill="#000000"> </text>
<polyline fill="none" stroke="#bfbfbf" points="485,-146.5 555,-146.5 "/>
<text text-anchor="middle" x="520" y="-134.5" font-family="Helvetica,sans-Serif" font-size="10.00" fill="#000000"> </text>
</a>
</g>
</g>
<!-- Node7&#45;&gt;Node1 -->
<g id="edge6" class="edge">
<title>Node7&#45;&gt;Node1</title>
<path fill="none" stroke="#404040" d="M515.6535,-127.4672C511.5836,-110.2537 503.7942,-89.1754 489,-76 469.6929,-58.8055 404.3519,-44.8141 357.7289,-36.6955"/>
<polygon fill="none" stroke="#404040" points="357.556,-36.6662 350.9721,-39.6077 345.7246,-34.6616 352.3085,-31.7201 357.556,-36.6662"/>
<text text-anchor="middle" x="543.5" y="-95.5" font-family="Helvetica,sans-Serif" font-size="10.00" fill="#000000"> +suffixes</text>
<text text-anchor="middle" x="543.5" y="-84.5" font-family="Helvetica,sans-Serif" font-size="10.00" fill="#000000">+sMenuItems</text>
</g>
</g>
</svg>
        <g id="navigator" transform="translate(0 0)" fill="#404254">
                <rect fill="#f2f5e9" fill-opacity="0.5" stroke="#606060" stroke-width=".5" x="0" y="0" width="60" height="60"/>
                <use id="zoomplus" xlink:href="#zoomPlus" x="17" y="9" onmousedown="handleZoom(evt,'in')"/>
                <use id="zoomminus" xlink:href="#zoomMin" x="42" y="9" onmousedown="handleZoom(evt,'out')"/>
                <use id="reset" xlink:href="#resetDef" x="30" y="36" onmousedown="handleReset()"/>
                <g id="arrowUp" xlink:href="#dirArrow" transform="translate(30 24)" onmousedown="handlePan(0,-1)">
                  <use xlink:href="#rim" fill="#404040">
                        <set attributeName="fill" to="#808080" begin="arrowUp.mouseover" end="arrowUp.mouseout"/>
                  </use>
                  <path fill="none" stroke="white" stroke-width="1.5" d="M0,-3.0v7 M-2.5,-0.5L0,-3.0L2.5,-0.5"/>
                </g>
                <g id="arrowRight" xlink:href="#dirArrow" transform="rotate(90) translate(36 -43)" onmousedown="handlePan(1,0)">
                  <use xlink:href="#rim" fill="#404040">
                        <set attributeName="fill" to="#808080" begin="arrowRight.mouseover" end="arrowRight.mouseout"/>
                  </use>
                  <path fill="none" stroke="white" stroke-width="1.5" d="M0,-3.0v7 M-2.5,-0.5L0,-3.0L2.5,-0.5"/>
                </g>
                <g id="arrowDown" xlink:href="#dirArrow" transform="rotate(180) translate(-30 -48)" onmousedown="handlePan(0,1)">
                  <use xlink:href="#rim" fill="#404040">
                        <set attributeName="fill" to="#808080" begin="arrowDown.mouseover" end="arrowDown.mouseout"/>
                  </use>
                  <path fill="none" stroke="white" stroke-width="1.5" d="M0,-3.0v7 M-2.5,-0.5L0,-3.0L2.5,-0.5"/>
                </g>
                <g id="arrowLeft" xlink:href="#dirArrow" transform="rotate(270) translate(-36 17)" onmousedown="handlePan(-1,0)">
                  <use xlink:href="#rim" fill="#404040">
                        <set attributeName="fill" to="#808080" begin="arrowLeft.mouseover" end="arrowLeft.mouseout"/>
                  </use>
                  <path fill="none" stroke="white" stroke-width="1.5" d="M0,-3.0v7 M-2.5,-0.5L0,-3.0L2.5,-0.5"/>
                </g>
        </g>
        <svg viewBox="0 0 15 15" width="100%" height="30px" preserveAspectRatio="xMaxYMin meet">
         <g id="arrow_out" transform="scale(0.3 0.3)">
          <a xlink:href="structPropertyDef__coll__graph_org.svg" target="_base">
           <rect id="button" ry="5" rx="5" y="6" x="6" height="38" width="38"
                fill="#f2f5e9" fill-opacity="0.5" stroke="#606060" stroke-width="1.0"/>
           <path id="arrow"
             d="M 11.500037,31.436501 C 11.940474,20.09759 22.043105,11.32322 32.158766,21.979434 L 37.068811,17.246167 C 37.068811,17.246167 37.088388,32 37.088388,32 L 22.160133,31.978069 C 22.160133,31.978069 26.997745,27.140456 26.997745,27.140456 C 18.528582,18.264221 13.291696,25.230495 11.500037,31.436501 z"
             style="fill:#404040;"/>
          </a>
         </g>
        </svg>
</svg>
