<?xml version="1.0" encoding="UTF-8" standalone="no"?>
<!DOCTYPE svg PUBLIC "-//W3C//DTD SVG 1.1//EN"
 "http://www.w3.org/Graphics/SVG/1.1/DTD/svg11.dtd">
<!-- Generated by graphviz version 2.40.1 (0)
 -->
<!-- Title: AutoCloseMessageBox::showMessage Pages: 1 -->
<!--zoomable 225 -->
<svg id="main" version="1.1" xmlns="http://www.w3.org/2000/svg" xmlns:xlink="http://www.w3.org/1999/xlink" xml:space="preserve" onload="init(evt)">
<style type="text/css"><![CDATA[
.edge:hover path { stroke: red; }
.edge:hover polygon { stroke: red; fill: red; }
]]></style>
<script type="text/javascript"><![CDATA[
var edges = document.getElementsByTagName('g');
if (edges && edges.length) {
  for (var i=0;i<edges.length;i++) {
    if (edges[i].id.substr(0,4)=='edge') {
      edges[i].setAttribute('class','edge');
    }
  }
}
]]></script>
        <defs>
                <circle id="rim" cx="0" cy="0" r="7"/>
                <circle id="rim2" cx="0" cy="0" r="3.5"/>
                <g id="zoomPlus">
                        <use xlink:href="#rim" fill="#404040">
                                <set attributeName="fill" to="#808080" begin="zoomplus.mouseover" end="zoomplus.mouseout"/>
                        </use>
                        <path d="M-4,0h8M0,-4v8" fill="none" stroke="white" stroke-width="1.5" pointer-events="none"/>
                </g>
                <g id="zoomMin">
                        <use xlink:href="#rim" fill="#404040">
                                <set attributeName="fill" to="#808080" begin="zoomminus.mouseover" end="zoomminus.mouseout"/>
                        </use>
                        <path d="M-4,0h8" fill="none" stroke="white" stroke-width="1.5" pointer-events="none"/>
                </g>
                <g id="dirArrow">
                        <path fill="none" stroke="white" stroke-width="1.5" d="M0,-3.0v7 M-2.5,-0.5L0,-3.0L2.5,-0.5"/>
                </g>
               <g id="resetDef">
                       <use xlink:href="#rim2" fill="#404040">
                               <set attributeName="fill" to="#808080" begin="reset.mouseover" end="reset.mouseout"/>
                       </use>
               </g>
        </defs>

<script type="text/javascript">
var viewWidth = 979;
var viewHeight = 225;
var sectionId = 'dynsection-12';
</script>
<script xlink:href="../../svgpan.js"/>
<svg id="graph" class="graph">
<g id="viewport">
<title>AutoCloseMessageBox::showMessage</title>
<polygon fill="#ffffff" stroke="transparent" points="-4,4 -4,-221 975,-221 975,4 -4,4"/>
<!-- Node444 -->
<g id="node1" class="node">
<title>Node444</title>
<g id="a_node1"><a xlink:title=" ">
<polygon fill="#bfbfbf" stroke="#000000" points="0,-98.5 0,-128.5 128,-128.5 128,-98.5 0,-98.5"/>
<text text-anchor="start" x="8" y="-116.5" font-family="Helvetica,sans-Serif" font-size="10.00" fill="#000000">AutoCloseMessageBox</text>
<text text-anchor="middle" x="64" y="-105.5" font-family="Helvetica,sans-Serif" font-size="10.00" fill="#000000">::showMessage</text>
</a>
</g>
</g>
<!-- Node445 -->
<g id="node2" class="node">
<title>Node445</title>
<g id="a_node2"><a xlink:href="../../d0/d53/classAutoCloseMessageBox.html#a7fe7843e2d6b4db625913395c3274809" target="_top" xlink:title=" ">
<polygon fill="#ffffff" stroke="#000000" points="172.5,-186.5 172.5,-216.5 306.5,-216.5 306.5,-186.5 172.5,-186.5"/>
<text text-anchor="start" x="180.5" y="-204.5" font-family="Helvetica,sans-Serif" font-size="10.00" fill="#000000">AutoCloseMessageBox</text>
<text text-anchor="middle" x="239.5" y="-193.5" font-family="Helvetica,sans-Serif" font-size="10.00" fill="#000000">::AutoCloseMessageBox</text>
</a>
</g>
</g>
<!-- Node444&#45;&gt;Node445 -->
<g id="edge1" class="edge">
<title>Node444&#45;&gt;Node445</title>
<path fill="none" stroke="#191970" d="M84.6042,-128.5747C104.2508,-142.4319 135.0523,-162.8375 164,-176.5 168.7176,-178.7266 173.6872,-180.8405 178.7316,-182.8264"/>
<polygon fill="#191970" stroke="#191970" points="177.8858,-186.2473 188.478,-186.4839 180.3452,-179.6936 177.8858,-186.2473"/>
</g>
<!-- Node446 -->
<g id="node3" class="node">
<title>Node446</title>
<g id="a_node3"><a xlink:href="../../d6/d1a/classMainWindow.html#a1248f95a11d7004ae5ac1e54234d79ea" target="_top" xlink:title=" ">
<polygon fill="#ffffff" stroke="#000000" points="164,-148 164,-167 315,-167 315,-148 164,-148"/>
<text text-anchor="middle" x="239.5" y="-155" font-family="Helvetica,sans-Serif" font-size="10.00" fill="#000000">MainWindow::realStatusBar</text>
</a>
</g>
</g>
<!-- Node444&#45;&gt;Node446 -->
<g id="edge2" class="edge">
<title>Node444&#45;&gt;Node446</title>
<path fill="none" stroke="#191970" d="M123.9063,-128.5192C146.008,-134.0604 170.7389,-140.2607 191.6361,-145.4999"/>
<polygon fill="#191970" stroke="#191970" points="191.0074,-148.9506 201.5584,-147.9876 192.7098,-142.1607 191.0074,-148.9506"/>
</g>
<!-- Node447 -->
<g id="node4" class="node">
<title>Node447</title>
<g id="a_node4"><a xlink:href="../../d0/d53/classAutoCloseMessageBox.html#af1b3e33b1430cf0ffd17095b11600e60" target="_top" xlink:title=" ">
<polygon fill="#ffffff" stroke="#000000" points="175.5,-98.5 175.5,-128.5 303.5,-128.5 303.5,-98.5 175.5,-98.5"/>
<text text-anchor="start" x="183.5" y="-116.5" font-family="Helvetica,sans-Serif" font-size="10.00" fill="#000000">AutoCloseMessageBox</text>
<text text-anchor="middle" x="239.5" y="-105.5" font-family="Helvetica,sans-Serif" font-size="10.00" fill="#000000">::setEndPos</text>
</a>
</g>
</g>
<!-- Node444&#45;&gt;Node447 -->
<g id="edge3" class="edge">
<title>Node444&#45;&gt;Node447</title>
<path fill="none" stroke="#191970" d="M128.3532,-113.5C140.3523,-113.5 152.9811,-113.5 165.2493,-113.5"/>
<polygon fill="#191970" stroke="#191970" points="165.448,-117.0001 175.4479,-113.5 165.4479,-110.0001 165.448,-117.0001"/>
</g>
<!-- Node448 -->
<g id="node5" class="node">
<title>Node448</title>
<g id="a_node5"><a xlink:href="../../d0/d53/classAutoCloseMessageBox.html#aced985a28a240422eefefb1c0bedac19" target="_top" xlink:title=" ">
<polygon fill="#ffffff" stroke="#000000" points="175.5,-49.5 175.5,-79.5 303.5,-79.5 303.5,-49.5 175.5,-49.5"/>
<text text-anchor="start" x="183.5" y="-67.5" font-family="Helvetica,sans-Serif" font-size="10.00" fill="#000000">AutoCloseMessageBox</text>
<text text-anchor="middle" x="239.5" y="-56.5" font-family="Helvetica,sans-Serif" font-size="10.00" fill="#000000">::setStartPos</text>
</a>
</g>
</g>
<!-- Node444&#45;&gt;Node448 -->
<g id="edge4" class="edge">
<title>Node444&#45;&gt;Node448</title>
<path fill="none" stroke="#191970" d="M118.0878,-98.3986C136.3558,-93.2981 156.9179,-87.5571 175.8561,-82.2695"/>
<polygon fill="#191970" stroke="#191970" points="176.9004,-85.6119 185.5908,-79.5516 175.0179,-78.8697 176.9004,-85.6119"/>
</g>
<!-- Node449 -->
<g id="node6" class="node">
<title>Node449</title>
<g id="a_node6"><a xlink:href="../../d0/d53/classAutoCloseMessageBox.html#a9539660400b74e71fff799801192dd9d" target="_top" xlink:title=" ">
<polygon fill="#ffffff" stroke="#000000" points="175.5,-.5 175.5,-30.5 303.5,-30.5 303.5,-.5 175.5,-.5"/>
<text text-anchor="start" x="183.5" y="-18.5" font-family="Helvetica,sans-Serif" font-size="10.00" fill="#000000">AutoCloseMessageBox</text>
<text text-anchor="middle" x="239.5" y="-7.5" font-family="Helvetica,sans-Serif" font-size="10.00" fill="#000000">::start</text>
</a>
</g>
</g>
<!-- Node444&#45;&gt;Node449 -->
<g id="edge5" class="edge">
<title>Node444&#45;&gt;Node449</title>
<path fill="none" stroke="#191970" d="M81.3173,-98.2409C100.4299,-82.0507 132.6538,-56.6272 164,-40.5 168.3011,-38.2871 172.8388,-36.2118 177.4679,-34.2777"/>
<polygon fill="#191970" stroke="#191970" points="179.027,-37.4255 187.0514,-30.5074 176.4643,-30.9115 179.027,-37.4255"/>
</g>
<!-- Node450 -->
<g id="node7" class="node">
<title>Node450</title>
<g id="a_node7"><a xlink:href="../../d0/d53/classAutoCloseMessageBox.html#a2a1dbf2ed45c532d32d2e18238200fe6" target="_top" xlink:title=" ">
<polygon fill="#ffffff" stroke="#000000" points="351,-.5 351,-30.5 479,-30.5 479,-.5 351,-.5"/>
<text text-anchor="start" x="359" y="-18.5" font-family="Helvetica,sans-Serif" font-size="10.00" fill="#000000">AutoCloseMessageBox</text>
<text text-anchor="middle" x="415" y="-7.5" font-family="Helvetica,sans-Serif" font-size="10.00" fill="#000000">::moveOut</text>
</a>
</g>
</g>
<!-- Node449&#45;&gt;Node450 -->
<g id="edge6" class="edge">
<title>Node449&#45;&gt;Node450</title>
<path fill="none" stroke="#191970" d="M303.8532,-15.5C315.8523,-15.5 328.4811,-15.5 340.7493,-15.5"/>
<polygon fill="#191970" stroke="#191970" points="340.948,-19.0001 350.9479,-15.5 340.9479,-12.0001 340.948,-19.0001"/>
</g>
<!-- Node451 -->
<g id="node8" class="node">
<title>Node451</title>
<g id="a_node8"><a xlink:href="../../d0/d53/classAutoCloseMessageBox.html#a39d7af4729cde2514f5a11bdffedf60c" target="_top" xlink:title=" ">
<polygon fill="#ffffff" stroke="#000000" points="515,-22.5 515,-52.5 643,-52.5 643,-22.5 515,-22.5"/>
<text text-anchor="start" x="523" y="-40.5" font-family="Helvetica,sans-Serif" font-size="10.00" fill="#000000">AutoCloseMessageBox</text>
<text text-anchor="middle" x="579" y="-29.5" font-family="Helvetica,sans-Serif" font-size="10.00" fill="#000000">::wait</text>
</a>
</g>
</g>
<!-- Node450&#45;&gt;Node451 -->
<g id="edge7" class="edge">
<title>Node450&#45;&gt;Node451</title>
<path fill="none" stroke="#191970" d="M479.3464,-24.1318C487.7313,-25.2566 496.3746,-26.4161 504.9029,-27.5601"/>
<polygon fill="#191970" stroke="#191970" points="504.4625,-31.0323 514.8391,-28.8931 505.3933,-24.0945 504.4625,-31.0323"/>
</g>
<!-- Node452 -->
<g id="node9" class="node">
<title>Node452</title>
<g id="a_node9"><a xlink:href="../../d0/d53/classAutoCloseMessageBox.html#ad4229add837d66a595282dd48867329f" target="_top" xlink:title=" ">
<polygon fill="#ffffff" stroke="#000000" points="679,-22.5 679,-52.5 807,-52.5 807,-22.5 679,-22.5"/>
<text text-anchor="start" x="687" y="-40.5" font-family="Helvetica,sans-Serif" font-size="10.00" fill="#000000">AutoCloseMessageBox</text>
<text text-anchor="middle" x="743" y="-29.5" font-family="Helvetica,sans-Serif" font-size="10.00" fill="#000000">::prepMoveBack</text>
</a>
</g>
</g>
<!-- Node451&#45;&gt;Node452 -->
<g id="edge8" class="edge">
<title>Node451&#45;&gt;Node452</title>
<path fill="none" stroke="#191970" d="M643.3464,-37.5C651.6401,-37.5 660.1868,-37.5 668.6248,-37.5"/>
<polygon fill="#191970" stroke="#191970" points="668.8392,-41.0001 678.8391,-37.5 668.8391,-34.0001 668.8392,-41.0001"/>
</g>
<!-- Node453 -->
<g id="node10" class="node">
<title>Node453</title>
<g id="a_node10"><a xlink:href="../../d0/d53/classAutoCloseMessageBox.html#a2ffaf4face00dba5a191acf7c24173bd" target="_top" xlink:title=" ">
<polygon fill="#ffffff" stroke="#000000" points="843,-.5 843,-30.5 971,-30.5 971,-.5 843,-.5"/>
<text text-anchor="start" x="851" y="-18.5" font-family="Helvetica,sans-Serif" font-size="10.00" fill="#000000">AutoCloseMessageBox</text>
<text text-anchor="middle" x="907" y="-7.5" font-family="Helvetica,sans-Serif" font-size="10.00" fill="#000000">::moveBack</text>
</a>
</g>
</g>
<!-- Node452&#45;&gt;Node453 -->
<g id="edge9" class="edge">
<title>Node452&#45;&gt;Node453</title>
<path fill="none" stroke="#191970" d="M807.3464,-28.8682C815.7313,-27.7434 824.3746,-26.5839 832.9029,-25.4399"/>
<polygon fill="#191970" stroke="#191970" points="833.3933,-28.9055 842.8391,-24.1069 832.4625,-21.9677 833.3933,-28.9055"/>
</g>
<!-- Node453&#45;&gt;Node450 -->
<g id="edge10" class="edge">
<title>Node453&#45;&gt;Node450</title>
<path fill="none" stroke="#191970" d="M842.9903,-13.2942C831.0308,-12.9631 818.6359,-12.6745 807,-12.5 677.2368,-10.554 644.7632,-10.554 515,-12.5 506.6367,-12.6254 497.8813,-12.8098 489.1773,-13.0266"/>
<polygon fill="#191970" stroke="#191970" points="488.914,-9.5322 479.0097,-13.2942 489.0983,-16.5297 488.914,-9.5322"/>
</g>
</g>
</svg>
        <g id="navigator" transform="translate(0 0)" fill="#404254">
                <rect fill="#f2f5e9" fill-opacity="0.5" stroke="#606060" stroke-width=".5" x="0" y="0" width="60" height="60"/>
                <use id="zoomplus" xlink:href="#zoomPlus" x="17" y="9" onmousedown="handleZoom(evt,'in')"/>
                <use id="zoomminus" xlink:href="#zoomMin" x="42" y="9" onmousedown="handleZoom(evt,'out')"/>
                <use id="reset" xlink:href="#resetDef" x="30" y="36" onmousedown="handleReset()"/>
                <g id="arrowUp" xlink:href="#dirArrow" transform="translate(30 24)" onmousedown="handlePan(0,-1)">
                  <use xlink:href="#rim" fill="#404040">
                        <set attributeName="fill" to="#808080" begin="arrowUp.mouseover" end="arrowUp.mouseout"/>
                  </use>
                  <path fill="none" stroke="white" stroke-width="1.5" d="M0,-3.0v7 M-2.5,-0.5L0,-3.0L2.5,-0.5"/>
                </g>
                <g id="arrowRight" xlink:href="#dirArrow" transform="rotate(90) translate(36 -43)" onmousedown="handlePan(1,0)">
                  <use xlink:href="#rim" fill="#404040">
                        <set attributeName="fill" to="#808080" begin="arrowRight.mouseover" end="arrowRight.mouseout"/>
                  </use>
                  <path fill="none" stroke="white" stroke-width="1.5" d="M0,-3.0v7 M-2.5,-0.5L0,-3.0L2.5,-0.5"/>
                </g>
                <g id="arrowDown" xlink:href="#dirArrow" transform="rotate(180) translate(-30 -48)" onmousedown="handlePan(0,1)">
                  <use xlink:href="#rim" fill="#404040">
                        <set attributeName="fill" to="#808080" begin="arrowDown.mouseover" end="arrowDown.mouseout"/>
                  </use>
                  <path fill="none" stroke="white" stroke-width="1.5" d="M0,-3.0v7 M-2.5,-0.5L0,-3.0L2.5,-0.5"/>
                </g>
                <g id="arrowLeft" xlink:href="#dirArrow" transform="rotate(270) translate(-36 17)" onmousedown="handlePan(-1,0)">
                  <use xlink:href="#rim" fill="#404040">
                        <set attributeName="fill" to="#808080" begin="arrowLeft.mouseover" end="arrowLeft.mouseout"/>
                  </use>
                  <path fill="none" stroke="white" stroke-width="1.5" d="M0,-3.0v7 M-2.5,-0.5L0,-3.0L2.5,-0.5"/>
                </g>
        </g>
        <svg viewBox="0 0 15 15" width="100%" height="30px" preserveAspectRatio="xMaxYMin meet">
         <g id="arrow_out" transform="scale(0.3 0.3)">
          <a xlink:href="classAutoCloseMessageBox_a01bd173cd5964a466ba95ddcc28a2193_cgraph_org.svg" target="_base">
           <rect id="button" ry="5" rx="5" y="6" x="6" height="38" width="38"
                fill="#f2f5e9" fill-opacity="0.5" stroke="#606060" stroke-width="1.0"/>
           <path id="arrow"
             d="M 11.500037,31.436501 C 11.940474,20.09759 22.043105,11.32322 32.158766,21.979434 L 37.068811,17.246167 C 37.068811,17.246167 37.088388,32 37.088388,32 L 22.160133,31.978069 C 22.160133,31.978069 26.997745,27.140456 26.997745,27.140456 C 18.528582,18.264221 13.291696,25.230495 11.500037,31.436501 z"
             style="fill:#404040;"/>
          </a>
         </g>
        </svg>
</svg>
