<?xml version="1.0" encoding="UTF-8" standalone="no"?>
<!DOCTYPE svg PUBLIC "-//W3C//DTD SVG 1.1//EN"
 "http://www.w3.org/Graphics/SVG/1.1/DTD/svg11.dtd">
<!-- Generated by graphviz version 2.40.1 (0)
 -->
<!-- Title: AutoCloseMessageBox::mousePressEvent Pages: 1 -->
<!--zoomable 95 -->
<svg id="main" version="1.1" xmlns="http://www.w3.org/2000/svg" xmlns:xlink="http://www.w3.org/1999/xlink" xml:space="preserve" onload="init(evt)">
<style type="text/css"><![CDATA[
.edge:hover path { stroke: red; }
.edge:hover polygon { stroke: red; fill: red; }
]]></style>
<script type="text/javascript"><![CDATA[
var edges = document.getElementsByTagName('g');
if (edges && edges.length) {
  for (var i=0;i<edges.length;i++) {
    if (edges[i].id.substr(0,4)=='edge') {
      edges[i].setAttribute('class','edge');
    }
  }
}
]]></script>
        <defs>
                <circle id="rim" cx="0" cy="0" r="7"/>
                <circle id="rim2" cx="0" cy="0" r="3.5"/>
                <g id="zoomPlus">
                        <use xlink:href="#rim" fill="#404040">
                                <set attributeName="fill" to="#808080" begin="zoomplus.mouseover" end="zoomplus.mouseout"/>
                        </use>
                        <path d="M-4,0h8M0,-4v8" fill="none" stroke="white" stroke-width="1.5" pointer-events="none"/>
                </g>
                <g id="zoomMin">
                        <use xlink:href="#rim" fill="#404040">
                                <set attributeName="fill" to="#808080" begin="zoomminus.mouseover" end="zoomminus.mouseout"/>
                        </use>
                        <path d="M-4,0h8" fill="none" stroke="white" stroke-width="1.5" pointer-events="none"/>
                </g>
                <g id="dirArrow">
                        <path fill="none" stroke="white" stroke-width="1.5" d="M0,-3.0v7 M-2.5,-0.5L0,-3.0L2.5,-0.5"/>
                </g>
               <g id="resetDef">
                       <use xlink:href="#rim2" fill="#404040">
                               <set attributeName="fill" to="#808080" begin="reset.mouseover" end="reset.mouseout"/>
                       </use>
               </g>
        </defs>

<script type="text/javascript">
var viewWidth = 792;
var viewHeight = 95;
var sectionId = 'dynsection-3';
</script>
<script xlink:href="../../svgpan.js"/>
<svg id="graph" class="graph">
<g id="viewport">
<title>AutoCloseMessageBox::mousePressEvent</title>
<polygon fill="#ffffff" stroke="transparent" points="-4,4 -4,-90.5167 788,-90.5167 788,4 -4,4"/>
<!-- Node69 -->
<g id="node1" class="node">
<title>Node69</title>
<g id="a_node1"><a xlink:title=" ">
<polygon fill="#bfbfbf" stroke="#000000" points="0,-44.5 0,-74.5 128,-74.5 128,-44.5 0,-44.5"/>
<text text-anchor="start" x="8" y="-62.5" font-family="Helvetica,sans-Serif" font-size="10.00" fill="#000000">AutoCloseMessageBox</text>
<text text-anchor="middle" x="64" y="-51.5" font-family="Helvetica,sans-Serif" font-size="10.00" fill="#000000">::mousePressEvent</text>
</a>
</g>
</g>
<!-- Node70 -->
<g id="node2" class="node">
<title>Node70</title>
<g id="a_node2"><a xlink:href="../../d0/d53/classAutoCloseMessageBox.html#a2a1dbf2ed45c532d32d2e18238200fe6" target="_top" xlink:title=" ">
<polygon fill="#ffffff" stroke="#000000" points="164,-.5 164,-30.5 292,-30.5 292,-.5 164,-.5"/>
<text text-anchor="start" x="172" y="-18.5" font-family="Helvetica,sans-Serif" font-size="10.00" fill="#000000">AutoCloseMessageBox</text>
<text text-anchor="middle" x="228" y="-7.5" font-family="Helvetica,sans-Serif" font-size="10.00" fill="#000000">::moveOut</text>
</a>
</g>
</g>
<!-- Node69&#45;&gt;Node70 -->
<g id="edge1" class="edge">
<title>Node69&#45;&gt;Node70</title>
<path fill="none" stroke="#191970" d="M119.9808,-44.4808C133.4958,-40.8548 148.0629,-36.9466 161.9897,-33.2101"/>
<polygon fill="#191970" stroke="#191970" points="163.2418,-36.498 171.9932,-30.5262 161.4278,-29.7371 163.2418,-36.498"/>
</g>
<!-- Node71 -->
<g id="node3" class="node">
<title>Node71</title>
<g id="a_node3"><a xlink:href="../../d0/d53/classAutoCloseMessageBox.html#a39d7af4729cde2514f5a11bdffedf60c" target="_top" xlink:title=" ">
<polygon fill="#ffffff" stroke="#000000" points="328,-41.5 328,-71.5 456,-71.5 456,-41.5 328,-41.5"/>
<text text-anchor="start" x="336" y="-59.5" font-family="Helvetica,sans-Serif" font-size="10.00" fill="#000000">AutoCloseMessageBox</text>
<text text-anchor="middle" x="392" y="-48.5" font-family="Helvetica,sans-Serif" font-size="10.00" fill="#000000">::wait</text>
</a>
</g>
</g>
<!-- Node69&#45;&gt;Node71 -->
<g id="edge7" class="edge">
<title>Node69&#45;&gt;Node71</title>
<path fill="none" stroke="#191970" d="M128.0203,-58.9144C182.4533,-58.4166 260.6484,-57.7014 317.8037,-57.1786"/>
<polygon fill="#191970" stroke="#191970" points="317.894,-60.678 327.8615,-57.0866 317.8299,-53.6783 317.894,-60.678"/>
</g>
<!-- Node72 -->
<g id="node4" class="node">
<title>Node72</title>
<g id="a_node4"><a xlink:href="../../d0/d53/classAutoCloseMessageBox.html#ad4229add837d66a595282dd48867329f" target="_top" xlink:title=" ">
<polygon fill="#ffffff" stroke="#000000" points="492,-41.5 492,-71.5 620,-71.5 620,-41.5 492,-41.5"/>
<text text-anchor="start" x="500" y="-59.5" font-family="Helvetica,sans-Serif" font-size="10.00" fill="#000000">AutoCloseMessageBox</text>
<text text-anchor="middle" x="556" y="-48.5" font-family="Helvetica,sans-Serif" font-size="10.00" fill="#000000">::prepMoveBack</text>
</a>
</g>
</g>
<!-- Node69&#45;&gt;Node72 -->
<g id="edge6" class="edge">
<title>Node69&#45;&gt;Node72</title>
<path fill="none" stroke="#191970" d="M128.0392,-69.6266C205.8318,-80.3861 340.9422,-94.1136 456,-80.5 468.3116,-79.0433 481.3015,-76.6111 493.696,-73.8398"/>
<polygon fill="#191970" stroke="#191970" points="494.5406,-77.2368 503.4841,-71.5567 492.9505,-70.4198 494.5406,-77.2368"/>
</g>
<!-- Node70&#45;&gt;Node71 -->
<g id="edge2" class="edge">
<title>Node70&#45;&gt;Node71</title>
<path fill="none" stroke="#191970" d="M288.1363,-30.5341C299.1663,-33.2916 310.7658,-36.1914 322.0536,-39.0134"/>
<polygon fill="#191970" stroke="#191970" points="321.3206,-42.4378 331.871,-41.4677 323.0184,-35.6468 321.3206,-42.4378"/>
</g>
<!-- Node71&#45;&gt;Node72 -->
<g id="edge3" class="edge">
<title>Node71&#45;&gt;Node72</title>
<path fill="none" stroke="#191970" d="M456.3464,-56.5C464.6401,-56.5 473.1868,-56.5 481.6248,-56.5"/>
<polygon fill="#191970" stroke="#191970" points="481.8392,-60.0001 491.8391,-56.5 481.8391,-53.0001 481.8392,-60.0001"/>
</g>
<!-- Node73 -->
<g id="node5" class="node">
<title>Node73</title>
<g id="a_node5"><a xlink:href="../../d0/d53/classAutoCloseMessageBox.html#a2ffaf4face00dba5a191acf7c24173bd" target="_top" xlink:title=" ">
<polygon fill="#ffffff" stroke="#000000" points="656,-19.5 656,-49.5 784,-49.5 784,-19.5 656,-19.5"/>
<text text-anchor="start" x="664" y="-37.5" font-family="Helvetica,sans-Serif" font-size="10.00" fill="#000000">AutoCloseMessageBox</text>
<text text-anchor="middle" x="720" y="-26.5" font-family="Helvetica,sans-Serif" font-size="10.00" fill="#000000">::moveBack</text>
</a>
</g>
</g>
<!-- Node72&#45;&gt;Node73 -->
<g id="edge4" class="edge">
<title>Node72&#45;&gt;Node73</title>
<path fill="none" stroke="#191970" d="M620.3464,-47.8682C628.7313,-46.7434 637.3746,-45.5839 645.9029,-44.4399"/>
<polygon fill="#191970" stroke="#191970" points="646.3933,-47.9055 655.8391,-43.1069 645.4625,-40.9677 646.3933,-47.9055"/>
</g>
<!-- Node73&#45;&gt;Node70 -->
<g id="edge5" class="edge">
<title>Node73&#45;&gt;Node70</title>
<path fill="none" stroke="#191970" d="M655.9805,-32.0277C564.9866,-28.5137 398.6285,-22.0893 302.3107,-18.3697"/>
<polygon fill="#191970" stroke="#191970" points="302.1957,-14.8628 292.068,-17.9742 301.9255,-21.8575 302.1957,-14.8628"/>
</g>
</g>
</svg>
        <g id="navigator" transform="translate(0 0)" fill="#404254">
                <rect fill="#f2f5e9" fill-opacity="0.5" stroke="#606060" stroke-width=".5" x="0" y="0" width="60" height="60"/>
                <use id="zoomplus" xlink:href="#zoomPlus" x="17" y="9" onmousedown="handleZoom(evt,'in')"/>
                <use id="zoomminus" xlink:href="#zoomMin" x="42" y="9" onmousedown="handleZoom(evt,'out')"/>
                <use id="reset" xlink:href="#resetDef" x="30" y="36" onmousedown="handleReset()"/>
                <g id="arrowUp" xlink:href="#dirArrow" transform="translate(30 24)" onmousedown="handlePan(0,-1)">
                  <use xlink:href="#rim" fill="#404040">
                        <set attributeName="fill" to="#808080" begin="arrowUp.mouseover" end="arrowUp.mouseout"/>
                  </use>
                  <path fill="none" stroke="white" stroke-width="1.5" d="M0,-3.0v7 M-2.5,-0.5L0,-3.0L2.5,-0.5"/>
                </g>
                <g id="arrowRight" xlink:href="#dirArrow" transform="rotate(90) translate(36 -43)" onmousedown="handlePan(1,0)">
                  <use xlink:href="#rim" fill="#404040">
                        <set attributeName="fill" to="#808080" begin="arrowRight.mouseover" end="arrowRight.mouseout"/>
                  </use>
                  <path fill="none" stroke="white" stroke-width="1.5" d="M0,-3.0v7 M-2.5,-0.5L0,-3.0L2.5,-0.5"/>
                </g>
                <g id="arrowDown" xlink:href="#dirArrow" transform="rotate(180) translate(-30 -48)" onmousedown="handlePan(0,1)">
                  <use xlink:href="#rim" fill="#404040">
                        <set attributeName="fill" to="#808080" begin="arrowDown.mouseover" end="arrowDown.mouseout"/>
                  </use>
                  <path fill="none" stroke="white" stroke-width="1.5" d="M0,-3.0v7 M-2.5,-0.5L0,-3.0L2.5,-0.5"/>
                </g>
                <g id="arrowLeft" xlink:href="#dirArrow" transform="rotate(270) translate(-36 17)" onmousedown="handlePan(-1,0)">
                  <use xlink:href="#rim" fill="#404040">
                        <set attributeName="fill" to="#808080" begin="arrowLeft.mouseover" end="arrowLeft.mouseout"/>
                  </use>
                  <path fill="none" stroke="white" stroke-width="1.5" d="M0,-3.0v7 M-2.5,-0.5L0,-3.0L2.5,-0.5"/>
                </g>
        </g>
        <svg viewBox="0 0 15 15" width="100%" height="30px" preserveAspectRatio="xMaxYMin meet">
         <g id="arrow_out" transform="scale(0.3 0.3)">
          <a xlink:href="classAutoCloseMessageBox_a7fe1efbc376f99b48eb9bf32f59b37f0_cgraph_org.svg" target="_base">
           <rect id="button" ry="5" rx="5" y="6" x="6" height="38" width="38"
                fill="#f2f5e9" fill-opacity="0.5" stroke="#606060" stroke-width="1.0"/>
           <path id="arrow"
             d="M 11.500037,31.436501 C 11.940474,20.09759 22.043105,11.32322 32.158766,21.979434 L 37.068811,17.246167 C 37.068811,17.246167 37.088388,32 37.088388,32 L 22.160133,31.978069 C 22.160133,31.978069 26.997745,27.140456 26.997745,27.140456 C 18.528582,18.264221 13.291696,25.230495 11.500037,31.436501 z"
             style="fill:#404040;"/>
          </a>
         </g>
        </svg>
</svg>
