<?xml version="1.0" encoding="UTF-8" standalone="no"?>
<!DOCTYPE svg PUBLIC "-//W3C//DTD SVG 1.1//EN"
 "http://www.w3.org/Graphics/SVG/1.1/DTD/svg11.dtd">
<!-- Generated by graphviz version 2.40.1 (0)
 -->
<!-- Title: PartsBinRemoveCommand::undo Pages: 1 -->
<svg width="1519pt" height="379pt"
 viewBox="0.00 0.00 1519.00 379.00" xmlns="http://www.w3.org/2000/svg" xmlns:xlink="http://www.w3.org/1999/xlink">
<g id="graph0" class="graph" transform="scale(1 1) rotate(0) translate(4 375)">
<title>PartsBinRemoveCommand::undo</title>
<polygon fill="#ffffff" stroke="transparent" points="-4,4 -4,-375 1515,-375 1515,4 -4,4"/>
<!-- Node24 -->
<g id="node1" class="node">
<title>Node24</title>
<g id="a_node1"><a xlink:title=" ">
<polygon fill="#bfbfbf" stroke="#000000" points="0,-90 0,-120 147,-120 147,-90 0,-90"/>
<text text-anchor="start" x="8" y="-108" font-family="Helvetica,sans-Serif" font-size="10.00" fill="#000000">PartsBinRemoveCommand</text>
<text text-anchor="middle" x="73.5" y="-97" font-family="Helvetica,sans-Serif" font-size="10.00" fill="#000000">::undo</text>
</a>
</g>
</g>
<!-- Node25 -->
<g id="node2" class="node">
<title>Node25</title>
<g id="a_node2"><a xlink:href="../../d9/d6b/classPartsBinAddRemoveCommand.html#a3b7492ae39bdca7f1bddf40d97a3238b" target="_top" xlink:title=" ">
<polygon fill="#ffffff" stroke="#000000" points="183,-95.5 183,-114.5 373,-114.5 373,-95.5 183,-95.5"/>
<text text-anchor="middle" x="278" y="-102.5" font-family="Helvetica,sans-Serif" font-size="10.00" fill="#000000">PartsBinAddRemoveCommand::add</text>
</a>
</g>
</g>
<!-- Node24&#45;&gt;Node25 -->
<g id="edge1" class="edge">
<title>Node24&#45;&gt;Node25</title>
<path fill="none" stroke="#191970" d="M147.0403,-105C155.3528,-105 163.9409,-105 172.5592,-105"/>
<polygon fill="#191970" stroke="#191970" points="172.6756,-108.5001 182.6755,-105 172.6755,-101.5001 172.6756,-108.5001"/>
</g>
<!-- Node26 -->
<g id="node3" class="node">
<title>Node26</title>
<g id="a_node3"><a xlink:href="../../de/d4e/classPartsBinPaletteWidget.html#a99a05dc0e92b70409b99dd3346e84583" target="_top" xlink:title=" ">
<polygon fill="#ffffff" stroke="#000000" points="409,-90 409,-120 534,-120 534,-90 409,-90"/>
<text text-anchor="start" x="417" y="-108" font-family="Helvetica,sans-Serif" font-size="10.00" fill="#000000">PartsBinPaletteWidget</text>
<text text-anchor="middle" x="471.5" y="-97" font-family="Helvetica,sans-Serif" font-size="10.00" fill="#000000">::addPart</text>
</a>
</g>
</g>
<!-- Node25&#45;&gt;Node26 -->
<g id="edge2" class="edge">
<title>Node25&#45;&gt;Node26</title>
<path fill="none" stroke="#191970" d="M373.0494,-105C381.6789,-105 390.3265,-105 398.7173,-105"/>
<polygon fill="#191970" stroke="#191970" points="398.8066,-108.5001 408.8066,-105 398.8066,-101.5001 398.8066,-108.5001"/>
</g>
<!-- Node27 -->
<g id="node4" class="node">
<title>Node27</title>
<g id="a_node4"><a xlink:href="../../d0/d49/classModelBase.html#afa1f5daa8483f318607da9dcb9c62b8b" target="_top" xlink:title=" ">
<polygon fill="#ffffff" stroke="#000000" points="570,-256.5 570,-275.5 713,-275.5 713,-256.5 570,-256.5"/>
<text text-anchor="middle" x="641.5" y="-263.5" font-family="Helvetica,sans-Serif" font-size="10.00" fill="#000000">ModelBase::addModelPart</text>
</a>
</g>
</g>
<!-- Node26&#45;&gt;Node27 -->
<g id="edge3" class="edge">
<title>Node26&#45;&gt;Node27</title>
<path fill="none" stroke="#191970" d="M487.4932,-120.1465C519.3436,-150.3107 590.4874,-217.6881 623.7368,-249.1772"/>
<polygon fill="#191970" stroke="#191970" points="621.6592,-252.0301 631.3266,-256.3652 626.4726,-246.9476 621.6592,-252.0301"/>
</g>
<!-- Node44 -->
<g id="node21" class="node">
<title>Node44</title>
<g id="a_node21"><a xlink:href="../../d8/da3/classPartsBinView.html#ac858cc01bd17edf1da793bfa0cba4d74" target="_top" xlink:title=" ">
<polygon fill="#ffffff" stroke="#000000" points="768,-133.5 768,-152.5 890,-152.5 890,-133.5 768,-133.5"/>
<text text-anchor="middle" x="829" y="-140.5" font-family="Helvetica,sans-Serif" font-size="10.00" fill="#000000">PartsBinView::addPart</text>
</a>
</g>
</g>
<!-- Node26&#45;&gt;Node44 -->
<g id="edge21" class="edge">
<title>Node26&#45;&gt;Node44</title>
<path fill="none" stroke="#191970" d="M502.135,-120.1883C521.155,-128.757 546.3946,-138.6045 570,-143 632.682,-154.6717 705.3864,-153.4136 757.7799,-149.9684"/>
<polygon fill="#191970" stroke="#191970" points="758.248,-153.4442 767.9787,-149.2533 757.7584,-146.4614 758.248,-153.4442"/>
</g>
<!-- Node47 -->
<g id="node24" class="node">
<title>Node47</title>
<g id="a_node24"><a xlink:href="../../d8/dee/classPartsBinIconView.html#afdbbd5249ed0adcdba85fd192a0ebabe" target="_top" xlink:title=" ">
<polygon fill="#ffffff" stroke="#000000" points="570,-114.5 570,-133.5 713,-133.5 713,-114.5 570,-114.5"/>
<text text-anchor="middle" x="641.5" y="-121.5" font-family="Helvetica,sans-Serif" font-size="10.00" fill="#000000">PartsBinIconView::addPart</text>
</a>
</g>
</g>
<!-- Node26&#45;&gt;Node47 -->
<g id="edge24" class="edge">
<title>Node26&#45;&gt;Node47</title>
<path fill="none" stroke="#191970" d="M534.3187,-112.0209C542.6125,-112.9479 551.2092,-113.9087 559.7618,-114.8646"/>
<polygon fill="#191970" stroke="#191970" points="559.4339,-118.3496 569.7608,-115.9821 560.2115,-111.3929 559.4339,-118.3496"/>
</g>
<!-- Node53 -->
<g id="node30" class="node">
<title>Node53</title>
<g id="a_node30"><a xlink:href="../../d4/d72/classModelPart.html#a438342ae59532458b66db56e9c0ed43a" target="_top" xlink:title=" ">
<polygon fill="#ffffff" stroke="#000000" points="589.5,-76.5 589.5,-95.5 693.5,-95.5 693.5,-76.5 589.5,-76.5"/>
<text text-anchor="middle" x="641.5" y="-83.5" font-family="Helvetica,sans-Serif" font-size="10.00" fill="#000000">ModelPart::isAlien</text>
</a>
</g>
</g>
<!-- Node26&#45;&gt;Node53 -->
<g id="edge31" class="edge">
<title>Node26&#45;&gt;Node53</title>
<path fill="none" stroke="#191970" d="M534.3187,-97.9791C548.9969,-96.3386 564.6239,-94.592 579.276,-92.9544"/>
<polygon fill="#191970" stroke="#191970" points="579.6911,-96.4299 589.2404,-91.8408 578.9135,-89.4733 579.6911,-96.4299"/>
</g>
<!-- Node54 -->
<g id="node31" class="node">
<title>Node54</title>
<g id="a_node31"><a xlink:href="../../d4/d72/classModelPart.html#affa1c5cf5ca90387b030ec2f8311823f" target="_top" xlink:title=" ">
<polygon fill="#ffffff" stroke="#000000" points="582,-38.5 582,-57.5 701,-57.5 701,-38.5 582,-38.5"/>
<text text-anchor="middle" x="641.5" y="-45.5" font-family="Helvetica,sans-Serif" font-size="10.00" fill="#000000">ModelPart::moduleID</text>
</a>
</g>
</g>
<!-- Node26&#45;&gt;Node54 -->
<g id="edge32" class="edge">
<title>Node26&#45;&gt;Node54</title>
<path fill="none" stroke="#191970" d="M507.6488,-89.9723C526.1297,-82.5669 549.0802,-73.7927 570,-67 577.2199,-64.6557 584.9171,-62.3811 592.4863,-60.2691"/>
<polygon fill="#191970" stroke="#191970" points="593.5828,-63.598 602.3121,-57.594 591.7439,-56.8438 593.5828,-63.598"/>
</g>
<!-- Node55 -->
<g id="node32" class="node">
<title>Node55</title>
<g id="a_node32"><a xlink:href="../../d0/d49/classModelBase.html#aa720e23b5ac99421022c412380c9ace3" target="_top" xlink:title=" ">
<polygon fill="#ffffff" stroke="#000000" points="593.5,-.5 593.5,-19.5 689.5,-19.5 689.5,-.5 593.5,-.5"/>
<text text-anchor="middle" x="641.5" y="-7.5" font-family="Helvetica,sans-Serif" font-size="10.00" fill="#000000">ModelBase::root</text>
</a>
</g>
</g>
<!-- Node26&#45;&gt;Node55 -->
<g id="edge33" class="edge">
<title>Node26&#45;&gt;Node55</title>
<path fill="none" stroke="#191970" d="M486.8805,-89.9254C505.2085,-72.771 537.4602,-45.059 570,-29 574.823,-26.6197 579.9813,-24.5098 585.2361,-22.6454"/>
<polygon fill="#191970" stroke="#191970" points="586.3219,-25.9729 594.7475,-19.5495 584.1552,-19.3166 586.3219,-25.9729"/>
</g>
<!-- Node28 -->
<g id="node5" class="node">
<title>Node28</title>
<g id="a_node5"><a xlink:href="../../d4/d72/classModelPart.html#a1ec20473c5a9267a82a9c11193236258" target="_top" xlink:title=" ">
<polygon fill="#ffffff" stroke="#000000" points="771,-313.5 771,-332.5 887,-332.5 887,-313.5 771,-313.5"/>
<text text-anchor="middle" x="829" y="-320.5" font-family="Helvetica,sans-Serif" font-size="10.00" fill="#000000">ModelPart::copyNew</text>
</a>
</g>
</g>
<!-- Node27&#45;&gt;Node28 -->
<g id="edge4" class="edge">
<title>Node27&#45;&gt;Node28</title>
<path fill="none" stroke="#191970" d="M666.0199,-275.5093C687.6517,-283.6954 720.138,-295.4978 749,-304 757.4568,-306.4912 766.4891,-308.8862 775.3271,-311.0864"/>
<polygon fill="#191970" stroke="#191970" points="774.6381,-314.5208 785.1819,-313.4825 776.2919,-307.719 774.6381,-314.5208"/>
</g>
<!-- Node32 -->
<g id="node9" class="node">
<title>Node32</title>
<g id="a_node9"><a xlink:href="../../d4/d72/classModelPart.html#a6f52b9f62e7a043c5906cc5d256c322c" target="_top" xlink:title=" ">
<polygon fill="#ffffff" stroke="#000000" points="765,-275.5 765,-294.5 893,-294.5 893,-275.5 765,-275.5"/>
<text text-anchor="middle" x="829" y="-282.5" font-family="Helvetica,sans-Serif" font-size="10.00" fill="#000000">ModelPart::flipSMDAnd</text>
</a>
</g>
</g>
<!-- Node27&#45;&gt;Node32 -->
<g id="edge8" class="edge">
<title>Node27&#45;&gt;Node32</title>
<path fill="none" stroke="#191970" d="M713.1883,-273.2644C726.6991,-274.6335 740.8581,-276.0683 754.454,-277.446"/>
<polygon fill="#191970" stroke="#191970" points="754.4192,-280.9603 764.7211,-278.4864 755.125,-273.996 754.4192,-280.9603"/>
</g>
<!-- Node33 -->
<g id="node10" class="node">
<title>Node33</title>
<g id="a_node10"><a xlink:href="../../d4/d72/classModelPart.html#a41eddfff486830d2a2d8e42767b594d2" target="_top" xlink:title=" ">
<polygon fill="#ffffff" stroke="#000000" points="758,-237.5 758,-256.5 900,-256.5 900,-237.5 758,-237.5"/>
<text text-anchor="middle" x="829" y="-244.5" font-family="Helvetica,sans-Serif" font-size="10.00" fill="#000000">ModelPart::initConnectors</text>
</a>
</g>
</g>
<!-- Node27&#45;&gt;Node33 -->
<g id="edge9" class="edge">
<title>Node27&#45;&gt;Node33</title>
<path fill="none" stroke="#191970" d="M713.1883,-258.7356C724.5426,-257.585 736.3547,-256.3881 747.9057,-255.2176"/>
<polygon fill="#191970" stroke="#191970" points="748.3751,-258.688 757.9712,-254.1976 747.6693,-251.7237 748.3751,-258.688"/>
</g>
<!-- Node29 -->
<g id="node6" class="node">
<title>Node29</title>
<g id="a_node6"><a xlink:href="../../d4/d72/classModelPart.html#a3902099ca306a7924fd5d7418f8b4eee" target="_top" xlink:title=" ">
<polygon fill="#ffffff" stroke="#000000" points="969,-313.5 969,-332.5 1064,-332.5 1064,-313.5 969,-313.5"/>
<text text-anchor="middle" x="1016.5" y="-320.5" font-family="Helvetica,sans-Serif" font-size="10.00" fill="#000000">ModelPart::copy</text>
</a>
</g>
</g>
<!-- Node28&#45;&gt;Node29 -->
<g id="edge5" class="edge">
<title>Node28&#45;&gt;Node29</title>
<path fill="none" stroke="#191970" d="M887.0421,-323C909.7995,-323 935.8573,-323 958.6009,-323"/>
<polygon fill="#191970" stroke="#191970" points="958.7937,-326.5001 968.7937,-323 958.7936,-319.5001 958.7937,-326.5001"/>
</g>
<!-- Node30 -->
<g id="node7" class="node">
<title>Node30</title>
<g id="a_node7"><a xlink:href="../../d4/d72/classModelPart.html#a5c46dd2d379fdc4a1385f4d3c512bf73" target="_top" xlink:title=" ">
<polygon fill="#ffffff" stroke="#000000" points="1143.5,-351.5 1143.5,-370.5 1259.5,-370.5 1259.5,-351.5 1143.5,-351.5"/>
<text text-anchor="middle" x="1201.5" y="-358.5" font-family="Helvetica,sans-Serif" font-size="10.00" fill="#000000">ModelPart::itemType</text>
</a>
</g>
</g>
<!-- Node29&#45;&gt;Node30 -->
<g id="edge6" class="edge">
<title>Node29&#45;&gt;Node30</title>
<path fill="none" stroke="#191970" d="M1063.1833,-332.589C1088.1459,-337.7165 1119.0642,-344.0672 1145.334,-349.4632"/>
<polygon fill="#191970" stroke="#191970" points="1144.6526,-352.8962 1155.1524,-351.4799 1146.0611,-346.0394 1144.6526,-352.8962"/>
</g>
<!-- Node31 -->
<g id="node8" class="node">
<title>Node31</title>
<g id="a_node8"><a xlink:href="../../d4/d72/classModelPart.html#a1a3c3970a8a05587649f4e1b4a20fb5b" target="_top" xlink:title=" ">
<polygon fill="#ffffff" stroke="#000000" points="1124,-313.5 1124,-332.5 1279,-332.5 1279,-313.5 1124,-313.5"/>
<text text-anchor="middle" x="1201.5" y="-320.5" font-family="Helvetica,sans-Serif" font-size="10.00" fill="#000000">ModelPart::modelPartShared</text>
</a>
</g>
</g>
<!-- Node29&#45;&gt;Node31 -->
<g id="edge7" class="edge">
<title>Node29&#45;&gt;Node31</title>
<path fill="none" stroke="#191970" d="M1064.1421,-323C1079.3562,-323 1096.7065,-323 1113.8351,-323"/>
<polygon fill="#191970" stroke="#191970" points="1113.8768,-326.5001 1123.8768,-323 1113.8767,-319.5001 1113.8768,-326.5001"/>
</g>
<!-- Node34 -->
<g id="node11" class="node">
<title>Node34</title>
<g id="a_node11"><a xlink:href="../../d4/d72/classModelPart.html#a2acf4e49c5485c018eafe728acae0229" target="_top" xlink:title=" ">
<polygon fill="#ffffff" stroke="#000000" points="954,-275.5 954,-294.5 1079,-294.5 1079,-275.5 954,-275.5"/>
<text text-anchor="middle" x="1016.5" y="-282.5" font-family="Helvetica,sans-Serif" font-size="10.00" fill="#000000">ModelPart::clearBuses</text>
</a>
</g>
</g>
<!-- Node33&#45;&gt;Node34 -->
<g id="edge10" class="edge">
<title>Node33&#45;&gt;Node34</title>
<path fill="none" stroke="#191970" d="M876.3142,-256.589C901.6141,-261.7165 932.9502,-268.0672 959.575,-273.4632"/>
<polygon fill="#191970" stroke="#191970" points="959.0301,-276.9238 969.5261,-275.4799 960.4205,-270.0633 959.0301,-276.9238"/>
</g>
<!-- Node36 -->
<g id="node13" class="node">
<title>Node36</title>
<g id="a_node13"><a xlink:href="../../d7/d1b/classConnectorShared.html#a2ba3eb78fb417cdc98943d670426529c" target="_top" xlink:title=" ">
<polygon fill="#ffffff" stroke="#000000" points="959,-237.5 959,-256.5 1074,-256.5 1074,-237.5 959,-237.5"/>
<text text-anchor="middle" x="1016.5" y="-244.5" font-family="Helvetica,sans-Serif" font-size="10.00" fill="#000000">ConnectorShared::id</text>
</a>
</g>
</g>
<!-- Node33&#45;&gt;Node36 -->
<g id="edge12" class="edge">
<title>Node33&#45;&gt;Node36</title>
<path fill="none" stroke="#191970" d="M900.1531,-247C916.0449,-247 932.8579,-247 948.6136,-247"/>
<polygon fill="#191970" stroke="#191970" points="948.7943,-250.5001 958.7943,-247 948.7943,-243.5001 948.7943,-250.5001"/>
</g>
<!-- Node37 -->
<g id="node14" class="node">
<title>Node37</title>
<g id="a_node14"><a xlink:href="../../d4/d72/classModelPart.html#ade497815345c420bbd23e111aa96b87d" target="_top" xlink:title=" ">
<polygon fill="#ffffff" stroke="#000000" points="958.5,-199.5 958.5,-218.5 1074.5,-218.5 1074.5,-199.5 958.5,-199.5"/>
<text text-anchor="middle" x="1016.5" y="-206.5" font-family="Helvetica,sans-Serif" font-size="10.00" fill="#000000">ModelPart::initBuses</text>
</a>
</g>
</g>
<!-- Node33&#45;&gt;Node37 -->
<g id="edge13" class="edge">
<title>Node33&#45;&gt;Node37</title>
<path fill="none" stroke="#191970" d="M876.3142,-237.411C901.6141,-232.2835 932.9502,-225.9328 959.575,-220.5368"/>
<polygon fill="#191970" stroke="#191970" points="960.4205,-223.9367 969.5261,-218.5201 959.0301,-217.0762 960.4205,-223.9367"/>
</g>
<!-- Node35 -->
<g id="node12" class="node">
<title>Node35</title>
<g id="a_node12"><a xlink:href="../../d4/d72/classModelPart.html#ab3aad94e89c7415cfdcc8c269052c9a9" target="_top" xlink:title=" ">
<polygon fill="#ffffff" stroke="#000000" points="1157,-275.5 1157,-294.5 1246,-294.5 1246,-275.5 1157,-275.5"/>
<text text-anchor="middle" x="1201.5" y="-282.5" font-family="Helvetica,sans-Serif" font-size="10.00" fill="#000000">ModelPart::bus</text>
</a>
</g>
</g>
<!-- Node34&#45;&gt;Node35 -->
<g id="edge11" class="edge">
<title>Node34&#45;&gt;Node35</title>
<path fill="none" stroke="#191970" d="M1079.1326,-285C1101.0228,-285 1125.4129,-285 1146.6221,-285"/>
<polygon fill="#191970" stroke="#191970" points="1146.7536,-288.5001 1156.7535,-285 1146.7535,-281.5001 1146.7536,-288.5001"/>
</g>
<!-- Node37&#45;&gt;Node35 -->
<g id="edge16" class="edge">
<title>Node37&#45;&gt;Node35</title>
<path fill="none" stroke="#191970" d="M1066.7832,-218.5614C1074.1753,-221.0338 1081.4851,-224.1294 1088,-228 1108.0009,-239.8827 1103.8853,-254.311 1124,-266 1131.0678,-270.1072 1138.9949,-273.3305 1147.0097,-275.8591"/>
<polygon fill="#191970" stroke="#191970" points="1146.2031,-279.268 1156.7776,-278.6116 1148.1018,-272.5304 1146.2031,-279.268"/>
</g>
<!-- Node38 -->
<g id="node15" class="node">
<title>Node38</title>
<g id="a_node15"><a xlink:href="../../d2/dfc/classBus.html#aee9b091c50d02e889b17a600d664e6eb" target="_top" xlink:title=" ">
<polygon fill="#ffffff" stroke="#000000" points="1147.5,-237.5 1147.5,-256.5 1255.5,-256.5 1255.5,-237.5 1147.5,-237.5"/>
<text text-anchor="middle" x="1201.5" y="-244.5" font-family="Helvetica,sans-Serif" font-size="10.00" fill="#000000">Bus::addConnector</text>
</a>
</g>
</g>
<!-- Node37&#45;&gt;Node38 -->
<g id="edge14" class="edge">
<title>Node37&#45;&gt;Node38</title>
<path fill="none" stroke="#191970" d="M1063.1833,-218.589C1088.1459,-223.7165 1119.0642,-230.0672 1145.334,-235.4632"/>
<polygon fill="#191970" stroke="#191970" points="1144.6526,-238.8962 1155.1524,-237.4799 1146.0611,-232.0394 1144.6526,-238.8962"/>
</g>
<!-- Node39 -->
<g id="node16" class="node">
<title>Node39</title>
<g id="a_node16"><a xlink:href="../../d7/d1b/classConnectorShared.html#a287f4978e9742842d23ae0b1a00f46c2" target="_top" xlink:title=" ">
<polygon fill="#ffffff" stroke="#000000" points="1140,-199.5 1140,-218.5 1263,-218.5 1263,-199.5 1140,-199.5"/>
<text text-anchor="middle" x="1201.5" y="-206.5" font-family="Helvetica,sans-Serif" font-size="10.00" fill="#000000">ConnectorShared::bus</text>
</a>
</g>
</g>
<!-- Node37&#45;&gt;Node39 -->
<g id="edge15" class="edge">
<title>Node37&#45;&gt;Node39</title>
<path fill="none" stroke="#191970" d="M1074.5276,-209C1092.0516,-209 1111.502,-209 1129.806,-209"/>
<polygon fill="#191970" stroke="#191970" points="1129.8375,-212.5001 1139.8374,-209 1129.8374,-205.5001 1129.8375,-212.5001"/>
</g>
<!-- Node40 -->
<g id="node17" class="node">
<title>Node40</title>
<g id="a_node17"><a xlink:href="../../d9/d65/classConnector.html#a24de03e134daab2d9efa441caaa42297" target="_top" xlink:title=" ">
<polygon fill="#ffffff" stroke="#000000" points="1124.5,-161.5 1124.5,-180.5 1278.5,-180.5 1278.5,-161.5 1124.5,-161.5"/>
<text text-anchor="middle" x="1201.5" y="-168.5" font-family="Helvetica,sans-Serif" font-size="10.00" fill="#000000">Connector::connectorShared</text>
</a>
</g>
</g>
<!-- Node37&#45;&gt;Node40 -->
<g id="edge17" class="edge">
<title>Node37&#45;&gt;Node40</title>
<path fill="none" stroke="#191970" d="M1063.1833,-199.411C1088.1459,-194.2835 1119.0642,-187.9328 1145.334,-182.5368"/>
<polygon fill="#191970" stroke="#191970" points="1146.0611,-185.9606 1155.1524,-180.5201 1144.6526,-179.1038 1146.0611,-185.9606"/>
</g>
<!-- Node41 -->
<g id="node18" class="node">
<title>Node41</title>
<g id="a_node18"><a xlink:href="../../d5/d1b/classBusShared.html#aefd518b6892423933c79f4f0375a13d8" target="_top" xlink:title=" ">
<polygon fill="#ffffff" stroke="#000000" points="1160,-123.5 1160,-142.5 1243,-142.5 1243,-123.5 1160,-123.5"/>
<text text-anchor="middle" x="1201.5" y="-130.5" font-family="Helvetica,sans-Serif" font-size="10.00" fill="#000000">BusShared::id</text>
</a>
</g>
</g>
<!-- Node37&#45;&gt;Node41 -->
<g id="edge18" class="edge">
<title>Node37&#45;&gt;Node41</title>
<path fill="none" stroke="#191970" d="M1047.0113,-199.374C1060.0583,-194.6758 1075.2005,-188.4255 1088,-181 1105.7716,-170.6901 1105.5834,-161.1077 1124,-152 1132.0298,-148.0289 1140.9479,-144.8517 1149.7931,-142.3207"/>
<polygon fill="#191970" stroke="#191970" points="1150.9088,-145.6467 1159.6975,-139.7298 1149.1372,-138.8746 1150.9088,-145.6467"/>
</g>
<!-- Node42 -->
<g id="node19" class="node">
<title>Node42</title>
<g id="a_node19"><a xlink:href="../../d9/d65/classConnector.html#a1b9aaeb26c3135118b58aaecd1ef36f5" target="_top" xlink:title=" ">
<polygon fill="#ffffff" stroke="#000000" points="1149,-85.5 1149,-104.5 1254,-104.5 1254,-85.5 1149,-85.5"/>
<text text-anchor="middle" x="1201.5" y="-92.5" font-family="Helvetica,sans-Serif" font-size="10.00" fill="#000000">Connector::setBus</text>
</a>
</g>
</g>
<!-- Node37&#45;&gt;Node42 -->
<g id="edge19" class="edge">
<title>Node37&#45;&gt;Node42</title>
<path fill="none" stroke="#191970" d="M1055.2662,-199.4058C1066.7519,-195.1707 1078.7243,-189.2261 1088,-181 1113.2912,-158.5707 1097.276,-134.7013 1124,-114 1128.6306,-110.413 1133.8456,-107.4926 1139.3257,-105.1164"/>
<polygon fill="#191970" stroke="#191970" points="1140.5925,-108.3796 1148.7423,-101.6097 1138.1496,-101.8197 1140.5925,-108.3796"/>
</g>
<!-- Node43 -->
<g id="node20" class="node">
<title>Node43</title>
<g id="a_node20"><a xlink:href="../../d9/d65/classConnector.html#aa48281ac91fd7d99765da3bfc2a3cd75" target="_top" xlink:title=" ">
<polygon fill="#ffffff" stroke="#000000" points="1328.5,-85.5 1328.5,-104.5 1417.5,-104.5 1417.5,-85.5 1328.5,-85.5"/>
<text text-anchor="middle" x="1373" y="-92.5" font-family="Helvetica,sans-Serif" font-size="10.00" fill="#000000">Connector::bus</text>
</a>
</g>
</g>
<!-- Node42&#45;&gt;Node43 -->
<g id="edge20" class="edge">
<title>Node42&#45;&gt;Node43</title>
<path fill="none" stroke="#191970" d="M1254.355,-95C1274.646,-95 1297.8334,-95 1318.2945,-95"/>
<polygon fill="#191970" stroke="#191970" points="1318.4047,-98.5001 1328.4047,-95 1318.4046,-91.5001 1318.4047,-98.5001"/>
</g>
<!-- Node45 -->
<g id="node22" class="node">
<title>Node45</title>
<g id="a_node22"><a xlink:href="../../d8/da3/classPartsBinView.html#a01dd8201caaf3868eadbc9bd72cea067" target="_top" xlink:title=" ">
<polygon fill="#ffffff" stroke="#000000" points="945.5,-152.5 945.5,-171.5 1087.5,-171.5 1087.5,-152.5 945.5,-152.5"/>
<text text-anchor="middle" x="1016.5" y="-159.5" font-family="Helvetica,sans-Serif" font-size="10.00" fill="#000000">PartsBinView::setItemAux</text>
</a>
</g>
</g>
<!-- Node44&#45;&gt;Node45 -->
<g id="edge22" class="edge">
<title>Node44&#45;&gt;Node45</title>
<path fill="none" stroke="#191970" d="M890.1351,-149.195C904.462,-150.6468 919.9498,-152.2162 935.0084,-153.7422"/>
<polygon fill="#191970" stroke="#191970" points="935.0434,-157.2636 945.3454,-154.7897 935.7492,-150.2992 935.0434,-157.2636"/>
</g>
<!-- Node46 -->
<g id="node23" class="node">
<title>Node46</title>
<g id="a_node23"><a xlink:href="../../d8/da3/classPartsBinView.html#ad98cb920b4a0320847f8dec958c7e0be" target="_top" xlink:title=" ">
<polygon fill="#ffffff" stroke="#000000" points="945,-114.5 945,-133.5 1088,-133.5 1088,-114.5 945,-114.5"/>
<text text-anchor="middle" x="1016.5" y="-121.5" font-family="Helvetica,sans-Serif" font-size="10.00" fill="#000000">PartsBinView::setSelected</text>
</a>
</g>
</g>
<!-- Node44&#45;&gt;Node46 -->
<g id="edge23" class="edge">
<title>Node44&#45;&gt;Node46</title>
<path fill="none" stroke="#191970" d="M890.1351,-136.805C904.2883,-135.3708 919.5745,-133.8218 934.4606,-132.3133"/>
<polygon fill="#191970" stroke="#191970" points="935.0874,-135.7678 944.6836,-131.2774 934.3816,-128.8035 935.0874,-135.7678"/>
</g>
<!-- Node47&#45;&gt;Node44 -->
<g id="edge25" class="edge">
<title>Node47&#45;&gt;Node44</title>
<path fill="none" stroke="#191970" d="M713.1883,-131.2644C727.804,-132.7455 743.1782,-134.3034 757.7777,-135.7828"/>
<polygon fill="#191970" stroke="#191970" points="757.4404,-139.2665 767.7423,-136.7926 758.1462,-132.3021 757.4404,-139.2665"/>
</g>
<!-- Node48 -->
<g id="node25" class="node">
<title>Node48</title>
<g id="a_node25"><a xlink:href="../../d8/dee/classPartsBinIconView.html#a818cc13f88ad2d3c2b07596a9afc070e" target="_top" xlink:title=" ">
<polygon fill="#ffffff" stroke="#000000" points="749,-92.5 749,-111.5 909,-111.5 909,-92.5 749,-92.5"/>
<text text-anchor="middle" x="829" y="-99.5" font-family="Helvetica,sans-Serif" font-size="10.00" fill="#000000">PartsBinIconView::updateSize</text>
</a>
</g>
</g>
<!-- Node47&#45;&gt;Node48 -->
<g id="edge26" class="edge">
<title>Node47&#45;&gt;Node48</title>
<path fill="none" stroke="#191970" d="M713.1883,-115.5886C721.5849,-114.6034 730.2318,-113.5888 738.8384,-112.579"/>
<polygon fill="#191970" stroke="#191970" points="739.3818,-116.0393 748.9058,-111.3977 738.566,-109.087 739.3818,-116.0393"/>
</g>
<!-- Node49 -->
<g id="node26" class="node">
<title>Node49</title>
<g id="a_node26"><a xlink:href="../../d8/dee/classPartsBinIconView.html#a52cb4d6ad8545cf34df3c8de06afcd0c" target="_top" xlink:title=" ">
<polygon fill="#ffffff" stroke="#000000" points="946.5,-46 946.5,-76 1086.5,-76 1086.5,-46 946.5,-46"/>
<text text-anchor="start" x="954.5" y="-64" font-family="Helvetica,sans-Serif" font-size="10.00" fill="#000000">PartsBinIconView::update</text>
<text text-anchor="middle" x="1016.5" y="-53" font-family="Helvetica,sans-Serif" font-size="10.00" fill="#000000">SizeAux</text>
</a>
</g>
</g>
<!-- Node48&#45;&gt;Node49 -->
<g id="edge27" class="edge">
<title>Node48&#45;&gt;Node49</title>
<path fill="none" stroke="#191970" d="M872.4875,-92.4907C891.9004,-88.2458 915.3955,-83.1082 937.7268,-78.2251"/>
<polygon fill="#191970" stroke="#191970" points="938.5257,-81.6332 947.5472,-76.0777 937.0303,-74.7947 938.5257,-81.6332"/>
</g>
<!-- Node50 -->
<g id="node27" class="node">
<title>Node50</title>
<g id="a_node27"><a xlink:href="../../d4/d68/classGraphicsFlowLayout.html#a638700c37415a199eb80aaa32f1741a4" target="_top" xlink:title=" ">
<polygon fill="#ffffff" stroke="#000000" points="1143.5,-36 1143.5,-66 1259.5,-66 1259.5,-36 1143.5,-36"/>
<text text-anchor="start" x="1151.5" y="-54" font-family="Helvetica,sans-Serif" font-size="10.00" fill="#000000">GraphicsFlowLayout</text>
<text text-anchor="middle" x="1201.5" y="-43" font-family="Helvetica,sans-Serif" font-size="10.00" fill="#000000">::heightForWidth</text>
</a>
</g>
</g>
<!-- Node49&#45;&gt;Node50 -->
<g id="edge28" class="edge">
<title>Node49&#45;&gt;Node50</title>
<path fill="none" stroke="#191970" d="M1086.7044,-57.2052C1101.9027,-56.3836 1117.9551,-55.5159 1133.0836,-54.6982"/>
<polygon fill="#191970" stroke="#191970" points="1133.5913,-58.1759 1143.3877,-54.1412 1133.2134,-51.1861 1133.5913,-58.1759"/>
</g>
<!-- Node51 -->
<g id="node28" class="node">
<title>Node51</title>
<g id="a_node28"><a xlink:href="../../d4/d68/classGraphicsFlowLayout.html#a6ea0fadc3f302b08fd5a22d64d427076" target="_top" xlink:title=" ">
<polygon fill="#ffffff" stroke="#000000" points="1315,-36 1315,-66 1431,-66 1431,-36 1315,-36"/>
<text text-anchor="start" x="1323" y="-54" font-family="Helvetica,sans-Serif" font-size="10.00" fill="#000000">GraphicsFlowLayout</text>
<text text-anchor="middle" x="1373" y="-43" font-family="Helvetica,sans-Serif" font-size="10.00" fill="#000000">::doLayout</text>
</a>
</g>
</g>
<!-- Node50&#45;&gt;Node51 -->
<g id="edge29" class="edge">
<title>Node50&#45;&gt;Node51</title>
<path fill="none" stroke="#191970" d="M1259.5621,-51C1274.0897,-51 1289.8051,-51 1304.776,-51"/>
<polygon fill="#191970" stroke="#191970" points="1304.9978,-54.5001 1314.9977,-51 1304.9977,-47.5001 1304.9978,-54.5001"/>
</g>
<!-- Node52 -->
<g id="node29" class="node">
<title>Node52</title>
<g id="a_node29"><a xlink:href="../../d4/d08/misc_8h.html#ae7cc352fa1dc81e57ff53ebbc762f27d" target="_top" xlink:title=" ">
<polygon fill="#ffffff" stroke="#000000" points="1467,-41.5 1467,-60.5 1511,-60.5 1511,-41.5 1467,-41.5"/>
<text text-anchor="middle" x="1489" y="-48.5" font-family="Helvetica,sans-Serif" font-size="10.00" fill="#000000">qMax</text>
</a>
</g>
</g>
<!-- Node51&#45;&gt;Node52 -->
<g id="edge30" class="edge">
<title>Node51&#45;&gt;Node52</title>
<path fill="none" stroke="#191970" d="M1431.3398,-51C1440.0283,-51 1448.7066,-51 1456.5948,-51"/>
<polygon fill="#191970" stroke="#191970" points="1456.7885,-54.5001 1466.7884,-51 1456.7884,-47.5001 1456.7885,-54.5001"/>
</g>
</g>
</svg>
