<?xml version="1.0" encoding="UTF-8" standalone="no"?>
<!DOCTYPE svg PUBLIC "-//W3C//DTD SVG 1.1//EN"
 "http://www.w3.org/Graphics/SVG/1.1/DTD/svg11.dtd">
<!-- Generated by graphviz version 2.40.1 (0)
 -->
<!-- Title: Score Pages: 1 -->
<!--zoomable 309 -->
<svg id="main" version="1.1" xmlns="http://www.w3.org/2000/svg" xmlns:xlink="http://www.w3.org/1999/xlink" xml:space="preserve" onload="init(evt)">
<style type="text/css"><![CDATA[
.edge:hover path { stroke: red; }
.edge:hover polygon { stroke: red; fill: red; }
]]></style>
<script type="text/javascript"><![CDATA[
var edges = document.getElementsByTagName('g');
if (edges && edges.length) {
  for (var i=0;i<edges.length;i++) {
    if (edges[i].id.substr(0,4)=='edge') {
      edges[i].setAttribute('class','edge');
    }
  }
}
]]></script>
        <defs>
                <circle id="rim" cx="0" cy="0" r="7"/>
                <circle id="rim2" cx="0" cy="0" r="3.5"/>
                <g id="zoomPlus">
                        <use xlink:href="#rim" fill="#404040">
                                <set attributeName="fill" to="#808080" begin="zoomplus.mouseover" end="zoomplus.mouseout"/>
                        </use>
                        <path d="M-4,0h8M0,-4v8" fill="none" stroke="white" stroke-width="1.5" pointer-events="none"/>
                </g>
                <g id="zoomMin">
                        <use xlink:href="#rim" fill="#404040">
                                <set attributeName="fill" to="#808080" begin="zoomminus.mouseover" end="zoomminus.mouseout"/>
                        </use>
                        <path d="M-4,0h8" fill="none" stroke="white" stroke-width="1.5" pointer-events="none"/>
                </g>
                <g id="dirArrow">
                        <path fill="none" stroke="white" stroke-width="1.5" d="M0,-3.0v7 M-2.5,-0.5L0,-3.0L2.5,-0.5"/>
                </g>
               <g id="resetDef">
                       <use xlink:href="#rim2" fill="#404040">
                               <set attributeName="fill" to="#808080" begin="reset.mouseover" end="reset.mouseout"/>
                       </use>
               </g>
        </defs>

<script type="text/javascript">
var viewWidth = 529;
var viewHeight = 309;
var sectionId = 'dynsection-0';
</script>
<script xlink:href="../../svgpan.js"/>
<svg id="graph" class="graph">
<g id="viewport">
<title>Score</title>
<polygon fill="#ffffff" stroke="transparent" points="-4,4 -4,-305 525,-305 525,4 -4,4"/>
<!-- Node1 -->
<g id="node1" class="node">
<title>Node1</title>
<g id="a_node1"><a xlink:title=" ">
<polygon fill="#bfbfbf" stroke="#000000" points="244,-.5 244,-68.5 336,-68.5 336,-.5 244,-.5"/>
<text text-anchor="middle" x="290" y="-56.5" font-family="Helvetica,sans-Serif" font-size="10.00" fill="#000000">Score</text>
<polyline fill="none" stroke="#000000" points="244,-49.5 336,-49.5 "/>
<text text-anchor="middle" x="290" y="-37.5" font-family="Helvetica,sans-Serif" font-size="10.00" fill="#000000"> </text>
<polyline fill="none" stroke="#000000" points="244,-30.5 336,-30.5 "/>
<text text-anchor="start" x="252" y="-18.5" font-family="Helvetica,sans-Serif" font-size="10.00" fill="#000000">+ Score()</text>
<text text-anchor="start" x="252" y="-7.5" font-family="Helvetica,sans-Serif" font-size="10.00" fill="#000000">+ setOrdering()</text>
</a>
</g>
</g>
<!-- Node2 -->
<g id="node2" class="node">
<title>Node2</title>
<g id="a_node2"><a xlink:title=" ">
<polygon fill="#ffffff" stroke="#bfbfbf" points="0,-138.5 0,-195.5 140,-195.5 140,-138.5 0,-138.5"/>
<text text-anchor="middle" x="70" y="-183.5" font-family="Helvetica,sans-Serif" font-size="10.00" fill="#000000">QMultiHash&lt; int, Trace &gt;</text>
<polyline fill="none" stroke="#bfbfbf" points="0,-176.5 140,-176.5 "/>
<text text-anchor="middle" x="70" y="-164.5" font-family="Helvetica,sans-Serif" font-size="10.00" fill="#000000"> </text>
<polyline fill="none" stroke="#bfbfbf" points="0,-157.5 140,-157.5 "/>
<text text-anchor="middle" x="70" y="-145.5" font-family="Helvetica,sans-Serif" font-size="10.00" fill="#000000"> </text>
</a>
</g>
</g>
<!-- Node2&#45;&gt;Node1 -->
<g id="edge1" class="edge">
<title>Node2&#45;&gt;Node1</title>
<path fill="none" stroke="#404040" d="M86.2238,-138.3089C97.1783,-121.2546 113.0706,-100.404 132,-87 161.703,-65.9672 200.4102,-52.9237 232.0783,-45.0987"/>
<polygon fill="none" stroke="#404040" points="232.1525,-45.0814 237.0842,-39.8204 243.8374,-42.3494 238.9056,-47.6104 232.1525,-45.0814"/>
<text text-anchor="middle" x="153" y="-101" font-family="Helvetica,sans-Serif" font-size="10.00" fill="#000000"> +traces</text>
</g>
<!-- Node3 -->
<g id="node3" class="node">
<title>Node3</title>
<g id="a_node3"><a xlink:title=" ">
<polygon fill="#ffffff" stroke="#bfbfbf" points="158.5,-138.5 158.5,-195.5 187.5,-195.5 187.5,-138.5 158.5,-138.5"/>
<text text-anchor="middle" x="173" y="-183.5" font-family="Helvetica,sans-Serif" font-size="10.00" fill="#000000">int</text>
<polyline fill="none" stroke="#bfbfbf" points="158.5,-176.5 187.5,-176.5 "/>
<text text-anchor="middle" x="173" y="-164.5" font-family="Helvetica,sans-Serif" font-size="10.00" fill="#000000"> </text>
<polyline fill="none" stroke="#bfbfbf" points="158.5,-157.5 187.5,-157.5 "/>
<text text-anchor="middle" x="173" y="-145.5" font-family="Helvetica,sans-Serif" font-size="10.00" fill="#000000"> </text>
</a>
</g>
</g>
<!-- Node3&#45;&gt;Node1 -->
<g id="edge2" class="edge">
<title>Node3&#45;&gt;Node1</title>
<path fill="none" stroke="#404040" d="M174.0947,-138.2423C176.0297,-121.7916 180.7665,-101.5918 192,-87 202.5168,-73.3391 217.625,-62.8198 232.8404,-54.9129"/>
<polygon fill="none" stroke="#404040" points="233.0587,-54.808 236.7337,-48.6036 243.8743,-49.6096 240.1993,-55.814 233.0587,-54.808"/>
<text text-anchor="middle" x="239" y="-112" font-family="Helvetica,sans-Serif" font-size="10.00" fill="#000000"> +reorderNet</text>
<text text-anchor="middle" x="239" y="-101" font-family="Helvetica,sans-Serif" font-size="10.00" fill="#000000">+totalRoutedCount</text>
<text text-anchor="middle" x="239" y="-90" font-family="Helvetica,sans-Serif" font-size="10.00" fill="#000000">+totalViaCount</text>
</g>
<!-- Node4 -->
<g id="node4" class="node">
<title>Node4</title>
<g id="a_node4"><a xlink:href="../../d2/d03/structNetOrdering.html" target="_top" xlink:title=" ">
<polygon fill="#ffffff" stroke="#000000" points="252,-138.5 252,-195.5 328,-195.5 328,-138.5 252,-138.5"/>
<text text-anchor="middle" x="290" y="-183.5" font-family="Helvetica,sans-Serif" font-size="10.00" fill="#000000">NetOrdering</text>
<polyline fill="none" stroke="#000000" points="252,-176.5 328,-176.5 "/>
<text text-anchor="middle" x="290" y="-164.5" font-family="Helvetica,sans-Serif" font-size="10.00" fill="#000000"> </text>
<polyline fill="none" stroke="#000000" points="252,-157.5 328,-157.5 "/>
<text text-anchor="middle" x="290" y="-145.5" font-family="Helvetica,sans-Serif" font-size="10.00" fill="#000000"> </text>
</a>
</g>
</g>
<!-- Node4&#45;&gt;Node1 -->
<g id="edge3" class="edge">
<title>Node4&#45;&gt;Node1</title>
<path fill="none" stroke="#404040" d="M290,-138.2495C290,-121.5167 290,-100.0253 290,-80.9467"/>
<polygon fill="none" stroke="#404040" points="290.0001,-80.8321 286,-74.8321 290,-68.8321 294,-74.8321 290.0001,-80.8321"/>
<text text-anchor="middle" x="316" y="-101" font-family="Helvetica,sans-Serif" font-size="10.00" fill="#000000"> +ordering</text>
</g>
<!-- Node5 -->
<g id="node5" class="node">
<title>Node5</title>
<g id="a_node5"><a xlink:title=" ">
<polygon fill="#ffffff" stroke="#bfbfbf" points="251.5,-243.5 251.5,-300.5 328.5,-300.5 328.5,-243.5 251.5,-243.5"/>
<text text-anchor="middle" x="290" y="-288.5" font-family="Helvetica,sans-Serif" font-size="10.00" fill="#000000">QList&lt; int &gt;</text>
<polyline fill="none" stroke="#bfbfbf" points="251.5,-281.5 328.5,-281.5 "/>
<text text-anchor="middle" x="290" y="-269.5" font-family="Helvetica,sans-Serif" font-size="10.00" fill="#000000"> </text>
<polyline fill="none" stroke="#bfbfbf" points="251.5,-262.5 328.5,-262.5 "/>
<text text-anchor="middle" x="290" y="-250.5" font-family="Helvetica,sans-Serif" font-size="10.00" fill="#000000"> </text>
</a>
</g>
</g>
<!-- Node5&#45;&gt;Node4 -->
<g id="edge4" class="edge">
<title>Node5&#45;&gt;Node4</title>
<path fill="none" stroke="#404040" d="M290,-243.3083C290,-232.4281 290,-219.817 290,-208.0192"/>
<polygon fill="none" stroke="#404040" points="290.0001,-207.657 286,-201.6571 290,-195.657 294,-201.657 290.0001,-207.657"/>
<text text-anchor="middle" x="308.5" y="-217" font-family="Helvetica,sans-Serif" font-size="10.00" fill="#000000"> +order</text>
</g>
<!-- Node6 -->
<g id="node6" class="node">
<title>Node6</title>
<g id="a_node6"><a xlink:title=" ">
<polygon fill="#ffffff" stroke="#bfbfbf" points="346,-138.5 346,-195.5 384,-195.5 384,-138.5 346,-138.5"/>
<text text-anchor="middle" x="365" y="-183.5" font-family="Helvetica,sans-Serif" font-size="10.00" fill="#000000">bool</text>
<polyline fill="none" stroke="#bfbfbf" points="346,-176.5 384,-176.5 "/>
<text text-anchor="middle" x="365" y="-164.5" font-family="Helvetica,sans-Serif" font-size="10.00" fill="#000000"> </text>
<polyline fill="none" stroke="#bfbfbf" points="346,-157.5 384,-157.5 "/>
<text text-anchor="middle" x="365" y="-145.5" font-family="Helvetica,sans-Serif" font-size="10.00" fill="#000000"> </text>
</a>
</g>
</g>
<!-- Node6&#45;&gt;Node1 -->
<g id="edge5" class="edge">
<title>Node6&#45;&gt;Node1</title>
<path fill="none" stroke="#404040" d="M360.8313,-138.1825C357.6362,-122.2912 352.1635,-102.6665 343,-87 341.2222,-83.9606 339.2242,-80.9746 337.0729,-78.065"/>
<polygon fill="none" stroke="#404040" points="336.8534,-77.796 329.9604,-75.6775 329.2648,-68.5 336.1577,-70.6185 336.8534,-77.796"/>
<text text-anchor="middle" x="392.5" y="-101" font-family="Helvetica,sans-Serif" font-size="10.00" fill="#000000"> +anyUnrouted</text>
</g>
<!-- Node7 -->
<g id="node7" class="node">
<title>Node7</title>
<g id="a_node7"><a xlink:title=" ">
<polygon fill="#ffffff" stroke="#bfbfbf" points="411.5,-138.5 411.5,-195.5 514.5,-195.5 514.5,-138.5 411.5,-138.5"/>
<text text-anchor="middle" x="463" y="-183.5" font-family="Helvetica,sans-Serif" font-size="10.00" fill="#000000">QHash&lt; int, int &gt;</text>
<polyline fill="none" stroke="#bfbfbf" points="411.5,-176.5 514.5,-176.5 "/>
<text text-anchor="middle" x="463" y="-164.5" font-family="Helvetica,sans-Serif" font-size="10.00" fill="#000000"> </text>
<polyline fill="none" stroke="#bfbfbf" points="411.5,-157.5 514.5,-157.5 "/>
<text text-anchor="middle" x="463" y="-145.5" font-family="Helvetica,sans-Serif" font-size="10.00" fill="#000000"> </text>
</a>
</g>
</g>
<!-- Node7&#45;&gt;Node1 -->
<g id="edge6" class="edge">
<title>Node7&#45;&gt;Node1</title>
<path fill="none" stroke="#404040" d="M458.7887,-138.203C454.9454,-121.3247 447.672,-100.6972 434,-87 410.9516,-63.9091 376.95,-50.8939 347.7738,-43.5997"/>
<polygon fill="none" stroke="#404040" points="347.7251,-43.5886 340.9812,-46.1422 336.0303,-40.8992 342.7742,-38.3457 347.7251,-43.5886"/>
<text text-anchor="middle" x="486.5" y="-106.5" font-family="Helvetica,sans-Serif" font-size="10.00" fill="#000000"> +viaCount</text>
<text text-anchor="middle" x="486.5" y="-95.5" font-family="Helvetica,sans-Serif" font-size="10.00" fill="#000000">+routedCount</text>
</g>
</g>
</svg>
        <g id="navigator" transform="translate(0 0)" fill="#404254">
                <rect fill="#f2f5e9" fill-opacity="0.5" stroke="#606060" stroke-width=".5" x="0" y="0" width="60" height="60"/>
                <use id="zoomplus" xlink:href="#zoomPlus" x="17" y="9" onmousedown="handleZoom(evt,'in')"/>
                <use id="zoomminus" xlink:href="#zoomMin" x="42" y="9" onmousedown="handleZoom(evt,'out')"/>
                <use id="reset" xlink:href="#resetDef" x="30" y="36" onmousedown="handleReset()"/>
                <g id="arrowUp" xlink:href="#dirArrow" transform="translate(30 24)" onmousedown="handlePan(0,-1)">
                  <use xlink:href="#rim" fill="#404040">
                        <set attributeName="fill" to="#808080" begin="arrowUp.mouseover" end="arrowUp.mouseout"/>
                  </use>
                  <path fill="none" stroke="white" stroke-width="1.5" d="M0,-3.0v7 M-2.5,-0.5L0,-3.0L2.5,-0.5"/>
                </g>
                <g id="arrowRight" xlink:href="#dirArrow" transform="rotate(90) translate(36 -43)" onmousedown="handlePan(1,0)">
                  <use xlink:href="#rim" fill="#404040">
                        <set attributeName="fill" to="#808080" begin="arrowRight.mouseover" end="arrowRight.mouseout"/>
                  </use>
                  <path fill="none" stroke="white" stroke-width="1.5" d="M0,-3.0v7 M-2.5,-0.5L0,-3.0L2.5,-0.5"/>
                </g>
                <g id="arrowDown" xlink:href="#dirArrow" transform="rotate(180) translate(-30 -48)" onmousedown="handlePan(0,1)">
                  <use xlink:href="#rim" fill="#404040">
                        <set attributeName="fill" to="#808080" begin="arrowDown.mouseover" end="arrowDown.mouseout"/>
                  </use>
                  <path fill="none" stroke="white" stroke-width="1.5" d="M0,-3.0v7 M-2.5,-0.5L0,-3.0L2.5,-0.5"/>
                </g>
                <g id="arrowLeft" xlink:href="#dirArrow" transform="rotate(270) translate(-36 17)" onmousedown="handlePan(-1,0)">
                  <use xlink:href="#rim" fill="#404040">
                        <set attributeName="fill" to="#808080" begin="arrowLeft.mouseover" end="arrowLeft.mouseout"/>
                  </use>
                  <path fill="none" stroke="white" stroke-width="1.5" d="M0,-3.0v7 M-2.5,-0.5L0,-3.0L2.5,-0.5"/>
                </g>
        </g>
        <svg viewBox="0 0 15 15" width="100%" height="30px" preserveAspectRatio="xMaxYMin meet">
         <g id="arrow_out" transform="scale(0.3 0.3)">
          <a xlink:href="structScore__coll__graph_org.svg" target="_base">
           <rect id="button" ry="5" rx="5" y="6" x="6" height="38" width="38"
                fill="#f2f5e9" fill-opacity="0.5" stroke="#606060" stroke-width="1.0"/>
           <path id="arrow"
             d="M 11.500037,31.436501 C 11.940474,20.09759 22.043105,11.32322 32.158766,21.979434 L 37.068811,17.246167 C 37.068811,17.246167 37.088388,32 37.088388,32 L 22.160133,31.978069 C 22.160133,31.978069 26.997745,27.140456 26.997745,27.140456 C 18.528582,18.264221 13.291696,25.230495 11.500037,31.436501 z"
             style="fill:#404040;"/>
          </a>
         </g>
        </svg>
</svg>
