<?xml version="1.0" encoding="UTF-8" standalone="no"?>
<!DOCTYPE svg PUBLIC "-//W3C//DTD SVG 1.1//EN"
 "http://www.w3.org/Graphics/SVG/1.1/DTD/svg11.dtd">
<!-- Generated by graphviz version 2.40.1 (0)
 -->
<!-- Title: Via::Via Pages: 1 -->
<svg width="813pt" height="275pt"
 viewBox="0.00 0.00 813.00 275.00" xmlns="http://www.w3.org/2000/svg" xmlns:xlink="http://www.w3.org/1999/xlink">
<g id="graph0" class="graph" transform="scale(1 1) rotate(0) translate(4 271)">
<title>Via::Via</title>
<polygon fill="#ffffff" stroke="transparent" points="-4,4 -4,-271 809,-271 809,4 -4,4"/>
<!-- Node0 -->
<g id="node1" class="node">
<title>Node0</title>
<g id="a_node1"><a xlink:title=" ">
<polygon fill="#bfbfbf" stroke="#000000" points="0,-152.5 0,-171.5 54,-171.5 54,-152.5 0,-152.5"/>
<text text-anchor="middle" x="27" y="-159.5" font-family="Helvetica,sans-Serif" font-size="10.00" fill="#000000">Via::Via</text>
</a>
</g>
</g>
<!-- Node1 -->
<g id="node2" class="node">
<title>Node1</title>
<g id="a_node2"><a xlink:href="../../d6/d3e/classHole.html#ae3c4c1ecc95816abb877f0c29f753b1b" target="_top" xlink:title=" ">
<polygon fill="#ffffff" stroke="#000000" points="124.5,-209.5 124.5,-228.5 210.5,-228.5 210.5,-209.5 124.5,-209.5"/>
<text text-anchor="middle" x="167.5" y="-216.5" font-family="Helvetica,sans-Serif" font-size="10.00" fill="#000000">Hole::holeSize</text>
</a>
</g>
</g>
<!-- Node0&#45;&gt;Node1 -->
<g id="edge1" class="edge">
<title>Node0&#45;&gt;Node1</title>
<path fill="none" stroke="#191970" d="M50.5165,-171.5405C73.514,-180.8705 108.7404,-195.1616 134.5299,-205.6242"/>
<polygon fill="#191970" stroke="#191970" points="133.3245,-208.9122 143.9067,-209.4284 135.9561,-202.4257 133.3245,-208.9122"/>
</g>
<!-- Node3 -->
<g id="node4" class="node">
<title>Node3</title>
<g id="a_node4"><a xlink:href="../../d3/d04/classPaletteItem.html#a5eb39cde586eca32dac65041e3d82ea6" target="_top" xlink:title=" ">
<polygon fill="#ffffff" stroke="#000000" points="90,-133.5 90,-152.5 245,-152.5 245,-133.5 90,-133.5"/>
<text text-anchor="middle" x="167.5" y="-140.5" font-family="Helvetica,sans-Serif" font-size="10.00" fill="#000000">PaletteItem::setUpHoleSizes</text>
</a>
</g>
</g>
<!-- Node0&#45;&gt;Node3 -->
<g id="edge3" class="edge">
<title>Node0&#45;&gt;Node3</title>
<path fill="none" stroke="#191970" d="M54.0898,-158.3366C63.746,-157.0308 75.1785,-155.4848 87.0069,-153.8852"/>
<polygon fill="#191970" stroke="#191970" points="87.5649,-157.3417 97.0056,-152.5331 86.6267,-150.4048 87.5649,-157.3417"/>
</g>
<!-- Node2 -->
<g id="node3" class="node">
<title>Node2</title>
<g id="a_node3"><a xlink:href="../../d8/d7f/structHoleSettings.html#af5fae4065c3b694736c087a28ad43ca8" target="_top" xlink:title=" ">
<polygon fill="#ffffff" stroke="#000000" points="305,-247.5 305,-266.5 431,-266.5 431,-247.5 305,-247.5"/>
<text text-anchor="middle" x="368" y="-254.5" font-family="Helvetica,sans-Serif" font-size="10.00" fill="#000000">HoleSettings::holeSize</text>
</a>
</g>
</g>
<!-- Node1&#45;&gt;Node2 -->
<g id="edge2" class="edge">
<title>Node1&#45;&gt;Node2</title>
<path fill="none" stroke="#191970" d="M210.5123,-227.152C238.8575,-232.5241 276.3837,-239.6363 307.6947,-245.5706"/>
<polygon fill="#191970" stroke="#191970" points="307.1459,-249.0288 317.6228,-247.4522 308.4494,-242.1512 307.1459,-249.0288"/>
</g>
<!-- Node4 -->
<g id="node5" class="node">
<title>Node4</title>
<g id="a_node5"><a xlink:href="../../d3/d04/classPaletteItem.html#a4009b905ecde7e7691ad35b1bb6c8499" target="_top" xlink:title=" ">
<polygon fill="#ffffff" stroke="#000000" points="289.5,-209.5 289.5,-228.5 446.5,-228.5 446.5,-209.5 289.5,-209.5"/>
<text text-anchor="middle" x="368" y="-216.5" font-family="Helvetica,sans-Serif" font-size="10.00" fill="#000000">PaletteItem::initHoleSettings</text>
</a>
</g>
</g>
<!-- Node3&#45;&gt;Node4 -->
<g id="edge4" class="edge">
<title>Node3&#45;&gt;Node4</title>
<path fill="none" stroke="#191970" d="M183.4728,-152.641C204.9422,-165.2156 244.6239,-187.1238 281,-200 288.3781,-202.6117 296.2404,-204.9334 304.1068,-206.9778"/>
<polygon fill="#191970" stroke="#191970" points="303.4905,-210.4305 314.0371,-209.4199 305.1623,-203.633 303.4905,-210.4305"/>
</g>
<!-- Node5 -->
<g id="node6" class="node">
<title>Node5</title>
<g id="a_node6"><a xlink:href="../../d4/d72/classModelPart.html#a47369e86cac97b2139fbed138cf3e6c2" target="_top" xlink:title=" ">
<polygon fill="#ffffff" stroke="#000000" points="310,-171.5 310,-190.5 426,-190.5 426,-171.5 310,-171.5"/>
<text text-anchor="middle" x="368" y="-178.5" font-family="Helvetica,sans-Serif" font-size="10.00" fill="#000000">ModelPart::localProp</text>
</a>
</g>
</g>
<!-- Node3&#45;&gt;Node5 -->
<g id="edge5" class="edge">
<title>Node3&#45;&gt;Node5</title>
<path fill="none" stroke="#191970" d="M217.8358,-152.54C245.1262,-157.7122 279.042,-164.1401 307.7326,-169.5778"/>
<polygon fill="#191970" stroke="#191970" points="307.1666,-173.0327 317.6435,-171.4561 308.4701,-166.1551 307.1666,-173.0327"/>
</g>
<!-- Node6 -->
<g id="node7" class="node">
<title>Node6</title>
<g id="a_node7"><a xlink:href="../../d4/d4f/classItemBase.html#acc2f5bad42928e7178c28fa0771b1f60" target="_top" xlink:title=" ">
<polygon fill="#ffffff" stroke="#000000" points="308.5,-133.5 308.5,-152.5 427.5,-152.5 427.5,-133.5 308.5,-133.5"/>
<text text-anchor="middle" x="368" y="-140.5" font-family="Helvetica,sans-Serif" font-size="10.00" fill="#000000">ItemBase::modelPart</text>
</a>
</g>
</g>
<!-- Node3&#45;&gt;Node6 -->
<g id="edge6" class="edge">
<title>Node3&#45;&gt;Node6</title>
<path fill="none" stroke="#191970" d="M245.0185,-143C262.4485,-143 280.8463,-143 297.9504,-143"/>
<polygon fill="#191970" stroke="#191970" points="298.4127,-146.5001 308.4127,-143 298.4127,-139.5001 298.4127,-146.5001"/>
</g>
<!-- Node7 -->
<g id="node8" class="node">
<title>Node7</title>
<g id="a_node8"><a xlink:href="../../d4/d72/classModelPart.html#a59262909e61b1889d251eadb4bf844db" target="_top" xlink:title=" ">
<polygon fill="#ffffff" stroke="#000000" points="307.5,-95.5 307.5,-114.5 428.5,-114.5 428.5,-95.5 307.5,-95.5"/>
<text text-anchor="middle" x="368" y="-102.5" font-family="Helvetica,sans-Serif" font-size="10.00" fill="#000000">ModelPart::properties</text>
</a>
</g>
</g>
<!-- Node3&#45;&gt;Node7 -->
<g id="edge7" class="edge">
<title>Node3&#45;&gt;Node7</title>
<path fill="none" stroke="#191970" d="M217.8358,-133.46C245.1262,-128.2878 279.042,-121.8599 307.7326,-116.4222"/>
<polygon fill="#191970" stroke="#191970" points="308.4701,-119.8449 317.6435,-114.5439 307.1666,-112.9673 308.4701,-119.8449"/>
</g>
<!-- Node8 -->
<g id="node9" class="node">
<title>Node8</title>
<g id="a_node9"><a xlink:href="../../d4/d72/classModelPart.html#af99e77ea33c73511b7ffd3ba1bd9aa12" target="_top" xlink:title=" ">
<polygon fill="#ffffff" stroke="#000000" points="301,-57.5 301,-76.5 435,-76.5 435,-57.5 301,-57.5"/>
<text text-anchor="middle" x="368" y="-64.5" font-family="Helvetica,sans-Serif" font-size="10.00" fill="#000000">ModelPart::setLocalProp</text>
</a>
</g>
</g>
<!-- Node3&#45;&gt;Node8 -->
<g id="edge8" class="edge">
<title>Node3&#45;&gt;Node8</title>
<path fill="none" stroke="#191970" d="M183.4728,-133.359C204.9422,-120.7844 244.6239,-98.8762 281,-86 288.3781,-83.3883 296.2404,-81.0666 304.1068,-79.0222"/>
<polygon fill="#191970" stroke="#191970" points="305.1623,-82.367 314.0371,-76.5801 303.4905,-75.5695 305.1623,-82.367"/>
</g>
<!-- Node9 -->
<g id="node10" class="node">
<title>Node9</title>
<g id="a_node10"><a xlink:href="../../d3/d04/classPaletteItem.html#a58ac98da96050d695e6248ea6171dc79" target="_top" xlink:title=" ">
<polygon fill="#ffffff" stroke="#000000" points="281,-19.5 281,-38.5 455,-38.5 455,-19.5 281,-19.5"/>
<text text-anchor="middle" x="368" y="-26.5" font-family="Helvetica,sans-Serif" font-size="10.00" fill="#000000">PaletteItem::setUpHoleSizesAux</text>
</a>
</g>
</g>
<!-- Node3&#45;&gt;Node9 -->
<g id="edge9" class="edge">
<title>Node3&#45;&gt;Node9</title>
<path fill="none" stroke="#191970" d="M175.8297,-133.4453C193.2717,-114.0826 235.7804,-70.1768 281,-48 285.945,-45.5748 291.1985,-43.4567 296.5789,-41.6071"/>
<polygon fill="#191970" stroke="#191970" points="297.8551,-44.8755 306.3615,-38.5596 295.773,-38.1923 297.8551,-44.8755"/>
</g>
<!-- Node10 -->
<g id="node11" class="node">
<title>Node10</title>
<g id="a_node11"><a xlink:href="../../de/db8/classTextUtils.html#a53e674684a7ceb29e742cae16c5e246b" target="_top" xlink:title=" ">
<polygon fill="#ffffff" stroke="#000000" points="491,-38.5 491,-57.5 635,-57.5 635,-38.5 491,-38.5"/>
<text text-anchor="middle" x="563" y="-45.5" font-family="Helvetica,sans-Serif" font-size="10.00" fill="#000000">TextUtils::convertToInches</text>
</a>
</g>
</g>
<!-- Node9&#45;&gt;Node10 -->
<g id="edge10" class="edge">
<title>Node9&#45;&gt;Node10</title>
<path fill="none" stroke="#191970" d="M455.2337,-37.4997C463.6686,-38.3216 472.2072,-39.1535 480.5931,-39.9706"/>
<polygon fill="#191970" stroke="#191970" points="480.4367,-43.4719 490.7291,-40.9582 481.1156,-36.5049 480.4367,-43.4719"/>
</g>
<!-- Node12 -->
<g id="node13" class="node">
<title>Node12</title>
<g id="a_node13"><a xlink:href="../../da/d3a/classDebugDialog.html#ad26216d18945d7d7188420707b76f241" target="_top" xlink:title=" ">
<polygon fill="#ffffff" stroke="#000000" points="505,-.5 505,-19.5 621,-19.5 621,-.5 505,-.5"/>
<text text-anchor="middle" x="563" y="-7.5" font-family="Helvetica,sans-Serif" font-size="10.00" fill="#000000">DebugDialog::debug</text>
</a>
</g>
</g>
<!-- Node9&#45;&gt;Node12 -->
<g id="edge12" class="edge">
<title>Node9&#45;&gt;Node12</title>
<path fill="none" stroke="#191970" d="M455.2337,-20.5003C468.5163,-19.2061 482.0559,-17.8869 494.8516,-16.6401"/>
<polygon fill="#191970" stroke="#191970" points="495.3216,-20.111 504.935,-15.6576 494.6427,-13.144 495.3216,-20.111"/>
</g>
<!-- Node11 -->
<g id="node12" class="node">
<title>Node11</title>
<g id="a_node12"><a xlink:href="../../de/db8/classTextUtils.html#a081f65f326bccb69ddec2919b692c479" target="_top" xlink:title=" ">
<polygon fill="#ffffff" stroke="#000000" points="671,-38.5 671,-57.5 805,-57.5 805,-38.5 671,-38.5"/>
<text text-anchor="middle" x="738" y="-45.5" font-family="Helvetica,sans-Serif" font-size="10.00" fill="#000000">TextUtils::chopNotDigits</text>
</a>
</g>
</g>
<!-- Node10&#45;&gt;Node11 -->
<g id="edge11" class="edge">
<title>Node10&#45;&gt;Node11</title>
<path fill="none" stroke="#191970" d="M635.1895,-48C643.5566,-48 652.1163,-48 660.5499,-48"/>
<polygon fill="#191970" stroke="#191970" points="660.753,-51.5001 670.753,-48 660.753,-44.5001 660.753,-51.5001"/>
</g>
</g>
</svg>
