<?xml version="1.0" encoding="UTF-8" standalone="no"?>
<!DOCTYPE svg PUBLIC "-//W3C//DTD SVG 1.1//EN"
 "http://www.w3.org/Graphics/SVG/1.1/DTD/svg11.dtd">
<!-- Generated by graphviz version 2.40.1 (0)
 -->
<!-- Title: GraphicsUtils::pixels2mils Pages: 1 -->
<svg width="1684pt" height="339pt"
 viewBox="0.00 0.00 1684.00 339.00" xmlns="http://www.w3.org/2000/svg" xmlns:xlink="http://www.w3.org/1999/xlink">
<g id="graph0" class="graph" transform="scale(1 1) rotate(0) translate(4 335)">
<title>GraphicsUtils::pixels2mils</title>
<polygon fill="#ffffff" stroke="transparent" points="-4,4 -4,-335 1680,-335 1680,4 -4,4"/>
<!-- Node999 -->
<g id="node1" class="node">
<title>Node999</title>
<g id="a_node1"><a xlink:title=" ">
<polygon fill="#bfbfbf" stroke="#000000" points="1533,-179.5 1533,-198.5 1676,-198.5 1676,-179.5 1533,-179.5"/>
<text text-anchor="middle" x="1604.5" y="-186.5" font-family="Helvetica,sans-Serif" font-size="10.00" fill="#000000">GraphicsUtils::pixels2mils</text>
</a>
</g>
</g>
<!-- Node1000 -->
<g id="node2" class="node">
<title>Node1000</title>
<g id="a_node2"><a xlink:href="../../d6/def/classAutorouterSettingsDialog.html#a053375172e56436c51e3430b6e878bfb" target="_top" xlink:title=" ">
<polygon fill="#ffffff" stroke="#000000" points="1339,-256 1339,-286 1479,-286 1479,-256 1339,-256"/>
<text text-anchor="start" x="1347" y="-274" font-family="Helvetica,sans-Serif" font-size="10.00" fill="#000000">AutorouterSettingsDialog</text>
<text text-anchor="middle" x="1409" y="-263" font-family="Helvetica,sans-Serif" font-size="10.00" fill="#000000">::initProductionType</text>
</a>
</g>
</g>
<!-- Node999&#45;&gt;Node1000 -->
<g id="edge1" class="edge">
<title>Node999&#45;&gt;Node1000</title>
<path fill="none" stroke="#191970" d="M1580.2597,-203.7558C1558.9219,-216.2768 1526.7085,-234.0593 1497,-246 1488.0107,-249.6131 1478.3089,-252.9237 1468.7446,-255.871"/>
<polygon fill="#191970" stroke="#191970" points="1582.1648,-206.6952 1588.9747,-198.5789 1578.5897,-200.6769 1582.1648,-206.6952"/>
</g>
<!-- Node1002 -->
<g id="node4" class="node">
<title>Node1002</title>
<g id="a_node4"><a xlink:href="../../da/d44/jumperitem_8cpp.html#a4fd5bc6bf8593077bfa7919c67a3d3e0" target="_top" xlink:title=" ">
<polygon fill="#ffffff" stroke="#000000" points="1382.5,-217.5 1382.5,-236.5 1435.5,-236.5 1435.5,-217.5 1382.5,-217.5"/>
<text text-anchor="middle" x="1409" y="-224.5" font-family="Helvetica,sans-Serif" font-size="10.00" fill="#000000">shorten</text>
</a>
</g>
</g>
<!-- Node999&#45;&gt;Node1002 -->
<g id="edge3" class="edge">
<title>Node999&#45;&gt;Node1002</title>
<path fill="none" stroke="#191970" d="M1545.3509,-200.497C1508.7699,-207.6074 1463.5961,-216.388 1435.5376,-221.8418"/>
<polygon fill="#191970" stroke="#191970" points="1546.271,-203.8838 1555.4194,-198.54 1544.9353,-197.0124 1546.271,-203.8838"/>
</g>
<!-- Node1003 -->
<g id="node5" class="node">
<title>Node1003</title>
<g id="a_node5"><a xlink:href="../../d6/d39/classJumperItem.html#a5bf2510d48ca24e7769b11b06b139982" target="_top" xlink:title=" ">
<polygon fill="#ffffff" stroke="#000000" points="1139.5,-216.5 1139.5,-235.5 1264.5,-235.5 1264.5,-216.5 1139.5,-216.5"/>
<text text-anchor="middle" x="1202" y="-223.5" font-family="Helvetica,sans-Serif" font-size="10.00" fill="#000000">JumperItem::makeSvg</text>
</a>
</g>
</g>
<!-- Node999&#45;&gt;Node1003 -->
<g id="edge19" class="edge">
<title>Node999&#45;&gt;Node1003</title>
<path fill="none" stroke="#191970" d="M1523.0013,-192.6611C1466.258,-195.6505 1388.8886,-200.6036 1321,-208 1300.5398,-210.2291 1278.207,-213.4077 1258.4717,-216.475"/>
<polygon fill="#191970" stroke="#191970" points="1523.187,-196.1563 1532.9926,-192.1438 1522.8249,-189.1656 1523.187,-196.1563"/>
</g>
<!-- Node1018 -->
<g id="node20" class="node">
<title>Node1018</title>
<g id="a_node20"><a xlink:href="../../df/dbf/classPCBSketchWidget.html#ac2ec3a5085011494fcfc3cfa2290937b" target="_top" xlink:title=" ">
<polygon fill="#ffffff" stroke="#000000" points="1321,-130 1321,-160 1497,-160 1497,-130 1321,-130"/>
<text text-anchor="start" x="1329" y="-148" font-family="Helvetica,sans-Serif" font-size="10.00" fill="#000000">PCBSketchWidget::getAutorouter</text>
<text text-anchor="middle" x="1409" y="-137" font-family="Helvetica,sans-Serif" font-size="10.00" fill="#000000">TraceWidth</text>
</a>
</g>
</g>
<!-- Node999&#45;&gt;Node1018 -->
<g id="edge20" class="edge">
<title>Node999&#45;&gt;Node1018</title>
<path fill="none" stroke="#191970" d="M1552.0119,-177.1868C1528.6242,-171.9231 1500.8001,-165.6609 1475.9382,-160.0654"/>
<polygon fill="#191970" stroke="#191970" points="1551.5549,-180.6715 1562.0794,-179.4527 1553.092,-173.8423 1551.5549,-180.6715"/>
</g>
<!-- Node1024 -->
<g id="node26" class="node">
<title>Node1024</title>
<g id="a_node26"><a xlink:href="../../df/dbf/classPCBSketchWidget.html#a5ec57a6ff46ed616d0d89dff7b6b2a31" target="_top" xlink:title=" ">
<polygon fill="#ffffff" stroke="#000000" points="1328,-39 1328,-69 1490,-69 1490,-39 1328,-39"/>
<text text-anchor="start" x="1336" y="-57" font-family="Helvetica,sans-Serif" font-size="10.00" fill="#000000">PCBSketchWidget::getSmaller</text>
<text text-anchor="middle" x="1409" y="-46" font-family="Helvetica,sans-Serif" font-size="10.00" fill="#000000">TraceWidth</text>
</a>
</g>
</g>
<!-- Node999&#45;&gt;Node1024 -->
<g id="edge26" class="edge">
<title>Node999&#45;&gt;Node1024</title>
<path fill="none" stroke="#191970" d="M1582.117,-173.5437C1544.2745,-147.4121 1468.1277,-94.8299 1430.7306,-69.0058"/>
<polygon fill="#191970" stroke="#191970" points="1580.2226,-176.4889 1590.4401,-179.2911 1584.2002,-170.7288 1580.2226,-176.4889"/>
</g>
<!-- Node1001 -->
<g id="node3" class="node">
<title>Node1001</title>
<g id="a_node3"><a xlink:href="../../d6/def/classAutorouterSettingsDialog.html#a2800b054dadde375bd4c4f0405a9653f" target="_top" xlink:title=" ">
<polygon fill="#ffffff" stroke="#000000" points="1129,-256 1129,-286 1275,-286 1275,-256 1129,-256"/>
<text text-anchor="start" x="1137" y="-274" font-family="Helvetica,sans-Serif" font-size="10.00" fill="#000000">AutorouterSettingsDialog</text>
<text text-anchor="middle" x="1202" y="-263" font-family="Helvetica,sans-Serif" font-size="10.00" fill="#000000">::AutorouterSettingsDialog</text>
</a>
</g>
</g>
<!-- Node1000&#45;&gt;Node1001 -->
<g id="edge2" class="edge">
<title>Node1000&#45;&gt;Node1001</title>
<path fill="none" stroke="#191970" d="M1328.6747,-271C1311.0618,-271 1292.5052,-271 1275.1898,-271"/>
<polygon fill="#191970" stroke="#191970" points="1328.9193,-274.5001 1338.9192,-271 1328.9192,-267.5001 1328.9193,-274.5001"/>
</g>
<!-- Node1002&#45;&gt;Node1003 -->
<g id="edge4" class="edge">
<title>Node1002&#45;&gt;Node1003</title>
<path fill="none" stroke="#191970" d="M1372.0006,-226.8213C1342.2091,-226.6773 1299.6678,-226.4718 1264.595,-226.3024"/>
<polygon fill="#191970" stroke="#191970" points="1372.3453,-230.3229 1382.3621,-226.8713 1372.3792,-223.323 1372.3453,-230.3229"/>
</g>
<!-- Node1004 -->
<g id="node6" class="node">
<title>Node1004</title>
<g id="a_node6"><a xlink:href="../../d6/d39/classJumperItem.html#ac6ff15db0e972704374cc3b01d95454e" target="_top" xlink:title=" ">
<polygon fill="#ffffff" stroke="#000000" points="940.5,-235.5 940.5,-254.5 1049.5,-254.5 1049.5,-235.5 940.5,-235.5"/>
<text text-anchor="middle" x="995" y="-242.5" font-family="Helvetica,sans-Serif" font-size="10.00" fill="#000000">JumperItem::resize</text>
</a>
</g>
</g>
<!-- Node1003&#45;&gt;Node1004 -->
<g id="edge5" class="edge">
<title>Node1003&#45;&gt;Node1004</title>
<path fill="none" stroke="#191970" d="M1129.1053,-232.6908C1103.0034,-235.0866 1074.0478,-237.7444 1049.7423,-239.9753"/>
<polygon fill="#191970" stroke="#191970" points="1129.6932,-236.1517 1139.3314,-231.7522 1129.0533,-229.181 1129.6932,-236.1517"/>
</g>
<!-- Node1017 -->
<g id="node19" class="node">
<title>Node1017</title>
<g id="a_node19"><a xlink:href="../../d6/d39/classJumperItem.html#a32e5bd4aa874ecbc416a94346d432482" target="_top" xlink:title=" ">
<polygon fill="#ffffff" stroke="#000000" points="927,-197.5 927,-216.5 1063,-216.5 1063,-197.5 927,-197.5"/>
<text text-anchor="middle" x="995" y="-204.5" font-family="Helvetica,sans-Serif" font-size="10.00" fill="#000000">JumperItem::retrieveSvg</text>
</a>
</g>
</g>
<!-- Node1003&#45;&gt;Node1017 -->
<g id="edge18" class="edge">
<title>Node1003&#45;&gt;Node1017</title>
<path fill="none" stroke="#191970" d="M1129.2929,-219.3264C1107.8211,-217.3556 1084.4041,-215.2062 1063.2254,-213.2622"/>
<polygon fill="#191970" stroke="#191970" points="1129.0533,-222.819 1139.3314,-220.2478 1129.6932,-215.8483 1129.0533,-222.819"/>
</g>
<!-- Node1005 -->
<g id="node7" class="node">
<title>Node1005</title>
<g id="a_node7"><a xlink:href="../../d6/d39/classJumperItem.html#a32251236eae900734e332c0136056e18" target="_top" xlink:title=" ">
<polygon fill="#ffffff" stroke="#000000" points="704,-311.5 704,-330.5 871,-330.5 871,-311.5 704,-311.5"/>
<text text-anchor="middle" x="787.5" y="-318.5" font-family="Helvetica,sans-Serif" font-size="10.00" fill="#000000">JumperItem::mouseMoveEvent</text>
</a>
</g>
</g>
<!-- Node1004&#45;&gt;Node1005 -->
<g id="edge6" class="edge">
<title>Node1004&#45;&gt;Node1005</title>
<path fill="none" stroke="#191970" d="M968.3221,-259.2277C943.6474,-271.9086 905.6611,-290.232 871,-302 860.3009,-305.6325 848.5951,-308.7828 837.4233,-311.417"/>
<polygon fill="#191970" stroke="#191970" points="970.148,-262.2233 977.4057,-254.5047 966.9187,-256.0126 970.148,-262.2233"/>
</g>
<!-- Node1007 -->
<g id="node9" class="node">
<title>Node1007</title>
<g id="a_node9"><a xlink:href="../../d6/d39/classJumperItem.html#a8f6c347bb94c814e3e95600ad7c344c3" target="_top" xlink:title=" ">
<polygon fill="#ffffff" stroke="#000000" points="733,-273.5 733,-292.5 842,-292.5 842,-273.5 733,-273.5"/>
<text text-anchor="middle" x="787.5" y="-280.5" font-family="Helvetica,sans-Serif" font-size="10.00" fill="#000000">JumperItem::resize</text>
</a>
</g>
</g>
<!-- Node1004&#45;&gt;Node1007 -->
<g id="edge8" class="edge">
<title>Node1004&#45;&gt;Node1007</title>
<path fill="none" stroke="#191970" d="M933.0397,-256.347C903.2682,-261.7991 867.9846,-268.2607 839.6146,-273.4561"/>
<polygon fill="#191970" stroke="#191970" points="933.7009,-259.7842 942.9068,-254.54 932.4399,-252.8987 933.7009,-259.7842"/>
</g>
<!-- Node1008 -->
<g id="node10" class="node">
<title>Node1008</title>
<g id="a_node10"><a xlink:href="../../d6/d39/classJumperItem.html#ab5fc470fc119de7a0765c3e5dcb19dac" target="_top" xlink:title=" ">
<polygon fill="#ffffff" stroke="#000000" points="723.5,-235.5 723.5,-254.5 851.5,-254.5 851.5,-235.5 723.5,-235.5"/>
<text text-anchor="middle" x="787.5" y="-242.5" font-family="Helvetica,sans-Serif" font-size="10.00" fill="#000000">JumperItem::resizeAux</text>
</a>
</g>
</g>
<!-- Node1004&#45;&gt;Node1008 -->
<g id="edge9" class="edge">
<title>Node1004&#45;&gt;Node1008</title>
<path fill="none" stroke="#191970" d="M930.339,-245C905.2627,-245 876.6182,-245 851.596,-245"/>
<polygon fill="#191970" stroke="#191970" points="930.4819,-248.5001 940.4818,-245 930.4818,-241.5001 930.4819,-248.5001"/>
</g>
<!-- Node1015 -->
<g id="node17" class="node">
<title>Node1015</title>
<g id="a_node17"><a xlink:href="../../d6/d39/classJumperItem.html#a6ab9d03fd76236487742dc70ea10614d" target="_top" xlink:title=" ">
<polygon fill="#ffffff" stroke="#000000" points="716,-197.5 716,-216.5 859,-216.5 859,-197.5 716,-197.5"/>
<text text-anchor="middle" x="787.5" y="-204.5" font-family="Helvetica,sans-Serif" font-size="10.00" fill="#000000">JumperItem::loadLayerKin</text>
</a>
</g>
</g>
<!-- Node1004&#45;&gt;Node1015 -->
<g id="edge16" class="edge">
<title>Node1004&#45;&gt;Node1015</title>
<path fill="none" stroke="#191970" d="M933.0397,-233.653C903.2682,-228.2009 867.9846,-221.7393 839.6146,-216.5439"/>
<polygon fill="#191970" stroke="#191970" points="932.4399,-237.1013 942.9068,-235.46 933.7009,-230.2158 932.4399,-237.1013"/>
</g>
<!-- Node1016 -->
<g id="node18" class="node">
<title>Node1016</title>
<g id="a_node18"><a xlink:href="../../d6/d39/classJumperItem.html#a31ed866e11703ab8be91bc514a603239" target="_top" xlink:title=" ">
<polygon fill="#ffffff" stroke="#000000" points="722,-159.5 722,-178.5 853,-178.5 853,-159.5 722,-159.5"/>
<text text-anchor="middle" x="787.5" y="-166.5" font-family="Helvetica,sans-Serif" font-size="10.00" fill="#000000">JumperItem::rotateItem</text>
</a>
</g>
</g>
<!-- Node1004&#45;&gt;Node1016 -->
<g id="edge17" class="edge">
<title>Node1004&#45;&gt;Node1016</title>
<path fill="none" stroke="#191970" d="M930.1922,-235.7133C922.1034,-233.2097 914.1662,-230.0323 907,-226 886.7249,-214.5915 891.2115,-199.5208 871,-188 864.1545,-184.098 856.5644,-180.9972 848.8316,-178.5333"/>
<polygon fill="#191970" stroke="#191970" points="929.5215,-239.159 940.0922,-238.4451 931.3835,-232.4111 929.5215,-239.159"/>
</g>
<!-- Node1006 -->
<g id="node8" class="node">
<title>Node1006</title>
<g id="a_node8"><a xlink:href="../../d6/d39/classJumperItem.html#af084fea6fcb9dfeeee77c445df0f7d9f" target="_top" xlink:title=" ">
<polygon fill="#ffffff" stroke="#000000" points="494,-311.5 494,-330.5 668,-330.5 668,-311.5 494,-311.5"/>
<text text-anchor="middle" x="581" y="-318.5" font-family="Helvetica,sans-Serif" font-size="10.00" fill="#000000">JumperItem::mouseMoveEventK</text>
</a>
</g>
</g>
<!-- Node1005&#45;&gt;Node1006 -->
<g id="edge7" class="edge">
<title>Node1005&#45;&gt;Node1006</title>
<path fill="none" stroke="#191970" d="M693.554,-321C685.1023,-321 676.5668,-321 668.1765,-321"/>
<polygon fill="#191970" stroke="#191970" points="693.8063,-324.5001 703.8062,-321 693.8062,-317.5001 693.8063,-324.5001"/>
</g>
<!-- Node1009 -->
<g id="node11" class="node">
<title>Node1009</title>
<g id="a_node11"><a xlink:href="../../d6/d39/classJumperItem.html#a8acc42bd0a684e7601612fb9e785a6e1" target="_top" xlink:title=" ">
<polygon fill="#ffffff" stroke="#000000" points="511,-254.5 511,-273.5 651,-273.5 651,-254.5 511,-254.5"/>
<text text-anchor="middle" x="581" y="-261.5" font-family="Helvetica,sans-Serif" font-size="10.00" fill="#000000">JumperItem::initialResize</text>
</a>
</g>
</g>
<!-- Node1008&#45;&gt;Node1009 -->
<g id="edge10" class="edge">
<title>Node1008&#45;&gt;Node1009</title>
<path fill="none" stroke="#191970" d="M713.2154,-251.8349C693.0261,-253.6925 671.2291,-255.698 651.2694,-257.5345"/>
<polygon fill="#191970" stroke="#191970" points="713.6568,-255.3092 723.2941,-250.9076 713.0154,-248.3386 713.6568,-255.3092"/>
</g>
<!-- Node1011 -->
<g id="node13" class="node">
<title>Node1011</title>
<g id="a_node13"><a xlink:href="../../d6/d39/classJumperItem.html#a5583a63e80351513ccc83385256a1d48" target="_top" xlink:title=" ">
<polygon fill="#ffffff" stroke="#000000" points="526.5,-216.5 526.5,-235.5 635.5,-235.5 635.5,-216.5 526.5,-216.5"/>
<text text-anchor="middle" x="581" y="-223.5" font-family="Helvetica,sans-Serif" font-size="10.00" fill="#000000">JumperItem::resize</text>
</a>
</g>
</g>
<!-- Node1008&#45;&gt;Node1011 -->
<g id="edge12" class="edge">
<title>Node1008&#45;&gt;Node1011</title>
<path fill="none" stroke="#191970" d="M713.2598,-238.1692C687.6783,-235.8154 659.5111,-233.2238 635.7686,-231.0392"/>
<polygon fill="#191970" stroke="#191970" points="713.0154,-241.6614 723.2941,-239.0924 713.6568,-234.6908 713.0154,-241.6614"/>
</g>
<!-- Node1010 -->
<g id="node12" class="node">
<title>Node1010</title>
<g id="a_node12"><a xlink:href="../../d6/d39/classJumperItem.html#abbeba73dcdde2c42025f707c99bc4faf" target="_top" xlink:title=" ">
<polygon fill="#ffffff" stroke="#000000" points="319,-254.5 319,-273.5 458,-273.5 458,-254.5 319,-254.5"/>
<text text-anchor="middle" x="388.5" y="-261.5" font-family="Helvetica,sans-Serif" font-size="10.00" fill="#000000">JumperItem::setUpImage</text>
</a>
</g>
</g>
<!-- Node1009&#45;&gt;Node1010 -->
<g id="edge11" class="edge">
<title>Node1009&#45;&gt;Node1010</title>
<path fill="none" stroke="#191970" d="M500.7601,-264C486.6142,-264 471.9935,-264 458.167,-264"/>
<polygon fill="#191970" stroke="#191970" points="500.9586,-267.5001 510.9585,-264 500.9585,-260.5001 500.9586,-267.5001"/>
</g>
<!-- Node1012 -->
<g id="node14" class="node">
<title>Node1012</title>
<g id="a_node14"><a xlink:href="../../d1/d67/classMazeRouter.html#a1129f02e393730b42d04cdf7f9161006" target="_top" xlink:title=" ">
<polygon fill="#ffffff" stroke="#000000" points="320,-216.5 320,-235.5 457,-235.5 457,-216.5 320,-216.5"/>
<text text-anchor="middle" x="388.5" y="-223.5" font-family="Helvetica,sans-Serif" font-size="10.00" fill="#000000">MazeRouter::createTrace</text>
</a>
</g>
</g>
<!-- Node1011&#45;&gt;Node1012 -->
<g id="edge13" class="edge">
<title>Node1011&#45;&gt;Node1012</title>
<path fill="none" stroke="#191970" d="M516.2767,-226C497.2191,-226 476.3077,-226 457.0205,-226"/>
<polygon fill="#191970" stroke="#191970" points="516.3522,-229.5001 526.3521,-226 516.3521,-222.5001 516.3522,-229.5001"/>
</g>
<!-- Node1013 -->
<g id="node15" class="node">
<title>Node1013</title>
<g id="a_node15"><a xlink:href="../../d1/d67/classMazeRouter.html#ad3096b9a4a1a5d2f7ffd05578924d4db" target="_top" xlink:title=" ">
<polygon fill="#ffffff" stroke="#000000" points="140,-216.5 140,-235.5 283,-235.5 283,-216.5 140,-216.5"/>
<text text-anchor="middle" x="211.5" y="-223.5" font-family="Helvetica,sans-Serif" font-size="10.00" fill="#000000">MazeRouter::createTraces</text>
</a>
</g>
</g>
<!-- Node1012&#45;&gt;Node1013 -->
<g id="edge14" class="edge">
<title>Node1012&#45;&gt;Node1013</title>
<path fill="none" stroke="#191970" d="M309.5456,-226C300.7305,-226 291.7876,-226 283.0721,-226"/>
<polygon fill="#191970" stroke="#191970" points="309.8139,-229.5001 319.8138,-226 309.8138,-222.5001 309.8139,-229.5001"/>
</g>
<!-- Node1014 -->
<g id="node16" class="node">
<title>Node1014</title>
<g id="a_node16"><a xlink:href="../../d1/d67/classMazeRouter.html#a0e1c56746b837fa3e83bd6b9e9fcd309" target="_top" xlink:title=" ">
<polygon fill="#ffffff" stroke="#000000" points="0,-216.5 0,-235.5 104,-235.5 104,-216.5 0,-216.5"/>
<text text-anchor="middle" x="52" y="-223.5" font-family="Helvetica,sans-Serif" font-size="10.00" fill="#000000">MazeRouter::start</text>
</a>
</g>
</g>
<!-- Node1013&#45;&gt;Node1014 -->
<g id="edge15" class="edge">
<title>Node1013&#45;&gt;Node1014</title>
<path fill="none" stroke="#191970" d="M129.6032,-226C121.01,-226 112.4501,-226 104.3229,-226"/>
<polygon fill="#191970" stroke="#191970" points="129.6822,-229.5001 139.6822,-226 129.6821,-222.5001 129.6822,-229.5001"/>
</g>
<!-- Node1019 -->
<g id="node21" class="node">
<title>Node1019</title>
<g id="a_node21"><a xlink:href="../../d4/d8c/classCMRouter.html#af1d375f8a715124d56cc851b88172ec7" target="_top" xlink:title=" ">
<polygon fill="#ffffff" stroke="#000000" points="1142.5,-175.5 1142.5,-194.5 1261.5,-194.5 1261.5,-175.5 1142.5,-175.5"/>
<text text-anchor="middle" x="1202" y="-182.5" font-family="Helvetica,sans-Serif" font-size="10.00" fill="#000000">CMRouter::CMRouter</text>
</a>
</g>
</g>
<!-- Node1018&#45;&gt;Node1019 -->
<g id="edge21" class="edge">
<title>Node1018&#45;&gt;Node1019</title>
<path fill="none" stroke="#191970" d="M1321.4848,-161.9112C1297.465,-166.5527 1272.2683,-171.4216 1251.2386,-175.4853"/>
<polygon fill="#191970" stroke="#191970" points="1322.1776,-165.3421 1331.3319,-160.0083 1320.8495,-158.4692 1322.1776,-165.3421"/>
</g>
<!-- Node1020 -->
<g id="node22" class="node">
<title>Node1020</title>
<g id="a_node22"><a xlink:href="../../d1/d67/classMazeRouter.html#a9243c03e64f6634ce49dd9c57648b7d3" target="_top" xlink:title=" ">
<polygon fill="#ffffff" stroke="#000000" points="1132,-137.5 1132,-156.5 1272,-156.5 1272,-137.5 1132,-137.5"/>
<text text-anchor="middle" x="1202" y="-144.5" font-family="Helvetica,sans-Serif" font-size="10.00" fill="#000000">MazeRouter::MazeRouter</text>
</a>
</g>
</g>
<!-- Node1018&#45;&gt;Node1020 -->
<g id="edge22" class="edge">
<title>Node1018&#45;&gt;Node1020</title>
<path fill="none" stroke="#191970" d="M1310.5534,-145.9512C1297.5879,-146.0764 1284.5163,-146.2027 1272.1552,-146.3222"/>
<polygon fill="#191970" stroke="#191970" points="1310.9475,-149.4476 1320.9132,-145.8511 1310.8798,-142.448 1310.9475,-149.4476"/>
</g>
<!-- Node1021 -->
<g id="node23" class="node">
<title>Node1021</title>
<g id="a_node23"><a xlink:href="../../df/dbf/classPCBSketchWidget.html#a648a6ecf55e3bcb078f29f799139cbe2" target="_top" xlink:title=" ">
<polygon fill="#ffffff" stroke="#000000" points="1122,-88 1122,-118 1282,-118 1282,-88 1122,-88"/>
<text text-anchor="start" x="1130" y="-106" font-family="Helvetica,sans-Serif" font-size="10.00" fill="#000000">PCBSketchWidget::autorouter</text>
<text text-anchor="middle" x="1202" y="-95" font-family="Helvetica,sans-Serif" font-size="10.00" fill="#000000">Settings</text>
</a>
</g>
</g>
<!-- Node1018&#45;&gt;Node1021 -->
<g id="edge23" class="edge">
<title>Node1018&#45;&gt;Node1021</title>
<path fill="none" stroke="#191970" d="M1324.8686,-127.9299C1308.6731,-124.6438 1291.8214,-121.2246 1275.9771,-118.0098"/>
<polygon fill="#191970" stroke="#191970" points="1324.3566,-131.3972 1334.8529,-129.9557 1325.7486,-124.537 1324.3566,-131.3972"/>
</g>
<!-- Node1022 -->
<g id="node24" class="node">
<title>Node1022</title>
<g id="a_node24"><a xlink:href="../../df/dbf/classPCBSketchWidget.html#acb15f19907e6babb9a966342dcce57c1" target="_top" xlink:title=" ">
<polygon fill="#ffffff" stroke="#000000" points="907,-108 907,-138 1083,-138 1083,-108 907,-108"/>
<text text-anchor="start" x="915" y="-126" font-family="Helvetica,sans-Serif" font-size="10.00" fill="#000000">PCBSketchWidget::setAutorouter</text>
<text text-anchor="middle" x="995" y="-115" font-family="Helvetica,sans-Serif" font-size="10.00" fill="#000000">Settings</text>
</a>
</g>
</g>
<!-- Node1021&#45;&gt;Node1022 -->
<g id="edge24" class="edge">
<title>Node1021&#45;&gt;Node1022</title>
<path fill="none" stroke="#191970" d="M1111.724,-111.7223C1102.214,-112.6412 1092.5526,-113.5746 1083.068,-114.491"/>
<polygon fill="#191970" stroke="#191970" points="1112.3514,-115.1781 1121.9684,-110.7325 1111.6781,-108.2105 1112.3514,-115.1781"/>
</g>
<!-- Node1023 -->
<g id="node25" class="node">
<title>Node1023</title>
<g id="a_node25"><a xlink:href="../../de/de6/classSchematicSketchWidget.html#a4cad919201df7fffc903298b96f4c455" target="_top" xlink:title=" ">
<polygon fill="#ffffff" stroke="#000000" points="928,-59 928,-89 1062,-89 1062,-59 928,-59"/>
<text text-anchor="start" x="936" y="-77" font-family="Helvetica,sans-Serif" font-size="10.00" fill="#000000">SchematicSketchWidget</text>
<text text-anchor="middle" x="995" y="-66" font-family="Helvetica,sans-Serif" font-size="10.00" fill="#000000">::setAutorouterSettings</text>
</a>
</g>
</g>
<!-- Node1021&#45;&gt;Node1023 -->
<g id="edge25" class="edge">
<title>Node1021&#45;&gt;Node1023</title>
<path fill="none" stroke="#191970" d="M1111.6698,-90.345C1095.0082,-88.0108 1077.8838,-85.6117 1062.0618,-83.3951"/>
<polygon fill="#191970" stroke="#191970" points="1111.5795,-93.8665 1121.9684,-91.7878 1112.5507,-86.9342 1111.5795,-93.8665"/>
</g>
<!-- Node1025 -->
<g id="node27" class="node">
<title>Node1025</title>
<g id="a_node27"><a xlink:href="../../df/dbf/classPCBSketchWidget.html#a7d28d2d73fbb1789d08d30d86f5f489e" target="_top" xlink:title=" ">
<polygon fill="#ffffff" stroke="#000000" points="1119,-39 1119,-69 1285,-69 1285,-39 1119,-39"/>
<text text-anchor="start" x="1127" y="-57" font-family="Helvetica,sans-Serif" font-size="10.00" fill="#000000">PCBSketchWidget::createTemp</text>
<text text-anchor="middle" x="1202" y="-46" font-family="Helvetica,sans-Serif" font-size="10.00" fill="#000000">WireForDragging</text>
</a>
</g>
</g>
<!-- Node1024&#45;&gt;Node1025 -->
<g id="edge27" class="edge">
<title>Node1024&#45;&gt;Node1025</title>
<path fill="none" stroke="#191970" d="M1317.4922,-54C1306.6868,-54 1295.7046,-54 1285.0254,-54"/>
<polygon fill="#191970" stroke="#191970" points="1317.7823,-57.5001 1327.7822,-54 1317.7822,-50.5001 1317.7823,-57.5001"/>
</g>
<!-- Node1026 -->
<g id="node28" class="node">
<title>Node1026</title>
<g id="a_node28"><a xlink:href="../../df/dbf/classPCBSketchWidget.html#a90f4a0fc2bb6099b5ff1e0c3182efca1" target="_top" xlink:title=" ">
<polygon fill="#ffffff" stroke="#000000" points="1120.5,-.5 1120.5,-19.5 1283.5,-19.5 1283.5,-.5 1120.5,-.5"/>
<text text-anchor="middle" x="1202" y="-7.5" font-family="Helvetica,sans-Serif" font-size="10.00" fill="#000000">PCBSketchWidget::setUpColor</text>
</a>
</g>
</g>
<!-- Node1024&#45;&gt;Node1026 -->
<g id="edge28" class="edge">
<title>Node1024&#45;&gt;Node1026</title>
<path fill="none" stroke="#191970" d="M1328.2528,-36.8363C1300.5461,-30.947 1270.5507,-24.5712 1246.7516,-19.5124"/>
<polygon fill="#191970" stroke="#191970" points="1327.8321,-40.325 1338.3413,-38.9808 1329.2876,-33.478 1327.8321,-40.325"/>
</g>
</g>
</svg>
