<?xml version="1.0" encoding="UTF-8" standalone="no"?>
<!DOCTYPE svg PUBLIC "-//W3C//DTD SVG 1.1//EN"
 "http://www.w3.org/Graphics/SVG/1.1/DTD/svg11.dtd">
<!-- Generated by graphviz version 2.40.1 (0)
 -->
<!-- Title: GraphicsUtils::saveTransform Pages: 1 -->
<!--zoomable 160 -->
<svg id="main" version="1.1" xmlns="http://www.w3.org/2000/svg" xmlns:xlink="http://www.w3.org/1999/xlink" xml:space="preserve" onload="init(evt)">
<style type="text/css"><![CDATA[
.edge:hover path { stroke: red; }
.edge:hover polygon { stroke: red; fill: red; }
]]></style>
<script type="text/javascript"><![CDATA[
var edges = document.getElementsByTagName('g');
if (edges && edges.length) {
  for (var i=0;i<edges.length;i++) {
    if (edges[i].id.substr(0,4)=='edge') {
      edges[i].setAttribute('class','edge');
    }
  }
}
]]></script>
        <defs>
                <circle id="rim" cx="0" cy="0" r="7"/>
                <circle id="rim2" cx="0" cy="0" r="3.5"/>
                <g id="zoomPlus">
                        <use xlink:href="#rim" fill="#404040">
                                <set attributeName="fill" to="#808080" begin="zoomplus.mouseover" end="zoomplus.mouseout"/>
                        </use>
                        <path d="M-4,0h8M0,-4v8" fill="none" stroke="white" stroke-width="1.5" pointer-events="none"/>
                </g>
                <g id="zoomMin">
                        <use xlink:href="#rim" fill="#404040">
                                <set attributeName="fill" to="#808080" begin="zoomminus.mouseover" end="zoomminus.mouseout"/>
                        </use>
                        <path d="M-4,0h8" fill="none" stroke="white" stroke-width="1.5" pointer-events="none"/>
                </g>
                <g id="dirArrow">
                        <path fill="none" stroke="white" stroke-width="1.5" d="M0,-3.0v7 M-2.5,-0.5L0,-3.0L2.5,-0.5"/>
                </g>
               <g id="resetDef">
                       <use xlink:href="#rim2" fill="#404040">
                               <set attributeName="fill" to="#808080" begin="reset.mouseover" end="reset.mouseout"/>
                       </use>
               </g>
        </defs>

<script type="text/javascript">
var viewWidth = 583;
var viewHeight = 160;
var sectionId = 'dynsection-23';
</script>
<script xlink:href="../../svgpan.js"/>
<svg id="graph" class="graph">
<g id="viewport">
<title>GraphicsUtils::saveTransform</title>
<polygon fill="#ffffff" stroke="transparent" points="-4,4 -4,-155.5 579,-155.5 579,4 -4,4"/>
<!-- Node1134 -->
<g id="node1" class="node">
<title>Node1134</title>
<g id="a_node1"><a xlink:title=" ">
<polygon fill="#bfbfbf" stroke="#000000" points="415,-60.5 415,-79.5 575,-79.5 575,-60.5 415,-60.5"/>
<text text-anchor="middle" x="495" y="-67.5" font-family="Helvetica,sans-Serif" font-size="10.00" fill="#000000">GraphicsUtils::saveTransform</text>
</a>
</g>
</g>
<!-- Node1135 -->
<g id="node2" class="node">
<title>Node1135</title>
<g id="a_node2"><a xlink:href="../../d4/d4f/classItemBase.html#a058fadfef954f60fccfeb5c6fa968a13" target="_top" xlink:title=" ">
<polygon fill="#ffffff" stroke="#000000" points="203,-126.5 203,-145.5 379,-145.5 379,-126.5 203,-126.5"/>
<text text-anchor="middle" x="291" y="-133.5" font-family="Helvetica,sans-Serif" font-size="10.00" fill="#000000">ItemBase::saveLocAndTransform</text>
</a>
</g>
</g>
<!-- Node1134&#45;&gt;Node1135 -->
<g id="edge1" class="edge">
<title>Node1134&#45;&gt;Node1135</title>
<path fill="none" stroke="#191970" d="M465.17,-83.7476C442.0404,-93.9978 408.9814,-107.765 379,-117 367.3489,-120.5888 354.6283,-123.7545 342.5715,-126.4218"/>
<polygon fill="#191970" stroke="#191970" points="466.7434,-86.8779 474.4368,-79.5935 463.8799,-80.4904 466.7434,-86.8779"/>
</g>
<!-- Node1137 -->
<g id="node4" class="node">
<title>Node1137</title>
<g id="a_node4"><a xlink:href="../../d6/d39/classJumperItem.html#a77789c180de99ea7b838b7257a104b95" target="_top" xlink:title=" ">
<polygon fill="#ffffff" stroke="#000000" points="219,-77 219,-107 363,-107 363,-77 219,-77"/>
<text text-anchor="start" x="227" y="-95" font-family="Helvetica,sans-Serif" font-size="10.00" fill="#000000">JumperItem::saveInstance</text>
<text text-anchor="middle" x="291" y="-84" font-family="Helvetica,sans-Serif" font-size="10.00" fill="#000000">Location</text>
</a>
</g>
</g>
<!-- Node1134&#45;&gt;Node1137 -->
<g id="edge3" class="edge">
<title>Node1134&#45;&gt;Node1137</title>
<path fill="none" stroke="#191970" d="M404.8689,-79.72C390.9176,-81.2246 376.666,-82.7615 363.1773,-84.2162"/>
<polygon fill="#191970" stroke="#191970" points="405.3923,-83.184 414.9593,-78.6318 404.6416,-76.2243 405.3923,-83.184"/>
</g>
<!-- Node1138 -->
<g id="node5" class="node">
<title>Node1138</title>
<g id="a_node5"><a xlink:href="../../d0/dbb/classPartLabel.html#ab0ed42de2a8ba1204cb12a5a4eff4d97" target="_top" xlink:title=" ">
<polygon fill="#ffffff" stroke="#000000" points="225,-38.5 225,-57.5 357,-57.5 357,-38.5 225,-38.5"/>
<text text-anchor="middle" x="291" y="-45.5" font-family="Helvetica,sans-Serif" font-size="10.00" fill="#000000">PartLabel::saveInstance</text>
</a>
</g>
</g>
<!-- Node1134&#45;&gt;Node1138 -->
<g id="edge4" class="edge">
<title>Node1134&#45;&gt;Node1138</title>
<path fill="none" stroke="#191970" d="M404.582,-60.249C388.682,-58.5343 372.4016,-56.7786 357.3133,-55.1514"/>
<polygon fill="#191970" stroke="#191970" points="404.6416,-63.7757 414.9593,-61.3682 405.3923,-56.816 404.6416,-63.7757"/>
</g>
<!-- Node1139 -->
<g id="node6" class="node">
<title>Node1139</title>
<g id="a_node6"><a xlink:href="../../d7/dc8/classVia.html#a060c386ad18050c0bd94418ac0d53cc0" target="_top" xlink:title=" ">
<polygon fill="#ffffff" stroke="#000000" points="219,-.5 219,-19.5 363,-19.5 363,-.5 219,-.5"/>
<text text-anchor="middle" x="291" y="-7.5" font-family="Helvetica,sans-Serif" font-size="10.00" fill="#000000">Via::saveInstanceLocation</text>
</a>
</g>
</g>
<!-- Node1134&#45;&gt;Node1139 -->
<g id="edge5" class="edge">
<title>Node1134&#45;&gt;Node1139</title>
<path fill="none" stroke="#191970" d="M461.2377,-56.7862C438.2871,-48.122 407.1049,-36.966 379,-29 366.6693,-25.505 353.2091,-22.2996 340.6082,-19.5568"/>
<polygon fill="#191970" stroke="#191970" points="460.2582,-60.1584 470.849,-60.4505 462.7519,-53.6177 460.2582,-60.1584"/>
</g>
<!-- Node1136 -->
<g id="node3" class="node">
<title>Node1136</title>
<g id="a_node3"><a xlink:href="../../d7/de7/classPaletteItemBase.html#a4d6c58c2a2943c9d0cd8a9fb705f47ef" target="_top" xlink:title=" ">
<polygon fill="#ffffff" stroke="#000000" points="0,-121 0,-151 167,-151 167,-121 0,-121"/>
<text text-anchor="start" x="8" y="-139" font-family="Helvetica,sans-Serif" font-size="10.00" fill="#000000">PaletteItemBase::saveInstance</text>
<text text-anchor="middle" x="83.5" y="-128" font-family="Helvetica,sans-Serif" font-size="10.00" fill="#000000">Location</text>
</a>
</g>
</g>
<!-- Node1135&#45;&gt;Node1136 -->
<g id="edge2" class="edge">
<title>Node1135&#45;&gt;Node1136</title>
<path fill="none" stroke="#191970" d="M192.6912,-136C184.1335,-136 175.5263,-136 167.1034,-136"/>
<polygon fill="#191970" stroke="#191970" points="192.7005,-139.5001 202.7004,-136 192.7004,-132.5001 192.7005,-139.5001"/>
</g>
</g>
</svg>
        <g id="navigator" transform="translate(0 0)" fill="#404254">
                <rect fill="#f2f5e9" fill-opacity="0.5" stroke="#606060" stroke-width=".5" x="0" y="0" width="60" height="60"/>
                <use id="zoomplus" xlink:href="#zoomPlus" x="17" y="9" onmousedown="handleZoom(evt,'in')"/>
                <use id="zoomminus" xlink:href="#zoomMin" x="42" y="9" onmousedown="handleZoom(evt,'out')"/>
                <use id="reset" xlink:href="#resetDef" x="30" y="36" onmousedown="handleReset()"/>
                <g id="arrowUp" xlink:href="#dirArrow" transform="translate(30 24)" onmousedown="handlePan(0,-1)">
                  <use xlink:href="#rim" fill="#404040">
                        <set attributeName="fill" to="#808080" begin="arrowUp.mouseover" end="arrowUp.mouseout"/>
                  </use>
                  <path fill="none" stroke="white" stroke-width="1.5" d="M0,-3.0v7 M-2.5,-0.5L0,-3.0L2.5,-0.5"/>
                </g>
                <g id="arrowRight" xlink:href="#dirArrow" transform="rotate(90) translate(36 -43)" onmousedown="handlePan(1,0)">
                  <use xlink:href="#rim" fill="#404040">
                        <set attributeName="fill" to="#808080" begin="arrowRight.mouseover" end="arrowRight.mouseout"/>
                  </use>
                  <path fill="none" stroke="white" stroke-width="1.5" d="M0,-3.0v7 M-2.5,-0.5L0,-3.0L2.5,-0.5"/>
                </g>
                <g id="arrowDown" xlink:href="#dirArrow" transform="rotate(180) translate(-30 -48)" onmousedown="handlePan(0,1)">
                  <use xlink:href="#rim" fill="#404040">
                        <set attributeName="fill" to="#808080" begin="arrowDown.mouseover" end="arrowDown.mouseout"/>
                  </use>
                  <path fill="none" stroke="white" stroke-width="1.5" d="M0,-3.0v7 M-2.5,-0.5L0,-3.0L2.5,-0.5"/>
                </g>
                <g id="arrowLeft" xlink:href="#dirArrow" transform="rotate(270) translate(-36 17)" onmousedown="handlePan(-1,0)">
                  <use xlink:href="#rim" fill="#404040">
                        <set attributeName="fill" to="#808080" begin="arrowLeft.mouseover" end="arrowLeft.mouseout"/>
                  </use>
                  <path fill="none" stroke="white" stroke-width="1.5" d="M0,-3.0v7 M-2.5,-0.5L0,-3.0L2.5,-0.5"/>
                </g>
        </g>
        <svg viewBox="0 0 15 15" width="100%" height="30px" preserveAspectRatio="xMaxYMin meet">
         <g id="arrow_out" transform="scale(0.3 0.3)">
          <a xlink:href="classGraphicsUtils_aad8547abdbf0fe2ecd2f9faa537f6b0d_icgraph_org.svg" target="_base">
           <rect id="button" ry="5" rx="5" y="6" x="6" height="38" width="38"
                fill="#f2f5e9" fill-opacity="0.5" stroke="#606060" stroke-width="1.0"/>
           <path id="arrow"
             d="M 11.500037,31.436501 C 11.940474,20.09759 22.043105,11.32322 32.158766,21.979434 L 37.068811,17.246167 C 37.068811,17.246167 37.088388,32 37.088388,32 L 22.160133,31.978069 C 22.160133,31.978069 26.997745,27.140456 26.997745,27.140456 C 18.528582,18.264221 13.291696,25.230495 11.500037,31.436501 z"
             style="fill:#404040;"/>
          </a>
         </g>
        </svg>
</svg>
