<?xml version="1.0" encoding="UTF-8" standalone="no"?>
<!DOCTYPE svg PUBLIC "-//W3C//DTD SVG 1.1//EN"
 "http://www.w3.org/Graphics/SVG/1.1/DTD/svg11.dtd">
<!-- Generated by graphviz version 2.40.1 (0)
 -->
<!-- Title: GraphicsUtils::calcRotation Pages: 1 -->
<!--zoomable 116 -->
<svg id="main" version="1.1" xmlns="http://www.w3.org/2000/svg" xmlns:xlink="http://www.w3.org/1999/xlink" xml:space="preserve" onload="init(evt)">
<style type="text/css"><![CDATA[
.edge:hover path { stroke: red; }
.edge:hover polygon { stroke: red; fill: red; }
]]></style>
<script type="text/javascript"><![CDATA[
var edges = document.getElementsByTagName('g');
if (edges && edges.length) {
  for (var i=0;i<edges.length;i++) {
    if (edges[i].id.substr(0,4)=='edge') {
      edges[i].setAttribute('class','edge');
    }
  }
}
]]></script>
        <defs>
                <circle id="rim" cx="0" cy="0" r="7"/>
                <circle id="rim2" cx="0" cy="0" r="3.5"/>
                <g id="zoomPlus">
                        <use xlink:href="#rim" fill="#404040">
                                <set attributeName="fill" to="#808080" begin="zoomplus.mouseover" end="zoomplus.mouseout"/>
                        </use>
                        <path d="M-4,0h8M0,-4v8" fill="none" stroke="white" stroke-width="1.5" pointer-events="none"/>
                </g>
                <g id="zoomMin">
                        <use xlink:href="#rim" fill="#404040">
                                <set attributeName="fill" to="#808080" begin="zoomminus.mouseover" end="zoomminus.mouseout"/>
                        </use>
                        <path d="M-4,0h8" fill="none" stroke="white" stroke-width="1.5" pointer-events="none"/>
                </g>
                <g id="dirArrow">
                        <path fill="none" stroke="white" stroke-width="1.5" d="M0,-3.0v7 M-2.5,-0.5L0,-3.0L2.5,-0.5"/>
                </g>
               <g id="resetDef">
                       <use xlink:href="#rim2" fill="#404040">
                               <set attributeName="fill" to="#808080" begin="reset.mouseover" end="reset.mouseout"/>
                       </use>
               </g>
        </defs>

<script type="text/javascript">
var viewWidth = 1293;
var viewHeight = 116;
var sectionId = 'dynsection-3';
</script>
<script xlink:href="../../svgpan.js"/>
<svg id="graph" class="graph">
<g id="viewport">
<title>GraphicsUtils::calcRotation</title>
<polygon fill="#ffffff" stroke="transparent" points="-4,4 -4,-111.5 1289,-111.5 1289,4 -4,4"/>
<!-- Node9 -->
<g id="node1" class="node">
<title>Node9</title>
<g id="a_node1"><a xlink:title=" ">
<polygon fill="#bfbfbf" stroke="#000000" points="1136,-63.5 1136,-82.5 1285,-82.5 1285,-63.5 1136,-63.5"/>
<text text-anchor="middle" x="1210.5" y="-70.5" font-family="Helvetica,sans-Serif" font-size="10.00" fill="#000000">GraphicsUtils::calcRotation</text>
</a>
</g>
</g>
<!-- Node10 -->
<g id="node2" class="node">
<title>Node10</title>
<g id="a_node2"><a xlink:href="../../d4/d4f/classItemBase.html#acb0999555e50e538476235d8c1aaa9cc" target="_top" xlink:title=" ">
<polygon fill="#ffffff" stroke="#000000" points="970,-44.5 970,-63.5 1100,-63.5 1100,-44.5 970,-44.5"/>
<text text-anchor="middle" x="1035" y="-51.5" font-family="Helvetica,sans-Serif" font-size="10.00" fill="#000000">ItemBase::calcRotation</text>
</a>
</g>
</g>
<!-- Node9&#45;&gt;Node10 -->
<g id="edge1" class="edge">
<title>Node9&#45;&gt;Node10</title>
<path fill="none" stroke="#191970" d="M1125.7633,-63.8262C1117.1665,-62.8955 1108.531,-61.9606 1100.1875,-61.0573"/>
<polygon fill="#191970" stroke="#191970" points="1125.4991,-67.318 1135.8177,-64.9147 1126.2526,-60.3587 1125.4991,-67.318"/>
</g>
<!-- Node11 -->
<g id="node3" class="node">
<title>Node11</title>
<g id="a_node3"><a xlink:href="../../df/dbf/classPCBSketchWidget.html#a3afeb6b8420174ec6cf610c866758a3a" target="_top" xlink:title=" ">
<polygon fill="#ffffff" stroke="#000000" points="777,-77 777,-107 934,-107 934,-77 777,-77"/>
<text text-anchor="start" x="785" y="-95" font-family="Helvetica,sans-Serif" font-size="10.00" fill="#000000">PCBSketchWidget::rotatePart</text>
<text text-anchor="middle" x="855.5" y="-84" font-family="Helvetica,sans-Serif" font-size="10.00" fill="#000000">Labels</text>
</a>
</g>
</g>
<!-- Node9&#45;&gt;Node11 -->
<g id="edge11" class="edge">
<title>Node9&#45;&gt;Node11</title>
<path fill="none" stroke="#191970" d="M1125.3916,-77.5551C1067.3096,-80.6637 990.9277,-84.7518 934.2494,-87.7852"/>
<polygon fill="#191970" stroke="#191970" points="1125.8488,-81.0357 1135.6474,-77.0062 1125.4746,-74.0457 1125.8488,-81.0357"/>
</g>
<!-- Node10&#45;&gt;Node11 -->
<g id="edge2" class="edge">
<title>Node10&#45;&gt;Node11</title>
<path fill="none" stroke="#191970" d="M979.5579,-65.7371C962.8321,-69.2779 944.2349,-73.2149 926.6365,-76.9405"/>
<polygon fill="#191970" stroke="#191970" points="980.6463,-69.0843 989.7046,-63.589 979.1965,-62.2361 980.6463,-69.0843"/>
</g>
<!-- Node13 -->
<g id="node5" class="node">
<title>Node13</title>
<g id="a_node5"><a xlink:href="../../d8/d37/classSketchWidget.html#a7033c0f4c4d4ed75ffb1c10720d73307" target="_top" xlink:title=" ">
<polygon fill="#ffffff" stroke="#000000" points="793,-38.5 793,-57.5 918,-57.5 918,-38.5 793,-38.5"/>
<text text-anchor="middle" x="855.5" y="-45.5" font-family="Helvetica,sans-Serif" font-size="10.00" fill="#000000">SketchWidget::rotateX</text>
</a>
</g>
</g>
<!-- Node10&#45;&gt;Node13 -->
<g id="edge4" class="edge">
<title>Node10&#45;&gt;Node13</title>
<path fill="none" stroke="#191970" d="M959.9417,-51.4911C946.0631,-51.0272 931.7028,-50.5472 918.2371,-50.0971"/>
<polygon fill="#191970" stroke="#191970" points="959.8312,-54.9893 969.9426,-51.8254 960.0651,-47.9932 959.8312,-54.9893"/>
</g>
<!-- Node12 -->
<g id="node4" class="node">
<title>Node12</title>
<g id="a_node4"><a xlink:href="../../de/de6/classSchematicSketchWidget.html#a37db97c6439198227613ccbf2a42818b" target="_top" xlink:title=" ">
<polygon fill="#ffffff" stroke="#000000" points="597,-77 597,-107 731,-107 731,-77 597,-77"/>
<text text-anchor="start" x="605" y="-95" font-family="Helvetica,sans-Serif" font-size="10.00" fill="#000000">SchematicSketchWidget</text>
<text text-anchor="middle" x="664" y="-84" font-family="Helvetica,sans-Serif" font-size="10.00" fill="#000000">::rotatePartLabels</text>
</a>
</g>
</g>
<!-- Node11&#45;&gt;Node12 -->
<g id="edge3" class="edge">
<title>Node11&#45;&gt;Node12</title>
<path fill="none" stroke="#191970" d="M766.7609,-92C754.7716,-92 742.635,-92 731.1082,-92"/>
<polygon fill="#191970" stroke="#191970" points="766.7806,-95.5001 776.7806,-92 766.7806,-88.5001 766.7806,-95.5001"/>
</g>
<!-- Node14 -->
<g id="node6" class="node">
<title>Node14</title>
<g id="a_node6"><a xlink:href="../../d1/dec/classPanelizer.html#ab4283243a33f5808e59cc57cc33cd2e4" target="_top" xlink:title=" ">
<polygon fill="#ffffff" stroke="#000000" points="596.5,-38.5 596.5,-57.5 731.5,-57.5 731.5,-38.5 596.5,-38.5"/>
<text text-anchor="middle" x="664" y="-45.5" font-family="Helvetica,sans-Serif" font-size="10.00" fill="#000000">Panelizer::openWindows</text>
</a>
</g>
</g>
<!-- Node13&#45;&gt;Node14 -->
<g id="edge5" class="edge">
<title>Node13&#45;&gt;Node14</title>
<path fill="none" stroke="#191970" d="M782.5622,-48C765.8919,-48 748.2421,-48 731.7979,-48"/>
<polygon fill="#191970" stroke="#191970" points="782.7958,-51.5001 792.7957,-48 782.7957,-44.5001 782.7958,-51.5001"/>
</g>
<!-- Node19 -->
<g id="node11" class="node">
<title>Node19</title>
<g id="a_node11"><a xlink:href="../../d8/d37/classSketchWidget.html#a715ca8db761bb09cfdae875120270b0f" target="_top" xlink:title=" ">
<polygon fill="#ffffff" stroke="#000000" points="587,-.5 587,-19.5 741,-19.5 741,-.5 587,-.5"/>
<text text-anchor="middle" x="664" y="-7.5" font-family="Helvetica,sans-Serif" font-size="10.00" fill="#000000">SketchWidget::triggerRotate</text>
</a>
</g>
</g>
<!-- Node13&#45;&gt;Node19 -->
<g id="edge10" class="edge">
<title>Node13&#45;&gt;Node19</title>
<path fill="none" stroke="#191970" d="M797.3539,-36.4619C770.0405,-31.042 737.8737,-24.659 711.976,-19.5201"/>
<polygon fill="#191970" stroke="#191970" points="796.6864,-39.8976 807.1765,-38.411 798.049,-33.0315 796.6864,-39.8976"/>
</g>
<!-- Node15 -->
<g id="node7" class="node">
<title>Node15</title>
<g id="a_node7"><a xlink:href="../../d1/dec/classPanelizer.html#a20413e93309e7c25278c14bbd953de26" target="_top" xlink:title=" ">
<polygon fill="#ffffff" stroke="#000000" points="443,-38.5 443,-57.5 551,-57.5 551,-38.5 443,-38.5"/>
<text text-anchor="middle" x="497" y="-45.5" font-family="Helvetica,sans-Serif" font-size="10.00" fill="#000000">Panelizer::panelize</text>
</a>
</g>
</g>
<!-- Node14&#45;&gt;Node15 -->
<g id="edge6" class="edge">
<title>Node14&#45;&gt;Node15</title>
<path fill="none" stroke="#191970" d="M585.8027,-48C574.0458,-48 562.1482,-48 551.0471,-48"/>
<polygon fill="#191970" stroke="#191970" points="586.0747,-51.5001 596.0747,-48 586.0747,-44.5001 586.0747,-51.5001"/>
</g>
<!-- Node16 -->
<g id="node8" class="node">
<title>Node16</title>
<g id="a_node8"><a xlink:href="../../dc/dc7/classFApplication.html#ade4b2813f0a6b5af98013570a7b5d9c0" target="_top" xlink:title=" ">
<polygon fill="#ffffff" stroke="#000000" points="265,-33 265,-63 407,-63 407,-33 265,-33"/>
<text text-anchor="start" x="273" y="-51" font-family="Helvetica,sans-Serif" font-size="10.00" fill="#000000">FApplication::runPanelizer</text>
<text text-anchor="middle" x="336" y="-40" font-family="Helvetica,sans-Serif" font-size="10.00" fill="#000000">Service</text>
</a>
</g>
</g>
<!-- Node15&#45;&gt;Node16 -->
<g id="edge7" class="edge">
<title>Node15&#45;&gt;Node16</title>
<path fill="none" stroke="#191970" d="M432.7829,-48C424.3314,-48 415.6301,-48 407.0728,-48"/>
<polygon fill="#191970" stroke="#191970" points="432.9415,-51.5001 442.9414,-48 432.9414,-44.5001 432.9415,-51.5001"/>
</g>
<!-- Node17 -->
<g id="node9" class="node">
<title>Node17</title>
<g id="a_node9"><a xlink:href="../../dc/dc7/classFApplication.html#ac5e0b62634df1a581eee3c3a36980754" target="_top" xlink:title=" ">
<polygon fill="#ffffff" stroke="#000000" points="77,-38.5 77,-57.5 229,-57.5 229,-38.5 77,-38.5"/>
<text text-anchor="middle" x="153" y="-45.5" font-family="Helvetica,sans-Serif" font-size="10.00" fill="#000000">FApplication::serviceStartup</text>
</a>
</g>
</g>
<!-- Node16&#45;&gt;Node17 -->
<g id="edge8" class="edge">
<title>Node16&#45;&gt;Node17</title>
<path fill="none" stroke="#191970" d="M254.973,-48C246.3792,-48 237.6606,-48 229.1257,-48"/>
<polygon fill="#191970" stroke="#191970" points="254.9855,-51.5001 264.9855,-48 254.9855,-44.5001 254.9855,-51.5001"/>
</g>
<!-- Node18 -->
<g id="node10" class="node">
<title>Node18</title>
<g id="a_node10"><a xlink:href="../../df/d0a/main_8cpp.html#a0ddf1224851353fc92bfbff6f499fa97" target="_top" xlink:title=" ">
<polygon fill="#ffffff" stroke="#000000" points="0,-38.5 0,-57.5 41,-57.5 41,-38.5 0,-38.5"/>
<text text-anchor="middle" x="20.5" y="-45.5" font-family="Helvetica,sans-Serif" font-size="10.00" fill="#000000">main</text>
</a>
</g>
</g>
<!-- Node17&#45;&gt;Node18 -->
<g id="edge9" class="edge">
<title>Node17&#45;&gt;Node18</title>
<path fill="none" stroke="#191970" d="M66.6912,-48C57.2673,-48 48.4413,-48 41.0804,-48"/>
<polygon fill="#191970" stroke="#191970" points="66.692,-51.5001 76.6919,-48 66.6919,-44.5001 66.692,-51.5001"/>
</g>
</g>
</svg>
        <g id="navigator" transform="translate(0 0)" fill="#404254">
                <rect fill="#f2f5e9" fill-opacity="0.5" stroke="#606060" stroke-width=".5" x="0" y="0" width="60" height="60"/>
                <use id="zoomplus" xlink:href="#zoomPlus" x="17" y="9" onmousedown="handleZoom(evt,'in')"/>
                <use id="zoomminus" xlink:href="#zoomMin" x="42" y="9" onmousedown="handleZoom(evt,'out')"/>
                <use id="reset" xlink:href="#resetDef" x="30" y="36" onmousedown="handleReset()"/>
                <g id="arrowUp" xlink:href="#dirArrow" transform="translate(30 24)" onmousedown="handlePan(0,-1)">
                  <use xlink:href="#rim" fill="#404040">
                        <set attributeName="fill" to="#808080" begin="arrowUp.mouseover" end="arrowUp.mouseout"/>
                  </use>
                  <path fill="none" stroke="white" stroke-width="1.5" d="M0,-3.0v7 M-2.5,-0.5L0,-3.0L2.5,-0.5"/>
                </g>
                <g id="arrowRight" xlink:href="#dirArrow" transform="rotate(90) translate(36 -43)" onmousedown="handlePan(1,0)">
                  <use xlink:href="#rim" fill="#404040">
                        <set attributeName="fill" to="#808080" begin="arrowRight.mouseover" end="arrowRight.mouseout"/>
                  </use>
                  <path fill="none" stroke="white" stroke-width="1.5" d="M0,-3.0v7 M-2.5,-0.5L0,-3.0L2.5,-0.5"/>
                </g>
                <g id="arrowDown" xlink:href="#dirArrow" transform="rotate(180) translate(-30 -48)" onmousedown="handlePan(0,1)">
                  <use xlink:href="#rim" fill="#404040">
                        <set attributeName="fill" to="#808080" begin="arrowDown.mouseover" end="arrowDown.mouseout"/>
                  </use>
                  <path fill="none" stroke="white" stroke-width="1.5" d="M0,-3.0v7 M-2.5,-0.5L0,-3.0L2.5,-0.5"/>
                </g>
                <g id="arrowLeft" xlink:href="#dirArrow" transform="rotate(270) translate(-36 17)" onmousedown="handlePan(-1,0)">
                  <use xlink:href="#rim" fill="#404040">
                        <set attributeName="fill" to="#808080" begin="arrowLeft.mouseover" end="arrowLeft.mouseout"/>
                  </use>
                  <path fill="none" stroke="white" stroke-width="1.5" d="M0,-3.0v7 M-2.5,-0.5L0,-3.0L2.5,-0.5"/>
                </g>
        </g>
        <svg viewBox="0 0 15 15" width="100%" height="30px" preserveAspectRatio="xMaxYMin meet">
         <g id="arrow_out" transform="scale(0.3 0.3)">
          <a xlink:href="classGraphicsUtils_a5641d7b961a6a6ddca5a7d6875d82445_icgraph_org.svg" target="_base">
           <rect id="button" ry="5" rx="5" y="6" x="6" height="38" width="38"
                fill="#f2f5e9" fill-opacity="0.5" stroke="#606060" stroke-width="1.0"/>
           <path id="arrow"
             d="M 11.500037,31.436501 C 11.940474,20.09759 22.043105,11.32322 32.158766,21.979434 L 37.068811,17.246167 C 37.068811,17.246167 37.088388,32 37.088388,32 L 22.160133,31.978069 C 22.160133,31.978069 26.997745,27.140456 26.997745,27.140456 C 18.528582,18.264221 13.291696,25.230495 11.500037,31.436501 z"
             style="fill:#404040;"/>
          </a>
         </g>
        </svg>
</svg>
