<?xml version="1.0" encoding="UTF-8" standalone="no"?>
<!DOCTYPE svg PUBLIC "-//W3C//DTD SVG 1.1//EN"
 "http://www.w3.org/Graphics/SVG/1.1/DTD/svg11.dtd">
<!-- Generated by graphviz version 2.40.1 (0)
 -->
<!-- Title: FTabBar Pages: 1 -->
<svg width="158pt" height="182pt"
 viewBox="0.00 0.00 157.50 182.00" xmlns="http://www.w3.org/2000/svg" xmlns:xlink="http://www.w3.org/1999/xlink">
<g id="graph0" class="graph" transform="scale(1 1) rotate(0) translate(4 178)">
<title>FTabBar</title>
<polygon fill="#ffffff" stroke="transparent" points="-4,4 -4,-178 153.5,-178 153.5,4 -4,4"/>
<!-- Node2 -->
<g id="node1" class="node">
<title>Node2</title>
<g id="a_node1"><a xlink:title=" ">
<polygon fill="#bfbfbf" stroke="#000000" points="17.5,-.5 17.5,-68.5 105.5,-68.5 105.5,-.5 17.5,-.5"/>
<text text-anchor="middle" x="61.5" y="-56.5" font-family="Helvetica,sans-Serif" font-size="10.00" fill="#000000">FTabBar</text>
<polyline fill="none" stroke="#000000" points="17.5,-49.5 105.5,-49.5 "/>
<text text-anchor="middle" x="61.5" y="-37.5" font-family="Helvetica,sans-Serif" font-size="10.00" fill="#000000"> </text>
<polyline fill="none" stroke="#000000" points="17.5,-30.5 105.5,-30.5 "/>
<text text-anchor="start" x="25.5" y="-18.5" font-family="Helvetica,sans-Serif" font-size="10.00" fill="#000000">+ FTabBar()</text>
<text text-anchor="start" x="25.5" y="-7.5" font-family="Helvetica,sans-Serif" font-size="10.00" fill="#000000">+ paintEvent()</text>
</a>
</g>
</g>
<!-- Node3 -->
<g id="node2" class="node">
<title>Node3</title>
<g id="a_node2"><a xlink:href="../../d8/d66/classQTabBar.html" target="_top" xlink:title=" ">
<polygon fill="#ffffff" stroke="#000000" points="0,-116.5 0,-173.5 57,-173.5 57,-116.5 0,-116.5"/>
<text text-anchor="middle" x="28.5" y="-161.5" font-family="Helvetica,sans-Serif" font-size="10.00" fill="#000000">QTabBar</text>
<polyline fill="none" stroke="#000000" points="0,-154.5 57,-154.5 "/>
<text text-anchor="middle" x="28.5" y="-142.5" font-family="Helvetica,sans-Serif" font-size="10.00" fill="#000000"> </text>
<polyline fill="none" stroke="#000000" points="0,-135.5 57,-135.5 "/>
<text text-anchor="middle" x="28.5" y="-123.5" font-family="Helvetica,sans-Serif" font-size="10.00" fill="#000000"> </text>
</a>
</g>
</g>
<!-- Node3&#45;&gt;Node2 -->
<g id="edge1" class="edge">
<title>Node3&#45;&gt;Node2</title>
<path fill="none" stroke="#191970" d="M39.9521,-106.6529C43.6482,-94.2766 47.7182,-80.6482 51.3163,-68.6001"/>
<polygon fill="none" stroke="#191970" points="36.5922,-105.6725 37.0842,-116.2559 43.2995,-107.6756 36.5922,-105.6725"/>
</g>
<!-- Node4 -->
<g id="node3" class="node">
<title>Node4</title>
<g id="a_node3"><a xlink:title=" ">
<polygon fill="#ffffff" stroke="#bfbfbf" points="75.5,-116.5 75.5,-173.5 113.5,-173.5 113.5,-116.5 75.5,-116.5"/>
<text text-anchor="middle" x="94.5" y="-161.5" font-family="Helvetica,sans-Serif" font-size="10.00" fill="#000000">bool</text>
<polyline fill="none" stroke="#bfbfbf" points="75.5,-154.5 113.5,-154.5 "/>
<text text-anchor="middle" x="94.5" y="-142.5" font-family="Helvetica,sans-Serif" font-size="10.00" fill="#000000"> </text>
<polyline fill="none" stroke="#bfbfbf" points="75.5,-135.5 113.5,-135.5 "/>
<text text-anchor="middle" x="94.5" y="-123.5" font-family="Helvetica,sans-Serif" font-size="10.00" fill="#000000"> </text>
</a>
</g>
</g>
<!-- Node4&#45;&gt;Node2 -->
<g id="edge2" class="edge">
<title>Node4&#45;&gt;Node2</title>
<path fill="none" stroke="#404040" d="M85.9158,-116.2559C82.6502,-105.321 78.8424,-92.5708 75.2189,-80.4376"/>
<polygon fill="none" stroke="#404040" points="75.1176,-80.0983 69.568,-75.4938 71.6837,-68.6001 77.2334,-73.2045 75.1176,-80.0983"/>
<text text-anchor="middle" x="114.5" y="-90" font-family="Helvetica,sans-Serif" font-size="10.00" fill="#000000"> #m_firstTime</text>
</g>
</g>
</svg>
