<?xml version="1.0" encoding="UTF-8" standalone="no"?>
<!DOCTYPE svg PUBLIC "-//W3C//DTD SVG 1.1//EN"
 "http://www.w3.org/Graphics/SVG/1.1/DTD/svg11.dtd">
<!-- Generated by graphviz version 2.40.1 (0)
 -->
<!-- Title: WireExtrasCommand::undo Pages: 1 -->
<!--zoomable 786 -->
<svg id="main" version="1.1" xmlns="http://www.w3.org/2000/svg" xmlns:xlink="http://www.w3.org/1999/xlink" xml:space="preserve" onload="init(evt)">
<style type="text/css"><![CDATA[
.edge:hover path { stroke: red; }
.edge:hover polygon { stroke: red; fill: red; }
]]></style>
<script type="text/javascript"><![CDATA[
var edges = document.getElementsByTagName('g');
if (edges && edges.length) {
  for (var i=0;i<edges.length;i++) {
    if (edges[i].id.substr(0,4)=='edge') {
      edges[i].setAttribute('class','edge');
    }
  }
}
]]></script>
        <defs>
                <circle id="rim" cx="0" cy="0" r="7"/>
                <circle id="rim2" cx="0" cy="0" r="3.5"/>
                <g id="zoomPlus">
                        <use xlink:href="#rim" fill="#404040">
                                <set attributeName="fill" to="#808080" begin="zoomplus.mouseover" end="zoomplus.mouseout"/>
                        </use>
                        <path d="M-4,0h8M0,-4v8" fill="none" stroke="white" stroke-width="1.5" pointer-events="none"/>
                </g>
                <g id="zoomMin">
                        <use xlink:href="#rim" fill="#404040">
                                <set attributeName="fill" to="#808080" begin="zoomminus.mouseover" end="zoomminus.mouseout"/>
                        </use>
                        <path d="M-4,0h8" fill="none" stroke="white" stroke-width="1.5" pointer-events="none"/>
                </g>
                <g id="dirArrow">
                        <path fill="none" stroke="white" stroke-width="1.5" d="M0,-3.0v7 M-2.5,-0.5L0,-3.0L2.5,-0.5"/>
                </g>
               <g id="resetDef">
                       <use xlink:href="#rim2" fill="#404040">
                               <set attributeName="fill" to="#808080" begin="reset.mouseover" end="reset.mouseout"/>
                       </use>
               </g>
        </defs>

<script type="text/javascript">
var viewWidth = 1360;
var viewHeight = 786;
var sectionId = 'dynsection-4';
</script>
<script xlink:href="../../svgpan.js"/>
<svg id="graph" class="graph">
<g id="viewport">
<title>WireExtrasCommand::undo</title>
<polygon fill="#ffffff" stroke="transparent" points="-4,4 -4,-781.5 1356,-781.5 1356,4 -4,4"/>
<!-- Node54 -->
<g id="node1" class="node">
<title>Node54</title>
<g id="a_node1"><a xlink:title=" ">
<polygon fill="#bfbfbf" stroke="#000000" points="0,-435 0,-454 150,-454 150,-435 0,-435"/>
<text text-anchor="middle" x="75" y="-442" font-family="Helvetica,sans-Serif" font-size="10.00" fill="#000000">WireExtrasCommand::undo</text>
</a>
</g>
</g>
<!-- Node55 -->
<g id="node2" class="node">
<title>Node55</title>
<g id="a_node2"><a xlink:href="../../d8/d37/classSketchWidget.html#aede3385ec10291aa62c2cf4455cd289f" target="_top" xlink:title=" ">
<polygon fill="#ffffff" stroke="#000000" points="186,-454 186,-473 344,-473 344,-454 186,-454"/>
<text text-anchor="middle" x="265" y="-461" font-family="Helvetica,sans-Serif" font-size="10.00" fill="#000000">SketchWidget::setWireExtras</text>
</a>
</g>
</g>
<!-- Node54&#45;&gt;Node55 -->
<g id="edge1" class="edge">
<title>Node54&#45;&gt;Node55</title>
<path fill="none" stroke="#191970" d="M150.093,-452.0093C158.5176,-452.8518 167.1609,-453.7161 175.7415,-454.5741"/>
<polygon fill="#191970" stroke="#191970" points="175.47,-458.0644 185.7687,-455.5769 176.1666,-451.0991 175.47,-458.0644"/>
</g>
<!-- Node98 -->
<g id="node45" class="node">
<title>Node98</title>
<g id="a_node45"><a xlink:href="../../d8/d6e/classBaseCommand.html#ac2747a4ea6258544b1721c742dc3d4db" target="_top" xlink:title=" ">
<polygon fill="#ffffff" stroke="#000000" points="204.5,-416 204.5,-435 325.5,-435 325.5,-416 204.5,-416"/>
<text text-anchor="middle" x="265" y="-423" font-family="Helvetica,sans-Serif" font-size="10.00" fill="#000000">BaseCommand::undo</text>
</a>
</g>
</g>
<!-- Node54&#45;&gt;Node98 -->
<g id="edge49" class="edge">
<title>Node54&#45;&gt;Node98</title>
<path fill="none" stroke="#191970" d="M150.093,-436.9907C164.6164,-435.5384 179.7898,-434.021 194.1714,-432.5829"/>
<polygon fill="#191970" stroke="#191970" points="194.8809,-436.0295 204.483,-431.5517 194.1843,-429.0642 194.8809,-436.0295"/>
</g>
<!-- Node56 -->
<g id="node3" class="node">
<title>Node56</title>
<g id="a_node3"><a xlink:href="../../d8/d37/classSketchWidget.html#a8e2ae23ef1e4c2ad993e0c3985e5c3ba" target="_top" xlink:title=" ">
<polygon fill="#ffffff" stroke="#000000" points="396.5,-701 396.5,-720 526.5,-720 526.5,-701 396.5,-701"/>
<text text-anchor="middle" x="461.5" y="-708" font-family="Helvetica,sans-Serif" font-size="10.00" fill="#000000">SketchWidget::findItem</text>
</a>
</g>
</g>
<!-- Node55&#45;&gt;Node56 -->
<g id="edge2" class="edge">
<title>Node55&#45;&gt;Node56</title>
<path fill="none" stroke="#191970" d="M272.703,-473.1827C302.2952,-510.3799 408.9408,-644.4332 447.4805,-692.8775"/>
<polygon fill="#191970" stroke="#191970" points="444.8855,-695.2376 453.8502,-700.8842 450.3635,-690.8796 444.8855,-695.2376"/>
</g>
<!-- Node60 -->
<g id="node7" class="node">
<title>Node60</title>
<g id="a_node7"><a xlink:href="../../d7/d64/classWire.html#a8d17455c23c2a9e2aca09631d0eb94ba" target="_top" xlink:title=" ">
<polygon fill="#ffffff" stroke="#000000" points="416,-454 416,-473 507,-473 507,-454 416,-454"/>
<text text-anchor="middle" x="461.5" y="-461" font-family="Helvetica,sans-Serif" font-size="10.00" fill="#000000">Wire::setExtras</text>
</a>
</g>
</g>
<!-- Node55&#45;&gt;Node60 -->
<g id="edge6" class="edge">
<title>Node55&#45;&gt;Node60</title>
<path fill="none" stroke="#191970" d="M344.0747,-463.5C364.7759,-463.5 386.6587,-463.5 405.8517,-463.5"/>
<polygon fill="#191970" stroke="#191970" points="405.9169,-467.0001 415.9168,-463.5 405.9168,-460.0001 405.9169,-467.0001"/>
</g>
<!-- Node57 -->
<g id="node4" class="node">
<title>Node57</title>
<g id="a_node4"><a xlink:href="../../d4/d4f/classItemBase.html#a27afd199a7ae3c3fd14e88ed0be14420" target="_top" xlink:title=" ">
<polygon fill="#ffffff" stroke="#000000" points="623,-758 623,-777 701,-777 701,-758 623,-758"/>
<text text-anchor="middle" x="662" y="-765" font-family="Helvetica,sans-Serif" font-size="10.00" fill="#000000">ItemBase::id</text>
</a>
</g>
</g>
<!-- Node56&#45;&gt;Node57 -->
<g id="edge3" class="edge">
<title>Node56&#45;&gt;Node57</title>
<path fill="none" stroke="#191970" d="M488.8341,-720.0931C512.5178,-728.2236 547.7898,-739.8988 579,-748.5 589.9111,-751.507 601.7196,-754.4148 612.9129,-757.0138"/>
<polygon fill="#191970" stroke="#191970" points="612.4482,-760.4976 622.976,-759.3078 614.0041,-753.6726 612.4482,-760.4976"/>
</g>
<!-- Node58 -->
<g id="node5" class="node">
<title>Node58</title>
<g id="a_node5"><a xlink:href="../../d4/d4f/classItemBase.html#acc32076e751f0e21ffb9050f275d3b87" target="_top" xlink:title=" ">
<polygon fill="#ffffff" stroke="#000000" points="607,-720 607,-739 717,-739 717,-720 607,-720"/>
<text text-anchor="middle" x="662" y="-727" font-family="Helvetica,sans-Serif" font-size="10.00" fill="#000000">ItemBase::layerKin</text>
</a>
</g>
</g>
<!-- Node56&#45;&gt;Node58 -->
<g id="edge4" class="edge">
<title>Node56&#45;&gt;Node58</title>
<path fill="none" stroke="#191970" d="M526.5966,-716.6688C549.1056,-718.8018 574.3218,-721.1913 596.8362,-723.3249"/>
<polygon fill="#191970" stroke="#191970" points="596.6855,-726.8262 606.9711,-724.2853 597.346,-719.8574 596.6855,-726.8262"/>
</g>
<!-- Node59 -->
<g id="node6" class="node">
<title>Node59</title>
<g id="a_node6"><a xlink:href="../../d4/d4f/classItemBase.html#abf6d16e250a353043cd4953ddc049bd0" target="_top" xlink:title=" ">
<polygon fill="#ffffff" stroke="#000000" points="594.5,-682 594.5,-701 729.5,-701 729.5,-682 594.5,-682"/>
<text text-anchor="middle" x="662" y="-689" font-family="Helvetica,sans-Serif" font-size="10.00" fill="#000000">ItemBase::layerKinChief</text>
</a>
</g>
</g>
<!-- Node56&#45;&gt;Node59 -->
<g id="edge5" class="edge">
<title>Node56&#45;&gt;Node59</title>
<path fill="none" stroke="#191970" d="M526.5966,-704.3312C545.0124,-702.5861 565.2404,-700.6692 584.3182,-698.8614"/>
<polygon fill="#191970" stroke="#191970" points="584.8506,-702.3267 594.4758,-697.8988 584.1901,-695.3579 584.8506,-702.3267"/>
</g>
<!-- Node61 -->
<g id="node8" class="node">
<title>Node61</title>
<g id="a_node8"><a xlink:href="../../d7/d64/classWire.html#a45f4d43eb8d9c12df32f8431b22ae04a" target="_top" xlink:title=" ">
<polygon fill="#ffffff" stroke="#000000" points="612.5,-530 612.5,-549 711.5,-549 711.5,-530 612.5,-530"/>
<text text-anchor="middle" x="662" y="-537" font-family="Helvetica,sans-Serif" font-size="10.00" fill="#000000">Wire::connector0</text>
</a>
</g>
</g>
<!-- Node60&#45;&gt;Node61 -->
<g id="edge7" class="edge">
<title>Node60&#45;&gt;Node61</title>
<path fill="none" stroke="#191970" d="M478.1048,-473.0527C500.4073,-485.5296 541.572,-507.3298 579,-520.5 586.5343,-523.1512 594.5856,-525.5296 602.5999,-527.6324"/>
<polygon fill="#191970" stroke="#191970" points="601.7701,-531.0325 612.3202,-530.0603 603.4665,-524.2412 601.7701,-531.0325"/>
</g>
<!-- Node62 -->
<g id="node9" class="node">
<title>Node62</title>
<g id="a_node9"><a xlink:href="../../d7/d64/classWire.html#a866a8602d73cc8004d133cb8780048f3" target="_top" xlink:title=" ">
<polygon fill="#ffffff" stroke="#000000" points="612.5,-492 612.5,-511 711.5,-511 711.5,-492 612.5,-492"/>
<text text-anchor="middle" x="662" y="-499" font-family="Helvetica,sans-Serif" font-size="10.00" fill="#000000">Wire::connector1</text>
</a>
</g>
</g>
<!-- Node60&#45;&gt;Node62 -->
<g id="edge8" class="edge">
<title>Node60&#45;&gt;Node62</title>
<path fill="none" stroke="#191970" d="M507.2474,-472.1703C535.3878,-477.5037 571.7599,-484.3971 602.1711,-490.1609"/>
<polygon fill="#191970" stroke="#191970" points="601.7586,-493.6449 612.2355,-492.0683 603.0621,-486.7673 601.7586,-493.6449"/>
</g>
<!-- Node63 -->
<g id="node10" class="node">
<title>Node63</title>
<g id="a_node10"><a xlink:href="../../d8/d3c/classBezier.html#a729d94317967559220576af5599619ac" target="_top" xlink:title=" ">
<polygon fill="#ffffff" stroke="#000000" points="623.5,-454 623.5,-473 700.5,-473 700.5,-454 623.5,-454"/>
<text text-anchor="middle" x="662" y="-461" font-family="Helvetica,sans-Serif" font-size="10.00" fill="#000000">Bezier::copy</text>
</a>
</g>
</g>
<!-- Node60&#45;&gt;Node63 -->
<g id="edge9" class="edge">
<title>Node60&#45;&gt;Node63</title>
<path fill="none" stroke="#191970" d="M507.2474,-463.5C538.8474,-463.5 580.8277,-463.5 613.0909,-463.5"/>
<polygon fill="#191970" stroke="#191970" points="613.1991,-467.0001 623.1991,-463.5 613.1991,-460.0001 613.1991,-467.0001"/>
</g>
<!-- Node64 -->
<g id="node11" class="node">
<title>Node64</title>
<g id="a_node11"><a xlink:href="../../d8/d3c/classBezier.html#a8eafe13ca84602a858eba24b6e94203d" target="_top" xlink:title=" ">
<polygon fill="#ffffff" stroke="#000000" points="603.5,-252 603.5,-271 720.5,-271 720.5,-252 603.5,-252"/>
<text text-anchor="middle" x="662" y="-259" font-family="Helvetica,sans-Serif" font-size="10.00" fill="#000000">Bezier::fromElement</text>
</a>
</g>
</g>
<!-- Node60&#45;&gt;Node64 -->
<g id="edge10" class="edge">
<title>Node60&#45;&gt;Node64</title>
<path fill="none" stroke="#191970" d="M507.0027,-461.8958C520.1565,-459.2527 533.5079,-454.1159 543,-444.5 595.4245,-391.392 526.4694,-333.5031 579,-280.5 583.2664,-276.1952 588.2952,-272.782 593.7327,-270.0851"/>
<polygon fill="#191970" stroke="#191970" points="595.2879,-273.2301 603.2071,-266.1918 592.6273,-266.7554 595.2879,-273.2301"/>
</g>
<!-- Node69 -->
<g id="node16" class="node">
<title>Node69</title>
<g id="a_node16"><a xlink:href="../../d8/d86/classInfoGraphicsView.html#affc2b4116564bc7254f64262472391d0" target="_top" xlink:title=" ">
<polygon fill="#ffffff" stroke="#000000" points="589,-366.5 589,-396.5 735,-396.5 735,-366.5 589,-366.5"/>
<text text-anchor="start" x="597" y="-384.5" font-family="Helvetica,sans-Serif" font-size="10.00" fill="#000000">InfoGraphicsView::getWire</text>
<text text-anchor="middle" x="662" y="-373.5" font-family="Helvetica,sans-Serif" font-size="10.00" fill="#000000">StrokeWidth</text>
</a>
</g>
</g>
<!-- Node60&#45;&gt;Node69 -->
<g id="edge15" class="edge">
<title>Node60&#45;&gt;Node69</title>
<path fill="none" stroke="#191970" d="M507.3916,-457.1067C519.4234,-454.2934 532.0776,-450.2628 543,-444.5 562.197,-434.3714 560.4325,-422.741 579,-411.5 585.8956,-407.3253 593.4623,-403.5995 601.1331,-400.3143"/>
<polygon fill="#191970" stroke="#191970" points="602.5448,-403.5189 610.5033,-396.5252 599.9205,-397.0294 602.5448,-403.5189"/>
</g>
<!-- Node70 -->
<g id="node17" class="node">
<title>Node70</title>
<g id="a_node17"><a xlink:href="../../d8/d3c/classBezier.html#aec0fe0ef3264fbc54ca7e5808470f1ac" target="_top" xlink:title=" ">
<polygon fill="#ffffff" stroke="#000000" points="615.5,-328 615.5,-347 708.5,-347 708.5,-328 615.5,-328"/>
<text text-anchor="middle" x="662" y="-335" font-family="Helvetica,sans-Serif" font-size="10.00" fill="#000000">Bezier::isEmpty</text>
</a>
</g>
</g>
<!-- Node60&#45;&gt;Node70 -->
<g id="edge16" class="edge">
<title>Node60&#45;&gt;Node70</title>
<path fill="none" stroke="#191970" d="M507.3094,-460.592C520.02,-457.8473 533.0477,-452.9811 543,-444.5 575.1629,-417.0915 546.7824,-383.8442 579,-356.5 586.6075,-350.0433 595.9736,-345.6705 605.6421,-342.7317"/>
<polygon fill="#191970" stroke="#191970" points="606.5366,-346.1156 615.3574,-340.2467 604.802,-339.3339 606.5366,-346.1156"/>
</g>
<!-- Node71 -->
<g id="node18" class="node">
<title>Node71</title>
<g id="a_node18"><a xlink:href="../../d7/dfe/classGraphicsUtils.html#a7642de202f74f9645bd9c0e886624a77" target="_top" xlink:title=" ">
<polygon fill="#ffffff" stroke="#000000" points="590.5,-290 590.5,-309 733.5,-309 733.5,-290 590.5,-290"/>
<text text-anchor="middle" x="662" y="-297" font-family="Helvetica,sans-Serif" font-size="10.00" fill="#000000">GraphicsUtils::mils2pixels</text>
</a>
</g>
</g>
<!-- Node60&#45;&gt;Node71 -->
<g id="edge17" class="edge">
<title>Node60&#45;&gt;Node71</title>
<path fill="none" stroke="#191970" d="M507.0684,-461.4444C520.07,-458.7617 533.3186,-453.7158 543,-444.5 585.1843,-404.3442 536.7355,-358.5713 579,-318.5 580.4884,-317.0888 582.0593,-315.7748 583.6994,-314.5515"/>
<polygon fill="#191970" stroke="#191970" points="585.7502,-317.3985 592.4144,-309.1621 582.0684,-311.4449 585.7502,-317.3985"/>
</g>
<!-- Node72 -->
<g id="node19" class="node">
<title>Node72</title>
<g id="a_node19"><a xlink:href="../../d4/d4f/classItemBase.html#ab1484692ebea9a39e103002ea06421ab" target="_top" xlink:title=" ">
<polygon fill="#ffffff" stroke="#000000" points="793,-426.5 793,-456.5 948,-456.5 948,-426.5 793,-426.5"/>
<text text-anchor="start" x="801" y="-444.5" font-family="Helvetica,sans-Serif" font-size="10.00" fill="#000000">ItemBase::prepareGeometry</text>
<text text-anchor="middle" x="870.5" y="-433.5" font-family="Helvetica,sans-Serif" font-size="10.00" fill="#000000">Change</text>
</a>
</g>
</g>
<!-- Node60&#45;&gt;Node72 -->
<g id="edge18" class="edge">
<title>Node60&#45;&gt;Node72</title>
<path fill="none" stroke="#191970" d="M507.0589,-454.5003C528.7522,-450.6349 555.1166,-446.5423 579,-444.5 647.1442,-438.673 724.5724,-438.1619 782.4944,-438.9781"/>
<polygon fill="#191970" stroke="#191970" points="782.6565,-442.481 792.7103,-439.1386 782.7666,-435.4819 782.6565,-442.481"/>
</g>
<!-- Node73 -->
<g id="node20" class="node">
<title>Node73</title>
<g id="a_node20"><a xlink:href="../../dc/d3a/classConnectorItem.html#a9db3e9a8e9a67433a39b3c12aa8fe442" target="_top" xlink:title=" ">
<polygon fill="#ffffff" stroke="#000000" points="579,-132.5 579,-162.5 745,-162.5 745,-132.5 579,-132.5"/>
<text text-anchor="start" x="587" y="-150.5" font-family="Helvetica,sans-Serif" font-size="10.00" fill="#000000">ConnectorItem::sceneAdjusted</text>
<text text-anchor="middle" x="662" y="-139.5" font-family="Helvetica,sans-Serif" font-size="10.00" fill="#000000">TerminalPoint</text>
</a>
</g>
</g>
<!-- Node60&#45;&gt;Node73 -->
<g id="edge19" class="edge">
<title>Node60&#45;&gt;Node73</title>
<path fill="none" stroke="#191970" d="M507.2372,-462.1227C520.4021,-459.4904 533.7007,-454.3025 543,-444.5 605.7624,-378.3416 539.5625,-324.7237 579,-242.5 592.7355,-213.8627 617.5441,-187.1847 636.4725,-169.436"/>
<polygon fill="#191970" stroke="#191970" points="638.9005,-171.9585 643.9171,-162.6266 634.176,-166.7933 638.9005,-171.9585"/>
</g>
<!-- Node83 -->
<g id="node30" class="node">
<title>Node83</title>
<g id="a_node30"><a xlink:href="../../d8/d3c/classBezier.html#a3152ca2940ed500e564f8fd03bf41b77" target="_top" xlink:title=" ">
<polygon fill="#ffffff" stroke="#000000" points="601,-644 601,-663 723,-663 723,-644 601,-644"/>
<text text-anchor="middle" x="662" y="-651" font-family="Helvetica,sans-Serif" font-size="10.00" fill="#000000">Bezier::set_endpoints</text>
</a>
</g>
</g>
<!-- Node60&#45;&gt;Node83 -->
<g id="edge30" class="edge">
<title>Node60&#45;&gt;Node83</title>
<path fill="none" stroke="#191970" d="M465.1227,-473.1142C476.7086,-502.4752 515.841,-591.5776 579,-634.5 582.8169,-637.0939 586.9372,-639.3378 591.2301,-641.2783"/>
<polygon fill="#191970" stroke="#191970" points="590.2659,-644.6599 600.8532,-645.0603 592.8264,-638.145 590.2659,-644.6599"/>
</g>
<!-- Node84 -->
<g id="node31" class="node">
<title>Node84</title>
<g id="a_node31"><a xlink:href="../../d7/d64/classWire.html#ae75212720949fd8c7cfec0a4736be154" target="_top" xlink:title=" ">
<polygon fill="#ffffff" stroke="#000000" points="586.5,-606 586.5,-625 737.5,-625 737.5,-606 586.5,-606"/>
<text text-anchor="middle" x="662" y="-613" font-family="Helvetica,sans-Serif" font-size="10.00" fill="#000000">Wire::setColorFromElement</text>
</a>
</g>
</g>
<!-- Node60&#45;&gt;Node84 -->
<g id="edge31" class="edge">
<title>Node60&#45;&gt;Node84</title>
<path fill="none" stroke="#191970" d="M466.9515,-473.0286C481.6017,-497.7153 524.4351,-564.0795 579,-596.5 582.6457,-598.6662 586.5167,-600.5854 590.5165,-602.286"/>
<polygon fill="#191970" stroke="#191970" points="589.4463,-605.6228 600.0383,-605.8701 591.9123,-599.0715 589.4463,-605.6228"/>
</g>
<!-- Node93 -->
<g id="node40" class="node">
<title>Node93</title>
<g id="a_node40"><a xlink:href="../../d7/d64/classWire.html#a1e9190263e98f7fb51275b370af6168b" target="_top" xlink:title=" ">
<polygon fill="#ffffff" stroke="#000000" points="606.5,-568 606.5,-587 717.5,-587 717.5,-568 606.5,-568"/>
<text text-anchor="middle" x="662" y="-575" font-family="Helvetica,sans-Serif" font-size="10.00" fill="#000000">Wire::setWireWidth</text>
</a>
</g>
</g>
<!-- Node60&#45;&gt;Node93 -->
<g id="edge42" class="edge">
<title>Node60&#45;&gt;Node93</title>
<path fill="none" stroke="#191970" d="M470.2174,-473.005C488.4477,-492.2759 532.7581,-536.0214 579,-558.5 584.5838,-561.2144 590.5696,-563.5495 596.675,-565.5567"/>
<polygon fill="#191970" stroke="#191970" points="595.7434,-568.9313 606.3272,-568.4485 597.7524,-562.2258 595.7434,-568.9313"/>
</g>
<!-- Node65 -->
<g id="node12" class="node">
<title>Node65</title>
<g id="a_node12"><a xlink:href="../../d8/d3c/classBezier.html#a0996dfa95ee42e7b107a1c2c11fb9e41" target="_top" xlink:title=" ">
<polygon fill="#ffffff" stroke="#000000" points="825,-290 825,-309 916,-309 916,-290 825,-290"/>
<text text-anchor="middle" x="870.5" y="-297" font-family="Helvetica,sans-Serif" font-size="10.00" fill="#000000">Bezier::set_cp0</text>
</a>
</g>
</g>
<!-- Node64&#45;&gt;Node65 -->
<g id="edge11" class="edge">
<title>Node64&#45;&gt;Node65</title>
<path fill="none" stroke="#191970" d="M714.3442,-271.04C745.0394,-276.6343 783.7949,-283.6976 815.0171,-289.388"/>
<polygon fill="#191970" stroke="#191970" points="814.4041,-292.8339 824.8697,-291.1837 815.6593,-285.9473 814.4041,-292.8339"/>
</g>
<!-- Node67 -->
<g id="node14" class="node">
<title>Node67</title>
<g id="a_node14"><a xlink:href="../../d8/d3c/classBezier.html#a7a358764d13519a86c65fc886cb42dff" target="_top" xlink:title=" ">
<polygon fill="#ffffff" stroke="#000000" points="825,-252 825,-271 916,-271 916,-252 825,-252"/>
<text text-anchor="middle" x="870.5" y="-259" font-family="Helvetica,sans-Serif" font-size="10.00" fill="#000000">Bezier::set_cp1</text>
</a>
</g>
</g>
<!-- Node64&#45;&gt;Node67 -->
<g id="edge13" class="edge">
<title>Node64&#45;&gt;Node67</title>
<path fill="none" stroke="#191970" d="M720.6337,-261.5C750.0267,-261.5 785.446,-261.5 814.4699,-261.5"/>
<polygon fill="#191970" stroke="#191970" points="814.8506,-265.0001 824.8505,-261.5 814.8505,-258.0001 814.8506,-265.0001"/>
</g>
<!-- Node66 -->
<g id="node13" class="node">
<title>Node66</title>
<g id="a_node13"><a xlink:href="../../d8/d3c/classBezier.html#a2414f8c161c4a4fed536113237cb35ec" target="_top" xlink:title=" ">
<polygon fill="#ffffff" stroke="#000000" points="1047,-290 1047,-309 1118,-309 1118,-290 1047,-290"/>
<text text-anchor="middle" x="1082.5" y="-297" font-family="Helvetica,sans-Serif" font-size="10.00" fill="#000000">Bezier::cp0</text>
</a>
</g>
</g>
<!-- Node65&#45;&gt;Node66 -->
<g id="edge12" class="edge">
<title>Node65&#45;&gt;Node66</title>
<path fill="none" stroke="#191970" d="M916.2398,-299.5C951.9132,-299.5 1001.2219,-299.5 1036.8678,-299.5"/>
<polygon fill="#191970" stroke="#191970" points="1036.9983,-303.0001 1046.9982,-299.5 1036.9982,-296.0001 1036.9983,-303.0001"/>
</g>
<!-- Node68 -->
<g id="node15" class="node">
<title>Node68</title>
<g id="a_node15"><a xlink:href="../../d8/d3c/classBezier.html#ab31ae58e9814f75281175355a1b1abe1" target="_top" xlink:title=" ">
<polygon fill="#ffffff" stroke="#000000" points="1047,-252 1047,-271 1118,-271 1118,-252 1047,-252"/>
<text text-anchor="middle" x="1082.5" y="-259" font-family="Helvetica,sans-Serif" font-size="10.00" fill="#000000">Bezier::cp1</text>
</a>
</g>
</g>
<!-- Node67&#45;&gt;Node68 -->
<g id="edge14" class="edge">
<title>Node67&#45;&gt;Node68</title>
<path fill="none" stroke="#191970" d="M916.2398,-261.5C951.9132,-261.5 1001.2219,-261.5 1036.8678,-261.5"/>
<polygon fill="#191970" stroke="#191970" points="1036.9983,-265.0001 1046.9982,-261.5 1036.9982,-258.0001 1036.9983,-265.0001"/>
</g>
<!-- Node73&#45;&gt;Node73 -->
<g id="edge29" class="edge">
<title>Node73&#45;&gt;Node73</title>
<path fill="none" stroke="#191970" d="M627.1459,-162.659C618.7413,-172.0566 630.3594,-181 662,-181 681.281,-181 693.1269,-177.679 697.5376,-172.9579"/>
<polygon fill="#191970" stroke="#191970" points="701.0087,-172.4053 696.8541,-162.659 694.0241,-172.8688 701.0087,-172.4053"/>
</g>
<!-- Node74 -->
<g id="node21" class="node">
<title>Node74</title>
<g id="a_node21"><a xlink:href="../../dc/d3a/classConnectorItem.html#aa279dff4c65b0bb8a48056347a1b2520" target="_top" xlink:title=" ">
<polygon fill="#ffffff" stroke="#000000" points="781,-88.5 781,-118.5 960,-118.5 960,-88.5 781,-88.5"/>
<text text-anchor="start" x="789" y="-106.5" font-family="Helvetica,sans-Serif" font-size="10.00" fill="#000000">ConnectorItem::adjustedTerminal</text>
<text text-anchor="middle" x="870.5" y="-95.5" font-family="Helvetica,sans-Serif" font-size="10.00" fill="#000000">Point</text>
</a>
</g>
</g>
<!-- Node73&#45;&gt;Node74 -->
<g id="edge20" class="edge">
<title>Node73&#45;&gt;Node74</title>
<path fill="none" stroke="#191970" d="M733.1707,-132.4808C751.2704,-128.6612 770.8542,-124.5284 789.4074,-120.6131"/>
<polygon fill="#191970" stroke="#191970" points="790.2345,-124.0157 799.2963,-118.5262 788.7891,-117.1665 790.2345,-124.0157"/>
</g>
<!-- Node77 -->
<g id="node24" class="node">
<title>Node77</title>
<g id="a_node24"><a xlink:href="../../dc/d09/classNonConnectorItem.html#a1452f3637c83b50fbd089f9c4b4518b6" target="_top" xlink:title=" ">
<polygon fill="#ffffff" stroke="#000000" points="787,-50 787,-69 954,-69 954,-50 787,-50"/>
<text text-anchor="middle" x="870.5" y="-57" font-family="Helvetica,sans-Serif" font-size="10.00" fill="#000000">NonConnectorItem::attachedTo</text>
</a>
</g>
</g>
<!-- Node73&#45;&gt;Node77 -->
<g id="edge23" class="edge">
<title>Node73&#45;&gt;Node77</title>
<path fill="none" stroke="#191970" d="M683.3201,-132.3324C706.36,-116.6302 744.6699,-92.4793 781,-78.5 787.8287,-75.8724 795.0976,-73.5753 802.4272,-71.5747"/>
<polygon fill="#191970" stroke="#191970" points="803.598,-74.8883 812.4241,-69.0274 801.8695,-68.1051 803.598,-74.8883"/>
</g>
<!-- Node78 -->
<g id="node25" class="node">
<title>Node78</title>
<g id="a_node25"><a xlink:href="../../dc/d09/classNonConnectorItem.html#a9a1e80518fb866bab2bd1fa7fe0965db" target="_top" xlink:title=" ">
<polygon fill="#ffffff" stroke="#000000" points="792,-.5 792,-30.5 949,-30.5 949,-.5 792,-.5"/>
<text text-anchor="start" x="800" y="-18.5" font-family="Helvetica,sans-Serif" font-size="10.00" fill="#000000">NonConnectorItem::attached</text>
<text text-anchor="middle" x="870.5" y="-7.5" font-family="Helvetica,sans-Serif" font-size="10.00" fill="#000000">ToItemType</text>
</a>
</g>
</g>
<!-- Node73&#45;&gt;Node78 -->
<g id="edge24" class="edge">
<title>Node73&#45;&gt;Node78</title>
<path fill="none" stroke="#191970" d="M674.6402,-132.3322C694.7769,-109.1391 736.4387,-64.9812 781,-40.5 785.0055,-38.2994 789.2205,-36.2798 793.5495,-34.4279"/>
<polygon fill="#191970" stroke="#191970" points="795.1507,-37.559 803.1716,-30.6368 792.5846,-31.0462 795.1507,-37.559"/>
</g>
<!-- Node79 -->
<g id="node26" class="node">
<title>Node79</title>
<g id="a_node26"><a xlink:href="../../d7/dfe/classGraphicsUtils.html#a720808c811cf100be0758d271ba2afce" target="_top" xlink:title=" ">
<polygon fill="#ffffff" stroke="#000000" points="783.5,-214 783.5,-233 957.5,-233 957.5,-214 783.5,-214"/>
<text text-anchor="middle" x="870.5" y="-221" font-family="Helvetica,sans-Serif" font-size="10.00" fill="#000000">GraphicsUtils::distanceFromLine</text>
</a>
</g>
</g>
<!-- Node73&#45;&gt;Node79 -->
<g id="edge25" class="edge">
<title>Node73&#45;&gt;Node79</title>
<path fill="none" stroke="#191970" d="M688.6408,-162.5255C712.2648,-175.293 748.0363,-193.2848 781,-204.5 788.8902,-207.1845 797.3058,-209.5667 805.6999,-211.6578"/>
<polygon fill="#191970" stroke="#191970" points="804.9739,-215.0826 815.5112,-213.9794 806.5859,-208.2707 804.9739,-215.0826"/>
</g>
<!-- Node80 -->
<g id="node27" class="node">
<title>Node80</title>
<g id="a_node27"><a xlink:href="../../d4/d4f/classItemBase.html#a7565ba05974fedf75bb75923b18bca1a" target="_top" xlink:title=" ">
<polygon fill="#ffffff" stroke="#000000" points="806.5,-176 806.5,-195 934.5,-195 934.5,-176 806.5,-176"/>
<text text-anchor="middle" x="870.5" y="-183" font-family="Helvetica,sans-Serif" font-size="10.00" fill="#000000">ItemBase::getRatsnest</text>
</a>
</g>
</g>
<!-- Node73&#45;&gt;Node80 -->
<g id="edge26" class="edge">
<title>Node73&#45;&gt;Node80</title>
<path fill="none" stroke="#191970" d="M744.4047,-162.5186C765.7299,-166.4052 788.332,-170.5245 808.4212,-174.1859"/>
<polygon fill="#191970" stroke="#191970" points="807.9044,-177.6493 818.3699,-175.9991 809.1596,-170.7627 807.9044,-177.6493"/>
</g>
<!-- Node82 -->
<g id="node29" class="node">
<title>Node82</title>
<g id="a_node29"><a xlink:href="../../d7/d64/classWire.html#a45d0e341658a356ad227b1f5171cfa18" target="_top" xlink:title=" ">
<polygon fill="#ffffff" stroke="#000000" points="810.5,-138 810.5,-157 930.5,-157 930.5,-138 810.5,-138"/>
<text text-anchor="middle" x="870.5" y="-145" font-family="Helvetica,sans-Serif" font-size="10.00" fill="#000000">Wire::otherConnector</text>
</a>
</g>
</g>
<!-- Node73&#45;&gt;Node82 -->
<g id="edge28" class="edge">
<title>Node73&#45;&gt;Node82</title>
<path fill="none" stroke="#191970" d="M745.0038,-147.5C763.2306,-147.5 782.3622,-147.5 800.0403,-147.5"/>
<polygon fill="#191970" stroke="#191970" points="800.2632,-151.0001 810.2631,-147.5 800.2631,-144.0001 800.2632,-151.0001"/>
</g>
<!-- Node75 -->
<g id="node22" class="node">
<title>Node75</title>
<g id="a_node22"><a xlink:href="../../d7/d2d/classSvgIdLayer.html#acdaf551c0efe7ce5b7197185c60f7b64" target="_top" xlink:title=" ">
<polygon fill="#ffffff" stroke="#000000" points="1035,-94 1035,-113 1130,-113 1130,-94 1035,-94"/>
<text text-anchor="middle" x="1082.5" y="-101" font-family="Helvetica,sans-Serif" font-size="10.00" fill="#000000">SvgIdLayer::rect</text>
</a>
</g>
</g>
<!-- Node74&#45;&gt;Node75 -->
<g id="edge21" class="edge">
<title>Node74&#45;&gt;Node75</title>
<path fill="none" stroke="#191970" d="M960.0998,-103.5C981.9446,-103.5 1004.7417,-103.5 1024.6582,-103.5"/>
<polygon fill="#191970" stroke="#191970" points="1024.7905,-107.0001 1034.7904,-103.5 1024.7904,-100.0001 1024.7905,-107.0001"/>
</g>
<!-- Node76 -->
<g id="node23" class="node">
<title>Node76</title>
<g id="a_node23"><a xlink:href="../../d1/d88/classPointRect.html#a35106398b82d6e7cacb0c7754cdfa9b8" target="_top" xlink:title=" ">
<polygon fill="#ffffff" stroke="#000000" points="1225,-94 1225,-113 1332,-113 1332,-94 1225,-94"/>
<text text-anchor="middle" x="1278.5" y="-101" font-family="Helvetica,sans-Serif" font-size="10.00" fill="#000000">PointRect::getRect</text>
</a>
</g>
</g>
<!-- Node75&#45;&gt;Node76 -->
<g id="edge22" class="edge">
<title>Node75&#45;&gt;Node76</title>
<path fill="none" stroke="#191970" d="M1130.1964,-103.5C1155.5166,-103.5 1186.9836,-103.5 1214.4091,-103.5"/>
<polygon fill="#191970" stroke="#191970" points="1214.7012,-107.0001 1224.7011,-103.5 1214.7011,-100.0001 1214.7012,-107.0001"/>
</g>
<!-- Node81 -->
<g id="node28" class="node">
<title>Node81</title>
<g id="a_node28"><a xlink:href="../../d3/de8/classViewGeometry.html#a11ca759a75de95be900ac023617a1858" target="_top" xlink:title=" ">
<polygon fill="#ffffff" stroke="#000000" points="1006,-176 1006,-195 1159,-195 1159,-176 1006,-176"/>
<text text-anchor="middle" x="1082.5" y="-183" font-family="Helvetica,sans-Serif" font-size="10.00" fill="#000000">ViewGeometry::getRatsnest</text>
</a>
</g>
</g>
<!-- Node80&#45;&gt;Node81 -->
<g id="edge27" class="edge">
<title>Node80&#45;&gt;Node81</title>
<path fill="none" stroke="#191970" d="M934.6823,-185.5C953.8653,-185.5 975.2244,-185.5 995.6084,-185.5"/>
<polygon fill="#191970" stroke="#191970" points="995.8414,-189.0001 1005.8414,-185.5 995.8414,-182.0001 995.8414,-189.0001"/>
</g>
<!-- Node85 -->
<g id="node32" class="node">
<title>Node85</title>
<g id="a_node32"><a xlink:href="../../d7/d64/classWire.html#ad1932b30b3173ea325a982af4d458125" target="_top" xlink:title=" ">
<polygon fill="#ffffff" stroke="#000000" points="1033.5,-732 1033.5,-751 1131.5,-751 1131.5,-732 1033.5,-732"/>
<text text-anchor="middle" x="1082.5" y="-739" font-family="Helvetica,sans-Serif" font-size="10.00" fill="#000000">Wire::colorString</text>
</a>
</g>
</g>
<!-- Node84&#45;&gt;Node85 -->
<g id="edge32" class="edge">
<title>Node84&#45;&gt;Node85</title>
<path fill="none" stroke="#191970" d="M720.4168,-625.0755C728.9029,-627.5422 737.348,-630.6325 745,-634.5 763.8445,-644.0244 762.3207,-655.6556 781,-665.5 868.4546,-711.5906 899.9227,-699.2237 996,-722.5 1006.0784,-724.9417 1016.8503,-727.4156 1027.2508,-729.7352"/>
<polygon fill="#191970" stroke="#191970" points="1026.5541,-733.1657 1037.0738,-731.9059 1028.0646,-726.3306 1026.5541,-733.1657"/>
</g>
<!-- Node86 -->
<g id="node33" class="node">
<title>Node86</title>
<g id="a_node33"><a xlink:href="../../d7/d64/classWire.html#a9253149b1f7a9402fe7aa952447ab68d" target="_top" xlink:title=" ">
<polygon fill="#ffffff" stroke="#000000" points="813.5,-637 813.5,-656 927.5,-656 927.5,-637 813.5,-637"/>
<text text-anchor="middle" x="870.5" y="-644" font-family="Helvetica,sans-Serif" font-size="10.00" fill="#000000">Wire::setColorString</text>
</a>
</g>
</g>
<!-- Node84&#45;&gt;Node86 -->
<g id="edge33" class="edge">
<title>Node84&#45;&gt;Node86</title>
<path fill="none" stroke="#191970" d="M725.9738,-625.0117C750.4878,-628.6565 778.5129,-632.8233 803.3187,-636.5114"/>
<polygon fill="#191970" stroke="#191970" points="802.9648,-639.9972 813.3708,-638.006 803.9943,-633.0733 802.9648,-639.9972"/>
</g>
<!-- Node86&#45;&gt;Node85 -->
<g id="edge34" class="edge">
<title>Node86&#45;&gt;Node85</title>
<path fill="none" stroke="#191970" d="M883.2977,-656.2332C905.1934,-672.4148 951.7718,-704.816 996,-722.5 1004.5971,-725.9374 1013.9359,-728.809 1023.1918,-731.1908"/>
<polygon fill="#191970" stroke="#191970" points="1022.6229,-734.6536 1033.1639,-733.5866 1024.2582,-727.8473 1022.6229,-734.6536"/>
</g>
<!-- Node87 -->
<g id="node34" class="node">
<title>Node87</title>
<g id="a_node34"><a xlink:href="../../d7/d64/classWire.html#aa5265472f5bc32c92483e88750b7bdb3" target="_top" xlink:title=" ">
<polygon fill="#ffffff" stroke="#000000" points="1039.5,-694 1039.5,-713 1125.5,-713 1125.5,-694 1039.5,-694"/>
<text text-anchor="middle" x="1082.5" y="-701" font-family="Helvetica,sans-Serif" font-size="10.00" fill="#000000">Wire::setColor</text>
</a>
</g>
</g>
<!-- Node86&#45;&gt;Node87 -->
<g id="edge35" class="edge">
<title>Node86&#45;&gt;Node87</title>
<path fill="none" stroke="#191970" d="M899.7318,-656.0559C925.0508,-664.1631 962.7373,-675.8251 996,-684.5 1006.7073,-687.2925 1018.2307,-690.0165 1029.2651,-692.4898"/>
<polygon fill="#191970" stroke="#191970" points="1028.7048,-695.9503 1039.2239,-694.6856 1030.2121,-689.1144 1028.7048,-695.9503"/>
</g>
<!-- Node89 -->
<g id="node36" class="node">
<title>Node89</title>
<g id="a_node36"><a xlink:href="../../d7/d64/classWire.html#af5b7ddb7f0b8317d061d7b21fc548b05" target="_top" xlink:title=" ">
<polygon fill="#ffffff" stroke="#000000" points="1020.5,-618 1020.5,-637 1144.5,-637 1144.5,-618 1020.5,-618"/>
<text text-anchor="middle" x="1082.5" y="-625" font-family="Helvetica,sans-Serif" font-size="10.00" fill="#000000">Wire::setShadowColor</text>
</a>
</g>
</g>
<!-- Node86&#45;&gt;Node89 -->
<g id="edge37" class="edge">
<title>Node86&#45;&gt;Node89</title>
<path fill="none" stroke="#191970" d="M927.591,-641.3834C953.0376,-639.1028 983.3007,-636.3905 1010.2972,-633.971"/>
<polygon fill="#191970" stroke="#191970" points="1010.8195,-637.4383 1020.4671,-633.0596 1010.1946,-630.4663 1010.8195,-637.4383"/>
</g>
<!-- Node90 -->
<g id="node37" class="node">
<title>Node90</title>
<g id="a_node37"><a xlink:href="../../d1/db9/classRatsnestColors.html#a4c3575dbc6a97d99c267c917125923f7" target="_top" xlink:title=" ">
<polygon fill="#ffffff" stroke="#000000" points="1003,-656 1003,-675 1162,-675 1162,-656 1003,-656"/>
<text text-anchor="middle" x="1082.5" y="-663" font-family="Helvetica,sans-Serif" font-size="10.00" fill="#000000">RatsnestColors::shadowColor</text>
</a>
</g>
</g>
<!-- Node86&#45;&gt;Node90 -->
<g id="edge39" class="edge">
<title>Node86&#45;&gt;Node90</title>
<path fill="none" stroke="#191970" d="M927.591,-651.6166C947.585,-653.4086 970.5525,-655.467 992.5726,-657.4405"/>
<polygon fill="#191970" stroke="#191970" points="992.3366,-660.9333 1002.6091,-658.34 992.9615,-653.9612 992.3366,-660.9333"/>
</g>
<!-- Node91 -->
<g id="node38" class="node">
<title>Node91</title>
<g id="a_node38"><a xlink:href="../../d1/db9/classRatsnestColors.html#a3054ef81f4552922e1941685dece5f3e" target="_top" xlink:title=" ">
<polygon fill="#ffffff" stroke="#000000" points="1011,-580 1011,-599 1154,-599 1154,-580 1011,-580"/>
<text text-anchor="middle" x="1082.5" y="-587" font-family="Helvetica,sans-Serif" font-size="10.00" fill="#000000">RatsnestColors::wireColor</text>
</a>
</g>
</g>
<!-- Node86&#45;&gt;Node91 -->
<g id="edge40" class="edge">
<title>Node86&#45;&gt;Node91</title>
<path fill="none" stroke="#191970" d="M899.7318,-636.9441C925.0508,-628.8369 962.7373,-617.1749 996,-608.5 1005.5961,-605.9973 1015.8478,-603.5497 1025.8154,-601.2881"/>
<polygon fill="#191970" stroke="#191970" points="1026.6556,-604.6868 1035.6536,-599.0935 1025.1315,-597.8547 1026.6556,-604.6868"/>
</g>
<!-- Node88 -->
<g id="node35" class="node">
<title>Node88</title>
<g id="a_node35"><a xlink:href="../../d7/d64/classWire.html#a82da123585fcc7357a4b13f5d7e73d83" target="_top" xlink:title=" ">
<polygon fill="#ffffff" stroke="#000000" points="1244,-656 1244,-675 1313,-675 1313,-656 1244,-656"/>
<text text-anchor="middle" x="1278.5" y="-663" font-family="Helvetica,sans-Serif" font-size="10.00" fill="#000000">Wire::color</text>
</a>
</g>
</g>
<!-- Node87&#45;&gt;Node88 -->
<g id="edge36" class="edge">
<title>Node87&#45;&gt;Node88</title>
<path fill="none" stroke="#191970" d="M1125.513,-695.1607C1157.543,-688.9508 1201.1597,-680.4945 1233.6268,-674.1999"/>
<polygon fill="#191970" stroke="#191970" points="1234.5965,-677.5772 1243.7475,-672.2377 1233.2641,-670.7051 1234.5965,-677.5772"/>
</g>
<!-- Node89&#45;&gt;Node88 -->
<g id="edge38" class="edge">
<title>Node89&#45;&gt;Node88</title>
<path fill="none" stroke="#191970" d="M1131.7061,-637.04C1163.085,-643.1236 1203.4245,-650.9445 1233.8729,-656.8478"/>
<polygon fill="#191970" stroke="#191970" points="1233.309,-660.3036 1243.7924,-658.771 1234.6414,-653.4315 1233.309,-660.3036"/>
</g>
<!-- Node92 -->
<g id="node39" class="node">
<title>Node92</title>
<g id="a_node39"><a xlink:href="../../d8/d88/classRatsnestColor.html#a52d99501ef1e33afa1256c4be2c4c264" target="_top" xlink:title=" ">
<polygon fill="#ffffff" stroke="#000000" points="1205,-580 1205,-599 1352,-599 1352,-580 1205,-580"/>
<text text-anchor="middle" x="1278.5" y="-587" font-family="Helvetica,sans-Serif" font-size="10.00" fill="#000000">RatsnestColor::matchColor</text>
</a>
</g>
</g>
<!-- Node91&#45;&gt;Node92 -->
<g id="edge41" class="edge">
<title>Node91&#45;&gt;Node92</title>
<path fill="none" stroke="#191970" d="M1154.0925,-589.5C1167.251,-589.5 1181.096,-589.5 1194.5779,-589.5"/>
<polygon fill="#191970" stroke="#191970" points="1194.7995,-593.0001 1204.7995,-589.5 1194.7995,-586.0001 1194.7995,-593.0001"/>
</g>
<!-- Node93&#45;&gt;Node72 -->
<g id="edge44" class="edge">
<title>Node93&#45;&gt;Node72</title>
<path fill="none" stroke="#191970" d="M717.7273,-571.8231C727.5102,-568.9309 737.0792,-564.6891 745,-558.5 772.8786,-536.7162 756.0513,-512.5861 781,-487.5 791.7102,-476.7308 805.4679,-467.9709 818.968,-461.0977"/>
<polygon fill="#191970" stroke="#191970" points="820.7394,-464.1295 828.2325,-456.6392 817.7039,-457.8219 820.7394,-464.1295"/>
</g>
<!-- Node94 -->
<g id="node41" class="node">
<title>Node94</title>
<g id="a_node41"><a xlink:href="../../d7/d64/classWire.html#af3308e4a97fbc9f858c73f4438714a7d" target="_top" xlink:title=" ">
<polygon fill="#ffffff" stroke="#000000" points="1016.5,-492 1016.5,-511 1148.5,-511 1148.5,-492 1016.5,-492"/>
<text text-anchor="middle" x="1082.5" y="-499" font-family="Helvetica,sans-Serif" font-size="10.00" fill="#000000">Wire::hoverStrokeWidth</text>
</a>
</g>
</g>
<!-- Node93&#45;&gt;Node94 -->
<g id="edge43" class="edge">
<title>Node93&#45;&gt;Node94</title>
<path fill="none" stroke="#191970" d="M717.7294,-569.5079C727.1974,-566.8333 736.6554,-563.2637 745,-558.5 765.204,-546.966 759.9285,-530.3603 781,-520.5 851.9855,-487.2827 942.8285,-486.3705 1006.1604,-491.3674"/>
<polygon fill="#191970" stroke="#191970" points="1006.2108,-494.8845 1016.4735,-492.2523 1006.8093,-487.9102 1006.2108,-494.8845"/>
</g>
<!-- Node95 -->
<g id="node42" class="node">
<title>Node95</title>
<g id="a_node42"><a xlink:href="../../d7/d64/classWire.html#a7ad79fcd158550d60e1410df7a90b757" target="_top" xlink:title=" ">
<polygon fill="#ffffff" stroke="#000000" points="817,-568 817,-587 924,-587 924,-568 817,-568"/>
<text text-anchor="middle" x="870.5" y="-575" font-family="Helvetica,sans-Serif" font-size="10.00" fill="#000000">Wire::setPenWidth</text>
</a>
</g>
</g>
<!-- Node93&#45;&gt;Node95 -->
<g id="edge45" class="edge">
<title>Node93&#45;&gt;Node95</title>
<path fill="none" stroke="#191970" d="M717.6003,-577.5C744.9976,-577.5 778.1736,-577.5 806.6111,-577.5"/>
<polygon fill="#191970" stroke="#191970" points="806.8543,-581.0001 816.8542,-577.5 806.8542,-574.0001 806.8543,-581.0001"/>
</g>
<!-- Node97 -->
<g id="node44" class="node">
<title>Node97</title>
<g id="a_node44"><a xlink:href="../../d7/d64/classWire.html#a61f720bcddb682e13496cea01214b66e" target="_top" xlink:title=" ">
<polygon fill="#ffffff" stroke="#000000" points="834.5,-530 834.5,-549 906.5,-549 906.5,-530 834.5,-530"/>
<text text-anchor="middle" x="870.5" y="-537" font-family="Helvetica,sans-Serif" font-size="10.00" fill="#000000">Wire::width</text>
</a>
</g>
</g>
<!-- Node93&#45;&gt;Node97 -->
<g id="edge48" class="edge">
<title>Node93&#45;&gt;Node97</title>
<path fill="none" stroke="#191970" d="M714.3442,-567.96C748.0872,-561.8102 791.5705,-553.8852 824.0792,-547.9604"/>
<polygon fill="#191970" stroke="#191970" points="825.0117,-551.3482 834.2221,-546.1118 823.7566,-544.4616 825.0117,-551.3482"/>
</g>
<!-- Node95&#45;&gt;Node94 -->
<g id="edge47" class="edge">
<title>Node95&#45;&gt;Node94</title>
<path fill="none" stroke="#191970" d="M924.4609,-571.5018C936.661,-568.687 949.1916,-564.5571 960,-558.5 980.2948,-547.1266 975.7453,-531.9448 996,-520.5 999.9468,-518.2699 1004.132,-516.3014 1008.4481,-514.5639"/>
<polygon fill="#191970" stroke="#191970" points="1009.8319,-517.786 1018.0646,-511.1173 1007.4701,-511.1965 1009.8319,-517.786"/>
</g>
<!-- Node96 -->
<g id="node43" class="node">
<title>Node96</title>
<g id="a_node43"><a xlink:href="../../d8/d86/classInfoGraphicsView.html#a60c2752caec4f6673ae8863c4b8be16d" target="_top" xlink:title=" ">
<polygon fill="#ffffff" stroke="#000000" points="996,-530.5 996,-560.5 1169,-560.5 1169,-530.5 996,-530.5"/>
<text text-anchor="start" x="1004" y="-548.5" font-family="Helvetica,sans-Serif" font-size="10.00" fill="#000000">InfoGraphicsView::getBendpoint</text>
<text text-anchor="middle" x="1082.5" y="-537.5" font-family="Helvetica,sans-Serif" font-size="10.00" fill="#000000">Widths</text>
</a>
</g>
</g>
<!-- Node95&#45;&gt;Node96 -->
<g id="edge46" class="edge">
<title>Node95&#45;&gt;Node96</title>
<path fill="none" stroke="#191970" d="M924.2706,-569.3837C943.0147,-566.5544 964.6637,-563.2866 985.8143,-560.0941"/>
<polygon fill="#191970" stroke="#191970" points="986.4466,-563.5384 995.8122,-558.585 985.4018,-556.6168 986.4466,-563.5384"/>
</g>
<!-- Node99 -->
<g id="node46" class="node">
<title>Node99</title>
<g id="a_node46"><a xlink:href="../../df/d8b/classCommandProgress.html#aebf23a39ab6caf18a3e7b3351ad4f49d" target="_top" xlink:title=" ">
<polygon fill="#ffffff" stroke="#000000" points="389,-416 389,-435 534,-435 534,-416 389,-416"/>
<text text-anchor="middle" x="461.5" y="-423" font-family="Helvetica,sans-Serif" font-size="10.00" fill="#000000">CommandProgress::active</text>
</a>
</g>
</g>
<!-- Node98&#45;&gt;Node99 -->
<g id="edge50" class="edge">
<title>Node98&#45;&gt;Node99</title>
<path fill="none" stroke="#191970" d="M325.5599,-425.5C342.2449,-425.5 360.6392,-425.5 378.3614,-425.5"/>
<polygon fill="#191970" stroke="#191970" points="378.7004,-429.0001 388.7004,-425.5 378.7004,-422.0001 378.7004,-429.0001"/>
</g>
<!-- Node100 -->
<g id="node47" class="node">
<title>Node100</title>
<g id="a_node47"><a xlink:href="../../df/d8b/classCommandProgress.html#aaed608918684247a483fd5466be7b551" target="_top" xlink:title=" ">
<polygon fill="#ffffff" stroke="#000000" points="380,-378 380,-397 543,-397 543,-378 380,-378"/>
<text text-anchor="middle" x="461.5" y="-385" font-family="Helvetica,sans-Serif" font-size="10.00" fill="#000000">CommandProgress::emitUndo</text>
</a>
</g>
</g>
<!-- Node98&#45;&gt;Node100 -->
<g id="edge51" class="edge">
<title>Node98&#45;&gt;Node100</title>
<path fill="none" stroke="#191970" d="M314.3316,-415.96C340.9607,-410.8104 374.0266,-404.416 402.0663,-398.9935"/>
<polygon fill="#191970" stroke="#191970" points="402.9946,-402.379 412.1481,-397.0439 401.6654,-395.5063 402.9946,-402.379"/>
</g>
</g>
</svg>
        <g id="navigator" transform="translate(0 0)" fill="#404254">
                <rect fill="#f2f5e9" fill-opacity="0.5" stroke="#606060" stroke-width=".5" x="0" y="0" width="60" height="60"/>
                <use id="zoomplus" xlink:href="#zoomPlus" x="17" y="9" onmousedown="handleZoom(evt,'in')"/>
                <use id="zoomminus" xlink:href="#zoomMin" x="42" y="9" onmousedown="handleZoom(evt,'out')"/>
                <use id="reset" xlink:href="#resetDef" x="30" y="36" onmousedown="handleReset()"/>
                <g id="arrowUp" xlink:href="#dirArrow" transform="translate(30 24)" onmousedown="handlePan(0,-1)">
                  <use xlink:href="#rim" fill="#404040">
                        <set attributeName="fill" to="#808080" begin="arrowUp.mouseover" end="arrowUp.mouseout"/>
                  </use>
                  <path fill="none" stroke="white" stroke-width="1.5" d="M0,-3.0v7 M-2.5,-0.5L0,-3.0L2.5,-0.5"/>
                </g>
                <g id="arrowRight" xlink:href="#dirArrow" transform="rotate(90) translate(36 -43)" onmousedown="handlePan(1,0)">
                  <use xlink:href="#rim" fill="#404040">
                        <set attributeName="fill" to="#808080" begin="arrowRight.mouseover" end="arrowRight.mouseout"/>
                  </use>
                  <path fill="none" stroke="white" stroke-width="1.5" d="M0,-3.0v7 M-2.5,-0.5L0,-3.0L2.5,-0.5"/>
                </g>
                <g id="arrowDown" xlink:href="#dirArrow" transform="rotate(180) translate(-30 -48)" onmousedown="handlePan(0,1)">
                  <use xlink:href="#rim" fill="#404040">
                        <set attributeName="fill" to="#808080" begin="arrowDown.mouseover" end="arrowDown.mouseout"/>
                  </use>
                  <path fill="none" stroke="white" stroke-width="1.5" d="M0,-3.0v7 M-2.5,-0.5L0,-3.0L2.5,-0.5"/>
                </g>
                <g id="arrowLeft" xlink:href="#dirArrow" transform="rotate(270) translate(-36 17)" onmousedown="handlePan(-1,0)">
                  <use xlink:href="#rim" fill="#404040">
                        <set attributeName="fill" to="#808080" begin="arrowLeft.mouseover" end="arrowLeft.mouseout"/>
                  </use>
                  <path fill="none" stroke="white" stroke-width="1.5" d="M0,-3.0v7 M-2.5,-0.5L0,-3.0L2.5,-0.5"/>
                </g>
        </g>
        <svg viewBox="0 0 15 15" width="100%" height="30px" preserveAspectRatio="xMaxYMin meet">
         <g id="arrow_out" transform="scale(0.3 0.3)">
          <a xlink:href="classWireExtrasCommand_a9660b99affc98b573c8eb82baa942857_cgraph_org.svg" target="_base">
           <rect id="button" ry="5" rx="5" y="6" x="6" height="38" width="38"
                fill="#f2f5e9" fill-opacity="0.5" stroke="#606060" stroke-width="1.0"/>
           <path id="arrow"
             d="M 11.500037,31.436501 C 11.940474,20.09759 22.043105,11.32322 32.158766,21.979434 L 37.068811,17.246167 C 37.068811,17.246167 37.088388,32 37.088388,32 L 22.160133,31.978069 C 22.160133,31.978069 26.997745,27.140456 26.997745,27.140456 C 18.528582,18.264221 13.291696,25.230495 11.500037,31.436501 z"
             style="fill:#404040;"/>
          </a>
         </g>
        </svg>
</svg>
