<?xml version="1.0" encoding="UTF-8" standalone="no"?>
<!DOCTYPE svg PUBLIC "-//W3C//DTD SVG 1.1//EN"
 "http://www.w3.org/Graphics/SVG/1.1/DTD/svg11.dtd">
<!-- Generated by graphviz version 2.40.1 (0)
 -->
<!-- Title: HashPopulateWidget::lastRowEditionCompleted Pages: 1 -->
<svg width="473pt" height="39pt"
 viewBox="0.00 0.00 473.00 39.00" xmlns="http://www.w3.org/2000/svg" xmlns:xlink="http://www.w3.org/1999/xlink">
<g id="graph0" class="graph" transform="scale(1 1) rotate(0) translate(4 35)">
<title>HashPopulateWidget::lastRowEditionCompleted</title>
<polygon fill="#ffffff" stroke="transparent" points="-4,4 -4,-35 469,-35 469,4 -4,4"/>
<!-- Node66 -->
<g id="node1" class="node">
<title>Node66</title>
<g id="a_node1"><a xlink:title=" ">
<polygon fill="#bfbfbf" stroke="#000000" points="316,-.5 316,-30.5 465,-30.5 465,-.5 316,-.5"/>
<text text-anchor="start" x="324" y="-18.5" font-family="Helvetica,sans-Serif" font-size="10.00" fill="#000000">HashPopulateWidget</text>
<text text-anchor="middle" x="390.5" y="-7.5" font-family="Helvetica,sans-Serif" font-size="10.00" fill="#000000">::lastRowEditionCompleted</text>
</a>
</g>
</g>
<!-- Node67 -->
<g id="node2" class="node">
<title>Node67</title>
<g id="a_node2"><a xlink:href="../../da/dd3/classHashPopulateWidget.html#a736d6d0c0d10c6b6321245177fa5f52a" target="_top" xlink:title=" ">
<polygon fill="#ffffff" stroke="#000000" points="161,-.5 161,-30.5 280,-30.5 280,-.5 161,-.5"/>
<text text-anchor="start" x="169" y="-18.5" font-family="Helvetica,sans-Serif" font-size="10.00" fill="#000000">HashPopulateWidget</text>
<text text-anchor="middle" x="220.5" y="-7.5" font-family="Helvetica,sans-Serif" font-size="10.00" fill="#000000">::addRow</text>
</a>
</g>
</g>
<!-- Node66&#45;&gt;Node67 -->
<g id="edge1" class="edge">
<title>Node66&#45;&gt;Node67</title>
<path fill="none" stroke="#191970" d="M305.804,-8.75C297.1536,-8.7479 288.4989,-8.8389 280.1985,-9.0231"/>
<polygon fill="#191970" stroke="#191970" points="305.9199,-12.2505 315.9355,-8.7954 305.9513,-5.2506 305.9199,-12.2505"/>
</g>
<!-- Node67&#45;&gt;Node66 -->
<g id="edge3" class="edge">
<title>Node67&#45;&gt;Node66</title>
<path fill="none" stroke="#191970" d="M290.3617,-22.1539C298.7964,-22.262 307.4366,-22.2789 315.9355,-22.2046"/>
<polygon fill="#191970" stroke="#191970" points="290.2579,-18.6517 280.1985,-21.9769 290.1359,-25.6506 290.2579,-18.6517"/>
</g>
<!-- Node68 -->
<g id="node3" class="node">
<title>Node68</title>
<g id="a_node3"><a xlink:href="../../da/dd3/classHashPopulateWidget.html#aa6b8d2e64b1581f5ef9aaaa95d6c0320" target="_top" xlink:title=" ">
<polygon fill="#ffffff" stroke="#000000" points="0,-.5 0,-30.5 125,-30.5 125,-.5 0,-.5"/>
<text text-anchor="start" x="8" y="-18.5" font-family="Helvetica,sans-Serif" font-size="10.00" fill="#000000">HashPopulateWidget</text>
<text text-anchor="middle" x="62.5" y="-7.5" font-family="Helvetica,sans-Serif" font-size="10.00" fill="#000000">::HashPopulateWidget</text>
</a>
</g>
</g>
<!-- Node67&#45;&gt;Node68 -->
<g id="edge2" class="edge">
<title>Node67&#45;&gt;Node68</title>
<path fill="none" stroke="#191970" d="M150.5658,-15.5C142.1242,-15.5 133.5426,-15.5 125.2135,-15.5"/>
<polygon fill="#191970" stroke="#191970" points="150.767,-19.0001 160.767,-15.5 150.7669,-12.0001 150.767,-19.0001"/>
</g>
</g>
</svg>
