<?xml version="1.0" encoding="UTF-8" standalone="no"?>
<!DOCTYPE svg PUBLIC "-//W3C//DTD SVG 1.1//EN"
 "http://www.w3.org/Graphics/SVG/1.1/DTD/svg11.dtd">
<!-- Generated by graphviz version 2.40.1 (0)
 -->
<!-- Title: HashPopulateWidget::createRemoveButton Pages: 1 -->
<svg width="635pt" height="61pt"
 viewBox="0.00 0.00 635.00 61.00" xmlns="http://www.w3.org/2000/svg" xmlns:xlink="http://www.w3.org/1999/xlink">
<g id="graph0" class="graph" transform="scale(1 1) rotate(0) translate(4 57)">
<title>HashPopulateWidget::createRemoveButton</title>
<polygon fill="#ffffff" stroke="transparent" points="-4,4 -4,-57 631,-57 631,4 -4,4"/>
<!-- Node35 -->
<g id="node1" class="node">
<title>Node35</title>
<g id="a_node1"><a xlink:title=" ">
<polygon fill="#bfbfbf" stroke="#000000" points="501,-22.5 501,-52.5 627,-52.5 627,-22.5 501,-22.5"/>
<text text-anchor="start" x="509" y="-40.5" font-family="Helvetica,sans-Serif" font-size="10.00" fill="#000000">HashPopulateWidget</text>
<text text-anchor="middle" x="564" y="-29.5" font-family="Helvetica,sans-Serif" font-size="10.00" fill="#000000">::createRemoveButton</text>
</a>
</g>
</g>
<!-- Node36 -->
<g id="node2" class="node">
<title>Node36</title>
<g id="a_node2"><a xlink:href="../../da/dd3/classHashPopulateWidget.html#aa6b8d2e64b1581f5ef9aaaa95d6c0320" target="_top" xlink:title=" ">
<polygon fill="#ffffff" stroke="#000000" points="0,-22.5 0,-52.5 125,-52.5 125,-22.5 0,-22.5"/>
<text text-anchor="start" x="8" y="-40.5" font-family="Helvetica,sans-Serif" font-size="10.00" fill="#000000">HashPopulateWidget</text>
<text text-anchor="middle" x="62.5" y="-29.5" font-family="Helvetica,sans-Serif" font-size="10.00" fill="#000000">::HashPopulateWidget</text>
</a>
</g>
</g>
<!-- Node35&#45;&gt;Node36 -->
<g id="edge1" class="edge">
<title>Node35&#45;&gt;Node36</title>
<path fill="none" stroke="#191970" d="M490.7544,-39.1457C482.0744,-39.2916 473.3399,-39.4158 465,-39.5 329.8958,-40.8645 296.1042,-40.8715 161,-39.5 149.3697,-39.3819 136.9682,-39.1855 125.0258,-38.9606"/>
<polygon fill="#191970" stroke="#191970" points="490.9558,-42.6428 500.892,-38.9656 490.8313,-35.6439 490.9558,-42.6428"/>
</g>
<!-- Node37 -->
<g id="node3" class="node">
<title>Node37</title>
<g id="a_node3"><a xlink:href="../../da/dd3/classHashPopulateWidget.html#a001e8ad1afde58fb07ee3fe8858d69a0" target="_top" xlink:title=" ">
<polygon fill="#ffffff" stroke="#000000" points="316,-.5 316,-30.5 465,-30.5 465,-.5 316,-.5"/>
<text text-anchor="start" x="324" y="-18.5" font-family="Helvetica,sans-Serif" font-size="10.00" fill="#000000">HashPopulateWidget</text>
<text text-anchor="middle" x="390.5" y="-7.5" font-family="Helvetica,sans-Serif" font-size="10.00" fill="#000000">::lastRowEditionCompleted</text>
</a>
</g>
</g>
<!-- Node35&#45;&gt;Node37 -->
<g id="edge2" class="edge">
<title>Node35&#45;&gt;Node37</title>
<path fill="none" stroke="#191970" d="M490.9367,-28.2355C482.3848,-27.1511 473.6509,-26.0436 465.0786,-24.9567"/>
<polygon fill="#191970" stroke="#191970" points="490.5108,-31.7094 500.8717,-29.4953 491.3915,-24.765 490.5108,-31.7094"/>
</g>
<!-- Node38 -->
<g id="node4" class="node">
<title>Node38</title>
<g id="a_node4"><a xlink:href="../../da/dd3/classHashPopulateWidget.html#a736d6d0c0d10c6b6321245177fa5f52a" target="_top" xlink:title=" ">
<polygon fill="#ffffff" stroke="#000000" points="161,-.5 161,-30.5 280,-30.5 280,-.5 161,-.5"/>
<text text-anchor="start" x="169" y="-18.5" font-family="Helvetica,sans-Serif" font-size="10.00" fill="#000000">HashPopulateWidget</text>
<text text-anchor="middle" x="220.5" y="-7.5" font-family="Helvetica,sans-Serif" font-size="10.00" fill="#000000">::addRow</text>
</a>
</g>
</g>
<!-- Node37&#45;&gt;Node38 -->
<g id="edge3" class="edge">
<title>Node37&#45;&gt;Node38</title>
<path fill="none" stroke="#191970" d="M305.804,-8.75C297.1536,-8.7479 288.4989,-8.8389 280.1985,-9.0231"/>
<polygon fill="#191970" stroke="#191970" points="305.9199,-12.2505 315.9355,-8.7954 305.9513,-5.2506 305.9199,-12.2505"/>
</g>
<!-- Node38&#45;&gt;Node36 -->
<g id="edge4" class="edge">
<title>Node38&#45;&gt;Node36</title>
<path fill="none" stroke="#191970" d="M150.844,-25.1989C142.3128,-26.3868 133.6341,-27.5953 125.2135,-28.7677"/>
<polygon fill="#191970" stroke="#191970" points="151.3452,-28.663 160.767,-23.8173 150.3798,-21.7299 151.3452,-28.663"/>
</g>
<!-- Node38&#45;&gt;Node37 -->
<g id="edge5" class="edge">
<title>Node38&#45;&gt;Node37</title>
<path fill="none" stroke="#191970" d="M290.3617,-22.1539C298.7964,-22.262 307.4366,-22.2789 315.9355,-22.2046"/>
<polygon fill="#191970" stroke="#191970" points="290.2579,-18.6517 280.1985,-21.9769 290.1359,-25.6506 290.2579,-18.6517"/>
</g>
</g>
</svg>
