<?xml version="1.0" encoding="UTF-8" standalone="no"?>
<!DOCTYPE svg PUBLIC "-//W3C//DTD SVG 1.1//EN"
 "http://www.w3.org/Graphics/SVG/1.1/DTD/svg11.dtd">
<!-- Generated by graphviz version 2.40.1 (0)
 -->
<!-- Title: ProgramTab::copy Pages: 1 -->
<svg width="459pt" height="28pt"
 viewBox="0.00 0.00 459.00 28.00" xmlns="http://www.w3.org/2000/svg" xmlns:xlink="http://www.w3.org/1999/xlink">
<g id="graph0" class="graph" transform="scale(1 1) rotate(0) translate(4 24)">
<title>ProgramTab::copy</title>
<polygon fill="#ffffff" stroke="transparent" points="-4,4 -4,-24 455,-24 455,4 -4,4"/>
<!-- Node20 -->
<g id="node1" class="node">
<title>Node20</title>
<g id="a_node1"><a xlink:title=" ">
<polygon fill="#bfbfbf" stroke="#000000" points="347,-.5 347,-19.5 451,-19.5 451,-.5 347,-.5"/>
<text text-anchor="middle" x="399" y="-7.5" font-family="Helvetica,sans-Serif" font-size="10.00" fill="#000000">ProgramTab::copy</text>
</a>
</g>
</g>
<!-- Node21 -->
<g id="node2" class="node">
<title>Node21</title>
<g id="a_node2"><a xlink:href="../../dd/d15/classProgramWindow.html#aa3528139df292d9b8f40119f85e8e0db" target="_top" xlink:title=" ">
<polygon fill="#ffffff" stroke="#000000" points="186,-.5 186,-19.5 311,-19.5 311,-.5 186,-.5"/>
<text text-anchor="middle" x="248.5" y="-7.5" font-family="Helvetica,sans-Serif" font-size="10.00" fill="#000000">ProgramWindow::copy</text>
</a>
</g>
</g>
<!-- Node20&#45;&gt;Node21 -->
<g id="edge1" class="edge">
<title>Node20&#45;&gt;Node21</title>
<path fill="none" stroke="#191970" d="M336.6772,-10C328.2767,-10 319.6546,-10 311.2468,-10"/>
<polygon fill="#191970" stroke="#191970" points="336.7848,-13.5001 346.7848,-10 336.7847,-6.5001 336.7848,-13.5001"/>
</g>
<!-- Node22 -->
<g id="node3" class="node">
<title>Node22</title>
<g id="a_node3"><a xlink:href="../../dd/d15/classProgramWindow.html#a4b841305dd94c812b21079871aab124d" target="_top" xlink:title=" ">
<polygon fill="#ffffff" stroke="#000000" points="0,-.5 0,-19.5 150,-19.5 150,-.5 0,-.5"/>
<text text-anchor="middle" x="75" y="-7.5" font-family="Helvetica,sans-Serif" font-size="10.00" fill="#000000">ProgramWindow::initMenus</text>
</a>
</g>
</g>
<!-- Node21&#45;&gt;Node22 -->
<g id="edge2" class="edge">
<title>Node21&#45;&gt;Node22</title>
<path fill="none" stroke="#191970" d="M175.7127,-10C167.3004,-10 158.7082,-10 150.2639,-10"/>
<polygon fill="#191970" stroke="#191970" points="175.8626,-13.5001 185.8625,-10 175.8625,-6.5001 175.8626,-13.5001"/>
</g>
</g>
</svg>
