<?xml version="1.0" encoding="UTF-8" standalone="no"?>
<!DOCTYPE svg PUBLIC "-//W3C//DTD SVG 1.1//EN"
 "http://www.w3.org/Graphics/SVG/1.1/DTD/svg11.dtd">
<!-- Generated by graphviz version 2.40.1 (0)
 -->
<!-- Title: ProgramTab::save Pages: 1 -->
<svg width="656pt" height="72pt"
 viewBox="0.00 0.00 656.00 71.50" xmlns="http://www.w3.org/2000/svg" xmlns:xlink="http://www.w3.org/1999/xlink">
<g id="graph0" class="graph" transform="scale(1 1) rotate(0) translate(4 67.5)">
<title>ProgramTab::save</title>
<polygon fill="#ffffff" stroke="transparent" points="-4,4 -4,-67.5 652,-67.5 652,4 -4,4"/>
<!-- Node346 -->
<g id="node1" class="node">
<title>Node346</title>
<g id="a_node1"><a xlink:title=" ">
<polygon fill="#bfbfbf" stroke="#000000" points="0,-19.5 0,-38.5 104,-38.5 104,-19.5 0,-19.5"/>
<text text-anchor="middle" x="52" y="-26.5" font-family="Helvetica,sans-Serif" font-size="10.00" fill="#000000">ProgramTab::save</text>
</a>
</g>
</g>
<!-- Node347 -->
<g id="node2" class="node">
<title>Node347</title>
<g id="a_node2"><a xlink:href="../../d2/d00/classProgramTab.html#a6b2958ad908685e471b847ebe483ca0f" target="_top" xlink:title=" ">
<polygon fill="#ffffff" stroke="#000000" points="140,-19.5 140,-38.5 280,-38.5 280,-19.5 140,-19.5"/>
<text text-anchor="middle" x="210" y="-26.5" font-family="Helvetica,sans-Serif" font-size="10.00" fill="#000000">ProgramTab::setFilename</text>
</a>
</g>
</g>
<!-- Node346&#45;&gt;Node347 -->
<g id="edge1" class="edge">
<title>Node346&#45;&gt;Node347</title>
<path fill="none" stroke="#191970" d="M104.173,-29C112.3779,-29 121.021,-29 129.6851,-29"/>
<polygon fill="#191970" stroke="#191970" points="129.8408,-32.5001 139.8408,-29 129.8408,-25.5001 129.8408,-32.5001"/>
</g>
<!-- Node348 -->
<g id="node3" class="node">
<title>Node348</title>
<g id="a_node3"><a xlink:href="../../d2/d00/classProgramTab.html#a7122f6134d6d5eef8e2b0a2ebc7bddc7" target="_top" xlink:title=" ">
<polygon fill="#ffffff" stroke="#000000" points="316,-38.5 316,-57.5 457,-57.5 457,-38.5 316,-38.5"/>
<text text-anchor="middle" x="386.5" y="-45.5" font-family="Helvetica,sans-Serif" font-size="10.00" fill="#000000">ProgramTab::updateMenu</text>
</a>
</g>
</g>
<!-- Node347&#45;&gt;Node348 -->
<g id="edge2" class="edge">
<title>Node347&#45;&gt;Node348</title>
<path fill="none" stroke="#191970" d="M280.011,-36.5366C288.5197,-37.4525 297.2649,-38.394 305.9113,-39.3247"/>
<polygon fill="#191970" stroke="#191970" points="305.6788,-42.8198 315.996,-40.4103 306.4281,-35.86 305.6788,-42.8198"/>
</g>
<!-- Node350 -->
<g id="node5" class="node">
<title>Node350</title>
<g id="a_node5"><a xlink:href="../../da/d3a/classDebugDialog.html#ad26216d18945d7d7188420707b76f241" target="_top" xlink:title=" ">
<polygon fill="#ffffff" stroke="#000000" points="328.5,-.5 328.5,-19.5 444.5,-19.5 444.5,-.5 328.5,-.5"/>
<text text-anchor="middle" x="386.5" y="-7.5" font-family="Helvetica,sans-Serif" font-size="10.00" fill="#000000">DebugDialog::debug</text>
</a>
</g>
</g>
<!-- Node347&#45;&gt;Node350 -->
<g id="edge4" class="edge">
<title>Node347&#45;&gt;Node350</title>
<path fill="none" stroke="#191970" d="M280.011,-21.4634C292.4928,-20.1198 305.4837,-18.7213 317.9249,-17.382"/>
<polygon fill="#191970" stroke="#191970" points="318.655,-20.8237 328.2229,-16.2735 317.9057,-13.8639 318.655,-20.8237"/>
</g>
<!-- Node349 -->
<g id="node4" class="node">
<title>Node349</title>
<g id="a_node4"><a xlink:href="../../d2/d00/classProgramTab.html#a7b086ff6508f66d69b910d3428e45721" target="_top" xlink:title=" ">
<polygon fill="#ffffff" stroke="#000000" points="493,-33 493,-63 648,-63 648,-33 493,-33"/>
<text text-anchor="start" x="501" y="-51" font-family="Helvetica,sans-Serif" font-size="10.00" fill="#000000">ProgramTab::enableProgram</text>
<text text-anchor="middle" x="570.5" y="-40" font-family="Helvetica,sans-Serif" font-size="10.00" fill="#000000">Button</text>
</a>
</g>
</g>
<!-- Node348&#45;&gt;Node349 -->
<g id="edge3" class="edge">
<title>Node348&#45;&gt;Node349</title>
<path fill="none" stroke="#191970" d="M457.113,-48C465.4898,-48 474.1171,-48 482.6957,-48"/>
<polygon fill="#191970" stroke="#191970" points="482.7258,-51.5001 492.7258,-48 482.7258,-44.5001 482.7258,-51.5001"/>
</g>
</g>
</svg>
