<?xml version="1.0" encoding="UTF-8" standalone="no"?>
<!DOCTYPE svg PUBLIC "-//W3C//DTD SVG 1.1//EN"
 "http://www.w3.org/Graphics/SVG/1.1/DTD/svg11.dtd">
<!-- Generated by graphviz version 2.40.1 (0)
 -->
<!-- Title: ProgramTab::textChanged Pages: 1 -->
<svg width="1149pt" height="306pt"
 viewBox="0.00 0.00 1149.00 306.00" xmlns="http://www.w3.org/2000/svg" xmlns:xlink="http://www.w3.org/1999/xlink">
<g id="graph0" class="graph" transform="scale(1 1) rotate(0) translate(4 302)">
<title>ProgramTab::textChanged</title>
<polygon fill="#ffffff" stroke="transparent" points="-4,4 -4,-302 1145,-302 1145,4 -4,4"/>
<!-- Node491 -->
<g id="node1" class="node">
<title>Node491</title>
<g id="a_node1"><a xlink:title=" ">
<polygon fill="#bfbfbf" stroke="#000000" points="998,-133.5 998,-152.5 1141,-152.5 1141,-133.5 998,-133.5"/>
<text text-anchor="middle" x="1069.5" y="-140.5" font-family="Helvetica,sans-Serif" font-size="10.00" fill="#000000">ProgramTab::textChanged</text>
</a>
</g>
</g>
<!-- Node492 -->
<g id="node2" class="node">
<title>Node492</title>
<g id="a_node2"><a xlink:href="../../d2/d00/classProgramTab.html#a3eb9f69f866c34f6c4171c5ea90d4104" target="_top" xlink:title=" ">
<polygon fill="#ffffff" stroke="#000000" points="824,-171.5 824,-190.5 962,-190.5 962,-171.5 824,-171.5"/>
<text text-anchor="middle" x="893" y="-178.5" font-family="Helvetica,sans-Serif" font-size="10.00" fill="#000000">ProgramTab::ProgramTab</text>
</a>
</g>
</g>
<!-- Node491&#45;&gt;Node492 -->
<g id="edge1" class="edge">
<title>Node491&#45;&gt;Node492</title>
<path fill="none" stroke="#191970" d="M1014.9124,-154.7526C989.9553,-160.1258 960.7732,-166.4086 937.2181,-171.4799"/>
<polygon fill="#191970" stroke="#191970" points="1015.9223,-158.1154 1024.9616,-152.589 1014.4489,-151.2722 1015.9223,-158.1154"/>
</g>
<!-- Node493 -->
<g id="node3" class="node">
<title>Node493</title>
<g id="a_node3"><a xlink:href="../../d2/d00/classProgramTab.html#a0aec673189700b7834dc26681b4be745" target="_top" xlink:title=" ">
<polygon fill="#ffffff" stroke="#000000" points="831.5,-133.5 831.5,-152.5 954.5,-152.5 954.5,-133.5 831.5,-133.5"/>
<text text-anchor="middle" x="893" y="-140.5" font-family="Helvetica,sans-Serif" font-size="10.00" fill="#000000">ProgramTab::setClean</text>
</a>
</g>
</g>
<!-- Node491&#45;&gt;Node493 -->
<g id="edge2" class="edge">
<title>Node491&#45;&gt;Node493</title>
<path fill="none" stroke="#191970" d="M987.8066,-143C976.6801,-143 965.4138,-143 954.7205,-143"/>
<polygon fill="#191970" stroke="#191970" points="987.9652,-146.5001 997.9651,-143 987.9651,-139.5001 987.9652,-146.5001"/>
</g>
<!-- Node512 -->
<g id="node22" class="node">
<title>Node512</title>
<g id="a_node22"><a xlink:href="../../d2/d00/classProgramTab.html#ad4882361b2e8e1d63f6a72eb92f7d082" target="_top" xlink:title=" ">
<polygon fill="#ffffff" stroke="#000000" points="833.5,-95.5 833.5,-114.5 952.5,-114.5 952.5,-95.5 833.5,-95.5"/>
<text text-anchor="middle" x="893" y="-102.5" font-family="Helvetica,sans-Serif" font-size="10.00" fill="#000000">ProgramTab::setDirty</text>
</a>
</g>
</g>
<!-- Node491&#45;&gt;Node512 -->
<g id="edge28" class="edge">
<title>Node491&#45;&gt;Node512</title>
<path fill="none" stroke="#191970" d="M1014.9124,-131.2474C989.9553,-125.8742 960.7732,-119.5914 937.2181,-114.5201"/>
<polygon fill="#191970" stroke="#191970" points="1014.4489,-134.7278 1024.9616,-133.411 1015.9223,-127.8846 1014.4489,-134.7278"/>
</g>
<!-- Node494 -->
<g id="node4" class="node">
<title>Node494</title>
<g id="a_node4"><a xlink:href="../../d2/d00/classProgramTab.html#a322bd1cee637d6024c908b057988c207" target="_top" xlink:title=" ">
<polygon fill="#ffffff" stroke="#000000" points="431,-152.5 431,-171.5 591,-171.5 591,-152.5 431,-152.5"/>
<text text-anchor="middle" x="511" y="-159.5" font-family="Helvetica,sans-Serif" font-size="10.00" fill="#000000">ProgramTab::loadProgramFile</text>
</a>
</g>
</g>
<!-- Node493&#45;&gt;Node494 -->
<g id="edge3" class="edge">
<title>Node493&#45;&gt;Node494</title>
<path fill="none" stroke="#191970" d="M820.9764,-146.5823C755.5604,-149.836 659.2019,-154.6287 591.3207,-158.005"/>
<polygon fill="#191970" stroke="#191970" points="821.3868,-150.0663 831.2005,-146.0738 821.039,-143.075 821.3868,-150.0663"/>
</g>
<!-- Node499 -->
<g id="node9" class="node">
<title>Node499</title>
<g id="a_node9"><a xlink:href="../../dd/d15/classProgramWindow.html#a5b9f18f9a0a8af328ca26d6c0531ec62" target="_top" xlink:title=" ">
<polygon fill="#ffffff" stroke="#000000" points="640,-114.5 640,-133.5 788,-133.5 788,-114.5 640,-114.5"/>
<text text-anchor="middle" x="714" y="-121.5" font-family="Helvetica,sans-Serif" font-size="10.00" fill="#000000">ProgramWindow::prepSave</text>
</a>
</g>
</g>
<!-- Node493&#45;&gt;Node499 -->
<g id="edge8" class="edge">
<title>Node493&#45;&gt;Node499</title>
<path fill="none" stroke="#191970" d="M821.44,-135.4042C810.4595,-134.2387 799.1034,-133.0333 788.07,-131.8622"/>
<polygon fill="#191970" stroke="#191970" points="821.0848,-138.8861 831.3984,-136.4613 821.8237,-131.9252 821.0848,-138.8861"/>
</g>
<!-- Node495 -->
<g id="node5" class="node">
<title>Node495</title>
<g id="a_node5"><a xlink:href="../../dd/d15/classProgramWindow.html#ae1287fb01dcc91e89db28be1529c27c2" target="_top" xlink:title=" ">
<polygon fill="#ffffff" stroke="#000000" points="10.5,-152.5 10.5,-171.5 153.5,-171.5 153.5,-152.5 10.5,-152.5"/>
<text text-anchor="middle" x="82" y="-159.5" font-family="Helvetica,sans-Serif" font-size="10.00" fill="#000000">ProgramWindow::linkFiles</text>
</a>
</g>
</g>
<!-- Node494&#45;&gt;Node495 -->
<g id="edge4" class="edge">
<title>Node494&#45;&gt;Node495</title>
<path fill="none" stroke="#191970" d="M420.8061,-162C341.292,-162 226.9793,-162 153.5988,-162"/>
<polygon fill="#191970" stroke="#191970" points="420.8117,-165.5001 430.8116,-162 420.8116,-158.5001 420.8117,-165.5001"/>
</g>
<!-- Node496 -->
<g id="node6" class="node">
<title>Node496</title>
<g id="a_node6"><a xlink:href="../../dd/d15/classProgramWindow.html#a7b1599c7ab311110a1232785d9e40434" target="_top" xlink:title=" ">
<polygon fill="#ffffff" stroke="#000000" points="200,-76.5 200,-95.5 382,-95.5 382,-76.5 200,-76.5"/>
<text text-anchor="middle" x="291" y="-83.5" font-family="Helvetica,sans-Serif" font-size="10.00" fill="#000000">ProgramWindow::loadProgramFile</text>
</a>
</g>
</g>
<!-- Node494&#45;&gt;Node496 -->
<g id="edge5" class="edge">
<title>Node494&#45;&gt;Node496</title>
<path fill="none" stroke="#191970" d="M430.5756,-148.9166C426.2217,-147.1826 421.9978,-145.2204 418,-143 397.6618,-131.7043 402.3138,-116.3394 382,-105 375.0947,-101.1454 367.499,-98.0703 359.7301,-95.6175"/>
<polygon fill="#191970" stroke="#191970" points="429.683,-152.3136 440.2777,-152.3596 432.0241,-145.7167 429.683,-152.3136"/>
</g>
<!-- Node498 -->
<g id="node8" class="node">
<title>Node498</title>
<g id="a_node8"><a xlink:href="../../dd/d15/classProgramWindow.html#a35025bad2a448af5a3fcaab9504845f4" target="_top" xlink:title=" ">
<polygon fill="#ffffff" stroke="#000000" points="0,-191 0,-221 164,-221 164,-191 0,-191"/>
<text text-anchor="start" x="8" y="-209" font-family="Helvetica,sans-Serif" font-size="10.00" fill="#000000">ProgramWindow::loadProgram</text>
<text text-anchor="middle" x="82" y="-198" font-family="Helvetica,sans-Serif" font-size="10.00" fill="#000000">FileNew</text>
</a>
</g>
</g>
<!-- Node494&#45;&gt;Node498 -->
<g id="edge7" class="edge">
<title>Node494&#45;&gt;Node498</title>
<path fill="none" stroke="#191970" d="M420.534,-171.9157C407.6027,-173.3046 394.4641,-174.7005 382,-176 308.3338,-183.6806 224.4487,-192.036 164.1475,-197.9737"/>
<polygon fill="#191970" stroke="#191970" points="421.2757,-175.3562 430.8433,-170.8053 420.526,-168.3964 421.2757,-175.3562"/>
</g>
<!-- Node497 -->
<g id="node7" class="node">
<title>Node497</title>
<g id="a_node7"><a xlink:href="../../dd/d15/classProgramWindow.html#a4b841305dd94c812b21079871aab124d" target="_top" xlink:title=" ">
<polygon fill="#ffffff" stroke="#000000" points="7,-38.5 7,-57.5 157,-57.5 157,-38.5 7,-38.5"/>
<text text-anchor="middle" x="82" y="-45.5" font-family="Helvetica,sans-Serif" font-size="10.00" fill="#000000">ProgramWindow::initMenus</text>
</a>
</g>
</g>
<!-- Node496&#45;&gt;Node497 -->
<g id="edge6" class="edge">
<title>Node496&#45;&gt;Node497</title>
<path fill="none" stroke="#191970" d="M228.5918,-74.653C198.6051,-69.2009 163.0664,-62.7393 134.4913,-57.5439"/>
<polygon fill="#191970" stroke="#191970" points="228.0654,-78.1147 238.5302,-76.46 229.3177,-71.2276 228.0654,-78.1147"/>
</g>
<!-- Node500 -->
<g id="node10" class="node">
<title>Node500</title>
<g id="a_node10"><a xlink:href="../../dd/d15/classProgramWindow.html#a801adf880980eaa28c2c5f93f13abddc" target="_top" xlink:title=" ">
<polygon fill="#ffffff" stroke="#000000" points="418,-234.5 418,-253.5 604,-253.5 604,-234.5 418,-234.5"/>
<text text-anchor="middle" x="511" y="-241.5" font-family="Helvetica,sans-Serif" font-size="10.00" fill="#000000">ProgramWindow::beforeClosingTab</text>
</a>
</g>
</g>
<!-- Node499&#45;&gt;Node500 -->
<g id="edge9" class="edge">
<title>Node499&#45;&gt;Node500</title>
<path fill="none" stroke="#191970" d="M688.9175,-138.8271C646.7394,-163.76 562.7551,-213.4058 527.3467,-234.3369"/>
<polygon fill="#191970" stroke="#191970" points="690.9034,-141.719 697.7308,-133.6173 687.3413,-135.6931 690.9034,-141.719"/>
</g>
<!-- Node504 -->
<g id="node14" class="node">
<title>Node504</title>
<g id="a_node14"><a xlink:href="../../dd/d15/classProgramWindow.html#a4b401e184aaee8d5eff5003276fd51b7" target="_top" xlink:title=" ">
<polygon fill="#ffffff" stroke="#000000" points="440,-38.5 440,-57.5 582,-57.5 582,-38.5 440,-38.5"/>
<text text-anchor="middle" x="511" y="-45.5" font-family="Helvetica,sans-Serif" font-size="10.00" fill="#000000">ProgramWindow::tabSave</text>
</a>
</g>
</g>
<!-- Node499&#45;&gt;Node504 -->
<g id="edge13" class="edge">
<title>Node499&#45;&gt;Node504</title>
<path fill="none" stroke="#191970" d="M690.1092,-109.1491C668.3939,-96.2608 635.0902,-77.991 604,-67 593.2794,-63.2101 581.5818,-60.0829 570.2125,-57.5364"/>
<polygon fill="#191970" stroke="#191970" points="688.5727,-112.3097 698.9436,-114.4763 692.1874,-106.3152 688.5727,-112.3097"/>
</g>
<!-- Node510 -->
<g id="node20" class="node">
<title>Node510</title>
<g id="a_node20"><a xlink:href="../../dd/d15/classProgramWindow.html#ac5fb7f0deaf638753d76f532e0423093" target="_top" xlink:title=" ">
<polygon fill="#ffffff" stroke="#000000" points="434,-114.5 434,-133.5 588,-133.5 588,-114.5 434,-114.5"/>
<text text-anchor="middle" x="511" y="-121.5" font-family="Helvetica,sans-Serif" font-size="10.00" fill="#000000">ProgramWindow::tabSaveAs</text>
</a>
</g>
</g>
<!-- Node499&#45;&gt;Node510 -->
<g id="edge24" class="edge">
<title>Node499&#45;&gt;Node510</title>
<path fill="none" stroke="#191970" d="M629.4493,-124C615.7162,-124 601.5572,-124 588.0164,-124"/>
<polygon fill="#191970" stroke="#191970" points="629.8507,-127.5001 639.8506,-124 629.8506,-120.5001 629.8507,-127.5001"/>
</g>
<!-- Node511 -->
<g id="node21" class="node">
<title>Node511</title>
<g id="a_node21"><a xlink:href="../../dd/d15/classProgramWindow.html#a3a95c0ccb9206860dd8d9966aa97418c" target="_top" xlink:title=" ">
<polygon fill="#ffffff" stroke="#000000" points="432,-76.5 432,-95.5 590,-95.5 590,-76.5 432,-76.5"/>
<text text-anchor="middle" x="511" y="-83.5" font-family="Helvetica,sans-Serif" font-size="10.00" fill="#000000">ProgramWindow::tabRename</text>
</a>
</g>
</g>
<!-- Node499&#45;&gt;Node511 -->
<g id="edge26" class="edge">
<title>Node499&#45;&gt;Node511</title>
<path fill="none" stroke="#191970" d="M653.0032,-112.5819C623.9575,-107.1448 589.6184,-100.7168 561.9844,-95.5439"/>
<polygon fill="#191970" stroke="#191970" points="652.5633,-116.0602 663.0366,-114.46 653.8513,-109.1798 652.5633,-116.0602"/>
</g>
<!-- Node501 -->
<g id="node11" class="node">
<title>Node501</title>
<g id="a_node11"><a xlink:href="../../dd/d15/classProgramWindow.html#a142cf647cd2b5095c3dc3e4f30dacabf" target="_top" xlink:title=" ">
<polygon fill="#ffffff" stroke="#000000" points="206,-278.5 206,-297.5 376,-297.5 376,-278.5 206,-278.5"/>
<text text-anchor="middle" x="291" y="-285.5" font-family="Helvetica,sans-Serif" font-size="10.00" fill="#000000">ProgramWindow::beforeClosing</text>
</a>
</g>
</g>
<!-- Node500&#45;&gt;Node501 -->
<g id="edge10" class="edge">
<title>Node500&#45;&gt;Node501</title>
<path fill="none" stroke="#191970" d="M452.9999,-255.6C417.3392,-262.7322 372.2082,-271.7584 338.6436,-278.4713"/>
<polygon fill="#191970" stroke="#191970" points="454.1439,-258.9406 463.2633,-253.5473 452.771,-252.0765 454.1439,-258.9406"/>
</g>
<!-- Node503 -->
<g id="node13" class="node">
<title>Node503</title>
<g id="a_node13"><a xlink:href="../../dd/d15/classProgramWindow.html#aac86a8fbb3e9f06138a4b7d6dbe69fd9" target="_top" xlink:title=" ">
<polygon fill="#ffffff" stroke="#000000" points="216,-229 216,-259 366,-259 366,-229 216,-229"/>
<text text-anchor="start" x="224" y="-247" font-family="Helvetica,sans-Serif" font-size="10.00" fill="#000000">ProgramWindow::tabBefore</text>
<text text-anchor="middle" x="291" y="-236" font-family="Helvetica,sans-Serif" font-size="10.00" fill="#000000">Closing</text>
</a>
</g>
</g>
<!-- Node500&#45;&gt;Node503 -->
<g id="edge12" class="edge">
<title>Node500&#45;&gt;Node503</title>
<path fill="none" stroke="#191970" d="M407.5621,-244C393.5869,-244 379.4699,-244 366.1178,-244"/>
<polygon fill="#191970" stroke="#191970" points="407.7002,-247.5001 417.7002,-244 407.7002,-240.5001 407.7002,-247.5001"/>
</g>
<!-- Node502 -->
<g id="node12" class="node">
<title>Node502</title>
<g id="a_node12"><a xlink:href="../../dd/d15/classProgramWindow.html#a14f0bb57f1e0300746a517d1b5edfae1" target="_top" xlink:title=" ">
<polygon fill="#ffffff" stroke="#000000" points="4.5,-278.5 4.5,-297.5 159.5,-297.5 159.5,-278.5 4.5,-278.5"/>
<text text-anchor="middle" x="82" y="-285.5" font-family="Helvetica,sans-Serif" font-size="10.00" fill="#000000">ProgramWindow::closeEvent</text>
</a>
</g>
</g>
<!-- Node501&#45;&gt;Node502 -->
<g id="edge11" class="edge">
<title>Node501&#45;&gt;Node502</title>
<path fill="none" stroke="#191970" d="M195.8361,-288C183.6813,-288 171.3566,-288 159.5269,-288"/>
<polygon fill="#191970" stroke="#191970" points="195.9917,-291.5001 205.9917,-288 195.9917,-284.5001 195.9917,-291.5001"/>
</g>
<!-- Node505 -->
<g id="node15" class="node">
<title>Node505</title>
<g id="a_node15"><a xlink:href="../../dd/d15/classProgramWindow.html#a531b35a34e795ea93f857b1f2c0782bc" target="_top" xlink:title=" ">
<polygon fill="#ffffff" stroke="#000000" points="222.5,-114.5 222.5,-133.5 359.5,-133.5 359.5,-114.5 222.5,-114.5"/>
<text text-anchor="middle" x="291" y="-121.5" font-family="Helvetica,sans-Serif" font-size="10.00" fill="#000000">ProgramWindow::addTab</text>
</a>
</g>
</g>
<!-- Node504&#45;&gt;Node505 -->
<g id="edge14" class="edge">
<title>Node504&#45;&gt;Node505</title>
<path fill="none" stroke="#191970" d="M430.5756,-61.0834C426.2217,-62.8174 421.9978,-64.7796 418,-67 397.6618,-78.2957 402.3138,-93.6606 382,-105 375.0947,-108.8546 367.499,-111.9297 359.7301,-114.3825"/>
<polygon fill="#191970" stroke="#191970" points="432.0241,-64.2833 440.2777,-57.6404 429.683,-57.6864 432.0241,-64.2833"/>
</g>
<!-- Node508 -->
<g id="node18" class="node">
<title>Node508</title>
<g id="a_node18"><a xlink:href="../../dd/d15/classProgramWindow.html#af7df45f309470a9a61903606d888a2e8" target="_top" xlink:title=" ">
<polygon fill="#ffffff" stroke="#000000" points="222,-38.5 222,-57.5 360,-57.5 360,-38.5 222,-38.5"/>
<text text-anchor="middle" x="291" y="-45.5" font-family="Helvetica,sans-Serif" font-size="10.00" fill="#000000">ProgramWindow::saveAll</text>
</a>
</g>
</g>
<!-- Node504&#45;&gt;Node508 -->
<g id="edge21" class="edge">
<title>Node504&#45;&gt;Node508</title>
<path fill="none" stroke="#191970" d="M429.8256,-48C406.8884,-48 382.152,-48 360.0034,-48"/>
<polygon fill="#191970" stroke="#191970" points="429.8762,-51.5001 439.8761,-48 429.8761,-44.5001 429.8762,-51.5001"/>
</g>
<!-- Node509 -->
<g id="node19" class="node">
<title>Node509</title>
<g id="a_node19"><a xlink:href="../../dd/d15/classProgramWindow.html#aaa4de2c265744341f6cba2e6e30382ec" target="_top" xlink:title=" ">
<polygon fill="#ffffff" stroke="#000000" points="202,-.5 202,-19.5 380,-19.5 380,-.5 202,-.5"/>
<text text-anchor="middle" x="291" y="-7.5" font-family="Helvetica,sans-Serif" font-size="10.00" fill="#000000">ProgramWindow::saveCurrentTab</text>
</a>
</g>
</g>
<!-- Node504&#45;&gt;Node509 -->
<g id="edge22" class="edge">
<title>Node504&#45;&gt;Node509</title>
<path fill="none" stroke="#191970" d="M445.7185,-36.7241C414.0676,-31.2571 376.4638,-24.7619 346.254,-19.5439"/>
<polygon fill="#191970" stroke="#191970" points="445.3188,-40.2068 455.7687,-38.46 446.5103,-33.309 445.3188,-40.2068"/>
</g>
<!-- Node505&#45;&gt;Node495 -->
<g id="edge16" class="edge">
<title>Node505&#45;&gt;Node495</title>
<path fill="none" stroke="#191970" d="M228.5918,-135.347C198.6051,-140.7991 163.0664,-147.2607 134.4913,-152.4561"/>
<polygon fill="#191970" stroke="#191970" points="229.3177,-138.7724 238.5302,-133.54 228.0654,-131.8853 229.3177,-138.7724"/>
</g>
<!-- Node505&#45;&gt;Node497 -->
<g id="edge15" class="edge">
<title>Node505&#45;&gt;Node497</title>
<path fill="none" stroke="#191970" d="M212.5687,-110.9341C208.215,-109.1964 203.9921,-107.2284 200,-105 179.6862,-93.6606 184.1887,-78.5607 164,-67 157.2789,-63.1513 149.8261,-60.0818 142.2326,-57.6339"/>
<polygon fill="#191970" stroke="#191970" points="211.6752,-114.331 222.2699,-114.3825 214.0198,-107.7353 211.6752,-114.331"/>
</g>
<!-- Node505&#45;&gt;Node498 -->
<g id="edge20" class="edge">
<title>Node505&#45;&gt;Node498</title>
<path fill="none" stroke="#191970" d="M262.4378,-138.0656C236.9777,-150.3018 198.5107,-168.0534 164,-181 154.6637,-184.5025 144.5977,-187.884 134.8233,-190.9681"/>
<polygon fill="#191970" stroke="#191970" points="264.0476,-141.175 271.5235,-133.6676 260.9976,-134.8743 264.0476,-141.175"/>
</g>
<!-- Node506 -->
<g id="node16" class="node">
<title>Node506</title>
<g id="a_node16"><a xlink:href="../../dd/d15/classProgramWindow.html#a640a9bffa3ffffd38cb6260ab68f65b6" target="_top" xlink:title=" ">
<polygon fill="#ffffff" stroke="#000000" points="7,-114.5 7,-133.5 157,-133.5 157,-114.5 7,-114.5"/>
<text text-anchor="middle" x="82" y="-121.5" font-family="Helvetica,sans-Serif" font-size="10.00" fill="#000000">ProgramWindow::tabDelete</text>
</a>
</g>
</g>
<!-- Node505&#45;&gt;Node506 -->
<g id="edge17" class="edge">
<title>Node505&#45;&gt;Node506</title>
<path fill="none" stroke="#191970" d="M212.1226,-117.4337C194.1409,-117.1711 175.0805,-117.1901 157.2548,-117.4906"/>
<polygon fill="#191970" stroke="#191970" points="212.2153,-120.9358 222.2761,-117.6146 212.3401,-113.9369 212.2153,-120.9358"/>
</g>
<!-- Node507 -->
<g id="node17" class="node">
<title>Node507</title>
<g id="a_node17"><a xlink:href="../../dd/d15/classProgramWindow.html#aea98e1f8999714a9edeb61d58406fc5b" target="_top" xlink:title=" ">
<polygon fill="#ffffff" stroke="#000000" points="0,-76.5 0,-95.5 164,-95.5 164,-76.5 0,-76.5"/>
<text text-anchor="middle" x="82" y="-83.5" font-family="Helvetica,sans-Serif" font-size="10.00" fill="#000000">ProgramWindow::duplicateTab</text>
</a>
</g>
</g>
<!-- Node505&#45;&gt;Node507 -->
<g id="edge19" class="edge">
<title>Node505&#45;&gt;Node507</title>
<path fill="none" stroke="#191970" d="M228.5918,-112.653C198.6051,-107.2009 163.0664,-100.7393 134.4913,-95.5439"/>
<polygon fill="#191970" stroke="#191970" points="228.0654,-116.1147 238.5302,-114.46 229.3177,-109.2276 228.0654,-116.1147"/>
</g>
<!-- Node506&#45;&gt;Node505 -->
<g id="edge18" class="edge">
<title>Node506&#45;&gt;Node505</title>
<path fill="none" stroke="#191970" d="M167.3173,-130.6479C185.6071,-130.8446 204.7086,-130.7571 222.2761,-130.3854"/>
<polygon fill="#191970" stroke="#191970" points="167.3021,-127.1474 157.2548,-130.5094 167.2056,-134.1468 167.3021,-127.1474"/>
</g>
<!-- Node509&#45;&gt;Node497 -->
<g id="edge23" class="edge">
<title>Node509&#45;&gt;Node497</title>
<path fill="none" stroke="#191970" d="M228.5918,-21.347C198.6051,-26.7991 163.0664,-33.2607 134.4913,-38.4561"/>
<polygon fill="#191970" stroke="#191970" points="229.3177,-24.7724 238.5302,-19.54 228.0654,-17.8853 229.3177,-24.7724"/>
</g>
<!-- Node510&#45;&gt;Node505 -->
<g id="edge25" class="edge">
<title>Node510&#45;&gt;Node505</title>
<path fill="none" stroke="#191970" d="M423.7268,-124C402.423,-124 379.9299,-124 359.6356,-124"/>
<polygon fill="#191970" stroke="#191970" points="423.7456,-127.5001 433.7456,-124 423.7455,-120.5001 423.7456,-127.5001"/>
</g>
<!-- Node511&#45;&gt;Node505 -->
<g id="edge27" class="edge">
<title>Node511&#45;&gt;Node505</title>
<path fill="none" stroke="#191970" d="M445.7185,-97.2759C414.0676,-102.7429 376.4638,-109.2381 346.254,-114.4561"/>
<polygon fill="#191970" stroke="#191970" points="446.5103,-100.691 455.7687,-95.54 445.3188,-93.7932 446.5103,-100.691"/>
</g>
</g>
</svg>
