<?xml version="1.0" encoding="UTF-8" standalone="no"?>
<!DOCTYPE svg PUBLIC "-//W3C//DTD SVG 1.1//EN"
 "http://www.w3.org/Graphics/SVG/1.1/DTD/svg11.dtd">
<!-- Generated by graphviz version 2.40.1 (0)
 -->
<!-- Title: PartLabel::displayTexts Pages: 1 -->
<svg width="684pt" height="138pt"
 viewBox="0.00 0.00 684.00 138.00" xmlns="http://www.w3.org/2000/svg" xmlns:xlink="http://www.w3.org/1999/xlink">
<g id="graph0" class="graph" transform="scale(1 1) rotate(0) translate(4 134)">
<title>PartLabel::displayTexts</title>
<polygon fill="#ffffff" stroke="transparent" points="-4,4 -4,-134 680,-134 680,4 -4,4"/>
<!-- Node41 -->
<g id="node1" class="node">
<title>Node41</title>
<g id="a_node1"><a xlink:title=" ">
<polygon fill="#bfbfbf" stroke="#000000" points="548,-53.5 548,-72.5 676,-72.5 676,-53.5 548,-53.5"/>
<text text-anchor="middle" x="612" y="-60.5" font-family="Helvetica,sans-Serif" font-size="10.00" fill="#000000">PartLabel::displayTexts</text>
</a>
</g>
</g>
<!-- Node42 -->
<g id="node2" class="node">
<title>Node42</title>
<g id="a_node2"><a xlink:href="../../d0/dbb/classPartLabel.html#abef433ea2b4bf1d791e672fc50afcdbd" target="_top" xlink:title=" ">
<polygon fill="#ffffff" stroke="#000000" points="381,-110.5 381,-129.5 508,-129.5 508,-110.5 381,-110.5"/>
<text text-anchor="middle" x="444.5" y="-117.5" font-family="Helvetica,sans-Serif" font-size="10.00" fill="#000000">PartLabel::setPlainText</text>
</a>
</g>
</g>
<!-- Node41&#45;&gt;Node42 -->
<g id="edge1" class="edge">
<title>Node41&#45;&gt;Node42</title>
<path fill="none" stroke="#191970" d="M579.0765,-76.3551C559.7001,-84.0023 534.6315,-93.5312 512,-101 501.9421,-104.3193 490.9245,-107.5769 480.7613,-110.4314"/>
<polygon fill="#191970" stroke="#191970" points="580.3717,-79.6067 588.3707,-72.6592 577.7851,-73.1021 580.3717,-79.6067"/>
</g>
<!-- Node47 -->
<g id="node7" class="node">
<title>Node47</title>
<g id="a_node7"><a xlink:href="../../d0/dbb/classPartLabel.html#a5c12f053baf6b1b9f292f1d995b862ba" target="_top" xlink:title=" ">
<polygon fill="#ffffff" stroke="#000000" points="377,-72.5 377,-91.5 512,-91.5 512,-72.5 377,-72.5"/>
<text text-anchor="middle" x="444.5" y="-79.5" font-family="Helvetica,sans-Serif" font-size="10.00" fill="#000000">PartLabel::displayTextsIf</text>
</a>
</g>
</g>
<!-- Node41&#45;&gt;Node47 -->
<g id="edge6" class="edge">
<title>Node41&#45;&gt;Node47</title>
<path fill="none" stroke="#191970" d="M537.5291,-71.4474C529.1044,-72.4031 520.5529,-73.3731 512.2213,-74.3182"/>
<polygon fill="#191970" stroke="#191970" points="538.1774,-74.8964 547.7192,-70.2916 537.3884,-67.941 538.1774,-74.8964"/>
</g>
<!-- Node48 -->
<g id="node8" class="node">
<title>Node48</title>
<g id="a_node8"><a xlink:href="../../d0/dbb/classPartLabel.html#a7d45c3b5562c045d60ebb0985aee8e82" target="_top" xlink:title=" ">
<polygon fill="#ffffff" stroke="#000000" points="380.5,-34.5 380.5,-53.5 508.5,-53.5 508.5,-34.5 380.5,-34.5"/>
<text text-anchor="middle" x="444.5" y="-41.5" font-family="Helvetica,sans-Serif" font-size="10.00" fill="#000000">PartLabel::restoreLabel</text>
</a>
</g>
</g>
<!-- Node41&#45;&gt;Node48 -->
<g id="edge7" class="edge">
<title>Node41&#45;&gt;Node48</title>
<path fill="none" stroke="#191970" d="M537.6944,-54.5713C527.9939,-53.4709 518.1222,-52.3512 508.6088,-51.272"/>
<polygon fill="#191970" stroke="#191970" points="537.3884,-58.059 547.7192,-55.7084 538.1774,-51.1036 537.3884,-58.059"/>
</g>
<!-- Node49 -->
<g id="node9" class="node">
<title>Node49</title>
<g id="a_node9"><a xlink:href="../../d0/dbb/classPartLabel.html#adde4093cad8a969519d8babe47d91f38" target="_top" xlink:title=" ">
<polygon fill="#ffffff" stroke="#000000" points="195,-.5 195,-19.5 341,-19.5 341,-.5 195,-.5"/>
<text text-anchor="middle" x="268" y="-7.5" font-family="Helvetica,sans-Serif" font-size="10.00" fill="#000000">PartLabel::setLabelDisplay</text>
</a>
</g>
</g>
<!-- Node41&#45;&gt;Node49 -->
<g id="edge8" class="edge">
<title>Node41&#45;&gt;Node49</title>
<path fill="none" stroke="#191970" d="M582.9659,-49.2904C563.3785,-40.7165 536.695,-30.3222 512,-25 455.472,-12.8171 389.9987,-9.3534 341.1144,-8.7786"/>
<polygon fill="#191970" stroke="#191970" points="581.6853,-52.5519 592.2423,-53.447 584.5478,-46.1639 581.6853,-52.5519"/>
</g>
<!-- Node43 -->
<g id="node3" class="node">
<title>Node43</title>
<g id="a_node3"><a xlink:href="../../d0/dbb/classPartLabel.html#a4f2ee0c3179ff95f7d29d62d7035b7e3" target="_top" xlink:title=" ">
<polygon fill="#ffffff" stroke="#000000" points="208.5,-110.5 208.5,-129.5 327.5,-129.5 327.5,-110.5 208.5,-110.5"/>
<text text-anchor="middle" x="268" y="-117.5" font-family="Helvetica,sans-Serif" font-size="10.00" fill="#000000">PartLabel::showLabel</text>
</a>
</g>
</g>
<!-- Node42&#45;&gt;Node43 -->
<g id="edge2" class="edge">
<title>Node42&#45;&gt;Node43</title>
<path fill="none" stroke="#191970" d="M370.4612,-120C356.1355,-120 341.2968,-120 327.5088,-120"/>
<polygon fill="#191970" stroke="#191970" points="370.7795,-123.5001 380.7794,-120 370.7794,-116.5001 370.7795,-123.5001"/>
</g>
<!-- Node44 -->
<g id="node4" class="node">
<title>Node44</title>
<g id="a_node4"><a xlink:href="../../d0/dbb/classPartLabel.html#a405e4bd6173ccfb39d35bc7998c324dd" target="_top" xlink:title=" ">
<polygon fill="#ffffff" stroke="#000000" points="202,-68.5 202,-87.5 334,-87.5 334,-68.5 202,-68.5"/>
<text text-anchor="middle" x="268" y="-75.5" font-family="Helvetica,sans-Serif" font-size="10.00" fill="#000000">PartLabel::partLabelEdit</text>
</a>
</g>
</g>
<!-- Node42&#45;&gt;Node44 -->
<g id="edge3" class="edge">
<title>Node42&#45;&gt;Node44</title>
<path fill="none" stroke="#191970" d="M394.6764,-108.144C367.3284,-101.6362 333.8624,-93.6726 308.1972,-87.5653"/>
<polygon fill="#191970" stroke="#191970" points="393.9108,-111.5594 404.4494,-110.4695 395.5313,-104.7496 393.9108,-111.5594"/>
</g>
<!-- Node45 -->
<g id="node5" class="node">
<title>Node45</title>
<g id="a_node5"><a xlink:href="../../d0/dbb/classPartLabel.html#a25069e911360257337bfe3e05023d28f" target="_top" xlink:title=" ">
<polygon fill="#ffffff" stroke="#000000" points="0,-16.5 0,-35.5 159,-35.5 159,-16.5 0,-16.5"/>
<text text-anchor="middle" x="79.5" y="-23.5" font-family="Helvetica,sans-Serif" font-size="10.00" fill="#000000">PartLabel::contextMenuEvent</text>
</a>
</g>
</g>
<!-- Node44&#45;&gt;Node45 -->
<g id="edge4" class="edge">
<title>Node44&#45;&gt;Node45</title>
<path fill="none" stroke="#191970" d="M223.4577,-65.7125C190.0355,-56.4925 144.9308,-44.0499 114.1733,-35.565"/>
<polygon fill="#191970" stroke="#191970" points="222.8555,-69.177 233.4262,-68.4624 224.717,-62.4291 222.8555,-69.177"/>
</g>
<!-- Node46 -->
<g id="node6" class="node">
<title>Node46</title>
<g id="a_node6"><a xlink:href="../../d0/dbb/classPartLabel.html#aaf3d4a8496294c7ab8a545b6d03fde06" target="_top" xlink:title=" ">
<polygon fill="#ffffff" stroke="#000000" points="0,-63 0,-93 159,-93 159,-63 0,-63"/>
<text text-anchor="start" x="8" y="-81" font-family="Helvetica,sans-Serif" font-size="10.00" fill="#000000">PartLabel::mouseDoubleClick</text>
<text text-anchor="middle" x="79.5" y="-70" font-family="Helvetica,sans-Serif" font-size="10.00" fill="#000000">Event</text>
</a>
</g>
</g>
<!-- Node44&#45;&gt;Node46 -->
<g id="edge5" class="edge">
<title>Node44&#45;&gt;Node46</title>
<path fill="none" stroke="#191970" d="M191.651,-78C180.9359,-78 169.9004,-78 159.1261,-78"/>
<polygon fill="#191970" stroke="#191970" points="191.807,-81.5001 201.807,-78 191.807,-74.5001 191.807,-81.5001"/>
</g>
<!-- Node49&#45;&gt;Node45 -->
<g id="edge9" class="edge">
<title>Node49&#45;&gt;Node45</title>
<path fill="none" stroke="#191970" d="M184.6142,-17.0778C176.1585,-17.7956 167.5844,-18.5233 159.1694,-19.2376"/>
<polygon fill="#191970" stroke="#191970" points="185.1831,-20.5422 194.8512,-16.2089 184.591,-13.5673 185.1831,-20.5422"/>
</g>
</g>
</svg>
