<?xml version="1.0" encoding="UTF-8" standalone="no"?>
<!DOCTYPE svg PUBLIC "-//W3C//DTD SVG 1.1//EN"
 "http://www.w3.org/Graphics/SVG/1.1/DTD/svg11.dtd">
<!-- Generated by graphviz version 2.40.1 (0)
 -->
<!-- Title: PartLabel::contextMenuEvent Pages: 1 -->
<svg width="1441pt" height="464pt"
 viewBox="0.00 0.00 1441.00 463.50" xmlns="http://www.w3.org/2000/svg" xmlns:xlink="http://www.w3.org/1999/xlink">
<g id="graph0" class="graph" transform="scale(1 1) rotate(0) translate(4 459.5)">
<title>PartLabel::contextMenuEvent</title>
<polygon fill="#ffffff" stroke="transparent" points="-4,4 -4,-459.5 1437,-459.5 1437,4 -4,4"/>
<!-- Node4 -->
<g id="node1" class="node">
<title>Node4</title>
<g id="a_node1"><a xlink:title=" ">
<polygon fill="#bfbfbf" stroke="#000000" points="0,-209.5 0,-228.5 159,-228.5 159,-209.5 0,-209.5"/>
<text text-anchor="middle" x="79.5" y="-216.5" font-family="Helvetica,sans-Serif" font-size="10.00" fill="#000000">PartLabel::contextMenuEvent</text>
</a>
</g>
</g>
<!-- Node5 -->
<g id="node2" class="node">
<title>Node5</title>
<g id="a_node2"><a xlink:href="../../d8/d86/classInfoGraphicsView.html#a606fdf5fe1049e99851ba1050a9516e6" target="_top" xlink:title=" ">
<polygon fill="#ffffff" stroke="#000000" points="397.5,-425 397.5,-455 539.5,-455 539.5,-425 397.5,-425"/>
<text text-anchor="start" x="405.5" y="-443" font-family="Helvetica,sans-Serif" font-size="10.00" fill="#000000">InfoGraphicsView::getInfo</text>
<text text-anchor="middle" x="468.5" y="-432" font-family="Helvetica,sans-Serif" font-size="10.00" fill="#000000">GraphicsView</text>
</a>
</g>
</g>
<!-- Node4&#45;&gt;Node5 -->
<g id="edge1" class="edge">
<title>Node4&#45;&gt;Node5</title>
<path fill="none" stroke="#191970" d="M82.3742,-228.5804C92.2157,-259.5627 127.7271,-357.5495 195,-401 251.9167,-437.7616 329.3016,-445.8271 387.2329,-445.6727"/>
<polygon fill="#191970" stroke="#191970" points="387.4878,-449.1702 397.4487,-445.5604 387.4108,-442.1706 387.4878,-449.1702"/>
</g>
<!-- Node6 -->
<g id="node3" class="node">
<title>Node6</title>
<g id="a_node3"><a xlink:href="../../d8/d86/classInfoGraphicsView.html#a2712e8047d4dd31bb2405451ea4f9a54" target="_top" xlink:title=" ">
<polygon fill="#ffffff" stroke="#000000" points="394,-376 394,-406 543,-406 543,-376 394,-376"/>
<text text-anchor="start" x="402" y="-394" font-family="Helvetica,sans-Serif" font-size="10.00" fill="#000000">InfoGraphicsView::getLabel</text>
<text text-anchor="middle" x="468.5" y="-383" font-family="Helvetica,sans-Serif" font-size="10.00" fill="#000000">FontSizeLarge</text>
</a>
</g>
</g>
<!-- Node4&#45;&gt;Node6 -->
<g id="edge2" class="edge">
<title>Node4&#45;&gt;Node6</title>
<path fill="none" stroke="#191970" d="M83.4214,-228.745C95.2921,-256.7914 133.8202,-337.815 195,-371 252.5407,-402.2111 327.1674,-405.6652 383.9283,-402.175"/>
<polygon fill="#191970" stroke="#191970" points="384.2194,-405.6633 393.9515,-401.4757 383.7322,-398.6803 384.2194,-405.6633"/>
</g>
<!-- Node7 -->
<g id="node4" class="node">
<title>Node7</title>
<g id="a_node4"><a xlink:href="../../d8/d86/classInfoGraphicsView.html#a88716cfe54756c97475a75afef4f2e2b" target="_top" xlink:title=" ">
<polygon fill="#ffffff" stroke="#000000" points="394,-327 394,-357 543,-357 543,-327 394,-327"/>
<text text-anchor="start" x="402" y="-345" font-family="Helvetica,sans-Serif" font-size="10.00" fill="#000000">InfoGraphicsView::getLabel</text>
<text text-anchor="middle" x="468.5" y="-334" font-family="Helvetica,sans-Serif" font-size="10.00" fill="#000000">FontSizeMedium</text>
</a>
</g>
</g>
<!-- Node4&#45;&gt;Node7 -->
<g id="edge3" class="edge">
<title>Node4&#45;&gt;Node7</title>
<path fill="none" stroke="#191970" d="M97.8767,-228.6858C120.3133,-240.2152 159.6457,-259.4785 195,-272 257.5226,-294.1437 330.3707,-312.437 385.1563,-324.7628"/>
<polygon fill="#191970" stroke="#191970" points="384.6473,-328.2352 395.1692,-326.9945 386.1701,-321.4028 384.6473,-328.2352"/>
</g>
<!-- Node8 -->
<g id="node5" class="node">
<title>Node8</title>
<g id="a_node5"><a xlink:href="../../d8/d86/classInfoGraphicsView.html#a49e1cf4427e434811726a86f395c1cec" target="_top" xlink:title=" ">
<polygon fill="#ffffff" stroke="#000000" points="394,-278 394,-308 543,-308 543,-278 394,-278"/>
<text text-anchor="start" x="402" y="-296" font-family="Helvetica,sans-Serif" font-size="10.00" fill="#000000">InfoGraphicsView::getLabel</text>
<text text-anchor="middle" x="468.5" y="-285" font-family="Helvetica,sans-Serif" font-size="10.00" fill="#000000">FontSizeSmall</text>
</a>
</g>
</g>
<!-- Node4&#45;&gt;Node8 -->
<g id="edge4" class="edge">
<title>Node4&#45;&gt;Node8</title>
<path fill="none" stroke="#191970" d="M119.756,-228.557C141.9047,-233.6902 169.9083,-239.977 195,-245 258.0798,-257.6278 329.712,-270.1332 383.8404,-279.2126"/>
<polygon fill="#191970" stroke="#191970" points="383.2974,-282.6703 393.7376,-280.8673 384.4517,-275.7661 383.2974,-282.6703"/>
</g>
<!-- Node9 -->
<g id="node6" class="node">
<title>Node9</title>
<g id="a_node6"><a xlink:href="../../d8/d86/classInfoGraphicsView.html#ae3f980b1b17dcabb79d53455d65cccc2" target="_top" xlink:title=" ">
<polygon fill="#ffffff" stroke="#000000" points="394,-229 394,-259 543,-259 543,-229 394,-229"/>
<text text-anchor="start" x="402" y="-247" font-family="Helvetica,sans-Serif" font-size="10.00" fill="#000000">InfoGraphicsView::getLabel</text>
<text text-anchor="middle" x="468.5" y="-236" font-family="Helvetica,sans-Serif" font-size="10.00" fill="#000000">FontSizeTiny</text>
</a>
</g>
</g>
<!-- Node4&#45;&gt;Node9 -->
<g id="edge5" class="edge">
<title>Node4&#45;&gt;Node9</title>
<path fill="none" stroke="#191970" d="M159.1586,-224.1195C224.595,-228.3249 317.0501,-234.2667 383.8206,-238.5579"/>
<polygon fill="#191970" stroke="#191970" points="383.6895,-242.0566 393.8934,-239.2052 384.1385,-235.071 383.6895,-242.0566"/>
</g>
<!-- Node10 -->
<g id="node7" class="node">
<title>Node10</title>
<g id="a_node7"><a xlink:href="../../d0/dbb/classPartLabel.html#a3ba68299ac44143604680e0e64d5a83f" target="_top" xlink:title=" ">
<polygon fill="#ffffff" stroke="#000000" points="213,-190.5 213,-209.5 323,-209.5 323,-190.5 213,-190.5"/>
<text text-anchor="middle" x="268" y="-197.5" font-family="Helvetica,sans-Serif" font-size="10.00" fill="#000000">PartLabel::initMenu</text>
</a>
</g>
</g>
<!-- Node4&#45;&gt;Node10 -->
<g id="edge6" class="edge">
<title>Node4&#45;&gt;Node10</title>
<path fill="none" stroke="#191970" d="M159.1678,-210.9698C173.7217,-209.5029 188.7511,-207.988 202.8221,-206.5697"/>
<polygon fill="#191970" stroke="#191970" points="203.2796,-210.0414 212.8781,-205.5561 202.5775,-203.0767 203.2796,-210.0414"/>
</g>
<!-- Node12 -->
<g id="node9" class="node">
<title>Node12</title>
<g id="a_node9"><a xlink:href="../../d0/dbb/classPartLabel.html#a405e4bd6173ccfb39d35bc7998c324dd" target="_top" xlink:title=" ">
<polygon fill="#ffffff" stroke="#000000" points="202,-76.5 202,-95.5 334,-95.5 334,-76.5 202,-76.5"/>
<text text-anchor="middle" x="268" y="-83.5" font-family="Helvetica,sans-Serif" font-size="10.00" fill="#000000">PartLabel::partLabelEdit</text>
</a>
</g>
</g>
<!-- Node4&#45;&gt;Node12 -->
<g id="edge8" class="edge">
<title>Node4&#45;&gt;Node12</title>
<path fill="none" stroke="#191970" d="M86.385,-209.3493C102.6414,-187.2996 145.7636,-132.9784 195,-105 198.9495,-102.7557 203.169,-100.7708 207.5127,-99.0161"/>
<polygon fill="#191970" stroke="#191970" points="208.9469,-102.2195 217.164,-95.5314 206.5696,-95.6355 208.9469,-102.2195"/>
</g>
<!-- Node15 -->
<g id="node12" class="node">
<title>Node15</title>
<g id="a_node12"><a xlink:href="../../d0/dbb/classPartLabel.html#af0008531bf598fdbb441bbd9754a84b7" target="_top" xlink:title=" ">
<polygon fill="#ffffff" stroke="#000000" points="760,-133.5 760,-152.5 870,-152.5 870,-133.5 760,-133.5"/>
<text text-anchor="middle" x="815" y="-140.5" font-family="Helvetica,sans-Serif" font-size="10.00" fill="#000000">PartLabel::resetSvg</text>
</a>
</g>
</g>
<!-- Node4&#45;&gt;Node15 -->
<g id="edge22" class="edge">
<title>Node4&#45;&gt;Node15</title>
<path fill="none" stroke="#191970" d="M102.4832,-209.491C125.4652,-200.4508 162.037,-187.3234 195,-181 299.6399,-160.9265 612.1384,-149.2013 749.2656,-144.8964"/>
<polygon fill="#191970" stroke="#191970" points="749.7325,-148.3837 759.6191,-144.575 749.5153,-141.387 749.7325,-148.3837"/>
</g>
<!-- Node25 -->
<g id="node22" class="node">
<title>Node25</title>
<g id="a_node22"><a xlink:href="../../d0/dbb/classPartLabel.html#a2e0b7739ceb4a474575353ebced965d3" target="_top" xlink:title=" ">
<polygon fill="#ffffff" stroke="#000000" points="200,-38.5 200,-57.5 336,-57.5 336,-38.5 200,-38.5"/>
<text text-anchor="middle" x="268" y="-45.5" font-family="Helvetica,sans-Serif" font-size="10.00" fill="#000000">PartLabel::partLabelHide</text>
</a>
</g>
</g>
<!-- Node4&#45;&gt;Node25 -->
<g id="edge21" class="edge">
<title>Node4&#45;&gt;Node25</title>
<path fill="none" stroke="#191970" d="M83.9211,-209.3953C96.8515,-182.4156 137.3577,-105.4128 195,-67 198.0684,-64.9552 201.3449,-63.1304 204.7466,-61.5019"/>
<polygon fill="#191970" stroke="#191970" points="206.1142,-64.7238 213.9867,-57.6333 203.4108,-58.2668 206.1142,-64.7238"/>
</g>
<!-- Node26 -->
<g id="node23" class="node">
<title>Node26</title>
<g id="a_node23"><a xlink:href="../../d0/dbb/classPartLabel.html#ad9709def731f0335db1440a4b8fb8b5d" target="_top" xlink:title=" ">
<polygon fill="#ffffff" stroke="#000000" points="210.5,-.5 210.5,-19.5 325.5,-19.5 325.5,-.5 210.5,-.5"/>
<text text-anchor="middle" x="268" y="-7.5" font-family="Helvetica,sans-Serif" font-size="10.00" fill="#000000">PartLabel::rotateFlip</text>
</a>
</g>
</g>
<!-- Node4&#45;&gt;Node26 -->
<g id="edge23" class="edge">
<title>Node4&#45;&gt;Node26</title>
<path fill="none" stroke="#191970" d="M82.4544,-209.3173C92.5414,-177.9497 128.7197,-78.3082 195,-29 197.6268,-27.0458 200.4367,-25.2921 203.369,-23.7184"/>
<polygon fill="#191970" stroke="#191970" points="204.8593,-26.8854 212.4719,-19.5165 201.9256,-20.5298 204.8593,-26.8854"/>
</g>
<!-- Node27 -->
<g id="node24" class="node">
<title>Node27</title>
<g id="a_node24"><a xlink:href="../../d0/dbb/classPartLabel.html#a8846e625d80f45b91175e56943c001a1" target="_top" xlink:title=" ">
<polygon fill="#ffffff" stroke="#000000" points="206,-342.5 206,-361.5 330,-361.5 330,-342.5 206,-342.5"/>
<text text-anchor="middle" x="268" y="-349.5" font-family="Helvetica,sans-Serif" font-size="10.00" fill="#000000">PartLabel::setFontSize</text>
</a>
</g>
</g>
<!-- Node4&#45;&gt;Node27 -->
<g id="edge24" class="edge">
<title>Node4&#45;&gt;Node27</title>
<path fill="none" stroke="#191970" d="M87.1166,-228.6301C104.2141,-249.6354 147.8566,-299.93 195,-328 202.3327,-332.366 210.5588,-336.0486 218.7741,-339.1167"/>
<polygon fill="#191970" stroke="#191970" points="217.7642,-342.4709 228.359,-342.4403 220.0576,-335.8573 217.7642,-342.4709"/>
</g>
<!-- Node28 -->
<g id="node25" class="node">
<title>Node28</title>
<g id="a_node25"><a xlink:href="../../d0/dbb/classPartLabel.html#adde4093cad8a969519d8babe47d91f38" target="_top" xlink:title=" ">
<polygon fill="#ffffff" stroke="#000000" points="195,-114.5 195,-133.5 341,-133.5 341,-114.5 195,-114.5"/>
<text text-anchor="middle" x="268" y="-121.5" font-family="Helvetica,sans-Serif" font-size="10.00" fill="#000000">PartLabel::setLabelDisplay</text>
</a>
</g>
</g>
<!-- Node4&#45;&gt;Node28 -->
<g id="edge30" class="edge">
<title>Node4&#45;&gt;Node28</title>
<path fill="none" stroke="#191970" d="M92.7874,-209.395C113.6953,-194.6201 155.9266,-166.1286 195,-148 204.1672,-143.7468 214.3008,-139.9093 224.0263,-136.6138"/>
<polygon fill="#191970" stroke="#191970" points="225.1425,-139.9313 233.5649,-133.5038 222.9725,-133.2761 225.1425,-139.9313"/>
</g>
<!-- Node11 -->
<g id="node8" class="node">
<title>Node11</title>
<g id="a_node8"><a xlink:href="../../d4/d4f/classItemBase.html#a671b579361ebfaa683421261e4da4573" target="_top" xlink:title=" ">
<polygon fill="#ffffff" stroke="#000000" points="377,-190.5 377,-209.5 560,-209.5 560,-190.5 377,-190.5"/>
<text text-anchor="middle" x="468.5" y="-197.5" font-family="Helvetica,sans-Serif" font-size="10.00" fill="#000000">ItemBase::translatePropertyName</text>
</a>
</g>
</g>
<!-- Node10&#45;&gt;Node11 -->
<g id="edge7" class="edge">
<title>Node10&#45;&gt;Node11</title>
<path fill="none" stroke="#191970" d="M323.0527,-200C336.6165,-200 351.5763,-200 366.586,-200"/>
<polygon fill="#191970" stroke="#191970" points="366.9687,-203.5001 376.9686,-200 366.9686,-196.5001 366.9687,-203.5001"/>
</g>
<!-- Node13 -->
<g id="node10" class="node">
<title>Node13</title>
<g id="a_node10"><a xlink:href="../../d0/dbb/classPartLabel.html#abef433ea2b4bf1d791e672fc50afcdbd" target="_top" xlink:title=" ">
<polygon fill="#ffffff" stroke="#000000" points="405,-76.5 405,-95.5 532,-95.5 532,-76.5 405,-76.5"/>
<text text-anchor="middle" x="468.5" y="-83.5" font-family="Helvetica,sans-Serif" font-size="10.00" fill="#000000">PartLabel::setPlainText</text>
</a>
</g>
</g>
<!-- Node12&#45;&gt;Node13 -->
<g id="edge9" class="edge">
<title>Node12&#45;&gt;Node13</title>
<path fill="none" stroke="#191970" d="M334.2069,-86C353.5364,-86 374.782,-86 394.5578,-86"/>
<polygon fill="#191970" stroke="#191970" points="394.7474,-89.5001 404.7474,-86 394.7473,-82.5001 394.7474,-89.5001"/>
</g>
<!-- Node14 -->
<g id="node11" class="node">
<title>Node14</title>
<g id="a_node11"><a xlink:href="../../d0/dbb/classPartLabel.html#a0299d0d9e819bc65b4ba76066e5e1667" target="_top" xlink:title=" ">
<polygon fill="#ffffff" stroke="#000000" points="596,-114.5 596,-133.5 724,-133.5 724,-114.5 596,-114.5"/>
<text text-anchor="middle" x="660" y="-121.5" font-family="Helvetica,sans-Serif" font-size="10.00" fill="#000000">PartLabel::displayTexts</text>
</a>
</g>
</g>
<!-- Node13&#45;&gt;Node14 -->
<g id="edge10" class="edge">
<title>Node13&#45;&gt;Node14</title>
<path fill="none" stroke="#191970" d="M516.8235,-95.589C542.6632,-100.7165 574.6678,-107.0672 601.8606,-112.4632"/>
<polygon fill="#191970" stroke="#191970" points="601.5339,-115.9666 612.024,-114.4799 602.8965,-109.1004 601.5339,-115.9666"/>
</g>
<!-- Node14&#45;&gt;Node15 -->
<g id="edge11" class="edge">
<title>Node14&#45;&gt;Node15</title>
<path fill="none" stroke="#191970" d="M724.3874,-131.8926C732.7843,-132.9219 741.3926,-133.9772 749.8027,-135.0081"/>
<polygon fill="#191970" stroke="#191970" points="749.5836,-138.5073 759.9351,-136.2501 750.4353,-131.5593 749.5836,-138.5073"/>
</g>
<!-- Node16 -->
<g id="node13" class="node">
<title>Node16</title>
<g id="a_node13"><a xlink:href="../../d0/dbb/classPartLabel.html#a8e98ab6a38eac3d3bcae2205047efbe0" target="_top" xlink:title=" ">
<polygon fill="#ffffff" stroke="#000000" points="914.5,-152.5 914.5,-171.5 1045.5,-171.5 1045.5,-152.5 914.5,-152.5"/>
<text text-anchor="middle" x="980" y="-159.5" font-family="Helvetica,sans-Serif" font-size="10.00" fill="#000000">PartLabel::makeSvgAux</text>
</a>
</g>
</g>
<!-- Node15&#45;&gt;Node16 -->
<g id="edge12" class="edge">
<title>Node15&#45;&gt;Node16</title>
<path fill="none" stroke="#191970" d="M870.4016,-149.3796C881.3356,-150.6386 892.984,-151.98 904.4519,-153.3005"/>
<polygon fill="#191970" stroke="#191970" points="904.126,-156.786 914.4608,-154.4531 904.9269,-149.832 904.126,-156.786"/>
</g>
<!-- Node24 -->
<g id="node21" class="node">
<title>Node24</title>
<g id="a_node21"><a xlink:href="../../de/db8/classTextUtils.html#a03d0e650ce39fc4d7a265d71c5b869d9" target="_top" xlink:title=" ">
<polygon fill="#ffffff" stroke="#000000" points="906,-114.5 906,-133.5 1054,-133.5 1054,-114.5 906,-114.5"/>
<text text-anchor="middle" x="980" y="-121.5" font-family="Helvetica,sans-Serif" font-size="10.00" fill="#000000">TextUtils::makeSVGHeader</text>
</a>
</g>
</g>
<!-- Node15&#45;&gt;Node24 -->
<g id="edge20" class="edge">
<title>Node15&#45;&gt;Node24</title>
<path fill="none" stroke="#191970" d="M870.4016,-136.6204C878.6111,-135.6751 887.2232,-134.6834 895.8594,-133.6889"/>
<polygon fill="#191970" stroke="#191970" points="896.4518,-137.1439 905.9858,-132.5229 895.651,-130.1899 896.4518,-137.1439"/>
</g>
<!-- Node17 -->
<g id="node14" class="node">
<title>Node17</title>
<g id="a_node14"><a xlink:href="../../d4/d76/partlabel_8cpp.html#aaf0d939b22aea34089c643ef0cb15bbb" target="_top" xlink:title=" ">
<polygon fill="#ffffff" stroke="#000000" points="1129.5,-259.5 1129.5,-278.5 1223.5,-278.5 1223.5,-259.5 1129.5,-259.5"/>
<text text-anchor="middle" x="1176.5" y="-266.5" font-family="Helvetica,sans-Serif" font-size="10.00" fill="#000000">mapToSVGStyle</text>
</a>
</g>
</g>
<!-- Node16&#45;&gt;Node17 -->
<g id="edge13" class="edge">
<title>Node16&#45;&gt;Node17</title>
<path fill="none" stroke="#191970" d="M988.9678,-171.6701C1006.5145,-189.9727 1047.4058,-229.6616 1090,-250 1099.1574,-254.3726 1109.3424,-257.7534 1119.4165,-260.3633"/>
<polygon fill="#191970" stroke="#191970" points="1118.8747,-263.8315 1129.4115,-262.7243 1120.484,-257.019 1118.8747,-263.8315"/>
</g>
<!-- Node18 -->
<g id="node15" class="node">
<title>Node18</title>
<g id="a_node15"><a xlink:href="../../d4/d76/partlabel_8cpp.html#a584fd166d378f4f56ac39dfec40ff14a" target="_top" xlink:title=" ">
<polygon fill="#ffffff" stroke="#000000" points="1125,-221.5 1125,-240.5 1228,-240.5 1228,-221.5 1125,-221.5"/>
<text text-anchor="middle" x="1176.5" y="-228.5" font-family="Helvetica,sans-Serif" font-size="10.00" fill="#000000">mapToSVGWeight</text>
</a>
</g>
</g>
<!-- Node16&#45;&gt;Node18 -->
<g id="edge14" class="edge">
<title>Node16&#45;&gt;Node18</title>
<path fill="none" stroke="#191970" d="M997.8236,-171.5185C1019.1991,-182.5973 1056.3636,-200.8001 1090,-212 1097.9687,-214.6533 1106.475,-217.0394 1114.9268,-219.1515"/>
<polygon fill="#191970" stroke="#191970" points="1114.2486,-222.5878 1124.7879,-221.5046 1115.8734,-215.779 1114.2486,-222.5878"/>
</g>
<!-- Node19 -->
<g id="node16" class="node">
<title>Node19</title>
<g id="a_node16"><a xlink:href="../../d5/d9d/classViewLayer.html#a57a288e6d73ae234b8a739f20964e026" target="_top" xlink:title=" ">
<polygon fill="#ffffff" stroke="#000000" points="1090,-172 1090,-202 1263,-202 1263,-172 1090,-172"/>
<text text-anchor="start" x="1098" y="-190" font-family="Helvetica,sans-Serif" font-size="10.00" fill="#000000">ViewLayer::viewLayerXmlName</text>
<text text-anchor="middle" x="1176.5" y="-179" font-family="Helvetica,sans-Serif" font-size="10.00" fill="#000000">FromID</text>
</a>
</g>
</g>
<!-- Node16&#45;&gt;Node19 -->
<g id="edge15" class="edge">
<title>Node16&#45;&gt;Node19</title>
<path fill="none" stroke="#191970" d="M1045.7048,-170.3594C1056.664,-171.7537 1068.2322,-173.2255 1079.7724,-174.6937"/>
<polygon fill="#191970" stroke="#191970" points="1079.5287,-178.1908 1089.8905,-175.981 1080.4123,-171.2468 1079.5287,-178.1908"/>
</g>
<!-- Node21 -->
<g id="node18" class="node">
<title>Node21</title>
<g id="a_node18"><a xlink:href="../../de/db8/classTextUtils.html#aec379f2545c5e9a447b8bb09366da798" target="_top" xlink:title=" ">
<polygon fill="#ffffff" stroke="#000000" points="1102.5,-123 1102.5,-153 1250.5,-153 1250.5,-123 1102.5,-123"/>
<text text-anchor="start" x="1110.5" y="-141" font-family="Helvetica,sans-Serif" font-size="10.00" fill="#000000">TextUtils::convertExtended</text>
<text text-anchor="middle" x="1176.5" y="-130" font-family="Helvetica,sans-Serif" font-size="10.00" fill="#000000">Chars</text>
</a>
</g>
</g>
<!-- Node16&#45;&gt;Node21 -->
<g id="edge17" class="edge">
<title>Node16&#45;&gt;Node21</title>
<path fill="none" stroke="#191970" d="M1045.7048,-153.975C1060.623,-152.1529 1076.6697,-150.193 1092.2381,-148.2915"/>
<polygon fill="#191970" stroke="#191970" points="1092.8811,-151.7391 1102.383,-147.0525 1092.0324,-144.7907 1092.8811,-151.7391"/>
</g>
<!-- Node22 -->
<g id="node19" class="node">
<title>Node22</title>
<g id="a_node19"><a xlink:href="../../de/db8/classTextUtils.html#a8330785617dee0cc6461a1b595d98c64" target="_top" xlink:title=" ">
<polygon fill="#ffffff" stroke="#000000" points="1117,-84.5 1117,-103.5 1236,-103.5 1236,-84.5 1117,-84.5"/>
<text text-anchor="middle" x="1176.5" y="-91.5" font-family="Helvetica,sans-Serif" font-size="10.00" fill="#000000">TextUtils::escapeAnd</text>
</a>
</g>
</g>
<!-- Node16&#45;&gt;Node22 -->
<g id="edge18" class="edge">
<title>Node16&#45;&gt;Node22</title>
<path fill="none" stroke="#191970" d="M1029.6317,-152.3889C1037.9921,-149.8943 1046.4114,-146.8045 1054,-143 1072.3667,-133.7919 1071.5237,-122.986 1090,-114 1095.9603,-111.1012 1102.3588,-108.6119 1108.8801,-106.4764"/>
<polygon fill="#191970" stroke="#191970" points="1109.9134,-109.8206 1118.4856,-103.5943 1107.9016,-103.1159 1109.9134,-109.8206"/>
</g>
<!-- Node23 -->
<g id="node20" class="node">
<title>Node23</title>
<g id="a_node20"><a xlink:href="../../d4/d08/misc_8h.html#ae7cc352fa1dc81e57ff53ebbc762f27d" target="_top" xlink:title=" ">
<polygon fill="#ffffff" stroke="#000000" points="1154.5,-46.5 1154.5,-65.5 1198.5,-65.5 1198.5,-46.5 1154.5,-46.5"/>
<text text-anchor="middle" x="1176.5" y="-53.5" font-family="Helvetica,sans-Serif" font-size="10.00" fill="#000000">qMax</text>
</a>
</g>
</g>
<!-- Node16&#45;&gt;Node23 -->
<g id="edge19" class="edge">
<title>Node16&#45;&gt;Node23</title>
<path fill="none" stroke="#191970" d="M1037.6439,-152.4036C1043.5121,-149.9424 1049.1044,-146.8596 1054,-143 1080.8544,-121.8287 1062.7781,-95.6967 1090,-75 1105.4065,-63.2865 1126.5752,-58.4984 1144.1148,-56.6573"/>
<polygon fill="#191970" stroke="#191970" points="1144.7821,-60.1163 1154.4827,-55.8562 1144.2428,-53.1371 1144.7821,-60.1163"/>
</g>
<!-- Node20 -->
<g id="node17" class="node">
<title>Node20</title>
<g id="a_node17"><a xlink:href="../../d5/d9d/classViewLayer.html#acda6179880454250f27ee4ed167b6983" target="_top" xlink:title=" ">
<polygon fill="#ffffff" stroke="#000000" points="1299,-177.5 1299,-196.5 1433,-196.5 1433,-177.5 1299,-177.5"/>
<text text-anchor="middle" x="1366" y="-184.5" font-family="Helvetica,sans-Serif" font-size="10.00" fill="#000000">ViewLayer::viewLayerID</text>
</a>
</g>
</g>
<!-- Node19&#45;&gt;Node20 -->
<g id="edge16" class="edge">
<title>Node19&#45;&gt;Node20</title>
<path fill="none" stroke="#191970" d="M1263.2086,-187C1271.7307,-187 1280.3402,-187 1288.7586,-187"/>
<polygon fill="#191970" stroke="#191970" points="1288.9139,-190.5001 1298.9139,-187 1288.9138,-183.5001 1288.9139,-190.5001"/>
</g>
<!-- Node27&#45;&gt;Node5 -->
<g id="edge25" class="edge">
<title>Node27&#45;&gt;Node5</title>
<path fill="none" stroke="#191970" d="M281.4712,-361.5662C301.4533,-375.3621 340.5222,-400.8468 377,-416 382.0238,-418.0869 387.2795,-420.0356 392.6229,-421.8469"/>
<polygon fill="#191970" stroke="#191970" points="391.7134,-425.2309 402.3048,-424.959 393.8556,-418.5667 391.7134,-425.2309"/>
</g>
<!-- Node27&#45;&gt;Node6 -->
<g id="edge29" class="edge">
<title>Node27&#45;&gt;Node6</title>
<path fill="none" stroke="#191970" d="M317.0478,-361.5405C337.1445,-365.4496 360.9939,-370.0886 383.7511,-374.5152"/>
<polygon fill="#191970" stroke="#191970" points="383.2823,-377.9895 393.7666,-376.4633 384.6189,-371.1183 383.2823,-377.9895"/>
</g>
<!-- Node27&#45;&gt;Node7 -->
<g id="edge28" class="edge">
<title>Node27&#45;&gt;Node7</title>
<path fill="none" stroke="#191970" d="M330.0664,-348.9044C346.9696,-348.0614 365.5756,-347.1334 383.5139,-346.2387"/>
<polygon fill="#191970" stroke="#191970" points="383.8738,-349.7252 393.687,-345.7313 383.525,-342.7339 383.8738,-349.7252"/>
</g>
<!-- Node27&#45;&gt;Node8 -->
<g id="edge27" class="edge">
<title>Node27&#45;&gt;Node8</title>
<path fill="none" stroke="#191970" d="M297.5218,-342.4787C319.4014,-335.4985 349.9833,-325.9017 377,-318 385.2683,-315.5817 393.9782,-313.1079 402.6039,-310.7021"/>
<polygon fill="#191970" stroke="#191970" points="403.5765,-314.0646 412.2789,-308.0214 401.7074,-307.3187 403.5765,-314.0646"/>
</g>
<!-- Node27&#45;&gt;Node9 -->
<g id="edge26" class="edge">
<title>Node27&#45;&gt;Node9</title>
<path fill="none" stroke="#191970" d="M277.9195,-342.2848C296.0653,-325.0389 336.4805,-289.0126 377,-269 381.6787,-266.6892 386.601,-264.5674 391.6349,-262.6233"/>
<polygon fill="#191970" stroke="#191970" points="393.1956,-265.7814 401.4185,-259.1005 390.8241,-259.1953 393.1956,-265.7814"/>
</g>
<!-- Node28&#45;&gt;Node14 -->
<g id="edge31" class="edge">
<title>Node28&#45;&gt;Node14</title>
<path fill="none" stroke="#191970" d="M341.2724,-124C411.078,-124 515.6365,-124 585.7608,-124"/>
<polygon fill="#191970" stroke="#191970" points="585.849,-127.5001 595.8489,-124 585.8489,-120.5001 585.849,-127.5001"/>
</g>
</g>
</svg>
