<?xml version="1.0" encoding="UTF-8" standalone="no"?>
<!DOCTYPE svg PUBLIC "-//W3C//DTD SVG 1.1//EN"
 "http://www.w3.org/Graphics/SVG/1.1/DTD/svg11.dtd">
<!-- Generated by graphviz version 2.40.1 (0)
 -->
<!-- Title: PartLabel::mouseDoubleClickEvent Pages: 1 -->
<!--zoomable 241 -->
<svg id="main" version="1.1" xmlns="http://www.w3.org/2000/svg" xmlns:xlink="http://www.w3.org/1999/xlink" xml:space="preserve" onload="init(evt)">
<style type="text/css"><![CDATA[
.edge:hover path { stroke: red; }
.edge:hover polygon { stroke: red; fill: red; }
]]></style>
<script type="text/javascript"><![CDATA[
var edges = document.getElementsByTagName('g');
if (edges && edges.length) {
  for (var i=0;i<edges.length;i++) {
    if (edges[i].id.substr(0,4)=='edge') {
      edges[i].setAttribute('class','edge');
    }
  }
}
]]></script>
        <defs>
                <circle id="rim" cx="0" cy="0" r="7"/>
                <circle id="rim2" cx="0" cy="0" r="3.5"/>
                <g id="zoomPlus">
                        <use xlink:href="#rim" fill="#404040">
                                <set attributeName="fill" to="#808080" begin="zoomplus.mouseover" end="zoomplus.mouseout"/>
                        </use>
                        <path d="M-4,0h8M0,-4v8" fill="none" stroke="white" stroke-width="1.5" pointer-events="none"/>
                </g>
                <g id="zoomMin">
                        <use xlink:href="#rim" fill="#404040">
                                <set attributeName="fill" to="#808080" begin="zoomminus.mouseover" end="zoomminus.mouseout"/>
                        </use>
                        <path d="M-4,0h8" fill="none" stroke="white" stroke-width="1.5" pointer-events="none"/>
                </g>
                <g id="dirArrow">
                        <path fill="none" stroke="white" stroke-width="1.5" d="M0,-3.0v7 M-2.5,-0.5L0,-3.0L2.5,-0.5"/>
                </g>
               <g id="resetDef">
                       <use xlink:href="#rim2" fill="#404040">
                               <set attributeName="fill" to="#808080" begin="reset.mouseover" end="reset.mouseout"/>
                       </use>
               </g>
        </defs>

<script type="text/javascript">
var viewWidth = 1371;
var viewHeight = 241;
var sectionId = 'dynsection-11';
</script>
<script xlink:href="../../svgpan.js"/>
<svg id="graph" class="graph">
<g id="viewport">
<title>PartLabel::mouseDoubleClickEvent</title>
<polygon fill="#ffffff" stroke="transparent" points="-4,4 -4,-237 1367,-237 1367,4 -4,4"/>
<!-- Node108 -->
<g id="node1" class="node">
<title>Node108</title>
<g id="a_node1"><a xlink:title=" ">
<polygon fill="#bfbfbf" stroke="#000000" points="0,-82.5 0,-112.5 159,-112.5 159,-82.5 0,-82.5"/>
<text text-anchor="start" x="8" y="-100.5" font-family="Helvetica,sans-Serif" font-size="10.00" fill="#000000">PartLabel::mouseDoubleClick</text>
<text text-anchor="middle" x="79.5" y="-89.5" font-family="Helvetica,sans-Serif" font-size="10.00" fill="#000000">Event</text>
</a>
</g>
</g>
<!-- Node109 -->
<g id="node2" class="node">
<title>Node109</title>
<g id="a_node2"><a xlink:href="../../d0/dbb/classPartLabel.html#a405e4bd6173ccfb39d35bc7998c324dd" target="_top" xlink:title=" ">
<polygon fill="#ffffff" stroke="#000000" points="195,-88 195,-107 327,-107 327,-88 195,-88"/>
<text text-anchor="middle" x="261" y="-95" font-family="Helvetica,sans-Serif" font-size="10.00" fill="#000000">PartLabel::partLabelEdit</text>
</a>
</g>
</g>
<!-- Node108&#45;&gt;Node109 -->
<g id="edge1" class="edge">
<title>Node108&#45;&gt;Node109</title>
<path fill="none" stroke="#191970" d="M159.1085,-97.5C167.5729,-97.5 176.1686,-97.5 184.595,-97.5"/>
<polygon fill="#191970" stroke="#191970" points="184.7692,-101.0001 194.7692,-97.5 184.7691,-94.0001 184.7692,-101.0001"/>
</g>
<!-- Node110 -->
<g id="node3" class="node">
<title>Node110</title>
<g id="a_node3"><a xlink:href="../../d0/dbb/classPartLabel.html#abef433ea2b4bf1d791e672fc50afcdbd" target="_top" xlink:title=" ">
<polygon fill="#ffffff" stroke="#000000" points="363,-88 363,-107 490,-107 490,-88 363,-88"/>
<text text-anchor="middle" x="426.5" y="-95" font-family="Helvetica,sans-Serif" font-size="10.00" fill="#000000">PartLabel::setPlainText</text>
</a>
</g>
</g>
<!-- Node109&#45;&gt;Node110 -->
<g id="edge2" class="edge">
<title>Node109&#45;&gt;Node110</title>
<path fill="none" stroke="#191970" d="M327.3616,-97.5C335.6729,-97.5 344.2141,-97.5 352.6312,-97.5"/>
<polygon fill="#191970" stroke="#191970" points="352.813,-101.0001 362.813,-97.5 352.8129,-94.0001 352.813,-101.0001"/>
</g>
<!-- Node111 -->
<g id="node4" class="node">
<title>Node111</title>
<g id="a_node4"><a xlink:href="../../d0/dbb/classPartLabel.html#a0299d0d9e819bc65b4ba76066e5e1667" target="_top" xlink:title=" ">
<polygon fill="#ffffff" stroke="#000000" points="526,-88 526,-107 654,-107 654,-88 526,-88"/>
<text text-anchor="middle" x="590" y="-95" font-family="Helvetica,sans-Serif" font-size="10.00" fill="#000000">PartLabel::displayTexts</text>
</a>
</g>
</g>
<!-- Node110&#45;&gt;Node111 -->
<g id="edge3" class="edge">
<title>Node110&#45;&gt;Node111</title>
<path fill="none" stroke="#191970" d="M490.1815,-97.5C498.624,-97.5 507.3371,-97.5 515.9357,-97.5"/>
<polygon fill="#191970" stroke="#191970" points="515.9542,-101.0001 525.9541,-97.5 515.9541,-94.0001 515.9542,-101.0001"/>
</g>
<!-- Node112 -->
<g id="node5" class="node">
<title>Node112</title>
<g id="a_node5"><a xlink:href="../../d0/dbb/classPartLabel.html#af0008531bf598fdbb441bbd9754a84b7" target="_top" xlink:title=" ">
<polygon fill="#ffffff" stroke="#000000" points="690,-88 690,-107 800,-107 800,-88 690,-88"/>
<text text-anchor="middle" x="745" y="-95" font-family="Helvetica,sans-Serif" font-size="10.00" fill="#000000">PartLabel::resetSvg</text>
</a>
</g>
</g>
<!-- Node111&#45;&gt;Node112 -->
<g id="edge4" class="edge">
<title>Node111&#45;&gt;Node112</title>
<path fill="none" stroke="#191970" d="M654.3874,-97.5C662.7843,-97.5 671.3926,-97.5 679.8027,-97.5"/>
<polygon fill="#191970" stroke="#191970" points="679.9352,-101.0001 689.9351,-97.5 679.9351,-94.0001 679.9352,-101.0001"/>
</g>
<!-- Node113 -->
<g id="node6" class="node">
<title>Node113</title>
<g id="a_node6"><a xlink:href="../../d0/dbb/classPartLabel.html#a8e98ab6a38eac3d3bcae2205047efbe0" target="_top" xlink:title=" ">
<polygon fill="#ffffff" stroke="#000000" points="844.5,-107 844.5,-126 975.5,-126 975.5,-107 844.5,-107"/>
<text text-anchor="middle" x="910" y="-114" font-family="Helvetica,sans-Serif" font-size="10.00" fill="#000000">PartLabel::makeSvgAux</text>
</a>
</g>
</g>
<!-- Node112&#45;&gt;Node113 -->
<g id="edge5" class="edge">
<title>Node112&#45;&gt;Node113</title>
<path fill="none" stroke="#191970" d="M800.4016,-103.8796C811.3356,-105.1386 822.984,-106.48 834.4519,-107.8005"/>
<polygon fill="#191970" stroke="#191970" points="834.126,-111.286 844.4608,-108.9531 834.9269,-104.332 834.126,-111.286"/>
</g>
<!-- Node121 -->
<g id="node14" class="node">
<title>Node121</title>
<g id="a_node14"><a xlink:href="../../de/db8/classTextUtils.html#a03d0e650ce39fc4d7a265d71c5b869d9" target="_top" xlink:title=" ">
<polygon fill="#ffffff" stroke="#000000" points="836,-69 836,-88 984,-88 984,-69 836,-69"/>
<text text-anchor="middle" x="910" y="-76" font-family="Helvetica,sans-Serif" font-size="10.00" fill="#000000">TextUtils::makeSVGHeader</text>
</a>
</g>
</g>
<!-- Node112&#45;&gt;Node121 -->
<g id="edge13" class="edge">
<title>Node112&#45;&gt;Node121</title>
<path fill="none" stroke="#191970" d="M800.4016,-91.1204C808.6111,-90.1751 817.2232,-89.1834 825.8594,-88.1889"/>
<polygon fill="#191970" stroke="#191970" points="826.4518,-91.6439 835.9858,-87.0229 825.651,-84.6899 826.4518,-91.6439"/>
</g>
<!-- Node114 -->
<g id="node7" class="node">
<title>Node114</title>
<g id="a_node7"><a xlink:href="../../de/db8/classTextUtils.html#aec379f2545c5e9a447b8bb09366da798" target="_top" xlink:title=" ">
<polygon fill="#ffffff" stroke="#000000" points="1032.5,-202.5 1032.5,-232.5 1180.5,-232.5 1180.5,-202.5 1032.5,-202.5"/>
<text text-anchor="start" x="1040.5" y="-220.5" font-family="Helvetica,sans-Serif" font-size="10.00" fill="#000000">TextUtils::convertExtended</text>
<text text-anchor="middle" x="1106.5" y="-209.5" font-family="Helvetica,sans-Serif" font-size="10.00" fill="#000000">Chars</text>
</a>
</g>
</g>
<!-- Node113&#45;&gt;Node114 -->
<g id="edge6" class="edge">
<title>Node113&#45;&gt;Node114</title>
<path fill="none" stroke="#191970" d="M921.1188,-126.0324C940.1653,-141.9182 980.7831,-173.8947 1020,-192.5 1024.9431,-194.8451 1030.1515,-197.0163 1035.4601,-199.0172"/>
<polygon fill="#191970" stroke="#191970" points="1034.4937,-202.3881 1045.0884,-202.4359 1036.8359,-195.7916 1034.4937,-202.3881"/>
</g>
<!-- Node115 -->
<g id="node8" class="node">
<title>Node115</title>
<g id="a_node8"><a xlink:href="../../de/db8/classTextUtils.html#a8330785617dee0cc6461a1b595d98c64" target="_top" xlink:title=" ">
<polygon fill="#ffffff" stroke="#000000" points="1047,-164 1047,-183 1166,-183 1166,-164 1047,-164"/>
<text text-anchor="middle" x="1106.5" y="-171" font-family="Helvetica,sans-Serif" font-size="10.00" fill="#000000">TextUtils::escapeAnd</text>
</a>
</g>
</g>
<!-- Node113&#45;&gt;Node115 -->
<g id="edge7" class="edge">
<title>Node113&#45;&gt;Node115</title>
<path fill="none" stroke="#191970" d="M935.0759,-126.0983C957.2016,-134.3416 990.4381,-146.1777 1020,-154.5 1029.1171,-157.0667 1038.8551,-159.4982 1048.3873,-161.7111"/>
<polygon fill="#191970" stroke="#191970" points="1047.6857,-165.1408 1058.2117,-163.9345 1049.2309,-158.3135 1047.6857,-165.1408"/>
</g>
<!-- Node116 -->
<g id="node9" class="node">
<title>Node116</title>
<g id="a_node9"><a xlink:href="../../d4/d76/partlabel_8cpp.html#aaf0d939b22aea34089c643ef0cb15bbb" target="_top" xlink:title=" ">
<polygon fill="#ffffff" stroke="#000000" points="1059.5,-126 1059.5,-145 1153.5,-145 1153.5,-126 1059.5,-126"/>
<text text-anchor="middle" x="1106.5" y="-133" font-family="Helvetica,sans-Serif" font-size="10.00" fill="#000000">mapToSVGStyle</text>
</a>
</g>
</g>
<!-- Node113&#45;&gt;Node116 -->
<g id="edge8" class="edge">
<title>Node113&#45;&gt;Node116</title>
<path fill="none" stroke="#191970" d="M975.7048,-122.8531C999.6131,-125.1649 1026.42,-127.7569 1049.5111,-129.9896"/>
<polygon fill="#191970" stroke="#191970" points="1049.2063,-133.4764 1059.4968,-130.9552 1049.8801,-126.5089 1049.2063,-133.4764"/>
</g>
<!-- Node117 -->
<g id="node10" class="node">
<title>Node117</title>
<g id="a_node10"><a xlink:href="../../d4/d76/partlabel_8cpp.html#a584fd166d378f4f56ac39dfec40ff14a" target="_top" xlink:title=" ">
<polygon fill="#ffffff" stroke="#000000" points="1055,-88 1055,-107 1158,-107 1158,-88 1055,-88"/>
<text text-anchor="middle" x="1106.5" y="-95" font-family="Helvetica,sans-Serif" font-size="10.00" fill="#000000">mapToSVGWeight</text>
</a>
</g>
</g>
<!-- Node113&#45;&gt;Node117 -->
<g id="edge9" class="edge">
<title>Node113&#45;&gt;Node117</title>
<path fill="none" stroke="#191970" d="M975.7048,-110.1469C997.954,-107.9955 1022.7133,-105.6015 1044.6522,-103.4802"/>
<polygon fill="#191970" stroke="#191970" points="1045.2256,-106.9412 1054.8423,-102.4949 1044.5519,-99.9737 1045.2256,-106.9412"/>
</g>
<!-- Node118 -->
<g id="node11" class="node">
<title>Node118</title>
<g id="a_node11"><a xlink:href="../../d4/d08/misc_8h.html#ae7cc352fa1dc81e57ff53ebbc762f27d" target="_top" xlink:title=" ">
<polygon fill="#ffffff" stroke="#000000" points="1084.5,-50 1084.5,-69 1128.5,-69 1128.5,-50 1084.5,-50"/>
<text text-anchor="middle" x="1106.5" y="-57" font-family="Helvetica,sans-Serif" font-size="10.00" fill="#000000">qMax</text>
</a>
</g>
</g>
<!-- Node113&#45;&gt;Node118 -->
<g id="edge10" class="edge">
<title>Node113&#45;&gt;Node118</title>
<path fill="none" stroke="#191970" d="M954.359,-106.9147C964.2537,-104.2806 974.596,-101.131 984,-97.5 1000.8773,-90.9835 1003.0109,-84.7192 1020,-78.5 1037.4106,-72.1265 1057.6115,-67.5416 1074.111,-64.4745"/>
<polygon fill="#191970" stroke="#191970" points="1075.1092,-67.8528 1084.3524,-62.6746 1073.8975,-60.9585 1075.1092,-67.8528"/>
</g>
<!-- Node119 -->
<g id="node12" class="node">
<title>Node119</title>
<g id="a_node12"><a xlink:href="../../d5/d9d/classViewLayer.html#a57a288e6d73ae234b8a739f20964e026" target="_top" xlink:title=" ">
<polygon fill="#ffffff" stroke="#000000" points="1020,-.5 1020,-30.5 1193,-30.5 1193,-.5 1020,-.5"/>
<text text-anchor="start" x="1028" y="-18.5" font-family="Helvetica,sans-Serif" font-size="10.00" fill="#000000">ViewLayer::viewLayerXmlName</text>
<text text-anchor="middle" x="1106.5" y="-7.5" font-family="Helvetica,sans-Serif" font-size="10.00" fill="#000000">FromID</text>
</a>
</g>
</g>
<!-- Node113&#45;&gt;Node119 -->
<g id="edge11" class="edge">
<title>Node113&#45;&gt;Node119</title>
<path fill="none" stroke="#191970" d="M966.2197,-106.975C972.549,-104.5078 978.6389,-101.404 984,-97.5 1008.2214,-79.8619 996.0461,-58.4997 1020,-40.5 1022.4818,-38.6351 1025.0992,-36.9091 1027.816,-35.3116"/>
<polygon fill="#191970" stroke="#191970" points="1029.538,-38.361 1036.7875,-30.6347 1026.3021,-32.1538 1029.538,-38.361"/>
</g>
<!-- Node120 -->
<g id="node13" class="node">
<title>Node120</title>
<g id="a_node13"><a xlink:href="../../d5/d9d/classViewLayer.html#acda6179880454250f27ee4ed167b6983" target="_top" xlink:title=" ">
<polygon fill="#ffffff" stroke="#000000" points="1229,-6 1229,-25 1363,-25 1363,-6 1229,-6"/>
<text text-anchor="middle" x="1296" y="-13" font-family="Helvetica,sans-Serif" font-size="10.00" fill="#000000">ViewLayer::viewLayerID</text>
</a>
</g>
</g>
<!-- Node119&#45;&gt;Node120 -->
<g id="edge12" class="edge">
<title>Node119&#45;&gt;Node120</title>
<path fill="none" stroke="#191970" d="M1193.2086,-15.5C1201.7307,-15.5 1210.3402,-15.5 1218.7586,-15.5"/>
<polygon fill="#191970" stroke="#191970" points="1218.9139,-19.0001 1228.9139,-15.5 1218.9138,-12.0001 1218.9139,-19.0001"/>
</g>
</g>
</svg>
        <g id="navigator" transform="translate(0 0)" fill="#404254">
                <rect fill="#f2f5e9" fill-opacity="0.5" stroke="#606060" stroke-width=".5" x="0" y="0" width="60" height="60"/>
                <use id="zoomplus" xlink:href="#zoomPlus" x="17" y="9" onmousedown="handleZoom(evt,'in')"/>
                <use id="zoomminus" xlink:href="#zoomMin" x="42" y="9" onmousedown="handleZoom(evt,'out')"/>
                <use id="reset" xlink:href="#resetDef" x="30" y="36" onmousedown="handleReset()"/>
                <g id="arrowUp" xlink:href="#dirArrow" transform="translate(30 24)" onmousedown="handlePan(0,-1)">
                  <use xlink:href="#rim" fill="#404040">
                        <set attributeName="fill" to="#808080" begin="arrowUp.mouseover" end="arrowUp.mouseout"/>
                  </use>
                  <path fill="none" stroke="white" stroke-width="1.5" d="M0,-3.0v7 M-2.5,-0.5L0,-3.0L2.5,-0.5"/>
                </g>
                <g id="arrowRight" xlink:href="#dirArrow" transform="rotate(90) translate(36 -43)" onmousedown="handlePan(1,0)">
                  <use xlink:href="#rim" fill="#404040">
                        <set attributeName="fill" to="#808080" begin="arrowRight.mouseover" end="arrowRight.mouseout"/>
                  </use>
                  <path fill="none" stroke="white" stroke-width="1.5" d="M0,-3.0v7 M-2.5,-0.5L0,-3.0L2.5,-0.5"/>
                </g>
                <g id="arrowDown" xlink:href="#dirArrow" transform="rotate(180) translate(-30 -48)" onmousedown="handlePan(0,1)">
                  <use xlink:href="#rim" fill="#404040">
                        <set attributeName="fill" to="#808080" begin="arrowDown.mouseover" end="arrowDown.mouseout"/>
                  </use>
                  <path fill="none" stroke="white" stroke-width="1.5" d="M0,-3.0v7 M-2.5,-0.5L0,-3.0L2.5,-0.5"/>
                </g>
                <g id="arrowLeft" xlink:href="#dirArrow" transform="rotate(270) translate(-36 17)" onmousedown="handlePan(-1,0)">
                  <use xlink:href="#rim" fill="#404040">
                        <set attributeName="fill" to="#808080" begin="arrowLeft.mouseover" end="arrowLeft.mouseout"/>
                  </use>
                  <path fill="none" stroke="white" stroke-width="1.5" d="M0,-3.0v7 M-2.5,-0.5L0,-3.0L2.5,-0.5"/>
                </g>
        </g>
        <svg viewBox="0 0 15 15" width="100%" height="30px" preserveAspectRatio="xMaxYMin meet">
         <g id="arrow_out" transform="scale(0.3 0.3)">
          <a xlink:href="classPartLabel_aaf3d4a8496294c7ab8a545b6d03fde06_cgraph_org.svg" target="_base">
           <rect id="button" ry="5" rx="5" y="6" x="6" height="38" width="38"
                fill="#f2f5e9" fill-opacity="0.5" stroke="#606060" stroke-width="1.0"/>
           <path id="arrow"
             d="M 11.500037,31.436501 C 11.940474,20.09759 22.043105,11.32322 32.158766,21.979434 L 37.068811,17.246167 C 37.068811,17.246167 37.088388,32 37.088388,32 L 22.160133,31.978069 C 22.160133,31.978069 26.997745,27.140456 26.997745,27.140456 C 18.528582,18.264221 13.291696,25.230495 11.500037,31.436501 z"
             style="fill:#404040;"/>
          </a>
         </g>
        </svg>
</svg>
