<?xml version="1.0" encoding="UTF-8" standalone="no"?>
<!DOCTYPE svg PUBLIC "-//W3C//DTD SVG 1.1//EN"
 "http://www.w3.org/Graphics/SVG/1.1/DTD/svg11.dtd">
<!-- Generated by graphviz version 2.40.1 (0)
 -->
<!-- Title: PartLabel::setFontPointSize Pages: 1 -->
<svg width="866pt" height="241pt"
 viewBox="0.00 0.00 866.00 241.00" xmlns="http://www.w3.org/2000/svg" xmlns:xlink="http://www.w3.org/1999/xlink">
<g id="graph0" class="graph" transform="scale(1 1) rotate(0) translate(4 237)">
<title>PartLabel::setFontPointSize</title>
<polygon fill="#ffffff" stroke="transparent" points="-4,4 -4,-237 862,-237 862,4 -4,4"/>
<!-- Node230 -->
<g id="node1" class="node">
<title>Node230</title>
<g id="a_node1"><a xlink:title=" ">
<polygon fill="#bfbfbf" stroke="#000000" points="0,-88 0,-107 149,-107 149,-88 0,-88"/>
<text text-anchor="middle" x="74.5" y="-95" font-family="Helvetica,sans-Serif" font-size="10.00" fill="#000000">PartLabel::setFontPointSize</text>
</a>
</g>
</g>
<!-- Node231 -->
<g id="node2" class="node">
<title>Node231</title>
<g id="a_node2"><a xlink:href="../../d0/dbb/classPartLabel.html#af0008531bf598fdbb441bbd9754a84b7" target="_top" xlink:title=" ">
<polygon fill="#ffffff" stroke="#000000" points="185,-88 185,-107 295,-107 295,-88 185,-88"/>
<text text-anchor="middle" x="240" y="-95" font-family="Helvetica,sans-Serif" font-size="10.00" fill="#000000">PartLabel::resetSvg</text>
</a>
</g>
</g>
<!-- Node230&#45;&gt;Node231 -->
<g id="edge1" class="edge">
<title>Node230&#45;&gt;Node231</title>
<path fill="none" stroke="#191970" d="M149.0194,-97.5C157.5589,-97.5 166.2165,-97.5 174.6235,-97.5"/>
<polygon fill="#191970" stroke="#191970" points="174.7292,-101.0001 184.7291,-97.5 174.7291,-94.0001 174.7292,-101.0001"/>
</g>
<!-- Node232 -->
<g id="node3" class="node">
<title>Node232</title>
<g id="a_node3"><a xlink:href="../../d0/dbb/classPartLabel.html#a8e98ab6a38eac3d3bcae2205047efbe0" target="_top" xlink:title=" ">
<polygon fill="#ffffff" stroke="#000000" points="339.5,-107 339.5,-126 470.5,-126 470.5,-107 339.5,-107"/>
<text text-anchor="middle" x="405" y="-114" font-family="Helvetica,sans-Serif" font-size="10.00" fill="#000000">PartLabel::makeSvgAux</text>
</a>
</g>
</g>
<!-- Node231&#45;&gt;Node232 -->
<g id="edge2" class="edge">
<title>Node231&#45;&gt;Node232</title>
<path fill="none" stroke="#191970" d="M295.4016,-103.8796C306.3356,-105.1386 317.984,-106.48 329.4519,-107.8005"/>
<polygon fill="#191970" stroke="#191970" points="329.126,-111.286 339.4608,-108.9531 329.9269,-104.332 329.126,-111.286"/>
</g>
<!-- Node240 -->
<g id="node11" class="node">
<title>Node240</title>
<g id="a_node11"><a xlink:href="../../de/db8/classTextUtils.html#a03d0e650ce39fc4d7a265d71c5b869d9" target="_top" xlink:title=" ">
<polygon fill="#ffffff" stroke="#000000" points="331,-69 331,-88 479,-88 479,-69 331,-69"/>
<text text-anchor="middle" x="405" y="-76" font-family="Helvetica,sans-Serif" font-size="10.00" fill="#000000">TextUtils::makeSVGHeader</text>
</a>
</g>
</g>
<!-- Node231&#45;&gt;Node240 -->
<g id="edge10" class="edge">
<title>Node231&#45;&gt;Node240</title>
<path fill="none" stroke="#191970" d="M295.4016,-91.1204C303.6111,-90.1751 312.2232,-89.1834 320.8594,-88.1889"/>
<polygon fill="#191970" stroke="#191970" points="321.4518,-91.6439 330.9858,-87.0229 320.651,-84.6899 321.4518,-91.6439"/>
</g>
<!-- Node233 -->
<g id="node4" class="node">
<title>Node233</title>
<g id="a_node4"><a xlink:href="../../de/db8/classTextUtils.html#aec379f2545c5e9a447b8bb09366da798" target="_top" xlink:title=" ">
<polygon fill="#ffffff" stroke="#000000" points="527.5,-202.5 527.5,-232.5 675.5,-232.5 675.5,-202.5 527.5,-202.5"/>
<text text-anchor="start" x="535.5" y="-220.5" font-family="Helvetica,sans-Serif" font-size="10.00" fill="#000000">TextUtils::convertExtended</text>
<text text-anchor="middle" x="601.5" y="-209.5" font-family="Helvetica,sans-Serif" font-size="10.00" fill="#000000">Chars</text>
</a>
</g>
</g>
<!-- Node232&#45;&gt;Node233 -->
<g id="edge3" class="edge">
<title>Node232&#45;&gt;Node233</title>
<path fill="none" stroke="#191970" d="M416.1188,-126.0324C435.1653,-141.9182 475.7831,-173.8947 515,-192.5 519.9431,-194.8451 525.1515,-197.0163 530.4601,-199.0172"/>
<polygon fill="#191970" stroke="#191970" points="529.4937,-202.3881 540.0884,-202.4359 531.8359,-195.7916 529.4937,-202.3881"/>
</g>
<!-- Node234 -->
<g id="node5" class="node">
<title>Node234</title>
<g id="a_node5"><a xlink:href="../../de/db8/classTextUtils.html#a8330785617dee0cc6461a1b595d98c64" target="_top" xlink:title=" ">
<polygon fill="#ffffff" stroke="#000000" points="542,-164 542,-183 661,-183 661,-164 542,-164"/>
<text text-anchor="middle" x="601.5" y="-171" font-family="Helvetica,sans-Serif" font-size="10.00" fill="#000000">TextUtils::escapeAnd</text>
</a>
</g>
</g>
<!-- Node232&#45;&gt;Node234 -->
<g id="edge4" class="edge">
<title>Node232&#45;&gt;Node234</title>
<path fill="none" stroke="#191970" d="M430.0759,-126.0983C452.2016,-134.3416 485.4381,-146.1777 515,-154.5 524.1171,-157.0667 533.8551,-159.4982 543.3873,-161.7111"/>
<polygon fill="#191970" stroke="#191970" points="542.6857,-165.1408 553.2117,-163.9345 544.2309,-158.3135 542.6857,-165.1408"/>
</g>
<!-- Node235 -->
<g id="node6" class="node">
<title>Node235</title>
<g id="a_node6"><a xlink:href="../../d4/d76/partlabel_8cpp.html#aaf0d939b22aea34089c643ef0cb15bbb" target="_top" xlink:title=" ">
<polygon fill="#ffffff" stroke="#000000" points="554.5,-126 554.5,-145 648.5,-145 648.5,-126 554.5,-126"/>
<text text-anchor="middle" x="601.5" y="-133" font-family="Helvetica,sans-Serif" font-size="10.00" fill="#000000">mapToSVGStyle</text>
</a>
</g>
</g>
<!-- Node232&#45;&gt;Node235 -->
<g id="edge5" class="edge">
<title>Node232&#45;&gt;Node235</title>
<path fill="none" stroke="#191970" d="M470.7048,-122.8531C494.6131,-125.1649 521.42,-127.7569 544.5111,-129.9896"/>
<polygon fill="#191970" stroke="#191970" points="544.2063,-133.4764 554.4968,-130.9552 544.8801,-126.5089 544.2063,-133.4764"/>
</g>
<!-- Node236 -->
<g id="node7" class="node">
<title>Node236</title>
<g id="a_node7"><a xlink:href="../../d4/d76/partlabel_8cpp.html#a584fd166d378f4f56ac39dfec40ff14a" target="_top" xlink:title=" ">
<polygon fill="#ffffff" stroke="#000000" points="550,-88 550,-107 653,-107 653,-88 550,-88"/>
<text text-anchor="middle" x="601.5" y="-95" font-family="Helvetica,sans-Serif" font-size="10.00" fill="#000000">mapToSVGWeight</text>
</a>
</g>
</g>
<!-- Node232&#45;&gt;Node236 -->
<g id="edge6" class="edge">
<title>Node232&#45;&gt;Node236</title>
<path fill="none" stroke="#191970" d="M470.7048,-110.1469C492.954,-107.9955 517.7133,-105.6015 539.6522,-103.4802"/>
<polygon fill="#191970" stroke="#191970" points="540.2256,-106.9412 549.8423,-102.4949 539.5519,-99.9737 540.2256,-106.9412"/>
</g>
<!-- Node237 -->
<g id="node8" class="node">
<title>Node237</title>
<g id="a_node8"><a xlink:href="../../d4/d08/misc_8h.html#ae7cc352fa1dc81e57ff53ebbc762f27d" target="_top" xlink:title=" ">
<polygon fill="#ffffff" stroke="#000000" points="579.5,-50 579.5,-69 623.5,-69 623.5,-50 579.5,-50"/>
<text text-anchor="middle" x="601.5" y="-57" font-family="Helvetica,sans-Serif" font-size="10.00" fill="#000000">qMax</text>
</a>
</g>
</g>
<!-- Node232&#45;&gt;Node237 -->
<g id="edge7" class="edge">
<title>Node232&#45;&gt;Node237</title>
<path fill="none" stroke="#191970" d="M449.359,-106.9147C459.2537,-104.2806 469.596,-101.131 479,-97.5 495.8773,-90.9835 498.0109,-84.7192 515,-78.5 532.4106,-72.1265 552.6115,-67.5416 569.111,-64.4745"/>
<polygon fill="#191970" stroke="#191970" points="570.1092,-67.8528 579.3524,-62.6746 568.8975,-60.9585 570.1092,-67.8528"/>
</g>
<!-- Node238 -->
<g id="node9" class="node">
<title>Node238</title>
<g id="a_node9"><a xlink:href="../../d5/d9d/classViewLayer.html#a57a288e6d73ae234b8a739f20964e026" target="_top" xlink:title=" ">
<polygon fill="#ffffff" stroke="#000000" points="515,-.5 515,-30.5 688,-30.5 688,-.5 515,-.5"/>
<text text-anchor="start" x="523" y="-18.5" font-family="Helvetica,sans-Serif" font-size="10.00" fill="#000000">ViewLayer::viewLayerXmlName</text>
<text text-anchor="middle" x="601.5" y="-7.5" font-family="Helvetica,sans-Serif" font-size="10.00" fill="#000000">FromID</text>
</a>
</g>
</g>
<!-- Node232&#45;&gt;Node238 -->
<g id="edge8" class="edge">
<title>Node232&#45;&gt;Node238</title>
<path fill="none" stroke="#191970" d="M461.2197,-106.975C467.549,-104.5078 473.6389,-101.404 479,-97.5 503.2214,-79.8619 491.0461,-58.4997 515,-40.5 517.4818,-38.6351 520.0992,-36.9091 522.816,-35.3116"/>
<polygon fill="#191970" stroke="#191970" points="524.538,-38.361 531.7875,-30.6347 521.3021,-32.1538 524.538,-38.361"/>
</g>
<!-- Node239 -->
<g id="node10" class="node">
<title>Node239</title>
<g id="a_node10"><a xlink:href="../../d5/d9d/classViewLayer.html#acda6179880454250f27ee4ed167b6983" target="_top" xlink:title=" ">
<polygon fill="#ffffff" stroke="#000000" points="724,-6 724,-25 858,-25 858,-6 724,-6"/>
<text text-anchor="middle" x="791" y="-13" font-family="Helvetica,sans-Serif" font-size="10.00" fill="#000000">ViewLayer::viewLayerID</text>
</a>
</g>
</g>
<!-- Node238&#45;&gt;Node239 -->
<g id="edge9" class="edge">
<title>Node238&#45;&gt;Node239</title>
<path fill="none" stroke="#191970" d="M688.2086,-15.5C696.7307,-15.5 705.3402,-15.5 713.7586,-15.5"/>
<polygon fill="#191970" stroke="#191970" points="713.9139,-19.0001 723.9139,-15.5 713.9138,-12.0001 713.9139,-19.0001"/>
</g>
</g>
</svg>
