<?xml version="1.0" encoding="UTF-8" standalone="no"?>
<!DOCTYPE svg PUBLIC "-//W3C//DTD SVG 1.1//EN"
 "http://www.w3.org/Graphics/SVG/1.1/DTD/svg11.dtd">
<!-- Generated by graphviz version 2.40.1 (0)
 -->
<!-- Title: PartLabel::makeSvg Pages: 1 -->
<svg width="667pt" height="241pt"
 viewBox="0.00 0.00 667.00 241.00" xmlns="http://www.w3.org/2000/svg" xmlns:xlink="http://www.w3.org/1999/xlink">
<g id="graph0" class="graph" transform="scale(1 1) rotate(0) translate(4 237)">
<title>PartLabel::makeSvg</title>
<polygon fill="#ffffff" stroke="transparent" points="-4,4 -4,-237 663,-237 663,4 -4,4"/>
<!-- Node75 -->
<g id="node1" class="node">
<title>Node75</title>
<g id="a_node1"><a xlink:title=" ">
<polygon fill="#bfbfbf" stroke="#000000" points="0,-87.5 0,-106.5 113,-106.5 113,-87.5 0,-87.5"/>
<text text-anchor="middle" x="56.5" y="-94.5" font-family="Helvetica,sans-Serif" font-size="10.00" fill="#000000">PartLabel::makeSvg</text>
</a>
</g>
</g>
<!-- Node76 -->
<g id="node2" class="node">
<title>Node76</title>
<g id="a_node2"><a xlink:href="../../d0/dbb/classPartLabel.html#a8e98ab6a38eac3d3bcae2205047efbe0" target="_top" xlink:title=" ">
<polygon fill="#ffffff" stroke="#000000" points="149,-106.5 149,-125.5 280,-125.5 280,-106.5 149,-106.5"/>
<text text-anchor="middle" x="214.5" y="-113.5" font-family="Helvetica,sans-Serif" font-size="10.00" fill="#000000">PartLabel::makeSvgAux</text>
</a>
</g>
</g>
<!-- Node75&#45;&gt;Node76 -->
<g id="edge1" class="edge">
<title>Node75&#45;&gt;Node76</title>
<path fill="none" stroke="#191970" d="M113.0954,-103.8058C121.4327,-104.8084 130.1329,-105.8546 138.7807,-106.8945"/>
<polygon fill="#191970" stroke="#191970" points="138.537,-110.3903 148.8834,-108.1094 139.3728,-103.4404 138.537,-110.3903"/>
</g>
<!-- Node84 -->
<g id="node10" class="node">
<title>Node84</title>
<g id="a_node10"><a xlink:href="../../de/db8/classTextUtils.html#aae59ccde68185d89fa39ba44a9878bed" target="_top" xlink:title=" ">
<polygon fill="#ffffff" stroke="#000000" points="149,-68.5 149,-87.5 280,-87.5 280,-68.5 149,-68.5"/>
<text text-anchor="middle" x="214.5" y="-75.5" font-family="Helvetica,sans-Serif" font-size="10.00" fill="#000000">TextUtils::svgTransform</text>
</a>
</g>
</g>
<!-- Node75&#45;&gt;Node84 -->
<g id="edge9" class="edge">
<title>Node75&#45;&gt;Node84</title>
<path fill="none" stroke="#191970" d="M113.0954,-90.1942C121.4327,-89.1916 130.1329,-88.1454 138.7807,-87.1055"/>
<polygon fill="#191970" stroke="#191970" points="139.3728,-90.5596 148.8834,-85.8906 138.537,-83.6097 139.3728,-90.5596"/>
</g>
<!-- Node77 -->
<g id="node3" class="node">
<title>Node77</title>
<g id="a_node3"><a xlink:href="../../d4/d76/partlabel_8cpp.html#aaf0d939b22aea34089c643ef0cb15bbb" target="_top" xlink:title=" ">
<polygon fill="#ffffff" stroke="#000000" points="355.5,-213.5 355.5,-232.5 449.5,-232.5 449.5,-213.5 355.5,-213.5"/>
<text text-anchor="middle" x="402.5" y="-220.5" font-family="Helvetica,sans-Serif" font-size="10.00" fill="#000000">mapToSVGStyle</text>
</a>
</g>
</g>
<!-- Node76&#45;&gt;Node77 -->
<g id="edge2" class="edge">
<title>Node76&#45;&gt;Node77</title>
<path fill="none" stroke="#191970" d="M222.6068,-125.6963C238.5104,-144.0436 275.7723,-183.8056 316,-204 325.0691,-208.5527 335.2114,-212.0208 345.2707,-214.661"/>
<polygon fill="#191970" stroke="#191970" points="344.7212,-218.1278 355.2595,-217.0346 346.3396,-211.3174 344.7212,-218.1278"/>
</g>
<!-- Node78 -->
<g id="node4" class="node">
<title>Node78</title>
<g id="a_node4"><a xlink:href="../../d4/d76/partlabel_8cpp.html#a584fd166d378f4f56ac39dfec40ff14a" target="_top" xlink:title=" ">
<polygon fill="#ffffff" stroke="#000000" points="351,-175.5 351,-194.5 454,-194.5 454,-175.5 351,-175.5"/>
<text text-anchor="middle" x="402.5" y="-182.5" font-family="Helvetica,sans-Serif" font-size="10.00" fill="#000000">mapToSVGWeight</text>
</a>
</g>
</g>
<!-- Node76&#45;&gt;Node78 -->
<g id="edge3" class="edge">
<title>Node76&#45;&gt;Node78</title>
<path fill="none" stroke="#191970" d="M230.8447,-125.5961C250.4706,-136.7494 284.6693,-155.0239 316,-166 323.9265,-168.7769 332.4086,-171.2338 340.8485,-173.3808"/>
<polygon fill="#191970" stroke="#191970" points="340.1587,-176.8148 350.7008,-175.7596 341.8016,-170.0103 340.1587,-176.8148"/>
</g>
<!-- Node79 -->
<g id="node5" class="node">
<title>Node79</title>
<g id="a_node5"><a xlink:href="../../d5/d9d/classViewLayer.html#a57a288e6d73ae234b8a739f20964e026" target="_top" xlink:title=" ">
<polygon fill="#ffffff" stroke="#000000" points="316,-126 316,-156 489,-156 489,-126 316,-126"/>
<text text-anchor="start" x="324" y="-144" font-family="Helvetica,sans-Serif" font-size="10.00" fill="#000000">ViewLayer::viewLayerXmlName</text>
<text text-anchor="middle" x="402.5" y="-133" font-family="Helvetica,sans-Serif" font-size="10.00" fill="#000000">FromID</text>
</a>
</g>
</g>
<!-- Node76&#45;&gt;Node79 -->
<g id="edge4" class="edge">
<title>Node76&#45;&gt;Node79</title>
<path fill="none" stroke="#191970" d="M280.2533,-124.7438C288.5488,-125.8469 297.1679,-126.9931 305.8173,-128.1433"/>
<polygon fill="#191970" stroke="#191970" points="305.5931,-131.6442 315.9673,-129.493 306.5159,-124.7053 305.5931,-131.6442"/>
</g>
<!-- Node81 -->
<g id="node7" class="node">
<title>Node81</title>
<g id="a_node7"><a xlink:href="../../de/db8/classTextUtils.html#aec379f2545c5e9a447b8bb09366da798" target="_top" xlink:title=" ">
<polygon fill="#ffffff" stroke="#000000" points="328.5,-77 328.5,-107 476.5,-107 476.5,-77 328.5,-77"/>
<text text-anchor="start" x="336.5" y="-95" font-family="Helvetica,sans-Serif" font-size="10.00" fill="#000000">TextUtils::convertExtended</text>
<text text-anchor="middle" x="402.5" y="-84" font-family="Helvetica,sans-Serif" font-size="10.00" fill="#000000">Chars</text>
</a>
</g>
</g>
<!-- Node76&#45;&gt;Node81 -->
<g id="edge6" class="edge">
<title>Node76&#45;&gt;Node81</title>
<path fill="none" stroke="#191970" d="M280.2533,-107.606C292.5353,-106.0381 305.5265,-104.3796 318.2753,-102.7521"/>
<polygon fill="#191970" stroke="#191970" points="318.9531,-106.1941 328.4293,-101.4558 318.0666,-99.2504 318.9531,-106.1941"/>
</g>
<!-- Node82 -->
<g id="node8" class="node">
<title>Node82</title>
<g id="a_node8"><a xlink:href="../../de/db8/classTextUtils.html#a8330785617dee0cc6461a1b595d98c64" target="_top" xlink:title=" ">
<polygon fill="#ffffff" stroke="#000000" points="343,-38.5 343,-57.5 462,-57.5 462,-38.5 343,-38.5"/>
<text text-anchor="middle" x="402.5" y="-45.5" font-family="Helvetica,sans-Serif" font-size="10.00" fill="#000000">TextUtils::escapeAnd</text>
</a>
</g>
</g>
<!-- Node76&#45;&gt;Node82 -->
<g id="edge7" class="edge">
<title>Node76&#45;&gt;Node82</title>
<path fill="none" stroke="#191970" d="M256.6913,-106.4385C264.6561,-103.8943 272.7543,-100.7743 280,-97 298.2218,-87.5084 297.5237,-76.986 316,-68 321.9603,-65.1012 328.3588,-62.6119 334.8801,-60.4764"/>
<polygon fill="#191970" stroke="#191970" points="335.9134,-63.8206 344.4856,-57.5943 333.9016,-57.1159 335.9134,-63.8206"/>
</g>
<!-- Node83 -->
<g id="node9" class="node">
<title>Node83</title>
<g id="a_node9"><a xlink:href="../../d4/d08/misc_8h.html#ae7cc352fa1dc81e57ff53ebbc762f27d" target="_top" xlink:title=" ">
<polygon fill="#ffffff" stroke="#000000" points="380.5,-.5 380.5,-19.5 424.5,-19.5 424.5,-.5 380.5,-.5"/>
<text text-anchor="middle" x="402.5" y="-7.5" font-family="Helvetica,sans-Serif" font-size="10.00" fill="#000000">qMax</text>
</a>
</g>
</g>
<!-- Node76&#45;&gt;Node83 -->
<g id="edge8" class="edge">
<title>Node76&#45;&gt;Node83</title>
<path fill="none" stroke="#191970" d="M263.8931,-106.4369C269.6867,-103.9778 275.2246,-100.8863 280,-97 306.523,-75.415 288.7781,-49.6967 316,-29 331.4065,-17.2865 352.5752,-12.4984 370.1148,-10.6573"/>
<polygon fill="#191970" stroke="#191970" points="370.7821,-14.1163 380.4827,-9.8562 370.2428,-7.1371 370.7821,-14.1163"/>
</g>
<!-- Node80 -->
<g id="node6" class="node">
<title>Node80</title>
<g id="a_node6"><a xlink:href="../../d5/d9d/classViewLayer.html#acda6179880454250f27ee4ed167b6983" target="_top" xlink:title=" ">
<polygon fill="#ffffff" stroke="#000000" points="525,-131.5 525,-150.5 659,-150.5 659,-131.5 525,-131.5"/>
<text text-anchor="middle" x="592" y="-138.5" font-family="Helvetica,sans-Serif" font-size="10.00" fill="#000000">ViewLayer::viewLayerID</text>
</a>
</g>
</g>
<!-- Node79&#45;&gt;Node80 -->
<g id="edge5" class="edge">
<title>Node79&#45;&gt;Node80</title>
<path fill="none" stroke="#191970" d="M489.2086,-141C497.7307,-141 506.3402,-141 514.7586,-141"/>
<polygon fill="#191970" stroke="#191970" points="514.9139,-144.5001 524.9139,-141 514.9138,-137.5001 514.9139,-144.5001"/>
</g>
</g>
</svg>
