<?xml version="1.0" encoding="UTF-8" standalone="no"?>
<!DOCTYPE svg PUBLIC "-//W3C//DTD SVG 1.1//EN"
 "http://www.w3.org/Graphics/SVG/1.1/DTD/svg11.dtd">
<!-- Generated by graphviz version 2.40.1 (0)
 -->
<!-- Title: ConnectorRectangle::owner Pages: 1 -->
<svg width="627pt" height="110pt"
 viewBox="0.00 0.00 627.00 110.00" xmlns="http://www.w3.org/2000/svg" xmlns:xlink="http://www.w3.org/1999/xlink">
<g id="graph0" class="graph" transform="scale(1 1) rotate(0) translate(4 106)">
<title>ConnectorRectangle::owner</title>
<polygon fill="#ffffff" stroke="transparent" points="-4,4 -4,-106 623,-106 623,4 -4,4"/>
<!-- Node52 -->
<g id="node1" class="node">
<title>Node52</title>
<g id="a_node1"><a xlink:title=" ">
<polygon fill="#bfbfbf" stroke="#000000" points="504,-22.5 504,-52.5 619,-52.5 619,-22.5 504,-22.5"/>
<text text-anchor="start" x="512" y="-40.5" font-family="Helvetica,sans-Serif" font-size="10.00" fill="#000000">ConnectorRectangle</text>
<text text-anchor="middle" x="561.5" y="-29.5" font-family="Helvetica,sans-Serif" font-size="10.00" fill="#000000">::owner</text>
</a>
</g>
</g>
<!-- Node53 -->
<g id="node2" class="node">
<title>Node53</title>
<g id="a_node2"><a xlink:href="../../df/df2/classConnectorRectangle.html#a005192ce39fd2e42b6d35298d76b9c6e" target="_top" xlink:title=" ">
<polygon fill="#ffffff" stroke="#000000" points="347,-71.5 347,-101.5 468,-101.5 468,-71.5 347,-71.5"/>
<text text-anchor="start" x="355" y="-89.5" font-family="Helvetica,sans-Serif" font-size="10.00" fill="#000000">ConnectorRectangle</text>
<text text-anchor="middle" x="407.5" y="-78.5" font-family="Helvetica,sans-Serif" font-size="10.00" fill="#000000">::ConnectorRectangle</text>
</a>
</g>
</g>
<!-- Node52&#45;&gt;Node53 -->
<g id="edge1" class="edge">
<title>Node52&#45;&gt;Node53</title>
<path fill="none" stroke="#191970" d="M504.1143,-55.7591C487.8714,-60.9273 470.381,-66.4924 454.805,-71.4484"/>
<polygon fill="#191970" stroke="#191970" points="505.5703,-58.9688 514.0383,-52.6014 503.4478,-52.2983 505.5703,-58.9688"/>
</g>
<!-- Node54 -->
<g id="node3" class="node">
<title>Node54</title>
<g id="a_node3"><a xlink:href="../../df/df2/classConnectorRectangle.html#af8de3907bcc1baedfbee4bc873c1a814" target="_top" xlink:title=" ">
<polygon fill="#ffffff" stroke="#000000" points="350,-22.5 350,-52.5 465,-52.5 465,-22.5 350,-22.5"/>
<text text-anchor="start" x="358" y="-40.5" font-family="Helvetica,sans-Serif" font-size="10.00" fill="#000000">ConnectorRectangle</text>
<text text-anchor="middle" x="407.5" y="-29.5" font-family="Helvetica,sans-Serif" font-size="10.00" fill="#000000">::resizeRect</text>
</a>
</g>
</g>
<!-- Node52&#45;&gt;Node54 -->
<g id="edge2" class="edge">
<title>Node52&#45;&gt;Node54</title>
<path fill="none" stroke="#191970" d="M493.524,-37.5C484.0369,-37.5 474.3646,-37.5 465.0937,-37.5"/>
<polygon fill="#191970" stroke="#191970" points="493.718,-41.0001 503.7179,-37.5 493.7179,-34.0001 493.718,-41.0001"/>
</g>
<!-- Node55 -->
<g id="node4" class="node">
<title>Node55</title>
<g id="a_node4"><a xlink:href="../../d4/dd2/classCornerHandler.html#ad9234dd05107ce27d4062ec90dbb0742" target="_top" xlink:title=" ">
<polygon fill="#ffffff" stroke="#000000" points="189,-6 189,-25 311,-25 311,-6 189,-6"/>
<text text-anchor="middle" x="250" y="-13" font-family="Helvetica,sans-Serif" font-size="10.00" fill="#000000">CornerHandler::resize</text>
</a>
</g>
</g>
<!-- Node52&#45;&gt;Node55 -->
<g id="edge5" class="edge">
<title>Node52&#45;&gt;Node55</title>
<path fill="none" stroke="#191970" d="M502.6104,-19.9982C491.2249,-17.295 479.3166,-14.9292 468,-13.5 415.4293,-6.8606 355.16,-8.0812 311.335,-10.5505"/>
<polygon fill="#191970" stroke="#191970" points="501.9041,-23.4291 512.4532,-22.4456 503.5932,-16.6359 501.9041,-23.4291"/>
</g>
<!-- Node54&#45;&gt;Node55 -->
<g id="edge3" class="edge">
<title>Node54&#45;&gt;Node55</title>
<path fill="none" stroke="#191970" d="M339.6066,-28.0165C330.1602,-26.697 320.5013,-25.3478 311.1878,-24.0469"/>
<polygon fill="#191970" stroke="#191970" points="339.3591,-31.5158 349.7471,-29.4329 340.3275,-24.5831 339.3591,-31.5158"/>
</g>
<!-- Node56 -->
<g id="node5" class="node">
<title>Node56</title>
<g id="a_node5"><a xlink:href="../../d4/dd2/classCornerHandler.html#a2b401ef537a69aeb7d541430a13e8664" target="_top" xlink:title=" ">
<polygon fill="#ffffff" stroke="#000000" points="0,-.5 0,-30.5 153,-30.5 153,-.5 0,-.5"/>
<text text-anchor="start" x="8" y="-18.5" font-family="Helvetica,sans-Serif" font-size="10.00" fill="#000000">CornerHandler::mouseMove</text>
<text text-anchor="middle" x="76.5" y="-7.5" font-family="Helvetica,sans-Serif" font-size="10.00" fill="#000000">Event</text>
</a>
</g>
</g>
<!-- Node55&#45;&gt;Node56 -->
<g id="edge4" class="edge">
<title>Node55&#45;&gt;Node56</title>
<path fill="none" stroke="#191970" d="M178.7037,-15.5C170.3023,-15.5 161.701,-15.5 153.229,-15.5"/>
<polygon fill="#191970" stroke="#191970" points="178.8304,-19.0001 188.8304,-15.5 178.8304,-12.0001 178.8304,-19.0001"/>
</g>
</g>
</svg>
