<?xml version="1.0" encoding="UTF-8" standalone="no"?>
<!DOCTYPE svg PUBLIC "-//W3C//DTD SVG 1.1//EN"
 "http://www.w3.org/Graphics/SVG/1.1/DTD/svg11.dtd">
<!-- Generated by graphviz version 2.40.1 (0)
 -->
<!-- Title: ConnectorRectangle::isResizableSignal Pages: 1 -->
<svg width="475pt" height="274pt"
 viewBox="0.00 0.00 475.00 273.50" xmlns="http://www.w3.org/2000/svg" xmlns:xlink="http://www.w3.org/1999/xlink">
<g id="graph0" class="graph" transform="scale(1 1) rotate(0) translate(4 269.5)">
<title>ConnectorRectangle::isResizableSignal</title>
<polygon fill="#ffffff" stroke="transparent" points="-4,4 -4,-269.5 471,-269.5 471,4 -4,4"/>
<!-- Node43 -->
<g id="node1" class="node">
<title>Node43</title>
<g id="a_node1"><a xlink:title=" ">
<polygon fill="#bfbfbf" stroke="#000000" points="352,-112 352,-142 467,-142 467,-112 352,-112"/>
<text text-anchor="start" x="360" y="-130" font-family="Helvetica,sans-Serif" font-size="10.00" fill="#000000">ConnectorRectangle</text>
<text text-anchor="middle" x="409.5" y="-119" font-family="Helvetica,sans-Serif" font-size="10.00" fill="#000000">::isResizableSignal</text>
</a>
</g>
</g>
<!-- Node44 -->
<g id="node2" class="node">
<title>Node44</title>
<g id="a_node2"><a xlink:href="../../df/df2/classConnectorRectangle.html#a4dc031a10a72d25b3b17314a48b7d168" target="_top" xlink:title=" ">
<polygon fill="#ffffff" stroke="#000000" points="201,-112 201,-142 316,-142 316,-112 201,-112"/>
<text text-anchor="start" x="209" y="-130" font-family="Helvetica,sans-Serif" font-size="10.00" fill="#000000">ConnectorRectangle</text>
<text text-anchor="middle" x="258.5" y="-119" font-family="Helvetica,sans-Serif" font-size="10.00" fill="#000000">::isResizable</text>
</a>
</g>
</g>
<!-- Node43&#45;&gt;Node44 -->
<g id="edge1" class="edge">
<title>Node43&#45;&gt;Node44</title>
<path fill="none" stroke="#191970" d="M341.9481,-127C333.3221,-127 324.5562,-127 316.1075,-127"/>
<polygon fill="#191970" stroke="#191970" points="341.9827,-130.5001 351.9826,-127 341.9826,-123.5001 341.9827,-130.5001"/>
</g>
<!-- Node45 -->
<g id="node3" class="node">
<title>Node45</title>
<g id="a_node3"><a xlink:href="../../d4/dd2/classCornerHandler.html#a2b401ef537a69aeb7d541430a13e8664" target="_top" xlink:title=" ">
<polygon fill="#ffffff" stroke="#000000" points="6,-235 6,-265 159,-265 159,-235 6,-235"/>
<text text-anchor="start" x="14" y="-253" font-family="Helvetica,sans-Serif" font-size="10.00" fill="#000000">CornerHandler::mouseMove</text>
<text text-anchor="middle" x="82.5" y="-242" font-family="Helvetica,sans-Serif" font-size="10.00" fill="#000000">Event</text>
</a>
</g>
</g>
<!-- Node44&#45;&gt;Node45 -->
<g id="edge2" class="edge">
<title>Node44&#45;&gt;Node45</title>
<path fill="none" stroke="#191970" d="M242.1865,-150.4669C225.3417,-172.996 197.056,-206.4111 165,-226 159.3996,-229.4223 153.2871,-232.3772 147.0042,-234.9243"/>
<polygon fill="#191970" stroke="#191970" points="245.204,-152.2694 248.2719,-142.1284 239.5496,-148.1429 245.204,-152.2694"/>
</g>
<!-- Node46 -->
<g id="node4" class="node">
<title>Node46</title>
<g id="a_node4"><a xlink:href="../../d4/dd2/classCornerHandler.html#a655c85527769e5f2692a752beb16bb56" target="_top" xlink:title=" ">
<polygon fill="#ffffff" stroke="#000000" points="6.5,-186 6.5,-216 158.5,-216 158.5,-186 6.5,-186"/>
<text text-anchor="start" x="14.5" y="-204" font-family="Helvetica,sans-Serif" font-size="10.00" fill="#000000">CornerHandler::mousePress</text>
<text text-anchor="middle" x="82.5" y="-193" font-family="Helvetica,sans-Serif" font-size="10.00" fill="#000000">Event</text>
</a>
</g>
</g>
<!-- Node44&#45;&gt;Node46 -->
<g id="edge3" class="edge">
<title>Node44&#45;&gt;Node46</title>
<path fill="none" stroke="#191970" d="M225.0924,-147.0534C207.6134,-156.977 185.6123,-168.5974 165,-177 156.9884,-180.2659 148.3723,-183.2839 139.8369,-185.9986"/>
<polygon fill="#191970" stroke="#191970" points="226.8704,-150.0684 233.7893,-142.0447 223.3769,-144.0025 226.8704,-150.0684"/>
</g>
<!-- Node47 -->
<g id="node5" class="node">
<title>Node47</title>
<g id="a_node5"><a xlink:href="../../d4/dd2/classCornerHandler.html#af5520fc4a415d0d5569614d0cb0e8b92" target="_top" xlink:title=" ">
<polygon fill="#ffffff" stroke="#000000" points="0,-137 0,-167 165,-167 165,-137 0,-137"/>
<text text-anchor="start" x="8" y="-155" font-family="Helvetica,sans-Serif" font-size="10.00" fill="#000000">CornerHandler::mouseRelease</text>
<text text-anchor="middle" x="82.5" y="-144" font-family="Helvetica,sans-Serif" font-size="10.00" fill="#000000">Event</text>
</a>
</g>
</g>
<!-- Node44&#45;&gt;Node47 -->
<g id="edge4" class="edge">
<title>Node44&#45;&gt;Node47</title>
<path fill="none" stroke="#191970" d="M190.787,-136.6183C182.3959,-137.8102 173.7447,-139.0391 165.1614,-140.2583"/>
<polygon fill="#191970" stroke="#191970" points="191.4626,-140.0576 200.871,-135.1859 190.4782,-133.1271 191.4626,-140.0576"/>
</g>
<!-- Node48 -->
<g id="node6" class="node">
<title>Node48</title>
<g id="a_node6"><a xlink:href="../../d4/dd2/classCornerHandler.html#aec4c5258b2c32f61f7e4855fe9ba7b44" target="_top" xlink:title=" ">
<polygon fill="#ffffff" stroke="#000000" points="9.5,-88 9.5,-118 155.5,-118 155.5,-88 9.5,-88"/>
<text text-anchor="start" x="17.5" y="-106" font-family="Helvetica,sans-Serif" font-size="10.00" fill="#000000">CornerHandler::hoverEnter</text>
<text text-anchor="middle" x="82.5" y="-95" font-family="Helvetica,sans-Serif" font-size="10.00" fill="#000000">Event</text>
</a>
</g>
</g>
<!-- Node44&#45;&gt;Node48 -->
<g id="edge5" class="edge">
<title>Node44&#45;&gt;Node48</title>
<path fill="none" stroke="#191970" d="M190.8889,-117.7803C179.3608,-116.2083 167.3387,-114.5689 155.6745,-112.9783"/>
<polygon fill="#191970" stroke="#191970" points="190.4898,-121.2582 200.871,-119.1415 191.4356,-114.3224 190.4898,-121.2582"/>
</g>
<!-- Node49 -->
<g id="node7" class="node">
<title>Node49</title>
<g id="a_node7"><a xlink:href="../../d4/dd2/classCornerHandler.html#aa2d61eda593593275291b1a288f36d42" target="_top" xlink:title=" ">
<polygon fill="#ffffff" stroke="#000000" points="7.5,-39 7.5,-69 157.5,-69 157.5,-39 7.5,-39"/>
<text text-anchor="start" x="15.5" y="-57" font-family="Helvetica,sans-Serif" font-size="10.00" fill="#000000">CornerHandler::hoverLeave</text>
<text text-anchor="middle" x="82.5" y="-46" font-family="Helvetica,sans-Serif" font-size="10.00" fill="#000000">Event</text>
</a>
</g>
</g>
<!-- Node44&#45;&gt;Node49 -->
<g id="edge6" class="edge">
<title>Node44&#45;&gt;Node49</title>
<path fill="none" stroke="#191970" d="M222.9946,-106.8582C205.8186,-97.614 184.6967,-86.9646 165,-79 156.1202,-75.4094 146.524,-72.0515 137.1247,-69.0345"/>
<polygon fill="#191970" stroke="#191970" points="221.6418,-110.1072 232.0967,-111.8234 224.994,-103.962 221.6418,-110.1072"/>
</g>
<!-- Node50 -->
<g id="node8" class="node">
<title>Node50</title>
<g id="a_node8"><a xlink:href="../../d4/dd2/classCornerHandler.html#aa6c2bd431a4beefa0f32fb7c2eac67ce" target="_top" xlink:title=" ">
<polygon fill="#ffffff" stroke="#000000" points="23.5,-.5 23.5,-19.5 141.5,-19.5 141.5,-.5 23.5,-.5"/>
<text text-anchor="middle" x="82.5" y="-7.5" font-family="Helvetica,sans-Serif" font-size="10.00" fill="#000000">CornerHandler::paint</text>
</a>
</g>
</g>
<!-- Node44&#45;&gt;Node50 -->
<g id="edge7" class="edge">
<title>Node44&#45;&gt;Node50</title>
<path fill="none" stroke="#191970" d="M242.2661,-103.7055C225.4816,-81.4029 197.2405,-48.494 165,-30 157.4575,-25.6734 149.0096,-22.2788 140.4742,-19.6164"/>
<polygon fill="#191970" stroke="#191970" points="239.5901,-105.9749 248.3271,-111.9678 245.2343,-101.8344 239.5901,-105.9749"/>
</g>
</g>
</svg>
