<?xml version="1.0" encoding="UTF-8" standalone="no"?>
<!DOCTYPE svg PUBLIC "-//W3C//DTD SVG 1.1//EN"
 "http://www.w3.org/Graphics/SVG/1.1/DTD/svg11.dtd">
<!-- Generated by graphviz version 2.40.1 (0)
 -->
<!-- Title: ConnectorRectangle::currentScale Pages: 1 -->
<!--zoomable 165 -->
<svg id="main" version="1.1" xmlns="http://www.w3.org/2000/svg" xmlns:xlink="http://www.w3.org/1999/xlink" xml:space="preserve" onload="init(evt)">
<style type="text/css"><![CDATA[
.edge:hover path { stroke: red; }
.edge:hover polygon { stroke: red; fill: red; }
]]></style>
<script type="text/javascript"><![CDATA[
var edges = document.getElementsByTagName('g');
if (edges && edges.length) {
  for (var i=0;i<edges.length;i++) {
    if (edges[i].id.substr(0,4)=='edge') {
      edges[i].setAttribute('class','edge');
    }
  }
}
]]></script>
        <defs>
                <circle id="rim" cx="0" cy="0" r="7"/>
                <circle id="rim2" cx="0" cy="0" r="3.5"/>
                <g id="zoomPlus">
                        <use xlink:href="#rim" fill="#404040">
                                <set attributeName="fill" to="#808080" begin="zoomplus.mouseover" end="zoomplus.mouseout"/>
                        </use>
                        <path d="M-4,0h8M0,-4v8" fill="none" stroke="white" stroke-width="1.5" pointer-events="none"/>
                </g>
                <g id="zoomMin">
                        <use xlink:href="#rim" fill="#404040">
                                <set attributeName="fill" to="#808080" begin="zoomminus.mouseover" end="zoomminus.mouseout"/>
                        </use>
                        <path d="M-4,0h8" fill="none" stroke="white" stroke-width="1.5" pointer-events="none"/>
                </g>
                <g id="dirArrow">
                        <path fill="none" stroke="white" stroke-width="1.5" d="M0,-3.0v7 M-2.5,-0.5L0,-3.0L2.5,-0.5"/>
                </g>
               <g id="resetDef">
                       <use xlink:href="#rim2" fill="#404040">
                               <set attributeName="fill" to="#808080" begin="reset.mouseover" end="reset.mouseout"/>
                       </use>
               </g>
        </defs>

<script type="text/javascript">
var viewWidth = 794;
var viewHeight = 165;
var sectionId = 'dynsection-4';
</script>
<script xlink:href="../../svgpan.js"/>
<svg id="graph" class="graph">
<g id="viewport">
<title>ConnectorRectangle::currentScale</title>
<polygon fill="#ffffff" stroke="transparent" points="-4,4 -4,-160.5 790,-160.5 790,4 -4,4"/>
<!-- Node9 -->
<g id="node1" class="node">
<title>Node9</title>
<g id="a_node1"><a xlink:title=" ">
<polygon fill="#bfbfbf" stroke="#000000" points="671,-30 671,-60 786,-60 786,-30 671,-30"/>
<text text-anchor="start" x="679" y="-48" font-family="Helvetica,sans-Serif" font-size="10.00" fill="#000000">ConnectorRectangle</text>
<text text-anchor="middle" x="728.5" y="-37" font-family="Helvetica,sans-Serif" font-size="10.00" fill="#000000">::currentScale</text>
</a>
</g>
</g>
<!-- Node10 -->
<g id="node2" class="node">
<title>Node10</title>
<g id="a_node2"><a xlink:href="../../df/df2/classConnectorRectangle.html#ad54e607c954a2eab2d830efae01bc1de" target="_top" xlink:title=" ">
<polygon fill="#ffffff" stroke="#000000" points="520,-55 520,-85 635,-85 635,-55 520,-55"/>
<text text-anchor="start" x="528" y="-73" font-family="Helvetica,sans-Serif" font-size="10.00" fill="#000000">ConnectorRectangle</text>
<text text-anchor="middle" x="577.5" y="-62" font-family="Helvetica,sans-Serif" font-size="10.00" fill="#000000">::handlerRect</text>
</a>
</g>
</g>
<!-- Node9&#45;&gt;Node10 -->
<g id="edge1" class="edge">
<title>Node9&#45;&gt;Node10</title>
<path fill="none" stroke="#191970" d="M660.9481,-56.1841C652.3221,-57.6122 643.5562,-59.0635 635.1075,-60.4623"/>
<polygon fill="#191970" stroke="#191970" points="661.6886,-59.6092 670.9826,-54.5227 660.5452,-52.7032 661.6886,-59.6092"/>
</g>
<!-- Node18 -->
<g id="node10" class="node">
<title>Node18</title>
<g id="a_node10"><a xlink:href="../../df/df2/classConnectorRectangle.html#aa97486785c56588b1c3ccd028700d8dd" target="_top" xlink:title=" ">
<polygon fill="#ffffff" stroke="#000000" points="520,-6 520,-36 635,-36 635,-6 520,-6"/>
<text text-anchor="start" x="528" y="-24" font-family="Helvetica,sans-Serif" font-size="10.00" fill="#000000">ConnectorRectangle</text>
<text text-anchor="middle" x="577.5" y="-13" font-family="Helvetica,sans-Serif" font-size="10.00" fill="#000000">::errorIconRect</text>
</a>
</g>
</g>
<!-- Node9&#45;&gt;Node18 -->
<g id="edge10" class="edge">
<title>Node9&#45;&gt;Node18</title>
<path fill="none" stroke="#191970" d="M660.9481,-34.2633C652.3221,-32.8923 643.5562,-31.499 635.1075,-30.1562"/>
<polygon fill="#191970" stroke="#191970" points="660.5572,-37.745 670.9826,-35.8582 661.656,-30.8318 660.5572,-37.745"/>
</g>
<!-- Node11 -->
<g id="node3" class="node">
<title>Node11</title>
<g id="a_node3"><a xlink:href="../../df/df2/classConnectorRectangle.html#a22e1e7f4e6c3009dcb77b0edcf7cae67" target="_top" xlink:title=" ">
<polygon fill="#ffffff" stroke="#000000" points="362,-77 362,-107 477,-107 477,-77 362,-77"/>
<text text-anchor="start" x="370" y="-95" font-family="Helvetica,sans-Serif" font-size="10.00" fill="#000000">ConnectorRectangle</text>
<text text-anchor="middle" x="419.5" y="-84" font-family="Helvetica,sans-Serif" font-size="10.00" fill="#000000">::setHandlerRect</text>
</a>
</g>
</g>
<!-- Node10&#45;&gt;Node11 -->
<g id="edge2" class="edge">
<title>Node10&#45;&gt;Node11</title>
<path fill="none" stroke="#191970" d="M509.3805,-79.485C498.6441,-80.9799 487.6344,-82.5129 477.1651,-83.9707"/>
<polygon fill="#191970" stroke="#191970" points="510.1421,-82.9128 519.5638,-78.0671 509.1766,-75.9797 510.1421,-82.9128"/>
</g>
<!-- Node16 -->
<g id="node8" class="node">
<title>Node16</title>
<g id="a_node8"><a xlink:href="../../d4/dd2/classCornerHandler.html#a9d9034d9dbb434c189207f080ee4e0b9" target="_top" xlink:title=" ">
<polygon fill="#ffffff" stroke="#000000" points="355,-38.5 355,-57.5 484,-57.5 484,-38.5 355,-38.5"/>
<text text-anchor="middle" x="419.5" y="-45.5" font-family="Helvetica,sans-Serif" font-size="10.00" fill="#000000">CornerHandler::doPaint</text>
</a>
</g>
</g>
<!-- Node10&#45;&gt;Node16 -->
<g id="edge7" class="edge">
<title>Node10&#45;&gt;Node16</title>
<path fill="none" stroke="#191970" d="M509.4228,-60.5209C501.0191,-59.3508 492.4473,-58.1572 484.0976,-56.9946"/>
<polygon fill="#191970" stroke="#191970" points="509.1766,-64.0203 519.5638,-61.9329 510.1421,-57.0872 509.1766,-64.0203"/>
</g>
<!-- Node12 -->
<g id="node4" class="node">
<title>Node12</title>
<g id="a_node4"><a xlink:href="../../df/df2/classConnectorRectangle.html#a9fc56d2173a1ba8ccfa88285ab5f7d56" target="_top" xlink:title=" ">
<polygon fill="#ffffff" stroke="#000000" points="202.5,-126 202.5,-156 317.5,-156 317.5,-126 202.5,-126"/>
<text text-anchor="start" x="210.5" y="-144" font-family="Helvetica,sans-Serif" font-size="10.00" fill="#000000">ConnectorRectangle</text>
<text text-anchor="middle" x="260" y="-133" font-family="Helvetica,sans-Serif" font-size="10.00" fill="#000000">::resizingFinished</text>
</a>
</g>
</g>
<!-- Node11&#45;&gt;Node12 -->
<g id="edge3" class="edge">
<title>Node11&#45;&gt;Node12</title>
<path fill="none" stroke="#191970" d="M360.5406,-110.1129C343.5838,-115.3222 325.2789,-120.9457 308.9944,-125.9484"/>
<polygon fill="#191970" stroke="#191970" points="361.812,-113.3838 370.3433,-107.1014 359.7563,-106.6925 361.812,-113.3838"/>
</g>
<!-- Node14 -->
<g id="node6" class="node">
<title>Node14</title>
<g id="a_node6"><a xlink:href="../../df/df2/classConnectorRectangle.html#a7e322ad63e1da4bc99d6b2ea80bfbe6c" target="_top" xlink:title=" ">
<polygon fill="#ffffff" stroke="#000000" points="202.5,-77 202.5,-107 317.5,-107 317.5,-77 202.5,-77"/>
<text text-anchor="start" x="210.5" y="-95" font-family="Helvetica,sans-Serif" font-size="10.00" fill="#000000">ConnectorRectangle</text>
<text text-anchor="middle" x="260" y="-84" font-family="Helvetica,sans-Serif" font-size="10.00" fill="#000000">::placeHandlers</text>
</a>
</g>
</g>
<!-- Node11&#45;&gt;Node14 -->
<g id="edge5" class="edge">
<title>Node11&#45;&gt;Node14</title>
<path fill="none" stroke="#191970" d="M351.6704,-92C340.3843,-92 328.7724,-92 317.7664,-92"/>
<polygon fill="#191970" stroke="#191970" points="351.9169,-95.5001 361.9168,-92 351.9168,-88.5001 351.9169,-95.5001"/>
</g>
<!-- Node13 -->
<g id="node5" class="node">
<title>Node13</title>
<g id="a_node5"><a xlink:href="../../d4/dd2/classCornerHandler.html#af5520fc4a415d0d5569614d0cb0e8b92" target="_top" xlink:title=" ">
<polygon fill="#ffffff" stroke="#000000" points="0,-126 0,-156 165,-156 165,-126 0,-126"/>
<text text-anchor="start" x="8" y="-144" font-family="Helvetica,sans-Serif" font-size="10.00" fill="#000000">CornerHandler::mouseRelease</text>
<text text-anchor="middle" x="82.5" y="-133" font-family="Helvetica,sans-Serif" font-size="10.00" fill="#000000">Event</text>
</a>
</g>
</g>
<!-- Node12&#45;&gt;Node13 -->
<g id="edge4" class="edge">
<title>Node12&#45;&gt;Node13</title>
<path fill="none" stroke="#191970" d="M192.1992,-141C183.4014,-141 174.3123,-141 165.3052,-141"/>
<polygon fill="#191970" stroke="#191970" points="192.3709,-144.5001 202.3708,-141 192.3708,-137.5001 192.3709,-144.5001"/>
</g>
<!-- Node15 -->
<g id="node7" class="node">
<title>Node15</title>
<g id="a_node7"><a xlink:href="../../df/df2/classConnectorRectangle.html#a38e9871ae67422ab33f55d4f58cc4768" target="_top" xlink:title=" ">
<polygon fill="#ffffff" stroke="#000000" points="25,-55 25,-85 140,-85 140,-55 25,-55"/>
<text text-anchor="start" x="33" y="-73" font-family="Helvetica,sans-Serif" font-size="10.00" fill="#000000">ConnectorRectangle</text>
<text text-anchor="middle" x="82.5" y="-62" font-family="Helvetica,sans-Serif" font-size="10.00" fill="#000000">::paint</text>
</a>
</g>
</g>
<!-- Node14&#45;&gt;Node15 -->
<g id="edge6" class="edge">
<title>Node14&#45;&gt;Node15</title>
<path fill="none" stroke="#191970" d="M192.383,-83.6193C175.1624,-81.4849 156.8147,-79.2108 140.1435,-77.1446"/>
<polygon fill="#191970" stroke="#191970" points="192.0162,-87.1005 202.3708,-84.8572 192.8773,-80.1537 192.0162,-87.1005"/>
</g>
<!-- Node16&#45;&gt;Node15 -->
<g id="edge8" class="edge">
<title>Node16&#45;&gt;Node15</title>
<path fill="none" stroke="#191970" d="M344.8467,-52.8735C283.0892,-56.9052 196.6367,-62.5489 140.1174,-66.2386"/>
<polygon fill="#191970" stroke="#191970" points="345.171,-56.3599 354.9218,-52.2158 344.715,-49.3747 345.171,-56.3599"/>
</g>
<!-- Node17 -->
<g id="node9" class="node">
<title>Node17</title>
<g id="a_node9"><a xlink:href="../../d4/dd2/classCornerHandler.html#aa6c2bd431a4beefa0f32fb7c2eac67ce" target="_top" xlink:title=" ">
<polygon fill="#ffffff" stroke="#000000" points="201,-.5 201,-19.5 319,-19.5 319,-.5 201,-.5"/>
<text text-anchor="middle" x="260" y="-7.5" font-family="Helvetica,sans-Serif" font-size="10.00" fill="#000000">CornerHandler::paint</text>
</a>
</g>
</g>
<!-- Node16&#45;&gt;Node17 -->
<g id="edge9" class="edge">
<title>Node16&#45;&gt;Node17</title>
<path fill="none" stroke="#191970" d="M369.266,-36.032C346.9145,-30.7069 320.9617,-24.5238 299.9592,-19.5201"/>
<polygon fill="#191970" stroke="#191970" points="368.7125,-39.498 379.2514,-38.411 370.3349,-32.6886 368.7125,-39.498"/>
</g>
</g>
</svg>
        <g id="navigator" transform="translate(0 0)" fill="#404254">
                <rect fill="#f2f5e9" fill-opacity="0.5" stroke="#606060" stroke-width=".5" x="0" y="0" width="60" height="60"/>
                <use id="zoomplus" xlink:href="#zoomPlus" x="17" y="9" onmousedown="handleZoom(evt,'in')"/>
                <use id="zoomminus" xlink:href="#zoomMin" x="42" y="9" onmousedown="handleZoom(evt,'out')"/>
                <use id="reset" xlink:href="#resetDef" x="30" y="36" onmousedown="handleReset()"/>
                <g id="arrowUp" xlink:href="#dirArrow" transform="translate(30 24)" onmousedown="handlePan(0,-1)">
                  <use xlink:href="#rim" fill="#404040">
                        <set attributeName="fill" to="#808080" begin="arrowUp.mouseover" end="arrowUp.mouseout"/>
                  </use>
                  <path fill="none" stroke="white" stroke-width="1.5" d="M0,-3.0v7 M-2.5,-0.5L0,-3.0L2.5,-0.5"/>
                </g>
                <g id="arrowRight" xlink:href="#dirArrow" transform="rotate(90) translate(36 -43)" onmousedown="handlePan(1,0)">
                  <use xlink:href="#rim" fill="#404040">
                        <set attributeName="fill" to="#808080" begin="arrowRight.mouseover" end="arrowRight.mouseout"/>
                  </use>
                  <path fill="none" stroke="white" stroke-width="1.5" d="M0,-3.0v7 M-2.5,-0.5L0,-3.0L2.5,-0.5"/>
                </g>
                <g id="arrowDown" xlink:href="#dirArrow" transform="rotate(180) translate(-30 -48)" onmousedown="handlePan(0,1)">
                  <use xlink:href="#rim" fill="#404040">
                        <set attributeName="fill" to="#808080" begin="arrowDown.mouseover" end="arrowDown.mouseout"/>
                  </use>
                  <path fill="none" stroke="white" stroke-width="1.5" d="M0,-3.0v7 M-2.5,-0.5L0,-3.0L2.5,-0.5"/>
                </g>
                <g id="arrowLeft" xlink:href="#dirArrow" transform="rotate(270) translate(-36 17)" onmousedown="handlePan(-1,0)">
                  <use xlink:href="#rim" fill="#404040">
                        <set attributeName="fill" to="#808080" begin="arrowLeft.mouseover" end="arrowLeft.mouseout"/>
                  </use>
                  <path fill="none" stroke="white" stroke-width="1.5" d="M0,-3.0v7 M-2.5,-0.5L0,-3.0L2.5,-0.5"/>
                </g>
        </g>
        <svg viewBox="0 0 15 15" width="100%" height="30px" preserveAspectRatio="xMaxYMin meet">
         <g id="arrow_out" transform="scale(0.3 0.3)">
          <a xlink:href="classConnectorRectangle_a177cc930742b8a569be38dd0b397dd20_icgraph_org.svg" target="_base">
           <rect id="button" ry="5" rx="5" y="6" x="6" height="38" width="38"
                fill="#f2f5e9" fill-opacity="0.5" stroke="#606060" stroke-width="1.0"/>
           <path id="arrow"
             d="M 11.500037,31.436501 C 11.940474,20.09759 22.043105,11.32322 32.158766,21.979434 L 37.068811,17.246167 C 37.068811,17.246167 37.088388,32 37.088388,32 L 22.160133,31.978069 C 22.160133,31.978069 26.997745,27.140456 26.997745,27.140456 C 18.528582,18.264221 13.291696,25.230495 11.500037,31.436501 z"
             style="fill:#404040;"/>
          </a>
         </g>
        </svg>
</svg>
