<?xml version="1.0" encoding="UTF-8" standalone="no"?>
<!DOCTYPE svg PUBLIC "-//W3C//DTD SVG 1.1//EN"
 "http://www.w3.org/Graphics/SVG/1.1/DTD/svg11.dtd">
<!-- Generated by graphviz version 2.40.1 (0)
 -->
<!-- Title: LockManager Pages: 1 -->
<svg width="269pt" height="281pt"
 viewBox="0.00 0.00 269.00 281.00" xmlns="http://www.w3.org/2000/svg" xmlns:xlink="http://www.w3.org/1999/xlink">
<g id="graph0" class="graph" transform="scale(1 1) rotate(0) translate(4 277)">
<title>LockManager</title>
<polygon fill="#ffffff" stroke="transparent" points="-4,4 -4,-277 265,-277 265,4 -4,4"/>
<!-- Node2 -->
<g id="node1" class="node">
<title>Node2</title>
<g id="a_node1"><a xlink:title=" ">
<polygon fill="#bfbfbf" stroke="#000000" points="31.5,-.5 31.5,-156.5 170.5,-156.5 170.5,-.5 31.5,-.5"/>
<text text-anchor="middle" x="101" y="-144.5" font-family="Helvetica,sans-Serif" font-size="10.00" fill="#000000">LockManager</text>
<polyline fill="none" stroke="#000000" points="31.5,-137.5 170.5,-137.5 "/>
<text text-anchor="middle" x="101" y="-125.5" font-family="Helvetica,sans-Serif" font-size="10.00" fill="#000000"> </text>
<polyline fill="none" stroke="#000000" points="31.5,-118.5 170.5,-118.5 "/>
<text text-anchor="start" x="39.5" y="-106.5" font-family="Helvetica,sans-Serif" font-size="10.00" fill="#000000">+ LockManager()</text>
<text text-anchor="start" x="39.5" y="-95.5" font-family="Helvetica,sans-Serif" font-size="10.00" fill="#000000">+ ~LockManager()</text>
<text text-anchor="start" x="39.5" y="-84.5" font-family="Helvetica,sans-Serif" font-size="10.00" fill="#000000">+ checkLockedFiles()</text>
<text text-anchor="start" x="39.5" y="-73.5" font-family="Helvetica,sans-Serif" font-size="10.00" fill="#000000">+ cleanup()</text>
<text text-anchor="start" x="39.5" y="-62.5" font-family="Helvetica,sans-Serif" font-size="10.00" fill="#000000">+ initLockedFiles()</text>
<text text-anchor="start" x="39.5" y="-51.5" font-family="Helvetica,sans-Serif" font-size="10.00" fill="#000000">+ releaseLockedFiles()</text>
<text text-anchor="start" x="39.5" y="-40.5" font-family="Helvetica,sans-Serif" font-size="10.00" fill="#000000">+ touchFiles()</text>
<text text-anchor="start" x="39.5" y="-29.5" font-family="Helvetica,sans-Serif" font-size="10.00" fill="#000000"># checkLockedFilesAux()</text>
<text text-anchor="start" x="39.5" y="-18.5" font-family="Helvetica,sans-Serif" font-size="10.00" fill="#000000"># makeLockedFile()</text>
<text text-anchor="start" x="39.5" y="-7.5" font-family="Helvetica,sans-Serif" font-size="10.00" fill="#000000"># releaseLockedFiles()</text>
</a>
</g>
</g>
<!-- Node3 -->
<g id="node2" class="node">
<title>Node3</title>
<g id="a_node2"><a xlink:href="../../d9/d5b/classQObject.html" target="_top" xlink:title=" ">
<polygon fill="#ffffff" stroke="#000000" points="0,-215.5 0,-272.5 56,-272.5 56,-215.5 0,-215.5"/>
<text text-anchor="middle" x="28" y="-260.5" font-family="Helvetica,sans-Serif" font-size="10.00" fill="#000000">QObject</text>
<polyline fill="none" stroke="#000000" points="0,-253.5 56,-253.5 "/>
<text text-anchor="middle" x="28" y="-241.5" font-family="Helvetica,sans-Serif" font-size="10.00" fill="#000000"> </text>
<polyline fill="none" stroke="#000000" points="0,-234.5 56,-234.5 "/>
<text text-anchor="middle" x="28" y="-222.5" font-family="Helvetica,sans-Serif" font-size="10.00" fill="#000000"> </text>
</a>
</g>
</g>
<!-- Node3&#45;&gt;Node2 -->
<g id="edge1" class="edge">
<title>Node3&#45;&gt;Node2</title>
<path fill="none" stroke="#191970" d="M44.7888,-205.9377C51.2671,-191.2505 58.9288,-173.8805 66.4774,-156.767"/>
<polygon fill="none" stroke="#191970" points="41.5491,-204.6101 40.7156,-215.1721 47.9537,-207.4351 41.5491,-204.6101"/>
</g>
<!-- Node4 -->
<g id="node3" class="node">
<title>Node4</title>
<g id="a_node3"><a xlink:title=" ">
<polygon fill="#ffffff" stroke="#bfbfbf" points="74.5,-215.5 74.5,-272.5 127.5,-272.5 127.5,-215.5 74.5,-215.5"/>
<text text-anchor="middle" x="101" y="-260.5" font-family="Helvetica,sans-Serif" font-size="10.00" fill="#000000">QString</text>
<polyline fill="none" stroke="#bfbfbf" points="74.5,-253.5 127.5,-253.5 "/>
<text text-anchor="middle" x="101" y="-241.5" font-family="Helvetica,sans-Serif" font-size="10.00" fill="#000000"> </text>
<polyline fill="none" stroke="#bfbfbf" points="74.5,-234.5 127.5,-234.5 "/>
<text text-anchor="middle" x="101" y="-222.5" font-family="Helvetica,sans-Serif" font-size="10.00" fill="#000000"> </text>
</a>
</g>
</g>
<!-- Node4&#45;&gt;Node2 -->
<g id="edge2" class="edge">
<title>Node4&#45;&gt;Node2</title>
<path fill="none" stroke="#404040" d="M101,-215.1721C101,-202.0561 101,-185.7388 101,-168.9949"/>
<polygon fill="none" stroke="#404040" points="101.0001,-168.767 97,-162.767 101,-156.767 105,-162.7669 101.0001,-168.767"/>
<text text-anchor="middle" x="147" y="-183.5" font-family="Helvetica,sans-Serif" font-size="10.00" fill="#000000"> +LockedFileName</text>
</g>
<!-- Node5 -->
<g id="node4" class="node">
<title>Node5</title>
<g id="a_node4"><a xlink:title=" ">
<polygon fill="#ffffff" stroke="#bfbfbf" points="197,-215.5 197,-272.5 235,-272.5 235,-215.5 197,-215.5"/>
<text text-anchor="middle" x="216" y="-260.5" font-family="Helvetica,sans-Serif" font-size="10.00" fill="#000000">long</text>
<polyline fill="none" stroke="#bfbfbf" points="197,-253.5 235,-253.5 "/>
<text text-anchor="middle" x="216" y="-241.5" font-family="Helvetica,sans-Serif" font-size="10.00" fill="#000000"> </text>
<polyline fill="none" stroke="#bfbfbf" points="197,-234.5 235,-234.5 "/>
<text text-anchor="middle" x="216" y="-222.5" font-family="Helvetica,sans-Serif" font-size="10.00" fill="#000000"> </text>
</a>
</g>
</g>
<!-- Node5&#45;&gt;Node2 -->
<g id="edge3" class="edge">
<title>Node5&#45;&gt;Node2</title>
<path fill="none" stroke="#404040" d="M209.9796,-215.2252C206.508,-202.3397 201.3422,-187.3103 194,-175 189.4524,-167.3753 184.1944,-159.8797 178.5387,-152.6441"/>
<polygon fill="none" stroke="#404040" points="178.2075,-152.2391 171.3124,-150.1276 170.6095,-142.9508 177.5045,-145.0623 178.2075,-152.2391"/>
<text text-anchor="middle" x="232.5" y="-189" font-family="Helvetica,sans-Serif" font-size="10.00" fill="#000000"> +FastTime</text>
<text text-anchor="middle" x="232.5" y="-178" font-family="Helvetica,sans-Serif" font-size="10.00" fill="#000000">+SlowTime</text>
</g>
</g>
</svg>
