<?xml version="1.0" encoding="UTF-8" standalone="no"?>
<!DOCTYPE svg PUBLIC "-//W3C//DTD SVG 1.1//EN"
 "http://www.w3.org/Graphics/SVG/1.1/DTD/svg11.dtd">
<!-- Generated by graphviz version 2.40.1 (0)
 -->
<!-- Title: ChangeMetadataCommand::redo Pages: 1 -->
<svg width="776pt" height="546pt"
 viewBox="0.00 0.00 776.00 546.00" xmlns="http://www.w3.org/2000/svg" xmlns:xlink="http://www.w3.org/1999/xlink">
<g id="graph0" class="graph" transform="scale(1 1) rotate(0) translate(4 542)">
<title>ChangeMetadataCommand::redo</title>
<polygon fill="#ffffff" stroke="transparent" points="-4,4 -4,-542 772,-542 772,4 -4,4"/>
<!-- Node4 -->
<g id="node1" class="node">
<title>Node4</title>
<g id="a_node1"><a xlink:title=" ">
<polygon fill="#bfbfbf" stroke="#000000" points="0,-285 0,-315 150,-315 150,-285 0,-285"/>
<text text-anchor="start" x="8" y="-303" font-family="Helvetica,sans-Serif" font-size="10.00" fill="#000000">ChangeMetadataCommand</text>
<text text-anchor="middle" x="75" y="-292" font-family="Helvetica,sans-Serif" font-size="10.00" fill="#000000">::redo</text>
</a>
</g>
</g>
<!-- Node5 -->
<g id="node2" class="node">
<title>Node5</title>
<g id="a_node2"><a xlink:href="../../d6/d9a/classPEMainWindow.html#a5f8e61a1b7206db2e11a3661b011df1c" target="_top" xlink:title=" ">
<polygon fill="#ffffff" stroke="#000000" points="186,-290.5 186,-309.5 365,-309.5 365,-290.5 186,-290.5"/>
<text text-anchor="middle" x="275.5" y="-297.5" font-family="Helvetica,sans-Serif" font-size="10.00" fill="#000000">PEMainWindow::changeMetadata</text>
</a>
</g>
</g>
<!-- Node4&#45;&gt;Node5 -->
<g id="edge1" class="edge">
<title>Node4&#45;&gt;Node5</title>
<path fill="none" stroke="#191970" d="M150.2292,-300C158.6152,-300 167.2507,-300 175.88,-300"/>
<polygon fill="#191970" stroke="#191970" points="175.9919,-303.5001 185.9919,-300 175.9918,-296.5001 175.9919,-303.5001"/>
</g>
<!-- Node6 -->
<g id="node3" class="node">
<title>Node6</title>
<g id="a_node3"><a xlink:href="../../de/db8/classTextUtils.html#a157b206dbb2ebcc2739fe448fb6d25d1" target="_top" xlink:title=" ">
<polygon fill="#ffffff" stroke="#000000" points="413.5,-410 413.5,-440 555.5,-440 555.5,-410 413.5,-410"/>
<text text-anchor="start" x="421.5" y="-428" font-family="Helvetica,sans-Serif" font-size="10.00" fill="#000000">TextUtils::replaceElement</text>
<text text-anchor="middle" x="484.5" y="-417" font-family="Helvetica,sans-Serif" font-size="10.00" fill="#000000">ChildText</text>
</a>
</g>
</g>
<!-- Node5&#45;&gt;Node6 -->
<g id="edge2" class="edge">
<title>Node5&#45;&gt;Node6</title>
<path fill="none" stroke="#191970" d="M291.5528,-309.601C325.4261,-329.8601 404.8418,-377.3576 450.5295,-404.6827"/>
<polygon fill="#191970" stroke="#191970" points="448.8151,-407.7356 459.1938,-409.8647 452.4081,-401.728 448.8151,-407.7356"/>
</g>
<!-- Node8 -->
<g id="node5" class="node">
<title>Node8</title>
<g id="a_node5"><a xlink:href="../../d5/def/classPEMetadataView.html#a3824aaa5db4657499266812bef701705" target="_top" xlink:title=" ">
<polygon fill="#ffffff" stroke="#000000" points="401,-268.5 401,-287.5 568,-287.5 568,-268.5 401,-268.5"/>
<text text-anchor="middle" x="484.5" y="-275.5" font-family="Helvetica,sans-Serif" font-size="10.00" fill="#000000">PEMetadataView::initMetadata</text>
</a>
</g>
</g>
<!-- Node5&#45;&gt;Node8 -->
<g id="edge4" class="edge">
<title>Node5&#45;&gt;Node8</title>
<path fill="none" stroke="#191970" d="M365.0443,-290.5743C373.565,-289.6774 382.2212,-288.7662 390.7798,-287.8653"/>
<polygon fill="#191970" stroke="#191970" points="391.1896,-291.3416 400.7682,-286.8139 390.4567,-284.38 391.1896,-291.3416"/>
</g>
<!-- Node7 -->
<g id="node4" class="node">
<title>Node7</title>
<g id="a_node4"><a xlink:href="../../de/db8/classTextUtils.html#ac4b18d8c6e90f5f03a6e9d1b2f48af28" target="_top" xlink:title=" ">
<polygon fill="#ffffff" stroke="#000000" points="613,-518.5 613,-537.5 759,-537.5 759,-518.5 613,-518.5"/>
<text text-anchor="middle" x="686" y="-525.5" font-family="Helvetica,sans-Serif" font-size="10.00" fill="#000000">TextUtils::replaceChildText</text>
</a>
</g>
</g>
<!-- Node6&#45;&gt;Node7 -->
<g id="edge3" class="edge">
<title>Node6&#45;&gt;Node7</title>
<path fill="none" stroke="#191970" d="M501.4078,-440.1203C523.4534,-459.034 563.9448,-491.1034 604,-509 609.4703,-511.4441 615.2916,-513.5927 621.2113,-515.4777"/>
<polygon fill="#191970" stroke="#191970" points="620.6414,-518.9577 631.222,-518.4069 622.6073,-512.2394 620.6414,-518.9577"/>
</g>
<!-- Node9 -->
<g id="node6" class="node">
<title>Node9</title>
<g id="a_node6"><a xlink:href="../../d5/def/classPEMetadataView.html#a6d26dacf4c5560462dd7301ac7e79a1a" target="_top" xlink:title=" ">
<polygon fill="#ffffff" stroke="#000000" points="618,-480.5 618,-499.5 754,-499.5 754,-480.5 618,-480.5"/>
<text text-anchor="middle" x="686" y="-487.5" font-family="Helvetica,sans-Serif" font-size="10.00" fill="#000000">PEMetadataView::family</text>
</a>
</g>
</g>
<!-- Node8&#45;&gt;Node9 -->
<g id="edge5" class="edge">
<title>Node8&#45;&gt;Node9</title>
<path fill="none" stroke="#191970" d="M491.6255,-287.6213C506.59,-308.0087 542.0461,-357.2775 568,-401 585.8576,-431.0833 576.4,-449.5026 604,-471 606.3238,-472.81 608.79,-474.4527 611.3617,-475.9433"/>
<polygon fill="#191970" stroke="#191970" points="609.9442,-479.147 620.4589,-480.4473 613.0501,-472.8737 609.9442,-479.147"/>
</g>
<!-- Node10 -->
<g id="node7" class="node">
<title>Node10</title>
<g id="a_node7"><a xlink:href="../../d5/def/classPEMetadataView.html#aeb34520e84956de7f4c0286d4355ee57" target="_top" xlink:title=" ">
<polygon fill="#ffffff" stroke="#000000" points="616.5,-442.5 616.5,-461.5 755.5,-461.5 755.5,-442.5 616.5,-442.5"/>
<text text-anchor="middle" x="686" y="-449.5" font-family="Helvetica,sans-Serif" font-size="10.00" fill="#000000">PEMetadataView::variant</text>
</a>
</g>
</g>
<!-- Node8&#45;&gt;Node10 -->
<g id="edge6" class="edge">
<title>Node8&#45;&gt;Node10</title>
<path fill="none" stroke="#191970" d="M490.6238,-287.5609C510.4563,-318.2411 573.4075,-413.3545 604,-433 607.2009,-435.0555 610.5986,-436.8894 614.1202,-438.5256"/>
<polygon fill="#191970" stroke="#191970" points="613.0987,-441.8884 623.6807,-442.411 615.7343,-435.4035 613.0987,-441.8884"/>
</g>
<!-- Node11 -->
<g id="node8" class="node">
<title>Node11</title>
<g id="a_node8"><a xlink:href="../../d5/def/classPEMetadataView.html#a130f83d86d8c7c436565e5c0855156b4" target="_top" xlink:title=" ">
<polygon fill="#ffffff" stroke="#000000" points="609,-404.5 609,-423.5 763,-423.5 763,-404.5 609,-404.5"/>
<text text-anchor="middle" x="686" y="-411.5" font-family="Helvetica,sans-Serif" font-size="10.00" fill="#000000">PEMetadataView::properties</text>
</a>
</g>
</g>
<!-- Node8&#45;&gt;Node11 -->
<g id="edge7" class="edge">
<title>Node8&#45;&gt;Node11</title>
<path fill="none" stroke="#191970" d="M491.3424,-287.6594C507.8978,-310.2637 552.5651,-366.8169 604,-395 608.1851,-397.2932 612.6368,-399.3104 617.2189,-401.0849"/>
<polygon fill="#191970" stroke="#191970" points="616.1693,-404.4254 626.7641,-404.3969 618.464,-397.8122 616.1693,-404.4254"/>
</g>
<!-- Node12 -->
<g id="node9" class="node">
<title>Node12</title>
<g id="a_node9"><a xlink:href="../../d5/def/classPEMetadataView.html#a0475aeefd7167734bcbbd1d0bf2aaa3f" target="_top" xlink:title=" ">
<polygon fill="#ffffff" stroke="#000000" points="611.5,-366.5 611.5,-385.5 760.5,-385.5 760.5,-366.5 611.5,-366.5"/>
<text text-anchor="middle" x="686" y="-373.5" font-family="Helvetica,sans-Serif" font-size="10.00" fill="#000000">PEMetadataView::titleEntry</text>
</a>
</g>
</g>
<!-- Node8&#45;&gt;Node12 -->
<g id="edge8" class="edge">
<title>Node8&#45;&gt;Node12</title>
<path fill="none" stroke="#191970" d="M495.8974,-287.5874C516.2606,-304.2253 560.8147,-338.44 604,-357 609.8151,-359.4992 616.0097,-361.6966 622.289,-363.6227"/>
<polygon fill="#191970" stroke="#191970" points="621.6081,-367.0677 632.1838,-366.4307 623.5192,-360.3336 621.6081,-367.0677"/>
</g>
<!-- Node13 -->
<g id="node10" class="node">
<title>Node13</title>
<g id="a_node10"><a xlink:href="../../d5/def/classPEMetadataView.html#ab4719b074e36b7ea293893cb665d18a2" target="_top" xlink:title=" ">
<polygon fill="#ffffff" stroke="#000000" points="610,-328.5 610,-347.5 762,-347.5 762,-328.5 610,-328.5"/>
<text text-anchor="middle" x="686" y="-335.5" font-family="Helvetica,sans-Serif" font-size="10.00" fill="#000000">PEMetadataView::dateEntry</text>
</a>
</g>
</g>
<!-- Node8&#45;&gt;Node13 -->
<g id="edge9" class="edge">
<title>Node8&#45;&gt;Node13</title>
<path fill="none" stroke="#191970" d="M509.9003,-287.5657C533.9279,-296.4108 571.1076,-309.5737 604,-319 612.7689,-321.513 622.1368,-323.9301 631.2903,-326.1488"/>
<polygon fill="#191970" stroke="#191970" points="630.5625,-329.5731 641.1001,-328.4734 632.1767,-322.7618 630.5625,-329.5731"/>
</g>
<!-- Node14 -->
<g id="node11" class="node">
<title>Node14</title>
<g id="a_node11"><a xlink:href="../../d5/def/classPEMetadataView.html#a719ba22e531356f0dcc38eeb9ef1dbd1" target="_top" xlink:title=" ">
<polygon fill="#ffffff" stroke="#000000" points="605.5,-290.5 605.5,-309.5 766.5,-309.5 766.5,-290.5 605.5,-290.5"/>
<text text-anchor="middle" x="686" y="-297.5" font-family="Helvetica,sans-Serif" font-size="10.00" fill="#000000">PEMetadataView::authorEntry</text>
</a>
</g>
</g>
<!-- Node8&#45;&gt;Node14 -->
<g id="edge10" class="edge">
<title>Node8&#45;&gt;Node14</title>
<path fill="none" stroke="#191970" d="M568.2036,-287.1389C577.1597,-288.1167 586.3009,-289.1147 595.3329,-290.1009"/>
<polygon fill="#191970" stroke="#191970" points="595.1474,-293.6013 605.4683,-291.2075 595.9072,-286.6427 595.1474,-293.6013"/>
</g>
<!-- Node15 -->
<g id="node12" class="node">
<title>Node15</title>
<g id="a_node12"><a xlink:href="../../d5/def/classPEMetadataView.html#a34e21dfdf1bc1d3c9807db0ec4e6c755" target="_top" xlink:title=" ">
<polygon fill="#ffffff" stroke="#000000" points="607,-241 607,-271 765,-271 765,-241 607,-241"/>
<text text-anchor="start" x="615" y="-259" font-family="Helvetica,sans-Serif" font-size="10.00" fill="#000000">PEMetadataView::description</text>
<text text-anchor="middle" x="686" y="-248" font-family="Helvetica,sans-Serif" font-size="10.00" fill="#000000">Entry</text>
</a>
</g>
</g>
<!-- Node8&#45;&gt;Node15 -->
<g id="edge11" class="edge">
<title>Node8&#45;&gt;Node15</title>
<path fill="none" stroke="#191970" d="M568.2036,-268.8611C577.5736,-267.8381 587.1462,-266.793 596.5845,-265.7625"/>
<polygon fill="#191970" stroke="#191970" points="597.1963,-269.2166 606.7573,-264.6518 596.4364,-262.2579 597.1963,-269.2166"/>
</g>
<!-- Node16 -->
<g id="node13" class="node">
<title>Node16</title>
<g id="a_node13"><a xlink:href="../../d5/def/classPEMetadataView.html#aedbc2499b1af101909c28bb68cd0f5d5" target="_top" xlink:title=" ">
<polygon fill="#ffffff" stroke="#000000" points="609,-202.5 609,-221.5 763,-221.5 763,-202.5 609,-202.5"/>
<text text-anchor="middle" x="686" y="-209.5" font-family="Helvetica,sans-Serif" font-size="10.00" fill="#000000">PEMetadataView::labelEntry</text>
</a>
</g>
</g>
<!-- Node8&#45;&gt;Node16 -->
<g id="edge12" class="edge">
<title>Node8&#45;&gt;Node16</title>
<path fill="none" stroke="#191970" d="M506.6625,-268.4839C530.4279,-258.5133 569.4186,-242.8241 604,-232 613.1336,-229.1412 622.9441,-226.4393 632.4916,-224.0003"/>
<polygon fill="#191970" stroke="#191970" points="633.4474,-227.3693 642.3065,-221.5583 631.7572,-220.5764 633.4474,-227.3693"/>
</g>
<!-- Node17 -->
<g id="node14" class="node">
<title>Node17</title>
<g id="a_node14"><a xlink:href="../../d5/def/classPEMetadataView.html#a01c52ab8616b592e0b45d9c36fb79422" target="_top" xlink:title=" ">
<polygon fill="#ffffff" stroke="#000000" points="614.5,-164.5 614.5,-183.5 757.5,-183.5 757.5,-164.5 614.5,-164.5"/>
<text text-anchor="middle" x="686" y="-171.5" font-family="Helvetica,sans-Serif" font-size="10.00" fill="#000000">PEMetadataView::urlEntry</text>
</a>
</g>
</g>
<!-- Node8&#45;&gt;Node17 -->
<g id="edge13" class="edge">
<title>Node8&#45;&gt;Node17</title>
<path fill="none" stroke="#191970" d="M494.8142,-268.481C514.4941,-250.845 559.4257,-213.0651 604,-193 609.4634,-190.5406 615.2801,-188.3817 621.1969,-186.49"/>
<polygon fill="#191970" stroke="#191970" points="622.5944,-189.7276 631.2039,-183.5529 620.623,-183.0109 622.5944,-189.7276"/>
</g>
<!-- Node18 -->
<g id="node15" class="node">
<title>Node18</title>
<g id="a_node15"><a xlink:href="../../d5/def/classPEMetadataView.html#af341236178b88a333901e62fdf34d0f7" target="_top" xlink:title=" ">
<polygon fill="#ffffff" stroke="#000000" points="605.5,-126.5 605.5,-145.5 766.5,-145.5 766.5,-126.5 605.5,-126.5"/>
<text text-anchor="middle" x="686" y="-133.5" font-family="Helvetica,sans-Serif" font-size="10.00" fill="#000000">PEMetadataView::familyEntry</text>
</a>
</g>
</g>
<!-- Node8&#45;&gt;Node18 -->
<g id="edge14" class="edge">
<title>Node8&#45;&gt;Node18</title>
<path fill="none" stroke="#191970" d="M490.9769,-268.1863C507.0638,-244.6412 551.3637,-184.7029 604,-155 607.9731,-152.7579 612.1967,-150.7802 616.5505,-149.0355"/>
<polygon fill="#191970" stroke="#191970" points="618.0013,-152.2341 626.2432,-145.5766 615.6485,-145.6413 618.0013,-152.2341"/>
</g>
<!-- Node19 -->
<g id="node16" class="node">
<title>Node19</title>
<g id="a_node16"><a xlink:href="../../d5/def/classPEMetadataView.html#ad53b4b321803b7f2446a1cf305b61bdf" target="_top" xlink:title=" ">
<polygon fill="#ffffff" stroke="#000000" points="604,-88.5 604,-107.5 768,-107.5 768,-88.5 604,-88.5"/>
<text text-anchor="middle" x="686" y="-95.5" font-family="Helvetica,sans-Serif" font-size="10.00" fill="#000000">PEMetadataView::variantEntry</text>
</a>
</g>
</g>
<!-- Node8&#45;&gt;Node19 -->
<g id="edge15" class="edge">
<title>Node8&#45;&gt;Node19</title>
<path fill="none" stroke="#191970" d="M488.7657,-268.1535C501.6126,-239.7354 542.8541,-157.0596 604,-117 607.117,-114.9579 610.4267,-113.1341 613.8596,-111.5054"/>
<polygon fill="#191970" stroke="#191970" points="615.2932,-114.7 623.1874,-107.6337 612.6096,-108.2347 615.2932,-114.7"/>
</g>
<!-- Node20 -->
<g id="node17" class="node">
<title>Node20</title>
<g id="a_node17"><a xlink:href="../../d5/def/classPEMetadataView.html#a83d7a48f56960f28cbc15ba0a339dfcd" target="_top" xlink:title=" ">
<polygon fill="#ffffff" stroke="#000000" points="609,-39 609,-69 763,-69 763,-39 609,-39"/>
<text text-anchor="start" x="617" y="-57" font-family="Helvetica,sans-Serif" font-size="10.00" fill="#000000">PEMetadataView::properties</text>
<text text-anchor="middle" x="686" y="-46" font-family="Helvetica,sans-Serif" font-size="10.00" fill="#000000">Entry</text>
</a>
</g>
</g>
<!-- Node8&#45;&gt;Node20 -->
<g id="edge16" class="edge">
<title>Node8&#45;&gt;Node20</title>
<path fill="none" stroke="#191970" d="M487.4588,-268.4253C497.8382,-236.4429 535.7104,-132.3253 604,-79 606.3094,-77.1966 608.7486,-75.5228 611.2839,-73.9692"/>
<polygon fill="#191970" stroke="#191970" points="613.0921,-76.9705 620.2256,-69.137 609.764,-70.8123 613.0921,-76.9705"/>
</g>
<!-- Node21 -->
<g id="node18" class="node">
<title>Node21</title>
<g id="a_node18"><a xlink:href="../../d5/def/classPEMetadataView.html#a99a3c759650b5e91eb4708652f7b7b4a" target="_top" xlink:title=" ">
<polygon fill="#ffffff" stroke="#000000" points="610.5,-.5 610.5,-19.5 761.5,-19.5 761.5,-.5 610.5,-.5"/>
<text text-anchor="middle" x="686" y="-7.5" font-family="Helvetica,sans-Serif" font-size="10.00" fill="#000000">PEMetadataView::tagsEntry</text>
</a>
</g>
</g>
<!-- Node8&#45;&gt;Node21 -->
<g id="edge17" class="edge">
<title>Node8&#45;&gt;Node21</title>
<path fill="none" stroke="#191970" d="M486.086,-268.2716C492.7255,-230.8248 521.8647,-94.8126 604,-29 606.0955,-27.321 608.3126,-25.7851 610.6231,-24.3804"/>
<polygon fill="#191970" stroke="#191970" points="612.6472,-27.2752 619.9382,-19.5881 609.4448,-21.0506 612.6472,-27.2752"/>
</g>
</g>
</svg>
