<?xml version="1.0" encoding="UTF-8" standalone="no"?>
<!DOCTYPE svg PUBLIC "-//W3C//DTD SVG 1.1//EN"
 "http://www.w3.org/Graphics/SVG/1.1/DTD/svg11.dtd">
<!-- Generated by graphviz version 2.40.1 (0)
 -->
<!-- Title: InfoGraphicsView::changePinLabels Pages: 1 -->
<svg width="507pt" height="39pt"
 viewBox="0.00 0.00 507.00 39.00" xmlns="http://www.w3.org/2000/svg" xmlns:xlink="http://www.w3.org/1999/xlink">
<g id="graph0" class="graph" transform="scale(1 1) rotate(0) translate(4 35)">
<title>InfoGraphicsView::changePinLabels</title>
<polygon fill="#ffffff" stroke="transparent" points="-4,4 -4,-35 503,-35 503,4 -4,4"/>
<!-- Node106 -->
<g id="node1" class="node">
<title>Node106</title>
<g id="a_node1"><a xlink:title=" ">
<polygon fill="#bfbfbf" stroke="#000000" points="356,-.5 356,-30.5 499,-30.5 499,-.5 356,-.5"/>
<text text-anchor="start" x="364" y="-18.5" font-family="Helvetica,sans-Serif" font-size="10.00" fill="#000000">InfoGraphicsView::change</text>
<text text-anchor="middle" x="427.5" y="-7.5" font-family="Helvetica,sans-Serif" font-size="10.00" fill="#000000">PinLabels</text>
</a>
</g>
</g>
<!-- Node107 -->
<g id="node2" class="node">
<title>Node107</title>
<g id="a_node2"><a xlink:href="../../d3/d04/classPaletteItem.html#abc53c6fc493b4cda2cc8877535acc873" target="_top" xlink:title=" ">
<polygon fill="#ffffff" stroke="#000000" points="183,-6 183,-25 320,-25 320,-6 183,-6"/>
<text text-anchor="middle" x="251.5" y="-13" font-family="Helvetica,sans-Serif" font-size="10.00" fill="#000000">PaletteItem::renamePins</text>
</a>
</g>
</g>
<!-- Node106&#45;&gt;Node107 -->
<g id="edge1" class="edge">
<title>Node106&#45;&gt;Node107</title>
<path fill="none" stroke="#191970" d="M345.8799,-15.5C337.2835,-15.5 328.6055,-15.5 320.1762,-15.5"/>
<polygon fill="#191970" stroke="#191970" points="345.9141,-19.0001 355.9141,-15.5 345.914,-12.0001 345.9141,-19.0001"/>
</g>
<!-- Node108 -->
<g id="node3" class="node">
<title>Node108</title>
<g id="a_node3"><a xlink:href="../../d8/d37/classSketchWidget.html#a6904bcf5db0891a3834f787baad1fdf7" target="_top" xlink:title=" ">
<polygon fill="#ffffff" stroke="#000000" points="0,-6 0,-25 147,-25 147,-6 0,-6"/>
<text text-anchor="middle" x="73.5" y="-13" font-family="Helvetica,sans-Serif" font-size="10.00" fill="#000000">SketchWidget::renamePins</text>
</a>
</g>
</g>
<!-- Node107&#45;&gt;Node108 -->
<g id="edge2" class="edge">
<title>Node107&#45;&gt;Node108</title>
<path fill="none" stroke="#191970" d="M172.9195,-15.5C164.3194,-15.5 155.5877,-15.5 147.0517,-15.5"/>
<polygon fill="#191970" stroke="#191970" points="172.9352,-19.0001 182.9352,-15.5 172.9351,-12.0001 172.9352,-19.0001"/>
</g>
</g>
</svg>
