<?xml version="1.0" encoding="UTF-8" standalone="no"?>
<!DOCTYPE svg PUBLIC "-//W3C//DTD SVG 1.1//EN"
 "http://www.w3.org/Graphics/SVG/1.1/DTD/svg11.dtd">
<!-- Generated by graphviz version 2.40.1 (0)
 -->
<!-- Title: ChangeWireCurveCommand::undo Pages: 1 -->
<svg width="943pt" height="284pt"
 viewBox="0.00 0.00 943.00 284.00" xmlns="http://www.w3.org/2000/svg" xmlns:xlink="http://www.w3.org/1999/xlink">
<g id="graph0" class="graph" transform="scale(1 1) rotate(0) translate(4 280)">
<title>ChangeWireCurveCommand::undo</title>
<polygon fill="#ffffff" stroke="transparent" points="-4,4 -4,-280 939,-280 939,4 -4,4"/>
<!-- Node25 -->
<g id="node1" class="node">
<title>Node25</title>
<g id="a_node1"><a xlink:title=" ">
<polygon fill="#bfbfbf" stroke="#000000" points="0,-55 0,-85 155,-85 155,-55 0,-55"/>
<text text-anchor="start" x="8" y="-73" font-family="Helvetica,sans-Serif" font-size="10.00" fill="#000000">ChangeWireCurveCommand</text>
<text text-anchor="middle" x="77.5" y="-62" font-family="Helvetica,sans-Serif" font-size="10.00" fill="#000000">::undo</text>
</a>
</g>
</g>
<!-- Node26 -->
<g id="node2" class="node">
<title>Node26</title>
<g id="a_node2"><a xlink:href="../../d8/d37/classSketchWidget.html#a07ffb1f7951b758a6fb2bc9972a4f953" target="_top" xlink:title=" ">
<polygon fill="#ffffff" stroke="#000000" points="191,-93 191,-123 338,-123 338,-93 191,-93"/>
<text text-anchor="start" x="199" y="-111" font-family="Helvetica,sans-Serif" font-size="10.00" fill="#000000">SketchWidget::changeWire</text>
<text text-anchor="middle" x="264.5" y="-100" font-family="Helvetica,sans-Serif" font-size="10.00" fill="#000000">Curve</text>
</a>
</g>
</g>
<!-- Node25&#45;&gt;Node26 -->
<g id="edge1" class="edge">
<title>Node25&#45;&gt;Node26</title>
<path fill="none" stroke="#191970" d="M151.4074,-85.0186C161.1314,-86.9946 171.1514,-89.0308 181.0207,-91.0363"/>
<polygon fill="#191970" stroke="#191970" points="180.3266,-94.4667 190.8233,-93.0283 181.7206,-87.6069 180.3266,-94.4667"/>
</g>
<!-- Node37 -->
<g id="node13" class="node">
<title>Node37</title>
<g id="a_node13"><a xlink:href="../../d8/d6e/classBaseCommand.html#ac2747a4ea6258544b1721c742dc3d4db" target="_top" xlink:title=" ">
<polygon fill="#ffffff" stroke="#000000" points="204,-38.5 204,-57.5 325,-57.5 325,-38.5 204,-38.5"/>
<text text-anchor="middle" x="264.5" y="-45.5" font-family="Helvetica,sans-Serif" font-size="10.00" fill="#000000">BaseCommand::undo</text>
</a>
</g>
</g>
<!-- Node25&#45;&gt;Node37 -->
<g id="edge12" class="edge">
<title>Node25&#45;&gt;Node37</title>
<path fill="none" stroke="#191970" d="M155.1803,-60.8611C168.0075,-59.3521 181.2439,-57.7948 193.8856,-56.3076"/>
<polygon fill="#191970" stroke="#191970" points="194.3547,-59.7766 203.8773,-55.1321 193.5368,-52.8246 194.3547,-59.7766"/>
</g>
<!-- Node27 -->
<g id="node3" class="node">
<title>Node27</title>
<g id="a_node3"><a xlink:href="../../d8/d37/classSketchWidget.html#a8e2ae23ef1e4c2ad993e0c3985e5c3ba" target="_top" xlink:title=" ">
<polygon fill="#ffffff" stroke="#000000" points="390.5,-199.5 390.5,-218.5 520.5,-218.5 520.5,-199.5 390.5,-199.5"/>
<text text-anchor="middle" x="455.5" y="-206.5" font-family="Helvetica,sans-Serif" font-size="10.00" fill="#000000">SketchWidget::findItem</text>
</a>
</g>
</g>
<!-- Node26&#45;&gt;Node27 -->
<g id="edge2" class="edge">
<title>Node26&#45;&gt;Node27</title>
<path fill="none" stroke="#191970" d="M293.0946,-123.1207C329.6829,-142.4685 392.6018,-175.7397 428.437,-194.6892"/>
<polygon fill="#191970" stroke="#191970" points="426.8807,-197.8254 437.357,-199.406 430.153,-191.6373 426.8807,-197.8254"/>
</g>
<!-- Node31 -->
<g id="node7" class="node">
<title>Node31</title>
<g id="a_node7"><a xlink:href="../../d7/d64/classWire.html#a8a8792f023fd85952e007cda7d35f556" target="_top" xlink:title=" ">
<polygon fill="#ffffff" stroke="#000000" points="401,-114.5 401,-133.5 510,-133.5 510,-114.5 401,-114.5"/>
<text text-anchor="middle" x="455.5" y="-121.5" font-family="Helvetica,sans-Serif" font-size="10.00" fill="#000000">Wire::changeCurve</text>
</a>
</g>
</g>
<!-- Node26&#45;&gt;Node31 -->
<g id="edge6" class="edge">
<title>Node26&#45;&gt;Node31</title>
<path fill="none" stroke="#191970" d="M338.0724,-114.1631C355.3907,-115.6139 373.726,-117.1498 390.6295,-118.5658"/>
<polygon fill="#191970" stroke="#191970" points="390.69,-122.0831 400.9473,-119.4301 391.2744,-115.1075 390.69,-122.0831"/>
</g>
<!-- Node34 -->
<g id="node10" class="node">
<title>Node34</title>
<g id="a_node10"><a xlink:href="../../d7/d64/classWire.html#aaaf0d4ccc1442ddfc3f3c719f27bddea" target="_top" xlink:title=" ">
<polygon fill="#ffffff" stroke="#000000" points="394,-76.5 394,-95.5 517,-95.5 517,-76.5 394,-76.5"/>
<text text-anchor="middle" x="455.5" y="-83.5" font-family="Helvetica,sans-Serif" font-size="10.00" fill="#000000">Wire::setAutoroutable</text>
</a>
</g>
</g>
<!-- Node26&#45;&gt;Node34 -->
<g id="edge9" class="edge">
<title>Node26&#45;&gt;Node34</title>
<path fill="none" stroke="#191970" d="M338.0724,-99.5257C353.0147,-97.8046 368.7141,-95.9963 383.5977,-94.2819"/>
<polygon fill="#191970" stroke="#191970" points="384.2183,-97.7337 393.7521,-93.1123 383.4172,-90.7797 384.2183,-97.7337"/>
</g>
<!-- Node28 -->
<g id="node4" class="node">
<title>Node28</title>
<g id="a_node4"><a xlink:href="../../d4/d4f/classItemBase.html#a27afd199a7ae3c3fd14e88ed0be14420" target="_top" xlink:title=" ">
<polygon fill="#ffffff" stroke="#000000" points="620.5,-256.5 620.5,-275.5 698.5,-275.5 698.5,-256.5 620.5,-256.5"/>
<text text-anchor="middle" x="659.5" y="-263.5" font-family="Helvetica,sans-Serif" font-size="10.00" fill="#000000">ItemBase::id</text>
</a>
</g>
</g>
<!-- Node27&#45;&gt;Node28 -->
<g id="edge3" class="edge">
<title>Node27&#45;&gt;Node28</title>
<path fill="none" stroke="#191970" d="M482.3464,-218.5007C506.0196,-226.6814 541.5452,-238.4805 573,-247 584.9421,-250.2345 597.9232,-253.3129 610.1102,-256.0137"/>
<polygon fill="#191970" stroke="#191970" points="609.6051,-259.4855 620.1202,-258.1887 611.0914,-252.6452 609.6051,-259.4855"/>
</g>
<!-- Node29 -->
<g id="node5" class="node">
<title>Node29</title>
<g id="a_node5"><a xlink:href="../../d4/d4f/classItemBase.html#abf6d16e250a353043cd4953ddc049bd0" target="_top" xlink:title=" ">
<polygon fill="#ffffff" stroke="#000000" points="592,-218.5 592,-237.5 727,-237.5 727,-218.5 592,-218.5"/>
<text text-anchor="middle" x="659.5" y="-225.5" font-family="Helvetica,sans-Serif" font-size="10.00" fill="#000000">ItemBase::layerKinChief</text>
</a>
</g>
</g>
<!-- Node27&#45;&gt;Node29 -->
<g id="edge4" class="edge">
<title>Node27&#45;&gt;Node29</title>
<path fill="none" stroke="#191970" d="M520.6078,-215.064C540.0595,-216.8756 561.5799,-218.88 581.7562,-220.7592"/>
<polygon fill="#191970" stroke="#191970" points="581.5695,-224.2568 591.851,-221.6994 582.2187,-217.287 581.5695,-224.2568"/>
</g>
<!-- Node30 -->
<g id="node6" class="node">
<title>Node30</title>
<g id="a_node6"><a xlink:href="../../d4/d4f/classItemBase.html#acc32076e751f0e21ffb9050f275d3b87" target="_top" xlink:title=" ">
<polygon fill="#ffffff" stroke="#000000" points="604.5,-180.5 604.5,-199.5 714.5,-199.5 714.5,-180.5 604.5,-180.5"/>
<text text-anchor="middle" x="659.5" y="-187.5" font-family="Helvetica,sans-Serif" font-size="10.00" fill="#000000">ItemBase::layerKin</text>
</a>
</g>
</g>
<!-- Node27&#45;&gt;Node30 -->
<g id="edge5" class="edge">
<title>Node27&#45;&gt;Node30</title>
<path fill="none" stroke="#191970" d="M520.6078,-202.936C544.0714,-200.7507 570.5452,-198.285 594.0389,-196.0969"/>
<polygon fill="#191970" stroke="#191970" points="594.6214,-199.5579 604.2537,-195.1455 593.9722,-192.588 594.6214,-199.5579"/>
</g>
<!-- Node32 -->
<g id="node8" class="node">
<title>Node32</title>
<g id="a_node8"><a xlink:href="../../d4/d4f/classItemBase.html#ab1484692ebea9a39e103002ea06421ab" target="_top" xlink:title=" ">
<polygon fill="#ffffff" stroke="#000000" points="582,-131 582,-161 737,-161 737,-131 582,-131"/>
<text text-anchor="start" x="590" y="-149" font-family="Helvetica,sans-Serif" font-size="10.00" fill="#000000">ItemBase::prepareGeometry</text>
<text text-anchor="middle" x="659.5" y="-138" font-family="Helvetica,sans-Serif" font-size="10.00" fill="#000000">Change</text>
</a>
</g>
</g>
<!-- Node31&#45;&gt;Node32 -->
<g id="edge7" class="edge">
<title>Node31&#45;&gt;Node32</title>
<path fill="none" stroke="#191970" d="M510.1683,-129.8956C529.0333,-131.9301 550.674,-134.2639 571.5184,-136.5118"/>
<polygon fill="#191970" stroke="#191970" points="571.3539,-140.0143 581.6715,-137.6067 572.1045,-133.0546 571.3539,-140.0143"/>
</g>
<!-- Node33 -->
<g id="node9" class="node">
<title>Node33</title>
<g id="a_node9"><a xlink:href="../../d8/d3c/classBezier.html#a729d94317967559220576af5599619ac" target="_top" xlink:title=" ">
<polygon fill="#ffffff" stroke="#000000" points="621,-92.5 621,-111.5 698,-111.5 698,-92.5 621,-92.5"/>
<text text-anchor="middle" x="659.5" y="-99.5" font-family="Helvetica,sans-Serif" font-size="10.00" fill="#000000">Bezier::copy</text>
</a>
</g>
</g>
<!-- Node31&#45;&gt;Node33 -->
<g id="edge8" class="edge">
<title>Node31&#45;&gt;Node33</title>
<path fill="none" stroke="#191970" d="M510.1683,-118.1044C541.4183,-114.7343 580.2844,-110.5429 610.5316,-107.2809"/>
<polygon fill="#191970" stroke="#191970" points="611.2773,-110.7209 620.8443,-106.1688 610.5266,-103.7612 611.2773,-110.7209"/>
</g>
<!-- Node35 -->
<g id="node11" class="node">
<title>Node35</title>
<g id="a_node11"><a xlink:href="../../d3/de8/classViewGeometry.html#afc46ede8b188166207054154631c3b5d" target="_top" xlink:title=" ">
<polygon fill="#ffffff" stroke="#000000" points="573,-54.5 573,-73.5 746,-73.5 746,-54.5 573,-54.5"/>
<text text-anchor="middle" x="659.5" y="-61.5" font-family="Helvetica,sans-Serif" font-size="10.00" fill="#000000">ViewGeometry::setAutoroutable</text>
</a>
</g>
</g>
<!-- Node34&#45;&gt;Node35 -->
<g id="edge10" class="edge">
<title>Node34&#45;&gt;Node35</title>
<path fill="none" stroke="#191970" d="M517.2603,-79.3396C531.5939,-77.7938 547.19,-76.1119 562.6291,-74.4469"/>
<polygon fill="#191970" stroke="#191970" points="563.1702,-77.9089 572.7372,-73.3568 562.4196,-70.9493 563.1702,-77.9089"/>
</g>
<!-- Node36 -->
<g id="node12" class="node">
<title>Node36</title>
<g id="a_node12"><a xlink:href="../../d3/de8/classViewGeometry.html#a48a7e6061ee8547a9e7736e0d1b51aa9" target="_top" xlink:title=" ">
<polygon fill="#ffffff" stroke="#000000" points="782,-54.5 782,-73.5 935,-73.5 935,-54.5 782,-54.5"/>
<text text-anchor="middle" x="858.5" y="-61.5" font-family="Helvetica,sans-Serif" font-size="10.00" fill="#000000">ViewGeometry::setWireFlag</text>
</a>
</g>
</g>
<!-- Node35&#45;&gt;Node36 -->
<g id="edge11" class="edge">
<title>Node35&#45;&gt;Node36</title>
<path fill="none" stroke="#191970" d="M746.2054,-64C754.6197,-64 763.1582,-64 771.5746,-64"/>
<polygon fill="#191970" stroke="#191970" points="771.7638,-67.5001 781.7638,-64 771.7638,-60.5001 771.7638,-67.5001"/>
</g>
<!-- Node38 -->
<g id="node14" class="node">
<title>Node38</title>
<g id="a_node14"><a xlink:href="../../df/d8b/classCommandProgress.html#aebf23a39ab6caf18a3e7b3351ad4f49d" target="_top" xlink:title=" ">
<polygon fill="#ffffff" stroke="#000000" points="383,-38.5 383,-57.5 528,-57.5 528,-38.5 383,-38.5"/>
<text text-anchor="middle" x="455.5" y="-45.5" font-family="Helvetica,sans-Serif" font-size="10.00" fill="#000000">CommandProgress::active</text>
</a>
</g>
</g>
<!-- Node37&#45;&gt;Node38 -->
<g id="edge13" class="edge">
<title>Node37&#45;&gt;Node38</title>
<path fill="none" stroke="#191970" d="M325.196,-48C340.2498,-48 356.6401,-48 372.5569,-48"/>
<polygon fill="#191970" stroke="#191970" points="372.9294,-51.5001 382.9293,-48 372.9293,-44.5001 372.9294,-51.5001"/>
</g>
<!-- Node39 -->
<g id="node15" class="node">
<title>Node39</title>
<g id="a_node15"><a xlink:href="../../df/d8b/classCommandProgress.html#aaed608918684247a483fd5466be7b551" target="_top" xlink:title=" ">
<polygon fill="#ffffff" stroke="#000000" points="374,-.5 374,-19.5 537,-19.5 537,-.5 374,-.5"/>
<text text-anchor="middle" x="455.5" y="-7.5" font-family="Helvetica,sans-Serif" font-size="10.00" fill="#000000">CommandProgress::emitUndo</text>
</a>
</g>
</g>
<!-- Node37&#45;&gt;Node39 -->
<g id="edge14" class="edge">
<title>Node37&#45;&gt;Node39</title>
<path fill="none" stroke="#191970" d="M312.6974,-38.411C338.4696,-33.2835 370.3906,-26.9328 397.5124,-21.5368"/>
<polygon fill="#191970" stroke="#191970" points="398.5244,-24.9041 407.6492,-19.5201 397.1585,-18.0387 398.5244,-24.9041"/>
</g>
</g>
</svg>
