<?xml version="1.0" encoding="UTF-8" standalone="no"?>
<!DOCTYPE svg PUBLIC "-//W3C//DTD SVG 1.1//EN"
 "http://www.w3.org/Graphics/SVG/1.1/DTD/svg11.dtd">
<!-- Generated by graphviz version 2.40.1 (0)
 -->
<!-- Title: PartsEditorViewsWidget Pages: 1 -->
<!--zoomable 523 -->
<svg id="main" version="1.1" xmlns="http://www.w3.org/2000/svg" xmlns:xlink="http://www.w3.org/1999/xlink" xml:space="preserve" onload="init(evt)">
<style type="text/css"><![CDATA[
.edge:hover path { stroke: red; }
.edge:hover polygon { stroke: red; fill: red; }
]]></style>
<script type="text/javascript"><![CDATA[
var edges = document.getElementsByTagName('g');
if (edges && edges.length) {
  for (var i=0;i<edges.length;i++) {
    if (edges[i].id.substr(0,4)=='edge') {
      edges[i].setAttribute('class','edge');
    }
  }
}
]]></script>
        <defs>
                <circle id="rim" cx="0" cy="0" r="7"/>
                <circle id="rim2" cx="0" cy="0" r="3.5"/>
                <g id="zoomPlus">
                        <use xlink:href="#rim" fill="#404040">
                                <set attributeName="fill" to="#808080" begin="zoomplus.mouseover" end="zoomplus.mouseout"/>
                        </use>
                        <path d="M-4,0h8M0,-4v8" fill="none" stroke="white" stroke-width="1.5" pointer-events="none"/>
                </g>
                <g id="zoomMin">
                        <use xlink:href="#rim" fill="#404040">
                                <set attributeName="fill" to="#808080" begin="zoomminus.mouseover" end="zoomminus.mouseout"/>
                        </use>
                        <path d="M-4,0h8" fill="none" stroke="white" stroke-width="1.5" pointer-events="none"/>
                </g>
                <g id="dirArrow">
                        <path fill="none" stroke="white" stroke-width="1.5" d="M0,-3.0v7 M-2.5,-0.5L0,-3.0L2.5,-0.5"/>
                </g>
               <g id="resetDef">
                       <use xlink:href="#rim2" fill="#404040">
                               <set attributeName="fill" to="#808080" begin="reset.mouseover" end="reset.mouseout"/>
                       </use>
               </g>
        </defs>

<script type="text/javascript">
var viewWidth = 1111;
var viewHeight = 523;
var sectionId = 'dynsection-1';
</script>
<script xlink:href="../../svgpan.js"/>
<svg id="graph" class="graph">
<g id="viewport">
<title>PartsEditorViewsWidget</title>
<polygon fill="#ffffff" stroke="transparent" points="-4,4 -4,-519 1107,-519 1107,4 -4,4"/>
<!-- Node2 -->
<g id="node1" class="node">
<title>Node2</title>
<g id="a_node1"><a xlink:title=" ">
<polygon fill="#bfbfbf" stroke="#000000" points="451.5,-.5 451.5,-376.5 633.5,-376.5 633.5,-.5 451.5,-.5"/>
<text text-anchor="middle" x="542.5" y="-364.5" font-family="Helvetica,sans-Serif" font-size="10.00" fill="#000000">PartsEditorViewsWidget</text>
<polyline fill="none" stroke="#000000" points="451.5,-357.5 633.5,-357.5 "/>
<text text-anchor="middle" x="542.5" y="-345.5" font-family="Helvetica,sans-Serif" font-size="10.00" fill="#000000"> </text>
<polyline fill="none" stroke="#000000" points="451.5,-338.5 633.5,-338.5 "/>
<text text-anchor="start" x="459.5" y="-326.5" font-family="Helvetica,sans-Serif" font-size="10.00" fill="#000000">+ PartsEditorViewsWidget()</text>
<text text-anchor="start" x="459.5" y="-315.5" font-family="Helvetica,sans-Serif" font-size="10.00" fill="#000000">+ ~PartsEditorViewsWidget()</text>
<text text-anchor="start" x="459.5" y="-304.5" font-family="Helvetica,sans-Serif" font-size="10.00" fill="#000000">+ aboutToSave()</text>
<text text-anchor="start" x="459.5" y="-293.5" font-family="Helvetica,sans-Serif" font-size="10.00" fill="#000000">+ breadboardView()</text>
<text text-anchor="start" x="459.5" y="-282.5" font-family="Helvetica,sans-Serif" font-size="10.00" fill="#000000">+ connectorsPosOrSizeChanged()</text>
<text text-anchor="start" x="459.5" y="-271.5" font-family="Helvetica,sans-Serif" font-size="10.00" fill="#000000">+ connectTerminalRemoval()</text>
<text text-anchor="start" x="459.5" y="-260.5" font-family="Helvetica,sans-Serif" font-size="10.00" fill="#000000">+ copySvgFilesToDestiny()</text>
<text text-anchor="start" x="459.5" y="-249.5" font-family="Helvetica,sans-Serif" font-size="10.00" fill="#000000">+ imagesLoadedInAllViews()</text>
<text text-anchor="start" x="459.5" y="-238.5" font-family="Helvetica,sans-Serif" font-size="10.00" fill="#000000">+ loadViewsImagesFromModel()</text>
<text text-anchor="start" x="459.5" y="-227.5" font-family="Helvetica,sans-Serif" font-size="10.00" fill="#000000">+ pcbView()</text>
<text text-anchor="start" x="459.5" y="-216.5" font-family="Helvetica,sans-Serif" font-size="10.00" fill="#000000">+ schematicView()</text>
<text text-anchor="start" x="459.5" y="-205.5" font-family="Helvetica,sans-Serif" font-size="10.00" fill="#000000">+ setViewItems()</text>
<text text-anchor="start" x="459.5" y="-194.5" font-family="Helvetica,sans-Serif" font-size="10.00" fill="#000000">+ showTerminalPointsCheckBox()</text>
<text text-anchor="start" x="459.5" y="-183.5" font-family="Helvetica,sans-Serif" font-size="10.00" fill="#000000">+ tempDir()</text>
<text text-anchor="start" x="459.5" y="-172.5" font-family="Helvetica,sans-Serif" font-size="10.00" fill="#000000">+ updatePinsInfo()</text>
<text text-anchor="start" x="459.5" y="-161.5" font-family="Helvetica,sans-Serif" font-size="10.00" fill="#000000">+ drawConnector()</text>
<text text-anchor="start" x="459.5" y="-150.5" font-family="Helvetica,sans-Serif" font-size="10.00" fill="#000000">+ drawConnector()</text>
<text text-anchor="start" x="459.5" y="-139.5" font-family="Helvetica,sans-Serif" font-size="10.00" fill="#000000">+ informConnectorSelection()</text>
<text text-anchor="start" x="459.5" y="-128.5" font-family="Helvetica,sans-Serif" font-size="10.00" fill="#000000">+ removeConnectorFrom()</text>
<text text-anchor="start" x="459.5" y="-117.5" font-family="Helvetica,sans-Serif" font-size="10.00" fill="#000000">+ repaint()</text>
<text text-anchor="start" x="459.5" y="-106.5" font-family="Helvetica,sans-Serif" font-size="10.00" fill="#000000">+ setMismatching()</text>
<text text-anchor="start" x="459.5" y="-95.5" font-family="Helvetica,sans-Serif" font-size="10.00" fill="#000000">+ showHideTerminalPoints()</text>
<text text-anchor="start" x="459.5" y="-84.5" font-family="Helvetica,sans-Serif" font-size="10.00" fill="#000000"># addZoomControlsAndBrowse</text>
<text text-anchor="start" x="459.5" y="-73.5" font-family="Helvetica,sans-Serif" font-size="10.00" fill="#000000">Button()</text>
<text text-anchor="start" x="459.5" y="-62.5" font-family="Helvetica,sans-Serif" font-size="10.00" fill="#000000"># checkStateToBool()</text>
<text text-anchor="start" x="459.5" y="-51.5" font-family="Helvetica,sans-Serif" font-size="10.00" fill="#000000"># connectPair()</text>
<text text-anchor="start" x="459.5" y="-40.5" font-family="Helvetica,sans-Serif" font-size="10.00" fill="#000000"># connectToThis()</text>
<text text-anchor="start" x="459.5" y="-29.5" font-family="Helvetica,sans-Serif" font-size="10.00" fill="#000000"># createViewImageWidget()</text>
<text text-anchor="start" x="459.5" y="-18.5" font-family="Helvetica,sans-Serif" font-size="10.00" fill="#000000"># init()</text>
<text text-anchor="start" x="459.5" y="-7.5" font-family="Helvetica,sans-Serif" font-size="10.00" fill="#000000"># showingTerminalPoints()</text>
</a>
</g>
</g>
<!-- Node3 -->
<g id="node2" class="node">
<title>Node3</title>
<g id="a_node2"><a xlink:href="../../da/d79/classQFrame.html" target="_top" xlink:title=" ">
<polygon fill="#ffffff" stroke="#000000" points="0,-452 0,-509 55,-509 55,-452 0,-452"/>
<text text-anchor="middle" x="27.5" y="-497" font-family="Helvetica,sans-Serif" font-size="10.00" fill="#000000">QFrame</text>
<polyline fill="none" stroke="#000000" points="0,-490 55,-490 "/>
<text text-anchor="middle" x="27.5" y="-478" font-family="Helvetica,sans-Serif" font-size="10.00" fill="#000000"> </text>
<polyline fill="none" stroke="#000000" points="0,-471 55,-471 "/>
<text text-anchor="middle" x="27.5" y="-459" font-family="Helvetica,sans-Serif" font-size="10.00" fill="#000000"> </text>
</a>
</g>
</g>
<!-- Node3&#45;&gt;Node2 -->
<g id="edge1" class="edge">
<title>Node3&#45;&gt;Node2</title>
<path fill="none" stroke="#191970" d="M62.9869,-446.4003C63.158,-446.2662 63.3291,-446.1327 63.5,-446 97.3981,-419.6771 108.2126,-416.2515 145.5,-395 248.6019,-336.2384 370.0087,-274.081 451.1691,-233.5009"/>
<polygon fill="none" stroke="#191970" points="60.7449,-443.7126 55.2969,-452.7994 65.2224,-449.0934 60.7449,-443.7126"/>
</g>
<!-- Node4 -->
<g id="node3" class="node">
<title>Node4</title>
<g id="a_node3"><a xlink:title=" ">
<polygon fill="#ffffff" stroke="#bfbfbf" points="73,-452 73,-509 210,-509 210,-452 73,-452"/>
<text text-anchor="middle" x="141.5" y="-497" font-family="Helvetica,sans-Serif" font-size="10.00" fill="#000000">QPointer&lt; QCheckBox &gt;</text>
<polyline fill="none" stroke="#bfbfbf" points="73,-490 210,-490 "/>
<text text-anchor="middle" x="141.5" y="-478" font-family="Helvetica,sans-Serif" font-size="10.00" fill="#000000"> </text>
<polyline fill="none" stroke="#bfbfbf" points="73,-471 210,-471 "/>
<text text-anchor="middle" x="141.5" y="-459" font-family="Helvetica,sans-Serif" font-size="10.00" fill="#000000"> </text>
</a>
</g>
</g>
<!-- Node4&#45;&gt;Node2 -->
<g id="edge2" class="edge">
<title>Node4&#45;&gt;Node2</title>
<path fill="none" stroke="#404040" d="M143.8974,-451.7721C146.6707,-433.8396 152.6437,-411.1718 165.5,-395 235.7223,-306.6679 354.5194,-250.6402 440.0085,-219.5726"/>
<polygon fill="none" stroke="#404040" points="440.0124,-219.5712 444.3191,-213.7874 451.3145,-215.5382 447.0078,-221.3221 440.0124,-219.5712"/>
<text text-anchor="middle" x="252" y="-409" font-family="Helvetica,sans-Serif" font-size="10.00" fill="#000000"> #m_showTerminalPointsCheckBox</text>
</g>
<!-- Node5 -->
<g id="node4" class="node">
<title>Node5</title>
<g id="a_node4"><a xlink:title=" ">
<polygon fill="#ffffff" stroke="#bfbfbf" points="311,-452 311,-509 364,-509 364,-452 311,-452"/>
<text text-anchor="middle" x="337.5" y="-497" font-family="Helvetica,sans-Serif" font-size="10.00" fill="#000000">QString</text>
<polyline fill="none" stroke="#bfbfbf" points="311,-490 364,-490 "/>
<text text-anchor="middle" x="337.5" y="-478" font-family="Helvetica,sans-Serif" font-size="10.00" fill="#000000"> </text>
<polyline fill="none" stroke="#bfbfbf" points="311,-471 364,-471 "/>
<text text-anchor="middle" x="337.5" y="-459" font-family="Helvetica,sans-Serif" font-size="10.00" fill="#000000"> </text>
</a>
</g>
</g>
<!-- Node5&#45;&gt;Node2 -->
<g id="edge3" class="edge">
<title>Node5&#45;&gt;Node2</title>
<path fill="none" stroke="#404040" d="M338.8979,-451.9122C340.6802,-434.6732 344.6628,-412.6993 353.5,-395 375.3224,-351.2939 409.1463,-310.0735 442.1825,-276.125"/>
<polygon fill="none" stroke="#404040" points="442.5712,-275.7321 443.9476,-268.6536 451.011,-267.2016 449.6346,-274.2801 442.5712,-275.7321"/>
<text text-anchor="middle" x="412.5" y="-420" font-family="Helvetica,sans-Serif" font-size="10.00" fill="#000000"> #EmptyPcbViewText</text>
<text text-anchor="middle" x="412.5" y="-409" font-family="Helvetica,sans-Serif" font-size="10.00" fill="#000000">#EmptySchemViewText</text>
<text text-anchor="middle" x="412.5" y="-398" font-family="Helvetica,sans-Serif" font-size="10.00" fill="#000000">#EmptyBreadViewText</text>
</g>
<!-- Node6 -->
<g id="node5" class="node">
<title>Node6</title>
<g id="a_node5"><a xlink:title=" ">
<polygon fill="#ffffff" stroke="#bfbfbf" points="442.5,-452 442.5,-509 510.5,-509 510.5,-452 442.5,-452"/>
<text text-anchor="middle" x="476.5" y="-497" font-family="Helvetica,sans-Serif" font-size="10.00" fill="#000000">QSplitter *</text>
<polyline fill="none" stroke="#bfbfbf" points="442.5,-490 510.5,-490 "/>
<text text-anchor="middle" x="476.5" y="-478" font-family="Helvetica,sans-Serif" font-size="10.00" fill="#000000"> </text>
<polyline fill="none" stroke="#bfbfbf" points="442.5,-471 510.5,-471 "/>
<text text-anchor="middle" x="476.5" y="-459" font-family="Helvetica,sans-Serif" font-size="10.00" fill="#000000"> </text>
</a>
</g>
</g>
<!-- Node6&#45;&gt;Node2 -->
<g id="edge4" class="edge">
<title>Node6&#45;&gt;Node2</title>
<path fill="none" stroke="#404040" d="M475.6496,-451.8137C475.6161,-435.1266 476.3661,-413.7516 479.5,-395 479.8664,-392.8078 480.2496,-390.6064 480.6486,-388.3974"/>
<polygon fill="none" stroke="#404040" points="480.6662,-388.3051 477.8689,-381.6587 482.9282,-376.5202 485.7255,-383.1666 480.6662,-388.3051"/>
<text text-anchor="middle" x="532.5" y="-409" font-family="Helvetica,sans-Serif" font-size="10.00" fill="#000000"> #m_viewsContainter</text>
</g>
<!-- Node7 -->
<g id="node6" class="node">
<title>Node7</title>
<g id="a_node6"><a xlink:title=" ">
<polygon fill="#ffffff" stroke="#bfbfbf" points="528.5,-452 528.5,-509 686.5,-509 686.5,-452 528.5,-452"/>
<text text-anchor="middle" x="607.5" y="-497" font-family="Helvetica,sans-Serif" font-size="10.00" fill="#000000">QPointer&lt; PartsEditorView &gt;</text>
<polyline fill="none" stroke="#bfbfbf" points="528.5,-490 686.5,-490 "/>
<text text-anchor="middle" x="607.5" y="-478" font-family="Helvetica,sans-Serif" font-size="10.00" fill="#000000"> </text>
<polyline fill="none" stroke="#bfbfbf" points="528.5,-471 686.5,-471 "/>
<text text-anchor="middle" x="607.5" y="-459" font-family="Helvetica,sans-Serif" font-size="10.00" fill="#000000"> </text>
</a>
</g>
</g>
<!-- Node7&#45;&gt;Node2 -->
<g id="edge5" class="edge">
<title>Node7&#45;&gt;Node2</title>
<path fill="none" stroke="#404040" d="M601.1492,-451.9702C597.4952,-435.5553 592.5466,-413.3248 587.0643,-388.6965"/>
<polygon fill="none" stroke="#404040" points="587.0299,-388.5417 581.8217,-383.5542 584.4224,-376.8284 589.6306,-381.8159 587.0299,-388.5417"/>
<text text-anchor="middle" x="634.5" y="-420" font-family="Helvetica,sans-Serif" font-size="10.00" fill="#000000"> #m_pcbView</text>
<text text-anchor="middle" x="634.5" y="-409" font-family="Helvetica,sans-Serif" font-size="10.00" fill="#000000">#m_breadView</text>
<text text-anchor="middle" x="634.5" y="-398" font-family="Helvetica,sans-Serif" font-size="10.00" fill="#000000">#m_schemView</text>
</g>
<!-- Node8 -->
<g id="node7" class="node">
<title>Node8</title>
<g id="a_node7"><a xlink:title=" ">
<polygon fill="#ffffff" stroke="#bfbfbf" points="704.5,-446.5 704.5,-514.5 892.5,-514.5 892.5,-446.5 704.5,-446.5"/>
<text text-anchor="start" x="712.5" y="-502.5" font-family="Helvetica,sans-Serif" font-size="10.00" fill="#000000">QHash&lt; ViewLayer::ViewIdentifier,</text>
<text text-anchor="middle" x="798.5" y="-491.5" font-family="Helvetica,sans-Serif" font-size="10.00" fill="#000000"> PartsEditorView * &gt;</text>
<polyline fill="none" stroke="#bfbfbf" points="704.5,-484.5 892.5,-484.5 "/>
<text text-anchor="middle" x="798.5" y="-472.5" font-family="Helvetica,sans-Serif" font-size="10.00" fill="#000000"> </text>
<polyline fill="none" stroke="#bfbfbf" points="704.5,-465.5 892.5,-465.5 "/>
<text text-anchor="middle" x="798.5" y="-453.5" font-family="Helvetica,sans-Serif" font-size="10.00" fill="#000000"> </text>
</a>
</g>
</g>
<!-- Node8&#45;&gt;Node2 -->
<g id="edge6" class="edge">
<title>Node8&#45;&gt;Node2</title>
<path fill="none" stroke="#404040" d="M768.6325,-446.4324C737.5265,-410.9522 687.0972,-353.4312 641.7461,-301.7026"/>
<polygon fill="none" stroke="#404040" points="641.5483,-301.477 634.5851,-299.6023 633.6375,-292.4537 640.6007,-294.3284 641.5483,-301.477"/>
<text text-anchor="middle" x="777" y="-409" font-family="Helvetica,sans-Serif" font-size="10.00" fill="#000000"> #m_views</text>
</g>
<!-- Node9 -->
<g id="node8" class="node">
<title>Node9</title>
<g id="a_node8"><a xlink:title=" ">
<polygon fill="#ffffff" stroke="#bfbfbf" points="910.5,-452 910.5,-509 948.5,-509 948.5,-452 910.5,-452"/>
<text text-anchor="middle" x="929.5" y="-497" font-family="Helvetica,sans-Serif" font-size="10.00" fill="#000000">bool</text>
<polyline fill="none" stroke="#bfbfbf" points="910.5,-490 948.5,-490 "/>
<text text-anchor="middle" x="929.5" y="-478" font-family="Helvetica,sans-Serif" font-size="10.00" fill="#000000"> </text>
<polyline fill="none" stroke="#bfbfbf" points="910.5,-471 948.5,-471 "/>
<text text-anchor="middle" x="929.5" y="-459" font-family="Helvetica,sans-Serif" font-size="10.00" fill="#000000"> </text>
</a>
</g>
</g>
<!-- Node9&#45;&gt;Node2 -->
<g id="edge7" class="edge">
<title>Node9&#45;&gt;Node2</title>
<path fill="none" stroke="#404040" d="M910.3751,-455.2931C907.5305,-452.043 904.5319,-448.8565 901.5,-446 821.7884,-370.8992 719.3154,-299.4688 644.2685,-250.9773"/>
<polygon fill="none" stroke="#404040" points="643.96,-250.779 636.7499,-250.8987 633.8663,-244.2892 641.0764,-244.1695 643.96,-250.779"/>
<text text-anchor="middle" x="932" y="-409" font-family="Helvetica,sans-Serif" font-size="10.00" fill="#000000"> #m_connsPosChanged</text>
</g>
<!-- Node10 -->
<g id="node9" class="node">
<title>Node10</title>
<g id="a_node9"><a xlink:title=" ">
<polygon fill="#ffffff" stroke="#bfbfbf" points="988,-452 988,-509 1103,-509 1103,-452 988,-452"/>
<text text-anchor="middle" x="1045.5" y="-497" font-family="Helvetica,sans-Serif" font-size="10.00" fill="#000000">QPointer&lt; QLabel &gt;</text>
<polyline fill="none" stroke="#bfbfbf" points="988,-490 1103,-490 "/>
<text text-anchor="middle" x="1045.5" y="-478" font-family="Helvetica,sans-Serif" font-size="10.00" fill="#000000"> </text>
<polyline fill="none" stroke="#bfbfbf" points="988,-471 1103,-471 "/>
<text text-anchor="middle" x="1045.5" y="-459" font-family="Helvetica,sans-Serif" font-size="10.00" fill="#000000"> </text>
</a>
</g>
</g>
<!-- Node10&#45;&gt;Node2 -->
<g id="edge8" class="edge">
<title>Node10&#45;&gt;Node2</title>
<path fill="none" stroke="#404040" d="M1033.3769,-451.6994C1024.5285,-433.5107 1011.0262,-410.5863 993.5,-395 891.7789,-304.538 743.7222,-247.0585 645.3364,-216.3208"/>
<polygon fill="none" stroke="#404040" points="645.0595,-216.2356 638.1481,-218.293 633.5908,-212.7045 640.5022,-210.6471 645.0595,-216.2356"/>
<text text-anchor="middle" x="1057" y="-409" font-family="Helvetica,sans-Serif" font-size="10.00" fill="#000000"> #m_guidelines</text>
</g>
</g>
</svg>
        <g id="navigator" transform="translate(0 0)" fill="#404254">
                <rect fill="#f2f5e9" fill-opacity="0.5" stroke="#606060" stroke-width=".5" x="0" y="0" width="60" height="60"/>
                <use id="zoomplus" xlink:href="#zoomPlus" x="17" y="9" onmousedown="handleZoom(evt,'in')"/>
                <use id="zoomminus" xlink:href="#zoomMin" x="42" y="9" onmousedown="handleZoom(evt,'out')"/>
                <use id="reset" xlink:href="#resetDef" x="30" y="36" onmousedown="handleReset()"/>
                <g id="arrowUp" xlink:href="#dirArrow" transform="translate(30 24)" onmousedown="handlePan(0,-1)">
                  <use xlink:href="#rim" fill="#404040">
                        <set attributeName="fill" to="#808080" begin="arrowUp.mouseover" end="arrowUp.mouseout"/>
                  </use>
                  <path fill="none" stroke="white" stroke-width="1.5" d="M0,-3.0v7 M-2.5,-0.5L0,-3.0L2.5,-0.5"/>
                </g>
                <g id="arrowRight" xlink:href="#dirArrow" transform="rotate(90) translate(36 -43)" onmousedown="handlePan(1,0)">
                  <use xlink:href="#rim" fill="#404040">
                        <set attributeName="fill" to="#808080" begin="arrowRight.mouseover" end="arrowRight.mouseout"/>
                  </use>
                  <path fill="none" stroke="white" stroke-width="1.5" d="M0,-3.0v7 M-2.5,-0.5L0,-3.0L2.5,-0.5"/>
                </g>
                <g id="arrowDown" xlink:href="#dirArrow" transform="rotate(180) translate(-30 -48)" onmousedown="handlePan(0,1)">
                  <use xlink:href="#rim" fill="#404040">
                        <set attributeName="fill" to="#808080" begin="arrowDown.mouseover" end="arrowDown.mouseout"/>
                  </use>
                  <path fill="none" stroke="white" stroke-width="1.5" d="M0,-3.0v7 M-2.5,-0.5L0,-3.0L2.5,-0.5"/>
                </g>
                <g id="arrowLeft" xlink:href="#dirArrow" transform="rotate(270) translate(-36 17)" onmousedown="handlePan(-1,0)">
                  <use xlink:href="#rim" fill="#404040">
                        <set attributeName="fill" to="#808080" begin="arrowLeft.mouseover" end="arrowLeft.mouseout"/>
                  </use>
                  <path fill="none" stroke="white" stroke-width="1.5" d="M0,-3.0v7 M-2.5,-0.5L0,-3.0L2.5,-0.5"/>
                </g>
        </g>
        <svg viewBox="0 0 15 15" width="100%" height="30px" preserveAspectRatio="xMaxYMin meet">
         <g id="arrow_out" transform="scale(0.3 0.3)">
          <a xlink:href="classPartsEditorViewsWidget__coll__graph_org.svg" target="_base">
           <rect id="button" ry="5" rx="5" y="6" x="6" height="38" width="38"
                fill="#f2f5e9" fill-opacity="0.5" stroke="#606060" stroke-width="1.0"/>
           <path id="arrow"
             d="M 11.500037,31.436501 C 11.940474,20.09759 22.043105,11.32322 32.158766,21.979434 L 37.068811,17.246167 C 37.068811,17.246167 37.088388,32 37.088388,32 L 22.160133,31.978069 C 22.160133,31.978069 26.997745,27.140456 26.997745,27.140456 C 18.528582,18.264221 13.291696,25.230495 11.500037,31.436501 z"
             style="fill:#404040;"/>
          </a>
         </g>
        </svg>
</svg>
