<?xml version="1.0" encoding="UTF-8" standalone="no"?>
<!DOCTYPE svg PUBLIC "-//W3C//DTD SVG 1.1//EN"
 "http://www.w3.org/Graphics/SVG/1.1/DTD/svg11.dtd">
<!-- Generated by graphviz version 2.40.1 (0)
 -->
<!-- Title: GroundPlaneGenerator::scanOutline Pages: 1 -->
<svg width="343pt" height="39pt"
 viewBox="0.00 0.00 343.00 39.00" xmlns="http://www.w3.org/2000/svg" xmlns:xlink="http://www.w3.org/1999/xlink">
<g id="graph0" class="graph" transform="scale(1 1) rotate(0) translate(4 35)">
<title>GroundPlaneGenerator::scanOutline</title>
<polygon fill="#ffffff" stroke="transparent" points="-4,4 -4,-35 339,-35 339,4 -4,4"/>
<!-- Node286 -->
<g id="node1" class="node">
<title>Node286</title>
<g id="a_node1"><a xlink:title=" ">
<polygon fill="#bfbfbf" stroke="#000000" points="207,-.5 207,-30.5 335,-30.5 335,-.5 207,-.5"/>
<text text-anchor="start" x="215" y="-18.5" font-family="Helvetica,sans-Serif" font-size="10.00" fill="#000000">GroundPlaneGenerator</text>
<text text-anchor="middle" x="271" y="-7.5" font-family="Helvetica,sans-Serif" font-size="10.00" fill="#000000">::scanOutline</text>
</a>
</g>
</g>
<!-- Node287 -->
<g id="node2" class="node">
<title>Node287</title>
<g id="a_node2"><a xlink:href="../../d9/d2d/classGerberGenerator.html#a2d6bbf447b6a1368d0005a317b04a766" target="_top" xlink:title=" ">
<polygon fill="#ffffff" stroke="#000000" points="0,-.5 0,-30.5 171,-30.5 171,-.5 0,-.5"/>
<text text-anchor="start" x="8" y="-18.5" font-family="Helvetica,sans-Serif" font-size="10.00" fill="#000000">GerberGenerator::mergeOutline</text>
<text text-anchor="middle" x="85.5" y="-7.5" font-family="Helvetica,sans-Serif" font-size="10.00" fill="#000000">Element</text>
</a>
</g>
</g>
<!-- Node286&#45;&gt;Node287 -->
<g id="edge1" class="edge">
<title>Node286&#45;&gt;Node287</title>
<path fill="none" stroke="#191970" d="M196.7678,-15.5C188.3577,-15.5 179.7359,-15.5 171.1943,-15.5"/>
<polygon fill="#191970" stroke="#191970" points="196.9017,-19.0001 206.9017,-15.5 196.9016,-12.0001 196.9017,-19.0001"/>
</g>
</g>
</svg>
