<?xml version="1.0" encoding="UTF-8" standalone="no"?>
<!DOCTYPE svg PUBLIC "-//W3C//DTD SVG 1.1//EN"
 "http://www.w3.org/Graphics/SVG/1.1/DTD/svg11.dtd">
<!-- Generated by graphviz version 2.40.1 (0)
 -->
<!-- Title: GroundPlaneGenerator::scanImage Pages: 1 -->
<svg width="674pt" height="203pt"
 viewBox="0.00 0.00 674.00 203.00" xmlns="http://www.w3.org/2000/svg" xmlns:xlink="http://www.w3.org/1999/xlink">
<g id="graph0" class="graph" transform="scale(1 1) rotate(0) translate(4 199)">
<title>GroundPlaneGenerator::scanImage</title>
<polygon fill="#ffffff" stroke="transparent" points="-4,4 -4,-199 670,-199 670,4 -4,4"/>
<!-- Node242 -->
<g id="node1" class="node">
<title>Node242</title>
<g id="a_node1"><a xlink:title=" ">
<polygon fill="#bfbfbf" stroke="#000000" points="0,-73.5 0,-103.5 128,-103.5 128,-73.5 0,-73.5"/>
<text text-anchor="start" x="8" y="-91.5" font-family="Helvetica,sans-Serif" font-size="10.00" fill="#000000">GroundPlaneGenerator</text>
<text text-anchor="middle" x="64" y="-80.5" font-family="Helvetica,sans-Serif" font-size="10.00" fill="#000000">::scanImage</text>
</a>
</g>
</g>
<!-- Node243 -->
<g id="node2" class="node">
<title>Node243</title>
<g id="a_node2"><a xlink:href="../../d8/db0/classGroundPlaneGenerator.html#ae6f137d5d22cd1b0f88b66f8c7f778a3" target="_top" xlink:title=" ">
<polygon fill="#ffffff" stroke="#000000" points="164,-147.5 164,-177.5 292,-177.5 292,-147.5 164,-147.5"/>
<text text-anchor="start" x="172" y="-165.5" font-family="Helvetica,sans-Serif" font-size="10.00" fill="#000000">GroundPlaneGenerator</text>
<text text-anchor="middle" x="228" y="-154.5" font-family="Helvetica,sans-Serif" font-size="10.00" fill="#000000">::joinScanLines</text>
</a>
</g>
</g>
<!-- Node242&#45;&gt;Node243 -->
<g id="edge1" class="edge">
<title>Node242&#45;&gt;Node243</title>
<path fill="none" stroke="#191970" d="M92.0732,-103.5273C111.9126,-113.9015 139.2688,-127.7155 164,-138.5 167.9159,-140.2076 171.996,-141.9095 176.1168,-143.5737"/>
<polygon fill="#191970" stroke="#191970" points="175.1609,-146.959 185.7476,-147.3728 177.7296,-140.4473 175.1609,-146.959"/>
</g>
<!-- Node244 -->
<g id="node3" class="node">
<title>Node244</title>
<g id="a_node3"><a xlink:href="../../d8/db0/classGroundPlaneGenerator.html#a181220cb3a676fa487783b909d65fcb0" target="_top" xlink:title=" ">
<polygon fill="#ffffff" stroke="#000000" points="164,-98.5 164,-128.5 292,-128.5 292,-98.5 164,-98.5"/>
<text text-anchor="start" x="172" y="-116.5" font-family="Helvetica,sans-Serif" font-size="10.00" fill="#000000">GroundPlaneGenerator</text>
<text text-anchor="middle" x="228" y="-105.5" font-family="Helvetica,sans-Serif" font-size="10.00" fill="#000000">::makePolySvg</text>
</a>
</g>
</g>
<!-- Node242&#45;&gt;Node244 -->
<g id="edge2" class="edge">
<title>Node242&#45;&gt;Node244</title>
<path fill="none" stroke="#191970" d="M128.3464,-98.3089C136.7313,-99.5871 145.3746,-100.9047 153.9029,-102.2047"/>
<polygon fill="#191970" stroke="#191970" points="153.4258,-105.6723 163.8391,-103.7194 154.4808,-98.7523 153.4258,-105.6723"/>
</g>
<!-- Node249 -->
<g id="node8" class="node">
<title>Node249</title>
<g id="a_node8"><a xlink:href="../../d8/db0/classGroundPlaneGenerator.html#a9f90c2662ad6155a5ce84b28d69419e1" target="_top" xlink:title=" ">
<polygon fill="#ffffff" stroke="#000000" points="164,-49.5 164,-79.5 292,-79.5 292,-49.5 164,-49.5"/>
<text text-anchor="start" x="172" y="-67.5" font-family="Helvetica,sans-Serif" font-size="10.00" fill="#000000">GroundPlaneGenerator</text>
<text text-anchor="middle" x="228" y="-56.5" font-family="Helvetica,sans-Serif" font-size="10.00" fill="#000000">::scanLines</text>
</a>
</g>
</g>
<!-- Node242&#45;&gt;Node249 -->
<g id="edge8" class="edge">
<title>Node242&#45;&gt;Node249</title>
<path fill="none" stroke="#191970" d="M128.3464,-79.0834C136.7313,-77.8564 145.3746,-76.5915 153.9029,-75.3435"/>
<polygon fill="#191970" stroke="#191970" points="154.4513,-78.8006 163.8391,-73.8894 153.4377,-71.8744 154.4513,-78.8006"/>
</g>
<!-- Node250 -->
<g id="node9" class="node">
<title>Node250</title>
<g id="a_node9"><a xlink:href="../../d8/db0/classGroundPlaneGenerator.html#af50bbdd0b57645a042e76f5cd9c7e3c4" target="_top" xlink:title=" ">
<polygon fill="#ffffff" stroke="#000000" points="164,-.5 164,-30.5 292,-30.5 292,-.5 164,-.5"/>
<text text-anchor="start" x="172" y="-18.5" font-family="Helvetica,sans-Serif" font-size="10.00" fill="#000000">GroundPlaneGenerator</text>
<text text-anchor="middle" x="228" y="-7.5" font-family="Helvetica,sans-Serif" font-size="10.00" fill="#000000">::splitScanLines</text>
</a>
</g>
</g>
<!-- Node242&#45;&gt;Node250 -->
<g id="edge9" class="edge">
<title>Node242&#45;&gt;Node250</title>
<path fill="none" stroke="#191970" d="M93.9224,-73.4115C113.6514,-63.6437 140.1566,-50.8619 164,-40.5 168.7334,-38.443 173.6949,-36.3671 178.6721,-34.3376"/>
<polygon fill="#191970" stroke="#191970" points="180.2316,-37.4831 188.2074,-30.509 177.6233,-30.9872 180.2316,-37.4831"/>
</g>
<!-- Node245 -->
<g id="node4" class="node">
<title>Node245</title>
<g id="a_node4"><a xlink:href="../../d8/db0/classGroundPlaneGenerator.html#a0b3f304cc175907af89d4f229c740023" target="_top" xlink:title=" ">
<polygon fill="#ffffff" stroke="#000000" points="328,-120.5 328,-150.5 456,-150.5 456,-120.5 328,-120.5"/>
<text text-anchor="start" x="336" y="-138.5" font-family="Helvetica,sans-Serif" font-size="10.00" fill="#000000">GroundPlaneGenerator</text>
<text text-anchor="middle" x="392" y="-127.5" font-family="Helvetica,sans-Serif" font-size="10.00" fill="#000000">::makeConnector</text>
</a>
</g>
</g>
<!-- Node244&#45;&gt;Node245 -->
<g id="edge3" class="edge">
<title>Node244&#45;&gt;Node245</title>
<path fill="none" stroke="#191970" d="M292.3464,-122.1318C300.7313,-123.2566 309.3746,-124.4161 317.9029,-125.5601"/>
<polygon fill="#191970" stroke="#191970" points="317.4625,-129.0323 327.8391,-126.8931 318.3933,-122.0945 317.4625,-129.0323"/>
</g>
<!-- Node248 -->
<g id="node7" class="node">
<title>Node248</title>
<g id="a_node7"><a xlink:href="../../d8/db0/classGroundPlaneGenerator.html#ad51bda7500307e219629f6871dc4e77b" target="_top" xlink:title=" ">
<polygon fill="#ffffff" stroke="#000000" points="515,-76.5 515,-106.5 643,-106.5 643,-76.5 515,-76.5"/>
<text text-anchor="start" x="523" y="-94.5" font-family="Helvetica,sans-Serif" font-size="10.00" fill="#000000">GroundPlaneGenerator</text>
<text text-anchor="middle" x="579" y="-83.5" font-family="Helvetica,sans-Serif" font-size="10.00" fill="#000000">::makeOnePoly</text>
</a>
</g>
</g>
<!-- Node244&#45;&gt;Node248 -->
<g id="edge7" class="edge">
<title>Node244&#45;&gt;Node248</title>
<path fill="none" stroke="#191970" d="M292.3788,-109.4649C352.277,-105.7106 441.5123,-100.1175 504.4719,-96.1713"/>
<polygon fill="#191970" stroke="#191970" points="504.9714,-99.6469 514.7329,-95.5281 504.5335,-92.6606 504.9714,-99.6469"/>
</g>
<!-- Node246 -->
<g id="node5" class="node">
<title>Node246</title>
<g id="a_node5"><a xlink:href="../../d8/db0/classGroundPlaneGenerator.html#a589c753a099215ddae12216a372b0df6" target="_top" xlink:title=" ">
<polygon fill="#ffffff" stroke="#000000" points="515,-164.5 515,-194.5 643,-194.5 643,-164.5 515,-164.5"/>
<text text-anchor="start" x="523" y="-182.5" font-family="Helvetica,sans-Serif" font-size="10.00" fill="#000000">GroundPlaneGenerator</text>
<text text-anchor="middle" x="579" y="-171.5" font-family="Helvetica,sans-Serif" font-size="10.00" fill="#000000">::calcArea</text>
</a>
</g>
</g>
<!-- Node245&#45;&gt;Node246 -->
<g id="edge4" class="edge">
<title>Node245&#45;&gt;Node246</title>
<path fill="none" stroke="#191970" d="M455.8318,-150.5192C471.691,-154.2508 488.8207,-158.2814 505.1178,-162.116"/>
<polygon fill="#191970" stroke="#191970" points="504.6028,-165.5903 515.1386,-164.4738 506.2061,-158.7764 504.6028,-165.5903"/>
</g>
<!-- Node247 -->
<g id="node6" class="node">
<title>Node247</title>
<g id="a_node6"><a xlink:href="../../d7/dfe/classGraphicsUtils.html#a720808c811cf100be0758d271ba2afce" target="_top" xlink:title=" ">
<polygon fill="#ffffff" stroke="#000000" points="492,-126 492,-145 666,-145 666,-126 492,-126"/>
<text text-anchor="middle" x="579" y="-133" font-family="Helvetica,sans-Serif" font-size="10.00" fill="#000000">GraphicsUtils::distanceFromLine</text>
</a>
</g>
</g>
<!-- Node245&#45;&gt;Node247 -->
<g id="edge5" class="edge">
<title>Node245&#45;&gt;Node247</title>
<path fill="none" stroke="#191970" d="M456.0932,-135.5C464.3763,-135.5 473.0022,-135.5 481.6721,-135.5"/>
<polygon fill="#191970" stroke="#191970" points="481.8522,-139.0001 491.8521,-135.5 481.8521,-132.0001 481.8522,-139.0001"/>
</g>
<!-- Node245&#45;&gt;Node248 -->
<g id="edge6" class="edge">
<title>Node245&#45;&gt;Node248</title>
<path fill="none" stroke="#191970" d="M455.8318,-120.4808C471.691,-116.7492 488.8207,-112.7186 505.1178,-108.884"/>
<polygon fill="#191970" stroke="#191970" points="506.2061,-112.2236 515.1386,-106.5262 504.6028,-105.4097 506.2061,-112.2236"/>
</g>
<!-- Node251 -->
<g id="node10" class="node">
<title>Node251</title>
<g id="a_node10"><a xlink:href="../../da/d3a/classDebugDialog.html#ad26216d18945d7d7188420707b76f241" target="_top" xlink:title=" ">
<polygon fill="#ffffff" stroke="#000000" points="334,-6 334,-25 450,-25 450,-6 334,-6"/>
<text text-anchor="middle" x="392" y="-13" font-family="Helvetica,sans-Serif" font-size="10.00" fill="#000000">DebugDialog::debug</text>
</a>
</g>
</g>
<!-- Node250&#45;&gt;Node251 -->
<g id="edge10" class="edge">
<title>Node250&#45;&gt;Node251</title>
<path fill="none" stroke="#191970" d="M292.3464,-15.5C302.6438,-15.5 313.3311,-15.5 323.7163,-15.5"/>
<polygon fill="#191970" stroke="#191970" points="323.9751,-19.0001 333.9751,-15.5 323.9751,-12.0001 323.9751,-19.0001"/>
</g>
</g>
</svg>
