<?xml version="1.0" encoding="UTF-8" standalone="no"?>
<!DOCTYPE svg PUBLIC "-//W3C//DTD SVG 1.1//EN"
 "http://www.w3.org/Graphics/SVG/1.1/DTD/svg11.dtd">
<!-- Generated by graphviz version 2.40.1 (0)
 -->
<!-- Title: zlib_filefunc_def_s Pages: 1 -->
<svg width="802pt" height="171pt"
 viewBox="0.00 0.00 801.50 171.00" xmlns="http://www.w3.org/2000/svg" xmlns:xlink="http://www.w3.org/1999/xlink">
<g id="graph0" class="graph" transform="scale(1 1) rotate(0) translate(4 167)">
<title>zlib_filefunc_def_s</title>
<polygon fill="#ffffff" stroke="transparent" points="-4,4 -4,-167 797.5,-167 797.5,4 -4,4"/>
<!-- Node1 -->
<g id="node1" class="node">
<title>Node1</title>
<g id="a_node1"><a xlink:title=" ">
<polygon fill="#bfbfbf" stroke="#000000" points="370,-.5 370,-57.5 477,-57.5 477,-.5 370,-.5"/>
<text text-anchor="middle" x="423.5" y="-45.5" font-family="Helvetica,sans-Serif" font-size="10.00" fill="#000000">zlib_filefunc_def_s</text>
<polyline fill="none" stroke="#000000" points="370,-38.5 477,-38.5 "/>
<text text-anchor="middle" x="423.5" y="-26.5" font-family="Helvetica,sans-Serif" font-size="10.00" fill="#000000"> </text>
<polyline fill="none" stroke="#000000" points="370,-19.5 477,-19.5 "/>
<text text-anchor="middle" x="423.5" y="-7.5" font-family="Helvetica,sans-Serif" font-size="10.00" fill="#000000"> </text>
</a>
</g>
</g>
<!-- Node2 -->
<g id="node2" class="node">
<title>Node2</title>
<g id="a_node2"><a xlink:title=" ">
<polygon fill="#ffffff" stroke="#bfbfbf" points="0,-105.5 0,-162.5 105,-162.5 105,-105.5 0,-105.5"/>
<text text-anchor="middle" x="52.5" y="-150.5" font-family="Helvetica,sans-Serif" font-size="10.00" fill="#000000">testerror_file_func</text>
<polyline fill="none" stroke="#bfbfbf" points="0,-143.5 105,-143.5 "/>
<text text-anchor="middle" x="52.5" y="-131.5" font-family="Helvetica,sans-Serif" font-size="10.00" fill="#000000"> </text>
<polyline fill="none" stroke="#bfbfbf" points="0,-124.5 105,-124.5 "/>
<text text-anchor="middle" x="52.5" y="-112.5" font-family="Helvetica,sans-Serif" font-size="10.00" fill="#000000"> </text>
</a>
</g>
</g>
<!-- Node2&#45;&gt;Node1 -->
<g id="edge1" class="edge">
<title>Node2&#45;&gt;Node1</title>
<path fill="none" stroke="#404040" d="M99.44,-105.443C118.7043,-94.8064 141.5944,-83.5074 163.5,-76 227.6094,-54.0287 304.318,-41.7635 357.731,-35.319"/>
<polygon fill="none" stroke="#404040" points="357.8522,-35.305 363.3494,-30.6379 369.7717,-33.9172 364.2746,-38.5842 357.8522,-35.305"/>
<text text-anchor="middle" x="194" y="-79" font-family="Helvetica,sans-Serif" font-size="10.00" fill="#000000"> +zerror_file</text>
</g>
<!-- Node3 -->
<g id="node3" class="node">
<title>Node3</title>
<g id="a_node3"><a xlink:title=" ">
<polygon fill="#ffffff" stroke="#bfbfbf" points="123,-105.5 123,-162.5 202,-162.5 202,-105.5 123,-105.5"/>
<text text-anchor="middle" x="162.5" y="-150.5" font-family="Helvetica,sans-Serif" font-size="10.00" fill="#000000">tell_file_func</text>
<polyline fill="none" stroke="#bfbfbf" points="123,-143.5 202,-143.5 "/>
<text text-anchor="middle" x="162.5" y="-131.5" font-family="Helvetica,sans-Serif" font-size="10.00" fill="#000000"> </text>
<polyline fill="none" stroke="#bfbfbf" points="123,-124.5 202,-124.5 "/>
<text text-anchor="middle" x="162.5" y="-112.5" font-family="Helvetica,sans-Serif" font-size="10.00" fill="#000000"> </text>
</a>
</g>
</g>
<!-- Node3&#45;&gt;Node1 -->
<g id="edge2" class="edge">
<title>Node3&#45;&gt;Node1</title>
<path fill="none" stroke="#404040" d="M199.4813,-105.4871C214.3874,-95.0471 232.1422,-83.8749 249.5,-76 283.8883,-60.3987 324.5217,-49.062 357.8704,-41.4361"/>
<polygon fill="none" stroke="#404040" points="358.0861,-41.3884 363.0791,-36.1856 369.8021,-38.7935 364.8091,-43.9963 358.0861,-41.3884"/>
<text text-anchor="middle" x="276" y="-79" font-family="Helvetica,sans-Serif" font-size="10.00" fill="#000000"> +ztell_file</text>
</g>
<!-- Node4 -->
<g id="node4" class="node">
<title>Node4</title>
<g id="a_node4"><a xlink:title=" ">
<polygon fill="#ffffff" stroke="#bfbfbf" points="220,-105.5 220,-162.5 309,-162.5 309,-105.5 220,-105.5"/>
<text text-anchor="middle" x="264.5" y="-150.5" font-family="Helvetica,sans-Serif" font-size="10.00" fill="#000000">close_file_func</text>
<polyline fill="none" stroke="#bfbfbf" points="220,-143.5 309,-143.5 "/>
<text text-anchor="middle" x="264.5" y="-131.5" font-family="Helvetica,sans-Serif" font-size="10.00" fill="#000000"> </text>
<polyline fill="none" stroke="#bfbfbf" points="220,-124.5 309,-124.5 "/>
<text text-anchor="middle" x="264.5" y="-112.5" font-family="Helvetica,sans-Serif" font-size="10.00" fill="#000000"> </text>
</a>
</g>
</g>
<!-- Node4&#45;&gt;Node1 -->
<g id="edge3" class="edge">
<title>Node4&#45;&gt;Node1</title>
<path fill="none" stroke="#404040" d="M288.259,-105.2347C297.5853,-95.1252 308.8432,-84.2432 320.5,-76 332.2228,-67.7101 345.6418,-60.3244 358.8345,-54.0018"/>
<polygon fill="none" stroke="#404040" points="358.9205,-53.9623 362.6981,-47.8198 369.821,-48.9444 366.0433,-55.0869 358.9205,-53.9623"/>
<text text-anchor="middle" x="352" y="-79" font-family="Helvetica,sans-Serif" font-size="10.00" fill="#000000"> +zclose_file</text>
</g>
<!-- Node5 -->
<g id="node5" class="node">
<title>Node5</title>
<g id="a_node5"><a xlink:title=" ">
<polygon fill="#ffffff" stroke="#bfbfbf" points="327.5,-105.5 327.5,-162.5 415.5,-162.5 415.5,-105.5 327.5,-105.5"/>
<text text-anchor="middle" x="371.5" y="-150.5" font-family="Helvetica,sans-Serif" font-size="10.00" fill="#000000">write_file_func</text>
<polyline fill="none" stroke="#bfbfbf" points="327.5,-143.5 415.5,-143.5 "/>
<text text-anchor="middle" x="371.5" y="-131.5" font-family="Helvetica,sans-Serif" font-size="10.00" fill="#000000"> </text>
<polyline fill="none" stroke="#bfbfbf" points="327.5,-124.5 415.5,-124.5 "/>
<text text-anchor="middle" x="371.5" y="-112.5" font-family="Helvetica,sans-Serif" font-size="10.00" fill="#000000"> </text>
</a>
</g>
</g>
<!-- Node5&#45;&gt;Node1 -->
<g id="edge4" class="edge">
<title>Node5&#45;&gt;Node1</title>
<path fill="none" stroke="#404040" d="M380.3466,-105.4147C383.6961,-95.8593 387.8397,-85.2838 392.5,-76 393.795,-73.4202 395.2038,-70.8101 396.6828,-68.2111"/>
<polygon fill="none" stroke="#404040" points="396.834,-67.9613 396.5185,-60.7571 403.0473,-57.6951 403.3627,-64.8993 396.834,-67.9613"/>
<text text-anchor="middle" x="423.5" y="-79" font-family="Helvetica,sans-Serif" font-size="10.00" fill="#000000"> +zwrite_file</text>
</g>
<!-- Node6 -->
<g id="node6" class="node">
<title>Node6</title>
<g id="a_node6"><a xlink:title=" ">
<polygon fill="#ffffff" stroke="#bfbfbf" points="434,-105.5 434,-162.5 519,-162.5 519,-105.5 434,-105.5"/>
<text text-anchor="middle" x="476.5" y="-150.5" font-family="Helvetica,sans-Serif" font-size="10.00" fill="#000000">read_file_func</text>
<polyline fill="none" stroke="#bfbfbf" points="434,-143.5 519,-143.5 "/>
<text text-anchor="middle" x="476.5" y="-131.5" font-family="Helvetica,sans-Serif" font-size="10.00" fill="#000000"> </text>
<polyline fill="none" stroke="#bfbfbf" points="434,-124.5 519,-124.5 "/>
<text text-anchor="middle" x="476.5" y="-112.5" font-family="Helvetica,sans-Serif" font-size="10.00" fill="#000000"> </text>
</a>
</g>
</g>
<!-- Node6&#45;&gt;Node1 -->
<g id="edge5" class="edge">
<title>Node6&#45;&gt;Node1</title>
<path fill="none" stroke="#404040" d="M467.0874,-105.4339C463.5679,-95.8798 459.2572,-85.3003 454.5,-76 453.1855,-73.4301 451.7617,-70.8276 450.2714,-68.2344"/>
<polygon fill="none" stroke="#404040" points="450.1184,-67.9829 443.582,-64.9372 443.8795,-57.7322 450.4158,-60.7779 450.1184,-67.9829"/>
<text text-anchor="middle" x="489" y="-79" font-family="Helvetica,sans-Serif" font-size="10.00" fill="#000000"> +zread_file</text>
</g>
<!-- Node7 -->
<g id="node7" class="node">
<title>Node7</title>
<g id="a_node7"><a xlink:title=" ">
<polygon fill="#ffffff" stroke="#bfbfbf" points="537,-105.5 537,-162.5 584,-162.5 584,-105.5 537,-105.5"/>
<text text-anchor="middle" x="560.5" y="-150.5" font-family="Helvetica,sans-Serif" font-size="10.00" fill="#000000">voidpf</text>
<polyline fill="none" stroke="#bfbfbf" points="537,-143.5 584,-143.5 "/>
<text text-anchor="middle" x="560.5" y="-131.5" font-family="Helvetica,sans-Serif" font-size="10.00" fill="#000000"> </text>
<polyline fill="none" stroke="#bfbfbf" points="537,-124.5 584,-124.5 "/>
<text text-anchor="middle" x="560.5" y="-112.5" font-family="Helvetica,sans-Serif" font-size="10.00" fill="#000000"> </text>
</a>
</g>
</g>
<!-- Node7&#45;&gt;Node1 -->
<g id="edge6" class="edge">
<title>Node7&#45;&gt;Node1</title>
<path fill="none" stroke="#404040" d="M546.0196,-105.3432C539.8231,-95.1286 531.8462,-84.1481 522.5,-76 512.3984,-67.1934 500.3608,-59.6748 488.2172,-53.4022"/>
<polygon fill="none" stroke="#404040" points="487.8797,-53.2381 480.7346,-54.2117 477.0878,-47.9907 484.2329,-47.0171 487.8797,-53.2381"/>
<text text-anchor="middle" x="556.5" y="-79" font-family="Helvetica,sans-Serif" font-size="10.00" fill="#000000"> +opaque</text>
</g>
<!-- Node8 -->
<g id="node8" class="node">
<title>Node8</title>
<g id="a_node8"><a xlink:title=" ">
<polygon fill="#ffffff" stroke="#bfbfbf" points="602,-105.5 602,-162.5 689,-162.5 689,-105.5 602,-105.5"/>
<text text-anchor="middle" x="645.5" y="-150.5" font-family="Helvetica,sans-Serif" font-size="10.00" fill="#000000">open_file_func</text>
<polyline fill="none" stroke="#bfbfbf" points="602,-143.5 689,-143.5 "/>
<text text-anchor="middle" x="645.5" y="-131.5" font-family="Helvetica,sans-Serif" font-size="10.00" fill="#000000"> </text>
<polyline fill="none" stroke="#bfbfbf" points="602,-124.5 689,-124.5 "/>
<text text-anchor="middle" x="645.5" y="-112.5" font-family="Helvetica,sans-Serif" font-size="10.00" fill="#000000"> </text>
</a>
</g>
</g>
<!-- Node8&#45;&gt;Node1 -->
<g id="edge7" class="edge">
<title>Node8&#45;&gt;Node1</title>
<path fill="none" stroke="#404040" d="M620.7492,-105.2547C610.4513,-94.7845 597.7996,-83.6522 584.5,-76 555.2006,-59.142 519.3662,-47.9083 488.9489,-40.6646"/>
<polygon fill="none" stroke="#404040" points="488.8526,-40.6428 482.1161,-43.2157 477.1502,-37.987 483.8866,-35.4141 488.8526,-40.6428"/>
<text text-anchor="middle" x="630" y="-79" font-family="Helvetica,sans-Serif" font-size="10.00" fill="#000000"> +zopen_file</text>
</g>
<!-- Node9 -->
<g id="node9" class="node">
<title>Node9</title>
<g id="a_node9"><a xlink:title=" ">
<polygon fill="#ffffff" stroke="#bfbfbf" points="707.5,-105.5 707.5,-162.5 793.5,-162.5 793.5,-105.5 707.5,-105.5"/>
<text text-anchor="middle" x="750.5" y="-150.5" font-family="Helvetica,sans-Serif" font-size="10.00" fill="#000000">seek_file_func</text>
<polyline fill="none" stroke="#bfbfbf" points="707.5,-143.5 793.5,-143.5 "/>
<text text-anchor="middle" x="750.5" y="-131.5" font-family="Helvetica,sans-Serif" font-size="10.00" fill="#000000"> </text>
<polyline fill="none" stroke="#bfbfbf" points="707.5,-124.5 793.5,-124.5 "/>
<text text-anchor="middle" x="750.5" y="-112.5" font-family="Helvetica,sans-Serif" font-size="10.00" fill="#000000"> </text>
</a>
</g>
</g>
<!-- Node9&#45;&gt;Node1 -->
<g id="edge8" class="edge">
<title>Node9&#45;&gt;Node1</title>
<path fill="none" stroke="#404040" d="M715.1033,-105.4265C700.2449,-94.7221 682.3005,-83.379 664.5,-76 608.0495,-52.5991 539.2511,-40.6682 489.6345,-34.6993"/>
<polygon fill="none" stroke="#404040" points="489.3749,-34.6697 482.9595,-37.9624 477.4526,-33.3069 483.868,-30.0142 489.3749,-34.6697"/>
<text text-anchor="middle" x="715" y="-79" font-family="Helvetica,sans-Serif" font-size="10.00" fill="#000000"> +zseek_file</text>
</g>
</g>
</svg>
