<?xml version="1.0" encoding="UTF-8" standalone="no"?>
<!DOCTYPE svg PUBLIC "-//W3C//DTD SVG 1.1//EN"
 "http://www.w3.org/Graphics/SVG/1.1/DTD/svg11.dtd">
<!-- Generated by graphviz version 2.40.1 (0)
 -->
<!-- Title: SelectItemCommand::mergeWith Pages: 1 -->
<svg width="338pt" height="66pt"
 viewBox="0.00 0.00 338.00 66.00" xmlns="http://www.w3.org/2000/svg" xmlns:xlink="http://www.w3.org/1999/xlink">
<g id="graph0" class="graph" transform="scale(1 1) rotate(0) translate(4 62)">
<title>SelectItemCommand::mergeWith</title>
<polygon fill="#ffffff" stroke="transparent" points="-4,4 -4,-62 334,-62 334,4 -4,4"/>
<!-- Node212 -->
<g id="node1" class="node">
<title>Node212</title>
<g id="a_node1"><a xlink:title=" ">
<polygon fill="#bfbfbf" stroke="#000000" points="0,-14 0,-44 125,-44 125,-14 0,-14"/>
<text text-anchor="start" x="8" y="-32" font-family="Helvetica,sans-Serif" font-size="10.00" fill="#000000">SelectItemCommand::</text>
<text text-anchor="middle" x="62.5" y="-21" font-family="Helvetica,sans-Serif" font-size="10.00" fill="#000000">mergeWith</text>
</a>
</g>
</g>
<!-- Node213 -->
<g id="node2" class="node">
<title>Node213</title>
<g id="a_node2"><a xlink:href="../../d8/d6e/classBaseCommand.html#ad74cee7a958c0da1968c2227625d2557" target="_top" xlink:title=" ">
<polygon fill="#ffffff" stroke="#000000" points="161,-38.5 161,-57.5 330,-57.5 330,-38.5 161,-38.5"/>
<text text-anchor="middle" x="245.5" y="-45.5" font-family="Helvetica,sans-Serif" font-size="10.00" fill="#000000">BaseCommand::crossViewType</text>
</a>
</g>
</g>
<!-- Node212&#45;&gt;Node213 -->
<g id="edge1" class="edge">
<title>Node212&#45;&gt;Node213</title>
<path fill="none" stroke="#191970" d="M125.2222,-35.5121C133.4769,-36.3692 142.0795,-37.2623 150.7211,-38.1596"/>
<polygon fill="#191970" stroke="#191970" points="150.557,-41.6613 160.865,-39.2128 151.28,-34.6987 150.557,-41.6613"/>
</g>
<!-- Node214 -->
<g id="node3" class="node">
<title>Node214</title>
<g id="a_node3"><a xlink:href="../../d2/d38/classSelectItemCommand.html#a2607d21dc6d2c1456977a73de131fb6a" target="_top" xlink:title=" ">
<polygon fill="#ffffff" stroke="#000000" points="178.5,-.5 178.5,-19.5 312.5,-19.5 312.5,-.5 178.5,-.5"/>
<text text-anchor="middle" x="245.5" y="-7.5" font-family="Helvetica,sans-Serif" font-size="10.00" fill="#000000">SelectItemCommand::id</text>
</a>
</g>
</g>
<!-- Node212&#45;&gt;Node214 -->
<g id="edge2" class="edge">
<title>Node212&#45;&gt;Node214</title>
<path fill="none" stroke="#191970" d="M125.2222,-22.4879C139.043,-21.0529 153.8392,-19.5167 168.1609,-18.0297"/>
<polygon fill="#191970" stroke="#191970" points="168.8998,-21.4719 178.4848,-16.9579 168.1768,-14.5094 168.8998,-21.4719"/>
</g>
</g>
</svg>
