<?xml version="1.0" encoding="UTF-8" standalone="no"?>
<!DOCTYPE svg PUBLIC "-//W3C//DTD SVG 1.1//EN"
 "http://www.w3.org/Graphics/SVG/1.1/DTD/svg11.dtd">
<!-- Generated by graphviz version 2.40.1 (0)
 -->
<!-- Title: GraphUtils::collectBreadboard Pages: 1 -->
<!--zoomable 192 -->
<svg id="main" version="1.1" xmlns="http://www.w3.org/2000/svg" xmlns:xlink="http://www.w3.org/1999/xlink" xml:space="preserve" onload="init(evt)">
<style type="text/css"><![CDATA[
.edge:hover path { stroke: red; }
.edge:hover polygon { stroke: red; fill: red; }
]]></style>
<script type="text/javascript"><![CDATA[
var edges = document.getElementsByTagName('g');
if (edges && edges.length) {
  for (var i=0;i<edges.length;i++) {
    if (edges[i].id.substr(0,4)=='edge') {
      edges[i].setAttribute('class','edge');
    }
  }
}
]]></script>
        <defs>
                <circle id="rim" cx="0" cy="0" r="7"/>
                <circle id="rim2" cx="0" cy="0" r="3.5"/>
                <g id="zoomPlus">
                        <use xlink:href="#rim" fill="#404040">
                                <set attributeName="fill" to="#808080" begin="zoomplus.mouseover" end="zoomplus.mouseout"/>
                        </use>
                        <path d="M-4,0h8M0,-4v8" fill="none" stroke="white" stroke-width="1.5" pointer-events="none"/>
                </g>
                <g id="zoomMin">
                        <use xlink:href="#rim" fill="#404040">
                                <set attributeName="fill" to="#808080" begin="zoomminus.mouseover" end="zoomminus.mouseout"/>
                        </use>
                        <path d="M-4,0h8" fill="none" stroke="white" stroke-width="1.5" pointer-events="none"/>
                </g>
                <g id="dirArrow">
                        <path fill="none" stroke="white" stroke-width="1.5" d="M0,-3.0v7 M-2.5,-0.5L0,-3.0L2.5,-0.5"/>
                </g>
               <g id="resetDef">
                       <use xlink:href="#rim2" fill="#404040">
                               <set attributeName="fill" to="#808080" begin="reset.mouseover" end="reset.mouseout"/>
                       </use>
               </g>
        </defs>

<script type="text/javascript">
var viewWidth = 574;
var viewHeight = 192;
var sectionId = 'dynsection-3';
</script>
<script xlink:href="../../svgpan.js"/>
<svg id="graph" class="graph">
<g id="viewport">
<title>GraphUtils::collectBreadboard</title>
<polygon fill="#ffffff" stroke="transparent" points="-4,4 -4,-187.5 570,-187.5 570,4 -4,4"/>
<!-- Node38 -->
<g id="node1" class="node">
<title>Node38</title>
<g id="a_node1"><a xlink:title=" ">
<polygon fill="#bfbfbf" stroke="#000000" points="0,-107 0,-126 163,-126 163,-107 0,-107"/>
<text text-anchor="middle" x="81.5" y="-114" font-family="Helvetica,sans-Serif" font-size="10.00" fill="#000000">GraphUtils::collectBreadboard</text>
</a>
</g>
</g>
<!-- Node39 -->
<g id="node2" class="node">
<title>Node39</title>
<g id="a_node2"><a xlink:href="../../dc/d09/classNonConnectorItem.html#a1452f3637c83b50fbd089f9c4b4518b6" target="_top" xlink:title=" ">
<polygon fill="#ffffff" stroke="#000000" points="399,-164 399,-183 566,-183 566,-164 399,-164"/>
<text text-anchor="middle" x="482.5" y="-171" font-family="Helvetica,sans-Serif" font-size="10.00" fill="#000000">NonConnectorItem::attachedTo</text>
</a>
</g>
</g>
<!-- Node38&#45;&gt;Node39 -->
<g id="edge1" class="edge">
<title>Node38&#45;&gt;Node39</title>
<path fill="none" stroke="#191970" d="M105.349,-126.1322C128.7727,-135.1307 165.7341,-148.1074 199,-154.5 261.478,-166.5063 332.9594,-171.2375 388.5147,-172.9767"/>
<polygon fill="#191970" stroke="#191970" points="388.6011,-176.4805 398.697,-173.2677 388.8011,-169.4833 388.6011,-176.4805"/>
</g>
<!-- Node40 -->
<g id="node3" class="node">
<title>Node40</title>
<g id="a_node3"><a xlink:href="../../dc/d3a/classConnectorItem.html#a24e45c00dc37853b9572d41695c55716" target="_top" xlink:title=" ">
<polygon fill="#ffffff" stroke="#000000" points="225,-126 225,-145 337,-145 337,-126 225,-126"/>
<text text-anchor="middle" x="281" y="-133" font-family="Helvetica,sans-Serif" font-size="10.00" fill="#000000">ConnectorItem::bus</text>
</a>
</g>
</g>
<!-- Node38&#45;&gt;Node40 -->
<g id="edge2" class="edge">
<title>Node38&#45;&gt;Node40</title>
<path fill="none" stroke="#191970" d="M163.2199,-124.2828C180.4185,-125.9208 198.3568,-127.6292 214.897,-129.2045"/>
<polygon fill="#191970" stroke="#191970" points="214.709,-132.7023 224.9958,-130.1663 215.3727,-125.7339 214.709,-132.7023"/>
</g>
<!-- Node41 -->
<g id="node4" class="node">
<title>Node41</title>
<g id="a_node4"><a xlink:href="../../d4/d4f/classItemBase.html#a7cece89edad097a1a5b7c628adcb588e" target="_top" xlink:title=" ">
<polygon fill="#ffffff" stroke="#000000" points="199,-88 199,-107 363,-107 363,-88 199,-88"/>
<text text-anchor="middle" x="281" y="-95" font-family="Helvetica,sans-Serif" font-size="10.00" fill="#000000">ItemBase::busConnectorItems</text>
</a>
</g>
</g>
<!-- Node38&#45;&gt;Node41 -->
<g id="edge3" class="edge">
<title>Node38&#45;&gt;Node41</title>
<path fill="none" stroke="#191970" d="M163.2199,-108.7172C171.6502,-107.9143 180.2583,-107.0945 188.7923,-106.2817"/>
<polygon fill="#191970" stroke="#191970" points="189.1382,-109.7647 198.7613,-105.3323 188.4745,-102.7962 189.1382,-109.7647"/>
</g>
<!-- Node46 -->
<g id="node9" class="node">
<title>Node46</title>
<g id="a_node9"><a xlink:href="../../dc/d3a/classConnectorItem.html#af2e14ebbdaa87a6c6dd301825fc83fc0" target="_top" xlink:title=" ">
<polygon fill="#ffffff" stroke="#000000" points="208.5,-38.5 208.5,-68.5 353.5,-68.5 353.5,-38.5 208.5,-38.5"/>
<text text-anchor="start" x="216.5" y="-56.5" font-family="Helvetica,sans-Serif" font-size="10.00" fill="#000000">ConnectorItem::connected</text>
<text text-anchor="middle" x="281" y="-45.5" font-family="Helvetica,sans-Serif" font-size="10.00" fill="#000000">ToItems</text>
</a>
</g>
</g>
<!-- Node38&#45;&gt;Node46 -->
<g id="edge9" class="edge">
<title>Node38&#45;&gt;Node46</title>
<path fill="none" stroke="#191970" d="M110.4291,-106.9941C134.186,-99.2239 168.7278,-88.009 199,-78.5 206.2071,-76.2361 213.7799,-73.8872 221.2899,-71.5759"/>
<polygon fill="#191970" stroke="#191970" points="222.5567,-74.8483 231.0906,-68.5695 220.5038,-68.1561 222.5567,-74.8483"/>
</g>
<!-- Node41&#45;&gt;Node39 -->
<g id="edge6" class="edge">
<title>Node41&#45;&gt;Node39</title>
<path fill="none" stroke="#191970" d="M341.2326,-107.1339C348.8261,-109.5818 356.2789,-112.6513 363,-116.5 383.1887,-128.0607 378.7885,-142.9792 399,-154.5 402.9576,-156.7559 407.164,-158.7439 411.503,-160.4959"/>
<polygon fill="#191970" stroke="#191970" points="410.5739,-163.8811 421.1684,-163.9667 412.9397,-157.293 410.5739,-163.8811"/>
</g>
<!-- Node42 -->
<g id="node5" class="node">
<title>Node42</title>
<g id="a_node5"><a xlink:href="../../d2/dfc/classBus.html#a8dbaa9d1a859ba79d698d7f6cbf666c1" target="_top" xlink:title=" ">
<polygon fill="#ffffff" stroke="#000000" points="435.5,-126 435.5,-145 529.5,-145 529.5,-126 435.5,-126"/>
<text text-anchor="middle" x="482.5" y="-133" font-family="Helvetica,sans-Serif" font-size="10.00" fill="#000000">Bus::connectors</text>
</a>
</g>
</g>
<!-- Node41&#45;&gt;Node42 -->
<g id="edge4" class="edge">
<title>Node41&#45;&gt;Node42</title>
<path fill="none" stroke="#191970" d="M331.5869,-107.04C360.0562,-112.4089 395.7,-119.1308 425.1976,-124.6936"/>
<polygon fill="#191970" stroke="#191970" points="424.8777,-128.1949 435.3531,-126.6088 426.175,-121.3161 424.8777,-128.1949"/>
</g>
<!-- Node43 -->
<g id="node6" class="node">
<title>Node43</title>
<g id="a_node6"><a xlink:href="../../d9/d65/classConnector.html#ab5a1d2ebc1327913c561c2e1ab4e3758" target="_top" xlink:title=" ">
<polygon fill="#ffffff" stroke="#000000" points="421,-88 421,-107 544,-107 544,-88 421,-88"/>
<text text-anchor="middle" x="482.5" y="-95" font-family="Helvetica,sans-Serif" font-size="10.00" fill="#000000">Connector::viewItems</text>
</a>
</g>
</g>
<!-- Node41&#45;&gt;Node43 -->
<g id="edge5" class="edge">
<title>Node41&#45;&gt;Node43</title>
<path fill="none" stroke="#191970" d="M363.2484,-97.5C378.8984,-97.5 395.1651,-97.5 410.4675,-97.5"/>
<polygon fill="#191970" stroke="#191970" points="410.8879,-101.0001 420.8879,-97.5 410.8879,-94.0001 410.8879,-101.0001"/>
</g>
<!-- Node44 -->
<g id="node7" class="node">
<title>Node44</title>
<g id="a_node7"><a xlink:href="../../d2/dfc/classBus.html#adbe5168ebfc614fdf662918946d13fef" target="_top" xlink:title=" ">
<polygon fill="#ffffff" stroke="#000000" points="429,-50 429,-69 536,-69 536,-50 429,-50"/>
<text text-anchor="middle" x="482.5" y="-57" font-family="Helvetica,sans-Serif" font-size="10.00" fill="#000000">Bus::subConnector</text>
</a>
</g>
</g>
<!-- Node41&#45;&gt;Node44 -->
<g id="edge7" class="edge">
<title>Node41&#45;&gt;Node44</title>
<path fill="none" stroke="#191970" d="M331.5869,-87.96C359.0133,-82.7878 393.0983,-76.3599 421.932,-70.9222"/>
<polygon fill="#191970" stroke="#191970" points="422.7142,-74.3365 431.8923,-69.0439 421.4169,-67.4578 422.7142,-74.3365"/>
</g>
<!-- Node45 -->
<g id="node8" class="node">
<title>Node45</title>
<g id="a_node8"><a xlink:href="../../dc/d3a/classConnectorItem.html#abdede51810abd3e7858b1020155f6b8e" target="_top" xlink:title=" ">
<polygon fill="#ffffff" stroke="#000000" points="408.5,-.5 408.5,-30.5 556.5,-30.5 556.5,-.5 408.5,-.5"/>
<text text-anchor="start" x="416.5" y="-18.5" font-family="Helvetica,sans-Serif" font-size="10.00" fill="#000000">ConnectorItem::attachedTo</text>
<text text-anchor="middle" x="482.5" y="-7.5" font-family="Helvetica,sans-Serif" font-size="10.00" fill="#000000">ViewID</text>
</a>
</g>
</g>
<!-- Node41&#45;&gt;Node45 -->
<g id="edge8" class="edge">
<title>Node41&#45;&gt;Node45</title>
<path fill="none" stroke="#191970" d="M341.2326,-87.8661C348.8261,-85.4182 356.2789,-82.3487 363,-78.5 383.1887,-66.9393 379.1867,-52.693 399,-40.5 402.383,-38.4181 405.9501,-36.5004 409.6281,-34.7349"/>
<polygon fill="#191970" stroke="#191970" points="411.1983,-37.8683 418.957,-30.6535 408.3925,-31.4552 411.1983,-37.8683"/>
</g>
</g>
</svg>
        <g id="navigator" transform="translate(0 0)" fill="#404254">
                <rect fill="#f2f5e9" fill-opacity="0.5" stroke="#606060" stroke-width=".5" x="0" y="0" width="60" height="60"/>
                <use id="zoomplus" xlink:href="#zoomPlus" x="17" y="9" onmousedown="handleZoom(evt,'in')"/>
                <use id="zoomminus" xlink:href="#zoomMin" x="42" y="9" onmousedown="handleZoom(evt,'out')"/>
                <use id="reset" xlink:href="#resetDef" x="30" y="36" onmousedown="handleReset()"/>
                <g id="arrowUp" xlink:href="#dirArrow" transform="translate(30 24)" onmousedown="handlePan(0,-1)">
                  <use xlink:href="#rim" fill="#404040">
                        <set attributeName="fill" to="#808080" begin="arrowUp.mouseover" end="arrowUp.mouseout"/>
                  </use>
                  <path fill="none" stroke="white" stroke-width="1.5" d="M0,-3.0v7 M-2.5,-0.5L0,-3.0L2.5,-0.5"/>
                </g>
                <g id="arrowRight" xlink:href="#dirArrow" transform="rotate(90) translate(36 -43)" onmousedown="handlePan(1,0)">
                  <use xlink:href="#rim" fill="#404040">
                        <set attributeName="fill" to="#808080" begin="arrowRight.mouseover" end="arrowRight.mouseout"/>
                  </use>
                  <path fill="none" stroke="white" stroke-width="1.5" d="M0,-3.0v7 M-2.5,-0.5L0,-3.0L2.5,-0.5"/>
                </g>
                <g id="arrowDown" xlink:href="#dirArrow" transform="rotate(180) translate(-30 -48)" onmousedown="handlePan(0,1)">
                  <use xlink:href="#rim" fill="#404040">
                        <set attributeName="fill" to="#808080" begin="arrowDown.mouseover" end="arrowDown.mouseout"/>
                  </use>
                  <path fill="none" stroke="white" stroke-width="1.5" d="M0,-3.0v7 M-2.5,-0.5L0,-3.0L2.5,-0.5"/>
                </g>
                <g id="arrowLeft" xlink:href="#dirArrow" transform="rotate(270) translate(-36 17)" onmousedown="handlePan(-1,0)">
                  <use xlink:href="#rim" fill="#404040">
                        <set attributeName="fill" to="#808080" begin="arrowLeft.mouseover" end="arrowLeft.mouseout"/>
                  </use>
                  <path fill="none" stroke="white" stroke-width="1.5" d="M0,-3.0v7 M-2.5,-0.5L0,-3.0L2.5,-0.5"/>
                </g>
        </g>
        <svg viewBox="0 0 15 15" width="100%" height="30px" preserveAspectRatio="xMaxYMin meet">
         <g id="arrow_out" transform="scale(0.3 0.3)">
          <a xlink:href="classGraphUtils_a5e2e8bc8f01d4404cc1d3da060a92353_cgraph_org.svg" target="_base">
           <rect id="button" ry="5" rx="5" y="6" x="6" height="38" width="38"
                fill="#f2f5e9" fill-opacity="0.5" stroke="#606060" stroke-width="1.0"/>
           <path id="arrow"
             d="M 11.500037,31.436501 C 11.940474,20.09759 22.043105,11.32322 32.158766,21.979434 L 37.068811,17.246167 C 37.068811,17.246167 37.088388,32 37.088388,32 L 22.160133,31.978069 C 22.160133,31.978069 26.997745,27.140456 26.997745,27.140456 C 18.528582,18.264221 13.291696,25.230495 11.500037,31.436501 z"
             style="fill:#404040;"/>
          </a>
         </g>
        </svg>
</svg>
