<?xml version="1.0" encoding="UTF-8" standalone="no"?>
<!DOCTYPE svg PUBLIC "-//W3C//DTD SVG 1.1//EN"
 "http://www.w3.org/Graphics/SVG/1.1/DTD/svg11.dtd">
<!-- Generated by graphviz version 2.40.1 (0)
 -->
<!-- Title: FolderUtils::setApplicationPath Pages: 1 -->
<svg width="355pt" height="78pt"
 viewBox="0.00 0.00 355.00 77.50" xmlns="http://www.w3.org/2000/svg" xmlns:xlink="http://www.w3.org/1999/xlink">
<g id="graph0" class="graph" transform="scale(1 1) rotate(0) translate(4 73.5)">
<title>FolderUtils::setApplicationPath</title>
<polygon fill="#ffffff" stroke="transparent" points="-4,4 -4,-73.5 351,-73.5 351,4 -4,4"/>
<!-- Node3153 -->
<g id="node1" class="node">
<title>Node3153</title>
<g id="a_node1"><a xlink:title=" ">
<polygon fill="#bfbfbf" stroke="#000000" points="0,-28 0,-47 166,-47 166,-28 0,-28"/>
<text text-anchor="middle" x="83" y="-35" font-family="Helvetica,sans-Serif" font-size="10.00" fill="#000000">FolderUtils::setApplicationPath</text>
</a>
</g>
</g>
<!-- Node3154 -->
<g id="node2" class="node">
<title>Node3154</title>
<g id="a_node2"><a xlink:href="../../dd/d63/classFolderUtils.html#a1cfc928bc5e4767ee32d0e12fe3e14a8" target="_top" xlink:title=" ">
<polygon fill="#ffffff" stroke="#000000" points="210.5,-50 210.5,-69 338.5,-69 338.5,-50 210.5,-50"/>
<text text-anchor="middle" x="274.5" y="-57" font-family="Helvetica,sans-Serif" font-size="10.00" fill="#000000">FolderUtils::FolderUtils</text>
</a>
</g>
</g>
<!-- Node3153&#45;&gt;Node3154 -->
<g id="edge1" class="edge">
<title>Node3153&#45;&gt;Node3154</title>
<path fill="none" stroke="#191970" d="M165.8809,-47.0216C177.2576,-48.3286 188.8812,-49.6639 200.0934,-50.952"/>
<polygon fill="#191970" stroke="#191970" points="199.9216,-54.4552 210.2557,-52.1195 200.7206,-47.5009 199.9216,-54.4552"/>
</g>
<!-- Node3155 -->
<g id="node3" class="node">
<title>Node3155</title>
<g id="a_node3"><a xlink:href="../../dd/d63/classFolderUtils.html#a9bc81353ffc59dd512806f0ad2caceb5" target="_top" xlink:title=" ">
<polygon fill="#ffffff" stroke="#000000" points="202,-.5 202,-30.5 347,-30.5 347,-.5 202,-.5"/>
<text text-anchor="start" x="210" y="-18.5" font-family="Helvetica,sans-Serif" font-size="10.00" fill="#000000">FolderUtils::setApplication</text>
<text text-anchor="middle" x="274.5" y="-7.5" font-family="Helvetica,sans-Serif" font-size="10.00" fill="#000000">Path2</text>
</a>
</g>
</g>
<!-- Node3153&#45;&gt;Node3155 -->
<g id="edge2" class="edge">
<title>Node3153&#45;&gt;Node3155</title>
<path fill="none" stroke="#191970" d="M165.8809,-27.9784C174.4541,-26.9935 183.1675,-25.9925 191.7394,-25.0077"/>
<polygon fill="#191970" stroke="#191970" points="192.185,-28.4797 201.7202,-23.8611 191.386,-21.5254 192.185,-28.4797"/>
</g>
</g>
</svg>
