<?xml version="1.0" encoding="UTF-8" standalone="no"?>
<!DOCTYPE svg PUBLIC "-//W3C//DTD SVG 1.1//EN"
 "http://www.w3.org/Graphics/SVG/1.1/DTD/svg11.dtd">
<!-- Generated by graphviz version 2.40.1 (0)
 -->
<!-- Title: itemdrag.cpp Pages: 1 -->
<svg width="865pt" height="196pt"
 viewBox="0.00 0.00 865.00 196.00" xmlns="http://www.w3.org/2000/svg" xmlns:xlink="http://www.w3.org/1999/xlink">
<g id="graph0" class="graph" transform="scale(1 1) rotate(0) translate(4 192)">
<title>itemdrag.cpp</title>
<polygon fill="#ffffff" stroke="transparent" points="-4,4 -4,-192 861,-192 861,4 -4,4"/>
<!-- Node0 -->
<g id="node1" class="node">
<title>Node0</title>
<g id="a_node1"><a xlink:title=" ">
<polygon fill="#bfbfbf" stroke="#000000" points="207,-168.5 207,-187.5 288,-187.5 288,-168.5 207,-168.5"/>
<text text-anchor="middle" x="247.5" y="-175.5" font-family="Helvetica,sans-Serif" font-size="10.00" fill="#000000">itemdrag.cpp</text>
</a>
</g>
</g>
<!-- Node1 -->
<g id="node2" class="node">
<title>Node1</title>
<g id="a_node2"><a xlink:href="../../d0/d88/itemdrag_8h.html" target="_top" xlink:title=" ">
<polygon fill="#ffffff" stroke="#000000" points="99.5,-112.5 99.5,-131.5 169.5,-131.5 169.5,-112.5 99.5,-112.5"/>
<text text-anchor="middle" x="134.5" y="-119.5" font-family="Helvetica,sans-Serif" font-size="10.00" fill="#000000">itemdrag.h</text>
</a>
</g>
</g>
<!-- Node0&#45;&gt;Node1 -->
<g id="edge1" class="edge">
<title>Node0&#45;&gt;Node1</title>
<path fill="none" stroke="#191970" d="M228.0746,-168.3733C210.0979,-159.4644 183.1559,-146.1127 162.791,-136.0203"/>
<polygon fill="#191970" stroke="#191970" points="164.1861,-132.8055 153.6719,-131.5011 161.0778,-139.0776 164.1861,-132.8055"/>
</g>
<!-- Node6 -->
<g id="node7" class="node">
<title>Node6</title>
<g id="a_node7"><a xlink:href="../../df/db5/debugdialog_8h.html" target="_top" xlink:title=" ">
<polygon fill="#ffffff" stroke="#000000" points="317.5,-112.5 317.5,-131.5 403.5,-131.5 403.5,-112.5 317.5,-112.5"/>
<text text-anchor="middle" x="360.5" y="-119.5" font-family="Helvetica,sans-Serif" font-size="10.00" fill="#000000">debugdialog.h</text>
</a>
</g>
</g>
<!-- Node0&#45;&gt;Node6 -->
<g id="edge6" class="edge">
<title>Node0&#45;&gt;Node6</title>
<path fill="none" stroke="#191970" d="M266.9254,-168.3733C284.9021,-159.4644 311.8441,-146.1127 332.209,-136.0203"/>
<polygon fill="#191970" stroke="#191970" points="333.9222,-139.0776 341.3281,-131.5011 330.8139,-132.8055 333.9222,-139.0776"/>
</g>
<!-- Node2 -->
<g id="node3" class="node">
<title>Node2</title>
<g id="a_node3"><a xlink:title=" ">
<polygon fill="#ffffff" stroke="#bfbfbf" points="0,-56.5 0,-75.5 47,-75.5 47,-56.5 0,-56.5"/>
<text text-anchor="middle" x="23.5" y="-63.5" font-family="Helvetica,sans-Serif" font-size="10.00" fill="#000000">QDrag</text>
</a>
</g>
</g>
<!-- Node1&#45;&gt;Node2 -->
<g id="edge2" class="edge">
<title>Node1&#45;&gt;Node2</title>
<path fill="none" stroke="#191970" d="M115.4184,-112.3733C97.7598,-103.4644 71.2947,-90.1127 51.2902,-80.0203"/>
<polygon fill="#191970" stroke="#191970" points="52.8372,-76.8806 42.3326,-75.5011 49.6842,-83.1303 52.8372,-76.8806"/>
</g>
<!-- Node3 -->
<g id="node4" class="node">
<title>Node3</title>
<g id="a_node4"><a xlink:title=" ">
<polygon fill="#ffffff" stroke="#bfbfbf" points="160,-.5 160,-19.5 209,-19.5 209,-.5 160,-.5"/>
<text text-anchor="middle" x="184.5" y="-7.5" font-family="Helvetica,sans-Serif" font-size="10.00" fill="#000000">QHash</text>
</a>
</g>
</g>
<!-- Node1&#45;&gt;Node3 -->
<g id="edge3" class="edge">
<title>Node1&#45;&gt;Node3</title>
<path fill="none" stroke="#191970" d="M121.3448,-112.3656C105.4473,-99.498 82.2614,-75.9998 94.5,-56 106.5665,-36.2814 130.0486,-24.6756 150.0013,-18.0548"/>
<polygon fill="#191970" stroke="#191970" points="151.1807,-21.3548 159.74,-15.1108 149.1551,-14.6543 151.1807,-21.3548"/>
</g>
<!-- Node4 -->
<g id="node5" class="node">
<title>Node4</title>
<g id="a_node5"><a xlink:title=" ">
<polygon fill="#ffffff" stroke="#bfbfbf" points="104,-56.5 104,-75.5 165,-75.5 165,-56.5 104,-56.5"/>
<text text-anchor="middle" x="134.5" y="-63.5" font-family="Helvetica,sans-Serif" font-size="10.00" fill="#000000">QPixmap</text>
</a>
</g>
</g>
<!-- Node1&#45;&gt;Node4 -->
<g id="edge4" class="edge">
<title>Node1&#45;&gt;Node4</title>
<path fill="none" stroke="#191970" d="M134.5,-112.2455C134.5,-104.9382 134.5,-94.6944 134.5,-85.7046"/>
<polygon fill="#191970" stroke="#191970" points="138.0001,-85.6426 134.5,-75.6427 131.0001,-85.6427 138.0001,-85.6426"/>
</g>
<!-- Node5 -->
<g id="node6" class="node">
<title>Node5</title>
<g id="a_node6"><a xlink:title=" ">
<polygon fill="#ffffff" stroke="#bfbfbf" points="183,-56.5 183,-75.5 242,-75.5 242,-56.5 183,-56.5"/>
<text text-anchor="middle" x="212.5" y="-63.5" font-family="Helvetica,sans-Serif" font-size="10.00" fill="#000000">QPointer</text>
</a>
</g>
</g>
<!-- Node1&#45;&gt;Node5 -->
<g id="edge5" class="edge">
<title>Node1&#45;&gt;Node5</title>
<path fill="none" stroke="#191970" d="M148.0866,-112.2455C159.8305,-103.814 177.0199,-91.4729 190.6882,-81.6598"/>
<polygon fill="#191970" stroke="#191970" points="192.9871,-84.3179 199.0691,-75.6427 188.9046,-78.6316 192.9871,-84.3179"/>
</g>
<!-- Node6&#45;&gt;Node5 -->
<g id="edge11" class="edge">
<title>Node6&#45;&gt;Node5</title>
<path fill="none" stroke="#191970" d="M335.0579,-112.3733C310.7674,-103.1822 273.9792,-89.2624 247.0457,-79.0713"/>
<polygon fill="#191970" stroke="#191970" points="248.2016,-75.7666 237.6101,-75.5011 245.7243,-82.3136 248.2016,-75.7666"/>
</g>
<!-- Node7 -->
<g id="node8" class="node">
<title>Node7</title>
<g id="a_node8"><a xlink:title=" ">
<polygon fill="#ffffff" stroke="#bfbfbf" points="260.5,-56.5 260.5,-75.5 316.5,-75.5 316.5,-56.5 260.5,-56.5"/>
<text text-anchor="middle" x="288.5" y="-63.5" font-family="Helvetica,sans-Serif" font-size="10.00" fill="#000000">QDialog</text>
</a>
</g>
</g>
<!-- Node6&#45;&gt;Node7 -->
<g id="edge7" class="edge">
<title>Node6&#45;&gt;Node7</title>
<path fill="none" stroke="#191970" d="M347.9586,-112.2455C337.2213,-103.8943 321.5527,-91.7076 308.9953,-81.9408"/>
<polygon fill="#191970" stroke="#191970" points="310.9401,-79.0194 300.8977,-75.6427 306.6425,-84.5449 310.9401,-79.0194"/>
</g>
<!-- Node8 -->
<g id="node9" class="node">
<title>Node8</title>
<g id="a_node9"><a xlink:title=" ">
<polygon fill="#ffffff" stroke="#bfbfbf" points="334.5,-56.5 334.5,-75.5 386.5,-75.5 386.5,-56.5 334.5,-56.5"/>
<text text-anchor="middle" x="360.5" y="-63.5" font-family="Helvetica,sans-Serif" font-size="10.00" fill="#000000">QEvent</text>
</a>
</g>
</g>
<!-- Node6&#45;&gt;Node8 -->
<g id="edge8" class="edge">
<title>Node6&#45;&gt;Node8</title>
<path fill="none" stroke="#191970" d="M360.5,-112.2455C360.5,-104.9382 360.5,-94.6944 360.5,-85.7046"/>
<polygon fill="#191970" stroke="#191970" points="364.0001,-85.6426 360.5,-75.6427 357.0001,-85.6427 364.0001,-85.6426"/>
</g>
<!-- Node9 -->
<g id="node10" class="node">
<title>Node9</title>
<g id="a_node10"><a xlink:title=" ">
<polygon fill="#ffffff" stroke="#bfbfbf" points="405,-56.5 405,-75.5 468,-75.5 468,-56.5 405,-56.5"/>
<text text-anchor="middle" x="436.5" y="-63.5" font-family="Helvetica,sans-Serif" font-size="10.00" fill="#000000">QTextEdit</text>
</a>
</g>
</g>
<!-- Node6&#45;&gt;Node9 -->
<g id="edge9" class="edge">
<title>Node6&#45;&gt;Node9</title>
<path fill="none" stroke="#191970" d="M373.7382,-112.2455C385.181,-103.814 401.9296,-91.4729 415.2475,-81.6598"/>
<polygon fill="#191970" stroke="#191970" points="417.4391,-84.3924 423.4135,-75.6427 413.2867,-78.757 417.4391,-84.3924"/>
</g>
<!-- Node10 -->
<g id="node11" class="node">
<title>Node10</title>
<g id="a_node11"><a xlink:title=" ">
<polygon fill="#ffffff" stroke="#bfbfbf" points="486,-56.5 486,-75.5 527,-75.5 527,-56.5 486,-56.5"/>
<text text-anchor="middle" x="506.5" y="-63.5" font-family="Helvetica,sans-Serif" font-size="10.00" fill="#000000">QFile</text>
</a>
</g>
</g>
<!-- Node6&#45;&gt;Node10 -->
<g id="edge10" class="edge">
<title>Node6&#45;&gt;Node10</title>
<path fill="none" stroke="#191970" d="M385.5983,-112.3733C410.7568,-102.7234 449.5057,-87.8608 476.3248,-77.5741"/>
<polygon fill="#191970" stroke="#191970" points="477.8828,-80.7251 485.9662,-73.876 475.376,-74.1894 477.8828,-80.7251"/>
</g>
<!-- Node11 -->
<g id="node12" class="node">
<title>Node11</title>
<g id="a_node12"><a xlink:href="../../d4/d08/misc_8h.html" target="_top" xlink:title=" ">
<polygon fill="#ffffff" stroke="#000000" points="545,-56.5 545,-75.5 618,-75.5 618,-56.5 545,-56.5"/>
<text text-anchor="middle" x="581.5" y="-63.5" font-family="Helvetica,sans-Serif" font-size="10.00" fill="#000000">utils/misc.h</text>
</a>
</g>
</g>
<!-- Node6&#45;&gt;Node11 -->
<g id="edge12" class="edge">
<title>Node6&#45;&gt;Node11</title>
<path fill="none" stroke="#191970" d="M398.2401,-112.4369C435.9721,-102.8759 494.0792,-88.1519 534.7188,-77.8541"/>
<polygon fill="#191970" stroke="#191970" points="535.8176,-81.1863 544.6515,-75.3372 534.0981,-74.4008 535.8176,-81.1863"/>
</g>
<!-- Node11&#45;&gt;Node3 -->
<g id="edge13" class="edge">
<title>Node11&#45;&gt;Node3</title>
<path fill="none" stroke="#191970" d="M544.7162,-57.5469C541.9416,-56.9948 539.1798,-56.4719 536.5,-56 475.9211,-45.3324 295.8033,-23.3334 219.394,-14.1596"/>
<polygon fill="#191970" stroke="#191970" points="219.6692,-10.6676 209.3238,-12.9527 218.8363,-17.6179 219.6692,-10.6676"/>
</g>
<!-- Node12 -->
<g id="node13" class="node">
<title>Node12</title>
<g id="a_node13"><a xlink:title=" ">
<polygon fill="#ffffff" stroke="#bfbfbf" points="288,-.5 288,-19.5 343,-19.5 343,-.5 288,-.5"/>
<text text-anchor="middle" x="315.5" y="-7.5" font-family="Helvetica,sans-Serif" font-size="10.00" fill="#000000">QVector</text>
</a>
</g>
</g>
<!-- Node11&#45;&gt;Node12 -->
<g id="edge14" class="edge">
<title>Node11&#45;&gt;Node12</title>
<path fill="none" stroke="#191970" d="M544.6802,-57.7346C541.9138,-57.1391 539.1638,-56.5551 536.5,-56 457.7,-39.5804 434.7982,-39.2266 353.5565,-20.3644"/>
<polygon fill="#191970" stroke="#191970" points="353.8872,-16.847 343.3521,-17.97 352.2881,-23.6619 353.8872,-16.847"/>
</g>
<!-- Node13 -->
<g id="node14" class="node">
<title>Node13</title>
<g id="a_node14"><a xlink:title=" ">
<polygon fill="#ffffff" stroke="#bfbfbf" points="361,-.5 361,-19.5 414,-19.5 414,-.5 361,-.5"/>
<text text-anchor="middle" x="387.5" y="-7.5" font-family="Helvetica,sans-Serif" font-size="10.00" fill="#000000">QString</text>
</a>
</g>
</g>
<!-- Node11&#45;&gt;Node13 -->
<g id="edge15" class="edge">
<title>Node11&#45;&gt;Node13</title>
<path fill="none" stroke="#191970" d="M548.1502,-56.3733C513.6396,-46.4114 459.884,-30.8944 424.1902,-20.591"/>
<polygon fill="#191970" stroke="#191970" points="424.7623,-17.1133 414.1838,-17.7026 422.8209,-23.8387 424.7623,-17.1133"/>
</g>
<!-- Node14 -->
<g id="node15" class="node">
<title>Node14</title>
<g id="a_node15"><a xlink:title=" ">
<polygon fill="#ffffff" stroke="#bfbfbf" points="432.5,-.5 432.5,-19.5 470.5,-19.5 470.5,-.5 432.5,-.5"/>
<text text-anchor="middle" x="451.5" y="-7.5" font-family="Helvetica,sans-Serif" font-size="10.00" fill="#000000">QDir</text>
</a>
</g>
</g>
<!-- Node11&#45;&gt;Node14 -->
<g id="edge16" class="edge">
<title>Node11&#45;&gt;Node14</title>
<path fill="none" stroke="#191970" d="M559.1522,-56.3733C537.2034,-46.9184 503.6376,-32.4593 479.8286,-22.2031"/>
<polygon fill="#191970" stroke="#191970" points="481.1678,-18.9691 470.599,-18.2273 478.3984,-25.398 481.1678,-18.9691"/>
</g>
<!-- Node15 -->
<g id="node16" class="node">
<title>Node15</title>
<g id="a_node16"><a xlink:title=" ">
<polygon fill="#ffffff" stroke="#bfbfbf" points="488.5,-.5 488.5,-19.5 576.5,-19.5 576.5,-.5 488.5,-.5"/>
<text text-anchor="middle" x="532.5" y="-7.5" font-family="Helvetica,sans-Serif" font-size="10.00" fill="#000000">QDomElement</text>
</a>
</g>
</g>
<!-- Node11&#45;&gt;Node15 -->
<g id="edge17" class="edge">
<title>Node11&#45;&gt;Node15</title>
<path fill="none" stroke="#191970" d="M572.9649,-56.2455C566.0088,-48.2958 556.0117,-36.8706 547.6949,-27.3656"/>
<polygon fill="#191970" stroke="#191970" points="550.1564,-24.8637 540.9373,-19.6427 544.8884,-29.4732 550.1564,-24.8637"/>
</g>
<!-- Node16 -->
<g id="node17" class="node">
<title>Node16</title>
<g id="a_node17"><a xlink:title=" ">
<polygon fill="#ffffff" stroke="#bfbfbf" points="594.5,-.5 594.5,-19.5 664.5,-19.5 664.5,-.5 594.5,-.5"/>
<text text-anchor="middle" x="629.5" y="-7.5" font-family="Helvetica,sans-Serif" font-size="10.00" fill="#000000">QStringList</text>
</a>
</g>
</g>
<!-- Node11&#45;&gt;Node16 -->
<g id="edge18" class="edge">
<title>Node11&#45;&gt;Node16</title>
<path fill="none" stroke="#191970" d="M589.861,-56.2455C596.675,-48.2958 606.4681,-36.8706 614.6152,-27.3656"/>
<polygon fill="#191970" stroke="#191970" points="617.3843,-29.513 621.2349,-19.6427 612.0695,-24.9575 617.3843,-29.513"/>
</g>
<!-- Node17 -->
<g id="node18" class="node">
<title>Node17</title>
<g id="a_node18"><a xlink:title=" ">
<polygon fill="#ffffff" stroke="#bfbfbf" points="682.5,-.5 682.5,-19.5 724.5,-19.5 724.5,-.5 682.5,-.5"/>
<text text-anchor="middle" x="703.5" y="-7.5" font-family="Helvetica,sans-Serif" font-size="10.00" fill="#000000">QPair</text>
</a>
</g>
</g>
<!-- Node11&#45;&gt;Node17 -->
<g id="edge19" class="edge">
<title>Node11&#45;&gt;Node17</title>
<path fill="none" stroke="#191970" d="M602.4725,-56.3733C622.0567,-47.3838 651.4961,-33.8706 673.551,-23.7471"/>
<polygon fill="#191970" stroke="#191970" points="675.1729,-26.8538 682.8011,-19.5011 672.2527,-20.4919 675.1729,-26.8538"/>
</g>
<!-- Node18 -->
<g id="node19" class="node">
<title>Node18</title>
<g id="a_node19"><a xlink:title=" ">
<polygon fill="#ffffff" stroke="#bfbfbf" points="743,-.5 743,-19.5 784,-19.5 784,-.5 743,-.5"/>
<text text-anchor="middle" x="763.5" y="-7.5" font-family="Helvetica,sans-Serif" font-size="10.00" fill="#000000">QList</text>
</a>
</g>
</g>
<!-- Node11&#45;&gt;Node18 -->
<g id="edge20" class="edge">
<title>Node11&#45;&gt;Node18</title>
<path fill="none" stroke="#191970" d="M613.901,-56.4792C642.7426,-47.9414 686.3071,-34.8922 733.1446,-20.0529"/>
<polygon fill="#191970" stroke="#191970" points="734.3986,-23.327 742.8679,-16.9613 732.2774,-16.6561 734.3986,-23.327"/>
</g>
<!-- Node19 -->
<g id="node20" class="node">
<title>Node19</title>
<g id="a_node20"><a xlink:title=" ">
<polygon fill="#ffffff" stroke="#bfbfbf" points="802,-.5 802,-19.5 857,-19.5 857,-.5 802,-.5"/>
<text text-anchor="middle" x="829.5" y="-7.5" font-family="Helvetica,sans-Serif" font-size="10.00" fill="#000000">QPointF</text>
</a>
</g>
</g>
<!-- Node11&#45;&gt;Node19 -->
<g id="edge21" class="edge">
<title>Node11&#45;&gt;Node19</title>
<path fill="none" stroke="#191970" d="M618.0343,-58.7355C658.4136,-50.5604 725.587,-36.5307 791.8647,-20.3179"/>
<polygon fill="#191970" stroke="#191970" points="792.7615,-23.7017 801.6335,-17.9104 791.0865,-16.905 792.7615,-23.7017"/>
</g>
</g>
</svg>
