<?xml version="1.0" encoding="UTF-8" standalone="no"?>
<!DOCTYPE svg PUBLIC "-//W3C//DTD SVG 1.1//EN"
 "http://www.w3.org/Graphics/SVG/1.1/DTD/svg11.dtd">
<!-- Generated by graphviz version 2.40.1 (0)
 -->
<!-- Title: Board::convertFromXmlName Pages: 1 -->
<svg width="338pt" height="66pt"
 viewBox="0.00 0.00 338.00 66.00" xmlns="http://www.w3.org/2000/svg" xmlns:xlink="http://www.w3.org/1999/xlink">
<g id="graph0" class="graph" transform="scale(1 1) rotate(0) translate(4 62)">
<title>Board::convertFromXmlName</title>
<polygon fill="#ffffff" stroke="transparent" points="-4,4 -4,-62 334,-62 334,4 -4,4"/>
<!-- Node151 -->
<g id="node1" class="node">
<title>Node151</title>
<g id="a_node1"><a xlink:title=" ">
<polygon fill="#bfbfbf" stroke="#000000" points="169,-19.5 169,-38.5 330,-38.5 330,-19.5 169,-19.5"/>
<text text-anchor="middle" x="249.5" y="-26.5" font-family="Helvetica,sans-Serif" font-size="10.00" fill="#000000">Board::convertFromXmlName</text>
</a>
</g>
</g>
<!-- Node152 -->
<g id="node2" class="node">
<title>Node152</title>
<g id="a_node2"><a xlink:href="../../de/d5e/classLogoItem.html#a5e2fc168826ab166d54d6115acba20f0" target="_top" xlink:title=" ">
<polygon fill="#ffffff" stroke="#000000" points="0,-38.5 0,-57.5 133,-57.5 133,-38.5 0,-38.5"/>
<text text-anchor="middle" x="66.5" y="-45.5" font-family="Helvetica,sans-Serif" font-size="10.00" fill="#000000">LogoItem::collectValues</text>
</a>
</g>
</g>
<!-- Node151&#45;&gt;Node152 -->
<g id="edge1" class="edge">
<title>Node151&#45;&gt;Node152</title>
<path fill="none" stroke="#191970" d="M158.8118,-38.4157C150.1412,-39.3159 141.4609,-40.2172 133.0823,-41.0871"/>
<polygon fill="#191970" stroke="#191970" points="159.3822,-41.8754 168.9672,-37.3613 158.6592,-34.9128 159.3822,-41.8754"/>
</g>
<!-- Node153 -->
<g id="node3" class="node">
<title>Node153</title>
<g id="a_node3"><a xlink:href="../../d3/d78/classPad.html#aa585bc655841640e901dee9db353c789" target="_top" xlink:title=" ">
<polygon fill="#ffffff" stroke="#000000" points="14.5,-.5 14.5,-19.5 118.5,-19.5 118.5,-.5 14.5,-.5"/>
<text text-anchor="middle" x="66.5" y="-7.5" font-family="Helvetica,sans-Serif" font-size="10.00" fill="#000000">Pad::collectValues</text>
</a>
</g>
</g>
<!-- Node151&#45;&gt;Node153 -->
<g id="edge2" class="edge">
<title>Node151&#45;&gt;Node153</title>
<path fill="none" stroke="#191970" d="M158.9249,-19.596C145.1019,-18.1609 131.2507,-16.7227 118.6334,-15.4128"/>
<polygon fill="#191970" stroke="#191970" points="158.6592,-23.0872 168.9672,-20.6387 159.3822,-16.1246 158.6592,-23.0872"/>
</g>
</g>
</svg>
