<?xml version="1.0" encoding="UTF-8" standalone="no"?>
<!DOCTYPE svg PUBLIC "-//W3C//DTD SVG 1.1//EN"
 "http://www.w3.org/Graphics/SVG/1.1/DTD/svg11.dtd">
<!-- Generated by graphviz version 2.40.1 (0)
 -->
<!-- Title: AddItemCommand::undo Pages: 1 -->
<svg width="695pt" height="180pt"
 viewBox="0.00 0.00 695.00 180.00" xmlns="http://www.w3.org/2000/svg" xmlns:xlink="http://www.w3.org/1999/xlink">
<g id="graph0" class="graph" transform="scale(1 1) rotate(0) translate(4 176)">
<title>AddItemCommand::undo</title>
<polygon fill="#ffffff" stroke="transparent" points="-4,4 -4,-176 691,-176 691,4 -4,4"/>
<!-- Node358 -->
<g id="node1" class="node">
<title>Node358</title>
<g id="a_node1"><a xlink:title=" ">
<polygon fill="#bfbfbf" stroke="#000000" points="0,-57.5 0,-76.5 138,-76.5 138,-57.5 0,-57.5"/>
<text text-anchor="middle" x="69" y="-64.5" font-family="Helvetica,sans-Serif" font-size="10.00" fill="#000000">AddItemCommand::undo</text>
</a>
</g>
</g>
<!-- Node359 -->
<g id="node2" class="node">
<title>Node359</title>
<g id="a_node2"><a xlink:href="../../d8/d37/classSketchWidget.html#a3de61073afc65800733dd64f60aee7b8" target="_top" xlink:title=" ">
<polygon fill="#ffffff" stroke="#000000" points="174,-76.5 174,-95.5 317,-95.5 317,-76.5 174,-76.5"/>
<text text-anchor="middle" x="245.5" y="-83.5" font-family="Helvetica,sans-Serif" font-size="10.00" fill="#000000">SketchWidget::deleteItem</text>
</a>
</g>
</g>
<!-- Node358&#45;&gt;Node359 -->
<g id="edge1" class="edge">
<title>Node358&#45;&gt;Node359</title>
<path fill="none" stroke="#191970" d="M138.2509,-74.4548C146.6501,-75.3589 155.2903,-76.289 163.8474,-77.2102"/>
<polygon fill="#191970" stroke="#191970" points="163.5178,-80.6949 173.8349,-78.2853 164.267,-73.7351 163.5178,-80.6949"/>
</g>
<!-- Node365 -->
<g id="node8" class="node">
<title>Node365</title>
<g id="a_node8"><a xlink:href="../../d8/d6e/classBaseCommand.html#ac2747a4ea6258544b1721c742dc3d4db" target="_top" xlink:title=" ">
<polygon fill="#ffffff" stroke="#000000" points="185,-38.5 185,-57.5 306,-57.5 306,-38.5 185,-38.5"/>
<text text-anchor="middle" x="245.5" y="-45.5" font-family="Helvetica,sans-Serif" font-size="10.00" fill="#000000">BaseCommand::undo</text>
</a>
</g>
</g>
<!-- Node358&#45;&gt;Node365 -->
<g id="edge7" class="edge">
<title>Node358&#45;&gt;Node365</title>
<path fill="none" stroke="#191970" d="M138.2509,-59.5452C150.2476,-58.2538 162.736,-56.9094 174.7714,-55.6138"/>
<polygon fill="#191970" stroke="#191970" points="175.186,-59.0895 184.7539,-54.5392 174.4367,-52.1297 175.186,-59.0895"/>
</g>
<!-- Node360 -->
<g id="node3" class="node">
<title>Node360</title>
<g id="a_node3"><a xlink:href="../../d8/d37/classSketchWidget.html#a8e2ae23ef1e4c2ad993e0c3985e5c3ba" target="_top" xlink:title=" ">
<polygon fill="#ffffff" stroke="#000000" points="369.5,-114.5 369.5,-133.5 499.5,-133.5 499.5,-114.5 369.5,-114.5"/>
<text text-anchor="middle" x="434.5" y="-121.5" font-family="Helvetica,sans-Serif" font-size="10.00" fill="#000000">SketchWidget::findItem</text>
</a>
</g>
</g>
<!-- Node359&#45;&gt;Node360 -->
<g id="edge2" class="edge">
<title>Node359&#45;&gt;Node360</title>
<path fill="none" stroke="#191970" d="M293.1927,-95.589C318.695,-100.7165 350.2818,-107.0672 377.1196,-112.4632"/>
<polygon fill="#191970" stroke="#191970" points="376.6565,-115.9401 387.1503,-114.4799 378.0364,-109.0774 376.6565,-115.9401"/>
</g>
<!-- Node364 -->
<g id="node7" class="node">
<title>Node364</title>
<g id="a_node7"><a xlink:href="../../da/d3a/classDebugDialog.html#ad26216d18945d7d7188420707b76f241" target="_top" xlink:title=" ">
<polygon fill="#ffffff" stroke="#000000" points="376.5,-76.5 376.5,-95.5 492.5,-95.5 492.5,-76.5 376.5,-76.5"/>
<text text-anchor="middle" x="434.5" y="-83.5" font-family="Helvetica,sans-Serif" font-size="10.00" fill="#000000">DebugDialog::debug</text>
</a>
</g>
</g>
<!-- Node359&#45;&gt;Node364 -->
<g id="edge6" class="edge">
<title>Node359&#45;&gt;Node364</title>
<path fill="none" stroke="#191970" d="M317.2223,-86C333.2412,-86 350.1887,-86 366.0705,-86"/>
<polygon fill="#191970" stroke="#191970" points="366.3327,-89.5001 376.3327,-86 366.3326,-82.5001 366.3327,-89.5001"/>
</g>
<!-- Node361 -->
<g id="node4" class="node">
<title>Node361</title>
<g id="a_node4"><a xlink:href="../../d4/d4f/classItemBase.html#a27afd199a7ae3c3fd14e88ed0be14420" target="_top" xlink:title=" ">
<polygon fill="#ffffff" stroke="#000000" points="580.5,-152.5 580.5,-171.5 658.5,-171.5 658.5,-152.5 580.5,-152.5"/>
<text text-anchor="middle" x="619.5" y="-159.5" font-family="Helvetica,sans-Serif" font-size="10.00" fill="#000000">ItemBase::id</text>
</a>
</g>
</g>
<!-- Node360&#45;&gt;Node361 -->
<g id="edge3" class="edge">
<title>Node360&#45;&gt;Node361</title>
<path fill="none" stroke="#191970" d="M481.1833,-133.589C508.4485,-139.1894 542.8189,-146.2493 570.4766,-151.9303"/>
<polygon fill="#191970" stroke="#191970" points="569.8372,-155.372 580.3369,-153.9557 571.2457,-148.5151 569.8372,-155.372"/>
</g>
<!-- Node362 -->
<g id="node5" class="node">
<title>Node362</title>
<g id="a_node5"><a xlink:href="../../d4/d4f/classItemBase.html#abf6d16e250a353043cd4953ddc049bd0" target="_top" xlink:title=" ">
<polygon fill="#ffffff" stroke="#000000" points="552,-114.5 552,-133.5 687,-133.5 687,-114.5 552,-114.5"/>
<text text-anchor="middle" x="619.5" y="-121.5" font-family="Helvetica,sans-Serif" font-size="10.00" fill="#000000">ItemBase::layerKinChief</text>
</a>
</g>
</g>
<!-- Node360&#45;&gt;Node362 -->
<g id="edge4" class="edge">
<title>Node360&#45;&gt;Node362</title>
<path fill="none" stroke="#191970" d="M499.7241,-124C513.2852,-124 527.7053,-124 541.6678,-124"/>
<polygon fill="#191970" stroke="#191970" points="541.735,-127.5001 551.735,-124 541.735,-120.5001 541.735,-127.5001"/>
</g>
<!-- Node363 -->
<g id="node6" class="node">
<title>Node363</title>
<g id="a_node6"><a xlink:href="../../d4/d4f/classItemBase.html#acc32076e751f0e21ffb9050f275d3b87" target="_top" xlink:title=" ">
<polygon fill="#ffffff" stroke="#000000" points="564.5,-76.5 564.5,-95.5 674.5,-95.5 674.5,-76.5 564.5,-76.5"/>
<text text-anchor="middle" x="619.5" y="-83.5" font-family="Helvetica,sans-Serif" font-size="10.00" fill="#000000">ItemBase::layerKin</text>
</a>
</g>
</g>
<!-- Node360&#45;&gt;Node363 -->
<g id="edge5" class="edge">
<title>Node360&#45;&gt;Node363</title>
<path fill="none" stroke="#191970" d="M481.1833,-114.411C506.1459,-109.2835 537.0642,-102.9328 563.334,-97.5368"/>
<polygon fill="#191970" stroke="#191970" points="564.0611,-100.9606 573.1524,-95.5201 562.6526,-94.1038 564.0611,-100.9606"/>
</g>
<!-- Node366 -->
<g id="node9" class="node">
<title>Node366</title>
<g id="a_node9"><a xlink:href="../../df/d8b/classCommandProgress.html#aebf23a39ab6caf18a3e7b3351ad4f49d" target="_top" xlink:title=" ">
<polygon fill="#ffffff" stroke="#000000" points="362,-38.5 362,-57.5 507,-57.5 507,-38.5 362,-38.5"/>
<text text-anchor="middle" x="434.5" y="-45.5" font-family="Helvetica,sans-Serif" font-size="10.00" fill="#000000">CommandProgress::active</text>
</a>
</g>
</g>
<!-- Node365&#45;&gt;Node366 -->
<g id="edge8" class="edge">
<title>Node365&#45;&gt;Node366</title>
<path fill="none" stroke="#191970" d="M306.0806,-48C320.6063,-48 336.3647,-48 351.7052,-48"/>
<polygon fill="#191970" stroke="#191970" points="351.7086,-51.5001 361.7086,-48 351.7085,-44.5001 351.7086,-51.5001"/>
</g>
<!-- Node367 -->
<g id="node10" class="node">
<title>Node367</title>
<g id="a_node10"><a xlink:href="../../df/d8b/classCommandProgress.html#aaed608918684247a483fd5466be7b551" target="_top" xlink:title=" ">
<polygon fill="#ffffff" stroke="#000000" points="353,-.5 353,-19.5 516,-19.5 516,-.5 353,-.5"/>
<text text-anchor="middle" x="434.5" y="-7.5" font-family="Helvetica,sans-Serif" font-size="10.00" fill="#000000">CommandProgress::emitUndo</text>
</a>
</g>
</g>
<!-- Node365&#45;&gt;Node367 -->
<g id="edge9" class="edge">
<title>Node365&#45;&gt;Node367</title>
<path fill="none" stroke="#191970" d="M293.1927,-38.411C318.695,-33.2835 350.2818,-26.9328 377.1196,-21.5368"/>
<polygon fill="#191970" stroke="#191970" points="378.0364,-24.9226 387.1503,-19.5201 376.6565,-18.0599 378.0364,-24.9226"/>
</g>
</g>
</svg>
