<?xml version="1.0" encoding="UTF-8" standalone="no"?>
<!DOCTYPE svg PUBLIC "-//W3C//DTD SVG 1.1//EN"
 "http://www.w3.org/Graphics/SVG/1.1/DTD/svg11.dtd">
<!-- Generated by graphviz version 2.40.1 (0)
 -->
<!-- Title: VersionChecker::fetch Pages: 1 -->
<svg width="1220pt" height="210pt"
 viewBox="0.00 0.00 1220.00 210.00" xmlns="http://www.w3.org/2000/svg" xmlns:xlink="http://www.w3.org/1999/xlink">
<g id="graph0" class="graph" transform="scale(1 1) rotate(0) translate(4 206)">
<title>VersionChecker::fetch</title>
<polygon fill="#ffffff" stroke="transparent" points="-4,4 -4,-206 1216,-206 1216,4 -4,4"/>
<!-- Node9 -->
<g id="node1" class="node">
<title>Node9</title>
<g id="a_node1"><a xlink:title=" ">
<polygon fill="#bfbfbf" stroke="#000000" points="0,-163.5 0,-182.5 122,-182.5 122,-163.5 0,-163.5"/>
<text text-anchor="middle" x="61" y="-170.5" font-family="Helvetica,sans-Serif" font-size="10.00" fill="#000000">VersionChecker::fetch</text>
</a>
</g>
</g>
<!-- Node10 -->
<g id="node2" class="node">
<title>Node10</title>
<g id="a_node2"><a xlink:href="../../da/d3a/classDebugDialog.html#ad26216d18945d7d7188420707b76f241" target="_top" xlink:title=" ">
<polygon fill="#ffffff" stroke="#000000" points="344,-182.5 344,-201.5 460,-201.5 460,-182.5 344,-182.5"/>
<text text-anchor="middle" x="402" y="-189.5" font-family="Helvetica,sans-Serif" font-size="10.00" fill="#000000">DebugDialog::debug</text>
</a>
</g>
</g>
<!-- Node9&#45;&gt;Node10 -->
<g id="edge1" class="edge">
<title>Node9&#45;&gt;Node10</title>
<path fill="none" stroke="#191970" d="M122.3578,-176.4188C181.9351,-179.7383 272.1847,-184.7669 333.9403,-188.2078"/>
<polygon fill="#191970" stroke="#191970" points="333.7997,-191.7053 343.979,-188.7672 334.1892,-184.7162 333.7997,-191.7053"/>
</g>
<!-- Node11 -->
<g id="node3" class="node">
<title>Node11</title>
<g id="a_node3"><a xlink:href="../../d1/d50/classVersionChecker.html#afd1d9c909dbfd60d6915ed8b45f652f1" target="_top" xlink:title=" ">
<polygon fill="#ffffff" stroke="#000000" points="158,-144.5 158,-163.5 294,-163.5 294,-144.5 158,-144.5"/>
<text text-anchor="middle" x="226" y="-151.5" font-family="Helvetica,sans-Serif" font-size="10.00" fill="#000000">VersionChecker::finished</text>
</a>
</g>
</g>
<!-- Node9&#45;&gt;Node11 -->
<g id="edge2" class="edge">
<title>Node9&#45;&gt;Node11</title>
<path fill="none" stroke="#191970" d="M122.4399,-165.9251C130.7377,-164.9696 139.34,-163.979 147.8797,-162.9957"/>
<polygon fill="#191970" stroke="#191970" points="148.3197,-166.4682 157.8536,-161.8472 147.5188,-159.5142 148.3197,-166.4682"/>
</g>
<!-- Node11&#45;&gt;Node10 -->
<g id="edge14" class="edge">
<title>Node11&#45;&gt;Node10</title>
<path fill="none" stroke="#191970" d="M270.4122,-163.589C293.9512,-168.6713 323.0567,-174.9554 347.9048,-180.3203"/>
<polygon fill="#191970" stroke="#191970" points="347.3937,-183.7906 357.9071,-182.4799 348.8711,-176.9482 347.3937,-183.7906"/>
</g>
<!-- Node12 -->
<g id="node4" class="node">
<title>Node12</title>
<g id="a_node4"><a xlink:href="../../d1/d50/classVersionChecker.html#af8f8317dce284f808638f6b5617571e6" target="_top" xlink:title=" ">
<polygon fill="#ffffff" stroke="#000000" points="330,-144.5 330,-163.5 474,-163.5 474,-144.5 330,-144.5"/>
<text text-anchor="middle" x="402" y="-151.5" font-family="Helvetica,sans-Serif" font-size="10.00" fill="#000000">VersionChecker::parseXml</text>
</a>
</g>
</g>
<!-- Node11&#45;&gt;Node12 -->
<g id="edge3" class="edge">
<title>Node11&#45;&gt;Node12</title>
<path fill="none" stroke="#191970" d="M294.0462,-154C302.4588,-154 311.1282,-154 319.7245,-154"/>
<polygon fill="#191970" stroke="#191970" points="319.7624,-157.5001 329.7623,-154 319.7623,-150.5001 319.7624,-157.5001"/>
</g>
<!-- Node13 -->
<g id="node5" class="node">
<title>Node13</title>
<g id="a_node5"><a xlink:href="../../d1/d50/classVersionChecker.html#a5f2d3f8ccd6f7ec4f5bfada5c88dfb96" target="_top" xlink:title=" ">
<polygon fill="#ffffff" stroke="#000000" points="510,-144.5 510,-163.5 660,-163.5 660,-144.5 510,-144.5"/>
<text text-anchor="middle" x="585" y="-151.5" font-family="Helvetica,sans-Serif" font-size="10.00" fill="#000000">VersionChecker::parseEntry</text>
</a>
</g>
</g>
<!-- Node12&#45;&gt;Node13 -->
<g id="edge4" class="edge">
<title>Node12&#45;&gt;Node13</title>
<path fill="none" stroke="#191970" d="M474.0638,-154C482.5467,-154 491.2633,-154 499.9034,-154"/>
<polygon fill="#191970" stroke="#191970" points="499.9925,-157.5001 509.9924,-154 499.9924,-150.5001 499.9925,-157.5001"/>
</g>
<!-- Node14 -->
<g id="node6" class="node">
<title>Node14</title>
<g id="a_node6"><a xlink:href="../../d5/d45/classVersion.html#a2f9fadcea2f74980def38f982adbdb6a" target="_top" xlink:title=" ">
<polygon fill="#ffffff" stroke="#000000" points="702,-182.5 702,-201.5 833,-201.5 833,-182.5 702,-182.5"/>
<text text-anchor="middle" x="767.5" y="-189.5" font-family="Helvetica,sans-Serif" font-size="10.00" fill="#000000">Version::toVersionThing</text>
</a>
</g>
</g>
<!-- Node13&#45;&gt;Node14 -->
<g id="edge5" class="edge">
<title>Node13&#45;&gt;Node14</title>
<path fill="none" stroke="#191970" d="M631.0525,-163.589C655.5692,-168.6939 685.9096,-175.0113 711.7502,-180.3918"/>
<polygon fill="#191970" stroke="#191970" points="711.2752,-183.8679 721.7787,-182.4799 712.7022,-177.0149 711.2752,-183.8679"/>
</g>
<!-- Node15 -->
<g id="node7" class="node">
<title>Node15</title>
<g id="a_node7"><a xlink:href="../../d5/d45/classVersion.html#aae492c7cd211637576a19cceb3fade2a" target="_top" xlink:title=" ">
<polygon fill="#ffffff" stroke="#000000" points="696,-87 696,-117 839,-117 839,-87 696,-87"/>
<text text-anchor="start" x="704" y="-105" font-family="Helvetica,sans-Serif" font-size="10.00" fill="#000000">Version::candidateGreater</text>
<text text-anchor="middle" x="767.5" y="-94" font-family="Helvetica,sans-Serif" font-size="10.00" fill="#000000">ThanCurrent</text>
</a>
</g>
</g>
<!-- Node13&#45;&gt;Node15 -->
<g id="edge6" class="edge">
<title>Node13&#45;&gt;Node15</title>
<path fill="none" stroke="#191970" d="M618.4733,-144.4624C642.6032,-137.587 675.8899,-128.1026 704.8845,-119.8411"/>
<polygon fill="#191970" stroke="#191970" points="705.8753,-123.1982 714.5334,-117.0918 703.9571,-116.4661 705.8753,-123.1982"/>
</g>
<!-- Node16 -->
<g id="node8" class="node">
<title>Node16</title>
<g id="a_node8"><a xlink:href="../../d5/d45/classVersion.html#a85f0fc372fd6bc05dda995d5fb87485a" target="_top" xlink:title=" ">
<polygon fill="#ffffff" stroke="#000000" points="886.5,-152.5 886.5,-171.5 1004.5,-171.5 1004.5,-152.5 886.5,-152.5"/>
<text text-anchor="middle" x="945.5" y="-159.5" font-family="Helvetica,sans-Serif" font-size="10.00" fill="#000000">Version::greaterThan</text>
</a>
</g>
</g>
<!-- Node13&#45;&gt;Node16 -->
<g id="edge13" class="edge">
<title>Node13&#45;&gt;Node16</title>
<path fill="none" stroke="#191970" d="M660.1338,-155.6673C723.7593,-157.0793 814.2445,-159.0873 876.1638,-160.4613"/>
<polygon fill="#191970" stroke="#191970" points="876.1546,-163.9619 886.2299,-160.6847 876.31,-156.9636 876.1546,-163.9619"/>
</g>
<!-- Node15&#45;&gt;Node16 -->
<g id="edge7" class="edge">
<title>Node15&#45;&gt;Node16</title>
<path fill="none" stroke="#191970" d="M804.483,-117.166C825.0646,-125.337 851.2512,-135.2928 875,-143 882.2099,-145.3398 889.898,-147.6232 897.4477,-149.7489"/>
<polygon fill="#191970" stroke="#191970" points="896.6706,-153.1651 907.2409,-152.4439 898.528,-146.416 896.6706,-153.1651"/>
</g>
<!-- Node18 -->
<g id="node10" class="node">
<title>Node18</title>
<g id="a_node10"><a xlink:href="../../d5/d45/classVersion.html#aa504195acc833501582defe678a051e1" target="_top" xlink:title=" ">
<polygon fill="#ffffff" stroke="#000000" points="884,-114.5 884,-133.5 1007,-133.5 1007,-114.5 884,-114.5"/>
<text text-anchor="middle" x="945.5" y="-121.5" font-family="Helvetica,sans-Serif" font-size="10.00" fill="#000000">Version::majorVersion</text>
</a>
</g>
</g>
<!-- Node15&#45;&gt;Node18 -->
<g id="edge9" class="edge">
<title>Node15&#45;&gt;Node18</title>
<path fill="none" stroke="#191970" d="M839.13,-110.8531C850.5618,-112.2661 862.3914,-113.7281 873.8242,-115.1412"/>
<polygon fill="#191970" stroke="#191970" points="873.3953,-118.6147 883.7492,-116.3679 874.254,-111.6676 873.3953,-118.6147"/>
</g>
<!-- Node19 -->
<g id="node11" class="node">
<title>Node19</title>
<g id="a_node11"><a xlink:href="../../d5/d45/classVersion.html#ab8bb5f12bb8579c38ce04af76cbf1670" target="_top" xlink:title=" ">
<polygon fill="#ffffff" stroke="#000000" points="875,-76.5 875,-95.5 1016,-95.5 1016,-76.5 875,-76.5"/>
<text text-anchor="middle" x="945.5" y="-83.5" font-family="Helvetica,sans-Serif" font-size="10.00" fill="#000000">Version::minorSubVersion</text>
</a>
</g>
</g>
<!-- Node15&#45;&gt;Node19 -->
<g id="edge10" class="edge">
<title>Node15&#45;&gt;Node19</title>
<path fill="none" stroke="#191970" d="M839.13,-95.5613C847.601,-94.7999 856.2904,-94.0188 864.875,-93.2472"/>
<polygon fill="#191970" stroke="#191970" points="865.2386,-96.7287 874.885,-92.3474 864.6118,-89.7568 865.2386,-96.7287"/>
</g>
<!-- Node20 -->
<g id="node12" class="node">
<title>Node20</title>
<g id="a_node12"><a xlink:href="../../d5/d45/classVersion.html#ad2d1ab1e7db952448a49f8a371f0a3ad" target="_top" xlink:title=" ">
<polygon fill="#ffffff" stroke="#000000" points="884,-38.5 884,-57.5 1007,-57.5 1007,-38.5 884,-38.5"/>
<text text-anchor="middle" x="945.5" y="-45.5" font-family="Helvetica,sans-Serif" font-size="10.00" fill="#000000">Version::minorVersion</text>
</a>
</g>
</g>
<!-- Node15&#45;&gt;Node20 -->
<g id="edge11" class="edge">
<title>Node15&#45;&gt;Node20</title>
<path fill="none" stroke="#191970" d="M812.0578,-86.9236C831.3402,-80.5472 854.2111,-73.1811 875,-67 882.7745,-64.6884 891.0668,-62.3454 899.1323,-60.1312"/>
<polygon fill="#191970" stroke="#191970" points="900.0742,-63.5022 908.8081,-57.5048 898.2404,-56.7467 900.0742,-63.5022"/>
</g>
<!-- Node21 -->
<g id="node13" class="node">
<title>Node21</title>
<g id="a_node13"><a xlink:href="../../d5/d45/classVersion.html#adb297b7560e265b338b10c97ce2ff99e" target="_top" xlink:title=" ">
<polygon fill="#ffffff" stroke="#000000" points="896,-.5 896,-19.5 995,-19.5 995,-.5 896,-.5"/>
<text text-anchor="middle" x="945.5" y="-7.5" font-family="Helvetica,sans-Serif" font-size="10.00" fill="#000000">Version::modifier</text>
</a>
</g>
</g>
<!-- Node15&#45;&gt;Node21 -->
<g id="edge12" class="edge">
<title>Node15&#45;&gt;Node21</title>
<path fill="none" stroke="#191970" d="M785.767,-86.7662C806.2868,-70.355 841.1636,-44.5138 875,-29 880.2411,-26.597 885.8453,-24.4481 891.5182,-22.5389"/>
<polygon fill="#191970" stroke="#191970" points="892.5784,-25.8746 901.078,-19.5495 890.4892,-19.1936 892.5784,-25.8746"/>
</g>
<!-- Node17 -->
<g id="node9" class="node">
<title>Node17</title>
<g id="a_node9"><a xlink:href="../../d5/d45/classVersion.html#af3646c052c72bdfd8d4ae4419e3767c4" target="_top" xlink:title=" ">
<polygon fill="#ffffff" stroke="#000000" points="1052,-152.5 1052,-171.5 1212,-171.5 1212,-152.5 1052,-152.5"/>
<text text-anchor="middle" x="1132" y="-159.5" font-family="Helvetica,sans-Serif" font-size="10.00" fill="#000000">Version::modifierGreaterThan</text>
</a>
</g>
</g>
<!-- Node16&#45;&gt;Node17 -->
<g id="edge8" class="edge">
<title>Node16&#45;&gt;Node17</title>
<path fill="none" stroke="#191970" d="M1004.5098,-162C1016.3828,-162 1029.1158,-162 1041.7744,-162"/>
<polygon fill="#191970" stroke="#191970" points="1041.8926,-165.5001 1051.8926,-162 1041.8925,-158.5001 1041.8926,-165.5001"/>
</g>
</g>
</svg>
