<?xml version="1.0" encoding="UTF-8" standalone="no"?>
<!DOCTYPE svg PUBLIC "-//W3C//DTD SVG 1.1//EN"
 "http://www.w3.org/Graphics/SVG/1.1/DTD/svg11.dtd">
<!-- Generated by graphviz version 2.40.1 (0)
 -->
<!-- Title: items/groundplane.h Pages: 1 -->
<!--zoomable 84 -->
<svg id="main" version="1.1" xmlns="http://www.w3.org/2000/svg" xmlns:xlink="http://www.w3.org/1999/xlink" xml:space="preserve" onload="init(evt)">
<style type="text/css"><![CDATA[
.edge:hover path { stroke: red; }
.edge:hover polygon { stroke: red; fill: red; }
]]></style>
<script type="text/javascript"><![CDATA[
var edges = document.getElementsByTagName('g');
if (edges && edges.length) {
  for (var i=0;i<edges.length;i++) {
    if (edges[i].id.substr(0,4)=='edge') {
      edges[i].setAttribute('class','edge');
    }
  }
}
]]></script>
        <defs>
                <circle id="rim" cx="0" cy="0" r="7"/>
                <circle id="rim2" cx="0" cy="0" r="3.5"/>
                <g id="zoomPlus">
                        <use xlink:href="#rim" fill="#404040">
                                <set attributeName="fill" to="#808080" begin="zoomplus.mouseover" end="zoomplus.mouseout"/>
                        </use>
                        <path d="M-4,0h8M0,-4v8" fill="none" stroke="white" stroke-width="1.5" pointer-events="none"/>
                </g>
                <g id="zoomMin">
                        <use xlink:href="#rim" fill="#404040">
                                <set attributeName="fill" to="#808080" begin="zoomminus.mouseover" end="zoomminus.mouseout"/>
                        </use>
                        <path d="M-4,0h8" fill="none" stroke="white" stroke-width="1.5" pointer-events="none"/>
                </g>
                <g id="dirArrow">
                        <path fill="none" stroke="white" stroke-width="1.5" d="M0,-3.0v7 M-2.5,-0.5L0,-3.0L2.5,-0.5"/>
                </g>
               <g id="resetDef">
                       <use xlink:href="#rim2" fill="#404040">
                               <set attributeName="fill" to="#808080" begin="reset.mouseover" end="reset.mouseout"/>
                       </use>
               </g>
        </defs>

<script type="text/javascript">
var viewWidth = 750;
var viewHeight = 84;
var sectionId = 'dynsection-1';
</script>
<script xlink:href="../../svgpan.js"/>
<svg id="graph" class="graph">
<g id="viewport">
<title>items/groundplane.h</title>
<polygon fill="#ffffff" stroke="transparent" points="-4,4 -4,-80 745.5,-80 745.5,4 -4,4"/>
<!-- Node52 -->
<g id="node1" class="node">
<title>Node52</title>
<g id="a_node1"><a xlink:title=" ">
<polygon fill="#bfbfbf" stroke="#000000" points="297,-56.5 297,-75.5 414,-75.5 414,-56.5 297,-56.5"/>
<text text-anchor="middle" x="355.5" y="-63.5" font-family="Helvetica,sans-Serif" font-size="10.00" fill="#000000">items/groundplane.h</text>
</a>
</g>
</g>
<!-- Node53 -->
<g id="node2" class="node">
<title>Node53</title>
<g id="a_node2"><a xlink:href="../../da/d99/panelizer_8cpp.html" target="_top" xlink:title=" ">
<polygon fill="#ffffff" stroke="#000000" points="0,-.5 0,-19.5 131,-19.5 131,-.5 0,-.5"/>
<text text-anchor="middle" x="65.5" y="-7.5" font-family="Helvetica,sans-Serif" font-size="10.00" fill="#000000">autoroute/panelizer.cpp</text>
</a>
</g>
</g>
<!-- Node52&#45;&gt;Node53 -->
<g id="edge1" class="edge">
<title>Node52&#45;&gt;Node53</title>
<path fill="none" stroke="#191970" d="M295.9518,-54.501C242.4776,-44.175 164.897,-29.1939 114.819,-19.5237"/>
<polygon fill="#191970" stroke="#191970" points="295.4945,-57.9773 305.9767,-56.4369 296.8217,-51.1043 295.4945,-57.9773"/>
</g>
<!-- Node54 -->
<g id="node3" class="node">
<title>Node54</title>
<g id="a_node3"><a xlink:href="../../d7/db2/groundplane_8cpp.html" target="_top" xlink:title=" ">
<polygon fill="#ffffff" stroke="#000000" points="149.5,-.5 149.5,-19.5 277.5,-19.5 277.5,-.5 149.5,-.5"/>
<text text-anchor="middle" x="213.5" y="-7.5" font-family="Helvetica,sans-Serif" font-size="10.00" fill="#000000">items/groundplane.cpp</text>
</a>
</g>
</g>
<!-- Node52&#45;&gt;Node54 -->
<g id="edge2" class="edge">
<title>Node52&#45;&gt;Node54</title>
<path fill="none" stroke="#191970" d="M321.6585,-52.6541C295.7634,-42.4419 260.6862,-28.6086 237.5921,-19.5011"/>
<polygon fill="#191970" stroke="#191970" points="320.5025,-55.9605 331.0893,-56.3733 323.0707,-49.4486 320.5025,-55.9605"/>
</g>
<!-- Node55 -->
<g id="node4" class="node">
<title>Node55</title>
<g id="a_node4"><a xlink:href="../../d7/d48/partfactory_8cpp.html" target="_top" xlink:title=" ">
<polygon fill="#ffffff" stroke="#000000" points="295.5,-.5 295.5,-19.5 415.5,-19.5 415.5,-.5 295.5,-.5"/>
<text text-anchor="middle" x="355.5" y="-7.5" font-family="Helvetica,sans-Serif" font-size="10.00" fill="#000000">items/partfactory.cpp</text>
</a>
</g>
</g>
<!-- Node52&#45;&gt;Node55 -->
<g id="edge3" class="edge">
<title>Node52&#45;&gt;Node55</title>
<path fill="none" stroke="#191970" d="M355.5,-46.1575C355.5,-37.155 355.5,-26.9199 355.5,-19.6427"/>
<polygon fill="#191970" stroke="#191970" points="352.0001,-46.2455 355.5,-56.2455 359.0001,-46.2456 352.0001,-46.2455"/>
</g>
<!-- Node56 -->
<g id="node5" class="node">
<title>Node56</title>
<g id="a_node5"><a xlink:href="../../de/d4c/pcbsketchwidget_8cpp.html" target="_top" xlink:title=" ">
<polygon fill="#ffffff" stroke="#000000" points="434,-.5 434,-19.5 587,-19.5 587,-.5 434,-.5"/>
<text text-anchor="middle" x="510.5" y="-7.5" font-family="Helvetica,sans-Serif" font-size="10.00" fill="#000000">sketch/pcbsketchwidget.cpp</text>
</a>
</g>
</g>
<!-- Node52&#45;&gt;Node56 -->
<g id="edge4" class="edge">
<title>Node52&#45;&gt;Node56</title>
<path fill="none" stroke="#191970" d="M391.6949,-52.9231C420.0297,-42.686 458.7718,-28.6889 484.2022,-19.5011"/>
<polygon fill="#191970" stroke="#191970" points="390.3612,-49.6835 382.1454,-56.3733 392.7398,-56.267 390.3612,-49.6835"/>
</g>
<!-- Node57 -->
<g id="node6" class="node">
<title>Node57</title>
<g id="a_node6"><a xlink:href="../../d2/d98/sketchwidget_8cpp.html" target="_top" xlink:title=" ">
<polygon fill="#ffffff" stroke="#000000" points="605.5,-.5 605.5,-19.5 741.5,-19.5 741.5,-.5 605.5,-.5"/>
<text text-anchor="middle" x="673.5" y="-7.5" font-family="Helvetica,sans-Serif" font-size="10.00" fill="#000000">sketch/sketchwidget.cpp</text>
</a>
</g>
</g>
<!-- Node52&#45;&gt;Node57 -->
<g id="edge5" class="edge">
<title>Node52&#45;&gt;Node57</title>
<path fill="none" stroke="#191970" d="M419.7036,-54.6937C478.3725,-44.3621 564.1636,-29.2542 619.4192,-19.5237"/>
<polygon fill="#191970" stroke="#191970" points="419.0462,-51.2555 409.8048,-56.4369 420.2603,-58.1494 419.0462,-51.2555"/>
</g>
</g>
</svg>
        <g id="navigator" transform="translate(0 0)" fill="#404254">
                <rect fill="#f2f5e9" fill-opacity="0.5" stroke="#606060" stroke-width=".5" x="0" y="0" width="60" height="60"/>
                <use id="zoomplus" xlink:href="#zoomPlus" x="17" y="9" onmousedown="handleZoom(evt,'in')"/>
                <use id="zoomminus" xlink:href="#zoomMin" x="42" y="9" onmousedown="handleZoom(evt,'out')"/>
                <use id="reset" xlink:href="#resetDef" x="30" y="36" onmousedown="handleReset()"/>
                <g id="arrowUp" xlink:href="#dirArrow" transform="translate(30 24)" onmousedown="handlePan(0,-1)">
                  <use xlink:href="#rim" fill="#404040">
                        <set attributeName="fill" to="#808080" begin="arrowUp.mouseover" end="arrowUp.mouseout"/>
                  </use>
                  <path fill="none" stroke="white" stroke-width="1.5" d="M0,-3.0v7 M-2.5,-0.5L0,-3.0L2.5,-0.5"/>
                </g>
                <g id="arrowRight" xlink:href="#dirArrow" transform="rotate(90) translate(36 -43)" onmousedown="handlePan(1,0)">
                  <use xlink:href="#rim" fill="#404040">
                        <set attributeName="fill" to="#808080" begin="arrowRight.mouseover" end="arrowRight.mouseout"/>
                  </use>
                  <path fill="none" stroke="white" stroke-width="1.5" d="M0,-3.0v7 M-2.5,-0.5L0,-3.0L2.5,-0.5"/>
                </g>
                <g id="arrowDown" xlink:href="#dirArrow" transform="rotate(180) translate(-30 -48)" onmousedown="handlePan(0,1)">
                  <use xlink:href="#rim" fill="#404040">
                        <set attributeName="fill" to="#808080" begin="arrowDown.mouseover" end="arrowDown.mouseout"/>
                  </use>
                  <path fill="none" stroke="white" stroke-width="1.5" d="M0,-3.0v7 M-2.5,-0.5L0,-3.0L2.5,-0.5"/>
                </g>
                <g id="arrowLeft" xlink:href="#dirArrow" transform="rotate(270) translate(-36 17)" onmousedown="handlePan(-1,0)">
                  <use xlink:href="#rim" fill="#404040">
                        <set attributeName="fill" to="#808080" begin="arrowLeft.mouseover" end="arrowLeft.mouseout"/>
                  </use>
                  <path fill="none" stroke="white" stroke-width="1.5" d="M0,-3.0v7 M-2.5,-0.5L0,-3.0L2.5,-0.5"/>
                </g>
        </g>
        <svg viewBox="0 0 15 15" width="100%" height="30px" preserveAspectRatio="xMaxYMin meet">
         <g id="arrow_out" transform="scale(0.3 0.3)">
          <a xlink:href="groundplane_8h__dep__incl_org.svg" target="_base">
           <rect id="button" ry="5" rx="5" y="6" x="6" height="38" width="38"
                fill="#f2f5e9" fill-opacity="0.5" stroke="#606060" stroke-width="1.0"/>
           <path id="arrow"
             d="M 11.500037,31.436501 C 11.940474,20.09759 22.043105,11.32322 32.158766,21.979434 L 37.068811,17.246167 C 37.068811,17.246167 37.088388,32 37.088388,32 L 22.160133,31.978069 C 22.160133,31.978069 26.997745,27.140456 26.997745,27.140456 C 18.528582,18.264221 13.291696,25.230495 11.500037,31.436501 z"
             style="fill:#404040;"/>
          </a>
         </g>
        </svg>
</svg>
