<?xml version="1.0" encoding="UTF-8" standalone="no"?>
<!DOCTYPE svg PUBLIC "-//W3C//DTD SVG 1.1//EN"
 "http://www.w3.org/Graphics/SVG/1.1/DTD/svg11.dtd">
<!-- Generated by graphviz version 2.40.1 (0)
 -->
<!-- Title: getAttrFontFamilies Pages: 1 -->
<svg width="830pt" height="28pt"
 viewBox="0.00 0.00 830.00 28.00" xmlns="http://www.w3.org/2000/svg" xmlns:xlink="http://www.w3.org/1999/xlink">
<g id="graph0" class="graph" transform="scale(1 1) rotate(0) translate(4 24)">
<title>getAttrFontFamilies</title>
<polygon fill="#ffffff" stroke="transparent" points="-4,4 -4,-24 826,-24 826,4 -4,4"/>
<!-- Node17 -->
<g id="node1" class="node">
<title>Node17</title>
<g id="a_node1"><a xlink:title=" ">
<polygon fill="#bfbfbf" stroke="#000000" points="710,-.5 710,-19.5 822,-19.5 822,-.5 710,-.5"/>
<text text-anchor="middle" x="766" y="-7.5" font-family="Helvetica,sans-Serif" font-size="10.00" fill="#000000">getAttrFontFamilies</text>
</a>
</g>
</g>
<!-- Node18 -->
<g id="node2" class="node">
<title>Node18</title>
<g id="a_node2"><a xlink:href="../../dc/d19/textutils_8cpp.html#a85995fa498aaccb417c21ba6b08e4791" target="_top" xlink:title=" ">
<polygon fill="#ffffff" stroke="#000000" points="525,-.5 525,-19.5 674,-19.5 674,-.5 525,-.5"/>
<text text-anchor="middle" x="599.5" y="-7.5" font-family="Helvetica,sans-Serif" font-size="10.00" fill="#000000">fixUnavailableFontFamilies</text>
</a>
</g>
</g>
<!-- Node17&#45;&gt;Node18 -->
<g id="edge1" class="edge">
<title>Node17&#45;&gt;Node18</title>
<path fill="none" stroke="#191970" d="M699.5661,-10C691.1991,-10 682.5957,-10 674.1131,-10"/>
<polygon fill="#191970" stroke="#191970" points="699.6307,-13.5001 709.6307,-10 699.6307,-6.5001 699.6307,-13.5001"/>
</g>
<!-- Node19 -->
<g id="node3" class="node">
<title>Node19</title>
<g id="a_node3"><a xlink:href="../../de/db8/classTextUtils.html#ad187c7a1d2becc43ec849953db9e03d7" target="_top" xlink:title=" ">
<polygon fill="#ffffff" stroke="#000000" points="385,-.5 385,-19.5 489,-19.5 489,-.5 385,-.5"/>
<text text-anchor="middle" x="437" y="-7.5" font-family="Helvetica,sans-Serif" font-size="10.00" fill="#000000">TextUtils::fixFonts</text>
</a>
</g>
</g>
<!-- Node18&#45;&gt;Node19 -->
<g id="edge2" class="edge">
<title>Node18&#45;&gt;Node19</title>
<path fill="none" stroke="#191970" d="M514.7483,-10C506.0941,-10 497.4929,-10 489.3385,-10"/>
<polygon fill="#191970" stroke="#191970" points="514.9084,-13.5001 524.9084,-10 514.9084,-6.5001 514.9084,-13.5001"/>
</g>
<!-- Node20 -->
<g id="node4" class="node">
<title>Node20</title>
<g id="a_node4"><a xlink:href="../../d6/d9a/classPEMainWindow.html#a15082ed2a9a2be7817db474cb6f6b921" target="_top" xlink:title=" ">
<polygon fill="#ffffff" stroke="#000000" points="200,-.5 200,-19.5 349,-19.5 349,-.5 200,-.5"/>
<text text-anchor="middle" x="274.5" y="-7.5" font-family="Helvetica,sans-Serif" font-size="10.00" fill="#000000">PEMainWindow::loadImage</text>
</a>
</g>
</g>
<!-- Node19&#45;&gt;Node20 -->
<g id="edge3" class="edge">
<title>Node19&#45;&gt;Node20</title>
<path fill="none" stroke="#191970" d="M374.6829,-10C366.3439,-10 357.7231,-10 349.1991,-10"/>
<polygon fill="#191970" stroke="#191970" points="374.6895,-13.5001 384.6895,-10 374.6895,-6.5001 374.6895,-13.5001"/>
</g>
<!-- Node21 -->
<g id="node5" class="node">
<title>Node21</title>
<g id="a_node5"><a xlink:href="../../d6/d9a/classPEMainWindow.html#a75b29809288068ade92be923ab97d0b1" target="_top" xlink:title=" ">
<polygon fill="#ffffff" stroke="#000000" points="0,-.5 0,-19.5 164,-19.5 164,-.5 0,-.5"/>
<text text-anchor="middle" x="82" y="-7.5" font-family="Helvetica,sans-Serif" font-size="10.00" fill="#000000">PEMainWindow::createActions</text>
</a>
</g>
</g>
<!-- Node20&#45;&gt;Node21 -->
<g id="edge4" class="edge">
<title>Node20&#45;&gt;Node21</title>
<path fill="none" stroke="#191970" d="M189.5312,-10C181.0505,-10 172.4514,-10 164.0021,-10"/>
<polygon fill="#191970" stroke="#191970" points="189.799,-13.5001 199.799,-10 189.7989,-6.5001 189.799,-13.5001"/>
</g>
</g>
</svg>
