<?xml version="1.0" encoding="UTF-8" standalone="no"?>
<!DOCTYPE svg PUBLIC "-//W3C//DTD SVG 1.1//EN"
 "http://www.w3.org/Graphics/SVG/1.1/DTD/svg11.dtd">
<!-- Generated by graphviz version 2.40.1 (0)
 -->
<!-- Title: ViewLayerCheckBox Pages: 1 -->
<svg width="1271pt" height="628pt"
 viewBox="0.00 0.00 1271.00 628.00" xmlns="http://www.w3.org/2000/svg" xmlns:xlink="http://www.w3.org/1999/xlink">
<g id="graph0" class="graph" transform="scale(1 1) rotate(0) translate(4 624)">
<title>ViewLayerCheckBox</title>
<polygon fill="#ffffff" stroke="transparent" points="-4,4 -4,-624 1267,-624 1267,4 -4,4"/>
<!-- Node2 -->
<g id="node1" class="node">
<title>Node2</title>
<g id="a_node1"><a xlink:title=" ">
<polygon fill="#bfbfbf" stroke="#000000" points="391.5,-.5 391.5,-90.5 534.5,-90.5 534.5,-.5 391.5,-.5"/>
<text text-anchor="middle" x="463" y="-78.5" font-family="Helvetica,sans-Serif" font-size="10.00" fill="#000000">ViewLayerCheckBox</text>
<polyline fill="none" stroke="#000000" points="391.5,-71.5 534.5,-71.5 "/>
<text text-anchor="middle" x="463" y="-59.5" font-family="Helvetica,sans-Serif" font-size="10.00" fill="#000000"> </text>
<polyline fill="none" stroke="#000000" points="391.5,-52.5 534.5,-52.5 "/>
<text text-anchor="start" x="399.5" y="-40.5" font-family="Helvetica,sans-Serif" font-size="10.00" fill="#000000">+ ViewLayerCheckBox()</text>
<text text-anchor="start" x="399.5" y="-29.5" font-family="Helvetica,sans-Serif" font-size="10.00" fill="#000000">+ ~ViewLayerCheckBox()</text>
<text text-anchor="start" x="399.5" y="-18.5" font-family="Helvetica,sans-Serif" font-size="10.00" fill="#000000">+ setViewLayer()</text>
<text text-anchor="start" x="399.5" y="-7.5" font-family="Helvetica,sans-Serif" font-size="10.00" fill="#000000">+ viewLayer()</text>
</a>
</g>
</g>
<!-- Node3 -->
<g id="node2" class="node">
<title>Node3</title>
<g id="a_node2"><a xlink:href="../../db/d06/classQCheckBox.html" target="_top" xlink:title=" ">
<polygon fill="#ffffff" stroke="#000000" points="410.5,-254 410.5,-311 483.5,-311 483.5,-254 410.5,-254"/>
<text text-anchor="middle" x="447" y="-299" font-family="Helvetica,sans-Serif" font-size="10.00" fill="#000000">QCheckBox</text>
<polyline fill="none" stroke="#000000" points="410.5,-292 483.5,-292 "/>
<text text-anchor="middle" x="447" y="-280" font-family="Helvetica,sans-Serif" font-size="10.00" fill="#000000"> </text>
<polyline fill="none" stroke="#000000" points="410.5,-273 483.5,-273 "/>
<text text-anchor="middle" x="447" y="-261" font-family="Helvetica,sans-Serif" font-size="10.00" fill="#000000"> </text>
</a>
</g>
</g>
<!-- Node3&#45;&gt;Node2 -->
<g id="edge1" class="edge">
<title>Node3&#45;&gt;Node2</title>
<path fill="none" stroke="#191970" d="M449.611,-243.8252C452.4395,-201.9274 456.9479,-135.1463 459.9405,-90.8182"/>
<polygon fill="none" stroke="#191970" points="446.1116,-243.6992 448.93,-253.9123 453.0957,-244.1708 446.1116,-243.6992"/>
</g>
<!-- Node4 -->
<g id="node3" class="node">
<title>Node4</title>
<g id="a_node3"><a xlink:href="../../d5/d9d/classViewLayer.html" target="_top" xlink:title=" ">
<polygon fill="#ffffff" stroke="#000000" points="501.5,-138.5 501.5,-426.5 648.5,-426.5 648.5,-138.5 501.5,-138.5"/>
<text text-anchor="middle" x="575" y="-414.5" font-family="Helvetica,sans-Serif" font-size="10.00" fill="#000000">ViewLayer</text>
<polyline fill="none" stroke="#000000" points="501.5,-407.5 648.5,-407.5 "/>
<text text-anchor="middle" x="575" y="-395.5" font-family="Helvetica,sans-Serif" font-size="10.00" fill="#000000"> </text>
<polyline fill="none" stroke="#000000" points="501.5,-388.5 648.5,-388.5 "/>
<text text-anchor="start" x="509.5" y="-376.5" font-family="Helvetica,sans-Serif" font-size="10.00" fill="#000000">+ ViewLayer()</text>
<text text-anchor="start" x="509.5" y="-365.5" font-family="Helvetica,sans-Serif" font-size="10.00" fill="#000000">+ ~ViewLayer()</text>
<text text-anchor="start" x="509.5" y="-354.5" font-family="Helvetica,sans-Serif" font-size="10.00" fill="#000000">+ action()</text>
<text text-anchor="start" x="509.5" y="-343.5" font-family="Helvetica,sans-Serif" font-size="10.00" fill="#000000">+ alreadyInLayer()</text>
<text text-anchor="start" x="509.5" y="-332.5" font-family="Helvetica,sans-Serif" font-size="10.00" fill="#000000">+ childLayers()</text>
<text text-anchor="start" x="509.5" y="-321.5" font-family="Helvetica,sans-Serif" font-size="10.00" fill="#000000">+ displayName()</text>
<text text-anchor="start" x="509.5" y="-310.5" font-family="Helvetica,sans-Serif" font-size="10.00" fill="#000000">+ fromBelow()</text>
<text text-anchor="start" x="509.5" y="-299.5" font-family="Helvetica,sans-Serif" font-size="10.00" fill="#000000">+ getZFromBelow()</text>
<text text-anchor="start" x="509.5" y="-288.5" font-family="Helvetica,sans-Serif" font-size="10.00" fill="#000000">+ includeChildLayers()</text>
<text text-anchor="start" x="509.5" y="-277.5" font-family="Helvetica,sans-Serif" font-size="10.00" fill="#000000">+ incrementZ()</text>
<text text-anchor="start" x="509.5" y="-266.5" font-family="Helvetica,sans-Serif" font-size="10.00" fill="#000000">and 13 more...</text>
<text text-anchor="start" x="509.5" y="-255.5" font-family="Helvetica,sans-Serif" font-size="10.00" fill="#000000">+ bottomLayers()</text>
<text text-anchor="start" x="509.5" y="-244.5" font-family="Helvetica,sans-Serif" font-size="10.00" fill="#000000">+ canConnect()</text>
<text text-anchor="start" x="509.5" y="-233.5" font-family="Helvetica,sans-Serif" font-size="10.00" fill="#000000">+ cleanup()</text>
<text text-anchor="start" x="509.5" y="-222.5" font-family="Helvetica,sans-Serif" font-size="10.00" fill="#000000">+ copperLayers()</text>
<text text-anchor="start" x="509.5" y="-211.5" font-family="Helvetica,sans-Serif" font-size="10.00" fill="#000000">+ drillLayers()</text>
<text text-anchor="start" x="509.5" y="-200.5" font-family="Helvetica,sans-Serif" font-size="10.00" fill="#000000">+ findAlternativeLayers()</text>
<text text-anchor="start" x="509.5" y="-189.5" font-family="Helvetica,sans-Serif" font-size="10.00" fill="#000000">+ getConnectorPElement()</text>
<text text-anchor="start" x="509.5" y="-178.5" font-family="Helvetica,sans-Serif" font-size="10.00" fill="#000000">+ getConnectorSvgIDs()</text>
<text text-anchor="start" x="509.5" y="-167.5" font-family="Helvetica,sans-Serif" font-size="10.00" fill="#000000">+ getZIncrement()</text>
<text text-anchor="start" x="509.5" y="-156.5" font-family="Helvetica,sans-Serif" font-size="10.00" fill="#000000">+ idFromXmlName()</text>
<text text-anchor="start" x="509.5" y="-145.5" font-family="Helvetica,sans-Serif" font-size="10.00" fill="#000000">and 18 more...</text>
</a>
</g>
</g>
<!-- Node4&#45;&gt;Node2 -->
<g id="edge2" class="edge">
<title>Node4&#45;&gt;Node2</title>
<path fill="none" stroke="#404040" d="M506.9439,-138.4885C500.8288,-125.5484 494.915,-113.0344 489.5133,-101.6041"/>
<polygon fill="none" stroke="#404040" points="489.4211,-101.4088 483.241,-97.6932 484.2939,-90.5593 490.474,-94.275 489.4211,-101.4088"/>
<text text-anchor="middle" x="534.5" y="-112" font-family="Helvetica,sans-Serif" font-size="10.00" fill="#000000"> #m_viewLayer</text>
</g>
<!-- Node4&#45;&gt;Node4 -->
<g id="edge8" class="edge">
<title>Node4&#45;&gt;Node4</title>
<path fill="none" stroke="#404040" d="M648.5926,-310.9238C659.292,-306.4121 666.5,-296.9375 666.5,-282.5 666.5,-273.251 663.5418,-266.0387 658.6026,-260.8632"/>
<polygon fill="none" stroke="#404040" points="658.5248,-260.8105 651.3139,-260.7541 648.5926,-254.0762 655.8035,-254.1326 658.5248,-260.8105"/>
<text text-anchor="middle" x="709" y="-280" font-family="Helvetica,sans-Serif" font-size="10.00" fill="#000000"> #m_parentLayer</text>
</g>
<!-- Node5 -->
<g id="node4" class="node">
<title>Node5</title>
<g id="a_node4"><a xlink:href="../../d9/d5b/classQObject.html" target="_top" xlink:title=" ">
<polygon fill="#ffffff" stroke="#000000" points="0,-557 0,-614 56,-614 56,-557 0,-557"/>
<text text-anchor="middle" x="28" y="-602" font-family="Helvetica,sans-Serif" font-size="10.00" fill="#000000">QObject</text>
<polyline fill="none" stroke="#000000" points="0,-595 56,-595 "/>
<text text-anchor="middle" x="28" y="-583" font-family="Helvetica,sans-Serif" font-size="10.00" fill="#000000"> </text>
<polyline fill="none" stroke="#000000" points="0,-576 56,-576 "/>
<text text-anchor="middle" x="28" y="-564" font-family="Helvetica,sans-Serif" font-size="10.00" fill="#000000"> </text>
</a>
</g>
</g>
<!-- Node5&#45;&gt;Node4 -->
<g id="edge3" class="edge">
<title>Node5&#45;&gt;Node4</title>
<path fill="none" stroke="#191970" d="M37.7041,-546.9071C48.2808,-513.6807 68.752,-467.6202 105,-445 178.2266,-399.3038 419.4368,-472.1523 493,-427 495.8271,-425.2648 498.5656,-423.3938 501.2179,-421.4029"/>
<polygon fill="none" stroke="#191970" points="34.2672,-546.182 34.7328,-556.7666 40.9694,-548.2019 34.2672,-546.182"/>
</g>
<!-- Node6 -->
<g id="node5" class="node">
<title>Node6</title>
<g id="a_node5"><a xlink:title=" ">
<polygon fill="#ffffff" stroke="#bfbfbf" points="74,-557 74,-614 152,-614 152,-557 74,-557"/>
<text text-anchor="middle" x="113" y="-602" font-family="Helvetica,sans-Serif" font-size="10.00" fill="#000000">ViewLayerID</text>
<polyline fill="none" stroke="#bfbfbf" points="74,-595 152,-595 "/>
<text text-anchor="middle" x="113" y="-583" font-family="Helvetica,sans-Serif" font-size="10.00" fill="#000000"> </text>
<polyline fill="none" stroke="#bfbfbf" points="74,-576 152,-576 "/>
<text text-anchor="middle" x="113" y="-564" font-family="Helvetica,sans-Serif" font-size="10.00" fill="#000000"> </text>
</a>
</g>
</g>
<!-- Node6&#45;&gt;Node4 -->
<g id="edge4" class="edge">
<title>Node6&#45;&gt;Node4</title>
<path fill="none" stroke="#404040" d="M108.9911,-556.8414C106.2493,-524.3858 107.6496,-472.4581 139,-445 166.6598,-420.7743 422.0032,-444.1157 489.7482,-425.929"/>
<polygon fill="none" stroke="#404040" points="490.0521,-425.8085 494.1555,-419.8787 501.2073,-421.3857 497.104,-427.3155 490.0521,-425.8085"/>
<text text-anchor="middle" x="183" y="-486.5" font-family="Helvetica,sans-Serif" font-size="10.00" fill="#000000"> #m_viewLayerID</text>
</g>
<!-- Node7 -->
<g id="node6" class="node">
<title>Node7</title>
<g id="a_node6"><a xlink:title=" ">
<polygon fill="#ffffff" stroke="#bfbfbf" points="170.5,-551.5 170.5,-619.5 325.5,-619.5 325.5,-551.5 170.5,-551.5"/>
<text text-anchor="start" x="178.5" y="-607.5" font-family="Helvetica,sans-Serif" font-size="10.00" fill="#000000">static QHash&lt; ViewLayerID,</text>
<text text-anchor="middle" x="248" y="-596.5" font-family="Helvetica,sans-Serif" font-size="10.00" fill="#000000"> NamePair * &gt;</text>
<polyline fill="none" stroke="#bfbfbf" points="170.5,-589.5 325.5,-589.5 "/>
<text text-anchor="middle" x="248" y="-577.5" font-family="Helvetica,sans-Serif" font-size="10.00" fill="#000000"> </text>
<polyline fill="none" stroke="#bfbfbf" points="170.5,-570.5 325.5,-570.5 "/>
<text text-anchor="middle" x="248" y="-558.5" font-family="Helvetica,sans-Serif" font-size="10.00" fill="#000000"> </text>
</a>
</g>
</g>
<!-- Node7&#45;&gt;Node4 -->
<g id="edge5" class="edge">
<title>Node7&#45;&gt;Node4</title>
<path fill="none" stroke="#404040" d="M237.5321,-551.4506C230.0601,-519.5707 225.4568,-472.7956 252,-445 286.8442,-408.5117 428.8769,-450.0567 490.6083,-426.4452"/>
<polygon fill="none" stroke="#404040" points="490.7493,-426.3751 494.3394,-420.1211 501.493,-421.0297 497.9029,-427.2836 490.7493,-426.3751"/>
<text text-anchor="middle" x="274.5" y="-486.5" font-family="Helvetica,sans-Serif" font-size="10.00" fill="#000000"> #names</text>
</g>
<!-- Node8 -->
<g id="node7" class="node">
<title>Node8</title>
<g id="a_node7"><a xlink:title=" ">
<polygon fill="#ffffff" stroke="#bfbfbf" points="344,-557 344,-614 394,-614 394,-557 344,-557"/>
<text text-anchor="middle" x="369" y="-602" font-family="Helvetica,sans-Serif" font-size="10.00" fill="#000000">double</text>
<polyline fill="none" stroke="#bfbfbf" points="344,-595 394,-595 "/>
<text text-anchor="middle" x="369" y="-583" font-family="Helvetica,sans-Serif" font-size="10.00" fill="#000000"> </text>
<polyline fill="none" stroke="#bfbfbf" points="344,-576 394,-576 "/>
<text text-anchor="middle" x="369" y="-564" font-family="Helvetica,sans-Serif" font-size="10.00" fill="#000000"> </text>
</a>
</g>
</g>
<!-- Node8&#45;&gt;Node4 -->
<g id="edge6" class="edge">
<title>Node8&#45;&gt;Node4</title>
<path fill="none" stroke="#404040" d="M343.7698,-559.8572C340.8165,-556.8679 337.8438,-553.8646 335,-551 327.0292,-542.9709 321.3296,-543.4525 317,-533 302.0328,-496.866 290.7889,-474.0285 317,-445 341.2894,-418.0997 442.39,-443.7619 490.4315,-426.3376"/>
<polygon fill="none" stroke="#404040" points="490.6591,-426.2254 494.2731,-419.9853 501.4232,-420.9211 497.8093,-427.1613 490.6591,-426.2254"/>
<text text-anchor="middle" x="373.5" y="-503" font-family="Helvetica,sans-Serif" font-size="10.00" fill="#000000"> #m_initialZ</text>
<text text-anchor="middle" x="373.5" y="-492" font-family="Helvetica,sans-Serif" font-size="10.00" fill="#000000">#m_initialZFromBelow</text>
<text text-anchor="middle" x="373.5" y="-481" font-family="Helvetica,sans-Serif" font-size="10.00" fill="#000000">#zIncrement</text>
<text text-anchor="middle" x="373.5" y="-470" font-family="Helvetica,sans-Serif" font-size="10.00" fill="#000000">#m_nextZ</text>
</g>
<!-- Node9 -->
<g id="node8" class="node">
<title>Node9</title>
<g id="a_node8"><a xlink:title=" ">
<polygon fill="#ffffff" stroke="#bfbfbf" points="425.5,-557 425.5,-614 478.5,-614 478.5,-557 425.5,-557"/>
<text text-anchor="middle" x="452" y="-602" font-family="Helvetica,sans-Serif" font-size="10.00" fill="#000000">QString</text>
<polyline fill="none" stroke="#bfbfbf" points="425.5,-595 478.5,-595 "/>
<text text-anchor="middle" x="452" y="-583" font-family="Helvetica,sans-Serif" font-size="10.00" fill="#000000"> </text>
<polyline fill="none" stroke="#bfbfbf" points="425.5,-576 478.5,-576 "/>
<text text-anchor="middle" x="452" y="-564" font-family="Helvetica,sans-Serif" font-size="10.00" fill="#000000"> </text>
</a>
</g>
</g>
<!-- Node9&#45;&gt;Node4 -->
<g id="edge7" class="edge">
<title>Node9&#45;&gt;Node4</title>
<path fill="none" stroke="#404040" d="M442.475,-556.9766C434.2012,-526.5385 426.6974,-478.2205 449,-445 459.1208,-429.9248 472.6256,-437.773 491.5112,-426.487"/>
<polygon fill="none" stroke="#404040" points="491.6126,-426.4112 494.0226,-419.6147 501.2232,-419.2252 498.8132,-426.0217 491.6126,-426.4112"/>
<text text-anchor="middle" x="499" y="-525" font-family="Helvetica,sans-Serif" font-size="10.00" fill="#000000"> +Copper1WireColor</text>
<text text-anchor="middle" x="499" y="-514" font-family="Helvetica,sans-Serif" font-size="10.00" fill="#000000">+BoardColor</text>
<text text-anchor="middle" x="499" y="-503" font-family="Helvetica,sans-Serif" font-size="10.00" fill="#000000">+HolesColor</text>
<text text-anchor="middle" x="499" y="-492" font-family="Helvetica,sans-Serif" font-size="10.00" fill="#000000">+Copper1Color</text>
<text text-anchor="middle" x="499" y="-481" font-family="Helvetica,sans-Serif" font-size="10.00" fill="#000000">+Copper0Color</text>
<text text-anchor="middle" x="499" y="-470" font-family="Helvetica,sans-Serif" font-size="10.00" fill="#000000">+Silkscreen1Color</text>
<text text-anchor="middle" x="499" y="-459" font-family="Helvetica,sans-Serif" font-size="10.00" fill="#000000">+Silkscreen0Color</text>
<text text-anchor="middle" x="499" y="-448" font-family="Helvetica,sans-Serif" font-size="10.00" fill="#000000">+Copper0WireColor</text>
</g>
<!-- Node10 -->
<g id="node9" class="node">
<title>Node10</title>
<g id="a_node9"><a xlink:title=" ">
<polygon fill="#ffffff" stroke="#bfbfbf" points="511.5,-557 511.5,-614 574.5,-614 574.5,-557 511.5,-557"/>
<text text-anchor="middle" x="543" y="-602" font-family="Helvetica,sans-Serif" font-size="10.00" fill="#000000">QAction *</text>
<polyline fill="none" stroke="#bfbfbf" points="511.5,-595 574.5,-595 "/>
<text text-anchor="middle" x="543" y="-583" font-family="Helvetica,sans-Serif" font-size="10.00" fill="#000000"> </text>
<polyline fill="none" stroke="#bfbfbf" points="511.5,-576 574.5,-576 "/>
<text text-anchor="middle" x="543" y="-564" font-family="Helvetica,sans-Serif" font-size="10.00" fill="#000000"> </text>
</a>
</g>
</g>
<!-- Node10&#45;&gt;Node4 -->
<g id="edge9" class="edge">
<title>Node10&#45;&gt;Node4</title>
<path fill="none" stroke="#404040" d="M548.9735,-556.9765C550.4491,-549.2239 551.9158,-540.8118 553,-533 557.2308,-502.5166 560.7998,-469.8267 563.7506,-438.457"/>
<polygon fill="none" stroke="#404040" points="563.7506,-438.4557 560.3179,-432.1141 564.8514,-426.5063 568.2841,-432.8479 563.7506,-438.4557"/>
<text text-anchor="middle" x="590.5" y="-486.5" font-family="Helvetica,sans-Serif" font-size="10.00" fill="#000000"> #m_action</text>
</g>
<!-- Node11 -->
<g id="node10" class="node">
<title>Node11</title>
<g id="a_node10"><a xlink:title=" ">
<polygon fill="#ffffff" stroke="#bfbfbf" points="593,-551.5 593,-619.5 721,-619.5 721,-551.5 593,-551.5"/>
<text text-anchor="start" x="601" y="-607.5" font-family="Helvetica,sans-Serif" font-size="10.00" fill="#000000">static QHash&lt; ViewID,</text>
<text text-anchor="middle" x="657" y="-596.5" font-family="Helvetica,sans-Serif" font-size="10.00" fill="#000000"> class NameTriple * &gt;</text>
<polyline fill="none" stroke="#bfbfbf" points="593,-589.5 721,-589.5 "/>
<text text-anchor="middle" x="657" y="-577.5" font-family="Helvetica,sans-Serif" font-size="10.00" fill="#000000"> </text>
<polyline fill="none" stroke="#bfbfbf" points="593,-570.5 721,-570.5 "/>
<text text-anchor="middle" x="657" y="-558.5" font-family="Helvetica,sans-Serif" font-size="10.00" fill="#000000"> </text>
</a>
</g>
</g>
<!-- Node11&#45;&gt;Node4 -->
<g id="edge10" class="edge">
<title>Node11&#45;&gt;Node4</title>
<path fill="none" stroke="#404040" d="M649.2282,-551.3103C642.624,-522.7852 632.6971,-481.1144 623,-445 622.4243,-442.8559 621.8408,-440.697 621.2505,-438.526"/>
<polygon fill="none" stroke="#404040" points="621.2126,-438.3878 615.7663,-433.6616 618.0342,-426.8164 623.4805,-431.5426 621.2126,-438.3878"/>
<text text-anchor="middle" x="684.5" y="-486.5" font-family="Helvetica,sans-Serif" font-size="10.00" fill="#000000"> #ViewIDNames</text>
</g>
<!-- Node12 -->
<g id="node11" class="node">
<title>Node12</title>
<g id="a_node11"><a xlink:title=" ">
<polygon fill="#ffffff" stroke="#bfbfbf" points="740,-557 740,-614 778,-614 778,-557 740,-557"/>
<text text-anchor="middle" x="759" y="-602" font-family="Helvetica,sans-Serif" font-size="10.00" fill="#000000">bool</text>
<polyline fill="none" stroke="#bfbfbf" points="740,-595 778,-595 "/>
<text text-anchor="middle" x="759" y="-583" font-family="Helvetica,sans-Serif" font-size="10.00" fill="#000000"> </text>
<polyline fill="none" stroke="#bfbfbf" points="740,-576 778,-576 "/>
<text text-anchor="middle" x="759" y="-564" font-family="Helvetica,sans-Serif" font-size="10.00" fill="#000000"> </text>
</a>
</g>
</g>
<!-- Node12&#45;&gt;Node4 -->
<g id="edge11" class="edge">
<title>Node12&#45;&gt;Node4</title>
<path fill="none" stroke="#404040" d="M757.4233,-556.771C754.7899,-527.2338 747.7603,-480.6464 729,-445 711.0324,-410.8598 683.8468,-378.7649 657.2924,-352.2615"/>
<polygon fill="none" stroke="#404040" points="657.2817,-352.251 650.1957,-350.913 648.7055,-343.8575 655.7914,-345.1955 657.2817,-352.251"/>
<text text-anchor="middle" x="812" y="-503" font-family="Helvetica,sans-Serif" font-size="10.00" fill="#000000"> #m_fromBelow</text>
<text text-anchor="middle" x="812" y="-492" font-family="Helvetica,sans-Serif" font-size="10.00" fill="#000000">#m_includeChildLayers</text>
<text text-anchor="middle" x="812" y="-481" font-family="Helvetica,sans-Serif" font-size="10.00" fill="#000000">#m_visible</text>
<text text-anchor="middle" x="812" y="-470" font-family="Helvetica,sans-Serif" font-size="10.00" fill="#000000">#m_active</text>
</g>
<!-- Node13 -->
<g id="node12" class="node">
<title>Node13</title>
<g id="a_node12"><a xlink:title=" ">
<polygon fill="#ffffff" stroke="#bfbfbf" points="814.5,-551.5 814.5,-619.5 943.5,-619.5 943.5,-551.5 814.5,-551.5"/>
<text text-anchor="start" x="822.5" y="-607.5" font-family="Helvetica,sans-Serif" font-size="10.00" fill="#000000">static QHash&lt; QString,</text>
<text text-anchor="middle" x="879" y="-596.5" font-family="Helvetica,sans-Serif" font-size="10.00" fill="#000000"> ViewLayerID &gt;</text>
<polyline fill="none" stroke="#bfbfbf" points="814.5,-589.5 943.5,-589.5 "/>
<text text-anchor="middle" x="879" y="-577.5" font-family="Helvetica,sans-Serif" font-size="10.00" fill="#000000"> </text>
<polyline fill="none" stroke="#bfbfbf" points="814.5,-570.5 943.5,-570.5 "/>
<text text-anchor="middle" x="879" y="-558.5" font-family="Helvetica,sans-Serif" font-size="10.00" fill="#000000"> </text>
</a>
</g>
</g>
<!-- Node13&#45;&gt;Node4 -->
<g id="edge12" class="edge">
<title>Node13&#45;&gt;Node4</title>
<path fill="none" stroke="#404040" d="M886.7209,-551.286C891.5885,-521.0244 893.7193,-476.8567 874,-445 826.8707,-368.8621 730.7431,-325.9194 660.1546,-303.5534"/>
<polygon fill="none" stroke="#404040" points="660.0864,-303.5325 653.176,-305.5934 648.6159,-300.0072 655.5263,-297.9464 660.0864,-303.5325"/>
<text text-anchor="middle" x="917.5" y="-486.5" font-family="Helvetica,sans-Serif" font-size="10.00" fill="#000000"> #xmlHash</text>
</g>
<!-- Node14 -->
<g id="node13" class="node">
<title>Node14</title>
<g id="a_node13"><a xlink:title=" ">
<polygon fill="#ffffff" stroke="#bfbfbf" points="961.5,-557 961.5,-614 1084.5,-614 1084.5,-557 961.5,-557"/>
<text text-anchor="middle" x="1023" y="-602" font-family="Helvetica,sans-Serif" font-size="10.00" fill="#000000">QList&lt; ViewLayer * &gt;</text>
<polyline fill="none" stroke="#bfbfbf" points="961.5,-595 1084.5,-595 "/>
<text text-anchor="middle" x="1023" y="-583" font-family="Helvetica,sans-Serif" font-size="10.00" fill="#000000"> </text>
<polyline fill="none" stroke="#bfbfbf" points="961.5,-576 1084.5,-576 "/>
<text text-anchor="middle" x="1023" y="-564" font-family="Helvetica,sans-Serif" font-size="10.00" fill="#000000"> </text>
</a>
</g>
</g>
<!-- Node14&#45;&gt;Node4 -->
<g id="edge13" class="edge">
<title>Node14&#45;&gt;Node4</title>
<path fill="none" stroke="#404040" d="M1014.3348,-556.873C1003.5764,-525.6617 982.4479,-476.0323 949,-445 866.7635,-368.7025 743.0417,-324.5989 660.6982,-302.0667"/>
<polygon fill="none" stroke="#404040" points="660.4511,-302.0006 653.6208,-304.313 648.8593,-298.8975 655.6896,-296.5851 660.4511,-302.0006"/>
<text text-anchor="middle" x="1044" y="-486.5" font-family="Helvetica,sans-Serif" font-size="10.00" fill="#000000"> #m_childLayers</text>
</g>
<!-- Node15 -->
<g id="node14" class="node">
<title>Node15</title>
<g id="a_node14"><a xlink:title=" ">
<polygon fill="#ffffff" stroke="#bfbfbf" points="1103,-551.5 1103,-619.5 1263,-619.5 1263,-551.5 1103,-551.5"/>
<text text-anchor="start" x="1111" y="-607.5" font-family="Helvetica,sans-Serif" font-size="10.00" fill="#000000">static QMultiHash&lt;</text>
<text text-anchor="middle" x="1183" y="-596.5" font-family="Helvetica,sans-Serif" font-size="10.00" fill="#000000"> ViewLayerID, ViewLayerID &gt;</text>
<polyline fill="none" stroke="#bfbfbf" points="1103,-589.5 1263,-589.5 "/>
<text text-anchor="middle" x="1183" y="-577.5" font-family="Helvetica,sans-Serif" font-size="10.00" fill="#000000"> </text>
<polyline fill="none" stroke="#bfbfbf" points="1103,-570.5 1263,-570.5 "/>
<text text-anchor="middle" x="1183" y="-558.5" font-family="Helvetica,sans-Serif" font-size="10.00" fill="#000000"> </text>
</a>
</g>
</g>
<!-- Node15&#45;&gt;Node4 -->
<g id="edge14" class="edge">
<title>Node15&#45;&gt;Node4</title>
<path fill="none" stroke="#404040" d="M1168.3816,-551.4262C1153.0327,-519.5283 1125.9737,-472.7405 1089,-445 959.2984,-347.6878 769.7287,-307.6635 660.7326,-291.9565"/>
<polygon fill="none" stroke="#404040" points="660.7061,-291.9528 654.2099,-295.0833 648.8218,-290.2908 655.318,-287.1604 660.7061,-291.9528"/>
<text text-anchor="middle" x="1202" y="-492" font-family="Helvetica,sans-Serif" font-size="10.00" fill="#000000"> #unconnectables</text>
<text text-anchor="middle" x="1202" y="-481" font-family="Helvetica,sans-Serif" font-size="10.00" fill="#000000">#alternatives</text>
</g>
</g>
</svg>
