<?xml version="1.0" encoding="UTF-8" standalone="no"?>
<!DOCTYPE svg PUBLIC "-//W3C//DTD SVG 1.1//EN"
 "http://www.w3.org/Graphics/SVG/1.1/DTD/svg11.dtd">
<!-- Generated by graphviz version 2.40.1 (0)
 -->
<!-- Title: WelcomeView::newSketch Pages: 1 -->
<!--zoomable 56 -->
<svg id="main" version="1.1" xmlns="http://www.w3.org/2000/svg" xmlns:xlink="http://www.w3.org/1999/xlink" xml:space="preserve" onload="init(evt)">
<style type="text/css"><![CDATA[
.edge:hover path { stroke: red; }
.edge:hover polygon { stroke: red; fill: red; }
]]></style>
<script type="text/javascript"><![CDATA[
var edges = document.getElementsByTagName('g');
if (edges && edges.length) {
  for (var i=0;i<edges.length;i++) {
    if (edges[i].id.substr(0,4)=='edge') {
      edges[i].setAttribute('class','edge');
    }
  }
}
]]></script>
        <defs>
                <circle id="rim" cx="0" cy="0" r="7"/>
                <circle id="rim2" cx="0" cy="0" r="3.5"/>
                <g id="zoomPlus">
                        <use xlink:href="#rim" fill="#404040">
                                <set attributeName="fill" to="#808080" begin="zoomplus.mouseover" end="zoomplus.mouseout"/>
                        </use>
                        <path d="M-4,0h8M0,-4v8" fill="none" stroke="white" stroke-width="1.5" pointer-events="none"/>
                </g>
                <g id="zoomMin">
                        <use xlink:href="#rim" fill="#404040">
                                <set attributeName="fill" to="#808080" begin="zoomminus.mouseover" end="zoomminus.mouseout"/>
                        </use>
                        <path d="M-4,0h8" fill="none" stroke="white" stroke-width="1.5" pointer-events="none"/>
                </g>
                <g id="dirArrow">
                        <path fill="none" stroke="white" stroke-width="1.5" d="M0,-3.0v7 M-2.5,-0.5L0,-3.0L2.5,-0.5"/>
                </g>
               <g id="resetDef">
                       <use xlink:href="#rim2" fill="#404040">
                               <set attributeName="fill" to="#808080" begin="reset.mouseover" end="reset.mouseout"/>
                       </use>
               </g>
        </defs>

<script type="text/javascript">
var viewWidth = 1092;
var viewHeight = 56;
var sectionId = 'dynsection-32';
</script>
<script xlink:href="../../svgpan.js"/>
<svg id="graph" class="graph">
<g id="viewport">
<title>WelcomeView::newSketch</title>
<polygon fill="#ffffff" stroke="transparent" points="-4,4 -4,-52 1088,-52 1088,4 -4,4"/>
<!-- Node189 -->
<g id="node1" class="node">
<title>Node189</title>
<g id="a_node1"><a xlink:title=" ">
<polygon fill="#bfbfbf" stroke="#000000" points="941,-19.5 941,-38.5 1084,-38.5 1084,-19.5 941,-19.5"/>
<text text-anchor="middle" x="1012.5" y="-26.5" font-family="Helvetica,sans-Serif" font-size="10.00" fill="#000000">WelcomeView::newSketch</text>
</a>
</g>
</g>
<!-- Node190 -->
<g id="node2" class="node">
<title>Node190</title>
<g id="a_node2"><a xlink:href="../../db/d09/classWelcomeView.html#aa321afc01330ea17c2cec375a496236a" target="_top" xlink:title=" ">
<polygon fill="#ffffff" stroke="#000000" points="0,-19.5 0,-38.5 160,-38.5 160,-19.5 0,-19.5"/>
<text text-anchor="middle" x="80" y="-26.5" font-family="Helvetica,sans-Serif" font-size="10.00" fill="#000000">WelcomeView::WelcomeView</text>
</a>
</g>
</g>
<!-- Node189&#45;&gt;Node190 -->
<g id="edge1" class="edge">
<title>Node189&#45;&gt;Node190</title>
<path fill="none" stroke="#191970" d="M930.8465,-35.4837C854.4275,-40.9881 737.0524,-48 635,-48 635,-48 635,-48 442,-48 344.9247,-48 233.4074,-41.102 160.0954,-35.6186"/>
<polygon fill="#191970" stroke="#191970" points="931.1678,-38.9697 940.887,-34.7522 930.659,-31.9882 931.1678,-38.9697"/>
</g>
<!-- Node191 -->
<g id="node3" class="node">
<title>Node191</title>
<g id="a_node3"><a xlink:href="../../db/d09/classWelcomeView.html#ad8b10f183708eff99a1338a9dea5da51" target="_top" xlink:title=" ">
<polygon fill="#ffffff" stroke="#000000" points="758,-.5 758,-19.5 905,-19.5 905,-.5 758,-.5"/>
<text text-anchor="middle" x="831.5" y="-7.5" font-family="Helvetica,sans-Serif" font-size="10.00" fill="#000000">WelcomeView::clickRecent</text>
</a>
</g>
</g>
<!-- Node189&#45;&gt;Node191 -->
<g id="edge2" class="edge">
<title>Node189&#45;&gt;Node191</title>
<path fill="none" stroke="#191970" d="M930.9551,-20.44C922.3706,-19.5389 913.6775,-18.6264 905.189,-17.7353"/>
<polygon fill="#191970" stroke="#191970" points="930.6532,-23.9275 940.964,-21.4907 931.3841,-16.9657 930.6532,-23.9275"/>
</g>
<!-- Node192 -->
<g id="node4" class="node">
<title>Node192</title>
<g id="a_node4"><a xlink:href="../../db/d09/classWelcomeView.html#a6f1da454658f9dd604c3498fd16c8eb3" target="_top" xlink:title=" ">
<polygon fill="#ffffff" stroke="#000000" points="548,-.5 548,-19.5 722,-19.5 722,-.5 548,-.5"/>
<text text-anchor="middle" x="635" y="-7.5" font-family="Helvetica,sans-Serif" font-size="10.00" fill="#000000">WelcomeView::makeRecentItem</text>
</a>
</g>
</g>
<!-- Node191&#45;&gt;Node192 -->
<g id="edge3" class="edge">
<title>Node191&#45;&gt;Node192</title>
<path fill="none" stroke="#191970" d="M747.5607,-10C739.1169,-10 730.529,-10 722.0537,-10"/>
<polygon fill="#191970" stroke="#191970" points="747.7716,-13.5001 757.7716,-10 747.7716,-6.5001 747.7716,-13.5001"/>
</g>
<!-- Node193 -->
<g id="node5" class="node">
<title>Node193</title>
<g id="a_node5"><a xlink:href="../../db/d09/classWelcomeView.html#a7837f4e608daf09e7592e8b4eabe338e" target="_top" xlink:title=" ">
<polygon fill="#ffffff" stroke="#000000" points="372,-.5 372,-19.5 512,-19.5 512,-.5 372,-.5"/>
<text text-anchor="middle" x="442" y="-7.5" font-family="Helvetica,sans-Serif" font-size="10.00" fill="#000000">WelcomeView::initRecent</text>
</a>
</g>
</g>
<!-- Node192&#45;&gt;Node193 -->
<g id="edge4" class="edge">
<title>Node192&#45;&gt;Node193</title>
<path fill="none" stroke="#191970" d="M537.673,-10C529.0213,-10 520.3786,-10 512.0228,-10"/>
<polygon fill="#191970" stroke="#191970" points="537.8167,-13.5001 547.8167,-10 537.8166,-6.5001 537.8167,-13.5001"/>
</g>
<!-- Node194 -->
<g id="node6" class="node">
<title>Node194</title>
<g id="a_node6"><a xlink:href="../../db/d09/classWelcomeView.html#a1c0572c3cefd34563725b7075491f745" target="_top" xlink:title=" ">
<polygon fill="#ffffff" stroke="#000000" points="196,-.5 196,-19.5 336,-19.5 336,-.5 196,-.5"/>
<text text-anchor="middle" x="266" y="-7.5" font-family="Helvetica,sans-Serif" font-size="10.00" fill="#000000">WelcomeView::initLayout</text>
</a>
</g>
</g>
<!-- Node193&#45;&gt;Node194 -->
<g id="edge5" class="edge">
<title>Node193&#45;&gt;Node194</title>
<path fill="none" stroke="#191970" d="M361.8994,-10C353.2942,-10 344.5876,-10 336.112,-10"/>
<polygon fill="#191970" stroke="#191970" points="361.9345,-13.5001 371.9344,-10 361.9344,-6.5001 361.9345,-13.5001"/>
</g>
<!-- Node194&#45;&gt;Node190 -->
<g id="edge6" class="edge">
<title>Node194&#45;&gt;Node190</title>
<path fill="none" stroke="#191970" d="M185.7462,-18.198C177.3103,-19.0597 168.7317,-19.936 160.2952,-20.7978"/>
<polygon fill="#191970" stroke="#191970" points="186.3539,-21.6542 195.9464,-17.156 185.6425,-14.6904 186.3539,-21.6542"/>
</g>
</g>
</svg>
        <g id="navigator" transform="translate(0 0)" fill="#404254">
                <rect fill="#f2f5e9" fill-opacity="0.5" stroke="#606060" stroke-width=".5" x="0" y="0" width="60" height="60"/>
                <use id="zoomplus" xlink:href="#zoomPlus" x="17" y="9" onmousedown="handleZoom(evt,'in')"/>
                <use id="zoomminus" xlink:href="#zoomMin" x="42" y="9" onmousedown="handleZoom(evt,'out')"/>
                <use id="reset" xlink:href="#resetDef" x="30" y="36" onmousedown="handleReset()"/>
                <g id="arrowUp" xlink:href="#dirArrow" transform="translate(30 24)" onmousedown="handlePan(0,-1)">
                  <use xlink:href="#rim" fill="#404040">
                        <set attributeName="fill" to="#808080" begin="arrowUp.mouseover" end="arrowUp.mouseout"/>
                  </use>
                  <path fill="none" stroke="white" stroke-width="1.5" d="M0,-3.0v7 M-2.5,-0.5L0,-3.0L2.5,-0.5"/>
                </g>
                <g id="arrowRight" xlink:href="#dirArrow" transform="rotate(90) translate(36 -43)" onmousedown="handlePan(1,0)">
                  <use xlink:href="#rim" fill="#404040">
                        <set attributeName="fill" to="#808080" begin="arrowRight.mouseover" end="arrowRight.mouseout"/>
                  </use>
                  <path fill="none" stroke="white" stroke-width="1.5" d="M0,-3.0v7 M-2.5,-0.5L0,-3.0L2.5,-0.5"/>
                </g>
                <g id="arrowDown" xlink:href="#dirArrow" transform="rotate(180) translate(-30 -48)" onmousedown="handlePan(0,1)">
                  <use xlink:href="#rim" fill="#404040">
                        <set attributeName="fill" to="#808080" begin="arrowDown.mouseover" end="arrowDown.mouseout"/>
                  </use>
                  <path fill="none" stroke="white" stroke-width="1.5" d="M0,-3.0v7 M-2.5,-0.5L0,-3.0L2.5,-0.5"/>
                </g>
                <g id="arrowLeft" xlink:href="#dirArrow" transform="rotate(270) translate(-36 17)" onmousedown="handlePan(-1,0)">
                  <use xlink:href="#rim" fill="#404040">
                        <set attributeName="fill" to="#808080" begin="arrowLeft.mouseover" end="arrowLeft.mouseout"/>
                  </use>
                  <path fill="none" stroke="white" stroke-width="1.5" d="M0,-3.0v7 M-2.5,-0.5L0,-3.0L2.5,-0.5"/>
                </g>
        </g>
        <svg viewBox="0 0 15 15" width="100%" height="30px" preserveAspectRatio="xMaxYMin meet">
         <g id="arrow_out" transform="scale(0.3 0.3)">
          <a xlink:href="classWelcomeView_a36b87e3529df9917239a98a93d21f9d3_icgraph_org.svg" target="_base">
           <rect id="button" ry="5" rx="5" y="6" x="6" height="38" width="38"
                fill="#f2f5e9" fill-opacity="0.5" stroke="#606060" stroke-width="1.0"/>
           <path id="arrow"
             d="M 11.500037,31.436501 C 11.940474,20.09759 22.043105,11.32322 32.158766,21.979434 L 37.068811,17.246167 C 37.068811,17.246167 37.088388,32 37.088388,32 L 22.160133,31.978069 C 22.160133,31.978069 26.997745,27.140456 26.997745,27.140456 C 18.528582,18.264221 13.291696,25.230495 11.500037,31.436501 z"
             style="fill:#404040;"/>
          </a>
         </g>
        </svg>
</svg>
