<?xml version="1.0" encoding="UTF-8" standalone="no"?>
<!DOCTYPE svg PUBLIC "-//W3C//DTD SVG 1.1//EN"
 "http://www.w3.org/Graphics/SVG/1.1/DTD/svg11.dtd">
<!-- Generated by graphviz version 2.40.1 (0)
 -->
<!-- Title: TiJoinY Pages: 1 -->
<svg width="154pt" height="408pt"
 viewBox="0.00 0.00 154.00 408.00" xmlns="http://www.w3.org/2000/svg" xmlns:xlink="http://www.w3.org/1999/xlink">
<g id="graph0" class="graph" transform="scale(1 1) rotate(0) translate(4 404)">
<title>TiJoinY</title>
<polygon fill="#ffffff" stroke="transparent" points="-4,4 -4,-404 150,-404 150,4 -4,4"/>
<!-- Node721 -->
<g id="node1" class="node">
<title>Node721</title>
<g id="a_node1"><a xlink:title=" ">
<polygon fill="#bfbfbf" stroke="#000000" points="0,-190.5 0,-209.5 50,-209.5 50,-190.5 0,-190.5"/>
<text text-anchor="middle" x="25" y="-197.5" font-family="Helvetica,sans-Serif" font-size="10.00" fill="#000000">TiJoinY</text>
</a>
</g>
</g>
<!-- Node722 -->
<g id="node2" class="node">
<title>Node722</title>
<g id="a_node2"><a xlink:href="../../da/dce/tile_8h.html#a3fd8545e72ebeb8fd1b6a6d2dd3d3b77" target="_top" xlink:title=" ">
<polygon fill="#ffffff" stroke="#000000" points="101.5,-380.5 101.5,-399.5 130.5,-399.5 130.5,-380.5 101.5,-380.5"/>
<text text-anchor="middle" x="116" y="-387.5" font-family="Helvetica,sans-Serif" font-size="10.00" fill="#000000">BL</text>
</a>
</g>
</g>
<!-- Node721&#45;&gt;Node722 -->
<g id="edge1" class="edge">
<title>Node721&#45;&gt;Node722</title>
<path fill="none" stroke="#191970" d="M26.1971,-209.5716C30.0979,-237.3524 44.6659,-319.3005 86,-371 87.9129,-373.3926 90.2134,-375.5721 92.6789,-377.5313"/>
<polygon fill="#191970" stroke="#191970" points="91.1128,-380.6939 101.374,-383.332 94.9976,-374.8707 91.1128,-380.6939"/>
</g>
<!-- Node723 -->
<g id="node3" class="node">
<title>Node723</title>
<g id="a_node3"><a xlink:href="../../da/dce/tile_8h.html#ac129d7f1975b2dc92b7e1200ca0df246" target="_top" xlink:title=" ">
<polygon fill="#ffffff" stroke="#000000" points="101.5,-342.5 101.5,-361.5 130.5,-361.5 130.5,-342.5 101.5,-342.5"/>
<text text-anchor="middle" x="116" y="-349.5" font-family="Helvetica,sans-Serif" font-size="10.00" fill="#000000">LB</text>
</a>
</g>
</g>
<!-- Node721&#45;&gt;Node723 -->
<g id="edge2" class="edge">
<title>Node721&#45;&gt;Node723</title>
<path fill="none" stroke="#191970" d="M27.3982,-209.7481C33.5939,-233.2904 52.0695,-294.167 86,-333 87.9775,-335.2632 90.2898,-337.3535 92.7376,-339.2546"/>
<polygon fill="#191970" stroke="#191970" points="91.0322,-342.3243 101.2924,-344.9658 94.9189,-336.5025 91.0322,-342.3243"/>
</g>
<!-- Node724 -->
<g id="node4" class="node">
<title>Node724</title>
<g id="a_node4"><a xlink:href="../../da/dce/tile_8h.html#a80a2cd9ad52a4b260f35e3b0d789cfe7" target="_top" xlink:title=" ">
<polygon fill="#ffffff" stroke="#000000" points="101.5,-304.5 101.5,-323.5 130.5,-323.5 130.5,-304.5 101.5,-304.5"/>
<text text-anchor="middle" x="116" y="-311.5" font-family="Helvetica,sans-Serif" font-size="10.00" fill="#000000">RT</text>
</a>
</g>
</g>
<!-- Node721&#45;&gt;Node724 -->
<g id="edge3" class="edge">
<title>Node721&#45;&gt;Node724</title>
<path fill="none" stroke="#191970" d="M29.3895,-209.5837C38.1227,-227.88 59.1678,-268.3346 86,-295 88.0908,-297.0778 90.4471,-299.0422 92.8967,-300.8632"/>
<polygon fill="#191970" stroke="#191970" points="91.0662,-303.8489 101.3349,-306.4575 94.9342,-298.0146 91.0662,-303.8489"/>
</g>
<!-- Node725 -->
<g id="node5" class="node">
<title>Node725</title>
<g id="a_node5"><a xlink:href="../../da/dce/tile_8h.html#abea9d47b48c294aec71560da3983441d" target="_top" xlink:title=" ">
<polygon fill="#ffffff" stroke="#000000" points="92.5,-266.5 92.5,-285.5 139.5,-285.5 139.5,-266.5 92.5,-266.5"/>
<text text-anchor="middle" x="116" y="-273.5" font-family="Helvetica,sans-Serif" font-size="10.00" fill="#000000">SETBL</text>
</a>
</g>
</g>
<!-- Node721&#45;&gt;Node725 -->
<g id="edge4" class="edge">
<title>Node721&#45;&gt;Node725</title>
<path fill="none" stroke="#191970" d="M34.4267,-209.8742C46.002,-221.7396 66.5049,-241.9309 86,-257 87.6096,-258.2442 89.3028,-259.4834 91.0312,-260.6981"/>
<polygon fill="#191970" stroke="#191970" points="89.4756,-263.8663 99.7434,-266.4785 93.3457,-258.0334 89.4756,-263.8663"/>
</g>
<!-- Node726 -->
<g id="node6" class="node">
<title>Node726</title>
<g id="a_node6"><a xlink:href="../../da/dce/tile_8h.html#a5ad229e314b9911101e7cc2157726f4b" target="_top" xlink:title=" ">
<polygon fill="#ffffff" stroke="#000000" points="92.5,-228.5 92.5,-247.5 139.5,-247.5 139.5,-228.5 92.5,-228.5"/>
<text text-anchor="middle" x="116" y="-235.5" font-family="Helvetica,sans-Serif" font-size="10.00" fill="#000000">SETLB</text>
</a>
</g>
</g>
<!-- Node721&#45;&gt;Node726 -->
<g id="edge5" class="edge">
<title>Node721&#45;&gt;Node726</title>
<path fill="none" stroke="#191970" d="M47.9631,-209.589C58.7404,-214.0894 71.7746,-219.5322 83.5386,-224.4447"/>
<polygon fill="#191970" stroke="#191970" points="82.4677,-227.7904 93.0442,-228.4141 85.1651,-221.3309 82.4677,-227.7904"/>
</g>
<!-- Node727 -->
<g id="node7" class="node">
<title>Node727</title>
<g id="a_node7"><a xlink:href="../../da/dce/tile_8h.html#a12097ebef1c5ecb3b20021e60ce64d8f" target="_top" xlink:title=" ">
<polygon fill="#ffffff" stroke="#000000" points="92.5,-190.5 92.5,-209.5 139.5,-209.5 139.5,-190.5 92.5,-190.5"/>
<text text-anchor="middle" x="116" y="-197.5" font-family="Helvetica,sans-Serif" font-size="10.00" fill="#000000">SETRT</text>
</a>
</g>
</g>
<!-- Node721&#45;&gt;Node727 -->
<g id="edge6" class="edge">
<title>Node721&#45;&gt;Node727</title>
<path fill="none" stroke="#191970" d="M50.3486,-200C60.2092,-200 71.6523,-200 82.1963,-200"/>
<polygon fill="#191970" stroke="#191970" points="82.3488,-203.5001 92.3488,-200 82.3487,-196.5001 82.3488,-203.5001"/>
</g>
<!-- Node728 -->
<g id="node8" class="node">
<title>Node728</title>
<g id="a_node8"><a xlink:href="../../da/dce/tile_8h.html#ad3a67d759b908d75aa6a46a0c56ce741" target="_top" xlink:title=" ">
<polygon fill="#ffffff" stroke="#000000" points="92.5,-152.5 92.5,-171.5 139.5,-171.5 139.5,-152.5 92.5,-152.5"/>
<text text-anchor="middle" x="116" y="-159.5" font-family="Helvetica,sans-Serif" font-size="10.00" fill="#000000">SETTR</text>
</a>
</g>
</g>
<!-- Node721&#45;&gt;Node728 -->
<g id="edge7" class="edge">
<title>Node721&#45;&gt;Node728</title>
<path fill="none" stroke="#191970" d="M47.9631,-190.411C58.7404,-185.9106 71.7746,-180.4678 83.5386,-175.5553"/>
<polygon fill="#191970" stroke="#191970" points="85.1651,-178.6691 93.0442,-171.5859 82.4677,-172.2096 85.1651,-178.6691"/>
</g>
<!-- Node729 -->
<g id="node9" class="node">
<title>Node729</title>
<g id="a_node9"><a xlink:href="../../da/dce/tile_8h.html#a902505cacd17d1a2537f6b1723c87af6" target="_top" xlink:title=" ">
<polygon fill="#ffffff" stroke="#000000" points="86,-114.5 86,-133.5 146,-133.5 146,-114.5 86,-114.5"/>
<text text-anchor="middle" x="116" y="-121.5" font-family="Helvetica,sans-Serif" font-size="10.00" fill="#000000">SETYMIN</text>
</a>
</g>
</g>
<!-- Node721&#45;&gt;Node729 -->
<g id="edge8" class="edge">
<title>Node721&#45;&gt;Node729</title>
<path fill="none" stroke="#191970" d="M34.4267,-190.1258C46.002,-178.2604 66.5049,-158.0691 86,-143 87.6096,-141.7558 89.3028,-140.5166 91.0312,-139.3019"/>
<polygon fill="#191970" stroke="#191970" points="93.3457,-141.9666 99.7434,-133.5215 89.4756,-136.1337 93.3457,-141.9666"/>
</g>
<!-- Node730 -->
<g id="node10" class="node">
<title>Node730</title>
<g id="a_node10"><a xlink:href="../../d7/d2f/tile_8cpp.html#aed7c2f3d30d00b11cdc9564904fcbc4a" target="_top" xlink:title=" ">
<polygon fill="#ffffff" stroke="#000000" points="92.5,-76.5 92.5,-95.5 139.5,-95.5 139.5,-76.5 92.5,-76.5"/>
<text text-anchor="middle" x="116" y="-83.5" font-family="Helvetica,sans-Serif" font-size="10.00" fill="#000000">TiFree</text>
</a>
</g>
</g>
<!-- Node721&#45;&gt;Node730 -->
<g id="edge9" class="edge">
<title>Node721&#45;&gt;Node730</title>
<path fill="none" stroke="#191970" d="M29.3895,-190.4163C38.1227,-172.12 59.1678,-131.6654 86,-105 87.0932,-103.9136 88.259,-102.8581 89.4728,-101.838"/>
<polygon fill="#191970" stroke="#191970" points="91.9114,-104.3909 97.9185,-95.6636 87.7801,-98.7399 91.9114,-104.3909"/>
</g>
<!-- Node731 -->
<g id="node11" class="node">
<title>Node731</title>
<g id="a_node11"><a xlink:href="../../da/dce/tile_8h.html#ad5887af538fa75ba5befb2a55f3891f6" target="_top" xlink:title=" ">
<polygon fill="#ffffff" stroke="#000000" points="101.5,-38.5 101.5,-57.5 130.5,-57.5 130.5,-38.5 101.5,-38.5"/>
<text text-anchor="middle" x="116" y="-45.5" font-family="Helvetica,sans-Serif" font-size="10.00" fill="#000000">TR</text>
</a>
</g>
</g>
<!-- Node721&#45;&gt;Node731 -->
<g id="edge10" class="edge">
<title>Node721&#45;&gt;Node731</title>
<path fill="none" stroke="#191970" d="M27.3982,-190.2519C33.5939,-166.7096 52.0695,-105.833 86,-67 87.9775,-64.7368 90.2898,-62.6465 92.7376,-60.7454"/>
<polygon fill="#191970" stroke="#191970" points="94.9189,-63.4975 101.2924,-55.0342 91.0322,-57.6757 94.9189,-63.4975"/>
</g>
<!-- Node732 -->
<g id="node12" class="node">
<title>Node732</title>
<g id="a_node12"><a xlink:href="../../da/dce/tile_8h.html#a9ba4203204abc4c4fb4c8bd6cd3662c3" target="_top" xlink:title=" ">
<polygon fill="#ffffff" stroke="#000000" points="95,-.5 95,-19.5 137,-19.5 137,-.5 95,-.5"/>
<text text-anchor="middle" x="116" y="-7.5" font-family="Helvetica,sans-Serif" font-size="10.00" fill="#000000">YMIN</text>
</a>
</g>
</g>
<!-- Node721&#45;&gt;Node732 -->
<g id="edge11" class="edge">
<title>Node721&#45;&gt;Node732</title>
<path fill="none" stroke="#191970" d="M26.1971,-190.4284C30.0979,-162.6476 44.6659,-80.6995 86,-29 86.8229,-27.9707 87.7175,-26.9809 88.6662,-26.0311"/>
<polygon fill="#191970" stroke="#191970" points="91.1201,-28.5482 96.7017,-19.5429 86.7226,-23.1019 91.1201,-28.5482"/>
</g>
</g>
</svg>
