<?xml version="1.0" encoding="UTF-8" standalone="no"?>
<!DOCTYPE svg PUBLIC "-//W3C//DTD SVG 1.1//EN"
 "http://www.w3.org/Graphics/SVG/1.1/DTD/svg11.dtd">
<!-- Generated by graphviz version 2.40.1 (0)
 -->
<!-- Title: TiSetType Pages: 1 -->
<!--zoomable 392 -->
<svg id="main" version="1.1" xmlns="http://www.w3.org/2000/svg" xmlns:xlink="http://www.w3.org/1999/xlink" xml:space="preserve" onload="init(evt)">
<style type="text/css"><![CDATA[
.edge:hover path { stroke: red; }
.edge:hover polygon { stroke: red; fill: red; }
]]></style>
<script type="text/javascript"><![CDATA[
var edges = document.getElementsByTagName('g');
if (edges && edges.length) {
  for (var i=0;i<edges.length;i++) {
    if (edges[i].id.substr(0,4)=='edge') {
      edges[i].setAttribute('class','edge');
    }
  }
}
]]></script>
        <defs>
                <circle id="rim" cx="0" cy="0" r="7"/>
                <circle id="rim2" cx="0" cy="0" r="3.5"/>
                <g id="zoomPlus">
                        <use xlink:href="#rim" fill="#404040">
                                <set attributeName="fill" to="#808080" begin="zoomplus.mouseover" end="zoomplus.mouseout"/>
                        </use>
                        <path d="M-4,0h8M0,-4v8" fill="none" stroke="white" stroke-width="1.5" pointer-events="none"/>
                </g>
                <g id="zoomMin">
                        <use xlink:href="#rim" fill="#404040">
                                <set attributeName="fill" to="#808080" begin="zoomminus.mouseover" end="zoomminus.mouseout"/>
                        </use>
                        <path d="M-4,0h8" fill="none" stroke="white" stroke-width="1.5" pointer-events="none"/>
                </g>
                <g id="dirArrow">
                        <path fill="none" stroke="white" stroke-width="1.5" d="M0,-3.0v7 M-2.5,-0.5L0,-3.0L2.5,-0.5"/>
                </g>
               <g id="resetDef">
                       <use xlink:href="#rim2" fill="#404040">
                               <set attributeName="fill" to="#808080" begin="reset.mouseover" end="reset.mouseout"/>
                       </use>
               </g>
        </defs>

<script type="text/javascript">
var viewWidth = 2189;
var viewHeight = 392;
var sectionId = 'dynsection-39';
</script>
<script xlink:href="../../svgpan.js"/>
<svg id="graph" class="graph">
<g id="viewport">
<title>TiSetType</title>
<polygon fill="#ffffff" stroke="transparent" points="-4,4 -4,-387.8017 2185,-387.8017 2185,4 -4,4"/>
<!-- Node840 -->
<g id="node1" class="node">
<title>Node840</title>
<g id="a_node1"><a xlink:title=" ">
<polygon fill="#bfbfbf" stroke="#000000" points="2117,-241.0667 2117,-260.0667 2181,-260.0667 2181,-241.0667 2117,-241.0667"/>
<text text-anchor="middle" x="2149" y="-248.0667" font-family="Helvetica,sans-Serif" font-size="10.00" fill="#000000">TiSetType</text>
</a>
</g>
</g>
<!-- Node841 -->
<g id="node2" class="node">
<title>Node841</title>
<g id="a_node2"><a xlink:href="../../d4/d8c/classCMRouter.html#a87941bbdfbc04cd19543035951c12272" target="_top" xlink:title=" ">
<polygon fill="#ffffff" stroke="#000000" points="1128,-320.0667 1128,-339.0667 1241,-339.0667 1241,-320.0667 1128,-320.0667"/>
<text text-anchor="middle" x="1184.5" y="-327.0667" font-family="Helvetica,sans-Serif" font-size="10.00" fill="#000000">CMRouter::initPlane</text>
</a>
</g>
</g>
<!-- Node840&#45;&gt;Node841 -->
<g id="edge1" class="edge">
<title>Node840&#45;&gt;Node841</title>
<path fill="none" stroke="#191970" d="M2140.7494,-269.5545C2130.1715,-291.5804 2109.7057,-327.3244 2081,-346.5667 2020.1934,-387.3273 1993.7043,-383.5667 1920.5,-383.5667 1920.5,-383.5667 1920.5,-383.5667 1435,-383.5667 1351.5839,-383.5667 1255.9807,-354.5988 1210.7905,-339.0965"/>
<polygon fill="#191970" stroke="#191970" points="2144.0333,-270.7902 2145.0246,-260.2419 2137.6716,-267.8697 2144.0333,-270.7902"/>
</g>
<!-- Node843 -->
<g id="node4" class="node">
<title>Node843</title>
<g id="a_node4"><a xlink:href="../../d5/d65/DBcell_8cpp.html#a838b2056c8a2f454081c2a2f407f180c" target="_top" xlink:title=" ">
<polygon fill="#ffffff" stroke="#000000" points="1509,-89.0667 1509,-108.0667 1593,-108.0667 1593,-89.0667 1509,-89.0667"/>
<text text-anchor="middle" x="1551" y="-96.0667" font-family="Helvetica,sans-Serif" font-size="10.00" fill="#000000">placeCellFunc</text>
</a>
</g>
</g>
<!-- Node840&#45;&gt;Node843 -->
<g id="edge3" class="edge">
<title>Node840&#45;&gt;Node843</title>
<path fill="none" stroke="#191970" d="M2144.0682,-231.0976C2135.4762,-200.2182 2115.3222,-139.341 2081,-98.5667 2027.6187,-35.1506 2003.3925,-3.5667 1920.5,-3.5667 1920.5,-3.5667 1920.5,-3.5667 1795.5,-3.5667 1721.0197,-3.5667 1695.638,10.7001 1629,-22.5667 1608.1851,-32.9578 1609.638,-44.306 1593,-60.5667 1582.8733,-70.4637 1570.8501,-81.25 1562.2681,-88.7937"/>
<polygon fill="#191970" stroke="#191970" points="2140.7568,-232.2637 2146.7155,-241.0241 2147.5205,-230.4599 2140.7568,-232.2637"/>
</g>
<!-- Node857 -->
<g id="node18" class="node">
<title>Node857</title>
<g id="a_node18"><a xlink:href="../../d1/dec/classPanelizer.html#acd8d839f4a7e4c345c72cee8c0994332" target="_top" xlink:title=" ">
<polygon fill="#ffffff" stroke="#000000" points="1115,-222.0667 1115,-241.0667 1254,-241.0667 1254,-222.0667 1115,-222.0667"/>
<text text-anchor="middle" x="1184.5" y="-229.0667" font-family="Helvetica,sans-Serif" font-size="10.00" fill="#000000">Panelizer::makePlanePair</text>
</a>
</g>
</g>
<!-- Node840&#45;&gt;Node857 -->
<g id="edge49" class="edge">
<title>Node840&#45;&gt;Node857</title>
<path fill="none" stroke="#191970" d="M2106.8602,-248.3072C2009.1834,-243.2713 1759.7083,-231.5667 1551,-231.5667 1551,-231.5667 1551,-231.5667 1435,-231.5667 1373.8971,-231.5667 1304.4105,-231.5667 1254.1476,-231.5667"/>
<polygon fill="#191970" stroke="#191970" points="2106.7552,-251.8064 2116.9234,-248.8302 2107.1186,-244.8158 2106.7552,-251.8064"/>
</g>
<!-- Node858 -->
<g id="node19" class="node">
<title>Node858</title>
<g id="a_node19"><a xlink:href="../../da/dce/tile_8h.html#a62a19e37d0b44cfc96bab0575dff07a4" target="_top" xlink:title=" ">
<polygon fill="#ffffff" stroke="#000000" points="1758.5,-331.0667 1758.5,-350.0667 1832.5,-350.0667 1832.5,-331.0667 1758.5,-331.0667"/>
<text text-anchor="middle" x="1795.5" y="-338.0667" font-family="Helvetica,sans-Serif" font-size="10.00" fill="#000000">TiNewPlane</text>
</a>
</g>
</g>
<!-- Node840&#45;&gt;Node858 -->
<g id="edge25" class="edge">
<title>Node840&#45;&gt;Node858</title>
<path fill="none" stroke="#191970" d="M2137.428,-268.8708C2125.5557,-285.856 2105.4024,-310.1763 2081,-321.5667 1999.0757,-359.8068 1889.3366,-353.2775 1832.7391,-346.3075"/>
<polygon fill="#191970" stroke="#191970" points="2140.4978,-270.5765 2143.1461,-260.3179 2134.6785,-266.6859 2140.4978,-270.5765"/>
</g>
<!-- Node859 -->
<g id="node20" class="node">
<title>Node859</title>
<g id="a_node20"><a xlink:href="../../da/dce/tile_8h.html#a79a727a6e892b91bc972f7a52be6d5bf" target="_top" xlink:title=" ">
<polygon fill="#ffffff" stroke="#000000" points="2017.5,-165.0667 2017.5,-184.0667 2067.5,-184.0667 2067.5,-165.0667 2017.5,-165.0667"/>
<text text-anchor="middle" x="2042.5" y="-172.0667" font-family="Helvetica,sans-Serif" font-size="10.00" fill="#000000">TiAlloc</text>
</a>
</g>
</g>
<!-- Node840&#45;&gt;Node859 -->
<g id="edge28" class="edge">
<title>Node840&#45;&gt;Node859</title>
<path fill="none" stroke="#191970" d="M2127.3321,-235.1041C2105.9153,-219.8208 2073.8265,-196.9218 2055.8788,-184.114"/>
<polygon fill="#191970" stroke="#191970" points="2125.3387,-237.9814 2135.5117,-240.9412 2129.4048,-232.2835 2125.3387,-237.9814"/>
</g>
<!-- Node868 -->
<g id="node29" class="node">
<title>Node868</title>
<g id="a_node29"><a xlink:href="../../d7/d2f/tile_8cpp.html#aad8b1e502af75d671817fde3823553e2" target="_top" xlink:title=" ">
<polygon fill="#ffffff" stroke="#000000" points="2004,-108.0667 2004,-127.0667 2081,-127.0667 2081,-108.0667 2004,-108.0667"/>
<text text-anchor="middle" x="2042.5" y="-115.0667" font-family="Helvetica,sans-Serif" font-size="10.00" fill="#000000">dupTileBody</text>
</a>
</g>
</g>
<!-- Node840&#45;&gt;Node868 -->
<g id="edge44" class="edge">
<title>Node840&#45;&gt;Node868</title>
<path fill="none" stroke="#191970" d="M2137.3662,-232.4303C2124.467,-212.7936 2102.6148,-180.8882 2081,-155.5667 2072.2198,-145.2808 2061.1357,-134.5431 2053.1177,-127.1164"/>
<polygon fill="#191970" stroke="#191970" points="2134.5539,-234.5259 2142.9391,-241.002 2140.4226,-230.7103 2134.5539,-234.5259"/>
</g>
<!-- Node842 -->
<g id="node3" class="node">
<title>Node842</title>
<g id="a_node3"><a xlink:href="../../df/dbf/classPCBSketchWidget.html#a33d44a94def358f3e447b9a6fecdd7dc" target="_top" xlink:title=" ">
<polygon fill="#ffffff" stroke="#000000" points="925,-314.5667 925,-344.5667 1079,-344.5667 1079,-314.5667 925,-314.5667"/>
<text text-anchor="start" x="933" y="-332.5667" font-family="Helvetica,sans-Serif" font-size="10.00" fill="#000000">PCBSketchWidget::placePart</text>
<text text-anchor="middle" x="1002" y="-321.5667" font-family="Helvetica,sans-Serif" font-size="10.00" fill="#000000">DroppedInOtherView</text>
</a>
</g>
</g>
<!-- Node841&#45;&gt;Node842 -->
<g id="edge2" class="edge">
<title>Node841&#45;&gt;Node842</title>
<path fill="none" stroke="#191970" d="M1117.4645,-329.5667C1105.0038,-329.5667 1091.8937,-329.5667 1079.1588,-329.5667"/>
<polygon fill="#191970" stroke="#191970" points="1117.7563,-333.0668 1127.7563,-329.5667 1117.7562,-326.0668 1117.7563,-333.0668"/>
</g>
<!-- Node844 -->
<g id="node5" class="node">
<title>Node844</title>
<g id="a_node5"><a xlink:href="../../d5/d65/DBcell_8cpp.html#a43511f13ba1c7deaa85fe94960e64bf3" target="_top" xlink:title=" ">
<polygon fill="#ffffff" stroke="#000000" points="1397,-127.0667 1397,-146.0667 1473,-146.0667 1473,-127.0667 1397,-127.0667"/>
<text text-anchor="middle" x="1435" y="-134.0667" font-family="Helvetica,sans-Serif" font-size="10.00" fill="#000000">DBPlaceCell</text>
</a>
</g>
</g>
<!-- Node843&#45;&gt;Node844 -->
<g id="edge4" class="edge">
<title>Node843&#45;&gt;Node844</title>
<path fill="none" stroke="#191970" d="M1511.8472,-111.3926C1496.2824,-116.4914 1478.6859,-122.2558 1464.2623,-126.9808"/>
<polygon fill="#191970" stroke="#191970" points="1513.3148,-114.5949 1521.7283,-108.1557 1511.1356,-107.9428 1513.3148,-114.5949"/>
</g>
<!-- Node845 -->
<g id="node6" class="node">
<title>Node845</title>
<g id="a_node6"><a xlink:href="../../da/dce/tile_8h.html#a321ded25fb8c2aad6252bb2acf909732" target="_top" xlink:title=" ">
<polygon fill="#ffffff" stroke="#000000" points="1290,-146.0667 1290,-165.0667 1361,-165.0667 1361,-146.0667 1290,-146.0667"/>
<text text-anchor="middle" x="1325.5" y="-153.0667" font-family="Helvetica,sans-Serif" font-size="10.00" fill="#000000">TiInsertTile</text>
</a>
</g>
</g>
<!-- Node844&#45;&gt;Node845 -->
<g id="edge5" class="edge">
<title>Node844&#45;&gt;Node845</title>
<path fill="none" stroke="#191970" d="M1386.7143,-144.945C1378.0762,-146.4439 1369.2203,-147.9805 1361.0231,-149.4029"/>
<polygon fill="#191970" stroke="#191970" points="1387.4478,-148.3701 1396.7022,-143.212 1386.251,-141.4732 1387.4478,-148.3701"/>
</g>
<!-- Node845&#45;&gt;Node841 -->
<g id="edge6" class="edge">
<title>Node845&#45;&gt;Node841</title>
<path fill="none" stroke="#191970" d="M1312.7221,-173.3763C1298.7135,-192.7009 1275.3779,-224.3108 1254,-250.5667 1233.0083,-276.3482 1206.7367,-305.4008 1193.3024,-320.0426"/>
<polygon fill="#191970" stroke="#191970" points="1315.6166,-175.3463 1318.6311,-165.1894 1309.9406,-171.2496 1315.6166,-175.3463"/>
</g>
<!-- Node846 -->
<g id="node7" class="node">
<title>Node846</title>
<g id="a_node7"><a xlink:href="../../d4/d8c/classCMRouter.html#a95edfff8b6d81fe3f57f6b46a53564ec" target="_top" xlink:title=" ">
<polygon fill="#ffffff" stroke="#000000" points="944,-127.0667 944,-146.0667 1060,-146.0667 1060,-127.0667 944,-127.0667"/>
<text text-anchor="middle" x="1002" y="-134.0667" font-family="Helvetica,sans-Serif" font-size="10.00" fill="#000000">CMRouter::insertTile</text>
</a>
</g>
</g>
<!-- Node845&#45;&gt;Node846 -->
<g id="edge7" class="edge">
<title>Node845&#45;&gt;Node846</title>
<path fill="none" stroke="#191970" d="M1286.8568,-143.3398C1276.3108,-140.5426 1264.8095,-137.9784 1254,-136.5667 1187.9515,-127.9407 1111.3323,-129.5749 1060.0771,-132.3163"/>
<polygon fill="#191970" stroke="#191970" points="1286.0489,-146.748 1296.6216,-146.063 1287.9294,-140.0053 1286.0489,-146.748"/>
</g>
<!-- Node847 -->
<g id="node8" class="node">
<title>Node847</title>
<g id="a_node8"><a xlink:href="../../d4/d8c/classCMRouter.html#ae73ff6165f4bb62b4eab0f12606835bc" target="_top" xlink:title=" ">
<polygon fill="#ffffff" stroke="#000000" points="1121,-146.0667 1121,-165.0667 1248,-165.0667 1248,-146.0667 1121,-146.0667"/>
<text text-anchor="middle" x="1184.5" y="-153.0667" font-family="Helvetica,sans-Serif" font-size="10.00" fill="#000000">CMRouter::insertUnion</text>
</a>
</g>
</g>
<!-- Node845&#45;&gt;Node847 -->
<g id="edge8" class="edge">
<title>Node845&#45;&gt;Node847</title>
<path fill="none" stroke="#191970" d="M1279.7128,-155.5667C1269.6091,-155.5667 1258.7302,-155.5667 1248.065,-155.5667"/>
<polygon fill="#191970" stroke="#191970" points="1279.9198,-159.0668 1289.9197,-155.5667 1279.9197,-152.0668 1279.9198,-159.0668"/>
</g>
<!-- Node848 -->
<g id="node9" class="node">
<title>Node848</title>
<g id="a_node9"><a xlink:href="../../d1/dec/classPanelizer.html#a7f2bfdecb73d86a77651feeeef2556b6" target="_top" xlink:title=" ">
<polygon fill="#ffffff" stroke="#000000" points="942.5,-184.0667 942.5,-203.0667 1061.5,-203.0667 1061.5,-184.0667 942.5,-184.0667"/>
<text text-anchor="middle" x="1002" y="-191.0667" font-family="Helvetica,sans-Serif" font-size="10.00" fill="#000000">Panelizer::bestFitOne</text>
</a>
</g>
</g>
<!-- Node845&#45;&gt;Node848 -->
<g id="edge10" class="edge">
<title>Node845&#45;&gt;Node848</title>
<path fill="none" stroke="#191970" d="M1284.761,-167.7802C1274.7784,-170.3871 1264.0681,-172.8644 1254,-174.5667 1188.7853,-185.593 1112.9915,-190.2218 1061.6921,-192.1641"/>
<polygon fill="#191970" stroke="#191970" points="1285.7142,-171.1482 1294.4504,-165.1541 1283.883,-164.392 1285.7142,-171.1482"/>
</g>
<!-- Node845&#45;&gt;Node857 -->
<g id="edge21" class="edge">
<title>Node845&#45;&gt;Node857</title>
<path fill="none" stroke="#191970" d="M1302.5239,-170.7732C1298.3233,-173.6454 1294.004,-176.661 1290,-179.5667 1273.5947,-191.4718 1271.8197,-197.9063 1254,-207.5667 1243.2267,-213.4071 1230.76,-218.2422 1219.3848,-222.0047"/>
<polygon fill="#191970" stroke="#191970" points="1304.5099,-173.6554 1310.8404,-165.1597 1300.5937,-167.8533 1304.5099,-173.6554"/>
</g>
<!-- Node847&#45;&gt;Node846 -->
<g id="edge9" class="edge">
<title>Node847&#45;&gt;Node846</title>
<path fill="none" stroke="#191970" d="M1110.5945,-147.8724C1093.7973,-146.1237 1076.1859,-144.2902 1060.1518,-142.6209"/>
<polygon fill="#191970" stroke="#191970" points="1110.6179,-151.3937 1120.9266,-148.9481 1111.3428,-144.4313 1110.6179,-151.3937"/>
</g>
<!-- Node849 -->
<g id="node10" class="node">
<title>Node849</title>
<g id="a_node10"><a xlink:href="../../d1/dec/classPanelizer.html#ae8789b8d3b16a162e22299ac81bded8f" target="_top" xlink:title=" ">
<polygon fill="#ffffff" stroke="#000000" points="767.5,-184.0667 767.5,-203.0667 867.5,-203.0667 867.5,-184.0667 767.5,-184.0667"/>
<text text-anchor="middle" x="817.5" y="-191.0667" font-family="Helvetica,sans-Serif" font-size="10.00" fill="#000000">Panelizer::bestFit</text>
</a>
</g>
</g>
<!-- Node848&#45;&gt;Node849 -->
<g id="edge11" class="edge">
<title>Node848&#45;&gt;Node849</title>
<path fill="none" stroke="#191970" d="M932.2932,-193.5667C910.802,-193.5667 887.572,-193.5667 867.6684,-193.5667"/>
<polygon fill="#191970" stroke="#191970" points="932.353,-197.0668 942.3529,-193.5667 932.3529,-190.0668 932.353,-197.0668"/>
</g>
<!-- Node855 -->
<g id="node16" class="node">
<title>Node855</title>
<g id="a_node16"><a xlink:href="../../d1/dec/classPanelizer.html#af6f5a9dca507c9f3b2ec8e26013c1b46" target="_top" xlink:title=" ">
<polygon fill="#ffffff" stroke="#000000" points="754.5,-146.0667 754.5,-165.0667 880.5,-165.0667 880.5,-146.0667 754.5,-146.0667"/>
<text text-anchor="middle" x="817.5" y="-153.0667" font-family="Helvetica,sans-Serif" font-size="10.00" fill="#000000">Panelizer::addOptional</text>
</a>
</g>
</g>
<!-- Node848&#45;&gt;Node855 -->
<g id="edge17" class="edge">
<title>Node848&#45;&gt;Node855</title>
<path fill="none" stroke="#191970" d="M945.6328,-181.9572C919.3926,-176.5527 888.564,-170.2032 863.7224,-165.0868"/>
<polygon fill="#191970" stroke="#191970" points="944.9424,-185.3884 955.4429,-183.9777 946.3545,-178.5323 944.9424,-185.3884"/>
</g>
<!-- Node856 -->
<g id="node17" class="node">
<title>Node856</title>
<g id="a_node17"><a xlink:href="../../d1/dec/classPanelizer.html#a6a905041ca050006ce5d45809a716567" target="_top" xlink:title=" ">
<polygon fill="#ffffff" stroke="#000000" points="746,-222.0667 746,-241.0667 889,-241.0667 889,-222.0667 746,-222.0667"/>
<text text-anchor="middle" x="817.5" y="-229.0667" font-family="Helvetica,sans-Serif" font-size="10.00" fill="#000000">Panelizer::shrinkLastPanel</text>
</a>
</g>
</g>
<!-- Node848&#45;&gt;Node856 -->
<g id="edge19" class="edge">
<title>Node848&#45;&gt;Node856</title>
<path fill="none" stroke="#191970" d="M945.6328,-205.1762C919.3926,-210.5807 888.564,-216.9302 863.7224,-222.0467"/>
<polygon fill="#191970" stroke="#191970" points="946.3545,-208.6011 955.4429,-203.1557 944.9424,-201.745 946.3545,-208.6011"/>
</g>
<!-- Node850 -->
<g id="node11" class="node">
<title>Node850</title>
<g id="a_node11"><a xlink:href="../../d1/dec/classPanelizer.html#ac7729e4f0b0b5482f4c268db4476d866" target="_top" xlink:title=" ">
<polygon fill="#ffffff" stroke="#000000" points="587,-203.0667 587,-222.0667 710,-222.0667 710,-203.0667 587,-203.0667"/>
<text text-anchor="middle" x="648.5" y="-210.0667" font-family="Helvetica,sans-Serif" font-size="10.00" fill="#000000">Panelizer::bestFitLoop</text>
</a>
</g>
</g>
<!-- Node849&#45;&gt;Node850 -->
<g id="edge12" class="edge">
<title>Node849&#45;&gt;Node850</title>
<path fill="none" stroke="#191970" d="M756.9482,-200.3743C741.7665,-202.0811 725.4607,-203.9143 710.2228,-205.6275"/>
<polygon fill="#191970" stroke="#191970" points="757.7057,-203.8113 767.252,-199.2159 756.9235,-196.8551 757.7057,-203.8113"/>
</g>
<!-- Node851 -->
<g id="node12" class="node">
<title>Node851</title>
<g id="a_node12"><a xlink:href="../../d1/dec/classPanelizer.html#a20413e93309e7c25278c14bbd953de26" target="_top" xlink:title=" ">
<polygon fill="#ffffff" stroke="#000000" points="443,-203.0667 443,-222.0667 551,-222.0667 551,-203.0667 443,-203.0667"/>
<text text-anchor="middle" x="497" y="-210.0667" font-family="Helvetica,sans-Serif" font-size="10.00" fill="#000000">Panelizer::panelize</text>
</a>
</g>
</g>
<!-- Node850&#45;&gt;Node851 -->
<g id="edge13" class="edge">
<title>Node850&#45;&gt;Node851</title>
<path fill="none" stroke="#191970" d="M576.84,-212.5667C568.2377,-212.5667 559.5649,-212.5667 551.2671,-212.5667"/>
<polygon fill="#191970" stroke="#191970" points="576.8792,-216.0668 586.8792,-212.5667 576.8791,-209.0668 576.8792,-216.0668"/>
</g>
<!-- Node852 -->
<g id="node13" class="node">
<title>Node852</title>
<g id="a_node13"><a xlink:href="../../dc/dc7/classFApplication.html#ade4b2813f0a6b5af98013570a7b5d9c0" target="_top" xlink:title=" ">
<polygon fill="#ffffff" stroke="#000000" points="265,-197.5667 265,-227.5667 407,-227.5667 407,-197.5667 265,-197.5667"/>
<text text-anchor="start" x="273" y="-215.5667" font-family="Helvetica,sans-Serif" font-size="10.00" fill="#000000">FApplication::runPanelizer</text>
<text text-anchor="middle" x="336" y="-204.5667" font-family="Helvetica,sans-Serif" font-size="10.00" fill="#000000">Service</text>
</a>
</g>
</g>
<!-- Node851&#45;&gt;Node852 -->
<g id="edge14" class="edge">
<title>Node851&#45;&gt;Node852</title>
<path fill="none" stroke="#191970" d="M432.7829,-212.5667C424.3314,-212.5667 415.6301,-212.5667 407.0728,-212.5667"/>
<polygon fill="#191970" stroke="#191970" points="432.9415,-216.0668 442.9414,-212.5667 432.9414,-209.0668 432.9415,-216.0668"/>
</g>
<!-- Node853 -->
<g id="node14" class="node">
<title>Node853</title>
<g id="a_node14"><a xlink:href="../../dc/dc7/classFApplication.html#ac5e0b62634df1a581eee3c3a36980754" target="_top" xlink:title=" ">
<polygon fill="#ffffff" stroke="#000000" points="77,-203.0667 77,-222.0667 229,-222.0667 229,-203.0667 77,-203.0667"/>
<text text-anchor="middle" x="153" y="-210.0667" font-family="Helvetica,sans-Serif" font-size="10.00" fill="#000000">FApplication::serviceStartup</text>
</a>
</g>
</g>
<!-- Node852&#45;&gt;Node853 -->
<g id="edge15" class="edge">
<title>Node852&#45;&gt;Node853</title>
<path fill="none" stroke="#191970" d="M254.973,-212.5667C246.3792,-212.5667 237.6606,-212.5667 229.1257,-212.5667"/>
<polygon fill="#191970" stroke="#191970" points="254.9855,-216.0668 264.9855,-212.5667 254.9855,-209.0668 254.9855,-216.0668"/>
</g>
<!-- Node854 -->
<g id="node15" class="node">
<title>Node854</title>
<g id="a_node15"><a xlink:href="../../df/d0a/main_8cpp.html#a0ddf1224851353fc92bfbff6f499fa97" target="_top" xlink:title=" ">
<polygon fill="#ffffff" stroke="#000000" points="0,-203.0667 0,-222.0667 41,-222.0667 41,-203.0667 0,-203.0667"/>
<text text-anchor="middle" x="20.5" y="-210.0667" font-family="Helvetica,sans-Serif" font-size="10.00" fill="#000000">main</text>
</a>
</g>
</g>
<!-- Node853&#45;&gt;Node854 -->
<g id="edge16" class="edge">
<title>Node853&#45;&gt;Node854</title>
<path fill="none" stroke="#191970" d="M66.6912,-212.5667C57.2673,-212.5667 48.4413,-212.5667 41.0804,-212.5667"/>
<polygon fill="#191970" stroke="#191970" points="66.692,-216.0668 76.6919,-212.5667 66.6919,-209.0668 66.692,-216.0668"/>
</g>
<!-- Node855&#45;&gt;Node850 -->
<g id="edge18" class="edge">
<title>Node855&#45;&gt;Node850</title>
<path fill="none" stroke="#191970" d="M768.4791,-167.8137C760.9109,-169.9287 753.2159,-172.21 746,-174.5667 719.923,-183.0836 690.687,-194.774 671.0911,-202.931"/>
<polygon fill="#191970" stroke="#191970" points="769.5761,-171.1425 778.3043,-165.1368 767.736,-164.3887 769.5761,-171.1425"/>
</g>
<!-- Node856&#45;&gt;Node850 -->
<g id="edge20" class="edge">
<title>Node856&#45;&gt;Node850</title>
<path fill="none" stroke="#191970" d="M735.7486,-222.3757C727.1285,-221.4066 718.4702,-220.4332 710.133,-219.4959"/>
<polygon fill="#191970" stroke="#191970" points="735.5003,-225.8698 745.8288,-223.509 736.2824,-218.9136 735.5003,-225.8698"/>
</g>
<!-- Node857&#45;&gt;Node848 -->
<g id="edge22" class="edge">
<title>Node857&#45;&gt;Node848</title>
<path fill="none" stroke="#191970" d="M1128.4005,-219.8857C1102.5196,-214.4968 1072.1854,-208.1806 1047.7213,-203.0868"/>
<polygon fill="#191970" stroke="#191970" points="1127.944,-223.3657 1138.4475,-221.9777 1129.371,-216.5126 1127.944,-223.3657"/>
</g>
<!-- Node857&#45;&gt;Node850 -->
<g id="edge24" class="edge">
<title>Node857&#45;&gt;Node850</title>
<path fill="none" stroke="#191970" d="M1124.327,-242.7591C1039.2518,-256.6482 879.3112,-275.6272 746,-250.5667 717.2542,-245.1629 686.1017,-231.5262 666.9394,-222.1494"/>
<polygon fill="#191970" stroke="#191970" points="1125.0351,-246.1895 1134.3241,-241.0939 1123.8849,-239.2846 1125.0351,-246.1895"/>
</g>
<!-- Node857&#45;&gt;Node856 -->
<g id="edge23" class="edge">
<title>Node857&#45;&gt;Node856</title>
<path fill="none" stroke="#191970" d="M1104.5207,-231.5667C1040.2836,-231.5667 950.8917,-231.5667 889.0115,-231.5667"/>
<polygon fill="#191970" stroke="#191970" points="1104.6063,-235.0668 1114.6063,-231.5667 1104.6062,-228.0668 1104.6063,-235.0668"/>
</g>
<!-- Node858&#45;&gt;Node841 -->
<g id="edge26" class="edge">
<title>Node858&#45;&gt;Node841</title>
<path fill="none" stroke="#191970" d="M1748.1877,-342.1073C1698.9408,-343.5765 1619.5727,-345.5667 1551,-345.5667 1551,-345.5667 1551,-345.5667 1435,-345.5667 1368.3253,-345.5667 1291.8709,-339.8516 1241.1423,-335.2528"/>
<polygon fill="#191970" stroke="#191970" points="1748.3354,-345.6046 1758.2246,-341.8027 1748.1229,-338.6078 1748.3354,-345.6046"/>
</g>
<!-- Node858&#45;&gt;Node857 -->
<g id="edge27" class="edge">
<title>Node858&#45;&gt;Node857</title>
<path fill="none" stroke="#191970" d="M1748.4359,-330.3985C1699.3891,-320.7021 1620.18,-307.5667 1551,-307.5667 1551,-307.5667 1551,-307.5667 1435,-307.5667 1344.5603,-307.5667 1243.3581,-261.6427 1202.7751,-241.1922"/>
<polygon fill="#191970" stroke="#191970" points="1747.9357,-333.8679 1758.4297,-332.4094 1749.3167,-327.0054 1747.9357,-333.8679"/>
</g>
<!-- Node859&#45;&gt;Node841 -->
<g id="edge29" class="edge">
<title>Node859&#45;&gt;Node841</title>
<path fill="none" stroke="#191970" d="M2008.6765,-187.7502C1996.056,-192.3019 1981.5111,-197.1185 1968,-200.5667 1785.9809,-247.0205 1738.8534,-269.5667 1551,-269.5667 1551,-269.5667 1551,-269.5667 1435,-269.5667 1349.3618,-269.5667 1251.6731,-303.1411 1207.8834,-320.0595"/>
<polygon fill="#191970" stroke="#191970" points="2010.1592,-190.9338 2018.3288,-184.1879 2007.7355,-184.3668 2010.1592,-190.9338"/>
</g>
<!-- Node859&#45;&gt;Node857 -->
<g id="edge43" class="edge">
<title>Node859&#45;&gt;Node857</title>
<path fill="none" stroke="#191970" d="M2007.1527,-179.0011C1959.2654,-184.6157 1871.0709,-193.5667 1795.5,-193.5667 1795.5,-193.5667 1795.5,-193.5667 1435,-193.5667 1359.3421,-193.5667 1272.2698,-210.7205 1223.2744,-221.9777"/>
<polygon fill="#191970" stroke="#191970" points="2007.7886,-182.4502 2017.3033,-177.7898 2006.959,-175.4995 2007.7886,-182.4502"/>
</g>
<!-- Node859&#45;&gt;Node858 -->
<g id="edge30" class="edge">
<title>Node859&#45;&gt;Node858</title>
<path fill="none" stroke="#191970" d="M2026.8911,-191.7839C2012.5185,-207.0409 1990.1314,-229.3498 1968,-245.5667 1917.3946,-282.6482 1850.7067,-315.3807 1816.993,-330.9465"/>
<polygon fill="#191970" stroke="#191970" points="2029.7671,-193.8297 2033.9989,-184.1167 2024.6336,-189.0708 2029.7671,-193.8297"/>
</g>
<!-- Node860 -->
<g id="node21" class="node">
<title>Node860</title>
<g id="a_node21"><a xlink:href="../../da/dce/tile_8h.html#a79da0e7fc81c38c3cbdc78f756e78564" target="_top" xlink:title=" ">
<polygon fill="#ffffff" stroke="#000000" points="1893.5,-70.0667 1893.5,-89.0667 1947.5,-89.0667 1947.5,-70.0667 1893.5,-70.0667"/>
<text text-anchor="middle" x="1920.5" y="-77.0667" font-family="Helvetica,sans-Serif" font-size="10.00" fill="#000000">TiSplitX</text>
</a>
</g>
</g>
<!-- Node859&#45;&gt;Node860 -->
<g id="edge31" class="edge">
<title>Node859&#45;&gt;Node860</title>
<path fill="none" stroke="#191970" d="M2025.3083,-157.841C2018.6086,-151.2598 2010.8969,-143.6064 2004,-136.5667 1987.7189,-119.9486 1987.2473,-111.6348 1968,-98.5667 1961.8276,-94.3759 1954.5916,-90.8896 1947.6547,-88.0968"/>
<polygon fill="#191970" stroke="#191970" points="2023.0029,-160.482 2032.5988,-164.9731 2027.8981,-155.4782 2023.0029,-160.482"/>
</g>
<!-- Node862 -->
<g id="node23" class="node">
<title>Node862</title>
<g id="a_node23"><a xlink:href="../../da/dce/tile_8h.html#abc7162b5adb12a6ee68eaf9a8fa10461" target="_top" xlink:title=" ">
<polygon fill="#ffffff" stroke="#000000" points="1894,-32.0667 1894,-51.0667 1947,-51.0667 1947,-32.0667 1894,-32.0667"/>
<text text-anchor="middle" x="1920.5" y="-39.0667" font-family="Helvetica,sans-Serif" font-size="10.00" fill="#000000">TiSplitY</text>
</a>
</g>
</g>
<!-- Node859&#45;&gt;Node862 -->
<g id="edge34" class="edge">
<title>Node859&#45;&gt;Node862</title>
<path fill="none" stroke="#191970" d="M2023.2125,-158.0813C2016.5869,-151.7929 2009.469,-144.2736 2004,-136.5667 1982.3701,-106.0858 1995.2333,-86.1652 1968,-60.5667 1962.1756,-55.0919 1954.5756,-51.1182 1947.1684,-48.2669"/>
<polygon fill="#191970" stroke="#191970" points="2020.8839,-160.6945 2030.636,-164.8355 2025.5948,-155.5169 2020.8839,-160.6945"/>
</g>
<!-- Node866 -->
<g id="node27" class="node">
<title>Node866</title>
<g id="a_node27"><a xlink:href="../../da/dce/tile_8h.html#a2ef72f45569ab48b77b4999bd8713991" target="_top" xlink:title=" ">
<polygon fill="#ffffff" stroke="#000000" points="1882,-146.0667 1882,-165.0667 1959,-165.0667 1959,-146.0667 1882,-146.0667"/>
<text text-anchor="middle" x="1920.5" y="-153.0667" font-family="Helvetica,sans-Serif" font-size="10.00" fill="#000000">TiSplitX_Left</text>
</a>
</g>
</g>
<!-- Node859&#45;&gt;Node866 -->
<g id="edge41" class="edge">
<title>Node859&#45;&gt;Node866</title>
<path fill="none" stroke="#191970" d="M2007.2727,-169.0805C1992.226,-166.7371 1974.6157,-163.9946 1959.2063,-161.5947"/>
<polygon fill="#191970" stroke="#191970" points="2006.802,-172.5493 2017.2215,-170.6299 2007.8792,-165.6327 2006.802,-172.5493"/>
</g>
<!-- Node867 -->
<g id="node28" class="node">
<title>Node867</title>
<g id="a_node28"><a xlink:href="../../da/dce/tile_8h.html#a32f1140082fdf9d72d8c4cbec76c65ea" target="_top" xlink:title=" ">
<polygon fill="#ffffff" stroke="#000000" points="1873,-108.0667 1873,-127.0667 1968,-127.0667 1968,-108.0667 1873,-108.0667"/>
<text text-anchor="middle" x="1920.5" y="-115.0667" font-family="Helvetica,sans-Serif" font-size="10.00" fill="#000000">TiSplitY_Bottom</text>
</a>
</g>
</g>
<!-- Node859&#45;&gt;Node867 -->
<g id="edge42" class="edge">
<title>Node859&#45;&gt;Node867</title>
<path fill="none" stroke="#191970" d="M2015.8476,-160.2268C2001.7696,-152.843 1984.1133,-143.8805 1968,-136.5667 1960.8829,-133.3363 1953.046,-130.0816 1945.8251,-127.2012"/>
<polygon fill="#191970" stroke="#191970" points="2014.4833,-163.4646 2024.9593,-165.0468 2017.7565,-157.277 2014.4833,-163.4646"/>
</g>
<!-- Node861 -->
<g id="node22" class="node">
<title>Node861</title>
<g id="a_node22"><a xlink:href="../../d5/d65/DBcell_8cpp.html#a98c8b9e8fe9f988173b90b00c700a0e0" target="_top" xlink:title=" ">
<polygon fill="#ffffff" stroke="#000000" points="1638,-108.0667 1638,-127.0667 1709,-127.0667 1709,-108.0667 1638,-108.0667"/>
<text text-anchor="middle" x="1673.5" y="-115.0667" font-family="Helvetica,sans-Serif" font-size="10.00" fill="#000000">clipCellTile</text>
</a>
</g>
</g>
<!-- Node860&#45;&gt;Node861 -->
<g id="edge32" class="edge">
<title>Node860&#45;&gt;Node861</title>
<path fill="none" stroke="#191970" d="M1883.3698,-85.9587C1868.9083,-88.4046 1852.1898,-91.1787 1837,-93.5667 1793.0707,-100.4728 1742.3992,-107.8143 1709.254,-112.5322"/>
<polygon fill="#191970" stroke="#191970" points="1884.1749,-89.3722 1893.447,-84.246 1883.0019,-82.4711 1884.1749,-89.3722"/>
</g>
<!-- Node861&#45;&gt;Node843 -->
<g id="edge33" class="edge">
<title>Node861&#45;&gt;Node843</title>
<path fill="none" stroke="#191970" d="M1627.5999,-110.4475C1616.2783,-108.6915 1604.2087,-106.8195 1593.0785,-105.0932"/>
<polygon fill="#191970" stroke="#191970" points="1627.3203,-113.9459 1637.7386,-112.02 1628.3932,-107.0286 1627.3203,-113.9459"/>
</g>
<!-- Node862&#45;&gt;Node861 -->
<g id="edge35" class="edge">
<title>Node862&#45;&gt;Node861</title>
<path fill="none" stroke="#191970" d="M1883.7997,-52.8591C1835.1795,-67.8192 1750.2573,-93.9491 1704.6195,-107.9915"/>
<polygon fill="#191970" stroke="#191970" points="1885.068,-56.1309 1893.5965,-49.8447 1883.0094,-49.4404 1885.068,-56.1309"/>
</g>
<!-- Node863 -->
<g id="node24" class="node">
<title>Node863</title>
<g id="a_node24"><a xlink:href="../../d5/d65/DBcell_8cpp.html#a7820c8f9a364814a5b27ec81dfc2fc40" target="_top" xlink:title=" ">
<polygon fill="#ffffff" stroke="#000000" points="1754,-32.0667 1754,-51.0667 1837,-51.0667 1837,-32.0667 1754,-32.0667"/>
<text text-anchor="middle" x="1795.5" y="-39.0667" font-family="Helvetica,sans-Serif" font-size="10.00" fill="#000000">cellTileMerge</text>
</a>
</g>
</g>
<!-- Node862&#45;&gt;Node863 -->
<g id="edge36" class="edge">
<title>Node862&#45;&gt;Node863</title>
<path fill="none" stroke="#191970" d="M1883.8116,-41.5667C1869.1973,-41.5667 1852.2988,-41.5667 1837.2209,-41.5667"/>
<polygon fill="#191970" stroke="#191970" points="1883.9907,-45.0668 1893.9907,-41.5667 1883.9907,-38.0668 1883.9907,-45.0668"/>
</g>
<!-- Node863&#45;&gt;Node843 -->
<g id="edge37" class="edge">
<title>Node863&#45;&gt;Node843</title>
<path fill="none" stroke="#191970" d="M1747.3704,-53.4984C1737.6543,-55.8698 1727.5058,-58.3201 1718,-60.5667 1675.6073,-70.5856 1627.0439,-81.5821 1593.2554,-89.1562"/>
<polygon fill="#191970" stroke="#191970" points="1748.414,-56.8463 1757.294,-51.0675 1746.7484,-50.0473 1748.414,-56.8463"/>
</g>
<!-- Node863&#45;&gt;Node861 -->
<g id="edge40" class="edge">
<title>Node863&#45;&gt;Node861</title>
<path fill="none" stroke="#191970" d="M1768.9892,-56.1735C1763.9361,-59.16 1758.7461,-62.3705 1754,-65.5667 1737.1873,-76.8892 1734.979,-82.4952 1718,-93.5667 1710.0592,-98.7447 1700.8984,-103.8252 1692.9602,-107.969"/>
<polygon fill="#191970" stroke="#191970" points="1770.8937,-59.1157 1777.8117,-51.0912 1767.3995,-53.0502 1770.8937,-59.1157"/>
</g>
<!-- Node864 -->
<g id="node25" class="node">
<title>Node864</title>
<g id="a_node25"><a xlink:href="../../d5/d65/DBcell_8cpp.html#a3f9a60220446c6478eac9c43a181ea0b" target="_top" xlink:title=" ">
<polygon fill="#ffffff" stroke="#000000" points="1629,-32.0667 1629,-51.0667 1718,-51.0667 1718,-32.0667 1629,-32.0667"/>
<text text-anchor="middle" x="1673.5" y="-39.0667" font-family="Helvetica,sans-Serif" font-size="10.00" fill="#000000">deleteCellFunc</text>
</a>
</g>
</g>
<!-- Node863&#45;&gt;Node864 -->
<g id="edge38" class="edge">
<title>Node863&#45;&gt;Node864</title>
<path fill="none" stroke="#191970" d="M1743.7091,-41.5667C1735.2556,-41.5667 1726.5605,-41.5667 1718.2936,-41.5667"/>
<polygon fill="#191970" stroke="#191970" points="1743.8558,-45.0668 1753.8557,-41.5667 1743.8557,-38.0668 1743.8558,-45.0668"/>
</g>
<!-- Node865 -->
<g id="node26" class="node">
<title>Node865</title>
<g id="a_node26"><a xlink:href="../../d5/d65/DBcell_8cpp.html#a477655c2fa1329377175832c4a3a936a" target="_top" xlink:title=" ">
<polygon fill="#ffffff" stroke="#000000" points="1510,-32.0667 1510,-51.0667 1592,-51.0667 1592,-32.0667 1510,-32.0667"/>
<text text-anchor="middle" x="1551" y="-39.0667" font-family="Helvetica,sans-Serif" font-size="10.00" fill="#000000">DBDeleteCell</text>
</a>
</g>
</g>
<!-- Node864&#45;&gt;Node865 -->
<g id="edge39" class="edge">
<title>Node864&#45;&gt;Node865</title>
<path fill="none" stroke="#191970" d="M1618.8849,-41.5667C1609.8792,-41.5667 1600.68,-41.5667 1592.0782,-41.5667"/>
<polygon fill="#191970" stroke="#191970" points="1618.9282,-45.0668 1628.9282,-41.5667 1618.9281,-38.0668 1618.9282,-45.0668"/>
</g>
<!-- Node868&#45;&gt;Node860 -->
<g id="edge45" class="edge">
<title>Node868&#45;&gt;Node860</title>
<path fill="none" stroke="#191970" d="M2002.0809,-104.9772C1984.1608,-99.3955 1963.5563,-92.9777 1947.5379,-87.9883"/>
<polygon fill="#191970" stroke="#191970" points="2001.1258,-108.3454 2011.7142,-107.9777 2003.2075,-101.6621 2001.1258,-108.3454"/>
</g>
<!-- Node868&#45;&gt;Node862 -->
<g id="edge46" class="edge">
<title>Node868&#45;&gt;Node862</title>
<path fill="none" stroke="#191970" d="M2023.8393,-100.9802C2009.3483,-88.6903 1988.3575,-72.1363 1968,-60.5667 1961.5136,-56.8804 1954.1698,-53.5675 1947.2296,-50.78"/>
<polygon fill="#191970" stroke="#191970" points="2021.7105,-103.7662 2031.5664,-107.6536 2026.2859,-98.4684 2021.7105,-103.7662"/>
</g>
<!-- Node868&#45;&gt;Node866 -->
<g id="edge47" class="edge">
<title>Node868&#45;&gt;Node866</title>
<path fill="none" stroke="#191970" d="M2001.7892,-130.2471C1985.305,-135.3815 1966.59,-141.2108 1951.2759,-145.9808"/>
<polygon fill="#191970" stroke="#191970" points="2003.2075,-133.4713 2011.7142,-127.1557 2001.1258,-126.788 2003.2075,-133.4713"/>
</g>
<!-- Node868&#45;&gt;Node867 -->
<g id="edge48" class="edge">
<title>Node868&#45;&gt;Node867</title>
<path fill="none" stroke="#191970" d="M1993.838,-117.5667C1985.4198,-117.5667 1976.6745,-117.5667 1968.28,-117.5667"/>
<polygon fill="#191970" stroke="#191970" points="1993.8985,-121.0668 2003.8984,-117.5667 1993.8984,-114.0668 1993.8985,-121.0668"/>
</g>
</g>
</svg>
        <g id="navigator" transform="translate(0 0)" fill="#404254">
                <rect fill="#f2f5e9" fill-opacity="0.5" stroke="#606060" stroke-width=".5" x="0" y="0" width="60" height="60"/>
                <use id="zoomplus" xlink:href="#zoomPlus" x="17" y="9" onmousedown="handleZoom(evt,'in')"/>
                <use id="zoomminus" xlink:href="#zoomMin" x="42" y="9" onmousedown="handleZoom(evt,'out')"/>
                <use id="reset" xlink:href="#resetDef" x="30" y="36" onmousedown="handleReset()"/>
                <g id="arrowUp" xlink:href="#dirArrow" transform="translate(30 24)" onmousedown="handlePan(0,-1)">
                  <use xlink:href="#rim" fill="#404040">
                        <set attributeName="fill" to="#808080" begin="arrowUp.mouseover" end="arrowUp.mouseout"/>
                  </use>
                  <path fill="none" stroke="white" stroke-width="1.5" d="M0,-3.0v7 M-2.5,-0.5L0,-3.0L2.5,-0.5"/>
                </g>
                <g id="arrowRight" xlink:href="#dirArrow" transform="rotate(90) translate(36 -43)" onmousedown="handlePan(1,0)">
                  <use xlink:href="#rim" fill="#404040">
                        <set attributeName="fill" to="#808080" begin="arrowRight.mouseover" end="arrowRight.mouseout"/>
                  </use>
                  <path fill="none" stroke="white" stroke-width="1.5" d="M0,-3.0v7 M-2.5,-0.5L0,-3.0L2.5,-0.5"/>
                </g>
                <g id="arrowDown" xlink:href="#dirArrow" transform="rotate(180) translate(-30 -48)" onmousedown="handlePan(0,1)">
                  <use xlink:href="#rim" fill="#404040">
                        <set attributeName="fill" to="#808080" begin="arrowDown.mouseover" end="arrowDown.mouseout"/>
                  </use>
                  <path fill="none" stroke="white" stroke-width="1.5" d="M0,-3.0v7 M-2.5,-0.5L0,-3.0L2.5,-0.5"/>
                </g>
                <g id="arrowLeft" xlink:href="#dirArrow" transform="rotate(270) translate(-36 17)" onmousedown="handlePan(-1,0)">
                  <use xlink:href="#rim" fill="#404040">
                        <set attributeName="fill" to="#808080" begin="arrowLeft.mouseover" end="arrowLeft.mouseout"/>
                  </use>
                  <path fill="none" stroke="white" stroke-width="1.5" d="M0,-3.0v7 M-2.5,-0.5L0,-3.0L2.5,-0.5"/>
                </g>
        </g>
        <svg viewBox="0 0 15 15" width="100%" height="30px" preserveAspectRatio="xMaxYMin meet">
         <g id="arrow_out" transform="scale(0.3 0.3)">
          <a xlink:href="tile_8h_a911c55bd3c5cfeb36f3ddd57354f6805_icgraph_org.svg" target="_base">
           <rect id="button" ry="5" rx="5" y="6" x="6" height="38" width="38"
                fill="#f2f5e9" fill-opacity="0.5" stroke="#606060" stroke-width="1.0"/>
           <path id="arrow"
             d="M 11.500037,31.436501 C 11.940474,20.09759 22.043105,11.32322 32.158766,21.979434 L 37.068811,17.246167 C 37.068811,17.246167 37.088388,32 37.088388,32 L 22.160133,31.978069 C 22.160133,31.978069 26.997745,27.140456 26.997745,27.140456 C 18.528582,18.264221 13.291696,25.230495 11.500037,31.436501 z"
             style="fill:#404040;"/>
          </a>
         </g>
        </svg>
</svg>
