<?xml version="1.0" encoding="UTF-8" standalone="no"?>
<!DOCTYPE svg PUBLIC "-//W3C//DTD SVG 1.1//EN"
 "http://www.w3.org/Graphics/SVG/1.1/DTD/svg11.dtd">
<!-- Generated by graphviz version 2.40.1 (0)
 -->
<!-- Title: BreadboardSketchWidget::setWireVisible Pages: 1 -->
<svg width="711pt" height="88pt"
 viewBox="0.00 0.00 711.00 88.00" xmlns="http://www.w3.org/2000/svg" xmlns:xlink="http://www.w3.org/1999/xlink">
<g id="graph0" class="graph" transform="scale(1 1) rotate(0) translate(4 84)">
<title>BreadboardSketchWidget::setWireVisible</title>
<polygon fill="#ffffff" stroke="transparent" points="-4,4 -4,-84 707,-84 707,4 -4,4"/>
<!-- Node519 -->
<g id="node1" class="node">
<title>Node519</title>
<g id="a_node1"><a xlink:title=" ">
<polygon fill="#bfbfbf" stroke="#000000" points="0,-14 0,-44 140,-44 140,-14 0,-14"/>
<text text-anchor="start" x="8" y="-32" font-family="Helvetica,sans-Serif" font-size="10.00" fill="#000000">BreadboardSketchWidget</text>
<text text-anchor="middle" x="70" y="-21" font-family="Helvetica,sans-Serif" font-size="10.00" fill="#000000">::setWireVisible</text>
</a>
</g>
</g>
<!-- Node520 -->
<g id="node2" class="node">
<title>Node520</title>
<g id="a_node2"><a xlink:href="../../d7/d64/classWire.html#acd91a8ba688eef28fb3f1da2b10f6ff5" target="_top" xlink:title=" ">
<polygon fill="#ffffff" stroke="#000000" points="202.5,-38.5 202.5,-57.5 288.5,-57.5 288.5,-38.5 202.5,-38.5"/>
<text text-anchor="middle" x="245.5" y="-45.5" font-family="Helvetica,sans-Serif" font-size="10.00" fill="#000000">Wire::getTrace</text>
</a>
</g>
</g>
<!-- Node519&#45;&gt;Node520 -->
<g id="edge1" class="edge">
<title>Node519&#45;&gt;Node520</title>
<path fill="none" stroke="#191970" d="M140.1189,-36.5912C157.5134,-38.4744 175.8719,-40.4619 192.306,-42.2411"/>
<polygon fill="#191970" stroke="#191970" points="191.9453,-45.7224 202.264,-43.3192 192.6988,-38.7631 191.9453,-45.7224"/>
</g>
<!-- Node524 -->
<g id="node6" class="node">
<title>Node524</title>
<g id="a_node6"><a xlink:href="../../d4/d4f/classItemBase.html#aa111fd950b091e013ba3800604020b00" target="_top" xlink:title=" ">
<polygon fill="#ffffff" stroke="#000000" points="176,-.5 176,-19.5 315,-19.5 315,-.5 176,-.5"/>
<text text-anchor="middle" x="245.5" y="-7.5" font-family="Helvetica,sans-Serif" font-size="10.00" fill="#000000">ItemBase::setEverVisible</text>
</a>
</g>
</g>
<!-- Node519&#45;&gt;Node524 -->
<g id="edge5" class="edge">
<title>Node519&#45;&gt;Node524</title>
<path fill="none" stroke="#191970" d="M140.1189,-21.4088C148.5595,-20.495 157.2272,-19.5566 165.7918,-18.6294"/>
<polygon fill="#191970" stroke="#191970" points="166.2137,-22.1043 175.7788,-17.5482 165.4602,-15.1449 166.2137,-22.1043"/>
</g>
<!-- Node521 -->
<g id="node3" class="node">
<title>Node521</title>
<g id="a_node3"><a xlink:href="../../d3/de8/classViewGeometry.html#a0e0483df543b8ef0232569383ecb63f7" target="_top" xlink:title=" ">
<polygon fill="#ffffff" stroke="#000000" points="351,-38.5 351,-57.5 506,-57.5 506,-38.5 351,-38.5"/>
<text text-anchor="middle" x="428.5" y="-45.5" font-family="Helvetica,sans-Serif" font-size="10.00" fill="#000000">ViewGeometry::getAnyTrace</text>
</a>
</g>
</g>
<!-- Node520&#45;&gt;Node521 -->
<g id="edge2" class="edge">
<title>Node520&#45;&gt;Node521</title>
<path fill="none" stroke="#191970" d="M288.8684,-48C304.4026,-48 322.5243,-48 340.4678,-48"/>
<polygon fill="#191970" stroke="#191970" points="340.6946,-51.5001 350.6946,-48 340.6946,-44.5001 340.6946,-51.5001"/>
</g>
<!-- Node522 -->
<g id="node4" class="node">
<title>Node522</title>
<g id="a_node4"><a xlink:href="../../d3/de8/classViewGeometry.html#a36bf8fa6c0bfb1e2af0bb3c4fcb5fdd2" target="_top" xlink:title=" ">
<polygon fill="#ffffff" stroke="#000000" points="545,-60.5 545,-79.5 700,-79.5 700,-60.5 545,-60.5"/>
<text text-anchor="middle" x="622.5" y="-67.5" font-family="Helvetica,sans-Serif" font-size="10.00" fill="#000000">ViewGeometry::getPCBTrace</text>
</a>
</g>
</g>
<!-- Node521&#45;&gt;Node522 -->
<g id="edge3" class="edge">
<title>Node521&#45;&gt;Node522</title>
<path fill="none" stroke="#191970" d="M506.0103,-56.7898C515.4883,-57.8647 525.2253,-58.9688 534.8387,-60.059"/>
<polygon fill="#191970" stroke="#191970" points="534.4655,-63.5391 544.7962,-61.1882 535.2543,-56.5836 534.4655,-63.5391"/>
</g>
<!-- Node523 -->
<g id="node5" class="node">
<title>Node523</title>
<g id="a_node5"><a xlink:href="../../d3/de8/classViewGeometry.html#a972ab74ff22c5c3d4cb4e587cb8d59fd" target="_top" xlink:title=" ">
<polygon fill="#ffffff" stroke="#000000" points="542,-11 542,-41 703,-41 703,-11 542,-11"/>
<text text-anchor="start" x="550" y="-29" font-family="Helvetica,sans-Serif" font-size="10.00" fill="#000000">ViewGeometry::getSchematic</text>
<text text-anchor="middle" x="622.5" y="-18" font-family="Helvetica,sans-Serif" font-size="10.00" fill="#000000">Trace</text>
</a>
</g>
</g>
<!-- Node521&#45;&gt;Node523 -->
<g id="edge4" class="edge">
<title>Node521&#45;&gt;Node523</title>
<path fill="none" stroke="#191970" d="M506.0103,-39.2102C514.5063,-38.2467 523.2103,-37.2597 531.847,-36.2802"/>
<polygon fill="#191970" stroke="#191970" points="532.3963,-39.7405 541.9382,-35.1359 531.6075,-32.785 532.3963,-39.7405"/>
</g>
</g>
</svg>
