<?xml version="1.0" encoding="UTF-8" standalone="no"?>
<!DOCTYPE svg PUBLIC "-//W3C//DTD SVG 1.1//EN"
 "http://www.w3.org/Graphics/SVG/1.1/DTD/svg11.dtd">
<!-- Generated by graphviz version 2.40.1 (0)
 -->
<!-- Title: BreadboardSketchWidget::BreadboardSketchWidget Pages: 1 -->
<!--zoomable 193 -->
<svg id="main" version="1.1" xmlns="http://www.w3.org/2000/svg" xmlns:xlink="http://www.w3.org/1999/xlink" xml:space="preserve" onload="init(evt)">
<style type="text/css"><![CDATA[
.edge:hover path { stroke: red; }
.edge:hover polygon { stroke: red; fill: red; }
]]></style>
<script type="text/javascript"><![CDATA[
var edges = document.getElementsByTagName('g');
if (edges && edges.length) {
  for (var i=0;i<edges.length;i++) {
    if (edges[i].id.substr(0,4)=='edge') {
      edges[i].setAttribute('class','edge');
    }
  }
}
]]></script>
        <defs>
                <circle id="rim" cx="0" cy="0" r="7"/>
                <circle id="rim2" cx="0" cy="0" r="3.5"/>
                <g id="zoomPlus">
                        <use xlink:href="#rim" fill="#404040">
                                <set attributeName="fill" to="#808080" begin="zoomplus.mouseover" end="zoomplus.mouseout"/>
                        </use>
                        <path d="M-4,0h8M0,-4v8" fill="none" stroke="white" stroke-width="1.5" pointer-events="none"/>
                </g>
                <g id="zoomMin">
                        <use xlink:href="#rim" fill="#404040">
                                <set attributeName="fill" to="#808080" begin="zoomminus.mouseover" end="zoomminus.mouseout"/>
                        </use>
                        <path d="M-4,0h8" fill="none" stroke="white" stroke-width="1.5" pointer-events="none"/>
                </g>
                <g id="dirArrow">
                        <path fill="none" stroke="white" stroke-width="1.5" d="M0,-3.0v7 M-2.5,-0.5L0,-3.0L2.5,-0.5"/>
                </g>
               <g id="resetDef">
                       <use xlink:href="#rim2" fill="#404040">
                               <set attributeName="fill" to="#808080" begin="reset.mouseover" end="reset.mouseout"/>
                       </use>
               </g>
        </defs>

<script type="text/javascript">
var viewWidth = 768;
var viewHeight = 193;
var sectionId = 'dynsection-2';
</script>
<script xlink:href="../../svgpan.js"/>
<svg id="graph" class="graph">
<g id="viewport">
<title>BreadboardSketchWidget::BreadboardSketchWidget</title>
<polygon fill="#ffffff" stroke="transparent" points="-4,4 -4,-188.5 764,-188.5 764,4 -4,4"/>
<!-- Node0 -->
<g id="node1" class="node">
<title>Node0</title>
<g id="a_node1"><a xlink:title=" ">
<polygon fill="#bfbfbf" stroke="#000000" points="0,-80.5 0,-110.5 146,-110.5 146,-80.5 0,-80.5"/>
<text text-anchor="start" x="8" y="-98.5" font-family="Helvetica,sans-Serif" font-size="10.00" fill="#000000">BreadboardSketchWidget</text>
<text text-anchor="middle" x="73" y="-87.5" font-family="Helvetica,sans-Serif" font-size="10.00" fill="#000000">::BreadboardSketchWidget</text>
</a>
</g>
</g>
<!-- Node1 -->
<g id="node2" class="node">
<title>Node1</title>
<g id="a_node2"><a xlink:href="../../df/dee/classBreadboardSketchWidget.html#ab27ea062a454f0c367c0b81e0c1d10c7" target="_top" xlink:title=" ">
<polygon fill="#ffffff" stroke="#000000" points="193.5,-124.5 193.5,-154.5 333.5,-154.5 333.5,-124.5 193.5,-124.5"/>
<text text-anchor="start" x="201.5" y="-142.5" font-family="Helvetica,sans-Serif" font-size="10.00" fill="#000000">BreadboardSketchWidget</text>
<text text-anchor="middle" x="263.5" y="-131.5" font-family="Helvetica,sans-Serif" font-size="10.00" fill="#000000">::colorWiresByLength</text>
</a>
</g>
</g>
<!-- Node0&#45;&gt;Node1 -->
<g id="edge1" class="edge">
<title>Node0&#45;&gt;Node1</title>
<path fill="none" stroke="#191970" d="M138.0265,-110.5192C154.1826,-114.2508 171.6329,-118.2814 188.235,-122.116"/>
<polygon fill="#191970" stroke="#191970" points="187.9122,-125.6335 198.4434,-124.4738 189.4876,-118.813 187.9122,-125.6335"/>
</g>
<!-- Node4 -->
<g id="node5" class="node">
<title>Node4</title>
<g id="a_node5"><a xlink:href="../../d8/d37/classSketchWidget.html#abad7a8845b77406c24fb4b509a9fe74b" target="_top" xlink:title=" ">
<polygon fill="#ffffff" stroke="#000000" points="396,-85 396,-104 556,-104 556,-85 396,-85"/>
<text text-anchor="middle" x="476" y="-92" font-family="Helvetica,sans-Serif" font-size="10.00" fill="#000000">SketchWidget::getShortName</text>
</a>
</g>
</g>
<!-- Node0&#45;&gt;Node4 -->
<g id="edge4" class="edge">
<title>Node0&#45;&gt;Node4</title>
<path fill="none" stroke="#191970" d="M146.4478,-95.3177C213.6361,-95.151 313.2573,-94.9038 385.3699,-94.7249"/>
<polygon fill="#191970" stroke="#191970" points="385.8114,-98.2239 395.8027,-94.699 385.794,-91.2239 385.8114,-98.2239"/>
</g>
<!-- Node5 -->
<g id="node6" class="node">
<title>Node5</title>
<g id="a_node6"><a xlink:href="../../d8/d37/classSketchWidget.html#ace59bc806c8d3defbd0c6ae157876aaf" target="_top" xlink:title=" ">
<polygon fill="#ffffff" stroke="#000000" points="182,-36.5 182,-66.5 345,-66.5 345,-36.5 182,-36.5"/>
<text text-anchor="start" x="190" y="-54.5" font-family="Helvetica,sans-Serif" font-size="10.00" fill="#000000">SketchWidget::initBackground</text>
<text text-anchor="middle" x="263.5" y="-43.5" font-family="Helvetica,sans-Serif" font-size="10.00" fill="#000000">Color</text>
</a>
</g>
</g>
<!-- Node0&#45;&gt;Node5 -->
<g id="edge5" class="edge">
<title>Node0&#45;&gt;Node5</title>
<path fill="none" stroke="#191970" d="M138.0265,-80.4808C154.1826,-76.7492 171.6329,-72.7186 188.235,-68.884"/>
<polygon fill="#191970" stroke="#191970" points="189.4876,-72.187 198.4434,-66.5262 187.9122,-65.3665 189.4876,-72.187"/>
</g>
<!-- Node2 -->
<g id="node3" class="node">
<title>Node2</title>
<g id="a_node3"><a xlink:href="../../d8/d37/classSketchWidget.html#a4319a31c3a619e166f0e7dac865e2ea3" target="_top" xlink:title=" ">
<polygon fill="#ffffff" stroke="#000000" points="405,-165 405,-184 547,-184 547,-165 405,-165"/>
<text text-anchor="middle" x="476" y="-172" font-family="Helvetica,sans-Serif" font-size="10.00" fill="#000000">SketchWidget::viewName</text>
</a>
</g>
</g>
<!-- Node1&#45;&gt;Node2 -->
<g id="edge2" class="edge">
<title>Node1&#45;&gt;Node2</title>
<path fill="none" stroke="#191970" d="M333.6694,-151.0573C357.6815,-155.0122 384.4834,-159.4267 408.2969,-163.3489"/>
<polygon fill="#191970" stroke="#191970" points="407.867,-166.8252 418.3029,-164.9969 409.0046,-159.9182 407.867,-166.8252"/>
</g>
<!-- Node3 -->
<g id="node4" class="node">
<title>Node3</title>
<g id="a_node4"><a xlink:href="../../d7/d64/classWire.html#afc280e2032f55b16d166bfad71055e2d" target="_top" xlink:title=" ">
<polygon fill="#ffffff" stroke="#000000" points="418.5,-127 418.5,-146 533.5,-146 533.5,-127 418.5,-127"/>
<text text-anchor="middle" x="476" y="-134" font-family="Helvetica,sans-Serif" font-size="10.00" fill="#000000">Wire::colorByLength</text>
</a>
</g>
</g>
<!-- Node1&#45;&gt;Node3 -->
<g id="edge3" class="edge">
<title>Node1&#45;&gt;Node3</title>
<path fill="none" stroke="#191970" d="M333.6694,-138.5094C357.6815,-138.1704 384.4834,-137.792 408.2969,-137.4558"/>
<polygon fill="#191970" stroke="#191970" points="408.3533,-140.9555 418.3029,-137.3145 408.2544,-133.9562 408.3533,-140.9555"/>
</g>
<!-- Node5&#45;&gt;Node4 -->
<g id="edge9" class="edge">
<title>Node5&#45;&gt;Node4</title>
<path fill="none" stroke="#191970" d="M337.8222,-66.5393C364.4358,-71.9247 393.9957,-77.9062 418.9228,-82.9503"/>
<polygon fill="#191970" stroke="#191970" points="418.4468,-86.4248 428.9424,-84.9777 419.8352,-79.5639 418.4468,-86.4248"/>
</g>
<!-- Node6 -->
<g id="node7" class="node">
<title>Node6</title>
<g id="a_node7"><a xlink:href="../../d8/d37/classSketchWidget.html#ac483ccccb3d08d709bbb924eac9cdeaf" target="_top" xlink:title=" ">
<polygon fill="#ffffff" stroke="#000000" points="395,-44 395,-63 557,-63 557,-44 395,-44"/>
<text text-anchor="middle" x="476" y="-51" font-family="Helvetica,sans-Serif" font-size="10.00" fill="#000000">SketchWidget::setBackground</text>
</a>
</g>
</g>
<!-- Node5&#45;&gt;Node6 -->
<g id="edge6" class="edge">
<title>Node5&#45;&gt;Node6</title>
<path fill="none" stroke="#191970" d="M345.0503,-52.2675C357.8876,-52.3884 371.2341,-52.514 384.2826,-52.6368"/>
<polygon fill="#191970" stroke="#191970" points="384.6354,-56.1402 394.6679,-52.7345 384.7013,-49.1405 384.6354,-56.1402"/>
</g>
<!-- Node7 -->
<g id="node8" class="node">
<title>Node7</title>
<g id="a_node8"><a xlink:href="../../d8/d37/classSketchWidget.html#aaebec2e699bdf2855979bc62bb6338cd" target="_top" xlink:title=" ">
<polygon fill="#ffffff" stroke="#000000" points="381,-6 381,-25 571,-25 571,-6 381,-6"/>
<text text-anchor="middle" x="476" y="-13" font-family="Helvetica,sans-Serif" font-size="10.00" fill="#000000">SketchWidget::standardBackground</text>
</a>
</g>
</g>
<!-- Node5&#45;&gt;Node7 -->
<g id="edge7" class="edge">
<title>Node5&#45;&gt;Node7</title>
<path fill="none" stroke="#191970" d="M345.0503,-37.6844C366.4747,-34.0549 389.3175,-30.185 409.8262,-26.7106"/>
<polygon fill="#191970" stroke="#191970" points="410.4153,-30.1608 419.6901,-25.0396 409.246,-23.2591 410.4153,-30.1608"/>
</g>
<!-- Node8 -->
<g id="node9" class="node">
<title>Node8</title>
<g id="a_node9"><a xlink:href="../../d1/db9/classRatsnestColors.html#ae24dd044cfa689bb053aa46e5ff28a7a" target="_top" xlink:title=" ">
<polygon fill="#ffffff" stroke="#000000" points="607,-.5 607,-30.5 760,-30.5 760,-.5 607,-.5"/>
<text text-anchor="start" x="615" y="-18.5" font-family="Helvetica,sans-Serif" font-size="10.00" fill="#000000">RatsnestColors::background</text>
<text text-anchor="middle" x="683.5" y="-7.5" font-family="Helvetica,sans-Serif" font-size="10.00" fill="#000000">Color</text>
</a>
</g>
</g>
<!-- Node7&#45;&gt;Node8 -->
<g id="edge8" class="edge">
<title>Node7&#45;&gt;Node8</title>
<path fill="none" stroke="#191970" d="M571.2477,-15.5C579.731,-15.5 588.2905,-15.5 596.6975,-15.5"/>
<polygon fill="#191970" stroke="#191970" points="596.8611,-19.0001 606.861,-15.5 596.861,-12.0001 596.8611,-19.0001"/>
</g>
</g>
</svg>
        <g id="navigator" transform="translate(0 0)" fill="#404254">
                <rect fill="#f2f5e9" fill-opacity="0.5" stroke="#606060" stroke-width=".5" x="0" y="0" width="60" height="60"/>
                <use id="zoomplus" xlink:href="#zoomPlus" x="17" y="9" onmousedown="handleZoom(evt,'in')"/>
                <use id="zoomminus" xlink:href="#zoomMin" x="42" y="9" onmousedown="handleZoom(evt,'out')"/>
                <use id="reset" xlink:href="#resetDef" x="30" y="36" onmousedown="handleReset()"/>
                <g id="arrowUp" xlink:href="#dirArrow" transform="translate(30 24)" onmousedown="handlePan(0,-1)">
                  <use xlink:href="#rim" fill="#404040">
                        <set attributeName="fill" to="#808080" begin="arrowUp.mouseover" end="arrowUp.mouseout"/>
                  </use>
                  <path fill="none" stroke="white" stroke-width="1.5" d="M0,-3.0v7 M-2.5,-0.5L0,-3.0L2.5,-0.5"/>
                </g>
                <g id="arrowRight" xlink:href="#dirArrow" transform="rotate(90) translate(36 -43)" onmousedown="handlePan(1,0)">
                  <use xlink:href="#rim" fill="#404040">
                        <set attributeName="fill" to="#808080" begin="arrowRight.mouseover" end="arrowRight.mouseout"/>
                  </use>
                  <path fill="none" stroke="white" stroke-width="1.5" d="M0,-3.0v7 M-2.5,-0.5L0,-3.0L2.5,-0.5"/>
                </g>
                <g id="arrowDown" xlink:href="#dirArrow" transform="rotate(180) translate(-30 -48)" onmousedown="handlePan(0,1)">
                  <use xlink:href="#rim" fill="#404040">
                        <set attributeName="fill" to="#808080" begin="arrowDown.mouseover" end="arrowDown.mouseout"/>
                  </use>
                  <path fill="none" stroke="white" stroke-width="1.5" d="M0,-3.0v7 M-2.5,-0.5L0,-3.0L2.5,-0.5"/>
                </g>
                <g id="arrowLeft" xlink:href="#dirArrow" transform="rotate(270) translate(-36 17)" onmousedown="handlePan(-1,0)">
                  <use xlink:href="#rim" fill="#404040">
                        <set attributeName="fill" to="#808080" begin="arrowLeft.mouseover" end="arrowLeft.mouseout"/>
                  </use>
                  <path fill="none" stroke="white" stroke-width="1.5" d="M0,-3.0v7 M-2.5,-0.5L0,-3.0L2.5,-0.5"/>
                </g>
        </g>
        <svg viewBox="0 0 15 15" width="100%" height="30px" preserveAspectRatio="xMaxYMin meet">
         <g id="arrow_out" transform="scale(0.3 0.3)">
          <a xlink:href="classBreadboardSketchWidget_a758a8e36849062e1df2c6a9350cce617_cgraph_org.svg" target="_base">
           <rect id="button" ry="5" rx="5" y="6" x="6" height="38" width="38"
                fill="#f2f5e9" fill-opacity="0.5" stroke="#606060" stroke-width="1.0"/>
           <path id="arrow"
             d="M 11.500037,31.436501 C 11.940474,20.09759 22.043105,11.32322 32.158766,21.979434 L 37.068811,17.246167 C 37.068811,17.246167 37.088388,32 37.088388,32 L 22.160133,31.978069 C 22.160133,31.978069 26.997745,27.140456 26.997745,27.140456 C 18.528582,18.264221 13.291696,25.230495 11.500037,31.436501 z"
             style="fill:#404040;"/>
          </a>
         </g>
        </svg>
</svg>
