<?xml version="1.0" encoding="UTF-8" standalone="no"?>
<!DOCTYPE svg PUBLIC "-//W3C//DTD SVG 1.1//EN"
 "http://www.w3.org/Graphics/SVG/1.1/DTD/svg11.dtd">
<!-- Generated by graphviz version 2.40.1 (0)
 -->
<!-- Title: TrieNode::matchesChar Pages: 1 -->
<!--zoomable 84 -->
<svg id="main" version="1.1" xmlns="http://www.w3.org/2000/svg" xmlns:xlink="http://www.w3.org/1999/xlink" xml:space="preserve" onload="init(evt)">
<style type="text/css"><![CDATA[
.edge:hover path { stroke: red; }
.edge:hover polygon { stroke: red; fill: red; }
]]></style>
<script type="text/javascript"><![CDATA[
var edges = document.getElementsByTagName('g');
if (edges && edges.length) {
  for (var i=0;i<edges.length;i++) {
    if (edges[i].id.substr(0,4)=='edge') {
      edges[i].setAttribute('class','edge');
    }
  }
}
]]></script>
        <defs>
                <circle id="rim" cx="0" cy="0" r="7"/>
                <circle id="rim2" cx="0" cy="0" r="3.5"/>
                <g id="zoomPlus">
                        <use xlink:href="#rim" fill="#404040">
                                <set attributeName="fill" to="#808080" begin="zoomplus.mouseover" end="zoomplus.mouseout"/>
                        </use>
                        <path d="M-4,0h8M0,-4v8" fill="none" stroke="white" stroke-width="1.5" pointer-events="none"/>
                </g>
                <g id="zoomMin">
                        <use xlink:href="#rim" fill="#404040">
                                <set attributeName="fill" to="#808080" begin="zoomminus.mouseover" end="zoomminus.mouseout"/>
                        </use>
                        <path d="M-4,0h8" fill="none" stroke="white" stroke-width="1.5" pointer-events="none"/>
                </g>
                <g id="dirArrow">
                        <path fill="none" stroke="white" stroke-width="1.5" d="M0,-3.0v7 M-2.5,-0.5L0,-3.0L2.5,-0.5"/>
                </g>
               <g id="resetDef">
                       <use xlink:href="#rim2" fill="#404040">
                               <set attributeName="fill" to="#808080" begin="reset.mouseover" end="reset.mouseout"/>
                       </use>
               </g>
        </defs>

<script type="text/javascript">
var viewWidth = 749;
var viewHeight = 84;
var sectionId = 'dynsection-8';
</script>
<script xlink:href="../../svgpan.js"/>
<svg id="graph" class="graph">
<g id="viewport">
<title>TrieNode::matchesChar</title>
<polygon fill="#ffffff" stroke="transparent" points="-4,4 -4,-80 745,-80 745,4 -4,4"/>
<!-- Node29 -->
<g id="node1" class="node">
<title>Node29</title>
<g id="a_node1"><a xlink:title=" ">
<polygon fill="#bfbfbf" stroke="#000000" points="611,-28.5 611,-47.5 741,-47.5 741,-28.5 611,-28.5"/>
<text text-anchor="middle" x="676" y="-35.5" font-family="Helvetica,sans-Serif" font-size="10.00" fill="#000000">TrieNode::matchesChar</text>
</a>
</g>
</g>
<!-- Node30 -->
<g id="node2" class="node">
<title>Node30</title>
<g id="a_node2"><a xlink:href="../../d1/dc6/classTrieNode.html#a1ca15e0674a5cb8aae5644e8b1f6471f" target="_top" xlink:title=" ">
<polygon fill="#ffffff" stroke="#000000" points="444,-56.5 444,-75.5 575,-75.5 575,-56.5 444,-56.5"/>
<text text-anchor="middle" x="509.5" y="-63.5" font-family="Helvetica,sans-Serif" font-size="10.00" fill="#000000">TrieNode::addStringAux</text>
</a>
</g>
</g>
<!-- Node29&#45;&gt;Node30 -->
<g id="edge1" class="edge">
<title>Node29&#45;&gt;Node30</title>
<path fill="none" stroke="#191970" d="M608.9537,-49.2751C594.7355,-51.6661 579.8614,-54.1674 566.078,-56.4854"/>
<polygon fill="#191970" stroke="#191970" points="609.8848,-52.6677 619.1658,-47.5577 608.7238,-45.7646 609.8848,-52.6677"/>
</g>
<!-- Node34 -->
<g id="node6" class="node">
<title>Node34</title>
<g id="a_node6"><a xlink:href="../../d1/dc6/classTrieNode.html#ab6627c8938570abb90812201373d61da" target="_top" xlink:title=" ">
<polygon fill="#ffffff" stroke="#000000" points="456,-.5 456,-19.5 563,-19.5 563,-.5 456,-.5"/>
<text text-anchor="middle" x="509.5" y="-7.5" font-family="Helvetica,sans-Serif" font-size="10.00" fill="#000000">TrieNode::matches</text>
</a>
</g>
</g>
<!-- Node29&#45;&gt;Node34 -->
<g id="edge6" class="edge">
<title>Node29&#45;&gt;Node34</title>
<path fill="none" stroke="#191970" d="M609.2585,-26.7762C593.9781,-24.2065 577.9245,-21.5068 563.2704,-19.0425"/>
<polygon fill="#191970" stroke="#191970" points="608.7238,-30.2354 619.1658,-28.4423 609.8848,-23.3323 608.7238,-30.2354"/>
</g>
<!-- Node31 -->
<g id="node3" class="node">
<title>Node31</title>
<g id="a_node3"><a xlink:href="../../d1/dc6/classTrieNode.html#a499374f6d5aad2191c333d72c8b61bf1" target="_top" xlink:title=" ">
<polygon fill="#ffffff" stroke="#000000" points="296,-56.5 296,-75.5 408,-75.5 408,-56.5 296,-56.5"/>
<text text-anchor="middle" x="352" y="-63.5" font-family="Helvetica,sans-Serif" font-size="10.00" fill="#000000">TrieNode::addString</text>
</a>
</g>
</g>
<!-- Node30&#45;&gt;Node31 -->
<g id="edge2" class="edge">
<title>Node30&#45;&gt;Node31</title>
<path fill="none" stroke="#191970" d="M433.5915,-59.2539C425.0115,-59.2303 416.3866,-59.3137 408.1247,-59.504"/>
<polygon fill="#191970" stroke="#191970" points="433.5918,-62.7539 443.6184,-59.3307 433.6456,-55.7541 433.5918,-62.7539"/>
</g>
<!-- Node31&#45;&gt;Node30 -->
<g id="edge5" class="edge">
<title>Node31&#45;&gt;Node30</title>
<path fill="none" stroke="#191970" d="M418.2425,-72.6737C426.6381,-72.7769 435.2284,-72.7754 443.6184,-72.6693"/>
<polygon fill="#191970" stroke="#191970" points="418.1846,-69.1723 408.1247,-72.496 418.0616,-76.1712 418.1846,-69.1723"/>
</g>
<!-- Node32 -->
<g id="node4" class="node">
<title>Node32</title>
<g id="a_node4"><a xlink:href="../../d3/da3/classSyntaxer.html#a1a015a8cb842e2a347d7e4bb4974f4b3" target="_top" xlink:title=" ">
<polygon fill="#ffffff" stroke="#000000" points="156,-56.5 156,-75.5 260,-75.5 260,-56.5 156,-56.5"/>
<text text-anchor="middle" x="208" y="-63.5" font-family="Helvetica,sans-Serif" font-size="10.00" fill="#000000">Syntaxer::loadList</text>
</a>
</g>
</g>
<!-- Node31&#45;&gt;Node32 -->
<g id="edge3" class="edge">
<title>Node31&#45;&gt;Node32</title>
<path fill="none" stroke="#191970" d="M285.6624,-66C277.1894,-66 268.6112,-66 260.401,-66"/>
<polygon fill="#191970" stroke="#191970" points="285.9135,-69.5001 295.9135,-66 285.9135,-62.5001 285.9135,-69.5001"/>
</g>
<!-- Node33 -->
<g id="node5" class="node">
<title>Node33</title>
<g id="a_node5"><a xlink:href="../../d3/da3/classSyntaxer.html#a487dceccdb9c9ef2f05bee411aba0a2c" target="_top" xlink:title=" ">
<polygon fill="#ffffff" stroke="#000000" points="0,-56.5 0,-75.5 120,-75.5 120,-56.5 0,-56.5"/>
<text text-anchor="middle" x="60" y="-63.5" font-family="Helvetica,sans-Serif" font-size="10.00" fill="#000000">Syntaxer::loadSyntax</text>
</a>
</g>
</g>
<!-- Node32&#45;&gt;Node33 -->
<g id="edge4" class="edge">
<title>Node32&#45;&gt;Node33</title>
<path fill="none" stroke="#191970" d="M145.6241,-66C137.1547,-66 128.477,-66 120.0497,-66"/>
<polygon fill="#191970" stroke="#191970" points="145.8208,-69.5001 155.8207,-66 145.8207,-62.5001 145.8208,-69.5001"/>
</g>
<!-- Node34&#45;&gt;Node34 -->
<g id="edge8" class="edge">
<title>Node34&#45;&gt;Node34</title>
<path fill="none" stroke="#191970" d="M538.6191,-28.6539C537.4019,-33.9368 527.6956,-38 509.5,-38 481.7734,-38 473.7587,-28.5653 485.4559,-19.7571"/>
<polygon fill="#191970" stroke="#191970" points="541.5391,-26.7091 533.5441,-19.7571 535.4588,-30.1775 541.5391,-26.7091"/>
</g>
<!-- Node35 -->
<g id="node7" class="node">
<title>Node35</title>
<g id="a_node7"><a xlink:href="../../d3/da3/classSyntaxer.html#a943e59f5593d06e2efaf17f157615921" target="_top" xlink:title=" ">
<polygon fill="#ffffff" stroke="#000000" points="298.5,-.5 298.5,-19.5 405.5,-19.5 405.5,-.5 298.5,-.5"/>
<text text-anchor="middle" x="352" y="-7.5" font-family="Helvetica,sans-Serif" font-size="10.00" fill="#000000">Syntaxer::matches</text>
</a>
</g>
</g>
<!-- Node34&#45;&gt;Node35 -->
<g id="edge7" class="edge">
<title>Node34&#45;&gt;Node35</title>
<path fill="none" stroke="#191970" d="M445.6859,-10C432.3551,-10 418.4315,-10 405.5198,-10"/>
<polygon fill="#191970" stroke="#191970" points="445.738,-13.5001 455.7379,-10 445.7379,-6.5001 445.738,-13.5001"/>
</g>
</g>
</svg>
        <g id="navigator" transform="translate(0 0)" fill="#404254">
                <rect fill="#f2f5e9" fill-opacity="0.5" stroke="#606060" stroke-width=".5" x="0" y="0" width="60" height="60"/>
                <use id="zoomplus" xlink:href="#zoomPlus" x="17" y="9" onmousedown="handleZoom(evt,'in')"/>
                <use id="zoomminus" xlink:href="#zoomMin" x="42" y="9" onmousedown="handleZoom(evt,'out')"/>
                <use id="reset" xlink:href="#resetDef" x="30" y="36" onmousedown="handleReset()"/>
                <g id="arrowUp" xlink:href="#dirArrow" transform="translate(30 24)" onmousedown="handlePan(0,-1)">
                  <use xlink:href="#rim" fill="#404040">
                        <set attributeName="fill" to="#808080" begin="arrowUp.mouseover" end="arrowUp.mouseout"/>
                  </use>
                  <path fill="none" stroke="white" stroke-width="1.5" d="M0,-3.0v7 M-2.5,-0.5L0,-3.0L2.5,-0.5"/>
                </g>
                <g id="arrowRight" xlink:href="#dirArrow" transform="rotate(90) translate(36 -43)" onmousedown="handlePan(1,0)">
                  <use xlink:href="#rim" fill="#404040">
                        <set attributeName="fill" to="#808080" begin="arrowRight.mouseover" end="arrowRight.mouseout"/>
                  </use>
                  <path fill="none" stroke="white" stroke-width="1.5" d="M0,-3.0v7 M-2.5,-0.5L0,-3.0L2.5,-0.5"/>
                </g>
                <g id="arrowDown" xlink:href="#dirArrow" transform="rotate(180) translate(-30 -48)" onmousedown="handlePan(0,1)">
                  <use xlink:href="#rim" fill="#404040">
                        <set attributeName="fill" to="#808080" begin="arrowDown.mouseover" end="arrowDown.mouseout"/>
                  </use>
                  <path fill="none" stroke="white" stroke-width="1.5" d="M0,-3.0v7 M-2.5,-0.5L0,-3.0L2.5,-0.5"/>
                </g>
                <g id="arrowLeft" xlink:href="#dirArrow" transform="rotate(270) translate(-36 17)" onmousedown="handlePan(-1,0)">
                  <use xlink:href="#rim" fill="#404040">
                        <set attributeName="fill" to="#808080" begin="arrowLeft.mouseover" end="arrowLeft.mouseout"/>
                  </use>
                  <path fill="none" stroke="white" stroke-width="1.5" d="M0,-3.0v7 M-2.5,-0.5L0,-3.0L2.5,-0.5"/>
                </g>
        </g>
        <svg viewBox="0 0 15 15" width="100%" height="30px" preserveAspectRatio="xMaxYMin meet">
         <g id="arrow_out" transform="scale(0.3 0.3)">
          <a xlink:href="classTrieNode_aa6fc85750ceb3ebdf37b5615c25ad601_icgraph_org.svg" target="_base">
           <rect id="button" ry="5" rx="5" y="6" x="6" height="38" width="38"
                fill="#f2f5e9" fill-opacity="0.5" stroke="#606060" stroke-width="1.0"/>
           <path id="arrow"
             d="M 11.500037,31.436501 C 11.940474,20.09759 22.043105,11.32322 32.158766,21.979434 L 37.068811,17.246167 C 37.068811,17.246167 37.088388,32 37.088388,32 L 22.160133,31.978069 C 22.160133,31.978069 26.997745,27.140456 26.997745,27.140456 C 18.528582,18.264221 13.291696,25.230495 11.500037,31.436501 z"
             style="fill:#404040;"/>
          </a>
         </g>
        </svg>
</svg>
